<svg xmlns="http://www.w3.org/2000/svg" xmlns:xlink="http://www.w3.org/1999/xlink" width="445.766" height="449.886" viewBox="0 0 445.766 449.886"><defs><clipPath id="a"><path d="M311.05,164.15a32.312,32.312,0,0,1,3.3-1.32c4-1.35,9.63-2,13.12.44,3.91,2.68,6.16,12.11-2.86,18.66A75.309,75.309,0,0,1,307,191.61a10.11,10.11,0,0,1-8.61-.46c-1.58-.88-2.92-2.18-3-4.07C295,176.08,301.07,168.8,311.05,164.15Z" fill="#fff" stroke="#263238" stroke-miterlimit="10" stroke-width="1"/></clipPath><clipPath id="b"><path d="M304.83,203.11a11.79,11.79,0,0,0,2.64,9.55,16.3,16.3,0,0,0,9.69,5.4c2.95.51,6.42.14,8.33-1.84,1.67-1.72,1.73-4.15,1.7-6.37-.05-5.44-1.45-12.89-8.93-14.58C312.11,193.87,305.73,198.07,304.83,203.11Z" fill="#fff" stroke="#263238" stroke-miterlimit="10" stroke-width="1"/></clipPath><clipPath id="c"><path d="M311.19,265.74l-11.05,8.36s-6.86,11.2,6.44,14.1L318,284.91a13.09,13.09,0,0,0,9.65-12.18c.07-5.37-3.16-11.05-16.39-12.33Z" fill="#fff" stroke="#263238" stroke-miterlimit="10" stroke-width="1"/></clipPath><clipPath id="d"><path d="M307.22,233,297,244s-5.24,13.31,9.57,13.89l11.57-5.65a20.13,20.13,0,0,0,11.19-14.49c1.1-6.4-1.32-12.89-16.55-11.7Z" fill="#fff" stroke="#263238" stroke-miterlimit="10" stroke-width="1"/></clipPath><clipPath id="e"><rect width="52.806" height="14.507" fill="none"/></clipPath></defs><g transform="translate(-29.145 -24.746)"><path d="M414.16,454.45c-.54.33-1.09.65-1.64,1l-1.53.86-1.6.88-1.62.85-1.62.83-1.64.81-1.65.78-1.66.75c-.66.3-1.33.59-2,.87l-2,.84c-1.35.55-2.71,1.08-4.07,1.58l-1.59.58-.63.22c-2,.71-4,1.37-6.08,2-1.39.42-2.8.82-4.21,1.2l-2.12.55c-.83.21-1.66.42-2.49.61l-1.78.41c-2.9.65-5.83,1.22-8.77,1.72-.68.12-1.36.23-2.05.33s-1.45.23-2.18.33c-1.46.21-2.92.4-4.38.58l-2.19.24-1.56.16-1,.1c-1.33.13-2.65.24-4,.33q-4.67.35-9.32.47h-6.15q-3.22,0-6.44-.09c-1.55,0-3.09-.1-4.63-.17l-.89-.05c-2.54-.12-5.07-.29-7.59-.49-1.72-.14-3.43-.3-5.15-.46h-.21l-2.41-.25-3.07-.36-2.18-.28-2.5-.34q-4.57-.64-9.12-1.44l-2.25-.41c-1.4-.25-2.79-.52-4.17-.8l-2-.4c-2.94-.61-5.86-1.26-8.77-2-.83-.19-1.65-.4-2.47-.6l-2.47-.63q-9-2.31-17.79-5.19l-1.89-.62q-2.34-.77-4.66-1.58l-4-1.42q-3.09-1.12-6.15-2.3c-1.4-.54-2.8-1.09-4.19-1.65-1.58-.63-3.15-1.27-4.73-1.93-1.37-.57-2.74-1.15-4.1-1.74l-1.55-.68c-1.24-.54-2.49-1.1-3.73-1.66-1.44-.65-2.89-1.31-4.33-2l-.65-.3c-1.43-.67-2.86-1.36-4.29-2.05-1.23-.59-2.46-1.2-3.68-1.81q-2.74-1.37-5.47-2.78-2.28-1.17-4.54-2.39l-4-2.16-.55-.3q-2-1.12-4.05-2.26c-1-.58-2-1.16-3.05-1.75s-2-1.14-3-1.72l-2.82-1.67c-1.6-1-3.19-1.92-4.78-2.9-9.65-5.94-19.06-12.25-28.19-18.84A383.463,383.463,0,0,1,96.26,367.2l-2.8-2.77c-4.68-4.7-9.21-9.53-13.53-14.5a234.1,234.1,0,0,1-29.57-42A181.159,181.159,0,0,1,35.78,273c-.8-2.69-1.53-5.39-2.18-8.12-.55-2.24-1-4.48-1.49-6.75a158.239,158.239,0,0,1-2.94-28.07q-.08-4.43.1-8.85a179.411,179.411,0,0,1,11-54.86,200.41,200.41,0,0,1,48-74c43.82-42.72,79.67-62.78,141.25-67,0,0,49.87-10.14,80.34,52.67,10.89,22.43,17.61,47,31.74,67.58,19.29,28.12,49.93,46.39,74.74,70,33.64,32,57,75.69,58.5,121.64S454.1,430.5,414.16,454.45Z" fill="#2cc3ff"/></g><g transform="translate(-29.145 -24.746)"><path d="M376.63,458c-5.29,1.08-10.43,1.69-14.26-5.78a11.769,11.769,0,0,1-1-5.64,7.71,7.71,0,0,1,2.34-5,4.73,4.73,0,0,1,5.9,0,16.47,16.47,0,0,1,4,4.92,28.77,28.77,0,0,1,2.67,6.34,11.7,11.7,0,0,1,.32,2.6C376.65,456.25,376.63,457.11,376.63,458Z" fill="#4d84f7"/><path d="M384.73,435.14A77.67,77.67,0,0,0,376,468.82" fill="none" stroke="#4d84f7" stroke-miterlimit="10" stroke-width="1"/><path d="M383.12,367.8c-4.91,0-9.49-.68-11.78-7.45-1-2.85-.47-6.82,2.09-8.23a4.79,4.79,0,0,1,5.22.72,12.87,12.87,0,0,1,3.31,4.51,18.89,18.89,0,0,1,1.68,5.83A15.149,15.149,0,0,1,383.12,367.8Z" fill="#4d84f7"/><path d="M378.14,399.51c-2.14,1.27-4.2,2.43-6.5,2.57s-4.85-.8-7.46-4c-2.25-2.69-3.36-7.86-1.3-10.7a4.12,4.12,0,0,1,5.23-1.31,15,15,0,0,1,4.54,3.68,31.3,31.3,0,0,1,3.81,5.18A24.406,24.406,0,0,1,378.14,399.51Z" fill="#4d84f7"/><path d="M380.37,377.28a58.88,58.88,0,0,0-2.29,15.94c0,5.42-3.26,17.18,1.4,55.76" fill="none" stroke="#4d84f7" stroke-miterlimit="10" stroke-width="1"/></g><g transform="translate(-29.145 -24.746)"><path d="M94.26,367.47l51.68-70c8.87-22,7.73-34.54,10.06-56.52,2-19.3,7.28-35.26,7.81-41.93.19-2.35,2.1-30.62,2.14-33,.07-3.11,4-10.47,4.74-13.5,6-25.56,10.72-29.39,17.43-25.52,1,.57,11.7,5.6,3.7,34.65-1.83,6.66.32,48.81.32,48.81l109.37-44.12V275.42l-48.24,55.64a78.19,78.19,0,0,1-27,18.92c-4.65,2-10.19,2.5-10.56,2.85-2.75,2.62-33.18,46.65-49.37,70.19C139.57,404.56,115,386.05,94.26,367.47Z" fill="#fff"/><path d="M192.14,210.45l-1.29.52s-2.57-42.67-.74-49.33c4.42-16.07,3.65-24.78,1.9-29.46-.41,7-2.15,26.77-9,35,10.53,14.8,4.82,43.34,1.26,49,0,0,4.56,35.38,13.59,60-3.39-1.34-6.92-1.54-8.93,1.37-4.08,5.89,1.29,19.76,3.14,25.68q3,9.57,6,19.15a274.568,274.568,0,0,1,35.91-2l-.33.14c-17.17,6.66-36.54,9.28-54.06,3.65-2.78-2.63-5.55-5.56-5.71-5.62-4.65-1.53-3,6-4.16,9.52-1.57,5-4.35,9.54-7.1,14l-27.9,45.39c24.29-25.37,34.8-42.9,49.9-58.68l4.34,3.83h-.1c-3.7.64-5.37,8.27-6.7,11.23q-6.47,14.46-13.72,28.54l14.38-18.78c4.13-5.41,9-11.21,15.41-12.82l3,2.64c1.06.94,2.14,1.88,3.24,2.79-4.79,5-24.43,39.16-47.2,69.68l9.19,7.08c16.19-23.54,46.62-67.57,49.37-70.19a9.1,9.1,0,0,1,2-.49l.06-.12h.5a42.16,42.16,0,0,0,8-2.25,78.19,78.19,0,0,0,27-18.92l27.67-32c1.74-3.21,2.31-6.42-2.8-3.85-.89.45-1.75,1-2.62,1.47a6.779,6.779,0,0,0-.93-.84c-2.16-1.54-5-1.65-7.66-1.51-8.58.47-16.92,3-25.45,4s-17.81.35-24.68-4.82c-3.95-3-6.75-7.17-10.09-10.84a394,394,0,0,0,5.75-80.42l-20.44,8.25Z" fill="#4d84f7"/><path d="M192.14,210.45l-1.29.52s-2.57-42.67-.74-49.33c4.42-16.07,3.65-24.78,1.9-29.46-.41,7-2.15,26.77-9,35,10.53,14.8,4.82,43.34,1.26,49,0,0,4.56,35.38,13.59,60-3.39-1.34-6.92-1.54-8.93,1.37-4.08,5.89,1.29,19.76,3.14,25.68q3,9.57,6,19.15a274.568,274.568,0,0,1,35.91-2l-.33.14c-17.17,6.66-36.54,9.28-54.06,3.65-2.78-2.63-5.55-5.56-5.71-5.62-4.65-1.53-3,6-4.16,9.52-1.57,5-4.35,9.54-7.1,14l-27.9,45.39c24.29-25.37,34.8-42.9,49.9-58.68l4.34,3.83h-.1c-3.7.64-5.37,8.27-6.7,11.23q-6.47,14.46-13.72,28.54l14.38-18.78c4.13-5.41,9-11.21,15.41-12.82l3,2.64c1.06.94,2.14,1.88,3.24,2.79-4.79,5-24.43,39.16-47.2,69.68l9.19,7.08c16.19-23.54,46.62-67.57,49.37-70.19a9.1,9.1,0,0,1,2-.49l.06-.12h.5a42.16,42.16,0,0,0,8-2.25,78.19,78.19,0,0,0,27-18.92l27.67-32c1.74-3.21,2.31-6.42-2.8-3.85-.89.45-1.75,1-2.62,1.47a6.779,6.779,0,0,0-.93-.84c-2.16-1.54-5-1.65-7.66-1.51-8.58.47-16.92,3-25.45,4s-17.81.35-24.68-4.82c-3.95-3-6.75-7.17-10.09-10.84a394,394,0,0,0,5.75-80.42l-20.44,8.25Z" fill="#fff" opacity="0.5"/><path d="M94.26,367.47l51.68-70c8.87-22,7.73-34.54,10.06-56.52,2-19.3,7.28-35.26,7.81-41.93.19-2.35,2.1-30.62,2.14-33,.07-3.11,4-10.47,4.74-13.5,6-25.56,10.72-29.39,17.43-25.52,1,.57,11.7,5.6,3.7,34.65-1.83,6.66.32,48.81.32,48.81l109.37-44.12V275.42l-48.24,55.64a78.19,78.19,0,0,1-27,18.92c-4.65,2-10.19,2.5-10.56,2.85-2.75,2.62-33.18,46.65-49.37,70.19" fill="none" stroke="#263238" stroke-miterlimit="10" stroke-width="1"/><path d="M311.05,164.15a32.312,32.312,0,0,1,3.3-1.32c4-1.35,9.63-2,13.12.44,3.91,2.68,6.16,12.11-2.86,18.66A75.309,75.309,0,0,1,307,191.61a10.11,10.11,0,0,1-8.61-.46c-1.58-.88-2.92-2.18-3-4.07C295,176.08,301.07,168.8,311.05,164.15Z" fill="#fff"/><g clip-path="url(#a)"><path d="M326.47,168.73c-3.79-9.32-16.05-6.8-18.59,1.84-1.24,4.23-.63,8.76,0,13.12.33,2.3,1,5,3.11,5.84a4.843,4.843,0,0,0,.51.14A81.318,81.318,0,0,0,321.71,184a20.76,20.76,0,0,0,3.34-4.08C327.09,176.59,327.93,172.34,326.47,168.73Z" fill="#4d84f7"/><path d="M326.47,168.73c-3.79-9.32-16.05-6.8-18.59,1.84-1.24,4.23-.63,8.76,0,13.12.33,2.3,1,5,3.11,5.84a4.843,4.843,0,0,0,.51.14A81.318,81.318,0,0,0,321.71,184a20.76,20.76,0,0,0,3.34-4.08C327.09,176.59,327.93,172.34,326.47,168.73Z" fill="#fff" opacity="0.5"/></g><path d="M311.05,164.15a32.312,32.312,0,0,1,3.3-1.32c4-1.35,9.63-2,13.12.44,3.91,2.68,6.16,12.11-2.86,18.66A75.309,75.309,0,0,1,307,191.61a10.11,10.11,0,0,1-8.61-.46c-1.58-.88-2.92-2.18-3-4.07C295,176.08,301.07,168.8,311.05,164.15Z" fill="none" stroke="#263238" stroke-miterlimit="10" stroke-width="1"/><path d="M309.63,215.1l-15.92,8V198.7l19.42-9S303.24,203.08,309.63,215.1Z" fill="none" stroke="#263238" stroke-miterlimit="10" stroke-width="1"/><path d="M304.2,224.38l-10.49,5.82v27.27l17.21-6.35,2.21-25.06S310.45,224.91,304.2,224.38Z" fill="none" stroke="#263238" stroke-miterlimit="10" stroke-width="1"/><path d="M311.69,101.05V296.79A14.74,14.74,0,0,1,297,311.52H207a14.74,14.74,0,0,1-14.73-14.73V101.05A14.73,14.73,0,0,1,207,86.32h90a14.55,14.55,0,0,1,3.18.35,14.73,14.73,0,0,1,11.51,14.38Z" fill="#263238"/><rect width="107.27" height="213.23" rx="14.73" transform="translate(198.37 92.23)" fill="#0074ff"/><path d="M224.65,92.23h57.17V93.9a10.75,10.75,0,0,1-10.75,10.75H235.4A10.75,10.75,0,0,1,224.65,93.9Z" fill="#263238"/><circle cx="2.77" cy="2.77" r="2.77" transform="translate(231.72 95.2)" fill="#fff" stroke="#263238" stroke-miterlimit="10" stroke-width="1"/><rect width="20.29" height="5.53" rx="2.39" transform="translate(243.09 95.75)" fill="#fff" stroke="#263238" stroke-miterlimit="10" stroke-width="1"/><path d="M263.31,224.1l8.51,8.51-10.27,10.27,10.27,10.27-8.51,8.51-10.27-10.27-10.27,10.27-8.51-8.51,10.27-10.27-10.27-10.27,8.51-8.51,10.27,10.26Z" fill="#4d84f7"/><path d="M229.7,86.35l-37.57,48.58V101.08a14.73,14.73,0,0,1,14.73-14.73Z" fill="#fff" opacity="0.2"/><path d="M300,86.38,192.14,221.54v-52.3L261.24,86h35.59A14.549,14.549,0,0,1,300,86.38Z" fill="#fff" opacity="0.2"/><path d="M311.69,236.47v22.64l-6.04,7.41-31.76,38.94-4.94,6.06H249.36l5.03-6.06,51.26-61.72Z" fill="#fff" opacity="0.2"/><path d="M304.83,203.11a11.79,11.79,0,0,0,2.64,9.55,16.3,16.3,0,0,0,9.69,5.4c2.95.51,6.42.14,8.33-1.84,1.67-1.72,1.73-4.15,1.7-6.37-.05-5.44-1.45-12.89-8.93-14.58C312.11,193.87,305.73,198.07,304.83,203.11Z" fill="#fff"/><g clip-path="url(#b)"><path d="M304.82,201.45a11.55,11.55,0,0,0,2.83,10.8,17.7,17.7,0,0,0,10.23,5.16c.84-1.62-.46-3.45-1.44-5a15.62,15.62,0,0,1-2.41-9.17c.08-1.45.64-3.19,2.07-3.47,1.27-.25,2.44.91,2.82,2.15a21.291,21.291,0,0,1,.39,3.85,3.6,3.6,0,0,0,2,3.12,20.77,20.77,0,0,0-1-8.67C317.19,192.82,307,194,304.82,201.45Z" fill="#4d84f7"/><path d="M304.82,201.45a11.55,11.55,0,0,0,2.83,10.8,17.7,17.7,0,0,0,10.23,5.16c.84-1.62-.46-3.45-1.44-5a15.62,15.62,0,0,1-2.41-9.17c.08-1.45.64-3.19,2.07-3.47,1.27-.25,2.44.91,2.82,2.15a21.291,21.291,0,0,1,.39,3.85,3.6,3.6,0,0,0,2,3.12,20.77,20.77,0,0,0-1-8.67C317.19,192.82,307,194,304.82,201.45Z" fill="#fff" opacity="0.5"/></g><path d="M304.83,203.11a11.79,11.79,0,0,0,2.64,9.55,16.3,16.3,0,0,0,9.69,5.4c2.95.51,6.42.14,8.33-1.84,1.67-1.72,1.73-4.15,1.7-6.37-.05-5.44-1.45-12.89-8.93-14.58C312.11,193.87,305.73,198.07,304.83,203.11Z" fill="none" stroke="#263238" stroke-miterlimit="10" stroke-width="1"/><path d="M311.19,265.74l-11.05,8.36s-6.86,11.2,6.44,14.1L318,284.91a13.09,13.09,0,0,0,9.65-12.18c.07-5.37-3.16-11.05-16.39-12.33Z" fill="#fff"/><g clip-path="url(#c)"><path d="M308.67,270.44a5.77,5.77,0,0,0,.94,2.58,36.571,36.571,0,0,1,4.2,13.43c-.37-3.39,1.51-7.77,1.41-11.41s-.44-8.41-2.35-11.52C311.77,265.36,308.64,268.16,308.67,270.44Z" fill="#4d84f7"/><path d="M308.67,270.44a5.77,5.77,0,0,0,.94,2.58,36.571,36.571,0,0,1,4.2,13.43c-.37-3.39,1.51-7.77,1.41-11.41s-.44-8.41-2.35-11.52C311.77,265.36,308.64,268.16,308.67,270.44Z" fill="#fff" opacity="0.5"/></g><path d="M311.19,265.74l-11.05,8.36s-6.86,11.2,6.44,14.1L318,284.91a13.09,13.09,0,0,0,9.65-12.18c.07-5.37-3.16-11.05-16.39-12.33Z" fill="none" stroke="#263238" stroke-miterlimit="10" stroke-width="1"/><path d="M307.22,233,297,244s-5.24,13.31,9.57,13.89l11.57-5.65a20.13,20.13,0,0,0,11.19-14.49c1.1-6.4-1.32-12.89-16.55-11.7Z" fill="#fff"/><g clip-path="url(#d)"><path d="M307.94,256.65c1,.88,2.72.25,3.39-.91a6.21,6.21,0,0,0,.42-3.91c-.25-2-2.81-15.67-5.92-14C304,238.83,307.58,254.2,307.94,256.65Z" fill="#4d84f7"/><path d="M307.94,256.65c1,.88,2.72.25,3.39-.91a6.21,6.21,0,0,0,.42-3.91c-.25-2-2.81-15.67-5.92-14C304,238.83,307.58,254.2,307.94,256.65Z" fill="#fff" opacity="0.5"/></g><path d="M307.22,233,297,244s-5.24,13.31,9.57,13.89l11.57-5.65a20.13,20.13,0,0,0,11.19-14.49c1.1-6.4-1.32-12.89-16.55-11.7Z" fill="none" stroke="#263238" stroke-miterlimit="10" stroke-width="1"/><path d="M306.5,241.12a5.52,5.52,0,1,0,3.7,10.23" fill="none" stroke="#263238" stroke-miterlimit="10" stroke-width="1"/><path d="M309.92,274.47a4.94,4.94,0,0,0-5.23,6.09c.98,3.09,5.52,4.16,7.8,1.9" fill="#fff" stroke="#263238" stroke-miterlimit="10" stroke-width="1"/><path d="M178.24,167.22a19.68,19.68,0,0,0,13.57-4.09" fill="none" stroke="#263238" stroke-miterlimit="10" stroke-width="1"/><path d="M190,213.24a22.42,22.42,0,0,1-13.81,5" fill="none" stroke="#263238" stroke-miterlimit="10" stroke-width="1"/><path d="M204,310.67a30.26,30.26,0,0,1-12.13,15.4" fill="none" stroke="#263238" stroke-miterlimit="10" stroke-width="1"/></g><rect width="98" height="35" rx="17.5" transform="translate(174.204 187.942)" fill="#00c853"/><g transform="translate(-966.796 -2050.058)"><g transform="translate(1163.205 2140)"><g transform="translate(26.403 7.254)"><g transform="translate(-26.403 -7.254)" clip-path="url(#e)"><path d="M565.59,128.945a.945.945,0,1,1-.945-.945.945.945,0,0,1,.945.945" transform="translate(-516.571 -117.298)" fill="#fdfeff"/><path d="M3.027,97.691a5.025,5.025,0,0,1-1.647-.268A4,4,0,0,1,0,96.6l.527-.627a.828.828,0,0,1,1.037-.192,3.152,3.152,0,0,0,1.53.4,1.07,1.07,0,0,0,.552-.117.36.36,0,0,0,.192-.326v-.017a.351.351,0,0,0-.05-.184.477.477,0,0,0-.167-.15,1.772,1.772,0,0,0-.334-.142q-.209-.067-.543-.142a9.5,9.5,0,0,1-.961-.268,2.944,2.944,0,0,1-.769-.368,1.672,1.672,0,0,1-.51-.56,1.681,1.681,0,0,1-.192-.836v-.017a1.99,1.99,0,0,1,.176-.828,1.839,1.839,0,0,1,.5-.652,2.349,2.349,0,0,1,.794-.426,3.336,3.336,0,0,1,1.037-.159,4.648,4.648,0,0,1,1.48.217,3.745,3.745,0,0,1,1.179.644l-.46.66a.828.828,0,0,1-1.028.268l-.318-.125a2.751,2.751,0,0,0-.9-.159.811.811,0,0,0-.485.117.36.36,0,0,0-.159.293v.017a.36.36,0,0,0,.05.192.46.46,0,0,0,.176.15,1.94,1.94,0,0,0,.343.142q.217.067.552.142a7.908,7.908,0,0,1,1,.284,3.01,3.01,0,0,1,.761.393,1.572,1.572,0,0,1,.477.56,1.7,1.7,0,0,1,.167.778v.017a1.99,1.99,0,0,1-.192.886,1.906,1.906,0,0,1-.535.66,2.408,2.408,0,0,1-.819.418,3.754,3.754,0,0,1-1.07.142" transform="translate(0 -83.386)" fill="#fff"/><path d="M73.5,93h.752a1.053,1.053,0,0,1,1.053,1.053v5.418h-.752A1.053,1.053,0,0,1,73.5,98.418Z" transform="translate(-67.355 -85.225)" fill="#fff"/><path d="M104.725,98.02a3.9,3.9,0,0,1-1.4-.242,3.345,3.345,0,0,1-1.112-.686,3.177,3.177,0,0,1-.744-1.053,3.352,3.352,0,0,1-.268-1.354v-.017a3.344,3.344,0,0,1,.978-2.4,3.286,3.286,0,0,1,1.1-.719,3.679,3.679,0,0,1,1.388-.259,3.988,3.988,0,0,1,1.48.251,4.063,4.063,0,0,1,1.145.694l-.543.66a.886.886,0,0,1-1.087.226l-.134-.067a2.124,2.124,0,0,0-.844-.159,1.538,1.538,0,0,0-.652.142,1.639,1.639,0,0,0-.518.376,1.815,1.815,0,0,0-.351.569,1.848,1.848,0,0,0-.125.694v.017a1.965,1.965,0,0,0,.134.719,1.622,1.622,0,0,0,.368.569,1.722,1.722,0,0,0,.56.368,1.814,1.814,0,0,0,.711.134,1.86,1.86,0,0,0,1.037-.268v-.786h-.393a.886.886,0,0,1-.886-.886v-.435h2.976v2.909a4.706,4.706,0,0,1-1.221.711,4.18,4.18,0,0,1-1.589.293" transform="translate(-92.736 -83.657)" fill="#fff"/><path d="M186.459,97.727a3.838,3.838,0,0,1-1.4-.242,3.277,3.277,0,0,1-1.087-.677,3.018,3.018,0,0,1-.719-1.053A3.544,3.544,0,0,1,183,94.383v-.025a3.6,3.6,0,0,1,.234-1.313,3.252,3.252,0,0,1,.669-1.07,3.152,3.152,0,0,1,1.028-.719,3.219,3.219,0,0,1,1.321-.268,3.394,3.394,0,0,1,1.446.284,2.86,2.86,0,0,1,1.012.769,3.244,3.244,0,0,1,.594,1.12,6.376,6.376,0,0,1,.184,1.814H185.18a1.333,1.333,0,0,0,.493.794,1.5,1.5,0,0,0,.9.259,1.772,1.772,0,0,0,.744-.159l.159-.084a1.02,1.02,0,0,1,1.154.1l.619.51a3.347,3.347,0,0,1-2.792,1.313m.92-3.9a1.43,1.43,0,0,0-.36-.853,1,1,0,0,0-.761-.318.953.953,0,0,0-.736.318,1.672,1.672,0,0,0-.376.853Z" transform="translate(-167.698 -83.38)" fill="#fff"/><path d="M526.112,14.38H521.7a.477.477,0,0,1,0-.945h4.414a.853.853,0,0,0,.853-.853V1.806a.853.853,0,0,0-.853-.853h-5.861a.853.853,0,0,0-.853.853V5.6a.477.477,0,1,1-.945,0v-3.8A1.806,1.806,0,0,1,520.252,0h5.861a1.806,1.806,0,0,1,1.806,1.806V12.583a1.806,1.806,0,0,1-1.806,1.8" transform="translate(-475.104 0)" fill="#fdfeff"/><path d="M272.3,109.817h1.1a.694.694,0,0,1,.694.694,1.862,1.862,0,0,1,1.513-.811,1.536,1.536,0,0,1,1.471.828,2.14,2.14,0,0,1,1.706-.828,1.654,1.654,0,0,1,1.739,1.864v3.344h-.945a.844.844,0,0,1-.844-.836V112.15c0-.552-.276-.844-.694-.844a.74.74,0,0,0-.736.844v2.767h-.945a.844.844,0,0,1-.844-.844V112.15c0-.552-.276-.844-.694-.844s-.727.293-.727.844v2.767h-1.1a.694.694,0,0,1-.694-.694Z" transform="translate(-249.534 -100.528)" fill="#2cc3ff"/><path d="M374.6,112.484v-.017a2.718,2.718,0,0,1,2.826-2.667,2.683,2.683,0,0,1,2.809,2.642v.017a2.718,2.718,0,0,1-2.826,2.667,2.683,2.683,0,0,1-2.809-2.642m3.888,0v-.017a1.1,1.1,0,0,0-1.078-1.145,1.079,1.079,0,0,0-1.062,1.129v.017a1.1,1.1,0,0,0,1.079,1.145,1.079,1.079,0,0,0,1.062-1.129" transform="translate(-343.281 -100.62)" fill="#2cc3ff"/><path d="M448.189,96.145v.619h-.7a1.087,1.087,0,0,1-1.087-1.087V89.9h.7a1.087,1.087,0,0,1,1.087,1.087v1.371a1.865,1.865,0,0,1,1.547-.794,2.382,2.382,0,0,1,2.257,2.634v.017a2.4,2.4,0,0,1-2.249,2.667,1.933,1.933,0,0,1-1.555-.736m2.04-1.923v-.017a1.046,1.046,0,1,0-2.082,0v.017a1.046,1.046,0,1,0,2.082,0" transform="translate(-409.078 -82.384)" fill="#2cc3ff"/><path d="M518.1,89.9h1.864v1.321H518.1Zm.042,1.781h.844a.936.936,0,0,1,.936.936v4.155h-.853a.936.936,0,0,1-.936-.936Z" transform="translate(-474.784 -82.384)" fill="#2cc3ff"/></g></g></g></g><path d="M1.28,0V-11.088H8.768v2.1H3.776v2.176H8.208v2.048H3.776V-2.1h5.36V0ZM13.92-11.088q.289.528.666,1.3t.786,1.68q.409.9.81,1.848l.754,1.776.754-1.776q.4-.944.81-1.848t.786-1.68q.377-.776.666-1.3h2.272q.16,1.1.3,2.472t.24,2.848q.1,1.48.192,2.968T23.1,0H20.672q-.048-1.616-.128-3.52T20.3-7.36q-.289.672-.642,1.488t-.7,1.632q-.345.816-.666,1.56t-.546,1.272H16.008q-.225-.528-.546-1.272T14.8-4.24q-.345-.816-.7-1.632T13.456-7.36q-.16,1.936-.24,3.84T13.088,0H10.656q.064-1.312.152-2.8T11-5.768q.1-1.48.24-2.848t.3-2.472Zm11.408,0h2.5V0h-2.5Zm13.28,0V-8.96H35.264V0h-2.5V-8.96H29.424v-2.128Zm1.6,0h2.5V0h-2.5Zm8.3-.128a6.872,6.872,0,0,1,3.824.888,3.086,3.086,0,0,1,1.328,2.76,3.12,3.12,0,0,1-.536,1.9,3.531,3.531,0,0,1-1.544,1.144q.336.416.7.952t.728,1.12q.36.584.7,1.216T54.336,0h-2.79l-.618-1.1q-.313-.56-.642-1.088t-.65-1q-.321-.472-.643-.856H47.76V0h-2.5V-10.928a14.151,14.151,0,0,1,1.688-.224Q47.824-11.216,48.512-11.216Zm.144,2.128q-.272,0-.488.016l-.408.032v3.008h.7a4.251,4.251,0,0,0,2.016-.352,1.272,1.272,0,0,0,.608-1.2,1.22,1.22,0,0,0-.616-1.16A3.809,3.809,0,0,0,48.656-9.088Z" transform="translate(196.204 211.158)" fill="#fff"/><g transform="translate(-29.145 -24.746)"><path d="M321.47,474.38l-2.78-10.83c-20.42-21-57.92-40.26-61.17-69.38-4.2-37.39-9.95-35.87-9.95-45.17a111.653,111.653,0,0,0,5.75-14.16c1-3.07,1.54-7.58,2.1-11.28a7.59,7.59,0,0,1,8-6.49,12.81,12.81,0,0,1,7.27,2.84c3.79,3.21,5.71,8.2,6.18,13.15s-.29,9.92-1.1,14.83c4,7.58,6.29,17,8,25.37,1.76-7,4.5-28.45-2.7-42.85-12.11-24.26-25.37-47.54-35.81-78.32a18.1,18.1,0,0,1-.4-8.83c2.43-9.17,11.8-7.72,16.17-2.77a17,17,0,0,1,2.8,4.37c5,10.88,15.23,27.49,22.46,37l24.92,33,3-2.34s1.35-41,.68-41.65S310.2,244,310.2,244s-2.2-4.88-4.88-11.11a13.46,13.46,0,0,1,0-11.1c4.68-9.56,14.44-5.11,16.44,0s8,15.11,8,15.11l11.13,30.44c-.42,6.88,3.53,40.88,3.53,40.88l4-1.83,6.45-20L350,266s-10.66-11.76-8.88-18.66S352,242.46,352,242.46l18.21,21.76h5.35l12.66,16a101.729,101.729,0,0,1,5.15,31.93,100.538,100.538,0,0,1-2.25,21.2l-2.9,13.52V434.2s8.66,14,8.66,15.32c0,.27,1.81,5.27,4.25,11.93C375.64,471.76,349,475.72,321.47,474.38Z" fill="#fff"/><path d="M265.11,337.22c1.09,1.25.53,3.78-1.13,3.82a11,11,0,0,0-12.24,4c-.4.57-1.12,1.26-1.66.82-.35-.29-.27-.84-.16-1.28.16-.6.32-1.2.47-1.8.87-2.08,1.87-4.69,2.93-7.91.22-.64.4-1.36.58-2.11a4.44,4.44,0,0,0,1.76,2.21c1.41.88,3.19.79,4.85.8S264,336,265.11,337.22Zm7.19,42.63c.25-.45.46-.91.67-1.38a1.56,1.56,0,0,0-.67,1.38Zm11.46-6.59c-1.7-8.41-4-17.79-8-25.37.81-4.91,1.59-9.88,1.1-14.83s-2.39-9.94-6.18-13.15a12.81,12.81,0,0,0-7.27-2.84,7.351,7.351,0,0,0-2,.13c-3.35,1.32-5.4,4.25-3.09,8.74a6.07,6.07,0,0,0,7.53,2.81,5.48,5.48,0,0,0,2.56-7.42,26.32,26.32,0,0,1-1.24,29.92c7.52,6.52,9.91,18.2,5.79,27.22a3,3,0,0,1,3.38,0c1.44,1.08,1.92,3,2.62,4.64s2.06,3.39,3.86,3.27c1.79-4.39,1.85-9.21,1.13-14-.06.32-.12.62-.19.88Zm36.81-110.87c.05.34.08.68.12,1a1.53,1.53,0,0,0-.12-1Zm-60.44-13.64a62.56,62.56,0,0,1,13.79,39.84c2.9-2.28,6.86.88,9.13,3.79a672.812,672.812,0,0,1,39,55.67c-2.33-8.49-2.39-17.49-4.91-25.92a65.194,65.194,0,0,0-3.57-9.05l-2.33,1.81-24.92-33c-7.23-9.54-17.46-26.15-22.46-37a17,17,0,0,0-2.8-4.37,12,12,0,0,0-4.18-3c-1.49,3.23,1.22,8.11-2,11.14.81,0,4.82-.43,5.25.09Zm84.2,58.68c-.59-5.16-3.82-33.82-3.44-40.08l-11.13-30.44s-6-10-8-15.11a7.363,7.363,0,0,0-.65-1.24,4,4,0,0,0-1.29-.87c-4.74-1.71-1.54,4.44-2.16,7.54a60.07,60.07,0,0,1,12.47,35.18,9.13,9.13,0,0,0-7.6,9.51c.43-3,4.83-3.84,7.24-2s3.24,5,3.78,8c3.19,17.59.77,35.68,2.05,53.51.48,6.73,6.19,21.42,10,52.16-1-22.36,0-46.11-1-68.46-.07-2.66-.17-5.2-.27-7.7Zm52.53,142.09c0-1.33-8.66-15.32-8.66-15.32V362a97.774,97.774,0,0,0-4.91-11.22.29.29,0,0,0-.54.1c-.84,7-3.57,5.3-7.87-.32,0,0-6.36,4.29-6.39,4.25a21.539,21.539,0,0,1-3.58-10c.07-.16.15-.32.23-.49s.23-.48.35-.72.33-.7.5-1.06l.35-.75.51-1.11.34-.75c.18-.39.35-.79.53-1.19.1-.24.21-.47.31-.71.2-.46.4-.91.59-1.37l.24-.56v-.09c.08-.18.15-.36.22-.54.22-.52.44-1,.65-1.57l.33-.81c.19-.46.37-.92.55-1.37l.34-.9c.17-.43.34-.87.5-1.3l.33-.91c.16-.42.31-.84.46-1.27s.22-.6.32-.89l.19-.54a22.52,22.52,0,0,0,6.42,14.64,70.1,70.1,0,0,1,1-19.61c.43-2.15.51-9.64,2.19-11s4.72-1.31,5.63.68a4.69,4.69,0,0,0-6.4-3.87c2.14-1-.85-12-1.36-14.13-.32-1.34-1.14-5-2.25-8.66a13.41,13.41,0,0,1,4.27-3.82,5.82,5.82,0,0,1,5.92.29v-.11l-.69-.88c-1.27-1.48-2.49-3-3.64-4.59l-8.33-10.54h-4l-.1.11c-.87,1.39.4,3.88.81,5.19.25.79.5,1.58.74,2.37a60.268,60.268,0,0,0-4.11-9.21L353.24,244a11,11,0,0,0-1.72-.91c-4-1.62-9.4,1.85-8.47,6.56a5.06,5.06,0,0,1,9.87-1.87,4.14,4.14,0,0,0-4.18,4.17l5.19-2c.71,5.13,4.12,9.43,7.5,13.35s3.65,6.56,4.89,11.58,2.52,12.72-2.42,14.28c2.19-.44,4.3,1.47,4.91,3.62s.14,4.45-.31,6.64a290,290,0,0,0-5.57,43.44,36.419,36.419,0,0,0-3.55,9.48l.69,34.85a29.24,29.24,0,0,0,6.87-11.1,2.9,2.9,0,0,1,5.65,1,9.238,9.238,0,0,1-.08,1.49l-2.91,49.25,11.1-41.92c2,12.34-3.34,47.11-7.1,59,9.13,1.51,12.49,12.82,12.8,22.1a134.137,134.137,0,0,0,14.71-5.54c-2.44-6.68-4.25-11.68-4.25-11.95Zm-75.16,7a24,24,0,0,0-5.87-5.81,33.05,33.05,0,0,0-19-6.1h0l5.76,4.65c.23.11.46.21.67.33a40.828,40.828,0,0,1,9.69,8.23c.26.29.54.62.83,1,1.73,1.59,3.39,3.17,4.94,4.77l2,7.7c.45,1.05.88,2.11,1.28,3.15q1.65.08,3.3.12h0c.28-5,.15-10.26-1.11-13.47a20.182,20.182,0,0,0-2.49-4.61Z" fill="#4d84f7"/><path d="M265.11,337.22c1.09,1.25.53,3.78-1.13,3.82a11,11,0,0,0-12.24,4c-.4.57-1.12,1.26-1.66.82-.35-.29-.27-.84-.16-1.28.16-.6.32-1.2.47-1.8.87-2.08,1.87-4.69,2.93-7.91.22-.64.4-1.36.58-2.11a4.44,4.44,0,0,0,1.76,2.21c1.41.88,3.19.79,4.85.8S264,336,265.11,337.22Zm7.19,42.63c.25-.45.46-.91.67-1.38a1.56,1.56,0,0,0-.67,1.38Zm11.46-6.59c-1.7-8.41-4-17.79-8-25.37.81-4.91,1.59-9.88,1.1-14.83s-2.39-9.94-6.18-13.15a12.81,12.81,0,0,0-7.27-2.84,7.351,7.351,0,0,0-2,.13c-3.35,1.32-5.4,4.25-3.09,8.74a6.07,6.07,0,0,0,7.53,2.81,5.48,5.48,0,0,0,2.56-7.42,26.32,26.32,0,0,1-1.24,29.92c7.52,6.52,9.91,18.2,5.79,27.22a3,3,0,0,1,3.38,0c1.44,1.08,1.92,3,2.62,4.64s2.06,3.39,3.86,3.27c1.79-4.39,1.85-9.21,1.13-14-.06.32-.12.62-.19.88Zm36.81-110.87c.05.34.08.68.12,1a1.53,1.53,0,0,0-.12-1Zm-60.44-13.64a62.56,62.56,0,0,1,13.79,39.84c2.9-2.28,6.86.88,9.13,3.79a672.812,672.812,0,0,1,39,55.67c-2.33-8.49-2.39-17.49-4.91-25.92a65.194,65.194,0,0,0-3.57-9.05l-2.33,1.81-24.92-33c-7.23-9.54-17.46-26.15-22.46-37a17,17,0,0,0-2.8-4.37,12,12,0,0,0-4.18-3c-1.49,3.23,1.22,8.11-2,11.14.81,0,4.82-.43,5.25.09Zm84.2,58.68c-.59-5.16-3.82-33.82-3.44-40.08l-11.13-30.44s-6-10-8-15.11a7.363,7.363,0,0,0-.65-1.24,4,4,0,0,0-1.29-.87c-4.74-1.71-1.54,4.44-2.16,7.54a60.07,60.07,0,0,1,12.47,35.18,9.13,9.13,0,0,0-7.6,9.51c.43-3,4.83-3.84,7.24-2s3.24,5,3.78,8c3.19,17.59.77,35.68,2.05,53.51.48,6.73,6.19,21.42,10,52.16-1-22.36,0-46.11-1-68.46-.07-2.66-.17-5.2-.27-7.7Zm52.53,142.09c0-1.33-8.66-15.32-8.66-15.32V362a97.774,97.774,0,0,0-4.91-11.22.29.29,0,0,0-.54.1c-.84,7-3.57,5.3-7.87-.32,0,0-6.36,4.29-6.39,4.25a21.539,21.539,0,0,1-3.58-10c.07-.16.15-.32.23-.49s.23-.48.35-.72.33-.7.5-1.06l.35-.75.51-1.11.34-.75c.18-.39.35-.79.53-1.19.1-.24.21-.47.31-.71.2-.46.4-.91.59-1.37l.24-.56v-.09c.08-.18.15-.36.22-.54.22-.52.44-1,.65-1.57l.33-.81c.19-.46.37-.92.55-1.37l.34-.9c.17-.43.34-.87.5-1.3l.33-.91c.16-.42.31-.84.46-1.27s.22-.6.32-.89l.19-.54a22.52,22.52,0,0,0,6.42,14.64,70.1,70.1,0,0,1,1-19.61c.43-2.15.51-9.64,2.19-11s4.72-1.31,5.63.68a4.69,4.69,0,0,0-6.4-3.87c2.14-1-.85-12-1.36-14.13-.32-1.34-1.14-5-2.25-8.66a13.41,13.41,0,0,1,4.27-3.82,5.82,5.82,0,0,1,5.92.29v-.11l-.69-.88c-1.27-1.48-2.49-3-3.64-4.59l-8.33-10.54h-4l-.1.11c-.87,1.39.4,3.88.81,5.19.25.79.5,1.58.74,2.37a60.268,60.268,0,0,0-4.11-9.21L353.24,244a11,11,0,0,0-1.72-.91c-4-1.62-9.4,1.85-8.47,6.56a5.06,5.06,0,0,1,9.87-1.87,4.14,4.14,0,0,0-4.18,4.17l5.19-2c.71,5.13,4.12,9.43,7.5,13.35s3.65,6.56,4.89,11.58,2.52,12.72-2.42,14.28c2.19-.44,4.3,1.47,4.91,3.62s.14,4.45-.31,6.64a290,290,0,0,0-5.57,43.44,36.419,36.419,0,0,0-3.55,9.48l.69,34.85a29.24,29.24,0,0,0,6.87-11.1,2.9,2.9,0,0,1,5.65,1,9.238,9.238,0,0,1-.08,1.49l-2.91,49.25,11.1-41.92c2,12.34-3.34,47.11-7.1,59,9.13,1.51,12.49,12.82,12.8,22.1a134.137,134.137,0,0,0,14.71-5.54c-2.44-6.68-4.25-11.68-4.25-11.95Zm-75.16,7a24,24,0,0,0-5.87-5.81,33.05,33.05,0,0,0-19-6.1h0l5.76,4.65c.23.11.46.21.67.33a40.828,40.828,0,0,1,9.69,8.23c.26.29.54.62.83,1,1.73,1.59,3.39,3.17,4.94,4.77l2,7.7c.45,1.05.88,2.11,1.28,3.15q1.65.08,3.3.12h0c.28-5,.15-10.26-1.11-13.47a20.182,20.182,0,0,0-2.49-4.61Z" fill="#fff" opacity="0.5"/><path d="M321.47,474.38l-2.78-10.83c-20.42-21-57.92-40.26-61.17-69.38-4.2-37.39-9.95-35.87-9.95-45.17a111.653,111.653,0,0,0,5.75-14.16c1-3.07,1.54-7.58,2.1-11.28a7.59,7.59,0,0,1,8-6.49,12.81,12.81,0,0,1,7.27,2.84c3.79,3.21,5.71,8.2,6.18,13.15s-.29,9.92-1.1,14.83c4,7.58,6.29,17,8,25.37,1.76-7,4.5-28.45-2.7-42.85-12.11-24.26-25.37-47.54-35.81-78.32a18.1,18.1,0,0,1-.4-8.83c2.43-9.17,11.8-7.72,16.17-2.77a17,17,0,0,1,2.8,4.37c5,10.88,15.23,27.49,22.46,37l24.92,33,3-2.34s1.35-41,.68-41.65S310.2,244,310.2,244s-2.2-4.88-4.88-11.11a13.46,13.46,0,0,1,0-11.1c4.68-9.56,14.44-5.11,16.44,0s8,15.11,8,15.11l11.13,30.44c-.42,6.88,3.53,40.88,3.53,40.88l4-1.83,6.45-20L350,266s-10.66-11.76-8.88-18.66S352,242.46,352,242.46l18.21,21.76h5.35l12.66,16a101.729,101.729,0,0,1,5.15,31.93,100.538,100.538,0,0,1-2.25,21.2l-2.9,13.52V434.2s8.66,14,8.66,15.32c0,.27,1.81,5.27,4.25,11.93" fill="none" stroke="#263238" stroke-miterlimit="10" stroke-width="1"/><path d="M272.12,290a15.25,15.25,0,0,1,12.93-4.87" fill="none" stroke="#263238" stroke-miterlimit="10" stroke-width="1"/><path d="M263.82,248.25a13.94,13.94,0,0,0-10.49,2.46s-5.25-5.24-4.13-9.52" fill="none" stroke="#263238" stroke-miterlimit="10" stroke-width="1"/><path d="M378.68,340.89c-2.9-4.47-5.7-10.61-4.93-15.87,1.52-10.32,6.22-22.19,4.11-32.4q-2-9.78-4.06-19.56" fill="none" stroke="#263238" stroke-miterlimit="10" stroke-width="1"/><path d="M322.49,230.31a6.7,6.7,0,0,1-10.61-5.61" fill="none" stroke="#263238" stroke-miterlimit="10" stroke-width="1"/><path d="M314.75,293.9c-.24,3.52.23,20.08,0,23.6" fill="none" stroke="#263238" stroke-miterlimit="10" stroke-width="1"/><path d="M335.5,324.12c4.58,5,3.91,17.07.68,23.7" fill="none" stroke="#263238" stroke-miterlimit="10" stroke-width="1"/><path d="M300.12,338.13a29.87,29.87,0,0,0,10.78,11.72" fill="none" stroke="#263238" stroke-miterlimit="10" stroke-width="1"/><path d="M364.87,331.52a21.45,21.45,0,0,1-3.14,14.65" fill="none" stroke="#263238" stroke-miterlimit="10" stroke-width="1"/><path d="M384.36,347.21a17.82,17.82,0,0,1-3.24,11.22" fill="none" stroke="#263238" stroke-miterlimit="10" stroke-width="1"/><path d="M357.64,250.34a6.69,6.69,0,0,0-7.35,1.17l-2.59-3.42" fill="none" stroke="#263238" stroke-miterlimit="10" stroke-width="1"/><path d="M336.08,265.76A8.7,8.7,0,0,0,325,267.65" fill="none" stroke="#263238" stroke-miterlimit="10" stroke-width="1"/><path d="M377.34,293.9a11.39,11.39,0,0,0-11-5.46" fill="none" stroke="#263238" stroke-miterlimit="10" stroke-width="1"/><path d="M391.43,314a6,6,0,0,0-5-5.59" fill="none" stroke="#263238" stroke-miterlimit="10" stroke-width="1"/><path d="M283.64,374.94l-4.49,2" fill="none" stroke="#263238" stroke-miterlimit="10" stroke-width="1"/><path d="M284.8,378.55a26,26,0,0,0-.05,10.54" fill="none" stroke="#263238" stroke-miterlimit="10" stroke-width="1"/><path d="M255.31,343.68a26.541,26.541,0,0,0-6.11,6.87" fill="none" stroke="#263238" stroke-miterlimit="10" stroke-width="1"/><path d="M256.41,330c3.29-2.35,8.54,2.92,11.57.23,1.2-1.07,1.3-2.93,1-4.51a14.75,14.75,0,0,1-.61-4.78" fill="none" stroke="#263238" stroke-miterlimit="10" stroke-width="1"/><path d="M326.44,379.43c.09,1.68.15,3.36.16,5" fill="none" stroke="#263238" stroke-miterlimit="10" stroke-width="1"/><path d="M321.72,350.69a133.541,133.541,0,0,1,4.16,22.18" fill="none" stroke="#263238" stroke-miterlimit="10" stroke-width="1"/><path d="M315.93,336.33c1.69,3.78,3.19,7.61,4.54,11.49" fill="none" stroke="#263238" stroke-miterlimit="10" stroke-width="1"/></g></svg>