<svg xmlns="http://www.w3.org/2000/svg" xmlns:xlink="http://www.w3.org/1999/xlink" width="603.5" height="526.587" viewBox="0 0 603.5 526.587"><defs><linearGradient id="a" x1="-66.251" y1="63.204" x2="-65.096" y2="63.204" gradientUnits="objectBoundingBox"><stop offset="0" stop-color="#311b61"/><stop offset="0.2" stop-color="#290f52"/><stop offset="0.49" stop-color="#200041"/><stop offset="1" stop-color="#0f001f"/></linearGradient><filter id="b" x="20" y="299.214" width="346" height="227.374" filterUnits="userSpaceOnUse"><feOffset dx="1" dy="1" input="SourceAlpha"/><feGaussianBlur stdDeviation="1.5" result="c"/><feFlood flood-opacity="0.4"/><feComposite operator="in" in2="c"/><feComposite in="SourceGraphic"/></filter><filter id="d" x="0" y="279.214" width="346" height="227.374" filterUnits="userSpaceOnUse"><feOffset dx="1" dy="1" input="SourceAlpha"/><feGaussianBlur stdDeviation="1.5" result="e"/><feFlood flood-opacity="0.4"/><feComposite operator="in" in2="e"/><feComposite in="SourceGraphic"/></filter></defs><g transform="translate(-956.5 -2745.549)"><g transform="translate(1361.99 2541.548)" style="isolation:isolate"><g transform="translate(-350.99 204.002)"><path d="M438.172,370.356a.926.926,0,0,1-.908-.908.908.908,0,0,1,.908-.908,35.034,35.034,0,0,0,3.632-.127.908.908,0,0,1,.944.854.89.89,0,0,1-.854.963c-1.217,0-2.452.109-3.632.127Zm-5.448-.163h0a29.639,29.639,0,0,1-3.632-.363.908.908,0,0,1-.781-1.017.89.89,0,0,1,1.017-.781c1.162.145,2.361.254,3.632.345a.916.916,0,1,1-.218,1.816Zm14.529-.472a.89.89,0,0,1-.89-.8.908.908,0,0,1,.781-1.017c1.181-.145,2.361-.345,3.541-.545a.9.9,0,1,1,.327,1.78c-1.217.218-2.415.4-3.632.563ZM423.77,368.9h-.2c-1.217-.272-2.415-.581-3.632-.926a.908.908,0,0,1-.6-1.126.89.89,0,0,1,1.126-.618c1.126.345,2.288.636,3.451.908a.914.914,0,1,1-.2,1.816Zm32.4-.926a.9.9,0,0,1-.236-1.78c1.162-.309,2.306-.636,3.433-1a.951.951,0,1,1,.563,1.816c-1.162.363-2.343.708-3.541,1.017a.454.454,0,0,1-.236-.055Zm-41.008-1.816a.98.98,0,0,1-.381-.091,34.8,34.8,0,0,1-3.287-1.671l-3.142-1.816a.908.908,0,0,1,.908-1.562l3.142,1.816c1,.563,2.034,1.09,3.124,1.58a.835.835,0,0,1-.381,1.616Zm49.6-1a.924.924,0,0,1-.345-1.816c1.108-.454,2.2-.963,3.251-1.471a.89.89,0,0,1,1.217.4.908.908,0,0,1-.418,1.217c-1.09.545-2.216,1.053-3.36,1.526a.744.744,0,0,1-.363.073Zm8.154-4a.908.908,0,0,1-.4-1.725l.745-.363c.745-.436,1.526-.926,2.288-1.417a.908.908,0,0,1,1.253.254.926.926,0,0,1-.254,1.271c-.781.509-1.6,1-2.434,1.489l-.817.4a.982.982,0,0,1-.4.018Zm-68.832-1.18a.854.854,0,0,1-.454-.127l-3.142-1.816a.908.908,0,1,1,.908-1.562l3.142,1.816a.908.908,0,0,1-.454,1.689Zm76.278-3.959a.871.871,0,0,1-.672-.309.908.908,0,0,1,0-1.271,27.03,27.03,0,0,0,2.506-2.488.913.913,0,0,1,1.362,1.217,36.305,36.305,0,0,1-2.652,2.633.981.981,0,0,1-.563.145Zm-84.142-.581a.854.854,0,0,1-.454-.127l-3.142-1.816a.908.908,0,0,1,.908-1.562l3.142,1.816a.908.908,0,0,1-.454,1.689Zm-7.864-4.54a.854.854,0,0,1-.454-.127l-3.142-1.816a.908.908,0,1,1,.908-1.562l3.142,1.816a.908.908,0,0,1,.345,1.235.926.926,0,0,1-.8.381Zm97.744-1.816a.89.89,0,0,1-.436,0,.908.908,0,0,1-.363-1.235,18.154,18.154,0,0,0,1.308-3.178.944.944,0,0,1,1.144-.617.926.926,0,0,1,.6,1.144,18.6,18.6,0,0,1-1.453,3.505.908.908,0,0,1-.817.254Zm-105.608-2.67a.854.854,0,0,1-.454-.127l-3.142-1.816a.908.908,0,0,1,.908-1.562l3.142,1.816a.908.908,0,0,1,.345,1.235.926.926,0,0,1-.817.327Zm-7.864-4.54a.854.854,0,0,1-.454-.127l-3.142-1.816a.908.908,0,0,1,.908-1.562l3.142,1.816a.908.908,0,0,1,.345,1.235.926.926,0,0,1-.817.327Zm115.434-1.507a.926.926,0,0,1-.908-.835,12.313,12.313,0,0,0-.745-3.287.944.944,0,0,1,.545-1.181.926.926,0,0,1,1.162.545,14.273,14.273,0,0,1,.854,3.759.926.926,0,0,1-.835,1Zm-123.316-3.16a.854.854,0,0,1-.454-.127l-3.142-1.816a.908.908,0,0,1,.908-1.562l3.142,1.816a.908.908,0,0,1,.345,1.235.926.926,0,0,1-.8.454Zm-7.864-4.54a.854.854,0,0,1-.454-.127l-3.142-1.816a.908.908,0,0,1,.908-1.562l3.142,1.816a.908.908,0,0,1,.345,1.235.926.926,0,0,1-.8.454Zm127.62-.636a.926.926,0,0,1-.708-.327,19.358,19.358,0,0,0-2.434-2.452.915.915,0,1,1,1.18-1.4,21.787,21.787,0,0,1,2.652,2.688.926.926,0,0,1-.109,1.289.981.981,0,0,1-.581.2Zm-135.484-3.9a.854.854,0,0,1-.454-.127l-3.142-1.816a.908.908,0,0,1,.908-1.562l3.142,1.816a.908.908,0,0,1,.345,1.235.926.926,0,0,1-.8.454Zm128.437-1.816a.854.854,0,0,1-.454-.127l-3.142-1.816a.908.908,0,0,1,.908-1.562l3.142,1.816a.926.926,0,0,1,.345,1.235.944.944,0,0,1-.8.527ZM341.136,323.59a.854.854,0,0,1-.454-.127l-3.142-1.816a.908.908,0,0,1,.908-1.562l3.142,1.816a.9.9,0,0,1-.454,1.689Zm128.437-1.816a.854.854,0,0,1-.454-.127l-3.142-1.816a.908.908,0,0,1,.908-1.562l3.142,1.816a.926.926,0,0,1,.345,1.235.944.944,0,0,1-.781.527Zm-136.3-2.8a.854.854,0,0,1-.454-.127l-3.142-1.816a.908.908,0,1,1,.908-1.562l3.142,1.816a.956.956,0,0,1-.436,1.762Zm128.437-1.816a.854.854,0,0,1-.454-.127l-3.142-1.816a.908.908,0,0,1,.908-1.562l3.142,1.816a.908.908,0,0,1-.454,1.689Zm-136.21-2.8a.854.854,0,0,1-.454-.127l-3.142-1.816a.908.908,0,0,1,.908-1.562l3.142,1.816a.926.926,0,0,1,.345,1.235.944.944,0,0,1-.872.6Zm128.437-1.816a.854.854,0,0,1-.454-.127L450.34,310.6a.908.908,0,1,1,.908-1.562l3.142,1.816a.908.908,0,0,1-.454,1.689Zm-136.21-2.8a.853.853,0,0,1-.454-.127l-3.142-1.816a.908.908,0,1,1,.908-1.562l3.142,1.816a.926.926,0,0,1,.345,1.235.944.944,0,0,1-1,.672Zm128.437-1.816a.854.854,0,0,1-.454-.127l-3.142-1.816a.908.908,0,1,1,.908-1.562l3.142,1.816a.908.908,0,0,1-.454,1.689Zm-136.3-2.8a.854.854,0,0,1-.454-.127l-3.142-1.816a.908.908,0,0,1,.908-1.562l3.142,1.816a.908.908,0,0,1-.454,1.689ZM438.3,303.322a.854.854,0,0,1-.454-.127l-3.142-1.816a.908.908,0,0,1,.908-1.562l3.142,1.816a.908.908,0,0,1-.454,1.689Zm-136.21-2.8a.853.853,0,0,1-.454-.127l-3.142-1.816a.908.908,0,1,1,.908-1.562l3.142,1.816a.908.908,0,0,1-.454,1.689Zm128.437-1.816a.854.854,0,0,1-.454-.127l-3.142-1.816a.908.908,0,0,1,.908-1.562l3.142,1.816a.908.908,0,0,1-.454,1.689Zm-136.61-2.361a.855.855,0,0,1-.454-.127L290.32,294.4a.908.908,0,1,1,.908-1.562l3.142,1.816a.908.908,0,0,1-.454,1.689Zm128.437-1.816a.854.854,0,0,1-.454-.127l-3.142-1.816a.908.908,0,0,1,.908-1.562l3.142,1.816a.908.908,0,0,1-.454,1.689Zm-136.3-2.8a.854.854,0,0,1-.454-.127l-3.142-1.816a.908.908,0,1,1,.908-1.562l3.142,1.816a.908.908,0,0,1-.454,1.689Zm128.437-1.816a.854.854,0,0,1-.454-.127l-3.142-1.816a.908.908,0,0,1,.908-1.562l3.142,1.816a.908.908,0,0,1-.454,1.689Zm-136.21-2.8a.853.853,0,0,1-.454-.127l-3.142-1.816a.908.908,0,0,1,.908-1.562l3.142,1.816a.908.908,0,0,1-.454,1.689Zm128.437-1.816a.854.854,0,0,1-.454-.127l-3.142-1.816a.908.908,0,0,1,.908-1.562l3.142,1.816a.908.908,0,0,1-.454,1.689Zm-136.41-2.579a.853.853,0,0,1-.454-.127l-3.142-1.816a.908.908,0,1,1,.908-1.562l3.142,1.816a.908.908,0,0,1-.454,1.689Zm128.437-1.816a.854.854,0,0,1-.454-.127l-3.142-1.816a.908.908,0,0,1,.908-1.562l3.142,1.816a.908.908,0,0,1-.454,1.689Zm-136.21-2.8a.854.854,0,0,1-.454-.127l-3.142-1.816a.908.908,0,0,1,.908-1.562l3.142,1.816a.908.908,0,0,1-.454,1.689ZM390.971,276.3a.854.854,0,0,1-.454-.127l-3.142-1.816a.908.908,0,0,1,.908-1.562l3.142,1.816a.908.908,0,0,1-.454,1.689Zm-136.3-2.8a.853.853,0,0,1-.454-.127l-3.142-1.816a.908.908,0,1,1,.908-1.562l3.142,1.816a.908.908,0,0,1-.454,1.689Zm128.437-1.816a.854.854,0,0,1-.454-.127l-3.142-1.816a.908.908,0,1,1,.908-1.562L383.561,270a.908.908,0,0,1-.454,1.689Zm-136.21-2.8a.854.854,0,0,1-.454-.127l-3.142-1.816a.908.908,0,1,1,.908-1.562l3.142,1.816a.908.908,0,0,1-.454,1.689Zm128.437-1.816a.854.854,0,0,1-.454-.127l-3.142-1.816a.908.908,0,0,1,.908-1.562l3.142,1.816a.908.908,0,0,1-.454,1.689Zm-136.3-2.8a.854.854,0,0,1-.454-.127l-3.142-1.816a.908.908,0,1,1,.908-1.562l3.142,1.816a.908.908,0,0,1-.454,1.689Zm128.437-1.816a.854.854,0,0,1-.454-.127l-3.142-1.816a.908.908,0,1,1,.908-1.562l3.142,1.816a.908.908,0,0,1-.454,1.689Zm-136.3-2.8a.854.854,0,0,1-.454-.127l-3.142-1.816a.908.908,0,1,1,.908-1.562l3.142,1.816a.908.908,0,0,1-.454,1.689Zm128.437-1.816a.853.853,0,0,1-.454-.127L356.01,255.9a.908.908,0,1,1,.908-1.562l3.142,1.816a.908.908,0,0,1-.454,1.689Zm-136.3-2.8a.853.853,0,0,1-.454-.127l-3.142-1.816a.908.908,0,1,1,.908-1.562l3.142,1.816a.908.908,0,0,1-.454,1.689Zm128.437-1.816a.854.854,0,0,1-.454-.127l-3.142-1.816a.908.908,0,1,1,.908-1.562l3.142,1.816a.908.908,0,0,1-.454,1.689Zm-136.21-2.8a.854.854,0,0,1-.454-.127l-3.142-1.816a.908.908,0,1,1,.908-1.562l3.142,1.816a.908.908,0,0,1-.454,1.689Zm128.437-1.816a.853.853,0,0,1-.454-.127l-3.142-1.816a.908.908,0,1,1,.908-1.562l3.142,1.816a.908.908,0,0,1-.454,1.689Zm-136.21-2.8a.854.854,0,0,1-.454-.127l-3.142-1.816a.908.908,0,1,1,.908-1.562l3.142,1.816a.908.908,0,0,1-.454,1.689ZM336.2,244.007a.854.854,0,0,1-.454-.127l-3.142-1.816a.908.908,0,0,1,.908-1.562l3.142,1.816a.908.908,0,0,1-.454,1.689Zm-136.3-2.8a.854.854,0,0,1-.454-.127l-3.142-1.816a.908.908,0,1,1,.908-1.562l3.142,1.816a.908.908,0,0,1-.454,1.689Zm128.437-1.816a.854.854,0,0,1-.454-.127l-3.142-1.816a.908.908,0,1,1,.908-1.562l3.142,1.816a.908.908,0,0,1-.454,1.689Zm-136.21-2.8a.854.854,0,0,1-.454-.127l-3.142-1.816a.908.908,0,1,1,.908-1.562l3.142,1.816a.908.908,0,0,1-.454,1.689Zm128.437-1.816a.817.817,0,0,1-.454-.127l-3.142-1.816a.908.908,0,1,1,.908-1.562l3.142,1.816a.908.908,0,0,1-.454,1.689Zm-136.3-2.8a.855.855,0,0,1-.454-.127l-3.142-1.816a.908.908,0,1,1,.908-1.562l3.142,1.816a.908.908,0,0,1-.454,1.689ZM312.7,230.168a.817.817,0,0,1-.454-.127l-3.142-1.816a.908.908,0,1,1,.908-1.562l3.142,1.816a.908.908,0,0,1-.454,1.689Zm-136.21-2.8a.854.854,0,0,1-.454-.127l-3.142-1.816a.908.908,0,1,1,.908-1.562l3.142,1.816a.908.908,0,0,1-.454,1.689Zm128.437-1.816a.817.817,0,0,1-.454-.127l-3.142-1.816a.908.908,0,1,1,.908-1.562l3.142,1.816a.908.908,0,0,1-.454,1.689Zm-136.3-2.8a.854.854,0,0,1-.454-.127l-3.142-1.816a.908.908,0,1,1,.908-1.562l3.142,1.816a.908.908,0,0,1-.454,1.689Zm128.437-1.816a.817.817,0,0,1-.454-.127L293.462,219a.908.908,0,1,1,.908-1.562l3.142,1.816a.908.908,0,0,1-.454,1.689Zm-136.21-2.8a.817.817,0,0,1-.454-.127l-3.142-1.816a.908.908,0,1,1,.908-1.562l3.142,1.816a.908.908,0,0,1-.454,1.689Zm128.437-1.816a.817.817,0,0,1-.454-.127l-3.142-1.816a.908.908,0,1,1,.908-1.562l3.142,1.816a.908.908,0,0,1-.454,1.689Zm-136.21-2.8a.817.817,0,0,1-.454-.127l-3.142-1.816a.908.908,0,1,1,.908-1.562l3.142,1.816a.908.908,0,0,1-.454,1.689Zm128.437-1.816a.817.817,0,0,1-.454-.127l-3.142-1.816a.908.908,0,1,1,.908-1.562l3.142,1.816a.908.908,0,0,1-.454,1.689Zm-136.21-2.8a.817.817,0,0,1-.454-.127l-3.142-1.816a.908.908,0,1,1,.908-1.562l3.142,1.816a.908.908,0,0,1-.454,1.689ZM273.739,207.1a.817.817,0,0,1-.454-.127l-3.142-1.816a.908.908,0,1,1,.908-1.562l3.142,1.816a.908.908,0,0,1-.454,1.689Zm-136.21-2.8a.817.817,0,0,1-.454-.127l-3.142-1.816a.908.908,0,1,1,.908-1.562l3.142,1.816a.908.908,0,0,1-.454,1.689Zm128.437-1.816a.817.817,0,0,1-.454-.127l-3.142-1.816a.908.908,0,1,1,.908-1.562l3.142,1.816a.908.908,0,0,1-.454,1.689ZM128.829,201a.817.817,0,0,1-.454-.127l-3.142-1.816a.908.908,0,1,1,.908-1.562l3.142,1.816a.908.908,0,0,1-.454,1.689Zm128.437-1.816a.817.817,0,0,1-.454-.127l-3.142-1.816a.908.908,0,1,1,.908-1.562l3.142,1.816a.908.908,0,0,1-.454,1.689Zm-136.21-2.8a.817.817,0,0,1-.454-.127l-3.142-1.816a.908.908,0,1,1,.908-1.562l3.142,1.816a.908.908,0,0,1-.454,1.689Zm128.437-1.816a.817.817,0,0,1-.454-.127l-3.142-1.816a.908.908,0,1,1,.908-1.562l3.142,1.816a.908.908,0,0,1-.454,1.689Zm-136.3-2.8a.817.817,0,0,1-.454-.127l-3.142-1.816a.908.908,0,1,1,.908-1.562l3.142,1.816a.908.908,0,0,1-.454,1.689Zm128.437-1.816a.817.817,0,0,1-.454-.127l-3.142-1.816a.908.908,0,1,1,.908-1.562l3.142,1.816a.908.908,0,0,1-.454,1.689Zm-136.21-2.8a.817.817,0,0,1-.454-.127l-3.142-1.816a.908.908,0,1,1,.908-1.562l3.142,1.816a.908.908,0,0,1-.454,1.689Zm128.437-1.816a.818.818,0,0,1-.454-.127l-3.142-1.816a.908.908,0,1,1,.908-1.562l3.142,1.816a.908.908,0,0,1-.454,1.689Zm-136.3-2.8a.817.817,0,0,1-.454-.127l-3.142-1.816a.908.908,0,1,1,.908-1.562l3.142,1.816a.908.908,0,0,1-.454,1.689Zm128.437-1.816a.817.817,0,0,1-.454-.127L222.4,178.79a.908.908,0,1,1,.908-1.562l3.142,1.816a.908.908,0,0,1-.454,1.689Zm-136.21-2.8a.817.817,0,0,1-.454-.127l-3.142-1.816a.908.908,0,1,1,.908-1.562l3.142,1.816a.908.908,0,0,1-.454,1.689ZM218.22,176.12a.817.817,0,0,1-.454-.127l-3.142-1.816a.908.908,0,1,1,.908-1.562l3.142,1.816a.908.908,0,0,1-.454,1.689Zm-136.21-2.8a.817.817,0,0,1-.454-.127l-3.142-1.816a.908.908,0,1,1,.908-1.562l3.142,1.816a.908.908,0,0,1-.454,1.689Zm128.437-1.816a.817.817,0,0,1-.454-.127l-3.142-1.816a.908.908,0,1,1,.908-1.562l3.142,1.816a.908.908,0,0,1-.454,1.689Zm-136.3-2.8a.817.817,0,0,1-.454-.127l-3.142-1.816a.908.908,0,1,1,.908-1.562l3.142,1.816a.908.908,0,0,1-.454,1.689Zm128.437-1.816a.817.817,0,0,1-.454-.127l-3.142-1.816a.908.908,0,1,1,.908-1.562l3.142,1.816a.908.908,0,0,1-.454,1.689Zm-136.3-2.8a.817.817,0,0,1-.454-.127l-3.142-1.816a.908.908,0,1,1,.908-1.562l3.142,1.816a.908.908,0,0,1-.454,1.689Zm128.437-1.816a.817.817,0,0,1-.454-.127l-3.142-1.816a.908.908,0,0,1-.345-1.235.926.926,0,0,1,1.253-.327l3.142,1.816a.908.908,0,0,1-.454,1.689Zm-136.3-2.8a.817.817,0,0,1-.454-.127l-3.142-1.816a.908.908,0,1,1,.908-1.562l3.142,1.816a.908.908,0,0,1-.454,1.689Zm128.437-1.816a.817.817,0,0,1-.454-.127l-3.142-1.816a.908.908,0,0,1-.345-1.235.926.926,0,0,1,1.253-.327l3.142,1.816a.908.908,0,0,1-.454,1.689Zm-136.21-2.8a.818.818,0,0,1-.454-.127l-3.142-1.816a.908.908,0,1,1,.908-1.562l3.142,1.816a.908.908,0,0,1-.454,1.689Zm128.437-1.816a.817.817,0,0,1-.454-.127l-3.142-1.816a.908.908,0,0,1-.345-1.235.926.926,0,0,1,1.253-.327l3.142,1.816a.908.908,0,0,1-.454,1.689Zm-136.21-2.8a.817.817,0,0,1-.454-.127l-3.142-1.816a.908.908,0,1,1,.908-1.562l3.142,1.816a.908.908,0,0,1-.454,1.689Zm128.437-1.816a.817.817,0,0,1-.454-.127l-3.142-1.816a.908.908,0,0,1-.345-1.235.926.926,0,0,1,1.253-.327l3.142,1.816a.908.908,0,0,1-.454,1.689Zm-136.21-2.8a.817.817,0,0,1-.454-.127L31.5,143.7a.89.89,0,0,1-.345-1.235.926.926,0,0,1,1.253-.327l3.142,1.816a.908.908,0,0,1-.454,1.689Zm128.437-1.816a.817.817,0,0,1-.454-.127l-3.16-1.816a.9.9,0,1,1,.908-1.562l3.16,1.816a.908.908,0,0,1-.454,1.689Zm-136.21-2.87a.872.872,0,0,1-.509-.145,30.478,30.478,0,0,1-2.96-2.325.926.926,0,0,1,0-1.289.908.908,0,0,1,1.289,0,24.01,24.01,0,0,0,2.742,2.161.89.89,0,0,1,.236,1.253.985.985,0,0,1-1.489,1.289Zm128.4-1.671a.817.817,0,0,1-.454-.127l-3.16-1.816a.9.9,0,1,1,.908-1.562l3.16,1.816a.908.908,0,0,1-.454,1.689Zm-7.864-4.54a.817.817,0,0,1-.454-.127l-3.16-1.816a.9.9,0,1,1,.908-1.562l3.16,1.816a.908.908,0,0,1-.454,1.689Zm-126.839-.218a.926.926,0,0,1-.781-.436,16.345,16.345,0,0,1-1.562-3.523.926.926,0,0,1,.617-1.126.908.908,0,0,1,1.126.6,14,14,0,0,0,1.38,3.124.908.908,0,0,1-.327,1.235.817.817,0,0,1-1.144,1.071ZM140,130.208a.817.817,0,0,1-.454-.127l-3.16-1.816a.9.9,0,0,1,.908-1.562l3.16,1.816a.908.908,0,0,1-.454,1.689ZM19.08,125.831h-.109a.908.908,0,0,1-.8-1,15.31,15.31,0,0,1,.872-3.741.89.89,0,0,1,1.162-.545.908.908,0,0,1,.545,1.162,14.529,14.529,0,0,0-.781,3.305,1.183,1.183,0,0,1-1.58,1.762Zm113.054-.163a.817.817,0,0,1-.454-.127l-3.16-1.816a.9.9,0,0,1,.908-1.562l3.16,1.816a.908.908,0,0,1-.454,1.689Zm-7.864-4.54a.818.818,0,0,1-.454-.127l-3.16-1.816a.9.9,0,1,1,.908-1.562l3.16,1.816a.908.908,0,0,1-.454,1.689ZM22.44,117.5a.944.944,0,0,1-.527-.163.926.926,0,0,1-.2-1.271,24.734,24.734,0,0,1,2.379-2.888.908.908,0,0,1,1.289,0,.89.89,0,0,1,0,1.271,27.078,27.078,0,0,0-2.234,2.706.957.957,0,0,1-1.4,1.307Zm93.967-.926a.817.817,0,0,1-.454-.127l-3.16-1.816a.9.9,0,1,1,.908-1.562l3.16,1.816a.908.908,0,0,1-.454,1.689Zm-7.864-4.54a.817.817,0,0,1-.454-.127l-3.16-1.816a.9.9,0,1,1,.908-1.562L109,110.34a.908.908,0,0,1-.454,1.689Zm-79.71-.944a.926.926,0,0,1-.726-.363.908.908,0,0,1,.163-1.271c.963-.726,2-1.435,3.051-2.107a.89.89,0,0,1,1.253.291.908.908,0,0,1-.272,1.253,31.872,31.872,0,0,0-3.541,2.978.89.89,0,0,1-.618.182Zm71.846-3.632a.817.817,0,0,1-.454-.127l-3.16-1.816a.9.9,0,1,1,.908-1.562l3.16,1.816a.908.908,0,0,1-.454,1.689Zm-64.073-1.035a.926.926,0,0,1-.781-.472.908.908,0,0,1,.345-1.235c1.053-.6,2.161-1.162,3.287-1.689a.89.89,0,0,1,1.2.418.908.908,0,0,1-.436,1.217c-1.072.509-2.143,1.072-3.16,1.635a.817.817,0,0,1-1.144,1.126ZM92.761,103a.8.8,0,0,1-.4,0c-1.035-.49-2.143-.944-3.269-1.362a.908.908,0,0,1-.527-1.181.89.89,0,0,1,1.162-.527c1.18.436,2.325.908,3.414,1.435a.928.928,0,1,1-.381,1.816Zm-47.892-.363a.872.872,0,0,1-.854-.6.89.89,0,0,1,.527-1.162c1.144-.418,2.325-.8,3.505-1.162a.89.89,0,0,1,1.126.6.908.908,0,0,1-.6,1.126c-1.162.363-2.288.745-3.4,1.144Zm8.7-2.543a.908.908,0,0,1-.89-.708.89.89,0,0,1,.69-1.072c1.2-.272,2.415-.509,3.632-.708a.926.926,0,0,1,1.053.745.908.908,0,0,1-.745,1.035c-1.18.2-2.361.436-3.523.69Zm30.62,0h-.944c-1.144-.291-2.325-.527-3.505-.726a.912.912,0,0,1,.309-1.8c1.217.218,2.434.472,3.632.745a.926.926,0,0,1,.672,1.108.908.908,0,0,1-.854,1.6ZM62.541,98.771a.908.908,0,0,1,0-1.816c1.235-.109,2.452-.2,3.632-.254a.909.909,0,0,1,.091,1.816,35.577,35.577,0,0,0-3.632.254Zm12.713,0h0c-1.18-.091-2.379-.163-3.632-.2a.926.926,0,0,1-.89-.926.963.963,0,0,1,.944-.89c1.235,0,2.47.109,3.632.218a.908.908,0,1,1,0,1.816Z" transform="translate(14.809 78.917)" fill="#7300cc"/><path d="M69.8,236.581a.872.872,0,0,1-.763-.418.89.89,0,0,1,.272-1.253l3.051-1.961a.89.89,0,0,1,1.253.272.908.908,0,0,1-.272,1.253l-3.051,1.961A.854.854,0,0,1,69.8,236.581Zm7.628-4.922a.872.872,0,0,1-.763-.418.908.908,0,0,1,.272-1.253l3.051-1.961a.89.89,0,0,1,1.253.272.908.908,0,0,1-.272,1.253l-3.051,1.961a.818.818,0,0,1-.49.145Zm7.628-4.922a.926.926,0,0,1-.763-.418.908.908,0,0,1,.272-1.253l3.051-1.961a.908.908,0,0,1,1.253.272.89.89,0,0,1-.272,1.253l-3.051,1.925A.781.781,0,0,1,85.056,226.737Zm7.628-4.922a.944.944,0,0,1-.763-.4.926.926,0,0,1,.272-1.271l3.051-1.961a.908.908,0,0,1,1.253.272.89.89,0,0,1-.254,1.253l-3.051,1.961a.872.872,0,0,1-.49.145Zm7.646-4.922a.9.9,0,0,1-.49-1.671l3.051-1.961a.908.908,0,1,1,.981,1.526l-3.051,1.961a.854.854,0,0,1-.49.145Zm2.361-4.9a.817.817,0,0,1-.49-.145l-3.069-1.961a.908.908,0,1,1,.981-1.526l3.069,1.961a.908.908,0,0,1,.272,1.253.926.926,0,0,1-.763.454ZM95.045,207.1a.908.908,0,0,1-.49-.145L91.485,205a.908.908,0,1,1,.981-1.526l3.051,1.961a.89.89,0,0,1,.291,1.253.926.926,0,0,1-.763.418Zm-7.664-4.9a.854.854,0,0,1-.49-.145l-3.051-1.943a.908.908,0,0,1-.272-1.253.89.89,0,0,1,1.253-.272l3.051,1.943a.908.908,0,0,1,.272,1.253.872.872,0,0,1-.763.418Zm-7.646-4.885a.817.817,0,0,1-.49-.145l-2.524-1.616,2.978-1.816a.91.91,0,0,1,.963,1.544l-.545.327h.109a.908.908,0,0,1,.272,1.253.89.89,0,0,1-.763.454ZM84.8,192.5a.872.872,0,0,1-.763-.436.89.89,0,0,1,.291-1.253L87.417,189a.89.89,0,0,1,1.253.291.926.926,0,0,1-.309,1.253l-3.069,1.816a1.017,1.017,0,0,1-.49.145Zm7.719-4.795a.944.944,0,0,1-.781-.436.926.926,0,0,1,.291-1.253l3.087-1.907a.908.908,0,1,1,.963,1.526l-3.087,1.925a.908.908,0,0,1-.472.145Zm7.7-4.74a.908.908,0,0,1-.472-1.671l3.087-1.925a.908.908,0,0,1,1.235.291.89.89,0,0,1-.291,1.253l-3.069,1.925a.981.981,0,0,1-.49.127Zm7.719-4.795a.908.908,0,0,1-.49-1.671l3.087-1.925a.926.926,0,0,1,1.253.291.908.908,0,0,1-.291,1.253l-3.087,1.925a.871.871,0,0,1-.472.054Zm7.7-4.795a.908.908,0,0,1-.472-1.671l3.087-1.925a.908.908,0,0,1,.944,1.544l-3.069,1.925a.981.981,0,0,1-.49.054Z" transform="translate(56.203 138.485)" fill="#7300cc"/><path d="M40.124,174.541a.908.908,0,0,1-.454-1.689l3.16-1.816a.911.911,0,1,1,.908,1.58l-3.16,1.816A1.036,1.036,0,0,1,40.124,174.541Zm7.9-4.486a.908.908,0,0,1-.454-1.689l3.16-1.816a.908.908,0,1,1,.89,1.58l-3.16,1.816A.909.909,0,0,1,48.024,170.055Zm7.882-4.486a.908.908,0,0,1-.436-1.689l3.16-1.816a.908.908,0,0,1,1.235.327.926.926,0,0,1-.345,1.253l-3.16,1.816A.817.817,0,0,1,55.906,165.569Zm7.9-4.486a.908.908,0,0,1-.781-.454.926.926,0,0,1,.327-1.253l3.16-1.816a.908.908,0,1,1,.908,1.562l-3.16,1.816A.853.853,0,0,1,63.806,161.083Zm7.9-4.431a.89.89,0,0,1-.8-.472.926.926,0,0,1,.345-1.235l3.16-1.816a.926.926,0,0,1,1.235.345.89.89,0,0,1-.345,1.235l-3.16,1.816A.763.763,0,0,1,71.707,156.652Zm7.882-4.486a.89.89,0,0,1-.781-.472.908.908,0,0,1,.345-1.235l3.142-1.816a.926.926,0,0,1,1.253.345.908.908,0,0,1-.345,1.235l-3.16,1.816a.817.817,0,0,1-.454.073Z" transform="translate(31.995 121.214)" fill="#7300cc"/><path d="M75.865,250.531H74.049a.908.908,0,0,1-.872-.926.944.944,0,0,1,.926-.89h3.632a.908.908,0,0,1,.018,1.816Zm-7.174-.4h-.109c-1.235-.145-2.452-.309-3.632-.527a.926.926,0,0,1-.745-1.053.908.908,0,0,1,1.053-.726c1.162.2,2.343.363,3.541.509a.89.89,0,0,1,.8,1,.908.908,0,0,1-.908.8Zm14.529,0a.91.91,0,1,1-.109-1.816c1.2-.145,2.379-.309,3.632-.527a.926.926,0,0,1,1.053.745.908.908,0,0,1-.726,1.053c-1.2.2-2.415.381-3.632.527Zm-23.446-1.707h-.236c-1.217-.327-2.4-.708-3.523-1.108a.908.908,0,0,1-.563-1.162.944.944,0,0,1,1.162-.563c1.108.4,2.252.763,3.4,1.09a.916.916,0,1,1-.236,1.816Zm32.309,0a.916.916,0,1,1-.236-1.816c1.144-.327,2.288-.69,3.4-1.09a.908.908,0,1,1,.617,1.707c-1.144.4-2.325.781-3.523,1.126Zm-40.772-3.233a.835.835,0,0,1-.418-.109c-1.126-.581-2.216-1.2-3.233-1.816a.914.914,0,0,1,.981-1.544c.963.617,2,1.217,3.069,1.816a.908.908,0,0,1-.4,1.725Zm49.235,0a.89.89,0,0,1-.8-.49.926.926,0,0,1,.381-1.235,31.4,31.4,0,0,0,3.069-1.816.908.908,0,0,1,.981,1.526,34.516,34.516,0,0,1-3.215,1.816.836.836,0,0,1-.418.127Zm-56.682-5.158a.854.854,0,0,1-.636-.254,21.071,21.071,0,0,1-2.488-2.833.908.908,0,0,1,.182-1.271.926.926,0,0,1,1.271.2,20.227,20.227,0,0,0,2.306,2.6.908.908,0,0,1-.636,1.562Zm64.091-.109a.926.926,0,0,1-.654-.272.908.908,0,0,1,0-1.271,20.288,20.288,0,0,0,2.306-2.67.91.91,0,0,1,1.471,1.072,21.2,21.2,0,0,1-2.488,2.851.854.854,0,0,1-.636.291ZM38.943,232.5a.926.926,0,0,1-.872-.654,14.528,14.528,0,0,1-.581-3.832.908.908,0,0,1,.908-.908h0a.89.89,0,0,1,.908.89,12.186,12.186,0,0,0,.509,3.323.908.908,0,0,1-.618,1.144Zm73.735-.145h-.254a.89.89,0,0,1-.617-1.126,12.223,12.223,0,0,0,.454-3.324.908.908,0,0,1,1.816,0,14.42,14.42,0,0,1-.527,3.814.908.908,0,0,1-.8.636Zm-.091-7.446a.926.926,0,0,1-.872-.636,13.947,13.947,0,0,0-1.4-3.106.913.913,0,1,1,1.562-.944,16.763,16.763,0,0,1,1.58,3.505.908.908,0,0,1-.581,1.09Zm-73.136-1.289a.743.743,0,0,1-.345,0,.89.89,0,0,1-.49-1.18,17.4,17.4,0,0,1,1.816-3.342.944.944,0,0,1,1.271-.218.908.908,0,0,1,.218,1.271,15.257,15.257,0,0,0-1.671,2.978.926.926,0,0,1-.726.49Zm68.214-6.229a.854.854,0,0,1-.617-.254,28,28,0,0,0-2.706-2.216.908.908,0,0,1-.2-1.271.89.89,0,0,1,1.253-.2,25.431,25.431,0,0,1,2.906,2.379.934.934,0,0,1-.563,1.562Zm-62.747-.908a.944.944,0,0,1-.69-.309.926.926,0,0,1,.109-1.289,29.874,29.874,0,0,1,3.16-2.234.908.908,0,1,1,1,1.507,31.86,31.86,0,0,0-2.833,2.107.854.854,0,0,1-.672.218Zm55.283-4.2a.835.835,0,0,1-.4-.109c-1.035-.509-2.125-1-3.251-1.453a.926.926,0,0,1-.509-1.18.944.944,0,0,1,1.18-.509c1.18.472,2.325.981,3.4,1.526a.926.926,0,0,1,.4,1.217.89.89,0,0,1-.745.509Zm-47.6-.6a.944.944,0,0,1-.835-.527.908.908,0,0,1,.454-1.2c1.09-.509,2.252-.981,3.432-1.417a.908.908,0,0,1,.617,1.707c-1.126.418-2.234.872-3.287,1.344a.745.745,0,0,1-.309.091Zm39.12-2.615h-.236c-1.126-.309-2.288-.581-3.469-.835a.89.89,0,0,1-.708-1.072.908.908,0,0,1,1.072-.708c1.217.254,2.434.545,3.632.872a.908.908,0,0,1,.636,1.108.944.944,0,0,1-.854.636Zm-30.547-.345a.908.908,0,0,1-.89-.69.926.926,0,0,1,.672-1.108c1.162-.291,2.379-.545,3.632-.763a.926.926,0,0,1,1.053.726.89.89,0,0,1-.726,1.053c-1.18.218-2.361.472-3.487.745Zm21.648-1.344h-.109c-1.162-.145-2.361-.236-3.632-.291a.926.926,0,0,1-.872-.963.89.89,0,0,1,.963-.854,33.417,33.417,0,0,1,3.632.291.908.908,0,0,1,1.017,1.09.89.89,0,0,1-.926.726Zm-12.713-.145a.908.908,0,1,1,0-1.816c1.217-.109,2.434-.182,3.632-.218a.89.89,0,0,1,.926.872.926.926,0,0,1-.872.944c-1.217,0-2.4.109-3.632.2Z" transform="translate(30.579 167.468)" fill="#7300cc"/><path d="M100.3,288.485a.871.871,0,0,1-.763-.418.89.89,0,0,1,.272-1.253l3.051-1.961a.89.89,0,0,1,1.253.272.908.908,0,0,1-.272,1.253l-3.051,1.961A.853.853,0,0,1,100.3,288.485Zm7.628-4.922a.872.872,0,0,1-.763-.418.908.908,0,0,1,.272-1.253l3.051-1.961a.89.89,0,0,1,1.253.272.908.908,0,0,1-.272,1.253l-3.051,1.961A.817.817,0,0,1,107.928,283.564Zm7.628-4.922a.926.926,0,0,1-.763-.418.908.908,0,0,1,.272-1.253l3.051-1.961a.908.908,0,0,1,1.253.272.89.89,0,0,1-.272,1.253l-3.051,1.961A.781.781,0,0,1,115.556,278.642Zm7.628-4.922a.944.944,0,0,1-.763-.4.926.926,0,0,1,.272-1.271l3.051-1.961a.908.908,0,0,1,1.253.272.89.89,0,0,1-.254,1.253l-3.051,1.961a.871.871,0,0,1-.508.145Zm7.646-4.922a.9.9,0,0,1-.49-1.671l3.051-1.961a.908.908,0,1,1,.981,1.526l-3,1.962A.854.854,0,0,1,130.83,268.8Zm2.434-5.013a.944.944,0,0,1-.527-.163l-2.978-2.07a.908.908,0,1,1,1.035-1.489l2.978,2.07a.908.908,0,0,1-.508,1.653ZM125.8,258.61a.854.854,0,0,1-.508-.163l-3-2.089a.89.89,0,0,1-.236-1.253.926.926,0,0,1,1.271-.236l2.978,2.089a.908.908,0,0,1-.527,1.653Zm-7.446-5.194a.945.945,0,0,1-.527-.163l-2.978-2.089a.908.908,0,0,1-.218-1.253.926.926,0,0,1,1.271-.236l2.978,2.089a.976.976,0,0,1-.527,1.725Zm-7.446-5.194a.944.944,0,0,1-.527-.163l-2.107-1.471,2.87-2.143a.915.915,0,1,1,1.09,1.471l-.854.618h0a.908.908,0,0,1,.236,1.271.926.926,0,0,1-.708.418Zm5.158-5.448a.926.926,0,0,1-.726-.363.908.908,0,0,1,.182-1.271l2.924-2.161a.908.908,0,1,1,1.071,1.453l-2.906,2.161a.89.89,0,0,1-.545.236Zm63.256-4.286-3.251-1.816a.911.911,0,0,1,.908-1.58l2.307,1.344a.89.89,0,0,1,1.126.327.908.908,0,0,1-.272,1.253Zm-55.973-1.126a.908.908,0,0,1-.545-1.635l2.924-2.179a.908.908,0,0,1,1.271.2.926.926,0,0,1-.182,1.271l-2.924,2.161a.854.854,0,0,1-.545.236Zm60.9-2.179a.926.926,0,0,1-.763-.418.908.908,0,0,1,.272-1.253l3.069-1.943a.908.908,0,0,1,.981,1.526l-3.069,1.943a.781.781,0,0,1-.49.291ZM171.8,234a.98.98,0,0,1-.454-.109l-3.142-1.816a.944.944,0,0,1-.345-1.253.926.926,0,0,1,1.253-.327l3.142,1.816A.908.908,0,0,1,171.8,234Zm-41.172-2.052a.89.89,0,0,1-.726-.381.926.926,0,0,1,.182-1.271l2.924-2.161a.908.908,0,0,1,1.09,1.453l-2.924,2.179a.981.981,0,0,1-.545.236Zm61.276-1.635a.926.926,0,0,1-.763-.418.908.908,0,0,1,.272-1.253l3.069-1.961a.914.914,0,0,1,.981,1.544l-3.069,1.943a.963.963,0,0,1-.49.2Zm-27.968-.854a.981.981,0,0,1-.454-.109l-3.142-1.816a.911.911,0,1,1,.908-1.58l3.142,1.816a.908.908,0,0,1-.454,1.689Zm-26.007-2.942a.926.926,0,0,1-.745-.363.908.908,0,0,1,.2-1.271l2.906-2.161a.89.89,0,0,1,1.271.182.908.908,0,0,1-.182,1.271l-2.924,2.161a.835.835,0,0,1-.527.236Zm61.64-1.09a.89.89,0,0,1-.763-.418.908.908,0,0,1,.272-1.253l3.069-1.943a.908.908,0,0,1,.981,1.526l-3.069,1.943a.817.817,0,0,1-.49.2Zm-43.587-.509a.981.981,0,0,1-.454-.109L152.387,223a.911.911,0,1,1,.908-1.58l3.142,1.816a.908.908,0,0,1-.454,1.689Zm-10.9-3.814a.872.872,0,0,1-.726-.363.908.908,0,0,1,.182-1.271l2.325-1.816,1.671.963a.89.89,0,0,1,.327,1.235.926.926,0,0,1-1.235.345l-.636-.363-1.362,1.017a1.036,1.036,0,0,1-.418.309Zm62.021-.545a.872.872,0,0,1-.763-.418.908.908,0,0,1,.272-1.253l3.069-1.961a.908.908,0,0,1,1.253.291.89.89,0,0,1-.291,1.253l-3,2a1.016,1.016,0,0,1-.418.145Zm7.664-4.885a.872.872,0,0,1-.763-.418.908.908,0,0,1,.272-1.253l3.069-1.943a.908.908,0,1,1,.963,1.526l-3.051,1.961a.981.981,0,0,1-.345.182Zm7.664-4.867a.926.926,0,0,1-.781-.418.89.89,0,0,1,.291-1.253l1.689-1.072a.908.908,0,1,1,.981,1.526l-1.707,1.072a.908.908,0,0,1-.345.2Z" transform="translate(81.095 169.668)" fill="#7300cc"/><path d="M106.365,296.281h-1.816a.908.908,0,0,1-.872-.926.944.944,0,0,1,.926-.89h3.632a.908.908,0,0,1,.018,1.816Zm-7.265-.4h-.109c-1.235-.145-2.452-.309-3.632-.527a.926.926,0,0,1-.745-1.053.908.908,0,0,1,1.053-.726c1.162.2,2.343.363,3.632.509a.89.89,0,0,1,.8,1,.908.908,0,0,1-.908.8Zm14.529,0a.91.91,0,1,1-.109-1.816c1.2-.145,2.379-.309,3.632-.527a.926.926,0,0,1,1.053.745.908.908,0,0,1-.726,1.053c-1.2.2-2.415.381-3.632.527Zm-23.41-1.689h-.236c-1.217-.327-2.4-.708-3.523-1.108a.908.908,0,0,1-.563-1.162.926.926,0,0,1,1.162-.563c1.108.4,2.252.763,3.4,1.09a.916.916,0,1,1-.236,1.816Zm32.309,0a.916.916,0,1,1-.236-1.816c1.144-.327,2.288-.69,3.4-1.09a.908.908,0,0,1,.617,1.707c-1.144.4-2.325.781-3.523,1.126ZM81.811,291a.835.835,0,0,1-.418-.109c-1.126-.581-2.216-1.2-3.233-1.816a.908.908,0,0,1-.272-1.253.89.89,0,0,1,1.253-.291c.963.617,2,1.217,3.069,1.816a.93.93,0,0,1-.4,1.816Zm49.235,0a.89.89,0,0,1-.8-.49.926.926,0,0,1,.381-1.235,31.4,31.4,0,0,0,3.069-1.816.908.908,0,1,1,.981,1.526,34.51,34.51,0,0,1-3.215,1.816.836.836,0,0,1-.418.073Zm-56.682-5.085a.854.854,0,0,1-.636-.254,21.071,21.071,0,0,1-2.488-2.833.908.908,0,1,1,1.453-1.072,20.236,20.236,0,0,0,2.307,2.6.908.908,0,0,1-.636,1.562Zm64.091-.109a.926.926,0,0,1-.654-.272.908.908,0,0,1,0-1.271,20.287,20.287,0,0,0,2.288-2.633.91.91,0,1,1,1.471,1.072,21.193,21.193,0,0,1-2.488,2.851.854.854,0,0,1-.617.127Zm-69.013-7.428a.926.926,0,0,1-.872-.654,14.528,14.528,0,0,1-.581-3.832.908.908,0,0,1,.908-.908.963.963,0,0,1,.908.89,12.187,12.187,0,0,0,.509,3.324.908.908,0,0,1-.49,1.09Zm73.735-.145h-.254a.89.89,0,0,1-.617-1.126,12.222,12.222,0,0,0,.454-3.324.908.908,0,0,1,1.816,0,14.421,14.421,0,0,1-.527,3.814.908.908,0,0,1-.8.508Zm-.091-7.446a.926.926,0,0,1-.872-.636,13.949,13.949,0,0,0-1.4-3.105.913.913,0,0,1,1.562-.944,16.764,16.764,0,0,1,1.58,3.505.908.908,0,0,1-.6,1.126.73.73,0,0,1-.2-.073Zm-73.136-1.289a.743.743,0,0,1-.345,0,.89.89,0,0,1-.49-1.18,17.4,17.4,0,0,1,1.816-3.342.944.944,0,0,1,1.271-.218.908.908,0,0,1,.218,1.271A15.258,15.258,0,0,0,70.751,269a.926.926,0,0,1-.726.363Zm68.214-6.229a.853.853,0,0,1-.617-.254,27.99,27.99,0,0,0-2.706-2.216.908.908,0,0,1-.2-1.271.89.89,0,0,1,1.253-.2A25.43,25.43,0,0,1,138.8,261.7a.8.8,0,0,1-.563,1.435Zm-62.747-.908a.944.944,0,0,1-.69-.309.926.926,0,0,1,.109-1.289,29.882,29.882,0,0,1,3-2.234.908.908,0,1,1,1,1.507,31.891,31.891,0,0,0-2.76,1.907.853.853,0,0,1-.581.291Zm55.283-4.2a.835.835,0,0,1-.4-.109c-1.035-.509-2.125-1-3.251-1.453a.926.926,0,0,1-.508-1.18.944.944,0,0,1,1.18-.509c1.18.472,2.325.981,3.4,1.526a.926.926,0,0,1,.4,1.217.89.89,0,0,1-.745.381Zm-47.6-.6a.944.944,0,0,1-.835-.527.908.908,0,0,1,.454-1.2c1.09-.509,2.252-.981,3.432-1.417a.908.908,0,0,1,.617,1.707c-1.126.418-2.234.872-3.287,1.344a.745.745,0,0,1-.309-.036Zm39.12-2.615h-.236c-1.126-.309-2.288-.581-3.469-.835a.89.89,0,0,1-.708-1.071.908.908,0,0,1,1.072-.708c1.217.254,2.434.545,3.632.872a.908.908,0,0,1,.636,1.108.944.944,0,0,1-.854.508ZM91.672,254.6a.908.908,0,0,1-.89-.69.926.926,0,0,1,.672-1.108c1.162-.291,2.379-.545,3.632-.763a.908.908,0,0,1,1.053.726.89.89,0,0,1-.726,1.053c-1.18.218-2.361.472-3.487.745Zm21.739-1.471H113.3c-1.162-.145-2.361-.236-3.632-.291a.926.926,0,0,1-.872-.963.89.89,0,0,1,.981-.835,33.425,33.425,0,0,1,3.632.291.908.908,0,0,1,.8,1,.89.89,0,0,1-.8.8Zm-12.713-.145a.908.908,0,1,1,0-1.816c1.217-.109,2.434-.182,3.632-.218a.89.89,0,0,1,.926.872.926.926,0,0,1-.926,1.035c-1.217,0-2.4.109-3.632.2Z" transform="translate(55.471 204.806)" fill="#7300cc"/><path d="M43.865,205.347H42.049a.89.89,0,0,1-.872-.926.944.944,0,0,1,.926-.89h3.632a.908.908,0,0,1,0,1.816Zm-7.174-.4h-.109c-1.235-.127-2.452-.309-3.632-.527a.908.908,0,0,1-.745-1.053.89.89,0,0,1,1.053-.726c1.162.2,2.343.363,3.541.508a.908.908,0,1,1,0,1.816Zm14.529,0a.91.91,0,1,1-.109-1.816c1.2-.145,2.379-.309,3.541-.509a.89.89,0,0,1,1.053.726.908.908,0,0,1-.726,1.053c-1.2.218-2.415.381-3.632.527ZM27.81,203.24h-.236c-1.2-.345-2.4-.726-3.523-1.126a.908.908,0,1,1,.6-1.707c1.108.4,2.252.745,3.4,1.072a.908.908,0,0,1,.636,1.126.89.89,0,0,1-.908.617Zm32.309,0a.89.89,0,0,1-.872-.654.926.926,0,0,1,.636-1.126c1.144-.327,2.288-.69,3.4-1.09a.908.908,0,0,1,.617,1.707c-1.144.418-2.325.8-3.523,1.126a.617.617,0,0,1-.291-.018Zm-40.809-3.251a1.071,1.071,0,0,1-.418-.091c-1.126-.581-2.216-1.2-3.233-1.816a.908.908,0,0,1,.981-1.526c.963.617,2,1.2,3.069,1.816a.908.908,0,0,1,.4,1.235A.89.89,0,0,1,19.311,199.989Zm49.235,0a.9.9,0,0,1-.418-1.707,31.533,31.533,0,0,0,3.069-1.816.908.908,0,0,1,1.253.272.89.89,0,0,1-.272,1.253,34.617,34.617,0,0,1-3.215,1.816,1.071,1.071,0,0,1-.418.091Zm-56.682-5.14a.98.98,0,0,1-.636-.254,21.193,21.193,0,0,1-2.488-2.851.872.872,0,0,1,.182-1.253.908.908,0,0,1,1.271.182,20.343,20.343,0,0,0,2.307,2.615.89.89,0,0,1,0,1.271.944.944,0,0,1-.636.291Zm64.091-.109a.917.917,0,0,1-.654-1.562,20.161,20.161,0,0,0,2.288-2.615.89.89,0,0,1,1.271-.2.908.908,0,0,1,.2,1.253,22.487,22.487,0,0,1-2.47,2.833.944.944,0,0,1-.636.291ZM6.943,187.294a.908.908,0,0,1-.872-.654,14.529,14.529,0,0,1-.581-3.814.908.908,0,0,1,.89-.926.963.963,0,0,1,.926.908,12.3,12.3,0,0,0,.509,3.324.908.908,0,0,1-.617,1.126Zm73.735-.145h-.254a.89.89,0,0,1-.617-1.126,12.223,12.223,0,0,0,.454-3.324.908.908,0,0,1,1.816,0,14.657,14.657,0,0,1-.527,3.832.89.89,0,0,1-.8.654Zm0-7.446a.926.926,0,0,1-.872-.636,14.329,14.329,0,0,0-1.4-3.106.913.913,0,0,1,1.562-.944,16.674,16.674,0,0,1,1.58,3.505.926.926,0,0,1-.6,1.144ZM7.542,178.413a1.053,1.053,0,0,1-.345,0,.908.908,0,0,1-.49-1.2,17.253,17.253,0,0,1,1.816-3.324.908.908,0,0,1,1.271-.218.89.89,0,0,1,.218,1.253,15.383,15.383,0,0,0-1.671,3,.908.908,0,0,1-.817.49Zm68.214-6.229a.872.872,0,0,1-.617-.236,25.662,25.662,0,0,0-2.706-2.234.908.908,0,0,1-.218-1.271.926.926,0,0,1,1.271-.2,27.474,27.474,0,0,1,2.906,2.379.926.926,0,0,1,0,1.289.962.962,0,0,1-.654.272Zm-62.747-.908a.944.944,0,0,1-.69-.309.926.926,0,0,1,0-1.289,30.873,30.873,0,0,1,3.178-2.234.908.908,0,0,1,1.253.254.926.926,0,0,1-.254,1.271,27.24,27.24,0,0,0-2.833,2.107.872.872,0,0,1-.672.2Zm55.283-4.2a1.072,1.072,0,0,1-.4-.091,35.247,35.247,0,0,0-3.251-1.453.926.926,0,0,1-.509-1.181.908.908,0,0,1,1.181-.509c1.18.454,2.306.981,3.4,1.507a.926.926,0,0,1,.4,1.217.908.908,0,0,1-.835.508Zm-47.6-.581a.928.928,0,1,1-.381-1.816c1.09-.509,2.252-.981,3.432-1.4a.908.908,0,0,1,1.162.527.944.944,0,0,1-.545,1.18c-1.126.4-2.234.854-3.287,1.344a.981.981,0,0,1-.4.163Zm39.12-2.633a.546.546,0,0,1-.236,0c-1.126-.309-2.288-.581-3.469-.817a.926.926,0,1,1,.363-1.816c1.217.236,2.415.527,3.632.854a.917.917,0,1,1-.254,1.816Zm-30.584-.291a.908.908,0,0,1-.872-.69.89.89,0,0,1,.672-1.09c1.162-.291,2.379-.563,3.632-.781a.926.926,0,0,1,1,.745.908.908,0,0,1-.726,1.053c-1.2.218-2.361.454-3.487.745Zm21.667-1.344h-.109c-1.162-.127-2.361-.236-3.632-.291a.926.926,0,0,1-.854-.963.908.908,0,0,1,.963-.854,33.417,33.417,0,0,1,3.632.291.926.926,0,0,1,.8,1.017.908.908,0,0,1-.8.745ZM38.181,162.1a.908.908,0,1,1,0-1.816c1.217-.109,2.434-.182,3.632-.218a.909.909,0,1,1,.073,1.816c-1.217,0-2.415.109-3.632.218Z" transform="translate(4.463 130.636)" fill="#7300cc"/><path d="M178.624,254.815a.908.908,0,0,1-.454-1.689l3.16-1.816a.911.911,0,0,1,.908,1.58l-3.16,1.816a1.035,1.035,0,0,1-.454.109Zm7.9-4.486a.908.908,0,0,1-.454-1.689l3.16-1.816a.908.908,0,0,1,.89,1.58l-3.16,1.816A.909.909,0,0,1,186.524,250.33Zm7.882-4.486a.908.908,0,0,1-.436-1.689l3.16-1.816a.908.908,0,0,1,1.235.327.926.926,0,0,1-.345,1.253l-3.16,1.816a.818.818,0,0,1-.454.109Zm7.9-4.486a.908.908,0,0,1-.781-.454.926.926,0,0,1,.327-1.253l3.16-1.816a.908.908,0,0,1,.908,1.562l-3.16,1.816a.853.853,0,0,1-.454.145Zm7.9-4.486a.89.89,0,0,1-.8-.472.926.926,0,0,1,.345-1.235l3.16-1.816a.926.926,0,0,1,1.235.345.89.89,0,0,1-.345,1.235l-3.16,1.816a.763.763,0,0,1-.436.127Zm7.882-4.486a.89.89,0,0,1-.781-.472.908.908,0,0,1,.345-1.235l3.142-1.816a.926.926,0,0,1,1.253.345.908.908,0,0,1-.345,1.235l-3.16,1.816a.817.817,0,0,1-.363.127Z" transform="translate(145.03 186.684)" fill="#a8cff0"/><path d="M182.365,285.613h-1.816a.89.89,0,0,1-.872-.926.926.926,0,0,1,.926-.89h3.632a.908.908,0,1,1,0,1.816Zm-7.265-.4h-.109c-1.235-.127-2.452-.309-3.632-.527a.908.908,0,0,1-.745-1.053.89.89,0,0,1,1.053-.727c1.162.2,2.343.363,3.541.509a.909.909,0,1,1-.091,1.816Zm14.529,0a.91.91,0,1,1-.109-1.816c1.2-.145,2.379-.309,3.541-.509a.89.89,0,0,1,1.053.726.908.908,0,0,1-.726,1.053c-1.2.218-2.415.381-3.632.527Zm-23.41-1.707h-.236c-1.217-.345-2.4-.726-3.523-1.126a.908.908,0,1,1,.6-1.707c1.108.381,2.252.745,3.4,1.072a.908.908,0,0,1,.636,1.126.89.89,0,0,1-.817.617Zm32.309,0a.89.89,0,0,1-.872-.654.926.926,0,0,1,.636-1.126c1.144-.327,2.288-.69,3.4-1.09a.908.908,0,1,1,.617,1.707c-1.144.418-2.325.8-3.523,1.126a.618.618,0,0,1-.2-.018Zm-40.718-3.251a1.071,1.071,0,0,1-.418-.091c-1.126-.581-2.216-1.2-3.233-1.816a.908.908,0,0,1-.272-1.253.89.89,0,0,1,1.253-.272c.963.617,2,1.2,3.069,1.816a.908.908,0,0,1,.4,1.235A.89.89,0,0,1,157.811,280.255Zm49.235,0a.9.9,0,0,1-.418-1.707,31.536,31.536,0,0,0,3.069-1.816.908.908,0,0,1,1.253.272.89.89,0,0,1-.272,1.253,34.619,34.619,0,0,1-3.215,1.816,1.071,1.071,0,0,1-.418.109Zm-56.682-5.067a.98.98,0,0,1-.636-.254,21.192,21.192,0,0,1-2.488-2.851.872.872,0,0,1,.182-1.253.908.908,0,0,1,1.271.182A21.647,21.647,0,0,0,151,273.626a.89.89,0,0,1,0,1.271.945.945,0,0,1-.636.218Zm64.091-.109a.917.917,0,0,1-.654-1.562,20.15,20.15,0,0,0,2.288-2.615.89.89,0,0,1,1.271-.2.908.908,0,0,1,.2,1.253,22.48,22.48,0,0,1-2.488,2.869.944.944,0,0,1-.618.182Zm-69.013-7.446a.908.908,0,0,1-.872-.654,14.53,14.53,0,0,1-.581-3.814.908.908,0,0,1,.908-.926h0a.908.908,0,0,1,.908.908,12.3,12.3,0,0,0,.509,3.323.908.908,0,0,1-.617,1.126Zm73.735-.145h-.254a.89.89,0,0,1-.618-1.126,12.22,12.22,0,0,0,.454-3.324.908.908,0,0,1,1.816,0,14.656,14.656,0,0,1-.527,3.832.89.89,0,0,1-.8.545Zm-.091-7.446a.926.926,0,0,1-.872-.636,14.333,14.333,0,0,0-1.4-3.106.913.913,0,1,1,1.562-.944,16.672,16.672,0,0,1,1.58,3.505.926.926,0,0,1-.6,1.144Zm-73.136-1.271a1.053,1.053,0,0,1-.345,0,.908.908,0,0,1-.49-1.2,17.255,17.255,0,0,1,1.816-3.324.908.908,0,0,1,1.271-.218.89.89,0,0,1,.218,1.253,15.384,15.384,0,0,0-1.671,3,.926.926,0,0,1-.726.418Zm68.287-6.3a.871.871,0,0,1-.617-.236A25.664,25.664,0,0,0,210.915,250a.908.908,0,0,1-.218-1.271.926.926,0,0,1,1.271-.2,27.479,27.479,0,0,1,2.906,2.379.926.926,0,0,1,0,1.289.963.963,0,0,1-.636.272Zm-62.747-.908a.944.944,0,0,1-.69-.309.926.926,0,0,1,0-1.289,30.871,30.871,0,0,1,3.015-2.234.908.908,0,0,1,1.253.254.926.926,0,0,1-.254,1.271,24.869,24.869,0,0,0-2.833,2.089.89.89,0,0,1-.49.2Zm55.283-4.2a1.072,1.072,0,0,1-.4-.091,35.265,35.265,0,0,0-3.251-1.453.926.926,0,0,1-.508-1.18.908.908,0,0,1,1.18-.509c1.18.454,2.307.981,3.4,1.507a.926.926,0,0,1,.4,1.217.908.908,0,0,1-.817.49Zm-47.6-.581a.928.928,0,0,1-.381-1.816c1.09-.509,2.252-.981,3.432-1.4a.908.908,0,0,1,1.162.527.944.944,0,0,1-.545,1.18c-1.126.4-2.234.854-3.287,1.344a.98.98,0,0,1-.381.145Zm39.12-2.633a.545.545,0,0,1-.236,0c-1.126-.309-2.288-.581-3.469-.817a.926.926,0,1,1,.363-1.816c1.217.236,2.415.527,3.632.854a.917.917,0,0,1-.254,1.816Zm-30.547-.345a.908.908,0,0,1-.89-.69.89.89,0,0,1,.672-1.09c1.162-.291,2.361-.563,3.632-.781a.926.926,0,0,1,1.053.745.908.908,0,0,1-.726,1.053c-1.2.218-2.361.454-3.487.745Zm21.648-1.344h-.109c-1.162-.127-2.361-.236-3.632-.291a.926.926,0,0,1-.854-.963.908.908,0,0,1,.963-.854,33.417,33.417,0,0,1,3.632.291.926.926,0,0,1,.8,1.017.908.908,0,0,1-.781.781Zm-12.713-.127a.908.908,0,1,1,0-1.816c1.217-.109,2.434-.182,3.632-.218a.926.926,0,0,1,.926.872.908.908,0,0,1-.872.944c-1.217,0-2.4.109-3.632.218Z" transform="translate(117.497 196.115)" fill="#7300cc"/><path d="M302.939,183.3l-26.77,54.866.581.327L367.557,220.6l51.923,29.058L318.5,310.626l-36.432-20.995L373.9,236.618,250.4,271.324l-27.242-14.892,59.224-70.375L191.81,238.343l-33.09-19.106,101-60.968Z" transform="translate(129.519 129.167)" fill="#c0f0ff"/><path d="M119.5,195.958l53.376-30.874,22.738,13.131q10.352,5.957,10.388,12.15t-10.061,12L163.251,221.2l32.89,19,32.818-18.942q12.713-7.41,15.691-15.655t-6.429-17.871a97.436,97.436,0,0,0,29.912,2.47c9.081-.781-22.938,17.29-15.637,13.076q19.705-11.26,16.6-26.243t-27.787-29.149L186.643,116.32,86.41,176.852Z" transform="translate(70.504 94.93)" fill="#c0f0ff"/><path d="M83.54,152.438C59.93,138.817,58.368,119.367,79.908,109s58.225-7.737,81.817,5.884c17.653,10.189,22.992,23.61,15.473,34.125l43.079-.49a28.6,28.6,0,0,0-1.308-15.8l-17.508-2.742a33.657,33.657,0,0,0-2.016-3.632l13.2-5.013a71.9,71.9,0,0,0-16.018-14.747l-16.345,2.089c-.781-.49-1.58-.981-2.415-1.453s-1.671-.944-2.524-1.4l5.448-8.391a155.662,155.662,0,0,0-26.425-9.771L143.654,94.1c-2.179-.509-4.359-.963-6.556-1.38l-3.632-9.5A187.75,187.75,0,0,0,103.7,81.083l-2.2,9.081c-2.143.109-4.286.254-6.393.454L83.195,82.535A121.026,121.026,0,0,0,58.078,88.6L65,97.882l-2.325,1.053c-.763.363-1.489.745-2.2,1.126L43.548,95.575a45.549,45.549,0,0,0-13.857,12.6l14.184,6.992a23.935,23.935,0,0,0-1.435,3.305l-17.4.309a28.586,28.586,0,0,0,1.308,15.8l17.635,2.833A35.323,35.323,0,0,0,46,141.051l-13.2,5.031a72.282,72.282,0,0,0,16.018,14.729l16.345-2.089c.781.49,1.58.981,2.415,1.453s1.671.944,2.524,1.4l-5.448,8.391a156.442,156.442,0,0,0,26.425,9.753l10.715-6.447c2.179.509,4.359.963,6.556,1.38l3.632,9.5a187.608,187.608,0,0,0,29.857,2.125l5.557-22.629C126.764,166.731,101.447,162.663,83.54,152.438Z" transform="translate(19.962 66.167)" fill="#c0f0ff"/><path d="M138.839,156.582c-6.447,14.275-21.794,18.052-39.955,7.664-23.7-13.73-42.97-47.056-42.97-74.3S65,57.094,88.877,70.842c11.078,6.393,3.2,18.779,10.752,31.056,4.667,7.482,21.067,18.924,39.011,16.509l19.251-19.2a180.4,180.4,0,0,0-15.673-27.024l-10.77,2.579c-1.417-1.816-2.851-3.632-4.322-5.448L128.4,55.024a136.048,136.048,0,0,0-21.43-18.942L95.942,42.147,90.984,26.855A62.947,62.947,0,0,0,69.59,21.08L59.038,26.855,55.751,22.26A34.38,34.38,0,0,0,47.4,25.675l-.363.145L17.721,41.675l8.59-3.378s9.607,17.38,8.826,18.634L21.971,47.85A61.622,61.622,0,0,0,16.25,69.1L28.273,82.356v5.721L16.25,87.442a132.9,132.9,0,0,0,5.721,27.932l8.009,20.5A178.744,178.744,0,0,0,45.635,162.9l13.857,17.181a134.1,134.1,0,0,0,21.394,18.833l5.448-10.624c.835.527,1.653,1.035,2.488,1.507s1.671.926,2.506,1.38l5.448,16.981a63.872,63.872,0,0,0,21.412,5.775l-1.253-15.819a37.118,37.118,0,0,0,4.322-.381l6.429,8.954-5.557,5.321-1.653,8.227,29.839-16.218h0a35.45,35.45,0,0,0,7.482-5.63Z" transform="translate(13.244 17.201)" fill="#8f00fc"/><path d="M67.44,99.333,96.861,83.3l19.251-19.2L86.691,80.155Z" transform="translate(55.022 52.311)" fill="#7100c7"/><path d="M74.25,65.275,103.671,49.22,92.9,51.8,63.48,67.835Z" transform="translate(51.79 40.167)" fill="#7100c7"/><path d="M61.1,70.19,90.521,54.154,91.775,39.77,62.353,55.806Z" transform="translate(49.848 32.455)" fill="#7100c7"/><path d="M70.621,24.26,41.2,40.3l5.5,16.981L55.784,52.3l1.453-2.851,18.343-9.934Z" transform="translate(33.607 19.797)" fill="#7100c7"/><path d="M8.76,46.456,28.084,35.85l13.167,9.026L21.927,55.482Z" transform="translate(7.131 29.256)" fill="#7100c7"/><path d="M5.61,68.256,24.934,57.65l12.023.636L17.633,68.892Z" transform="translate(4.561 47.047)" fill="#7100c7"/><path d="M41.2,134.421l19.324-10.606,5.5-10.624L46.7,123.8Z" transform="translate(33.607 92.376)" fill="#7300cc"/><path d="M62.353,145.025l19.324-10.606L80.424,118.6,61.1,129.206Z" transform="translate(49.848 96.791)" fill="#7300cc"/><path d="M86.6,153.607l29.421-16.055L96.971,95.69,67.55,111.726Z" transform="translate(55.112 78.093)" fill="#7100c7"/><path d="M69.41,58.06,85.083,85.084,114.5,69.029,85.483,83.486Z" transform="translate(56.63 47.382)" fill="#f0f8ff"/><path d="M50.01,38.18,71.4,57.1l29.421-16.036L71.8,55.451Z" transform="translate(40.797 31.157)" fill="#f0f8ff"/><path d="M29.42,34.521,50.814,40.3,80.235,24.26,50.705,39.007Z" transform="translate(23.993 19.797)" fill="#f0f8ff"/><path d="M78.915,172.271c-23.791-13.748-43.061-47-43.061-74.3S55.2,59.688,78.915,73.418c17.816,10.279,33.108,31.528,39.664,53.013l19.324-19.2A180.4,180.4,0,0,0,122.23,80.211l-10.77,2.506c-1.4-1.816-2.851-3.632-4.322-5.448l1.253-14.384A136.047,136.047,0,0,0,86.434,44.542L81.475,54.585c-.745-.363-1.653-.926-2.561-1.362s-1.671-.926-2.488-1.362L70.978,34.88a63.093,63.093,0,0,0-21.921-4.94l1.816,14.983a36.833,36.833,0,0,0-4.3.363l-10.788-15A34.779,34.779,0,0,0,20.09,39.13l7.664,16.8a35.778,35.778,0,0,0-2.506,3.505L11.391,51.28C8.467,57.291,7.177,63.557,6.36,71.82L18.383,85.078V90.8L5.67,90.98c.817,9.081,3.414,17.707,6.356,27.042L25.193,124.2c.781,2.143,1.616,4.286,2.506,6.393l-7.664,7.955a179.471,179.471,0,0,0,15.655,27.006l10.788-2.561c1.4,1.816,2.833,3.632,4.3,5.358L49.6,182.6c6.665,7.265,12.949,14.184,20.486,19.487L76.5,190.9c.817.527,1.653,1.035,2.488,1.526l2.488,1.362,5.448,16.981c7.537,3.414,14.111,6.157,20.795,6.647l-.581-16.654a33.545,33.545,0,0,0,4.322-.381L122.23,215.4a35.142,35.142,0,0,0,15.673-8.935l-19.687-41.226C111.769,179.517,97.076,182.6,78.915,172.271Z" transform="translate(4.61 24.432)" fill="#f0f8ff"/><path d="M78.245,173.1c-23.773-13.73-43.061-46.983-43.061-74.28s19.287-38.3,43.061-24.554c17.816,10.316,33.108,31.51,39.664,52.995l19.178-19.178a177.331,177.331,0,0,0-15.673-27.024l-10.77,2.561c-1.4-1.816-2.833-3.632-4.322-5.358l1.253-14.384a134.1,134.1,0,0,0-21.34-18.924l-5.448,10.57c-.835-.527-1.671-1.035-2.506-1.507s-1.653-.944-2.488-1.38L70.345,35.655A63.783,63.783,0,0,0,48.951,29.88L50.2,45.7a41.12,41.12,0,0,0-4.322.381L35.094,31.06A34.979,34.979,0,0,0,19.439,40L27.1,56.8a33.724,33.724,0,0,0-2.615,3.56L11.321,51.274A62.039,62.039,0,0,0,5.6,72.523L17.623,85.781V91.5L5.6,90.866a134.067,134.067,0,0,0,5.739,27.914l13.149,6.175c.781,2.143,1.616,4.268,2.506,6.393l-7.664,7.937A178.748,178.748,0,0,0,35,166.308l10.788-2.561c1.4,1.816,2.833,3.632,4.322,5.448L48.86,183.58a134.1,134.1,0,0,0,21.394,18.833L75.7,191.788c.835.527,1.653,1.035,2.488,1.507s1.671.926,2.506,1.38l5.539,17.035a63.782,63.782,0,0,0,21.394,5.775l-1.253-15.837a36.805,36.805,0,0,0,4.322-.363l10.77,15.019a34.943,34.943,0,0,0,15.619-8.99l-18.979-41.88C111.662,179.729,96.261,183.507,78.245,173.1Z" transform="translate(4.552 24.383)" fill="#7300cc"/><path d="M36.892,52.423l-4.322.363L21.8,37.766,51.2,21.73l3.305,4.595L35.639,36.586Z" transform="translate(17.774 17.732)" fill="#7100c7"/><path d="M195.744,112.088a.89.89,0,0,1-.745-.381c-.69-.981-1.4-1.961-2.125-2.924a.908.908,0,0,1,.182-1.271.926.926,0,0,1,1.271.182c.726.981,1.453,1.961,2.161,2.96a.926.926,0,0,1-.218,1.271.945.945,0,0,1-.527.163Zm-5.448-7.265a.926.926,0,0,1-.708-.327c-.763-.926-1.544-1.816-2.325-2.742a.908.908,0,0,1,0-1.289.926.926,0,0,1,1.289,0c.8.908,1.6,1.816,2.361,2.779a.926.926,0,0,1-.109,1.289,1.017,1.017,0,0,1-.581.345Zm-6.048-6.774a.926.926,0,0,1-.654-.272c-.835-.872-1.689-1.816-2.543-2.561a.908.908,0,1,1,1.271-1.289c.872.854,1.816,1.707,2.579,2.6a.89.89,0,0,1,0,1.271.817.817,0,0,1-.726.309Zm-6.538-6.3a.835.835,0,0,1-.6-.236c-.89-.8-1.816-1.6-2.724-2.379a.908.908,0,0,1,1.18-1.38c.926.8,1.816,1.6,2.761,2.415a.89.89,0,0,1,0,1.271.872.872,0,0,1-.69.363Zm-6.956-5.83a.926.926,0,0,1-.563-.2c-.944-.745-1.816-1.471-2.869-2.179a.908.908,0,0,1,1.09-1.453l2.906,2.2a.908.908,0,0,1,.145,1.289.89.89,0,0,1-.781.4Zm-7.265-5.358a.854.854,0,0,1-.508-.163l-3.015-1.98a.926.926,0,0,1-.272-1.271.908.908,0,0,1,1.253-.254q1.562.981,3.051,2.016a.908.908,0,0,1-.509,1.653Zm-7.664-4.867a1.072,1.072,0,0,1-.472-.127l-1.562-.926-1.562-.908a.908.908,0,1,1,.908-1.562l1.562.908,1.58.926a.908.908,0,0,1-.454,1.689Zm-7.864-4.559a.817.817,0,0,1-.454-.127l-3.142-1.816a.908.908,0,1,1,.908-1.562l3.142,1.816a.908.908,0,0,1-.454,1.689Zm-7.864-4.54a.817.817,0,0,1-.454-.127L136.5,64.651a.908.908,0,1,1,.908-1.562l3.142,1.816a.908.908,0,0,1-.454,1.689Zm-7.864-4.54a.817.817,0,0,1-.454-.127l-3.142-1.816a.908.908,0,1,1,.908-1.562l3.142,1.816a.908.908,0,0,1-.454,1.689Zm-7.864-4.54a.817.817,0,0,1-.454-.127l-3.142-1.816a.908.908,0,1,1,.908-1.562l3.142,1.816a.908.908,0,0,1-.454,1.689Zm-7.864-4.54a.817.817,0,0,1-.454-.127L112.91,51.03a.908.908,0,1,1,.908-1.562l3.142,1.816a.908.908,0,0,1-.454,1.689Z" transform="translate(91.696 40.228)" fill="#7300cc"/><path d="M191.623,113.927a.926.926,0,0,1-.817-.527,105.338,105.338,0,0,0-7.628-13.24A127.71,127.71,0,0,0,140.336,61a.911.911,0,0,1,.908-1.58,129.672,129.672,0,0,1,43.442,39.719,107.665,107.665,0,0,1,7.755,13.476.908.908,0,0,1-.418,1.217.98.98,0,0,1-.4.091Z" transform="translate(114.142 48.397)" fill="#7300cc"/><path d="M220.7,209.508a69.794,69.794,0,0,0-15.292-21.648l8.227-4.649a16.345,16.345,0,0,0,5.448-3.469q5.775-5.7,5.775-18.288,0-22.611-14.366-43.969a115.924,115.924,0,0,0-38.956-35.524l-54.43-31.4L86.76,67.032l54.393,31.4a115.925,115.925,0,0,1,38.956,35.524q14.384,21.358,14.384,43.969,0,12.6-5.793,18.288t-17.035,4.867a72.955,72.955,0,0,1,18.688,24.9,69.376,69.376,0,0,1,5.685,27.86v38.593l30.348-16.472V237.368A69.685,69.685,0,0,0,220.7,209.508Z" transform="translate(70.79 41.261)" fill="#8f00fc"/><path d="M146.93,169.892v38.593l30.348-16.472V153.42Z" transform="translate(119.897 125.209)" fill="#7100c7"/><path d="M104.89,194.49l29.766-16.509V116.56L104.89,132.27Z" transform="translate(85.587 95.126)" fill="#7300cc"/><path d="M119.527,240.722l1.489-62.039,22.629,13.058a41.771,41.771,0,0,1,15.637,15.165,40.718,40.718,0,0,1,5.339,20.813v38.357l31.346,18.47,1.489-38.139a69.685,69.685,0,0,0-5.685-27.86,73.263,73.263,0,0,0-18.706-24.9q11.278.817,17.053-4.867t5.775-18.288q0-22.611-14.366-43.969A115.925,115.925,0,0,0,142.574,91L87,59.69l1.072,162.2Z" transform="translate(70.986 48.712)" fill="#f0f8ff"/><path d="M171.5,81.969,117.108,50.55,86.76,67.041l54.393,31.4Z" transform="translate(70.79 41.253)" fill="#7100c7"/><path d="M119.687,240.953V178.732l22.647,13.058a41.771,41.771,0,0,1,15.637,15.165,40.718,40.718,0,0,1,5.339,20.813v38.357L196,285.031V246.438a69.376,69.376,0,0,0-5.684-27.86,72.955,72.955,0,0,0-18.688-24.9q11.242.817,17.035-4.867t5.793-18.288q0-22.611-14.384-43.969a115.924,115.924,0,0,0-38.956-35.524L86.76,59.63V221.938Z" transform="translate(70.79 48.663)" fill="#7300cc"/><path d="M154.434,115.115V147.9L104,119.383V86.62Z" transform="translate(84.86 70.691)" fill="#2672ab"/><path d="M155.434,149.565,103.62,120.27V86l51.814,29.276Zm-50.452-30.093,49.036,27.751v-31.2L104.982,88.288Z" transform="translate(84.55 70.185)" fill="#7300cc"/><path d="M93.95,107.818v27.1l54.03-30.438L123.953,90.91Z" transform="translate(76.658 74.192)" fill="#7300cc"/><path d="M92.44,106.955l2.8,1.6,29.948-16.908-2.851-1.635Z" transform="translate(75.426 73.458)" fill="#a8cff0"/><path d="M126.259,99.677v3L106.118,91.068a1.053,1.053,0,0,0-1.6.926v31.673l38.411,22.32a2.833,2.833,0,0,0,2.906,0l.817-.509a2.543,2.543,0,0,0,1.217-2.179V111.972a2.906,2.906,0,0,0-1.453-2.506L127.857,98.751a1.053,1.053,0,0,0-1.6.926Z" transform="translate(85.284 74.197)" fill="#ff6e3c"/><path d="M105.6,91.411l20.123,11.623v-.617L106.037,91.066a1.053,1.053,0,0,0-1.417.327A1.053,1.053,0,0,1,105.6,91.411Z" transform="translate(85.366 74.199)" fill="#b22600"/><path d="M136.568,106.011,118.007,95.3a1.053,1.053,0,0,0-1.417.327,1.053,1.053,0,0,1,.981,0l18.561,10.715a2.924,2.924,0,0,1,1.453,2.524v31.256a2.6,2.6,0,0,1-.708,1.816,2.561,2.561,0,0,0,1.144-2.125V108.518A2.906,2.906,0,0,0,136.568,106.011Z" transform="translate(95.135 77.652)" fill="#b22600"/><path d="M103.43,119.493l43.351,25.026V116.986L103.43,91.96Z" transform="translate(84.395 75.049)" fill="#fff"/><path d="M104.469,120.087l40.118,23.174a2.815,2.815,0,0,0,2.706,0l.272-.145-.272.109a1,1,0,0,1-1.362-.926V120.141a2.906,2.906,0,0,0-1.453-2.524l-40.3-23.265a1.072,1.072,0,0,0-1.6.926v21.558a3.759,3.759,0,0,0,1.889,3.251Z" transform="translate(83.701 76.888)" fill="#ff6e3c"/><path d="M147.171,143.26a1,1,0,0,1-1.362-.926V120.141a2.906,2.906,0,0,0-1.453-2.524l-40.3-23.265a1.053,1.053,0,0,0-1.326.236,1.035,1.035,0,0,1,.944,0l40.3,23.265a2.906,2.906,0,0,1,1.453,2.506v22.193a.963.963,0,0,0,.854.981,2.561,2.561,0,0,0,.89-.291l.272-.145Z" transform="translate(83.824 76.889)" fill="#b22600"/><path d="M121.511,102.5v3.015L101.388,93.888a1.053,1.053,0,0,0-1.6.908v31.692l38.411,22.32a2.8,2.8,0,0,0,2.888,0l.835-.509a2.6,2.6,0,0,0,1.217-2.179V114.81a2.906,2.906,0,0,0-1.453-2.506l-18.579-10.733a1.072,1.072,0,0,0-1.6.926Z" transform="translate(81.424 76.499)" fill="#9f33dd"/><path d="M100.871,94.229l20.123,11.623v-.617L101.307,93.866a1.072,1.072,0,0,0-1.417.309A1.108,1.108,0,0,1,100.871,94.229Z" transform="translate(81.506 76.485)" fill="#5813ba"/><path d="M131.837,108.883,113.258,98.15a1.072,1.072,0,0,0-1.4.327,1.017,1.017,0,0,1,.963,0l18.561,10.715a2.869,2.869,0,0,1,1.453,2.506v31.274a2.615,2.615,0,0,1-.69,1.816,2.561,2.561,0,0,0,1.144-2.125V111.317a2.906,2.906,0,0,0-1.453-2.434Z" transform="translate(91.275 79.992)" fill="#5813ba"/><path d="M98.7,122.323l43.351,25.026V119.816L98.7,94.79Z" transform="translate(80.535 77.359)" fill="#fff"/><path d="M99.721,122.917l40.173,23.174a2.815,2.815,0,0,0,2.706,0l.272-.145-.272.109a1,1,0,0,1-1.362-.944V122.971a2.924,2.924,0,0,0-1.453-2.524L99.448,97.182a1.072,1.072,0,0,0-1.6.926v21.558a3.741,3.741,0,0,0,1.871,3.251Z" transform="translate(79.841 79.198)" fill="#9f33dd"/><path d="M142.441,146.091a1,1,0,0,1-1.362-.944V122.972a2.924,2.924,0,0,0-1.453-2.524l-40.3-23.265A1.072,1.072,0,0,0,98,97.4a1.09,1.09,0,0,1,.944,0l40.3,23.265a2.96,2.96,0,0,1,1.453,2.524v22.175a1,1,0,0,0,.854,1,3.016,3.016,0,0,0,.89-.291l.272-.145Z" transform="translate(79.963 79.198)" fill="#5813ba"/><path d="M115.61,124.538V144.9L144.2,128.679V108.32Z" transform="translate(94.335 88.401)" fill="#7300cc"/><path d="M107.05,131.732l2.8,1.6,41.335-23.5v-3.36Z" transform="translate(87.349 86.891)" fill="#a8cff0"/><path d="M118.51,113.292v34.325l3.106-1.78V111.53Z" transform="translate(96.702 91.021)" fill="#2672ab"/><path d="M143.977,127.313v34.325L87.35,128.62V94.35Z" transform="translate(71.271 77)" fill="#7300cc"/><path d="M88.36,126.139V96.1l52.958,30.838v30.075Z" transform="translate(72.096 78.428)" fill="#72b5e8"/><path d="M87.35,95.166l56.627,32.963,3.069-1.762L90.383,93.35Z" transform="translate(71.271 76.183)" fill="#72b5e8"/><path d="M87.35,94.35l56.627,32.963,3.069-1.762-3.324.636Z" transform="translate(71.271 77)" fill="#d1ebff"/><path d="M108.189,111.657a1.816,1.816,0,0,1-.726,1.58l-1.38.8c-.581.309-.908,0-1.816-.563a6.447,6.447,0,0,1-3.124-4.9c0-.854-.236-1.126.309-1.362,0,0,1.489-.854,1.544-.854a2.633,2.633,0,0,1,2.107.381A6.447,6.447,0,0,1,108.189,111.657Z" transform="translate(82.487 86.735)" fill="#2672ab"/><path d="M108.567,112.808a2.107,2.107,0,0,1-.872,1.816l-1.671.944c-.672.381-1.072,0-2.2-.654a7.755,7.755,0,0,1-3.741-5.9c0-1.017-.272-1.344.381-1.635l1.816-1.017a3.142,3.142,0,0,1,2.543.472A7.755,7.755,0,0,1,108.567,112.808Z" transform="translate(81.619 86.728)" fill="#7300cc"/><path d="M107.212,113.295c0,2.07-1.689,2.779-3.741,1.58a7.755,7.755,0,0,1-3.741-5.9c0-2.07,1.671-2.779,3.741-1.58a7.737,7.737,0,0,1,3.741,5.9Z" transform="translate(81.375 87.168)" fill="#a8cff0"/><path d="M106.082,112.405c0,1.635-1.326,2.2-2.96,1.253a6.084,6.084,0,0,1-2.942-4.649c0-1.635,1.308-2.2,2.942-1.253a6.138,6.138,0,0,1,2.96,4.649Z" transform="translate(81.743 87.567)" fill="#2672ab"/><path d="M101.118,107.37a1.635,1.635,0,0,0-.654,1.435,6.084,6.084,0,0,0,2.96,4.649,2.434,2.434,0,0,0,2,.363h0a2.179,2.179,0,0,1-2.306-.218,6.084,6.084,0,0,1-2.942-4.649,1.526,1.526,0,0,1,.944-1.58Z" transform="translate(81.73 87.626)" fill="#084c94"/><path d="M209.83,274.632l29.312-15.891L290.267,153.26l-29.312,15.891Z" transform="translate(171.232 125.078)" fill="#7300cc"/><path d="M177.21,157.491V249.86l29.312-15.891V141.6Z" transform="translate(144.609 115.562)" fill="#7300cc"/><path d="M182.82,122.231l33.925,126.33,29.331-15.891L212.151,106.34Z" transform="translate(149.188 86.785)" fill="#8f00fc"/><path d="M246.74,159.31V321.6L276.2,305.418V143.11Z" transform="translate(201.355 116.794)" fill="#7100c7"/><path d="M259.038,151.09,228.69,213v82.779L261.617,314.8V152.488Z" transform="translate(186.624 123.307)" fill="#7300cc"/><path d="M237.98,181.581v7.428l15.728,10.9,29.676-15.928V138.03Z" transform="translate(194.206 112.648)" fill="#084c94" opacity="0.2"/><path d="M266.778,264.176a.908.908,0,0,1-.908-.908v-3.632a.908.908,0,0,1,1.816,0v3.632A.926.926,0,0,1,266.778,264.176Zm0-9.081a.908.908,0,0,1-.908-.908v-3.632a.908.908,0,0,1,1.816,0v3.632A.926.926,0,0,1,266.778,255.095Zm0-9.081a.908.908,0,0,1-.908-.908v-3.632a.908.908,0,0,1,1.816,0v3.632A.926.926,0,0,1,266.778,246.014Zm6.447-.127a.944.944,0,0,1-.527-.163l-2.96-2.125a.908.908,0,0,1-.218-1.271.89.89,0,0,1,1.271-.2l2.942,2.107a.908.908,0,0,1,.218,1.271.89.89,0,0,1-.726.363Zm2.724-.127a.926.926,0,0,1-.908-.908V241.22a.908.908,0,1,1,1.816,0v3.632a.908.908,0,0,1-.908.908Zm0-9.081a.926.926,0,0,1-.908-.908v-3.632a.908.908,0,1,1,1.816,0v3.632a.908.908,0,0,1-.908.908Zm0-9.081a.926.926,0,0,1-.908-.908v-3.632a.908.908,0,0,1,1.816,0v3.632a.908.908,0,0,1-.908.908Zm0-9.081a.926.926,0,0,1-.908-.908v-3.632a.908.908,0,0,1,1.816,0v3.632a.908.908,0,0,1-.908.908Zm0-9.081a.926.926,0,0,1-.908-.908V204.9a.908.908,0,0,1,1.816,0v3.632a.908.908,0,0,1-.908.908Zm0-9.081a.926.926,0,0,1-.908-.908v-3.632a.908.908,0,0,1,1.816,0v3.632a.908.908,0,0,1-.908.908Zm0-9.081a.926.926,0,0,1-.908-.908v-3.632a.908.908,0,0,1,1.816,0v3.632a.908.908,0,0,1-.908.908Zm0-9.081a.926.926,0,0,1-.908-.908v-3.632a.908.908,0,0,1,1.816,0v3.632a.908.908,0,0,1-.908.908Zm0-9.081a.926.926,0,0,1-.908-.908v-3.632a.908.908,0,0,1,1.816,0v3.632a.908.908,0,0,1-.908.908Zm0-9.081a.926.926,0,0,1-.908-.908v-3.632a.908.908,0,0,1,1.816,0v3.632a.908.908,0,0,1-.908.908Zm0-9.081a.926.926,0,0,1-.908-.908v-3.632a.908.908,0,0,1,1.816,0v3.632a.908.908,0,0,1-.908.908Zm0-9.081a.926.926,0,0,1-.908-.908v-3.632a.908.908,0,0,1,1.816,0v3.632a.908.908,0,0,1-.908.908Zm0-9.081a.926.926,0,0,1-.908-.908v-3.632a.908.908,0,1,1,1.816,0v3.632a.908.908,0,0,1-.908.908Zm0-9.081a.926.926,0,0,1-.908-.908v-3.632a.908.908,0,0,1,1.816,0V126.8a.908.908,0,0,1-.908.908Zm0-9.081a.926.926,0,0,1-.908-.908V114.09a.908.908,0,0,1,1.816,0v3.632a.908.908,0,0,1-.908.908Zm0-9.081a.926.926,0,0,1-.908-.908v-3.632a.908.908,0,0,1,1.816,0v3.632a.908.908,0,0,1-.908.908Zm0-9.081a.926.926,0,0,1-.908-.908V95.929a.908.908,0,0,1,1.816,0v3.632a.908.908,0,0,1-.908.908Zm0-9.081a.926.926,0,0,1-.908-.908V86.848a.908.908,0,1,1,1.816,0V90.48a.908.908,0,0,1-.908.908Z" transform="translate(216.968 70.136)" fill="#7300cc"/><path d="M322.5,107.9,248.9,173.008l17.98,12.931-30.747,66.67L202.2,126.279l-43.133-24.9V263.67l32.945,19.015V190.316L223.2,300.683l28.059,16.291,51.124-105.481L322.5,225.967Z" transform="translate(129.805 82.737)" fill="#a8cff0"/><path d="M226.108,290.222,195.742,182.689a7.265,7.265,0,0,0-6.992-5.285,6.155,6.155,0,0,0-1,0,7.265,7.265,0,0,0-6.266,7.265v79.783L163.07,253.827V108.3l29.639,17.108,33.144,123.5a7.265,7.265,0,0,0,6.411,5.358h.617a7.265,7.265,0,0,0,6.593-4.232l30.729-66.67a7.265,7.265,0,0,0-2.361-8.935l-10.588-7.61,54.72-48.4v87.756l-8.608-6.193a7.278,7.278,0,0,0-10.788,2.724l-47.71,98.435Z" transform="translate(133.069 88.385)" fill="#7300cc"/><path d="M166.03,251.775V110.007l-2.96-1.707V253.827l18.416,10.624V260.71Z" transform="translate(133.069 88.385)" fill="#7300cc"/><path d="M205.638,245.465a7.266,7.266,0,0,1-1.108,1.707,7.264,7.264,0,0,0,4.05-3.741l30.729-66.67a7.265,7.265,0,0,0-2.343-8.935L226.378,160.2l51.76-45.785v-.563l-54.72,48.4,10.588,7.61a7.264,7.264,0,0,1,2.361,8.935Z" transform="translate(166.906 92.914)" fill="#7300cc"/><path d="M246.3,158.242a7.264,7.264,0,0,0-4.25-1.362,7.576,7.576,0,0,0-1.816.218,7.446,7.446,0,0,0-3.632,2.325c.254-.091.49-.2.763-.272a7.265,7.265,0,0,1,6.03,1.144L252,166.487v-4.159Z" transform="translate(193.08 128.033)" fill="#7300cc"/><path d="M218.679,258.063,188.295,150.529a7.264,7.264,0,0,0-6.974-5.3,9.565,9.565,0,0,0-1.017,0,7.264,7.264,0,0,0-4.5,2.452,7.592,7.592,0,0,1,1.562-.4,6.16,6.16,0,0,1,1,0,7.265,7.265,0,0,1,6.992,5.285L215.719,260.1l18.761,10.9,1.417-2.924Z" transform="translate(143.459 118.51)" fill="#7300cc"/><path d="M249.06,112.111,278.372,96.22V214.287L249.06,230.178Z" transform="translate(203.249 78.526)" fill="#8f00fc"/><path d="M249.06,105.443l1.907-1.053L249.06,223.51Z" transform="translate(203.249 85.194)" fill="#f0f8ff"/><path d="M188.4,92.63l43.133,24.9L202.2,133.42l-43.133-24.9Z" transform="translate(129.805 75.596)" fill="#7100c7"/><path d="M201.876,124.191l29.658-13.8L202.2,126.279l-43.133-24.9Z" transform="translate(129.805 82.737)" fill="#f0f8ff"/><path d="M51.78,159.9a6.883,6.883,0,0,1-2.415-4.631c0-.981,1.362-1.816,3.051-1.816a29.458,29.458,0,0,0,6.593-.726,6.011,6.011,0,0,0,4.25,0c1.126-.636,1.471-1.507.944-2.07,4.431-2.815,6.5-6.193.182-9.825a16.672,16.672,0,0,0-17.017,0,4.958,4.958,0,0,0-3.632.545,1.471,1.471,0,0,0-.145,2.452,6.738,6.738,0,0,0-1.235,3.814c0,.981-1.362,1.816-3.051,1.816a25.627,25.627,0,0,1-8.045-1.4,13.512,13.512,0,0,0-10.461.69l-4.9,2.833a1.053,1.053,0,0,0,0,2l26.279,15.183a3.85,3.85,0,0,0,3.451,0l4.9-2.833C53.4,164.312,53.8,161.806,51.78,159.9Z" transform="translate(12.366 113.027)" fill="#8f00fc"/><path d="M86.628,179.858a6.847,6.847,0,0,1-2.415-4.631c0-.981,1.362-1.816,3.051-1.816a29.694,29.694,0,0,0,6.593-.726,6.011,6.011,0,0,0,4.25,0c1.108-.636,1.471-1.507.944-2.07,4.413-2.815,6.5-6.193.163-9.825a16.672,16.672,0,0,0-17.017.091,4.976,4.976,0,0,0-3.632.545,1.471,1.471,0,0,0-.127,2.452,6.629,6.629,0,0,0-1.253,3.814c0,.981-1.344,1.816-3.033,1.816a25.642,25.642,0,0,1-8.064-1.4,13.512,13.512,0,0,0-10.461.69l-4.9,2.833a1.053,1.053,0,0,0,0,2L77,188.812a3.85,3.85,0,0,0,3.451,0l4.922-2.833C88.244,184.271,88.644,181.765,86.628,179.858Z" transform="translate(40.792 129.354)" fill="#8f00fc"/><path d="M121.442,199.838a6.92,6.92,0,0,1-2.415-4.631c0-.981,1.362-1.816,3.051-1.816a29.568,29.568,0,0,0,6.593-.726,6.011,6.011,0,0,0,4.25,0c1.108-.636,1.471-1.507.944-2.07,4.431-2.815,6.5-6.193.182-9.825a16.672,16.672,0,0,0-17.017.091,5.03,5.03,0,0,0-3.632.545,1.471,1.471,0,0,0-.127,2.452,6.774,6.774,0,0,0-1.253,3.814c0,.981-1.344,1.816-3.033,1.816a25.535,25.535,0,0,1-8.045-1.4,13.512,13.512,0,0,0-10.461.69l-4.9,2.833a1.053,1.053,0,0,0,0,2l26.279,15.183a3.886,3.886,0,0,0,3.469,0l4.9-2.833C123.094,204.251,123.494,201.745,121.442,199.838Z" transform="translate(69.235 145.661)" fill="#8f00fc"/><path d="M156.318,219.839a6.883,6.883,0,0,1-2.434-4.631c0-.981,1.362-1.816,3.051-1.816a29.458,29.458,0,0,0,6.593-.726,6.011,6.011,0,0,0,4.25,0c1.126-.636,1.471-1.507.944-2.07,4.431-2.815,6.5-6.175.182-9.825a16.672,16.672,0,0,0-17.017,0,4.958,4.958,0,0,0-3.632.545,1.471,1.471,0,0,0-.145,2.452,6.792,6.792,0,0,0-1.235,3.814c0,.981-1.362,1.816-3.051,1.816a25.625,25.625,0,0,1-8.045-1.4,13.513,13.513,0,0,0-10.461.69l-4.9,2.833a1.053,1.053,0,0,0,0,2L146.693,228.7a3.85,3.85,0,0,0,3.451,0l4.9-2.833C157.934,224.252,158.389,221.746,156.318,219.839Z" transform="translate(97.669 161.947)" fill="#8f00fc"/><path d="M191.158,239.8a6.847,6.847,0,0,1-2.415-4.631c0-.981,1.362-1.816,3.051-1.816a29.694,29.694,0,0,0,6.593-.726,6.011,6.011,0,0,0,4.25,0c1.108-.636,1.471-1.507.944-2.07,4.413-2.815,6.5-6.175.163-9.825a16.672,16.672,0,0,0-17.017.091,4.976,4.976,0,0,0-3.632.545,1.471,1.471,0,0,0-.127,2.452,6.683,6.683,0,0,0-1.253,3.814c0,.981-1.344,1.816-3.033,1.816a25.644,25.644,0,0,1-8.064-1.4,13.513,13.513,0,0,0-10.461.69l-4.9,2.833a1.053,1.053,0,0,0,0,2l26.279,15.183a3.85,3.85,0,0,0,3.451,0l4.922-2.833C192.774,244.212,193.174,241.705,191.158,239.8Z" transform="translate(126.103 178.273)" fill="#8f00fc"/><path d="M226,259.8a6.956,6.956,0,0,1-2.434-4.649c0-.981,1.362-1.816,3.051-1.816a29.569,29.569,0,0,0,6.593-.726,6.011,6.011,0,0,0,4.25,0c1.108-.636,1.471-1.507.944-2.07,4.431-2.815,6.5-6.175.182-9.825a16.672,16.672,0,0,0-17.017.091,5.031,5.031,0,0,0-3.632.545,1.471,1.471,0,0,0-.127,2.452,6.81,6.81,0,0,0-1.253,3.814c0,.981-1.344,1.816-3.033,1.816a25.533,25.533,0,0,1-8.045-1.4,13.512,13.512,0,0,0-10.461.69l-4.9,2.833a1.053,1.053,0,0,0,0,2l26.28,15.183a3.886,3.886,0,0,0,3.469,0l4.9-2.833C227.616,264.191,228.016,261.685,226,259.8Z" transform="translate(154.553 194.58)" fill="#8f00fc"/><path d="M47.516,186.139A6.883,6.883,0,0,1,45.1,181.49c0-.981,1.362-1.816,3.051-1.816a29.566,29.566,0,0,0,6.593-.708,6.1,6.1,0,0,0,4.25-.091c1.108-.636,1.471-1.489.944-2.07,4.431-2.815,6.5-6.175.182-9.825a16.709,16.709,0,0,0-17.035,0,5.012,5.012,0,0,0-3.632.563,1.471,1.471,0,0,0-.127,2.452,6.72,6.72,0,0,0-1.253,3.8c0,.981-1.344,1.816-3.033,1.816a24.935,24.935,0,0,1-8.045-1.4,13.512,13.512,0,0,0-10.461.708l-4.9,2.833a1.035,1.035,0,0,0,0,1.98l26.279,15.183a3.832,3.832,0,0,0,3.469,0l4.9-2.833C49.223,190.534,49.55,188.028,47.516,186.139Z" transform="translate(8.875 134.37)" fill="#8f00fc"/><path d="M82.356,206.058a6.919,6.919,0,0,1-2.434-4.649c0-.981,1.362-1.816,3.051-1.816a29.564,29.564,0,0,0,6.593-.708,6.1,6.1,0,0,0,4.25,0c1.108-.636,1.471-1.489.944-2.07,4.431-2.815,6.5-6.175.182-9.825a16.672,16.672,0,0,0-17.017.091,4.976,4.976,0,0,0-3.632.563,1.471,1.471,0,0,0-.145,2.452,6.683,6.683,0,0,0-1.235,3.8c0,.981-1.362,1.816-3.051,1.816a25.119,25.119,0,0,1-8.045-1.4,13.512,13.512,0,0,0-10.461.708l-4.9,2.833a1.053,1.053,0,0,0,0,1.98l26.3,15.183a3.8,3.8,0,0,0,3.451,0l4.9-2.833C83.973,210.453,84.336,207.947,82.356,206.058Z" transform="translate(37.327 150.737)" fill="#8f00fc"/><path d="M117.272,226.079a6.81,6.81,0,0,1-2.415-4.649c0-.981,1.362-1.816,3.051-1.816a29.675,29.675,0,0,0,6.593-.708,6.1,6.1,0,0,0,4.25-.091c1.108-.636,1.471-1.489.944-2.07,4.413-2.815,6.484-6.175.163-9.825a16.672,16.672,0,0,0-17.017.091,4.994,4.994,0,0,0-3.632.563,1.471,1.471,0,0,0-.127,2.452,6.574,6.574,0,0,0-1.253,3.8c0,.981-1.344,1.816-3.033,1.816a25.136,25.136,0,0,1-8.064-1.4,13.512,13.512,0,0,0-10.461.708L81.4,217.779a1.035,1.035,0,0,0,0,2.052l26.28,15.183a3.8,3.8,0,0,0,3.451,0l4.922-2.833C118.889,230.474,119.288,227.968,117.272,226.079Z" transform="translate(65.685 167.002)" fill="#8f00fc"/><path d="M152.046,246.079a6.883,6.883,0,0,1-2.415-4.649c0-.981,1.362-1.816,3.051-1.816a29.566,29.566,0,0,0,6.593-.708,6.1,6.1,0,0,0,4.25-.091c1.108-.636,1.471-1.489.944-2.07,4.431-2.815,6.5-6.175.182-9.825a16.708,16.708,0,0,0-17.035,0,5.012,5.012,0,0,0-3.632.563,1.471,1.471,0,0,0-.127,2.452,6.719,6.719,0,0,0-1.253,3.8c0,.981-1.344,1.816-3.033,1.816a24.933,24.933,0,0,1-8.045-1.4,13.512,13.512,0,0,0-10.461.708l-4.9,2.833a1.035,1.035,0,0,0,0,1.98l26.28,15.183a3.832,3.832,0,0,0,3.469,0l4.9-2.833C153.68,250.474,154.08,247.968,152.046,246.079Z" transform="translate(94.186 183.289)" fill="#8f00fc"/><path d="M186.886,266a6.919,6.919,0,0,1-2.434-4.649c0-.981,1.362-1.816,3.051-1.816a29.566,29.566,0,0,0,6.593-.708,6.1,6.1,0,0,0,4.25,0c1.108-.636,1.471-1.489.944-2.07,4.431-2.815,6.5-6.175.182-9.825a16.636,16.636,0,0,0-17.017.109,4.885,4.885,0,0,0-3.632.545,1.471,1.471,0,0,0-.145,2.452,6.683,6.683,0,0,0-1.235,3.8c0,.981-1.362,1.816-3.051,1.816a25.117,25.117,0,0,1-8.045-1.4,13.512,13.512,0,0,0-10.461.708l-4.9,2.833a1.053,1.053,0,0,0,0,1.98l26.3,15.183a3.8,3.8,0,0,0,3.451,0l4.9-2.833C188.5,270.392,188.9,267.886,186.886,266Z" transform="translate(122.638 199.657)" fill="#8f00fc"/><path d="M44.593,210.943a6.919,6.919,0,0,1-2.434-4.649c0-.963,1.38-1.816,3.069-1.816a30.876,30.876,0,0,0,6.593-.726,6.1,6.1,0,0,0,4.25,0c1.108-.654,1.471-1.507.944-2.089,4.413-2.815,6.484-6.175.163-9.825a16.636,16.636,0,0,0-17.017.109,4.958,4.958,0,0,0-3.632.545,1.471,1.471,0,0,0-.127,2.452,6.629,6.629,0,0,0-1.253,3.814c0,.963-1.344,1.816-3.033,1.816a25.662,25.662,0,0,1-8.064-1.417,13.512,13.512,0,0,0-10.461.708l-4.9,2.833a1.058,1.058,0,0,0,0,2l26.279,15.165a3.8,3.8,0,0,0,3.451,0l4.9-2.833C46.155,215.356,46.609,212.85,44.593,210.943Z" transform="translate(6.495 154.697)" fill="#8f00fc"/><path d="M79.453,230.923a6.883,6.883,0,0,1-2.415-4.649c0-.963,1.362-1.816,3.051-1.816a30.879,30.879,0,0,0,6.593-.726,6.1,6.1,0,0,0,4.25,0c1.108-.654,1.471-1.507.944-2.089,4.413-2.815,6.5-6.175.182-9.825a16.672,16.672,0,0,0-17.035.109,4.994,4.994,0,0,0-3.632.545,1.471,1.471,0,0,0-.127,2.452,6.629,6.629,0,0,0-1.253,3.814c0,.963-1.344,1.816-3.033,1.816a25.425,25.425,0,0,1-8.045-1.417,13.512,13.512,0,0,0-10.461.708l-4.922,2.833a1.058,1.058,0,0,0,0,2L69.828,239.84a3.832,3.832,0,0,0,3.469,0l4.9-2.833C81.052,235.336,81.451,232.83,79.453,230.923Z" transform="translate(34.945 171.003)" fill="#8f00fc"/><path d="M114.286,250.9a6.92,6.92,0,0,1-2.434-4.649c0-.963,1.362-1.816,3.051-1.816a30.669,30.669,0,0,0,6.593-.726,6.1,6.1,0,0,0,4.25,0c1.108-.654,1.471-1.507.944-2.089,4.431-2.815,6.5-6.175.182-9.825a16.636,16.636,0,0,0-17.017.109,4.958,4.958,0,0,0-3.632.545,1.471,1.471,0,0,0-.145,2.452,6.738,6.738,0,0,0-1.235,3.814c0,.963-1.362,1.816-3.051,1.816a25.552,25.552,0,0,1-8.045-1.417,13.512,13.512,0,0,0-10.461.708l-4.9,2.833c-.963.545-.944,1.435,0,2l26.3,15.165a3.8,3.8,0,0,0,3.451,0l4.9-2.833C115.9,255.316,116.3,252.81,114.286,250.9Z" transform="translate(63.368 187.309)" fill="#8f00fc"/><path d="M149.123,270.883a6.919,6.919,0,0,1-2.434-4.649c0-.963,1.38-1.816,3.069-1.816a30.872,30.872,0,0,0,6.593-.726,6.1,6.1,0,0,0,4.25,0c1.108-.654,1.471-1.507.944-2.088,4.413-2.815,6.484-6.175.163-9.825a16.636,16.636,0,0,0-17.017.109,4.958,4.958,0,0,0-3.632.545,1.471,1.471,0,0,0-.127,2.452,6.629,6.629,0,0,0-1.253,3.814c0,.963-1.344,1.816-3.033,1.816a26.17,26.17,0,0,1-8.064-1.4,13.439,13.439,0,0,0-10.461.69l-4.9,2.833a1.058,1.058,0,0,0,0,2L139.5,279.8a3.8,3.8,0,0,0,3.451,0l4.9-2.833C150.74,275.3,151.139,272.79,149.123,270.883Z" transform="translate(91.805 203.616)" fill="#8f00fc"/><path d="M40.322,237.094a6.883,6.883,0,0,1-2.434-4.577c0-.981,1.362-1.816,3.051-1.816a29.567,29.567,0,0,0,6.593-.726,6.012,6.012,0,0,0,4.25,0c1.108-.636,1.471-1.507.944-2.07,4.431-2.815,6.5-6.193.182-9.825a16.672,16.672,0,0,0-17.017.091,4.958,4.958,0,0,0-3.632.545,1.471,1.471,0,0,0-.145,2.452,6.611,6.611,0,0,0-1.235,3.814c0,.981-1.362,1.816-3.051,1.816a25.534,25.534,0,0,1-8.045-1.4,13.512,13.512,0,0,0-10.461.69l-4.867,2.8a1.053,1.053,0,0,0,0,2l26.3,15.183a3.85,3.85,0,0,0,3.451,0l4.9-2.833C41.938,241.6,42.356,239,40.322,237.094Z" transform="translate(3.03 176.111)" fill="#8f00fc"/><path d="M75.137,257.078a6.883,6.883,0,0,1-2.434-4.54c0-.981,1.38-1.816,3.069-1.816a29.7,29.7,0,0,0,6.593-.726,5.957,5.957,0,0,0,4.232,0c1.126-.636,1.471-1.507.963-2.07,4.413-2.815,6.484-6.175.163-9.825a16.672,16.672,0,0,0-17.017,0,4.958,4.958,0,0,0-3.632.545,1.471,1.471,0,0,0-.145,2.452,6.792,6.792,0,0,0-1.235,3.814c0,.981-1.344,1.816-3.033,1.816a25.642,25.642,0,0,1-8.064-1.4,13.512,13.512,0,0,0-10.461.69l-4.813,2.76a1.053,1.053,0,0,0,0,2L65.6,265.959a3.85,3.85,0,0,0,3.451,0l4.9-2.833C76.754,261.491,77.153,258.985,75.137,257.078Z" transform="translate(31.488 192.413)" fill="#8f00fc"/><path d="M110.018,277.1a6.847,6.847,0,0,1-2.415-4.631c0-.981,1.362-1.816,3.051-1.816a29.7,29.7,0,0,0,6.593-.726,6.012,6.012,0,0,0,4.25,0c1.108-.636,1.471-1.507.944-2.07,4.413-2.815,6.5-6.175.182-9.825a16.709,16.709,0,0,0-17.035,0,4.976,4.976,0,0,0-3.632.545,1.471,1.471,0,0,0-.127,2.452,6.683,6.683,0,0,0-1.253,3.814c0,.981-1.344,1.816-3.033,1.816a25.424,25.424,0,0,1-8.045-1.4,13.512,13.512,0,0,0-10.461.69l-4.922,2.833a1.053,1.053,0,0,0,0,2l26.279,15.183a3.887,3.887,0,0,0,3.469,0l4.9-2.833C111.653,281.512,112.052,279.005,110.018,277.1Z" transform="translate(59.882 208.679)" fill="#8f00fc"/><path d="M58.12,64.018c-7.828-4.522-14.947-5.212-20.286-2.67l-4.3,2.379h0c5.339-2.47,12.422-1.816,20.2,2.724,16.581,9.571,30.039,32.69,30.039,51.814,0,9.244-3.178,15.8-8.336,19.015l2.888-1.689c6.048-2.815,9.843-9.716,9.843-19.832C88.159,96.8,74.7,73.589,58.12,64.018Z" transform="translate(27.347 48.87)" fill="#001a46"/><path d="M58.157,65.4C41.558,55.807,28.1,63.472,28.1,82.577s13.458,42.243,30.057,51.814S88.2,136.208,88.2,117.265,74.738,74.968,58.157,65.4Z" transform="translate(22.915 49.998)" fill="url(#a)"/><path d="M54.537,65.256c-8.409-4.867-16.018-5.285-21.467-2.034,5.448-2.978,12.84-2.452,21.031,2.288C70.682,75.082,84.14,98.2,84.14,117.325c0,9.389-3.269,16-8.572,19.16,5.557-3.051,9.081-9.771,9.081-19.414C84.576,98.02,71.082,74.827,54.537,65.256Z" transform="translate(26.972 49.884)" fill="#084c94"/><path d="M88.2,117.181c0,19.033-13.458,26.7-30.039,17.126S28.1,101.526,28.1,82.548,41.558,55.832,58.157,65.421,88.2,98.13,88.2,117.181Z" transform="translate(22.915 50.028)" fill="#03336e"/><ellipse cx="23.138" cy="40.064" rx="23.138" ry="40.064" transform="translate(40.884 126.948) rotate(-30.31)" fill="#e3f3ff"/><path d="M79.823,110.6c0,15.419-10.9,21.612-24.318,13.857S31.26,97.925,31.26,82.524s10.9-21.63,24.318-13.875S79.823,95.183,79.823,110.6Z" transform="translate(25.494 53.302)" fill="#72b5e8"/><path d="M73.218,105.274c0,12.5-8.826,17.526-19.705,11.242s-19.723-21.5-19.723-34,8.826-17.526,19.723-11.242S73.218,92.8,73.218,105.274Z" transform="translate(27.559 55.959)" fill="#e3f3ff"/><path d="M66.919,100.255c0,9.735-6.883,13.657-15.365,8.754S36.19,92.264,36.19,82.511s6.883-13.639,15.365-8.754S66.919,90.448,66.919,100.255Z" transform="translate(29.518 58.473)" fill="#72b5e8"/><path d="M60.978,95.528c0,7.137-5.049,10.007-11.26,6.411A24.772,24.772,0,0,1,38.44,82.524c0-7.137,5.049-10.025,11.278-6.429A24.863,24.863,0,0,1,60.978,95.528Z" transform="translate(31.354 60.839)" fill="#e3f3ff"/><path d="M57.858,130.37c-15.691-9.081-28.423-31-28.423-49.036,0-8.59,2.906-14.729,7.646-17.834C32.087,66.5,29,72.762,29,81.661c0,18.016,12.713,39.955,28.423,49.036,8.191,4.74,15.582,5.013,20.777,1.635C73.041,135.364,65.831,134.983,57.858,130.37Z" transform="translate(23.65 51.822)" fill="#a8cff0"/><path d="M53.974,115.664C43.077,109.38,34.2,94.2,34.2,81.666c0-5.993,2.034-10.261,5.339-12.386C35.9,71.314,33.76,75.691,33.76,81.993c0,12.5,8.826,27.714,19.723,34,5.666,3.287,10.77,3.469,14.366,1.162C64.344,119.115,59.4,118.806,53.974,115.664Z" transform="translate(27.535 56.539)" fill="#a8cff0"/><path d="M50.154,101.347a24.754,24.754,0,0,1-11.26-19.414,8.118,8.118,0,0,1,2.888-6.992C39.729,76.1,38.44,78.572,38.44,82.2a24.772,24.772,0,0,0,11.278,19.414c3.324,1.925,6.3,2,8.354.563C56.038,103.326,53.242,103.145,50.154,101.347Z" transform="translate(31.354 61.158)" fill="#a8cff0"/><path d="M53.731,89.778c0,3.977-2.815,5.576-6.266,3.632a13.8,13.8,0,0,1-6.266-10.9c0-3.977,2.8-5.576,6.266-3.632a13.821,13.821,0,0,1,6.266,10.9Z" transform="translate(33.607 63.701)" fill="#3c3"/><path d="M45.449,83.016c0,.309-.236.436-.509.272a1.108,1.108,0,0,1-.49-.854c0-.309.218-.436.49-.272a1.071,1.071,0,0,1,.509.854Z" transform="translate(36.259 66.994)" fill="#231f20" opacity="0.5"/><path d="M46.494,78.938a4.667,4.667,0,0,0-4.1-.617,5.013,5.013,0,0,1,3.632.745,13.857,13.857,0,0,1,6.266,10.9,4.123,4.123,0,0,1-2.179,4.177c1.58-.4,2.6-1.925,2.6-4.322A13.821,13.821,0,0,0,46.494,78.938Z" transform="translate(34.578 63.734)" fill="#029102"/><path d="M12.066,105.806l-2.688-.363a1.362,1.362,0,0,1-.182-2.67L24.289,98.65Z" transform="translate(6.658 80.509)" fill="#7300cc"/><path d="M12.168,105.533,9.48,105.17a1.344,1.344,0,0,1-1.126-1.725,1.362,1.362,0,0,0,1.017,2l2.688.363L24.281,98.65l-.636.163Z" transform="translate(6.666 80.509)" fill="#3463aa"/><path d="M9.41,105.185l2.688.363L23.775,98.72h-.163l-11.478,6.72-2.688-.363a1.344,1.344,0,0,1-1.126-1.725h0a1.362,1.362,0,0,0,1.09,1.834Z" transform="translate(6.7 80.566)" fill="#fff" opacity="0.7"/><path d="M50.535,82.639a.109.109,0,0,1,0,.109,18.161,18.161,0,0,1-5.267,4.268,44.882,44.882,0,0,1-6.211,3.305c-.145,0,0-.109-.272-.236A1.816,1.816,0,0,1,38,88.742c0-.254-.218-.254,0-.327a46.8,46.8,0,0,1,5.975-3.632,17.562,17.562,0,0,1,6.375-2.434.145.145,0,0,1,.145,0A.418.418,0,0,1,50.535,82.639Z" transform="translate(30.919 67.189)" fill="#7300cc"/><path d="M39.322,87.122c0,.49-.345.69-.781.436a1.689,1.689,0,0,1-.781-1.344c0-.509.345-.708.781-.454A1.816,1.816,0,0,1,39.322,87.122Z" transform="translate(30.799 69.899)" fill="#0ba19f"/><path d="M62.417,87.114a.545.545,0,0,1-.2.472L10.367,117.952c-.145,0,0,0-.254-.218a1.616,1.616,0,0,1-.763-1.289c0-.236-.2-.236,0-.309l51.8-30.384a.527.527,0,0,1,.527,0A1.635,1.635,0,0,1,62.417,87.114Z" transform="translate(7.54 69.925)" fill="#7300cc"/><path d="M10.669,103.814c0,.49-.327.672-.745.436a1.635,1.635,0,0,1-.745-1.289c0-.472.327-.672.745-.436a1.653,1.653,0,0,1,.745,1.289Z" transform="translate(7.474 83.59)" fill="#029102"/><path d="M10.881,105.628l12.477-7.265-9.753-.8a4.213,4.213,0,0,0-3.632,6.774Z" transform="translate(7.407 79.615)" fill="#3463aa"/><path d="M10.973,105.628l12.5-7.265-9.753-.8a4.213,4.213,0,0,0-3.632,6.774Z" transform="translate(7.497 79.615)" fill="#7300cc"/><path d="M10.253,104.465a4.213,4.213,0,0,1,3.632-6.774l9.444.763h.109l-9.753-.8a4.213,4.213,0,0,0-3.632,6.774l.926,1.217h.091Z" transform="translate(7.473 79.688)" fill="#fff" opacity="0.7"/><path d="M10.51,106.008l.309,1.09a3.632,3.632,0,0,0,6.375.963l5.793-9.081Z" transform="translate(8.56 80.778)" fill="#3463aa"/><path d="M10.62,105.918l.309,1.108a3.505,3.505,0,0,0,6.356.944L23.1,98.89Z" transform="translate(8.649 80.705)" fill="#7300cc"/><path d="M17.394,107.822a3.632,3.632,0,0,1-6.375-.944l-.272-1H10.62l.309,1.108a3.505,3.505,0,0,0,6.356.944L23.1,98.85h0Z" transform="translate(8.649 80.672)" fill="#fff" opacity="0.7"/><path d="M144.134,83.3a.89.89,0,0,1-.763-.418c-17.943-27.932-40.772-50.852-64.309-64.4C62.789,9.094,47.043,4.336,32.278,4.336a.908.908,0,1,1,0-1.816c15.092,0,31.129,4.849,47.692,14.4C103.743,30.634,126.808,53.735,144.9,81.9a.926.926,0,0,1-.272,1.271.944.944,0,0,1-.49.127Z" transform="translate(25.584 2.054)" fill="#7300cc"/><path d="M17.427,154a.89.89,0,0,1-.835-.545c-.49-1.126-.963-2.234-1.417-3.36a.9.9,0,1,1,1.671-.69q.69,1.653,1.417,3.324a.908.908,0,0,1-.472,1.2A.926.926,0,0,1,17.427,154Zm-3.451-8.409a.872.872,0,0,1-.835-.581c-.436-1.126-.872-2.27-1.289-3.414a.908.908,0,1,1,1.707-.617c.418,1.126.835,2.252,1.271,3.378a.908.908,0,0,1-.527,1.18.944.944,0,0,1-.327.054Zm-3.087-8.536a.908.908,0,0,1-.872-.636l-1.144-3.451a.948.948,0,1,1,1.816-.545c.363,1.144.745,2.288,1.126,3.432A.89.89,0,0,1,11.252,137Zm-2.742-8.663a.89.89,0,0,1-.89-.654c-.345-1.162-.672-2.343-1-3.505a.941.941,0,1,1,1.816-.49q.454,1.816.981,3.487a.908.908,0,0,1-.617,1.126Zm-2.361-8.772a.89.89,0,0,1-.872-.69c-.291-1.2-.563-2.379-.835-3.632a.93.93,0,1,1,1.816-.4c.254,1.181.527,2.343.817,3.523a.89.89,0,0,1-.672,1.09ZM3.86,110.735a.89.89,0,0,1-.89-.726c-.236-1.2-.454-2.415-.654-3.632a.89.89,0,0,1,.726-1.053.926.926,0,0,1,1.053.745c.2,1.18.418,2.361.654,3.632a.908.908,0,0,1-.726,1.053Zm-1.489-8.954a.926.926,0,0,1-.908-.8c-.163-1.2-.309-2.415-.454-3.632a.915.915,0,0,1,1.816-.218c.145,1.2.291,2.4.454,3.632a.908.908,0,0,1-.763,1.017Zm-1-8.954a.908.908,0,0,1-.908-.835C.373,90.776.283,89.559.228,88.36a.89.89,0,0,1,.854-.981.89.89,0,0,1,.944.854c0,1.2.163,2.4.254,3.632a.908.908,0,0,1-.835.963ZM.918,83.747a.926.926,0,0,1-.908-.908v-3.65a.872.872,0,0,1,.908-.89.89.89,0,0,1,.89.908v3.614a.908.908,0,0,1-.872.926Zm.145-9.081h0A.926.926,0,0,1,.192,73.7c0-1.235.145-2.452.254-3.632a.89.89,0,0,1,.944-.854.908.908,0,0,1,.817.981c-.091,1.2-.163,2.4-.236,3.632A.908.908,0,0,1,1.063,74.667ZM1.9,65.586H1.808a.908.908,0,0,1-.781-1.017c.163-1.235.345-2.434.545-3.632a.921.921,0,1,1,1.816.309c-.2,1.162-.381,2.343-.545,3.632a.908.908,0,0,1-.944.708Zm145.472-1.671a.89.89,0,0,1-.69-.327c-.781-.926-1.58-1.816-2.379-2.742a.89.89,0,0,1,.091-1.271.908.908,0,0,1,1.289,0c.8.908,1.58,1.816,2.379,2.761a.926.926,0,0,1-.109,1.289.89.89,0,0,1-.581.254Zm-6.03-6.811a.835.835,0,0,1-.654-.291l-2.488-2.67a.912.912,0,1,1,1.326-1.253c.835.872,1.671,1.816,2.488,2.652a.908.908,0,0,1,0,1.289.872.872,0,0,1-.672.236ZM3.5,56.65H3.279a.908.908,0,0,1-.672-1.09c.272-1.2.581-2.4.89-3.632a.941.941,0,1,1,1.816.49c-.327,1.126-.617,2.288-.89,3.469a.872.872,0,0,1-.926.726ZM135.04,50.585a.89.89,0,0,1-.636-.272c-.854-.854-1.816-1.689-2.6-2.524a.908.908,0,0,1,1.253-1.308c.89.835,1.816,1.689,2.615,2.543a.908.908,0,0,1-.636,1.562ZM5.985,47.9a.817.817,0,0,1-.291,0,.89.89,0,0,1-.563-1.144c.4-1.18.835-2.325,1.289-3.451a.908.908,0,1,1,1.671.69c-.436,1.09-.854,2.2-1.253,3.342a.89.89,0,0,1-.854.563Zm122.462-3.632a.835.835,0,0,1-.6-.236l-2.706-2.4a.908.908,0,1,1,1.18-1.362l2.742,2.415a.908.908,0,0,1,0,1.289.854.854,0,0,1-.617.327ZM9.49,39.524a.763.763,0,0,1-.4,0,.908.908,0,0,1-.418-1.217c.563-1.108,1.144-2.2,1.816-3.251a.89.89,0,0,1,1.162-.345A.926.926,0,0,1,12,35.947q-.908,1.526-1.689,3.16a.926.926,0,0,1-.817.418Zm112.074-1.18a.817.817,0,0,1-.563-.2l-2.833-2.252a.883.883,0,0,1,1.144-1.344c.944.745,1.816,1.507,2.851,2.288a.83.83,0,0,1-.6,1.507ZM114.408,32.9a.817.817,0,0,1-.527-.182c-.981-.708-1.961-1.417-2.942-2.089a.908.908,0,0,1-.163-1.362.926.926,0,0,1,1.271-.218l2.978,2.107a.908.908,0,0,1,.182,1.271A.872.872,0,0,1,114.408,32.9ZM14.121,31.733a.944.944,0,0,1-.527-.163.908.908,0,0,1-.218-1.253c.708-1.017,1.453-2,2.216-2.96A.91.91,0,0,1,17.009,28.5c-.745.926-1.453,1.816-2.143,2.851a.89.89,0,0,1-.745.381ZM106.908,27.7a.963.963,0,0,1-.49-.145l-3.051-1.816a.913.913,0,1,1,.944-1.562l3.087,1.943a.908.908,0,0,1,.272,1.253.926.926,0,0,1-.763.327ZM19.969,24.777a.854.854,0,0,1-.636-.254.908.908,0,0,1,0-1.289c.872-.872,1.816-1.725,2.688-2.524a.914.914,0,1,1,1.2,1.38,30.022,30.022,0,0,0-2.6,2.434A.908.908,0,0,1,19.969,24.777Zm79.184-1.816a.962.962,0,0,1-.436-.109c-1.072-.6-2.125-1.162-3.178-1.707a.926.926,0,0,1-.381-1.235.908.908,0,0,1,1.217-.381c1.072.545,2.143,1.126,3.233,1.816a.926.926,0,0,1,.345,1.235.89.89,0,0,1-.835.454ZM26.889,18.984a.908.908,0,0,1-.745-.4.89.89,0,0,1,.236-1.253c1.017-.69,2.07-1.362,3.124-1.98a.89.89,0,0,1,1.235.327.926.926,0,0,1-.327,1.253c-1.017.581-2.034,1.217-3.015,1.816A.854.854,0,0,1,26.889,18.984Zm64.146,0a.981.981,0,0,1-.381-.091c-1.108-.509-2.2-1-3.287-1.453a.908.908,0,0,1-.49-1.2.926.926,0,0,1,1.2-.472l3.342,1.471a.908.908,0,0,1,.436,1.217.89.89,0,0,1-.817.454ZM82.644,15.5a.654.654,0,0,1-.309,0c-1.144-.4-2.27-.8-3.4-1.162a.948.948,0,1,1,.545-1.816c1.162.363,2.307.763,3.469,1.2a.875.875,0,0,1-.309,1.707Zm-47.819-.835a.89.89,0,0,1-.835-.545.908.908,0,0,1,.509-1.2c1.126-.472,2.27-.926,3.432-1.344a.913.913,0,0,1,.6,1.725c-1.108.381-2.234.817-3.305,1.289a.926.926,0,0,1-.4,0Zm39.156-1.816h-.218c-1.18-.309-2.343-.581-3.505-.817a.928.928,0,0,1,.381-1.816c1.18.236,2.361.527,3.632.835a.916.916,0,1,1-.236,1.816Zm-30.547-.981a.915.915,0,0,1-.218-1.816c1.18-.272,2.4-.509,3.632-.708a.89.89,0,0,1,1.035.745.926.926,0,0,1-.672,1.017c-1.18.182-2.361.418-3.505.672ZM65.082,11.1h-.127c-1.2-.163-2.379-.291-3.632-.381a.926.926,0,0,1-.835-.981.908.908,0,0,1,.981-.835c1.217.109,2.434.236,3.632.4a.908.908,0,0,1,.781,1.017.908.908,0,0,1-.8.672Zm-12.713-.509a.908.908,0,0,1-.908-.854.89.89,0,0,1,.854-.963c1.2,0,2.434-.109,3.632-.127h0a.908.908,0,0,1,0,1.816,35.028,35.028,0,0,0-3.632.127Z" transform="translate(-0.01 7.057)" fill="#7300cc"/><path d="M29.2,2.814C29.309.38,31.017-.673,32.924.453a7.573,7.573,0,0,1,3.305,6.429c-.109,2.415-1.816,3.487-3.723,2.361A7.646,7.646,0,0,1,29.2,2.814Z" transform="translate(23.813 -0.002)" fill="#7300cc"/><path d="M137.53,59.642c.127-2.415,1.816-3.487,3.741-2.361a7.646,7.646,0,0,1,3.305,6.429c-.127,2.434-1.816,3.487-3.632,2.361A7.628,7.628,0,0,1,137.53,59.642Z" transform="translate(112.225 46.381)" fill="#7300cc"/><path d="M224.661,117.452c.109-2.415,1.816-3.487,3.723-2.361a7.591,7.591,0,0,1,3.305,6.429c-.109,2.434-1.816,3.487-3.723,2.361a7.573,7.573,0,0,1-3.305-6.429Z" transform="translate(183.334 93.562)" fill="#7300cc"/><path d="M98.582,53.385l-8.935-4.595a.926.926,0,0,1-.381-1.235.908.908,0,0,1,1.217-.381L96.53,50.3l-.563-7.7a.91.91,0,1,1,1.816-.127Z" transform="translate(72.752 33.968)" fill="#7300cc"/><path d="M173.8,95.759l-8.935-4.613a.908.908,0,1,1,.835-1.6l6.048,3.106-.563-7.682a.908.908,0,0,1,.835-.981.944.944,0,0,1,.981.835Z" transform="translate(134.055 68.544)" fill="#7300cc"/><path d="M259.356,98.668a.817.817,0,0,1-.454-.127.908.908,0,0,1-.345-1.235l3.632-6.574-6.647,2.216a.944.944,0,0,1-1.162-.581.908.908,0,0,1,.581-1.144l11.06-3.632-5.9,10.661A.926.926,0,0,1,259.356,98.668Z" transform="translate(207.554 71.482)" fill="#7300cc"/><path d="M227.409,140.58a.944.944,0,0,1-.69-.309.926.926,0,0,1,.091-1.289l56.9-49.617a.908.908,0,1,1,1.181,1.362l-56.881,49.635A.944.944,0,0,1,227.409,140.58Z" transform="translate(184.836 72.686)" fill="#7300cc"/></g></g><g transform="translate(0 -28)"><g transform="translate(-81 -515.737)"><g transform="matrix(1, 0, 0, 1, 1037.5, 3289.29)" filter="url(#b)"><g transform="translate(23.5 302.71)" fill="#fff"><path d="M 327 217.3735656738281 L 169.8894653320313 217.3735656738281 L 10 217.3735656738281 C 5.037374973297119 217.3735656738281 1 213.9501495361328 1 209.7422332763672 L 1 8.631350517272949 C 1 4.423434257507324 5.037374973297119 1.000017523765564 10 1.000017523765564 L 327 1.000017523765564 C 331.9626159667969 1.000017523765564 336 4.423434257507324 336 8.631350517272949 L 336 209.7422332763672 C 336 213.9501495361328 331.9626159667969 217.3735656738281 327 217.3735656738281 Z" stroke="none"/><path d="M 10 2 C 5.588775634765625 2 2 4.974807739257813 2 8.631362915039063 L 2 209.7421722412109 C 2 213.3987274169922 5.588775634765625 216.37353515625 10 216.37353515625 L 169.8894500732422 216.37353515625 L 327 216.37353515625 C 331.4112243652344 216.37353515625 335 213.3987274169922 335 209.7421722412109 L 335 8.631362915039063 C 335 4.974807739257813 331.4112243652344 2 327 2 L 10 2 M 10 0 L 327 0 C 332.5228576660156 0 337 3.864410400390625 337 8.631362915039063 L 337 209.7421722412109 C 337 214.5091247558594 332.5228576660156 218.37353515625 327 218.37353515625 L 169.8894500732422 218.37353515625 L 10 218.37353515625 C 4.477142333984375 218.37353515625 0 214.5091247558594 0 209.7421722412109 L 0 8.631362915039063 C 0 3.864410400390625 4.477142333984375 0 10 0 Z" stroke="none" fill="#7300cc"/></g></g><text transform="translate(1082 3625)" fill="#7300cc" font-size="14" font-family="Ubuntu-Bold, Ubuntu" font-weight="700"><tspan x="0" y="0">Oportunidades Abertas</tspan></text><g transform="translate(248 127.134)"><path d="M285.056,127.759H15.67V.18h1.177v126.4H285.056Z" transform="translate(841.972 3520.82)" fill="#9ac7d7"/><g transform="translate(858.955 3526.266)" opacity="0.4"><rect width="268.073" height="0.875" transform="translate(0 0)" fill="#9ac7d7"/></g><g transform="translate(858.955 3549.938)" opacity="0.4"><rect width="268.073" height="0.875" transform="translate(0 0)" fill="#9ac7d7"/></g><g transform="translate(858.955 3573.625)" opacity="0.4"><rect width="268.073" height="0.875" transform="translate(0 0)" fill="#9ac7d7"/></g><g transform="translate(858.955 3597.312)" opacity="0.4"><rect width="268.073" height="0.875" transform="translate(0 0)" fill="#9ac7d7"/></g><g transform="translate(858.955 3620.999)" opacity="0.4"><rect width="268.073" height="0.875" transform="translate(0 0)" fill="#9ac7d7"/></g><text transform="translate(834 3526.634)" fill="#4988a6" font-size="6" font-family="Metropolis-Regular, Metropolis"><tspan x="0" y="0">1000</tspan></text><text transform="translate(837.636 3550.94)" fill="#4988a6" font-size="6" font-family="Metropolis-Regular, Metropolis"><tspan x="0" y="0">700</tspan></text><text transform="translate(837.651 3575.23)" fill="#4988a6" font-size="6" font-family="Metropolis-Regular, Metropolis"><tspan x="0" y="0">500</tspan></text><text transform="translate(837.757 3599.536)" fill="#4988a6" font-size="6" font-family="Metropolis-Regular, Metropolis"><tspan x="0" y="0">300</tspan></text><text transform="translate(839.672 3623.827)" fill="#4988a6" font-size="6" font-family="Metropolis-Regular, Metropolis"><tspan x="0" y="0">100</tspan></text><text transform="translate(848.242 3648.133)" fill="#4988a6" font-size="6" font-family="Metropolis-Regular, Metropolis"><tspan x="0" y="0">0</tspan></text><text transform="translate(863.963 3662.24)" fill="#4988a6" font-size="6" font-family="Metropolis-Regular, Metropolis"><tspan x="0" y="0">100</tspan></text><text transform="translate(887.546 3662.24)" fill="#4988a6" font-size="6" font-family="Metropolis-Regular, Metropolis"><tspan x="0" y="0">200</tspan></text><text transform="translate(912.092 3662.24)" fill="#4988a6" font-size="6" font-family="Metropolis-Regular, Metropolis"><tspan x="0" y="0">300</tspan></text><text transform="translate(936.489 3662.24)" fill="#4988a6" font-size="6" font-family="Metropolis-Regular, Metropolis"><tspan x="0" y="0">400</tspan></text><text transform="translate(961.126 3662.24)" fill="#4988a6" font-size="6" font-family="Metropolis-Regular, Metropolis"><tspan x="0" y="0">500</tspan></text><text transform="translate(985.568 3662.24)" fill="#4988a6" font-size="6" font-family="Metropolis-Regular, Metropolis"><tspan x="0" y="0">600</tspan></text><text transform="translate(1010.115 3662.24)" fill="#4988a6" font-size="6" font-family="Metropolis-Regular, Metropolis"><tspan x="0" y="0">600</tspan></text><text transform="translate(1034.753 3662.24)" fill="#4988a6" font-size="6" font-family="Metropolis-Regular, Metropolis"><tspan x="0" y="0">700</tspan></text><text transform="translate(1059.27 3662.24)" fill="#4988a6" font-size="6" font-family="Metropolis-Regular, Metropolis"><tspan x="0" y="0">800</tspan></text><text transform="translate(1083.742 3662.24)" fill="#4988a6" font-size="6" font-family="Metropolis-Regular, Metropolis"><tspan x="0" y="0">900</tspan></text><text transform="translate(1106.569 3662.24)" fill="#4988a6" font-size="6" font-family="Metropolis-Regular, Metropolis"><tspan x="0" y="0">1000</tspan></text><g transform="translate(869.365 3524.47)"><path d="M25.36,97.228l21.122,15.087L72.629,74.084,97.78,98.223,122.93,75.094H170.2L195.35,25.8l25.136,72.42h22.133L280.126,3.58" transform="translate(-22.463 -1.92)" fill="none" stroke="#2cc3ff" stroke-miterlimit="10" stroke-width="1"/><circle cx="2.64" cy="2.64" r="2.64" transform="translate(255.355)" fill="#2cc3ff"/><circle cx="2.64" cy="2.64" r="2.64" transform="translate(195.382 94.296)" fill="#2cc3ff"/><circle cx="2.64" cy="2.64" r="2.64" transform="translate(170.488 19.991)" fill="#2cc3ff"/><circle cx="2.64" cy="2.64" r="2.64" transform="translate(144.839 69.779)" fill="#2cc3ff"/><circle cx="2.64" cy="2.64" r="2.64" transform="translate(47.525 69.779)" fill="#2cc3ff"/><circle cx="2.64" cy="2.64" r="2.64" transform="translate(98.068 69.779)" fill="#2cc3ff"/><circle cx="2.64" cy="2.64" r="2.64" transform="translate(21.5 107.875)" fill="#2cc3ff"/><circle cx="2.64" cy="2.64" r="2.64" transform="translate(0 92.41)" fill="#2cc3ff"/><circle cx="2.64" cy="2.64" r="2.64" transform="translate(72.042 93.165)" fill="#2cc3ff"/></g><g transform="translate(866.845 3547.131)"><path d="M23.36,66.919H47.5L73.646,19.65,98.8,114.188l25.151-70.4h29.164l18.1,45.262h25.151L221.5,65.908l22.133,25.151,37.507-24.472" transform="translate(-20.961 -16.406)" fill="none" stroke="#7300cc" stroke-miterlimit="10" stroke-width="1"/><circle cx="2.64" cy="2.64" r="2.64" transform="translate(0 47.224)" fill="#7300cc"/><circle cx="2.64" cy="2.64" r="2.64" transform="translate(22.873 47.224)" fill="#7300cc"/><circle cx="2.64" cy="2.64" r="2.64" transform="translate(50.317)" fill="#7300cc"/><circle cx="2.64" cy="2.64" r="2.64" transform="translate(75.135 95.187)" fill="#7300cc"/><circle cx="2.64" cy="2.64" r="2.64" transform="translate(100.527 24.773)" fill="#7300cc"/><circle cx="2.64" cy="2.64" r="2.64" transform="translate(128.544 24.773)" fill="#7300cc"/><circle cx="2.64" cy="2.64" r="2.64" transform="translate(147.947 69.719)" fill="#7300cc"/><circle cx="2.64" cy="2.64" r="2.64" transform="translate(172.887 69.719)" fill="#7300cc"/><circle cx="2.64" cy="2.64" r="2.64" transform="translate(198.128 46.937)" fill="#7300cc"/><circle cx="2.64" cy="2.64" r="2.64" transform="translate(220.292 71.258)" fill="#7300cc"/></g></g></g><g transform="translate(0 -325.737)"><g transform="matrix(1, 0, 0, 1, 956.5, 3099.29)" filter="url(#d)"><g transform="translate(3.5 282.71)" fill="#fff"><path d="M 327 217.3735656738281 L 169.8894653320313 217.3735656738281 L 10 217.3735656738281 C 5.037374973297119 217.3735656738281 1 213.9501495361328 1 209.7422332763672 L 1 8.631350517272949 C 1 4.423434257507324 5.037374973297119 1.000017523765564 10 1.000017523765564 L 327 1.000017523765564 C 331.9626159667969 1.000017523765564 336 4.423434257507324 336 8.631350517272949 L 336 209.7422332763672 C 336 213.9501495361328 331.9626159667969 217.3735656738281 327 217.3735656738281 Z" stroke="none"/><path d="M 10 2 C 5.588775634765625 2 2 4.974807739257813 2 8.631362915039063 L 2 209.7421722412109 C 2 213.3987274169922 5.588775634765625 216.37353515625 10 216.37353515625 L 169.8894500732422 216.37353515625 L 327 216.37353515625 C 331.4112243652344 216.37353515625 335 213.3987274169922 335 209.7421722412109 L 335 8.631362915039063 C 335 4.974807739257813 331.4112243652344 2 327 2 L 10 2 M 10 0 L 327 0 C 332.5228576660156 0 337 3.864410400390625 337 8.631362915039063 L 337 209.7421722412109 C 337 214.5091247558594 332.5228576660156 218.37353515625 327 218.37353515625 L 169.8894500732422 218.37353515625 L 10 218.37353515625 C 4.477142333984375 218.37353515625 0 214.5091247558594 0 209.7421722412109 L 0 8.631362915039063 C 0 3.864410400390625 4.477142333984375 0 10 0 Z" stroke="none" fill="#7300cc"/></g></g><text transform="translate(981 3415)" fill="#7300cc" font-size="14" font-family="Ubuntu-Bold, Ubuntu" font-weight="700"><tspan x="0" y="0">Oportunidades Ganhas</tspan></text><g transform="translate(-7 -3.445)"><path d="M291.581,130.849H15.67V.18h1.205V129.644H291.581Z" transform="translate(989.375 3437.954)" fill="#9ac7d7"/><g transform="translate(1006.389 3443.527)" opacity="0.4"><rect width="274.566" height="0.896" transform="translate(0 0)" fill="#9ac7d7"/></g><g transform="translate(1006.389 3467.773)" opacity="0.4"><rect width="274.566" height="0.896" transform="translate(0 0)" fill="#9ac7d7"/></g><g transform="translate(1006.389 3492.034)" opacity="0.4"><rect width="274.566" height="0.896" transform="translate(0 0)" fill="#9ac7d7"/></g><g transform="translate(1006.389 3516.295)" opacity="0.4"><rect width="274.566" height="0.896" transform="translate(0 0)" fill="#9ac7d7"/></g><g transform="translate(1006.389 3540.555)" opacity="0.4"><rect width="274.566" height="0.896" transform="translate(0 0)" fill="#9ac7d7"/></g><text transform="translate(996 3443.783)" fill="#4988a6" font-size="6" font-family="Metropolis-Regular, Metropolis"><tspan x="-7.728" y="0">50</tspan></text><text transform="translate(996 3468.678)" fill="#4988a6" font-size="6" font-family="Metropolis-Regular, Metropolis"><tspan x="-7.872" y="0">40</tspan><tspan x="0" y="7"></tspan></text><text transform="translate(996 3493.557)" fill="#4988a6" font-size="6" font-family="Metropolis-Regular, Metropolis"><tspan x="-7.65" y="0">30</tspan></text><text transform="translate(996 3518.451)" fill="#4988a6" font-size="6" font-family="Metropolis-Regular, Metropolis"><tspan x="-7.668" y="0">20</tspan></text><text transform="translate(996.048 3543.331)" fill="#4988a6" font-size="6" font-family="Metropolis-Regular, Metropolis"><tspan x="-6.252" y="0">10</tspan></text><text transform="translate(996.145 3568.225)" fill="#4988a6" font-size="6" font-family="Metropolis-Regular, Metropolis"><tspan x="-2.118" y="0">1</tspan></text><text transform="translate(1016.616 3582.673)" fill="#4988a6" font-size="6" font-family="Metropolis-Regular, Metropolis"><tspan x="-1.059" y="0">1</tspan></text><text transform="translate(1041.77 3582.673)" fill="#4988a6" font-size="6" font-family="Metropolis-Regular, Metropolis"><tspan x="-1.758" y="0">3</tspan></text><text transform="translate(1066.911 3582.673)" fill="#4988a6" font-size="6" font-family="Metropolis-Regular, Metropolis"><tspan x="-1.797" y="0">5</tspan></text><text transform="translate(1091.899 3582.673)" fill="#4988a6" font-size="6" font-family="Metropolis-Regular, Metropolis"><tspan x="-1.8" y="0">7</tspan></text><text transform="translate(1117.108 3582.673)" fill="#4988a6" font-size="6" font-family="Metropolis-Regular, Metropolis"><tspan x="-3.126" y="0">10</tspan></text><text transform="translate(1142.143 3582.673)" fill="#4988a6" font-size="6" font-family="Metropolis-Regular, Metropolis"><tspan x="-2.817" y="0">13</tspan></text><text transform="translate(1167.284 3582.673)" fill="#4988a6" font-size="6" font-family="Metropolis-Regular, Metropolis"><tspan x="-2.856" y="0">15</tspan></text><text transform="translate(1192.495 3582.673)" fill="#4988a6" font-size="6" font-family="Metropolis-Regular, Metropolis"><tspan x="-3.834" y="0">20</tspan></text><text transform="translate(1217.606 3582.673)" fill="#4988a6" font-size="6" font-family="Metropolis-Regular, Metropolis"><tspan x="-3.525" y="0">23</tspan></text><text transform="translate(1242.67 3582.673)" fill="#4988a6" font-size="6" font-family="Metropolis-Regular, Metropolis"><tspan x="-3.564" y="0">25</tspan></text><text transform="translate(1267.074 3582.673)" fill="#4988a6" font-size="6" font-family="Metropolis-Regular, Metropolis"><tspan x="-3.825" y="0">30</tspan></text><g transform="translate(1014.471 3464.898)"><path d="M23.36,68.064H48.085L74.864,19.65l25.76,96.828,25.76-72.1h29.87L174.8,90.733h25.76l25.744-23.7,22.669,25.76,38.416-25.065" transform="translate(-20.903 -16.328)" fill="none" stroke="#7300cc" stroke-miterlimit="10" stroke-width="1"/><circle cx="2.704" cy="2.704" r="2.704" transform="translate(0 48.368)" fill="#7300cc"/><circle cx="2.704" cy="2.704" r="2.704" transform="translate(23.427 48.368)" fill="#7300cc"/><circle cx="2.704" cy="2.704" r="2.704" transform="translate(51.535)" fill="#7300cc"/><circle cx="2.704" cy="2.704" r="2.704" transform="translate(76.955 97.492)" fill="#7300cc"/><circle cx="2.704" cy="2.704" r="2.704" transform="translate(102.962 25.373)" fill="#7300cc"/><circle cx="2.704" cy="2.704" r="2.704" transform="translate(131.658 25.373)" fill="#7300cc"/><circle cx="2.704" cy="2.704" r="2.704" transform="translate(151.531 71.408)" fill="#7300cc"/><circle cx="2.704" cy="2.704" r="2.704" transform="translate(177.074 71.408)" fill="#7300cc"/><circle cx="2.704" cy="2.704" r="2.704" transform="translate(202.927 48.074)" fill="#7300cc"/><circle cx="2.704" cy="2.704" r="2.704" transform="translate(225.628 72.984)" fill="#7300cc"/></g></g></g></g></g></svg>