<svg xmlns="http://www.w3.org/2000/svg" width="398.023" height="355" viewBox="0 0 398.023 355"><g transform="translate(0 -0.012)"><g transform="translate(0 0.012)"><path d="M279.556,139.19h-28a.573.573,0,0,0-.573.573V197.6h0a3.327,3.327,0,0,0,1.909,2.44l8.439,4.867a8.725,8.725,0,0,0,7.88.327l9.543-5.453a2.263,2.263,0,0,0,1.363-2.113h0v-57.9A.573.573,0,0,0,279.556,139.19Z" transform="translate(91.192 50.557)" fill="#8f00fc"/><path d="M266.011,207.121a9.979,9.979,0,0,1-4.881-1.227l-8.425-4.867a4.635,4.635,0,0,1-2.168-2.331h-.177V140a1.445,1.445,0,0,1,1.445-1.363h28a1.431,1.431,0,0,1,1.445,1.432V198.8h-.1a3.463,3.463,0,0,1-1.691,2l-9.543,5.522a7.962,7.962,0,0,1-3.913.791Zm-13.933-9.366h0a2.563,2.563,0,0,0,1.486,1.759l8.426,4.867a7.962,7.962,0,0,0,7.021.327l9.543-5.522a1.527,1.527,0,0,0,.914-1.3l-.068-.927h.068V140.249H252.037Z" transform="translate(90.967 50.357)" fill="#004798"/><path d="M275.374,139.21H262.49v66.8a6.408,6.408,0,0,0,2.549-.736l9.543-5.522a2.263,2.263,0,0,0,1.363-2.113h0v-57.86A.573.573,0,0,0,275.374,139.21Z" transform="translate(95.374 50.564)" fill="#004798"/><path d="M278.781,143.561l-9.543,5.453a8.725,8.725,0,0,1-7.88-.327l-8.453-4.813c-2.331-1.363-2.59-3.381-.559-4.554l9.543-5.453a8.807,8.807,0,0,1,7.894.327l8.425,4.867C280.553,140.357,280.812,142.4,278.781,143.561Z" transform="translate(91.19 48.34)" fill="#fff"/><path d="M266.018,150.951a9.993,9.993,0,0,1-4.881-1.241l-8.425-4.867a4.09,4.09,0,0,1-2.372-3.327,3.19,3.19,0,0,1,1.8-2.727l9.543-5.522a9.625,9.625,0,0,1,8.753.327l8.439,4.867a4.09,4.09,0,0,1,2.359,3.327,3.177,3.177,0,0,1-1.8,2.727l-9.543,5.522A7.812,7.812,0,0,1,266.018,150.951Zm-.464-16.851a6.122,6.122,0,0,0-2.986.668l-9.543,5.522a1.582,1.582,0,0,0-.927,1.227c0,.6.559,1.3,1.5,1.827l8.425,4.867a7.962,7.962,0,0,0,7.021.327l9.543-5.522a1.582,1.582,0,0,0,.927-1.227c0-.6-.559-1.282-1.5-1.827L269.59,135.1a8.384,8.384,0,0,0-4.036-.941Z" transform="translate(90.96 48.08)" fill="#004798"/><rect width="1.731" height="58.365" transform="translate(352.561 197.546)" fill="#004798"/><rect width="1.322" height="53.688" transform="translate(367.394 195.214)" fill="#8f00fc"/><path d="M265.186,175.77h-28a.573.573,0,0,0-.573.573v28.63h0a3.286,3.286,0,0,0,1.9,2.468l8.439,4.867a8.725,8.725,0,0,0,7.88.327l9.543-5.453a2.263,2.263,0,0,0,1.363-2.113h0v-28.63a.586.586,0,0,0-.545-.668Z" transform="translate(85.971 63.848)" fill="#8f00fc"/><path d="M251.638,214.479a9.994,9.994,0,0,1-4.881-1.241l-8.439-4.867a4.676,4.676,0,0,1-2.168-2.318H236V176.605a1.459,1.459,0,0,1,1.445-1.445h28a1.432,1.432,0,0,1,1.445,1.445v29.489h-.1a3.436,3.436,0,0,1-1.691,1.991l-9.543,5.522A7.853,7.853,0,0,1,251.638,214.479ZM237.7,205.058v.068a2.577,2.577,0,0,0,1.486,1.745l8.426,4.881a8,8,0,0,0,7.021.327l9.543-5.535a1.5,1.5,0,0,0,.913-1.3l-.068-.927h.068V176.864h-27.43Z" transform="translate(85.749 63.627)" fill="#004798"/><path d="M261,175.79H248.12v37.546a6.408,6.408,0,0,0,2.549-.736l9.543-5.522a2.263,2.263,0,0,0,1.363-2.113h0v-28.63a.586.586,0,0,0-.573-.545Z" transform="translate(90.153 63.856)" fill="#004798"/><path d="M264.418,180.149l-9.543,5.453a8.821,8.821,0,0,1-7.88-.327l-8.48-4.8c-2.331-1.363-2.59-3.395-.559-4.554l9.543-5.453a8.725,8.725,0,0,1,7.88.327l8.439,4.867C266.19,176.932,266.449,178.977,264.418,180.149Z" transform="translate(85.962 61.637)" fill="#fff"/><path d="M251.648,187.571a9.993,9.993,0,0,1-4.881-1.241l-8.439-4.867a4.09,4.09,0,0,1-2.358-3.313,3.177,3.177,0,0,1,1.8-2.727l9.543-5.522a9.544,9.544,0,0,1,8.753.327L264.5,175.1a4.09,4.09,0,0,1,2.359,3.327,3.177,3.177,0,0,1-1.8,2.727L255.52,186.6A7.853,7.853,0,0,1,251.648,187.571Zm-.464-16.851a6.121,6.121,0,0,0-2.986.668l-9.543,5.522a1.622,1.622,0,0,0-.927,1.241c0,.6.559,1.282,1.5,1.827l8.425,4.867a7.962,7.962,0,0,0,7.021.327l9.543-5.522a1.6,1.6,0,0,0,.927-1.227c0-.613-.559-1.3-1.5-1.827l-8.425-4.867a8.385,8.385,0,0,0-4.035-1.009Z" transform="translate(85.738 61.387)" fill="#004798"/><rect width="1.731" height="29.121" transform="translate(332.969 247.417)" fill="#004798"/><rect width="1.322" height="24.445" transform="translate(347.789 245.099)" fill="#8f00fc"/><path d="M292.716,196.74h-28a.573.573,0,0,0-.573.586v8.644h0a3.34,3.34,0,0,0,1.909,2.44l8.439,4.867a8.766,8.766,0,0,0,7.88.314l9.543-5.453a2.29,2.29,0,0,0,1.363-2.113h0v-8.7a.573.573,0,0,0-.559-.586Z" transform="translate(95.974 71.468)" fill="#8f00fc"/><path d="M279.171,215.524a9.952,9.952,0,0,1-4.881-1.241l-8.439-4.867a4.676,4.676,0,0,1-2.168-2.318h-.164v-9.543a1.445,1.445,0,0,1,1.445-1.445h28a1.432,1.432,0,0,1,1.445,1.363v9.543h-.1a3.436,3.436,0,0,1-1.691,1.99l-9.543,5.522A7.854,7.854,0,0,1,279.171,215.524ZM265.238,206.1v.068a2.563,2.563,0,0,0,1.486,1.759l8.425,4.867a7.962,7.962,0,0,0,7.021.327l9.543-5.522a1.541,1.541,0,0,0,.914-1.363l-.068-.927h.068v-7.526H265.2Z" transform="translate(95.748 71.239)" fill="#004798"/><path d="M288.534,196.76H275.65v17.614a6.2,6.2,0,0,0,2.549-.736l9.543-5.522A2.263,2.263,0,0,0,289.106,206h0v-8.684a.573.573,0,0,0-.573-.559Z" transform="translate(100.156 71.475)" fill="#004798"/><path d="M291.937,201.126l-9.543,5.522a8.725,8.725,0,0,1-7.88-.327l-8.439-4.867c-2.331-1.363-2.59-3.381-.559-4.554l9.543-5.522a8.807,8.807,0,0,1,7.894.327l8.425,4.867C293.709,197.963,293.941,199.967,291.937,201.126Z" transform="translate(95.975 69.236)" fill="#fff"/><path d="M279.179,208.545A9.993,9.993,0,0,1,274.3,207.3l-8.439-4.867a4.09,4.09,0,0,1-2.359-3.327,3.177,3.177,0,0,1,1.8-2.727l9.544-5.535a9.625,9.625,0,0,1,8.753.327l8.439,4.881a4.09,4.09,0,0,1,2.359,3.313,3.177,3.177,0,0,1-1.8,2.727l-9.543,5.453A7.853,7.853,0,0,1,279.179,208.545Zm-.464-16.851a6.121,6.121,0,0,0-2.986.668l-9.543,5.522a1.6,1.6,0,0,0-.927,1.227,2.373,2.373,0,0,0,1.5,1.827l8.425,4.867a7.962,7.962,0,0,0,7.021.327l9.543-5.453a1.581,1.581,0,0,0,.927-1.227c0-.6-.559-1.282-1.5-1.827l-8.425-4.881a8.385,8.385,0,0,0-4.035-1.05Z" transform="translate(95.741 69.001)" fill="#004798"/><rect width="1.731" height="9.175" transform="translate(370.502 276.006)" fill="#004798"/><rect width="1.322" height="4.499" transform="translate(385.322 273.688)" fill="#8f00fc"/><path d="M108.674,226.031l25.4-2.031h0l3.722,2.522h0a38.078,38.078,0,0,1,15.133,4.2,23.025,23.025,0,0,1,3.9,2.727h0l4.554-.818h0v9.543h0c0,4.09-2.727,8.18-8.057,11.261-10.77,6.244-28.262,6.271-39.06,0a22.845,22.845,0,0,1-3.286-2.29h0V241.6h0l12.066-2.154h0l-14.383-3.763h0V226.14Z" transform="translate(39.481 81.372)" fill="#8f00fc"/><path d="M162.3,242.377v.423h0c-.177,4.349-3.149,8.4-8.385,11.425-10.907,6.353-28.794,6.38-39.755.068a22.837,22.837,0,0,1-3.49-2.413l-.191-.2V241.218L120.1,239.5l-11.479-3.027-.464-.177V225.621l26.04-2.181h.259L138.235,226a38.488,38.488,0,0,1,15.242,4.267,23.394,23.394,0,0,1,3.749,2.577l4.213-.75.327-.082.545.409ZM109.523,226.93v8.439L123.429,239l.532.164v1.1l-12.052,2.154v8.725a22.433,22.433,0,0,0,2.849,1.963c10.593,6.094,27.812,6.067,38.378,0,4.963-2.877,7.7-6.667,7.717-10.661v-8.807l-3.708.668-.368.082-.273-.232a21.811,21.811,0,0,0-3.776-2.618,37.437,37.437,0,0,0-15-4.09l-3.776-2.481Z" transform="translate(39.299 81.169)" fill="#004798"/><path d="M133.742,234.517l-25.072-6.53h0a21,21,0,0,1,7.989-5.917c10.716-4.894,26.408-4.485,36.251.954,11.179,6.19,11.329,16.456.423,22.781s-28.262,6.258-39.06,0A22.973,22.973,0,0,1,111,243.529h0l22.754-8.984S133.756,234.517,133.742,234.517Z" transform="translate(39.485 79.43)" fill="#fff"/><path d="M162.314,234.589c0,4.554-2.945,8.807-8.425,11.97-10.907,6.353-28.78,6.38-39.742.068a23,23,0,0,1-3.381-2.359l-.314-.273.164-.777,21.173-8.357-23.177-6.04-.354-.136-.177-.7.218-.259a21.5,21.5,0,0,1,8.18-6.121c10.907-5,26.817-4.581,36.878.982a19.4,19.4,0,0,1,6.953,6.067,10.975,10.975,0,0,1,2,5.931Zm-28.18-.545.491.136v1.009l-22.113,8.739a19.716,19.716,0,0,0,2.263,1.5c10.593,6.094,27.812,6.067,38.378,0,5.017-2.918,7.771-6.735,7.73-10.757s-2.931-7.935-8.18-10.811c-9.707-5.372-25.031-5.781-35.638-.941A21.431,21.431,0,0,0,110,227.827Z" transform="translate(39.27 79.236)" fill="#004798"/><path d="M110.427,239.271l22.7-8.971h0l-7.812,15.269h0a35.665,35.665,0,0,1-11.684-3.995,23.175,23.175,0,0,1-3.231-2.249Z" transform="translate(40.113 83.661)" fill="#fff"/><path d="M125.907,246.585l-.491-.082a36.251,36.251,0,0,1-11.916-4.09,24.537,24.537,0,0,1-3.34-2.318l-.3-.3.15-.8,23.027-9.094.477-.218.654.75Zm-11.725-5.358a34.792,34.792,0,0,0,10.907,3.831l6.817-13.224-19.987,7.894a21.7,21.7,0,0,0,2.222,1.5Z" transform="translate(39.917 83.436)" fill="#004798"/><path d="M129.159,230.34h0v15.883h0a45.292,45.292,0,0,1-7.839-.654Z" transform="translate(44.081 83.676)" fill="#004798"/><path d="M115.593,240.218v9.543a22.291,22.291,0,0,1-5.453-3.381l.286-9.421Z" transform="translate(40.019 86.081)" fill="#004798"/><path d="M130.174,247.136h-.7a47.075,47.075,0,0,1-7.962-.668l-.927-.15,8.18-16.074.245-.5,1.091.286Zm-1.363-1.363V233.38l-6.094,11.9a45.734,45.734,0,0,0,6.067.464Z" transform="translate(43.816 83.458)" fill="#004798"/><path d="M127.074,246.218V230.39h0L132.65,245.9a47.509,47.509,0,0,1-5.59.341Z" transform="translate(46.166 83.694)" fill="#8f00fc"/><path d="M133.782,246.67l-.859.1a46.923,46.923,0,0,1-5.672.354h-.682V230.051l1.159-.191Zm-1.9-1.172-3.954-11.029v11.261C129.256,245.716,130.578,245.634,131.887,245.5Z" transform="translate(45.988 83.502)" fill="#004798"/><rect width="1.377" height="9.625" transform="translate(164.75 329.256) rotate(-0.1)" fill="#004798"/><rect width="1.377" height="9.625" transform="translate(194.625 323.418) rotate(-0.11)" fill="#004798"/><rect width="1.377" height="9.625" transform="translate(191.52 325.678) rotate(-0.1)" fill="#004798"/><rect width="1.377" height="9.625" transform="translate(153.413 309.194) rotate(-0.1)" fill="#004798"/><path d="M120.7,252.562a25.9,25.9,0,0,1-10.975-5.181,4.185,4.185,0,0,1-1.541-2.918l-.259-3.2-1.363.109.259,3.2a5.535,5.535,0,0,0,2.059,3.886,27.267,27.267,0,0,0,11.575,5.453Z" transform="translate(38.718 87.644)" fill="#004798"/><rect width="1.377" height="5.222" transform="translate(162.322 342.263) rotate(-82.06)" fill="#004798"/><path d="M130.259,215.313a29.394,29.394,0,0,0-11.029,1.254l.45,1.363a28.631,28.631,0,0,1,10.457-1.2Z" transform="translate(43.321 78.185)" fill="#004798"/><rect width="4.281" height="1.377" transform="translate(156.688 297.006) rotate(-21.47)" fill="#004798"/><path d="M106.8,223.079a13.961,13.961,0,0,0,6.817-1.745l-.791-1.431a12.27,12.27,0,0,1-12.161-.109L65.218,199.18l-.818,1.363,35.352,20.614a13.879,13.879,0,0,0,7.048,1.922Z" transform="translate(23.399 72.354)" fill="#004798"/><path d="M102.643,216.5a6.162,6.162,0,0,0,1.268-8.016l-1.363.873a4.594,4.594,0,0,1-.968,5.917Z" transform="translate(36.908 75.733)" fill="#004798"/><path d="M88.028,181.129h0v-7.048l-1.759.341c-1.99-3.94-5.672-7.648-11.043-10.757-8.807-5.085-19.373-13.633-30.921-13.524-10.907.15-22.645,8.753-30.921,13.524C8,166.773,4.318,170.481,2.328,174.421L.61,174.081v7.43h0c0,6.449,4.267,12.911,12.8,17.846,17.083,9.857,44.759,9.857,61.841,0C83.951,194.34,88.2,187.714,88.028,181.129ZM67.264,194.763c-6.34,3.667-15.147-1.05-23.45-1.05s-16.1,4.717-22.441,1.05c-12.679-7.308-12.679-19.182,0-26.49s33.225-7.321,45.89,0,12.679,19.169,0,26.49Z" transform="translate(0.222 54.536)" fill="#004798"/><path d="M13.211,200.273C4.69,195.365,0,188.766,0,181.718v-8.385l2.113.423A28.849,28.849,0,0,1,13.2,163.2c1.432-.818,2.972-1.759,4.594-2.727,7.826-4.785,17.546-10.743,26.722-10.907h.341c9.3,0,17.873,5.453,25.44,10.211,1.95,1.227,3.776,2.386,5.562,3.408a28.63,28.63,0,0,1,11.07,10.552l2.127-.409v8.18c.109,7.13-4.581,13.8-13.2,18.773S55.87,207.771,44.5,207.771,21.814,205.263,13.211,200.273Zm74.234-25-1.363.273-.273-.559a26.517,26.517,0,0,0-10.73-10.4c-1.8-1.05-3.654-2.222-5.617-3.463-7.376-4.663-15.733-9.952-24.54-9.952h-.3c-8.725.123-18.242,5.944-25.9,10.634-1.636,1-3.19,1.95-4.635,2.727a26.449,26.449,0,0,0-10.73,10.416l-.286.559L1.7,175.228v6.449c0,6.435,4.4,12.529,12.406,17.137,16.824,9.721,44.2,9.721,61.023,0h0c8.18-4.7,12.556-10.907,12.393-17.505v-.654h0ZM53.17,195.992a45.727,45.727,0,0,0-9.107-1.254,42.264,42.264,0,0,0-8.889,1.268c-4.99,1.091-9.707,2.113-13.947-.327-6.394-3.695-9.912-8.644-9.912-13.961s3.517-10.252,9.912-13.947c12.884-7.43,33.838-7.43,46.708,0,6.394,3.695,9.912,8.644,9.912,13.947s-3.517,10.266-9.912,13.961a12.189,12.189,0,0,1-6.23,1.5A44.377,44.377,0,0,1,53.17,195.992Zm.327-1.6c5.085,1.036,9.9,2.018,13.633-.123,5.876-3.395,9.107-7.853,9.107-12.556s-3.231-9.148-9.107-12.543c-12.42-7.171-32.72-7.171-45.072,0-5.876,3.395-9.107,7.853-9.107,12.543s3.231,9.162,9.107,12.556c3.681,2.127,7.907,1.213,12.788.15a42.824,42.824,0,0,1,9.23-1.363,46.912,46.912,0,0,1,9.38,1.336Z" transform="translate(0 54.329)" fill="#004798"/><path d="M75.244,156.26c-17.083-9.857-44.759-9.857-61.841,0s-17.069,25.9,0,35.706,44.759,9.857,61.841,0S92.327,166.117,75.244,156.26Zm-7.976,31.1c-12.665,7.321-33.211,7.321-45.89,0s-12.679-19.182,0-26.49,33.225-7.321,45.89,0S79.948,180.037,67.269,187.358Z" transform="translate(0.217 54.073)" fill="#8f00fc"/><path d="M13.211,192.886C4.69,187.964,0,181.366,0,174.317s4.69-13.633,13.211-18.555c17.274-9.966,45.386-9.966,62.714,0,8.521,4.922,13.211,11.507,13.211,18.555s-4.69,13.633-13.211,18.555h0c-8.644,4.99-19.987,7.485-31.357,7.485S21.814,197.862,13.211,192.886Zm.818-35.706c-8,4.622-12.406,10.716-12.406,17.151s4.4,12.529,12.406,17.151c16.824,9.721,44.2,9.721,61.023,0h0c8-4.622,12.406-10.7,12.406-17.151s-4.4-12.529-12.406-17.151C66.64,152.326,55.6,149.9,44.54,149.9s-22.1,2.413-30.512,7.267Zm7.158,31.112c-6.394-3.695-9.912-8.644-9.912-13.961s3.517-10.252,9.912-13.947c12.884-7.43,33.825-7.43,46.708,0h0c6.394,3.695,9.912,8.644,9.912,13.947s-3.517,10.266-9.912,13.961-14.9,5.576-23.354,5.576-16.919-1.881-23.354-5.59Zm45.89-26.517c-12.42-7.171-32.72-7.171-45.072,0-5.876,3.395-9.107,7.839-9.107,12.543S16.128,183.479,22,186.86c12.42,7.185,32.72,7.185,45.072,0,5.876-3.381,9.107-7.839,9.107-12.543S72.953,165.169,67.077,161.774Z" transform="translate(0 53.863)" fill="#004798"/><rect width="1.254" height="7.744" transform="translate(61.732 251.302)" fill="#8f00fc"/><rect width="1.254" height="7.744" transform="translate(8.071 242.945)" fill="#8f00fc"/><rect width="1.254" height="7.744" transform="translate(18.705 248.766)" fill="#8f00fc"/><rect width="1.254" height="7.744" transform="translate(61.732 212.542)" fill="#8f00fc"/><rect width="1.254" height="7.744" transform="translate(27.608 211.888)" fill="#8f00fc"/><path d="M47.049,161.167c-7.771-4.485-20.355-4.485-28.126,0s-7.771,11.752,0,16.237,20.355,4.485,28.126,0S54.779,165.652,47.049,161.167Z" transform="translate(4.758 57.32)" fill="#fff"/><path d="M116.22,213.261a.518.518,0,0,0-.177-.7L58.7,179.75a.9.9,0,0,0-.518,0l-5,2.89a2.031,2.031,0,0,0-.859,1.636v5.453a.8.8,0,0,0,.2.586l57.329,32.87a.491.491,0,0,0,.682-.191Z" transform="translate(19.01 65.281)" fill="#fff"/><path d="M109.68,224.092l-57.356-32.8-.191-.15a1.636,1.636,0,0,1-.423-1.145v-5.453a2.849,2.849,0,0,1,1.254-2.345l5-2.89a1.718,1.718,0,0,1,1.1-.136h.123l57.465,32.884a1.314,1.314,0,0,1,.491,1.813l-5.685,9.734a1.363,1.363,0,0,1-1.145.654,1.227,1.227,0,0,1-.641-.164Zm-51-43.327-4.894,2.822a1.363,1.363,0,0,0-.45.941v5.453l56.879,32.6,5.372-9.216Z" transform="translate(18.788 65.07)" fill="#004798"/><path d="M100.559,211.813l-5,2.89c-.464.273-.845,0-.845-.654V208.6a2.072,2.072,0,0,1,.845-1.636l5-2.931c.477-.273.859,0,.859.641v5.453a2.045,2.045,0,0,1-.859,1.691Z" transform="translate(34.412 74.077)" fill="#8f00fc"/><path d="M94.81,215.627a1.513,1.513,0,0,1-.709-1.363V208.81a2.849,2.849,0,0,1,1.268-2.331l4.99-2.89a1.363,1.363,0,0,1,1.363,0,1.527,1.527,0,0,1,.7,1.363v5.453a2.836,2.836,0,0,1-1.254,2.331l-5,2.89a1.363,1.363,0,0,1-.75.218,1.1,1.1,0,0,1-.6-.218Zm5.549-4.335a1.213,1.213,0,0,0,.45-.927V205.17L96.187,207.9a1.363,1.363,0,0,0-.45.927v5.194l4.622-2.727Z" transform="translate(34.19 73.89)" fill="#004798"/><path d="M52.3,184.38v3.708l57.806,33.061v-3.627Z" transform="translate(19.003 66.977)" fill="#004798"/><rect width="1.254" height="34.343" transform="translate(76.064 251.077) rotate(-60.22)" fill="#004798"/><rect width="1.254" height="11.384" transform="matrix(0.497, -0.868, 0.868, 0.497, 111.552, 271.508)" fill="#004798"/><path d="M35.174,180.733c15.992,0,23.695-8.63,23.79-8.725l-.941-.818c-.1.109-9.816,10.907-30.239,7.7l-.2,1.227A49.388,49.388,0,0,0,35.174,180.733Z" transform="translate(10.021 62.184)" fill="#fff"/><path d="M42.562,177.142c8.18-3.354,10.13-9.271,10.211-9.543l-1.2-.368s-1.827,5.6-9.543,8.725Z" transform="translate(15.271 60.745)" fill="#fff"/><path d="M12.542,172.746a17.11,17.11,0,0,1,6.3-6.462l-.654-1.063a18.242,18.242,0,0,0-6.817,6.9Z" transform="translate(4.131 60.015)" fill="#8f00fc"/><rect width="1.254" height="2.331" transform="translate(70.676 253.429)" fill="#8f00fc"/><path d="M29.948,167.692c-1.186.968-.191,2.331,0,2.577h0a8.057,8.057,0,0,0-4.458,0h0c1.186-.968.177-2.331,0-2.577h0a8.18,8.18,0,0,0,4.472,0S29.975,167.678,29.948,167.692Z" transform="translate(9.262 60.911)" fill="#004798"/><path d="M25.188,165c-1.2.968-.2,2.331,0,2.577h0a8.057,8.057,0,0,0-4.458,0h0c1.186-.968.177-2.345,0-2.577h0a8.181,8.181,0,0,0,4.458,0Z" transform="translate(7.532 59.935)" fill="#004798"/><path d="M34.7,165.01c-1.186.968-.2,2.331,0,2.577h0a8.057,8.057,0,0,0-4.458,0h0c1.186-.968.177-2.345,0-2.577h0a8.18,8.18,0,0,0,4.472,0S34.725,164.928,34.7,165.01Z" transform="translate(10.988 59.925)" fill="#004798"/><path d="M29.968,162.222c-1.186.968-.2,2.331,0,2.577h0a8.057,8.057,0,0,0-4.458,0h0c1.186-.968.177-2.345,0-2.577h0a8.071,8.071,0,0,0,4.472,0S30,162.208,29.968,162.222Z" transform="translate(9.269 58.923)" fill="#004798"/><path d="M273.08,130.539l6.149-3.981a.109.109,0,0,0,0-.164l-7.771-9.38a.109.109,0,0,0-.191,0l-1.241,5.767h0l-.286,3.954,3.19,3.722a.109.109,0,0,0,.15.082Z" transform="translate(98.008 42.48)" fill="#004798"/><path d="M273.207,131.412a.777.777,0,0,1-.573-.259l-3.395-3.94v-.368l.3-3.94,1.363-6.271.477-.177a.764.764,0,0,1,.777.259l7.989,9.693v.382a.736.736,0,0,1-.341.532l-6.135,3.967A.8.8,0,0,1,273.207,131.412Zm-2.618-4.663,2.727,3.177,5.208-3.354-6.667-8.1-1.009,4.635Z" transform="translate(97.827 42.289)" fill="#004798"/><path d="M299.111,110.549l-29.3-16.905a2.1,2.1,0,0,0-1.909-.273h0l-5.74,3.436a.164.164,0,0,0,0,.245l6.817,7.239a.15.15,0,0,1,0,.109v11.957a6.653,6.653,0,0,0,3,5.194l4.376,2.522.3.436a16.088,16.088,0,0,0,6.817,10.211c.218.136.354,0,.218-.327-.709-1.363-2.031-4.254-1.636-6.544l.491-.218,9.039,5.222.068.082,3.776,10.075a.15.15,0,0,0,.218.082l5.672-3.408h0a2.127,2.127,0,0,0,.777-1.841V115.757A6.68,6.68,0,0,0,299.111,110.549Z" transform="translate(95.236 33.867)" fill="#fff"/><path d="M295.764,143.945a.614.614,0,0,1-.273,0l-.286-.1-.2-.382-3.708-9.9-8.439-4.867a12.529,12.529,0,0,0,1.622,5.6.913.913,0,0,1-.15,1.145.8.8,0,0,1-1.023,0,16.714,16.714,0,0,1-7.049-10.5l-.136-.191-4.24-2.44a7.321,7.321,0,0,1-3.34-5.781V104.776l-6.708-7.089a.791.791,0,0,1-.218-.682.859.859,0,0,1,.409-.6l5.712-3.422a2.822,2.822,0,0,1,2.59.259l29.3,16.919a7.24,7.24,0,0,1,3.34,5.781v22.127a2.727,2.727,0,0,1-1.077,2.386l-5.658,3.381A.887.887,0,0,1,295.764,143.945Zm-12.979-16.878,9.543,5.453.15.327,3.558,9.543,5.14-3.095a1.513,1.513,0,0,0,.5-1.227V115.983a5.971,5.971,0,0,0-2.658-4.622L269.656,94.442a1.473,1.473,0,0,0-1.363-.232l-5.058,2.958,6.6,6.967v12.338a5.971,5.971,0,0,0,2.659,4.622l4.581,2.727.423.709a15.488,15.488,0,0,0,4.949,8.548,9.993,9.993,0,0,1-.886-5.222l.068-.354Z" transform="translate(95.052 33.695)" fill="#004798"/><path d="M293.6,113.178l-29.339-16.96c-1.609-.941-2.918-.177-2.918,1.677v22.182a6.49,6.49,0,0,0,2.918,5.072l4.526,2.6a.491.491,0,0,1,.218.354,16.183,16.183,0,0,0,6.817,10.252c.2.136.354,0,.218-.327-.736-1.363-2.127-4.472-1.581-6.817,0-.109.123-.15.245-.082l18.95,10.907c1.622.927,2.931.177,2.931-1.691V118.236a6.421,6.421,0,0,0-2.986-5.058Z" transform="translate(94.956 34.797)" fill="#8f00fc"/><path d="M295.142,143.361a3.272,3.272,0,0,1-1.636-.491l-18.323-10.58a12.353,12.353,0,0,0,1.622,5.617.941.941,0,0,1-.15,1.145.8.8,0,0,1-1.023,0,16.878,16.878,0,0,1-7.076-10.62l-4.431-2.563a7.089,7.089,0,0,1-3.258-5.644V98.084a2.427,2.427,0,0,1,3.913-2.263l29.38,16.974a7.09,7.09,0,0,1,3.258,5.631v22.182a2.727,2.727,0,0,1-1.186,2.468,2.141,2.141,0,0,1-1.091.286Zm-20.368-12.706a.846.846,0,0,1,.436.123l18.951,10.907a1.5,1.5,0,0,0,1.363.2,1.459,1.459,0,0,0,.532-1.363v-22.1a5.835,5.835,0,0,0-2.59-4.485L264.112,96.98a1.459,1.459,0,0,0-1.363-.2,1.432,1.432,0,0,0-.532,1.363v22.182a5.849,5.849,0,0,0,2.59,4.5l4.526,2.6a1.159,1.159,0,0,1,.545.8,15.392,15.392,0,0,0,4.963,8.6,9.543,9.543,0,0,1-.832-5.453l.082-.327.4-.232a.8.8,0,0,1,.273-.164Z" transform="translate(94.774 34.607)" fill="#004798"/><rect width="5.985" height="1.336" transform="translate(389.579 147.718) rotate(-31.3)" fill="#004798"/><rect width="5.985" height="1.336" transform="translate(362.183 132) rotate(-31.3)" fill="#004798"/><rect width="6.68" height="1.322" transform="translate(391.172 153.757) rotate(-32.36)" fill="#004798"/><path d="M293,112.84l-5.821,3.531v19.237l5.631-3.095.191-1.377Z" transform="translate(104.345 40.983)" fill="#004798"/><rect width="6.421" height="1.322" transform="translate(364.746 121.643) rotate(-85.29)" fill="#004798"/><rect width="1.336" height="7.403" transform="translate(357.562 115.744) rotate(-23.68)" fill="#004798"/><rect width="1.322" height="6.162" transform="translate(351.686 122.023) rotate(-60.53)" fill="#004798"/><path d="M277.415,125.962a2.522,2.522,0,0,1-1.268-.423,4.649,4.649,0,0,1-1.65-1.554,3.967,3.967,0,0,1-.6-2.113c0-.832.232-1.363.709-1.609a1.991,1.991,0,0,1,1.868.341,4.526,4.526,0,0,1,1.636,1.568,4.009,4.009,0,0,1,.573,2.086q0,1.241-.736,1.6A1.363,1.363,0,0,1,277.415,125.962Zm-2.29-5.14a.518.518,0,0,0-.218,0c-.286.136-.341.627-.341,1.009a3.286,3.286,0,0,0,.491,1.759,3.94,3.94,0,0,0,1.363,1.363c.518.3.927.4,1.186.273s.354-.436.354-.982a3.394,3.394,0,0,0-.477-1.745,3.967,3.967,0,0,0-1.363-1.363A2.331,2.331,0,0,0,275.125,120.823Zm2.89-.354-3.695-2.14v-1.172a3.082,3.082,0,0,1,.464-1.854,2.29,2.29,0,0,1,1.622-.818,2.249,2.249,0,0,0,1-.314.792.792,0,0,0,.218-.613,1.254,1.254,0,0,0-.314-.763,2.8,2.8,0,0,0-.873-.763,6.34,6.34,0,0,0-3.313-.75h-.245l-1.6-4.526h.436a9.3,9.3,0,0,1,5.317,1.363,10.783,10.783,0,0,1,3.572,3.218,7.021,7.021,0,0,1,1.363,3.94,3.544,3.544,0,0,1-.641,2.277,3.054,3.054,0,0,1-1.977,1,2.727,2.727,0,0,0-1.145.327c-.1,0-.136.218-.136.436ZM274.988,118l2.359,1.363h0a1.2,1.2,0,0,1,.382-.968,3.667,3.667,0,0,1,1.459-.45,2.386,2.386,0,0,0,1.568-.763,2.85,2.85,0,0,0,.491-1.854,6.367,6.367,0,0,0-1.2-3.572,10.115,10.115,0,0,0-3.34-3.013,8.684,8.684,0,0,0-4.5-1.363l1.145,3.231a6.217,6.217,0,0,1,3.408.845,3.587,3.587,0,0,1,1.077.927,2.018,2.018,0,0,1,.436,1.172,1.363,1.363,0,0,1-.477,1.132,2.727,2.727,0,0,1-1.3.45,1.677,1.677,0,0,0-1.186.559,2.536,2.536,0,0,0-.327,1.459Z" transform="translate(98.568 38.767)" fill="#fff"/><path d="M273.295,116.953v-.982a2.822,2.822,0,0,1,.4-1.65,2,2,0,0,1,1.363-.7,2.59,2.59,0,0,0,1.145-.382,1.022,1.022,0,0,0,.355-.873,1.568,1.568,0,0,0-.382-.968,3.259,3.259,0,0,0-.968-.845,6.449,6.449,0,0,0-3.49-.791l-1.363-3.886a8.807,8.807,0,0,1,5.126,1.363,10.212,10.212,0,0,1,3.449,3.108,6.639,6.639,0,0,1,1.254,3.763,3.272,3.272,0,0,1-.559,2.072,2.726,2.726,0,0,1-1.772.873,3.463,3.463,0,0,0-1.3.382.872.872,0,0,0-.273.709v.573Zm-.423,3.736q0-1.05.532-1.363t1.554.327a4.172,4.172,0,0,1,1.513,1.445A3.64,3.64,0,0,1,277,123.02a1.487,1.487,0,0,1-.559,1.363,1.677,1.677,0,0,1-1.486-.3,4.336,4.336,0,0,1-1.527-1.445,3.558,3.558,0,0,1-.559-2Z" transform="translate(98.23 38.452)" fill="#004798"/><rect width="1.622" height="104.337" transform="translate(76.116 33.072)" fill="#004798"/><rect width="1.622" height="14.806" transform="translate(76.116 143.216)" fill="#004798"/><path d="M244.824,159.171h1.622V111.236c0-.082,1.132-15.133-13.088-21.486l-.668,1.486c13.156,5.862,12.175,19.359,12.134,19.932Z" transform="translate(84.546 32.593)" fill="#004798"/><rect width="1.622" height="16.156" transform="translate(329.398 197.655)" fill="#004798"/><path d="M93.671,179.564l8.875.177a.845.845,0,0,0,.45-.109l33.975-19.619a7.8,7.8,0,0,1,7.035-.286l77.07,44.486.164.068,25.576,8.6a.859.859,0,0,1,.586.8v6.435c.218.9-.354,1.922-1.677,2.727l-42.468,24.54a7.8,7.8,0,0,1-7.035.286L93.971,188.671a2.072,2.072,0,0,1-1.2-1.786v-6.408a.845.845,0,0,1,.9-.913Z" transform="translate(33.707 57.764)" fill="#004798"/><path d="M196.03,248.535,93.779,189.516a2.863,2.863,0,0,1-1.609-2.481v-6.408a1.622,1.622,0,0,1,.5-1.186,1.459,1.459,0,0,1,1.2-.477l8.9.177,33.975-19.619a8.616,8.616,0,0,1,7.853-.286l77.083,44.5,25.672,8.644a1.691,1.691,0,0,1,1.145,1.6v6.34a3.422,3.422,0,0,1-2.086,3.463l-42.468,24.54a9.066,9.066,0,0,1-4.376,1.1A7.049,7.049,0,0,1,196.03,248.535ZM137.6,160.94l-33.975,19.6a1.363,1.363,0,0,1-.873.232l-8.875-.191v6.449a1.363,1.363,0,0,0,.791,1.077l102.251,59.019a6.98,6.98,0,0,0,6.217-.3l42.468-24.54c.941-.532,1.432-1.227,1.363-1.786v-6.667l-25.576-8.589-.3-.136-77.07-44.5a5.453,5.453,0,0,0-2.645-.586,7.362,7.362,0,0,0-3.776.913Z" transform="translate(33.489 57.546)" fill="#004798"/><path d="M94,183.447l102.251,59.019a7.8,7.8,0,0,0,7.035-.3l42.468-24.54c2.086-1.2,2.318-3.027.5-4.09L144,154.517a7.8,7.8,0,0,0-7.035.286L94.446,179.385C92.414,180.584,92.2,182.4,94,183.447Z" transform="translate(33.709 55.871)" fill="#fff"/><path d="M196.033,243.369,93.782,184.349a2.849,2.849,0,0,1-1.622-2.468,3.681,3.681,0,0,1,2.127-3l42.468-24.54a8.616,8.616,0,0,1,7.853-.286l102.251,59.019a2.863,2.863,0,0,1,1.622,2.468,3.667,3.667,0,0,1-2.127,3l-42.468,24.54a8.916,8.916,0,0,1-4.376,1.1A7.048,7.048,0,0,1,196.033,243.369ZM137.6,155.774l-42.468,24.54c-.832.477-1.363,1.077-1.363,1.6s.45.845.818,1.063l102.251,59.019a7.021,7.021,0,0,0,6.217-.286l42.468-24.54c.832-.477,1.363-1.077,1.363-1.6a1.363,1.363,0,0,0-.8-1.063L143.831,155.487a5.453,5.453,0,0,0-2.645-.586A7.363,7.363,0,0,0,137.6,155.774Z" transform="translate(33.486 55.664)" fill="#004798"/><rect width="1.254" height="6.053" transform="translate(232.382 299.524)" fill="#8f00fc"/><rect width="1.254" height="6.053" transform="translate(275.873 275.379)" fill="#8f00fc"/><rect width="1.254" height="6.053" transform="translate(130.445 241.459)" fill="#8f00fc"/><path d="M61.891,5.379a.218.218,0,0,1,.082-.327L69.553.839a1.363,1.363,0,0,1,1.6,0L300.272,133.083a5.358,5.358,0,0,1,2.25,4.281V312.69a2.1,2.1,0,0,1-.668,1.731l-8.03,4.513-7.948-9.543L289,308.027,71.149,182.177a5.372,5.372,0,0,1-2.277-4.281V14.881Z" transform="translate(22.472 0.194)" fill="#fff"/><path d="M284.8,309.243l2.645-1.159L70.948,183.093A6.19,6.19,0,0,1,68.3,178.1V15.36L61.487,6.076a1.023,1.023,0,0,1-.191-.832,1.036,1.036,0,0,1,.518-.7L69.285.459A2.168,2.168,0,0,1,71.807.377L300.849,132.663a6.19,6.19,0,0,1,2.727,5.031V313.019a2.836,2.836,0,0,1-1.077,2.44l-8.575,4.758ZM70.157,1.754,63.15,5.64l6.817,9.189V178.1a4.567,4.567,0,0,0,1.841,3.572L291.1,308.289l-3.613,1.582,6.817,8.18,7.294-4.09a1.363,1.363,0,0,0,.341-1.091V137.693a4.594,4.594,0,0,0-1.84-3.586L70.948,1.782a.968.968,0,0,0-.45-.136.559.559,0,0,0-.341.109Z" transform="translate(22.264 -0.012)" fill="#004798"/><path d="M63.386,185.379,292.523,317.624c1.241.723,2.236,0,2.236-1.691V140.7a5.344,5.344,0,0,0-2.236-4.281L63.386,4.123c-1.241-.709-2.236,0-2.236,1.7V181.153A5.344,5.344,0,0,0,63.386,185.379Z" transform="translate(22.218 1.382)" fill="#004798"/><path d="M292.336,318.642,63.2,186.4a6.217,6.217,0,0,1-2.645-4.99V6.04A2.727,2.727,0,0,1,61.74,3.518a2.222,2.222,0,0,1,2.277.123L293.154,135.885a6.189,6.189,0,0,1,2.645,4.99V316.2a2.726,2.726,0,0,1-1.186,2.522,2.032,2.032,0,0,1-.982.259A2.727,2.727,0,0,1,292.336,318.642ZM62.53,4.923c-.177.109-.368.45-.368,1.118V181.367a4.526,4.526,0,0,0,1.827,3.572L293.126,317.183c.123.068.45.232.654.109s.368-.436.368-1.1V140.916a4.594,4.594,0,0,0-1.84-3.586L63.2,5.045a1.091,1.091,0,0,0-.477-.164.327.327,0,0,0-.191.041Z" transform="translate(21.997 1.169)" fill="#004798"/><path d="M63.178,181.429l228.456,131.9c.368.2.668,0,.668-.5V139.11a1.554,1.554,0,0,0-.668-1.254L63.178,5.953c-.368-.218-.668,0-.668.491V180.174A1.6,1.6,0,0,0,63.178,181.429Z" transform="translate(22.713 2.115)" fill="#8f00fc"/><path d="M291.493,314.263,63.024,182.36h0a2.359,2.359,0,0,1-1.063-1.95V6.666a1.363,1.363,0,0,1,.627-1.241,1.227,1.227,0,0,1,1.241,0L292.3,137.328a2.345,2.345,0,0,1,1.063,1.963V313.023a1.363,1.363,0,0,1-.627,1.241,1.091,1.091,0,0,1-.573.15A1.364,1.364,0,0,1,291.493,314.263ZM63.583,180.4a.818.818,0,0,0,.245.545l227.91,131.59V139.387a.859.859,0,0,0-.245-.559L63.583,7.2Z" transform="translate(22.512 1.893)" fill="#004798"/><path d="M61.15,136.721V126.7L294.759,261.576v10.048c0,1.541-1.077,2.154-2.4,1.363L63.549,140.892a5.317,5.317,0,0,1-2.4-4.172Z" transform="translate(22.218 46.019)" fill="#004798"/><path d="M292.169,274.074,63.372,141.979A6.149,6.149,0,0,1,60.55,137.1V125.66L295.386,261.245l.409.232V272a2.481,2.481,0,0,1-1.118,2.263,2.018,2.018,0,0,1-1.022.273,3.04,3.04,0,0,1-1.486-.464ZM62.186,128.482V137.1a4.5,4.5,0,0,0,1.99,3.463L292.932,272.669c.382.2.709.273.9.164a1.023,1.023,0,0,0,.3-.859v-9.543Z" transform="translate(22 45.641)" fill="#004798"/><rect width="1.254" height="34.165" transform="matrix(0.5, -0.866, 0.866, 0.5, 185.07, 238.529)" fill="#8f00fc"/><rect width="9.162" height="1.622" transform="matrix(0.857, -0.515, 0.515, 0.857, 316.715, 139.076)" fill="#004798"/><rect width="9.148" height="1.622" transform="translate(98.367 12.805) rotate(-30.669)" fill="#004798"/><rect width="9.162" height="1.622" transform="matrix(0.857, -0.515, 0.515, 0.857, 316.737, 305.182)" fill="#004798"/><path d="M193.553,214l.627-1.077-4.963-2.89-.627,1.091Z" transform="translate(68.523 76.296)" fill="#8f00fc"/><path d="M195.282,230.53a4.636,4.636,0,0,0,2.44-.7l8.889-5.453-.859-1.363-8.889,5.453a2.986,2.986,0,0,1-3.068,0L105.764,178.3l-.8,1.363,88.018,50.2A4.663,4.663,0,0,0,195.282,230.53Z" transform="translate(38.137 64.768)" fill="#004798"/><path d="M105.149,181.632l.791-1.363-6.53-3.626a.559.559,0,0,1-.286-.491.532.532,0,0,1,.273-.477l9.094-5.331-.832-1.363-9.08,5.331a2.14,2.14,0,0,0-1.077,1.909,2.168,2.168,0,0,0,1.118,1.881Z" transform="translate(35.426 61.381)" fill="#004798"/><rect width="9.148" height="1.622" transform="matrix(0.857, -0.515, 0.515, 0.857, 317.165, 299.165)" fill="#004798"/><rect width="9.148" height="1.622" transform="matrix(0.857, -0.515, 0.515, 0.857, 103.228, 15.179)" fill="#004798"/><rect width="9.148" height="1.622" transform="matrix(0.857, -0.515, 0.515, 0.857, 317.127, 147.435)" fill="#004798"/><path d="M112.916,85.913l-.586-.559.1-.4,9.121-29.789.777.709a72.939,72.939,0,0,1,15.91,22.073l.327.709Zm9.284-28.33-8.18,26.6,22.645-6.38A71.848,71.848,0,0,0,122.2,57.583Z" transform="translate(40.814 20.029)" fill="#fff"/><path d="M109.413,84.228V48.781c-17.6-10.075-31.7-1.1-30.566,20.15.968,17.983,13.129,39.21,28.208,49.217,10.2,6.817,19.428,7.2,25.522,2.59h0Z" transform="translate(28.625 16.206)" fill="#fff"/><path d="M123.341,124.92c-5.044,0-10.7-1.95-16.524-5.821-15.31-10.157-27.608-31.6-28.63-49.885-.573-10.634,2.727-18.937,8.984-22.8s14.22-3.068,22.877,1.922l.423.259V84.224l23.49,36.988-.709.477a16.142,16.142,0,0,1-9.912,3.231ZM95.965,45.764A14.833,14.833,0,0,0,88.1,47.891c-5.726,3.517-8.7,11.261-8.18,21.227.954,17.723,12.924,38.651,27.826,48.549,9.148,6.067,17.805,7.171,23.886,3.081l-22.85-36.02V49.6a26.681,26.681,0,0,0-12.815-3.831Z" transform="translate(28.386 15.965)" fill="#004798"/><path d="M113.731,52.245a48.822,48.822,0,0,0-8.821-6.585V80.943h0Z" transform="translate(38.118 16.574)" fill="#004798"/><path d="M107.347,83.186l24.54-6.912a71.862,71.862,0,0,0-15.76-21.814L107.32,83.227A.2.2,0,0,1,107.347,83.186Z" transform="translate(38.994 19.771)" fill="#8f00fc"/><path d="M107.336,84.6l-.736-.8.191-.518L115.98,53.28l1.009.941A72.9,72.9,0,0,1,132.94,76.348l.436.913Zm9.543-28.167-7.935,25.9L131,76.116a71.561,71.561,0,0,0-14.192-19.687Z" transform="translate(38.732 19.342)" fill="#004798"/><path d="M117.967,153.983l-9.707-5.6V114.76l9.707,5.6Z" transform="translate(39.336 41.681)" fill="#fff"/><path d="M119.048,155.879l-11.438-6.6V113.67l11.438,6.6Zm-9.707-7.607,7.976,4.608V121.264l-7.976-4.608Z" transform="translate(39.099 41.285)" fill="#004798"/><path d="M128.263,162.982l-9.693-5.6V112.32l9.693,5.6Z" transform="translate(43.082 40.794)" fill="#fff"/><path d="M129.368,164.881l-11.438-6.6V111.22l11.438,6.612Zm-9.707-7.607,7.976,4.594V118.827l-7.976-4.608Z" transform="translate(42.849 40.394)" fill="#004798"/><path d="M220.987,210.506l-9.707-5.6V182.38l9.707,5.6Z" transform="translate(76.767 66.25)" fill="#fff"/><path d="M222.048,212.409l-11.438-6.6V181.27l11.438,6.6Zm-9.707-7.594,7.976,4.594V188.877l-7.976-4.594Z" transform="translate(76.524 65.847)" fill="#004798"/><path d="M138.573,172.718l-9.693-5.6V107.85l9.693,5.6Z" transform="translate(46.828 39.17)" fill="#fff"/><path d="M139.678,174.617l-11.438-6.6V106.75l11.438,6.6Zm-9.707-7.539,7.976,4.594v-57.26l-7.976-4.594Z" transform="translate(46.595 38.77)" fill="#004798"/><path d="M148.887,174.878l-9.707-5.6V124.23l9.707,5.6Z" transform="translate(50.57 45.122)" fill="#fff"/><path d="M149.975,176.778l-11.425-6.6V123.13l11.425,6.6Zm-9.693-7.594,7.976,4.608V130.724l-7.976-4.608Z" transform="translate(50.341 44.722)" fill="#004798"/><path d="M200.3,208.348l-9.707-5.6V143.48l9.707,5.6Z" transform="translate(69.25 52.116)" fill="#fff"/><path d="M201.37,210.247l-11.37-6.6V142.38l11.438,6.612Zm-9.707-7.594,7.976,4.608v-57.22l-7.976-4.608Z" transform="translate(69.035 51.716)" fill="#004798"/><path d="M210.593,210.508l-9.693-5.59V159.86l9.693,5.6Z" transform="translate(72.996 58.068)" fill="#fff"/><path d="M211.7,212.408l-11.438-6.6V158.76l11.438,6.6Zm-9.707-7.594,7.976,4.608V166.354l-7.976-4.54Z" transform="translate(72.763 57.668)" fill="#004798"/><path d="M107.577,143.645l-9.707-5.6V120.7l9.707,5.6Z" transform="translate(35.56 43.839)" fill="#fff"/><path d="M108.665,145.541l-11.425-6.6V119.61l11.425,6.6Zm-9.707-7.594,7.976,4.594V127.2L98.958,122.6Z" transform="translate(35.332 43.443)" fill="#004798"/><path d="M159.2,187.575l-9.707-5.6V111.65l9.707,5.6Z" transform="translate(54.316 40.551)" fill="#fff"/><path d="M160.285,189.446l-11.425-6.6V110.59l11.425,6.6Zm-9.693-7.594,7.962,4.608V118.129l-7.962-4.608Z" transform="translate(54.087 40.166)" fill="#004798"/><path d="M169.357,191.662l-9.707-5.6V122.05l9.707,5.6Z" transform="translate(58.008 44.329)" fill="#fff"/><path d="M170.452,193.544,159,186.945V121l11.438,6.6Zm-9.707-7.594,7.976,4.594V128.526l-7.976-4.608Z" transform="translate(57.772 43.948)" fill="#004798"/><path d="M179.653,194.048l-9.693-5.6V137.81l9.693,5.6Z" transform="translate(61.754 50.056)" fill="#fff"/><path d="M180.758,195.947l-11.438-6.6V136.71l11.438,6.6Zm-9.707-7.594,7.976,4.594V144.3l-7.976-4.594Z" transform="translate(61.521 49.656)" fill="#004798"/><path d="M189.967,197.535l-9.707-5.6V150.54l9.707,5.6Z" transform="translate(65.496 54.681)" fill="#fff"/><path d="M191.048,199.43l-11.438-6.6V149.45l11.438,6.6Zm-9.707-7.594,7.976,4.594V157.017l-7.976-4.608Z" transform="translate(65.26 54.285)" fill="#004798"/><path d="M207.541,130.268a7.362,7.362,0,0,0,2.018,3.517h0c-.273,0-1.8-.191-2.018,1.186h0a7.416,7.416,0,0,0-2.031-3.531h0c.273,0,1.813.191,2.031-1.186Z" transform="translate(74.671 47.305)" fill="#004798"/><path d="M203.211,127.777a7.362,7.362,0,0,0,2.018,3.517h0c-.273,0-1.8-.2-2.018,1.172h0a7.349,7.349,0,0,0-2.031-3.517h0c.273,0,1.813.2,2.031-1.172C203.184,127.736,203.2,127.75,203.211,127.777Z" transform="translate(73.098 46.401)" fill="#004798"/><path d="M198.905,125.283a7.5,7.5,0,0,0,2.018,3.531h0c-.273,0-1.8-.2-2.018,1.186h0a7.349,7.349,0,0,0-2.045-3.517h0c.286,0,1.813.2,2.045-1.173C198.878,125.256,198.905,125.27,198.905,125.283Z" transform="translate(71.528 45.5)" fill="#004798"/><path d="M194.591,122.807a7.458,7.458,0,0,0,2.031,3.517h0c-.273,0-1.8-.191-2.031,1.186h0a7.485,7.485,0,0,0-2.031-3.531h0c.273,0,1.813.2,2.031-1.172C194.523,122.766,194.591,122.78,194.591,122.807Z" transform="translate(69.965 44.595)" fill="#004798"/><path d="M190.3,120.314a7.362,7.362,0,0,0,2.018,3.517h0c-.273,0-1.8-.2-2.018,1.172h0a7.458,7.458,0,0,0-2.045-3.517h0c.273,0,1.813.2,2.045-1.172C190.268,120.287,190.3,120.3,190.3,120.314Z" transform="translate(68.399 43.693)" fill="#004798"/><path d="M185.981,117.838a7.457,7.457,0,0,0,2.031,3.517h0c-.273,0-1.8-.191-2.031,1.186h0a7.417,7.417,0,0,0-2.031-3.531h0c.273,0,1.813.2,2.031-1.186C185.954,117.8,185.981,117.81,185.981,117.838Z" transform="translate(66.837 42.789)" fill="#004798"/><path d="M181.685,115.347a7.362,7.362,0,0,0,2.018,3.517h0c-.273,0-1.8-.2-2.018,1.172h0a7.458,7.458,0,0,0-2.045-3.517h0c.273,0,1.813.2,2.045-1.173C181.658,115.306,181.685,115.32,181.685,115.347Z" transform="translate(65.271 41.885)" fill="#004798"/><path d="M177.371,112.866a7.662,7.662,0,0,0,2.018,3.517h0c-.259,0-1.786-.191-2.018,1.186h0a7.348,7.348,0,0,0-2.031-3.517h0c.273,0,1.813.2,2.031-1.172C177.344,112.825,177.371,112.839,177.371,112.866Z" transform="translate(63.709 40.984)" fill="#004798"/><path d="M173.075,110.375a7.362,7.362,0,0,0,2,3.586h0c-.273,0-1.8-.2-2.018,1.172h0a7.485,7.485,0,0,0-2.031-3.531h0c.273,0,1.813.2,2.031-1.172C173.048,110.334,173.061,110.348,173.075,110.375Z" transform="translate(62.143 40.08)" fill="#004798"/><path d="M168.765,107.884a7.362,7.362,0,0,0,2.018,3.517h0c-.273,0-1.8-.2-2.018,1.186h0a7.24,7.24,0,0,0-2.045-3.517h0c.286,0,1.827.2,2.045-1.172C168.738,107.856,168.765,107.87,168.765,107.884Z" transform="translate(60.577 39.177)" fill="#004798"/><path d="M220.435,137.714a7.362,7.362,0,0,0,2.018,3.517h0c-.273,0-1.8-.2-2.018,1.186h0a7.458,7.458,0,0,0-2.045-3.517h0c.273,0,1.813.2,2.045-1.172C220.408,137.686,220.435,137.7,220.435,137.714Z" transform="translate(79.351 50.016)" fill="#004798"/><path d="M216.121,135.237a7.457,7.457,0,0,0,2.031,3.517h0c-.273,0-1.8-.191-2.031,1.186h0a7.484,7.484,0,0,0-2.031-3.531h0c.273,0,1.813.2,2.031-1.172C216.094,135.2,216.121,135.21,216.121,135.237Z" transform="translate(77.788 49.111)" fill="#004798"/><path d="M211.825,132.744a7.362,7.362,0,0,0,2.018,3.517h0c-.273,0-1.8-.2-2.018,1.173h0a7.458,7.458,0,0,0-2.045-3.517h0c.273,0,1.813.2,2.045-1.172C211.8,132.717,211.825,132.731,211.825,132.744Z" transform="translate(76.222 48.209)" fill="#004798"/><path d="M207.541,125.264a7.362,7.362,0,0,0,2.018,3.517h0c-.273,0-1.8-.2-2.018,1.186h0a7.348,7.348,0,0,0-2.031-3.517h0c.273,0,1.813.2,2.031-1.172Z" transform="translate(74.671 45.492)" fill="#004798"/><path d="M203.211,122.787a7.362,7.362,0,0,0,2.018,3.517h0c-.273,0-1.8-.191-2.018,1.186h0a7.485,7.485,0,0,0-2.031-3.531h0c.273,0,1.813.2,2.031-1.172C203.184,122.746,203.2,122.76,203.211,122.787Z" transform="translate(73.098 44.588)" fill="#004798"/><path d="M198.905,120.294a7.362,7.362,0,0,0,2.018,3.517h0c-.273,0-1.8-.2-2.018,1.172h0a7.349,7.349,0,0,0-2.045-3.517h0c.286,0,1.813.2,2.045-1.172C198.878,120.267,198.905,120.281,198.905,120.294Z" transform="translate(71.528 43.686)" fill="#004798"/><path d="M194.591,117.818a7.458,7.458,0,0,0,2.031,3.517h0c-.273,0-1.8-.191-2.031,1.186h0a7.417,7.417,0,0,0-2.031-3.531h0c.273,0,1.813.191,2.031-1.186C194.523,117.777,194.591,117.79,194.591,117.818Z" transform="translate(69.965 42.781)" fill="#004798"/><path d="M190.3,115.327a7.363,7.363,0,0,0,2.018,3.517h0c-.273,0-1.8-.2-2.018,1.172h0a7.458,7.458,0,0,0-2.045-3.517h0c.273,0,1.813.2,2.045-1.172C190.268,115.286,190.3,115.3,190.3,115.327Z" transform="translate(68.399 41.877)" fill="#004798"/><path d="M185.981,112.833a7.607,7.607,0,0,0,2.031,3.531h0c-.273,0-1.8-.2-2.031,1.186h0a7.348,7.348,0,0,0-2.031-3.517h0c.273,0,1.813.2,2.031-1.172C185.954,112.806,185.981,112.82,185.981,112.833Z" transform="translate(66.837 40.976)" fill="#004798"/><path d="M181.685,110.357a7.362,7.362,0,0,0,2.018,3.517h0c-.273,0-1.8-.191-2.018,1.186h0a7.594,7.594,0,0,0-2.045-3.531h0c.273,0,1.813.2,2.045-1.172C181.658,110.316,181.685,110.33,181.685,110.357Z" transform="translate(65.271 40.071)" fill="#004798"/><path d="M177.371,107.864a7.58,7.58,0,0,0,2.018,3.517h0c-.259,0-1.786-.2-2.018,1.172h0a7.348,7.348,0,0,0-2.031-3.517h0c.273,0,1.813.2,2.031-1.172C177.344,107.837,177.371,107.851,177.371,107.864Z" transform="translate(63.709 39.169)" fill="#004798"/><path d="M173.075,105.386a7.362,7.362,0,0,0,2,3.572h0c-.273,0-1.8-.191-2.018,1.186h0a7.417,7.417,0,0,0-2.031-3.531h0c.273,0,1.813.2,2.031-1.186C173.048,105.345,173.061,105.358,173.075,105.386Z" transform="translate(62.143 38.267)" fill="#004798"/><path d="M168.765,102.9a7.362,7.362,0,0,0,2.018,3.517h0c-.273,0-1.8-.2-2.018,1.172h0a7.24,7.24,0,0,0-2.045-3.517h0c.286,0,1.827.2,2.045-1.172C168.738,102.856,168.765,102.87,168.765,102.9Z" transform="translate(60.577 37.361)" fill="#004798"/><path d="M220.435,132.727a7.362,7.362,0,0,0,2.018,3.517h0c-.273,0-1.8-.2-2.018,1.172h0a7.458,7.458,0,0,0-2.045-3.517h0c.273,0,1.813.2,2.045-1.173C220.408,132.686,220.435,132.7,220.435,132.727Z" transform="translate(79.351 48.199)" fill="#004798"/><path d="M216.121,130.247a7.539,7.539,0,0,0,2.031,3.517h0c-.273,0-1.8-.191-2.031,1.186h0a7.348,7.348,0,0,0-2.031-3.517h0c.273,0,1.813.191,2.031-1.186C216.094,130.206,216.121,130.22,216.121,130.247Z" transform="translate(77.788 47.298)" fill="#004798"/><path d="M211.825,127.758a7.362,7.362,0,0,0,2.018,3.517h0c-.273,0-1.8-.2-2.018,1.172h0a7.594,7.594,0,0,0-2.045-3.531h0c.273,0,1.813.2,2.045-1.172C211.8,127.717,211.825,127.73,211.825,127.758Z" transform="translate(76.222 46.393)" fill="#004798"/><path d="M207.541,120.277a7.362,7.362,0,0,0,2.018,3.517h0c-.273,0-1.8-.2-2.018,1.172h0a7.348,7.348,0,0,0-2.031-3.517h0c.273,0,1.813.2,2.031-1.173Z" transform="translate(74.671 43.676)" fill="#004798"/><path d="M203.211,117.8a7.43,7.43,0,0,0,2.018,3.517h0c-.273,0-1.8-.191-2.018,1.186h0a7.349,7.349,0,0,0-2.031-3.517h0c.273,0,1.813.191,2.031-1.186C203.184,117.756,203.2,117.77,203.211,117.8Z" transform="translate(73.098 42.775)" fill="#004798"/><path d="M198.905,115.308a7.362,7.362,0,0,0,2.018,3.517h0c-.273,0-1.8-.2-2.018,1.172h0a7.485,7.485,0,0,0-2.045-3.531h0c.286,0,1.813.2,2.045-1.172C198.878,115.267,198.905,115.28,198.905,115.308Z" transform="translate(71.528 41.869)" fill="#004798"/><path d="M194.591,112.814a7.458,7.458,0,0,0,2.031,3.517h0c-.273,0-1.8-.2-2.031,1.186h0A7.348,7.348,0,0,0,192.56,114h0c.273,0,1.813.2,2.031-1.172C194.523,112.786,194.591,112.8,194.591,112.814Z" transform="translate(69.965 40.969)" fill="#004798"/><path d="M190.3,110.337a7.362,7.362,0,0,0,2.018,3.517h0c-.273,0-1.8-.191-2.018,1.186h0a7.594,7.594,0,0,0-2.045-3.531h0c.273,0,1.813.2,2.045-1.172C190.268,110.3,190.3,110.31,190.3,110.337Z" transform="translate(68.399 40.064)" fill="#004798"/><path d="M185.981,107.844a7.457,7.457,0,0,0,2.031,3.517h0c-.273,0-1.8-.2-2.031,1.172h0a7.348,7.348,0,0,0-2.031-3.517h0c.273,0,1.813.2,2.031-1.172C185.954,107.817,185.981,107.831,185.981,107.844Z" transform="translate(66.837 39.162)" fill="#004798"/><path d="M181.685,105.368a7.362,7.362,0,0,0,2.018,3.517h0c-.273,0-1.8-.191-2.018,1.186h0a7.526,7.526,0,0,0-2.045-3.531h0c.273,0,1.813.191,2.045-1.186C181.658,105.327,181.685,105.34,181.685,105.368Z" transform="translate(65.271 38.258)" fill="#004798"/><path d="M177.371,102.877a7.58,7.58,0,0,0,2.018,3.517h0c-.259,0-1.786-.2-2.018,1.172h0a7.348,7.348,0,0,0-2.031-3.517h0c.273,0,1.813.2,2.031-1.172C177.344,102.836,177.371,102.85,177.371,102.877Z" transform="translate(63.709 37.354)" fill="#004798"/><path d="M173.075,100.383a7.5,7.5,0,0,0,2,3.572h0c-.273,0-1.8-.2-2.018,1.186h0a7.348,7.348,0,0,0-2.031-3.517h0c.273,0,1.813.2,2.031-1.172C173.048,100.355,173.061,100.369,173.075,100.383Z" transform="translate(62.143 36.453)" fill="#004798"/><path d="M168.765,97.907a7.362,7.362,0,0,0,2.018,3.517h0c-.273,0-1.8-.191-2.018,1.186h0a7.376,7.376,0,0,0-2.045-3.531h0c.286,0,1.827.2,2.045-1.172C168.738,97.866,168.765,97.88,168.765,97.907Z" transform="translate(60.577 35.548)" fill="#004798"/><path d="M220.435,127.738a7.362,7.362,0,0,0,2.018,3.517h0c-.273,0-1.8-.2-2.018,1.172h0a7.593,7.593,0,0,0-2.045-3.531h0c.273,0,1.813.2,2.045-1.172C220.408,127.7,220.435,127.71,220.435,127.738Z" transform="translate(79.351 46.386)" fill="#004798"/><path d="M216.121,125.244a7.457,7.457,0,0,0,2.031,3.517h0c-.273,0-1.8-.2-2.031,1.172h0a7.348,7.348,0,0,0-2.031-3.517h0c.273,0,1.813.2,2.031-1.173C216.094,125.217,216.121,125.231,216.121,125.244Z" transform="translate(77.788 45.484)" fill="#004798"/><path d="M211.825,122.768a7.361,7.361,0,0,0,2.018,3.517h0c-.273,0-1.8-.191-2.018,1.186h0a7.526,7.526,0,0,0-2.045-3.531h0c.273,0,1.813.2,2.045-1.186C211.8,122.727,211.825,122.74,211.825,122.768Z" transform="translate(76.222 44.58)" fill="#004798"/><path d="M207.541,115.288a7.362,7.362,0,0,0,2.018,3.517h0c-.273,0-1.8-.2-2.018,1.172h0a7.485,7.485,0,0,0-2.031-3.531h0c.273,0,1.813.2,2.031-1.172Z" transform="translate(74.671 41.862)" fill="#004798"/><path d="M203.211,112.794a7.362,7.362,0,0,0,2.018,3.517h0c-.273,0-1.8-.2-2.018,1.172h0a7.349,7.349,0,0,0-2.031-3.517h0c.273,0,1.813.2,2.031-1.172Z" transform="translate(73.098 40.961)" fill="#004798"/><path d="M198.905,110.318a7.362,7.362,0,0,0,2.018,3.517h0c-.273,0-1.8-.191-2.018,1.186h0a7.4,7.4,0,0,0-2.045-3.531h0c.286,0,1.813.2,2.045-1.186C198.878,110.277,198.905,110.29,198.905,110.318Z" transform="translate(71.528 40.056)" fill="#004798"/><path d="M194.591,107.827a7.458,7.458,0,0,0,2.031,3.517h0c-.273,0-1.8-.2-2.031,1.172h0A7.348,7.348,0,0,0,192.56,109h0c.273,0,1.813.2,2.031-1.172C194.523,107.786,194.591,107.8,194.591,107.827Z" transform="translate(69.965 39.152)" fill="#004798"/><path d="M190.3,105.347a7.43,7.43,0,0,0,2.018,3.517h0c-.273,0-1.8-.191-2.018,1.186h0a7.458,7.458,0,0,0-2.045-3.517h0c.273,0,1.813.191,2.045-1.186C190.268,105.306,190.3,105.32,190.3,105.347Z" transform="translate(68.399 38.251)" fill="#004798"/><path d="M185.981,102.858a7.457,7.457,0,0,0,2.031,3.517h0c-.273,0-1.8-.2-2.031,1.172h0a7.485,7.485,0,0,0-2.031-3.531h0c.273,0,1.813.2,2.031-1.172C185.954,102.817,185.981,102.83,185.981,102.858Z" transform="translate(66.837 37.346)" fill="#004798"/><path d="M181.685,100.364a7.362,7.362,0,0,0,2.018,3.517h0c-.273,0-1.8-.2-2.018,1.186h0a7.457,7.457,0,0,0-2.045-3.517h0c.273,0,1.813.2,2.045-1.172C181.658,100.336,181.685,100.35,181.685,100.364Z" transform="translate(65.271 36.445)" fill="#004798"/><path d="M177.371,97.887a7.581,7.581,0,0,0,2.018,3.517h0c-.259,0-1.786-.191-2.018,1.186h0a7.485,7.485,0,0,0-2.031-3.531h0c.273,0,1.813.2,2.031-1.172C177.344,97.846,177.371,97.86,177.371,97.887Z" transform="translate(63.709 35.541)" fill="#004798"/><path d="M173.086,95.393a7.362,7.362,0,0,0,2,3.558h0c-.273,0-1.8-.2-2.018,1.172h0A7.348,7.348,0,0,0,171,96.593h0c.273,0,1.813.2,2.031-1.172C173.059,95.366,173.072,95.38,173.086,95.393Z" transform="translate(62.132 34.639)" fill="#004798"/><path d="M168.765,92.918a7.362,7.362,0,0,0,2.018,3.517h0c-.273,0-1.8-.191-2.018,1.186h0a7.294,7.294,0,0,0-2.045-3.531h0c.286,0,1.827.191,2.045-1.186C168.738,92.877,168.765,92.89,168.765,92.918Z" transform="translate(60.577 33.734)" fill="#004798"/><path d="M220.435,122.748a7.362,7.362,0,0,0,2.018,3.517h0c-.273,0-1.8-.191-2.018,1.186h0a7.526,7.526,0,0,0-2.045-3.531h0c.273,0,1.813.2,2.045-1.186C220.408,122.707,220.435,122.72,220.435,122.748Z" transform="translate(79.351 44.573)" fill="#004798"/><path d="M216.121,120.257a7.457,7.457,0,0,0,2.031,3.517h0c-.273,0-1.8-.2-2.031,1.172h0a7.348,7.348,0,0,0-2.031-3.517h0c.273,0,1.813.2,2.031-1.172C216.094,120.216,216.121,120.23,216.121,120.257Z" transform="translate(77.788 43.669)" fill="#004798"/><path d="M211.825,117.776a7.43,7.43,0,0,0,2.018,3.517h0c-.273,0-1.8-.191-2.018,1.186h0a7.457,7.457,0,0,0-2.045-3.517h0c.273,0,1.813.2,2.045-1.172C211.8,117.735,211.825,117.749,211.825,117.776Z" transform="translate(76.222 42.768)" fill="#004798"/><path d="M207.541,110.3a7.362,7.362,0,0,0,2.018,3.517h0c-.273,0-1.8-.191-2.018,1.186h0a7.416,7.416,0,0,0-2.031-3.531h0c.273,0,1.813.2,2.031-1.186Z" transform="translate(74.671 40.049)" fill="#004798"/><path d="M203.211,107.807a7.362,7.362,0,0,0,2.018,3.517h0c-.273,0-1.8-.2-2.018,1.172h0a7.349,7.349,0,0,0-2.031-3.517h0c.273,0,1.813.2,2.031-1.172C203.184,107.766,203.2,107.78,203.211,107.807Z" transform="translate(73.098 39.145)" fill="#004798"/><path d="M198.905,105.326a7.431,7.431,0,0,0,2.018,3.517h0c-.273,0-1.8-.191-2.018,1.186h0a7.349,7.349,0,0,0-2.045-3.517h0c.286,0,1.813.2,2.045-1.172C198.878,105.285,198.905,105.3,198.905,105.326Z" transform="translate(71.528 38.244)" fill="#004798"/><path d="M194.591,102.838a7.458,7.458,0,0,0,2.031,3.517h0c-.273,0-1.8-.2-2.031,1.172h0A7.485,7.485,0,0,0,192.56,104h0c.273,0,1.813.2,2.031-1.172C194.523,102.8,194.591,102.81,194.591,102.838Z" transform="translate(69.965 37.338)" fill="#004798"/><path d="M190.3,100.344a7.363,7.363,0,0,0,2.018,3.517h0c-.273,0-1.8-.2-2.018,1.172h0a7.458,7.458,0,0,0-2.045-3.517h0c.273,0,1.813.2,2.045-1.172C190.268,100.317,190.3,100.331,190.3,100.344Z" transform="translate(68.399 36.437)" fill="#004798"/><path d="M185.981,97.868a7.457,7.457,0,0,0,2.031,3.517h0c-.273,0-1.8-.191-2.031,1.186h0a7.417,7.417,0,0,0-2.031-3.531h0c.273,0,1.813.2,2.031-1.186C185.954,97.827,185.981,97.84,185.981,97.868Z" transform="translate(66.837 35.533)" fill="#004798"/><path d="M181.685,95.375a7.363,7.363,0,0,0,2.018,3.586h0c-.273,0-1.8-.2-2.018,1.172h0a7.458,7.458,0,0,0-2.045-3.517h0c.273,0,1.813.2,2.045-1.172C181.658,95.334,181.685,95.348,181.685,95.375Z" transform="translate(65.271 34.63)" fill="#004798"/><path d="M177.371,92.9a7.662,7.662,0,0,0,2.018,3.517h0c-.259,0-1.786-.191-2.018,1.186h0a7.348,7.348,0,0,0-2.031-3.517h0c.273,0,1.813.191,2.031-1.186C177.344,92.856,177.371,92.87,177.371,92.9Z" transform="translate(63.709 33.727)" fill="#004798"/><path d="M173.086,90.406a7.362,7.362,0,0,0,2,3.545h0c-.273,0-1.8-.2-2.018,1.172h0A7.485,7.485,0,0,0,171,91.592h0c.273,0,1.813.2,2.031-1.172C173.059,90.365,173.072,90.379,173.086,90.406Z" transform="translate(62.132 32.823)" fill="#004798"/><path d="M168.765,87.914a7.362,7.362,0,0,0,2.018,3.517h0c-.273,0-1.8-.2-2.018,1.186h0A7.24,7.24,0,0,0,166.72,89.1h0c.286,0,1.827.2,2.045-1.172C168.738,87.886,168.765,87.9,168.765,87.914Z" transform="translate(60.577 31.921)" fill="#004798"/><path d="M220.435,117.743a7.5,7.5,0,0,0,2.018,3.531h0c-.273,0-1.8-.2-2.018,1.186h0a7.458,7.458,0,0,0-2.045-3.517h0c.273,0,1.813.2,2.045-1.172C220.408,117.716,220.435,117.73,220.435,117.743Z" transform="translate(79.351 42.76)" fill="#004798"/><path d="M216.121,115.267a7.457,7.457,0,0,0,2.031,3.517h0c-.273,0-1.8-.191-2.031,1.186h0a7.485,7.485,0,0,0-2.031-3.531h0c.273,0,1.813.2,2.031-1.173C216.094,115.226,216.121,115.24,216.121,115.267Z" transform="translate(77.788 41.855)" fill="#004798"/><path d="M211.825,112.774a7.362,7.362,0,0,0,2.018,3.517h0c-.273,0-1.8-.2-2.018,1.172h0a7.457,7.457,0,0,0-2.045-3.517h0c.273,0,1.813.2,2.045-1.172C211.8,112.747,211.825,112.761,211.825,112.774Z" transform="translate(76.222 40.953)" fill="#004798"/><path d="M207.541,105.293a7.5,7.5,0,0,0,2.018,3.531h0c-.273,0-1.8-.2-2.018,1.186h0a7.348,7.348,0,0,0-2.031-3.517h0c.273,0,1.813.2,2.031-1.172Z" transform="translate(74.671 38.237)" fill="#004798"/><path d="M203.211,102.817a7.362,7.362,0,0,0,2.018,3.517h0c-.273,0-1.8-.191-2.018,1.186h0a7.485,7.485,0,0,0-2.031-3.531h0c.273,0,1.813.2,2.031-1.172C203.184,102.776,203.2,102.79,203.211,102.817Z" transform="translate(73.098 37.332)" fill="#004798"/><path d="M198.905,100.324a7.362,7.362,0,0,0,2.018,3.517h0c-.273,0-1.8-.2-2.018,1.172h0a7.349,7.349,0,0,0-2.045-3.517h0c.286,0,1.813.2,2.045-1.172C198.878,100.3,198.905,100.311,198.905,100.324Z" transform="translate(71.528 36.43)" fill="#004798"/><path d="M194.591,97.848a7.458,7.458,0,0,0,2.031,3.517h0c-.273,0-1.8-.191-2.031,1.186h0a7.417,7.417,0,0,0-2.031-3.531h0c.273,0,1.813.2,2.031-1.186C194.523,97.807,194.591,97.82,194.591,97.848Z" transform="translate(69.965 35.525)" fill="#004798"/><path d="M190.3,95.357a7.362,7.362,0,0,0,2.018,3.517h0c-.273,0-1.8-.2-2.018,1.172h0a7.458,7.458,0,0,0-2.045-3.517h0c.273,0,1.813.2,2.045-1.172C190.268,95.316,190.3,95.33,190.3,95.357Z" transform="translate(68.399 34.621)" fill="#004798"/><path d="M185.981,92.876a7.539,7.539,0,0,0,2.031,3.517h0c-.273,0-1.8-.191-2.031,1.186h0a7.348,7.348,0,0,0-2.031-3.517h0c.273,0,1.813.2,2.031-1.172C185.954,92.835,185.981,92.849,185.981,92.876Z" transform="translate(66.837 33.721)" fill="#004798"/><path d="M181.685,90.386a7.363,7.363,0,0,0,2.018,3.572h0c-.273,0-1.8-.2-2.018,1.172h0A7.594,7.594,0,0,0,179.64,91.6h0c.273,0,1.813.2,2.045-1.172C181.658,90.345,181.685,90.358,181.685,90.386Z" transform="translate(65.271 32.817)" fill="#004798"/><path d="M177.371,87.894a7.58,7.58,0,0,0,2.018,3.517h0c-.259,0-1.786-.2-2.018,1.172h0a7.348,7.348,0,0,0-2.031-3.517h0c.273,0,1.813.2,2.031-1.172C177.344,87.867,177.371,87.881,177.371,87.894Z" transform="translate(63.709 31.913)" fill="#004798"/><path d="M173.086,85.417a7.362,7.362,0,0,0,2,3.531h0c-.273,0-1.8-.191-2.018,1.186h0A7.417,7.417,0,0,0,171,86.6h0c.273,0,1.813.2,2.031-1.186C173.059,85.376,173.072,85.39,173.086,85.417Z" transform="translate(62.132 31.01)" fill="#004798"/><path d="M168.765,82.927a7.362,7.362,0,0,0,2.018,3.517h0c-.273,0-1.8-.2-2.018,1.172h0A7.239,7.239,0,0,0,166.72,84.1h0c.286,0,1.827.2,2.045-1.172C168.738,82.886,168.765,82.9,168.765,82.927Z" transform="translate(60.577 30.105)" fill="#004798"/><path d="M220.435,112.754a7.362,7.362,0,0,0,2.018,3.517h0c-.273,0-1.8-.2-2.018,1.173h0a7.458,7.458,0,0,0-2.045-3.517h0c.273,0,1.813.2,2.045-1.172C220.408,112.727,220.435,112.741,220.435,112.754Z" transform="translate(79.351 40.946)" fill="#004798"/><path d="M216.121,110.277a7.457,7.457,0,0,0,2.031,3.517h0c-.273,0-1.8-.191-2.031,1.186h0a7.348,7.348,0,0,0-2.031-3.517h0c.273,0,1.813.191,2.031-1.186C216.094,110.236,216.121,110.25,216.121,110.277Z" transform="translate(77.788 40.042)" fill="#004798"/><path d="M211.825,107.787a7.361,7.361,0,0,0,2.018,3.517h0c-.273,0-1.8-.2-2.018,1.172h0a7.458,7.458,0,0,0-2.045-3.517h0c.273,0,1.813.2,2.045-1.172C211.8,107.746,211.825,107.76,211.825,107.787Z" transform="translate(76.222 39.138)" fill="#004798"/><path d="M207.541,100.3a7.362,7.362,0,0,0,2.018,3.517h0c-.273,0-1.8-.2-2.018,1.172h0a7.348,7.348,0,0,0-2.031-3.517h0c.273,0,1.813.2,2.031-1.172Z" transform="translate(74.671 36.423)" fill="#004798"/><path d="M203.211,97.827a7.362,7.362,0,0,0,2.018,3.517h0c-.273,0-1.8-.191-2.018,1.186h0a7.349,7.349,0,0,0-2.031-3.517h0c.273,0,1.813.191,2.031-1.186C203.184,97.786,203.2,97.8,203.211,97.827Z" transform="translate(73.098 35.519)" fill="#004798"/><path d="M198.905,95.337a7.362,7.362,0,0,0,2.018,3.517h0c-.273,0-1.8-.2-2.018,1.172h0a7.349,7.349,0,0,0-2.045-3.517h0c.286,0,1.813.2,2.045-1.172C198.878,95.3,198.905,95.31,198.905,95.337Z" transform="translate(71.528 34.614)" fill="#004798"/><path d="M194.591,92.843a7.608,7.608,0,0,0,2.031,3.531h0c-.273,0-1.8-.2-2.031,1.186h0a7.348,7.348,0,0,0-2.031-3.517h0c.273,0,1.813.2,2.031-1.172C194.523,92.816,194.591,92.83,194.591,92.843Z" transform="translate(69.965 33.713)" fill="#004798"/><path d="M190.3,90.367a7.362,7.362,0,0,0,2.018,3.517h0c-.273,0-1.8-.191-2.018,1.186h0a7.594,7.594,0,0,0-2.045-3.531h0c.273,0,1.813.2,2.045-1.172C190.268,90.326,190.3,90.34,190.3,90.367Z" transform="translate(68.399 32.808)" fill="#004798"/><path d="M185.981,87.874a7.457,7.457,0,0,0,2.031,3.517h0c-.273,0-1.8-.2-2.031,1.172h0a7.348,7.348,0,0,0-2.031-3.517h0c.273,0,1.813.2,2.031-1.172C185.954,87.847,185.981,87.861,185.981,87.874Z" transform="translate(66.837 31.906)" fill="#004798"/><path d="M181.685,85.4a7.363,7.363,0,0,0,2.018,3.558h0c-.273,0-1.8-.191-2.018,1.186h0a7.526,7.526,0,0,0-2.045-3.531h0c.273,0,1.813.2,2.045-1.186C181.658,85.355,181.685,85.369,181.685,85.4Z" transform="translate(65.271 31.003)" fill="#004798"/><path d="M177.371,82.907a7.58,7.58,0,0,0,2.018,3.517h0c-.259,0-1.786-.2-2.018,1.172h0a7.348,7.348,0,0,0-2.031-3.517h0c.273,0,1.813.2,2.031-1.172C177.344,82.866,177.371,82.88,177.371,82.907Z" transform="translate(63.709 30.098)" fill="#004798"/><path d="M173.086,80.426a7.43,7.43,0,0,0,2,3.517h0c-.273,0-1.8-.191-2.018,1.186h0A7.348,7.348,0,0,0,171,81.612h0c.273,0,1.813.2,2.031-1.172C173.059,80.385,173.072,80.4,173.086,80.426Z" transform="translate(62.132 29.197)" fill="#004798"/><path d="M168.765,77.938a7.362,7.362,0,0,0,2.018,3.517h0c-.273,0-1.8-.2-2.018,1.172h0A7.376,7.376,0,0,0,166.72,79.1h0c.286,0,1.827.2,2.045-1.172C168.738,77.9,168.765,77.91,168.765,77.938Z" transform="translate(60.577 28.291)" fill="#004798"/><path d="M164.461,105.406a7.362,7.362,0,0,0,2.018,3.545h0c-.273,0-1.8-.191-2.018,1.186h0a7.485,7.485,0,0,0-2.031-3.531h0c.273,0,1.813.2,2.031-1.172C164.434,105.365,164.448,105.379,164.461,105.406Z" transform="translate(59.018 38.274)" fill="#004798"/><path d="M160.155,102.916a7.362,7.362,0,0,0,2.018,3.517h0c-.273,0-1.8-.2-2.018,1.172h0a7.458,7.458,0,0,0-2.045-3.517h0c.273,0,1.813.2,2.045-1.172C160.128,102.875,160.155,102.9,160.155,102.916Z" transform="translate(57.448 37.369)" fill="#004798"/><path d="M155.841,100.437a7.457,7.457,0,0,0,2.031,3.517h0c-.273,0-1.8-.191-2.031,1.186h0a7.349,7.349,0,0,0-2.031-3.517h0c.273,0,1.813.191,2.031-1.186C155.814,100.4,155.841,100.41,155.841,100.437Z" transform="translate(55.886 36.467)" fill="#004798"/><path d="M151.545,97.947a7.362,7.362,0,0,0,2.018,3.517h0c-.273,0-1.8-.2-2.018,1.172h0a7.457,7.457,0,0,0-2.045-3.517h0c.273,0,1.813.2,2.045-1.172Z" transform="translate(54.32 35.562)" fill="#004798"/><path d="M164.461,100.416a7.43,7.43,0,0,0,2.018,3.531h0c-.273,0-1.8-.191-2.018,1.186h0a7.348,7.348,0,0,0-2.031-3.517h0c.273,0,1.813.2,2.031-1.172C164.434,100.375,164.448,100.389,164.461,100.416Z" transform="translate(59.018 36.461)" fill="#004798"/><path d="M160.155,97.928a7.362,7.362,0,0,0,2.018,3.517h0c-.273,0-1.8-.2-2.018,1.172h0a7.594,7.594,0,0,0-2.045-3.531h0c.273,0,1.813.2,2.045-1.172C160.128,97.887,160.155,97.9,160.155,97.928Z" transform="translate(57.448 35.554)" fill="#004798"/><path d="M155.841,95.434a7.457,7.457,0,0,0,2.031,3.5h0c-.273,0-1.8-.2-2.031,1.186h0a7.349,7.349,0,0,0-2.031-3.517h0c.273,0,1.813.2,2.031-1.172C155.814,95.407,155.841,95.421,155.841,95.434Z" transform="translate(55.886 34.653)" fill="#004798"/><path d="M151.545,93.02a7.362,7.362,0,0,0,2.018,3.517h0c-.273,0-1.8-.191-2.018,1.186h0a7.594,7.594,0,0,0-2.045-3.531h0c.273,0,1.813.2,2.045-1.172Z" transform="translate(54.32 33.754)" fill="#004798"/><path d="M164.461,95.414a7.363,7.363,0,0,0,2.018,3.531h0c-.273,0-1.8-.2-2.018,1.172h0A7.348,7.348,0,0,0,162.43,96.6h0c.273,0,1.813.2,2.031-1.172C164.434,95.386,164.448,95.4,164.461,95.414Z" transform="translate(59.018 34.646)" fill="#004798"/><path d="M160.155,92.938a7.362,7.362,0,0,0,2.018,3.517h0c-.273,0-1.8-.191-2.018,1.186h0a7.526,7.526,0,0,0-2.045-3.531h0c.273,0,1.813.2,2.045-1.186C160.128,92.9,160.155,92.91,160.155,92.938Z" transform="translate(57.448 33.741)" fill="#004798"/><path d="M155.841,90.449a7.458,7.458,0,0,0,2.031,3.49h0c-.273,0-1.8-.2-2.031,1.172h0a7.349,7.349,0,0,0-2.031-3.517h0c.273,0,1.813.2,2.031-1.172C155.814,90.408,155.841,90.421,155.841,90.449Z" transform="translate(55.886 32.835)" fill="#004798"/><path d="M151.545,88.017a7.43,7.43,0,0,0,2.018,3.517h0c-.273,0-1.8-.191-2.018,1.186h0A7.457,7.457,0,0,0,149.5,89.2h0c.273,0,1.813.2,2.045-1.172Z" transform="translate(54.32 31.94)" fill="#004798"/><path d="M164.461,90.427a7.362,7.362,0,0,0,2.018,3.517h0c-.273,0-1.8-.2-2.018,1.172h0A7.348,7.348,0,0,0,162.43,91.6h0c.273,0,1.813.2,2.031-1.172C164.434,90.386,164.448,90.4,164.461,90.427Z" transform="translate(59.018 32.83)" fill="#004798"/><path d="M160.155,87.933a7.5,7.5,0,0,0,2.018,3.531h0c-.273,0-1.8-.2-2.018,1.186h0a7.458,7.458,0,0,0-2.045-3.517h0c.273,0,1.813.2,2.045-1.172C160.128,87.906,160.155,87.92,160.155,87.933Z" transform="translate(57.448 31.929)" fill="#004798"/><path d="M155.841,85.461a7.457,7.457,0,0,0,2.031,3.477h0c-.273,0-1.8-.191-2.031,1.186h0a7.485,7.485,0,0,0-2.031-3.531h0c.273,0,1.813.2,2.031-1.172C155.814,85.42,155.841,85.434,155.841,85.461Z" transform="translate(55.886 31.02)" fill="#004798"/><path d="M151.545,83.01a7.362,7.362,0,0,0,2.018,3.517h0c-.273,0-1.8-.2-2.018,1.172h0a7.458,7.458,0,0,0-2.045-3.517h0c.273,0,1.813.2,2.045-1.172Z" transform="translate(54.32 30.131)" fill="#004798"/><path d="M164.461,85.438a7.362,7.362,0,0,0,2.018,3.5h0c-.273,0-1.8-.191-2.018,1.186h0A7.485,7.485,0,0,0,162.43,86.6h0c.273,0,1.813.2,2.031-1.172C164.434,85.4,164.448,85.41,164.461,85.438Z" transform="translate(59.018 31.016)" fill="#004798"/><path d="M160.155,82.944a7.362,7.362,0,0,0,2.018,3.517h0c-.273,0-1.8-.2-2.018,1.172h0a7.458,7.458,0,0,0-2.045-3.517h0c.273,0,1.813.2,2.045-1.172C160.128,82.917,160.155,82.931,160.155,82.944Z" transform="translate(57.448 30.115)" fill="#004798"/><path d="M155.841,80.478a7.458,7.458,0,0,0,2.031,3.463h0c-.273,0-1.8-.191-2.031,1.186h0A7.417,7.417,0,0,0,153.81,81.6h0c.273,0,1.813.191,2.031-1.186C155.814,80.437,155.841,80.451,155.841,80.478Z" transform="translate(55.886 29.2)" fill="#004798"/><path d="M151.545,78.01a7.362,7.362,0,0,0,2.018,3.517h0c-.273,0-1.8-.2-2.018,1.172h0a7.457,7.457,0,0,0-2.045-3.517h0c.273,0,1.813.2,2.045-1.172Z" transform="translate(54.32 28.314)" fill="#004798"/><path d="M164.461,80.449a7.431,7.431,0,0,0,2.018,3.49h0c-.273,0-1.8-.191-2.018,1.186h0a7.348,7.348,0,0,0-2.031-3.517h0c.273,0,1.813.191,2.031-1.186C164.434,80.408,164.448,80.421,164.461,80.449Z" transform="translate(59.018 29.202)" fill="#004798"/><path d="M160.155,78.021a7.362,7.362,0,0,0,2.018,3.517h0c-.273,0-1.8-.2-2.018,1.173h0a7.594,7.594,0,0,0-2.045-3.531h0c.273,0,1.813.2,2.045-1.172C160.128,77.912,160.155,77.926,160.155,78.021Z" transform="translate(57.448 28.303)" fill="#004798"/><path d="M155.841,75.471a7.457,7.457,0,0,0,2.031,3.463h0c-.273,0-1.8-.2-2.031,1.186h0A7.349,7.349,0,0,0,153.81,76.6h0c.273,0,1.813.2,2.031-1.172C155.814,75.444,155.841,75.457,155.841,75.471Z" transform="translate(55.886 27.39)" fill="#004798"/><path d="M151.545,73a7.362,7.362,0,0,0,2.018,3.517h0c-.273,0-1.8-.191-2.018,1.186h0a7.594,7.594,0,0,0-2.045-3.531h0c.273,0,1.813.2,2.045-1.172Z" transform="translate(54.32 26.507)" fill="#004798"/><path d="M164.461,75.447a7.362,7.362,0,0,0,2.018,3.49h0c-.273,0-1.8-.2-2.018,1.172h0a7.348,7.348,0,0,0-2.031-3.517h0c.273,0,1.813.2,2.031-1.172C164.434,75.42,164.448,75.434,164.461,75.447Z" transform="translate(59.018 27.387)" fill="#004798"/><path d="M160.155,73.018a7.362,7.362,0,0,0,2.018,3.517h0c-.273,0-1.8-.191-2.018,1.186h0a7.526,7.526,0,0,0-2.045-3.531h0c.273,0,1.813.2,2.045-1.186C160.128,72.923,160.155,72.937,160.155,73.018Z" transform="translate(57.448 26.489)" fill="#004798"/><path d="M155.841,70.477a7.457,7.457,0,0,0,2.031,3.517h0c-.273,0-1.8-.2-2.031,1.172h0a7.349,7.349,0,0,0-2.031-3.517h0c.273,0,1.813.2,2.031-1.172C155.814,70.436,155.841,70.45,155.841,70.477Z" transform="translate(55.886 25.581)" fill="#004798"/><path d="M151.545,68a7.43,7.43,0,0,0,2.018,3.517h0c-.273,0-1.8-.191-2.018,1.186h0a7.457,7.457,0,0,0-2.045-3.517h0c.273,0,1.813.191,2.045-1.186Z" transform="translate(54.32 24.691)" fill="#004798"/><path d="M220.435,107.768a7.362,7.362,0,0,0,2.018,3.517h0c-.273,0-1.8-.2-2.018,1.172h0a7.594,7.594,0,0,0-2.045-3.531h0c.273,0,1.813.2,2.045-1.172C220.408,107.727,220.435,107.74,220.435,107.768Z" transform="translate(79.351 39.13)" fill="#004798"/><path d="M216.121,105.274a7.457,7.457,0,0,0,2.031,3.517h0c-.273,0-1.8-.2-2.031,1.186h0a7.348,7.348,0,0,0-2.031-3.517h0c.273,0,1.813.2,2.031-1.172C216.094,105.246,216.121,105.26,216.121,105.274Z" transform="translate(77.788 38.229)" fill="#004798"/><path d="M211.825,102.8a7.362,7.362,0,0,0,2.018,3.517h0c-.273,0-1.8-.191-2.018,1.186h0a7.594,7.594,0,0,0-2.045-3.531h0c.273,0,1.813.2,2.045-1.172C211.8,102.756,211.825,102.77,211.825,102.8Z" transform="translate(76.222 37.325)" fill="#004798"/><path d="M89.151,125.754a7.362,7.362,0,0,0,2.018,3.517h0c-.273,0-1.8-.2-2.018,1.172h0a7.349,7.349,0,0,0-2.031-3.517h0c.273,0,1.813.2,2.031-1.173Z" transform="translate(31.655 45.67)" fill="#004798"/><path d="M89.151,120.767a7.362,7.362,0,0,0,2.018,3.517h0c-.273,0-1.8-.2-2.018,1.172h0a7.349,7.349,0,0,0-2.031-3.517h0c.273,0,1.813.2,2.031-1.172C89.124,120.726,89.138,120.74,89.151,120.767Z" transform="translate(31.655 43.854)" fill="#004798"/><path d="M89.151,115.777a7.362,7.362,0,0,0,2.018,3.517h0c-.273,0-1.8-.191-2.018,1.186h0a7.485,7.485,0,0,0-2.031-3.531h0c.273,0,1.813.2,2.031-1.172C89.124,115.736,89.138,115.75,89.151,115.777Z" transform="translate(31.655 42.041)" fill="#004798"/><path d="M89.151,110.787a7.43,7.43,0,0,0,2.018,3.517h0c-.273,0-1.8-.191-2.018,1.186h0a7.348,7.348,0,0,0-2.031-3.517h0c.273,0,1.813.191,2.031-1.186C89.124,110.746,89.138,110.76,89.151,110.787Z" transform="translate(31.655 40.228)" fill="#004798"/><path d="M89.151,105.784a7.362,7.362,0,0,0,2.018,3.517h0c-.273,0-1.8-.2-2.018,1.186h0a7.349,7.349,0,0,0-2.031-3.517h0c.273,0,1.813.2,2.031-1.172C89.124,105.756,89.138,105.77,89.151,105.784Z" transform="translate(31.655 38.414)" fill="#004798"/><path d="M84.845,123.278a7.362,7.362,0,0,0,2.018,3.517h0c-.273,0-1.8-.191-2.018,1.186h0A7.4,7.4,0,0,0,82.8,124.45h0c.286,0,1.813.2,2.045-1.186C84.818,123.237,84.845,123.25,84.845,123.278Z" transform="translate(30.085 44.765)" fill="#004798"/><path d="M80.541,120.787a7.362,7.362,0,0,0,2.018,3.517h0c-.273,0-1.8-.2-2.018,1.172h0a7.349,7.349,0,0,0-2.031-3.517h0c.273,0,1.813.2,2.031-1.172Z" transform="translate(28.526 43.861)" fill="#004798"/><path d="M76.235,118.307a7.43,7.43,0,0,0,2.018,3.517h0c-.273,0-1.8-.191-2.018,1.186h0a7.457,7.457,0,0,0-2.045-3.517h0c.273,0,1.813.191,2.045-1.186C76.208,118.266,76.235,118.28,76.235,118.307Z" transform="translate(26.956 42.96)" fill="#004798"/><path d="M71.921,115.818a7.458,7.458,0,0,0,2.031,3.517h0c-.273,0-1.8-.2-2.031,1.172h0a7.485,7.485,0,0,0-2.031-3.531h0c.273,0,1.813.2,2.031-1.172C71.894,115.777,71.921,115.79,71.921,115.818Z" transform="translate(25.394 42.055)" fill="#004798"/><path d="M84.845,118.286a7.512,7.512,0,0,0,2.018,3.517h0c-.273,0-1.8-.191-2.018,1.186h0a7.349,7.349,0,0,0-2.045-3.517h0c.286,0,1.813.2,2.045-1.172C84.818,118.245,84.845,118.259,84.845,118.286Z" transform="translate(30.085 42.953)" fill="#004798"/><path d="M80.541,115.8a7.362,7.362,0,0,0,2.018,3.517h0c-.273,0-1.8-.2-2.018,1.172h0a7.485,7.485,0,0,0-2.031-3.531h0c.273,0,1.813.2,2.031-1.173Z" transform="translate(28.526 42.047)" fill="#004798"/><path d="M76.235,113.3a7.362,7.362,0,0,0,2.018,3.517h0c-.273,0-1.8-.2-2.018,1.172h0a7.457,7.457,0,0,0-2.045-3.517h0c.273,0,1.813.2,2.045-1.172C76.208,113.277,76.235,113.291,76.235,113.3Z" transform="translate(26.956 41.146)" fill="#004798"/><path d="M71.921,110.828a7.457,7.457,0,0,0,2.031,3.517h0c-.273,0-1.8-.191-2.031,1.186h0A7.417,7.417,0,0,0,69.89,112h0c.273,0,1.813.2,2.031-1.186C71.894,110.787,71.921,110.8,71.921,110.828Z" transform="translate(25.394 40.242)" fill="#004798"/><path d="M84.845,113.284a7.362,7.362,0,0,0,2.018,3.517h0c-.273,0-1.8-.2-2.018,1.172h0a7.349,7.349,0,0,0-2.045-3.517h0c.286,0,1.813.2,2.045-1.172C84.818,113.257,84.845,113.271,84.845,113.284Z" transform="translate(30.085 41.139)" fill="#004798"/><path d="M80.541,110.808a7.362,7.362,0,0,0,2.018,3.517h0c-.273,0-1.8-.191-2.018,1.186h0a7.417,7.417,0,0,0-2.031-3.531h0c.273,0,1.813.2,2.031-1.186Z" transform="translate(28.526 40.234)" fill="#004798"/><path d="M76.235,108.317a7.362,7.362,0,0,0,2.018,3.517h0c-.273,0-1.8-.2-2.018,1.172h0a7.458,7.458,0,0,0-2.045-3.517h0c.273,0,1.813.2,2.045-1.172C76.208,108.276,76.235,108.29,76.235,108.317Z" transform="translate(26.956 39.33)" fill="#004798"/><path d="M71.921,105.836a7.621,7.621,0,0,0,2.031,3.517h0c-.273,0-1.8-.191-2.031,1.186h0a7.349,7.349,0,0,0-2.031-3.517h0c.273,0,1.813.2,2.031-1.172C71.894,105.8,71.921,105.809,71.921,105.836Z" transform="translate(25.394 38.43)" fill="#004798"/><path d="M84.845,108.3a7.362,7.362,0,0,0,2.018,3.517h0c-.273,0-1.8-.2-2.018,1.172h0a7.485,7.485,0,0,0-2.045-3.531h0c.286,0,1.813.2,2.045-1.172C84.818,108.257,84.845,108.27,84.845,108.3Z" transform="translate(30.085 39.322)" fill="#004798"/><path d="M80.541,105.8a7.362,7.362,0,0,0,2.018,3.517h0c-.273,0-1.8-.2-2.018,1.186h0a7.348,7.348,0,0,0-2.031-3.517h0c.273,0,1.813.2,2.031-1.173Z" transform="translate(28.526 38.422)" fill="#004798"/><path d="M76.235,103.327a7.362,7.362,0,0,0,2.018,3.517h0c-.273,0-1.8-.191-2.018,1.186h0A7.594,7.594,0,0,0,74.19,104.5h0c.273,0,1.813.2,2.045-1.172C76.208,103.286,76.235,103.3,76.235,103.327Z" transform="translate(26.956 37.517)" fill="#004798"/><path d="M71.921,100.834a7.457,7.457,0,0,0,2.031,3.517h0c-.273,0-1.8-.2-2.031,1.172h0a7.349,7.349,0,0,0-2.031-3.517h0c.273,0,1.813.2,2.031-1.172C71.894,100.807,71.921,100.821,71.921,100.834Z" transform="translate(25.394 36.615)" fill="#004798"/><path d="M84.845,103.308a7.362,7.362,0,0,0,2.018,3.517h0c-.273,0-1.8-.191-2.018,1.186h0A7.4,7.4,0,0,0,82.8,104.48h0c.286,0,1.813.2,2.045-1.186C84.818,103.267,84.845,103.28,84.845,103.308Z" transform="translate(30.085 37.509)" fill="#004798"/><path d="M80.541,100.816a7.362,7.362,0,0,0,2.018,3.517h0c-.273,0-1.8-.2-2.018,1.172h0a7.348,7.348,0,0,0-2.031-3.517h0c.273,0,1.813.2,2.031-1.172Z" transform="translate(28.526 36.606)" fill="#004798"/><path d="M76.235,98.337a7.43,7.43,0,0,0,2.018,3.517h0c-.273,0-1.8-.191-2.018,1.186h0a7.458,7.458,0,0,0-2.045-3.517h0c.273,0,1.813.191,2.045-1.186C76.208,98.3,76.235,98.31,76.235,98.337Z" transform="translate(26.956 35.704)" fill="#004798"/><path d="M71.921,95.848a7.457,7.457,0,0,0,2.031,3.517h0c-.273,0-1.8-.2-2.031,1.172h0a7.485,7.485,0,0,0-2.031-3.531h0c.273,0,1.813.2,2.031-1.172C71.894,95.807,71.921,95.82,71.921,95.848Z" transform="translate(25.394 34.799)" fill="#004798"/><path d="M50.739,94h-28a.573.573,0,0,0-.586.573v41.882h0a3.34,3.34,0,0,0,1.909,2.44l8.425,4.867a8.807,8.807,0,0,0,7.894.327l9.543-5.453a2.29,2.29,0,0,0,1.363-2.113h0v-41.9A.573.573,0,0,0,50.739,94Z" transform="translate(8.048 34.138)" fill="#8f00fc"/><path d="M37.175,145.992a9.939,9.939,0,0,1-4.881-1.227L23.855,139.9a4.758,4.758,0,0,1-2.168-2.331H21.51V94.853a1.431,1.431,0,0,1,1.445-1.363h28A1.443,1.443,0,0,1,52.4,94.935v42.782h-.1a3.476,3.476,0,0,1-1.677,2l-9.543,5.522A8,8,0,0,1,37.175,145.992Zm-13.947-9.421h0a2.563,2.563,0,0,0,1.486,1.759l8.466,4.935a7.962,7.962,0,0,0,7.021.327l9.543-5.453a1.541,1.541,0,0,0,.913-1.363v-.927h0V95.1H23.228Z" transform="translate(7.816 33.952)" fill="#004798"/><path d="M46.554,94.06H33.67v50.853a6.639,6.639,0,0,0,2.549-.736l9.543-5.522a2.29,2.29,0,0,0,1.363-2.113h0V94.633a.573.573,0,0,0-.573-.573Z" transform="translate(12.234 34.159)" fill="#004798"/><path d="M49.958,98.427l-9.543,5.453a8.753,8.753,0,0,1-7.894-.327l-8.425-4.867c-2.331-1.363-2.59-3.381-.573-4.554l9.543-5.453a8.725,8.725,0,0,1,7.88.327l8.439,4.867C51.73,95.223,51.934,97.255,49.958,98.427Z" transform="translate(8.053 31.919)" fill="#fff"/><path d="M37.171,105.8a9.939,9.939,0,0,1-4.881-1.227L23.851,99.7a4.09,4.09,0,0,1-2.331-3.286,3.177,3.177,0,0,1,1.8-2.727l9.543-5.453a9.625,9.625,0,0,1,8.753.327l8.425,4.867a4.09,4.09,0,0,1,2.372,3.327,3.177,3.177,0,0,1-1.8,2.727L41.07,104.94A8,8,0,0,1,37.171,105.8Zm-.477-16.837a6.067,6.067,0,0,0-2.972.668l-9.543,5.453a1.581,1.581,0,0,0-.927,1.227c0,.6.559,1.282,1.5,1.827L33.177,103a7.962,7.962,0,0,0,7.021.327l9.543-5.522a1.581,1.581,0,0,0,.927-1.227c0-.6-.559-1.282-1.5-1.827l-8.425-4.867a8.439,8.439,0,0,0-4.022-.927Z" transform="translate(7.819 31.719)" fill="#004798"/><rect width="1.731" height="42.414" transform="translate(40.6 135.991)" fill="#004798"/><rect width="1.322" height="37.737" transform="translate(55.42 133.659)" fill="#8f00fc"/><path d="M37.849,124.78H9.833a.573.573,0,0,0-.573.573v12.625h0a3.286,3.286,0,0,0,1.909,2.44l8.425,4.867a8.753,8.753,0,0,0,7.894.327l9.543-5.453a2.29,2.29,0,0,0,1.363-2.113h0V125.38a.573.573,0,0,0-.545-.6Z" transform="translate(3.365 45.321)" fill="#8f00fc"/><path d="M24.3,147.548a9.912,9.912,0,0,1-4.881-1.241l-8.439-4.867a4.676,4.676,0,0,1-2.168-2.318H8.64v-13.5A1.445,1.445,0,0,1,10,124.18H38.02a1.445,1.445,0,0,1,1.023.423,1.363,1.363,0,0,1,.423,1.022v13.538h-.109a3.408,3.408,0,0,1-1.6,1.95l-9.543,5.522a7.771,7.771,0,0,1-3.913.913Zm-13.947-9.421v.068a2.59,2.59,0,0,0,1.5,1.745l8.439,4.881a8.044,8.044,0,0,0,7.021.327l9.543-5.535a1.5,1.5,0,0,0,.927-1.3l-.068-.927h.041v-11.52H10.331Z" transform="translate(3.139 45.103)" fill="#004798"/><path d="M33.667,124.8H20.77v21.6a6.407,6.407,0,0,0,2.563-.736l9.543-5.522a2.29,2.29,0,0,0,1.363-2.113h0V125.359a.573.573,0,0,0-.573-.559Z" transform="translate(7.547 45.329)" fill="#004798"/><path d="M37.068,129.177l-9.543,5.453a8.848,8.848,0,0,1-7.894-.327L11.2,129.436c-2.331-1.363-2.59-3.395-.573-4.554l9.543-5.453a8.725,8.725,0,0,1,7.88.327l8.453,4.826C38.894,125.946,39.085,128,37.068,129.177Z" transform="translate(3.369 43.092)" fill="#fff"/><path d="M24.308,136.562a9.912,9.912,0,0,1-4.881-1.241l-8.439-4.867a4.09,4.09,0,0,1-2.359-3.313,3.177,3.177,0,0,1,1.8-2.727l9.543-5.453a9.543,9.543,0,0,1,8.753.327l8.425,4.867a4.09,4.09,0,0,1,2.372,3.327,3.218,3.218,0,0,1-1.8,2.727l-9.543,5.453a7.771,7.771,0,0,1-3.872.9Zm-.477-16.851a6,6,0,0,0-2.986.682L11.3,125.846a1.554,1.554,0,0,0-.927,1.227c0,.6.559,1.282,1.5,1.827l8.425,4.867a7.962,7.962,0,0,0,7.021.327l9.543-5.522a1.581,1.581,0,0,0,.941-1.227,2.373,2.373,0,0,0-1.5-1.827l-8.439-4.813a8.18,8.18,0,0,0-4.035-1Z" transform="translate(3.136 42.878)" fill="#004798"/><rect width="1.731" height="13.17" transform="translate(23.027 177.9)" fill="#004798"/><rect width="1.322" height="8.494" transform="translate(37.846 175.582)" fill="#8f00fc"/><path d="M97.139,228.912H69.123a.573.573,0,0,0-.573.573v24.54h0a3.286,3.286,0,0,0,1.909,2.44l8.425,4.867a8.753,8.753,0,0,0,7.894.327L96.43,256.3a2.291,2.291,0,0,0,1.363-2.113h0v-24.7a.573.573,0,0,0-.654-.573Z" transform="translate(24.907 83.155)" fill="#8f00fc"/><path d="M83.595,263.624a9.938,9.938,0,0,1-4.881-1.227l-8.439-4.867a4.758,4.758,0,0,1-2.168-2.372H67.93V229.745a1.445,1.445,0,0,1,1.363-1.445H97.31a1.609,1.609,0,0,1,1.023.423,1.445,1.445,0,0,1,.423,1.023v25.413H98.7a3.436,3.436,0,0,1-1.677,2l-9.543,5.522A7.907,7.907,0,0,1,83.595,263.624Zm-13.947-9.407h0a2.563,2.563,0,0,0,1.486,1.759l8.425,4.867a7.962,7.962,0,0,0,7.021.327l9.543-5.453a1.513,1.513,0,0,0,.927-1.363v-.927h0V229.991H69.621Z" transform="translate(24.682 82.935)" fill="#004798"/><path d="M92.957,228.932H80.06V262.5a6.407,6.407,0,0,0,2.563-.736l9.625-5.467a2.291,2.291,0,0,0,1.363-2.113h0V229.5a.573.573,0,0,0-.654-.573Z" transform="translate(29.089 83.162)" fill="#004798"/><path d="M96.418,233.279l-9.543,5.453a8.793,8.793,0,0,1-7.894-.327l-8.466-4.8c-2.331-1.363-2.59-3.395-.573-4.554l9.543-5.453a8.725,8.725,0,0,1,7.88.327l8.439,4.867C98.123,230.075,98.368,232.107,96.418,233.279Z" transform="translate(24.919 80.941)" fill="#fff"/><path d="M83.6,240.7a9.939,9.939,0,0,1-4.881-1.227l-8.439-4.867a4.09,4.09,0,0,1-2.359-3.327,3.177,3.177,0,0,1,1.8-2.727l9.543-5.522a9.543,9.543,0,0,1,8.753.327l8.425,4.867a4.09,4.09,0,0,1,2.386,3.272,3.177,3.177,0,0,1-1.8,2.727l-9.543,5.522A7.907,7.907,0,0,1,83.6,240.7Zm-.477-16.837a6.149,6.149,0,0,0-2.986.668l-9.543,5.522a1.582,1.582,0,0,0-.927,1.227c0,.6.559,1.282,1.5,1.827l8.425,4.867a7.962,7.962,0,0,0,7.021.327l9.543-5.522a1.568,1.568,0,0,0,.941-1.227c0-.6-.559-1.3-1.5-1.827l-8.48-4.867A8.289,8.289,0,0,0,83.121,223.863Z" transform="translate(24.678 80.691)" fill="#004798"/><rect width="1.731" height="25.126" transform="translate(103.86 319.865)" fill="#004798"/><rect width="1.322" height="20.45" transform="translate(118.679 317.533)" fill="#8f00fc"/><path d="M83.319,246.79H55.3a.573.573,0,0,0-.573.573v8.644h0a3.34,3.34,0,0,0,1.922,2.44l8.425,4.867a8.753,8.753,0,0,0,7.894.327l9.543-5.522a2.29,2.29,0,0,0,1.363-2.113h0v-8.684a.573.573,0,0,0-.559-.532Z" transform="translate(19.886 89.653)" fill="#8f00fc"/><path d="M69.775,265.57a10.007,10.007,0,0,1-4.894-1.241l-8.425-4.867a4.677,4.677,0,0,1-2.168-2.318H54.11V247.6a1.363,1.363,0,0,1,1.363-1.432H83.491a1.445,1.445,0,0,1,1.445,1.432v9.543h-.109a3.408,3.408,0,0,1-1.677,1.99l-9.543,5.522a7.771,7.771,0,0,1-3.831.913ZM55.828,256.15h0a2.59,2.59,0,0,0,1.472,1.745l8.439,4.867a7.867,7.867,0,0,0,7.021.327l9.543-5.453a1.527,1.527,0,0,0,.927-1.363v-.927h0v-7.539H55.8Z" transform="translate(19.66 89.428)" fill="#004798"/><path d="M79.137,246.81H66.24v17.614a6.476,6.476,0,0,0,2.563-.736l9.543-5.453a2.291,2.291,0,0,0,1.363-2.113h0v-8.684a.573.573,0,0,0-.573-.627Z" transform="translate(24.068 89.66)" fill="#004798"/><path d="M82.538,251.194l-9.543,5.453a8.753,8.753,0,0,1-7.894-.327l-8.425-4.867c-2.331-1.363-2.59-3.381-.573-4.554l9.543-5.522a8.766,8.766,0,0,1,7.88.327l8.439,4.894C84.31,247.963,84.555,250.022,82.538,251.194Z" transform="translate(19.89 87.403)" fill="#fff"/><path d="M69.778,258.578a9.993,9.993,0,0,1-4.894-1.227l-8.425-4.867a4.09,4.09,0,0,1-2.359-3.327,3.177,3.177,0,0,1,1.8-2.727l9.543-5.522a9.625,9.625,0,0,1,8.753.327l8.4,4.867a4.09,4.09,0,0,1,2.359,3.327,3.163,3.163,0,0,1-1.786,2.727l-9.543,5.522a7.908,7.908,0,0,1-3.845.9ZM69.3,241.741a6.148,6.148,0,0,0-2.986.668l-9.543,5.453a1.6,1.6,0,0,0-.941,1.227c0,.6.573,1.282,1.5,1.827l8.439,4.867a7.948,7.948,0,0,0,7.021.327l9.543-5.522a1.6,1.6,0,0,0,.941-1.227c0-.6-.559-1.282-1.5-1.827l-8.439-4.813A8.343,8.343,0,0,0,69.3,241.741Z" transform="translate(19.657 87.19)" fill="#004798"/><rect width="1.731" height="9.175" transform="translate(85.018 344.241)" fill="#004798"/><rect width="1.322" height="4.499" transform="translate(99.838 341.91)" fill="#8f00fc"/><path d="M220.236,50.83h-28a.573.573,0,0,0-.573.573v8.644h0a3.286,3.286,0,0,0,1.909,2.44l8.439,4.935a8.753,8.753,0,0,0,7.894.327l9.543-5.453a2.263,2.263,0,0,0,1.363-2.113h0V51.4a.573.573,0,0,0-.573-.573Z" transform="translate(69.638 18.452)" fill="#8f00fc"/><path d="M206.706,69.59a9.98,9.98,0,0,1-4.881-1.227l-8.439-4.813a4.758,4.758,0,0,1-2.168-2.331H191V51.675a1.459,1.459,0,0,1,1.445-1.445h28a1.363,1.363,0,0,1,1.023.423,1.445,1.445,0,0,1,.423,1.023v9.543h-.1a3.463,3.463,0,0,1-1.691,2l-9.543,5.522A7.962,7.962,0,0,1,206.706,69.59Zm-13.933-9.407h0a2.577,2.577,0,0,0,1.486,1.745l8.425,4.867a7.962,7.962,0,0,0,7.021.327l9.543-5.522a1.527,1.527,0,0,0,.913-1.3v-.927h0V51.907h-27.43Z" transform="translate(69.399 18.234)" fill="#004798"/><path d="M216.054,50.85H203.17V68.478a6.408,6.408,0,0,0,2.549-.736l9.543-5.522a2.263,2.263,0,0,0,1.363-2.113h0V51.423a.573.573,0,0,0-.573-.573Z" transform="translate(73.821 18.459)" fill="#004798"/><path d="M219.457,55.217l-9.543,5.522a8.807,8.807,0,0,1-7.894-.327l-8.425-4.867c-2.331-1.363-2.59-3.395-.559-4.554l9.543-5.522a8.726,8.726,0,0,1,7.88.327l8.439,4.867C221.229,52.013,221.488,54.045,219.457,55.217Z" transform="translate(69.64 16.219)" fill="#fff"/><path d="M206.706,62.6a9.98,9.98,0,0,1-4.881-1.227l-8.439-4.867A4.09,4.09,0,0,1,191,53.182a3.177,3.177,0,0,1,1.8-2.727L202.343,45a9.543,9.543,0,0,1,8.753.327l8.535,4.8a4.09,4.09,0,0,1,2.3,3.381,3.177,3.177,0,0,1-1.8,2.727l-9.543,5.453A7.962,7.962,0,0,1,206.706,62.6Zm-.477-16.837a6.094,6.094,0,0,0-2.972.668l-9.543,5.453a1.582,1.582,0,0,0-.927,1.227c0,.6.559,1.282,1.5,1.827l8.425,4.867a7.962,7.962,0,0,0,7.021.327l9.543-5.453a1.581,1.581,0,0,0,.927-1.227c0-.6-.559-1.282-1.5-1.827l-8.425-4.867a8.4,8.4,0,0,0-4.049-1Z" transform="translate(69.399 16.005)" fill="#004798"/><rect width="1.731" height="9.175" transform="translate(271.687 77.08)" fill="#004798"/><rect width="1.322" height="4.499" transform="translate(286.507 74.749)" fill="#8f00fc"/><path d="M208.479,237H180.463a.573.573,0,0,0-.573.573v8.644h0a3.327,3.327,0,0,0,1.909,2.44l8.439,4.867a8.725,8.725,0,0,0,7.88.327l9.543-5.522a2.25,2.25,0,0,0,1.363-2.113h0v-8.684a.573.573,0,0,0-.545-.532Z" transform="translate(65.362 86.096)" fill="#8f00fc"/><path d="M194.918,255.794a9.993,9.993,0,0,1-4.881-1.241l-8.412-4.867a4.567,4.567,0,0,1-2.168-2.318h-.177v-9.543a1.445,1.445,0,0,1,1.445-1.445h28a1.363,1.363,0,0,1,1.363,1.432v9.543H210a3.4,3.4,0,0,1-1.691,1.99l-9.543,5.453A7.784,7.784,0,0,1,194.918,255.794Zm-13.933-9.421h0c0,.6.586,1.227,1.486,1.745L190.9,253a7.976,7.976,0,0,0,7.035.314l9.543-5.453a1.54,1.54,0,0,0,.913-1.363v-.927h.082V238.03H181.025Z" transform="translate(65.14 85.871)" fill="#004798"/><path d="M204.3,237H191.4v17.723a6.353,6.353,0,0,0,2.549-.736l9.543-5.453a2.249,2.249,0,0,0,1.363-2.113h0v-8.685A.573.573,0,0,0,204.3,237Z" transform="translate(69.544 86.096)" fill="#004798"/><path d="M207.7,241.414l-9.543,5.453a8.726,8.726,0,0,1-7.88-.327l-8.439-4.867c-2.331-1.363-2.577-3.381-.559-4.554l9.543-5.522a8.794,8.794,0,0,1,7.894.327l8.425,4.867C209.454,238.21,209.713,240.255,207.7,241.414Z" transform="translate(65.369 83.85)" fill="#fff"/><path d="M194.925,248.8a9.98,9.98,0,0,1-4.881-1.227l-8.412-4.867a4.09,4.09,0,0,1-2.372-3.327,3.177,3.177,0,0,1,1.8-2.727l9.543-5.522a9.544,9.544,0,0,1,8.739.327l8.439,4.867a4.09,4.09,0,0,1,2.359,3.327,3.177,3.177,0,0,1-1.8,2.727L198.8,247.9A7.784,7.784,0,0,1,194.925,248.8Zm-.464-16.837a6.122,6.122,0,0,0-2.986.668l-9.543,5.453a1.568,1.568,0,0,0-.941,1.227c0,.6.559,1.3,1.5,1.827L190.917,246a7.989,7.989,0,0,0,7.035.327l9.543-5.522a1.581,1.581,0,0,0,.927-1.227c0-.6-.559-1.282-1.5-1.827l-8.425-4.867A8.344,8.344,0,0,0,194.461,231.962Z" transform="translate(65.133 83.635)" fill="#004798"/><rect width="1.731" height="9.175" transform="translate(255.654 330.908)" fill="#004798"/><rect width="1.322" height="4.499" transform="translate(270.474 328.577)" fill="#8f00fc"/><path d="M22.609,79.554l6.149-3.995a.1.1,0,0,0,0-.15l-7.785-9.393a.1.1,0,0,0-.177,0l-1.254,5.753h0l-.3,3.954a.191.191,0,0,0,0,.082l3.2,3.722a.1.1,0,0,0,.164.027Z" transform="translate(6.99 23.948)" fill="#004798"/><path d="M22.727,80.419a.763.763,0,0,1-.586-.259L18.76,76.22v-.354l.327-3.94,1.363-6.271.491-.177a.75.75,0,0,1,.777.259l7.989,9.693V75.8a.736.736,0,0,1-.341.532L23.177,80.3a.8.8,0,0,1-.45.123ZM20.1,75.743l2.727,3.177,5.208-3.367-6.68-8.085-1,4.635Z" transform="translate(6.816 23.765)" fill="#004798"/><path d="M48.634,59.626l-29.3-16.974a2.168,2.168,0,0,0-1.922-.273h0l-5.726,3.436a.15.15,0,0,0,0,.245L18.5,53.3a.177.177,0,0,1,0,.109V65.38a6.653,6.653,0,0,0,3.04,5.153l4.363,2.522.314.436A16.115,16.115,0,0,0,33.037,83.7c.2.136.354,0,.218-.327-.709-1.363-2.045-4.267-1.636-6.558l.491-.2,9.039,5.222a.136.136,0,0,1,.068.082l3.776,10.075a.164.164,0,0,0,.218.082l5.672-3.422h0a2.072,2.072,0,0,0,.791-1.759V64.766a6.667,6.667,0,0,0-3.04-5.14Z" transform="translate(4.223 15.341)" fill="#fff"/><path d="M45.434,93.01l-.4-.1a.8.8,0,0,1-.491-.477l-3.736-9.9-8.439-4.881A12.406,12.406,0,0,0,34,83.276a.913.913,0,0,1-.15,1.145.8.8,0,0,1-1.023,0,16.687,16.687,0,0,1-7.048-10.5l-.136-.191-4.254-2.454a7.253,7.253,0,0,1-3.327-5.767V53.787L11.351,46.7a.8.8,0,0,1-.218-.682.832.832,0,0,1,.409-.6l5.712-3.422a2.822,2.822,0,0,1,2.59.259L49.129,59.172a7.267,7.267,0,0,1,3.34,5.767V87.066a2.727,2.727,0,0,1-1.077,2.386ZM32.305,76.159l9.543,5.453.15.3,3.558,9.543,5.153-3.095a1.527,1.527,0,0,0,.45-1.268V64.939A6.012,6.012,0,0,0,48.5,60.317L19.135,43.439a1.6,1.6,0,0,0-1.363-.232l-5.113,3.068,6.6,6.98V65.593a6.012,6.012,0,0,0,2.727,4.622l4.581,2.727.423.7A15.419,15.419,0,0,0,31.937,82.2a9.993,9.993,0,0,1-.886-5.222l.068-.354Z" transform="translate(4.042 15.168)" fill="#004798"/><path d="M43.161,62.2,13.781,45.226c-1.622-.927-2.931-.177-2.931,1.691V69.1a6.421,6.421,0,0,0,2.931,5.058l4.513,2.618a.5.5,0,0,1,.232.341,16.087,16.087,0,0,0,6.817,10.252c.2.15.354,0,.2-.327-.723-1.363-2.127-4.458-1.568-6.817a.136.136,0,0,1,.232-.082L43.175,91.048c1.609.927,2.918.177,2.918-1.691v-22.1A6.449,6.449,0,0,0,43.161,62.2Z" transform="translate(3.942 16.272)" fill="#8f00fc"/><path d="M44.65,92.367a3.272,3.272,0,0,1-1.636-.491L24.691,81.3A12.529,12.529,0,0,0,26.3,86.913a.913.913,0,0,1-.136,1.145.859.859,0,0,1-1.036,0,16.892,16.892,0,0,1-7.076-10.58l-4.445-2.563a7.13,7.13,0,0,1-3.245-5.644V47.09a2.727,2.727,0,0,1,1.186-2.468,2.727,2.727,0,0,1,2.727.2l29.394,16.96a7.117,7.117,0,0,1,3.258,5.644V89.613a2.727,2.727,0,0,1-1.186,2.468A2.14,2.14,0,0,1,44.65,92.367ZM24.268,79.66a.927.927,0,0,1,.45.123L43.669,90.69a1.459,1.459,0,0,0,1.363.2,1.432,1.432,0,0,0,.532-1.363v-22.1a5.808,5.808,0,0,0-2.549-4.472L13.621,45.986a1.445,1.445,0,0,0-1.363-.218,1.472,1.472,0,0,0-.532,1.363V69.272a5.808,5.808,0,0,0,2.59,4.485l4.526,2.618a1.132,1.132,0,0,1,.545.8,15.46,15.46,0,0,0,4.949,8.6,9.748,9.748,0,0,1-.818-5.453l.082-.314.382-.245a.8.8,0,0,1,.286-.109Z" transform="translate(3.762 16.098)" fill="#004798"/><rect width="5.985" height="1.322" transform="translate(48.09 78.234) rotate(-31.3)" fill="#004798"/><rect width="5.985" height="1.322" transform="translate(20.692 62.509) rotate(-31.3)" fill="#004798"/><rect width="6.68" height="1.322" transform="matrix(0.845, -0.535, 0.535, 0.845, 49.664, 84.26)" fill="#004798"/><path d="M42.525,61.86,36.69,65.391V84.614l5.644-3.081.191-1.377Z" transform="translate(13.331 22.46)" fill="#004798"/><rect width="6.421" height="1.336" transform="translate(23.26 52.128) rotate(-85.3)" fill="#004798"/><rect width="1.336" height="7.403" transform="matrix(0.916, -0.401, 0.401, 0.916, 16.06, 46.243)" fill="#004798"/><rect width="1.322" height="6.162" transform="matrix(0.492, -0.871, 0.871, 0.492, 10.218, 52.542)" fill="#004798"/><path d="M28.673,75.721l-3.722-2.14V71.74a13.742,13.742,0,0,1-2.727-3.313l-1.363.123L19.13,64.065l1.445-.123a9.339,9.339,0,0,1-.164-1.636,6.258,6.258,0,0,1,.218-1.663l-1.4-1.8,1.963-2.727,1.486,1.854a3.722,3.722,0,0,1,2.277-.259V55.68l3.722,2.154v1.827A14.029,14.029,0,0,1,31.4,62.974l1.363-.123,1.731,4.485-1.445.123a8.289,8.289,0,0,1,.177,1.636,6.817,6.817,0,0,1-.218,1.663l1.363,1.772-1.95,2.727L30.95,73.472a3.845,3.845,0,0,1-2.277.245Zm-2.727-2.727L27.678,74V72.476l.641.191a2.945,2.945,0,0,0,2.481-.191l.382-.245,1.2,1.486.763-1.091-1.268-1.581.068-.245a5.235,5.235,0,0,0,.245-1.636,9.544,9.544,0,0,0-.245-1.963l-.136-.559,1.254-.109-.982-2.549-1.282.109-.164-.273a12.447,12.447,0,0,0-2.795-3.477l-.164-.15V58.407l-1.731-.927v1.581l-.641-.218a2.972,2.972,0,0,0-2.495.2l-.382.245-1.186-1.486L20.466,58.9l1.282,1.581-.082.245a5.671,5.671,0,0,0-.245,1.636,9.039,9.039,0,0,0,.259,1.936l.123.545-1.254.109,1,2.549,1.282-.109.15.286a12.42,12.42,0,0,0,2.795,3.436l.177.15Zm1.963-3.64a2.727,2.727,0,0,1-.641-.1h0a5.453,5.453,0,0,1-3.3-5.726,1.84,1.84,0,0,1,.859-1.254,1.922,1.922,0,0,1,1.513-.123,5.453,5.453,0,0,1,3.313,5.726,1.909,1.909,0,0,1-.873,1.241A1.772,1.772,0,0,1,27.91,69.354Zm-.354-1.063a.818.818,0,0,0,.723,0,.9.9,0,0,0,.409-.6,4.54,4.54,0,0,0-2.631-4.54.927.927,0,0,0-.723,0,.886.886,0,0,0-.4.6A4.513,4.513,0,0,0,27.555,68.291Z" transform="translate(6.951 20.214)" fill="#fff"/><path d="M31.117,67.256a10.307,10.307,0,0,0-.273-2.086l1.363-.123-1.363-3.5-1.363.109a13.265,13.265,0,0,0-2.9-3.6V56.268L23.851,54.7v1.772a3.436,3.436,0,0,0-2.9.259l-1.363-1.65L18.22,57.018l1.363,1.663a5.9,5.9,0,0,0-.273,1.772,9.325,9.325,0,0,0,.273,2.086l-1.363.123,1.363,3.517,1.363-.123a13.088,13.088,0,0,0,2.9,3.613v1.8l2.727,1.581V71.237a3.4,3.4,0,0,0,2.9-.259l1.363,1.663,1.363-1.936-1.363-1.677a6.2,6.2,0,0,0,.273-1.772Zm-5.29-.327A4.99,4.99,0,0,1,22.869,61.8a1.363,1.363,0,0,1,1.745-1.022,5.017,5.017,0,0,1,2.972,5.14,1.363,1.363,0,0,1-1.759,1.009Z" transform="translate(6.62 19.858)" fill="#004798"/></g></g></svg>