<svg xmlns="http://www.w3.org/2000/svg" width="544.568" height="356.117" viewBox="0 0 544.568 356.117"><g transform="translate(0.5 0.615)"><g transform="translate(-1.567 -45.266)"><g transform="translate(56.917 290.034)"><path d="M92.936,355.844,62.5,272.634s1.955-3.072,4.747-3.63,67.853,5.305,70.924,5.864,4.747,3.909,8.935,13.124,23.455,64.223,23.455,64.223Z" transform="translate(-49.532 -263.88)" fill="#7400cc8c"/><path d="M90.234,361.89l-4.35.271c-12.475-34.709-23.321-56.4-34.965-91.234,0,0-.557-4.758,3.239-5.843.917-.261,3.681-.919,11.118-.543" transform="translate(-50.889 -264.41)" fill="none" stroke="#fff" stroke-linecap="round" stroke-linejoin="round" stroke-width="1"/><path d="M89.65,362.164c-12.474-34.709-22.233-56.4-33.88-91.234,0,0,.256-5.3,4.052-6.385s81.89,4.881,81.89,4.881a17.376,17.376,0,0,1,6.506,5.965c2.171,3.8,28.744,82.433,28.744,82.433Z" transform="translate(-50.319 -264.412)" fill="none" stroke="#fff" stroke-linecap="round" stroke-linejoin="round" stroke-width="1"/><path d="M86.1,352.385c10.983,1.625,62.231,6.914,103.313,7.318l79.72-4.88-95.72-6.779" transform="translate(-46.772 -254.634)" fill="none" stroke="#fff" stroke-linecap="round" stroke-linejoin="round" stroke-width="1"/><path d="M85.737,351.565A10.869,10.869,0,0,0,87,357.648s80.366,6.526,84.976,6.8,97.346-5.7,97.346-5.7l-.136-4.338" transform="translate(-46.82 -254.222)" fill="none" stroke="#fff" stroke-linecap="round" stroke-linejoin="round" stroke-width="1"/><path d="M62.475,273.782C70.834,296.973,84.567,336,92.049,355.769l78.349-3.891-25.763-72.671a6.678,6.678,0,0,0-5.7-4.608L66,268.9C62.687,268.714,61.348,270.663,62.475,273.782Z" transform="translate(-49.581 -263.889)" fill="none" stroke="#fff" stroke-linecap="round" stroke-linejoin="round" stroke-width="1"/><path d="M107.832,353.827c26.59-2.755,60.05-3.208,86.77-4.083" transform="translate(-44.232 -254.435)" fill="none" stroke="#fff" stroke-linecap="round" stroke-linejoin="round" stroke-width="1"/><path d="M130.411,355.534a828.524,828.524,0,0,1,87.312-4.086" transform="translate(-41.592 -254.239)" fill="none" stroke="#fff" stroke-linecap="round" stroke-linejoin="round" stroke-width="1"/><path d="M154.2,357.5c26.592-2.759,57.61-3.481,84.327-4.357" transform="translate(-38.81 -254.038)" fill="none" stroke="#fff" stroke-linecap="round" stroke-linejoin="round" stroke-width="1"/><path d="M186.9,359.249c-11.375-3.327-57.035-6.677-68.871-7.318" transform="translate(-43.039 -254.179)" fill="none" stroke="#fff" stroke-linecap="round" stroke-linejoin="round" stroke-width="1"/><path d="M207.34,357.493c-20.608-4.608-55.14-6.136-66.977-6.777" transform="translate(-40.428 -254.321)" fill="none" stroke="#fff" stroke-linecap="round" stroke-linejoin="round" stroke-width="1"/><path d="M232.847,356.252c-11.377-3.33-52.972-5.865-64.807-6.508" transform="translate(-37.192 -254.435)" fill="none" stroke="#fff" stroke-linecap="round" stroke-linejoin="round" stroke-width="1"/></g><g transform="translate(273.022 300.462)"><path d="M258.743,273.75c-3.906-.163-14.8,7.539-14.241,15.916s9.215,14.52,16.475,13.961,13.4-8.377,13.124-14.52S265.444,274.029,258.743,273.75Z" transform="translate(-244.359 -273.748)" fill="#7400cc8c"/><g transform="translate(0 0.328)"><path d="M248.866,278.161c-3.506,3.4-4.741,7.487-4.454,12.342a15.087,15.087,0,0,0,3.739,8.713,14.751,14.751,0,0,0,6.707,3.7c4.15,1.035,6.535,1.461,10.538-.242l1.184-.561c2.993-1.425,6.163-5.3,7.23-8.656a17.44,17.44,0,0,0,.662-6.547,12.046,12.046,0,0,0-1.441-4.64l-.638-1.051a15.463,15.463,0,0,0-7.787-6.058c-6.9-2.246-10.287-.916-14.718,2.118Z" transform="translate(-244.372 -274.041)" fill="none" stroke="#fff" stroke-linecap="round" stroke-linejoin="round" stroke-width="1"/><path d="M251.035,280.378a11.3,11.3,0,0,0-3.382,9.372,11.45,11.45,0,0,0,2.839,6.616,11.2,11.2,0,0,0,5.091,2.814c3.152.786,4.962,1.11,8-.183l.9-.427a12.217,12.217,0,0,0,5.49-6.573,13.242,13.242,0,0,0,.5-4.97,9.162,9.162,0,0,0-1.1-3.523l-.484-.8a11.737,11.737,0,0,0-5.912-4.6c-5.238-1.707-7.812-.7-11.176,1.607Z" transform="translate(-243.992 -273.666)" fill="none" stroke="#fff" stroke-linecap="round" stroke-linejoin="round" stroke-width="1"/><path d="M253.806,295.305c-.07-.977-.21-2.071-.21-3.048,0,0,5.092.906,6.447-.4,1.211-1.163.114-3.3-2.932-3.4-2.839-.093-4.452-.957-4.219-3.99.209-2.723,3.979-3.281,3.979-3.281v-1.536l2.932.07.14,1.257,2.659.22-.046,3.258s-4.987-.756-4.987.85c0,1.5,3,.628,5.376,2.373,1.354,1,2.111,4.949-.528,7.014a4.282,4.282,0,0,1-2.792.977V297l-2.513-.07-.14-1.465Z" transform="translate(-243.379 -273.385)" fill="none" stroke="#fff" stroke-linecap="round" stroke-linejoin="round" stroke-width="1"/></g></g><g transform="translate(290.178 337.456)"><path d="M268.948,307.756c-3.076.228-10.052,4.747-8.935,12.565s6.981,10.89,13.682,9.773,10.052-6.422,9.773-12.845S276.487,307.2,268.948,307.756Z" transform="translate(-259.713 -306.773)" fill="#7400cc8c"/><path d="M263.364,310.2a12.032,12.032,0,0,0-3.6,9.976,12.183,12.183,0,0,0,3.022,7.042,11.931,11.931,0,0,0,5.42,2.993c3.355.839,5.283,1.182,8.516-.194l.958-.453a13.01,13.01,0,0,0,5.843-7,14.127,14.127,0,0,0,.536-5.291,9.769,9.769,0,0,0-1.165-3.751l-.515-.85a12.514,12.514,0,0,0-6.295-4.9c-5.573-1.814-8.313-.741-11.894,1.712Z" transform="translate(-259.732 -306.87)" fill="none" stroke="#fff" stroke-linecap="round" stroke-linejoin="round" stroke-width="1"/><path d="M265.117,311.992a9.136,9.136,0,0,0-2.733,7.575,9.26,9.26,0,0,0,2.294,5.347,9.062,9.062,0,0,0,4.116,2.273c2.547.636,4.011.9,6.468-.149l.725-.343a9.872,9.872,0,0,0,4.438-5.313,10.678,10.678,0,0,0,.407-4.018,7.4,7.4,0,0,0-.885-2.847l-.391-.647a9.5,9.5,0,0,0-4.778-3.718c-4.234-1.378-6.314-.562-9.033,1.3Z" transform="translate(-259.425 -306.567)" fill="none" stroke="#fff" stroke-linecap="round" stroke-linejoin="round" stroke-width="1"/><path d="M267.356,324.055c-.056-.79-.169-1.673-.169-2.464,0,0,4.115.734,5.209-.318.978-.94.092-2.666-2.369-2.746-2.3-.075-3.6-.773-3.41-3.225.17-2.2,3.216-2.65,3.216-2.65v-1.243l2.369.057.114,1.015,2.149.178-.037,2.634s-4.031-.611-4.031.687c0,1.214,2.426.507,4.345,1.918,1.095.805,1.707,4-.427,5.669a3.462,3.462,0,0,1-2.257.791v1.071l-2.031-.057-.113-1.183Z" transform="translate(-258.929 -306.339)" fill="none" stroke="#fff" stroke-linecap="round" stroke-linejoin="round" stroke-width="1"/></g><g transform="translate(-0.667 138.79)"><path d="M14.694,131.875c-2.377-.07-8.1,3.072-7.818,9.075s5.864,6.981,8.935,6.562,7.12-4.188,7.12-7.818S19.441,132.015,14.694,131.875Z" transform="translate(1.548 -128.664)" fill="#7400cc8c"/><path d="M42.694,131.875c-2.377-.07-8.1,3.072-7.818,9.075s5.864,6.981,8.935,6.562,7.12-4.188,7.12-7.818S47.441,132.015,42.694,131.875Z" transform="translate(4.822 -128.664)" fill="#7400cc8c"/><path d="M70.694,131.875c-2.377-.07-8.1,3.072-7.818,9.075s5.864,6.981,8.935,6.562,7.12-4.188,7.12-7.818S75.441,132.015,70.694,131.875Z" transform="translate(8.095 -128.664)" fill="#7400cc8c"/><path d="M98.694,131.875c-2.377-.07-8.1,3.072-7.818,9.075s5.864,6.981,8.935,6.562,7.12-4.188,7.12-7.818S103.441,132.015,98.694,131.875Z" transform="translate(11.369 -128.664)" fill="#7400cc8c"/><path d="M126.319,131.75c-2.377-.07-8.1,3.072-7.818,9.075s5.864,6.981,8.935,6.562,7.12-4.188,7.12-7.818S131.066,131.89,126.319,131.75Z" transform="translate(14.599 -128.678)" fill="#7400cc8c"/><path d="M154.069,131.75c-2.377-.07-8.1,3.072-7.818,9.075s5.864,6.981,8.935,6.562,7.12-4.188,7.12-7.818S158.816,131.89,154.069,131.75Z" transform="translate(17.844 -128.678)" fill="#7400cc8c"/><g transform="translate(8.464 2.979)"><path d="M9.31,133.865a7.949,7.949,0,0,0-2.378,6.59,8.057,8.057,0,0,0,2,4.651,7.87,7.87,0,0,0,3.58,1.977c2.217.554,3.489.781,5.626-.128l.632-.3a8.6,8.6,0,0,0,3.86-4.621,9.351,9.351,0,0,0,.353-3.495,6.412,6.412,0,0,0-.77-2.477l-.341-.562a8.268,8.268,0,0,0-4.156-3.233c-3.682-1.2-5.491-.489-7.856,1.13Z" transform="translate(-6.911 -131.667)" fill="none" stroke="#fff" stroke-linecap="round" stroke-linejoin="round" stroke-width="1"/><path d="M12,136.618a3.5,3.5,0,0,0-1.048,2.9,3.555,3.555,0,0,0,.879,2.05,3.47,3.47,0,0,0,1.577.87,3.291,3.291,0,0,0,2.478-.057l.278-.132a3.785,3.785,0,0,0,1.7-2.035,4.1,4.1,0,0,0,.156-1.539,2.844,2.844,0,0,0-.34-1.091l-.15-.248a3.643,3.643,0,0,0-1.831-1.424,3.333,3.333,0,0,0-3.461.5Z" transform="translate(-6.439 -131.201)" fill="none" stroke="#fff" stroke-linecap="round" stroke-linejoin="round" stroke-width="1"/></g><g transform="translate(39.561 2.979)"><path d="M37.152,133.865a7.953,7.953,0,0,0-2.378,6.59,8.051,8.051,0,0,0,2,4.651,7.859,7.859,0,0,0,3.58,1.977c2.216.554,3.488.781,5.625-.128l.632-.3a8.6,8.6,0,0,0,3.86-4.621,9.328,9.328,0,0,0,.353-3.495,6.43,6.43,0,0,0-.768-2.477l-.341-.562a8.266,8.266,0,0,0-4.157-3.233c-3.682-1.2-5.491-.489-7.855,1.13Z" transform="translate(-34.753 -131.667)" fill="none" stroke="#fff" stroke-linecap="round" stroke-linejoin="round" stroke-width="1"/><path d="M39.844,136.618a3.5,3.5,0,0,0-1.048,2.9,3.556,3.556,0,0,0,.88,2.05,3.46,3.46,0,0,0,1.576.87,3.291,3.291,0,0,0,2.478-.057l.278-.132a3.78,3.78,0,0,0,1.7-2.035,4.1,4.1,0,0,0,.156-1.539,2.844,2.844,0,0,0-.34-1.091l-.15-.248a3.643,3.643,0,0,0-1.831-1.424,3.331,3.331,0,0,0-3.46.5Z" transform="translate(-34.281 -131.201)" fill="none" stroke="#fff" stroke-linecap="round" stroke-linejoin="round" stroke-width="1"/></g><g transform="translate(70.658 2.979)"><path d="M64.994,133.865a7.953,7.953,0,0,0-2.378,6.59,8.059,8.059,0,0,0,2,4.651,7.859,7.859,0,0,0,3.58,1.977c2.216.554,3.488.781,5.625-.128l.632-.3a8.6,8.6,0,0,0,3.86-4.621,9.328,9.328,0,0,0,.353-3.495,6.43,6.43,0,0,0-.768-2.477l-.341-.562a8.266,8.266,0,0,0-4.157-3.233c-3.681-1.2-5.491-.489-7.855,1.13Z" transform="translate(-62.595 -131.667)" fill="none" stroke="#fff" stroke-linecap="round" stroke-linejoin="round" stroke-width="1"/><path d="M67.686,136.618a3.5,3.5,0,0,0-1.048,2.9,3.556,3.556,0,0,0,.88,2.05,3.464,3.464,0,0,0,1.577.87,3.288,3.288,0,0,0,2.477-.057l.278-.132a3.782,3.782,0,0,0,1.7-2.035,4.117,4.117,0,0,0,.155-1.539,2.824,2.824,0,0,0-.338-1.091l-.151-.248a3.638,3.638,0,0,0-1.831-1.424,3.332,3.332,0,0,0-3.46.5Z" transform="translate(-62.123 -131.201)" fill="none" stroke="#fff" stroke-linecap="round" stroke-linejoin="round" stroke-width="1"/></g><g transform="translate(101.757 2.979)"><path d="M92.837,133.865a7.949,7.949,0,0,0-2.378,6.59,8.057,8.057,0,0,0,2,4.651,7.859,7.859,0,0,0,3.58,1.977c2.216.554,3.489.781,5.626-.128l.631-.3a8.6,8.6,0,0,0,3.86-4.621,9.352,9.352,0,0,0,.354-3.495,6.451,6.451,0,0,0-.77-2.477l-.341-.562a8.268,8.268,0,0,0-4.156-3.233c-3.682-1.2-5.492-.489-7.856,1.13Z" transform="translate(-90.438 -131.667)" fill="none" stroke="#fff" stroke-linecap="round" stroke-linejoin="round" stroke-width="1"/><path d="M95.528,136.618a3.5,3.5,0,0,0-1.047,2.9,3.548,3.548,0,0,0,.879,2.05,3.47,3.47,0,0,0,1.577.87,3.288,3.288,0,0,0,2.477-.057l.278-.132a3.782,3.782,0,0,0,1.7-2.035,4.117,4.117,0,0,0,.155-1.539,2.824,2.824,0,0,0-.338-1.091l-.151-.248a3.638,3.638,0,0,0-1.831-1.424,3.332,3.332,0,0,0-3.46.5Z" transform="translate(-89.966 -131.201)" fill="none" stroke="#fff" stroke-linecap="round" stroke-linejoin="round" stroke-width="1"/></g><g transform="translate(132.854 2.979)"><path d="M120.679,133.865a7.949,7.949,0,0,0-2.378,6.59,8.057,8.057,0,0,0,2,4.651,7.87,7.87,0,0,0,3.58,1.977c2.216.554,3.489.781,5.626-.128l.631-.3a8.6,8.6,0,0,0,3.86-4.621,9.328,9.328,0,0,0,.354-3.495,6.451,6.451,0,0,0-.77-2.477l-.341-.562a8.268,8.268,0,0,0-4.156-3.233c-3.682-1.2-5.492-.489-7.856,1.13Z" transform="translate(-118.28 -131.667)" fill="none" stroke="#fff" stroke-linecap="round" stroke-linejoin="round" stroke-width="1"/><path d="M123.371,136.618a3.5,3.5,0,0,0-1.048,2.9,3.548,3.548,0,0,0,.879,2.05,3.47,3.47,0,0,0,1.577.87,3.288,3.288,0,0,0,2.477-.057l.279-.132a3.785,3.785,0,0,0,1.7-2.035,4.117,4.117,0,0,0,.155-1.539,2.824,2.824,0,0,0-.338-1.091l-.15-.248a3.645,3.645,0,0,0-1.832-1.424,3.332,3.332,0,0,0-3.46.5Z" transform="translate(-117.808 -131.201)" fill="none" stroke="#fff" stroke-linecap="round" stroke-linejoin="round" stroke-width="1"/></g><g transform="translate(163.951 2.979)"><path d="M148.521,133.865a7.949,7.949,0,0,0-2.378,6.59,8.057,8.057,0,0,0,2,4.651,7.87,7.87,0,0,0,3.58,1.977c2.216.554,3.489.781,5.626-.128l.631-.3a8.592,8.592,0,0,0,3.86-4.621,9.329,9.329,0,0,0,.354-3.495,6.431,6.431,0,0,0-.77-2.477l-.341-.562a8.268,8.268,0,0,0-4.156-3.233c-3.682-1.2-5.491-.489-7.856,1.13Z" transform="translate(-146.122 -131.667)" fill="none" stroke="#fff" stroke-linecap="round" stroke-linejoin="round" stroke-width="1"/><path d="M151.213,136.618a3.5,3.5,0,0,0-1.048,2.9,3.555,3.555,0,0,0,.879,2.05,3.47,3.47,0,0,0,1.577.87,3.291,3.291,0,0,0,2.478-.057l.278-.132a3.785,3.785,0,0,0,1.7-2.035,4.117,4.117,0,0,0,.155-1.539,2.824,2.824,0,0,0-.338-1.091l-.15-.248a3.647,3.647,0,0,0-1.831-1.424,3.333,3.333,0,0,0-3.461.5Z" transform="translate(-145.65 -131.201)" fill="none" stroke="#fff" stroke-linecap="round" stroke-linejoin="round" stroke-width="1"/></g><path d="M19.333,129H173.572s11.169,1.117,11.169,11.169-13.031,10.425-13.031,10.425H20.078" transform="translate(0.667 -129)" fill="none" stroke="#fff" stroke-linecap="round" stroke-linejoin="round" stroke-width="1"/><path d="M21,131.244H170.5s8.577.857,8.577,8.577-10.008,8-10.008,8H21.572" transform="translate(0.745 -128.738)" fill="none" stroke="#fff" stroke-linecap="round" stroke-linejoin="round" stroke-width="1"/></g><g transform="translate(154.569 108.947)"><path d="M151.62,118.625a22.174,22.174,0,0,0-.745,2.723" transform="translate(-136.851 -100.37)" fill="none" stroke="#fff" stroke-linecap="round" stroke-linejoin="round" stroke-width="1"/><path d="M141.75,122.351c.558-6.981,8.656-21.849,17.033-19.895,6.981,1.675,2.792,7.4-.558,10.4a17.672,17.672,0,0,0-4.1,4.654" transform="translate(-137.918 -102.281)" fill="none" stroke="#fff" stroke-linecap="round" stroke-linejoin="round" stroke-width="1"/><path d="M147.833,115.7c1.3,2.048,5.05,4.642,7.211,4.013,1.95-.566,1.37-1.526.124-2.163-1.976-1.012-5.152-2.5-6.4-5.386" transform="translate(-137.207 -101.125)" fill="none" stroke="#fff" stroke-linecap="round" stroke-linejoin="round" stroke-width="1"/><path d="M153.292,115.714c1.986.986,4.3,2,5.972,1.083,1.781-.975.6-1.907-.628-2.009a9.75,9.75,0,0,1-4.1-.856" transform="translate(-136.568 -100.919)" fill="none" stroke="#fff" stroke-linecap="round" stroke-linejoin="round" stroke-width="1"/><path d="M142.151,120a17.46,17.46,0,0,1-1.536,5.445c-1.1,2.1-2.625,3.659-2.234,4.049,3.42,1.746,5.793-4.816,6.562-7.818" transform="translate(-138.319 -100.209)" fill="none" stroke="#fff" stroke-linecap="round" stroke-linejoin="round" stroke-width="1"/><path d="M150.9,120.813c3.223,1.541,2.723,5.864,1.117,8.237-.678,1-1.955.648-2.024.025-.065-1.233.613-2.342.488-3.508-.327-3.054-1.814-4.154-6.422-3.218" transform="translate(-137.648 -100.114)" fill="none" stroke="#fff" stroke-linecap="round" stroke-linejoin="round" stroke-width="1"/></g><g transform="translate(418.683 45.266)"><path d="M384.667,65.1c0-13.03,21.221-14.52,22.71-1.489" transform="translate(-373.63 -44.18)" fill="none" stroke="#fff" stroke-linecap="round" stroke-linejoin="round" stroke-width="1"/><path d="M397.667,55.021c.745-8.935,14.892-14.147,19.733-4.84" transform="translate(-372.11 -45.266)" fill="none" stroke="#fff" stroke-linecap="round" stroke-linejoin="round" stroke-width="1"/><path d="M412.667,54.58c1.117-10.052,21.593-5.212,20.1,4.841" transform="translate(-370.356 -44.825)" fill="none" stroke="#fff" stroke-linecap="round" stroke-linejoin="round" stroke-width="1"/><path d="M385.822,63.691c-4.1-2.21-9.313-.882-10.937,3.351a2.445,2.445,0,0,0,2.045,2.979h70.7a2.886,2.886,0,0,0,2.812-3.5c-.687-3.209-2.2-7.632-5.424-8.782-6.652-2.377-9.68,2.606-9.68,2.606" transform="translate(-374.785 -43.884)" fill="none" stroke="#fff" stroke-linecap="round" stroke-linejoin="round" stroke-width="1"/></g><g transform="translate(100.476 62.671)"><path d="M97.676,74.5c0-9.133,14.873-10.176,15.916-1.043" transform="translate(-88.978 -60.117)" fill="none" stroke="#fff" stroke-linecap="round" stroke-linejoin="round" stroke-width="1"/><path d="M106.787,67.686c.522-6.263,10.436-9.915,13.83-3.392" transform="translate(-87.912 -60.849)" fill="none" stroke="#fff" stroke-linecap="round" stroke-linejoin="round" stroke-width="1"/><path d="M117.3,67.126c.782-7.044,15.134-3.652,14.09,3.392" transform="translate(-86.683 -60.569)" fill="none" stroke="#fff" stroke-linecap="round" stroke-linejoin="round" stroke-width="1"/><path d="M99.041,71.983c-2.638-3.584-8.55-.744-9.121,3.072-.184,1.231.43,2.885,1.675,2.885h50.515a1.853,1.853,0,0,0,1.813-2.229c-.458-2.263-.895-5.453-3.23-6.287a6.66,6.66,0,0,0-7.4,1.731" transform="translate(-89.888 -59.9)" fill="none" stroke="#fff" stroke-linecap="round" stroke-linejoin="round" stroke-width="1"/></g><g transform="translate(214.412 125.987)"><path d="M218.984,131.828c-6.26-4.684-13.471-9.962-19.88-14.291,0,0,3.663,11.431,5.619,13.154C207.351,133,218.984,131.828,218.984,131.828Z" transform="translate(-191.055 -117.537)" fill="none" stroke="#fff" stroke-linecap="round" stroke-linejoin="round" stroke-width="1"/><path d="M199.947,117.537c-1.171,1.565-2.556,3.726-3.726,5.29-1,1.343-5.052,5.868-4.209,6.559,1.659,1.356,4.948,4.108,6.429,5.39,2.152,1.785,5.031,3.764,7.462,5.408,1.118.837,2.609,1.606,3.848,2.472,1.183.828,1.712-.58,4.277-3.543a86.544,86.544,0,0,0,5.743-7.211" transform="translate(-191.897 -117.537)" fill="none" stroke="#fff" stroke-linecap="round" stroke-linejoin="round" stroke-width="1"/><path d="M192.95,128.391c2.875-.813,6.922-2.493,9.91-2.525" transform="translate(-191.774 -116.563)" fill="none" stroke="#fff" stroke-linecap="round" stroke-linejoin="round" stroke-width="1"/><path d="M208.983,141.026c-.284-2.885-.6-6.03-.963-10.367" transform="translate(-190.012 -116.003)" fill="none" stroke="#fff" stroke-linecap="round" stroke-linejoin="round" stroke-width="1"/></g><g transform="translate(275.359 135.016)"><path d="M256.71,157.658s-4.095-1.3-5.585-2.606a16.027,16.027,0,0,1-2.792-3.723l4.841-6.33,7.632,7.26Z" transform="translate(-246.247 -123.355)" fill="#7400cc8c"/><path d="M256.573,157.842a12.522,12.522,0,0,1-8.192-6.7l5.027-5.957,8,7.26Z" transform="translate(-246.241 -123.334)" fill="none" stroke="#fff" stroke-linecap="round" stroke-linejoin="round" stroke-width="1"/><path d="M260.575,154.8c9.175-.488,15.161-.458,20.764-.911A81.758,81.758,0,0,0,269.1,137.977a72.77,72.77,0,0,0-15.791-12.356c-.066,7.3-.338,14.76-.612,22.222" transform="translate(-245.736 -125.621)" fill="none" stroke="#fff" stroke-linecap="round" stroke-linejoin="round" stroke-width="1"/><path d="M279.058,153.823c-6.562-10.308-18.522-21.36-25.968-26.014" transform="translate(-245.69 -125.365)" fill="none" stroke="#fff" stroke-linecap="round" stroke-linejoin="round" stroke-width="1"/><path d="M249.257,149.809c-1.815,2.234-1.4,1.815-2.792,3.351a8.045,8.045,0,0,0,3.072,4.328,10.613,10.613,0,0,0,5.026,2.094l2.653-2.513" transform="translate(-246.465 -122.793)" fill="none" stroke="#fff" stroke-linecap="round" stroke-linejoin="round" stroke-width="1"/><path d="M255.84,156.756c1.955,2.234,4.607,4.188,6.283,6.283a6.423,6.423,0,0,0,4.188-3.072l-7.539-6.283" transform="translate(-245.369 -122.34)" fill="none" stroke="#fff" stroke-linecap="round" stroke-linejoin="round" stroke-width="1"/><path d="M258.965,154.1a2.359,2.359,0,0,1,1.4-.419h.14a23.187,23.187,0,0,0,1.955,1.815c-.279.279-.419.7-.7.838" transform="translate(-245.004 -122.34)" fill="none" stroke="#fff" stroke-linecap="round" stroke-linejoin="round" stroke-width="1"/></g><g transform="translate(246.353 103.813)"><path d="M234.817,100.669c-2.42.185-11.169,7.445-10.984,13.03s4.282,10.611,12.473,10.8,12.286-9.122,11.169-13.4S239.657,100.3,234.817,100.669Z" transform="translate(-220.105 -97.337)" fill="#7400cc8c"/><path d="M225.082,101.889c-3.579,3.466-4.84,7.642-4.546,12.6a15.4,15.4,0,0,0,3.815,8.893,15.058,15.058,0,0,0,6.844,3.78c4.238,1.058,6.67,1.491,10.756-.247l1.207-.573c3.056-1.453,6.29-5.4,7.379-8.834a17.839,17.839,0,0,0,.676-6.683,12.28,12.28,0,0,0-1.47-4.735l-.651-1.073a15.8,15.8,0,0,0-7.947-6.183c-7.04-2.292-10.5-.935-15.02,2.161Z" transform="translate(-220.495 -97.685)" fill="none" stroke="#fff" stroke-linecap="round" stroke-linejoin="round" stroke-width="1"/><path d="M227.172,104.027a11.737,11.737,0,0,0-3.513,9.734,11.894,11.894,0,0,0,2.949,6.871,11.633,11.633,0,0,0,5.289,2.922c3.274.816,5.155,1.153,8.312-.191l.933-.442a12.7,12.7,0,0,0,5.7-6.827,13.806,13.806,0,0,0,.522-5.164,9.492,9.492,0,0,0-1.136-3.659l-.5-.83a12.21,12.21,0,0,0-6.142-4.777c-5.44-1.771-8.112-.724-11.607,1.67Z" transform="translate(-220.129 -97.323)" fill="none" stroke="#fff" stroke-linecap="round" stroke-linejoin="round" stroke-width="1"/><path d="M233.566,111.856c0-.888.592-.394.592-.394-.149.147-.149.937-.79.394-.2-.2-.247-.839.049-.938,1.579-.69-.1,2.468-.147.642,0-.593.839-.938.888-.2.049,1.234-1.826-.049-.4-.394.149.049.2.1.2.3" transform="translate(-219.009 -96.149)" fill="none" stroke="#fff" stroke-linecap="round" stroke-linejoin="round" stroke-width="1"/><path d="M234.317,112.185c-1.169-.218-8.251-.353-8.137-1.473.09-.885,6.968.264,8.379.556" transform="translate(-219.831 -96.2)" fill="none" stroke="#fff" stroke-linecap="round" stroke-linejoin="round" stroke-width="1"/><path d="M234.325,111.726c.049-2.516.049-5.478-.641-5.281-1,.285-.543,4-.494,5.429" transform="translate(-219.028 -96.661)" fill="none" stroke="#fff" stroke-linecap="round" stroke-linejoin="round" stroke-width="1"/><path d="M233.817,120.3a6.783,6.783,0,0,1,0-1.675" transform="translate(-218.944 -95.236)" fill="none" stroke="#fff" stroke-linecap="round" stroke-linejoin="round" stroke-width="1"/><path d="M233.5,103.543a4.057,4.057,0,0,1,.14-1.605" transform="translate(-218.976 -97.187)" fill="none" stroke="#fff" stroke-linecap="round" stroke-linejoin="round" stroke-width="1"/><path d="M224.375,112.4c.7-.069,1.4-.14,2.024-.209" transform="translate(-220.042 -95.989)" fill="none" stroke="#fff" stroke-linecap="round" stroke-linejoin="round" stroke-width="1"/><path d="M241.5,111.4c.7-.069,1.465-.209,2.163-.279" transform="translate(-218.039 -96.113)" fill="none" stroke="#fff" stroke-linecap="round" stroke-linejoin="round" stroke-width="1"/></g><g transform="translate(299.612 380.568)"><path d="M270.911,345.643c-.977.419-4.049,2.234-2.094,3.072a6.638,6.638,0,0,0,3.49.558s-2.234,1.4-1.4,2.792l.838,1.4s-2.792,1.257-2.373,2.234a4.32,4.32,0,0,0,2.513,1.815c.558.14,22.757-.14,22.757-.14s2.094-2.932,1.536-3.63,2.513-.558,2.513-.558,1.257-2.234,0-3.351a2.187,2.187,0,0,0-2.373-.558s1.257-3.351.7-3.63-25.41-.14-25.41-.14Z" transform="translate(-268.179 -345.469)" fill="#7400cc8c"/><g transform="translate(0.169 0.169)"><path d="M297.21,352.977c-.316-.316-1.047-.137-1.989-.122-10.54.174-16.562-.35-25.794.035a1.638,1.638,0,0,0-.889.279c-.14.122-.208.792-.208.792l.016,1.861a1.191,1.191,0,0,0,.192.506c.156.21.733.192.733.192h27.364a1.091,1.091,0,0,0,.488-.174.787.787,0,0,0,.271-.487l-.009-2.305A.806.806,0,0,0,297.21,352.977Z" transform="translate(-268.33 -344.787)" fill="none" stroke="#fff" stroke-linecap="round" stroke-linejoin="round" stroke-width="1"/><path d="M270.724,349.351c.316-.316,1.048-.137,1.989-.122,10.541.174,16.562-.35,25.794.035a1.642,1.642,0,0,1,.89.279c.14.122.207.792.207.792l-.014,1.861a1.192,1.192,0,0,1-.192.506c-.158.21-.733.192-.733.192H271.3a1.093,1.093,0,0,1-.489-.174.787.787,0,0,1-.271-.487l.01-2.305A.808.808,0,0,1,270.724,349.351Z" transform="translate(-268.072 -345.21)" fill="none" stroke="#fff" stroke-linecap="round" stroke-linejoin="round" stroke-width="1"/><path d="M297.419,345.851c-.316-.316-1.047-.137-1.989-.122-10.54.174-16.562-.35-25.794.035a1.638,1.638,0,0,0-.889.279c-.14.122-.208.792-.208.792l.016,1.861a1.191,1.191,0,0,0,.192.506c.156.21.733.192.733.192h27.365a1.091,1.091,0,0,0,.488-.174.787.787,0,0,0,.271-.487l-.009-2.305A.805.805,0,0,0,297.419,345.851Z" transform="translate(-268.306 -345.62)" fill="none" stroke="#fff" stroke-linecap="round" stroke-linejoin="round" stroke-width="1"/></g></g><g transform="translate(278.217 372.505)"><path d="M249.975,338.529a1.3,1.3,0,0,0,.14,2.094c.7.419-1.675,1.955-.7,2.653s-1.4,1.536.14,2.094-1.4,1.675,0,2.373-.279,2.234,1.117,2.653-2.234,1.675-1.4,2.234,3.63,1.117,6,1.117,10.89.279,11.588-.419-.279-2.373-.279-2.373,2.513.279,2.513-.977-2.653-1.536-2.653-1.536a7.213,7.213,0,0,0,.838-2.373c0-.838.7-1.815.14-2.792s.558-2.932.419-3.77a1.337,1.337,0,0,0-1.257-1.257C266.03,338.25,249.975,338.529,249.975,338.529Z" transform="translate(-249.023 -338.25)" fill="#7400cc8c"/><g transform="translate(0.164 8.074)"><path d="M267.361,350.112c-.2-.2-.66-.086-1.253-.076-6.64.109-10.432-.221-16.247.021a1.041,1.041,0,0,0-.561.175c-.088.078-.131.5-.131.5l.009,1.172a.754.754,0,0,0,.122.318c.1.132.461.121.461.121H267a.682.682,0,0,0,.307-.111.491.491,0,0,0,.172-.3l-.007-1.453A.506.506,0,0,0,267.361,350.112Z" transform="translate(-249.17 -344.954)" fill="none" stroke="#fff" stroke-linecap="round" stroke-linejoin="round" stroke-width="1"/><path d="M250.678,347.829c.2-.2.659-.087,1.253-.078,6.639.111,10.432-.219,16.247.022a1.036,1.036,0,0,1,.561.176c.087.077.13.5.13.5l-.009,1.171a.763.763,0,0,1-.121.319c-.1.133-.461.122-.461.122H251.041a.7.7,0,0,1-.308-.111.494.494,0,0,1-.171-.306l.007-1.453A.5.5,0,0,1,250.678,347.829Z" transform="translate(-249.007 -345.221)" fill="none" stroke="#fff" stroke-linecap="round" stroke-linejoin="round" stroke-width="1"/><path d="M267.492,345.624c-.2-.2-.659-.086-1.253-.077-6.639.111-10.431-.22-16.246.022a1.038,1.038,0,0,0-.561.175c-.088.077-.132.5-.132.5l.01,1.173a.754.754,0,0,0,.122.318c.1.133.461.122.461.122h17.235a.684.684,0,0,0,.308-.111.491.491,0,0,0,.171-.306l-.006-1.452A.51.51,0,0,0,267.492,345.624Z" transform="translate(-249.155 -345.478)" fill="none" stroke="#fff" stroke-linecap="round" stroke-linejoin="round" stroke-width="1"/></g><g transform="translate(0.164 0.255)"><path d="M267.361,343.112c-.2-.2-.66-.086-1.253-.076-6.64.109-10.432-.221-16.247.021a1.042,1.042,0,0,0-.561.175c-.088.078-.131.5-.131.5l.009,1.172a.754.754,0,0,0,.122.318c.1.132.461.121.461.121H267a.681.681,0,0,0,.307-.111.491.491,0,0,0,.172-.3l-.007-1.453A.506.506,0,0,0,267.361,343.112Z" transform="translate(-249.17 -337.954)" fill="none" stroke="#fff" stroke-linecap="round" stroke-linejoin="round" stroke-width="1"/><path d="M249.678,340.829c.2-.2.659-.087,1.253-.078,6.639.111,10.432-.219,16.247.022a1.036,1.036,0,0,1,.561.176c.087.077.13.5.13.5l-.009,1.171a.764.764,0,0,1-.121.319c-.1.133-.461.122-.461.122H250.041a.7.7,0,0,1-.308-.111.494.494,0,0,1-.171-.306l.007-1.453A.5.5,0,0,1,249.678,340.829Z" transform="translate(-249.124 -338.221)" fill="none" stroke="#fff" stroke-linecap="round" stroke-linejoin="round" stroke-width="1"/><path d="M267.492,338.624c-.2-.2-.659-.086-1.253-.077-6.639.111-10.431-.22-16.246.022a1.038,1.038,0,0,0-.561.175c-.088.077-.132.5-.132.5l.01,1.173a.754.754,0,0,0,.122.318c.1.133.461.122.461.122h17.235a.684.684,0,0,0,.308-.111.491.491,0,0,0,.171-.306l-.006-1.452A.51.51,0,0,0,267.492,338.624Z" transform="translate(-249.155 -338.478)" fill="none" stroke="#fff" stroke-linecap="round" stroke-linejoin="round" stroke-width="1"/></g></g><g transform="translate(321.535 138.04)"><path d="M291.373,154.675c.558-1.257,1.117-2.513,1.815-3.77,0,0-3.49,0-4.468-.14s-1.208-21.035-.51-21.873,27.55-.558,29.271-.326c1.683.228,1.909,20.617.513,21.455s-21.593,1.117-21.593,1.117Z" transform="translate(-287.807 -128.329)" fill="none" stroke="#fff" stroke-linecap="round" stroke-linejoin="round" stroke-width="1"/><path d="M292.084,132.789c4.282-.094,9.4-.558,15.637-.279,1.5.067,3.445.093,5.213,0" transform="translate(-287.307 -127.85)" fill="none" stroke="#fff" stroke-linecap="round" stroke-linejoin="round" stroke-width="1"/><path d="M294.168,134.917c3.257,0,6.049,0,9.4.094,1.768.093,6.33.093,8.843.093" transform="translate(-287.063 -127.558)" fill="none" stroke="#fff" stroke-linecap="round" stroke-linejoin="round" stroke-width="1"/><path d="M294,137.475a101.96,101.96,0,0,1,11.914-.185c2.234,0,5.026-.187,7.632-.373" transform="translate(-287.082 -127.324)" fill="none" stroke="#fff" stroke-linecap="round" stroke-linejoin="round" stroke-width="1"/><path d="M292.084,139.886c3.537,0,6.794.169,10.052-.093a108.262,108.262,0,0,1,12.473-.373" transform="translate(-287.307 -127.036)" fill="none" stroke="#fff" stroke-linecap="round" stroke-linejoin="round" stroke-width="1"/><path d="M295.167,141.6c4.1-.465,13.405.093,17.5.093" transform="translate(-286.946 -126.798)" fill="none" stroke="#fff" stroke-linecap="round" stroke-linejoin="round" stroke-width="1"/><path d="M293.417,143.436c5.213,0,13.682.28,18.895-.185" transform="translate(-287.151 -126.584)" fill="none" stroke="#fff" stroke-linecap="round" stroke-linejoin="round" stroke-width="1"/></g><g transform="translate(185.742 123.189)"><path d="M169.3,121.673a11.818,11.818,0,0,0-3.049-6.552" transform="translate(-166.226 -115.022)" fill="none" stroke="#fff" stroke-linecap="round" stroke-linejoin="round" stroke-width="1"/><path d="M169.12,121.136a25.231,25.231,0,0,1,7.126,4.688" transform="translate(-165.891 -114.318)" fill="none" stroke="#fff" stroke-linecap="round" stroke-linejoin="round" stroke-width="1"/><path d="M166.229,115.032a23.375,23.375,0,0,1,9.238,2.757" transform="translate(-166.229 -115.032)" fill="none" stroke="#fff" stroke-linecap="round" stroke-linejoin="round" stroke-width="1"/><path d="M175.18,125.872a9.515,9.515,0,0,0-.658-8.385" transform="translate(-165.259 -114.745)" fill="none" stroke="#fff" stroke-linecap="round" stroke-linejoin="round" stroke-width="1"/><path d="M175.458,125.418a8.411,8.411,0,0,1,7.445,1.2" transform="translate(-165.15 -113.866)" fill="none" stroke="#fff" stroke-linecap="round" stroke-linejoin="round" stroke-width="1"/><path d="M175.7,125.3a1.98,1.98,0,0,1,.947-1.021c2.119-1.316,3.943-1.32,6.37-.741" transform="translate(-165.122 -114.081)" fill="none" stroke="#fff" stroke-linecap="round" stroke-linejoin="round" stroke-width="1"/><path d="M175.533,125.913c.314-2.647,2.71-4.2,5.164-5.245" transform="translate(-165.141 -114.373)" fill="none" stroke="#fff" stroke-linecap="round" stroke-linejoin="round" stroke-width="1"/><path d="M180.864,120.744A10.181,10.181,0,0,0,175,118.417" transform="translate(-165.204 -114.636)" fill="none" stroke="#fff" stroke-linecap="round" stroke-linejoin="round" stroke-width="1"/><path d="M182.581,123.607a7.332,7.332,0,0,0-3.5-2.357" transform="translate(-164.726 -114.305)" fill="none" stroke="#fff" stroke-linecap="round" stroke-linejoin="round" stroke-width="1"/><path d="M182.29,126.782a11.109,11.109,0,0,0-.656-2.08c-.269-.632-.7-1.313-1.384-1.394" transform="translate(-164.59 -114.064)" fill="none" stroke="#fff" stroke-linecap="round" stroke-linejoin="round" stroke-width="1"/></g><path d="M479.75,347.5h9.215" transform="translate(56.17 35.337)" fill="none" stroke="#fff" stroke-linecap="round" stroke-linejoin="round" stroke-width="1"/><path d="M364,347.5h7.26" transform="translate(42.637 35.337)" fill="none" stroke="#fff" stroke-linecap="round" stroke-linejoin="round" stroke-width="1"/><path d="M178.75,347.5h50.169" transform="translate(20.977 35.337)" fill="none" stroke="#fff" stroke-linecap="round" stroke-linejoin="round" stroke-width="1"/><path d="M239.33,347.5h9.2" transform="translate(28.06 35.337)" fill="none" stroke="#fff" stroke-linecap="round" stroke-linejoin="round" stroke-width="1"/><path d="M310.33,347.5h4.844" transform="translate(36.361 35.337)" fill="none" stroke="#fff" stroke-linecap="round" stroke-linejoin="round" stroke-width="1"/><path d="M26,347.5H83.242" transform="translate(3.118 35.337)" fill="none" stroke="#fff" stroke-linecap="round" stroke-linejoin="round" stroke-width="1"/><g transform="translate(286.32 90.253)"><path d="M286.84,118.234,282,103.714l4.468-2.048,5.771,15.637Z" transform="translate(-253.271 -83.659)" fill="#7400cc8c"/><g transform="translate(0 0)"><path d="M276.991,120.47l-6.578-18.915,5.451-1.9,6.639,19.091" transform="translate(-254.625 -83.894)" fill="none" stroke="#fff" stroke-linecap="round" stroke-linejoin="round" stroke-width="1"/><path d="M286.23,116.582l-4.478-12.88,5.1-1.773,4.524,13.011" transform="translate(-253.3 -83.628)" fill="none" stroke="#fff" stroke-linecap="round" stroke-linejoin="round" stroke-width="1"/><path d="M294.966,115.319c-2.01-5.783-7.725-22.219-9.736-28l5.1-1.773,9.782,28.133" transform="translate(-252.893 -85.544)" fill="none" stroke="#fff" stroke-linecap="round" stroke-linejoin="round" stroke-width="1"/><path d="M312.585,111.8l-39.737,13.816L260.988,91.5" transform="translate(-255.727 -84.847)" fill="none" stroke="#fff" stroke-linecap="round" stroke-linejoin="round" stroke-width="1"/><path d="M267.642,117.354l-2.989,1.039" transform="translate(-255.299 -81.825)" fill="none" stroke="#fff" stroke-linecap="round" stroke-linejoin="round" stroke-width="1"/><path d="M264.851,109.325l-2.989,1.04" transform="translate(-255.625 -82.764)" fill="none" stroke="#fff" stroke-linecap="round" stroke-linejoin="round" stroke-width="1"/><path d="M262.059,101.3l-2.989,1.039" transform="translate(-255.952 -83.702)" fill="none" stroke="#fff" stroke-linecap="round" stroke-linejoin="round" stroke-width="1"/><path d="M259.268,93.268l-2.99,1.04" transform="translate(-256.278 -84.641)" fill="none" stroke="#fff" stroke-linecap="round" stroke-linejoin="round" stroke-width="1"/><path d="M279.545,124.574l-1.039-2.99" transform="translate(-253.679 -81.33)" fill="none" stroke="#fff" stroke-linecap="round" stroke-linejoin="round" stroke-width="1"/><path d="M287.574,121.782q-.521-1.494-1.04-2.989" transform="translate(-252.741 -81.657)" fill="none" stroke="#fff" stroke-linecap="round" stroke-linejoin="round" stroke-width="1"/><path d="M295.6,118.99,294.563,116" transform="translate(-251.802 -81.983)" fill="none" stroke="#fff" stroke-linecap="round" stroke-linejoin="round" stroke-width="1"/><path d="M303.631,116.2q-.521-1.494-1.04-2.989" transform="translate(-250.863 -82.309)" fill="none" stroke="#fff" stroke-linecap="round" stroke-linejoin="round" stroke-width="1"/></g></g><g transform="translate(70.543 106.564)"><path d="M71,117.241c1.751,1.681,6,3.313,7.956,2.19,1.76-1.012.971-1.806-.391-2.131-2.16-.515-5.6-1.205-7.5-3.716" transform="translate(-62.164 -98.576)" fill="none" stroke="#fff" stroke-linecap="round" stroke-linejoin="round" stroke-width="1"/><path d="M77.071,119.341a15.048,15.048,0,0,1-.321,2.319" transform="translate(-61.492 -97.903)" fill="none" stroke="#fff" stroke-linecap="round" stroke-linejoin="round" stroke-width="1"/><path d="M71.553,124.089a19.715,19.715,0,0,1-3.445,7.075,2.52,2.52,0,0,1-3.351.465c-.39-.39.154-1.989,1.675-3.815,1.4-1.675,1.2-4.185,1.443-5.911a13.72,13.72,0,0,0-.006-4.969,20.675,20.675,0,0,0-2.516-5.665c-2.3-3.867-4.594-11.588,2.569-11.1,3.371.251,5.944,3.012,7.73,6.633" transform="translate(-63.089 -100.147)" fill="none" stroke="#fff" stroke-linecap="round" stroke-linejoin="round" stroke-width="1"/><path d="M77.75,120.833a6.919,6.919,0,0,1-.348,8.215c-.752.949-1.955.648-2.025.025-.065-1.233.637-2.419.512-3.585-.327-3.055-.7-4.1-5.305-3.164" transform="translate(-62.213 -97.729)" fill="none" stroke="#fff" stroke-linecap="round" stroke-linejoin="round" stroke-width="1"/><path d="M72.8,116.019a9.135,9.135,0,0,1,1.386-9.105,8.759,8.759,0,0,1,8.775-2.717,11.449,11.449,0,0,1,3.957,1.709,9.878,9.878,0,0,1,3.665,7.424c.025,2.851-1.972,5.71-4.364,7.261s-5.672,2.09-8.1.592" transform="translate(-62.028 -99.706)" fill="none" stroke="#fff" stroke-linecap="round" stroke-linejoin="round" stroke-width="1"/><path d="M72.753,114.427a48.569,48.569,0,0,0,17.242-3.7" transform="translate(-61.959 -98.911)" fill="none" stroke="#fff" stroke-linecap="round" stroke-linejoin="round" stroke-width="1"/><path d="M83.066,121.516a18,18,0,0,0-4.233-17.349" transform="translate(-61.248 -99.677)" fill="none" stroke="#fff" stroke-linecap="round" stroke-linejoin="round" stroke-width="1"/><path d="M82.795,121.836c2.693-.944,4.111-4.016,4.185-6.869.06-2.341-.16-4.885-1.513-6.8a10.728,10.728,0,0,0-6.049-4" transform="translate(-61.18 -99.677)" fill="none" stroke="#fff" stroke-linecap="round" stroke-linejoin="round" stroke-width="1"/><path d="M82.544,121.9a9.456,9.456,0,0,1-4.459-4.86,17.912,17.912,0,0,1-1.738-5.971c-.249-2.5.335-5.394,2.5-6.662" transform="translate(-61.545 -99.649)" fill="none" stroke="#fff" stroke-linecap="round" stroke-linejoin="round" stroke-width="1"/></g><g transform="translate(364.491 115.851)"><path d="M329.09,112.333s-4.84,9.867-.93,14.706,12.286,4.281,12.286,4.281L337.84,119.78Z" transform="translate(-326.223 -108.009)" fill="#7400cc8c"/><g transform="translate(0 0)"><path d="M330.5,111.855c2.792-3.072,5.68-4.2,11.169-2.792a8.5,8.5,0,0,1,6.015,5.744l-9.273,3.657Z" transform="translate(-325.771 -108.462)" fill="none" stroke="#fff" stroke-linecap="round" stroke-linejoin="round" stroke-width="1"/><path d="M341.787,129.461a10.747,10.747,0,0,0,6.143-5.026c.93-1.489.8-3.306.651-4.933-.122-1.3-.026-2.869-.651-4l-9.68,3.909Z" transform="translate(-324.865 -107.639)" fill="none" stroke="#fff" stroke-linecap="round" stroke-linejoin="round" stroke-width="1"/><path d="M329.412,112.333c-2.831,2.266-3.323,5.478-3.1,9.273a11.786,11.786,0,0,0,2.922,6.809,11.532,11.532,0,0,0,5.239,2.9c3.271.816,3.957,1.109,6.851-.547l-3.537-11.169Z" transform="translate(-326.266 -108.009)" fill="none" stroke="#fff" stroke-linecap="round" stroke-linejoin="round" stroke-width="1"/></g></g><g transform="translate(219.001 92.901)"><path d="M200.838,92.321a7.482,7.482,0,0,0-2.239,6.2,7.577,7.577,0,0,0,1.88,4.378,7.407,7.407,0,0,0,3.37,1.862c2.086.52,3.285.734,5.3-.122l.594-.281a8.086,8.086,0,0,0,3.634-4.35,8.778,8.778,0,0,0,.333-3.29,6.044,6.044,0,0,0-.724-2.332l-.321-.528a7.776,7.776,0,0,0-3.913-3.045c-3.468-1.128-5.17-.46-7.4,1.064Z" transform="translate(-195.705 -87.641)" fill="none" stroke="#fff" stroke-linecap="round" stroke-linejoin="round" stroke-width="1"/><path d="M203.087,94.621a3.765,3.765,0,0,0-1.126,3.122,3.818,3.818,0,0,0,.945,2.2,3.746,3.746,0,0,0,1.7.936,3.542,3.542,0,0,0,2.665-.061l.3-.142a4.066,4.066,0,0,0,1.828-2.188,4.413,4.413,0,0,0,.168-1.656,3.04,3.04,0,0,0-.364-1.173l-.161-.266a3.924,3.924,0,0,0-1.969-1.532,3.586,3.586,0,0,0-3.722.536Z" transform="translate(-195.311 -87.252)" fill="none" stroke="#fff" stroke-linecap="round" stroke-linejoin="round" stroke-width="1"/><path d="M202.551,91.268c-.018-.575-.064-1.855-.08-2.43a.529.529,0,0,1,.586-.619,12.426,12.426,0,0,1,2.891-.3,6.06,6.06,0,0,1,2.161.209.746.746,0,0,1,.4.35.847.847,0,0,1,.038.352c-.019.586-.107,1.846-.126,2.433" transform="translate(-195.25 -87.914)" fill="none" stroke="#fff" stroke-linecap="round" stroke-linejoin="round" stroke-width="1"/><path d="M210.224,92.536c.532-.217,1.716-.708,2.248-.925a.686.686,0,0,1,.3-.074c.219.013.37.219.484.407a12.429,12.429,0,0,1,1.293,2.6,6.066,6.066,0,0,1,.561,2.1.747.747,0,0,1-.189.5.852.852,0,0,1-.316.159c-.555.188-1.7.619-2.26.806" transform="translate(-194.344 -87.491)" fill="none" stroke="#fff" stroke-linecap="round" stroke-linejoin="round" stroke-width="1"/><path d="M211.955,100.158c.39.422,1.264,1.359,1.654,1.783a.529.529,0,0,1-.038.852,12.416,12.416,0,0,1-1.985,2.122,6.056,6.056,0,0,1-1.769,1.258.736.736,0,0,1-.531,0,.859.859,0,0,1-.26-.24c-.369-.455-1.129-1.465-1.5-1.92" transform="translate(-194.659 -86.483)" fill="none" stroke="#fff" stroke-linecap="round" stroke-linejoin="round" stroke-width="1"/><path d="M205.386,104.342c-.259.513-.832,1.66-1.091,2.172a.53.53,0,0,1-.812.262,12.366,12.366,0,0,1-2.683-1.117,6.046,6.046,0,0,1-1.8-1.216.748.748,0,0,1-.184-.5.856.856,0,0,1,.135-.327c.3-.506.977-1.57,1.274-2.076" transform="translate(-195.677 -86.321)" fill="none" stroke="#fff" stroke-linecap="round" stroke-linejoin="round" stroke-width="1"/><path d="M198.987,99.705c-.571-.064-1.845-.2-2.417-.262a.529.529,0,0,1-.529-.668,12.378,12.378,0,0,1,.108-2.9,6.057,6.057,0,0,1,.51-2.11.742.742,0,0,1,.4-.346.843.843,0,0,1,.354.012c.577.1,1.813.365,2.39.467" transform="translate(-196.006 -87.273)" fill="none" stroke="#fff" stroke-linecap="round" stroke-linejoin="round" stroke-width="1"/></g><g transform="translate(349.033 289.72)"><g transform="translate(0 9.204)"><path d="M320.75,354.525s27.923-72.6,29.04-74,5.585-2.234,10.89-2.513,19.546-.279,21.221.838,2.513,3.63,1.4,6.422-27.644,71.2-27.644,71.2Z" transform="translate(-311.453 -271.729)" fill="#7400cc8c"/><path d="M353.9,370.238a2.994,2.994,0,0,0,2.975-1.874c12.214-30.454,22.637-57.741,34.931-89.705,0,0,2.29-4.579-2.792-5.305-5.864-.838-36.021-.977-36.021-.977a5.389,5.389,0,0,0-5.305,3.63c-1.176,3.293-28.259,70.628-35.047,87.5a2.982,2.982,0,0,0,2.564,4.088Z" transform="translate(-312.427 -272.371)" fill="none" stroke="#fff" stroke-linecap="round" stroke-linejoin="round" stroke-width="1"/><path d="M349.875,370.177l4.6.331a2.992,2.992,0,0,0,2.961-1.876c12.18-30.445,21.8-55.374,34.1-87.342,0,0,1.489-4.282-2.141-6.888-1.315-.944-5.735-1.353-7.306-1.442" transform="translate(-308.048 -272.302)" fill="none" stroke="#fff" stroke-linecap="round" stroke-linejoin="round" stroke-width="1"/><path d="M355.725,357.053c10.139-25.237,18.7-47.658,28.842-74.022,0,0,1.847-3.7-2.253-4.281-4.732-.675-29.068-.789-29.068-.789a4.352,4.352,0,0,0-4.282,2.93c-1.085,3.039-29.518,73.683-29.518,73.683Z" transform="translate(-311.606 -271.718)" fill="none" stroke="#fff" stroke-linecap="round" stroke-linejoin="round" stroke-width="1"/><path d="M325.539,350.805c5.4-.044,10.971.57,16.83.911,0,0,1.262,1.521-.057,2.139l-17.2-1.107S323.913,350.816,325.539,350.805Z" transform="translate(-310.993 -263.201)" fill="none" stroke="#fff" stroke-linecap="round" stroke-linejoin="round" stroke-width="1"/><path d="M362.533,274.417c-1.024,0-1.675,1.955-.373,2.141,2.048.187,1.3-3.164-.093-1.768" transform="translate(-306.697 -272.132)" fill="none" stroke="#fff" stroke-linecap="round" stroke-linejoin="round" stroke-width="1"/></g><g transform="translate(63.746)"><path d="M378.266,305.095c-.279,1.4-.279,35.741.838,37.975a7.642,7.642,0,0,0,7.818,4.468c4.468-.279,14.241-1.117,15.916-1.955s2.513-3.63,2.513-9.215.279-39.93,0-41.326-1.955-2.513-4.468-2.513-17.591-.279-17.591-.279Z" transform="translate(-368.493 -260.843)" fill="#7400cc8c"/><path d="M408.455,291.32c-1.675,1.675-1.955,5.305-1.955,5.305s10.332,1.4,15.916,1.4,51.378-.558,53.612-.558,2.234-3.909.838-5.864-12.007-.279-12.007-.279Z" transform="translate(-365.174 -261.03)" fill="#7400cc8c"/><path d="M374.25,272.7a33.384,33.384,0,0,1,9.773-1.675c5.026,0,84.607.279,86.84,0s11.728-.558,13.4.279.559,6.981.559,6.981-8.656.558-9.773.558-85.724-.279-85.724-.279a9.33,9.33,0,0,0-3.63-4.468C383.185,272.7,374.25,272.7,374.25,272.7Z" transform="translate(-368.945 -263.357)" fill="#7400cc8c"/><path d="M369.611,273.476q-.022-1.087-.046-2.2s-.794-6.355,3.178-6.753,114.4-.4,114.4-.4,2.78.4,2.78,5.163.794,87.388.794,87.388.8,3.972-5.958,5.164c-7.308,1.289-107.248.794-107.248.794s-5.586.4-5.971-3.971c-.861-9.778-1.321-18.231-1.56-26.183" transform="translate(-369.5 -264.131)" fill="none" stroke="#fff" stroke-linecap="round" stroke-linejoin="round" stroke-width="1"/><path d="M373.5,273.249a3.1,3.1,0,0,1,.62-1.465,41.055,41.055,0,0,1,6.106-.447c3.715-.029,101.888-.372,101.888-.372a4.261,4.261,0,0,1,2.828.372c1.787,1.117.49,6.926.49,6.926s-.948.6-4.861.73c-5.629.193-68.183.078-90.5.031" transform="translate(-369.032 -263.343)" fill="none" stroke="#fff" stroke-linecap="round" stroke-linejoin="round" stroke-width="1"/><path d="M406.921,297.7c-1-.455-.743-5.126-.235-6.034a19.7,19.7,0,0,1,3.932-.389c2.391-.026,65.593-.325,65.593-.325a2.1,2.1,0,0,1,1.822.325c1.15.973.316,6.033.316,6.033s-.611.519-3.13.635c-4.4.2-64.127.013-64.127.013S407.218,297.838,406.921,297.7Z" transform="translate(-365.205 -261.004)" fill="none" stroke="#fff" stroke-linecap="round" stroke-linejoin="round" stroke-width="1"/><g transform="translate(5.885 3.145)"><path d="M375.258,267.08a1.236,1.236,0,0,0,1.408,2.029,1.255,1.255,0,0,0,.263-1.793,1.194,1.194,0,0,0-1.785.064" transform="translate(-374.769 -266.947)" fill="none" stroke="#fff" stroke-linecap="round" stroke-linejoin="round" stroke-width="1"/><path d="M380.1,267.08a1.236,1.236,0,0,0,1.408,2.029,1.254,1.254,0,0,0,.264-1.793,1.2,1.2,0,0,0-1.786.064" transform="translate(-374.203 -266.947)" fill="none" stroke="#fff" stroke-linecap="round" stroke-linejoin="round" stroke-width="1"/><path d="M384.939,267.08a1.236,1.236,0,0,0,1.408,2.029,1.255,1.255,0,0,0,.262-1.793,1.194,1.194,0,0,0-1.785.064" transform="translate(-373.637 -266.947)" fill="none" stroke="#fff" stroke-linecap="round" stroke-linejoin="round" stroke-width="1"/></g><path d="M388.394,283.184c27.8-.194,94.754-.194,94.754-.194s2.59.37,2.59,4.809.1,60.93.1,60.93.739,3.7-5.549,4.808c-6.805,1.2-99.877.741-99.877.741s-5.2.372-5.56-3.7c-1.421-16.122-1.5-22.971-1.346-30.352" transform="translate(-369.038 -261.926)" fill="none" stroke="#fff" stroke-linecap="round" stroke-linejoin="round" stroke-width="1"/><path d="M383.77,292.376c6.62-.15,19.814-.15,19.814-.15s2,.285,2,3.708.079,46.981.079,46.981.571,2.852-4.278,3.707c-5.247.926-18.045.571-18.045.571s-4.011.287-4.287-2.852c-1.849-20.994-.754-21.594-.809-38.22" transform="translate(-368.51 -260.846)" fill="none" stroke="#fff" stroke-linecap="round" stroke-linejoin="round" stroke-width="1"/><path d="M408.648,302.362h66.434" transform="translate(-364.923 -259.661)" fill="none" stroke="#fff" stroke-linecap="round" stroke-linejoin="round" stroke-width="1"/><path d="M408.648,307.429h66.434" transform="translate(-364.923 -259.069)" fill="none" stroke="#fff" stroke-linecap="round" stroke-linejoin="round" stroke-width="1"/><path d="M408.648,312.5h66.434" transform="translate(-364.923 -258.476)" fill="none" stroke="#fff" stroke-linecap="round" stroke-linejoin="round" stroke-width="1"/><path d="M408.648,317.565h66.434" transform="translate(-364.923 -257.884)" fill="none" stroke="#fff" stroke-linecap="round" stroke-linejoin="round" stroke-width="1"/><path d="M408.648,322.633h66.434" transform="translate(-364.923 -257.291)" fill="none" stroke="#fff" stroke-linecap="round" stroke-linejoin="round" stroke-width="1"/><path d="M408.648,327.7h66.434" transform="translate(-364.923 -256.699)" fill="none" stroke="#fff" stroke-linecap="round" stroke-linejoin="round" stroke-width="1"/><path d="M408.648,332.768h66.434" transform="translate(-364.923 -256.106)" fill="none" stroke="#fff" stroke-linecap="round" stroke-linejoin="round" stroke-width="1"/><path d="M408.648,337.836h66.434" transform="translate(-364.923 -255.513)" fill="none" stroke="#fff" stroke-linecap="round" stroke-linejoin="round" stroke-width="1"/></g></g><g transform="translate(217.502 350.188)"><g transform="translate(5.173)"><path d="M208.878,342.4c-.977,5.585-2.165,9.425-5.585,7.679-.391-.39.48-2.846.977-5.166a39.54,39.54,0,0,0,.512-4.1s.523-4.821-.413-6.784a40.67,40.67,0,0,0-2.653-5.6c-2.394-3.809-4.841-10.467,2.331-10.152,8.591.431,12.091,17.281,11.532,23.424" transform="translate(-199.295 -318.268)" fill="none" stroke="#fff" stroke-linecap="round" stroke-linejoin="round" stroke-width="1"/></g><path d="M211.957,328.238c1.187-1.063,1.336-2.859,1.2-4.446s-.843-3.352-.316-4.855c.112-.318.7-.548,1.032-.585a.879.879,0,0,1,.544.173,5.224,5.224,0,0,1,2.031,4.139,12,12,0,0,1-3.424,9.29" transform="translate(-192.642 -318.259)" fill="none" stroke="#fff" stroke-linecap="round" stroke-linejoin="round" stroke-width="1"/><path d="M202.579,328.344c-1.588-.128-2.647-1.392-3.5-2.736s-1.358-3.179-2.687-4.057a1.387,1.387,0,0,0-1.176.16.88.88,0,0,0-.328.466,5.228,5.228,0,0,0,.89,4.525c1.842,2.864,4.988,5.413,8.479,5.692" transform="translate(-194.664 -317.894)" fill="none" stroke="#fff" stroke-linecap="round" stroke-linejoin="round" stroke-width="1"/><path d="M207.88,340.914a19.337,19.337,0,0,0,4.616-1.131" transform="translate(-193.118 -315.753)" fill="none" stroke="#fff" stroke-linecap="round" stroke-linejoin="round" stroke-width="1"/><path d="M209.5,341.594a7.621,7.621,0,0,1,1.109,4.706,5.872,5.872,0,0,0,.042,1.651,1.443,1.443,0,0,0,1.067,1.143,1.375,1.375,0,0,0,1.271-.643,3.806,3.806,0,0,0,.5-1.4A40.11,40.11,0,0,0,213.27,330" transform="translate(-192.929 -316.897)" fill="none" stroke="#fff" stroke-linecap="round" stroke-linejoin="round" stroke-width="1"/></g><g transform="translate(45.829 350.188)"><g transform="translate(2.327)"><path d="M49.8,342.4c.977,5.585,2.165,9.425,5.585,7.679.391-.39-.48-2.846-.977-5.166a39.853,39.853,0,0,1-.512-4.1s-.523-4.821.413-6.784a40.69,40.69,0,0,1,2.654-5.6c2.392-3.809,4.84-10.467-2.332-10.152C46.043,318.71,42.544,335.56,43.1,341.7" transform="translate(-43.045 -318.268)" fill="none" stroke="#fff" stroke-linecap="round" stroke-linejoin="round" stroke-width="1"/></g><path d="M45.488,328.238c-1.186-1.063-1.336-2.859-1.2-4.446s.843-3.352.316-4.855c-.112-.318-.7-.548-1.032-.585a.884.884,0,0,0-.544.173A5.22,5.22,0,0,0,41,322.664a12,12,0,0,0,3.423,9.29" transform="translate(-40.962 -318.259)" fill="none" stroke="#fff" stroke-linecap="round" stroke-linejoin="round" stroke-width="1"/><path d="M55.4,328.344c1.588-.128,2.647-1.392,3.5-2.736s1.358-3.179,2.687-4.057a1.386,1.386,0,0,1,1.176.16.874.874,0,0,1,.328.466,5.221,5.221,0,0,1-.89,4.525c-1.842,2.864-4.988,5.413-8.479,5.692" transform="translate(-39.47 -317.894)" fill="none" stroke="#fff" stroke-linecap="round" stroke-linejoin="round" stroke-width="1"/><path d="M49.574,340.914a19.315,19.315,0,0,1-4.615-1.131" transform="translate(-40.494 -315.753)" fill="none" stroke="#fff" stroke-linecap="round" stroke-linejoin="round" stroke-width="1"/><path d="M47.978,341.594A7.613,7.613,0,0,0,46.87,346.3a5.914,5.914,0,0,1-.044,1.651,1.443,1.443,0,0,1-1.067,1.143,1.375,1.375,0,0,1-1.271-.643,3.785,3.785,0,0,1-.5-1.4A40.092,40.092,0,0,1,44.2,330" transform="translate(-40.703 -316.897)" fill="none" stroke="#fff" stroke-linecap="round" stroke-linejoin="round" stroke-width="1"/></g><g transform="translate(248.065 353.446)"><g transform="translate(0.489)"><path d="M232.048,345.318c-.977,5.585-2.163,9.423-5.585,7.679-.39-.39.48-2.847.977-5.166a39.543,39.543,0,0,0,.512-4.1s.523-4.821-.413-6.785a40.528,40.528,0,0,0-2.653-5.6c-2.394-3.81-4.841-10.467,2.331-10.152,8.591.431,12.091,17.281,11.532,23.424" transform="translate(-222.465 -321.185)" fill="none" stroke="#fff" stroke-linecap="round" stroke-linejoin="round" stroke-width="1"/><path d="M231.05,343.83a19.322,19.322,0,0,0,4.616-1.13" transform="translate(-221.461 -318.67)" fill="none" stroke="#fff" stroke-linecap="round" stroke-linejoin="round" stroke-width="1"/><path d="M232.666,344.511a7.611,7.611,0,0,1,1.109,4.7,5.878,5.878,0,0,0,.044,1.652,1.438,1.438,0,0,0,1.066,1.141,1.372,1.372,0,0,0,1.271-.643,3.806,3.806,0,0,0,.5-1.4,40.1,40.1,0,0,0-.219-17.044" transform="translate(-221.272 -319.814)" fill="none" stroke="#fff" stroke-linecap="round" stroke-linejoin="round" stroke-width="1"/></g><path d="M235.342,331.179a8.345,8.345,0,0,1,4.531,1.725,5.719,5.719,0,0,1,2.172,4.242,4.374,4.374,0,0,1-2.387,3.994,2,2,0,0,1-2.472-.384c-.5-.748-.105-1.748.317-2.542a2.867,2.867,0,0,0,.46-2.544,2.757,2.757,0,0,0-1.539-1.1" transform="translate(-220.471 -320.017)" fill="none" stroke="#fff" stroke-linecap="round" stroke-linejoin="round" stroke-width="1"/><path d="M226.135,332.667a10.186,10.186,0,0,0-2.373.838,4.3,4.3,0,0,0-1.675,4.328,4.5,4.5,0,0,0,3.072,3.63c.754.222,1.2.619,1.883.235a1.826,1.826,0,0,0,.933-1.978c-.284-1.019-1.427-.984-1.978-1.886-.174-.286-.832-.95-.7-1.257.1-.231.066-.563.279-.7.56-.355.761-.794,1.4-.977" transform="translate(-222.027 -319.843)" fill="none" stroke="#fff" stroke-linecap="round" stroke-linejoin="round" stroke-width="1"/></g><g transform="translate(329.487 366.3)"><path d="M302.419,347.164a6.864,6.864,0,0,0-2.3-1.789,11.718,11.718,0,0,1-4.44-5.1,6.293,6.293,0,0,1-.642-3.188c.261-2.473,2.764-4.295,5.251-4.388a9.633,9.633,0,0,1,6.674,2.885,16.277,16.277,0,0,1,4.988,9.365c.346,2.228.144,4.718-1.354,6.4" transform="translate(-294.917 -332.695)" fill="none" stroke="#fff" stroke-linecap="round" stroke-linejoin="round" stroke-width="1"/><path d="M306.515,348.943c-.613,1.014-.449,2.234-.453,3.579a5.065,5.065,0,0,0,.618,1.528,2.012,2.012,0,0,0,2.063.689,8.944,8.944,0,0,0,2.979-.875,2.73,2.73,0,0,0,1.02-.764,1.152,1.152,0,0,0,.144-1.207c-.633-1.131-2.914-.038-3.466-1.211a1.716,1.716,0,0,1,.083-1.243" transform="translate(-293.627 -330.795)" fill="none" stroke="#fff" stroke-linecap="round" stroke-linejoin="round" stroke-width="1"/><path d="M299.5,348.81a2.9,2.9,0,0,0-.635,1.1,11.491,11.491,0,0,0,.128,5.023c.032.153,0,.326.1.449a.7.7,0,0,0,.416.2,2.377,2.377,0,0,0,1.838-.085c.862-.574.608-1.876.842-2.886.4-1.72,2.442-2.638,4.19-2.381" transform="translate(-294.492 -330.81)" fill="none" stroke="#fff" stroke-linecap="round" stroke-linejoin="round" stroke-width="1"/><path d="M299.493,343.2a3.561,3.561,0,0,1-1.9,2.426,6.677,6.677,0,0,0-2.438,2.016,1.388,1.388,0,0,0-.216.863,1.456,1.456,0,0,0,1.272,1.05,3.954,3.954,0,0,0,3.335-1.153,8.216,8.216,0,0,0,1.878-3.109" transform="translate(-294.927 -331.466)" fill="none" stroke="#fff" stroke-linecap="round" stroke-linejoin="round" stroke-width="1"/><path d="M305.763,342.352a2.947,2.947,0,0,1-.983,2.726,13.572,13.572,0,0,1-2.523,1.681,15.8,15.8,0,0,0-2.213,1.621,1.911,1.911,0,0,0-.668.895,1.282,1.282,0,0,0,.6,1.326,2.435,2.435,0,0,0,1.492.312,7.46,7.46,0,0,0,4.465-2.4c1.489-1.441,2.83-3.352,2.572-5.407" transform="translate(-294.41 -331.565)" fill="none" stroke="#fff" stroke-linecap="round" stroke-linejoin="round" stroke-width="1"/></g><g transform="translate(417.187 219.945)"><path d="M378.49,216.59a7.9,7.9,0,0,1,11.177-7.289,12.718,12.718,0,0,1,4.509,3.9" transform="translate(-372.857 -200.847)" fill="none" stroke="#fff" stroke-linecap="round" stroke-linejoin="round" stroke-width="1"/><path d="M389.005,210.419a7.888,7.888,0,0,1,2.875-6.328,10.984,10.984,0,0,1,6.648-2.421,7.844,7.844,0,0,1,5.94,1.931,10.874,10.874,0,0,1,2.306,4.876" transform="translate(-371.628 -201.659)" fill="none" stroke="#fff" stroke-linecap="round" stroke-linejoin="round" stroke-width="1"/><path d="M402.431,211.207c-.084-1.641,1.719-2.65,3.247-3.255a11.616,11.616,0,0,1,3.716-1.009,7.513,7.513,0,0,1,6.449,3.9,15.559,15.559,0,0,1,1.815,7.612" transform="translate(-370.058 -201.042)" fill="none" stroke="#fff" stroke-linecap="round" stroke-linejoin="round" stroke-width="1"/><path d="M380.021,212.526c-5.77-1.489-6.87,4.089-6.515,6.143.214,1.243,1.609,1.98,2.792,2.42a17.324,17.324,0,0,0,4.729.333l14.273.109c7.1.054,14.2.108,21.294-.013,1.626-.028,8.466.016,9.965-.615s1.341-1.358,1.489-2.979c.373-4.095-4.468-6.887-6.7-4.281" transform="translate(-373.446 -200.418)" fill="none" stroke="#fff" stroke-linecap="round" stroke-linejoin="round" stroke-width="1"/></g><g transform="translate(199.262 168.667)"><g transform="translate(38.912 8.042)"><path d="M234.223,173.761s-2.419-6.888-6.143-7.26-11.913,6.515-11.913,6.515S231.245,173.948,234.223,173.761Z" transform="translate(-212.822 -162.535)" fill="#7400cc8c"/><path d="M213.172,172.728a74.571,74.571,0,0,1,10.712-8.42,5.665,5.665,0,0,1,3.592-1.344c1,.1,2.8.317,3.561.973a19.007,19.007,0,0,1,4.655,5.766l2.4,4.12" transform="translate(-213.172 -162.949)" fill="none" stroke="#fff" stroke-linecap="round" stroke-linejoin="round" stroke-width="1"/><path d="M216.753,173.008c2.273-2.476,4.618-3.681,7.414-5.548.985-.657,2.308-1.671,3.473-1.458a4.782,4.782,0,0,1,2.606,1.489,36.725,36.725,0,0,1,4.386,6.368" transform="translate(-212.753 -162.595)" fill="none" stroke="#fff" stroke-linecap="round" stroke-linejoin="round" stroke-width="1"/></g><path d="M271.779,155.749c8.128.1,17.052.319,27.089.684a372.356,372.356,0,0,1,45.586,4.144l3.869.728c4.517.948,8.513,2.232,9.41,3.319,1.143,1.391-2.291,2.777-6.016,4.108-6.352,2.271-21.914,4.735-39.959,5.613l-5.8.367c-20.946,1.207-40.036,1.061-64.658.362-14.417-.409-28.942-1.28-39.446-2.475-11.931-1.355-22.291-3.636-23.289-5.548-1.688-3.246,6.445-6.47,24.492-8.52l5.583-.634c15.553-1.21,29.473-2,47.317-2.147" transform="translate(-178.331 -155.749)" fill="none" stroke="#fff" stroke-linecap="round" stroke-linejoin="round" stroke-width="1"/><path d="M178.333,165.862c8.509,24.652,25.695,52.452,68.326,91.393l3.488,22.577s5.114,1.091,18.135,1.309a80.069,80.069,0,0,0,17.21-1.964l2.327-21.378c37.066-29.451,60.19-65.664,70.224-93.806" transform="translate(-178.333 -154.785)" fill="none" stroke="#fff" stroke-linecap="round" stroke-linejoin="round" stroke-width="1"/><g transform="translate(109.158 10.616)"><path d="M276.064,174.246a38.778,38.778,0,0,1,2.932-6.39c.666-1.16,1.557-2.4,2.883-2.58a4.581,4.581,0,0,1,2.378.535,122.266,122.266,0,0,1,13.7,7.349" transform="translate(-276.064 -165.253)" fill="none" stroke="#fff" stroke-linecap="round" stroke-linejoin="round" stroke-width="1"/><path d="M280.12,165.286a1.72,1.72,0,0,0,.232,1.725c1.513,2.424,3.189,5.774,3.747,6.7" transform="translate(-275.607 -165.25)" fill="none" stroke="#fff" stroke-linecap="round" stroke-linejoin="round" stroke-width="1"/></g></g></g><path d="M0,0H13.4S24.572,1.117,24.572,11.169,11.541,21.595,11.541,21.595H.745" transform="translate(24.572 115.118) rotate(180)" fill="none" stroke="#fff" stroke-linecap="round" stroke-linejoin="round" stroke-width="1"/><path d="M0,0H7.432s8.577.857,8.577,8.577S6,16.582,6,16.582H.572" transform="translate(21.593 112.612) rotate(180)" fill="none" stroke="#fff" stroke-linecap="round" stroke-linejoin="round" stroke-width="1"/></g></svg>