<svg xmlns="http://www.w3.org/2000/svg" width="155.447" height="249" viewBox="0 0 155.447 249">   <g id="Grupo_449" data-name="Grupo 449" transform="translate(-1832.678 -1550.136)">     <path id="freepik--Shadow--inject-62" d="M345.588,277.915l9.882-5.7,40.47,23.358,42.839-24.738L350.529,219.88,297.8,250.33Z" transform="translate(1534.878 1474.618)" fill="#e0e0e0"></path>     <ellipse id="freepik--shadow--inject-62-2" data-name="freepik--shadow--inject-62" cx="33.8" cy="19.513" rx="33.8" ry="19.513" transform="translate(1860.345 1760.111)" fill="#e0e0e0"></ellipse>     <g id="freepik--Plant--inject-62" transform="translate(1960.332 1686.312)">       <g id="freepik--Plants--inject-62">         <path id="Caminho_765" data-name="Caminho 765" d="M456.714,259.266a54.253,54.253,0,0,1,3.245-35.2c3.919-8.024,11.294-14.912,17.785-14.223,6.085.649,7.148,8.2,1.412,14.661s-15.781,18.726-18.166,26.839c-1.623,5.355-2.434,8.835-2.434,8.835Z" transform="translate(-455.138 -209.791)" fill="#8f00fc"></path>         <path id="Caminho_766" data-name="Caminho 766" d="M456.714,259.266a54.253,54.253,0,0,1,3.245-35.2c3.919-8.024,11.294-14.912,17.785-14.223,6.085.649,7.148,8.2,1.412,14.661s-15.781,18.726-18.166,26.839c-1.623,5.355-2.434,8.835-2.434,8.835Z" transform="translate(-455.138 -209.791)" opacity="0.15"></path>         <path id="Caminho_767" data-name="Caminho 767" d="M457.468,257.127a.389.389,0,0,0,.276-.389c-.535-18.661,10.62-36.437,18.547-41.605a.4.4,0,0,0,.114-.544.389.389,0,0,0-.544-.114c-8.073,5.266-19.472,23.35-18.9,42.287a.381.381,0,0,0,.4.381Z" transform="translate(-455.479 -210.662)" fill="#fff"></path>         <path id="Caminho_768" data-name="Caminho 768" d="M457.861,274.506c.17-3.132,3.505-7.01,8.405-12.332,5.428-5.89,13.095-9.736,14.19-13.647,1.314-4.657-3.067-7.781-9.485-5.468s-15.983,13.947-14.766,27.934Z" transform="translate(-455.319 -215.92)" fill="#8f00fc"></path>         <path id="Caminho_769" data-name="Caminho 769" d="M456.751,274.339a.389.389,0,0,0,.268-.325c2.012-16.543,12.47-24.559,17.72-26.482a.393.393,0,1,0-.268-.738c-5.8,2.134-16.17,10.239-18.231,27.123a.4.4,0,0,0,.349.438A.374.374,0,0,0,456.751,274.339Z" transform="translate(-455.345 -216.768)" fill="#fff"></path>       </g>     </g>     <g id="freepik--Boxes--inject-62" transform="translate(1836.305 1637.161)">       <g id="freepik--boxes--inject-62-2" data-name="freepik--boxes--inject-62" transform="translate(0 8.478)">         <path id="Caminho_770" data-name="Caminho 770" d="M306.6,219.3l35.926-20.778,40.8,23.61-35.934,20.787Z" transform="translate(-303.087 -166.991)" fill="#8f00fc"></path>         <g id="Grupo_159" data-name="Grupo 159" transform="translate(3.513 31.529)" opacity="0.7">           <path id="Caminho_771" data-name="Caminho 771" d="M306.6,219.3l35.926-20.778,40.8,23.61-35.934,20.787Z" transform="translate(-306.6 -198.52)" fill="#fff"></path>         </g>         <path id="Caminho_772" data-name="Caminho 772" d="M379.373,219.7,344.5,239.874,307.91,218.69l34.863-20.17Z" transform="translate(-303.334 -166.991)" opacity="0.1"></path>         <path id="Caminho_773" data-name="Caminho 773" d="M347.394,274.725,306.6,251.115V224.13l40.794,23.618Z" transform="translate(-303.087 -171.823)" fill="#8f00fc"></path>         <g id="Grupo_160" data-name="Grupo 160" transform="translate(3.513 52.307)" opacity="0.6">           <path id="Caminho_774" data-name="Caminho 774" d="M347.394,274.725,306.6,251.115V224.13l40.794,23.618Z" transform="translate(-306.6 -224.13)" fill="#fff"></path>         </g>         <path id="Caminho_775" data-name="Caminho 775" d="M350.463,274.052a2.588,2.588,0,0,1-1.1-2.085v-3.2l2.247,1.314h.146v.211h0v2.856a1.079,1.079,0,0,1-.438.974.811.811,0,0,1-.357.089,1.015,1.015,0,0,1-.495-.162Zm.227-3.473-.162,1.12h-.811v.235a2.264,2.264,0,0,0,.974,1.809.479.479,0,0,0,.479.049c.17-.089.26-.333.26-.657V270.49Zm-.316-.308.657-.122-1.331-.811v2.053h.519Z" transform="translate(-311.154 -180.245)" fill="#455a64"></path>         <path id="Caminho_776" data-name="Caminho 776" d="M350.8,277.621a.178.178,0,0,0,.178-.178v-2.434a.183.183,0,0,0-.365,0v2.434a.178.178,0,0,0,.187.178Z" transform="translate(-311.39 -181.388)" fill="#455a64"></path>         <path id="Caminho_777" data-name="Caminho 777" d="M351.594,278.637a.17.17,0,0,0,.154-.089.179.179,0,0,0-.065-.243l-2.085-1.2a.17.17,0,0,0-.243.065.178.178,0,0,0,.065.243l2.077,1.225A.185.185,0,0,0,351.594,278.637Z" transform="translate(-311.149 -181.812)" fill="#455a64"></path>         <path id="Caminho_778" data-name="Caminho 778" d="M342.824,272.862a.365.365,0,0,0,.2-.057.479.479,0,0,0,.211-.43v-.495a.178.178,0,1,0-.357,0v.495a.194.194,0,0,1,0,.122h-.122a1.055,1.055,0,0,1-.333-.811v-3.2a.178.178,0,0,0-.357,0v3.2a1.355,1.355,0,0,0,.511,1.12.527.527,0,0,0,.243.057Z" transform="translate(-309.778 -180.158)" fill="#455a64"></path>         <path id="Caminho_779" data-name="Caminho 779" d="M339.394,266.63v-.105a1.517,1.517,0,0,1,2.475-1.428,5.087,5.087,0,0,1,2.3,3.984v.308Zm.917-1.379a1.355,1.355,0,0,0-.56,1.176l4.057,2.329a4.722,4.722,0,0,0-2.1-3.343,1.809,1.809,0,0,0-.893-.284A.965.965,0,0,0,340.311,265.25Z" transform="translate(-309.269 -179.484)" fill="#455a64"></path>         <path id="Caminho_780" data-name="Caminho 780" d="M334.958,267.874a.178.178,0,0,0,.179-.178v-6.118a.178.178,0,0,0-.357,0V267.7A.179.179,0,0,0,334.958,267.874Z" transform="translate(-308.403 -178.854)" fill="#455a64"></path>         <path id="Caminho_781" data-name="Caminho 781" d="M335.353,262.942h.073a.179.179,0,0,0,.1-.235l-.641-1.477-.714.811a.179.179,0,1,0,.268.235l.341-.389.414.949a.178.178,0,0,0,.162.106Z" transform="translate(-308.278 -178.822)" fill="#455a64"></path>         <path id="Caminho_782" data-name="Caminho 782" d="M332.958,266.7a.179.179,0,0,0,.179-.178v-6.117a.178.178,0,1,0-.357,0v6.126A.178.178,0,0,0,332.958,266.7Z" transform="translate(-308.026 -178.634)" fill="#455a64"></path>         <path id="Caminho_783" data-name="Caminho 783" d="M333.311,261.761h.065a.178.178,0,0,0,.1-.235L332.824,260l-.714.811a.181.181,0,0,0,.276.235l.333-.389.414.957A.187.187,0,0,0,333.311,261.761Z" transform="translate(-307.891 -178.59)" fill="#455a64"></path>         <path id="Caminho_784" data-name="Caminho 784" d="M356.88,275.392l35.934-20.786V227.62L356.88,248.407Z" transform="translate(-312.573 -172.481)" fill="#8f00fc"></path>         <g id="Grupo_161" data-name="Grupo 161" transform="translate(44.307 55.139)" opacity="0.4">           <path id="Caminho_785" data-name="Caminho 785" d="M356.88,275.392l35.934-20.786V227.62L356.88,248.407Z" transform="translate(-356.88 -227.62)" fill="#fff"></path>         </g>         <path id="Caminho_786" data-name="Caminho 786" d="M380.577,243.255l-2.637,1.525v-4.105l2.637-1.525Z" transform="translate(-316.546 -174.657)" fill="#37474f"></path>         <path id="Caminho_787" data-name="Caminho 787" d="M368.452,235.185l-40.8-23.61,2.645-1.525,40.794,23.61Z" transform="translate(-307.058 -169.167)" fill="#455a64"></path>         <path id="Caminho_788" data-name="Caminho 788" d="M375.068,235.97l-2.637,1.525-1.5-.852,2.653-1.533Z" transform="translate(-315.224 -173.895)" fill="#37474f"></path>         <path id="Caminho_789" data-name="Caminho 789" d="M392.56,248.523l-9.339,5.4a.917.917,0,0,0-.422.73v6.491c0,.535.381.755.811.487l9.339-5.4a.957.957,0,0,0,.422-.73V249.01C393.4,248.475,393.023,248.256,392.56,248.523Z" transform="translate(-317.463 -176.404)" fill="#fafafa"></path>         <path id="Caminho_790" data-name="Caminho 790" d="M395.046,249.79l-.316.187V255.7l.316-.178Z" transform="translate(-319.714 -176.664)" fill="#455a64"></path>         <path id="Caminho_791" data-name="Caminho 791" d="M393.394,250.71l-.544.325v5.728l.544-.316Z" transform="translate(-319.359 -176.838)" fill="#455a64"></path>         <path id="Caminho_792" data-name="Caminho 792" d="M391.856,251.63l-.316.187v5.728l.316-.179Z" transform="translate(-319.112 -177.011)" fill="#455a64"></path>         <path id="Caminho_793" data-name="Caminho 793" d="M390.581,252.32l-.641.373v5.728l.641-.373Z" transform="translate(-318.81 -177.141)" fill="#455a64"></path>         <path id="Caminho_794" data-name="Caminho 794" d="M388.666,253.47l-.316.187v5.728l.316-.178Z" transform="translate(-318.51 -177.358)" fill="#455a64"></path>         <path id="Caminho_795" data-name="Caminho 795" d="M387.432,254.12l-.682.406v5.728l.682-.4Z" transform="translate(-318.208 -177.481)" fill="#455a64"></path>         <path id="Caminho_796" data-name="Caminho 796" d="M385.476,255.31l-.316.187v5.728l.316-.179Z" transform="translate(-317.908 -177.705)" fill="#455a64"></path>         <path id="Caminho_797" data-name="Caminho 797" d="M384.6,255.83l-.162.089v5.736l.162-.1Z" transform="translate(-317.772 -177.804)" fill="#455a64"></path>         <path id="Caminho_798" data-name="Caminho 798" d="M386.242,254.93l-.162.089v5.736l.162-.1Z" transform="translate(-318.082 -177.634)" fill="#455a64"></path>         <path id="Caminho_799" data-name="Caminho 799" d="M389.452,253.05l-.162.089v5.736l.162-.1Z" transform="translate(-318.687 -177.279)" fill="#455a64"></path>         <path id="Caminho_800" data-name="Caminho 800" d="M391.212,252.04l-.162.089v5.728l.162-.089Z" transform="translate(-319.019 -177.089)" fill="#455a64"></path>         <path id="Caminho_801" data-name="Caminho 801" d="M392.472,251.34l-.162.1v5.728l.162-.1Z" transform="translate(-319.257 -176.957)" fill="#455a64"></path>         <path id="Caminho_802" data-name="Caminho 802" d="M394.184,250.3l-.154.089v5.736l.154-.1Z" transform="translate(-319.582 -176.76)" fill="#455a64"></path>         <path id="Caminho_803" data-name="Caminho 803" d="M383.884,256.23l-.325.187v5.728l.325-.178Z" transform="translate(-317.606 -177.879)" fill="#455a64"></path>         <path id="Caminho_804" data-name="Caminho 804" d="M302.27,180.438,338.2,159.66l40.794,23.61-35.926,20.778Z" transform="translate(-302.27 -159.66)" fill="#8f00fc"></path>         <g id="Grupo_162" data-name="Grupo 162" opacity="0.8">           <path id="Caminho_805" data-name="Caminho 805" d="M302.27,180.438,338.2,159.66l40.794,23.61-35.926,20.778Z" transform="translate(-302.27 -159.66)" fill="#fff"></path>         </g>         <path id="Caminho_806" data-name="Caminho 806" d="M343.064,235.865l-40.794-23.61V185.27l40.794,23.61Z" transform="translate(-302.27 -164.492)" fill="#8f00fc"></path>         <g id="Grupo_163" data-name="Grupo 163" transform="translate(0 20.778)" opacity="0.7">           <path id="Caminho_807" data-name="Caminho 807" d="M343.064,235.865l-40.794-23.61V185.27l40.794,23.61Z" transform="translate(-302.27 -185.27)" fill="#fff"></path>         </g>         <path id="Caminho_808" data-name="Caminho 808" d="M346.133,235.192a2.588,2.588,0,0,1-1.1-2.093V229.91l2.239,1.314h.146v.211h0v2.856a1.055,1.055,0,0,1-.438.965.666.666,0,0,1-.349.1A.99.99,0,0,1,346.133,235.192Zm.252-3.448-.17,1.128H345.4v.227a2.247,2.247,0,0,0,.925,1.777.479.479,0,0,0,.487.057.738.738,0,0,0,.26-.657v-2.669Zm-.325-.308.665-.114-1.339-.811v1.972h.519Z" transform="translate(-310.337 -172.913)" fill="#455a64"></path>         <path id="Caminho_809" data-name="Caminho 809" d="M346.459,238.761a.179.179,0,0,0,.178-.179v-2.434a.178.178,0,0,0-.357,0v2.434A.178.178,0,0,0,346.459,238.761Z" transform="translate(-310.573 -174.057)" fill="#455a64"></path>         <path id="Caminho_810" data-name="Caminho 810" d="M347.266,239.778a.187.187,0,0,0,.17-.122.179.179,0,0,0-.065-.243l-2.093-1.209a.178.178,0,1,0-.178.308l2.093,1.209a.162.162,0,0,0,.073.057Z" transform="translate(-310.333 -174.474)" fill="#455a64"></path>         <path id="Caminho_811" data-name="Caminho 811" d="M338.442,233.993a.406.406,0,0,0,.195-.049.479.479,0,0,0,.219-.43v-.495a.183.183,0,0,0-.365,0v.617a.211.211,0,0,1-.114,0,1.054,1.054,0,0,1-.341-.811v-3.2a.178.178,0,0,0-.357,0v3.2a1.371,1.371,0,0,0,.511,1.12.56.56,0,0,0,.252.049Z" transform="translate(-308.95 -172.827)" fill="#455a64"></path>         <path id="Caminho_812" data-name="Caminho 812" d="M335.057,227.769v-.105a1.7,1.7,0,0,1,.738-1.623,1.728,1.728,0,0,1,1.744.154,5.087,5.087,0,0,1,2.3,3.984v.308Zm.917-1.379a1.306,1.306,0,0,0-.552,1.168l4.057,2.337a4.787,4.787,0,0,0-2.1-3.351,1.818,1.818,0,0,0-.9-.276.982.982,0,0,0-.5.122Z" transform="translate(-308.453 -172.152)" fill="#455a64"></path>         <path id="Caminho_813" data-name="Caminho 813" d="M330.618,229.013a.178.178,0,0,0,.178-.187v-6.117a.178.178,0,1,0-.357,0v6.117a.179.179,0,0,0,.179.187Z" transform="translate(-307.585 -171.521)" fill="#455a64"></path>         <path id="Caminho_814" data-name="Caminho 814" d="M331.02,224.07h.073a.187.187,0,0,0,.089-.243l-.641-1.477-.714.811a.17.17,0,0,0,0,.252.179.179,0,0,0,.252,0l.341-.389.414.949A.17.17,0,0,0,331.02,224.07Z" transform="translate(-307.459 -171.487)" fill="#455a64"></path>         <path id="Caminho_815" data-name="Caminho 815" d="M328.568,227.844a.179.179,0,0,0,.178-.178v-6.117a.178.178,0,0,0-.357,0v6.117A.179.179,0,0,0,328.568,227.844Z" transform="translate(-307.198 -171.302)" fill="#455a64"></path>         <path id="Caminho_816" data-name="Caminho 816" d="M328.976,222.91h.073a.179.179,0,0,0,.089-.235l-.633-1.485-.714.811a.179.179,0,0,0,.268.235l.341-.389.414.949A.187.187,0,0,0,328.976,222.91Z" transform="translate(-307.078 -171.268)" fill="#455a64"></path>         <path id="Caminho_817" data-name="Caminho 817" d="M352.55,236.523l35.926-20.778V188.76L352.55,209.538Z" transform="translate(-311.756 -165.15)" fill="#8f00fc"></path>         <g id="Grupo_164" data-name="Grupo 164" transform="translate(40.794 23.61)" opacity="0.6">           <path id="Caminho_818" data-name="Caminho 818" d="M352.55,236.523l35.926-20.778V188.76L352.55,209.538Z" transform="translate(-352.55 -188.76)" fill="#fff"></path>         </g>         <path id="Caminho_819" data-name="Caminho 819" d="M376.245,204.387l-2.645,1.525v-4.1l2.645-1.525Z" transform="translate(-315.727 -167.325)" fill="#37474f"></path>         <path id="Caminho_820" data-name="Caminho 820" d="M364.114,196.325l-40.794-23.61,2.637-1.525,40.8,23.61Z" transform="translate(-306.241 -161.835)" fill="#455a64"></path>         <path id="Caminho_821" data-name="Caminho 821" d="M388.224,209.654l-9.322,5.4a.957.957,0,0,0-.422.73v6.491c0,.527.381.746.811.479l9.347-5.379a.933.933,0,0,0,.422-.73v-6.491C389.068,209.606,388.695,209.395,388.224,209.654Z" transform="translate(-316.648 -169.071)" fill="#fafafa"></path>         <path id="Caminho_822" data-name="Caminho 822" d="M390.706,210.93l-.316.187v5.728l.316-.187Z" transform="translate(-318.895 -169.333)" fill="#455a64"></path>         <path id="Caminho_823" data-name="Caminho 823" d="M389.062,211.85l-.552.325V217.9l.552-.325Z" transform="translate(-318.54 -169.506)" fill="#455a64"></path>         <path id="Caminho_824" data-name="Caminho 824" d="M387.516,212.77l-.316.187v5.728l.316-.187Z" transform="translate(-318.293 -169.68)" fill="#455a64"></path>         <path id="Caminho_825" data-name="Caminho 825" d="M386.243,213.45l-.633.381v5.728l.633-.381Z" transform="translate(-317.993 -169.808)" fill="#455a64"></path>         <path id="Caminho_826" data-name="Caminho 826" d="M384.326,214.61l-.316.187v5.728l.316-.187Z" transform="translate(-317.691 -170.027)" fill="#455a64"></path>         <path id="Caminho_827" data-name="Caminho 827" d="M383.1,215.26l-.682.406v5.728l.682-.406Z" transform="translate(-317.391 -170.15)" fill="#455a64"></path>         <path id="Caminho_828" data-name="Caminho 828" d="M381.136,216.45l-.316.187v5.728l.316-.187Z" transform="translate(-317.089 -170.374)" fill="#455a64"></path>         <path id="Caminho_829" data-name="Caminho 829" d="M380.272,216.97l-.162.089v5.728l.162-.089Z" transform="translate(-316.956 -170.472)" fill="#455a64"></path>         <path id="Caminho_830" data-name="Caminho 830" d="M381.9,216.06l-.154.1v5.728l.154-.089Z" transform="translate(-317.265 -170.301)" fill="#455a64"></path>         <path id="Caminho_831" data-name="Caminho 831" d="M385.114,214.19l-.154.089v5.728l.154-.089Z" transform="translate(-317.87 -169.948)" fill="#455a64"></path>         <path id="Caminho_832" data-name="Caminho 832" d="M386.874,213.18l-.154.089V219l.154-.089Z" transform="translate(-318.202 -169.757)" fill="#455a64"></path>         <path id="Caminho_833" data-name="Caminho 833" d="M388.142,212.48l-.162.089V218.3l.162-.089Z" transform="translate(-318.44 -169.625)" fill="#455a64"></path>         <path id="Caminho_834" data-name="Caminho 834" d="M389.852,211.44l-.162.089v5.728l.162-.089Z" transform="translate(-318.763 -169.429)" fill="#455a64"></path>         <path id="Caminho_835" data-name="Caminho 835" d="M379.546,217.37l-.316.187v5.728l.316-.187Z" transform="translate(-316.789 -170.548)" fill="#455a64"></path>       </g>       <g id="freepik--boxes--inject-62-3" data-name="freepik--boxes--inject-62" transform="translate(49.978 0)">         <path id="Caminho_836" data-name="Caminho 836" d="M368.2,241.448l35.926-20.778,40.794,23.61-35.926,20.778Z" transform="translate(-364.687 -162.692)" fill="#8f00fc"></path>         <g id="Grupo_165" data-name="Grupo 165" transform="translate(3.513 57.978)" opacity="0.8">           <path id="Caminho_837" data-name="Caminho 837" d="M368.2,241.448l35.926-20.778,40.794,23.61-35.926,20.778Z" transform="translate(-368.2 -220.67)" fill="#fff"></path>         </g>         <path id="Caminho_838" data-name="Caminho 838" d="M441,241.846l-34.7,20.121L369.71,240.791l34.7-20.121Z" transform="translate(-364.972 -162.692)" opacity="0.1"></path>         <path id="Caminho_839" data-name="Caminho 839" d="M408.994,296.875,368.2,273.265V246.28l40.794,23.61Z" transform="translate(-364.687 -167.523)" fill="#8f00fc"></path>         <g id="Grupo_166" data-name="Grupo 166" transform="translate(3.513 78.757)" opacity="0.7">           <path id="Caminho_840" data-name="Caminho 840" d="M408.994,296.875,368.2,273.265V246.28l40.794,23.61Z" transform="translate(-368.2 -246.28)" fill="#fff"></path>         </g>         <path id="Caminho_841" data-name="Caminho 841" d="M412.063,296.2a2.588,2.588,0,0,1-1.1-2.085v-3.2l2.247,1.314h.146v.211h0V295.3a1.079,1.079,0,0,1-.438.974.811.811,0,0,1-.357.089A1.013,1.013,0,0,1,412.063,296.2Zm.251-3.44-.162,1.12h-.811v.235a2.263,2.263,0,0,0,.925,1.777.479.479,0,0,0,.479.049c.17-.089.26-.333.26-.657v-2.677Zm-.316-.308.657-.122-1.331-.811v1.98h.519Z" transform="translate(-372.754 -175.945)" fill="#455a64"></path>         <path id="Caminho_842" data-name="Caminho 842" d="M412.388,299.771a.179.179,0,0,0,.187-.178v-2.434a.183.183,0,0,0-.365,0v2.434A.179.179,0,0,0,412.388,299.771Z" transform="translate(-372.99 -177.089)" fill="#455a64"></path>         <path id="Caminho_843" data-name="Caminho 843" d="M413.193,300.8a.178.178,0,0,0,.089-.333l-2.085-1.209a.182.182,0,1,0-.179.316l2.085,1.2A.186.186,0,0,0,413.193,300.8Z" transform="translate(-372.748 -177.513)" fill="#455a64"></path>         <path id="Caminho_844" data-name="Caminho 844" d="M404.367,295a.439.439,0,0,0,.2-.049.487.487,0,0,0,.211-.43v-.495a.178.178,0,0,0-.357,0v.495c0,.073,0,.114-.041.122a.515.515,0,0,1-.114,0,1.087,1.087,0,0,1-.333-.811v-3.2a.178.178,0,0,0-.357,0v3.2a1.387,1.387,0,0,0,.5,1.12.559.559,0,0,0,.284.049Z" transform="translate(-371.362 -175.859)" fill="#455a64"></path>         <path id="Caminho_845" data-name="Caminho 845" d="M400.994,288.78v-.105a1.517,1.517,0,0,1,2.475-1.428,5.071,5.071,0,0,1,2.3,3.984v.308Zm.917-1.379a1.339,1.339,0,0,0-.56,1.177l4.057,2.328a4.738,4.738,0,0,0-2.1-3.351,1.882,1.882,0,0,0-.892-.276A.966.966,0,0,0,401.911,287.4Z" transform="translate(-370.869 -175.184)" fill="#455a64"></path>         <path id="Caminho_846" data-name="Caminho 846" d="M396.558,290.023a.178.178,0,0,0,.179-.178v-6.118a.179.179,0,1,0-.357,0v6.118A.178.178,0,0,0,396.558,290.023Z" transform="translate(-370.003 -174.553)" fill="#455a64"></path>         <path id="Caminho_847" data-name="Caminho 847" d="M396.953,285.09h.073a.179.179,0,0,0,.1-.235l-.641-1.485-.714.811a.179.179,0,1,0,.268.235l.341-.389.414.949A.178.178,0,0,0,396.953,285.09Z" transform="translate(-369.878 -174.521)" fill="#455a64"></path>         <path id="Caminho_848" data-name="Caminho 848" d="M394.508,288.854a.179.179,0,0,0,.179-.179v-6.117a.178.178,0,0,0-.357,0v6.117a.179.179,0,0,0,.178.179Z" transform="translate(-369.617 -174.334)" fill="#455a64"></path>         <path id="Caminho_849" data-name="Caminho 849" d="M394.911,283.922h.065a.178.178,0,0,0,.1-.235l-.641-1.477-.714.811a.178.178,0,0,0,0,.251.187.187,0,0,0,.26,0l.333-.389.414.949a.187.187,0,0,0,.187.089Z" transform="translate(-369.491 -174.302)" fill="#455a64"></path>         <path id="Caminho_850" data-name="Caminho 850" d="M418.48,297.533l35.926-20.778V249.77L418.48,270.548Z" transform="translate(-374.173 -168.182)" fill="#8f00fc"></path>         <g id="Grupo_167" data-name="Grupo 167" transform="translate(44.307 81.588)" opacity="0.6">           <path id="Caminho_851" data-name="Caminho 851" d="M418.48,297.533l35.926-20.778V249.77L418.48,270.548Z" transform="translate(-418.48 -249.77)" fill="#fff"></path>         </g>         <path id="Caminho_852" data-name="Caminho 852" d="M442.175,265.405l-2.645,1.525v-4.105l2.645-1.525Z" transform="translate(-378.144 -170.357)" fill="#37474f"></path>         <path id="Caminho_853" data-name="Caminho 853" d="M430.044,257.335l-40.794-23.61,2.645-1.525,40.794,23.61Z" transform="translate(-368.658 -164.867)" fill="#455a64"></path>         <path id="Caminho_854" data-name="Caminho 854" d="M436.668,258.11l-2.637,1.533-1.5-.86,2.653-1.533Z" transform="translate(-376.824 -169.593)" fill="#37474f"></path>         <path id="Caminho_855" data-name="Caminho 855" d="M454.16,270.673l-9.339,5.4a.917.917,0,0,0-.422.73v6.491c0,.535.373.755.811.487l9.411-5.4a.957.957,0,0,0,.422-.73V271.16C455,270.625,454.623,270.406,454.16,270.673Z" transform="translate(-379.063 -172.104)" fill="#fafafa"></path>         <path id="Caminho_856" data-name="Caminho 856" d="M456.645,271.94l-.324.187v5.728l.324-.187Z" transform="translate(-381.312 -172.365)" fill="#455a64"></path>         <path id="Caminho_857" data-name="Caminho 857" d="M454.994,272.86l-.544.325v5.728l.544-.316Z" transform="translate(-380.959 -172.538)" fill="#455a64"></path>         <path id="Caminho_858" data-name="Caminho 858" d="M453.455,273.78l-.324.187.008,5.728.316-.178Z" transform="translate(-380.71 -172.712)" fill="#455a64"></path>         <path id="Caminho_859" data-name="Caminho 859" d="M452.173,274.46l-.633.381v5.728l.633-.373Z" transform="translate(-380.41 -172.84)" fill="#455a64"></path>         <path id="Caminho_860" data-name="Caminho 860" d="M450.266,275.62l-.316.187v5.728l.316-.179Z" transform="translate(-380.11 -173.059)" fill="#455a64"></path>         <path id="Caminho_861" data-name="Caminho 861" d="M449.031,276.27l-.681.406V282.4l.681-.406Z" transform="translate(-379.808 -173.181)" fill="#455a64"></path>         <path id="Caminho_862" data-name="Caminho 862" d="M447.076,277.46l-.316.187v5.728l.316-.187Z" transform="translate(-379.508 -173.406)" fill="#455a64"></path>         <path id="Caminho_863" data-name="Caminho 863" d="M446.2,277.98l-.162.089v5.736l.162-.1Z" transform="translate(-379.372 -173.504)" fill="#455a64"></path>         <path id="Caminho_864" data-name="Caminho 864" d="M447.842,277.08l-.162.089V282.9l.162-.089Z" transform="translate(-379.682 -173.334)" fill="#455a64"></path>         <path id="Caminho_865" data-name="Caminho 865" d="M451.052,275.2l-.162.089v5.728l.162-.089Z" transform="translate(-380.287 -172.98)" fill="#455a64"></path>         <path id="Caminho_866" data-name="Caminho 866" d="M452.812,274.19l-.162.089v5.728l.162-.089Z" transform="translate(-380.619 -172.789)" fill="#455a64"></path>         <path id="Caminho_867" data-name="Caminho 867" d="M454.072,273.49l-.162.089.008,5.736.154-.1Z" transform="translate(-380.857 -172.657)" fill="#455a64"></path>         <path id="Caminho_868" data-name="Caminho 868" d="M455.784,272.45l-.154.089v5.736l.154-.1Z" transform="translate(-381.182 -172.461)" fill="#455a64"></path>         <path id="Caminho_869" data-name="Caminho 869" d="M445.485,278.38l-.325.187v5.728l.325-.179Z" transform="translate(-379.206 -173.579)" fill="#455a64"></path>         <path id="Caminho_870" data-name="Caminho 870" d="M363.87,202.586,399.8,181.8l40.794,23.618L404.664,226.2Z" transform="translate(-363.87 -155.359)" fill="#8f00fc"></path>         <g id="Grupo_168" data-name="Grupo 168" transform="translate(0 26.442)" opacity="0.7">           <path id="Caminho_871" data-name="Caminho 871" d="M363.87,202.586,399.8,181.8l40.794,23.618L404.664,226.2Z" transform="translate(-363.87 -181.8)" fill="#fff"></path>         </g>         <path id="Caminho_872" data-name="Caminho 872" d="M442.049,205.912l-33.322,19.269L371.6,203.7l33.33-19.277Z" transform="translate(-365.328 -155.853)" opacity="0.1"></path>         <path id="Caminho_873" data-name="Caminho 873" d="M404.664,258.015l-40.794-23.61V207.42l40.794,23.61Z" transform="translate(-363.87 -160.192)" fill="#8f00fc"></path>         <g id="Grupo_169" data-name="Grupo 169" transform="translate(0 47.228)" opacity="0.6">           <path id="Caminho_874" data-name="Caminho 874" d="M404.664,258.015l-40.794-23.61V207.42l40.794,23.61Z" transform="translate(-363.87 -207.42)" fill="#fff"></path>         </g>         <path id="Caminho_875" data-name="Caminho 875" d="M407.743,257.342a2.613,2.613,0,0,1-1.1-2.093V252.06l2.239,1.314h.146v.211h0v2.864a1.071,1.071,0,0,1-.438.965.665.665,0,0,1-.349.1.99.99,0,0,1-.495-.17Zm.252-3.448-.17,1.12h-.811v.243a2.264,2.264,0,0,0,.925,1.777.519.519,0,0,0,.487.057.738.738,0,0,0,.26-.657V253.78Zm-.325-.308.665-.114L407,252.66v1.972h.519Z" transform="translate(-371.939 -168.614)" fill="#455a64"></path>         <path id="Caminho_876" data-name="Caminho 876" d="M408.058,260.909a.178.178,0,0,0,.178-.187v-2.434a.178.178,0,0,0-.357,0v2.434a.178.178,0,0,0,.179.187Z" transform="translate(-372.173 -169.755)" fill="#455a64"></path>         <path id="Caminho_877" data-name="Caminho 877" d="M408.862,261.936a.187.187,0,0,0,.154-.089.2.2,0,0,0-.065-.251l-2.093-1.2a.178.178,0,1,0-.178.308l2.085,1.209A.219.219,0,0,0,408.862,261.936Z" transform="translate(-371.93 -170.182)" fill="#455a64"></path>         <path id="Caminho_878" data-name="Caminho 878" d="M400.042,256.143a.405.405,0,0,0,.195-.049.479.479,0,0,0,.219-.438v-.487a.183.183,0,0,0-.365,0v.609a.138.138,0,0,1-.114,0,1.063,1.063,0,0,1-.341-.811v-3.189a.178.178,0,0,0-.357,0v3.189a1.371,1.371,0,0,0,.511,1.128A.559.559,0,0,0,400.042,256.143Z" transform="translate(-370.55 -168.527)" fill="#455a64"></path>         <path id="Caminho_879" data-name="Caminho 879" d="M396.657,249.92v-.105a1.529,1.529,0,0,1,2.483-1.469,5.112,5.112,0,0,1,2.3,3.984v.316Zm.917-1.379a1.306,1.306,0,0,0-.552,1.168l4.057,2.337a4.771,4.771,0,0,0-2.1-3.351,1.817,1.817,0,0,0-.9-.276.982.982,0,0,0-.5.122Z" transform="translate(-370.054 -167.853)" fill="#455a64"></path>         <path id="Caminho_880" data-name="Caminho 880" d="M392.219,251.154a.179.179,0,0,0,.178-.179v-6.117a.178.178,0,0,0-.357,0v6.117a.179.179,0,0,0,.179.179Z" transform="translate(-369.185 -167.222)" fill="#455a64"></path>         <path id="Caminho_881" data-name="Caminho 881" d="M392.62,246.222a.122.122,0,0,0,.073,0,.179.179,0,0,0,.089-.235l-.641-1.477-.714.811a.17.17,0,0,0,0,.252.179.179,0,0,0,.252,0l.341-.4.414.957a.17.17,0,0,0,.187.089Z" transform="translate(-369.059 -167.189)" fill="#455a64"></path>         <path id="Caminho_882" data-name="Caminho 882" d="M390.168,249.993a.178.178,0,0,0,.178-.187v-6.117a.179.179,0,0,0-.357,0v6.117a.179.179,0,0,0,.179.187Z" transform="translate(-368.798 -167.001)" fill="#455a64"></path>         <path id="Caminho_883" data-name="Caminho 883" d="M390.572,245.052a.122.122,0,0,0,.073,0,.17.17,0,0,0,.089-.235l-.633-1.477-.714.811a.17.17,0,0,0,0,.252.178.178,0,0,0,.252,0l.341-.389.414.949A.17.17,0,0,0,390.572,245.052Z" transform="translate(-368.674 -166.969)" fill="#455a64"></path>         <path id="Caminho_884" data-name="Caminho 884" d="M414.15,258.673l35.926-20.786V210.91L414.15,231.688Z" transform="translate(-373.356 -160.85)" fill="#8f00fc"></path>         <g id="Grupo_170" data-name="Grupo 170" transform="translate(40.794 50.06)" opacity="0.4">           <path id="Caminho_885" data-name="Caminho 885" d="M414.15,258.673l35.926-20.786V210.91L414.15,231.688Z" transform="translate(-414.15 -210.91)" fill="#fff"></path>         </g>         <path id="Caminho_886" data-name="Caminho 886" d="M450.682,219.924,417.36,239.2v-9.022l33.322-19.269Z" transform="translate(-373.961 -160.85)" opacity="0.1"></path>         <path id="Caminho_887" data-name="Caminho 887" d="M437.837,226.537l-2.637,1.525v-4.1l2.637-1.525Z" transform="translate(-377.327 -163.026)" fill="#37474f"></path>         <path id="Caminho_888" data-name="Caminho 888" d="M425.714,218.475l-40.794-23.61,2.637-1.525,40.794,23.61Z" transform="translate(-367.841 -157.536)" fill="#455a64"></path>         <path id="Caminho_889" data-name="Caminho 889" d="M449.82,231.8l-9.339,5.4a.957.957,0,0,0-.422.73v6.491c0,.535.381.755.811.487l9.339-5.4a.917.917,0,0,0,.422-.73V232.29C450.664,231.755,450.283,231.536,449.82,231.8Z" transform="translate(-378.244 -164.771)" fill="#fafafa"></path>         <path id="Caminho_890" data-name="Caminho 890" d="M452.306,233.08l-.316.178v5.736l.316-.187Z" transform="translate(-380.495 -165.033)" fill="#455a64"></path>         <path id="Caminho_891" data-name="Caminho 891" d="M450.662,234l-.552.325v5.728l.552-.325Z" transform="translate(-380.14 -165.207)" fill="#455a64"></path>         <path id="Caminho_892" data-name="Caminho 892" d="M449.116,234.92l-.316.187v5.728l.316-.187Z" transform="translate(-379.893 -165.38)" fill="#455a64"></path>         <path id="Caminho_893" data-name="Caminho 893" d="M447.843,235.6l-.633.373v5.736l.633-.381Z" transform="translate(-379.593 -165.509)" fill="#455a64"></path>         <path id="Caminho_894" data-name="Caminho 894" d="M445.926,236.76l-.316.187v5.728l.316-.187Z" transform="translate(-379.291 -165.727)" fill="#455a64"></path>         <path id="Caminho_895" data-name="Caminho 895" d="M444.7,237.41l-.682.406v5.728l.682-.406Z" transform="translate(-378.991 -165.85)" fill="#455a64"></path>         <path id="Caminho_896" data-name="Caminho 896" d="M442.736,238.6l-.316.178v5.736l.316-.187Z" transform="translate(-378.689 -166.074)" fill="#455a64"></path>         <path id="Caminho_897" data-name="Caminho 897" d="M441.864,239.12l-.154.089v5.728l.154-.089Z" transform="translate(-378.555 -166.173)" fill="#455a64"></path>         <path id="Caminho_898" data-name="Caminho 898" d="M443.5,238.21l-.154.1v5.728l.154-.089Z" transform="translate(-378.865 -166.001)" fill="#455a64"></path>         <path id="Caminho_899" data-name="Caminho 899" d="M446.714,236.33l-.154.1v5.728l.154-.089Z" transform="translate(-379.47 -165.646)" fill="#455a64"></path>         <path id="Caminho_900" data-name="Caminho 900" d="M448.474,235.32l-.154.1v5.728l.154-.089Z" transform="translate(-379.803 -165.456)" fill="#455a64"></path>         <path id="Caminho_901" data-name="Caminho 901" d="M449.734,234.63l-.154.089v5.728l.154-.089Z" transform="translate(-380.04 -165.325)" fill="#455a64"></path>         <path id="Caminho_902" data-name="Caminho 902" d="M451.452,233.59l-.162.089v5.728l.162-.089Z" transform="translate(-380.363 -165.129)" fill="#455a64"></path>         <path id="Caminho_903" data-name="Caminho 903" d="M441.146,239.52l-.316.187v5.728l.316-.187Z" transform="translate(-378.389 -166.248)" fill="#455a64"></path>         <path id="Caminho_904" data-name="Caminho 904" d="M374.3,169.988l35.926-20.778,40.794,23.61L415.094,193.6Z" transform="translate(-365.838 -149.21)" fill="#8f00fc"></path>         <g id="Grupo_171" data-name="Grupo 171" transform="translate(8.462)" opacity="0.8">           <path id="Caminho_905" data-name="Caminho 905" d="M374.3,169.988l35.926-20.778,40.794,23.61L415.094,193.6Z" transform="translate(-374.3 -149.21)" fill="#fff"></path>         </g>         <path id="Caminho_906" data-name="Caminho 906" d="M415.094,225.415,374.3,201.805V174.82l40.794,23.61Z" transform="translate(-365.838 -154.042)" fill="#8f00fc"></path>         <g id="Grupo_172" data-name="Grupo 172" transform="translate(8.462 20.778)" opacity="0.7">           <path id="Caminho_907" data-name="Caminho 907" d="M415.094,225.415,374.3,201.805V174.82l40.794,23.61Z" transform="translate(-374.3 -174.82)" fill="#fff"></path>         </g>         <path id="Caminho_908" data-name="Caminho 908" d="M418.163,224.772a2.588,2.588,0,0,1-1.1-2.085v-3.2L419.3,220.8h.146v.211h0v2.856a1.038,1.038,0,0,1-.438.965.649.649,0,0,1-.349.1,1.015,1.015,0,0,1-.495-.162Zm.252-3.44-.162,1.12h-.811v.235a2.256,2.256,0,0,0,.925,1.769.479.479,0,0,0,.487.057.738.738,0,0,0,.26-.657V221.21Zm-.316-.316.657-.114-1.339-.811v1.972h.519Z" transform="translate(-373.905 -162.469)" fill="#455a64"></path>         <path id="Caminho_909" data-name="Caminho 909" d="M418.488,228.349a.178.178,0,0,0,.179-.178v-2.434a.179.179,0,1,0-.357,0v2.434A.178.178,0,0,0,418.488,228.349Z" transform="translate(-374.141 -163.612)" fill="#455a64"></path>         <path id="Caminho_910" data-name="Caminho 910" d="M419.292,229.336a.179.179,0,0,0,.089-.333l-2.085-1.209a.187.187,0,0,0-.251.065.179.179,0,0,0,.073.243l2.085,1.209a.162.162,0,0,0,.089.024Z" transform="translate(-373.898 -164.031)" fill="#455a64"></path>         <path id="Caminho_911" data-name="Caminho 911" d="M410.465,223.542a.389.389,0,0,0,.195-.049.479.479,0,0,0,.219-.43v-.495a.178.178,0,1,0-.357,0v.487c0,.073,0,.114-.041.122a.235.235,0,0,1-.114,0,1.055,1.055,0,0,1-.333-.811v-3.2a.183.183,0,0,0-.365,0v3.2a1.371,1.371,0,0,0,.511,1.12.56.56,0,0,0,.284.057Z" transform="translate(-372.51 -162.375)" fill="#455a64"></path>         <path id="Caminho_912" data-name="Caminho 912" d="M407.1,217.329v-.105a1.517,1.517,0,0,1,2.434-1.428,5.1,5.1,0,0,1,2.3,3.984v.308Zm.917-1.379a1.331,1.331,0,0,0-.56,1.168l4.057,2.337a4.738,4.738,0,0,0-2.1-3.351,1.8,1.8,0,0,0-.9-.276A.933.933,0,0,0,408.013,215.949Z" transform="translate(-372.022 -161.711)" fill="#455a64"></path>         <path id="Caminho_913" data-name="Caminho 913" d="M402.657,218.563a.179.179,0,0,0,.178-.187v-6.117a.183.183,0,0,0-.365,0v6.117a.187.187,0,0,0,.187.187Z" transform="translate(-371.152 -161.071)" fill="#455a64"></path>         <path id="Caminho_914" data-name="Caminho 914" d="M403.056,213.6h.073a.2.2,0,0,0,.1-.243l-.641-1.477-.714.811a.178.178,0,0,0,.268.235l.341-.389.414.949A.186.186,0,0,0,403.056,213.6Z" transform="translate(-371.032 -161.033)" fill="#455a64"></path>         <path id="Caminho_915" data-name="Caminho 915" d="M400.606,217.384a.179.179,0,0,0,.179-.178v-6.117a.187.187,0,1,0-.365,0v6.117a.178.178,0,0,0,.187.178Z" transform="translate(-370.765 -160.841)" fill="#455a64"></path>         <path id="Caminho_916" data-name="Caminho 916" d="M401.006,212.46h.073a.178.178,0,0,0,.1-.235l-.641-1.485-.714.811a.178.178,0,0,0,.268.235l.341-.389.414.949a.179.179,0,0,0,.162.114Z" transform="translate(-370.645 -160.818)" fill="#455a64"></path>         <path id="Caminho_917" data-name="Caminho 917" d="M424.58,226.073,460.506,205.3V178.31L424.58,199.088Z" transform="translate(-375.324 -154.7)" fill="#8f00fc"></path>         <g id="Grupo_173" data-name="Grupo 173" transform="translate(49.256 23.61)" opacity="0.6">           <path id="Caminho_918" data-name="Caminho 918" d="M424.58,226.073,460.506,205.3V178.31L424.58,199.088Z" transform="translate(-424.58 -178.31)" fill="#fff"></path>         </g>         <path id="Caminho_919" data-name="Caminho 919" d="M448.275,193.937l-2.645,1.525v-4.1l2.645-1.525Z" transform="translate(-379.295 -156.875)" fill="#37474f"></path>         <path id="Caminho_920" data-name="Caminho 920" d="M436.144,185.875l-40.794-23.61,2.645-1.525,40.794,23.61Z" transform="translate(-369.809 -151.385)" fill="#455a64"></path>         <path id="Caminho_921" data-name="Caminho 921" d="M460.257,199.213,450.9,204.6a.933.933,0,0,0-.422.73v6.491c0,.527.373.746.811.487l9.347-5.4a.958.958,0,0,0,.422-.73v-6.491C461.1,199.165,460.719,198.946,460.257,199.213Z" transform="translate(-380.21 -158.622)" fill="#fafafa"></path>         <path id="Caminho_922" data-name="Caminho 922" d="M462.736,200.48l-.316.187v5.728l.316-.187Z" transform="translate(-382.463 -158.883)" fill="#455a64"></path>         <path id="Caminho_923" data-name="Caminho 923" d="M461.094,201.4l-.544.325v5.728l.544-.325Z" transform="translate(-382.11 -159.056)" fill="#455a64"></path>         <path id="Caminho_924" data-name="Caminho 924" d="M459.555,202.32l-.325.187v5.728l.325-.187Z" transform="translate(-381.861 -159.23)" fill="#455a64"></path>         <path id="Caminho_925" data-name="Caminho 925" d="M458.273,203l-.633.381v5.728l.633-.381Z" transform="translate(-381.561 -159.358)" fill="#455a64"></path>         <path id="Caminho_926" data-name="Caminho 926" d="M456.366,204.16l-.316.187v5.728l.316-.187Z" transform="translate(-381.261 -159.577)" fill="#455a64"></path>         <path id="Caminho_927" data-name="Caminho 927" d="M455.132,204.81l-.682.406v5.728l.682-.406Z" transform="translate(-380.959 -159.7)" fill="#455a64"></path>         <path id="Caminho_928" data-name="Caminho 928" d="M453.176,206l-.316.187v5.728l.316-.187Z" transform="translate(-380.659 -159.924)" fill="#455a64"></path>         <path id="Caminho_929" data-name="Caminho 929" d="M452.3,206.52l-.162.089v5.728l.162-.089Z" transform="translate(-380.523 -160.022)" fill="#455a64"></path>         <path id="Caminho_930" data-name="Caminho 930" d="M453.942,205.62l-.162.089v5.728l.162-.089Z" transform="translate(-380.833 -159.852)" fill="#455a64"></path>         <path id="Caminho_931" data-name="Caminho 931" d="M457.152,203.74l-.162.089v5.728l.162-.089Z" transform="translate(-381.438 -159.498)" fill="#455a64"></path>         <path id="Caminho_932" data-name="Caminho 932" d="M458.9,202.73l-.154.089v5.728l.154-.089Z" transform="translate(-381.77 -159.307)" fill="#455a64"></path>         <path id="Caminho_933" data-name="Caminho 933" d="M460.172,202.03l-.162.089v5.728l.162-.089Z" transform="translate(-382.008 -159.175)" fill="#455a64"></path>         <path id="Caminho_934" data-name="Caminho 934" d="M461.884,200.99l-.154.089v5.728l.154-.089Z" transform="translate(-382.332 -158.979)" fill="#455a64"></path>         <path id="Caminho_935" data-name="Caminho 935" d="M451.576,206.92l-.316.187v5.728l.316-.187Z" transform="translate(-380.357 -160.098)" fill="#455a64"></path>       </g>     </g>     <g id="freepik--character-2--inject-62" transform="translate(1852.473 1630.55)">       <g id="freepik--Character--inject-62">         <path id="Caminho_936" data-name="Caminho 936" d="M389.62,160.223a3.813,3.813,0,0,1,3.18,1.1,7.514,7.514,0,0,1,1.623,2.15,32.125,32.125,0,0,1,1.809,5.59,9.148,9.148,0,0,0,3.01,4.933c.617.446,1.4.868,1.517,1.623a1.566,1.566,0,0,1-.811,1.485,3.846,3.846,0,0,1-1.736.406,2.718,2.718,0,0,0,.917,1.412,1.826,1.826,0,0,1,.69,1.493c-.114.665-.811,1.022-1.509,1.16a6.1,6.1,0,0,1-5.9-2.264,11.911,11.911,0,0,1-2.158-9.347,18.782,18.782,0,0,0,.511-3.967,4.82,4.82,0,0,0-1.533-3.57c-.357-.292-.811-.568-.86-1.03a1.128,1.128,0,0,1,.771-1.014,2.284,2.284,0,0,1,.479-.162Z" transform="translate(-334.682 -144.671)" fill="#263238"></path>         <path id="Caminho_937" data-name="Caminho 937" d="M359.594,174.749s-3.383-.876-5.988,4.8c-1.444,3.148-6.418,14.864-6.418,14.864s-6.637.438-11.2.349c-2-.041-3.61-.178-4.057-.5a3.8,3.8,0,0,1-1.4-2.166,8.2,8.2,0,0,1-.2-3.026c-.057-.868-1.322-.3-1.7,1.1-.276,1.03-.105,1.972-.495,2.174a9.137,9.137,0,0,1-1.809-.462c-.811-.357-2.329-.9-3.245-.3a1.128,1.128,0,0,0-.487.917,4.2,4.2,0,0,1-.049,1.525,3.159,3.159,0,0,0-.243.722,6.263,6.263,0,0,0,.211.876c.049.438-.357.811-.325,1.274,0,.316.26.584.325.9.049.195,0,.414.057.609a1.436,1.436,0,0,0,.811.811,10.208,10.208,0,0,0,3.83.925c1.136.122,2.58,0,3.838,0a47.973,47.973,0,0,1,5.1.276c5.4.56,13.233,1.525,14.856.665,2.247-1.193,9.736-18.247,9.736-18.247C361.671,176.566,359.594,174.749,359.594,174.749Z" transform="translate(-322.198 -147.408)" fill="#ffa8a7"></path>         <path id="Caminho_938" data-name="Caminho 938" d="M365.694,174.744c-1.688-.308-3.4.381-5.128,2.888s-6.036,12.17-6.036,12.17a8.706,8.706,0,0,0,8.341,4.527l2.978-6.41Z" transform="translate(-328.298 -147.403)" fill="#455a64"></path>         <path id="Caminho_939" data-name="Caminho 939" d="M382.052,205.342a33.581,33.581,0,0,1,5.785,11.927c2.613,10.547-1.485,33.135-1.485,33.135.13,1.525,1.874,4.543,2.531,11.278.771,7.959-1.4,29.3-1.4,29.3a5.079,5.079,0,0,1-5.152.105s-5.574-31.31-6.572-39.228c-.868-6.9-2.645-21.249-2.645-21.249l-2.434,21.549s.333,3.8.617,6.75c.454,4.657-5.379,27.756-5.379,27.756a6.393,6.393,0,0,1-5.136-.105s-.706-29.914-1.128-35.529a214.526,214.526,0,0,1,.876-30.19c.333-3.245,1.972-13.192,2.539-15.959Z" transform="translate(-329.224 -153.102)" fill="#455a64"></path>         <path id="Caminho_940" data-name="Caminho 940" d="M364.963,299.461c.56-3.651,2.645-8.284,1.12-8.746l-.43,1.923a6.564,6.564,0,0,1-4.178.682,5.258,5.258,0,0,1-3.643-1.623l-.041-1.306c-.811.2-.811.771-.641,3.116s.235,8.4.243,10.174a6.718,6.718,0,0,1-2.3,4.438,31.706,31.706,0,0,1-7.237,5.339c-.811.446-2.783,1.2-2.223,2.434a3.246,3.246,0,0,0,.722.925,6.986,6.986,0,0,0,3.959,1.444h.462a10.3,10.3,0,0,0,5.947-2.345,10.4,10.4,0,0,1,4.284-2.531c1.347-.219,3.294-1.5,3.456-2.361a11.657,11.657,0,0,0,.057-3.245,15.329,15.329,0,0,1-.138-1.542,35.473,35.473,0,0,1,.576-6.775Z" transform="translate(-326.601 -169.234)" fill="#263238"></path>         <path id="Caminho_941" data-name="Caminho 941" d="M374.251,234.46l-.949-6.539a16.227,16.227,0,0,1-7.691-2.491,9.8,9.8,0,0,0,6.442,3.6l.6,5.85-.608,18.49Z" transform="translate(-330.388 -156.979)" fill="#37474f"></path>         <path id="Caminho_942" data-name="Caminho 942" d="M392.661,311.733c.057-2.88.755-9.8.933-12.016s-.4-2.028-.4-2.028l-.105,1.363a5.852,5.852,0,0,1-3.546,1.006,7.967,7.967,0,0,1-4.1-.884c-.081-.592-.219-1.258-.219-1.258-.738.414-.179,1.955.608,6.2s1.12,4.243.544,9.923-.811,8.592-.6,10.239l.122.049a8.77,8.77,0,0,0,.868,2.9c1.176,2.491,3.967,1.152,5.03-.316a6.3,6.3,0,0,0,1.412-3.627h0a13.18,13.18,0,0,0,0-1.42c-.049-1.712-.349-2.7-.519-4.26l-.041-.487v-.341C392.653,316.65,392.613,314.589,392.661,311.733Z" transform="translate(-334.024 -170.611)" fill="#263238"></path>         <path id="Caminho_943" data-name="Caminho 943" d="M363.32,191.966c.049,1.923.308,6.491.308,6.491,7.7,5.509,19.026.974,19.026.974l1.931-11.059s-3.943-5.825.049-11.764l-6.1-1.363-7.3-.625-4.2.114c-.982,1.907-3.748,6.255-4.568,8.2S359.937,187.812,363.32,191.966Z" transform="translate(-329.575 -147.393)" fill="#455a64"></path>         <path id="Caminho_944" data-name="Caminho 944" d="M385.436,199.272l1.047-10.134s-5.46-6.621-1.469-12.551l-5.266-1.047c-.811,2.061-5.379,6.572-10.093,7.213-2.207-2.134-.195-6.337.755-8.113l-3.578.1a45.59,45.59,0,0,0-4.8,8.04c-.811,1.988-2.361,5.777,1.022,9.963.049,1.923-.057,5.752-.057,5.752l-2.434,13.233c17.322,6.069,27.9-.592,27.9-.592a59.906,59.906,0,0,0-3.026-11.862Z" transform="translate(-329.435 -147.397)" fill="#8f00fc"></path>         <path id="Caminho_945" data-name="Caminho 945" d="M363.56,201.724c.706,1.46,7.44,1.947,11.894,1.931a49.146,49.146,0,0,0,10.766-1.85l.227-2.142a55.414,55.414,0,0,1-10.929,1.7c-4.438.008-11.2-.471-11.9-1.939Z" transform="translate(-330.001 -152.072)" fill="#fafafa"></path>         <path id="Caminho_946" data-name="Caminho 946" d="M386.765,207.365c-.438-1.331-.811-2.345-.811-2.345h0c-1.939,1.314-6.629,2.053-10.6,2.069-4.454,0-11.2-.471-11.894-1.939l-.065,2.3c.706,1.469,7.44,1.947,11.9,1.939C378.96,209.353,383.357,208.955,386.765,207.365Z" transform="translate(-329.969 -153.128)" fill="#fafafa"></path>         <path id="Caminho_947" data-name="Caminho 947" d="M371.019,215.765c.7.1,1.379.179,2.045.235a98.182,98.182,0,0,1-2.142-12.981,101.417,101.417,0,0,1,.471-18.369C369.323,189.275,369.267,204.641,371.019,215.765Z" transform="translate(-331.172 -149.285)" opacity="0.15"></path>         <path id="Caminho_948" data-name="Caminho 948" d="M343.45,202.17l19.8,1.842,9.517,22.62-18.912-2.239Z" transform="translate(-326.207 -152.59)" fill="#8f00fc"></path>         <path id="Caminho_949" data-name="Caminho 949" d="M343.45,202.17l19.8,1.842,9.517,22.62-18.912-2.239Z" transform="translate(-326.207 -152.59)" opacity="0.4"></path>         <path id="Caminho_950" data-name="Caminho 950" d="M365.59,221.81a4.5,4.5,0,0,0,3.473,2.921,9.931,9.931,0,0,0,5.184-.811l-.811-1.89Z" transform="translate(-330.384 -156.296)" opacity="0.15"></path>         <path id="Caminho_951" data-name="Caminho 951" d="M350.933,204.953l-.276-.7c-.154-.381.957-.584,2.483-.454l2.913.26c1.525.138,2.888.56,3.034.949l.284.7Z" transform="translate(-327.564 -152.891)" opacity="0.15"></path>         <path id="Caminho_952" data-name="Caminho 952" d="M348.807,201.774c-.1-.243.349-.381.982-.316l1.16.122s-.592-1.509,1.955-1.371a3.911,3.911,0,0,1,3.383,1.826l1.241.138a2.288,2.288,0,0,1,1.452.568l.211.422-10.231-.941A4.1,4.1,0,0,0,348.807,201.774Z" transform="translate(-327.215 -152.219)" fill="#455a64"></path>         <path id="Caminho_953" data-name="Caminho 953" d="M358.889,204.872c-.122-.324-1.087-.665-2.28-.811l-.049-.114c-.122-.333,0-.568.706-.5v-.284l-7.067-.6.333.251c.933.073,1.323.13,1.558.722a1,1,0,0,1,.057.138c-1.1,0-1.826.17-1.7.487s.276.7.276.7l8.43.755Z" transform="translate(-327.481 -152.664)" fill="#37474f"></path>         <path id="Caminho_954" data-name="Caminho 954" d="M392.186,184.162c-1.623-6.337-4.057-6.921-7.724-7.3-3.984,6.6.527,12.454.527,12.454l2.986,10.6a111.968,111.968,0,0,1-9.679,6.612c-.609.365-1.152.682-1.623.925s-1.347-.146-1.939-.284a14.118,14.118,0,0,0-4.122-.105c-1.176,0-1.826-.316-1.939-.049a1.347,1.347,0,0,0,.811,1.623,9.323,9.323,0,0,0,2.134.641,12.478,12.478,0,0,1-3.862,1.014c-3.059.308-4.154,1.274-1.412,4.057,1.72,1.761,4.17,2.077,9.314-.43,1.006-.495,3.083-1.623,5.03-2.6.909-.471,1.793-.909,2.523-1.249,5.428-2.531,12.657-5.176,12.843-7.886S393.882,190.831,392.186,184.162Z" transform="translate(-330.231 -147.815)" fill="#ffa8a7"></path>         <path id="Caminho_955" data-name="Caminho 955" d="M396.611,204.267a4.308,4.308,0,0,0-3.294.706l-.227-.811S395.216,203.139,396.611,204.267Z" transform="translate(-335.572 -152.886)" fill="#f28f8f"></path>         <path id="Caminho_956" data-name="Caminho 956" d="M388.34,176.68c2.28.268,3.927.535,4.957,1.387s2.028,2.045,3.667,7.894,1.834,6.621,1.834,6.621-2.377,3.83-8.405,3.018l-3.164-8.438S384.576,179.739,388.34,176.68Z" transform="translate(-334.295 -147.781)" fill="#455a64"></path>         <path id="Caminho_957" data-name="Caminho 957" d="M364.86,156.993l-.349-.138a4.1,4.1,0,0,1-1.623-1.477,3.692,3.692,0,0,1-.357-2.767,5.4,5.4,0,0,1,2.093-2.832,4.671,4.671,0,0,0,.738-.584,6.676,6.676,0,0,0,1.039-1.469l.43-.738c.243-.414.471-.811.722-1.233a2.273,2.273,0,0,1,.811-.665,10.856,10.856,0,0,1,1.98-1.014,11.31,11.31,0,0,1,4.641-.73,12.551,12.551,0,0,1,5.866,1.785,7.416,7.416,0,0,1,3.8,4.568,22.353,22.353,0,0,1,1.03,7.221A11.637,11.637,0,0,1,383.691,163c-2.491,3.018-3.61,2.677-4.462,4.8-.276.706-1.347-.365-1.907-.552-1.874-.6-3.838-1.1-5.679-1.744a5.135,5.135,0,0,1-2.3-2.361c-.292-.487-.544-1-.811-1.509a14.456,14.456,0,0,0-2.174-3.716,2.5,2.5,0,0,0-.747-.625C365.322,157.163,365.1,157.082,364.86,156.993Z" transform="translate(-329.784 -141.49)" fill="#263238"></path>         <path id="Caminho_958" data-name="Caminho 958" d="M367.843,151.77c-1.379.673-2.572,1.574-2.994,8.511-.349,5.882,1.428,7.489,2.353,7.992s2.783.4,4.6.243l-.138,2.686s-2.807,3.919.673,4.357c4.868.609,7.115-4.154,7.115-4.154l.535-7.107a1.969,1.969,0,0,0,2.742-.365c1.525-1.444,1.444-3.44.617-4.178-1.233-1.1-2.5-.892-3.448.7-3.846-.2-5.03-5.184-5.128-7.87C372.776,150.261,369.831,155.883,367.843,151.77Z" transform="translate(-330.236 -143.082)" fill="#ffa8a7"></path>         <path id="Caminho_959" data-name="Caminho 959" d="M382.333,164.464l1.087-2.953c-.811-.341-1.988-.195-2.093.673A2.069,2.069,0,0,0,382.333,164.464Z" transform="translate(-333.343 -144.888)" fill="#263238"></path>         <path id="Caminho_960" data-name="Caminho 960" d="M366.63,151.081s.649,5.574,8.332,6.174l.349-6.255Z" transform="translate(-330.581 -142.937)" fill="#263238"></path>         <path id="Caminho_961" data-name="Caminho 961" d="M373.509,160.839a.763.763,0,1,0,.868-.69A.811.811,0,0,0,373.509,160.839Z" transform="translate(-331.878 -144.662)" fill="#263238"></path>         <path id="Caminho_962" data-name="Caminho 962" d="M373.653,166.61l-2.653.917a1.363,1.363,0,0,0,1.744.9A1.452,1.452,0,0,0,373.653,166.61Z" transform="translate(-331.405 -145.882)" fill="#b16668"></path>         <path id="Caminho_963" data-name="Caminho 963" d="M365.975,157.452l1.55-.9a.852.852,0,0,0-1.193-.349.941.941,0,0,0-.357,1.249Z" transform="translate(-330.436 -143.896)" fill="#263238"></path>         <path id="Caminho_964" data-name="Caminho 964" d="M366.089,159.976a.766.766,0,1,0,1.517.2.765.765,0,1,0-1.517-.2Z" transform="translate(-330.477 -144.505)" fill="#263238"></path>         <path id="Caminho_965" data-name="Caminho 965" d="M370.3,160.01l-.349,4.73-2.239-.9Z" transform="translate(-330.784 -144.636)" fill="#f28f8f"></path>         <path id="Caminho_966" data-name="Caminho 966" d="M373.417,171.869c1.874-.089,5.769-.868,6.491-2.329a3.911,3.911,0,0,1-1.5,1.817c-1.217.876-5.047,1.671-5.047,1.671Z" transform="translate(-331.85 -146.434)" fill="#f28f8f"></path>         <path id="Caminho_967" data-name="Caminho 967" d="M386.321,154.183a11.774,11.774,0,0,1-.811,3.245,11.935,11.935,0,0,0-.811-.909,19.806,19.806,0,0,0-5.679-3.927h0c-4.868-2.3-10.9-3.067-15.7-1.736a11.034,11.034,0,0,1,.892-2.75,11.635,11.635,0,0,1,22.125,6.053Z" transform="translate(-329.956 -141.122)" fill="#8f00fc"></path>         <path id="Caminho_968" data-name="Caminho 968" d="M382.186,142.537c-.584-.284-3.513-1.16-3.748-1.233a7.02,7.02,0,0,0-6.491,1.623,11.789,11.789,0,0,0-3.927,6.337l3.116.974.99.1c.373-2.288,3.4-7.221,7.635-7.408a4.945,4.945,0,0,1,.6,0,5.631,5.631,0,0,1,1.623.341,15.421,15.421,0,0,1,1.623,1.322A2.613,2.613,0,0,0,382.186,142.537Z" transform="translate(-330.843 -141.062)" fill="#8f00fc"></path>         <path id="Caminho_969" data-name="Caminho 969" d="M382.186,142.537c-.584-.284-3.513-1.16-3.748-1.233a7.02,7.02,0,0,0-6.491,1.623,11.789,11.789,0,0,0-3.927,6.337l3.116.974.99.1c.373-2.288,3.4-7.221,7.635-7.408a4.945,4.945,0,0,1,.6,0,5.631,5.631,0,0,1,1.623.341,15.421,15.421,0,0,1,1.623,1.322A2.613,2.613,0,0,0,382.186,142.537Z" transform="translate(-330.843 -141.062)" fill="#fff" opacity="0.45"></path>         <path id="Caminho_970" data-name="Caminho 970" d="M372.872,150.579c.438-2.669,4.5-8.973,9.874-7.075a16.174,16.174,0,0,1,1.623,1.323,2.629,2.629,0,0,0-1.493-2.061c-1.4-.673-4.2-1.006-7.107,1.379a11.805,11.805,0,0,0-3.919,6.337Z" transform="translate(-331.565 -141.29)" fill="#8f00fc"></path>         <path id="Caminho_971" data-name="Caminho 971" d="M372.872,150.579c.438-2.669,4.5-8.973,9.874-7.075a16.174,16.174,0,0,1,1.623,1.323,2.629,2.629,0,0,0-1.493-2.061c-1.4-.673-4.2-1.006-7.107,1.379a11.805,11.805,0,0,0-3.919,6.337Z" transform="translate(-331.565 -141.29)" opacity="0.3"></path>         <path id="Caminho_972" data-name="Caminho 972" d="M378.213,152.723a13.062,13.062,0,0,0-5.176-4.6c-2.385-1.282-7.3-1.347-9.476-1.314-3.846.065-4.763.876-4.811,1.444,0,.138-.073.755-.089.9a.592.592,0,0,0,.081.365c.576.868,3.683,2.385,3.683,2.385,4.8-1.331,10.807-.56,15.7,1.736Z" transform="translate(-329.076 -142.145)" fill="#8f00fc"></path>         <path id="Caminho_973" data-name="Caminho 973" d="M378.213,152.723a13.062,13.062,0,0,0-5.176-4.6c-2.385-1.282-7.3-1.347-9.476-1.314-3.846.065-4.763.876-4.811,1.444,0,.138-.073.755-.089.9a.592.592,0,0,0,.081.365c.576.868,3.683,2.385,3.683,2.385,4.8-1.331,10.807-.56,15.7,1.736Z" transform="translate(-329.076 -142.145)" opacity="0.15"></path>         <path id="Caminho_974" data-name="Caminho 974" d="M378.123,153.855c-4.868-2.3-10.9-3.067-15.7-1.736,0,0-3.107-1.517-3.683-2.385-.308-.487,0-1.72,4.73-1.793,2.191,0,7.091,0,9.476,1.306a13.046,13.046,0,0,1,5.176,4.608Z" transform="translate(-329.076 -142.359)" fill="#8f00fc"></path>         <path id="Caminho_975" data-name="Caminho 975" d="M378.123,153.855c-4.868-2.3-10.9-3.067-15.7-1.736,0,0-3.107-1.517-3.683-2.385-.308-.487,0-1.72,4.73-1.793,2.191,0,7.091,0,9.476,1.306a13.046,13.046,0,0,1,5.176,4.608Z" transform="translate(-329.076 -142.359)" opacity="0.3"></path>         <path id="Caminho_976" data-name="Caminho 976" d="M372.26,168.475v.105a1.306,1.306,0,0,0,.746,0,1.436,1.436,0,0,0,.941-1.258,1.177,1.177,0,0,0-.373-.073A1.29,1.29,0,0,0,372.26,168.475Z" transform="translate(-331.643 -146.002)" fill="#f28f8f"></path>       </g>     </g>     <g id="freepik--speech-bubble--inject-62" transform="translate(1875.363 1550.136)">       <g id="freepik--speech-bubble--inject-62-2" data-name="freepik--speech-bubble--inject-62">         <path id="Caminho_1282" data-name="Caminho 1282" d="M374.49,117.508l3.326-9.46-2.677-7.716V95.61l8.186,4.722v4.73l-3.554,9.3a.536.536,0,0,1-.235.211h0Z" transform="translate(-354.953 -52.073)" fill="#8f00fc"></path>         <path id="Caminho_1283" data-name="Caminho 1283" d="M374.49,117.508l3.326-9.46-2.677-7.716V95.61l8.186,4.722v4.73l-3.554,9.3a.536.536,0,0,1-.235.211h0Z" transform="translate(-354.953 -52.073)" opacity="0.2"></path>         <path id="Caminho_1284" data-name="Caminho 1284" d="M350.41,47.939a5.428,5.428,0,0,1,2.434-4.251l2-1.152a5.428,5.428,0,0,1,4.868,0L390.4,60.247a5.428,5.428,0,0,1,2.434,4.251V98.2a5.452,5.452,0,0,1-2.434,4.251l-2,1.152a5.428,5.428,0,0,1-4.868,0l-9.858-5.679-3.5,9.29a.527.527,0,0,1-.949-.089L365.493,93.2l-12.616-7.3a5.412,5.412,0,0,1-2.434-4.243Z" transform="translate(-350.41 -41.951)" fill="#8f00fc"></path>         <path id="Caminho_1285" data-name="Caminho 1285" d="M400.645,102.877a5.452,5.452,0,0,1-2.434,4.251l-2,1.152a5.469,5.469,0,0,1-4.487.195c1.16.438,2.036-.211,2.036-1.623V73.158a5.087,5.087,0,0,0-.714-2.434l6.9-3.984a5.014,5.014,0,0,1,.722,2.434Z" transform="translate(-358.204 -46.626)" opacity="0.2"></path>         <path id="Caminho_1286" data-name="Caminho 1286" d="M350.51,47.24c.284-1.047,1.233-1.371,2.369-.722l30.636,17.72a4.869,4.869,0,0,1,1.728,1.834l6.9-3.984a4.868,4.868,0,0,0-1.728-1.834l-30.579-17.72a5.444,5.444,0,0,0-4.909,0l-2,1.16A5.387,5.387,0,0,0,350.51,47.24Z" transform="translate(-350.429 -41.949)" fill="#fff" opacity="0.3"></path>         <path id="Caminho_1287" data-name="Caminho 1287" d="M357,76.151l1.3,4.349a.811.811,0,0,0,.576.487l2.564.617a1.079,1.079,0,0,1,.657.487,22.809,22.809,0,0,0,1.379,2.434,1,1,0,0,1,.154.682l-.811,2.832a.811.811,0,0,0,.227.657l3.01,3.172c.146.154.316.2.43.13s.049,0,.073-.057l1.371-2.166c.1-.154.357-.138.584,0s.552.365.811.519.584.325.868.462a1.339,1.339,0,0,1,.6.576l1.485,3.976a.747.747,0,0,0,.592.414L375.6,96a.43.43,0,0,0,.26-.049h0a.243.243,0,0,0,.114-.268l-.86-3.911a.446.446,0,0,1,.276-.495,4.436,4.436,0,0,0,1.2-.69.487.487,0,0,1,.609.1l2.791,2.556a.487.487,0,0,0,.308.146h0a.227.227,0,0,0,.105,0h0a.146.146,0,0,0,.073-.081l1.241-2.75a.706.706,0,0,0-.154-.649l-2.621-3.172a1.071,1.071,0,0,1-.252-.7,12.33,12.33,0,0,0,0-2.256.373.373,0,0,1,.4-.381l2.345-.138a.3.3,0,0,0,.316-.389l-1.225-4.389a.876.876,0,0,0-.584-.487l-2.564-.617a1.136,1.136,0,0,1-.657-.487,22.023,22.023,0,0,0-1.379-2.434,1,1,0,0,1-.154-.682L376,70.942a.812.812,0,0,0-.227-.657l-3-3.172c-.187-.187-.406-.219-.511-.073l-1.4,2.142c-.1.146-.357.138-.584,0a12.647,12.647,0,0,0-1.7-.982,1.339,1.339,0,0,1-.6-.576L366.5,63.648a.811.811,0,0,0-.6-.414L363.153,63a.43.43,0,0,0-.26.049.243.243,0,0,0-.122.276l.868,3.911a.446.446,0,0,1-.284.487,4.3,4.3,0,0,0-1.193.7.5.5,0,0,1-.617-.105l-2.791-2.548a.389.389,0,0,0-.406-.13h0a.17.17,0,0,0-.081.089L357,68.468a.714.714,0,0,0,.162.649l2.612,3.172a1.128,1.128,0,0,1,.26.69,11.065,11.065,0,0,0-.057,1.168,7.181,7.181,0,0,0,.057,1.1.381.381,0,0,1-.4.381l-2.337.13a.471.471,0,0,0-.17.049h0A.284.284,0,0,0,357,76.151Zm10.288,7.984c-2.8-2.961-4.13-7.432-2.969-10a2.75,2.75,0,0,1,2.15-1.7h.325a4.4,4.4,0,0,1,1.939.414,6.122,6.122,0,0,1,.69.349,9.738,9.738,0,0,1,2.069,1.679,12.244,12.244,0,0,1,3.359,7.74,6.446,6.446,0,0,1-.041.811,4.683,4.683,0,0,1-.381,1.428,2.751,2.751,0,0,1-2.572,1.736h-1.039A7.862,7.862,0,0,1,367.283,84.135Z" transform="translate(-351.648 -45.92)" fill="#fff"></path>       </g>     </g>   </g> </svg>