<svg xmlns="http://www.w3.org/2000/svg" width="220.445" height="249.706" viewBox="0 0 220.445 249.706">   <g id="Grupo_473" data-name="Grupo 473" transform="translate(-236.294 -2194)">     <line id="Linha_54" data-name="Linha 54" y1="7.388" transform="translate(259.22 2413.745)" fill="none" stroke="#263238" stroke-linecap="round" stroke-linejoin="round" stroke-width="1"></line>     <g id="Grupo_454" data-name="Grupo 454" transform="translate(237 2194)">       <g id="freepik--Window--inject-338" transform="translate(22.293)">         <rect id="Retângulo_67" data-name="Retângulo 67" width="128.216" height="76.286" rx="8.95" transform="translate(0 13.941)" fill="#fff"></rect>         <path id="Caminho_1675" data-name="Caminho 1675" d="M205.4,73.3v1.984H77.18V73.3A5.045,5.045,0,0,1,82.2,68.25H200.4A5.011,5.011,0,0,1,205.4,73.3Z" transform="translate(-77.18 -54.337)" fill="#8f00fc"></path>         <rect id="Retângulo_68" data-name="Retângulo 68" width="128.216" height="76.286" rx="8.95" transform="translate(0 13.941)" fill="none" stroke="#263238" stroke-linecap="round" stroke-linejoin="round" stroke-width="1"></rect>         <path id="Caminho_1676" data-name="Caminho 1676" d="M205.4,73.3v1.984H77.18V73.3A5.045,5.045,0,0,1,82.2,68.25H200.4A5.011,5.011,0,0,1,205.4,73.3Z" transform="translate(-77.18 -54.337)" fill="none" stroke="#263238" stroke-linecap="round" stroke-linejoin="round" stroke-width="1"></path>         <path id="Caminho_1677" data-name="Caminho 1677" d="M100.857,73.538a1.284,1.284,0,1,1-1.284-1.278,1.284,1.284,0,0,1,1.284,1.278Z" transform="translate(-86.457 -56.099)" fill="#263238"></path>         <path id="Caminho_1678" data-name="Caminho 1678" d="M112.807,73.538a1.284,1.284,0,1,1-1.284-1.278A1.284,1.284,0,0,1,112.807,73.538Z" transform="translate(-91.708 -56.099)" fill="#263238"></path>         <ellipse id="Elipse_34" data-name="Elipse 34" cx="1.284" cy="1.284" rx="1.284" ry="1.284" transform="translate(25.231 16.155)" fill="#263238"></ellipse>         <rect id="Retângulo_69" data-name="Retângulo 69" width="40.388" height="21.576" rx="3.69" transform="translate(7.601 26.498)" fill="none" stroke="#263238" stroke-linecap="round" stroke-linejoin="round" stroke-width="1"></rect>         <line id="Linha_30" data-name="Linha 30" x2="35.018" transform="translate(9.978 45.36)" fill="none" stroke="#263238" stroke-linecap="round" stroke-linejoin="round" stroke-width="1"></line>         <rect id="Retângulo_70" data-name="Retângulo 70" width="4.064" height="4.064" transform="translate(12.579 41.24)" fill="#8f00fc" stroke="#263238" stroke-miterlimit="10" stroke-width="1"></rect>         <rect id="Retângulo_71" data-name="Retângulo 71" width="4.064" height="9.462" transform="translate(18.526 35.898)" fill="#8f00fc" stroke="#263238" stroke-miterlimit="10" stroke-width="1"></rect>         <rect id="Retângulo_72" data-name="Retângulo 72" width="4.064" height="7.932" transform="translate(25.225 37.524)" fill="#8f00fc" stroke="#263238" stroke-miterlimit="10" stroke-width="1"></rect>         <rect id="Retângulo_73" data-name="Retângulo 73" width="4.064" height="15.555" transform="translate(32.266 29.625)" fill="#8f00fc" stroke="#263238" stroke-miterlimit="10" stroke-width="1"></rect>         <rect id="Retângulo_74" data-name="Retângulo 74" width="4.064" height="15.555" transform="translate(39.301 29.749)" fill="#8f00fc" stroke="#263238" stroke-miterlimit="10" stroke-width="1"></rect>         <ellipse id="Elipse_35" data-name="Elipse 35" cx="11.362" cy="11.362" rx="11.362" ry="11.362" transform="translate(86.701 26.464)" fill="#8f00fc" stroke="#263238" stroke-miterlimit="10" stroke-width="1"></ellipse>         <path id="Caminho_1679" data-name="Caminho 1679" d="M250.209,111.527v1.166H248.3v-1.166A3.464,3.464,0,0,1,245.657,108v-.527l2.158-.235v.561c0,1.082.561,1.738,1.441,1.738a1.329,1.329,0,0,0,1.435-1.418c0-1.037-.97-1.928-2.113-2.876-1.357-1.121-2.707-2.455-2.707-4.339a3.279,3.279,0,0,1,2.433-3.537V96.19h1.906v1.16a3.309,3.309,0,0,1,2.472,3.56v.381l-2.158.23v-.392c0-1.121-.443-1.738-1.228-1.738s-1.228.488-1.228,1.418c0,1.037,1,1.906,2.119,2.876,1.334,1.121,2.707,2.455,2.707,4.339a3.447,3.447,0,0,1-2.685,3.5Z" transform="translate(-151.214 -66.615)" fill="#263238"></path>         <line id="Linha_31" data-name="Linha 31" x2="3.318" transform="translate(6.659 59.094)" fill="none" stroke="#263238" stroke-linecap="round" stroke-linejoin="round" stroke-width="1"></line>         <line id="Linha_32" data-name="Linha 32" x2="3.318" transform="translate(6.659 65.507)" fill="none" stroke="#263238" stroke-linecap="round" stroke-linejoin="round" stroke-width="1"></line>         <line id="Linha_33" data-name="Linha 33" x2="3.318" transform="translate(6.659 71.925)" fill="none" stroke="#263238" stroke-linecap="round" stroke-linejoin="round" stroke-width="1"></line>         <line id="Linha_34" data-name="Linha 34" x2="3.318" transform="translate(6.659 78.338)" fill="none" stroke="#263238" stroke-linecap="round" stroke-linejoin="round" stroke-width="1"></line>         <line id="Linha_35" data-name="Linha 35" y1="2.579" transform="translate(17.293 80.602)" fill="none" stroke="#263238" stroke-linecap="round" stroke-linejoin="round" stroke-width="1"></line>         <line id="Linha_36" data-name="Linha 36" y1="2.579" transform="translate(22.551 80.602)" fill="none" stroke="#263238" stroke-linecap="round" stroke-linejoin="round" stroke-width="1"></line>         <line id="Linha_37" data-name="Linha 37" y1="2.579" transform="translate(27.809 80.602)" fill="none" stroke="#263238" stroke-linecap="round" stroke-linejoin="round" stroke-width="1"></line>         <line id="Linha_38" data-name="Linha 38" y1="2.579" transform="translate(33.073 80.602)" fill="none" stroke="#263238" stroke-linecap="round" stroke-linejoin="round" stroke-width="1"></line>         <line id="Linha_39" data-name="Linha 39" y1="2.579" transform="translate(38.331 80.602)" fill="none" stroke="#263238" stroke-linecap="round" stroke-linejoin="round" stroke-width="1"></line>         <line id="Linha_40" data-name="Linha 40" y1="2.579" transform="translate(43.589 80.602)" fill="none" stroke="#263238" stroke-linecap="round" stroke-linejoin="round" stroke-width="1"></line>         <line id="Linha_41" data-name="Linha 41" y1="2.579" transform="translate(48.847 80.602)" fill="none" stroke="#263238" stroke-linecap="round" stroke-linejoin="round" stroke-width="1"></line>         <line id="Linha_42" data-name="Linha 42" y1="2.579" transform="translate(54.111 80.602)" fill="none" stroke="#263238" stroke-linecap="round" stroke-linejoin="round" stroke-width="1"></line>         <line id="Linha_43" data-name="Linha 43" y1="2.579" transform="translate(59.369 80.602)" fill="none" stroke="#263238" stroke-linecap="round" stroke-linejoin="round" stroke-width="1"></line>         <line id="Linha_44" data-name="Linha 44" y1="2.579" transform="translate(64.627 80.602)" fill="none" stroke="#263238" stroke-linecap="round" stroke-linejoin="round" stroke-width="1"></line>         <line id="Linha_45" data-name="Linha 45" y1="2.579" transform="translate(69.885 80.602)" fill="none" stroke="#263238" stroke-linecap="round" stroke-linejoin="round" stroke-width="1"></line>         <line id="Linha_46" data-name="Linha 46" y1="2.579" transform="translate(75.148 80.602)" fill="none" stroke="#263238" stroke-linecap="round" stroke-linejoin="round" stroke-width="1"></line>         <line id="Linha_47" data-name="Linha 47" y1="2.579" transform="translate(80.406 80.602)" fill="none" stroke="#263238" stroke-linecap="round" stroke-linejoin="round" stroke-width="1"></line>         <line id="Linha_48" data-name="Linha 48" y1="2.579" transform="translate(85.664 80.602)" fill="none" stroke="#263238" stroke-linecap="round" stroke-linejoin="round" stroke-width="1"></line>         <line id="Linha_49" data-name="Linha 49" y1="2.579" transform="translate(90.922 80.602)" fill="none" stroke="#263238" stroke-linecap="round" stroke-linejoin="round" stroke-width="1"></line>         <line id="Linha_50" data-name="Linha 50" y1="2.579" transform="translate(95.984 80.602)" fill="none" stroke="#263238" stroke-linecap="round" stroke-linejoin="round" stroke-width="1"></line>         <line id="Linha_51" data-name="Linha 51" y1="2.579" transform="translate(101.046 80.602)" fill="none" stroke="#263238" stroke-linecap="round" stroke-linejoin="round" stroke-width="1"></line>         <line id="Linha_52" data-name="Linha 52" y1="2.579" transform="translate(106.102 80.602)" fill="none" stroke="#263238" stroke-linecap="round" stroke-linejoin="round" stroke-width="1"></line>         <path id="Caminho_1680" data-name="Caminho 1680" d="M201.863,139.429v24.922c0,1.71-1.738,3.089-3.879,3.089H92.924a4.159,4.159,0,0,1-3.363-1.519,2.651,2.651,0,0,1-.561-1.57V139.429c0-1.682,1.738-3.089,3.879-3.089h105.1C200.125,136.34,201.863,137.719,201.863,139.429Z" transform="translate(-82.374 -84.259)" fill="none" stroke="#8f00fc" stroke-linecap="round" stroke-linejoin="round" stroke-width="1"></path>         <path id="Caminho_1681" data-name="Caminho 1681" d="M170.244,54.268,136.706,99.449l-12.826,17.276L109.867,107.8,92.719,130.548h-.247a3.089,3.089,0,0,1-2.663-1.519l19.266-25.567,14.014,8.907,9.591-12.893L167.655,52.39Z" transform="translate(-82.73 -47.367)" fill="#263238"></path>         <path id="Caminho_1682" data-name="Caminho 1682" d="M218.12,50.9l12.327-7.472-3.408,12.926-2.175-5.981Z" transform="translate(-139.115 -43.43)" fill="#263238"></path>       </g>       <path id="Caminho_1683" data-name="Caminho 1683" d="M254.359,310.52H57.217l-22.1,19.648" transform="translate(-35.12 -81.167)" fill="none" stroke="#263238" stroke-linecap="round" stroke-linejoin="round" stroke-width="1"></path>       <line id="Linha_53" data-name="Linha 53" y1="38.202" transform="translate(22.221 177.395)" fill="none" stroke="#263238" stroke-linecap="round" stroke-linejoin="round" stroke-width="1"></line>       <g id="freepik--Coins--inject-338" transform="translate(121.412 22.699)">         <path id="Caminho_1718" data-name="Caminho 1718" d="M295.093,159.35a20.353,20.353,0,0,1-15.765,19.826h-.065c-.533.118-1.065.224-1.614.3a20.782,20.782,0,0,1-2.909.207,20.351,20.351,0,1,1-.751-40.7c.185,0,.381,0,.561,0a.962.962,0,0,1,.179,0,1.286,1.286,0,0,1,.207,0,20.04,20.04,0,0,1,7.971,1.71A20.354,20.354,0,0,1,295.093,159.35Z" transform="translate(-254.006 -108.122)" fill="#8f00fc"></path>         <path id="Caminho_1719" data-name="Caminho 1719" d="M286.214,140.729C262.71,139.507,262.6,165.6,262.6,165.6a20.643,20.643,0,0,1,2.27-17.938c3.274-5.275,8.969-7.6,13.375-8.633A20.039,20.039,0,0,1,286.214,140.729Z" transform="translate(-257.302 -108.139)" fill="#fff" opacity="0.4"></path>         <path id="Caminho_1720" data-name="Caminho 1720" d="M295.09,159.354A20.354,20.354,0,0,1,279.261,179.2a20.018,20.018,0,0,1-4.525.51A20.357,20.357,0,1,1,273.985,139h.751A20.359,20.359,0,0,1,295.09,159.354Z" transform="translate(-254.004 -108.126)" fill="none" stroke="#263238" stroke-linecap="round" stroke-linejoin="round" stroke-width="1"></path>         <path id="Caminho_1721" data-name="Caminho 1721" d="M298.382,159.354A20.353,20.353,0,0,1,282.553,179.2H281.8a20.359,20.359,0,0,1-4.524-40.2h.751a20.359,20.359,0,0,1,20.354,20.354Z" transform="translate(-257.295 -108.126)" fill="none" stroke="#263238" stroke-linecap="round" stroke-linejoin="round" stroke-width="1"></path>         <path id="Caminho_1722" data-name="Caminho 1722" d="M293.219,175.786l.527,2.153-3.52.858-.527-2.147a6.588,6.588,0,0,1-6.486-5.331l-.241-.975,3.885-1.407.247,1.015c.488,2,1.805,2.954,3.447,2.551a2.523,2.523,0,0,0,2.012-3.268c-.471-1.917-2.668-3.117-5.213-4.356-3.01-1.457-6.116-3.307-6.968-6.788-.83-3.4.213-6.228,2.9-7.629l-.527-2.153,3.515-.858.527,2.147c3.055-.045,5.331,1.968,6.166,5.443l.174.706-3.879,1.407-.2-.779c-.516-2.113-1.6-3-3.049-2.651s-2.046,1.457-1.626,3.173c.471,1.917,2.7,3.072,5.213,4.361,2.977,1.508,6.116,3.307,6.968,6.783A6.488,6.488,0,0,1,293.219,175.786Z" transform="translate(-265.473 -111.84)" fill="none" stroke="#263238" stroke-miterlimit="10" stroke-width="1"></path>         <path id="Caminho_1723" data-name="Caminho 1723" d="M293.219,175.786l.527,2.153-3.52.858-.527-2.147a6.588,6.588,0,0,1-6.486-5.331l-.241-.975,3.885-1.407.247,1.015c.488,2,1.805,2.954,3.447,2.551a2.523,2.523,0,0,0,2.012-3.268c-.471-1.917-2.668-3.117-5.213-4.356-3.01-1.457-6.116-3.307-6.968-6.788-.83-3.4.213-6.228,2.9-7.629l-.527-2.153,3.515-.858.527,2.147c3.055-.045,5.331,1.968,6.166,5.443l.174.706-3.879,1.407-.2-.779c-.516-2.113-1.6-3-3.049-2.651s-2.046,1.457-1.626,3.173c.471,1.917,2.7,3.072,5.213,4.361,2.977,1.508,6.116,3.307,6.968,6.783A6.488,6.488,0,0,1,293.219,175.786Z" transform="translate(-265.473 -111.84)" opacity="0.3"></path>         <line id="Linha_59" data-name="Linha 59" y1="0.196" x2="4.299" transform="translate(10.329 68.532)" fill="none" stroke="#263238" stroke-linecap="round" stroke-linejoin="round" stroke-width="1"></line>         <line id="Linha_60" data-name="Linha 60" y1="0.32" x2="3.75" transform="translate(8.261 66.979)" fill="none" stroke="#263238" stroke-linecap="round" stroke-linejoin="round" stroke-width="1"></line>         <line id="Linha_61" data-name="Linha 61" y1="0.32" x2="3.75" transform="translate(6.579 65.471)" fill="none" stroke="#263238" stroke-linecap="round" stroke-linejoin="round" stroke-width="1"></line>         <line id="Linha_62" data-name="Linha 62" x2="3.212" transform="translate(6.063 37.113)" fill="none" stroke="#263238" stroke-linecap="round" stroke-linejoin="round" stroke-width="1"></line>         <line id="Linha_63" data-name="Linha 63" y1="0.146" x2="3.201" transform="translate(7.65 35.487)" fill="none" stroke="#263238" stroke-linecap="round" stroke-linejoin="round" stroke-width="1"></line>         <line id="Linha_64" data-name="Linha 64" y1="0.32" x2="3.375" transform="translate(9.656 33.828)" fill="none" stroke="#263238" stroke-linecap="round" stroke-linejoin="round" stroke-width="1"></line>         <path id="Caminho_1724" data-name="Caminho 1724" d="M279.325,179.177h-.062a20.017,20.017,0,0,1-4.524.51,20.351,20.351,0,1,1-.751-40.7c.185,0,.381,0,.561,0-4.961,1.564-13.285,5.561-15.511,13.9C255.893,164.737,262.973,178.185,279.325,179.177Z" transform="translate(-254.006 -108.122)" opacity="0.3"></path>         <path id="Caminho_1725" data-name="Caminho 1725" d="M313.625,160.685a20.353,20.353,0,0,1-15.765,19.826h-.065c-.533.118-1.065.224-1.614.3l5.269-38.785A20.354,20.354,0,0,1,313.625,160.685Z" transform="translate(-272.538 -109.458)" opacity="0.1"></path>         <path id="Caminho_1726" data-name="Caminho 1726" d="M330.67,103.109a12.332,12.332,0,0,1-14.748,4.283l-.073-.034q-.574-.252-1.121-.561a11,11,0,0,1-1.188-.74A12.332,12.332,0,0,1,327.1,85.525l.275.174c.129.073.252.163.381.252s.376.275.561.42a12.332,12.332,0,0,1,2.354,16.738Z" transform="translate(-278.036 -83.923)" fill="#8f00fc"></path>         <path id="Caminho_1727" data-name="Caminho 1727" d="M313.538,104.1s-2.012-5.925.661-10.286c3.363-5.465,8.515-7.96,15.527-6.615,0,0-3.8-2.567-10.163-.746S309.788,97.036,313.538,104.1Z" transform="translate(-279.481 -84.75)" fill="#fff" opacity="0.4"></path>         <path id="Caminho_1728" data-name="Caminho 1728" d="M330.665,103.132a12.332,12.332,0,0,1-14.748,4.271,12.08,12.08,0,0,1-2.41-1.323,12.332,12.332,0,0,1,13.851-20.359c.123.073.252.157.376.247A12.332,12.332,0,0,1,330.665,103.132Z" transform="translate(-278.03 -83.94)" fill="none" stroke="#263238" stroke-linecap="round" stroke-linejoin="round" stroke-width="1"></path>         <path id="Caminho_1729" data-name="Caminho 1729" d="M332.049,103.818A12.332,12.332,0,0,1,317.3,108.09l-.376-.247a12.332,12.332,0,0,1,11.817-21.436c.123.073.252.157.376.247A12.332,12.332,0,0,1,332.049,103.818Z" transform="translate(-279.415 -84.627)" fill="none" stroke="#263238" stroke-linecap="round" stroke-linejoin="round" stroke-width="1"></path>         <path id="Caminho_1730" data-name="Caminho 1730" d="M325.283,107.58l-.488,1.244-2.04-.8.488-1.25a3.991,3.991,0,0,1-1.345-4.894l.224-.561,2.41.656-.23.594c-.454,1.155-.146,2.085.807,2.461a1.525,1.525,0,0,0,2.136-.914c.437-1.121-.23-2.472-1.054-3.969-.975-1.771-1.861-3.767-1.071-5.785s2.281-3,4.092-2.758l.493-1.244,2.035.8-.488,1.239c1.525,1.043,1.945,2.8,1.155,4.849l-.163.4L329.834,97l.179-.454c.482-1.222.258-2.046-.561-2.377s-1.519,0-1.912,1c-.437,1.121.263,2.455,1.054,3.969.947,1.788,1.867,3.773,1.076,5.785a3.974,3.974,0,0,1-4.389,2.657Z" transform="translate(-283.686 -86.752)" fill="none" stroke="#263238" stroke-miterlimit="10" stroke-width="1"></path>         <path id="Caminho_1731" data-name="Caminho 1731" d="M325.283,107.58l-.488,1.244-2.04-.8.488-1.25a3.991,3.991,0,0,1-1.345-4.894l.224-.561,2.41.656-.23.594c-.454,1.155-.146,2.085.807,2.461a1.525,1.525,0,0,0,2.136-.914c.437-1.121-.23-2.472-1.054-3.969-.975-1.771-1.861-3.767-1.071-5.785s2.281-3,4.092-2.758l.493-1.244,2.035.8-.488,1.239c1.525,1.043,1.945,2.8,1.155,4.849l-.163.4L329.834,97l.179-.454c.482-1.222.258-2.046-.561-2.377s-1.519,0-1.912,1c-.437,1.121.263,2.455,1.054,3.969.947,1.788,1.867,3.773,1.076,5.785a3.974,3.974,0,0,1-4.389,2.657Z" transform="translate(-283.686 -86.752)" opacity="0.3"></path>         <path id="Caminho_1732" data-name="Caminho 1732" d="M327.049,85.548c-3.363-.6-7.624-.931-9.922.561-4.221,2.707-6.85,6.121-6.811,11.654s5.208,9.412,5.208,9.412l.3.219a12.141,12.141,0,0,1-2.337-1.295,12.332,12.332,0,0,1,13.56-20.533Z" transform="translate(-278.014 -83.941)" opacity="0.3"></path>         <path id="Caminho_1733" data-name="Caminho 1733" d="M335.4,105.033a12.332,12.332,0,0,1-14.748,4.283l-.073-.034q-.574-.252-1.121-.561L333.014,88.3A12.332,12.332,0,0,1,335.4,105.033Z" transform="translate(-282.768 -85.846)" opacity="0.1"></path>       </g>       <g id="freepik--Character--inject-338" transform="translate(56.335 112.386)">         <path id="Caminho_1734" data-name="Caminho 1734" d="M189.762,282.478a50.945,50.945,0,0,1-12.674,10.941,44.789,44.789,0,0,1-4.631,2.416c-10.965,4.929-23.462,5.249-35.148,2.416-24.573-5.955-37.61-27.645-39.266-51.724-.444-6.507-1.44-13.535,1.2-19.726s7.966-10.035,13.994-12.705a81.472,81.472,0,0,1,13.4-4.326,34.469,34.469,0,0,1,23.191,2.393c5.052,2.4,8.649,6.561,12.9,10.069q.675.556,1.359,1.108a127.322,127.322,0,0,0,13.508,9.5c7.144,4.357,14.458,8.468,19.023,15.785C203.9,260.286,197.751,272.983,189.762,282.478Z" transform="translate(-97.462 -182.631)" fill="#8f00fc"></path>         <path id="Caminho_1735" data-name="Caminho 1735" d="M189.762,282.478a50.945,50.945,0,0,1-12.674,10.941,44.789,44.789,0,0,1-4.631,2.416c-10.965,4.929-23.462,5.249-35.148,2.416-24.573-5.955-37.61-27.645-39.266-51.724-.444-6.507-1.44-13.535,1.2-19.726s7.966-10.035,13.994-12.705a81.472,81.472,0,0,1,13.4-4.326,34.469,34.469,0,0,1,23.191,2.393c5.052,2.4,8.649,6.561,12.9,10.069q.675.556,1.359,1.108a127.322,127.322,0,0,0,13.508,9.5c7.144,4.357,14.458,8.468,19.023,15.785C203.9,260.286,197.751,272.983,189.762,282.478Z" transform="translate(-97.462 -182.631)" fill="#fff" opacity="0.4"></path>         <path id="Caminho_1736" data-name="Caminho 1736" d="M164.03,223.341q-.683-.548-1.359-1.112c-4.245-3.516-7.85-7.669-12.9-10.065a34.492,34.492,0,0,0-23.191-2.393c-10.216,2.536-22.887,6.441-27.4,17.036-2.636,6.175-1.64,13.215-1.193,19.722,1.675,24.079,14.712,45.769,39.285,51.724,13.369,3.242,27.788,2.354,39.779-4.832a50.942,50.942,0,0,0,12.674-10.942c7.989-9.494,14.133-22.192,6.858-33.855-4.562-7.333-11.876-11.428-19.023-15.785a127.331,127.331,0,0,1-13.531-9.5Z" transform="translate(-97.426 -182.633)" fill="none" stroke="#263238" stroke-miterlimit="10" stroke-width="1"></path>         <path id="Caminho_1737" data-name="Caminho 1737" d="M164.112,357.78a35.336,35.336,0,0,0-5.932,2.4" transform="translate(-134.732 -274.136)" fill="none" stroke="#263238" stroke-linecap="round" stroke-linejoin="round" stroke-width="1"></path>         <path id="Caminho_1738" data-name="Caminho 1738" d="M191.877,351.6A63.283,63.283,0,0,0,183,353.009" transform="translate(-149.973 -270.341)" fill="none" stroke="#263238" stroke-linecap="round" stroke-linejoin="round" stroke-width="1"></path>         <path id="Caminho_1739" data-name="Caminho 1739" d="M158.759,344.561a31.369,31.369,0,0,0-25.449-1.332" transform="translate(-119.461 -263.919)" fill="none" stroke="#263238" stroke-linecap="round" stroke-linejoin="round" stroke-width="1"></path>         <path id="Caminho_1740" data-name="Caminho 1740" d="M199.241,282.478a50.943,50.943,0,0,1-12.674,10.941,44.793,44.793,0,0,1-4.631,2.416,36.175,36.175,0,0,1-3.694-1.355c-7.2-3.088-13.246-8.309-19.151-13.458-3.562-3.088-7.182-6.252-11.447-8.286a26.329,26.329,0,0,0-18.464-1.521,20.737,20.737,0,0,1,12.211-6.719c-3.049-2.775-7.291-3.94-11.412-4.014a37.713,37.713,0,0,0-10.421,1.335,9.8,9.8,0,0,1,7.742-4.654,70.123,70.123,0,0,1-8.02-.567c-3.639-.587-5.268-4.871-5.812-8.514-1.505-10.035.019-20.721,5.5-29.251a29.777,29.777,0,0,1,3.744-4.736,81.472,81.472,0,0,1,13.4-4.326,34.469,34.469,0,0,1,23.191,2.393c5.052,2.4,8.649,6.561,12.9,10.069q.675.556,1.359,1.108a127.326,127.326,0,0,0,13.508,9.5c7.144,4.357,14.458,8.468,19.023,15.785C213.375,260.286,207.231,272.983,199.241,282.478Z" transform="translate(-106.941 -182.631)" opacity="0.1"></path>         <path id="Caminho_1741" data-name="Caminho 1741" d="M337.576,399a74.649,74.649,0,0,0,6.781,5.017c4.589.309,2.532,5.855,2.532,5.855L342.96,412.4s-6.727-5.345-10.4-7.078S337.576,399,337.576,399Z" transform="translate(-241.254 -299.447)" fill="#fff"></path>         <path id="Caminho_1742" data-name="Caminho 1742" d="M183.135,222.154s-.629-6.225-1.633-7.974l-15.237-3.1V209.9s.351-2.053-3.045-3.338-10.475.386-12.3,1.768a3.688,3.688,0,0,0-1.158,3.759s-6.137,3.1-8.892,4.28a70.411,70.411,0,0,0-6.588,3.474s-1.25,14.311-1,17.634-.2,6.449.085,8.29a5.725,5.725,0,0,0,2.439,4.454c1.93,1.567,3.686,3.859,8.746,1.586l-.706-.56,33.307-11.219Z" transform="translate(-119.421 -180.994)" opacity="0.3"></path>         <path id="Caminho_1743" data-name="Caminho 1743" d="M183.135,222.154s-.629-6.225-1.633-7.974l-15.237-3.1V209.9s.351-2.053-3.045-3.338-10.475.386-12.3,1.768a3.688,3.688,0,0,0-1.158,3.759s-6.137,3.1-8.892,4.28a70.411,70.411,0,0,0-6.588,3.474s-1.25,14.311-1,17.634-.2,6.449.085,8.29a5.725,5.725,0,0,0,2.439,4.454c1.93,1.567,3.686,3.859,8.746,1.586l-.706-.56,33.307-11.219Z" transform="translate(-119.421 -180.994)" fill="#8f00fc"></path>         <path id="Caminho_1744" data-name="Caminho 1744" d="M183.135,222.154s-.629-6.225-1.633-7.974l-15.237-3.1V209.9s.351-2.053-3.045-3.338-10.475.386-12.3,1.768a3.688,3.688,0,0,0-1.158,3.759s-6.137,3.1-8.892,4.28a70.411,70.411,0,0,0-6.588,3.474s-1.25,14.311-1,17.634-.2,6.449.085,8.29a5.725,5.725,0,0,0,2.439,4.454c1.93,1.567,3.686,3.859,8.746,1.586l-.706-.56,33.307-11.219Z" transform="translate(-119.421 -180.994)" opacity="0.05"></path>         <path id="Caminho_1745" data-name="Caminho 1745" d="M184.334,229h-6.376a2.536,2.536,0,0,0-2.5,2.119L172.32,250.03a16.7,16.7,0,0,0-7.391,2.594c-3.064,2.235-10.6-13.709-22.512-13.716,0,0,3.427,7.835,4.187,14.087,0,0-7.445-.81-8.68,2.1s.56,8.375,3.709,6.26,6.113-5.643,8.217-3.412,11.5,3.431,11.5,3.431l14.461-7.291,5.608-2.636Z" transform="translate(-122.053 -195.057)" opacity="0.1"></path>         <path id="Caminho_1746" data-name="Caminho 1746" d="M187.4,204.71s3.62,1,4.207,2.219a13.719,13.719,0,0,1,.525,4.292,14.858,14.858,0,0,1-3.894,5.357l-2.7-5.357.243,6.075s-5.125-.853-7.3-2.489l-2.173-1.64a17.3,17.3,0,0,1-.8-4.133c.135-1.046,4.045-3.169,4.045-3.169Z" transform="translate(-145.359 -180.142)" fill="#fff" opacity="0.4"></path>         <path id="Caminho_1747" data-name="Caminho 1747" d="M333.293,423.116c-.1-.22,1.486-3.022.243-5.874s-3.223-1.752-3.223-1.752-5.639-3.589-8.008-4.724a40.414,40.414,0,0,1-4.921-2.925l-2.5,3.373,2.316,7.163Z" transform="translate(-230.955 -304.875)" fill="#8f00fc"></path>         <path id="Caminho_1748" data-name="Caminho 1748" d="M354.34,404.392l7.24,4.423A70.965,70.965,0,0,0,369.1,403.3c2.428-2.254,7.881-7.055,7.881-7.055l3.474-4.674s-2.408-2.979-6.422-.587c-5.187,3.088-11.513,7.572-15.731,7.53,0,0,.83,5.183-3.933,5.882" transform="translate(-255.185 -293.951)" fill="#8f00fc"></path>         <path id="Caminho_1749" data-name="Caminho 1749" d="M183.186,156.23a62.589,62.589,0,0,1,3.883,6.58,14.686,14.686,0,0,1,.961,5.137c-.12,1.146-1.324,7.287-1.93,7.464l-.583.66.386,2.6s-2.57,4.442-10.127,1.185c0,0-.293-5.187-1.212-6.816s-2.293.309-3.67-4.4S173.9,159,173.9,159Z" transform="translate(-142.375 -150.373)" fill="#fff"></path>         <path id="Caminho_1750" data-name="Caminho 1750" d="M387.444,390.22s-3.724.648-4.932,2.852-3.527,6.3-4.319,8.279-7.333,6.762-7.333,6.762l.868.807a60.432,60.432,0,0,0,8.541-6.422c3.215-3.13,10.3-11,10.3-11S390.065,390.988,387.444,390.22Z" transform="translate(-265.329 -294.055)" fill="#fff" opacity="0.5"></path>         <path id="Caminho_1751" data-name="Caminho 1751" d="M315.8,413.37l-.922,1.239,2.833,5.874,15.581,5.6.722-2.281s.239-2.316-5.23-4.076-8.8-2.922-10.359-4.13S315.8,413.37,315.8,413.37Z" transform="translate(-230.954 -308.271)" fill="#fff" opacity="0.5"></path>         <path id="Caminho_1752" data-name="Caminho 1752" d="M169.676,292.274s-4.77-.718-7,3.184-2,5.592-2,5.592a11.544,11.544,0,0,0,7.487,2.7c4.334-.162,10.644-5.125,12.7-6.742s7.244-6.245,10.783-5.288l.386-3.346s-.347-1.5-3.373-1.1-4.215,2.13-5.191,2.13-1.9-.938-3.859,2.412C179.61,291.822,172.729,293.042,169.676,292.274Z" transform="translate(-136.263 -230.802)" fill="#fff"></path>         <path id="Caminho_1753" data-name="Caminho 1753" d="M200.06,174.75a13.819,13.819,0,0,0,.432,1.849,2.153,2.153,0,0,0,.386.814,2.5,2.5,0,0,0,1.486.567.406.406,0,0,1,.239.1.386.386,0,0,1,.058.232,3.088,3.088,0,0,1-.525,1.706" transform="translate(-160.449 -161.745)" fill="none" stroke="#263238" stroke-linecap="round" stroke-linejoin="round" stroke-width="1"></path>         <path id="Caminho_1754" data-name="Caminho 1754" d="M320.469,403l-3.2,3.987a23.6,23.6,0,0,0,7.148,4.45c3.636,1.2,10,3.474,11.065,5.222l-.409-2.08s-9.954-6.106-12.238-7.565A5.272,5.272,0,0,1,320.469,403Z" transform="translate(-232.422 -301.903)" opacity="0.1"></path>         <path id="Caminho_1755" data-name="Caminho 1755" d="M354.34,404.5l6.372,3.616a40.01,40.01,0,0,0,4.689-3.74,16.5,16.5,0,0,0,4.631-6.9,13.741,13.741,0,0,1,6.248-7.252,84.915,84.915,0,0,0-9.8,5.4c-3.354,2.37-6.623,3.373-8.522,3.211C357.945,398.846,359.469,403.67,354.34,404.5Z" transform="translate(-255.185 -294.055)" opacity="0.1"></path>         <path id="Caminho_1756" data-name="Caminho 1756" d="M194.24,190.67s2.5,1.964,5.106,1.227C199.346,191.9,196.891,196.76,194.24,190.67Z" transform="translate(-156.875 -171.521)" fill="#fff" stroke="#263238" stroke-linecap="round" stroke-linejoin="round" stroke-width="1"></path>         <path id="Caminho_1757" data-name="Caminho 1757" d="M192.4,178.211c.073.54-.093,1.007-.363,1.046s-.552-.386-.625-.915.089-1.007.363-1.046S192.342,177.67,192.4,178.211Z" transform="translate(-155.128 -163.307)" fill="#263238"></path>         <path id="Caminho_1758" data-name="Caminho 1758" d="M206.532,175.668c.069.544-.093,1.011-.363,1.046s-.556-.386-.625-.911.089-1.011.363-1.046S206.459,175.127,206.532,175.668Z" transform="translate(-163.806 -161.748)" fill="#263238"></path>         <path id="Caminho_1759" data-name="Caminho 1759" d="M189.027,173.451a1.908,1.908,0,0,0-2.5.861" transform="translate(-152.141 -160.84)" fill="none" stroke="#263238" stroke-linecap="round" stroke-linejoin="round" stroke-width="1"></path>         <path id="Caminho_1760" data-name="Caminho 1760" d="M202.69,170.194s1.544-1.324,2.435,0" transform="translate(-162.064 -158.586)" fill="none" stroke="#263238" stroke-linecap="round" stroke-linejoin="round" stroke-width="1"></path>         <path id="Caminho_1761" data-name="Caminho 1761" d="M175.246,184.462s-.938-1.386-1.93-1.343-1.386,1.432-1.03,2.775,1.833,3.219,2.952,3.041a2.486,2.486,0,0,0,1.609-.9" transform="translate(-143.315 -166.883)" fill="none" stroke="#263238" stroke-linecap="round" stroke-linejoin="round" stroke-width="1"></path>         <path id="Caminho_1762" data-name="Caminho 1762" d="M195.545,159.13a8.668,8.668,0,0,1,2.7,3.118c.471,1.1.575,2.316,1.007,3.423a11.45,11.45,0,0,1,1,3.717,15.741,15.741,0,0,1-.467,3.547,19.548,19.548,0,0,1-.714,2.968A5.252,5.252,0,0,1,196.3,178.8c-.938.479-2.5,1.158-3.516.517a12.005,12.005,0,0,1-2.215-2.5" transform="translate(-154.621 -152.153)" fill="none" stroke="#263238" stroke-linecap="round" stroke-linejoin="round" stroke-width="1"></path>         <path id="Caminho_1763" data-name="Caminho 1763" d="M180.16,198.19s1.66,4.068,1.258,6.928" transform="translate(-148.229 -176.138)" fill="none" stroke="#263238" stroke-linecap="round" stroke-linejoin="round" stroke-width="1"></path>         <path id="Caminho_1764" data-name="Caminho 1764" d="M167.819,157.949a1.6,1.6,0,0,0,.641-1.432c-.062-.625-.494-1.2-.409-1.829a3.371,3.371,0,0,1,.332-.857,3.593,3.593,0,0,0-.2-3.25s5.272.247,7.742-1.324,4.353-5.588,2.86-7.507-4.4.7-6.561.988-9.83,1.513-11.053,4.469.641,4.018.7,6.839.058,8.167,4.276,7.676a4.132,4.132,0,0,1-.482-4.145C166.407,156.694,167.819,157.949,167.819,157.949Z" transform="translate(-136.313 -141.053)" fill="#263238"></path>         <path id="Caminho_1765" data-name="Caminho 1765" d="M201.748,151.5a6.615,6.615,0,0,1,2.524,4.631c.235,2.115,3.987,6.225,1.281,8.568,0,0-.629-2.489-1-3.717s-.845-3.474-1.467-4.245-3.917-3.473-3.917-3.473Z" transform="translate(-159.902 -147.468)" fill="#263238"></path>         <path id="Caminho_1766" data-name="Caminho 1766" d="M177.719,211.974a14.754,14.754,0,0,0,7.433,1.783l.567,6.48a17.493,17.493,0,0,1-9.475-4.13s-1.092-2.891-.8-4.133,2.887-2.474,2.887-2.474" transform="translate(-145.302 -183.083)" fill="none" stroke="#263238" stroke-linecap="round" stroke-linejoin="round" stroke-width="1"></path>         <path id="Caminho_1767" data-name="Caminho 1767" d="M204.177,207.657l.154,2.316a9.579,9.579,0,0,1-3.651,2.374l3.026,5.762s3.609-2.81,3.967-5.762c0,0,.031-3.022-.6-3.886s-2.922-1.27-2.922-1.27" transform="translate(-160.829 -181.665)" fill="none" stroke="#263238" stroke-linecap="round" stroke-linejoin="round" stroke-width="1"></path>         <path id="Caminho_1768" data-name="Caminho 1768" d="M171.8,151.96a3.09,3.09,0,0,1,2.474-1.7,25.63,25.63,0,0,1,3.13-.073,8.035,8.035,0,0,0,4.091-1.158,5.469,5.469,0,0,0,2.47-3.381" transform="translate(-143.096 -143.876)" fill="none" stroke="#fff" stroke-linecap="round" stroke-linejoin="round" stroke-width="1" opacity="0.8"></path>         <path id="Caminho_1769" data-name="Caminho 1769" d="M165.35,153.724a5.492,5.492,0,0,1,4.847-3.377c1.03-.089,2.073.031,3.088-.089a3.49,3.49,0,0,0,2.632-1.428" transform="translate(-139.135 -145.829)" fill="none" stroke="#fff" stroke-linecap="round" stroke-linejoin="round" stroke-width="1" opacity="0.8"></path>         <path id="Caminho_1770" data-name="Caminho 1770" d="M144.569,261.309c-5.017,2.6-6.8-.077-9.595-2.293s-.961-6.175-1.544-12.524.868-17.148.868-17.148a20.11,20.11,0,0,0,4.72-2.408c3.47-2.123,10.772-5.357,10.772-5.357" transform="translate(-119.45 -190.501)" fill="none" stroke="#263238" stroke-linecap="round" stroke-linejoin="round" stroke-width="1"></path>         <path id="Caminho_1771" data-name="Caminho 1771" d="M157.325,295.5s-.8-2.52-3.041-2.586-5.789.946-8.313,5.72" transform="translate(-127.235 -234.303)" fill="none" stroke="#263238" stroke-linecap="round" stroke-linejoin="round" stroke-width="1"></path>         <path id="Caminho_1772" data-name="Caminho 1772" d="M156.361,291.459a1.244,1.244,0,0,1-.405-.1,9.769,9.769,0,0,0-5.766-.262" transform="translate(-129.826 -232.997)" fill="none" stroke="#263238" stroke-linecap="round" stroke-linejoin="round" stroke-width="1"></path>         <path id="Caminho_1773" data-name="Caminho 1773" d="M146.84,250.63c4.087,4.516,6.079,10.49,7.966,16.279" transform="translate(-127.769 -208.339)" fill="none" stroke="#263238" stroke-linecap="round" stroke-linejoin="round" stroke-width="1"></path>         <path id="Caminho_1774" data-name="Caminho 1774" d="M218.8,219s7.41,1.768,11.03,2.188,4.207.926,4.207.926l.675,2.524" transform="translate(-171.956 -188.917)" fill="none" stroke="#263238" stroke-linecap="round" stroke-linejoin="round" stroke-width="1"></path>         <path id="Caminho_1775" data-name="Caminho 1775" d="M264.838,230.38l-25.237.969L237.54,257.3h4.323l21.914-4.905,2.756-21.4Z" transform="translate(-183.464 -195.905)" fill="#fff"></path>         <path id="Caminho_1776" data-name="Caminho 1776" d="M240.94,260.036l27.6-26.456-2.678,20.783Z" transform="translate(-185.551 -197.87)" fill="#8f00fc"></path>         <path id="Caminho_1777" data-name="Caminho 1777" d="M240.94,260.036l27.6-26.456-2.678,20.783Z" transform="translate(-185.551 -197.87)" fill="#fff" opacity="0.7"></path>         <path id="Caminho_1778" data-name="Caminho 1778" d="M240.94,258.365l2.208-25.036,25.472-1.339-2.756,21.4Z" transform="translate(-185.551 -196.893)" fill="none" stroke="#263238" stroke-linecap="round" stroke-linejoin="round" stroke-width="1"></path>         <path id="Caminho_1779" data-name="Caminho 1779" d="M279.994,258.745c-.17,1.525-.984,2.682-1.818,2.59s-1.366-1.409-1.2-2.933.988-2.682,1.822-2.59S280.168,257.22,279.994,258.745Z" transform="translate(-207.662 -211.518)" fill="#263238"></path>         <path id="Caminho_1780" data-name="Caminho 1780" d="M272.2,287.405s11.663-.332,15.31,2.076,5.789,14.485,5.284,20.9-4.905,21.134-4.905,21.134l-8.429-9.541s-4.153-15.1-1.887-21.011c0,0-11.192.629-15.6-.753,0,0-3.948-6.465-10.718-8.6Z" transform="translate(-191.882 -230.912)" fill="#263238"></path>         <path id="Caminho_1781" data-name="Caminho 1781" d="M248.368,337.421a57.821,57.821,0,0,1-8.02-9.263,76.315,76.315,0,0,0-15.519-17.07c-4.674-3.79-5.731-9.965-11.5-13.064-9.552-5.121-17.811,5.056-20.9,7.117a69.021,69.021,0,0,1-8.433,4.4s1.953,7.333,7.688,8.2,11.536-3.088,14.28-1.177S210.742,327,219.8,332c7.406,4.083,17.5,8.066,22.705,10.752,1.158.6,2.022,1.235,2.678,1.594,1.8.98,3.721,2.134,5.534,3.277l6.248,3.805s6.272-3.709,8.68-7.128c.32-.459.988-1.683,1.613-2.864a14.2,14.2,0,0,1,5.477-6.175,28.438,28.438,0,0,1,3.088-1.251c-.158-.293-3.153-1.825-5.187-.988-4.307,1.779-12.918,8.614-16.982,8.1A30.424,30.424,0,0,1,248.368,337.421Z" transform="translate(-150.587 -236.567)" fill="none" stroke="#263238" stroke-miterlimit="10" stroke-width="1"></path>         <path id="Caminho_1782" data-name="Caminho 1782" d="M248.368,337.443c-3.755,1.517-5.268,3.859-5.847,5.334-5.206-2.7-15.3-6.669-22.705-10.752-9.062-5.017-11.077-13.531-13.836-15.438s-8.564,2.061-14.28,1.177-7.7-8.209-7.7-8.209a67.694,67.694,0,0,0,8.437-4.377c3.088-2.061,10.208-12.242,20.9-7.117,5.9,2.829,6.823,9.263,11.5,13.064a76.258,76.258,0,0,1,15.519,17.07A56.729,56.729,0,0,0,248.368,337.443Z" transform="translate(-150.587 -236.589)" fill="#263238"></path>         <path id="Caminho_1783" data-name="Caminho 1783" d="M265.686,306.433s-2.891-5.874-7.526-7.013" transform="translate(-196.125 -238.299)" fill="none" stroke="#fff" stroke-linecap="round" stroke-linejoin="round" stroke-width="1"></path>         <path id="Caminho_1784" data-name="Caminho 1784" d="M190.676,287.145c-3.188-.695-6.688,2.829-8.163,2.169-1.1-.49-2.9,2.412-2.9,2.412a48.29,48.29,0,0,1-8.962.452c-4.3-.274-6.329.563-7.85,2.86l-2.123,5.623s5.6,5.017,11.578,2.1,13.921-11.737,19.394-11.706" transform="translate(-136.267 -230.706)" fill="none" stroke="#263238" stroke-linecap="round" stroke-linejoin="round" stroke-width="1"></path>         <path id="Caminho_1785" data-name="Caminho 1785" d="M353.71,417.554s5.233.428,4.006-5.824" transform="translate(-254.798 -307.264)" fill="none" stroke="#263238" stroke-miterlimit="10" stroke-width="1"></path>         <path id="Caminho_1786" data-name="Caminho 1786" d="M402.787,396.685c-.386.772-5.183,4.855-9.317,8.425,0-.054,1.158-2.235,1.636-3.165,1.1-2.053,3.94-7.684,9.348-8.425C405.222,393.983,402.787,396.685,402.787,396.685Z" transform="translate(-279.213 -296.082)" fill="#263238"></path>         <path id="Caminho_1787" data-name="Caminho 1787" d="M386.846,390.33c-5.469,1.088-6.712,8.1-8.653,11.088s-7.333,7.04-7.333,7.04" transform="translate(-265.329 -294.123)" fill="none" stroke="#263238" stroke-miterlimit="10" stroke-width="1"></path>         <path id="Caminho_1788" data-name="Caminho 1788" d="M333.537,416.345a5.647,5.647,0,0,1,0,4.7,9.824,9.824,0,0,1-.857,1.687A58.014,58.014,0,0,1,317.2,417.3l-2-6.175-.32-.988,3.007-4.049" transform="translate(-230.955 -303.8)" fill="none" stroke="#263238" stroke-miterlimit="10" stroke-width="1"></path>         <path id="Caminho_1789" data-name="Caminho 1789" d="M334.046,429.063a9.815,9.815,0,0,1-.857,1.687,58.013,58.013,0,0,1-15.484-5.434l-2-6.175a11.038,11.038,0,0,0,5.631,4C325.112,424.208,332.07,425.458,334.046,429.063Z" transform="translate(-231.464 -311.814)" fill="#263238"></path>         <path id="Caminho_1790" data-name="Caminho 1790" d="M237.54,256.4l2.061-25.052,25.237-.969,1.694.621" transform="translate(-183.464 -195.905)" fill="none" stroke="#263238" stroke-linecap="round" stroke-linejoin="round" stroke-width="1"></path>         <path id="Caminho_1791" data-name="Caminho 1791" d="M364,405.385a8.245,8.245,0,0,0,6.1-1.544,80.552,80.552,0,0,0,6.924-7.051" transform="translate(-261.117 -298.09)" fill="none" stroke="#263238" stroke-miterlimit="10" stroke-width="1"></path>         <path id="Caminho_1792" data-name="Caminho 1792" d="M372.51,411s-.834,1.254,0,3.771" transform="translate(-266.115 -306.815)" fill="none" stroke="#263238" stroke-linecap="round" stroke-linejoin="round" stroke-width="1"></path>         <path id="Caminho_1793" data-name="Caminho 1793" d="M379.088,407.89a5.137,5.137,0,0,0,.313,3.771" transform="translate(-270.246 -304.906)" fill="none" stroke="#263238" stroke-linecap="round" stroke-linejoin="round" stroke-width="1"></path>         <path id="Caminho_1794" data-name="Caminho 1794" d="M386.506,403.51a6.673,6.673,0,0,0,0,3.944" transform="translate(-274.746 -302.216)" fill="none" stroke="#263238" stroke-linecap="round" stroke-linejoin="round" stroke-width="1"></path>         <path id="Caminho_1795" data-name="Caminho 1795" d="M320.037,404.74l-2.767,3.331a17.511,17.511,0,0,0,6.719,4.311c3.933,1.266,10.957,3.416,11.54,5.7" transform="translate(-232.422 -302.971)" fill="none" stroke="#263238" stroke-miterlimit="10" stroke-width="1"></path>       </g>       <g id="freepik--freepik--Plants--inject-120--inject-338" transform="translate(22.341 152.345)">         <path id="Caminho_1684" data-name="Caminho 1684" d="M395.429,133.332s0-1.643-2.3-3.94-3.776-3.613-3.776-3.613-1.152,3.776.985,6.077a40.274,40.274,0,0,0,5.092,4.442Z" transform="translate(-375.731 -125.78)" fill="#8f00fc"></path>         <path id="Caminho_1685" data-name="Caminho 1685" d="M387.061,159.056s0-1.643-2.3-3.944-3.776-3.613-3.776-3.613-1.148,3.776.985,6.077a40.928,40.928,0,0,0,5.092,4.446Z" transform="translate(-370.701 -141.244)" fill="#8f00fc"></path>         <path id="Caminho_1686" data-name="Caminho 1686" d="M404.221,141.38s.175-1.635,2.7-3.68,4.139-3.19,4.139-3.19.742,3.888-1.623,5.937a40.476,40.476,0,0,1-5.531,3.872Z" transform="translate(-384.67 -131.029)" fill="#8f00fc"></path>         <path id="Caminho_1687" data-name="Caminho 1687" d="M393.66,172.9s.347-1.595,3.074-3.373,4.446-2.743,4.446-2.743.331,3.936-2.225,5.738a40.192,40.192,0,0,1-5.905,3.266Z" transform="translate(-378.141 -150.431)" fill="#8f00fc"></path>         <path id="Caminho_1688" data-name="Caminho 1688" d="M396.49,203.842s0-1.643,2.3-3.94,3.776-3.613,3.776-3.613,1.152,3.78-.985,6.077a39.958,39.958,0,0,1-5.088,4.446Z" transform="translate(-380.209 -168.174)" fill="#8f00fc"></path>         <path id="Caminho_1689" data-name="Caminho 1689" d="M387.873,210.742s.231-1.627-1.719-4.227-3.222-4.115-3.222-4.115-1.667,3.589.116,6.157a40.445,40.445,0,0,0,4.41,5.112Z" transform="translate(-371.632 -171.848)" fill="#8f00fc"></path>         <path id="Caminho_1690" data-name="Caminho 1690" d="M390.7,235.918s0-1.639,2.3-3.94,3.776-3.589,3.776-3.589,1.152,3.776-.985,6.073a40.274,40.274,0,0,1-5.092,4.446Z" transform="translate(-376.728 -187.475)" fill="#8f00fc"></path>         <path id="Caminho_1691" data-name="Caminho 1691" d="M394.485,255.682s-.4-1.595,1.232-4.386,2.739-4.446,2.739-4.446,2.065,3.365.586,6.129a40.358,40.358,0,0,1-3.8,5.582Z" transform="translate(-378.978 -198.574)" fill="#8f00fc"></path>         <path id="Caminho_1692" data-name="Caminho 1692" d="M396.463,143.7a46.569,46.569,0,0,1-.63,5.1c-.909,4.7-3.19,7.728-4.091,11.962s1.7,9.71,1,15.152-2.823,8.477-2.225,12.114S394.31,201.5,394.31,201.5" transform="translate(-376.558 -136.554)" fill="none" stroke="#263238" stroke-linecap="round" stroke-linejoin="round" stroke-width="1.177"></path>         <line id="Linha_55" data-name="Linha 55" y1="1.906" x2="2.476" transform="translate(19.531 9.538)" fill="none" stroke="#263238" stroke-linecap="round" stroke-linejoin="round" stroke-width="1.177"></line>         <line id="Linha_56" data-name="Linha 56" x1="1.033" y1="1.846" transform="translate(18.61 7.409)" fill="none" stroke="#263238" stroke-linecap="round" stroke-linejoin="round" stroke-width="1.177"></line>         <path id="Caminho_1693" data-name="Caminho 1693" d="M394.09,181.3s2.073-1.559,4.207-3.114" transform="translate(-378.766 -157.292)" fill="none" stroke="#263238" stroke-linecap="round" stroke-linejoin="round" stroke-width="1.177"></path>         <path id="Caminho_1694" data-name="Caminho 1694" d="M391.128,169.338a33.234,33.234,0,0,0-3.688-5.638" transform="translate(-374.768 -148.579)" fill="none" stroke="#263238" stroke-linecap="round" stroke-linejoin="round" stroke-width="1.177"></path>         <path id="Caminho_1695" data-name="Caminho 1695" d="M396.69,212.143a25.75,25.75,0,0,1,4.446-5.933" transform="translate(-380.329 -174.139)" fill="none" stroke="#263238" stroke-linecap="round" stroke-linejoin="round" stroke-width="1.177"></path>         <path id="Caminho_1696" data-name="Caminho 1696" d="M390.173,217.388a29.268,29.268,0,0,0-2.265-4.271c-1.2-1.786-1.388-2.018-1.388-2.018" transform="translate(-374.215 -177.079)" fill="none" stroke="#263238" stroke-linecap="round" stroke-linejoin="round" stroke-width="1.177"></path>         <path id="Caminho_1697" data-name="Caminho 1697" d="M390.7,244.34a27.742,27.742,0,0,1,1.87-3.78,24.547,24.547,0,0,1,2.416-3.19" transform="translate(-376.728 -192.874)" fill="none" stroke="#263238" stroke-linecap="round" stroke-linejoin="round" stroke-width="1.177"></path>         <path id="Caminho_1698" data-name="Caminho 1698" d="M396.381,263.562a7.026,7.026,0,0,1,.622-3.637c.865-1.671,1.842-3.864,2.249-4.725" transform="translate(-380.124 -203.594)" fill="none" stroke="#263238" stroke-linecap="round" stroke-linejoin="round" stroke-width="1.177"></path>         <path id="Caminho_1699" data-name="Caminho 1699" d="M367.285,191.6a4.075,4.075,0,0,1,1.013-2.719c1.192-1.695,1.994-2.68,1.994-2.68s1.128,2.241.04,3.916a25.583,25.583,0,0,1-2.711,3.334Z" transform="translate(-362.644 -162.108)" fill="#8f00fc"></path>         <path id="Caminho_1700" data-name="Caminho 1700" d="M375.325,206.859a4.077,4.077,0,0,1,1.013-2.723c1.192-1.691,1.994-2.676,1.994-2.676s1.128,2.245.04,3.916a25.315,25.315,0,0,1-2.711,3.334Z" transform="translate(-367.478 -171.283)" fill="#8f00fc"></path>         <path id="Caminho_1701" data-name="Caminho 1701" d="M360.7,198.749s-.279-1-2.093-1.994-2.943-1.555-2.943-1.555-.044,2.5,1.667,3.549a25.578,25.578,0,0,0,3.888,1.826Z" transform="translate(-355.66 -167.519)" fill="#8f00fc"></path>         <path id="Caminho_1702" data-name="Caminho 1702" d="M369.807,217.5a4.123,4.123,0,0,0-2.3-1.778c-1.9-.809-3.09-1.236-3.09-1.236s.219,2.5,2.026,3.353a25.732,25.732,0,0,0,4.059,1.408Z" transform="translate(-360.927 -179.117)" fill="#8f00fc"></path>         <path id="Caminho_1703" data-name="Caminho 1703" d="M373.306,236.849s-.179-1.029-1.87-2.221-2.763-1.858-2.763-1.858-.311,2.5,1.28,3.7a25.48,25.48,0,0,0,3.673,2.221Z" transform="translate(-363.469 -190.108)" fill="#8f00fc"></path>         <path id="Caminho_1704" data-name="Caminho 1704" d="M381.179,239.4a4.07,4.07,0,0,1,.618-2.835c.941-1.842,1.595-2.931,1.595-2.931s1.436,2.058.6,3.872a26,26,0,0,1-2.225,3.684Z" transform="translate(-370.971 -190.625)" fill="#8f00fc"></path>         <path id="Caminho_1705" data-name="Caminho 1705" d="M388.181,262.408s.12-1.037,1.739-2.325,2.652-1.994,2.652-1.994.455,2.472-1.065,3.772a25.873,25.873,0,0,1-3.537,2.432Z" transform="translate(-375.086 -205.332)" fill="#8f00fc"></path>         <path id="Caminho_1706" data-name="Caminho 1706" d="M380.412,256.349s-.179-1.033-1.87-2.225-2.759-1.854-2.759-1.854-.311,2.5,1.276,3.7a25.662,25.662,0,0,0,3.676,2.221Z" transform="translate(-367.744 -201.832)" fill="#8f00fc"></path>         <path id="Caminho_1707" data-name="Caminho 1707" d="M381.665,268.814a4.055,4.055,0,0,0-1.244-2.624c-1.336-1.579-2.2-2.5-2.2-2.5s-.933,2.333.3,3.908a26.063,26.063,0,0,0,2.991,3.09Z" transform="translate(-369.02 -208.699)" fill="#8f00fc"></path>         <path id="Caminho_1708" data-name="Caminho 1708" d="M366.85,199.14a29.508,29.508,0,0,0,.953,3.13c1.077,2.843,2.831,4.5,3.86,7.058s0,6.272,1.017,9.61,2.692,5,2.7,7.357-.9,8.868-.9,8.868" transform="translate(-362.388 -169.888)" fill="none" stroke="#263238" stroke-linecap="round" stroke-linejoin="round" stroke-width="1.177"></path>         <line id="Linha_57" data-name="Linha 57" x1="1.758" y1="0.921" transform="translate(3.409 30.991)" fill="none" stroke="#263238" stroke-linecap="round" stroke-linejoin="round" stroke-width="1.177"></line>         <line id="Linha_58" data-name="Linha 58" y1="1.268" x2="0.451" transform="translate(4.857 29.284)" fill="none" stroke="#263238" stroke-linecap="round" stroke-linejoin="round" stroke-width="1.177"></line>         <path id="Caminho_1709" data-name="Caminho 1709" d="M374.175,222.165s-1.471-.75-2.975-1.5" transform="translate(-365.003 -182.833)" fill="none" stroke="#263238" stroke-linecap="round" stroke-linejoin="round" stroke-width="1.177"></path>         <path id="Caminho_1710" data-name="Caminho 1710" d="M376.14,213.712a21.073,21.073,0,0,1,1.7-3.932" transform="translate(-367.974 -176.285)" fill="none" stroke="#263238" stroke-linecap="round" stroke-linejoin="round" stroke-width="1.177"></path>         <path id="Caminho_1711" data-name="Caminho 1711" d="M375.669,241.838a16.408,16.408,0,0,0-3.429-3.238" transform="translate(-365.629 -193.613)" fill="none" stroke="#263238" stroke-linecap="round" stroke-linejoin="round" stroke-width="1.177"></path>         <path id="Caminho_1712" data-name="Caminho 1712" d="M382.1,243.7a18.281,18.281,0,0,1,.945-2.915c.554-1.256.65-1.42.65-1.42" transform="translate(-371.557 -194.076)" fill="none" stroke="#263238" stroke-linecap="round" stroke-linejoin="round" stroke-width="1.177"></path>         <path id="Caminho_1713" data-name="Caminho 1713" d="M388.06,267.124a15.337,15.337,0,0,1,1.89-1.962,10.16,10.16,0,0,0,1.228-1.073" transform="translate(-375.14 -208.939)" fill="none" stroke="#263238" stroke-linecap="round" stroke-linejoin="round" stroke-width="1.177"></path>         <path id="Caminho_1714" data-name="Caminho 1714" d="M383.037,261.372a17.893,17.893,0,0,0-1.595-2.165,15.557,15.557,0,0,0-1.862-1.727" transform="translate(-370.042 -204.965)" fill="none" stroke="#263238" stroke-linecap="round" stroke-linejoin="round" stroke-width="1.177"></path>         <path id="Caminho_1715" data-name="Caminho 1715" d="M382.9,273.784a4.5,4.5,0,0,0-.8-2.221c-.726-.957-1.595-2.225-1.922-2.723" transform="translate(-370.403 -211.795)" fill="none" stroke="#263238" stroke-linecap="round" stroke-linejoin="round" stroke-width="1.177"></path>         <path id="Caminho_1716" data-name="Caminho 1716" d="M386.922,299H376.451a.8.8,0,0,1-.8-.778l-1.5-11.588h15.041l-1.5,11.588A.8.8,0,0,1,386.922,299Z" transform="translate(-366.777 -222.491)" fill="#263238"></path>         <path id="Caminho_1717" data-name="Caminho 1717" d="M387.321,288.011H372.416a1.172,1.172,0,0,1-1.176-1.164h0a1.2,1.2,0,0,1,1.172-1.176h14.909a1.172,1.172,0,0,1,1.176,1.172h0A1.172,1.172,0,0,1,387.321,288.011Z" transform="translate(-365.027 -221.914)" fill="#263238"></path>       </g>     </g>   </g> </svg>