<svg xmlns="http://www.w3.org/2000/svg" xmlns:xlink="http://www.w3.org/1999/xlink" width="270.852" height="249.5" viewBox="0 0 270.852 249.5">   <defs>     <clipPath id="clip-path">       <rect id="Retângulo_4799" data-name="Retângulo 4799" width="99.23" height="85.139" fill="#fff"></rect>     </clipPath>     <clipPath id="clip-path-2">       <path id="Caminho_19445" data-name="Caminho 19445" d="M194.9,285.64s2.069,9.244,1.951,11.823-4.988,9.488-5.113,7.906a10.789,10.789,0,0,1,.857-3.894s-1.707,2.313-2.313,2.217.488-3.288.488-3.288-1.825,1.825-2.438,1.478,1.337-3.044,1.337-3.044-2.217,2.313-2.305,1.581,1.943-3.769,1.943-3.769-2.069-4.382-2.217-6.207a5.911,5.911,0,0,1,1.212-3.525Z" transform="translate(-187.09 -285.64)" fill="#fff" stroke="#263238" stroke-linecap="round" stroke-linejoin="round" stroke-width="1"></path>     </clipPath>     <clipPath id="clip-path-3">       <path id="Caminho_19449" data-name="Caminho 19449" d="M194.8,285.64s1.478,6.451,1.345,8.276-1.951,7.175-3.288,6.2.85-4.618.85-4.618-3.754-2.638-4.618-5.113-.369-3.525-.369-3.525Z" transform="translate(-188.579 -285.64)" fill="#fff" stroke="#263238" stroke-linecap="round" stroke-linejoin="round" stroke-width="1"></path>     </clipPath>     <clipPath id="clip-path-4">       <path id="Caminho_19458" data-name="Caminho 19458" d="M150.365,164.65s-4.027,3.606-4.722,4.855-9.148,13.3-9.288,21.916,6.251,34.67,6.251,34.67L133,250.528l2.778,1.108,2.771-3.052v4.581s3.192,2.911,11.512,5.682,19.005-.414,19.005-.414l3.185-20.276v20l3.746-2.5.3-33.311s3.052-17.889,3.052-22.907-8.461-20.69-12.207-25.242-9.99-8.32-11.823-9.709S150.365,164.65,150.365,164.65Z" transform="translate(-133 -163.916)" fill="#263238" stroke="#263238" stroke-linecap="round" stroke-linejoin="round" stroke-width="1"></path>     </clipPath>     <clipPath id="clip-path-5">       <path id="Caminho_19466" data-name="Caminho 19466" d="M178.177,129.92s3.369,2.586,3.791,5.084-.835,5.276-.695,6.244,2.631,3.192,2.5,4.3-2.217,1.522-2.217,1.522-2.261,8.232-2.815,9.606-3.333.968-5.409.695l-3.746,11.084L157.228,153.92l1.943-5.83s-5.269-6.377-5.69-13.175,5-11.512,12.761-12.48,14.291,2.771,15.118,4.3S178.177,129.92,178.177,129.92Z" transform="translate(-153.459 -122.276)" fill="#fff" stroke="#263238" stroke-linecap="round" stroke-linejoin="round" stroke-width="1"></path>     </clipPath>     <clipPath id="clip-path-6">       <path id="Caminho_19476" data-name="Caminho 19476" d="M216.843,237.94s4.729-2.66,5.468-2.66,5.025,3.842,5.025,3.842l-1.773,2.66s5.616,2.808,5.025,3.842a7.9,7.9,0,0,1-5.172,2.956c-2.365.3-9.015-3.99-9.015-3.99Z" transform="translate(-216.4 -235.28)" fill="#fff" stroke="#263238" stroke-linecap="round" stroke-linejoin="round" stroke-width="1"></path>     </clipPath>     <clipPath id="clip-path-7">       <path id="Caminho_19481" data-name="Caminho 19481" d="M146,181.48s-3.99,7.685-4.434,11.527,15.813,34.434,17,35.468,35.757,2.069,35.757,2.069l1.478-7.537-29.557-8.424L156.19,183.7" transform="translate(-141.558 -181.48)" fill="#263238" stroke="#263238" stroke-linecap="round" stroke-linejoin="round" stroke-width="1"></path>     </clipPath>     <clipPath id="clip-path-8">       <path id="Caminho_19502" data-name="Caminho 19502" d="M305.052,175.455a27.446,27.446,0,0,0-2.468-3.887,14.778,14.778,0,0,0-3.65-2.712c-4.7-1.855-10.847.835-14.416,4.234a121.617,121.617,0,0,0-5.963,16.493c-1.884,7.389-1.648,16.729-1.648,16.729s6.244-8.01,14.719-17.431A112.383,112.383,0,0,1,305.444,175.9Z" transform="translate(-276.897 -168.251)" fill="#263238" stroke="#263238" stroke-linecap="round" stroke-linejoin="round" stroke-width="1"></path>     </clipPath>     <clipPath id="clip-path-9">       <path id="Caminho_19513" data-name="Caminho 19513" d="M272.892,133.071s-2.83,8.04-2.564,9.192.532,2.911.532,2.911-4.434,5.475-3.887,6.1a10.08,10.08,0,0,0,3,1.323s2.032,8.483,2.83,9.273,5.741-.968,5.741-.968l5.3,6.709,10.862-10.419-1.323-5.475s5.741-10.072,5.653-14.845-9.887-11.128-16.87-11.04-13.515,2.653-12.192,4.507A10.006,10.006,0,0,0,272.892,133.071Z" transform="translate(-266.927 -125.829)" fill="#fff" stroke="#263238" stroke-linecap="round" stroke-linejoin="round" stroke-width="1"></path>     </clipPath>   </defs>   <g id="Grupo_8277" data-name="Grupo 8277" transform="translate(-360 -1211.5)">     <g id="freepik--Window--inject-201" transform="translate(524.611 1211.929)">       <path id="Caminho_19404" data-name="Caminho 19404" d="M308.747,108.361H267.69l.415-7.781h41.057Z" transform="translate(-267.69 -100.58)" fill="#ccc"></path>       <path id="Caminho_19405" data-name="Caminho 19405" d="M308.747,123.111H267.69l.415-7.781h41.057Z" transform="translate(-267.69 -104.431)" fill="#ccc"></path>       <path id="Caminho_19406" data-name="Caminho 19406" d="M308.747,137.868H267.69l.415-7.788h41.057Z" transform="translate(-267.69 -108.282)" fill="#ccc"></path>       <path id="Caminho_19407" data-name="Caminho 19407" d="M308.747,152.618H267.69l.415-7.788h41.057Z" transform="translate(-267.69 -112.133)" fill="#ccc"></path>       <path id="Caminho_19408" data-name="Caminho 19408" d="M308.747,167.368H267.69l.415-7.788h41.057Z" transform="translate(-267.69 -115.983)" fill="#ccc"></path>       <path id="Caminho_19409" data-name="Caminho 19409" d="M308.747,182.121H267.69l.415-7.781h41.057Z" transform="translate(-267.69 -119.837)" fill="#ccc"></path>       <path id="Caminho_19410" data-name="Caminho 19410" d="M308.747,196.871H267.69l.415-7.781h41.057Z" transform="translate(-267.69 -123.688)" fill="#ccc"></path>       <path id="Caminho_19411" data-name="Caminho 19411" d="M308.747,211.628H267.69l.415-7.788h41.057Z" transform="translate(-267.69 -127.539)" fill="#ccc"></path>       <path id="Caminho_19412" data-name="Caminho 19412" d="M308.747,226.378H267.69l.415-7.788h41.057Z" transform="translate(-267.69 -131.39)" fill="#ccc"></path>       <path id="Caminho_19413" data-name="Caminho 19413" d="M308.747,241.128H267.69l.415-7.788h41.057Z" transform="translate(-267.69 -135.24)" fill="#ccc"></path>       <path id="Caminho_19414" data-name="Caminho 19414" d="M308.747,255.878H267.69l.415-7.788h41.057Z" transform="translate(-267.69 -139.091)" fill="#ccc"></path>       <path id="Caminho_19415" data-name="Caminho 19415" d="M385.113,108.361H344.05l.415-7.781h41.063Z" transform="translate(-300.639 -100.58)" fill="#ccc"></path>       <path id="Caminho_19416" data-name="Caminho 19416" d="M385.113,123.111H344.05l.415-7.781h41.063Z" transform="translate(-300.639 -104.431)" fill="#ccc"></path>       <path id="Caminho_19417" data-name="Caminho 19417" d="M385.113,137.868H344.05l.415-7.788h41.063Z" transform="translate(-300.639 -108.282)" fill="#ccc"></path>       <path id="Caminho_19418" data-name="Caminho 19418" d="M385.113,152.618H344.05l.415-7.788h41.063Z" transform="translate(-300.639 -112.133)" fill="#ccc"></path>       <path id="Caminho_19419" data-name="Caminho 19419" d="M385.113,167.368H344.05l.415-7.788h41.063Z" transform="translate(-300.639 -115.983)" fill="#ccc"></path>       <path id="Caminho_19420" data-name="Caminho 19420" d="M385.113,182.121H344.05l.415-7.781h41.063Z" transform="translate(-300.639 -119.837)" fill="#ccc"></path>       <path id="Caminho_19421" data-name="Caminho 19421" d="M385.113,196.871H344.05l.415-7.781h41.063Z" transform="translate(-300.639 -123.688)" fill="#ccc"></path>       <path id="Caminho_19422" data-name="Caminho 19422" d="M385.113,211.628H344.05l.415-7.788h41.063Z" transform="translate(-300.639 -127.539)" fill="#ccc"></path>       <path id="Caminho_19423" data-name="Caminho 19423" d="M385.113,226.378H344.05l.415-7.788h41.063Z" transform="translate(-300.639 -131.39)" fill="#ccc"></path>       <path id="Caminho_19424" data-name="Caminho 19424" d="M385.113,241.128H344.05l.415-7.788h41.063Z" transform="translate(-300.639 -135.24)" fill="#ccc"></path>       <path id="Caminho_19425" data-name="Caminho 19425" d="M385.113,255.878H344.05l.415-7.788h41.063Z" transform="translate(-300.639 -139.091)" fill="#ccc"></path>     </g>     <g id="freepik--Picture--inject-201" transform="translate(406.864 1211.5)">       <rect id="Retângulo_4797" data-name="Retângulo 4797" width="110.262" height="94.597" fill="#7300cc"></rect>       <rect id="Retângulo_4798" data-name="Retângulo 4798" width="99.23" height="85.139" transform="translate(5.512 4.729)" fill="#fff"></rect>       <g id="Grupo_8236" data-name="Grupo 8236" transform="translate(5.512 4.729)" clip-path="url(#clip-path)">         <path id="Caminho_19426" data-name="Caminho 19426" d="M215.03,141.33c-17.845,12.695-43.4,21.118-73.057,34.353a122.144,122.144,0,0,0-26.173,15.65v9.333h99.23Z" transform="translate(-115.8 -115.519)" fill="#7300cc"></path>         <path id="Caminho_19427" data-name="Caminho 19427" d="M225.966,106.4H186.145c-4.434,3.791-9.673,8.025-15.865,12.562-22.663,16.618-12.842,33.252,14.357,21.148,13.958-6.2,29.5-20.557,41.328-33.067Z" transform="translate(-126.736 -106.4)" fill="#7300cc"></path>         <path id="Caminho_19428" data-name="Caminho 19428" d="M132.956,118.186c0-6.938-8.638-1.478-17.106,5.5V141.2C124.089,133.12,132.956,124.393,132.956,118.186Z" transform="translate(-115.813 -108.639)" fill="#7300cc"></path>         <path id="Caminho_19429" data-name="Caminho 19429" d="M144.592,153.836a7.936,7.936,0,1,1-7.936-7.936A7.936,7.936,0,0,1,144.592,153.836Z" transform="translate(-119.173 -116.713)" fill="#7300cc"></path>         <path id="Caminho_19430" data-name="Caminho 19430" d="M215.03,141.33c-17.845,12.695-43.4,21.118-73.057,34.353a122.144,122.144,0,0,0-26.173,15.65v9.333h99.23Z" transform="translate(-115.8 -115.519)" fill="#fff" opacity="0.75"></path>         <path id="Caminho_19431" data-name="Caminho 19431" d="M225.966,106.4H186.145c-4.434,3.791-9.673,8.025-15.865,12.562-22.663,16.618-12.842,33.252,14.357,21.148,13.958-6.2,29.5-20.557,41.328-33.067Z" transform="translate(-126.736 -106.4)" fill="#fff" opacity="0.75"></path>         <g id="Grupo_8235" data-name="Grupo 8235" transform="translate(0.037 6.337)" opacity="0.75">           <path id="Caminho_19432" data-name="Caminho 19432" d="M132.956,118.186c0-6.938-8.638-1.478-17.106,5.5V141.2C124.089,133.12,132.956,124.393,132.956,118.186Z" transform="translate(-115.85 -114.976)" fill="#fff"></path>         </g>         <path id="Caminho_19433" data-name="Caminho 19433" d="M144.592,153.836a7.936,7.936,0,1,1-7.936-7.936A7.936,7.936,0,0,1,144.592,153.836Z" transform="translate(-119.173 -116.713)" fill="#fff" opacity="0.75"></path>       </g>       <path id="Caminho_19434" data-name="Caminho 19434" d="M219.4,187.151a10.581,10.581,0,1,1-10.574-10.581A10.581,10.581,0,0,1,219.4,187.151Z" transform="translate(-131.811 -119.991)" fill="#fff"></path>     </g>     <g id="freepik--Desk--inject-201" transform="translate(360 1304.757)">       <path id="Caminho_19435" data-name="Caminho 19435" d="M394.21,226.224l-21.747.185s-1.478-.185-1.8.894c0,0-3.776,9.532-3.953,12.946s.739,2.874-.739,7.389-5.572,15.1-7.906,23.727c-3.14,11.594-3.961,23.9-4.16,35.875,0,1.921-1.182,18.473,1.81,18.473,2.483,0,25.367,3.037,25.641-1.374,1.1-17.586-2.076-34.766,4.027-51.865,2.372-6.65,5.091-13.655,7.108-20.6s2.365-14.173,3.695-21.281C397.084,225.684,394.21,226.224,394.21,226.224Z" transform="translate(-125.528 -226.206)" fill="#263238"></path>       <path id="Caminho_19436" data-name="Caminho 19436" d="M400.941,228.382c-.214-2.512-2.135-2.158-2.135-2.158l-21.747.185s-1.478-.185-1.8.894c0,0-3.776,9.532-3.953,12.946a15.663,15.663,0,0,0,.074,2.7l.458.739s.739,6.288,9.347,6.65,13.485-3.6,15.281-7.389,2.52-9.887,3.953-13.485A11.931,11.931,0,0,1,400.941,228.382Z" transform="translate(-130.124 -226.206)" fill="#7300cc"></path>       <path id="Caminho_19437" data-name="Caminho 19437" d="M400.312,235.444c-1.478,5.254-.584,6.709-2.039,15.754s-6.709,19.212-8.756,28.589-1.16,42.3-.872,43.759a12.649,12.649,0,0,1,.126,2.342c.983-.369,1.574-.872,1.618-1.559,1.1-17.586-2.076-34.766,4.027-51.865,2.372-6.65,5.091-13.655,7.108-20.6s2.365-14.173,3.695-21.281c.554-2.956-.318-3.924-1.079-4.212h0a39.164,39.164,0,0,0-3.828,9.074Z" transform="translate(-134.542 -226.249)" fill="#7300cc"></path>       <path id="Caminho_19438" data-name="Caminho 19438" d="M336.814,406.529l-.148-.118V386.105h2.919V373.27H328.8v12.835h2.911v20.653L305.89,414.99v2.039a2.335,2.335,0,0,0,4.67,0v-.288l21.591-2.512v3.1a2.039,2.039,0,1,0,4.079,0v-3.2l22.463,2.616v.288a2.335,2.335,0,1,0,4.67,0V414.99Z" transform="translate(-113.052 -264.601)" fill="#263238"></path>       <rect id="Retângulo_4800" data-name="Retângulo 4800" width="70.028" height="14.889" rx="4" transform="translate(187.474 96.152)" fill="#263238"></rect>       <path id="Caminho_19439" data-name="Caminho 19439" d="M47.087,226.224l21.747.185s1.478-.185,1.8.894c0,0,3.776,9.532,3.953,12.946s-.739,2.874.739,7.389,5.571,15.1,7.906,23.727c3.148,11.594,3.961,23.9,4.16,35.875,0,1.921,1.182,18.473-1.81,18.473-2.475,0-25.36,3.037-25.641-1.374-1.094-17.586,2.076-34.766-4.027-51.865-2.372-6.65-5.091-13.655-7.1-20.6s-2.365-14.173-3.695-21.281C44.249,225.684,47.087,226.224,47.087,226.224Z" transform="translate(-44.928 -226.206)" fill="#263238"></path>       <path id="Caminho_19440" data-name="Caminho 19440" d="M45,228.382c.214-2.512,2.128-2.158,2.128-2.158l21.747.185s1.478-.185,1.8.894c0,0,3.776,9.532,3.953,12.946a16.257,16.257,0,0,1-.081,2.7l-.458.739s-.739,6.288-9.347,6.65-13.508-3.6-15.31-7.4-2.512-9.887-3.953-13.485a10.152,10.152,0,0,0-.48-1.079Z" transform="translate(-44.94 -226.206)" fill="#7300cc"></path>       <path id="Caminho_19441" data-name="Caminho 19441" d="M49.989,235.444c1.478,5.254.584,6.709,2.039,15.754s6.717,19.212,8.756,28.589,1.19,42.3.872,43.759a13.3,13.3,0,0,0-.126,2.342c-.975-.369-1.574-.872-1.618-1.559-1.094-17.586,2.076-34.766-4.027-51.865-2.372-6.65-5.091-13.655-7.1-20.6s-2.365-14.173-3.695-21.281c-.547-2.956.325-3.924,1.079-4.212h0a38.794,38.794,0,0,1,3.82,9.074Z" transform="translate(-44.918 -226.249)" fill="#7300cc"></path>       <path id="Caminho_19442" data-name="Caminho 19442" d="M99.246,406.529l.148-.118V386.105H96.438V373.27h10.8v12.835h-2.919v20.653l25.818,8.232v2.039a2.335,2.335,0,0,1-4.67,0v-.288l-21.51-2.512v3.1a2.047,2.047,0,0,1-4.086,0v-3.2l-22.515,2.616v.288a2.335,2.335,0,1,1-4.663,0V414.99Z" transform="translate(-52.167 -264.601)" fill="#263238"></path>       <rect id="Retângulo_4801" data-name="Retângulo 4801" width="70.028" height="14.889" rx="4" transform="translate(83.367 111.033) rotate(180)" fill="#263238"></rect>       <rect id="Retângulo_4802" data-name="Retângulo 4802" width="175.568" height="100.907" transform="translate(66.12 54.336)" fill="#ccc"></rect>       <rect id="Retângulo_4803" data-name="Retângulo 4803" width="175.347" height="2.793" transform="translate(66.209 56.759)" fill="#263238"></rect>       <rect id="Retângulo_4804" data-name="Retângulo 4804" width="180.778" height="4.411" transform="translate(62.211 52.681)" fill="#ccc"></rect>     </g>     <g id="freepik--Characters--inject-201" transform="translate(425.085 1227.959)">       <path id="Caminho_19443" data-name="Caminho 19443" d="M194.9,285.64s2.069,9.244,1.951,11.823-4.988,9.488-5.113,7.906a10.789,10.789,0,0,1,.857-3.894s-1.707,2.313-2.313,2.217.488-3.288.488-3.288-1.825,1.825-2.438,1.478,1.337-3.044,1.337-3.044-2.217,2.313-2.305,1.581,1.943-3.769,1.943-3.769-2.069-4.382-2.217-6.207a5.911,5.911,0,0,1,1.212-3.525Z" transform="translate(-147.122 -164.925)" fill="#fff"></path>       <g id="Grupo_8237" data-name="Grupo 8237" transform="translate(39.968 120.715)" clip-path="url(#clip-path-2)">         <path id="Caminho_19444" data-name="Caminho 19444" d="M194.9,285.64s2.069,9.244,1.951,11.823-4.988,9.488-5.113,7.906a10.789,10.789,0,0,1,.857-3.894s-1.707,2.313-2.313,2.217.488-3.288.488-3.288-1.825,1.825-2.438,1.478,1.337-3.044,1.337-3.044-2.217,2.313-2.305,1.581,1.943-3.769,1.943-3.769-2.069-4.382-2.217-6.207a5.911,5.911,0,0,1,1.212-3.525Z" transform="translate(-187.09 -285.64)" fill="#d9d9d9"></path>       </g>       <path id="Caminho_19446" data-name="Caminho 19446" d="M194.9,285.64s2.069,9.244,1.951,11.823-4.988,9.488-5.113,7.906a10.789,10.789,0,0,1,.857-3.894s-1.707,2.313-2.313,2.217.488-3.288.488-3.288-1.825,1.825-2.438,1.478,1.337-3.044,1.337-3.044-2.217,2.313-2.305,1.581,1.943-3.769,1.943-3.769-2.069-4.382-2.217-6.207a5.911,5.911,0,0,1,1.212-3.525Z" transform="translate(-147.122 -164.925)" fill="none" stroke="#263238" stroke-linecap="round" stroke-linejoin="round" stroke-width="1"></path>       <path id="Caminho_19447" data-name="Caminho 19447" d="M194.8,285.64s1.478,6.451,1.345,8.276-1.951,7.175-3.288,6.2.85-4.618.85-4.618-3.754-2.638-4.618-5.113-.369-3.525-.369-3.525Z" transform="translate(-147.51 -164.925)" fill="#fff"></path>       <g id="Grupo_8238" data-name="Grupo 8238" transform="translate(41.069 120.715)" clip-path="url(#clip-path-3)">         <path id="Caminho_19448" data-name="Caminho 19448" d="M194.8,285.64s1.478,6.451,1.345,8.276-1.951,7.175-3.288,6.2.85-4.618.85-4.618-3.754-2.638-4.618-5.113-.369-3.525-.369-3.525Z" transform="translate(-188.579 -285.64)" fill="#d9d9d9"></path>       </g>       <path id="Caminho_19450" data-name="Caminho 19450" d="M194.8,285.64s1.478,6.451,1.345,8.276-1.951,7.175-3.288,6.2.85-4.618.85-4.618-3.754-2.638-4.618-5.113-.369-3.525-.369-3.525Z" transform="translate(-147.51 -164.925)" fill="none" stroke="#263238" stroke-linecap="round" stroke-linejoin="round" stroke-width="1"></path>       <path id="Caminho_19451" data-name="Caminho 19451" d="M187.641,244.73l5.18,30.85-7.3,1.648-7.3-23.786Z" transform="translate(-144.806 -154.244)" fill="#263238" stroke="#263238" stroke-linecap="round" stroke-linejoin="round" stroke-width="1"></path>       <path id="Caminho_19452" data-name="Caminho 19452" d="M175.006,262.13s.473,36.739,1.175,46.633-1.884,23.084-4.234,26.852-12.724,27.34-12.251,28.737,2.594,5.653,2.594,6.828v4.943s11.771,7.773,12.717,7.773,2.121,1.884-.236,3.3-28.737,1.411-29.912.466a5.7,5.7,0,0,1-1.648-2.586s-3.769,1.411-3.532-2.121,4.47-18.606,4.47-18.606-2.586-16.493-1.648-27.089,4.241-23.32,4.241-25.907-3.3-19.788-3.769-22.611-7.3-10.84-4.241-17.195,5.416-16.493,6.362-17.195,13.663-1.182,18.843,0S174.77,255.531,175.006,262.13Z" transform="translate(-134.291 -156.57)" fill="#263238" stroke="#263238" stroke-linecap="round" stroke-linejoin="round" stroke-width="1"></path>       <path id="Caminho_19453" data-name="Caminho 19453" d="M150.365,164.65s-4.027,3.606-4.722,4.855-9.148,13.3-9.288,21.916,6.251,34.67,6.251,34.67L133,250.528l2.778,1.108,2.771-3.052v4.581s3.192,2.911,11.512,5.682,19.005-.414,19.005-.414l3.185-20.276v20l3.746-2.5.3-33.311s3.052-17.889,3.052-22.907-8.461-20.69-12.207-25.242-9.99-8.32-11.823-9.709S150.365,164.65,150.365,164.65Z" transform="translate(-133 -133.146)" fill="#263238"></path>       <g id="Grupo_8239" data-name="Grupo 8239" transform="translate(0 30.77)" clip-path="url(#clip-path-4)">         <path id="Caminho_19454" data-name="Caminho 19454" d="M150.365,164.65s-4.027,3.606-4.722,4.855-9.148,13.3-9.288,21.916,6.251,34.67,6.251,34.67L133,250.528l2.778,1.108,2.771-3.052v4.581s3.192,2.911,11.512,5.682,19.005-.414,19.005-.414l3.185-20.276v20l3.746-2.5.3-33.311s3.052-17.889,3.052-22.907-8.461-20.69-12.207-25.242-9.99-8.32-11.823-9.709S150.365,164.65,150.365,164.65Z" transform="translate(-133 -163.916)" fill="#fff" opacity="0.17"></path>         <path id="Caminho_19455" data-name="Caminho 19455" d="M140.46,204.88a49.727,49.727,0,0,0,8.394,4.825" transform="translate(-134.948 -174.61)" fill="none" stroke="#263238" stroke-linecap="round" stroke-linejoin="round" stroke-width="1"></path>         <path id="Caminho_19456" data-name="Caminho 19456" d="M142.45,210a48.056,48.056,0,0,0,8.6,1.478" transform="translate(-135.467 -175.947)" fill="none" stroke="#263238" stroke-linecap="round" stroke-linejoin="round" stroke-width="1"></path>         <path id="Caminho_19457" data-name="Caminho 19457" d="M153.53,255.42l15.946,1.892-1.049,3.355-14.69-1.677" transform="translate(-138.36 -187.805)" fill="none" stroke="#263238" stroke-linecap="round" stroke-linejoin="round" stroke-width="1"></path>       </g>       <path id="Caminho_19459" data-name="Caminho 19459" d="M150.365,164.65s-4.027,3.606-4.722,4.855-9.148,13.3-9.288,21.916,6.251,34.67,6.251,34.67L133,250.528l2.778,1.108,2.771-3.052v4.581s3.192,2.911,11.512,5.682,19.005-.414,19.005-.414l3.185-20.276v20l3.746-2.5.3-33.311s3.052-17.889,3.052-22.907-8.461-20.69-12.207-25.242-9.99-8.32-11.823-9.709S150.365,164.65,150.365,164.65Z" transform="translate(-133 -133.146)" fill="none" stroke="#263238" stroke-linecap="round" stroke-linejoin="round" stroke-width="1"></path>       <path id="Caminho_19460" data-name="Caminho 19460" d="M155.37,166l15.4,16.648,9.015,17.2s-1.943-12.761-3.606-16.256-9.155-12.155-10-14.1S155.37,166,155.37,166Z" transform="translate(-138.84 -133.69)" fill="#fff" stroke="#263238" stroke-linecap="round" stroke-linejoin="round" stroke-width="1"></path>       <path id="Caminho_19461" data-name="Caminho 19461" d="M180.6,195.708l4.264,8.128s-1.323-8.7-2.727-13.685l-.879-2.549a46.177,46.177,0,0,0-4-5.911l-2.416-.48,1.012,5.438,3.118,2.549Z" transform="translate(-143.923 -137.661)" fill="#263238" stroke="#263238" stroke-linecap="round" stroke-linejoin="round" stroke-width="1"></path>       <path id="Caminho_19462" data-name="Caminho 19462" d="M176.5,174.49l.8.924,2.5,2.956,1.478,7.507-6.421-6.406S175.7,175.606,176.5,174.49Z" transform="translate(-143.929 -135.906)" fill="#fff" stroke="#263238" stroke-linecap="round" stroke-linejoin="round" stroke-width="1"></path>       <path id="Caminho_19463" data-name="Caminho 19463" d="M178.177,129.92s3.369,2.586,3.791,5.084-.835,5.276-.695,6.244,2.631,3.192,2.5,4.3-2.217,1.522-2.217,1.522-2.261,8.232-2.815,9.606-3.333.968-5.409.695l-3.746,11.084L157.228,153.92l1.943-5.83s-5.269-6.377-5.69-13.175,5-11.512,12.761-12.48,14.291,2.771,15.118,4.3S178.177,129.92,178.177,129.92Z" transform="translate(-138.341 -122.275)" fill="#fff"></path>       <g id="Grupo_8240" data-name="Grupo 8240" transform="translate(15.118 0.002)" clip-path="url(#clip-path-5)">         <path id="Caminho_19464" data-name="Caminho 19464" d="M178.177,129.92s3.369,2.586,3.791,5.084-.835,5.276-.695,6.244,2.631,3.192,2.5,4.3-2.217,1.522-2.217,1.522-2.261,8.232-2.815,9.606-3.333.968-5.409.695l-3.746,11.084L157.228,153.92l1.943-5.83s-5.269-6.377-5.69-13.175,5-11.512,12.761-12.48,14.291,2.771,15.118,4.3S178.177,129.92,178.177,129.92Z" transform="translate(-153.459 -122.276)" fill="#d9d9d9"></path>         <path id="Caminho_19465" data-name="Caminho 19465" d="M163.773,163.086c2.084-.421,5.579-1.145,8.727-1.855l.813-2.409c1.729.229,3.946.554,4.951-.148-2.365-.975-8.217-2.682-9.414-4.877-1.478-2.727,3.695-10.663,3.695-14.631s-4.958-8.431-4.958-8.431c-2.387-2.268-6.739-2.956-10.6-2.956a10.4,10.4,0,0,0-3.532,8.608c.421,6.8,5.69,13.175,5.69,13.175l-1.943,5.83Z" transform="translate(-153.449 -123.713)" fill="#b8b8b8"></path>       </g>       <path id="Caminho_19467" data-name="Caminho 19467" d="M178.177,129.92s3.369,2.586,3.791,5.084-.835,5.276-.695,6.244,2.631,3.192,2.5,4.3-2.217,1.522-2.217,1.522-2.261,8.232-2.815,9.606-3.333.968-5.409.695l-3.746,11.084L157.228,153.92l1.943-5.83s-5.269-6.377-5.69-13.175,5-11.512,12.761-12.48,14.291,2.771,15.118,4.3S178.177,129.92,178.177,129.92Z" transform="translate(-138.341 -122.275)" fill="none" stroke="#263238" stroke-linecap="round" stroke-linejoin="round" stroke-width="1"></path>       <path id="Caminho_19468" data-name="Caminho 19468" d="M178.177,129.919s4.02-1.663,3.185-3.185-7.352-5.276-15.118-4.3-13.175,5.682-12.761,12.48,5.69,13.175,5.69,13.175l-.3.887c2.874,1.4,5.845-.887,5.845-.887a2.86,2.86,0,0,1-3.333-.554c-1.663-1.522-1.8-6.377.281-6.8s3.466.421,3.466,1.943.414.554,1.53.414.133-3.466.828-4.02a10.855,10.855,0,0,0,2.911-2.638c1.249-1.663-2.357-3.044-2.771-4.574S178.177,129.919,178.177,129.919Z" transform="translate(-138.342 -122.274)" fill="#263238" stroke="#263238" stroke-linecap="round" stroke-linejoin="round" stroke-width="1"></path>       <path id="Caminho_19469" data-name="Caminho 19469" d="M187.341,147.28l-2.571.857H187.1" transform="translate(-146.516 -128.803)" fill="none" stroke="#263238" stroke-linecap="round" stroke-linejoin="round" stroke-width="1"></path>       <path id="Caminho_19470" data-name="Caminho 19470" d="M188.282,143.429s-1.1-1.589-2.328-.857-1.345,1.227-1.345,1.227" transform="translate(-146.474 -127.523)" fill="none" stroke="#263238" stroke-linecap="round" stroke-linejoin="round" stroke-width="1"></path>       <path id="Caminho_19471" data-name="Caminho 19471" d="M186,158.88a3.613,3.613,0,0,0,2.571.591" transform="translate(-146.837 -131.831)" fill="none" stroke="#263238" stroke-linecap="round" stroke-linejoin="round" stroke-width="1"></path>       <path id="Caminho_19472" data-name="Caminho 19472" d="M156.977,161.53l15.532,15.259-1.382,6.517L154.62,165.55Z" transform="translate(-138.644 -132.523)" fill="#fff" stroke="#263238" stroke-linecap="round" stroke-linejoin="round" stroke-width="1"></path>       <path id="Caminho_19473" data-name="Caminho 19473" d="M233.172,239.429s-5.468-3.251-6.355-2.956-9.458,6.5-8.867,7.98,5.172,3.4,7.833,4.434,8.128-1.182,8.128-1.182Z" transform="translate(-155.171 -152.084)" fill="#fff" stroke="#263238" stroke-linecap="round" stroke-linejoin="round" stroke-width="1"></path>       <path id="Caminho_19474" data-name="Caminho 19474" d="M216.843,237.94s4.729-2.66,5.468-2.66,5.025,3.842,5.025,3.842l-1.773,2.66s5.616,2.808,5.025,3.842a7.9,7.9,0,0,1-5.172,2.956c-2.365.3-9.015-3.99-9.015-3.99Z" transform="translate(-154.774 -151.777)" fill="#fff"></path>       <g id="Grupo_8241" data-name="Grupo 8241" transform="translate(61.626 83.503)" clip-path="url(#clip-path-6)">         <path id="Caminho_19475" data-name="Caminho 19475" d="M216.843,237.94s4.729-2.66,5.468-2.66,5.025,3.842,5.025,3.842l-1.773,2.66s5.616,2.808,5.025,3.842a7.9,7.9,0,0,1-5.172,2.956c-2.365.3-9.015-3.99-9.015-3.99Z" transform="translate(-216.4 -235.28)" fill="#d9d9d9"></path>       </g>       <path id="Caminho_19477" data-name="Caminho 19477" d="M216.843,237.94s4.729-2.66,5.468-2.66,5.025,3.842,5.025,3.842l-1.773,2.66s5.616,2.808,5.025,3.842a7.9,7.9,0,0,1-5.172,2.956c-2.365.3-9.015-3.99-9.015-3.99Z" transform="translate(-154.774 -151.777)" fill="none" stroke="#263238" stroke-linecap="round" stroke-linejoin="round" stroke-width="1"></path>       <path id="Caminho_19478" data-name="Caminho 19478" d="M212.3,237.28l4.138.739-1.33,7.094-3.547-1.182Z" transform="translate(-153.51 -152.299)" fill="#fff" stroke="#263238" stroke-linecap="round" stroke-linejoin="round" stroke-width="1"></path>       <path id="Caminho_19479" data-name="Caminho 19479" d="M146,181.48s-3.99,7.685-4.434,11.527,15.813,34.434,17,35.468,35.757,2.069,35.757,2.069l1.478-7.537-29.557-8.424L156.19,183.7" transform="translate(-135.234 -137.731)" fill="#263238"></path>       <g id="Grupo_8242" data-name="Grupo 8242" transform="translate(6.324 43.749)" clip-path="url(#clip-path-7)">         <path id="Caminho_19480" data-name="Caminho 19480" d="M146,181.48s-3.99,7.685-4.434,11.527,15.813,34.434,17,35.468,35.757,2.069,35.757,2.069l1.478-7.537-29.557-8.424L156.19,183.7" transform="translate(-141.558 -181.48)" fill="#fff" opacity="0.17"></path>       </g>       <path id="Caminho_19482" data-name="Caminho 19482" d="M146,181.48s-3.99,7.685-4.434,11.527,15.813,34.434,17,35.468,35.757,2.069,35.757,2.069l1.478-7.537-29.557-8.424L156.19,183.7" transform="translate(-135.234 -137.731)" fill="none" stroke="#263238" stroke-linecap="round" stroke-linejoin="round" stroke-width="1"></path>       <path id="Caminho_19483" data-name="Caminho 19483" d="M229.231,237.23s-2.069-1.773-2.808.3-5.32,7.094-3.251,7.241,5.911-4.138,5.911-4.138" transform="translate(-156.403 -152.102)" fill="#fff" stroke="#263238" stroke-linecap="round" stroke-linejoin="round" stroke-width="1"></path>       <path id="Caminho_19484" data-name="Caminho 19484" d="M219.121,248.441s-.532,2.49.739,3.547c.894.739,1.4-1.33,1.182-2.808S219.564,247.259,219.121,248.441Z" transform="translate(-155.455 -155.037)" fill="#fff" stroke="#263238" stroke-linecap="round" stroke-linejoin="round" stroke-width="1"></path>       <path id="Caminho_19485" data-name="Caminho 19485" d="M221.961,249.241s-.532,2.49.739,3.547c.894.739,1.4-1.33,1.182-2.808S222.375,248.059,221.961,249.241Z" transform="translate(-156.197 -155.245)" fill="#fff" stroke="#263238" stroke-linecap="round" stroke-linejoin="round" stroke-width="1"></path>       <path id="Caminho_19486" data-name="Caminho 19486" d="M224.721,250.441s-.532,2.49.739,3.547c.894.739,1.4-1.33,1.182-2.808S225.164,249.259,224.721,250.441Z" transform="translate(-156.917 -155.559)" fill="#fff" stroke="#263238" stroke-linecap="round" stroke-linejoin="round" stroke-width="1"></path>       <path id="Caminho_19487" data-name="Caminho 19487" d="M227.494,252.148s-.488,1.677.68,2.387c.82.5,1.286-.894,1.086-1.892S227.9,251.35,227.494,252.148Z" transform="translate(-157.644 -156.062)" fill="#fff" stroke="#263238" stroke-linecap="round" stroke-linejoin="round" stroke-width="1"></path>       <path id="Caminho_19488" data-name="Caminho 19488" d="M238.56,240.428l.443,9.458,3.251-.887-.739-8.719Z" transform="translate(-160.559 -153.083)" fill="none" stroke="#263238" stroke-linecap="round" stroke-linejoin="round" stroke-width="1"></path>       <path id="Caminho_19489" data-name="Caminho 19489" d="M241.56,237.139l1.478,11.232,24.68-2.66.591-14.631Z" transform="translate(-161.342 -150.681)" fill="#263238" stroke="#263238" stroke-linecap="round" stroke-linejoin="round" stroke-width="1"></path>       <path id="Caminho_19490" data-name="Caminho 19490" d="M178.922,299.87s-4.478,29.912-4.478,40.042-6.828,27.089-7.064,36.51" transform="translate(-141.976 -168.64)" fill="none" stroke="#fff" stroke-linecap="round" stroke-linejoin="round" stroke-width="1"></path>       <path id="Caminho_19491" data-name="Caminho 19491" d="M146.718,430.922c1.175.946,27.554.946,29.912-.466s1.175-3.3.236-3.3-12.717-7.773-12.717-7.773-6.362,4.951-9.894,6.126a42.166,42.166,0,0,1-9.185,1.411v1.419A5.7,5.7,0,0,0,146.718,430.922Z" transform="translate(-136.151 -199.841)" fill="#fff" stroke="#263238" stroke-linecap="round" stroke-linejoin="round" stroke-width="1"></path>       <path id="Caminho_19492" data-name="Caminho 19492" d="M176.7,433.583c1.241-.739,1.478-1.626,1.33-2.283a58.257,58.257,0,0,1-10.515,1.1c-7.116.192-18.311-.244-22.168-.406a5.3,5.3,0,0,0,1.478,2.054C147.966,434.995,174.345,434.995,176.7,433.583Z" transform="translate(-136.224 -202.953)" fill="#fff" stroke="#263238" stroke-linecap="round" stroke-linejoin="round" stroke-width="1"></path>       <path id="Caminho_19493" data-name="Caminho 19493" d="M143.131,424.382l.687-1.6.938-19.308s-4.241,15.074-4.471,18.606C140.109,424.648,142.059,424.6,143.131,424.382Z" transform="translate(-134.899 -195.688)" fill="#263238" stroke="#263238" stroke-linecap="round" stroke-linejoin="round" stroke-width="1"></path>       <path id="Caminho_19494" data-name="Caminho 19494" d="M281.441,291.9s-2.35,35.1,0,49.227,8.269,38.631,9.185,41.69a16.256,16.256,0,0,1,.739,5.653l13.19,1.884s-4.005-46.4-4.005-51.813,4.478-45.932,4.478-45.932Z" transform="translate(-171.482 -166.559)" fill="#263238" stroke="#263238" stroke-linecap="round" stroke-linejoin="round" stroke-width="1"></path>       <path id="Caminho_19495" data-name="Caminho 19495" d="M289.43,422.5s-14.365,6.126-16.02,7.3,3.539,2.83,9.894,2.83a126.593,126.593,0,0,0,12.724-.739l2.586-1.411.236,1.648h6.828s1.182-5.653.739-7.064a26.058,26.058,0,0,0-1.175-2.83Z" transform="translate(-169.577 -200.585)" fill="#263238" stroke="#263238" stroke-linecap="round" stroke-linejoin="round" stroke-width="1"></path>       <path id="Caminho_19496" data-name="Caminho 19496" d="M278.94,287.829s1.182,33.68,4,45.7,7.773,41.217,7.773,44.276a18.022,18.022,0,0,1-.7,5.172l-.946,3.074a9.479,9.479,0,0,0,.739,2.121,57.764,57.764,0,0,0,10.123,1.411,26.6,26.6,0,0,0,7.389-1.116s.126-7.389.362-10.9-.938-26.143-.938-31.559-1.419-8.483-1.419-15.074-1.175-24.259-.938-27.089,3.532-5.911,4.241-9.421,1.411-7.3,1.411-7.3Z" transform="translate(-171.101 -165.311)" fill="#263238" stroke="#263238" stroke-linecap="round" stroke-linejoin="round" stroke-width="1"></path>       <path id="Caminho_19497" data-name="Caminho 19497" d="M282.76,336s6.584,45.673,8.232,48.555a8.394,8.394,0,0,1,.739,6" transform="translate(-172.099 -178.073)" fill="none" stroke="#fff" stroke-linecap="round" stroke-linejoin="round" stroke-width="1"></path>       <path id="Caminho_19498" data-name="Caminho 19498" d="M270.953,251.642s-.879,9.007-.879,15.894c0,3.842-.037,8.867-.074,12.5a6.443,6.443,0,0,0,5.172,6.362,24.7,24.7,0,0,0,4.707.569L274.345,252.7S271.84,248.465,270.953,251.642Z" transform="translate(-168.767 -155.74)" fill="#263238" stroke="#263238" stroke-linecap="round" stroke-linejoin="round" stroke-width="1"></path>       <path id="Caminho_19499" data-name="Caminho 19499" d="M297.4,168.79a14.778,14.778,0,0,1,3.65,2.712,27.446,27.446,0,0,1,2.5,3.938s10.012,11.542,10.249,12.717-5.653,38.276-5.653,38.276l6.709,35.092s-10.833,6.007-19.079,6.362c-5.8.251-14.527-1.6-19.212-2.727a4.567,4.567,0,0,1-3.5-4.035c-.458-4.936-1.315-14.778-1.818-24.1-.576-10.825,1.064-32.269,2.217-39.806s4.833-17.779,7.655-22.02S291.723,166.573,297.4,168.79Z" transform="translate(-169.062 -134.263)" fill="#263238" stroke="#263238" stroke-linecap="round" stroke-linejoin="round" stroke-width="1"></path>       <path id="Caminho_19500" data-name="Caminho 19500" d="M305.052,175.455a27.446,27.446,0,0,0-2.468-3.887,14.778,14.778,0,0,0-3.65-2.712c-4.7-1.855-10.847.835-14.416,4.234a121.617,121.617,0,0,0-5.963,16.493c-1.884,7.389-1.648,16.729-1.648,16.729s6.244-8.01,14.719-17.431A112.383,112.383,0,0,1,305.444,175.9Z" transform="translate(-170.568 -134.277)" fill="#263238"></path>       <g id="Grupo_8243" data-name="Grupo 8243" transform="translate(106.329 33.973)" clip-path="url(#clip-path-8)">         <path id="Caminho_19501" data-name="Caminho 19501" d="M305.052,175.455a27.446,27.446,0,0,0-2.468-3.887,14.778,14.778,0,0,0-3.65-2.712c-4.7-1.855-10.847.835-14.416,4.234a121.617,121.617,0,0,0-5.963,16.493c-1.884,7.389-1.648,16.729-1.648,16.729s6.244-8.01,14.719-17.431A112.383,112.383,0,0,1,305.444,175.9Z" transform="translate(-276.897 -168.251)" fill="#fff" opacity="0.17"></path>       </g>       <path id="Caminho_19503" data-name="Caminho 19503" d="M305.052,175.455a27.446,27.446,0,0,0-2.468-3.887,14.778,14.778,0,0,0-3.65-2.712c-4.7-1.855-10.847.835-14.416,4.234a121.617,121.617,0,0,0-5.963,16.493c-1.884,7.389-1.648,16.729-1.648,16.729s6.244-8.01,14.719-17.431A112.383,112.383,0,0,1,305.444,175.9Z" transform="translate(-170.568 -134.277)" fill="none" stroke="#263238" stroke-linecap="round" stroke-linejoin="round" stroke-width="1"></path>       <path id="Caminho_19504" data-name="Caminho 19504" d="M284.277,178.874s-3.185,9.983-4.153,12.806a29.842,29.842,0,0,0-1.064,7.249s11.926-17.845,14.838-20.845,6.717-7.685,6.717-7.685l-2.564-.739Z" transform="translate(-171.133 -134.645)" fill="#fff" stroke="#263238" stroke-linecap="round" stroke-linejoin="round" stroke-width="1"></path>       <path id="Caminho_19505" data-name="Caminho 19505" d="M286.686,177.23s-1.411,4.153-1.411,4.434-.355,4.241-.355,4.241l5.032-6.805Z" transform="translate(-172.663 -136.622)" fill="#fff" stroke="#263238" stroke-linecap="round" stroke-linejoin="round" stroke-width="1"></path>       <path id="Caminho_19506" data-name="Caminho 19506" d="M299.774,166,286,177.217l2.121,6.177L302.249,169Z" transform="translate(-172.945 -133.69)" fill="#fff" stroke="#263238" stroke-linecap="round" stroke-linejoin="round" stroke-width="1"></path>       <path id="Caminho_19507" data-name="Caminho 19507" d="M301.207,286.4s-1.958,4.87-2.542,6.466-.288,7.847-.214,8.505,1.234.8,1.234.8.362,5.01.8,5.172a7.758,7.758,0,0,0,1.382.214s.8,2.549,1.818,2.328a1.655,1.655,0,0,0,1.16-1.382,1.921,1.921,0,0,0,1.744-.8,9.455,9.455,0,0,0,1.02-1.958s1.744-.872,1.884-1.53.584-2.956.584-2.956.51-.148.51-1.67-1.16-10.9-1.16-10.9Z" transform="translate(-176.158 -165.123)" fill="#fff" stroke="#263238" stroke-linecap="round" stroke-linejoin="round" stroke-width="1"></path>       <line id="Linha_698" data-name="Linha 698" y1="4.419" x2="0.214" transform="translate(123.526 132.626)" fill="none" stroke="#263238" stroke-linecap="round" stroke-linejoin="round" stroke-width="1"></line>       <line id="Linha_699" data-name="Linha 699" y1="6.539" x2="0.473" transform="translate(125.706 135.878)" fill="none" stroke="#263238" stroke-linecap="round" stroke-linejoin="round" stroke-width="1"></line>       <line id="Linha_700" data-name="Linha 700" y1="7.079" x2="0.34" transform="translate(128.684 136.284)" fill="none" stroke="#263238" stroke-linecap="round" stroke-linejoin="round" stroke-width="1"></line>       <line id="Linha_701" data-name="Linha 701" y1="4.929" x2="0.421" transform="translate(131.447 135.678)" fill="none" stroke="#263238" stroke-linecap="round" stroke-linejoin="round" stroke-width="1"></line>       <path id="Caminho_19508" data-name="Caminho 19508" d="M316.418,190.86l5.3,3.177-1.766,36.628-9.421,34.619-8.948-2.35,2.823-27.34-1.411-27.554s2-6.421,6.591-9.953" transform="translate(-177.012 -140.18)" fill="#263238" stroke="#263238" stroke-linecap="round" stroke-linejoin="round" stroke-width="1"></path>       <path id="Caminho_19509" data-name="Caminho 19509" d="M306.017,199.23s-2.409,6.118-2.527,11.01" transform="translate(-177.511 -142.365)" fill="none" stroke="#fff" stroke-linecap="round" stroke-linejoin="round" stroke-width="1"></path>       <path id="Caminho_19510" data-name="Caminho 19510" d="M307.56,203.17s-4.123,6.732-4.123,9.776,1.086,28.449,1.086,28.449L301.7,263.326" transform="translate(-177.044 -143.394)" fill="none" stroke="#fff" stroke-linecap="round" stroke-linejoin="round" stroke-width="1"></path>       <path id="Caminho_19511" data-name="Caminho 19511" d="M272.892,133.071s-2.83,8.04-2.564,9.192.532,2.911.532,2.911-4.434,5.475-3.887,6.1a10.08,10.08,0,0,0,3,1.323s2.032,8.483,2.83,9.273,5.741-.968,5.741-.968l5.3,6.709,10.862-10.419-1.323-5.475s5.741-10.072,5.653-14.845-9.887-11.128-16.87-11.04-13.515,2.653-12.192,4.507A10.006,10.006,0,0,0,272.892,133.071Z" transform="translate(-167.965 -123.202)" fill="#fff"></path>       <g id="Grupo_8244" data-name="Grupo 8244" transform="translate(98.962 2.627)" clip-path="url(#clip-path-9)">         <path id="Caminho_19512" data-name="Caminho 19512" d="M297.976,133.3a15.517,15.517,0,0,0-3.909,1.108l-10.411,4.219s-4.958,4.212-4.434,7.434,4.958,7.685,3.968,10.907-7.19,6.695-7.19,6.695l1.943.074c1.478-.347,3-.887,3-.887l.813,1.027,10.035.362,5.313-5.1-1.323-5.475s5.741-10.072,5.653-14.845C301.375,137.061,300.015,135.088,297.976,133.3Z" transform="translate(-269.296 -127.779)" fill="#b8b8b8"></path>       </g>       <path id="Caminho_19514" data-name="Caminho 19514" d="M272.892,133.071s-2.83,8.04-2.564,9.192.532,2.911.532,2.911-4.434,5.475-3.887,6.1a10.08,10.08,0,0,0,3,1.323s2.032,8.483,2.83,9.273,5.741-.968,5.741-.968l5.3,6.709,10.862-10.419-1.323-5.475s5.741-10.072,5.653-14.845-9.887-11.128-16.87-11.04-13.515,2.653-12.192,4.507A10.006,10.006,0,0,0,272.892,133.071Z" transform="translate(-167.965 -123.202)" fill="none" stroke="#263238" stroke-linecap="round" stroke-linejoin="round" stroke-width="1"></path>       <path id="Caminho_19515" data-name="Caminho 19515" d="M294.4,151.714s5.741-10.072,5.653-14.845-9.887-11.128-16.87-11.04-13.515,2.653-12.192,4.507a10.005,10.005,0,0,0,2.919,2.734s4.33,2.032,4.33,2.564-2.564,3.355-1.677,4.6,5.121,2.734,5.121,2.734-.739,2.387.355,2.653,1.589-.8,2.291-1.478,3.185-1.685,3.539,1.323a9.125,9.125,0,0,1-1.6,6.1c-.347.259,4.507,3.532,6.65,2.557.554-.251,1.2-.584,1.855-.931Z" transform="translate(-168.981 -123.202)" fill="#263238" stroke="#263238" stroke-linecap="round" stroke-linejoin="round" stroke-width="1"></path>       <ellipse id="Elipse_136" data-name="Elipse 136" cx="0.621" cy="2.387" rx="0.621" ry="2.387" transform="translate(103.597 19.409)" fill="none" stroke="#263238" stroke-linecap="round" stroke-linejoin="round" stroke-width="1"></ellipse>       <line id="Linha_702" data-name="Linha 702" x2="10.419" y2="0.089" transform="translate(104.927 20.827)" fill="none" stroke="#263238" stroke-linecap="round" stroke-linejoin="round" stroke-width="1"></line>       <path id="Caminho_19516" data-name="Caminho 19516" d="M272.68,146.358s.99-1.581,1.98.392" transform="translate(-169.467 -128.405)" fill="none" stroke="#263238" stroke-linecap="round" stroke-linejoin="round" stroke-width="1"></path>       <path id="Caminho_19517" data-name="Caminho 19517" d="M272.41,163.371a11.15,11.15,0,0,0,2.956-1.781" transform="translate(-169.397 -132.539)" fill="none" stroke="#263238" stroke-linecap="round" stroke-linejoin="round" stroke-width="1"></path>     </g>     <g id="freepik--Floor--inject-201" transform="translate(355.171 1460)">       <line id="Linha_703" data-name="Linha 703" x2="270.352" transform="translate(5.329)" fill="none" stroke="#263238" stroke-miterlimit="10" stroke-width="2"></line>     </g>   </g> </svg>