<svg xmlns="http://www.w3.org/2000/svg" xmlns:xlink="http://www.w3.org/1999/xlink" width="191.453" height="249.5" viewBox="0 0 191.453 249.5">   <defs>     <clipPath id="clip-path">       <path id="Caminho_19522" data-name="Caminho 19522" d="M145.43,402.873s32.961,1.464,59.418-2.312L204,387.672l-55.618-5.312Z" transform="translate(-145.43 -382.36)" fill="#fff" stroke="#263238" stroke-linecap="round" stroke-miterlimit="10" stroke-width="1"></path>     </clipPath>     <clipPath id="clip-path-2">       <path id="Caminho_19526" data-name="Caminho 19526" d="M205.092,373.654s-43.857,19.361-59.642,24.617l2.952-20.537,44.241-18.3Z" transform="translate(-145.45 -359.43)" fill="#fff" stroke="#263238" stroke-linecap="round" stroke-linejoin="round" stroke-width="1"></path>     </clipPath>     <clipPath id="clip-path-3">       <path id="Caminho_19530" data-name="Caminho 19530" d="M164.956,374.375l42.465-1.776-8.448-18.448-41.793.224Z" transform="translate(-157.18 -354.15)" fill="#fff" stroke="#263238" stroke-linecap="round" stroke-linejoin="round" stroke-width="1"></path>     </clipPath>     <clipPath id="clip-path-4">       <path id="Caminho_19540" data-name="Caminho 19540" d="M263.52,174.016s4.952,6.872,5.432,8.8.96,11.2,1.44,9.6,9.752-17.9,9.912-18.7-2.72-5.912-2.72-5.912-6.4,4.632-9.424,5.432a20.5,20.5,0,0,1-4.64.784Z" transform="translate(-263.52 -167.8)" fill="#fff" stroke="#263238" stroke-linecap="round" stroke-linejoin="round" stroke-width="1"></path>     </clipPath>     <clipPath id="clip-path-5">       <path id="Caminho_19546" data-name="Caminho 19546" d="M278.08,151.9s.8-4.152,2.552-3.832,1.6,3.512.64,5.752a21.475,21.475,0,0,1-1.28,2.712Z" transform="translate(-278.08 -148.048)" fill="#fff" stroke="#263238" stroke-linecap="round" stroke-linejoin="round" stroke-width="1"></path>     </clipPath>     <clipPath id="clip-path-6">       <path id="Caminho_19550" data-name="Caminho 19550" d="M250.735,160.442s-2.552-2.4-3.032.96,4.952,4,4.952,4Z" transform="translate(-247.672 -159.612)" fill="#fff" stroke="#263238" stroke-linecap="round" stroke-linejoin="round" stroke-width="1"></path>     </clipPath>     <clipPath id="clip-path-7">       <path id="Caminho_19554" data-name="Caminho 19554" d="M246.748,145.61s7.032,19.345,9.6,22.225,9.424,4.472,15.024.16,3.832-9.112,2.552-12.952-6.552-17.1-7.352-18.857-4.632-2.72-6.552-1.28-1.12,3.2-4.312,4-7.032-.48-8.8,1.92A4.3,4.3,0,0,0,246.748,145.61Z" transform="translate(-246.099 -134.208)" fill="#fff" stroke="#263238" stroke-linecap="round" stroke-linejoin="round" stroke-width="1"></path>     </clipPath>     <clipPath id="clip-path-8">       <path id="Caminho_19565" data-name="Caminho 19565" d="M218.31,219.1a221.209,221.209,0,0,1-11.336,49.8c-9.112,24.9-49.793,58.466-49.793,58.466l7.776,20s29.121-22,42.905-54.458,14.232-73.138,14.232-73.138Z" transform="translate(-157.18 -219.1)" fill="#fff" stroke="#263238" stroke-linecap="round" stroke-linejoin="round" stroke-width="1"></path>     </clipPath>     <clipPath id="clip-path-9">       <path id="Caminho_19571" data-name="Caminho 19571" d="M243.14,160.286s0-4.152.96-4.952,5.6-3.04,6.552-2.56.16,1.12-.48,1.6-3.64,2.472-3.64,2.472l.448,4.56Z" transform="translate(-243.14 -152.707)" fill="#fff" stroke="#263238" stroke-linecap="round" stroke-linejoin="round" stroke-width="1"></path>     </clipPath>     <clipPath id="clip-path-10">       <path id="Caminho_19575" data-name="Caminho 19575" d="M252.15,167.616s2.4,0,2.872-.632,3.36-4,3.52-4.64,0-1.28-1.76-.64a3.744,3.744,0,0,0-2.24,2.24l-2.232.16Z" transform="translate(-252.15 -161.439)" fill="#fff" stroke="#263238" stroke-linecap="round" stroke-linejoin="round" stroke-width="1"></path>     </clipPath>     <clipPath id="clip-path-11">       <path id="Caminho_19579" data-name="Caminho 19579" d="M238.94,177.364s1.76-9.112,2.08-11.5,0-3.52,1.28-3.68a41.419,41.419,0,0,1,6.4.48c1.12.16,2.24.16,1.92,1.92s.64,5.6-.48,6.712a4.528,4.528,0,0,1-2.88,1.12,2.037,2.037,0,0,1-1.272,2.56,15.88,15.88,0,0,1-2.56,1.12l-.96,2.552Z" transform="translate(-238.94 -162.18)" fill="#fff" stroke="#263238" stroke-linecap="round" stroke-linejoin="round" stroke-width="1"></path>     </clipPath>     <clipPath id="clip-path-12">       <path id="Caminho_19589" data-name="Caminho 19589" d="M240.829,218.362a26.522,26.522,0,0,1-5.12-4.312c-2.072-2.4-3.352-2.4-6.232-2.56s-5.912-2.712-6.712-2.552-.96,1.6-.16,2.4a37.3,37.3,0,0,0,4.8,2.88l-8.624,3.36a4.064,4.064,0,0,0,1.6,1.112c1.12.48,2.24,0,2.72.48s3.36,1.44,5.112,2.08,7.512-.32,7.512-.32l3.84,2.56Z" transform="translate(-218.78 -208.931)" fill="#fff" stroke="#263238" stroke-linecap="round" stroke-linejoin="round" stroke-width="1"></path>     </clipPath>   </defs>   <g id="Reading_list-bro" data-name="Reading list-bro" transform="translate(-124.43 -113.924)">     <g id="freepik--Character--inject-171" transform="translate(141.43 113.924)">       <path id="Caminho_19518" data-name="Caminho 19518" d="M205.308,400.645l-1.336,2,2,1.336-1.328,2.224,1.776,1.552-3.336,2.224,1.776,1.112-.44,1.56,1.776.888L204.42,416.2H149.954l-1.112-2.664,1.336-1.56-2-1.112,3.112-.888-2-1.336,2.216-.888-2.888-1.112,7.336-2.224-8.224-1.328,2.664-20.233,54.066,9.3Z" transform="translate(-145.89 -167.705)" fill="#fff" stroke="#263238" stroke-linecap="round" stroke-miterlimit="10" stroke-width="1"></path>       <path id="Caminho_19519" data-name="Caminho 19519" d="M203.975,408.57s-25.6,2.752-41.281.8l8,1.928-14.864.8,14.032,2.2-14.856,1.376,11.832,2.48-14.048,1.16H203.7l-11.536-2.768,6.88-1.1-6.336-1.1,11.56-1.1-11.832-.552,11.008-1.1-11.832-.552S197.647,409.946,203.975,408.57Z" transform="translate(-146.902 -172.846)" opacity="0.25"></path>       <path id="Caminho_19520" data-name="Caminho 19520" d="M145.43,402.873s32.961,1.464,59.418-2.312L204,387.672l-55.618-5.312Z" transform="translate(-145.43 -167.605)" fill="#fff"></path>       <g id="Grupo_8246" data-name="Grupo 8246" transform="translate(0 214.755)" clip-path="url(#clip-path)">         <path id="Caminho_19521" data-name="Caminho 19521" d="M145.43,402.873s32.961,1.464,59.418-2.312L204,387.672l-55.618-5.312Z" transform="translate(-145.43 -382.36)" opacity="0.1"></path>       </g>       <path id="Caminho_19523" data-name="Caminho 19523" d="M145.43,402.873s32.961,1.464,59.418-2.312L204,387.672l-55.618-5.312Z" transform="translate(-145.43 -167.605)" fill="none" stroke="#263238" stroke-linecap="round" stroke-miterlimit="10" stroke-width="1"></path>       <line id="Linha_704" data-name="Linha 704" x1="0.992" y2="10.504" transform="translate(12.056 218.323)" fill="none" stroke="#263238" stroke-linecap="round" stroke-linejoin="round" stroke-width="1"></line>       <line id="Linha_705" data-name="Linha 705" x1="0.328" y2="10.84" transform="translate(20.929 218.979)" fill="none" stroke="#263238" stroke-linecap="round" stroke-linejoin="round" stroke-width="1"></line>       <line id="Linha_706" data-name="Linha 706" x1="0.328" y2="10.512" transform="translate(29.137 219.963)" fill="none" stroke="#263238" stroke-linecap="round" stroke-linejoin="round" stroke-width="1"></line>       <line id="Linha_707" data-name="Linha 707" y2="8.544" transform="translate(37.025 222.259)" fill="none" stroke="#263238" stroke-linecap="round" stroke-linejoin="round" stroke-width="1"></line>       <line id="Linha_708" data-name="Linha 708" x2="0.328" y2="6.568" transform="translate(45.889 224.235)" fill="none" stroke="#263238" stroke-linecap="round" stroke-linejoin="round" stroke-width="1"></line>       <line id="Linha_709" data-name="Linha 709" x2="0.328" y2="5.256" transform="translate(53.778 225.547)" fill="none" stroke="#263238" stroke-linecap="round" stroke-linejoin="round" stroke-width="1"></line>       <path id="Caminho_19524" data-name="Caminho 19524" d="M205.092,373.654s-43.857,19.361-59.642,24.617l2.952-20.537,44.241-18.3Z" transform="translate(-145.434 -163.019)" fill="#fff"></path>       <g id="Grupo_8247" data-name="Grupo 8247" transform="translate(0.016 196.411)" clip-path="url(#clip-path-2)">         <path id="Caminho_19525" data-name="Caminho 19525" d="M173.426,388.983c17.384-5.64,36.113-15.328,36.113-15.328L197.091,359.43,167.77,369.742Z" transform="translate(-149.913 -359.43)" opacity="0.1"></path>       </g>       <path id="Caminho_19527" data-name="Caminho 19527" d="M205.092,373.654s-43.857,19.361-59.642,24.617l2.952-20.537,44.241-18.3Z" transform="translate(-145.434 -163.019)" fill="none" stroke="#263238" stroke-linecap="round" stroke-linejoin="round" stroke-width="1"></path>       <path id="Caminho_19528" data-name="Caminho 19528" d="M164.956,374.375l42.465-1.776-8.448-18.448-41.793.224Z" transform="translate(-147.78 -161.963)" fill="#fff"></path>       <g id="Grupo_8248" data-name="Grupo 8248" transform="translate(9.4 192.187)" clip-path="url(#clip-path-3)">         <path id="Caminho_19529" data-name="Caminho 19529" d="M164.956,374.375l42.465-1.776-8.448-18.448-41.793.224Z" transform="translate(-157.18 -354.15)" opacity="0.1"></path>       </g>       <path id="Caminho_19531" data-name="Caminho 19531" d="M164.956,374.375l42.465-1.776-8.448-18.448-41.793.224Z" transform="translate(-147.78 -161.963)" fill="none" stroke="#263238" stroke-linecap="round" stroke-linejoin="round" stroke-width="1"></path>       <line id="Linha_710" data-name="Linha 710" x2="3.944" y2="13.136" transform="translate(20.601 195.331)" fill="none" stroke="#263238" stroke-linecap="round" stroke-linejoin="round" stroke-width="1"></line>       <line id="Linha_711" data-name="Linha 711" x2="3.944" y2="13.8" transform="translate(28.153 194.667)" fill="none" stroke="#263238" stroke-linecap="round" stroke-linejoin="round" stroke-width="1"></line>       <line id="Linha_712" data-name="Linha 712" x2="3.608" y2="13.144" transform="translate(35.713 194.339)" fill="none" stroke="#263238" stroke-linecap="round" stroke-linejoin="round" stroke-width="1"></line>       <line id="Linha_713" data-name="Linha 713" x2="3.944" y2="12.816" transform="translate(43.593 194.339)" fill="none" stroke="#263238" stroke-linecap="round" stroke-linejoin="round" stroke-width="1"></line>       <path id="Caminho_19532" data-name="Caminho 19532" d="M218.428,288.342l12.72,44.321-5.088,1.68-23.2-50.305A15.68,15.68,0,0,1,218.428,288.342Z" transform="translate(-156.915 -147.829)" fill="#263238" stroke="#263238" stroke-linecap="round" stroke-linejoin="round" stroke-width="1"></path>       <path id="Caminho_19533" data-name="Caminho 19533" d="M234.017,345s3.288,5.536,3.288,7.384-5.952,1.64-8.616,2.048-8.448,4.28-10.848,3.256c0,0-1.432-.8,0-2.464s8.088-4.848,11.12-8.576Z" transform="translate(-159.783 -160.134)" fill="#fff" stroke="#263238" stroke-linecap="round" stroke-linejoin="round" stroke-width="1"></path>       <path id="Caminho_19534" data-name="Caminho 19534" d="M278.781,137.073c0,.8-.928,1.552-1.008,2.344s.672,1.72.5,2.5-1.224,1.328-1.472,2.08.3,1.824,0,2.552-1.48,1.04-1.872,1.728-.1,1.84-.56,2.488-1.664.7-2.2,1.3-.472,1.784-1.064,2.32-1.768.344-2.4.8-.8,1.648-1.52,2.048-1.8,0-2.528.3-1.152,1.44-1.912,1.688-1.76-.408-2.544-.248-1.424,1.168-2.224,1.256-1.6-.8-2.4-.8-1.648.848-2.4.8-1.456-1.088-2.224-1.256-1.792.488-2.544.24-1.184-1.36-1.912-1.68-1.848.1-2.536-.3-.872-1.6-1.52-2.048-1.824-.288-2.4-.8-.528-1.728-1.056-2.32-1.728-.656-2.2-1.3-.16-1.8-.56-2.488-1.552-1-1.872-1.728.216-1.792,0-2.552-1.312-1.3-1.472-2.08.584-1.7.5-2.5-1.008-1.536-1.008-2.344.928-1.6,1.008-2.344-.672-1.728-.5-2.5,1.224-1.32,1.472-2.08-.3-1.824,0-2.544,1.48-1.04,1.872-1.728.1-1.848.56-2.488,1.664-.7,2.2-1.3.472-1.784,1.064-2.32,1.768-.344,2.4-.8.8-1.648,1.52-2.048,1.8,0,2.528-.3,1.152-1.44,1.912-1.688,1.76.408,2.544.24,1.424-1.168,2.224-1.248,1.6.8,2.4.8,1.648-.848,2.4-.8,1.456,1.088,2.224,1.248,1.792-.48,2.544-.24,1.184,1.368,1.912,1.688,1.848-.1,2.536.3.872,1.6,1.52,2.048,1.824.28,2.4.8.528,1.728,1.056,2.32,1.728.648,2.2,1.3.16,1.8.56,2.488,1.552.992,1.872,1.728-.216,1.784,0,2.552,1.312,1.288,1.472,2.08-.584,1.7-.5,2.5S278.781,136.265,278.781,137.073Z" transform="translate(-162.818 -113.924)" fill="#263238"></path>       <path id="Caminho_19535" data-name="Caminho 19535" d="M235.455,179.967s-8,17.744-12,27.337-.984,17.792,1.6,18.7c2.712.96,22.345-6.024,27.009-7.832,4.432-1.72,4.48-1.6,4.48-1.6s.32,14.864.32,16.624-3.2,8.152-2.88,10.072,4.64,5.6,17.424,6.872,20.145-1.76,21.417-3.52,1.28-4,1.28-7.512-1.76-23.5-4.312-39.2-9.272-22.4-12.472-24.137-8.632.64-14.064,4.312-8.472,10.872-9.272,12.8-16.144,14.7-17.264,15.824,2.24-27.5,2.24-27.5Z" transform="translate(-160.645 -126.177)" fill="#fff" stroke="#263238" stroke-linecap="round" stroke-linejoin="round" stroke-width="1"></path>       <line id="Linha_714" data-name="Linha 714" x2="4.4" y2="1.544" transform="translate(73.482 56.791)" fill="none" stroke="#263238" stroke-linecap="round" stroke-linejoin="round" stroke-width="1"></line>       <path id="Caminho_19536" data-name="Caminho 19536" d="M240.22,217.13a54.79,54.79,0,0,1-1.28,7.672" transform="translate(-164.13 -134.563)" fill="#fff" stroke="#263238" stroke-linecap="round" stroke-linejoin="round" stroke-width="1"></path>       <line id="Linha_715" data-name="Linha 715" x1="1.92" y1="13.272" transform="translate(93.995 77.127)" fill="none" stroke="#263238" stroke-linecap="round" stroke-linejoin="round" stroke-width="1"></line>       <path id="Caminho_19537" data-name="Caminho 19537" d="M268.559,181.926s-4.632,11.2-3.672,11.2,3.04-3.52,3.04-3.52l2.712,5.44s.48-12.8.16-13.272S269.2,180.2,268.559,181.926Z" transform="translate(-169.293 -127.335)" fill="#fff" stroke="#263238" stroke-linecap="round" stroke-linejoin="round" stroke-width="1"></path>       <path id="Caminho_19538" data-name="Caminho 19538" d="M263.52,174.016s4.952,6.872,5.432,8.8.96,11.2,1.44,9.6,9.752-17.9,9.912-18.7-2.72-5.912-2.72-5.912-6.4,4.632-9.424,5.432a20.5,20.5,0,0,1-4.64.784Z" transform="translate(-169.045 -124.698)" fill="#fff"></path>       <g id="Grupo_8249" data-name="Grupo 8249" transform="translate(94.475 43.102)" clip-path="url(#clip-path-4)">         <path id="Caminho_19539" data-name="Caminho 19539" d="M263.52,174.016s4.952,6.872,5.432,8.8.96,11.2,1.44,9.6,9.752-17.9,9.912-18.7-2.72-5.912-2.72-5.912-6.4,4.632-9.424,5.432a20.5,20.5,0,0,1-4.64.784Z" transform="translate(-263.52 -167.8)" opacity="0.1"></path>       </g>       <path id="Caminho_19541" data-name="Caminho 19541" d="M263.52,174.016s4.952,6.872,5.432,8.8.96,11.2,1.44,9.6,9.752-17.9,9.912-18.7-2.72-5.912-2.72-5.912-6.4,4.632-9.424,5.432a20.5,20.5,0,0,1-4.64.784Z" transform="translate(-169.045 -124.698)" fill="none" stroke="#263238" stroke-linecap="round" stroke-linejoin="round" stroke-width="1"></path>       <path id="Caminho_19542" data-name="Caminho 19542" d="M272.91,189.35l-.8,7.36,3.84-5.12Z" transform="translate(-170.763 -129.007)" fill="#fff" stroke="#263238" stroke-linecap="round" stroke-linejoin="round" stroke-width="1"></path>       <path id="Caminho_19543" data-name="Caminho 19543" d="M273.11,185.634l3.2,4.64L287.5,174.45l-4.32-3.68Z" transform="translate(-170.963 -125.292)" fill="#fff" stroke="#263238" stroke-linecap="round" stroke-linejoin="round" stroke-width="1"></path>       <path id="Caminho_19544" data-name="Caminho 19544" d="M278.08,151.9s.8-4.152,2.552-3.832,1.6,3.512.64,5.752a21.475,21.475,0,0,1-1.28,2.712Z" transform="translate(-171.957 -120.748)" fill="#fff"></path>       <g id="Grupo_8250" data-name="Grupo 8250" transform="translate(106.123 27.3)" clip-path="url(#clip-path-5)">         <path id="Caminho_19545" data-name="Caminho 19545" d="M278.08,151.9s.8-4.152,2.552-3.832,1.6,3.512.64,5.752a21.475,21.475,0,0,1-1.28,2.712Z" transform="translate(-278.08 -148.048)" opacity="0.1"></path>       </g>       <path id="Caminho_19547" data-name="Caminho 19547" d="M278.08,151.9s.8-4.152,2.552-3.832,1.6,3.512.64,5.752a21.475,21.475,0,0,1-1.28,2.712Z" transform="translate(-171.957 -120.748)" fill="none" stroke="#263238" stroke-linecap="round" stroke-linejoin="round" stroke-width="1"></path>       <path id="Caminho_19548" data-name="Caminho 19548" d="M250.735,160.442s-2.552-2.4-3.032.96,4.952,4,4.952,4Z" transform="translate(-165.876 -123.06)" fill="#fff"></path>       <g id="Grupo_8251" data-name="Grupo 8251" transform="translate(81.796 36.552)" clip-path="url(#clip-path-6)">         <path id="Caminho_19549" data-name="Caminho 19549" d="M250.735,160.442s-2.552-2.4-3.032.96,4.952,4,4.952,4Z" transform="translate(-247.672 -159.612)" opacity="0.1"></path>       </g>       <path id="Caminho_19551" data-name="Caminho 19551" d="M250.735,160.442s-2.552-2.4-3.032.96,4.952,4,4.952,4Z" transform="translate(-165.876 -123.06)" fill="none" stroke="#263238" stroke-linecap="round" stroke-linejoin="round" stroke-width="1"></path>       <path id="Caminho_19552" data-name="Caminho 19552" d="M246.748,145.61s7.032,19.345,9.6,22.225,9.424,4.472,15.024.16,3.832-9.112,2.552-12.952-6.552-17.1-7.352-18.857-4.632-2.72-6.552-1.28-1.12,3.2-4.312,4-7.032-.48-8.8,1.92A4.3,4.3,0,0,0,246.748,145.61Z" transform="translate(-165.562 -117.98)" fill="#fff"></path>       <g id="Grupo_8252" data-name="Grupo 8252" transform="translate(80.537 16.228)" clip-path="url(#clip-path-7)">         <path id="Caminho_19553" data-name="Caminho 19553" d="M246.748,145.61s7.032,19.345,9.6,22.225,9.424,4.472,15.024.16,3.832-9.112,2.552-12.952-6.552-17.1-7.352-18.857-4.632-2.72-6.552-1.28-1.12,3.2-4.312,4-7.032-.48-8.8,1.92A4.3,4.3,0,0,0,246.748,145.61Z" transform="translate(-246.099 -134.208)" opacity="0.1"></path>       </g>       <path id="Caminho_19555" data-name="Caminho 19555" d="M246.748,145.61s7.032,19.345,9.6,22.225,9.424,4.472,15.024.16,3.832-9.112,2.552-12.952-6.552-17.1-7.352-18.857-4.632-2.72-6.552-1.28-1.12,3.2-4.312,4-7.032-.48-8.8,1.92A4.3,4.3,0,0,0,246.748,145.61Z" transform="translate(-165.562 -117.98)" fill="none" stroke="#263238" stroke-linecap="round" stroke-linejoin="round" stroke-width="1"></path>       <path id="Caminho_19556" data-name="Caminho 19556" d="M1.2,0H9.32a1.208,1.208,0,0,1,1.208,1.208v2.4a2.5,2.5,0,0,1-2.5,2.5H2.5A2.5,2.5,0,0,1,0,3.608v-2.4A1.208,1.208,0,0,1,1.208,0Z" transform="translate(82.939 33.954) rotate(-20.16)" fill="#fff" stroke="#263238" stroke-linecap="round" stroke-linejoin="round" stroke-width="1"></path>       <path id="Caminho_19557" data-name="Caminho 19557" d="M1.2,0H9.32a1.208,1.208,0,0,1,1.208,1.208v2.4a2.5,2.5,0,0,1-2.5,2.5H2.5A2.5,2.5,0,0,1,0,3.608v-2.4A1.208,1.208,0,0,1,1.208,0Z" transform="translate(95.324 29.413) rotate(-20.16)" fill="#fff" stroke="#263238" stroke-linecap="round" stroke-linejoin="round" stroke-width="1"></path>       <line id="Linha_716" data-name="Linha 716" y1="5.504" x2="2.224" transform="translate(86.93 33.494)" fill="none" stroke="#263238" stroke-linecap="round" stroke-linejoin="round" stroke-width="0.5"></line>       <line id="Linha_717" data-name="Linha 717" x1="1.704" y2="4.32" transform="translate(89.155 31.798)" fill="none" stroke="#263238" stroke-linecap="round" stroke-linejoin="round" stroke-width="0.5"></line>       <line id="Linha_718" data-name="Linha 718" y1="5.496" x2="2.232" transform="translate(99.499 28.654)" fill="none" stroke="#263238" stroke-linecap="round" stroke-linejoin="round" stroke-width="0.5"></line>       <line id="Linha_719" data-name="Linha 719" x1="1.696" y2="4.32" transform="translate(101.731 26.95)" fill="none" stroke="#263238" stroke-linecap="round" stroke-linejoin="round" stroke-width="0.5"></line>       <line id="Linha_720" data-name="Linha 720" y1="1.848" x2="5.032" transform="translate(91.563 28.942)" fill="none" stroke="#263238" stroke-linecap="round" stroke-linejoin="round" stroke-width="1"></line>       <path id="Caminho_19558" data-name="Caminho 19558" d="M262,153.178a5.216,5.216,0,0,1,2.52-.928" transform="translate(-168.741 -121.588)" fill="none" stroke="#263238" stroke-linecap="round" stroke-linejoin="round" stroke-width="1"></path>       <path id="Caminho_19559" data-name="Caminho 19559" d="M265.48,147.342a6.2,6.2,0,0,1,6.232-2.52" transform="translate(-169.437 -120.081)" fill="none" stroke="#263238" stroke-linecap="round" stroke-linejoin="round" stroke-width="1"></path>       <path id="Caminho_19560" data-name="Caminho 19560" d="M258.05,150.44a4.936,4.936,0,0,0-6.68.3" transform="translate(-166.616 -120.994)" fill="none" stroke="#263238" stroke-linecap="round" stroke-linejoin="round" stroke-width="1"></path>       <path id="Caminho_19561" data-name="Caminho 19561" d="M263,161.146s.4,1.6.752,1.736c1.224.512,5.208-.5,5.136-2.288a5.6,5.6,0,0,0-.584-1.664" transform="translate(-168.941 -122.924)" fill="none" stroke="#263238" stroke-linecap="round" stroke-linejoin="round" stroke-width="1"></path>       <path id="Caminho_19562" data-name="Caminho 19562" d="M265.64,168.012a6.224,6.224,0,0,0,5.04-2.072" transform="translate(-169.469 -124.326)" fill="none" stroke="#263238" stroke-linecap="round" stroke-linejoin="round" stroke-width="1"></path>       <path id="Caminho_19563" data-name="Caminho 19563" d="M218.31,219.1a221.209,221.209,0,0,1-11.336,49.8c-9.112,24.9-49.793,58.466-49.793,58.466l7.776,20s29.121-22,42.905-54.458,14.232-73.138,14.232-73.138Z" transform="translate(-147.78 -134.956)" fill="#fff"></path>       <g id="Grupo_8253" data-name="Grupo 8253" transform="translate(9.4 84.144)" clip-path="url(#clip-path-8)">         <path id="Caminho_19564" data-name="Caminho 19564" d="M217.42,272.7l6.064,10.824c10.3-30.4,10.672-63.754,10.672-63.754l-3.784-.672a221.208,221.208,0,0,1-11.336,49.8C218.564,270.149,218.02,271.421,217.42,272.7Z" transform="translate(-169.227 -219.1)" opacity="0.1"></path>       </g>       <path id="Caminho_19566" data-name="Caminho 19566" d="M218.31,219.1a221.209,221.209,0,0,1-11.336,49.8c-9.112,24.9-49.793,58.466-49.793,58.466l7.776,20s29.121-22,42.905-54.458,14.232-73.138,14.232-73.138Z" transform="translate(-147.78 -134.956)" fill="none" stroke="#263238" stroke-linecap="round" stroke-linejoin="round" stroke-width="1"></path>       <path id="Caminho_19567" data-name="Caminho 19567" d="M187.432,274.666s-3.488,3.32-1.824,7.648,30.249,52.193,30.249,52.193l6.648-1.5s-13.3-43.553-15.792-48.873-4.488-8.64-6.144-9.808" transform="translate(-153.375 -146.001)" fill="#263238" stroke="#263238" stroke-linecap="round" stroke-linejoin="round" stroke-width="1"></path>       <path id="Caminho_19568" data-name="Caminho 19568" d="M219.934,349.052s-8.472,5.816-12.136,7.312-2.488,3.328,0,3.328,12-1.168,16-1.664,6.152-.168,6.32-2.328-3.5-8.64-3.5-8.64Z" transform="translate(-157.437 -160.546)" fill="#fff" stroke="#263238" stroke-linecap="round" stroke-linejoin="round" stroke-width="1"></path>       <path id="Caminho_19569" data-name="Caminho 19569" d="M243.14,160.286s0-4.152.96-4.952,5.6-3.04,6.552-2.56.16,1.12-.48,1.6-3.64,2.472-3.64,2.472l.448,4.56Z" transform="translate(-164.97 -121.679)" fill="#fff"></path>       <g id="Grupo_8254" data-name="Grupo 8254" transform="translate(78.17 31.027)" clip-path="url(#clip-path-9)">         <path id="Caminho_19570" data-name="Caminho 19570" d="M243.14,160.286s0-4.152.96-4.952,5.6-3.04,6.552-2.56.16,1.12-.48,1.6-3.64,2.472-3.64,2.472l.448,4.56Z" transform="translate(-243.14 -152.707)" opacity="0.1"></path>       </g>       <path id="Caminho_19572" data-name="Caminho 19572" d="M243.14,160.286s0-4.152.96-4.952,5.6-3.04,6.552-2.56.16,1.12-.48,1.6-3.64,2.472-3.64,2.472l.448,4.56Z" transform="translate(-164.97 -121.679)" fill="none" stroke="#263238" stroke-linecap="round" stroke-linejoin="round" stroke-width="1"></path>       <path id="Caminho_19573" data-name="Caminho 19573" d="M252.15,167.616s2.4,0,2.872-.632,3.36-4,3.52-4.64,0-1.28-1.76-.64a3.744,3.744,0,0,0-2.24,2.24l-2.232.16Z" transform="translate(-166.772 -123.426)" fill="#fff"></path>       <g id="Grupo_8255" data-name="Grupo 8255" transform="translate(85.378 38.013)" clip-path="url(#clip-path-10)">         <path id="Caminho_19574" data-name="Caminho 19574" d="M252.15,167.616s2.4,0,2.872-.632,3.36-4,3.52-4.64,0-1.28-1.76-.64a3.744,3.744,0,0,0-2.24,2.24l-2.232.16Z" transform="translate(-252.15 -161.439)" opacity="0.1"></path>       </g>       <path id="Caminho_19576" data-name="Caminho 19576" d="M252.15,167.616s2.4,0,2.872-.632,3.36-4,3.52-4.64,0-1.28-1.76-.64a3.744,3.744,0,0,0-2.24,2.24l-2.232.16Z" transform="translate(-166.772 -123.426)" fill="none" stroke="#263238" stroke-linecap="round" stroke-linejoin="round" stroke-width="1"></path>       <path id="Caminho_19577" data-name="Caminho 19577" d="M238.94,177.364s1.76-9.112,2.08-11.5,0-3.52,1.28-3.68a41.419,41.419,0,0,1,6.4.48c1.12.16,2.24.16,1.92,1.92s.64,5.6-.48,6.712a4.528,4.528,0,0,1-2.88,1.12,2.037,2.037,0,0,1-1.272,2.56,15.88,15.88,0,0,1-2.56,1.12l-.96,2.552Z" transform="translate(-164.13 -123.574)" fill="#fff"></path>       <g id="Grupo_8256" data-name="Grupo 8256" transform="translate(74.81 38.606)" clip-path="url(#clip-path-11)">         <path id="Caminho_19578" data-name="Caminho 19578" d="M238.94,177.364s1.76-9.112,2.08-11.5,0-3.52,1.28-3.68a41.419,41.419,0,0,1,6.4.48c1.12.16,2.24.16,1.92,1.92s.64,5.6-.48,6.712a4.528,4.528,0,0,1-2.88,1.12,2.037,2.037,0,0,1-1.272,2.56,15.88,15.88,0,0,1-2.56,1.12l-.96,2.552Z" transform="translate(-238.94 -162.18)" opacity="0.1"></path>       </g>       <path id="Caminho_19580" data-name="Caminho 19580" d="M238.94,177.364s1.76-9.112,2.08-11.5,0-3.52,1.28-3.68a41.419,41.419,0,0,1,6.4.48c1.12.16,2.24.16,1.92,1.92s.64,5.6-.48,6.712a4.528,4.528,0,0,1-2.88,1.12,2.037,2.037,0,0,1-1.272,2.56,15.88,15.88,0,0,1-2.56,1.12l-.96,2.552Z" transform="translate(-164.13 -123.574)" fill="none" stroke="#263238" stroke-linecap="round" stroke-linejoin="round" stroke-width="1"></path>       <path id="Caminho_19581" data-name="Caminho 19581" d="M248.74,174.13l-.32-3.04-2.08-.32" transform="translate(-165.61 -125.292)" fill="none" stroke="#263238" stroke-linecap="round" stroke-linejoin="round" stroke-width="1"></path>       <path id="Caminho_19582" data-name="Caminho 19582" d="M246.56,167.12s4.248.216,4.8.544.656,3.584.656,3.584" transform="translate(-165.654 -124.562)" fill="none" stroke="#263238" stroke-linecap="round" stroke-linejoin="round" stroke-width="1"></path>       <line id="Linha_721" data-name="Linha 721" x2="5.68" y2="0.512" transform="translate(80.802 40.494)" fill="none" stroke="#263238" stroke-linecap="round" stroke-linejoin="round" stroke-width="1"></line>       <path id="Caminho_19583" data-name="Caminho 19583" d="M264.228,267.48c-10.3-1.032-15.1-3.616-16.744-5.6l-1.448,1.808.168,1.328s-19.785-2.992-35.241-1.16-24.8,6.48-25.433,12.136l8,3.656c11.8,6.984,38.065,8.48,47.2,9.144s26.6,0,33.249-1,9.64-3.824,10.3-9.312c.552-4.528.648-11.544.664-13.856C282.541,266.384,275.509,268.608,264.228,267.48Z" transform="translate(-153.449 -143.512)" fill="#263238" stroke="#263238" stroke-linecap="round" stroke-linejoin="round" stroke-width="1"></path>       <line id="Linha_722" data-name="Linha 722" x2="10.304" y2="9.144" transform="translate(93.419 122.345)" fill="none" stroke="#fff" stroke-linecap="round" stroke-linejoin="round" stroke-width="1"></line>       <line id="Linha_723" data-name="Linha 723" x2="7.48" y2="2.824" transform="translate(95.083 122.849)" fill="none" stroke="#fff" stroke-linecap="round" stroke-linejoin="round" stroke-width="1"></line>       <path id="Caminho_19584" data-name="Caminho 19584" d="M210.659,214.588s-12.8,4.152-16.8,9.6L178.21,196.4a76.354,76.354,0,0,1,23.657-2.24c12.3.96,20.457,9.6,23.817,15.2Z" transform="translate(-151.985 -129.941)" fill="#fff" stroke="#263238" stroke-linecap="round" stroke-linejoin="round" stroke-width="1"></path>       <line id="Linha_724" data-name="Linha 724" x2="7.88" y2="14.448" transform="translate(38.337 69.199)" fill="none" stroke="#263238" stroke-linecap="round" stroke-linejoin="round" stroke-width="1"></line>       <line id="Linha_725" data-name="Linha 725" x2="6.896" y2="13.136" transform="translate(45.889 67.887)" fill="none" stroke="#263238" stroke-linecap="round" stroke-linejoin="round" stroke-width="1"></line>       <line id="Linha_726" data-name="Linha 726" x2="5.912" y2="11.496" transform="translate(53.45 67.559)" fill="none" stroke="#263238" stroke-linecap="round" stroke-linejoin="round" stroke-width="1"></line>       <path id="Caminho_19585" data-name="Caminho 19585" d="M277.189,195.192s-1.76,4.472-1.44,7.2,1.28,20.625,1.28,20.625-14.544-.96-20.3-3.04-10.7-4.48-10.7-4.48l-1.28,5.12s10.232,9.112,18.865,12.624,25.249,6.872,27.2,6.072,3.68-18.537,3.52-25.409.16-14.232-3.04-19.345" transform="translate(-165.29 -130.049)" fill="#fff" stroke="#263238" stroke-linecap="round" stroke-linejoin="round" stroke-width="1"></path>       <line id="Linha_727" data-name="Linha 727" x1="1.32" y2="6.16" transform="translate(82.938 87.144)" fill="none" stroke="#263238" stroke-linecap="round" stroke-linejoin="round" stroke-width="1"></line>       <path id="Caminho_19586" data-name="Caminho 19586" d="M285.1,230.12s3.832,4.632,5.912,5.912" transform="translate(-173.361 -137.16)" fill="#fff" stroke="#263238" stroke-linecap="round" stroke-linejoin="round" stroke-width="1"></path>       <path id="Caminho_19587" data-name="Caminho 19587" d="M240.829,218.362a26.522,26.522,0,0,1-5.12-4.312c-2.072-2.4-3.352-2.4-6.232-2.56s-5.912-2.712-6.712-2.552-.96,1.6-.16,2.4a37.3,37.3,0,0,0,4.8,2.88l-8.624,3.36a4.064,4.064,0,0,0,1.6,1.112c1.12.48,2.24,0,2.72.48s3.36,1.44,5.112,2.08,7.512-.32,7.512-.32l3.84,2.56Z" transform="translate(-160.098 -132.923)" fill="#fff"></path>       <g id="Grupo_8257" data-name="Grupo 8257" transform="translate(58.682 76.008)" clip-path="url(#clip-path-12)">         <path id="Caminho_19588" data-name="Caminho 19588" d="M240.829,218.362a26.522,26.522,0,0,1-5.12-4.312c-2.072-2.4-3.352-2.4-6.232-2.56s-5.912-2.712-6.712-2.552-.96,1.6-.16,2.4a37.3,37.3,0,0,0,4.8,2.88l-8.624,3.36a4.064,4.064,0,0,0,1.6,1.112c1.12.48,2.24,0,2.72.48s3.36,1.44,5.112,2.08,7.512-.32,7.512-.32l3.84,2.56Z" transform="translate(-218.78 -208.931)" opacity="0.1"></path>       </g>       <path id="Caminho_19590" data-name="Caminho 19590" d="M240.829,218.362a26.522,26.522,0,0,1-5.12-4.312c-2.072-2.4-3.352-2.4-6.232-2.56s-5.912-2.712-6.712-2.552-.96,1.6-.16,2.4a37.3,37.3,0,0,0,4.8,2.88l-8.624,3.36a4.064,4.064,0,0,0,1.6,1.112c1.12.48,2.24,0,2.72.48s3.36,1.44,5.112,2.08,7.512-.32,7.512-.32l3.84,2.56Z" transform="translate(-160.098 -132.923)" fill="none" stroke="#263238" stroke-linecap="round" stroke-linejoin="round" stroke-width="1"></path>     </g>     <g id="freepik--Books--inject-171" transform="translate(208.715 258.933)">       <path id="Caminho_19591" data-name="Caminho 19591" d="M236.37,298a26.113,26.113,0,0,1,0,20.9h73.8s9.1-2.256,9.1-10.5a15.216,15.216,0,0,0-8.9-10.224Z" transform="translate(-230.9 -295.744)" fill="#fff" stroke="#263238" stroke-linecap="round" stroke-linejoin="round" stroke-width="1"></path>       <path id="Caminho_19592" data-name="Caminho 19592" d="M313.786,299.744c-3.2-1.744-6.152-1.56-9.856-1.6h-6.976l-18.168-.056L243.472,298c-.576,0-6.3.472-6.552,0a21.048,21.048,0,0,1,1.448,4.28h73.7v15.952a11.128,11.128,0,0,0,7.32-9.832c.3-3.624-1.976-6.456-4.9-8.272C314.266,300,314.042,299.864,313.786,299.744Z" transform="translate(-231.01 -295.744)" opacity="0.25"></path>       <line id="Linha_728" data-name="Linha 728" y2="16.424" transform="translate(81.072 4.6)" fill="none" stroke="#263238" stroke-linecap="round" stroke-linejoin="round" stroke-width="1"></line>       <line id="Linha_729" data-name="Linha 729" x2="11.328" transform="translate(7.478 7.336)" fill="none" stroke="#263238" stroke-linecap="round" stroke-linejoin="round" stroke-width="1"></line>       <line id="Linha_730" data-name="Linha 730" x2="12.672" transform="translate(11.03 8.896)" fill="none" stroke="#263238" stroke-linecap="round" stroke-linejoin="round" stroke-width="1"></line>       <line id="Linha_731" data-name="Linha 731" x2="21.121" transform="translate(7.47 16.456)" fill="none" stroke="#263238" stroke-linecap="round" stroke-linejoin="round" stroke-width="1"></line>       <line id="Linha_732" data-name="Linha 732" x1="9.56" transform="translate(71.271 8.224)" fill="none" stroke="#263238" stroke-linecap="round" stroke-linejoin="round" stroke-width="1"></line>       <line id="Linha_733" data-name="Linha 733" x1="20.897" transform="translate(59.487 10.896)" fill="none" stroke="#263238" stroke-linecap="round" stroke-linejoin="round" stroke-width="1"></line>       <line id="Linha_734" data-name="Linha 734" x1="7.112" transform="translate(50.151 10.896)" fill="none" stroke="#263238" stroke-linecap="round" stroke-linejoin="round" stroke-width="1"></line>       <line id="Linha_735" data-name="Linha 735" x2="13.12" transform="translate(67.711 15.344)" fill="none" stroke="#263238" stroke-linecap="round" stroke-linejoin="round" stroke-width="1"></line>       <line id="Linha_736" data-name="Linha 736" x2="8.448" transform="translate(7.03 19.345)" fill="none" stroke="#263238" stroke-linecap="round" stroke-linejoin="round" stroke-width="1"></line>       <path id="Caminho_19593" data-name="Caminho 19593" d="M306.029,321.189H231.891a2.224,2.224,0,1,1,0-4.44h74.138c5.088,0,9.224-3.84,9.224-8.56s-4.136-8.56-9.224-8.56H232.555a2.224,2.224,0,1,1,0-4.448h73.474c7.536,0,13.672,5.84,13.672,13.008S313.565,321.189,306.029,321.189Z" transform="translate(-229.533 -295.18)" fill="#263238"></path>       <path id="Caminho_19594" data-name="Caminho 19594" d="M314.844,330.2a26.1,26.1,0,0,0,0,20.9h-73.8s-9.112-2.224-9.112-10.448a15.214,15.214,0,0,1,8.888-10.232Z" transform="translate(-230.013 -302.183)" fill="#fff" stroke="#263238" stroke-linecap="round" stroke-linejoin="round" stroke-width="1"></path>       <path id="Caminho_19595" data-name="Caminho 19595" d="M237.507,331.97c3.2-1.744,6.16-1.6,9.856-1.6h6.976l18.169-.056,35.337-.1c.576,0,6.3.472,6.56,0a20.489,20.489,0,0,0-1.456,4.28h-73.7v15.944a11.1,11.1,0,0,1-7.328-9.776c-.312-3.624,1.968-6.464,4.9-8.28C237.051,332.226,237.283,332.1,237.507,331.97Z" transform="translate(-230.005 -302.185)" opacity="0.25"></path>       <line id="Linha_737" data-name="Linha 737" y2="14.432" transform="translate(9.03 31.537)" fill="none" stroke="#263238" stroke-linecap="round" stroke-linejoin="round" stroke-width="1"></line>       <line id="Linha_738" data-name="Linha 738" x1="11.336" transform="translate(71.495 33.129)" fill="none" stroke="#263238" stroke-linecap="round" stroke-linejoin="round" stroke-width="1"></line>       <line id="Linha_739" data-name="Linha 739" x1="12.664" transform="translate(66.607 34.681)" fill="none" stroke="#263238" stroke-linecap="round" stroke-linejoin="round" stroke-width="1"></line>       <line id="Linha_740" data-name="Linha 740" x1="21.121" transform="translate(61.711 42.241)" fill="none" stroke="#263238" stroke-linecap="round" stroke-linejoin="round" stroke-width="1"></line>       <line id="Linha_741" data-name="Linha 741" x2="9.56" transform="translate(9.47 34.017)" fill="none" stroke="#263238" stroke-linecap="round" stroke-linejoin="round" stroke-width="1"></line>       <line id="Linha_742" data-name="Linha 742" x2="20.897" transform="translate(9.918 36.681)" fill="none" stroke="#263238" stroke-linecap="round" stroke-linejoin="round" stroke-width="1"></line>       <line id="Linha_743" data-name="Linha 743" x2="7.112" transform="translate(33.038 36.681)" fill="none" stroke="#263238" stroke-linecap="round" stroke-linejoin="round" stroke-width="1"></line>       <line id="Linha_744" data-name="Linha 744" x1="13.12" transform="translate(9.47 41.129)" fill="none" stroke="#263238" stroke-linecap="round" stroke-linejoin="round" stroke-width="1"></line>       <line id="Linha_745" data-name="Linha 745" x1="8.448" transform="translate(74.832 45.129)" fill="none" stroke="#263238" stroke-linecap="round" stroke-linejoin="round" stroke-width="1"></line>       <path id="Caminho_19596" data-name="Caminho 19596" d="M243.372,353.428H317.51a2.224,2.224,0,1,0,0-4.448H243.372c-5.088,0-9.224-3.84-9.224-8.56s4.136-8.56,9.224-8.56h73.474a2.224,2.224,0,1,0,0-4.44H243.372c-7.536,0-13.672,5.832-13.672,13S235.836,353.428,243.372,353.428Z" transform="translate(-229.567 -301.626)" fill="#7300cc" stroke="#263238" stroke-linecap="round" stroke-linejoin="round" stroke-width="1"></path>       <path id="Caminho_19597" data-name="Caminho 19597" d="M236.37,362.58a26.113,26.113,0,0,1,0,20.9h73.8s9.12-2.224,9.12-10.448a15.237,15.237,0,0,0-8.9-10.232Z" transform="translate(-230.9 -308.658)" fill="#fff" stroke="#263238" stroke-linecap="round" stroke-linejoin="round" stroke-width="1"></path>       <path id="Caminho_19598" data-name="Caminho 19598" d="M313.78,364.35c-3.2-1.744-6.152-1.6-9.856-1.6h-6.976l-18.169-.048-35.337-.112c-.576,0-6.3.48-6.552,0a20.8,20.8,0,0,1,1.448,4.28h73.7v15.944a11.12,11.12,0,0,0,7.344-9.784c.3-3.624-1.976-6.456-4.9-8.28C314.26,364.606,314.036,364.518,313.78,364.35Z" transform="translate(-231.004 -308.66)" opacity="0.25"></path>       <line id="Linha_746" data-name="Linha 746" y2="16.432" transform="translate(81.072 56.29)" fill="none" stroke="#263238" stroke-linecap="round" stroke-linejoin="round" stroke-width="1"></line>       <line id="Linha_747" data-name="Linha 747" x2="11.328" transform="translate(7.478 59.034)" fill="none" stroke="#263238" stroke-linecap="round" stroke-linejoin="round" stroke-width="1"></line>       <line id="Linha_748" data-name="Linha 748" x2="12.672" transform="translate(11.03 60.586)" fill="none" stroke="#263238" stroke-linecap="round" stroke-linejoin="round" stroke-width="1"></line>       <line id="Linha_749" data-name="Linha 749" x2="21.121" transform="translate(7.47 68.146)" fill="none" stroke="#263238" stroke-linecap="round" stroke-linejoin="round" stroke-width="1"></line>       <line id="Linha_750" data-name="Linha 750" x1="9.56" transform="translate(71.271 59.922)" fill="none" stroke="#263238" stroke-linecap="round" stroke-linejoin="round" stroke-width="1"></line>       <line id="Linha_751" data-name="Linha 751" x1="20.897" transform="translate(59.487 62.586)" fill="none" stroke="#263238" stroke-linecap="round" stroke-linejoin="round" stroke-width="1"></line>       <line id="Linha_752" data-name="Linha 752" x1="7.112" transform="translate(50.151 62.586)" fill="none" stroke="#263238" stroke-linecap="round" stroke-linejoin="round" stroke-width="1"></line>       <line id="Linha_753" data-name="Linha 753" x2="13.12" transform="translate(67.711 67.034)" fill="none" stroke="#263238" stroke-linecap="round" stroke-linejoin="round" stroke-width="1"></line>       <line id="Linha_754" data-name="Linha 754" x2="8.448" transform="translate(7.03 71.034)" fill="none" stroke="#263238" stroke-linecap="round" stroke-linejoin="round" stroke-width="1"></line>       <path id="Caminho_19599" data-name="Caminho 19599" d="M306.062,385.809H231.924a2.224,2.224,0,1,1,0-4.448h74.138c5.088,0,9.224-3.84,9.224-8.56s-4.136-8.552-9.224-8.552H232.588a2.224,2.224,0,0,1,0-4.448h73.474c7.536,0,13.672,5.832,13.672,13S313.6,385.809,306.062,385.809Z" transform="translate(-229.567 -308.103)" fill="#263238"></path>       <path id="Caminho_19600" data-name="Caminho 19600" d="M314.844,394.81a26.113,26.113,0,0,0,0,20.9h-73.8s-9.112-2.224-9.112-10.448a15.192,15.192,0,0,1,8.888-10.224Z" transform="translate(-230.013 -315.104)" fill="#fff" stroke="#263238" stroke-linecap="round" stroke-linejoin="round" stroke-width="1"></path>       <path id="Caminho_19601" data-name="Caminho 19601" d="M237.507,396.56c3.2-1.744,6.16-1.56,9.856-1.6h6.976l18.168-.056,35.337-.1c.576,0,6.3.472,6.56,0a20.716,20.716,0,0,0-1.456,4.28h-73.7v15.96a11.112,11.112,0,0,1-7.328-9.784c-.312-3.624,1.968-6.456,4.9-8.28C237.051,396.832,237.283,396.7,237.507,396.56Z" transform="translate(-230.005 -315.102)" opacity="0.25"></path>       <line id="Linha_755" data-name="Linha 755" y2="14.432" transform="translate(9.03 83.226)" fill="none" stroke="#263238" stroke-linecap="round" stroke-linejoin="round" stroke-width="1"></line>       <line id="Linha_756" data-name="Linha 756" x1="11.336" transform="translate(71.495 84.818)" fill="none" stroke="#263238" stroke-linecap="round" stroke-linejoin="round" stroke-width="1"></line>       <line id="Linha_757" data-name="Linha 757" x1="12.664" transform="translate(66.607 86.378)" fill="none" stroke="#263238" stroke-linecap="round" stroke-linejoin="round" stroke-width="1"></line>       <line id="Linha_758" data-name="Linha 758" x1="21.121" transform="translate(61.711 93.931)" fill="none" stroke="#263238" stroke-linecap="round" stroke-linejoin="round" stroke-width="1"></line>       <line id="Linha_759" data-name="Linha 759" x2="9.56" transform="translate(9.47 85.706)" fill="none" stroke="#263238" stroke-linecap="round" stroke-linejoin="round" stroke-width="1"></line>       <line id="Linha_760" data-name="Linha 760" x2="20.897" transform="translate(9.918 88.378)" fill="none" stroke="#263238" stroke-linecap="round" stroke-linejoin="round" stroke-width="1"></line>       <line id="Linha_761" data-name="Linha 761" x2="7.112" transform="translate(33.038 88.378)" fill="none" stroke="#263238" stroke-linecap="round" stroke-linejoin="round" stroke-width="1"></line>       <line id="Linha_762" data-name="Linha 762" x1="13.12" transform="translate(9.47 92.819)" fill="none" stroke="#263238" stroke-linecap="round" stroke-linejoin="round" stroke-width="1"></line>       <line id="Linha_763" data-name="Linha 763" x1="8.448" transform="translate(74.832 96.827)" fill="none" stroke="#263238" stroke-linecap="round" stroke-linejoin="round" stroke-width="1"></line>       <path id="Caminho_19602" data-name="Caminho 19602" d="M243.372,418.039H317.51a2.224,2.224,0,1,0,0-4.448H243.372c-5.088,0-9.224-3.832-9.224-8.552s4.136-8.56,9.224-8.56h73.474a2.224,2.224,0,1,0,0-4.448H243.372c-7.536,0-13.672,5.832-13.672,13.008S235.836,418.039,243.372,418.039Z" transform="translate(-229.567 -314.548)" fill="#7300cc" stroke="#263238" stroke-linecap="round" stroke-linejoin="round" stroke-width="1"></path>     </g>     <g id="freepik--Ground--inject-171" transform="translate(125.43 362.424)">       <line id="Linha_764" data-name="Linha 764" x2="189.453" transform="translate(0)" fill="none" stroke="#263238" stroke-linecap="round" stroke-linejoin="round" stroke-width="2"></line>     </g>   </g> </svg>