<svg xmlns="http://www.w3.org/2000/svg" xmlns:xlink="http://www.w3.org/1999/xlink" width="600" height="448.968" viewBox="0 0 600 448.968"><defs><clipPath id="a"><rect width="178.881" height="153.479" fill="#fff"/></clipPath><clipPath id="b"><path d="M201.17,285.64s3.73,16.664,3.517,21.313-8.991,17.1-9.218,14.253a19.447,19.447,0,0,1,1.545-7.02s-3.077,4.169-4.169,4,.879-5.928.879-5.928-3.29,3.29-4.4,2.664,2.411-5.488,2.411-5.488-4,4.169-4.156,2.851,3.5-6.793,3.5-6.793-3.73-7.9-4-11.189a10.656,10.656,0,0,1,2.185-6.354Z" transform="translate(-187.09 -285.64)" fill="#fff" stroke="#263238" stroke-linecap="round" stroke-linejoin="round" stroke-width="1"/></clipPath><clipPath id="c"><path d="M199.8,285.64s2.664,11.629,2.424,14.919-3.517,12.934-5.928,11.176,1.532-8.325,1.532-8.325-6.767-4.755-8.325-9.218-.666-6.354-.666-6.354Z" transform="translate(-188.579 -285.64)" fill="#fff" stroke="#263238" stroke-linecap="round" stroke-linejoin="round" stroke-width="1"/></clipPath><clipPath id="d"><path d="M164.3,165.24s-7.26,6.5-8.512,8.752S139.3,197.969,139.048,213.5,150.317,276,150.317,276L133,320.051l5.009,2,5-5.5v8.259s5.754,5.248,20.753,10.243,34.26-.746,34.26-.746l5.741-36.551v36.059l6.754-4.5.546-60.049s5.5-32.249,5.5-41.293-15.252-37.3-22.005-45.5-18.009-15-21.313-17.5S164.3,165.24,164.3,165.24Z" transform="translate(-133 -163.916)" fill="#263238" stroke="#263238" stroke-linecap="round" stroke-linejoin="round" stroke-width="1"/></clipPath><clipPath id="e"><path d="M198.017,136.055s6.074,4.662,6.833,9.165-1.505,9.511-1.252,11.256,4.742,5.754,4.5,7.753-4,2.744-4,2.744-4.076,14.839-5.075,17.317-6.008,1.745-9.751,1.252l-6.754,19.981-22.272-26.2,3.5-10.51s-9.5-11.5-10.257-23.75,9-20.753,23-22.5,25.762,5,27.254,7.753S198.017,136.055,198.017,136.055Z" transform="translate(-153.459 -122.276)" fill="#fff" stroke="#263238" stroke-linecap="round" stroke-linejoin="round" stroke-width="1"/></clipPath><clipPath id="f"><path d="M217.2,240.075s8.525-4.8,9.857-4.8,9.058,6.927,9.058,6.927l-3.2,4.8s10.124,5.062,9.058,6.927-5.062,4.8-9.324,5.328-16.251-7.193-16.251-7.193Z" transform="translate(-216.4 -235.28)" fill="#fff" stroke="#263238" stroke-linecap="round" stroke-linejoin="round" stroke-width="1"/></clipPath><clipPath id="g"><path d="M149.566,181.48s-7.193,13.853-7.992,20.78,28.506,62.074,30.637,63.938,64.458,3.73,64.458,3.73l2.664-13.587-53.282-15.185-18.116-55.68" transform="translate(-141.558 -181.48)" fill="#263238" stroke="#263238" stroke-linecap="round" stroke-linejoin="round" stroke-width="1"/></clipPath><clipPath id="h"><path d="M327.652,181.237a49.479,49.479,0,0,0-4.449-7.007,26.641,26.641,0,0,0-6.58-4.889c-8.472-3.343-19.555,1.505-25.988,7.633-.853,1.891-7.566,17.21-10.75,29.731-3.4,13.32-2.97,30.158-2.97,30.158s11.256-14.439,26.534-31.423a202.6,202.6,0,0,1,24.909-23.4Z" transform="translate(-276.897 -168.251)" fill="#263238" stroke="#263238" stroke-linecap="round" stroke-linejoin="round" stroke-width="1"/></clipPath><clipPath id="i"><path d="M277.681,138.885s-5.1,14.493-4.622,16.571.959,5.248.959,5.248-7.992,9.871-7.007,10.989,5.408,2.384,5.408,2.384,3.663,15.292,5.1,16.717,10.35-1.745,10.35-1.745l9.551,12.1L317,182.363l-2.384-9.87s10.35-18.156,10.19-26.761-17.823-20.061-30.411-19.9-24.363,4.782-21.979,8.126A18.038,18.038,0,0,0,277.681,138.885Z" transform="translate(-266.927 -125.829)" fill="#fff" stroke="#263238" stroke-linecap="round" stroke-linejoin="round" stroke-width="1"/></clipPath></defs><g transform="translate(-360 -3715.73)"><path d="M0,0H230.5A33.5,33.5,0,0,1,264,33.5v0A33.5,33.5,0,0,1,230.5,67H0a0,0,0,0,1,0,0V0A0,0,0,0,1,0,0Z" transform="translate(696 3786)" fill="#7300cc"/><g transform="translate(0 2504.23)"><g transform="translate(444.481 1211.5)"><rect width="198.769" height="170.529" fill="#7300cc"/><rect width="178.881" height="153.479" transform="translate(9.937 8.525)" fill="#fff"/><g transform="translate(9.937 8.525)" clip-path="url(#a)"><path d="M294.681,141.33c-32.169,22.885-78.245,38.07-131.7,61.927A220.186,220.186,0,0,0,115.8,231.47v16.824H294.681Z" transform="translate(-115.8 -94.801)" fill="#7300cc"/><path d="M280.772,106.4H208.988c-7.992,6.833-17.437,14.466-28.6,22.645-40.854,29.958-23.151,59.942,25.882,38.123,25.162-11.176,53.175-37.058,74.5-59.609Z" transform="translate(-101.891 -106.4)" fill="#7300cc"/><path d="M146.687,120.762c0-12.508-15.572-2.664-30.837,9.91v31.583C130.7,147.683,146.687,131.952,146.687,120.762Z" transform="translate(-115.783 -103.552)" fill="#7300cc"/><path d="M157.332,160.206A14.306,14.306,0,1,1,143.026,145.9,14.306,14.306,0,0,1,157.332,160.206Z" transform="translate(-111.51 -93.284)" fill="#7300cc"/><path d="M294.681,141.33c-32.169,22.885-78.245,38.07-131.7,61.927A220.186,220.186,0,0,0,115.8,231.47v16.824H294.681Z" transform="translate(-115.8 -94.801)" fill="#fff" opacity="0.75"/><path d="M280.772,106.4H208.988c-7.992,6.833-17.437,14.466-28.6,22.645-40.854,29.958-23.151,59.942,25.882,38.123,25.162-11.176,53.175-37.058,74.5-59.609Z" transform="translate(-101.891 -106.4)" fill="#fff" opacity="0.75"/><g transform="translate(0.067 11.424)" opacity="0.75"><path d="M146.687,120.762c0-12.508-15.572-2.664-30.837,9.91v31.583C130.7,147.683,146.687,131.952,146.687,120.762Z" transform="translate(-115.85 -114.976)" fill="#fff"/></g><path d="M157.332,160.206A14.306,14.306,0,1,1,143.026,145.9,14.306,14.306,0,0,1,157.332,160.206Z" transform="translate(-111.51 -93.284)" fill="#fff" opacity="0.75"/></g><path d="M236.39,195.645a19.075,19.075,0,1,1-19.062-19.075A19.075,19.075,0,0,1,236.39,195.645Z" transform="translate(-78.489 -74.575)" fill="#fff"/></g><g transform="translate(360 1379.613)"><path d="M361.636,433.226l-.266-.213v-36.6h5.262V373.27H347.184v23.138h5.248v37.231L305.89,448.478v3.676a4.209,4.209,0,0,0,8.419,0v-.519l38.923-4.529v5.581a3.676,3.676,0,1,0,7.353,0v-5.768l40.494,4.716v.519a4.209,4.209,0,0,0,8.419,0v-3.677Z" transform="translate(41.738 -177.374)" fill="#263238"/><path d="M48.8,226.238l39.2.333s2.664-.333,3.25,1.612c0,0,6.807,17.183,7.126,23.337s-1.332,5.182,1.332,13.321,10.044,27.214,14.253,42.772c5.675,20.9,7.14,43.092,7.5,64.671,0,3.463,2.131,33.3-3.264,33.3-4.462,0-45.716,5.475-46.222-2.478-1.971-31.7,3.743-62.673-7.26-93.5-4.276-11.988-9.178-24.616-12.8-37.138s-4.263-25.549-6.66-38.363C43.683,225.265,48.8,226.238,48.8,226.238Z" transform="translate(-44.906 -226.206)" fill="#263238"/><path d="M45,230.127c.386-4.529,3.836-3.89,3.836-3.89l39.2.333s2.664-.333,3.25,1.612c0,0,6.807,17.183,7.126,23.338a29.307,29.307,0,0,1-.147,4.875l-.826,1.332s-1.332,11.336-16.85,11.988-24.35-6.487-27.6-13.334-4.529-17.823-7.126-24.31A18.3,18.3,0,0,0,45,230.127Z" transform="translate(-44.891 -226.206)" fill="#7300cc"/><path d="M54.058,242.728c2.664,9.471,1.052,12.095,3.676,28.4S69.843,305.76,73.52,322.664s2.145,76.247,1.572,78.884a23.976,23.976,0,0,0-.226,4.223c-1.758-.666-2.837-1.572-2.917-2.811-1.971-31.7,3.743-62.673-7.26-93.5-4.276-11.988-9.178-24.616-12.8-37.138s-4.263-25.549-6.66-38.363c-.986-5.328.586-7.073,1.945-7.593h0A69.933,69.933,0,0,1,54.058,242.728Z" transform="translate(-44.918 -226.152)" fill="#7300cc"/><path d="M120.566,433.226l.266-.213v-36.6H115.5V373.27h19.461v23.138H129.7v37.231l46.542,14.839v3.676a4.209,4.209,0,0,1-8.419,0v-.519l-38.776-4.529v5.581a3.69,3.69,0,0,1-7.366,0v-5.768L81.1,451.635v.519a4.209,4.209,0,1,1-8.405,0v-3.676Z" transform="translate(-35.698 -177.374)" fill="#263238"/><rect width="126.238" height="26.841" rx="4" transform="translate(150.284 200.159) rotate(180)" fill="#263238"/><rect width="316.495" height="181.905" transform="translate(119.194 97.951)" fill="#ccc"/><rect width="316.096" height="5.035" transform="translate(119.354 102.32)" fill="#263238"/><rect width="325.886" height="7.952" transform="translate(112.148 94.967)" fill="#ccc"/></g><g transform="translate(477.329 1241.17)"><path d="M201.17,285.64s3.73,16.664,3.517,21.313-8.991,17.1-9.218,14.253a19.447,19.447,0,0,1,1.545-7.02s-3.077,4.169-4.169,4,.879-5.928.879-5.928-3.29,3.29-4.4,2.664,2.411-5.488,2.411-5.488-4,4.169-4.156,2.851,3.5-6.793,3.5-6.793-3.73-7.9-4-11.189a10.656,10.656,0,0,1,2.185-6.354Z" transform="translate(-115.039 -68.028)" fill="#fff"/><g transform="translate(72.051 217.612)" clip-path="url(#b)"><path d="M201.17,285.64s3.73,16.664,3.517,21.313-8.991,17.1-9.218,14.253a19.447,19.447,0,0,1,1.545-7.02s-3.077,4.169-4.169,4,.879-5.928.879-5.928-3.29,3.29-4.4,2.664,2.411-5.488,2.411-5.488-4,4.169-4.156,2.851,3.5-6.793,3.5-6.793-3.73-7.9-4-11.189a10.656,10.656,0,0,1,2.185-6.354Z" transform="translate(-187.09 -285.64)" fill="#d9d9d9"/></g><path d="M201.17,285.64s3.73,16.664,3.517,21.313-8.991,17.1-9.218,14.253a19.447,19.447,0,0,1,1.545-7.02s-3.077,4.169-4.169,4,.879-5.928.879-5.928-3.29,3.29-4.4,2.664,2.411-5.488,2.411-5.488-4,4.169-4.156,2.851,3.5-6.793,3.5-6.793-3.73-7.9-4-11.189a10.656,10.656,0,0,1,2.185-6.354Z" transform="translate(-115.039 -68.028)" fill="none" stroke="#263238" stroke-linecap="round" stroke-linejoin="round" stroke-width="1"/><path d="M199.8,285.64s2.664,11.629,2.424,14.919-3.517,12.934-5.928,11.176,1.532-8.325,1.532-8.325-6.767-4.755-8.325-9.218-.666-6.354-.666-6.354Z" transform="translate(-114.545 -68.028)" fill="#fff"/><g transform="translate(74.034 217.612)" clip-path="url(#c)"><path d="M199.8,285.64s2.664,11.629,2.424,14.919-3.517,12.934-5.928,11.176,1.532-8.325,1.532-8.325-6.767-4.755-8.325-9.218-.666-6.354-.666-6.354Z" transform="translate(-188.579 -285.64)" fill="#d9d9d9"/></g><path d="M199.8,285.64s2.664,11.629,2.424,14.919-3.517,12.934-5.928,11.176,1.532-8.325,1.532-8.325-6.767-4.755-8.325-9.218-.666-6.354-.666-6.354Z" transform="translate(-114.545 -68.028)" fill="none" stroke="#263238" stroke-linecap="round" stroke-linejoin="round" stroke-width="1"/><path d="M195.2,244.73l9.338,55.613-13.161,2.97L178.22,260.435Z" transform="translate(-117.985 -81.612)" fill="#263238" stroke="#263238" stroke-linecap="round" stroke-linejoin="round" stroke-width="1"/><path d="M204.753,268.946s.852,66.23,2.118,84.066-3.4,41.613-7.633,48.407-22.938,49.286-22.085,51.8,4.675,10.19,4.675,12.308v8.911s21.22,14.013,22.925,14.013,3.823,3.4-.426,5.954-51.8,2.544-53.921.839a10.283,10.283,0,0,1-2.97-4.662s-6.793,2.544-6.367-3.823,8.059-33.541,8.059-33.541-4.662-29.731-2.97-48.833,7.646-42.04,7.646-46.7-5.941-35.672-6.794-40.761-13.161-19.541-7.646-31,9.764-29.731,11.469-31,24.63-2.131,33.967,0S204.327,257.051,204.753,268.946Z" transform="translate(-131.357 -78.654)" fill="#263238" stroke="#263238" stroke-linecap="round" stroke-linejoin="round" stroke-width="1"/><path d="M164.3,165.24s-7.26,6.5-8.512,8.752S139.3,197.969,139.048,213.5,150.317,276,150.317,276L133,320.051l5.009,2,5-5.5v8.259s5.754,5.248,20.753,10.243,34.26-.746,34.26-.746l5.741-36.551v36.059l6.754-4.5.546-60.049s5.5-32.249,5.5-41.293-15.252-37.3-22.005-45.5-18.009-15-21.313-17.5S164.3,165.24,164.3,165.24Z" transform="translate(-133 -108.447)" fill="#263238"/><g transform="translate(0 55.469)" clip-path="url(#d)"><path d="M164.3,165.24s-7.26,6.5-8.512,8.752S139.3,197.969,139.048,213.5,150.317,276,150.317,276L133,320.051l5.009,2,5-5.5v8.259s5.754,5.248,20.753,10.243,34.26-.746,34.26-.746l5.741-36.551v36.059l6.754-4.5.546-60.049s5.5-32.249,5.5-41.293-15.252-37.3-22.005-45.5-18.009-15-21.313-17.5S164.3,165.24,164.3,165.24Z" transform="translate(-133 -163.916)" fill="#fff" opacity="0.17"/><path d="M140.46,204.88s9.085,6.434,15.132,8.7" transform="translate(-130.523 -150.313)" fill="none" stroke="#263238" stroke-linecap="round" stroke-linejoin="round" stroke-width="1"/><path d="M142.45,210s10.217,2.664,15.505,2.664" transform="translate(-129.862 -148.613)" fill="none" stroke="#263238" stroke-linecap="round" stroke-linejoin="round" stroke-width="1"/><path d="M153.53,255.42l28.746,3.41-1.891,6.047L153.9,261.854" transform="translate(-126.183 -133.532)" fill="none" stroke="#263238" stroke-linecap="round" stroke-linejoin="round" stroke-width="1"/></g><path d="M164.3,165.24s-7.26,6.5-8.512,8.752S139.3,197.969,139.048,213.5,150.317,276,150.317,276L133,320.051l5.009,2,5-5.5v8.259s5.754,5.248,20.753,10.243,34.26-.746,34.26-.746l5.741-36.551v36.059l6.754-4.5.546-60.049s5.5-32.249,5.5-41.293-15.252-37.3-22.005-45.5-18.009-15-21.313-17.5S164.3,165.24,164.3,165.24Z" transform="translate(-133 -108.447)" fill="none" stroke="#263238" stroke-linecap="round" stroke-linejoin="round" stroke-width="1"/><path d="M155.37,166l27.76,30.011,16.251,31.01s-3.5-23-6.5-29.305-16.5-21.912-18.023-25.416S155.37,166,155.37,166Z" transform="translate(-125.572 -107.755)" fill="#fff" stroke="#263238" stroke-linecap="round" stroke-linejoin="round" stroke-width="1"/><path d="M185.23,207.345,192.916,222s-2.384-15.678-4.915-24.67l-1.585-4.6a83.241,83.241,0,0,0-7.22-10.656l-4.356-.866,1.825,9.8,5.621,4.6Z" transform="translate(-119.107 -102.704)" fill="#263238" stroke="#263238" stroke-linecap="round" stroke-linejoin="round" stroke-width="1"/><path d="M177.817,174.49l1.439,1.665,4.516,5.328,2.664,13.534L174.86,183.468S176.378,176.5,177.817,174.49Z" transform="translate(-119.1 -104.936)" fill="#fff" stroke="#263238" stroke-linecap="round" stroke-linejoin="round" stroke-width="1"/><path d="M198.017,136.055s6.074,4.662,6.833,9.165-1.505,9.511-1.252,11.256,4.742,5.754,4.5,7.753-4,2.744-4,2.744-4.076,14.839-5.075,17.317-6.008,1.745-9.751,1.252l-6.754,19.981-22.272-26.2,3.5-10.51s-9.5-11.5-10.257-23.75,9-20.753,23-22.5,25.762,5,27.254,7.753S198.017,136.055,198.017,136.055Z" transform="translate(-126.207 -122.273)" fill="#fff"/><g transform="translate(27.252 0.003)" clip-path="url(#e)"><path d="M198.017,136.055s6.074,4.662,6.833,9.165-1.505,9.511-1.252,11.256,4.742,5.754,4.5,7.753-4,2.744-4,2.744-4.076,14.839-5.075,17.317-6.008,1.745-9.751,1.252l-6.754,19.981-22.272-26.2,3.5-10.51s-9.5-11.5-10.257-23.75,9-20.753,23-22.5,25.762,5,27.254,7.753S198.017,136.055,198.017,136.055Z" transform="translate(-153.459 -122.276)" fill="#d9d9d9"/><path d="M172.082,191.425c3.756-.759,10.057-2.065,15.731-3.343l1.465-4.342c3.117.413,7.113,1,8.925-.266-4.263-1.758-14.812-4.835-16.97-8.792-2.664-4.915,6.66-19.221,6.66-26.375s-8.938-15.2-8.938-15.2c-4.3-4.089-12.148-5.328-19.115-5.328a18.755,18.755,0,0,0-6.367,15.518c.759,12.255,10.257,23.75,10.257,23.75l-3.5,10.51Z" transform="translate(-153.472 -120.449)" fill="#b8b8b8"/></g><path d="M198.017,136.055s6.074,4.662,6.833,9.165-1.505,9.511-1.252,11.256,4.742,5.754,4.5,7.753-4,2.744-4,2.744-4.076,14.839-5.075,17.317-6.008,1.745-9.751,1.252l-6.754,19.981-22.272-26.2,3.5-10.51s-9.5-11.5-10.257-23.75,9-20.753,23-22.5,25.762,5,27.254,7.753S198.017,136.055,198.017,136.055Z" transform="translate(-126.207 -122.273)" fill="none" stroke="#263238" stroke-linecap="round" stroke-linejoin="round" stroke-width="1"/><path d="M198.017,136.055s7.246-3,5.741-5.741S190.5,120.8,176.5,122.562s-23.75,10.243-23,22.5,10.257,23.75,10.257,23.75l-.533,1.6c5.182,2.531,10.536-1.6,10.536-1.6a5.155,5.155,0,0,1-6.008-1c-3-2.744-3.25-11.5.506-12.255s6.247.759,6.247,3.5.746,1,2.757.746.24-6.247,1.492-7.246A19.567,19.567,0,0,0,184,147.8c2.251-3-4.249-5.488-5-8.245S198.017,136.055,198.017,136.055Z" transform="translate(-126.206 -122.274)" fill="#263238" stroke="#263238" stroke-linecap="round" stroke-linejoin="round" stroke-width="1"/><path d="M189.406,147.28l-4.635,1.545h4.2" transform="translate(-115.81 -113.971)" fill="none" stroke="#263238" stroke-linecap="round" stroke-linejoin="round" stroke-width="1"/><path d="M191.23,144.272s-1.985-2.864-4.2-1.545-2.424,2.211-2.424,2.211" transform="translate(-115.863 -115.598)" fill="none" stroke="#263238" stroke-linecap="round" stroke-linejoin="round" stroke-width="1"/><path d="M186,158.88a6.514,6.514,0,0,0,4.635,1.066" transform="translate(-115.401 -110.119)" fill="none" stroke="#263238" stroke-linecap="round" stroke-linejoin="round" stroke-width="1"/><path d="M158.869,161.53l28,27.507-2.491,11.749L154.62,168.776Z" transform="translate(-125.821 -109.239)" fill="#fff" stroke="#263238" stroke-linecap="round" stroke-linejoin="round" stroke-width="1"/><path d="M245.413,241.817s-9.857-5.861-11.456-5.328-17.05,11.722-15.985,14.386,9.324,6.127,14.12,7.992,14.653-2.131,14.653-2.131Z" transform="translate(-104.802 -84.36)" fill="#fff" stroke="#263238" stroke-linecap="round" stroke-linejoin="round" stroke-width="1"/><path d="M217.2,240.075s8.525-4.8,9.857-4.8,9.058,6.927,9.058,6.927l-3.2,4.8s10.124,5.062,9.058,6.927-5.062,4.8-9.324,5.328-16.251-7.193-16.251-7.193Z" transform="translate(-105.307 -84.75)" fill="#fff"/><g transform="translate(111.093 150.53)" clip-path="url(#f)"><path d="M217.2,240.075s8.525-4.8,9.857-4.8,9.058,6.927,9.058,6.927l-3.2,4.8s10.124,5.062,9.058,6.927-5.062,4.8-9.324,5.328-16.251-7.193-16.251-7.193Z" transform="translate(-216.4 -235.28)" fill="#d9d9d9"/></g><path d="M217.2,240.075s8.525-4.8,9.857-4.8,9.058,6.927,9.058,6.927l-3.2,4.8s10.124,5.062,9.058,6.927-5.062,4.8-9.324,5.328-16.251-7.193-16.251-7.193Z" transform="translate(-105.307 -84.75)" fill="none" stroke="#263238" stroke-linecap="round" stroke-linejoin="round" stroke-width="1"/><path d="M212.892,237.28l7.459,1.332-2.4,12.788-6.394-2.131Z" transform="translate(-106.914 -84.086)" fill="#fff" stroke="#263238" stroke-linecap="round" stroke-linejoin="round" stroke-width="1"/><path d="M149.566,181.48s-7.193,13.853-7.992,20.78,28.506,62.074,30.637,63.938,64.458,3.73,64.458,3.73l2.664-13.587-53.282-15.185-18.116-55.68" transform="translate(-130.158 -102.615)" fill="#263238"/><g transform="translate(11.4 78.865)" clip-path="url(#g)"><path d="M149.566,181.48s-7.193,13.853-7.992,20.78,28.506,62.074,30.637,63.938,64.458,3.73,64.458,3.73l2.664-13.587-53.282-15.185-18.116-55.68" transform="translate(-141.558 -181.48)" fill="#fff" opacity="0.17"/></g><path d="M149.566,181.48s-7.193,13.853-7.992,20.78,28.506,62.074,30.637,63.938,64.458,3.73,64.458,3.73l2.664-13.587-53.282-15.185-18.116-55.68" transform="translate(-130.158 -102.615)" fill="none" stroke="#263238" stroke-linecap="round" stroke-linejoin="round" stroke-width="1"/><path d="M234.522,237.8s-3.73-3.2-5.062.533-9.591,12.788-5.861,13.054,10.656-7.46,10.656-7.46" transform="translate(-103.235 -84.338)" fill="#fff" stroke="#263238" stroke-linecap="round" stroke-linejoin="round" stroke-width="1"/><path d="M219.21,248.984s-.959,4.489,1.332,6.394c1.612,1.332,2.518-2.4,2.131-5.062S220.009,246.853,219.21,248.984Z" transform="translate(-104.44 -80.605)" fill="#fff" stroke="#263238" stroke-linecap="round" stroke-linejoin="round" stroke-width="1"/><path d="M222.05,249.784s-.959,4.489,1.332,6.394c1.612,1.332,2.518-2.4,2.131-5.062S222.8,247.653,222.05,249.784Z" transform="translate(-103.497 -80.339)" fill="#fff" stroke="#263238" stroke-linecap="round" stroke-linejoin="round" stroke-width="1"/><path d="M224.81,250.984s-.959,4.489,1.332,6.394c1.612,1.332,2.518-2.4,2.131-5.062S225.609,248.853,224.81,250.984Z" transform="translate(-102.581 -79.941)" fill="#fff" stroke="#263238" stroke-linecap="round" stroke-linejoin="round" stroke-width="1"/><path d="M227.575,252.516s-.879,3.024,1.226,4.3c1.479.906,2.318-1.612,1.958-3.41S228.308,251.077,227.575,252.516Z" transform="translate(-101.657 -79.301)" fill="#fff" stroke="#263238" stroke-linecap="round" stroke-linejoin="round" stroke-width="1"/><path d="M238.56,240.546l.8,17.05,5.861-1.6-1.332-15.718Z" transform="translate(-97.949 -83.09)" fill="none" stroke="#263238" stroke-linecap="round" stroke-linejoin="round" stroke-width="1"/><path d="M241.56,242l2.664,20.247,44.49-4.8,1.066-26.375Z" transform="translate(-96.953 -86.145)" fill="#263238" stroke="#263238" stroke-linecap="round" stroke-linejoin="round" stroke-width="1"/><path d="M188.187,299.87s-8.072,53.921-8.072,72.184-12.308,48.833-12.734,65.817" transform="translate(-121.584 -63.303)" fill="none" stroke="#fff" stroke-linecap="round" stroke-linejoin="round" stroke-width="1"/><path d="M148.04,440.187c2.118,1.705,49.672,1.705,53.921-.839s2.118-5.954.426-5.954-22.925-14.013-22.925-14.013-11.469,8.925-17.836,11.043-16.557,2.544-16.557,2.544v2.558A10.283,10.283,0,0,0,148.04,440.187Z" transform="translate(-128.992 -23.62)" fill="#fff" stroke="#263238" stroke-linecap="round" stroke-linejoin="round" stroke-width="1"/><path d="M201.869,435.416c2.238-1.332,2.664-2.931,2.4-4.116a105.016,105.016,0,0,1-18.955,1.985c-12.828.346-33.008-.44-39.962-.733a9.551,9.551,0,0,0,2.664,3.7C150.065,437.96,197.62,437.96,201.869,435.416Z" transform="translate(-128.899 -19.662)" fill="#fff" stroke="#263238" stroke-linecap="round" stroke-linejoin="round" stroke-width="1"/><path d="M145.423,441.167l1.239-2.891,1.692-34.806s-7.646,27.174-8.059,33.541C139.975,441.647,143.492,441.553,145.423,441.167Z" transform="translate(-130.584 -28.903)" fill="#263238" stroke="#263238" stroke-linecap="round" stroke-linejoin="round" stroke-width="1"/><path d="M282.279,291.9s-4.236,63.272,0,88.741,14.906,69.64,16.557,75.154a29.3,29.3,0,0,1,1.332,10.19l23.777,3.4s-7.22-83.64-7.22-93.4,8.072-82.8,8.072-82.8Z" transform="translate(-84.057 -65.95)" fill="#263238" stroke="#263238" stroke-linecap="round" stroke-linejoin="round" stroke-width="1"/><path d="M302.539,422.709s-25.9,11.043-28.879,13.161,6.381,5.1,17.836,5.1a228.209,228.209,0,0,0,22.938-1.332L319.1,437.1l.426,2.971H331.83s2.131-10.19,1.332-12.734a46.966,46.966,0,0,0-2.118-5.1Z" transform="translate(-86.48 -22.673)" fill="#263238" stroke="#263238" stroke-linecap="round" stroke-linejoin="round" stroke-width="1"/><path d="M278.94,288.4s2.131,60.715,7.22,82.374,14.013,74.3,14.013,79.816a32.489,32.489,0,0,1-1.265,9.324l-1.705,5.541a17.1,17.1,0,0,0,1.332,3.823s11.029,2.544,18.249,2.544a47.958,47.958,0,0,0,13.321-2.011s.226-13.321.653-19.648-1.692-47.128-1.692-56.892-2.558-15.292-2.558-27.174-2.118-43.731-1.692-48.833,6.367-10.656,7.646-16.984,2.544-13.161,2.544-13.161Z" transform="translate(-84.541 -67.537)" fill="#263238" stroke="#263238" stroke-linecap="round" stroke-linejoin="round" stroke-width="1"/><path d="M282.76,336s11.869,82.334,14.839,87.529a15.132,15.132,0,0,1,1.332,10.816" transform="translate(-83.272 -51.306)" fill="none" stroke="#fff" stroke-linecap="round" stroke-linejoin="round" stroke-width="1"/><path d="M271.718,252.591s-1.585,16.238-1.585,28.652c0,6.927-.067,15.985-.133,22.538a11.615,11.615,0,0,0,9.324,11.469,44.528,44.528,0,0,0,8.485,1.026L277.833,254.5S273.317,246.863,271.718,252.591Z" transform="translate(-87.509 -79.71)" fill="#263238" stroke="#263238" stroke-linecap="round" stroke-linejoin="round" stroke-width="1"/><path d="M318.485,169.267a26.64,26.64,0,0,1,6.58,4.889,49.481,49.481,0,0,1,4.5,7.1s18.049,20.807,18.476,22.925-10.19,69-10.19,69l12.095,63.259s-19.528,10.829-34.393,11.469c-10.457.453-26.188-2.891-34.633-4.915a8.232,8.232,0,0,1-6.3-7.273c-.826-8.9-2.371-26.641-3.277-43.438-1.039-19.514,1.918-58.171,4-71.758s8.712-32.049,13.8-39.7S308.255,165.271,318.485,169.267Z" transform="translate(-87.134 -107.026)" fill="#263238" stroke="#263238" stroke-linecap="round" stroke-linejoin="round" stroke-width="1"/><path d="M327.652,181.237a49.479,49.479,0,0,0-4.449-7.007,26.641,26.641,0,0,0-6.58-4.889c-8.472-3.343-19.555,1.505-25.988,7.633-.853,1.891-7.566,17.21-10.75,29.731-3.4,13.32-2.97,30.158-2.97,30.158s11.256-14.439,26.534-31.423a202.6,202.6,0,0,1,24.909-23.4Z" transform="translate(-85.219 -107.008)" fill="#263238"/><g transform="translate(191.678 61.243)" clip-path="url(#h)"><path d="M327.652,181.237a49.479,49.479,0,0,0-4.449-7.007,26.641,26.641,0,0,0-6.58-4.889c-8.472-3.343-19.555,1.505-25.988,7.633-.853,1.891-7.566,17.21-10.75,29.731-3.4,13.32-2.97,30.158-2.97,30.158s11.256-14.439,26.534-31.423a202.6,202.6,0,0,1,24.909-23.4Z" transform="translate(-276.897 -168.251)" fill="#fff" opacity="0.17"/></g><path d="M327.652,181.237a49.479,49.479,0,0,0-4.449-7.007,26.641,26.641,0,0,0-6.58-4.889c-8.472-3.343-19.555,1.505-25.988,7.633-.853,1.891-7.566,17.21-10.75,29.731-3.4,13.32-2.97,30.158-2.97,30.158s11.256-14.439,26.534-31.423a202.6,202.6,0,0,1,24.909-23.4Z" transform="translate(-85.219 -107.008)" fill="none" stroke="#263238" stroke-linecap="round" stroke-linejoin="round" stroke-width="1"/><path d="M288.464,186.271s-5.741,18-7.486,23.084-1.918,13.067-1.918,13.067,21.5-32.169,26.748-37.577,12.108-13.853,12.108-13.853l-4.622-1.332Z" transform="translate(-84.501 -106.54)" fill="#fff" stroke="#263238" stroke-linecap="round" stroke-linejoin="round" stroke-width="1"/><path d="M288.1,177.23s-2.544,7.486-2.544,7.992-.639,7.646-.639,7.646l9.071-12.268Z" transform="translate(-82.555 -104.026)" fill="#fff" stroke="#263238" stroke-linecap="round" stroke-linejoin="round" stroke-width="1"/><path d="M310.83,166,286,186.221l3.823,11.136,25.469-25.948Z" transform="translate(-82.196 -107.755)" fill="#fff" stroke="#263238" stroke-linecap="round" stroke-linejoin="round" stroke-width="1"/><path d="M303.532,286.4s-3.53,8.778-4.582,11.655-.52,14.146-.386,15.332,2.225,1.439,2.225,1.439.653,9.031,1.439,9.324a13.983,13.983,0,0,0,2.491.386s1.439,4.6,3.277,4.2a2.984,2.984,0,0,0,2.091-2.491,3.463,3.463,0,0,0,3.144-1.439,17.041,17.041,0,0,0,1.838-3.53s3.144-1.572,3.4-2.757,1.052-5.328,1.052-5.328.919-.266.919-3.01-2.091-19.648-2.091-19.648Z" transform="translate(-78.109 -67.776)" fill="#fff" stroke="#263238" stroke-linecap="round" stroke-linejoin="round" stroke-width="1"/><line y1="7.966" x2="0.386" transform="translate(222.679 239.084)" fill="none" stroke="#263238" stroke-linecap="round" stroke-linejoin="round" stroke-width="1"/><line y1="11.789" x2="0.853" transform="translate(226.608 244.945)" fill="none" stroke="#263238" stroke-linecap="round" stroke-linejoin="round" stroke-width="1"/><line y1="12.761" x2="0.613" transform="translate(231.977 245.678)" fill="none" stroke="#263238" stroke-linecap="round" stroke-linejoin="round" stroke-width="1"/><line y1="8.885" x2="0.759" transform="translate(236.959 244.586)" fill="none" stroke="#263238" stroke-linecap="round" stroke-linejoin="round" stroke-width="1"/><path d="M328.328,190.86l9.551,5.728-3.184,66.03-16.984,62.407-16.131-4.236,5.088-49.286-2.544-49.672s3.61-11.576,11.882-17.943" transform="translate(-77.023 -99.5)" fill="#263238" stroke="#263238" stroke-linecap="round" stroke-linejoin="round" stroke-width="1"/><path d="M308.046,199.23s-4.343,11.029-4.556,19.848" transform="translate(-76.389 -96.721)" fill="none" stroke="#fff" stroke-linecap="round" stroke-linejoin="round" stroke-width="1"/><path d="M312.263,203.17s-7.433,12.135-7.433,17.623,1.958,51.284,1.958,51.284L301.7,311.612" transform="translate(-76.983 -95.413)" fill="none" stroke="#fff" stroke-linecap="round" stroke-linejoin="round" stroke-width="1"/><path d="M277.681,138.885s-5.1,14.493-4.622,16.571.959,5.248.959,5.248-7.992,9.871-7.007,10.989,5.408,2.384,5.408,2.384,3.663,15.292,5.1,16.717,10.35-1.745,10.35-1.745l9.551,12.1L317,182.363l-2.384-9.87s10.35-18.156,10.19-26.761-17.823-20.061-30.411-19.9-24.363,4.782-21.979,8.126A18.038,18.038,0,0,0,277.681,138.885Z" transform="translate(-88.53 -121.094)" fill="#fff"/><g transform="translate(178.397 4.735)" clip-path="url(#i)"><path d="M315.615,133.3a27.972,27.972,0,0,0-7.046,2L289.8,142.9s-8.938,7.593-7.992,13.4,8.938,13.853,7.153,19.661S276,188.034,276,188.034l3.5.133c2.664-.626,5.408-1.6,5.408-1.6l1.465,1.852,18.089.653,9.577-9.191-2.384-9.871s10.35-18.156,10.19-26.761C321.743,140.08,319.292,136.524,315.615,133.3Z" transform="translate(-263.914 -123.348)" fill="#b8b8b8"/></g><path d="M277.681,138.885s-5.1,14.493-4.622,16.571.959,5.248.959,5.248-7.992,9.871-7.007,10.989,5.408,2.384,5.408,2.384,3.663,15.292,5.1,16.717,10.35-1.745,10.35-1.745l9.551,12.1L317,182.363l-2.384-9.87s10.35-18.156,10.19-26.761-17.823-20.061-30.411-19.9-24.363,4.782-21.979,8.126A18.038,18.038,0,0,0,277.681,138.885Z" transform="translate(-88.53 -121.094)" fill="none" stroke="#263238" stroke-linecap="round" stroke-linejoin="round" stroke-width="1"/><path d="M313.327,172.492s10.35-18.156,10.19-26.761-17.823-20.061-30.411-19.9-24.363,4.782-21.979,8.126a18.037,18.037,0,0,0,5.262,4.929s7.806,3.663,7.806,4.622-4.622,6.047-3.024,8.285,9.231,4.929,9.231,4.929-1.332,4.3.639,4.782,2.864-1.439,4.129-2.664,5.741-3.037,6.381,2.384a16.45,16.45,0,0,1-2.877,10.989c-.626.466,8.126,6.367,11.988,4.609,1-.453,2.171-1.052,3.343-1.678Z" transform="translate(-87.238 -121.094)" fill="#263238" stroke="#263238" stroke-linecap="round" stroke-linejoin="round" stroke-width="1"/><ellipse cx="1.119" cy="4.303" rx="1.119" ry="4.303" transform="translate(186.754 34.988)" fill="none" stroke="#263238" stroke-linecap="round" stroke-linejoin="round" stroke-width="1"/><line x2="18.782" y2="0.16" transform="translate(189.151 37.545)" fill="none" stroke="#263238" stroke-linecap="round" stroke-linejoin="round" stroke-width="1"/><path d="M272.68,146.839s1.785-2.851,3.57.706" transform="translate(-86.619 -114.476)" fill="none" stroke="#263238" stroke-linecap="round" stroke-linejoin="round" stroke-width="1"/><path d="M272.41,164.8a20.1,20.1,0,0,0,5.328-3.21" transform="translate(-86.709 -109.219)" fill="none" stroke="#263238" stroke-linecap="round" stroke-linejoin="round" stroke-width="1"/></g><g transform="translate(360.901 1659.469)"><line x2="487.36" transform="translate(0)" fill="none" stroke="#263238" stroke-miterlimit="10" stroke-width="2"/></g></g><text transform="translate(786 3828)" fill="#fff" font-size="21" font-family="Ubuntu-Bold, Ubuntu" font-weight="700"><tspan x="0" y="0">Novo contrato</tspan></text><path d="M5.308,16,.229,10.923a.781.781,0,0,1,0-1.105l1.1-1.105a.781.781,0,0,1,1.105,0L5.86,12.134l7.328-7.328a.781.781,0,0,1,1.105,0l1.1,1.105a.781.781,0,0,1,0,1.105L6.413,16A.781.781,0,0,1,5.308,16Z" transform="translate(761.846 3809.423)" fill="#fff"/></g></svg>