<svg xmlns="http://www.w3.org/2000/svg" xmlns:xlink="http://www.w3.org/1999/xlink" width="601.5" height="722.418" viewBox="0 0 601.5 722.418"><defs><clipPath id="a"><path d="M145.43,441.91s95.688,4.25,172.495-6.712l-2.462-37.416L154,382.36Z" transform="translate(-145.43 -382.36)" fill="#fff" stroke="#263238" stroke-linecap="round" stroke-miterlimit="10" stroke-width="1"/></clipPath><clipPath id="b"><path d="M318.6,400.725S191.274,456.93,145.45,472.189l8.57-59.619,128.436-53.14Z" transform="translate(-145.45 -359.43)" fill="#fff" stroke="#263238" stroke-linecap="round" stroke-linejoin="round" stroke-width="1"/></clipPath><clipPath id="c"><path d="M179.755,412.864l123.28-5.156L278.509,354.15l-121.329.65Z" transform="translate(-157.18 -354.15)" fill="#fff" stroke="#263238" stroke-linecap="round" stroke-linejoin="round" stroke-width="1"/></clipPath><clipPath id="d"><path d="M263.52,185.846S277.9,205.8,279.29,211.394s2.787,32.515,4.181,27.87,28.312-51.978,28.776-54.3-7.9-17.164-7.9-17.164-18.58,13.447-27.36,15.77a59.524,59.524,0,0,1-13.471,2.276Z" transform="translate(-263.52 -167.8)" fill="#fff" stroke="#263238" stroke-linecap="round" stroke-linejoin="round" stroke-width="1"/></clipPath><clipPath id="e"><path d="M278.08,159.224s2.323-12.054,7.409-11.125,4.645,10.2,1.858,16.7a62.337,62.337,0,0,1-3.716,7.873Z" transform="translate(-278.08 -148.048)" fill="#fff" stroke="#263238" stroke-linecap="round" stroke-linejoin="round" stroke-width="1"/></clipPath><clipPath id="f"><path d="M256.562,162.023s-7.409-6.968-8.8,2.787,14.376,11.613,14.376,11.613Z" transform="translate(-247.672 -159.612)" fill="#fff" stroke="#263238" stroke-linecap="round" stroke-linejoin="round" stroke-width="1"/></clipPath><clipPath id="g"><path d="M247.983,167.309s20.415,56.159,27.87,64.52,27.359,12.983,43.617.464,11.125-26.454,7.409-37.6-19.022-49.656-21.344-54.742-13.448-7.9-19.022-3.716-3.252,9.29-12.518,11.613-20.415-1.394-25.548,5.574A12.5,12.5,0,0,0,247.983,167.309Z" transform="translate(-246.099 -134.208)" fill="#fff" stroke="#263238" stroke-linecap="round" stroke-linejoin="round" stroke-width="1"/></clipPath><clipPath id="h"><path d="M334.645,219.1s-6.457,72.277-32.91,144.578S157.18,533.409,157.18,533.409l22.575,58.063s84.54-63.87,124.558-158.1,41.318-212.326,41.318-212.326Z" transform="translate(-157.18 -219.1)" fill="#fff" stroke="#263238" stroke-linecap="round" stroke-linejoin="round" stroke-width="1"/></clipPath><clipPath id="i"><path d="M243.14,174.709s0-12.054,2.787-14.376,16.258-8.826,19.022-7.432.465,3.252-1.393,4.645-10.568,7.177-10.568,7.177l1.3,13.238Z" transform="translate(-243.14 -152.707)" fill="#fff" stroke="#263238" stroke-linecap="round" stroke-linejoin="round" stroke-width="1"/></clipPath><clipPath id="j"><path d="M252.15,179.372s6.968,0,8.338-1.835,9.755-11.613,10.219-13.471,0-3.716-5.11-1.858a10.869,10.869,0,0,0-6.5,6.5l-6.48.464Z" transform="translate(-252.15 -161.439)" fill="#fff" stroke="#263238" stroke-linecap="round" stroke-linejoin="round" stroke-width="1"/></clipPath><clipPath id="k"><path d="M238.94,206.262s5.11-26.454,6.039-33.4,0-10.219,3.716-10.684a120.248,120.248,0,0,1,18.58,1.394c3.252.465,6.5.465,5.574,5.574s1.858,16.258-1.394,19.486a13.145,13.145,0,0,1-8.361,3.252s1.858,4.645-3.693,7.432a46.1,46.1,0,0,1-7.432,3.252l-2.787,7.409Z" transform="translate(-238.94 -162.18)" fill="#fff" stroke="#263238" stroke-linecap="round" stroke-linejoin="round" stroke-width="1"/></clipPath><clipPath id="l"><path d="M282.789,236.311a77,77,0,0,1-14.864-12.519c-6.015-6.968-9.731-6.968-18.093-7.432s-17.163-7.873-19.486-7.409-2.787,4.645-.464,6.968,13.935,8.361,13.935,8.361l-25.037,9.755a11.8,11.8,0,0,0,4.645,3.228c3.252,1.394,6.5,0,7.9,1.394s9.755,4.181,14.841,6.039,21.809-.929,21.809-.929l11.148,7.432Z" transform="translate(-218.78 -208.931)" fill="#fff" stroke="#263238" stroke-linecap="round" stroke-linejoin="round" stroke-width="1"/></clipPath></defs><g transform="translate(-959.5 -4367.801)"><g transform="translate(50 65.583)"><g transform="translate(960 4302.218)"><g transform="translate(46.45)"><path d="M314.883,434.49,311,440.3l5.806,3.879-3.855,6.457,5.156,4.506-9.685,6.457,5.156,3.228-1.277,4.529,5.156,2.578-5.156,7.734H154.187l-3.228-7.734,3.879-4.529-5.806-3.228,9.035-2.578-5.806-3.879,6.433-2.578-8.384-3.228,21.3-6.457L147.73,441.6l7.734-58.737,156.957,26.988Z" transform="translate(-142.388 241.755)" fill="#fff" stroke="#263238" stroke-linecap="round" stroke-miterlimit="10" stroke-width="1"/><path d="M301.386,408.57s-74.321,7.99-119.843,2.323l23.225,5.6-43.153,2.322,40.737,6.387-43.13,3.995,34.35,7.2-40.784,3.368H300.573l-33.491-8.036,19.974-3.182-18.395-3.205,33.561-3.182-34.35-1.6,31.958-3.205-34.35-1.6S283.015,412.565,301.386,408.57Z" transform="translate(-135.696 275.757)" opacity="0.25"/><path d="M145.43,441.91s95.688,4.25,172.495-6.712l-2.462-37.416L154,382.36Z" transform="translate(-145.43 241.093)" fill="#fff"/><g transform="translate(0 623.453)" clip-path="url(#a)"><path d="M145.43,441.91s95.688,4.25,172.495-6.712l-2.462-37.416L154,382.36Z" transform="translate(-145.43 -382.36)" opacity="0.1"/></g><path d="M145.43,441.91s95.688,4.25,172.495-6.712l-2.462-37.416L154,382.36Z" transform="translate(-145.43 241.093)" fill="none" stroke="#263238" stroke-linecap="round" stroke-miterlimit="10" stroke-width="1"/><line x1="2.88" y2="30.495" transform="translate(35.001 633.812)" fill="none" stroke="#263238" stroke-linecap="round" stroke-linejoin="round" stroke-width="1"/><line x1="0.952" y2="31.47" transform="translate(60.758 635.716)" fill="none" stroke="#263238" stroke-linecap="round" stroke-linejoin="round" stroke-width="1"/><line x1="0.952" y2="30.518" transform="translate(84.587 638.573)" fill="none" stroke="#263238" stroke-linecap="round" stroke-linejoin="round" stroke-width="1"/><line y2="24.805" transform="translate(107.487 645.239)" fill="none" stroke="#263238" stroke-linecap="round" stroke-linejoin="round" stroke-width="1"/><line x2="0.952" y2="19.068" transform="translate(133.221 650.975)" fill="none" stroke="#263238" stroke-linecap="round" stroke-linejoin="round" stroke-width="1"/><line x2="0.952" y2="15.259" transform="translate(156.121 654.784)" fill="none" stroke="#263238" stroke-linecap="round" stroke-linejoin="round" stroke-width="1"/><path d="M318.6,400.725S191.274,456.93,145.45,472.189l8.57-59.619,128.436-53.14Z" transform="translate(-145.404 210.768)" fill="#fff"/><g transform="translate(0.046 570.198)" clip-path="url(#b)"><path d="M184.19,445.224c50.469-16.374,104.839-44.5,104.839-44.5L252.891,359.43,167.77,389.368Z" transform="translate(-115.931 -359.43)" opacity="0.1"/></g><path d="M318.6,400.725S191.274,456.93,145.45,472.189l8.57-59.619,128.436-53.14Z" transform="translate(-145.404 210.768)" fill="none" stroke="#263238" stroke-linecap="round" stroke-linejoin="round" stroke-width="1"/><path d="M179.755,412.864l123.28-5.156L278.509,354.15l-121.329.65Z" transform="translate(-129.89 203.785)" fill="#fff"/><g transform="translate(27.29 557.935)" clip-path="url(#c)"><path d="M179.755,412.864l123.28-5.156L278.509,354.15l-121.329.65Z" transform="translate(-157.18 -354.15)" opacity="0.1"/></g><path d="M179.755,412.864l123.28-5.156L278.509,354.15l-121.329.65Z" transform="translate(-129.89 203.785)" fill="none" stroke="#263238" stroke-linecap="round" stroke-linejoin="round" stroke-width="1"/><line x2="11.45" y2="38.136" transform="translate(59.805 567.062)" fill="none" stroke="#263238" stroke-linecap="round" stroke-linejoin="round" stroke-width="1"/><line x2="11.45" y2="40.064" transform="translate(81.73 565.135)" fill="none" stroke="#263238" stroke-linecap="round" stroke-linejoin="round" stroke-width="1"/><line x2="10.475" y2="38.159" transform="translate(103.678 564.182)" fill="none" stroke="#263238" stroke-linecap="round" stroke-linejoin="round" stroke-width="1"/><line x2="11.45" y2="37.207" transform="translate(126.555 564.182)" fill="none" stroke="#263238" stroke-linecap="round" stroke-linejoin="round" stroke-width="1"/><path d="M248.057,297.614l36.928,128.668-14.771,4.877L202.86,285.118S228.408,276.781,248.057,297.614Z" transform="translate(-69.477 110.308)" fill="#263238" stroke="#263238" stroke-linecap="round" stroke-linejoin="round" stroke-width="1"/><path d="M266.014,345s9.546,16.072,9.546,21.437-17.28,4.761-25.014,5.946-24.526,12.426-31.494,9.453c0,0-4.157-2.323,0-7.153s23.481-14.075,32.283-24.9Z" transform="translate(-50.506 191.683)" fill="#fff" stroke="#263238" stroke-linecap="round" stroke-linejoin="round" stroke-width="1"/><path d="M367.087,181.129c0,2.323-2.694,4.506-2.926,6.8s1.951,4.993,1.463,7.246-3.554,3.855-4.273,6.039.859,5.3,0,7.409-4.3,3.019-5.435,5.017-.279,5.342-1.626,7.223-4.831,2.044-6.387,3.762-1.37,5.179-3.089,6.735-5.133,1-6.968,2.323-2.323,4.784-4.413,5.946-5.226,0-7.339.859-3.344,4.181-5.551,4.9-5.11-1.184-7.386-.72-4.134,3.391-6.457,3.646S302.056,246,299.734,246s-4.784,2.462-6.968,2.323-4.227-3.159-6.457-3.646-5.2,1.417-7.386.7-3.437-3.948-5.551-4.877-5.365.279-7.362-.859-2.532-4.645-4.413-5.946-5.3-.836-6.968-2.323-1.533-5.017-3.066-6.735-5.017-1.9-6.387-3.762-.465-5.226-1.626-7.223-4.506-2.9-5.435-5.017.627-5.2,0-7.409-3.809-3.763-4.274-6.039,1.7-4.924,1.463-7.246-2.926-4.459-2.926-6.8,2.694-4.645,2.926-6.8-1.951-5.017-1.463-7.27,3.554-3.832,4.274-6.039-.859-5.3,0-7.386,4.3-3.019,5.435-5.017.279-5.365,1.626-7.223,4.831-2.044,6.387-3.763,1.37-5.179,3.089-6.735,5.133-1,6.968-2.323,2.323-4.784,4.413-5.946,5.226,0,7.339-.859,3.344-4.181,5.551-4.9,5.11,1.184,7.386.7,4.134-3.391,6.457-3.623,4.645,2.323,6.968,2.323,4.784-2.462,6.968-2.323,4.227,3.159,6.457,3.623,5.2-1.394,7.386-.7,3.437,3.972,5.551,4.9,5.365-.3,7.363.859,2.532,4.645,4.413,5.946,5.3.813,6.968,2.323,1.533,5.017,3.066,6.735,5.017,1.881,6.387,3.763.465,5.226,1.626,7.223,4.506,2.88,5.435,5.017-.627,5.179,0,7.409,3.809,3.739,4.273,6.039-1.7,4.924-1.463,7.246S367.087,178.784,367.087,181.129Z" transform="translate(-30.435 -113.924)" fill="#263238"/><path d="M261.987,189.048s-23.225,51.514-34.838,79.361-2.857,51.653,4.645,54.3c7.873,2.787,64.868-17.489,78.409-22.738,12.867-4.993,13.006-4.645,13.006-4.645s.929,43.153.929,48.262-9.29,23.667-8.361,29.241,13.471,16.258,50.585,19.951,58.481-5.11,62.174-10.219,3.716-11.613,3.716-21.809-5.11-68.213-12.518-113.8-26.918-65.031-36.208-70.071-25.06,1.858-40.83,12.519-24.6,31.563-26.918,37.161-46.869,42.688-50.12,45.94,6.5-79.826,6.5-79.826Z" transform="translate(-44.806 -32.889)" fill="#fff" stroke="#263238" stroke-linecap="round" stroke-linejoin="round" stroke-width="1"/><line x2="12.774" y2="4.482" transform="translate(213.325 164.869)" fill="none" stroke="#263238" stroke-linecap="round" stroke-linejoin="round" stroke-width="1"/><path d="M242.656,217.13A159.05,159.05,0,0,1,238.94,239.4" transform="translate(-21.76 22.571)" fill="#fff" stroke="#263238" stroke-linecap="round" stroke-linejoin="round" stroke-width="1"/><line x1="5.574" y1="38.531" transform="translate(272.875 223.907)" fill="none" stroke="#263238" stroke-linecap="round" stroke-linejoin="round" stroke-width="1"/><path d="M275.8,183.708s-13.447,32.515-10.66,32.515S273.962,206,273.962,206l7.873,15.793s1.394-37.161.465-38.531S277.655,178.691,275.8,183.708Z" transform="translate(12.383 -25.226)" fill="#fff" stroke="#263238" stroke-linecap="round" stroke-linejoin="round" stroke-width="1"/><path d="M263.52,185.846S277.9,205.8,279.29,211.394s2.787,32.515,4.181,27.87,28.312-51.978,28.776-54.3-7.9-17.164-7.9-17.164-18.58,13.447-27.36,15.77a59.524,59.524,0,0,1-13.471,2.276Z" transform="translate(10.748 -42.67)" fill="#fff"/><g transform="translate(274.268 125.13)" clip-path="url(#d)"><path d="M263.52,185.846S277.9,205.8,279.29,211.394s2.787,32.515,4.181,27.87,28.312-51.978,28.776-54.3-7.9-17.164-7.9-17.164-18.58,13.447-27.36,15.77a59.524,59.524,0,0,1-13.471,2.276Z" transform="translate(-263.52 -167.8)" opacity="0.1"/></g><path d="M263.52,185.846S277.9,205.8,279.29,211.394s2.787,32.515,4.181,27.87,28.312-51.978,28.776-54.3-7.9-17.164-7.9-17.164-18.58,13.447-27.36,15.77a59.524,59.524,0,0,1-13.471,2.276Z" transform="translate(10.748 -42.67)" fill="none" stroke="#263238" stroke-linecap="round" stroke-linejoin="round" stroke-width="1"/><path d="M274.432,189.35l-2.323,21.367,11.148-14.864Z" transform="translate(22.109 -14.169)" fill="#fff" stroke="#263238" stroke-linecap="round" stroke-linejoin="round" stroke-width="1"/><path d="M273.11,213.923l9.29,13.471,32.492-45.94L302.351,170.77Z" transform="translate(23.431 -38.742)" fill="#fff" stroke="#263238" stroke-linecap="round" stroke-linejoin="round" stroke-width="1"/><path d="M278.08,159.224s2.323-12.054,7.409-11.125,4.645,10.2,1.858,16.7a62.337,62.337,0,0,1-3.716,7.873Z" transform="translate(30.005 -68.793)" fill="#fff"/><g transform="translate(308.084 79.255)" clip-path="url(#e)"><path d="M278.08,159.224s2.323-12.054,7.409-11.125,4.645,10.2,1.858,16.7a62.337,62.337,0,0,1-3.716,7.873Z" transform="translate(-278.08 -148.048)" opacity="0.1"/></g><path d="M278.08,159.224s2.323-12.054,7.409-11.125,4.645,10.2,1.858,16.7a62.337,62.337,0,0,1-3.716,7.873Z" transform="translate(30.005 -68.793)" fill="none" stroke="#263238" stroke-linecap="round" stroke-linejoin="round" stroke-width="1"/><path d="M256.562,162.023s-7.409-6.968-8.8,2.787,14.376,11.613,14.376,11.613Z" transform="translate(-10.211 -53.499)" fill="#fff"/><g transform="translate(237.462 106.113)" clip-path="url(#f)"><path d="M256.562,162.023s-7.409-6.968-8.8,2.787,14.376,11.613,14.376,11.613Z" transform="translate(-247.672 -159.612)" opacity="0.1"/></g><path d="M256.562,162.023s-7.409-6.968-8.8,2.787,14.376,11.613,14.376,11.613Z" transform="translate(-10.211 -53.499)" fill="none" stroke="#263238" stroke-linecap="round" stroke-linejoin="round" stroke-width="1"/><path d="M247.983,167.309s20.415,56.159,27.87,64.52,27.359,12.983,43.617.464,11.125-26.454,7.409-37.6-19.022-49.656-21.344-54.742-13.448-7.9-19.022-3.716-3.252,9.29-12.518,11.613-20.415-1.394-25.548,5.574A12.5,12.5,0,0,0,247.983,167.309Z" transform="translate(-12.292 -87.097)" fill="#fff"/><g transform="translate(233.807 47.111)" clip-path="url(#g)"><path d="M247.983,167.309s20.415,56.159,27.87,64.52,27.359,12.983,43.617.464,11.125-26.454,7.409-37.6-19.022-49.656-21.344-54.742-13.448-7.9-19.022-3.716-3.252,9.29-12.518,11.613-20.415-1.394-25.548,5.574A12.5,12.5,0,0,0,247.983,167.309Z" transform="translate(-246.099 -134.208)" opacity="0.1"/></g><path d="M247.983,167.309s20.415,56.159,27.87,64.52,27.359,12.983,43.617.464,11.125-26.454,7.409-37.6-19.022-49.656-21.344-54.742-13.448-7.9-19.022-3.716-3.252,9.29-12.518,11.613-20.415-1.394-25.548,5.574A12.5,12.5,0,0,0,247.983,167.309Z" transform="translate(-12.292 -87.097)" fill="none" stroke="#263238" stroke-linecap="round" stroke-linejoin="round" stroke-width="1"/><path d="M3.484,0H27.057a3.507,3.507,0,0,1,3.507,3.507v6.968a7.246,7.246,0,0,1-7.246,7.246H7.246A7.246,7.246,0,0,1,0,10.475V3.507A3.507,3.507,0,0,1,3.507,0Z" transform="translate(240.78 98.573) rotate(-20.16)" fill="#fff" stroke="#263238" stroke-linecap="round" stroke-linejoin="round" stroke-width="1"/><path d="M3.484,0H27.058a3.507,3.507,0,0,1,3.507,3.507v6.968a7.246,7.246,0,0,1-7.246,7.246H7.246A7.246,7.246,0,0,1,0,10.475V3.507A3.507,3.507,0,0,1,3.507,0Z" transform="translate(276.734 85.389) rotate(-20.16)" fill="#fff" stroke="#263238" stroke-linecap="round" stroke-linejoin="round" stroke-width="1"/><line y1="15.979" x2="6.457" transform="translate(252.367 97.236)" fill="none" stroke="#263238" stroke-linecap="round" stroke-linejoin="round" stroke-width="0.5"/><line x1="4.947" y2="12.542" transform="translate(258.823 92.313)" fill="none" stroke="#263238" stroke-linecap="round" stroke-linejoin="round" stroke-width="0.5"/><line y1="15.956" x2="6.48" transform="translate(288.854 83.185)" fill="none" stroke="#263238" stroke-linecap="round" stroke-linejoin="round" stroke-width="0.5"/><line x1="4.924" y2="12.542" transform="translate(295.334 78.238)" fill="none" stroke="#263238" stroke-linecap="round" stroke-linejoin="round" stroke-width="0.5"/><line y1="5.365" x2="14.609" transform="translate(265.814 84.021)" fill="none" stroke="#263238" stroke-linecap="round" stroke-linejoin="round" stroke-width="1"/><path d="M262,154.944a15.144,15.144,0,0,1,7.316-2.694" transform="translate(8.738 -63.235)" fill="none" stroke="#263238" stroke-linecap="round" stroke-linejoin="round" stroke-width="1"/><path d="M265.48,152.348a18,18,0,0,1,18.092-7.316" transform="translate(13.341 -73.205)" fill="none" stroke="#263238" stroke-linecap="round" stroke-linejoin="round" stroke-width="1"/><path d="M270.763,152.648a14.33,14.33,0,0,0-19.393.859" transform="translate(-5.32 -67.164)" fill="none" stroke="#263238" stroke-linecap="round" stroke-linejoin="round" stroke-width="1"/><path d="M263,165.363s1.161,4.645,2.183,5.04c3.553,1.486,15.12-1.44,14.911-6.642a16.26,16.26,0,0,0-1.7-4.831" transform="translate(10.061 -54.401)" fill="none" stroke="#263238" stroke-linecap="round" stroke-linejoin="round" stroke-width="1"/><path d="M265.64,171.955a18.069,18.069,0,0,0,14.632-6.015" transform="translate(13.552 -45.13)" fill="none" stroke="#263238" stroke-linecap="round" stroke-linejoin="round" stroke-width="1"/><path d="M334.645,219.1s-6.457,72.277-32.91,144.578S157.18,533.409,157.18,533.409l22.575,58.063s84.54-63.87,124.558-158.1,41.318-212.326,41.318-212.326Z" transform="translate(-129.89 25.176)" fill="#fff"/><g transform="translate(27.29 244.276)" clip-path="url(#h)"><path d="M217.42,374.71l17.6,31.424c29.914-88.256,30.983-185.083,30.983-185.083L255.022,219.1s-6.457,72.277-32.91,144.578C220.741,367.3,219.162,370.994,217.42,374.71Z" transform="translate(-77.51 -219.1)" opacity="0.1"/></g><path d="M334.645,219.1s-6.457,72.277-32.91,144.578S157.18,533.409,157.18,533.409l22.575,58.063s84.54-63.87,124.558-158.1,41.318-212.326,41.318-212.326Z" transform="translate(-129.89 25.176)" fill="none" stroke="#263238" stroke-linecap="round" stroke-linejoin="round" stroke-width="1"/><path d="M191.759,275.306s-10.126,9.638-5.3,22.2,87.815,151.522,87.815,151.522l19.3-4.343s-38.6-126.439-45.847-141.884S234.7,277.721,229.9,274.33" transform="translate(-92.889 98.22)" fill="#263238" stroke="#263238" stroke-linecap="round" stroke-linejoin="round" stroke-width="1"/><path d="M247.461,352.843s-24.6,16.885-35.233,21.228-7.223,9.662,0,9.662,34.838-3.391,46.451-4.831,17.86-.488,18.348-6.759-10.149-25.083-10.149-25.083Z" transform="translate(-66.024 194.408)" fill="#fff" stroke="#263238" stroke-linecap="round" stroke-linejoin="round" stroke-width="1"/><path d="M243.14,174.709s0-12.054,2.787-14.376,16.258-8.826,19.022-7.432.465,3.252-1.393,4.645-10.568,7.177-10.568,7.177l1.3,13.238Z" transform="translate(-16.205 -62.632)" fill="#fff"/><g transform="translate(226.935 90.075)" clip-path="url(#i)"><path d="M243.14,174.709s0-12.054,2.787-14.376,16.258-8.826,19.022-7.432.465,3.252-1.393,4.645-10.568,7.177-10.568,7.177l1.3,13.238Z" transform="translate(-243.14 -152.707)" opacity="0.1"/></g><path d="M243.14,174.709s0-12.054,2.787-14.376,16.258-8.826,19.022-7.432.465,3.252-1.393,4.645-10.568,7.177-10.568,7.177l1.3,13.238Z" transform="translate(-16.205 -62.632)" fill="none" stroke="#263238" stroke-linecap="round" stroke-linejoin="round" stroke-width="1"/><path d="M252.15,179.372s6.968,0,8.338-1.835,9.755-11.613,10.219-13.471,0-3.716-5.11-1.858a10.869,10.869,0,0,0-6.5,6.5l-6.48.464Z" transform="translate(-4.289 -51.083)" fill="#fff"/><g transform="translate(247.861 110.355)" clip-path="url(#j)"><path d="M252.15,179.372s6.968,0,8.338-1.835,9.755-11.613,10.219-13.471,0-3.716-5.11-1.858a10.869,10.869,0,0,0-6.5,6.5l-6.48.464Z" transform="translate(-252.15 -161.439)" opacity="0.1"/></g><path d="M252.15,179.372s6.968,0,8.338-1.835,9.755-11.613,10.219-13.471,0-3.716-5.11-1.858a10.869,10.869,0,0,0-6.5,6.5l-6.48.464Z" transform="translate(-4.289 -51.083)" fill="none" stroke="#263238" stroke-linecap="round" stroke-linejoin="round" stroke-width="1"/><path d="M238.94,206.262s5.11-26.454,6.039-33.4,0-10.219,3.716-10.684a120.248,120.248,0,0,1,18.58,1.394c3.252.465,6.5.465,5.574,5.574s1.858,16.258-1.394,19.486a13.145,13.145,0,0,1-8.361,3.252s1.858,4.645-3.693,7.432a46.1,46.1,0,0,1-7.432,3.252l-2.787,7.409Z" transform="translate(-21.76 -50.103)" fill="#fff"/><g transform="translate(217.18 112.077)" clip-path="url(#k)"><path d="M238.94,206.262s5.11-26.454,6.039-33.4,0-10.219,3.716-10.684a120.248,120.248,0,0,1,18.58,1.394c3.252.465,6.5.465,5.574,5.574s1.858,16.258-1.394,19.486a13.145,13.145,0,0,1-8.361,3.252s1.858,4.645-3.693,7.432a46.1,46.1,0,0,1-7.432,3.252l-2.787,7.409Z" transform="translate(-238.94 -162.18)" opacity="0.1"/></g><path d="M238.94,206.262s5.11-26.454,6.039-33.4,0-10.219,3.716-10.684a120.248,120.248,0,0,1,18.58,1.394c3.252.465,6.5.465,5.574,5.574s1.858,16.258-1.394,19.486a13.145,13.145,0,0,1-8.361,3.252s1.858,4.645-3.693,7.432a46.1,46.1,0,0,1-7.432,3.252l-2.787,7.409Z" transform="translate(-21.76 -50.103)" fill="none" stroke="#263238" stroke-linecap="round" stroke-linejoin="round" stroke-width="1"/><path d="M253.308,180.525l-.929-8.826-6.039-.929" transform="translate(-11.973 -38.742)" fill="none" stroke="#263238" stroke-linecap="round" stroke-linejoin="round" stroke-width="1"/><path d="M246.56,167.12s12.333.627,13.935,1.579,1.9,10.4,1.9,10.4" transform="translate(-11.682 -43.569)" fill="none" stroke="#263238" stroke-linecap="round" stroke-linejoin="round" stroke-width="1"/><line x2="16.49" y2="1.486" transform="translate(234.576 117.558)" fill="none" stroke="#263238" stroke-linecap="round" stroke-linejoin="round" stroke-width="1"/><path d="M414,278.138c-29.914-3-43.85-10.5-48.611-16.258l-4.2,5.249.488,3.855s-57.436-8.686-102.308-3.368-72,18.813-73.833,35.233l23.225,10.614c34.257,20.276,110.506,24.619,137.03,26.546s77.224,0,96.525-2.9,27.987-11.1,29.914-27.034c1.6-13.146,1.881-33.514,1.928-40.226C467.161,274.956,446.746,281.413,414,278.138Z" transform="translate(-92.396 81.754)" fill="#263238" stroke="#263238" stroke-linecap="round" stroke-linejoin="round" stroke-width="1"/><line x2="29.914" y2="26.547" transform="translate(271.203 355.177)" fill="none" stroke="#fff" stroke-linecap="round" stroke-linejoin="round" stroke-width="1"/><line x2="21.716" y2="8.199" transform="translate(276.033 356.64)" fill="none" stroke="#fff" stroke-linecap="round" stroke-linejoin="round" stroke-width="1"/><path d="M272.412,253.736s-37.161,12.054-48.773,27.87L178.21,200.944a221.665,221.665,0,0,1,68.677-6.5c35.721,2.787,59.387,27.87,69.142,44.128Z" transform="translate(-102.077 -7.996)" fill="#fff" stroke="#263238" stroke-linecap="round" stroke-linejoin="round" stroke-width="1"/><line x2="22.877" y2="41.945" transform="translate(111.296 200.891)" fill="none" stroke="#263238" stroke-linecap="round" stroke-linejoin="round" stroke-width="1"/><line x2="20.02" y2="38.136" transform="translate(133.221 197.082)" fill="none" stroke="#263238" stroke-linecap="round" stroke-linejoin="round" stroke-width="1"/><line x2="17.164" y2="33.375" transform="translate(155.169 196.13)" fill="none" stroke="#263238" stroke-linecap="round" stroke-linejoin="round" stroke-width="1"/><path d="M338.942,196.395s-5.11,12.983-4.181,20.9,3.716,59.875,3.716,59.875-42.224-2.787-58.946-8.826-31.076-13.006-31.076-13.006L244.74,270.2s29.705,26.454,54.765,36.65,73.3,19.951,78.966,17.628,10.684-53.813,10.219-73.764.464-41.318-8.826-56.159" transform="translate(-14.089 -7.279)" fill="#fff" stroke="#263238" stroke-linecap="round" stroke-linejoin="round" stroke-width="1"/><line x1="3.832" y2="17.884" transform="translate(240.777 252.986)" fill="none" stroke="#263238" stroke-linecap="round" stroke-linejoin="round" stroke-width="1"/><path d="M285.1,230.12s11.125,13.447,17.164,17.164" transform="translate(39.289 39.75)" fill="#fff" stroke="#263238" stroke-linecap="round" stroke-linejoin="round" stroke-width="1"/><path d="M282.789,236.311a77,77,0,0,1-14.864-12.519c-6.015-6.968-9.731-6.968-18.093-7.432s-17.163-7.873-19.486-7.409-2.787,4.645-.464,6.968,13.935,8.361,13.935,8.361l-25.037,9.755a11.8,11.8,0,0,0,4.645,3.228c3.252,1.394,6.5,0,7.9,1.394s9.755,4.181,14.841,6.039,21.809-.929,21.809-.929l11.148,7.432Z" transform="translate(-48.422 11.727)" fill="#fff"/><g transform="translate(170.358 220.658)" clip-path="url(#l)"><path d="M282.789,236.311a77,77,0,0,1-14.864-12.519c-6.015-6.968-9.731-6.968-18.093-7.432s-17.163-7.873-19.486-7.409-2.787,4.645-.464,6.968,13.935,8.361,13.935,8.361l-25.037,9.755a11.8,11.8,0,0,0,4.645,3.228c3.252,1.394,6.5,0,7.9,1.394s9.755,4.181,14.841,6.039,21.809-.929,21.809-.929l11.148,7.432Z" transform="translate(-218.78 -208.931)" opacity="0.1"/></g><path d="M282.789,236.311a77,77,0,0,1-14.864-12.519c-6.015-6.968-9.731-6.968-18.093-7.432s-17.163-7.873-19.486-7.409-2.787,4.645-.464,6.968,13.935,8.361,13.935,8.361l-25.037,9.755a11.8,11.8,0,0,0,4.645,3.228c3.252,1.394,6.5,0,7.9,1.394s9.755,4.181,14.841,6.039,21.809-.929,21.809-.929l11.148,7.432Z" transform="translate(-48.422 11.727)" fill="none" stroke="#263238" stroke-linecap="round" stroke-linejoin="round" stroke-width="1"/></g><g transform="translate(241.783 420.975)"><path d="M236.37,298a75.807,75.807,0,0,1,0,60.665H450.624s26.43-6.55,26.43-30.472c0,0-4.529-21.3-25.827-29.682Z" transform="translate(-220.491 -291.45)" fill="#fff" stroke="#263238" stroke-linecap="round" stroke-linejoin="round" stroke-width="1"/><path d="M460.069,303.063c-9.29-5.063-17.86-4.529-28.614-4.645H411.2l-52.745-.163L255.942,298c-1.672,0-18.3,1.37-19.022,0a61.106,61.106,0,0,1,4.2,12.426H455.076v46.311a32.306,32.306,0,0,0,21.251-28.544c.883-10.521-5.737-18.743-14.237-24.015C461.463,303.806,460.813,303.411,460.069,303.063Z" transform="translate(-219.764 -291.45)" opacity="0.25"/><line y2="47.682" transform="translate(235.358 13.355)" fill="none" stroke="#263238" stroke-linecap="round" stroke-linejoin="round" stroke-width="1"/><line x2="32.887" transform="translate(21.708 21.298)" fill="none" stroke="#263238" stroke-linecap="round" stroke-linejoin="round" stroke-width="1"/><line x2="36.789" transform="translate(32.02 25.827)" fill="none" stroke="#263238" stroke-linecap="round" stroke-linejoin="round" stroke-width="1"/><line x2="61.315" transform="translate(21.685 47.775)" fill="none" stroke="#263238" stroke-linecap="round" stroke-linejoin="round" stroke-width="1"/><line x1="27.754" transform="translate(206.907 23.876)" fill="none" stroke="#263238" stroke-linecap="round" stroke-linejoin="round" stroke-width="1"/><line x1="60.665" transform="translate(172.696 31.633)" fill="none" stroke="#263238" stroke-linecap="round" stroke-linejoin="round" stroke-width="1"/><line x1="20.647" transform="translate(145.592 31.633)" fill="none" stroke="#263238" stroke-linecap="round" stroke-linejoin="round" stroke-width="1"/><line x2="38.09" transform="translate(196.572 44.546)" fill="none" stroke="#263238" stroke-linecap="round" stroke-linejoin="round" stroke-width="1"/><line x2="24.526" transform="translate(20.408 56.159)" fill="none" stroke="#263238" stroke-linecap="round" stroke-linejoin="round" stroke-width="1"/><path d="M451.607,370.686H236.377a6.457,6.457,0,1,1,0-12.89H451.607c14.771,0,26.779-11.148,26.779-24.851s-12.008-24.851-26.779-24.851H238.3a6.457,6.457,0,1,1,0-12.913h213.3c21.878,0,39.692,16.954,39.692,37.764S473.485,370.686,451.607,370.686Z" transform="translate(-229.533 -295.18)" fill="#263238"/><path d="M472.638,330.2a75.784,75.784,0,0,0,0,60.665H258.384s-26.454-6.457-26.454-30.332c0,0,4.506-21.3,25.8-29.705Z" transform="translate(-226.363 -248.865)" fill="#fff" stroke="#263238" stroke-linecap="round" stroke-linejoin="round" stroke-width="1"/><path d="M248.189,335.32c9.29-5.063,17.884-4.645,28.614-4.645h20.252l52.745-.163,102.586-.3c1.672,0,18.3,1.37,19.045,0a59.48,59.48,0,0,0-4.227,12.426H253.252v46.288a32.237,32.237,0,0,1-21.274-28.381c-.906-10.521,5.713-18.766,14.237-24.038C246.865,336.063,247.538,335.691,248.189,335.32Z" transform="translate(-226.411 -248.852)" opacity="0.25"/><line y2="41.899" transform="translate(26.214 91.554)" fill="none" stroke="#263238" stroke-linecap="round" stroke-linejoin="round" stroke-width="1"/><line x1="32.91" transform="translate(207.558 96.176)" fill="none" stroke="#263238" stroke-linecap="round" stroke-linejoin="round" stroke-width="1"/><line x1="36.766" transform="translate(193.367 100.682)" fill="none" stroke="#263238" stroke-linecap="round" stroke-linejoin="round" stroke-width="1"/><line x1="61.315" transform="translate(179.153 122.63)" fill="none" stroke="#263238" stroke-linecap="round" stroke-linejoin="round" stroke-width="1"/><line x2="27.754" transform="translate(27.491 98.754)" fill="none" stroke="#263238" stroke-linecap="round" stroke-linejoin="round" stroke-width="1"/><line x2="60.665" transform="translate(28.792 106.488)" fill="none" stroke="#263238" stroke-linecap="round" stroke-linejoin="round" stroke-width="1"/><line x2="20.647" transform="translate(95.913 106.488)" fill="none" stroke="#263238" stroke-linecap="round" stroke-linejoin="round" stroke-width="1"/><line x1="38.09" transform="translate(27.491 119.402)" fill="none" stroke="#263238" stroke-linecap="round" stroke-linejoin="round" stroke-width="1"/><line x1="24.526" transform="translate(217.243 131.014)" fill="none" stroke="#263238" stroke-linecap="round" stroke-linejoin="round" stroke-width="1"/><path d="M269.392,402.932H484.622a6.457,6.457,0,1,0,0-12.913H269.392c-14.771,0-26.779-11.148-26.779-24.851s12.008-24.851,26.779-24.851h213.3a6.457,6.457,0,1,0,0-12.89h-213.3c-21.878,0-39.692,16.931-39.692,37.741S247.514,402.932,269.392,402.932Z" transform="translate(-229.313 -252.548)" fill="#7300cc" stroke="#263238" stroke-linecap="round" stroke-linejoin="round" stroke-width="1"/><path d="M236.37,362.58a75.807,75.807,0,0,1,0,60.665H450.624s26.477-6.457,26.477-30.332c0,0-4.529-21.3-25.827-29.705Z" transform="translate(-220.491 -206.041)" fill="#fff" stroke="#263238" stroke-linecap="round" stroke-linejoin="round" stroke-width="1"/><path d="M460.109,367.7c-9.29-5.063-17.86-4.645-28.614-4.645H411.243l-52.745-.139-102.586-.325c-1.672,0-18.3,1.394-19.022,0a60.379,60.379,0,0,1,4.2,12.426H455.046V421.3a32.283,32.283,0,0,0,21.321-28.4c.883-10.521-5.737-18.743-14.237-24.038C461.5,368.443,460.852,368.187,460.109,367.7Z" transform="translate(-219.804 -206.028)" opacity="0.25"/><line y2="47.705" transform="translate(235.358 163.414)" fill="none" stroke="#263238" stroke-linecap="round" stroke-linejoin="round" stroke-width="1"/><line x2="32.887" transform="translate(21.708 171.38)" fill="none" stroke="#263238" stroke-linecap="round" stroke-linejoin="round" stroke-width="1"/><line x2="36.789" transform="translate(32.02 175.886)" fill="none" stroke="#263238" stroke-linecap="round" stroke-linejoin="round" stroke-width="1"/><line x2="61.315" transform="translate(21.685 197.834)" fill="none" stroke="#263238" stroke-linecap="round" stroke-linejoin="round" stroke-width="1"/><line x1="27.754" transform="translate(206.907 173.958)" fill="none" stroke="#263238" stroke-linecap="round" stroke-linejoin="round" stroke-width="1"/><line x1="60.665" transform="translate(172.696 181.692)" fill="none" stroke="#263238" stroke-linecap="round" stroke-linejoin="round" stroke-width="1"/><line x1="20.647" transform="translate(145.592 181.692)" fill="none" stroke="#263238" stroke-linecap="round" stroke-linejoin="round" stroke-width="1"/><line x2="38.09" transform="translate(196.572 194.605)" fill="none" stroke="#263238" stroke-linecap="round" stroke-linejoin="round" stroke-width="1"/><line x2="24.526" transform="translate(20.408 206.218)" fill="none" stroke="#263238" stroke-linecap="round" stroke-linejoin="round" stroke-width="1"/><path d="M451.386,435.306H236.157a6.457,6.457,0,1,1,0-12.913H451.386c14.771,0,26.779-11.148,26.779-24.851s-12.007-24.828-26.779-24.828h-213.3a6.457,6.457,0,1,1,0-12.913h213.3c21.878,0,39.692,16.931,39.692,37.741S473.264,435.306,451.386,435.306Z" transform="translate(-229.313 -209.718)" fill="#263238"/><path d="M472.638,394.81a75.808,75.808,0,0,0,0,60.665H258.384s-26.454-6.457-26.454-30.332c0,0,4.506-21.3,25.8-29.682Z" transform="translate(-226.363 -163.416)" fill="#fff" stroke="#263238" stroke-linecap="round" stroke-linejoin="round" stroke-width="1"/><path d="M248.189,399.909c9.29-5.063,17.884-4.529,28.614-4.645h20.252L349.8,395.1l102.587-.3c1.672,0,18.3,1.37,19.045,0a60.14,60.14,0,0,0-4.227,12.426H253.252V453.56a32.26,32.26,0,0,1-21.275-28.4c-.906-10.521,5.714-18.743,14.237-24.038C246.865,400.7,247.538,400.328,248.189,399.909Z" transform="translate(-226.411 -163.429)" opacity="0.25"/><line y2="41.899" transform="translate(26.214 241.613)" fill="none" stroke="#263238" stroke-linecap="round" stroke-linejoin="round" stroke-width="1"/><line x1="32.91" transform="translate(207.558 246.235)" fill="none" stroke="#263238" stroke-linecap="round" stroke-linejoin="round" stroke-width="1"/><line x1="36.766" transform="translate(193.367 250.764)" fill="none" stroke="#263238" stroke-linecap="round" stroke-linejoin="round" stroke-width="1"/><line x1="61.315" transform="translate(179.153 272.689)" fill="none" stroke="#263238" stroke-linecap="round" stroke-linejoin="round" stroke-width="1"/><line x2="27.754" transform="translate(27.491 248.813)" fill="none" stroke="#263238" stroke-linecap="round" stroke-linejoin="round" stroke-width="1"/><line x2="60.665" transform="translate(28.792 256.571)" fill="none" stroke="#263238" stroke-linecap="round" stroke-linejoin="round" stroke-width="1"/><line x2="20.647" transform="translate(95.913 256.571)" fill="none" stroke="#263238" stroke-linecap="round" stroke-linejoin="round" stroke-width="1"/><line x1="38.09" transform="translate(27.491 269.461)" fill="none" stroke="#263238" stroke-linecap="round" stroke-linejoin="round" stroke-width="1"/><line x1="24.526" transform="translate(217.243 281.097)" fill="none" stroke="#263238" stroke-linecap="round" stroke-linejoin="round" stroke-width="1"/><path d="M269.392,467.536H484.622a6.457,6.457,0,0,0,0-12.913H269.392c-14.771,0-26.779-11.125-26.779-24.828s12.008-24.851,26.779-24.851h213.3a6.457,6.457,0,1,0,0-12.913h-213.3c-21.878,0-39.692,16.931-39.692,37.764S247.514,467.536,269.392,467.536Z" transform="translate(-229.313 -167.092)" fill="#7300cc" stroke="#263238" stroke-linecap="round" stroke-linejoin="round" stroke-width="1"/></g><g transform="translate(0 721.418)"><line x2="599.5" transform="translate(-49.5)" fill="none" stroke="#263238" stroke-linecap="round" stroke-linejoin="round" stroke-width="2"/></g></g></g><text transform="matrix(0.996, -0.087, 0.087, 0.996, 1109.216, 4452.034)" fill="#004798" font-size="21" font-family="IndieFlower, Indie Flower"><tspan x="-87.394" y="0">Simplifique a gestão</tspan><tspan x="-101.196" y="28">fiscal da sua empresa!</tspan></text></g></svg>