<svg xmlns="http://www.w3.org/2000/svg" width="249.165" height="307.446" viewBox="0 0 249.165 307.446">   <g id="Grupo_8459" data-name="Grupo 8459" transform="translate(-390.068 -731.237)">     <g id="freepik--Shelf--inject-37" transform="translate(421.563 731.237)">       <rect id="Retângulo_4873" data-name="Retângulo 4873" width="5.259" height="7.296" transform="translate(16.253 80.749)" fill="#fff" stroke="#263238" stroke-linecap="round" stroke-linejoin="round" stroke-width="1"></rect>       <rect id="Retângulo_4874" data-name="Retângulo 4874" width="2.373" height="5.431" transform="translate(17.775 75.318)" fill="#8f00fc " stroke="#263238" stroke-linecap="round" stroke-linejoin="round" stroke-width="1"></rect>       <rect id="Retângulo_4875" data-name="Retângulo 4875" width="5.259" height="7.296" transform="translate(8.621 80.749)" fill="#fff" stroke="#263238" stroke-linecap="round" stroke-linejoin="round" stroke-width="1"></rect>       <rect id="Retângulo_4876" data-name="Retângulo 4876" width="2.373" height="5.431" transform="translate(10.143 75.318)" fill="#8f00fc " stroke="#263238" stroke-linecap="round" stroke-linejoin="round" stroke-width="1"></rect>       <rect id="Retângulo_4877" data-name="Retângulo 4877" width="5.259" height="7.296" transform="translate(24.478 80.749)" fill="#263238" stroke="#263238" stroke-linecap="round" stroke-linejoin="round" stroke-width="1"></rect>       <rect id="Retângulo_4878" data-name="Retângulo 4878" width="2.373" height="5.431" transform="translate(26.007 75.318)" fill="#8f00fc " stroke="#263238" stroke-linecap="round" stroke-linejoin="round" stroke-width="1"></rect>       <rect id="Retângulo_4879" data-name="Retângulo 4879" width="5.259" height="7.296" transform="translate(40.855 80.749)" fill="#fff" stroke="#263238" stroke-linecap="round" stroke-linejoin="round" stroke-width="1"></rect>       <rect id="Retângulo_4880" data-name="Retângulo 4880" width="2.373" height="5.431" transform="translate(42.384 75.318)" fill="#8f00fc " stroke="#263238" stroke-linecap="round" stroke-linejoin="round" stroke-width="1"></rect>       <rect id="Retângulo_4881" data-name="Retângulo 4881" width="5.259" height="7.296" transform="translate(33.223 80.749)" fill="#fff" stroke="#263238" stroke-linecap="round" stroke-linejoin="round" stroke-width="1"></rect>       <rect id="Retângulo_4882" data-name="Retângulo 4882" width="2.373" height="5.431" transform="translate(34.752 75.318)" fill="#8f00fc " stroke="#263238" stroke-linecap="round" stroke-linejoin="round" stroke-width="1"></rect>       <rect id="Retângulo_4883" data-name="Retângulo 4883" width="5.259" height="7.296" transform="translate(49.081 80.749)" fill="#fff" stroke="#263238" stroke-linecap="round" stroke-linejoin="round" stroke-width="1"></rect>       <rect id="Retângulo_4884" data-name="Retângulo 4884" width="2.373" height="5.431" transform="translate(50.61 75.318)" fill="#8f00fc " stroke="#263238" stroke-linecap="round" stroke-linejoin="round" stroke-width="1"></rect>       <rect id="Retângulo_4885" data-name="Retângulo 4885" width="5.259" height="7.296" transform="translate(65.458 80.749)" fill="#fff" stroke="#263238" stroke-linecap="round" stroke-linejoin="round" stroke-width="1"></rect>       <rect id="Retângulo_4886" data-name="Retângulo 4886" width="2.373" height="5.431" transform="translate(66.987 75.318)" fill="#8f00fc " stroke="#263238" stroke-linecap="round" stroke-linejoin="round" stroke-width="1"></rect>       <rect id="Retângulo_4887" data-name="Retângulo 4887" width="5.259" height="7.296" transform="translate(57.826 80.749)" fill="#263238" stroke="#263238" stroke-linecap="round" stroke-linejoin="round" stroke-width="1"></rect>       <rect id="Retângulo_4888" data-name="Retângulo 4888" width="2.373" height="5.431" transform="translate(59.355 75.318)" fill="#8f00fc " stroke="#263238" stroke-linecap="round" stroke-linejoin="round" stroke-width="1"></rect>       <rect id="Retângulo_4889" data-name="Retângulo 4889" width="5.259" height="7.296" transform="translate(73.69 80.749)" fill="#fff" stroke="#263238" stroke-linecap="round" stroke-linejoin="round" stroke-width="1"></rect>       <rect id="Retângulo_4890" data-name="Retângulo 4890" width="2.373" height="5.431" transform="translate(75.212 75.318)" fill="#8f00fc " stroke="#263238" stroke-linecap="round" stroke-linejoin="round" stroke-width="1"></rect>       <rect id="Retângulo_4891" data-name="Retângulo 4891" width="5.259" height="7.296" transform="translate(90.068 80.749)" fill="#263238" stroke="#263238" stroke-linecap="round" stroke-linejoin="round" stroke-width="1"></rect>       <rect id="Retângulo_4892" data-name="Retângulo 4892" width="2.373" height="5.431" transform="translate(91.59 75.318)" fill="#8f00fc " stroke="#263238" stroke-linecap="round" stroke-linejoin="round" stroke-width="1"></rect>       <rect id="Retângulo_4893" data-name="Retângulo 4893" width="5.259" height="7.296" transform="translate(82.436 80.749)" fill="#fff" stroke="#263238" stroke-linecap="round" stroke-linejoin="round" stroke-width="1"></rect>       <rect id="Retângulo_4894" data-name="Retângulo 4894" width="2.373" height="5.431" transform="translate(83.958 75.318)" fill="#8f00fc " stroke="#263238" stroke-linecap="round" stroke-linejoin="round" stroke-width="1"></rect>       <rect id="Retângulo_4895" data-name="Retângulo 4895" width="5.259" height="7.296" transform="translate(98.293 80.749)" fill="#fff" stroke="#263238" stroke-linecap="round" stroke-linejoin="round" stroke-width="1"></rect>       <rect id="Retângulo_4896" data-name="Retângulo 4896" width="2.373" height="5.431" transform="translate(99.822 75.318)" fill="#8f00fc " stroke="#263238" stroke-linecap="round" stroke-linejoin="round" stroke-width="1"></rect>       <rect id="Retângulo_4897" data-name="Retângulo 4897" width="5.259" height="7.296" transform="translate(114.671 80.749)" fill="#fff" stroke="#263238" stroke-linecap="round" stroke-linejoin="round" stroke-width="1"></rect>       <rect id="Retângulo_4898" data-name="Retângulo 4898" width="2.373" height="5.431" transform="translate(116.2 75.318)" fill="#8f00fc " stroke="#263238" stroke-linecap="round" stroke-linejoin="round" stroke-width="1"></rect>       <rect id="Retângulo_4899" data-name="Retângulo 4899" width="5.259" height="7.296" transform="translate(107.039 80.749)" fill="#fff" stroke="#263238" stroke-linecap="round" stroke-linejoin="round" stroke-width="1"></rect>       <rect id="Retângulo_4900" data-name="Retângulo 4900" width="2.373" height="5.431" transform="translate(108.568 75.318)" fill="#263238" stroke="#263238" stroke-linecap="round" stroke-linejoin="round" stroke-width="1"></rect>       <rect id="Retângulo_4901" data-name="Retângulo 4901" width="5.259" height="7.296" transform="translate(122.896 80.749)" fill="#fff" stroke="#263238" stroke-linecap="round" stroke-linejoin="round" stroke-width="1"></rect>       <rect id="Retângulo_4902" data-name="Retângulo 4902" width="2.373" height="5.431" transform="translate(124.425 75.318)" fill="#263238" stroke="#263238" stroke-linecap="round" stroke-linejoin="round" stroke-width="1"></rect>       <rect id="Retângulo_4903" data-name="Retângulo 4903" width="5.259" height="7.296" transform="translate(139.273 80.749)" fill="#fff" stroke="#263238" stroke-linecap="round" stroke-linejoin="round" stroke-width="1"></rect>       <rect id="Retângulo_4904" data-name="Retângulo 4904" width="2.373" height="5.431" transform="translate(140.803 75.318)" fill="#8f00fc " stroke="#263238" stroke-linecap="round" stroke-linejoin="round" stroke-width="1"></rect>       <rect id="Retângulo_4905" data-name="Retângulo 4905" width="5.259" height="7.296" transform="translate(131.642 80.749)" fill="#fff" stroke="#263238" stroke-linecap="round" stroke-linejoin="round" stroke-width="1"></rect>       <rect id="Retângulo_4906" data-name="Retângulo 4906" width="2.373" height="5.431" transform="translate(133.171 75.318)" fill="#263238" stroke="#263238" stroke-linecap="round" stroke-linejoin="round" stroke-width="1"></rect>       <rect id="Retângulo_4907" data-name="Retângulo 4907" width="5.259" height="7.296" transform="translate(147.505 80.749)" fill="#fff" stroke="#263238" stroke-linecap="round" stroke-linejoin="round" stroke-width="1"></rect>       <rect id="Retângulo_4908" data-name="Retângulo 4908" width="2.373" height="5.431" transform="translate(149.028 75.318)" fill="#263238" stroke="#263238" stroke-linecap="round" stroke-linejoin="round" stroke-width="1"></rect>       <rect id="Retângulo_4909" data-name="Retângulo 4909" width="5.259" height="7.296" transform="translate(163.883 80.749)" fill="#fff" stroke="#263238" stroke-linecap="round" stroke-linejoin="round" stroke-width="1"></rect>       <rect id="Retângulo_4910" data-name="Retângulo 4910" width="2.373" height="5.431" transform="translate(165.405 75.318)" fill="#8f00fc " stroke="#263238" stroke-linecap="round" stroke-linejoin="round" stroke-width="1"></rect>       <rect id="Retângulo_4911" data-name="Retângulo 4911" width="5.259" height="7.296" transform="translate(156.251 80.749)" fill="#fff" stroke="#263238" stroke-linecap="round" stroke-linejoin="round" stroke-width="1"></rect>       <rect id="Retângulo_4912" data-name="Retângulo 4912" width="2.373" height="5.431" transform="translate(157.773 75.318)" fill="#8f00fc " stroke="#263238" stroke-linecap="round" stroke-linejoin="round" stroke-width="1"></rect>       <rect id="Retângulo_4913" data-name="Retângulo 4913" width="5.259" height="7.296" transform="translate(172.108 80.749)" fill="#263238" stroke="#263238" stroke-linecap="round" stroke-linejoin="round" stroke-width="1"></rect>       <rect id="Retângulo_4914" data-name="Retângulo 4914" width="2.373" height="5.431" transform="translate(173.637 75.318)" fill="#8f00fc " stroke="#263238" stroke-linecap="round" stroke-linejoin="round" stroke-width="1"></rect>       <rect id="Retângulo_4915" data-name="Retângulo 4915" width="184.848" height="3.065" transform="translate(0 87.221)" fill="#fff" stroke="#263238" stroke-linecap="round" stroke-linejoin="round" stroke-width="1"></rect>       <rect id="Retângulo_4916" data-name="Retângulo 4916" width="5.259" height="7.296" transform="translate(16.253 60.093)" fill="#fff" stroke="#263238" stroke-linecap="round" stroke-linejoin="round" stroke-width="1"></rect>       <rect id="Retângulo_4917" data-name="Retângulo 4917" width="2.373" height="5.431" transform="translate(17.775 54.669)" fill="#263238" stroke="#263238" stroke-linecap="round" stroke-linejoin="round" stroke-width="1"></rect>       <rect id="Retângulo_4918" data-name="Retângulo 4918" width="5.259" height="7.296" transform="translate(8.621 60.093)" fill="#fff" stroke="#263238" stroke-linecap="round" stroke-linejoin="round" stroke-width="1"></rect>       <rect id="Retângulo_4919" data-name="Retângulo 4919" width="2.373" height="5.431" transform="translate(10.143 54.669)" fill="#8f00fc " stroke="#263238" stroke-linecap="round" stroke-linejoin="round" stroke-width="1"></rect>       <rect id="Retângulo_4920" data-name="Retângulo 4920" width="5.259" height="7.296" transform="translate(24.478 60.093)" fill="#263238" stroke="#263238" stroke-linecap="round" stroke-linejoin="round" stroke-width="1"></rect>       <rect id="Retângulo_4921" data-name="Retângulo 4921" width="2.373" height="5.431" transform="translate(26.007 54.669)" fill="#8f00fc " stroke="#263238" stroke-linecap="round" stroke-linejoin="round" stroke-width="1"></rect>       <rect id="Retângulo_4922" data-name="Retângulo 4922" width="5.259" height="7.296" transform="translate(40.855 60.093)" fill="#fff" stroke="#263238" stroke-linecap="round" stroke-linejoin="round" stroke-width="1"></rect>       <rect id="Retângulo_4923" data-name="Retângulo 4923" width="2.373" height="5.431" transform="translate(42.384 54.669)" fill="#263238" stroke="#263238" stroke-linecap="round" stroke-linejoin="round" stroke-width="1"></rect>       <rect id="Retângulo_4924" data-name="Retângulo 4924" width="5.259" height="7.296" transform="translate(33.223 60.093)" fill="#fff" stroke="#263238" stroke-linecap="round" stroke-linejoin="round" stroke-width="1"></rect>       <rect id="Retângulo_4925" data-name="Retângulo 4925" width="2.373" height="5.431" transform="translate(34.752 54.669)" fill="#8f00fc " stroke="#263238" stroke-linecap="round" stroke-linejoin="round" stroke-width="1"></rect>       <rect id="Retângulo_4926" data-name="Retângulo 4926" width="5.259" height="7.296" transform="translate(49.081 60.093)" fill="#fff" stroke="#263238" stroke-linecap="round" stroke-linejoin="round" stroke-width="1"></rect>       <rect id="Retângulo_4927" data-name="Retângulo 4927" width="2.373" height="5.431" transform="translate(50.61 54.669)" fill="#8f00fc " stroke="#263238" stroke-linecap="round" stroke-linejoin="round" stroke-width="1"></rect>       <rect id="Retângulo_4928" data-name="Retângulo 4928" width="5.259" height="7.296" transform="translate(65.458 60.093)" fill="#fff" stroke="#263238" stroke-linecap="round" stroke-linejoin="round" stroke-width="1"></rect>       <rect id="Retângulo_4929" data-name="Retângulo 4929" width="2.373" height="5.431" transform="translate(66.987 54.669)" fill="#8f00fc " stroke="#263238" stroke-linecap="round" stroke-linejoin="round" stroke-width="1"></rect>       <rect id="Retângulo_4930" data-name="Retângulo 4930" width="5.259" height="7.296" transform="translate(57.826 60.093)" fill="#263238" stroke="#263238" stroke-linecap="round" stroke-linejoin="round" stroke-width="1"></rect>       <rect id="Retângulo_4931" data-name="Retângulo 4931" width="2.373" height="5.431" transform="translate(59.355 54.669)" fill="#8f00fc " stroke="#263238" stroke-linecap="round" stroke-linejoin="round" stroke-width="1"></rect>       <rect id="Retângulo_4932" data-name="Retângulo 4932" width="5.259" height="7.296" transform="translate(73.69 60.093)" fill="#fff" stroke="#263238" stroke-linecap="round" stroke-linejoin="round" stroke-width="1"></rect>       <rect id="Retângulo_4933" data-name="Retângulo 4933" width="2.373" height="5.431" transform="translate(75.212 54.669)" fill="#8f00fc " stroke="#263238" stroke-linecap="round" stroke-linejoin="round" stroke-width="1"></rect>       <rect id="Retângulo_4934" data-name="Retângulo 4934" width="5.259" height="7.296" transform="translate(90.068 60.093)" fill="#fff" stroke="#263238" stroke-linecap="round" stroke-linejoin="round" stroke-width="1"></rect>       <rect id="Retângulo_4935" data-name="Retângulo 4935" width="2.373" height="5.431" transform="translate(91.59 54.669)" fill="#8f00fc " stroke="#263238" stroke-linecap="round" stroke-linejoin="round" stroke-width="1"></rect>       <rect id="Retângulo_4936" data-name="Retângulo 4936" width="5.259" height="7.296" transform="translate(82.436 60.093)" fill="#263238" stroke="#263238" stroke-linecap="round" stroke-linejoin="round" stroke-width="1"></rect>       <rect id="Retângulo_4937" data-name="Retângulo 4937" width="2.373" height="5.431" transform="translate(83.958 54.669)" fill="#8f00fc " stroke="#263238" stroke-linecap="round" stroke-linejoin="round" stroke-width="1"></rect>       <rect id="Retângulo_4938" data-name="Retângulo 4938" width="5.259" height="7.296" transform="translate(98.293 60.093)" fill="#fff" stroke="#263238" stroke-linecap="round" stroke-linejoin="round" stroke-width="1"></rect>       <rect id="Retângulo_4939" data-name="Retângulo 4939" width="2.373" height="5.431" transform="translate(99.822 54.669)" fill="#8f00fc " stroke="#263238" stroke-linecap="round" stroke-linejoin="round" stroke-width="1"></rect>       <rect id="Retângulo_4940" data-name="Retângulo 4940" width="5.259" height="7.296" transform="translate(114.671 60.093)" fill="#fff" stroke="#263238" stroke-linecap="round" stroke-linejoin="round" stroke-width="1"></rect>       <rect id="Retângulo_4941" data-name="Retângulo 4941" width="2.373" height="5.431" transform="translate(116.2 54.669)" fill="#8f00fc " stroke="#263238" stroke-linecap="round" stroke-linejoin="round" stroke-width="1"></rect>       <rect id="Retângulo_4942" data-name="Retângulo 4942" width="5.259" height="7.296" transform="translate(107.039 60.093)" fill="#263238" stroke="#263238" stroke-linecap="round" stroke-linejoin="round" stroke-width="1"></rect>       <rect id="Retângulo_4943" data-name="Retângulo 4943" width="2.373" height="5.431" transform="translate(108.568 54.669)" fill="#8f00fc " stroke="#263238" stroke-linecap="round" stroke-linejoin="round" stroke-width="1"></rect>       <rect id="Retângulo_4944" data-name="Retângulo 4944" width="5.259" height="7.296" transform="translate(122.896 60.093)" fill="#fff" stroke="#263238" stroke-linecap="round" stroke-linejoin="round" stroke-width="1"></rect>       <rect id="Retângulo_4945" data-name="Retângulo 4945" width="2.373" height="5.431" transform="translate(124.425 54.669)" fill="#8f00fc " stroke="#263238" stroke-linecap="round" stroke-linejoin="round" stroke-width="1"></rect>       <rect id="Retângulo_4946" data-name="Retângulo 4946" width="5.259" height="7.296" transform="translate(139.273 60.093)" fill="#fff" stroke="#263238" stroke-linecap="round" stroke-linejoin="round" stroke-width="1"></rect>       <rect id="Retângulo_4947" data-name="Retângulo 4947" width="2.373" height="5.431" transform="translate(140.803 54.669)" fill="#8f00fc " stroke="#263238" stroke-linecap="round" stroke-linejoin="round" stroke-width="1"></rect>       <rect id="Retângulo_4948" data-name="Retângulo 4948" width="5.259" height="7.296" transform="translate(131.642 60.093)" fill="#263238" stroke="#263238" stroke-linecap="round" stroke-linejoin="round" stroke-width="1"></rect>       <rect id="Retângulo_4949" data-name="Retângulo 4949" width="2.373" height="5.431" transform="translate(133.171 54.669)" fill="#8f00fc " stroke="#263238" stroke-linecap="round" stroke-linejoin="round" stroke-width="1"></rect>       <rect id="Retângulo_4950" data-name="Retângulo 4950" width="5.259" height="7.296" transform="translate(147.505 60.093)" fill="#fff" stroke="#263238" stroke-linecap="round" stroke-linejoin="round" stroke-width="1"></rect>       <rect id="Retângulo_4951" data-name="Retângulo 4951" width="2.373" height="5.431" transform="translate(149.028 54.669)" fill="#8f00fc " stroke="#263238" stroke-linecap="round" stroke-linejoin="round" stroke-width="1"></rect>       <rect id="Retângulo_4952" data-name="Retângulo 4952" width="5.259" height="7.296" transform="translate(163.883 60.093)" fill="#fff" stroke="#263238" stroke-linecap="round" stroke-linejoin="round" stroke-width="1"></rect>       <rect id="Retângulo_4953" data-name="Retângulo 4953" width="2.373" height="5.431" transform="translate(165.405 54.669)" fill="#263238" stroke="#263238" stroke-linecap="round" stroke-linejoin="round" stroke-width="1"></rect>       <rect id="Retângulo_4954" data-name="Retângulo 4954" width="5.259" height="7.296" transform="translate(156.251 60.093)" fill="#fff" stroke="#263238" stroke-linecap="round" stroke-linejoin="round" stroke-width="1"></rect>       <rect id="Retângulo_4955" data-name="Retângulo 4955" width="2.373" height="5.431" transform="translate(157.773 54.669)" fill="#8f00fc " stroke="#263238" stroke-linecap="round" stroke-linejoin="round" stroke-width="1"></rect>       <rect id="Retângulo_4956" data-name="Retângulo 4956" width="5.259" height="7.296" transform="translate(172.108 60.093)" fill="#fff" stroke="#263238" stroke-linecap="round" stroke-linejoin="round" stroke-width="1"></rect>       <rect id="Retângulo_4957" data-name="Retângulo 4957" width="2.373" height="5.431" transform="translate(173.637 54.669)" fill="#8f00fc " stroke="#263238" stroke-linecap="round" stroke-linejoin="round" stroke-width="1"></rect>       <rect id="Retângulo_4958" data-name="Retângulo 4958" width="184.848" height="3.065" transform="translate(0 66.566)" fill="#fff" stroke="#263238" stroke-linecap="round" stroke-linejoin="round" stroke-width="1"></rect>       <path id="Caminho_25875" data-name="Caminho 25875" d="M331.24,40.908s1.219-2.3-1.219-5.82a61.662,61.662,0,0,0-5.411-6.63s5.141,1.892,6.63,3.519,2.841,3.651,2.709,3.243-2.168-4.192-4.33-8.522-4.2-8.528-4.2-8.528a64.856,64.856,0,0,0,6.09,6.9,30.5,30.5,0,0,1,5.272,7.039S335.3,24.273,335.3,20.741s.659-9.471.659-9.471a50.77,50.77,0,0,1,2.979,10.281c.547,4.35.659,9.227.659,9.227s.27-1.358,1.358-5.932a99.219,99.219,0,0,1,3.519-10.828s.27,5.147.132,10.288a43.621,43.621,0,0,1-2.267,11.171s2.03-2.307,3.651-4.468a33.784,33.784,0,0,0,2.307-3.388s-3.519,8.4-3.954,9.339a39.822,39.822,0,0,0-1.219,4.066Z" transform="translate(-187.393 -11.27)" fill="#8f00fc "></path>       <rect id="Retângulo_4959" data-name="Retângulo 4959" width="14.394" height="4.864" transform="translate(142.424 29.599)" fill="#fff" stroke="#263238" stroke-linecap="round" stroke-linejoin="round" stroke-width="1"></rect>       <path id="Caminho_25876" data-name="Caminho 25876" d="M343.241,75.4H332.327L326.87,63.58H348.7Z" transform="translate(-188.163 -29.104)" fill="#fff" stroke="#263238" stroke-linecap="round" stroke-linejoin="round" stroke-width="1"></path>       <path id="Caminho_25877" data-name="Caminho 25877" d="M371.789,49.805s-2.254-2.867-2.254-4.613,1.72.8,1.72.8S367.6,39.26,367.9,36.472s3.071,4.811,3.071,4.811-.923-15.554.613-15.04,3.48,15.158,3.48,16.061,1.318-6.446,2.353-4.3,1.022,7.25,1.022,7.25,1.318-7.777,2.353-5.114-1.226,9.715-1.226,9.715" transform="translate(-202.146 -16.371)" fill="#8f00fc "></path>       <rect id="Retângulo_4960" data-name="Retângulo 4960" width="12.456" height="10.334" transform="translate(167.528 35.761)" fill="none" stroke="#263238" stroke-linecap="round" stroke-linejoin="round" stroke-width="1"></rect>       <path id="Caminho_25878" data-name="Caminho 25878" d="M383.138,67.952V62.06H370.55v6.729a1.5,1.5,0,0,0,1.5,1.5h.112a1.5,1.5,0,0,0,1.509-1.5v-.837h.079v.857a1.509,1.509,0,0,0,1.509,1.5h.079a1.5,1.5,0,0,0,1.5-1.5v-.857h.086v.857a1.5,1.5,0,0,0,1.5,1.5h.079a1.5,1.5,0,0,0,1.509-1.5v-.857h.053v.857a1.509,1.509,0,0,0,1.509,1.5h.079a1.5,1.5,0,0,0,1.5-1.5v-.857Z" transform="translate(-203.055 -28.586)" fill="#fff" stroke="#263238" stroke-linecap="round" stroke-linejoin="round" stroke-width="1"></path>       <path id="Caminho_25879" data-name="Caminho 25879" d="M178.518,56.49,173.16,72.828h11.23l-.765-16.338Z" transform="translate(-135.758 -26.687)" fill="#fff" stroke="#263238" stroke-linecap="round" stroke-linejoin="round" stroke-width="1"></path>       <path id="Caminho_25880" data-name="Caminho 25880" d="M200.828,33.65h-26.8l7.533,31.391h26.8Z" transform="translate(-136.055 -18.9)" fill="#fff" stroke="#263238" stroke-linecap="round" stroke-linejoin="round" stroke-width="1"></path>       <path id="Caminho_25881" data-name="Caminho 25881" d="M200.585,41.39H182.5l5.081,21.182h18.085Z" transform="translate(-138.942 -21.539)" fill="#fff" stroke="#263238" stroke-linecap="round" stroke-linejoin="round" stroke-width="1"></path>       <rect id="Retângulo_4961" data-name="Retângulo 4961" width="184.848" height="3.065" transform="translate(0 45.917)" fill="#fff" stroke="#263238" stroke-linecap="round" stroke-linejoin="round" stroke-width="1"></rect>     </g>     <g id="freepik--Table--inject-37" transform="translate(469.768 916.684)">       <rect id="Retângulo_4962" data-name="Retângulo 4962" width="5.259" height="7.296" transform="translate(19.403 5.431)" fill="#fff" stroke="#263238" stroke-linecap="round" stroke-linejoin="round" stroke-width="1"></rect>       <rect id="Retângulo_4963" data-name="Retângulo 4963" width="2.373" height="5.431" transform="translate(20.932)" fill="#8f00fc " stroke="#263238" stroke-linecap="round" stroke-linejoin="round" stroke-width="1"></rect>       <rect id="Retângulo_4964" data-name="Retângulo 4964" width="5.259" height="7.296" transform="translate(11.771 5.431)" fill="#fff" stroke="#263238" stroke-linecap="round" stroke-linejoin="round" stroke-width="1"></rect>       <rect id="Retângulo_4965" data-name="Retângulo 4965" width="2.373" height="5.431" transform="translate(13.3)" fill="#8f00fc " stroke="#263238" stroke-linecap="round" stroke-linejoin="round" stroke-width="1"></rect>       <rect id="Retângulo_4966" data-name="Retângulo 4966" width="5.259" height="7.296" transform="translate(27.628 5.431)" fill="#fff" stroke="#263238" stroke-linecap="round" stroke-linejoin="round" stroke-width="1"></rect>       <rect id="Retângulo_4967" data-name="Retângulo 4967" width="2.373" height="5.431" transform="translate(29.157)" fill="#8f00fc " stroke="#263238" stroke-linecap="round" stroke-linejoin="round" stroke-width="1"></rect>       <rect id="Retângulo_4968" data-name="Retângulo 4968" width="6.591" height="101.166" transform="translate(42.839 14.183)" fill="#263238" stroke="#263238" stroke-linecap="round" stroke-linejoin="round" stroke-width="1"></rect>       <rect id="Retângulo_4969" data-name="Retângulo 4969" width="92.269" height="3.295" transform="translate(0 12.535)" fill="#fff" stroke="#263238" stroke-linecap="round" stroke-linejoin="round" stroke-width="1"></rect>       <path id="Caminho_25882" data-name="Caminho 25882" d="M236.062,463.79l-28.682,8.416h69.2L247.9,463.79a21.023,21.023,0,0,0-11.837,0Z" transform="translate(-195.629 -350.708)" fill="#fff" stroke="#263238" stroke-linecap="round" stroke-linejoin="round" stroke-width="1"></path>     </g>     <g id="freepik--Characters--inject-37" transform="translate(390.568 815.48)">       <path id="Caminho_25883" data-name="Caminho 25883" d="M230.886,264.268a48.564,48.564,0,0,1-3.4,5.193c-.9.9-11.639,1.074-12.522,1.43s-22.751,18.269-24.181,19.166a11.131,11.131,0,0,1-4.838,1.437c-3.019-.217-19.884-18.091-19.884-18.091l9.135-13.972,13.26,16.477s22.566-7.52,24-8.416,4.482-3.954,6.63-4.3,5.549-.54,6.446-.9,4.66-2.689,5.932-1.977S230.886,264.268,230.886,264.268Z" transform="translate(-102.343 -180.119)" fill="#fff" stroke="#263238" stroke-linecap="round" stroke-linejoin="round" stroke-width="1"></path>       <path id="Caminho_25884" data-name="Caminho 25884" d="M242.18,270.717s2.274-1.819,3.539-1.977a53.173,53.173,0,0,1,6.722.659l2.274-2.4" transform="translate(-128.295 -182.7)" fill="#fff" stroke="#263238" stroke-linecap="round" stroke-linejoin="round" stroke-width="1"></path>       <path id="Caminho_25885" data-name="Caminho 25885" d="M311.36,262.87s-16.694-7.909-23.067-10.98-15.818-5.714-17.577-5.5-11.422,4.838-14.058,6.156-6.149,5.273-7.691,5.932c-.692.3-.448.547,0,.732a3.763,3.763,0,0,0,2.511.1c1.094-.33,1.924,0,3.9-.8,1.424-.58,4.613-1.819,4.613-1.819s-4.4,2.7-5.273,3.137,1.819.468,3.572-.409a24.674,24.674,0,0,1,5.437-2.669c2.419-.659,5.707-3.3,7.25-4.613a4.332,4.332,0,0,1,3.73-.659s12.964,11.863,14.941,13.4,8.568,7.691,10.987,9.668,13.4,8.785,16.694,7.032,4.4-6.156,2.854-10.11S311.36,262.87,311.36,262.87Z" transform="translate(-130.461 -175.671)" fill="#fff" stroke="#263238" stroke-linecap="round" stroke-linejoin="round" stroke-width="1"></path>       <path id="Caminho_25886" data-name="Caminho 25886" d="M257.738,257s-5.345,3.75-6.024,4.429a17.178,17.178,0,0,0-1.364,1.595" transform="translate(-131.08 -179.291)" fill="#fff" stroke="#263238" stroke-linecap="round" stroke-linejoin="round" stroke-width="1"></path>       <path id="Caminho_25887" data-name="Caminho 25887" d="M260.621,258.7s-3.8,2.669-4.89,3.183c-1.674.784-2.419,1.246-1.595,1.364" transform="translate(-132.256 -179.871)" fill="#fff" stroke="#263238" stroke-linecap="round" stroke-linejoin="round" stroke-width="1"></path>       <line id="Linha_797" data-name="Linha 797" y1="1.252" x2="2.841" transform="translate(128.365 80.194)" fill="#fff" stroke="#263238" stroke-linecap="round" stroke-linejoin="round" stroke-width="1"></line>       <path id="Caminho_25888" data-name="Caminho 25888" d="M330.4,266.15s-14.117-6.683-21.341-10.15l-4.679,8.4c1.977,1.793,3.658,3.249,4.271,3.724,1.977,1.542,8.568,7.691,10.987,9.668s13.4,8.785,16.694,7.032,4.4-6.156,2.854-10.11S330.4,266.15,330.4,266.15Z" transform="translate(-149.501 -178.95)" fill="#263238" stroke="#263238" stroke-linecap="round" stroke-linejoin="round" stroke-width="1"></path>       <path id="Caminho_25889" data-name="Caminho 25889" d="M313.844,359.909A63.566,63.566,0,0,1,317.8,378.58c.659,10.769,6.149,30.317,7.685,33.395s4.4,5.932,4.4,9.227-.217,12.74-.217,12.74h-2.419l-.877-7.909s-4.178.883-5.714,3.3-2.874,4.93-2.874,4.93H302.62s-1.318-1.41,1.977-2.729a13.1,13.1,0,0,0,6.149-5.714,128.584,128.584,0,0,0,5.932-13.623c0-.659-14.921-37.784-17.116-41.739s-4.613-12.081-1.1-14.282S311.643,352,311.643,352Z" transform="translate(-146.878 -211.68)" fill="#263238" stroke="#263238" stroke-linecap="round" stroke-linejoin="round" stroke-width="1"></path>       <path id="Caminho_25890" data-name="Caminho 25890" d="M305.446,335.33s-21.848,9.227-23.509,12.746c-3.025,6.393,26.363,61.069,26.363,61.069s-5.714,10.11-6.808,11.863a6.932,6.932,0,0,1-3.078,3.078c-1.536.877-5.055,2.636-4.613,3.513s16.918,0,16.918,0l6.591-7.026v7.685h1.977s2.195-10.98,2.854-13.4-4.831-9.009-4.831-9.009-5.5-18.889-7.474-28.34-3.73-16.694-4.172-18.012-1.1-3.078-1.1-3.078l12.746-3.3Z" transform="translate(-141.775 -205.997)" fill="#696969" stroke="#263238" stroke-linecap="round" stroke-linejoin="round" stroke-width="1"></path>       <path id="Caminho_25891" data-name="Caminho 25891" d="M330.937,202.778a16.984,16.984,0,0,1,2.8,7.414,60.436,60.436,0,0,1-1.483,18.289c-1.812,7.909-4.284,9.721-3.131,17.136s9.227,20.431,8.568,22.243-2.966,2.471-3.3,4.613,1.318,4.613,1.318,4.613-17.465,8.074-19.442,9.062,10.875,19.607,10.875,19.607,7.744-2.8,24.056-3.46,27.351.33,32.129-8.733,1.648-16.477-.494-21.42-6.755-26.2-10.545-37.567-9.721-21.42-13.84-25.868-11.7-9.062-12.852-10.545-4.284-7.414-4.284-7.414Z" transform="translate(-153.485 -156.704)" fill="#263238" stroke="#263238" stroke-linecap="round" stroke-linejoin="round" stroke-width="1"></path>       <path id="Caminho_25892" data-name="Caminho 25892" d="M390.7,332.57c.725.33,1.45.659,2.175,1.035" transform="translate(-178.931 -205.056)" fill="none" stroke="#7d7d7d" stroke-linecap="round" stroke-linejoin="round" stroke-width="1"></path>       <path id="Caminho_25893" data-name="Caminho 25893" d="M353.78,322a91.107,91.107,0,0,1,20.695,5.391" transform="translate(-166.343 -201.452)" fill="none" stroke="#7d7d7d" stroke-linecap="round" stroke-linejoin="round" stroke-width="1"></path>       <path id="Caminho_25894" data-name="Caminho 25894" d="M362,320.08s14.157,0,25.479,4.613" transform="translate(-169.146 -200.797)" fill="none" stroke="#7d7d7d" stroke-linecap="round" stroke-linejoin="round" stroke-width="1"></path>       <path id="Caminho_25895" data-name="Caminho 25895" d="M353.294,198.164c-1.153-1.483-4.284-7.414-4.284-7.414l-10.38,12.028a16.984,16.984,0,0,1,2.8,7.414,60.436,60.436,0,0,1-1.483,18.289c-.119.527-.244,1.028-.369,1.509l4.323-.659s3.79-13.372,9.062-17.986c4.561-3.987,7.909-4.284,9.55-5.991C358.6,202.119,354.158,199.272,353.294,198.164Z" transform="translate(-161.178 -156.704)" fill="#fff" stroke="#263238" stroke-linecap="round" stroke-linejoin="round" stroke-width="1"></path>       <path id="Caminho_25896" data-name="Caminho 25896" d="M320.457,139.5s-10.216-.165-16.641,4.449-12.852,13.676-12.687,17.3,5.437,9.392,8.9,12.522,5.273,4.449,5.273,4.449-3.46-10.38.989-15.653,13.84-13.181,14.829-17.63S320.457,139.5,320.457,139.5Z" transform="translate(-144.982 -139.231)" fill="#263238" stroke="#263238" stroke-linecap="round" stroke-linejoin="round" stroke-width="1"></path>       <path id="Caminho_25897" data-name="Caminho 25897" d="M325.1,155.23s-11.942,1.977-16.253,8.291-3.3,11.277-2.32,12.937,1.977,3.954,1,5.971-2.986,3.954-1,4.976a6.663,6.663,0,0,0,4.31.33s4.613,8.291,7.625,8.291,11.942-7.3,11.942-7.3,8.291-1.977,8.627-13.267S331.4,156.225,325.1,155.23Z" transform="translate(-149.943 -144.594)" fill="#fff" stroke="#263238" stroke-linecap="round" stroke-linejoin="round" stroke-width="1"></path>       <path id="Caminho_25898" data-name="Caminho 25898" d="M313.41,190.49l.54,2.887a6.156,6.156,0,0,0,3.605-1.232" transform="translate(-152.58 -156.615)" fill="none" stroke="#263238" stroke-linecap="round" stroke-linejoin="round" stroke-width="1"></path>       <path id="Caminho_25899" data-name="Caminho 25899" d="M311.22,185.053a3.954,3.954,0,0,1,4.871-1.806" transform="translate(-151.833 -154.059)" fill="none" stroke="#263238" stroke-linecap="round" stroke-linejoin="round" stroke-width="1"></path>       <path id="Caminho_25900" data-name="Caminho 25900" d="M318.88,205.057a3.117,3.117,0,0,0,3.427-1.977" transform="translate(-154.445 -160.908)" fill="none" stroke="#263238" stroke-linecap="round" stroke-linejoin="round" stroke-width="1"></path>       <path id="Caminho_25901" data-name="Caminho 25901" d="M316.752,155.838s-4.778,4.119-3.954,6.92,6.426,5.273,8.074,9.886a45.138,45.138,0,0,1,1.812,14.994c-.33,2.142-.494,3.79-.494,3.79s1.153,0,11.2-2.471,18.289-12.522,18.289-12.522-4.719-11.916-7.685-22.461-10.275-13.458-17.03-14.776-17.96,10.215-19.937,15.488-.824,8.733-.824,8.733S312.468,157.485,316.752,155.838Z" transform="translate(-150.01 -139.092)" fill="#263238" stroke="#263238" stroke-linecap="round" stroke-linejoin="round" stroke-width="1"></path>       <path id="Caminho_25902" data-name="Caminho 25902" d="M328.371,231.33a23.936,23.936,0,0,0-2.854,8.35c-.877,5.273-1.1,23.726-1.1,23.726s-2.636,1.977-2.636,2.854V268.9s-9.227,2.86-14.275,4.178-26.587,3.954-29.44,4.831a112.833,112.833,0,0,0-10.328,4.613s-1.753,1.1-1.094,1.1h19.113a7.573,7.573,0,0,0,3.73-.224l3.519-1.753s12.3,1.094,16.694,1.753,15.376,1.542,22.408-.217,10.545-1.76,12.081-9.886,0-22.85.224-25.044.659-10.1.659-10.1" transform="translate(-136.585 -170.539)" fill="#263238" stroke="#263238" stroke-linecap="round" stroke-linejoin="round" stroke-width="1"></path>       <path id="Caminho_25903" data-name="Caminho 25903" d="M385.71,253.157c.04-1.615.059-2.577.059-2.577" transform="translate(-177.229 -177.102)" fill="none" stroke="#7d7d7d" stroke-linecap="round" stroke-linejoin="round" stroke-width="1"></path>       <path id="Caminho_25904" data-name="Caminho 25904" d="M353,296.019s15.956-1.318,18.526-5.661c1.687-2.86,2.485-17.043,2.841-26.527" transform="translate(-166.077 -181.62)" fill="none" stroke="#7d7d7d" stroke-linecap="round" stroke-linejoin="round" stroke-width="1"></path>       <path id="Caminho_25905" data-name="Caminho 25905" d="M354.714,235.36a52,52,0,0,0-2.577,14.664c0,7.2-.771,16.213-.771,16.213s-3.447,3.7-2.755,4.033a1.318,1.318,0,0,1,.7,1.114l-4.119.514" transform="translate(-163.415 -171.913)" fill="none" stroke="#7d7d7d" stroke-linecap="round" stroke-linejoin="round" stroke-width="1"></path>       <path id="Caminho_25906" data-name="Caminho 25906" d="M303.4,295.63c-7.751,1.4-23.917,3.447-26.363,4.2a112.825,112.825,0,0,0-10.328,4.613s-3.8,1.779-3.144,1.779h19.113s4.462-.244,5.78-.9l3.519-1.753s6.241.554,11.422,1.114Z" transform="translate(-135.562 -192.461)" fill="#fff" stroke="#263238" stroke-linecap="round" stroke-linejoin="round" stroke-width="1"></path>       <path id="Caminho_25907" data-name="Caminho 25907" d="M267.77,309.212s7.981-3.8,9.781-4.192" transform="translate(-137.02 -195.663)" fill="none" stroke="#263238" stroke-linecap="round" stroke-linejoin="round" stroke-width="1"></path>       <path id="Caminho_25908" data-name="Caminho 25908" d="M273.52,309.416l8.568-3.8" transform="translate(-138.98 -195.867)" fill="none" stroke="#263238" stroke-linecap="round" stroke-linejoin="round" stroke-width="1"></path>       <path id="Caminho_25909" data-name="Caminho 25909" d="M279.88,309.822a51.112,51.112,0,0,0,5.391-2.195c1.4-.8,2.794-1.4,2.794-1.4" transform="translate(-141.148 -196.075)" fill="none" stroke="#263238" stroke-linecap="round" stroke-linejoin="round" stroke-width="1"></path>       <path id="Caminho_25910" data-name="Caminho 25910" d="M323.315,441.18l-9.036,3.552.25.5s-5.714,10.11-6.808,11.863a6.932,6.932,0,0,1-3.078,3.078c-1.536.877-5.055,2.636-4.613,3.513s16.918,0,16.918,0l6.591-7.026v7.685h1.977s2.195-10.98,2.854-13.4-4.831-9.009-4.831-9.009Z" transform="translate(-148.005 -242.085)" fill="#263238" stroke="#263238" stroke-linecap="round" stroke-linejoin="round" stroke-width="1"></path>       <path id="Caminho_25911" data-name="Caminho 25911" d="M189.9,354.935c-.053.725-2.432,10.235-2.485,14.341s-3.348,27.219-4.732,32.1c-1.621,5.688-3.552,12.331-6.821,20.807-1.048,2.7,2.834,4.317,6.149,5.273s8.383,1.3,10.268,1.957,9.227,3.084,10.545,1.49-5.45-5-7.909-8.074-4.37-3.216-4.831-6.881,5.273-22.612,9.4-29.823,6.676-25.414,6.933-29-18.533-8.113-18.533-8.113Z" transform="translate(-105.625 -210.661)" fill="#fff" stroke="#263238" stroke-linecap="round" stroke-linejoin="round" stroke-width="1"></path>       <path id="Caminho_25912" data-name="Caminho 25912" d="M194.94,456.967c-2.445-3.078-4.37-3.216-4.831-6.881a5.1,5.1,0,0,1,0-.916c-2.386.25-4.251,3.025-4.251,3.025l-7.606-2.353c-.712,2.036-1.489,4.192-2.373,6.479-1.048,2.7,2.834,4.317,6.149,5.273s8.37,1.3,10.255,1.964,9.227,3.084,10.545,1.49S197.378,460.025,194.94,456.967Z" transform="translate(-105.631 -244.809)" fill="#fff" stroke="#263238" stroke-linecap="round" stroke-linejoin="round" stroke-width="1"></path>       <path id="Caminho_25913" data-name="Caminho 25913" d="M193.9,331.67s14.1,3.954,18.553,5.932,6.307,3.117,6.083,9.636-13.438,42.134-15.883,49.239-4.857,13.689-4.857,13.689,8.568,8.364,10.921,9.741,7.045,2.926,5.5,4.271-7.118,1.424-10.73,1.16-10.512-1.977-14.328-2.722-6.67-1.45-6.5-3.856,4.515-12.265,5.754-16.048c.9-2.748,4.119-10.11,4.225-18.329s.613-18.592,2.425-23.548,3.256-8.232,3.256-8.232l-10.1-.969Z" transform="translate(-107.999 -204.749)" fill="#fff" stroke="#263238" stroke-linecap="round" stroke-linejoin="round" stroke-width="1"></path>       <line id="Linha_798" data-name="Linha 798" y1="0.171" x2="7.757" transform="translate(90.31 147.662)" fill="#fff" stroke="#263238" stroke-linecap="round" stroke-linejoin="round" stroke-width="1"></line>       <path id="Caminho_25914" data-name="Caminho 25914" d="M208.706,460.481c-2.327-1.377-10.921-9.741-10.921-9.741a7.486,7.486,0,0,0-1.7,3.506,12.267,12.267,0,0,1-.435,2.636s-5.866-2.182-10.908-4.073a34.867,34.867,0,0,0-2.1,6.525c-.171,2.406,2.682,3.1,6.5,3.856s10.716,2.465,14.328,2.722,9.181.178,10.73-1.16S211.026,461.858,208.706,460.481Z" transform="translate(-107.995 -245.344)" fill="#fff" stroke="#263238" stroke-linecap="round" stroke-linejoin="round" stroke-width="1"></path>       <path id="Caminho_25915" data-name="Caminho 25915" d="M142.86,213.794s4.106,10.861,5.556,15.692,5.068,7.48,3.862,13.274-7.006,10.868-7.006,10.868L139.037,279.6l24.458,8.443-6.841,25.11s-17.386-3.618-24.867-3.618-23.9.7-32.828-1.206-14.5-9.886-14.5-20.523,5.793-17.136,9.168-21.486S104.7,249.041,104.7,249.041s1.931-16.173,1.931-22.21,2.168-14.242,5.312-18.586,8.449-5.556,13.036-5.8S139.723,206.313,142.86,213.794Z" transform="translate(-74.523 -160.688)" fill="#6b6b6b" stroke="#263238" stroke-linecap="round" stroke-linejoin="round" stroke-width="1"></path>       <path id="Caminho_25916" data-name="Caminho 25916" d="M132.7,270.657a34.087,34.087,0,0,0,15.64-1.977" transform="translate(-90.969 -183.273)" fill="none" stroke="#263238" stroke-linecap="round" stroke-linejoin="round" stroke-width="1"></path>       <path id="Caminho_25917" data-name="Caminho 25917" d="M125,270.35s.659.185,1.779.4" transform="translate(-88.344 -183.843)" fill="none" stroke="#263238" stroke-linecap="round" stroke-linejoin="round" stroke-width="1"></path>       <path id="Caminho_25918" data-name="Caminho 25918" d="M132.85,277.209a35.376,35.376,0,0,0,13.939-2.729" transform="translate(-91.021 -185.251)" fill="none" stroke="#263238" stroke-linecap="round" stroke-linejoin="round" stroke-width="1"></path>       <path id="Caminho_25919" data-name="Caminho 25919" d="M128.74,315.78a28.339,28.339,0,0,1,8.159-1.16,77.345,77.345,0,0,1,13.906,2.452" transform="translate(-89.619 -198.936)" fill="none" stroke="#263238" stroke-linecap="round" stroke-linejoin="round" stroke-width="1"></path>       <path id="Caminho_25920" data-name="Caminho 25920" d="M119.19,318.9s1.489-.62,3.651-1.318" transform="translate(-86.363 -199.945)" fill="none" stroke="#263238" stroke-linecap="round" stroke-linejoin="round" stroke-width="1"></path>       <path id="Caminho_25921" data-name="Caminho 25921" d="M133.26,308.608s6.815-2.182,15,3.3" transform="translate(-91.16 -196.74)" fill="none" stroke="#263238" stroke-linecap="round" stroke-linejoin="round" stroke-width="1"></path>       <path id="Caminho_25922" data-name="Caminho 25922" d="M174.9,149.275a21.263,21.263,0,0,1,13.28,10.861s2.412,6.281,2.175,10.624-3.862,8.693-4.106,10.136.244,5.312.244,6.762-1.213,1.931-2.636,1.687a9.187,9.187,0,0,1-2.419-.725,40.374,40.374,0,0,1-5.793,6.518c-2.168,1.812-4.752.5-7.124-1.318a9.181,9.181,0,0,0-2.531,5.872,22.152,22.152,0,0,0,.725,5.793s-8.225-7.447-11.336-12.278-3.137-12.285-3.137-12.311c0-2.333,1.41-4.752,1.318-7.25-.112-3.954-1.595-7.658-.593-11.613a20.583,20.583,0,0,1,3.875-7.586C161.309,148.86,168.163,147.245,174.9,149.275Z" transform="translate(-97.631 -142.277)" fill="#fff" stroke="#263238" stroke-linecap="round" stroke-linejoin="round" stroke-width="1"></path>       <path id="Caminho_25923" data-name="Caminho 25923" d="M172.062,207.888c-.962-2.412-1.687-5.068-1.687-5.068s-.725,5.793.237,8.693c.494,1.483,1.18,3.341,1.727,4.8a9.807,9.807,0,0,1,2.254-3.954,22.651,22.651,0,0,1-2.531-4.475Z" transform="translate(-103.725 -160.819)" fill="#263238" stroke="#263238" stroke-linecap="round" stroke-linejoin="round" stroke-width="1"></path>       <path id="Caminho_25924" data-name="Caminho 25924" d="M198.367,195.54l-1.206,2.412s-2.9-1.206-3.381-2.175" transform="translate(-111.794 -158.337)" fill="none" stroke="#263238" stroke-linecap="round" stroke-linejoin="round" stroke-width="1"></path>       <path id="Caminho_25925" data-name="Caminho 25925" d="M201.171,190.74s0-2.9-4.831-2.9" transform="translate(-112.666 -155.712)" fill="none" stroke="#263238" stroke-linecap="round" stroke-linejoin="round" stroke-width="2"></path>       <path id="Caminho_25926" data-name="Caminho 25926" d="M188.365,160.136a21.263,21.263,0,0,0-13.28-10.861c-6.736-2.03-13.6-.415-18.078,5.147a20.583,20.583,0,0,0-3.875,7.566c-1,3.954.481,7.658.593,11.613a9.6,9.6,0,0,1-.362,2.7c3.124.389,7.975-1.022,11.863-4.35a10.242,10.242,0,0,0,6.057.191c6.736-2.175,4.462-9.319,13.148-9.8,4.086-.231,3.566-.079,5.075,1.213C188.918,161.586,188.365,160.136,188.365,160.136Z" transform="translate(-97.817 -142.277)" fill="#263238" stroke="#263238" stroke-linecap="round" stroke-linejoin="round" stroke-width="1"></path>       <path id="Caminho_25927" data-name="Caminho 25927" d="M170.808,182.979s-.3-4.752-3.546-4-5.022,5-4.139,8.759,5.325,3.005,5.325,3.005" transform="translate(-101.265 -152.663)" fill="#fff" stroke="#263238" stroke-linecap="round" stroke-linejoin="round" stroke-width="1"></path>       <path id="Caminho_25928" data-name="Caminho 25928" d="M140.31,176.81a35.864,35.864,0,0,1-12.054,10.624c-8.192,4.567-13.036,14.5-13.036,19.311a10.262,10.262,0,0,0,3.15,7.487s.962-5.793,3.862-8.93,6.762-6.518,6.762-6.518-1.213,4.824,4.1,7.25,11.586,6.274,12.311,9.411A27.37,27.37,0,0,1,146.13,221a21.575,21.575,0,0,0,2.9-14.5c-1.45-7.981-5.556-10.861-6.518-17.38S140.31,176.81,140.31,176.81Z" transform="translate(-85.01 -151.951)" fill="#263238" stroke="#263238" stroke-linecap="round" stroke-linejoin="round" stroke-width="1"></path>       <path id="Caminho_25929" data-name="Caminho 25929" d="M135.2,243.665s4.989,10.7,10.973,18.236,11.349,12.845,13.109,12.759,25.295-11.435,29.5-13.748,9.273-5.773,9.273-5.773,5.325-.751,6.406-1.634,5.1-3.954,5.1-3.954a33,33,0,0,0,5.694.745c1.74-.092,2.544-.507,1.575-.837s-2.195-.659-2.195-.659-.837-4.712-1.766-5.53-5.128-1.424-6.373-1.536-6.1,3.856-7.718,5.174a40.16,40.16,0,0,0-4.152,4.521l-30.179,4.409s-10.545-20.675-11.54-21.894-4.739-5.345-10.229-5.589-6.485,4.376-6.485,4.376" transform="translate(-91.822 -169.522)" fill="#6b6b6b" stroke="#263238" stroke-linecap="round" stroke-linejoin="round" stroke-width="1"></path>       <path id="Caminho_25930" data-name="Caminho 25930" d="M253.687,260.188a1,1,0,0,1-.877-.534l-7.078-13.583a.989.989,0,1,1,1.753-.916l7.078,13.557a1,1,0,0,1-.422,1.318,1.008,1.008,0,0,1-.455.158Z" transform="translate(-129.467 -175.072)" fill="#fff" stroke="#263238" stroke-linecap="round" stroke-linejoin="round" stroke-width="1"></path>       <path id="Caminho_25931" data-name="Caminho 25931" d="M202.439,262.064s5.325-.751,6.406-1.634,5.1-3.954,5.1-3.954a33,33,0,0,0,5.694.745c1.74-.092,2.544-.507,1.575-.837s-2.195-.659-2.195-.659-.837-4.712-1.766-5.53-5.128-1.424-6.373-1.536-6.1,3.856-7.718,5.174a40.162,40.162,0,0,0-4.152,4.521l-30.179,4.409a57.048,57.048,0,0,0-3.519-6.927l-17.254,9.6c.8,1.167,1.641,2.313,2.5,3.394,5.984,7.533,11.349,12.845,13.109,12.759s25.295-11.435,29.5-13.748S202.439,262.064,202.439,262.064Z" transform="translate(-96.206 -176.446)" fill="#fff" stroke="#263238" stroke-linecap="round" stroke-linejoin="round" stroke-width="1"></path>       <path id="Caminho_25932" data-name="Caminho 25932" d="M245.08,251.35a19.52,19.52,0,0,1,4.047.705c.652.4,1.832,3.678,1.832,3.678" transform="translate(-129.284 -177.365)" fill="#fff" stroke="#263238" stroke-linecap="round" stroke-linejoin="round" stroke-width="1"></path>       <line id="Linha_799" data-name="Linha 799" x1="4.548" y1="2.353" transform="translate(118.268 76.918)" fill="#fff" stroke="#263238" stroke-linecap="round" stroke-linejoin="round" stroke-width="1"></line>       <path id="Caminho_25933" data-name="Caminho 25933" d="M348.105,373l-5.055,68.543h2.419s10.1-68.76,10.1-67.884S348.105,373,348.105,373Z" transform="translate(-162.685 -218.84)" fill="#fff" stroke="#263238" stroke-linecap="round" stroke-linejoin="round" stroke-width="1"></path>       <path id="Caminho_25934" data-name="Caminho 25934" d="M350.5,373l-.422,5.714h7.092c.428-2.834.712-4.613.778-4.989C357.567,374.457,350.5,373,350.5,373Z" transform="translate(-165.082 -218.84)" fill="#263238" stroke="#263238" stroke-linecap="round" stroke-linejoin="round" stroke-width="1"></path>       <path id="Caminho_25935" data-name="Caminho 25935" d="M421.187,373l5.055,68.543h-2.419s-10.1-68.76-10.1-67.884S421.187,373,421.187,373Z" transform="translate(-186.779 -218.84)" fill="#fff" stroke="#263238" stroke-linecap="round" stroke-linejoin="round" stroke-width="1"></path>       <path id="Caminho_25936" data-name="Caminho 25936" d="M421.616,378.714,421.194,373s-7.072,1.457-7.454.725c.072.349.356,2.155.784,4.989Z" transform="translate(-186.786 -218.84)" fill="#263238" stroke="#263238" stroke-linecap="round" stroke-linejoin="round" stroke-width="1"></path>       <path id="Caminho_25937" data-name="Caminho 25937" d="M427.831,274.217h-.217a4.4,4.4,0,0,0-4.4,4.37c-.046,8.337-.369,26.488-2.195,35.589-2.412,12.081-2.636,14.282-2.636,14.282s8.133-8.324,11.646-25.46,3.3-28.781,3.3-28.781L430.243,274Z" transform="translate(-188.368 -185.087)" fill="#8f00fc " stroke="#263238" stroke-linecap="round" stroke-linejoin="round" stroke-width="1"></path>       <path id="Caminho_25938" data-name="Caminho 25938" d="M402.416,274.092a4.37,4.37,0,0,0-4.192,3.869c-.844,7.52-3.005,24.636-6.189,35.365-4.178,14.058-15.818,16.253-22.632,16.912-4.976.481-22.257,1.786-31.213,2.452a5.932,5.932,0,0,0-5.47,5.9h0s25.921,4.831,42.4,3.737,24.827,1.094,28.781-10.545,3.513-26.145,3.3-36.031A209.606,209.606,0,0,0,405.217,274Z" transform="translate(-159.163 -185.087)" fill="#8f00fc " stroke="#263238" stroke-linecap="round" stroke-linejoin="round" stroke-width="1"></path>       <path id="Caminho_25939" data-name="Caminho 25939" d="M160.724,373l5.048,68.543H163.36s-10.11-68.76-10.11-67.884S160.724,373,160.724,373Z" transform="translate(-97.976 -218.84)" fill="#fff" stroke="#263238" stroke-linecap="round" stroke-linejoin="round" stroke-width="1"></path>       <path id="Caminho_25940" data-name="Caminho 25940" d="M161.123,378.273,160.734,373s-7.072,1.457-7.454.725c.066.33.323,1.977.718,4.574Z" transform="translate(-97.986 -218.84)" fill="#263238" stroke="#263238" stroke-linecap="round" stroke-linejoin="round" stroke-width="1"></path>       <path id="Caminho_25941" data-name="Caminho 25941" d="M87.638,373,82.59,441.543H85s10.11-68.76,10.11-67.884S87.638,373,87.638,373Z" transform="translate(-73.885 -218.84)" fill="#fff" stroke="#263238" stroke-linecap="round" stroke-linejoin="round" stroke-width="1"></path>       <path id="Caminho_25942" data-name="Caminho 25942" d="M90.049,373l-.389,5.273h7.124c.4-2.59.659-4.244.718-4.574C97.134,374.457,90.049,373,90.049,373Z" transform="translate(-76.295 -218.84)" fill="#263238" stroke="#263238" stroke-linecap="round" stroke-linejoin="round" stroke-width="1"></path>       <path id="Caminho_25943" data-name="Caminho 25943" d="M79.745,274.217h.217a4.4,4.4,0,0,1,4.4,4.4c.046,8.337.369,26.488,2.195,35.589,2.419,12.081,2.636,14.282,2.636,14.282S81.063,320.135,77.544,303s-3.3-28.781-3.3-28.781L77.326,274Z" transform="translate(-71.04 -185.087)" fill="#8f00fc " stroke="#263238" stroke-linecap="round" stroke-linejoin="round" stroke-width="1"></path>       <path id="Caminho_25944" data-name="Caminho 25944" d="M74.291,274.092a4.356,4.356,0,0,1,4.192,3.862c.85,7.52,3.012,24.636,6.2,35.365,4.172,14.058,15.818,16.253,22.626,16.912,4.976.481,22.257,1.786,31.213,2.452a5.932,5.932,0,0,1,5.477,5.9h0s-25.928,4.831-42.4,3.737-24.82,1.094-28.775-10.545-3.519-26.139-3.3-36.024A207.605,207.605,0,0,1,71.5,274Z" transform="translate(-69.382 -185.087)" fill="#8f00fc " stroke="#263238" stroke-linecap="round" stroke-linejoin="round" stroke-width="1"></path>     </g>     <g id="freepik--Floor--inject-37" transform="translate(390.568 1038.183)">       <line id="Linha_800" data-name="Linha 800" x2="248.165" fill="none" stroke="#263238" stroke-linecap="round" stroke-linejoin="round" stroke-width="1"></line>     </g>   </g> </svg>