<svg xmlns="http://www.w3.org/2000/svg" width="348.033" height="307.973" viewBox="0 0 348.033 307.973">   <g id="Grupo_8460" data-name="Grupo 8460" transform="translate(-1297.085 -759.023)">     <path id="Caminho_25829" data-name="Caminho 25829" d="M359.105,101.4s12.448,24.9,15.561,37.345-1.035,30.086-1.035,34.233,7.259,32.163,11.406,38.9,3.633,10.379,3.633,10.379-11.414,5.7-17.638,7.78l-6.24,2.07s-17.116-30.078-18.151-38.9,6.224-32.156,7.259-50.307S353.9,90.51,359.105,101.4Z" transform="translate(1197.599 685.005)" fill="#fff" stroke="#263238" stroke-miterlimit="10" stroke-width="1"></path>     <path id="Caminho_25830" data-name="Caminho 25830" d="M242.484,218.21s-9.336,2.816-12.682,5.641-34.1,52.7-35.789,56.928,3.112,14.37,10.426,20.851,11.841,25.932,11.841,25.932l-19.731,69.9H335.209c.576-3.369-1.665-14.666-16.066-34.669-6.224-8.613-10.426-14.37-10.426-14.37l1.976-5.921s8.449-5.641,14.37-22.827,9.585-39.173,10.426-49.015,1.408-25.675-3.112-35.229-16.338-11.842-16.338-11.842-37.485-6.481-41.15-7.321S242.484,218.21,242.484,218.21Z" transform="translate(1231.532 659.079)" fill="#8f00fc " stroke="#263238" stroke-miterlimit="10" stroke-width="1"></path>     <path id="Caminho_25831" data-name="Caminho 25831" d="M240.931,375.24l-3.781,57.527H243.2l1.136-57.527Z" transform="translate(1221.882 623.755)" fill="#fff" stroke="#263238" stroke-miterlimit="10" stroke-width="1"></path>     <path id="Caminho_25832" data-name="Caminho 25832" d="M248.68,375.24l2.007,57.527h6.053l-4.66-57.527Z" transform="translate(1219.321 623.755)" fill="#fff" stroke="#263238" stroke-miterlimit="10" stroke-width="1"></path>     <path id="Caminho_25833" data-name="Caminho 25833" d="M328.61,421.13c.14,1.47.233,2.933.28,4.349" transform="translate(1201.579 613.568)" fill="none" stroke="#263238" stroke-miterlimit="10" stroke-width="1"></path>     <path id="Caminho_25834" data-name="Caminho 25834" d="M321.75,388.06a159.475,159.475,0,0,1,4.738,20.867" transform="translate(1203.102 620.909)" fill="none" stroke="#263238" stroke-miterlimit="10" stroke-width="1"></path>     <path id="Caminho_25835" data-name="Caminho 25835" d="M309.24,402.5c.226,7.78.132,18.182-1.4,26.056" transform="translate(1206.19 617.704)" fill="none" stroke="#263238" stroke-miterlimit="10" stroke-width="1"></path>     <path id="Caminho_25836" data-name="Caminho 25836" d="M308.87,388.06s.21,2.334.4,6.038" transform="translate(1205.961 620.909)" fill="none" stroke="#263238" stroke-miterlimit="10" stroke-width="1"></path>     <path id="Caminho_25837" data-name="Caminho 25837" d="M316.08,377.418A127.963,127.963,0,0,0,327.315,369" transform="translate(1204.36 625.14)" fill="none" stroke="#263238" stroke-miterlimit="10" stroke-width="1"></path>     <path id="Caminho_25838" data-name="Caminho 25838" d="M328.524,377.912s-13.787,2.918-32.98.584S274,375.64,274,375.64s.778,4.147,10.114,5.7,17.4,4.193,42.418,2.49A4.735,4.735,0,0,0,328.524,377.912Z" transform="translate(1213.701 623.666)" fill="#fff" stroke="#263238" stroke-miterlimit="10" stroke-width="1"></path>     <path id="Caminho_25839" data-name="Caminho 25839" d="M208.19,283s-15.319,5.944-19.987,8.278-6.738,11.927-6.224,17.895,3.89,29.044,3.89,33.2,5.446,7,11.414,8.294,17.373,2.855,21.785,1.043,7.92-9.8,8.107-20.851-3.96-31.518-5.236-39.835S208.19,283,208.19,283Z" transform="translate(1234.145 644.23)" fill="#fff" stroke="#263238" stroke-miterlimit="10" stroke-width="1"></path>     <path id="Caminho_25840" data-name="Caminho 25840" d="M223.372,213.83s-10.706-9.336-11.554-10.425.28-3.664.28-3.664S220,191,220,189.307s-2.256-.84-3.945.568c0,0,1.12-3.665-.288-3.665s-4.481,2.567-6.224,3.983a9.46,9.46,0,0,0-2.513,3.937s.288-6.512-1.688-5.664-2.536,5.913-3.384,8.737-3.112,10.706-3.112,10.706l1.688,3.945-4.225-3.112s-.568-10.114-.848-12.122-2.816-1.128-2.816,4.513a78.825,78.825,0,0,0,1.128,12.962c.28,1.128,18.883,14.938,20.291,16.338a38.968,38.968,0,0,0,5.073,3.665s-3.945,12.682-7.329,21.139-7.609,18.6-8.737,25.083,5.073,18.315,5.921,19.723,8.169,7.329,11.554.848,7.329-34.949,8.737-47.063,2.256-21.139,3.112-24.8-.28-16.066-1.408-18.883-6.271-3.89-7.959-7.539-3.89-7.679-5-4.015.28,5.073,1.408,7.609S223.372,213.83,223.372,213.83Z" transform="translate(1231.762 665.715)" fill="#fff" stroke="#263238" stroke-miterlimit="10" stroke-width="1"></path>     <path id="Caminho_25841" data-name="Caminho 25841" d="M210.648,196.39a31.392,31.392,0,0,1-.56,5.042c-.568,3.112-1.128,6.769-1.128,6.769l3.664,4.5" transform="translate(1228.138 663.455)" fill="none" stroke="#263238" stroke-miterlimit="10" stroke-width="1"></path>     <path id="Caminho_25842" data-name="Caminho 25842" d="M220.621,190.92s-1.93,2.287-2.91,3.486-2.84,3.058-2.84,3.058-1.642,7.313-1.642,7.648a36.21,36.21,0,0,0,3.058,3.711" transform="translate(1227.191 664.669)" fill="none" stroke="#263238" stroke-miterlimit="10" stroke-width="1"></path>     <line id="Linha_776" data-name="Linha 776" x2="3.548" y2="2.7" transform="translate(1432.306 877.569)" fill="none" stroke="#263238" stroke-miterlimit="10" stroke-width="1"></line>     <line id="Linha_777" data-name="Linha 777" y1="7.78" x2="8.815" transform="translate(1436.111 873.523)" fill="none" stroke="#263238" stroke-miterlimit="10" stroke-width="1"></line>     <path id="Caminho_25843" data-name="Caminho 25843" d="M225.36,230.31s7.259,3.369,7.516,8.037-2.07,6.224-2.07,6.224" transform="translate(1224.498 655.926)" fill="none" stroke="#263238" stroke-miterlimit="10" stroke-width="1"></path>     <path id="Caminho_25844" data-name="Caminho 25844" d="M268.854,212.993s-14.37,2.249-16.066,4.5-2.816,27.06-3.112,45.125,2.256,28.787,2.256,28.787L240.09,315.366l5.641,3.945s49.6-49.6,56.648-59.464S330,226.586,330,224.057s-13.53-7.329-18.042-8.449-11.834-1.128-19.723-1.976S268.854,212.993,268.854,212.993Z" transform="translate(1221.229 659.775)" fill="#fff" stroke="#263238" stroke-miterlimit="10" stroke-width="1"></path>     <line id="Linha_778" data-name="Linha 778" x1="12.122" y2="13.872" transform="translate(1473.176 937.259)" fill="none" stroke="#263238" stroke-miterlimit="10" stroke-width="1"></line>     <path id="Caminho_25845" data-name="Caminho 25845" d="M248.789,104.43S236,119.85,236,125.094s0,13.444-1.961,16.4-9.515,6.224-7.874,9.834a7.733,7.733,0,0,0,5.267,4.264s4.925,17.381,7.547,21.645,8.558,4.917,11.149,4.264,8.854-4.264,8.854-4.264,7.874,15.413,8.2,17.708-7.547,47.553-7.547,52.128,1.315,5.905,1.315,5.905,34.762-48.868,38.372-53.458,6.559-7.866,6.559-7.866-8.2-10.822-11.149-18.673-3.937-10.169-2.3-12.448,4.256-5.9,4.256-5.9-25.9-30.172-34.428-40.994S251.745,100.5,248.789,104.43Z" transform="translate(1224.371 684.265)" fill="#fff" stroke="#263238" stroke-miterlimit="10" stroke-width="1"></path>     <path id="Caminho_25846" data-name="Caminho 25846" d="M268.38,196.476l10.612-7.166-7.259,11.927Z" transform="translate(1214.949 665.027)" fill="#263238" stroke="#263238" stroke-miterlimit="10" stroke-width="1"></path>     <line id="Linha_779" data-name="Linha 779" x1="1.128" y2="2.925" transform="translate(1467.66 820.135)" fill="none" stroke="#263238" stroke-linecap="round" stroke-miterlimit="10" stroke-width="1"></line>     <path id="Caminho_25847" data-name="Caminho 25847" d="M254.779,149.368s-7,2.031-10.589-1.128" transform="translate(1220.319 674.143)" fill="none" stroke="#263238" stroke-linecap="round" stroke-miterlimit="10" stroke-width="2"></path>     <path id="Caminho_25848" data-name="Caminho 25848" d="M254.588,103.68a8.033,8.033,0,0,0-.856.98s-2.645,3.2-5.532,7.173c3.33,3.112,11.9,10.939,15.047,12.5C266.974,126.2,256.276,106.574,254.588,103.68Z" transform="translate(1219.428 684.035)" fill="#263238"></path>     <path id="Caminho_25849" data-name="Caminho 25849" d="M300,161.193s2.684,7.632,5.314,9.974,4.668,0,7.313-3.517.583-7.9-.584-7.9-12-2.334-12-2.334Z" transform="translate(1207.929 672.106)" fill="#263238" stroke="#263238" stroke-miterlimit="10" stroke-width="1"></path>     <path id="Caminho_25850" data-name="Caminho 25850" d="M286.08,164.892s1.642,6.224,6.224,4.59,4.59-7.212,4.59-7.212" transform="translate(1211.02 671.029)" fill="none" stroke="#263238" stroke-miterlimit="10" stroke-width="1"></path>     <path id="Caminho_25851" data-name="Caminho 25851" d="M245.63,138.567s4.513-3.828,8.34.677" transform="translate(1219.999 676.627)" fill="none" stroke="#263238" stroke-linecap="round" stroke-miterlimit="10" stroke-width="2"></path>     <path id="Caminho_25852" data-name="Caminho 25852" d="M250.271,152.571c0,1.432-.451,2.591-1.011,2.591s-1.019-1.159-1.019-2.591.459-2.591,1.019-2.591S250.271,151.139,250.271,152.571Z" transform="translate(1219.419 673.757)" fill="#263238"></path>     <path id="Caminho_25853" data-name="Caminho 25853" d="M236.37,176.019s3.377,2.474,7-3.159" transform="translate(1222.054 668.678)" fill="none" stroke="#263238" stroke-linecap="round" stroke-miterlimit="10" stroke-width="1"></path>     <path id="Caminho_25854" data-name="Caminho 25854" d="M247.73,95.451s11.8,21.007,17.381,28.857,31.479,23.94,33.455,25.581,6.886.654,8.2-.327,14.782-5.578,19.023-14.432,8.558-30.825,3.275-41.648S308.408,76.756,299.22,75.775a46.471,46.471,0,0,0-16.066.98s-4.264-1.634-9.842,1.315-6.885,4.59-6.885,4.59S254.616,86.271,247.73,95.451Z" transform="translate(1219.532 690.295)" fill="#fff" stroke="#263238" stroke-miterlimit="10" stroke-width="1"></path>     <path id="Caminho_25855" data-name="Caminho 25855" d="M299.57,74s6.559-4.917,11.81-6.224,20,1.968,25.247,4.917,17.716,29.518,20.011,38.045-2.956,22.959-3.283,31.479,10.5,37.392,11.81,40.994,1.634,3.61-6.224,8.2-28.211,9.515-33.136,11.141-10.161-10.5-13.452-22.3-2.3-24.9.988-42.3,5.571-33.128,3.929-46.246S306.129,73.331,299.57,74Z" transform="translate(1208.025 692.07)" fill="#fff" stroke="#263238" stroke-miterlimit="10" stroke-width="1"></path>     <path id="Caminho_25856" data-name="Caminho 25856" d="M293.25,77.12A32.856,32.856,0,0,1,305.7,95.793c2.949,12.448,6.886,18.673,9.834,21.007" transform="translate(1209.428 689.93)" fill="none" stroke="#263238" stroke-miterlimit="10" stroke-width="1"></path>     <path id="Caminho_25857" data-name="Caminho 25857" d="M271.75,84.71S294.8,92.187,304.3,107.926" transform="translate(1214.2 688.246)" fill="none" stroke="#263238" stroke-miterlimit="10" stroke-width="1"></path>     <ellipse id="Elipse_137" data-name="Elipse 137" cx="12.962" cy="30.436" rx="12.962" ry="30.436" transform="translate(1349.739 825.447) rotate(-19.85)" fill="#fff" stroke="#263238" stroke-miterlimit="10" stroke-width="1"></ellipse>     <ellipse id="Elipse_138" data-name="Elipse 138" cx="12.962" cy="30.436" rx="12.962" ry="30.436" transform="translate(1351.162 825.169) rotate(-19.85)" fill="#fff" stroke="#263238" stroke-miterlimit="10" stroke-width="1"></ellipse>     <line id="Linha_780" data-name="Linha 780" x1="0.124" y2="2.591" transform="translate(1373.456 860.654)" fill="none" stroke="#263238" stroke-linecap="round" stroke-miterlimit="10" stroke-width="1"></line>     <line id="Linha_781" data-name="Linha 781" x1="1.416" y2="28.888" transform="translate(1373.745 828.475)" fill="none" stroke="#263238" stroke-linecap="round" stroke-miterlimit="10" stroke-width="1"></line>     <line id="Linha_782" data-name="Linha 782" x1="1.019" y2="18.4" transform="translate(1370.391 836.318)" fill="none" stroke="#263238" stroke-linecap="round" stroke-miterlimit="10" stroke-width="1"></line>     <line id="Linha_783" data-name="Linha 783" x1="0.148" y2="1.572" transform="translate(1385.383 871.555)" fill="none" stroke="#263238" stroke-linecap="round" stroke-miterlimit="10" stroke-width="1"></line>     <line id="Linha_784" data-name="Linha 784" x1="0.895" y2="9.554" transform="translate(1385.858 858.468)" fill="none" stroke="#263238" stroke-linecap="round" stroke-miterlimit="10" stroke-width="1"></line>     <path id="Caminho_25858" data-name="Caminho 25858" d="M138.93,219.852l9.352,25.932,5.8-3.4-12.76-23.434Z" transform="translate(1243.683 658.447)" fill="#263238" stroke="#263238" stroke-miterlimit="10" stroke-width="1"></path>     <path id="Caminho_25859" data-name="Caminho 25859" d="M203.236,302.934S178.713,289.124,172.8,281.8a122.149,122.149,0,0,1-8.177-10.993s-1.968-15.786-2.816-20.571-7.049-14.378-8.177-17.762a48.375,48.375,0,0,1-1.968-9.017c-.28-2.256-3.384-1.688-4.793,1.408s.848,8.457,1.128,10.433a23.838,23.838,0,0,0,1.128,4.225s-8.457-7.889-9.336-8.457-2.816-.56-3.377,2.536,1.968,7.049,1.968,7.049-4.225,3.112-4.225,5.073a36.74,36.74,0,0,0,.56,5.073s-1.968,6.761-1.688,8.457,2.816,6.761,2.816,6.761-3.112.28-3.945-.56-2.816-5.361-3.945-4.232-.56,5.361,0,6.769,3.112,1.408,4.793,3.377,9.3,2.256,10.706,3.112,16.914,16.338,24.243,23.387,28.46,27.908,29.868,30.444,5.361,5.633,5.361,5.633Z" transform="translate(1246.264 657.751)" fill="#fff" stroke="#263238" stroke-miterlimit="10" stroke-width="1"></path>     <line id="Linha_785" data-name="Linha 785" x2="7.329" y2="6.481" transform="translate(1395.389 897.299)" fill="none" stroke="#263238" stroke-miterlimit="10" stroke-width="1"></line>     <line id="Linha_786" data-name="Linha 786" x2="4.513" y2="7.329" transform="translate(1384.676 898.427)" fill="none" stroke="#263238" stroke-miterlimit="10" stroke-width="1"></line>     <line id="Linha_787" data-name="Linha 787" x2="3.664" y2="6.761" transform="translate(1381.011 908.573)" fill="none" stroke="#263238" stroke-miterlimit="10" stroke-width="1"></line>     <path id="Caminho_25860" data-name="Caminho 25860" d="M308.273,264.45,263.148,318s-3.664-1.688-5.073-.28a11.132,11.132,0,0,0-1.976,2.536L247.93,318s-18.6-8.457-22.267-8.457-4.793.568-4.793,1.976.288,54.392.288,58.056.28,7.049,5.073,8.737,20.011,4.225,24.235,3.945,7.609-2.816,8.737-5.073,1.128-11.834,1.128-11.834,11.834,1.408,20.291-5.641,35.509-46.783,39.454-52.128a260.64,260.64,0,0,0,15.218-24.243" transform="translate(1225.495 648.347)" fill="#8f00fc " stroke="#263238" stroke-miterlimit="10" stroke-width="1"></path>     <path id="Caminho_25861" data-name="Caminho 25861" d="M251.253,331.77l-3.283-.9s-18.6-8.457-22.267-8.457-4.793.568-4.793,1.976.288,54.392.288,58.056.28,7.049,5.073,8.737,20.011,4.225,24.235,3.945,7.609-2.816,8.737-5.073,1.128-11.834,1.128-11.834-3.112-34.949-8.737-45.942Z" transform="translate(1225.485 635.482)" fill="#fff" stroke="#263238" stroke-miterlimit="10" stroke-width="1"></path>     <path id="Caminho_25862" data-name="Caminho 25862" d="M351.68,311.912s8.737-6.481,12.122-12.682" transform="translate(1196.458 640.627)" fill="none" stroke="#263238" stroke-miterlimit="10" stroke-width="1"></path>     <path id="Caminho_25863" data-name="Caminho 25863" d="M281.86,356.08c.272.646.529,1.307.778,1.992" transform="translate(1211.956 628.008)" fill="none" stroke="#263238" stroke-miterlimit="10" stroke-width="1"></path>     <path id="Caminho_25864" data-name="Caminho 25864" d="M266.19,336.18a35.728,35.728,0,0,1,10.892,12.736" transform="translate(1215.436 632.425)" fill="none" stroke="#263238" stroke-miterlimit="10" stroke-width="1"></path>     <path id="Caminho_25865" data-name="Caminho 25865" d="M276.34,335.09s5.633,3.665,7.321,8.457" transform="translate(1213.182 632.667)" fill="none" stroke="#263238" stroke-miterlimit="10" stroke-width="1"></path>     <path id="Caminho_25866" data-name="Caminho 25866" d="M265.976,167.991c-.272,0-.381-.054-.4-.132a9.45,9.45,0,0,0,3.991-3.112c1.774-3.244-2.062-5.018-5.306-4.131,0,0-8.753,1.789-13.18,3.563s-5.119,5.578.778,6.465c.358.054.724.093,1.113.117h.163a20.556,20.556,0,0,0,3.89-.241c.63,0,.965.078.591.265-1.19.6-3.781,2.186-.195,2.591s11.935-2.988,12.728-3.983S267.174,167.991,265.976,167.991Z" transform="translate(1219.563 671.447)" fill="#8f00fc "></path>     <path id="Caminho_25867" data-name="Caminho 25867" d="M265.976,167.991c-.272,0-.381-.054-.4-.132a9.45,9.45,0,0,0,3.991-3.112c1.774-3.244-2.062-5.018-5.306-4.131,0,0-8.753,1.789-13.18,3.563s-5.119,5.578.778,6.465c.358.054.724.093,1.113.117h.163a20.556,20.556,0,0,0,3.89-.241c.63,0,.965.078.591.265-1.19.6-3.781,2.186-.195,2.591s11.935-2.988,12.728-3.983S267.174,167.991,265.976,167.991Z" transform="translate(1219.563 671.447)" fill="#fff" opacity="0.6"></path>     <g id="freepik--Table--inject-39" transform="translate(1297.085 1056.537)">       <line id="Linha_788" data-name="Linha 788" x2="348.033" fill="none" stroke="#263238" stroke-miterlimit="10" stroke-width="1"></line>     </g>     <g id="freepik--Bottles--inject-39" transform="translate(1302.039 987.4)">       <path id="Caminho_25868" data-name="Caminho 25868" d="M171.4,441.35H160.508a2.614,2.614,0,0,1-2.606-2.334L153,390h25.939l-4.933,49.016a2.614,2.614,0,0,1-2.606,2.334Z" transform="translate(-61.478 -366.921)" fill="#8f00fc " stroke="#263238" stroke-miterlimit="10" stroke-width="1"></path>       <rect id="Retângulo_4865" data-name="Retângulo 4865" width="12.402" height="4.653" transform="translate(98.189 74.444)" fill="#263238" stroke="#263238" stroke-miterlimit="10" stroke-width="1"></rect>       <rect id="Retângulo_4866" data-name="Retângulo 4866" width="42.27" height="27.752" rx="5" transform="translate(43.3 51.344)" fill="#fff" stroke="#263238" stroke-miterlimit="10" stroke-width="1"></rect>       <rect id="Retângulo_4867" data-name="Retângulo 4867" width="27.931" height="13.405" transform="translate(44.98 56.923)" fill="#263238" stroke="#263238" stroke-miterlimit="10" stroke-width="1"></rect>       <rect id="Retângulo_4868" data-name="Retângulo 4868" width="34.754" height="6.224" transform="translate(47.19 45.12)" fill="#fff" stroke="#263238" stroke-miterlimit="10" stroke-width="1"></rect>       <line id="Linha_789" data-name="Linha 789" y1="3.633" x2="18.929" transform="translate(47.711 45.12)" fill="none" stroke="#263238" stroke-miterlimit="10" stroke-width="1"></line>       <line id="Linha_790" data-name="Linha 790" y1="6.224" x2="22.563" transform="translate(54.97 45.385)" fill="none" stroke="#263238" stroke-miterlimit="10" stroke-width="1"></line>       <line id="Linha_791" data-name="Linha 791" y1="3.633" x2="8.302" transform="translate(73.386 47.975)" fill="none" stroke="#263238" stroke-miterlimit="10" stroke-width="1"></line>       <rect id="Retângulo_4869" data-name="Retângulo 4869" width="3.205" height="3.377" transform="translate(17.703 1.73)" fill="#8f00fc " stroke="#263238" stroke-miterlimit="10" stroke-width="1"></rect>       <rect id="Retângulo_4870" data-name="Retângulo 4870" width="6.411" height="1.517" transform="translate(16.186 4.772)" fill="#8f00fc " stroke="#263238" stroke-miterlimit="10" stroke-width="1"></rect>       <path id="Caminho_25869" data-name="Caminho 25869" d="M74.761,395.525A17.786,17.786,0,0,0,62,379.856l-1.774-.513-3.991-.482H54.322l-3.991.482-1.774.513a17.793,17.793,0,0,0-12.783,15.669,120.507,120.507,0,0,0,.272,22.679c.879,7.461,2.163,14.891,3.556,19.256a8.761,8.761,0,0,0,8.348,6.084H62.616a8.76,8.76,0,0,0,8.34-6.083c1.393-4.366,2.677-11.8,3.556-19.257a119.859,119.859,0,0,0,.249-22.679Z" transform="translate(-35.367 -364.449)" fill="#fff" stroke="#263238" stroke-miterlimit="10" stroke-width="1"></path>       <rect id="Retângulo_4871" data-name="Retângulo 4871" width="8.862" height="7.088" transform="translate(14.964 7.814)" fill="#8f00fc " stroke="#263238" stroke-miterlimit="10" stroke-width="1"></rect>       <rect id="Retângulo_4872" data-name="Retângulo 4872" width="10.122" height="7.088" transform="translate(14.334 5.612)" fill="#8f00fc " stroke="#263238" stroke-miterlimit="10" stroke-width="1"></rect>       <path id="Caminho_25870" data-name="Caminho 25870" d="M54.806,363.42s9.453-.171,13.5.335l-.171-1.556s-6.574-2.023-9.111-1.852-5.119.342-4.279,2.871Z" transform="translate(-39.632 -360.337)" fill="#8f00fc " stroke="#263238" stroke-miterlimit="10" stroke-width="1"></path>       <ellipse id="Elipse_139" data-name="Elipse 139" cx="13.187" cy="22.15" rx="13.187" ry="22.15" transform="translate(6.242 23.468)" fill="#8f00fc " stroke="#263238" stroke-miterlimit="10" stroke-width="1"></ellipse>     </g>     <g id="freepik--Plant--inject-39" transform="translate(1568.888 978.081)">       <path id="Caminho_25871" data-name="Caminho 25871" d="M404.655,392.575a19.452,19.452,0,0,1-7.78-4.622,22.562,22.562,0,0,0-5.361-4.03c-4.264-2.14-13.164-3.89-13.164-3.89s7.827-1.782,13.88-.358,10.317,7.469,10.317,7.469-1.782-2.49-4.271-9.959-2.49-23.489-2.49-23.489a50.474,50.474,0,0,1,8.893,14.946,74.782,74.782,0,0,1,3.563,15.3s-.716-12.448,1.424-19.575,8.185-16.012,8.185-16.012.35,15.662-2.14,24.2S412.155,385,412.155,385a30.6,30.6,0,0,1,7.469-11.74c5.337-4.987,18.151-9.251,18.151-9.251s-6.014,11.009-9.9,14.572-7.827,7.469-7.827,7.469,4.271-3.206,11.74-3.206,16.339,4.987,16.339,4.987-19.023-.117-26.025,3.112a17.981,17.981,0,0,1-4.427,1.486l-3.89.685a19.334,19.334,0,0,1-9.157-.583Z" transform="translate(-378.35 -348.36)" fill="#8f00fc " stroke="#263238" stroke-linecap="round" stroke-linejoin="round" stroke-width="1"></path>       <line id="Linha_792" data-name="Linha 792" x1="4.38" y1="3.034" transform="translate(21.839 37.742)" fill="none" stroke="#263238" stroke-linecap="round" stroke-linejoin="round" stroke-width="1"></line>       <line id="Linha_793" data-name="Linha 793" x1="6.069" y1="16.183" transform="translate(24.873 26.951)" fill="none" stroke="#263238" stroke-linecap="round" stroke-linejoin="round" stroke-width="1"></line>       <line id="Linha_794" data-name="Linha 794" y1="21.582" x2="3.369" transform="translate(30.942 21.551)" fill="none" stroke="#263238" stroke-linecap="round" stroke-linejoin="round" stroke-width="1"></line>       <line id="Linha_795" data-name="Linha 795" y1="14.16" x2="11.468" transform="translate(30.942 28.974)" fill="none" stroke="#263238" stroke-linecap="round" stroke-linejoin="round" stroke-width="1"></line>       <line id="Linha_796" data-name="Linha 796" y1="5.454" x2="12.106" transform="translate(33.338 37.4)" fill="none" stroke="#263238" stroke-linecap="round" stroke-linejoin="round" stroke-width="1"></line>       <path id="Caminho_25872" data-name="Caminho 25872" d="M426.053,449.441H400.471a4.03,4.03,0,0,1-4.015-4.341l3.112-39.679H427l3.112,39.679a4.03,4.03,0,0,1-4.061,4.341Z" transform="translate(-382.367 -361.026)" fill="#fff" stroke="#263238" stroke-linecap="round" stroke-linejoin="round" stroke-width="1"></path>       <path id="Caminho_25873" data-name="Caminho 25873" d="M411.444,429.749c-.607,8.706-3.206,15.615-5.8,15.428s-4.2-7.383-3.594-16.082,3.2-15.615,5.788-15.436S412.051,421.042,411.444,429.749Z" transform="translate(-383.583 -362.854)" fill="none" stroke="#8f00fc " stroke-miterlimit="10" stroke-width="1"></path>       <path id="Caminho_25874" data-name="Caminho 25874" d="M420.194,429.749c.607,8.706,3.205,15.615,5.8,15.428s4.2-7.383,3.595-16.082-3.2-15.615-5.789-15.436S419.587,421.042,420.194,429.749Z" transform="translate(-387.61 -362.854)" fill="none" stroke="#8f00fc " stroke-miterlimit="10" stroke-width="1"></path>     </g>   </g> </svg>