<svg xmlns="http://www.w3.org/2000/svg" width="271.381" height="249.072" viewBox="0 0 271.381 249.072">   <g id="Seamstress-bro_1_" data-name="Seamstress-bro (1)" transform="translate(-15.13 -40.643)">     <g id="freepik--background-simple--inject-36" transform="translate(21.146 40.643)">       <path id="Caminho_3949" data-name="Caminho 3949" d="M30.548,227.381s11.423,45.094,47.982,58.494S145.157,274.1,174.7,263.9c15.469-5.337,31.5.986,47.307,0,50.541-3.13,79.3-78.246,64.817-126.914-12.536-42.132-40.921-68.252-87.548-82.01S120.183,29.42,72.922,59.217,18.036,168.575,30.548,227.381Z" transform="translate(-25.2 -40.643)" fill="#8f00fc "></path>       <path id="Caminho_3950" data-name="Caminho 3950" d="M30.548,227.381s11.423,45.094,47.982,58.494S145.157,274.1,174.7,263.9c15.469-5.337,31.5.986,47.307,0,50.541-3.13,79.3-78.246,64.817-126.914-12.536-42.132-40.921-68.252-87.548-82.01S120.183,29.42,72.922,59.217,18.036,168.575,30.548,227.381Z" transform="translate(-25.2 -40.643)" fill="#fff" opacity="0.7"></path>     </g>     <g id="freepik--Picture--inject-36" transform="translate(94.112 42.889)">       <path id="Caminho_3951" data-name="Caminho 3951" d="M204.076,46.3v94.384H153.564V46.3h50.512m1.764-1.764H151.8v97.906h54.039V44.54Z" transform="translate(-151.8 -44.54)" fill="none" stroke="#a2a7a9" stroke-miterlimit="10" stroke-width="1"></path>       <path id="Caminho_3952" data-name="Caminho 3952" d="M158.96,66.768a12.506,12.506,0,0,0,1.6.991,25.2,25.2,0,0,0,3.429,1.458c.576.2,1.153.386,1.769.576a9.746,9.746,0,0,0,1.833.369V70.03a9.7,9.7,0,0,1-1.764-.45c-.576-.184-1.153-.392-1.729-.611a24.95,24.95,0,0,1-3.326-1.556,11.646,11.646,0,0,1-1.5-1.014,3.879,3.879,0,0,1-1.153-1.3l-.081-.184a.326.326,0,0,0-.04-.19,1.327,1.327,0,0,1,0-.369,1.5,1.5,0,0,1,.334-.68,4.248,4.248,0,0,1,1.395-.98,8.067,8.067,0,0,1,.824-.357c.271-.121.576-.2.859-.3a15.484,15.484,0,0,1,1.729-.507l.882-.213.893-.15c.576-.115,1.2-.144,1.8-.207a47.312,47.312,0,0,1,7.314.311,72.744,72.744,0,0,0,7.452.386A50.425,50.425,0,0,0,188.936,61a53.226,53.226,0,0,0,7.274-1.729l.888-.294c.294-.1.576-.231.876-.346s.576-.236.865-.38a8.956,8.956,0,0,0,.847-.427,7.492,7.492,0,0,0,1.545-1.153,2.465,2.465,0,0,0,.323-.369,2.017,2.017,0,0,0,.259-.415,1.21,1.21,0,0,0,.069-.98l-.115.058a1.06,1.06,0,0,1-.2.8,1.469,1.469,0,0,1-.271.334,1.758,1.758,0,0,1-.329.288,6.622,6.622,0,0,1-1.556.87c-.265.133-.576.219-.841.329a8.441,8.441,0,0,1-.865.288c-.288.081-.576.179-.87.259l-.888.219c-2.369.576-4.79.951-7.21,1.291-1.216.133-2.426.311-3.643.4s-2.426.2-3.648.254a63.718,63.718,0,0,1-7.337-.133c-1.291-.075-2.594-.167-3.908-.2a15.159,15.159,0,0,0-.1-2.605,8.645,8.645,0,0,0-.357-1.643,4.312,4.312,0,0,0-.173-.421c-.052-.133-.179-.317-.225-.415h0a.16.16,0,0,1,.058-.1,1.642,1.642,0,0,1,.369-.415,5.186,5.186,0,0,1,.542-.421,12.488,12.488,0,0,1,1.28-.686,14.409,14.409,0,0,1,2.882-1.1,14.012,14.012,0,0,1,3.02-.5,8.34,8.34,0,0,1,2.986.467,15.118,15.118,0,0,1,5.3,3.233l.1-.086a15.56,15.56,0,0,0-2.369-2.15,13.383,13.383,0,0,0-2.824-1.637,9.222,9.222,0,0,0-3.222-.7,14.986,14.986,0,0,0-3.256.329,17.527,17.527,0,0,0-3.153.951,8.721,8.721,0,0,0-1.5.8,3.8,3.8,0,0,0-1.32,1.377,1.51,1.51,0,0,0-.156.657,1.233,1.233,0,0,0,.242.744c.086.133.121.161.184.265a2.116,2.116,0,0,1,.156.3,9.8,9.8,0,0,1,.53,1.4c.242.784.455,1.591.669,2.4a28.5,28.5,0,0,0-3.21.1c-.628.081-1.251.127-1.867.265l-.928.179-.911.242a17.443,17.443,0,0,0-1.787.576,11.482,11.482,0,0,0-1.729.738,4.692,4.692,0,0,0-1.556,1.2,2,2,0,0,0-.432.98,1.729,1.729,0,0,0,.04.576,2.13,2.13,0,0,0,.063.259l.115.236a4.381,4.381,0,0,0,1.3,1.418Z" transform="translate(-154.188 -47.183)" fill="#919191"></path>       <path id="Caminho_3953" data-name="Caminho 3953" d="M185.049,91.333a12.77,12.77,0,0,0-.576-1.228c-.444-.8-.922-1.562-1.424-2.305-.824-1.222-1.683-2.409-2.571-3.585.357-.657.7-1.314,1-1.994.363-.784.7-1.579.986-2.4a7.453,7.453,0,0,0,2.53.058,8.991,8.991,0,0,0,2.749-.916c.4-.225.813-.444,1.2-.686a12.535,12.535,0,0,0,1.153-.8,10.623,10.623,0,0,0,2.017-1.988,4.611,4.611,0,0,0,.715-1.28,2.462,2.462,0,0,0,.138-.738,1.153,1.153,0,0,0-.207-.732l-.115.075a1.527,1.527,0,0,1-.357,1.153,5.187,5.187,0,0,1-.859.922c-.161.144-.323.282-.5.409s-.334.271-.519.392l-.53.38-.576.352-2.236,1.429a7.106,7.106,0,0,1-2.305,1.014,6.461,6.461,0,0,1-2.513.069,7.96,7.96,0,0,1-2.432-.859,13.257,13.257,0,0,1-4.034-3.458l-.11.075a12.738,12.738,0,0,0,1.7,2.15,11.948,11.948,0,0,0,2.133,1.775,8.928,8.928,0,0,0,2.559,1.118c-1.153,1.585-2.179,3.193-3.268,4.755-.622.9-1.233,1.8-1.885,2.64a7.222,7.222,0,0,1-1.032,1.153,1.608,1.608,0,0,1-.5.3h-.2a.335.335,0,0,0-.086-.063,3.533,3.533,0,0,1-.726-1.222,14.1,14.1,0,0,1-.49-1.539c-.277-1.055-.49-2.138-.674-3.228-.392-2.173-.657-4.38-.893-6.588h-.133c0,2.225.156,4.449.369,6.674.121,1.112.271,2.225.5,3.331a14.69,14.69,0,0,0,.421,1.666,6.27,6.27,0,0,0,.329.836,2.957,2.957,0,0,0,.576.836l.236.2a2.7,2.7,0,0,0,.317.156,2.438,2.438,0,0,0,.357.063,1.6,1.6,0,0,0,.334-.035,2.617,2.617,0,0,0,.962-.45,8.236,8.236,0,0,0,1.331-1.216,17.055,17.055,0,0,0,2-2.772c.161-.277.311-.576.467-.847.842,1.153,1.66,2.363,2.432,3.579.484.761.939,1.533,1.354,2.305a11.332,11.332,0,0,1,.576,1.2,3.809,3.809,0,0,1,.2.617c.063.259.063.277-.086.38a3.049,3.049,0,0,1-1.216.236h-1.331c-.888-.046-1.781-.133-2.669-.242-1.781-.213-3.556-.5-5.331-.8s-3.539-.628-5.308-.963l-2.657-.507-.663-.127-.34-.063h-.524a.525.525,0,0,0-.15.075.5.5,0,0,0-.19.213.885.885,0,0,0-.046.11v.081a.921.921,0,0,0,0,.271,2.744,2.744,0,0,0,.052.4c.052.248.121.467.19.692.576,1.758,1.337,3.389,2.052,5.049l2.161,4.951c1.4,3.308,2.766,6.634,3.827,10.034a28.562,28.562,0,0,1,1.153,5.13,7.3,7.3,0,0,1-.058,2.438,2.225,2.225,0,0,1-.444.922c-.271.305-.576.628-.9.934-1.256,1.251-2.617,2.421-3.971,3.6s-2.726,2.357-4.034,3.6a47.613,47.613,0,0,0-3.8,3.9,17.793,17.793,0,0,0-1.6,2.225,7.239,7.239,0,0,0-.986,2.553l.133.029a10.972,10.972,0,0,1,2.882-4.4,47.118,47.118,0,0,1,3.96-3.608c2.761-2.305,5.643-4.444,8.328-6.916.334-.323.651-.634.986-1a3.574,3.574,0,0,0,.749-1.47,8.454,8.454,0,0,0,.121-2.934,28.551,28.551,0,0,0-1.3-5.372,107.283,107.283,0,0,0-4.109-10.063l-2.248-4.916c-.743-1.631-1.522-3.274-2.109-4.922a5.106,5.106,0,0,1-.179-.576,1.2,1.2,0,0,1,0-.127l.236.035.663.115,2.663.461c1.781.305,3.556.576,5.343.865s3.573.5,5.377.68c.9.081,1.8.15,2.715.173h1.366a4.107,4.107,0,0,0,.7-.081,2.011,2.011,0,0,0,.709-.248.622.622,0,0,0,.288-.38.876.876,0,0,0-.046-.415A3.96,3.96,0,0,0,185.049,91.333ZM165,90.757Z" transform="translate(-154.456 -56.487)" fill="#919191"></path>       <path id="Caminho_3954" data-name="Caminho 3954" d="M225.283,100.831a1.89,1.89,0,0,0-.732-.455,5.4,5.4,0,0,0-1.481-.219c-1.919,0-3.764.271-5.614.421-.928.081-1.85.144-2.772.138a10.826,10.826,0,0,1-1.372-.075,4.681,4.681,0,0,1-1.3-.311,6.081,6.081,0,0,1-2.156-1.62,13.475,13.475,0,0,1-1.585-2.259,25.065,25.065,0,0,1-2.132-5.141l-.127.035a24.782,24.782,0,0,0,2.029,5.233,13.47,13.47,0,0,0,1.568,2.352,6.5,6.5,0,0,0,2.248,1.764,5.251,5.251,0,0,0,1.4.375,11.74,11.74,0,0,0,1.418.11c.945,0,1.885,0,2.824-.075,1.862-.11,3.735-.352,5.55-.288a4.952,4.952,0,0,1,1.274.207,1.251,1.251,0,0,1,.45.277.64.64,0,0,1,.138.409,2.015,2.015,0,0,1-.04.259c-.035.086-.052.167-.1.259a5.647,5.647,0,0,1-.329.576c-.248.369-.53.732-.818,1.1-1.153,1.429-2.426,2.8-3.671,4.19-2.5,2.772-5,5.562-7.3,8.542a50.147,50.147,0,0,0-3.239,4.611c-.254.4-.49.813-.715,1.233s-.444.847-.657,1.28-.38.882-.576,1.326a8.164,8.164,0,0,0-.455,1.389,9.17,9.17,0,0,0-.346,2.986,4.954,4.954,0,0,0,.092.772l.207.767c.15.478.317.888.484,1.337.674,1.729,1.366,3.458,2.012,5.216s1.28,3.458,1.821,5.245a46.285,46.285,0,0,1,1.262,5.372,27.892,27.892,0,0,1,.323,5.5,25.721,25.721,0,0,1-.888,5.47l.121.04a23.513,23.513,0,0,0,1.395-5.452,29.136,29.136,0,0,0,0-5.671,41.233,41.233,0,0,0-1.055-5.568c-.5-1.821-1.084-3.614-1.729-5.383s-1.32-3.51-1.971-5.251c-.15-.432-.346-.882-.478-1.291l-.167-.576c-.035-.2-.052-.409-.081-.617a7.9,7.9,0,0,1,.265-2.547c.092-.432.259-.853.386-1.28a8.071,8.071,0,0,1,.519-1.251c.2-.409.375-.824.576-1.228s.427-.807.657-1.2a50.377,50.377,0,0,1,3.066-4.611c2.213-2.974,4.645-5.764,7.1-8.605,1.216-1.412,2.461-2.807,3.625-4.294.288-.375.576-.749.836-1.153a6.386,6.386,0,0,0,.369-.651,3.018,3.018,0,0,0,.138-.4,2.059,2.059,0,0,0,.052-.427A1.32,1.32,0,0,0,225.283,100.831Z" transform="translate(-174.766 -64.354)" fill="#919191"></path>     </g>     <g id="freepik--Dresses--inject-36" transform="translate(26.051 65.88)">       <path id="Caminho_3955" data-name="Caminho 3955" d="M63.3,90.43v.161c.092,1.153.576,8.155-1.026,10.161-1.729,2.184-5.827,4.657-12.1,5.971s-10.778,2.035-12.818,6.7-3.643,19.665-3.643,19.665a12.132,12.132,0,0,0,4.663,2.473c2.767.732,4.513.438,5.533.732l1.02.288,2.478-4.663,4.369,23.014-.144,8.155s-7.141,15.147-9.614,28.4-3.17,53.734-3.32,60-.576,12.1-.576,12.1l-.144,24.685h74.287s-.294-58.333-3.06-76.972S96.971,164.7,96.389,163.1a8.646,8.646,0,0,1-.732-2.911,40.08,40.08,0,0,0-.438-5.683,6.277,6.277,0,0,1-.288-1.729s2.473-6.409,2.473-9.758v-6.438l1.729,3.06s1.729,1.452,5.389-.15,6.011-5.677,7.164-6.553a8.546,8.546,0,0,0,1.6-1.452s-2.916-11.216-5.533-17.481-12.68-8.449-16.023-9.614-9.758-3.2-10.778-5.1S80.2,90.43,80.2,90.43Z" transform="translate(-33.71 -86.972)" fill="#263238" stroke="#263238" stroke-miterlimit="10" stroke-width="1"></path>       <path id="Caminho_3956" data-name="Caminho 3956" d="M97.392,136.579l1.729,3.06s1.729,1.452,5.389-.15,6.023-5.677,7.176-6.553a8.546,8.546,0,0,0,1.6-1.452s-2.916-11.216-5.533-17.481-12.68-8.449-16.023-9.614-9.758-3.2-10.778-5.1S80.2,90.43,80.2,90.43H63.3v.161c.092,1.153.576,8.155-1.026,10.161-1.729,2.184-5.827,4.657-12.1,5.971s-10.778,2.035-12.818,6.7-3.643,19.665-3.643,19.665a12.133,12.133,0,0,0,4.663,2.473c2.767.732,4.513.438,5.533.732l1.02.288,2.478-4.663,4.369,23.014s26.046,5.285,43.111-2.184c0,0,2.473-6.409,2.473-9.758Z" transform="translate(-33.71 -86.972)" fill="#fff" stroke="#263238" stroke-miterlimit="10" stroke-width="1"></path>       <path id="Caminho_3957" data-name="Caminho 3957" d="M86.347,110.8c10.063.38,16.224-3.758,19.3-6.686-3.458-1.193-9.031-3.066-9.977-4.818-1.02-1.9-.755-8.864-.755-8.864H78.03v.161c.092,1.153.576,8.155-1.026,10.161-1.389,1.729-4.259,3.654-8.524,5.032C70.664,107.542,75.771,110.4,86.347,110.8Z" transform="translate(-48.44 -86.972)" fill="#858585" stroke="#263238" stroke-linecap="round" stroke-linejoin="round" stroke-width="1"></path>       <path id="Caminho_3958" data-name="Caminho 3958" d="M101.931,87.888c0,1.9-3.775,3.458-8.438,3.458s-8.444-1.539-8.444-3.458,3.781-3.458,8.444-3.458S101.931,85.992,101.931,87.888Z" transform="translate(-55.46 -84.43)" fill="#a3a3a3" stroke="#263238" stroke-linecap="round" stroke-linejoin="round" stroke-width="1"></path>       <path id="Caminho_3959" data-name="Caminho 3959" d="M77.095,205.15a4.668,4.668,0,0,0-.767,3.268c.19,2.109.19,6.144.19,6.144s-.957,11.337-.767,21.135" transform="translate(-51.51 -135.572)" fill="none" stroke="gray" stroke-miterlimit="10" stroke-width="1"></path>       <path id="Caminho_3960" data-name="Caminho 3960" d="M71.526,218.15s-3.654,21.135-2.305,31.123" transform="translate(-48.627 -141.08)" fill="none" stroke="gray" stroke-miterlimit="10" stroke-width="1"></path>       <path id="Caminho_3961" data-name="Caminho 3961" d="M55.584,267.92c-.063.576-.11,1.118-.144,1.671" transform="translate(-42.916 -162.164)" fill="none" stroke="gray" stroke-miterlimit="10" stroke-width="1"></path>       <path id="Caminho_3962" data-name="Caminho 3962" d="M64.915,221.82s-6.34,12.052-8.415,23.429" transform="translate(-43.365 -142.634)" fill="none" stroke="gray" stroke-miterlimit="10" stroke-width="1"></path>       <path id="Caminho_3963" data-name="Caminho 3963" d="M120.244,273.68c-.035.824-.081,1.625-.144,2.386" transform="translate(-70.309 -164.605)" fill="none" stroke="gray" stroke-miterlimit="10" stroke-width="1"></path>       <path id="Caminho_3964" data-name="Caminho 3964" d="M117.1,208.48v6.726a257.442,257.442,0,0,1,1.937,27.515" transform="translate(-69.038 -136.983)" fill="none" stroke="gray" stroke-miterlimit="10" stroke-width="1"></path>       <path id="Caminho_3965" data-name="Caminho 3965" d="M131.77,204.15l.767,7.3s5,17.095,5,30.927" transform="translate(-75.253 -135.149)" fill="none" stroke="gray" stroke-miterlimit="10" stroke-width="1"></path>       <path id="Caminho_3966" data-name="Caminho 3966" d="M151.46,261.68a29.6,29.6,0,0,1,.369,4.305" transform="translate(-83.594 -159.521)" fill="none" stroke="gray" stroke-miterlimit="10" stroke-width="1"></path>       <path id="Caminho_3967" data-name="Caminho 3967" d="M136.1,202.15c0,.576.963,7.493.963,7.493a185.3,185.3,0,0,1,7.072,22.478" transform="translate(-77.087 -134.301)" fill="none" stroke="gray" stroke-miterlimit="10" stroke-width="1"></path>       <path id="Caminho_3968" data-name="Caminho 3968" d="M280.214,85.17A16.714,16.714,0,0,0,263.5,101.884V277.955h5.187V101.884a11.527,11.527,0,0,1,11.527-11.527H387.7V85.17Z" transform="translate(-131.059 -84.743)" fill="#fff" stroke="#263238" stroke-miterlimit="10" stroke-width="1"></path>       <path id="Caminho_3969" data-name="Caminho 3969" d="M413.41,129.478l-3.3-2.277a31.088,31.088,0,0,1-10.732-13.452l-2.749-6.409h-4.363l-2.772,6.409A31.123,31.123,0,0,1,378.759,127.2l-3.3,2.277a7.389,7.389,0,0,0-2.974,6.092h43.872a7.389,7.389,0,0,0-2.951-6.092Zm-17.734,3.395H376.817c0-2.023,3.228-3.9,4.5-4.928l2.305-1.844a24.864,24.864,0,0,0,7.412-10.887l1.9-5.187h3.02l1.9,5.187a24.864,24.864,0,0,0,7.435,10.876l2.305,1.844c1.28,1.032,4.438,2.882,4.438,4.928Z" transform="translate(-177.231 -94.136)" fill="#fff" stroke="#263238" stroke-linejoin="round" stroke-width="1"></path>       <path id="Caminho_3970" data-name="Caminho 3970" d="M409.067,97.549v-4.7s2.686-2.017,2.686-4.934-2.236-4.034-4.7-3.135" transform="translate(-191.873 -84.449)" fill="none" stroke="#263238" stroke-linecap="round" stroke-linejoin="round" stroke-width="1"></path>       <path id="Caminho_3971" data-name="Caminho 3971" d="M379.5,119.8l5.078,14.6,6.213-15.942s10.611,10.864,14.1,12.766,6.663,4.444,7.619,9.521,6.029,55.832,6.029,55.832l-11.74.634,1.061,28.76H360.463L363.345,196H352.21s6.98-54.9,8.887-58.713S379.5,119.8,379.5,119.8Z" transform="translate(-168.641 -98.847)" fill="#263238" stroke="#263238" stroke-linejoin="round" stroke-width="1"></path>       <path id="Caminho_3972" data-name="Caminho 3972" d="M391.3,122.885l2.859,15.55,6.029-10.155-3.81-10.789Z" transform="translate(-185.201 -98.436)" fill="#fff" stroke="#263238" stroke-linejoin="round" stroke-width="1"></path>       <path id="Caminho_3973" data-name="Caminho 3973" d="M415.282,118.46l-5.262,10.547,5.395,10.472,4.444-17.458Z" transform="translate(-193.131 -98.847)" fill="#fff" stroke="#263238" stroke-linejoin="round" stroke-width="1"></path>       <line id="Linha_264" data-name="Linha 264" x1="2.542" y1="48.235" transform="translate(235.614 50.155)" fill="none" stroke="gray" stroke-miterlimit="10" stroke-width="1"></line>       <line id="Linha_265" data-name="Linha 265" y1="46.967" x2="4.444" transform="translate(194.676 50.155)" fill="none" stroke="#263238" stroke-linejoin="round" stroke-width="1"></line>       <path id="Caminho_3974" data-name="Caminho 3974" d="M391.621,129.478l-3.274-2.277a31.123,31.123,0,0,1-10.732-13.452l-2.749-6.409H370.48l-2.749,6.409A31.124,31.124,0,0,1,357,127.2l-3.3,2.277a7.389,7.389,0,0,0-2.974,6.092H394.6a7.389,7.389,0,0,0-2.974-6.092Zm-17.734,3.395H355.034c0-2.023,3.222-3.9,4.5-4.928l2.305-1.844a24.835,24.835,0,0,0,7.429-10.876l1.9-5.187H374.2l1.9,5.187a24.854,24.854,0,0,0,7.429,10.876l2.305,1.844c1.28,1.032,4.444,2.882,4.444,4.928Z" transform="translate(-168.012 -94.136)" fill="#fff" stroke="#263238" stroke-linejoin="round" stroke-width="1"></path>       <path id="Caminho_3975" data-name="Caminho 3975" d="M387.257,97.549v-4.7s2.692-2.017,2.692-4.934-2.242-4.034-4.709-3.135" transform="translate(-182.633 -84.449)" fill="none" stroke="#263238" stroke-linecap="round" stroke-linejoin="round" stroke-width="1"></path>       <path id="Caminho_3976" data-name="Caminho 3976" d="M357.7,119.8l5.078,14.6,6.207-15.942s10.611,10.864,14.1,12.766,6.663,4.444,7.614,9.521,6.029,55.832,6.029,55.832l-11.74.634,1.089,28.76H338.653L341.535,196H330.4s6.985-54.9,8.887-58.713S357.7,119.8,357.7,119.8Z" transform="translate(-159.401 -98.847)" fill="#8f00fc " stroke="#263238" stroke-linejoin="round" stroke-width="1"></path>       <path id="Caminho_3977" data-name="Caminho 3977" d="M369.5,122.885l2.853,15.55,6.034-10.155-3.81-10.789Z" transform="translate(-175.965 -98.436)" fill="#fff" stroke="#263238" stroke-linejoin="round" stroke-width="1"></path>       <path id="Caminho_3978" data-name="Caminho 3978" d="M393.476,118.46l-5.256,10.547,5.395,10.472,4.444-17.458Z" transform="translate(-183.896 -98.847)" fill="#fff" stroke="#263238" stroke-linejoin="round" stroke-width="1"></path>       <line id="Linha_266" data-name="Linha 266" x1="2.542" y1="48.235" transform="translate(223.044 50.155)" fill="none" stroke="#263238" stroke-linejoin="round" stroke-width="1"></line>       <line id="Linha_267" data-name="Linha 267" y1="46.967" x2="4.438" transform="translate(182.111 50.155)" fill="none" stroke="#263238" stroke-linejoin="round" stroke-width="1"></line>       <path id="Caminho_3979" data-name="Caminho 3979" d="M342.179,132l-3.458-2.409a32.852,32.852,0,0,1-11.337-14.2L324.5,108.62h-4.611l-2.882,6.772a32.852,32.852,0,0,1-11.4,14.2L302.151,132A7.8,7.8,0,0,0,299,138.435h46.333A7.8,7.8,0,0,0,342.179,132Zm-18.732,3.585H303.535c0-2.138,3.406-4.115,4.755-5.187l2.409-1.965a26.252,26.252,0,0,0,7.85-11.487l2.011-5.481h3.187l2.011,5.481a26.062,26.062,0,0,0,7.85,11.487l2.409,1.948c1.349,1.089,4.686,3.066,4.686,5.187Z" transform="translate(-146.097 -94.678)" fill="#fff" stroke="#263238" stroke-linejoin="round" stroke-width="1"></path>       <path id="Caminho_3980" data-name="Caminho 3980" d="M337.563,98.278V93.3s2.836-2.127,2.836-5.187-2.334-4.277-4.968-3.343" transform="translate(-161.532 -84.446)" fill="none" stroke="#263238" stroke-linecap="round" stroke-linejoin="round" stroke-width="1"></path>       <path id="Caminho_3981" data-name="Caminho 3981" d="M301.968,136.17s5.279,6.086,11.913,6.19c7.043.11,15.319-6.052,15.319-6.052a34.645,34.645,0,0,0,6.132,4.236c3.683,2.011,6.109,4.951,8.04,10.057,2.156,5.683,6.916,21.152,6.916,21.152l-13.706.669,1.879,31.083H292.879l3.089-31.665H282.66s4.409-20.9,6.421-24.927S301.968,136.17,301.968,136.17Z" transform="translate(-139.176 -106.349)" fill="#fff" stroke="#263238" stroke-linejoin="round" stroke-width="1"></path>       <line id="Linha_268" data-name="Linha 268" y1="16.616" x2="0.697" transform="translate(156.792 48.875)" fill="none" stroke="#263238" stroke-linejoin="round" stroke-width="1"></line>       <line id="Linha_269" data-name="Linha 269" x1="1.072" y1="16.138" transform="translate(196.336 49.936)" fill="none" stroke="#263238" stroke-linejoin="round" stroke-width="1"></line>     </g>     <g id="freepik--Table--inject-36" transform="translate(18.339 267.334)">       <line id="Linha_270" data-name="Linha 270" x2="265.124" fill="none" stroke="#263238" stroke-linecap="round" stroke-linejoin="round" stroke-width="1"></line>     </g>     <g id="freepik--Plant--inject-36" transform="translate(15.63 217.658)">       <path id="Caminho_3982" data-name="Caminho 3982" d="M30.932,369.657a14.145,14.145,0,0,0-1.6-5.856c-1.464-2.4-6.784-4.127-9.579-2.928a38.562,38.562,0,0,0-4.127,1.994,31.378,31.378,0,0,1,7.85,3.729,19.792,19.792,0,0,0,7.452,3.06Z" transform="translate(-15.63 -353.156)" fill="#8f00fc " stroke="#263238" stroke-linecap="round" stroke-linejoin="round" stroke-width="1"></path>       <path id="Caminho_3983" data-name="Caminho 3983" d="M49.1,366a13.676,13.676,0,0,1-3.723-7.32c-.53-4.259,3.994-10.91,3.994-10.91a47.455,47.455,0,0,1,3.591,8.916C54.294,361.476,49.1,366,49.1,366Z" transform="translate(-28.214 -347.77)" fill="#8f00fc " stroke="#263238" stroke-linecap="round" stroke-linejoin="round" stroke-width="1"></path>       <path id="Caminho_3984" data-name="Caminho 3984" d="M62.331,370.495s-.8-3.994.669-6.784,5.32-2.53,9.176-1.331a21.612,21.612,0,0,0,5.06,1.2,57.4,57.4,0,0,1-8.386,4.657,51.386,51.386,0,0,1-6.519,2.259Z" transform="translate(-35.323 -353.596)" fill="#8f00fc " stroke="#263238" stroke-linecap="round" stroke-linejoin="round" stroke-width="1"></path>       <path id="Caminho_3985" data-name="Caminho 3985" d="M51.686,387.511a.346.346,0,0,1-.346-.346v-19.02a.346.346,0,0,1,.346-.346.34.34,0,0,1,.34.346v19.02a.34.34,0,0,1-.34.346Z" transform="translate(-30.758 -356.256)" fill="#263238"></path>       <path id="Caminho_3986" data-name="Caminho 3986" d="M54.454,388.4H54.4a.352.352,0,0,1-.294-.386c.069-.478,1.677-11.752,7.135-18.011a.346.346,0,0,1,.519.455c-5.326,6.1-6.957,17.533-6.968,17.648a.346.346,0,0,1-.34.294Z" transform="translate(-31.93 -357.147)" fill="#263238"></path>       <path id="Caminho_3987" data-name="Caminho 3987" d="M44.145,388.981h0a.34.34,0,0,1-.34-.346c0-.11.052-10.951-6.392-16.092a.346.346,0,0,1,.432-.536c6.7,5.366,6.651,16.178,6.645,16.634a.34.34,0,0,1-.346.34Z" transform="translate(-24.814 -358.014)" fill="#263238"></path>       <path id="Caminho_3988" data-name="Caminho 3988" d="M58.146,396.079a.257.257,0,0,1-.092,0,.346.346,0,0,1-.242-.421,22.293,22.293,0,0,1,3.112-6.5.352.352,0,0,1,.484-.075.346.346,0,0,1,.075.484,21.9,21.9,0,0,0-2.991,6.259.34.34,0,0,1-.346.254Z" transform="translate(-33.495 -365.244)" fill="#263238"></path>       <path id="Caminho_3989" data-name="Caminho 3989" d="M62,388.874s-.133-3.723,1.464-4.254,3.06.8,4.259,1.6,2.524,1.6,2.524,3.988a45.144,45.144,0,0,1-.928,6.789s-1.331-4.127-3.6-5.988A9.487,9.487,0,0,0,62,388.874Z" transform="translate(-35.272 -363.33)" fill="#8f00fc " stroke="#263238" stroke-linecap="round" stroke-linejoin="round" stroke-width="1"></path>       <path id="Caminho_3990" data-name="Caminho 3990" d="M42.119,397.084a.346.346,0,0,1-.329-.236,12.191,12.191,0,0,0-3.458-5.158.34.34,0,0,1-.058-.484.352.352,0,0,1,.484-.058,12.774,12.774,0,0,1,3.706,5.487.346.346,0,0,1-.225.432Z" transform="translate(-25.191 -366.117)" fill="#263238"></path>       <path id="Caminho_3991" data-name="Caminho 3991" d="M34.258,390.321a5.542,5.542,0,0,0-.8-4.133c-1.331-1.729-4.524-1.331-6.121.53s-3.856,7.452-3.856,7.452a12.649,12.649,0,0,1,6.916-2.53C34.12,391.641,34.258,390.321,34.258,390.321Z" transform="translate(-18.956 -363.578)" fill="#8f00fc " stroke="#263238" stroke-linecap="round" stroke-linejoin="round" stroke-width="1"></path>       <path id="Caminho_3992" data-name="Caminho 3992" d="M48.865,423.982H38.248L32.94,406.42H54.173Z" transform="translate(-22.963 -372.617)" fill="#fff" stroke="#263238" stroke-linecap="round" stroke-linejoin="round" stroke-width="1"></path>       <rect id="Retângulo_357" data-name="Retângulo 357" width="21.354" height="2.911" transform="translate(9.913 30.893)" fill="#fff" stroke="#263238" stroke-linecap="round" stroke-linejoin="round" stroke-width="1"></rect>     </g>     <g id="freepik--Threads--inject-36" transform="translate(232.841 237.225)">       <rect id="Retângulo_358" data-name="Retângulo 358" width="4.991" height="2.888" transform="translate(20.311)" fill="#fff" stroke="#263238" stroke-linecap="round" stroke-linejoin="round" stroke-width="1"></rect>       <path id="Caminho_3993" data-name="Caminho 3993" d="M434.574,415.064H415.71l4.467-29.694h9.931Z" transform="translate(-402.333 -383.266)" fill="#858585" stroke="#263238" stroke-linecap="round" stroke-linejoin="round" stroke-width="1"></path>       <line id="Linha_271" data-name="Linha 271" y1="4.864" x2="9.129" transform="translate(17.239 2.144)" fill="none" stroke="#263238" stroke-linecap="round" stroke-linejoin="round" stroke-width="1"></line>       <line id="Linha_272" data-name="Linha 272" y1="4.859" x2="9.129" transform="translate(17.239 4.628)" fill="none" stroke="#263238" stroke-linecap="round" stroke-linejoin="round" stroke-width="1"></line>       <line id="Linha_273" data-name="Linha 273" x1="9.233" y2="5.164" transform="translate(19.123 7.204)" fill="none" stroke="#263238" stroke-linecap="round" stroke-linejoin="round" stroke-width="1"></line>       <line id="Linha_274" data-name="Linha 274" y1="1.591" x2="3.176" transform="translate(18.83 13.954)" fill="none" stroke="#263238" stroke-linecap="round" stroke-linejoin="round" stroke-width="1"></line>       <line id="Linha_275" data-name="Linha 275" x1="13.302" y2="6.951" transform="translate(16.841 18.818)" fill="none" stroke="#263238" stroke-linecap="round" stroke-linejoin="round" stroke-width="1"></line>       <line id="Linha_276" data-name="Linha 276" y1="5.562" x2="10.622" transform="translate(18.23 22.887)" fill="none" stroke="#263238" stroke-linecap="round" stroke-linejoin="round" stroke-width="1"></line>       <line id="Linha_277" data-name="Linha 277" x1="2.582" y2="1.487" transform="translate(14.461 28.945)" fill="none" stroke="#263238" stroke-linecap="round" stroke-linejoin="round" stroke-width="1"></line>       <line id="Linha_278" data-name="Linha 278" x1="6.847" y2="3.573" transform="translate(24.288 26.76)" fill="none" stroke="#263238" stroke-linecap="round" stroke-linejoin="round" stroke-width="1"></line>       <rect id="Retângulo_359" data-name="Retângulo 359" width="4.991" height="2.888" transform="translate(6.934)" fill="#fff" stroke="#263238" stroke-linecap="round" stroke-linejoin="round" stroke-width="1"></rect>       <path id="Caminho_3994" data-name="Caminho 3994" d="M411.358,415.064H392.5l4.461-29.694H406.9Z" transform="translate(-392.5 -383.266)" fill="#fff" stroke="#263238" stroke-linecap="round" stroke-linejoin="round" stroke-width="1"></path>       <line id="Linha_279" data-name="Linha 279" y1="4.864" x2="9.129" transform="translate(3.862 2.144)" fill="none" stroke="#263238" stroke-linecap="round" stroke-linejoin="round" stroke-width="1"></line>       <line id="Linha_280" data-name="Linha 280" y1="4.859" x2="9.129" transform="translate(3.862 4.628)" fill="none" stroke="#263238" stroke-linecap="round" stroke-linejoin="round" stroke-width="1"></line>       <line id="Linha_281" data-name="Linha 281" x1="9.227" y2="5.164" transform="translate(5.746 7.204)" fill="none" stroke="#263238" stroke-linecap="round" stroke-linejoin="round" stroke-width="1"></line>       <line id="Linha_282" data-name="Linha 282" y1="1.591" x2="3.176" transform="translate(5.447 13.954)" fill="none" stroke="#263238" stroke-linecap="round" stroke-linejoin="round" stroke-width="1"></line>       <line id="Linha_283" data-name="Linha 283" x1="13.297" y2="6.951" transform="translate(3.464 18.818)" fill="none" stroke="#263238" stroke-linecap="round" stroke-linejoin="round" stroke-width="1"></line>       <line id="Linha_284" data-name="Linha 284" y1="5.562" x2="10.616" transform="translate(4.853 22.887)" fill="none" stroke="#263238" stroke-linecap="round" stroke-linejoin="round" stroke-width="1"></line>       <line id="Linha_285" data-name="Linha 285" x1="2.582" y2="1.487" transform="translate(1.078 28.945)" fill="none" stroke="#263238" stroke-linecap="round" stroke-linejoin="round" stroke-width="1"></line>       <line id="Linha_286" data-name="Linha 286" x1="6.847" y2="3.573" transform="translate(10.905 26.76)" fill="none" stroke="#263238" stroke-linecap="round" stroke-linejoin="round" stroke-width="1"></line>     </g>     <g id="freepik--Character--inject-36" transform="translate(60.608 102.58)">       <path id="Caminho_3995" data-name="Caminho 3995" d="M227.62,257.346s-22.858,4.415-29.008,5.954-8.455,6.15-10.565,11.337-17.1,38.04-17.867,39.959,4.035,3.072,9.988,5.187,9.412,4.421,11.141,2.115,6.15-11.147,6.15-11.147l-1.919,48.235h70.892l-3.078-50.333s2.692-39.192,2.5-40.731-23.631-10.761-26.132-10.951S227.62,257.346,227.62,257.346Z" transform="translate(-126.049 -194.209)" fill="#8f00fc "></path>       <g id="Grupo_764" data-name="Grupo 764" transform="translate(48.426 70.947)" opacity="0.4">         <path id="Caminho_3996" data-name="Caminho 3996" d="M215.835,391.62l-.115,2.951a246.058,246.058,0,0,0,68.794,1.072l-.179-2.882a241.623,241.623,0,0,1-68.5-1.141Z" transform="translate(-193.801 -322.215)" fill="#fff"></path>         <path id="Caminho_3997" data-name="Caminho 3997" d="M266.979,305.747c-1.343,1.187-13.637,11.729-27.878,12.68-15.083,1-28.172-6.686-28.241-6.732L193.6,300.48c-.38.853-.778,1.729-1.193,2.663l16.928,11c.576.334,13.971,8.207,29.971,7.158s29.2-13.02,29.757-13.527a1.41,1.41,0,0,0,.225-.265,52.571,52.571,0,0,1,5.153-6.311c.092-1.487.184-2.945.271-4.34A54.938,54.938,0,0,0,266.979,305.747Z" transform="translate(-183.926 -282.071)" fill="#fff"></path>         <path id="Caminho_3998" data-name="Caminho 3998" d="M178.877,335.76l-1.187,2.628,21.175,9.3c.53-1.02.991-1.925,1.32-2.565Z" transform="translate(-177.69 -298.55)" fill="#fff"></path>         <path id="Caminho_3999" data-name="Caminho 3999" d="M201.8,279.9c7.539,3.873,28.973,14.639,35.821,15.3s29.815-15.3,39.872-22.553c-.778-.427-1.775-.916-2.922-1.447C261,280.906,242.612,292.785,237.9,292.329c-5.643-.542-24.063-9.458-34.91-15.06C202.567,278.116,202.175,278.992,201.8,279.9Z" transform="translate(-187.904 -271.2)" fill="#fff"></path>         <path id="Caminho_4000" data-name="Caminho 4000" d="M217.6,351.131c.98.3,24.207,7.285,42.074,5.187,15.308-1.775,21.977-6.916,23.832-8.691l-.184-3.02s.069-1.02.19-2.726a10.991,10.991,0,0,0-1.839,3.527c-1.153,1.153-7.274,6.34-22.3,8.069-16.784,1.942-39.336-4.611-40.852-5.078l-1.112-.49L217.28,351l.156.075Z" transform="translate(-194.462 -301.143)" fill="#fff"></path>         <path id="Caminho_4001" data-name="Caminho 4001" d="M228.83,305.012c12.449,2.115,27.561-5.112,37.019-13.216,3.395-2.911,7.591-6.1,11.487-8.928.081-1.487.144-2.743.184-3.689-4.432,3.176-9.533,6.985-13.544,10.426-8.945,7.671-23.135,14.53-34.662,12.565-9.377-1.6-24.7-12.063-30.4-16.138-.334.767-.732,1.677-1.187,2.7C203.932,293.157,219.026,303.347,228.83,305.012Z" transform="translate(-186.18 -274.581)" fill="#fff"></path>         <path id="Caminho_4002" data-name="Caminho 4002" d="M284.873,417.077l-.179-2.882c-14.749.761-44.08,1.787-69.739-.306l-.115,2.882c11.383.922,23.458,1.245,34.679,1.245C263.755,418.017,276.6,417.5,284.873,417.077Z" transform="translate(-193.428 -331.65)" fill="#fff"></path>         <path id="Caminho_4003" data-name="Caminho 4003" d="M226.45,375.888c17.5,2.53,49.982.035,57.734-.622l-.519-8.536a7.82,7.82,0,0,0-.34.772,1.4,1.4,0,0,0-.075.767l.749,4.115c-7.493.628-40.132,3.112-57.14.651-3.372-.49-6.876-1.089-10.374-1.729l-.115,2.911C219.771,374.834,223.165,375.41,226.45,375.888Z" transform="translate(-194.077 -311.671)" fill="#fff"></path>         <path id="Caminho_4004" data-name="Caminho 4004" d="M204.52,331.772c1.153.68,17.337,10.236,34.656,8.167,17.567-2.092,29.239-13.585,29.728-14.075a1.153,1.153,0,0,0,.294-.432,7.172,7.172,0,0,1,1.331-1.568q.13-1.928.265-4.035a14.963,14.963,0,0,0-4.086,4.121c-1.418,1.343-12.374,11.256-27.873,13.106-16.564,1.983-32.7-7.694-32.852-7.792l-.075-.046L186.457,319c-.4.87-.8,1.729-1.187,2.628Z" transform="translate(-180.901 -291.45)" fill="#fff"></path>       </g>       <line id="Linha_287" data-name="Linha 287" y1="23.112" x2="4.795" transform="translate(71.411 93.43)" fill="#fff" stroke="#263238" stroke-linecap="round" stroke-linejoin="round" stroke-width="1"></line>       <path id="Caminho_4005" data-name="Caminho 4005" d="M211.93,265.309c6.916,4.824,27.089,18.662,30.916,18.345,3.5-.288,19.452-15.239,26.893-22.391-5.66-2.259-11.152-4.225-12.294-4.311-2.5-.19-12.1.386-12.1.386s-22.858,4.415-29.008,5.954A12.519,12.519,0,0,0,211.93,265.309Z" transform="translate(-143.77 -194.201)" fill="#fff" stroke="#263238" stroke-linecap="round" stroke-linejoin="round" stroke-width="1"></path>       <path id="Caminho_4006" data-name="Caminho 4006" d="M227.62,257.346s-22.858,4.415-29.008,5.954-8.455,6.15-10.565,11.337-17.1,38.04-17.867,39.959,4.035,3.072,9.988,5.187,9.412,4.421,11.141,2.115,6.15-11.147,6.15-11.147l-1.919,48.235h70.892l-3.078-50.333s2.692-39.192,2.5-40.731-23.631-10.761-26.132-10.951S227.62,257.346,227.62,257.346Z" transform="translate(-126.049 -194.209)" fill="none" stroke="#263238" stroke-linecap="round" stroke-linejoin="round" stroke-width="1"></path>       <path id="Caminho_4007" data-name="Caminho 4007" d="M296.143,259s-.576,11.337-3.078,28.051-2.5,15.942-2.5,23.631,1.919,32.276,1.919,32.276h3.078s-2.5-25.936-2.305-32.662,1.729-20.172,3.458-26.126,2.305-23.631,2.305-23.631Z" transform="translate(-177.085 -195.085)" fill="#fff" stroke="#263238" stroke-linecap="round" stroke-linejoin="round" stroke-width="1"></path>       <path id="Caminho_4008" data-name="Caminho 4008" d="M255.143,259.36l-4.092.945a112.023,112.023,0,0,0-.957,21.9c.772,10.761,1.919,14.023,1.919,14.023s.963-26.126,1.729-30.927S255.143,259.36,255.143,259.36Z" transform="translate(-159.854 -195.238)" fill="#fff" stroke="#263238" stroke-linecap="round" stroke-linejoin="round" stroke-width="1"></path>       <path id="Caminho_4009" data-name="Caminho 4009" d="M252.723,323.31s.386,12.1-.386,24.783-.767,23.827-.767,23.827l3.458.19s-.386-14.6-.386-26.9A124.213,124.213,0,0,0,252.723,323.31Z" transform="translate(-160.563 -222.33)" fill="#fff" stroke="#263238" stroke-linecap="round" stroke-linejoin="round" stroke-width="1"></path>       <path id="Caminho_4010" data-name="Caminho 4010" d="M262.9,264.386l.576-19.406h19.982l-.386,17.677" transform="translate(-165.363 -189.146)" fill="#fff" stroke="#263238" stroke-linecap="round" stroke-linejoin="round" stroke-width="1"></path>       <path id="Caminho_4011" data-name="Caminho 4011" d="M283.475,250.3l-4.859-5.3H263.631l-.421,14.19c1.118.438,3.775,1.043,8.4-.305,5.965-1.729,11.233-7.666,11.884-8.421Z" transform="translate(-165.494 -189.154)" fill="#263238" stroke="#263238" stroke-linecap="round" stroke-linejoin="round" stroke-width="1"></path>       <path id="Caminho_4012" data-name="Caminho 4012" d="M236.427,156.58c-4,4-7.354,9.539-7.521,14.409-.2,5.735-3.556,13.833-5.337,14.622a8.554,8.554,0,0,0-2.369,1.383s3.752,1.781,5.331,1.579a12.323,12.323,0,0,0,2.968-.761,29.053,29.053,0,0,1-1.977,2.375l-.79.79,3.158.79a16.473,16.473,0,0,1-3.752,1.775,11.673,11.673,0,0,1-2.571.4,6,6,0,0,0,4.547,4.743,17.533,17.533,0,0,0,7.308.576l-2.369,2.386s.576.576,4.542.79,5.925-.986,5.925-.986l24.3-.991a5.1,5.1,0,0,0,3.36,2.962c2.784.986,4.15,1.383,4.15,1.383s-.4-1.579-.576-2.369-.576-3.954-.576-3.954,1.383,3.556,7.9,3.758,8.691-3.556,8.691-3.556a5.251,5.251,0,0,1-3.988-2.225,11.313,11.313,0,0,1-1.781-2.968,12.147,12.147,0,0,0,4.547.8,7.216,7.216,0,0,0,3.556-1.585s-7.706-5.533-8.1-9.285-1.383-18.374-4.15-23.314-7.493-9.481-19.757-11.66c-6.622-1.153-13.579.767-19.366,3.988a24.719,24.719,0,0,0-5.308,4.15Z" transform="translate(-147.697 -148.105)" fill="#263238" stroke="#263238" stroke-linecap="round" stroke-linejoin="round" stroke-width="1"></path>       <path id="Caminho_4013" data-name="Caminho 4013" d="M280.2,194.07a64.842,64.842,0,0,1-30.074,13.043s.052,11.625,6.34,19.389c6.813,8.432,11,8.5,12.749,8.363,4.766-.375,14.484-11.631,14.916-13.59a102.055,102.055,0,0,0,1.078-14.161C285.213,202.329,279.547,199.079,280.2,194.07Z" transform="translate(-159.953 -167.578)" fill="#fff" stroke="#263238" stroke-linecap="round" stroke-linejoin="round" stroke-width="1"></path>       <path id="Caminho_4014" data-name="Caminho 4014" d="M243.2,211.016a.617.617,0,1,1,0-1.233c24.144-.669,32.824-14.04,32.91-14.178a.617.617,0,0,1,1.037.657c-.357.576-9.066,14.063-33.913,14.755Z" transform="translate(-156.754 -168.126)" fill="#263238"></path>       <path id="Caminho_4015" data-name="Caminho 4015" d="M262.73,228.78a11.1,11.1,0,0,0,4.207,0" transform="translate(-165.291 -182.283)" fill="none" stroke="#263238" stroke-linecap="round" stroke-linejoin="round" stroke-width="1"></path>       <path id="Caminho_4016" data-name="Caminho 4016" d="M293.42,228.324a11.775,11.775,0,0,0,4.853-.1" transform="translate(-178.293 -182.045)" fill="none" stroke="#263238" stroke-linecap="round" stroke-linejoin="round" stroke-width="1"></path>       <path id="Caminho_4017" data-name="Caminho 4017" d="M296.725,224.379c0,.957-.386,1.729-.87,1.729s-.865-.778-.865-1.729.386-1.729.865-1.729S296.725,223.428,296.725,224.379Z" transform="translate(-178.958 -179.686)" fill="#263238"></path>       <path id="Caminho_4018" data-name="Caminho 4018" d="M285.477,220.006a3,3,0,0,0-2.444-1.285c-2.023-.282-12.991.45-13.458.478l-.19.04a2.711,2.711,0,0,0-.34.173v-.058h-3.418v.058a2.714,2.714,0,0,0-.34-.173l-.19-.04c-.467-.029-11.435-.767-13.458-.478a3.034,3.034,0,0,0-2.444,1.285,1.683,1.683,0,0,0,0,1.579c.046.1.1.259.179.473.634,1.787,2.305,6.536,8.265,6.766h.784c5.942,0,7.395-2.807,8.282-5.464a5.509,5.509,0,0,0,.167-.657h.882a5.5,5.5,0,0,0,.167.657c.888,2.657,2.334,5.464,8.282,5.464h.784c5.948-.231,7.631-4.98,8.265-6.766.075-.213.133-.375.179-.473A1.683,1.683,0,0,0,285.477,220.006Zm-18.766.64h1.251a2.651,2.651,0,0,0-.231.784h-.79a2.649,2.649,0,0,0-.231-.79Zm-1.2,2.305c-.876,2.628-2.063,4.778-7.792,4.571-5.072-.2-6.5-4.2-7.107-5.913-.1-.277-.173-.49-.236-.617a.45.45,0,0,1-.035-.4c.052-.1.317-.444,1.487-.611a13.023,13.023,0,0,1,1.395-.052c2.939,0,9.02.357,11.671.536.3.167,1.182.8.617,2.5Zm18.795-1.96c-.063.127-.138.34-.236.617-.611,1.729-2.035,5.717-7.106,5.913-5.723.213-6.916-1.942-7.792-4.57-.576-1.729.317-2.305.617-2.49,3.222-.213,11.527-.7,13.066-.484,1.153.167,1.435.513,1.487.611a.433.433,0,0,1-.035.415Z" transform="translate(-159.474 -177.993)" fill="#fff" stroke="#263238" stroke-linecap="round" stroke-linejoin="round" stroke-width="1"></path>       <path id="Caminho_4019" data-name="Caminho 4019" d="M274.92,239.256s2.086,1.625,3.591,1.51a4.687,4.687,0,0,0,3.36-1.856" transform="translate(-170.455 -186.574)" fill="none" stroke="#263238" stroke-linecap="round" stroke-linejoin="round" stroke-width="1"></path>       <path id="Caminho_4020" data-name="Caminho 4020" d="M272.11,244.294s.847,2.778,6.023,2.547c3.666-.167,4.519-2.882,4.519-2.882" transform="translate(-169.265 -188.713)" fill="none" stroke="#263238" stroke-linecap="round" stroke-linejoin="round" stroke-width="1"></path>       <path id="Caminho_4021" data-name="Caminho 4021" d="M288,215.7s3.815-2.075,6.83-1.729a8.665,8.665,0,0,1,4.282,1.389" transform="translate(-175.996 -175.992)" fill="none" stroke="#263238" stroke-linecap="round" stroke-linejoin="round" stroke-width="2"></path>       <path id="Caminho_4022" data-name="Caminho 4022" d="M265.763,216.108a13.608,13.608,0,0,0-5.706-.922,14.708,14.708,0,0,0-5.187,1.389" transform="translate(-161.961 -176.515)" fill="none" stroke="#263238" stroke-linecap="round" stroke-linejoin="round" stroke-width="2"></path>       <path id="Caminho_4023" data-name="Caminho 4023" d="M265.721,224.379c0,.957-.392,1.729-.87,1.729s-.87-.778-.87-1.729.392-1.729.87-1.729S265.721,223.428,265.721,224.379Z" transform="translate(-165.82 -179.686)" fill="#263238"></path>       <path id="Caminho_4024" data-name="Caminho 4024" d="M326.617,273.31s9.608,3.078,11.527,5,13.833,30.161,17.291,34.772,1.729,6.726,0,8.455-12.68,6.34-16.9,6.726-8.645,1.354-10.57-6.138-2.305-18.253-4.225-23.821-2.5-6.34-2.5-6.34" transform="translate(-190.078 -201.147)" fill="#8f00fc "></path>       <g id="Grupo_765" data-name="Grupo 765" transform="translate(132.32 72.151)" opacity="0.4">         <path id="Caminho_4025" data-name="Caminho 4025" d="M336.026,311.063c-4.922,2.882-7.222,5.06-8.276,6.34.2,1.193.392,2.449.576,3.746.548-.49.87-.813.945-.882a1.154,1.154,0,0,0,.294-.432s1.21-2.375,7.925-6.305a74,74,0,0,1,11.493-5.072l-1.216-2.628a75.415,75.415,0,0,0-11.74,5.233Z" transform="translate(-325.156 -287.075)" fill="#fff"></path>         <path id="Caminho_4026" data-name="Caminho 4026" d="M341.861,324.914c-7.141,3.741-10.167,7.412-11.441,9.735.219,1.51.455,3,.726,4.421a9.076,9.076,0,0,0,.876-.859,1.539,1.539,0,0,0,.323-.7c0-.046.991-4.876,10.853-10.04a38.13,38.13,0,0,1,11.031-3.8c-.421-.876-.853-1.781-1.285-2.709A41.355,41.355,0,0,0,341.861,324.914Z" transform="translate(-326.287 -293.485)" fill="#fff"></path>         <path id="Caminho_4027" data-name="Caminho 4027" d="M335,352.874a6.34,6.34,0,0,0,2,2.271,25.024,25.024,0,0,1,11.187-9.908,54.946,54.946,0,0,1,13.395-4.109l-.305-.432a21.393,21.393,0,0,1-1.36-2.2,56.514,56.514,0,0,0-12.962,4.133A28.241,28.241,0,0,0,335,352.874Z" transform="translate(-328.228 -300.916)" fill="#fff"></path>         <path id="Caminho_4028" data-name="Caminho 4028" d="M323.25,299.756c.311.813.7,1.873,1.153,3.245a.218.218,0,0,0,.052-.046,1.4,1.4,0,0,0,.225-.265c.092-.133,7.706-11.5,16.853-14.576-.49-1-.928-1.873-1.308-2.594C332.207,288.419,325.63,296.517,323.25,299.756Z" transform="translate(-323.25 -278.471)" fill="#fff"></path>         <path id="Caminho_4029" data-name="Caminho 4029" d="M329.76,274.927l1.695-1.228-1.228-.409Z" transform="translate(-326.008 -273.29)" fill="#fff"></path>         <path id="Caminho_4030" data-name="Caminho 4030" d="M325.933,282.005l-1.343,4.611c4.069-3.164,8.455-6.311,11.925-8.732-.98-.455-2.075-.9-3.147-1.314C331.08,278.2,328.509,280.045,325.933,282.005Z" transform="translate(-323.818 -274.68)" fill="#fff"></path>       </g>       <path id="Caminho_4031" data-name="Caminho 4031" d="M326.617,273.31s9.608,3.078,11.527,5,13.833,30.161,17.291,34.772,1.729,6.726,0,8.455-12.68,6.34-16.9,6.726-8.645,1.354-10.57-6.138-2.305-18.253-4.225-23.821-2.5-6.34-2.5-6.34" transform="translate(-190.078 -201.147)" fill="none" stroke="#263238" stroke-miterlimit="10" stroke-width="1"></path>       <path id="Caminho_4032" data-name="Caminho 4032" d="M321.152,366.609s-1.729-7.493-3.262-10.184-13.066-.38-17.487,1.349-27.279,7.683-34.385,9.412-11.723,3.844-14.219,6.34-14.023,8.259-13.256,9.412,4.421,1.153,6.916,1.153,8.645-1.919,9.222-2.305a2.772,2.772,0,0,1,1.343-.38l-4.225,3.262s.576,1.729,2.692.386,5.954-4.035,6.72-4.611,4.421-1.919,5.573-3.072a10.714,10.714,0,0,0,1.919-3.078s26.132.772,38.235-1.153S320.576,367.941,321.152,366.609Z" transform="translate(-155.029 -235.837)" fill="#fff" stroke="#263238" stroke-linecap="round" stroke-linejoin="round" stroke-width="1"></path>       <path id="Caminho_4033" data-name="Caminho 4033" d="M246.57,400.226s0-.957,2.115-1.729a28.921,28.921,0,0,0,9.988-5.187" transform="translate(-158.445 -251.985)" fill="none" stroke="#263238" stroke-linecap="round" stroke-linejoin="round" stroke-width="1"></path>       <path id="Caminho_4034" data-name="Caminho 4034" d="M268.9,398.248s2.692-1.925,4.23-3.268" transform="translate(-167.905 -252.692)" fill="none" stroke="#263238" stroke-linecap="round" stroke-linejoin="round" stroke-width="1"></path>       <path id="Caminho_4035" data-name="Caminho 4035" d="M242.237,398.575s-.2-1.539,2.305-2.692a35.816,35.816,0,0,0,9.6-5.573" transform="translate(-156.608 -250.714)" fill="none" stroke="#263238" stroke-linecap="round" stroke-linejoin="round" stroke-width="1"></path>       <path id="Caminho_4036" data-name="Caminho 4036" d="M190.431,374.979s-1.343-4.985-3.268-13.631-9.412-9.608-12.68-8.836-5.377,3.262-4.415,8.449,9.026,20.172,10.178,21.521,9.222.38,11.337-2.115S190.431,374.979,190.431,374.979Z" transform="translate(-125.936 -234.61)" fill="#fff" stroke="#263238" stroke-linecap="round" stroke-linejoin="round" stroke-width="1"></path>       <path id="Caminho_4037" data-name="Caminho 4037" d="M190.015,398.052s6.726-5,8.836-5.954,9.608-.963,12.1-.386,5.764,7.493,5.764,7.493-21.325,1.153-24.4,1.153-4.225.576-4.421-1.343" transform="translate(-133.59 -251.142)" fill="#fff" stroke="#263238" stroke-linecap="round" stroke-linejoin="round" stroke-width="1"></path>       <path id="Caminho_4038" data-name="Caminho 4038" d="M211.524,401.794s-4.991-5.187-5.954-6.144" transform="translate(-141.075 -252.976)" fill="none" stroke="#263238" stroke-linecap="round" stroke-linejoin="round" stroke-width="1"></path>       <line id="Linha_288" data-name="Linha 288" x1="5.764" y1="6.72" transform="translate(68.529 141.521)" fill="none" stroke="#263238" stroke-linecap="round" stroke-linejoin="round" stroke-width="1"></line>       <path id="Caminho_4039" data-name="Caminho 4039" d="M226.524,400.291s-3.839-5.562-5.954-7.291" transform="translate(-147.43 -251.853)" fill="none" stroke="#263238" stroke-linecap="round" stroke-linejoin="round" stroke-width="1"></path>       <rect id="Retângulo_360" data-name="Retângulo 360" width="6.167" height="9.556" transform="translate(7.96 104.3)" fill="#8f00fc " stroke="#263238" stroke-linecap="round" stroke-linejoin="round" stroke-width="1"></rect>       <line id="Linha_289" data-name="Linha 289" y1="2.692" x2="3.625" transform="translate(7.891 104.496)" fill="none" stroke="#263238" stroke-linecap="round" stroke-linejoin="round" stroke-width="1"></line>       <line id="Linha_290" data-name="Linha 290" y1="5.17" x2="6.104" transform="translate(8.023 104.3)" fill="none" stroke="#263238" stroke-linecap="round" stroke-linejoin="round" stroke-width="1"></line>       <line id="Linha_291" data-name="Linha 291" x2="2.017" y2="2.957" transform="translate(8.963 108.663)" fill="none" stroke="#263238" stroke-linecap="round" stroke-linejoin="round" stroke-width="1"></line>       <line id="Linha_292" data-name="Linha 292" x2="2.288" y2="3.493" transform="translate(10.709 107.32)" fill="none" stroke="#263238" stroke-linecap="round" stroke-linejoin="round" stroke-width="1"></line>       <line id="Linha_293" data-name="Linha 293" x2="1.608" y2="2.951" transform="translate(12.461 105.845)" fill="none" stroke="#263238" stroke-linecap="round" stroke-linejoin="round" stroke-width="1"></line>       <line id="Linha_294" data-name="Linha 294" y1="4.029" x2="5.643" transform="translate(8.427 109.874)" fill="none" stroke="#263238" stroke-linecap="round" stroke-linejoin="round" stroke-width="1"></line>       <line id="Linha_295" data-name="Linha 295" y1="1.343" x2="2.282" transform="translate(11.654 112.294)" fill="none" stroke="#263238" stroke-linecap="round" stroke-linejoin="round" stroke-width="1"></line>       <path id="Caminho_4040" data-name="Caminho 4040" d="M146.188,345.18l-1.233,1.412H115.388l-1.228-1.412H96.95v13.17h66.442V345.18Z" transform="translate(-95.059 -231.595)" fill="#fff" stroke="#263238" stroke-linecap="round" stroke-linejoin="round" stroke-width="1"></path>       <path id="Caminho_4041" data-name="Caminho 4041" d="M216.837,370.127H197.99l-4.04-33.077h26.927Z" transform="translate(-136.153 -228.15)" fill="#fff" stroke="#263238" stroke-linecap="round" stroke-linejoin="round" stroke-width="1"></path>       <path id="Caminho_4042" data-name="Caminho 4042" d="M230.482,337.05l-.282,33.077h1.994l4.04-33.077Z" transform="translate(-151.51 -228.15)" fill="#fff" stroke="#263238" stroke-linecap="round" stroke-linejoin="round" stroke-width="1"></path>       <rect id="Retângulo_361" data-name="Retângulo 361" width="29.596" height="2.058" rx="1.029" transform="translate(20.599 117.556)" fill="#fff" stroke="#263238" stroke-linecap="round" stroke-linejoin="round" stroke-width="1"></rect>       <path id="Caminho_4043" data-name="Caminho 4043" d="M101.94,368v41.048h100.1V394.9a3.712,3.712,0,0,0-3.718-3.712H128.977a2.778,2.778,0,0,1-2.778-2.778v-5.527a17.712,17.712,0,0,1,8.017-14.818h0Z" transform="translate(-97.173 -241.262)" fill="#fff" stroke="#263238" stroke-linecap="round" stroke-linejoin="round" stroke-width="1"></path>       <path id="Caminho_4044" data-name="Caminho 4044" d="M97,368v41.048H197.061V391.181H124a2.778,2.778,0,0,1-2.772-2.778v-5.527a17.712,17.712,0,0,1,8.046-14.812h0Z" transform="translate(-95.08 -241.262)" fill="#fff" stroke="#263238" stroke-linecap="round" stroke-linejoin="round" stroke-width="1"></path>       <circle id="Elipse_74" data-name="Elipse 74" cx="6.317" cy="6.317" r="6.317" transform="translate(4.265 153.008)" fill="#858585" stroke="#263238" stroke-linecap="round" stroke-linejoin="round" stroke-width="1"></circle>       <path id="Caminho_4045" data-name="Caminho 4045" d="M199.77,384.69l.686,5.619H219.3l.686-5.619Z" transform="translate(-138.618 -248.333)" fill="#858585" stroke="#263238" stroke-linecap="round" stroke-linejoin="round" stroke-width="1"></path>       <path id="Caminho_4046" data-name="Caminho 4046" d="M230.246,384.69l-.046,5.619h1.994l.686-5.619Z" transform="translate(-151.51 -248.333)" fill="#666" stroke="#263238" stroke-linecap="round" stroke-linejoin="round" stroke-width="1"></path>       <path id="Caminho_4047" data-name="Caminho 4047" d="M132.3,442.919s-35.625,1.049-38.241.524,8.38-4.19,23.054-6.023,38.766,5.764,38.766,5.764Z" transform="translate(-93.669 -270.551)" fill="#8f00fc " stroke="#263238" stroke-linecap="round" stroke-linejoin="round" stroke-width="1"></path>       <path id="Caminho_4048" data-name="Caminho 4048" d="M197.376,402.032c-2.622.081-5.245.305-7.856.605-4.772.542-13.965-.069-17.573,3.539,0,0-5.239,8.121-7.331,11.527s-3.666,5.5-5.764,6.282-11,4.455-11,4.455h74.39s10.951.38,14.6-4.069c3.96-4.807-2.778-10.282-6.219-12.858-5.677-4.253-11.925-6.081-18.714-7.959A48.734,48.734,0,0,0,197.376,402.032Z" transform="translate(-116.623 -255.658)" fill="#8f00fc " stroke="#263238" stroke-linecap="round" stroke-linejoin="round" stroke-width="1"></path>       <path id="Caminho_4049" data-name="Caminho 4049" d="M272,436.54s11.717-2.305,22.005-.288,24.858.288,31.7.859,18.005,2,18.005,2-17.147,2.882-26.005,3.429-17.147,1.153-17.147,1.153-4.57.288-16.576-3.429Z" transform="translate(-169.218 -269.826)" fill="#8f00fc " stroke="#263238" stroke-linecap="round" stroke-linejoin="round" stroke-width="1"></path>       <path id="Caminho_4050" data-name="Caminho 4050" d="M229.37,443.063a63.119,63.119,0,0,0,16-4c8.859-3.429,14.005-2.882,20.576-.288s8.859,4.859,16.576,5.429Z" transform="translate(-151.158 -270.349)" fill="#263238" stroke="#263238" stroke-linecap="round" stroke-linejoin="round" stroke-width="1"></path>     </g>   </g> </svg>