<svg xmlns="http://www.w3.org/2000/svg" width="601.002" height="621.425" viewBox="0 0 601.002 621.425"><g transform="translate(-1172 -1192.689)"><g transform="translate(1173 1193.688)"><line x2="1.187" y2="0.787" transform="translate(68.814 243.445)" fill="none" stroke="#263238" stroke-miterlimit="10" stroke-width="1"/><line x2="219.172" y2="142.505" transform="translate(72.404 245.79)" fill="none" stroke="#263238" stroke-miterlimit="10" stroke-width="1" stroke-dasharray="1.998 1.998"/><path d="M248.81,302.545l1.187.772-.772-1.187" transform="translate(43.967 86.537)" fill="none" stroke="#263238" stroke-miterlimit="10" stroke-width="1"/><line x1="188.004" y1="289.072" transform="translate(103.643 97.206)" fill="none" stroke="#263238" stroke-miterlimit="10" stroke-width="1" stroke-dasharray="1.984 1.984"/><line x1="0.772" y1="1.201" transform="translate(102.084 94.817)" fill="none" stroke="#263238" stroke-miterlimit="10" stroke-width="1"/><line x1="1.187" y2="0.787" transform="translate(517.942 243.445)" fill="none" stroke="#263238" stroke-miterlimit="10" stroke-width="1"/><line x1="219.172" y2="142.505" transform="translate(296.367 245.79)" fill="none" stroke="#263238" stroke-miterlimit="10" stroke-width="1" stroke-dasharray="1.998 1.998"/><path d="M250.842,302.545l-1.2.772.787-1.187" transform="translate(44.324 86.537)" fill="none" stroke="#263238" stroke-miterlimit="10" stroke-width="1"/><line y1="289.072" x2="188.004" transform="translate(296.296 97.206)" fill="none" stroke="#263238" stroke-miterlimit="10" stroke-width="1" stroke-dasharray="1.984 1.984"/><line y1="1.201" x2="0.787" transform="translate(485.072 94.817)" fill="none" stroke="#263238" stroke-miterlimit="10" stroke-width="1"/><line y2="1.43" transform="translate(293.964 50.448)" fill="none" stroke="#263238" stroke-miterlimit="10" stroke-width="1"/><line y2="332.24" transform="translate(293.964 54.754)" fill="none" stroke="#263238" stroke-miterlimit="10" stroke-width="1" stroke-dasharray="2.011 2.011"/><line y2="1.43" transform="translate(293.964 388.424)" fill="none" stroke="#263238" stroke-miterlimit="10" stroke-width="1"/><circle cx="43.983" cy="43.983" r="43.983" transform="translate(252.656)" fill="#263238" stroke="#263238" stroke-miterlimit="10" stroke-width="2"/><path d="M251.51,73.725l37.017-23.744A44.083,44.083,0,0,0,265.213,31.93Z" transform="translate(45.129 -29.742)" fill="#7300cc" stroke="#263238" stroke-miterlimit="10" stroke-width="1"/><path d="M251.51,68.294l20.726,38.777A43.983,43.983,0,0,0,288.47,44.55Z" transform="translate(45.129 -24.311)" fill="#fff" stroke="#263238" stroke-miterlimit="10" stroke-width="1"/><circle cx="43.969" cy="43.969" r="43.969" transform="translate(416.351 94.538) rotate(-45)" fill="none" stroke="#263238" stroke-miterlimit="10" stroke-width="1"/><circle cx="38.119" cy="38.119" r="38.119" transform="translate(440.403 56.427)" fill="#263238"/><path d="M405.107,102.916,368.19,81.59v42.639Z" transform="translate(95.341 -8.371)" fill="#fff"/><circle cx="45.885" cy="45.885" r="45.885" transform="matrix(0.233, -0.972, 0.972, 0.233, 486.223, 271.914)" fill="#263238"/><circle cx="32.769" cy="32.769" r="32.769" transform="matrix(0.232, -0.973, 0.973, 0.232, 502.084, 262.289)" fill="#fff"/><circle cx="19.667" cy="19.667" r="19.667" transform="translate(517.824 252.558) rotate(-76.64)" fill="#263238"/><circle cx="10.585" cy="10.585" r="10.585" transform="matrix(0.231, -0.973, 0.973, 0.231, 528.832, 245.883)" fill="#fff"/><path d="M481.557,184.757l-5.836-2.274,2.546-1.244a1.216,1.216,0,1,0-1.058-2.188l-1.845.9L478.3,173.6l-10.885,4.863-1.588,6.108L422.556,205.64A1.216,1.216,0,0,0,422,207.27a1.187,1.187,0,0,0,1.616.558l43.411-21.141,4.734,2.675Z" transform="translate(118.443 31.225)" fill="#263238"/><circle cx="45.871" cy="45.871" r="45.871" transform="translate(60.046 46.758)" fill="#fff" stroke="#263238" stroke-miterlimit="10" stroke-width="2"/><ellipse cx="33.27" cy="45.871" rx="33.27" ry="45.871" transform="translate(72.647 46.758)" fill="#fff" stroke="#263238" stroke-miterlimit="10" stroke-width="1"/><ellipse cx="14.16" cy="45.871" rx="14.16" ry="45.871" transform="translate(91.757 46.758)" fill="#fff" stroke="#263238" stroke-miterlimit="10" stroke-width="1"/><line x2="49.418" transform="translate(81.615 53.881)" fill="none" stroke="#263238" stroke-miterlimit="10" stroke-width="1"/><line x2="81.773" transform="translate(64.995 71.86)" fill="none" stroke="#263238" stroke-miterlimit="10" stroke-width="1"/><line x2="91.428" transform="translate(60.275 89.826)" fill="none" stroke="#263238" stroke-miterlimit="10" stroke-width="1"/><line x2="86.722" transform="translate(62.291 107.805)" fill="none" stroke="#263238" stroke-miterlimit="10" stroke-width="1"/><line x2="63.35" transform="translate(74.65 125.77)" fill="none" stroke="#263238" stroke-miterlimit="10" stroke-width="1"/><circle cx="45.871" cy="45.871" r="45.871" transform="translate(0 192.124)" fill="#263238" stroke="#263238" stroke-miterlimit="10" stroke-width="2"/><rect width="60.833" height="48.675" transform="translate(14.103 216.311)" fill="#fff" stroke="#263238" stroke-miterlimit="10" stroke-width="2"/><rect width="68.442" height="19.767" transform="translate(10.298 216.311)" fill="#fff" stroke="#263238" stroke-miterlimit="10" stroke-width="2"/><path d="M82.122,186.1s-14.3-16.749-16.749-15.948-8.768,11.958-5.178,13.159S82.122,186.1,82.122,186.1Z" transform="translate(-37.666 29.728)" fill="#7300cc"/><path d="M75.29,186.1s14.3-16.749,16.749-15.948,8.782,11.958,5.192,13.159S75.29,186.1,75.29,186.1Z" transform="translate(-30.706 29.728)" fill="#7300cc"/><path d="M80.908,215.629,76.6,208.148l-4.463,7.481v-33.5h8.768Z" transform="translate(-32.062 34.896)" fill="#7300cc"/></g><g transform="translate(1238.466 1429.938)"><path d="M90.39,323.686,318.015,195.57l233.2,128.116v185.73H93.193Z" transform="translate(-90.39 -195.57)" fill="#263238" stroke="#263238" stroke-linecap="round" stroke-linejoin="round" stroke-width="1"/><rect width="340.737" height="303.033" transform="translate(60.06 34.557)" fill="#fff" stroke="#263238" stroke-miterlimit="10" stroke-width="1"/><line x2="258.349" transform="translate(99.151 87.623)" fill="none" stroke="#263238" stroke-miterlimit="10" stroke-width="1"/><line x2="258.349" transform="translate(99.151 114.156)" fill="none" stroke="#263238" stroke-miterlimit="10" stroke-width="1"/><line x2="258.349" transform="translate(99.151 140.689)" fill="none" stroke="#263238" stroke-miterlimit="10" stroke-width="1"/><line x2="258.349" transform="translate(99.151 167.221)" fill="none" stroke="#263238" stroke-miterlimit="10" stroke-width="1"/><line x2="258.349" transform="translate(99.151 193.754)" fill="none" stroke="#263238" stroke-miterlimit="10" stroke-width="1"/><line x2="258.349" transform="translate(99.151 220.287)" fill="none" stroke="#263238" stroke-miterlimit="10" stroke-width="1"/><path d="M551.218,540.7H90.39V285.14L320.818,441.548l230.4-156.408Z" transform="translate(-90.39 -157.024)" fill="#7300cc" stroke="#263238" stroke-miterlimit="10" stroke-width="1"/><line y1="141.904" x2="167.55" transform="translate(0 241.771)" fill="none" stroke="#263238" stroke-miterlimit="10" stroke-width="1"/><line x1="166.306" y1="142.133" transform="translate(293.793 241.542)" fill="none" stroke="#263238" stroke-miterlimit="10" stroke-width="1"/></g><g transform="translate(1340.687 1315.567)"><path d="M290.147,161.793s-1.731,8.1.586,10.7,10.985,11.858,10.985,13.3-2.861,43.1-2.861,43.1l-13.3-9.54-8.1,24.874s20.239,8.682,29.794,10.413,11.271-.872,11.271-8.382S311,181.174,311,181.174s2.317-13.3,2.317-15.619.872-3.476-1.159-4.634-18.509-2.861-18.509-2.861S290.147,159.476,290.147,161.793Z" transform="translate(-112.106 -97.342)" fill="#fff" stroke="#263238" stroke-linecap="round" stroke-linejoin="round" stroke-width="1"/><path d="M285.865,203.36l-4.391,22.285-4.034-.915Z" transform="translate(-112.115 -77.847)" fill="#263238" stroke="#263238" stroke-linecap="round" stroke-linejoin="round" stroke-width="1"/><path d="M315.859,169.423l-32.769-4.405V156.85a1.43,1.43,0,1,1,2.861,0v5.721l27.391,3.69.472-6.608a1.43,1.43,0,1,1,2.789.2Z" transform="translate(-109.684 -98.478)" fill="#263238"/><path d="M288.36,165.564l17.922,1.731,1.159-6.365-18.509-2.889Z" transform="translate(-107.416 -97.351)" fill="#fff" stroke="#263238" stroke-linecap="round" stroke-linejoin="round" stroke-width="1"/><path d="M286.13,166.313s0-7.238.872-7.81,13.3.286,13.3,2.017,0,2.6-1.43,2.6-4.291.286-4.291.286,6.651,6.079,4.62,11.571" transform="translate(-108.375 -97.227)" fill="#fff" stroke="#263238" stroke-linecap="round" stroke-linejoin="round" stroke-width="1"/><line x1="1.159" y2="12.73" transform="translate(185.564 131.549)" fill="none" stroke="#263238" stroke-linecap="round" stroke-linejoin="round" stroke-width="1"/><path d="M201.7,203.7s-40.879,31.9-39.821,35.344,31.382,32.44,41.408,39.549,15.562,10.3,15.562,10.3l6.322,3.948s-2.632,4.291-1.044,5.021,7.381,3.69,8.167,2.1,5.021-13.445,4.491-16.349-15.834-5.278-16.878-6.336-26.118-40.05-26.118-40.05l19.524-15.29Z" transform="translate(-161.856 -77.701)" fill="#fff" stroke="#263238" stroke-linecap="round" stroke-linejoin="round" stroke-width="1"/><path d="M189.22,204.44l7.423,20.125,4.892-2.989Z" transform="translate(-150.08 -77.383)" fill="#263238" stroke="#263238" stroke-linecap="round" stroke-linejoin="round" stroke-width="1"/><path d="M206.12,266s1.859,3.962,5.021,4.291" transform="translate(-142.807 -50.891)" fill="none" stroke="#263238" stroke-linecap="round" stroke-linejoin="round" stroke-width="1"/><line x1="5.278" y1="9.226" transform="translate(26.653 150.258)" fill="none" stroke="#263238" stroke-linecap="round" stroke-linejoin="round" stroke-width="1"/><path d="M208.839,429.528l-.429,23.443,19.21.415,1.7-25.546Z" transform="translate(-141.822 18.756)" fill="#fff" stroke="#263238" stroke-linecap="round" stroke-linejoin="round" stroke-width="1"/><path d="M208.76,428.13v5.793l19.925.93.458-6.022Z" transform="translate(-141.671 18.881)" fill="#263238" stroke="#263238" stroke-linecap="round" stroke-linejoin="round" stroke-width="1"/><path d="M226.722,444.185s-2.532-9.927-6.336-10.141-5.721,2.746-7.152,5.492-10.771,12.029-13.946,14.3-10.127,5.278-11.185,12.029,2.947,9.512,5.721,10.141,15.2.844,22.6,0,27.548,1.159,28.721,0,2.746-4.863,1.688-7.395a34.325,34.325,0,0,0-2.961-5.278s2.117-6.122.844-9.5-3.8-7.609-3.376-9.512,5.063-5.907,1.9-6.122S235,441.8,231.8,442.854A27.773,27.773,0,0,1,226.722,444.185Z" transform="translate(-150.636 21.421)" fill="#263238" stroke="#263238" stroke-linecap="round" stroke-linejoin="round" stroke-width="1"/><path d="M240.244,456.01c-2.961.429-14.3,5.907-21.541,7.609s-13.5,1.888-16.892.2-6.336-6.751-8.868-9.927-4.634,4.863-4.634,4.863l-.358.157c-.429,5.879,3.261,8.325,5.836,8.925s15.2.844,22.6,0,27.548,1.159,28.721,0,2.746-4.863,1.688-7.395a34.328,34.328,0,0,0-2.961-5.278C242.575,454.952,243.2,455.6,240.244,456.01Z" transform="translate(-150.641 29.649)" fill="#fff" stroke="#263238" stroke-linecap="round" stroke-linejoin="round" stroke-width="1"/><path d="M203.891,442.027s5.721-1.259,12.873,5.721l-3.79,3.161s-7.395-5.721-12.043-5.721Z" transform="translate(-145.041 24.823)" fill="#fff" stroke="#263238" stroke-linecap="round" stroke-linejoin="round" stroke-width="1"/><path d="M200.151,445.027s5.721-1.273,12.873,5.721l-3.79,3.175s-7.395-5.721-12.044-5.721Z" transform="translate(-146.65 26.114)" fill="#fff" stroke="#263238" stroke-linecap="round" stroke-linejoin="round" stroke-width="1"/><line y1="4.849" x2="5.907" transform="translate(70.179 465.605)" fill="none" stroke="#263238" stroke-linecap="round" stroke-linejoin="round" stroke-width="1"/><path d="M211.648,452.879s1.43,3.161-1.058,5.063-19.224-1.273-19.009-3.59S199.6,447.2,199.6,447.2a32.313,32.313,0,0,1,12.043,5.679Z" transform="translate(-149.065 27.088)" fill="#fff" stroke="#263238" stroke-linecap="round" stroke-linejoin="round" stroke-width="1"/><path d="M299.583,429.528,300,452.971l-19.21.415L279.1,427.84Z" transform="translate(-111.401 18.756)" fill="#fff" stroke="#263238" stroke-linecap="round" stroke-linejoin="round" stroke-width="1"/><path d="M279.5,431.5v3.476l20.382-.229-.229-5.092-20.611-.229Z" transform="translate(-111.426 19.44)" fill="#263238" stroke="#263238" stroke-linecap="round" stroke-linejoin="round" stroke-width="1"/><path d="M293.227,444.185s2.532-9.927,6.336-10.141,5.721,2.746,7.152,5.492,10.77,12.029,13.932,14.3,10.141,5.278,11.185,12.029-2.946,9.512-5.721,10.141-15.2.844-22.6,0-27.548,1.159-28.707,0-2.746-4.863-1.7-7.395a34.325,34.325,0,0,1,2.961-5.278s-2.117-6.122-.844-9.5,3.8-7.609,3.376-9.512-5.063-5.907-1.9-6.122,8.239,3.59,11.443,4.649A27.507,27.507,0,0,0,293.227,444.185Z" transform="translate(-114.128 21.421)" fill="#263238" stroke="#263238" stroke-linecap="round" stroke-linejoin="round" stroke-width="1"/><path d="M279.693,456.01c2.961.429,14.3,5.907,21.541,7.609s13.517,1.888,16.892.2,6.336-6.751,8.868-9.927,4.649,4.863,4.649,4.863l.343.157c.429,5.879-3.261,8.325-5.836,8.925s-15.2.844-22.6,0-27.548,1.159-28.707,0-2.746-4.863-1.7-7.395a34.321,34.321,0,0,1,2.961-5.278C277.376,454.952,276.732,455.6,279.693,456.01Z" transform="translate(-114.111 29.649)" fill="#fff" stroke="#263238" stroke-linecap="round" stroke-linejoin="round" stroke-width="1"/><path d="M303.043,442.027s-5.721-1.259-12.873,5.721l3.8,3.161s7.381-5.721,12.029-5.721Z" transform="translate(-106.637 24.823)" fill="#fff" stroke="#263238" stroke-linecap="round" stroke-linejoin="round" stroke-width="1"/><path d="M306.733,445.027s-5.721-1.273-12.873,5.721l3.8,3.175s7.381-5.721,12.029-5.721Z" transform="translate(-105.049 26.114)" fill="#fff" stroke="#263238" stroke-linecap="round" stroke-linejoin="round" stroke-width="1"/><line x1="5.907" y1="4.849" transform="translate(179.099 465.605)" fill="none" stroke="#263238" stroke-linecap="round" stroke-linejoin="round" stroke-width="1"/><path d="M296.644,452.879s-1.43,3.161,1.044,5.063,19.224-1.273,19.009-3.59-8.024-7.152-8.024-7.152A32.2,32.2,0,0,0,296.644,452.879Z" transform="translate(-104.028 27.088)" fill="#fff" stroke="#263238" stroke-linecap="round" stroke-linejoin="round" stroke-width="1"/><path d="M222.725,256.383S211.554,302,207.363,340.645,196.65,505.892,196.65,505.892h51.206S263.218,377.4,265.55,354.6s2.317-37.189,2.317-37.189l28.864,188.534h60.976s-23.272-119.634-32.583-174.5-22.342-76.337-22.342-76.337Z" transform="translate(-146.882 -55.577)" fill="#b0b0b0" stroke="#263238" stroke-linecap="round" stroke-linejoin="round" stroke-width="1"/><path d="M248.347,258.907c-.443,1.33-12.573,19.553-8.854,20.94s10.713,1.43,10.713-2.317v-14.9s.93,20.955,5.121,20.025,9.769,0,8.382-4.663-12.1-19.524-12.1-19.524S249.734,254.716,248.347,258.907Z" transform="translate(-128.75 -54.797)" fill="#b0b0b0" stroke="#263238" stroke-linecap="round" stroke-linejoin="round" stroke-width="1"/><path d="M246.81,259.38s10.556,14.99,9.54,16.349-2.389,2.718-3.4.687S246.81,259.38,246.81,259.38Z" transform="translate(-125.296 -53.74)" fill="none" stroke="#263238" stroke-miterlimit="10" stroke-width="1"/><path d="M248.647,258.19s-7.838,16.692-6.808,17.364a2.718,2.718,0,0,0,4.077-1.7C246.6,271.478,248.647,258.19,248.647,258.19Z" transform="translate(-127.476 -54.252)" fill="none" stroke="#263238" stroke-miterlimit="10" stroke-width="1"/><path d="M268.81,291.45c.429,2.36.8,4.591,1.058,6.594" transform="translate(-115.829 -39.938)" fill="none" stroke="#263238" stroke-linecap="round" stroke-linejoin="round" stroke-width="1"/><path d="M261.09,259.29s5.807,20.74,9.54,38.348" transform="translate(-119.151 -53.778)" fill="none" stroke="#263238" stroke-linecap="round" stroke-linejoin="round" stroke-width="1"/><path d="M258.16,259.29s3.719,26.061,5.578,33.041" transform="translate(-120.412 -53.778)" fill="none" stroke="#263238" stroke-linecap="round" stroke-linejoin="round" stroke-width="1"/><path d="M222.9,284.52c-.2,1.8-.372,3.447-.544,4.863" transform="translate(-135.818 -42.921)" fill="none" stroke="#263238" stroke-linecap="round" stroke-linejoin="round" stroke-width="1"/><path d="M226.151,259.29s-1.545,15.92-2.861,29.079" transform="translate(-135.418 -53.778)" fill="none" stroke="#263238" stroke-linecap="round" stroke-linejoin="round" stroke-width="1"/><line x1="1.874" y2="22.342" transform="translate(85.14 206.442)" fill="none" stroke="#263238" stroke-linecap="round" stroke-linejoin="round" stroke-width="1"/><path d="M246.536,126.5s17.35,1.731,13.3,10.7-8.1,10.7-8.968,10.7-7.81-10.7-7.81-10.7Z" transform="translate(-126.91 -110.924)" fill="#263238" stroke="#263238" stroke-linecap="round" stroke-linejoin="round" stroke-width="1"/><path d="M267.743,133.216s6.651,3.762,8.682,10.7,7.223,8.968,8.682,8.682,3.461,4.048,1.731,6.937l-1.731,2.861s1.43,19.667-.3,22.27-12.43,1.159-12.43,1.159-2.317,9.254-.286,15.047,8.1,8.668,10.413,8.668,7.223-2.861,13.874.586S325.3,230.365,325.3,230.365l-11.886,32.5-12.73-6.651,8.968,55.24-86.765,2.031s.873-39.334-1.43-46.572a84.949,84.949,0,0,0-6.079-13.874L204.393,261.7,189.06,235.1s22.557-22.557,31.468-24.588,19.667.586,23.143-3.762.572-24.874.572-24.874-8.382-2.861-13.3-17.636S242.8,134.2,242.8,134.2,250.393,126.279,267.743,133.216Z" transform="translate(-150.149 -109.258)" fill="#fff" stroke="#263238" stroke-linecap="round" stroke-linejoin="round" stroke-width="1"/><path d="M249.664,169.556l-7.824-1.316,6.279,7.223Z" transform="translate(-127.435 -92.961)" fill="#263238" stroke="#263238" stroke-linecap="round" stroke-linejoin="round" stroke-width="1"/><path d="M244.74,144.962s0-5.492,4.92-5.492" transform="translate(-126.187 -105.342)" fill="none" stroke="#263238" stroke-linecap="round" stroke-linejoin="round" stroke-width="2"/><path d="M256.853,158.71l-10.127-4.92s-.858,10.413,2.861,10.127S256.853,158.71,256.853,158.71Z" transform="translate(-125.369 -99.179)" fill="#263238" stroke="#263238" stroke-linecap="round" stroke-linejoin="round" stroke-width="1"/><path d="M246.85,147.585s3.261-3.533,5.979-.544" transform="translate(-125.279 -102.601)" fill="none" stroke="#263238" stroke-linecap="round" stroke-linejoin="round" stroke-width="1"/><path d="M246.653,157.09l9.1,2.961a16.024,16.024,0,0,0,1.1-1.345L246.724,153.8S246.61,155.273,246.653,157.09Z" transform="translate(-125.368 -99.175)" fill="#fff" stroke="#263238" stroke-linecap="round" stroke-linejoin="round" stroke-width="1"/><path d="M220.884,144.575S214.519,131.559,205.551,133s-15.905,11.271-13.016,25.16c0,0,1.43,3.762,2.6,6.937,0,0-11.271-3.461-17.35,4.048s-1.43,15.333,5.493,19.1,11,3.476,11,3.476-15.333,4.62-9.841,10.413,22.27,2.017,18.795-2.861-6.065-4.291-6.065-4.291,13.874-5.206,12.43-8.968-8.382-6.651-8.382-6.651,13.3,4.634,20.54.286.858-22.885.858-22.885Z" transform="translate(-156.212 -108.173)" fill="#263238" stroke="#263238" stroke-linecap="round" stroke-linejoin="round" stroke-width="1"/><path d="M265.513,122.66s2.317,8.1-1.731,15.033S251.052,156.5,249.894,169.8s2.6,29.794,4.92,35.287-2.861,6.651-6.651,6.365-5.206-2.6-5.206-7.81-1.159-14.461-1.159-14.461-14.747-1.43-21.684-5.507-17.064-17.922-12.73-33.828,15.905-20.54,22.885-23.429,16.492-2.6,23.143-4.048S265.227,119.184,265.513,122.66Z" transform="translate(-142.712 -113.448)" fill="#263238" stroke="#263238" stroke-linecap="round" stroke-linejoin="round" stroke-width="1"/><path d="M235.722,150.9l-2.6,10.413s-5.493-2.6-6.365-7.238,5.721-6.937,10.413-2.861" transform="translate(-133.961 -101.196)" fill="#fff" stroke="#263238" stroke-linecap="round" stroke-linejoin="round" stroke-width="1"/><line x1="3.762" y2="0.3" transform="translate(182.389 66.182)" fill="none" stroke="#263238" stroke-linecap="round" stroke-linejoin="round" stroke-width="1"/><path d="M273.975,173.439l96.405,13.488-13.1-71.317L271,157.162Z" transform="translate(-114.886 -115.61)" fill="#7300cc" stroke="#263238" stroke-linecap="round" stroke-linejoin="round" stroke-width="1"/><rect width="14.561" height="16.478" transform="translate(141.785 44.175) rotate(-10.36)" fill="#7300cc" stroke="#263238" stroke-linecap="round" stroke-linejoin="round" stroke-width="1"/><path d="M325.266,206.909S303,190.131,296.344,186.669s-11.443-.658-13.774-.586a32.383,32.383,0,0,1-27.834,13.889c-19.024-.243-24.316-10.828-25.46-13.917a46.413,46.413,0,0,0-8.668.9c-8.968,2.031-31.468,24.588-31.468,24.588l15.333,26.6,10.985-8.668a84.946,84.946,0,0,1,6.079,13.874c2.317,7.238,1.43,46.572,1.43,46.572l86.765-2.031-8.968-55.24,12.616,6.723Z" transform="translate(-150.114 -85.773)" fill="#263238" stroke="#263238" stroke-linecap="round" stroke-linejoin="round" stroke-width="1"/><circle cx="26.69" cy="26.69" r="26.69" transform="translate(81.932 130.475) rotate(-13.39)" fill="none" stroke="#fff" stroke-miterlimit="10" stroke-width="1"/><path d="M262.534,212.2H230.88l15.605,15.033Z" transform="translate(-132.152 -74.043)" fill="#7300cc"/><path d="M246.22,223.5l11.014,9.726V213.17Z" transform="translate(-125.55 -73.626)" fill="#7300cc"/><path d="M240.8,223.606,229.64,212.85V232.9Z" transform="translate(-132.685 -73.763)" fill="#7300cc"/><path d="M251.674,221.3l-4.949,4.649L241.9,221.3l-11.614,9.683h32.34Z" transform="translate(-132.406 -70.127)" fill="#7300cc"/></g><g transform="translate(1173 1813.613)"><line x2="600" transform="translate(0.002 0)" fill="none" stroke="#263238" stroke-miterlimit="10" stroke-width="1"/></g></g></svg>