<svg xmlns="http://www.w3.org/2000/svg" width="600.512" height="355.259" viewBox="0 0 600.512 355.259"><g transform="translate(-359.488 -2315.5)"><g transform="translate(330.02 2076.23)"><g transform="translate(293.712 338.544)"><path d="M368.429,429.692H228.76v-7.449l139.669-7.433Z" transform="translate(-228.76 -188.631)" fill="#fff" stroke="#263238" stroke-miterlimit="10" stroke-width="1"/><path d="M388.691,441.554,352.753,352.46l-6.077,2.467v1.454l35.481,87.788a13.575,13.575,0,0,1-12.611,18.622h-47.1V469.9h47.1a20.714,20.714,0,0,0,19.145-28.342Z" transform="translate(-169.402 -228.133)" fill="#fff" stroke="#263238" stroke-miterlimit="10" stroke-width="1"/><rect width="11.174" height="209.488" transform="translate(189.858 0) rotate(6.88)" fill="#fff" stroke="#263238" stroke-miterlimit="10" stroke-width="1"/><path d="M346.612,433.773H286.17v-7.106a15,15,0,0,1,13.477-14.931l30.5-3.087a15,15,0,0,1,16.5,14.914Z" transform="translate(-192.387 -192.582)" fill="#fff" stroke="#263238" stroke-miterlimit="10" stroke-width="1"/></g><g transform="translate(29.98 252.254)"><path d="M188.7,257.623s-12.889-31.185-25.091-33.9-63.709,23.05-49.5,46.785,29.159,22.363,42.718,16.336S188.7,257.623,188.7,257.623Z" transform="translate(-11.292 -223.529)" fill="#263238" stroke="#263238" stroke-miterlimit="10" stroke-width="1"/><path d="M135.836,232.537S122.277,227.8,115.5,227.8s-8.168,21.694-8.168,21.694S112.116,228.47,135.836,232.537Z" transform="translate(-14.032 -220.824)" fill="#263238" stroke="#263238" stroke-miterlimit="10" stroke-width="1"/><path d="M255.129,263.674s7.465,10.161,9.491,18.982-3.382,18.3-1.356,25.761S274.8,322.645,274.111,327.4s-14.228,12.2-14.228,12.2-11.533,27.771-16.336,29.829-20.959-2.728-28.326-6.093-16.956-2.712-16.956-2.712l-44.106-22.38s4.754-8.821-.67-21.694-8.168-34.582,25.075-56.276S255.129,263.674,255.129,263.674Z" transform="translate(13.123 -205.845)" fill="#fff" stroke="#263238" stroke-miterlimit="10" stroke-width="1"/><path d="M214.121,305.849a7.2,7.2,0,0,0-8.821-2.712" transform="translate(48.038 -173.448)" fill="none" stroke="#263238" stroke-miterlimit="10" stroke-width="1"/><path d="M215.844,286.6c0,3.381-1.062,6.109-2.369,6.109s-2.385-2.728-2.385-6.109,1.062-6.093,2.385-6.093S215.844,283.238,215.844,286.6Z" transform="translate(51.706 -187.429)" fill="#263238"/><path d="M209.87,274.6a6.224,6.224,0,0,1,9.491.67" transform="translate(50.933 -192.367)" fill="none" stroke="#263238" stroke-miterlimit="10" stroke-width="1"/><ellipse cx="11.86" cy="18.982" rx="11.86" ry="18.982" transform="translate(254.024 74.769)" fill="none" stroke="#263238" stroke-miterlimit="10" stroke-width="1"/><line x1="52.895" y2="5.423" transform="translate(201.129 93.751)" fill="#fff" stroke="#263238" stroke-miterlimit="10" stroke-width="1"/><path d="M186.346,332.651S173.473,346.9,166.008,346.9s-21.694-9.507-28.473-19.6,6.779-35.938,14.245-50.853,21.008-40.006,48.811-45.429,38.65-3.381,62.369,8.821,21.024,29.829,16.956,35.252a63.449,63.449,0,0,1-10.177,10.177s14.914-8.168,20.338-5.423,5.44,6.093,5.44,6.093-16.956.686-19,.686-8.8,3.381-8.8,3.381-14.245,3.4-21.694,1.356-17.626-9.556-18.345-1.388-10.847,22.38-14.914,23.736-10.177,2.026-15.6,6.093S186.346,332.651,186.346,332.651Z" transform="translate(3.937 -220.587)" fill="#263238" stroke="#263238" stroke-miterlimit="10" stroke-width="1"/><path d="M185.137,293.615s-9.491-19.6-18.982-11.517.67,29.143,4.737,31.185,12.2-3.4,12.2-3.4.686,8.821,3.4,12.889" transform="translate(20.746 -187.661)" fill="#fff" stroke="#263238" stroke-miterlimit="10" stroke-width="1"/><path d="M143.05,328.864s11.435-11.533,11.435-18.982,4.068-13.575,29.829-1.356,34.664,26.415,29.241,30.5-16.956,8.168-19.6,10.847-12.2,15.6-12.2,15.6S165.413,328.864,143.05,328.864Z" transform="translate(8.599 -174.083)" fill="#7300cc" stroke="#263238" stroke-miterlimit="10" stroke-width="1"/><path d="M163.357,303.38s-5.75,1.16-4.59,5.178a13.819,13.819,0,0,1,0,7.449l-3.447,5.178" transform="translate(16.373 -172.939)" fill="none" stroke="#263238" stroke-miterlimit="10" stroke-width="1"/><path d="M173.283,305.83s-6.387,6.91-5.815,9.2,1.732,5.75-.572,6.894a47.809,47.809,0,0,1-6.306,2.3" transform="translate(19.711 -171.387)" fill="none" stroke="#263238" stroke-miterlimit="10" stroke-width="1"/><path d="M170.607,322.12c-1.192,1.748-2.287,3.267-2.287,3.267" transform="translate(24.609 -161.066)" fill="none" stroke="#263238" stroke-miterlimit="10" stroke-width="1"/><path d="M178.374,310.76s1.143,5.162-1.16,8.609-5.162,3.447-5.734,5.162" transform="translate(26.611 -168.263)" fill="none" stroke="#263238" stroke-miterlimit="10" stroke-width="1"/><path d="M190.336,316.38a48.9,48.9,0,0,1-4.019,8.609c-1.732,2.3-8.037,1.732-9.2,4.59a18.427,18.427,0,0,1-4.59,5.75" transform="translate(27.276 -164.703)" fill="none" stroke="#263238" stroke-miterlimit="10" stroke-width="1"/><path d="M271.618,383.935c-5.048-2.009-19.178-4.035-19.178-4.035" transform="translate(77.904 -124.459)" fill="none" stroke="#263238" stroke-miterlimit="10" stroke-width="1"/><path d="M248.73,379.181s11.108-3.022,18.165,0" transform="translate(75.553 -125.766)" fill="none" stroke="#263238" stroke-miterlimit="10" stroke-width="1"/><path d="M269.978,395.959s6,10.34,7.629,13.608,2.173,4.9.539,4.9-7.629-2.712-8.168-5.979a13.364,13.364,0,0,0-1.634-4.9s3.071,11.974,2.173,12.513c-3.545,2.173-5.979-1.633-5.979-1.633L260.177,401.4s-1.634,6.534-2.173,8.168-3.823-2.712-3.823-5.979a73.87,73.87,0,0,1,.555-7.629l-3.267-2.728s4.9-4.9,10.34-4.9S269.978,395.959,269.978,395.959Z" transform="translate(77.289 -119.118)" fill="#fff" stroke="#263238" stroke-miterlimit="10" stroke-width="1"/><path d="M251.6,391.661l2.124-.147c9.393-.621,46.671-3.12,49.007-3.12,2.728,0,18.508,8.707,18.508,8.707a75.146,75.146,0,0,1,14.7.555c5.456,1.078,10.357,7.612,12.529,9.8s9.262,4.9,5.44,5.979-5.44,1.634-7.612,1.094S335.4,408,335.4,408l-14.163-2.173s-13.068,7.073-14.7,7.612,2.189,4.362,6,7.09,9.8,6.534,9.262,10.879-2.189,3.823-6.534,0-8.723-5.979-15.257-10.34A147.343,147.343,0,0,1,283.127,406.9l-3.267-3.267s-38.111,12.529-51.179,16.336a274.935,274.935,0,0,1-36.445,7.629c-8.168,1.095-23.948-2.173-28.31-5.44s-15.8-13.624-15.8-13.624l19.6-39.206s23.425,21.792,32.671,23.964S251.6,391.661,251.6,391.661Z" transform="translate(11.817 -131.156)" fill="#fff" stroke="#263238" stroke-miterlimit="10" stroke-width="1"/><path d="M200.4,393.294c-9.246-2.173-32.671-23.964-32.671-23.964l-19.6,39.205s11.435,10.357,15.8,13.624,20.142,6.534,28.31,5.44a279.329,279.329,0,0,0,33.145-6.7c.294-2.5.523-5.178.621-8,.212-6.175,0-13.167-.31-19.39C215.171,394.111,204.537,394.324,200.4,393.294Z" transform="translate(11.817 -131.156)" fill="#7300cc" stroke="#263238" stroke-miterlimit="10" stroke-width="1"/><path d="M230.01,362.8a54.169,54.169,0,0,0-10.177-31.381A33.341,33.341,0,0,0,207.4,320.487c-22.641-10.291-38.552-2.826-52.895,16.336-28.473,37.98-47.945,83.083-55.541,101.705C82.94,477.341,80,491.341,80,491.341H187.129s-5.423-13.559-5.423-16.94,5.423-10.177,5.423-10.177,32.541-11.533,38.634-29.159C230.189,422.094,230.288,382.709,230.01,362.8Z" transform="translate(-31.347 -165.036)" fill="#7300cc" stroke="#263238" stroke-miterlimit="10" stroke-width="1"/><path d="M268.5,350.24a176.258,176.258,0,0,1,25.32,7.073" transform="translate(88.079 -143.251)" fill="none" stroke="#263238" stroke-miterlimit="10" stroke-width="1"/><path d="M278.39,348.39a71.449,71.449,0,0,1,17.169,10.1" transform="translate(94.345 -144.423)" fill="none" stroke="#263238" stroke-miterlimit="10" stroke-width="1"/><path d="M129.35,388.982s33.227,90.859,42.031,93.57,17.626-1.356,21.694-4.068,122.043-86.1,122.043-86.1S336.142,404.6,340.21,404.6s12.2,12.2,14.228,16.336,4.068,6.093,4.754,2.026-4.754-12.872-6.11-15.584a39.021,39.021,0,0,1-2.026-4.754,22.248,22.248,0,0,1,6.779,2.042c2.026,1.356,8.8,10.161,10.847,12.872s6.779,5.423,6.779,1.356-7.465-11.517-8.821-14.914a9.476,9.476,0,0,0-4.068-4.737s12.889,2.026,16.336,3.382,5.44,9.491,9.507,10.177-2.042-8.168-3.4-12.2-18.312-9.491-18.312-9.491,10.847-1.356,14.245-1.356,10.83,6.681,12.823,6.681,2.026-2.042-3.4-6.109-14.914-8.168-18.982-8.168a73.814,73.814,0,0,1-12.2-1.356c-4.068-.67-34.583-6.779-40.676-6.779s-97.638,42.718-97.638,42.718l-5.93-5.276a.719.719,0,0,0-.408-.18l-1-.114a14.163,14.163,0,0,0-9.589,2.712c-.49.327-.98.278-1.389-.539-1.356-2.712-10.161-56.946-14.914-68.479s-19.6-37.278-45.413-22.363" transform="translate(-0.081 -163.696)" fill="#fff" stroke="#263238" stroke-miterlimit="10" stroke-width="1"/><path d="M129.35,388.963s33.227,90.859,42.031,93.57,17.626-1.356,21.694-4.068c2.156-1.438,35.938-25.3,67.466-47.553l-11.729-27.052c-15.764,7.22-27.934,12.905-27.934,12.905l-5.93-5.276a.719.719,0,0,0-.408-.18l-1-.114a14.164,14.164,0,0,0-9.589,2.712c-.49.327-.98.278-1.389-.539-1.356-2.712-10.161-56.946-14.914-68.479s-19.6-37.278-45.413-22.363" transform="translate(-0.081 -163.677)" fill="#7300cc" stroke="#263238" stroke-miterlimit="10" stroke-width="1"/><path d="M180.832,377.73a142.666,142.666,0,0,1-17.022,17.5" transform="translate(21.751 -125.834)" fill="none" stroke="#263238" stroke-miterlimit="10" stroke-width="1"/><path d="M179.77,380.41S168.6,384.3,159.35,386.732" transform="translate(18.926 -124.136)" fill="none" stroke="#263238" stroke-miterlimit="10" stroke-width="1"/><path d="M98.87,492.06,80.165,328.05a15.029,15.029,0,0,0-17.038-13.183h0a15.029,15.029,0,0,0-12.791,16.76L70.723,492.321Z" transform="translate(-50.217 -165.755)" fill="#263238" stroke="#263238" stroke-miterlimit="10" stroke-width="1"/></g><g transform="translate(185.848 524.325)"><path d="M140.938,397.882a8.332,8.332,0,0,0-9.965-1.438c-5.7,3.136-6.845,15.96-4.28,25.075s14.245,3.986,14.245,3.986l-.278-5.979s-9.687,1.127-10.259-3.986-.849-11.68,4.9-11.68,7.416,1.421,7.416,1.421Z" transform="translate(-125.396 -386.708)" fill="#fff" stroke="#263238" stroke-miterlimit="10" stroke-width="1"/><rect width="45.233" height="54.136" transform="translate(14.594)" fill="#fff" stroke="#263238" stroke-miterlimit="10" stroke-width="1"/></g><g transform="translate(29.98 578.167)"><rect width="500.806" height="15.862" transform="translate(0 0)" fill="#263238" stroke="#263238" stroke-miterlimit="10" stroke-width="1"/></g></g><g transform="translate(325 87)"><g transform="translate(360 2228.5)" fill="#fff" stroke="#004798" stroke-width="1"><rect width="275" height="60" rx="30" stroke="none"/><rect x="0.5" y="0.5" width="274" height="59" rx="29.5" fill="none"/></g><text transform="translate(511 2265.5)" fill="#7300cc" font-size="18" font-family="Ubuntu-Bold, Ubuntu" font-weight="700"><tspan x="-104.166" y="0">Conectar google agenda</tspan></text><g transform="translate(380 2251.5)" fill="#fff" stroke="#004798" stroke-width="1"><rect width="15" height="15" rx="3" stroke="none"/><rect x="0.5" y="0.5" width="14" height="14" rx="2.5" fill="none"/></g><path d="M5.308,16,.229,10.923a.781.781,0,0,1,0-1.105l1.1-1.105a.781.781,0,0,1,1.105,0L5.86,12.134l7.328-7.328a.781.781,0,0,1,1.105,0l1.1,1.105a.781.781,0,0,1,0,1.105L6.413,16A.781.781,0,0,1,5.308,16Z" transform="translate(381.846 2248.096)" fill="#7300cc"/></g></g></svg>