<svg xmlns="http://www.w3.org/2000/svg" viewBox="0 0 203.51 248.5"><defs><style>.cls-1{fill:#e0e0e0;}.cls-2{fill:#455a64;}.cls-3{fill:#37474f;}.cls-4{fill:#263238;}.cls-5{fill:#f0f0f0;}.cls-6{fill:#fafafa;}.cls-10,.cls-11,.cls-12,.cls-14,.cls-17,.cls-7,.cls-9{isolation:isolate;}.cls-7{opacity:0.1;}.cls-8{fill:#8f00fc;}.cls-10,.cls-11,.cls-12,.cls-16,.cls-9{fill:#fff;}.cls-9{opacity:0.7;}.cls-10{opacity:0.6;}.cls-11{opacity:0.5;}.cls-12,.cls-14,.cls-15{opacity:0.3;}.cls-13{opacity:0.2;}.cls-17{opacity:0.15;}</style></defs><g id="Camada_2" data-name="Camada 2"><g id="Camada_1-2" data-name="Camada 1"><g id="Grupo_453" data-name="Grupo 453"><path id="freepik--shadow--inject-270" class="cls-1" d="M202.52,178.75,124.79,134a5.23,5.23,0,0,0-4.75,0L5,200.45c-1.32.75-1.32,2,0,2.74l77.73,44.74a5.23,5.23,0,0,0,4.75,0l115-66.44C203.83,180.73,203.83,179.5,202.52,178.75Z"/><g id="freepik--Cart--inject-270"><g id="freepik--cargo-car--inject-270"><path id="Caminho_1321" data-name="Caminho 1321" class="cls-1" d="M131.09,19.82,177.26,46.5a13.14,13.14,0,0,1,5.94,10.32V148l3.92,2.27V56.47c0-5.35-3.79-11.88-8.41-14.57L130.87,14.26c-4.62-2.64-8.41-.48-8.41,4.86v93.79l4,2.28V22.5C126.44,19.55,128.53,18.34,131.09,19.82Z"/><path id="Caminho_1322" data-name="Caminho 1322" class="cls-2" d="M95.46,223.54a16.63,16.63,0,0,1,7.54-13c2.18-1.27,4.14-1.32,5.52-.4h0l5.08,2.9-10.81,18.37-5-2.9h0C96.35,227.69,95.46,226,95.46,223.54Z"/><path id="Caminho_1323" data-name="Caminho 1323" class="cls-3" d="M108.28,213.54a16.65,16.65,0,0,0-7.54,13.05c0,4.8,3.37,6.75,7.54,4.35a16.67,16.67,0,0,0,7.54-13.05C115.82,213.07,112.44,211.13,108.28,213.54Z"/><path id="Caminho_1324" data-name="Caminho 1324" class="cls-4" d="M110.83,220.76c0-1.87-1.14-2.74-2.55-1.93a6.13,6.13,0,0,0-2.55,4.88c0,1.88,1.14,2.74,2.55,1.92A6.07,6.07,0,0,0,110.83,220.76Z"/><path id="Caminho_1325" data-name="Caminho 1325" class="cls-5" d="M99.44,205.51s0,8.58,4.1,11.65c.78.57,1.59,1,2.08,1.37,1,.87.35,2.47-.92,3.15-1.85,1-11.91-1.69-16.17-9.89Z"/><path id="Caminho_1326" data-name="Caminho 1326" class="cls-6" d="M103.35,207.78s0,8.57,4.1,11.64c.77.57,1.59,1,2.08,1.37,1,.87.35,2.48-.93,3.16-1.84,1-11.9-1.69-16.17-9.9Z"/><path id="Caminho_1327" data-name="Caminho 1327" class="cls-4" d="M108.28,221.4a1.6,1.6,0,0,0-.73,1.25c0,.46.32.66.73.42a1.63,1.63,0,0,0,.72-1.25C109,221.36,108.67,221.17,108.28,221.4Z"/><path id="Caminho_1328" data-name="Caminho 1328" class="cls-2" d="M177.28,176.3a16.67,16.67,0,0,1,7.54-13.05c2.19-1.26,4.15-1.32,5.53-.39h0l5.07,2.9-10.8,18.37-5-2.9h0C178.18,180.45,177.28,178.75,177.28,176.3Z"/><path id="Caminho_1329" data-name="Caminho 1329" class="cls-3" d="M190.1,166.29a16.67,16.67,0,0,0-7.54,13.06c0,4.8,3.38,6.75,7.54,4.35a16.62,16.62,0,0,0,7.52-13.06C197.62,165.84,194.26,163.89,190.1,166.29Z"/><path id="Caminho_1330" data-name="Caminho 1330" class="cls-4" d="M192.65,173.52c0-1.88-1.14-2.74-2.55-1.92a6.12,6.12,0,0,0-2.55,4.87c0,1.88,1.14,2.74,2.55,1.93A6.08,6.08,0,0,0,192.65,173.52Z"/><path id="Caminho_1331" data-name="Caminho 1331" class="cls-5" d="M181.27,158.3s0,8.58,4.1,11.65c.77.57,1.59,1,2.07,1.37,1.05.87.35,2.47-.92,3.15-1.84,1-11.9-1.69-16.17-9.89Z"/><path id="Caminho_1332" data-name="Caminho 1332" class="cls-6" d="M185.17,160.51s0,8.58,4.1,11.65c.77.57,1.59,1,2.08,1.37,1,.87.35,2.47-.92,3.15-1.85,1-11.91-1.69-16.17-9.89Z"/><path id="Caminho_1333" data-name="Caminho 1333" class="cls-4" d="M190.1,174.13a1.58,1.58,0,0,0-.72,1.26c0,.45.32.66.72.41a1.59,1.59,0,0,0,.72-1.25.44.44,0,0,0-.39-.5A.42.42,0,0,0,190.1,174.13Z"/><path id="Caminho_1334" data-name="Caminho 1334" class="cls-2" d="M191.11,152.53l-72.56-41.9L0,179.07,72.56,221Z"/><path id="Caminho_1335" data-name="Caminho 1335" class="cls-3" d="M191.11,152.53v4.56L72.56,225.54V221Z"/><path id="Caminho_1336" data-name="Caminho 1336" class="cls-4" d="M0,179.07v4.56l72.56,41.9V221Z"/></g></g><g id="freepik--Boxes--inject-270"><g id="freepik--Box--inject-270"><path id="freepik--shadow--inject-270-2" class="cls-7" d="M180.56,152.73l-62.23,35.94-63.47-36.6,62.4-35.85Z"/><g id="freepik--box--inject-270-2"><path id="Caminho_1337" data-name="Caminho 1337" class="cls-8" d="M178.44,110l-57-33L61.22,111.89l57,33Z"/><path id="Caminho_1338" data-name="Caminho 1338" class="cls-9" d="M178.44,110l-57-33L61.22,111.89l57,33Z"/><path id="Caminho_1339" data-name="Caminho 1339" class="cls-8" d="M118.21,184.69l60.24-34.86V110l-60.24,34.86Z"/><path id="Caminho_1340" data-name="Caminho 1340" class="cls-10" d="M118.21,184.69l60.24-34.86V110l-60.24,34.86Z"/><path id="Caminho_1341" data-name="Caminho 1341" class="cls-2" d="M124.86,171.5a1.07,1.07,0,0,1-.52-.14,1.58,1.58,0,0,1-.66-1.43V165.7h0v-.31l.22,0,3.3-1.94v4.71a3.82,3.82,0,0,1-1.63,3.08A1.48,1.48,0,0,1,124.86,171.5ZM124.2,166v3.91a1.09,1.09,0,0,0,.38,1,.75.75,0,0,0,.72-.08,3.33,3.33,0,0,0,1.36-2.63v-.35h-1.22l-.24-1.65Zm1.7,1.32h.77v-2.91l-2,1.16,1,.18Z"/><path id="Caminho_1342" data-name="Caminho 1342" class="cls-2" d="M125.45,174.84a.26.26,0,0,1-.26-.26h0V171a.27.27,0,1,1,.53,0v3.54a.27.27,0,0,1-.26.27Z"/><path id="Caminho_1343" data-name="Caminho 1343" class="cls-2" d="M123.92,175.73a.26.26,0,0,1-.14-.49h0l3.09-1.79a.27.27,0,0,1,.36.1h0a.28.28,0,0,1-.1.37l-3.08,1.78A.31.31,0,0,1,123.92,175.73Z"/><path id="Caminho_1344" data-name="Caminho 1344" class="cls-2" d="M134.9,169.62a.6.6,0,0,1-.3-.07.73.73,0,0,1-.32-.66v-.69a.27.27,0,0,1,.31-.23.28.28,0,0,1,.23.23v.72c0,.11,0,.17.05.18s.08,0,.17,0a1.59,1.59,0,0,0,.5-1.2v-4.71a.26.26,0,1,1,.52,0v4.71a2,2,0,0,1-.75,1.66.84.84,0,0,1-.41.11Z"/><path id="Caminho_1345" data-name="Caminho 1345" class="cls-2" d="M132.1,165.5V165a7.52,7.52,0,0,1,3.39-5.88,2.25,2.25,0,0,1,3.67,2.11v.15Zm5-6.29a2.73,2.73,0,0,0-1.32.41,7,7,0,0,0-3.1,4.95l5.94-3.45a2,2,0,0,0-.82-1.73,1.4,1.4,0,0,0-.7-.18Z"/><path id="Caminho_1346" data-name="Caminho 1346" class="cls-2" d="M144.43,164.19a.27.27,0,0,1-.27-.27h0v-9a.27.27,0,0,1,.54,0v9a.27.27,0,0,1-.27.27Z"/><path id="Caminho_1347" data-name="Caminho 1347" class="cls-2" d="M143.65,157a.17.17,0,0,1-.1,0,.25.25,0,0,1-.14-.34h0l.94-2.18,1.06,1.22a.27.27,0,0,1,0,.37.26.26,0,0,1-.35,0l-.5-.57-.61,1.4A.26.26,0,0,1,143.65,157Z"/><path id="Caminho_1348" data-name="Caminho 1348" class="cls-2" d="M146.89,162.79a.26.26,0,0,1-.27-.26h0v-9a.27.27,0,0,1,.53-.08.11.11,0,0,1,0,.08v9a.27.27,0,0,1-.26.27Z"/><path id="Caminho_1349" data-name="Caminho 1349" class="cls-2" d="M146.11,155.55H146a.27.27,0,0,1-.14-.34h0l1-2.18,1,1.22a.27.27,0,0,1-.36.39l0,0L147,154l-.6,1.41a.29.29,0,0,1-.27.13Z"/><path id="Caminho_1350" data-name="Caminho 1350" class="cls-8" d="M118.21,184.69l-57-33V111.89l57,33Z"/><path id="Caminho_1351" data-name="Caminho 1351" class="cls-11" d="M118.21,184.69l-57-33V111.89l57,33Z"/><path id="Caminho_1352" data-name="Caminho 1352" class="cls-3" d="M85.14,131.76,89.05,134V128l-3.91-2.25Z"/><path id="Caminho_1353" data-name="Caminho 1353" class="cls-2" d="M89.05,128l60.24-34.87-3.91-2.25L85.14,125.7Z"/><path id="Caminho_1354" data-name="Caminho 1354" class="cls-3" d="M86.91,124.67l3.9,2.26L93,125.68l-3.9-2.26Z"/><path id="Caminho_1355" data-name="Caminho 1355" class="cls-6" d="M149.47,98.17l-16,9.19c-.29.17-.21.48.17.71l18,10.4a1.45,1.45,0,0,0,1.22.1l16-9.2c.29-.17.21-.49-.17-.71l-18-10.4A1.36,1.36,0,0,0,149.47,98.17Z"/><path id="Caminho_1356" data-name="Caminho 1356" class="cls-1" d="M157.5,113.81a.33.33,0,0,0,.33-.33.34.34,0,0,0-.17-.28l-15-8.63a.33.33,0,0,0-.44.16.33.33,0,0,0,.11.4l15,8.64a.24.24,0,0,0,.16,0Z"/><path id="Caminho_1357" data-name="Caminho 1357" class="cls-1" d="M155.83,114.76a.33.33,0,0,0,.17-.61l-15-8.62a.33.33,0,0,0-.45.12.34.34,0,0,0,.12.45l15,8.63A.23.23,0,0,0,155.83,114.76Z"/><path id="Caminho_1358" data-name="Caminho 1358" class="cls-1" d="M154.17,115.71a.33.33,0,0,0,.33-.33.39.39,0,0,0-.16-.28l-15-8.63a.33.33,0,1,0-.33.57L154,115.68a.53.53,0,0,0,.17,0Z"/><path id="Caminho_1359" data-name="Caminho 1359" class="cls-1" d="M152.51,116.67a.34.34,0,0,0,.29-.16.35.35,0,0,0-.13-.46l-14.95-8.63a.34.34,0,0,0-.46.07.32.32,0,0,0,.07.46s0,0,.06,0l15,8.64A.33.33,0,0,0,152.51,116.67Z"/><path id="Caminho_1360" data-name="Caminho 1360" class="cls-2" d="M167.34,109l-.59-.34-6.81,3.94.58.33Z"/><path id="Caminho_1361" data-name="Caminho 1361" class="cls-2" d="M165,107.59l-1-.58L157.15,111l1,.58Z"/><path id="Caminho_1362" data-name="Caminho 1362" class="cls-2" d="M162.6,106.22l-.58-.33-6.81,3.93.57.33Z"/><path id="Caminho_1363" data-name="Caminho 1363" class="cls-2" d="M160.83,105.19l-1.18-.67-6.81,3.93,1.17.67Z"/><path id="Caminho_1364" data-name="Caminho 1364" class="cls-2" d="M157.86,103.49l-.58-.34-6.81,3.94.58.33Z"/><path id="Caminho_1365" data-name="Caminho 1365" class="cls-2" d="M156.17,102.49l-1.26-.71-6.81,3.94,1.26.71Z"/><path id="Caminho_1366" data-name="Caminho 1366" class="cls-2" d="M153.13,100.75l-.58-.33-6.81,3.94.58.33Z"/><path id="Caminho_1367" data-name="Caminho 1367" class="cls-2" d="M151.79,100l-.29-.17-6.81,3.94.29.17Z"/><path id="Caminho_1368" data-name="Caminho 1368" class="cls-2" d="M154.18,101.4l-.29-.17-6.82,3.93.29.17Z"/><path id="Caminho_1369" data-name="Caminho 1369" class="cls-2" d="M159,104.14l-.29-.18-6.81,3.94.29.17Z"/><path id="Caminho_1370" data-name="Caminho 1370" class="cls-2" d="M161.58,105.65l-.29-.17-6.82,3.93.29.17Z"/><path id="Caminho_1371" data-name="Caminho 1371" class="cls-2" d="M163.43,106.75l-.3-.17-6.81,3.94.29.16Z"/><path id="Caminho_1372" data-name="Caminho 1372" class="cls-2" d="M166,108.19l-.29-.17L158.91,112l.29.17Z"/><path id="Caminho_1373" data-name="Caminho 1373" class="cls-2" d="M150.77,99.39l-.59-.34L143.37,103l.58.34Z"/><path id="Caminho_1374" data-name="Caminho 1374" class="cls-6" d="M159.94,145.87v10c0,.38.27.54.61.35l15.6-9a1.33,1.33,0,0,0,.6-1v-10c0-.38-.27-.54-.6-.35l-15.6,9A1.3,1.3,0,0,0,159.94,145.87Z"/><path id="Caminho_1375" data-name="Caminho 1375" class="cls-2" d="M175.78,137.24l-.5.29v9.08l.5-.29Z"/><path id="Caminho_1376" data-name="Caminho 1376" class="cls-2" d="M173.73,138.43l-.87.5V148l.87-.51Z"/><path id="Caminho_1377" data-name="Caminho 1377" class="cls-2" d="M171.68,139.61l-.5.29V149l.5-.29Z"/><path id="Caminho_1378" data-name="Caminho 1378" class="cls-2" d="M170.13,140.48l-1,.6v9.09l1-.6Z"/><path id="Caminho_1379" data-name="Caminho 1379" class="cls-2" d="M167.57,142l-.5.29v9.08l.5-.29Z"/><path id="Caminho_1380" data-name="Caminho 1380" class="cls-2" d="M166.1,142.81l-1.08.64v9.08l1.08-.64Z"/><path id="Caminho_1381" data-name="Caminho 1381" class="cls-2" d="M163.48,144.34l-.5.3v9.08l.5-.29Z"/><path id="Caminho_1382" data-name="Caminho 1382" class="cls-2" d="M162.3,145l-.25.15v9.08l.25-.14Z"/><path id="Caminho_1383" data-name="Caminho 1383" class="cls-2" d="M164.41,143.84l-.25.15v9.09l.25-.15Z"/><path id="Caminho_1384" data-name="Caminho 1384" class="cls-2" d="M168.54,141.43l-.25.14v9.09l.25-.15Z"/><path id="Caminho_1385" data-name="Caminho 1385" class="cls-2" d="M170.81,140.13l-.26.14v9.09l.26-.15Z"/><path id="Caminho_1386" data-name="Caminho 1386" class="cls-2" d="M172.43,139.23l-.25.15v9.08l.25-.14Z"/><path id="Caminho_1387" data-name="Caminho 1387" class="cls-2" d="M174.63,137.89l-.25.15v9.08l.25-.14Z"/><path id="Caminho_1388" data-name="Caminho 1388" class="cls-2" d="M161.43,145.52l-.5.29v9.08l.5-.29Z"/></g></g><g id="freepik--box--inject-270-3"><path id="freepik--shadow--inject-270-3" class="cls-7" d="M174.57,109.14l-55.3,32L60.78,107.26l55.29-32Z"/><g id="freepik--box--inject-270-4"><path id="Caminho_1389" data-name="Caminho 1389" class="cls-8" d="M59.26,64,112.31,33.3l60,34.73-53,30.68Z"/><path id="Caminho_1390" data-name="Caminho 1390" class="cls-12" d="M59.26,64,112.31,33.3l60,34.73-53,30.68Z"/><path id="Caminho_1391" data-name="Caminho 1391" class="cls-6" d="M84.68,53.12l16,9.19c.29.16.21.48-.17.7l-18,10.4a1.35,1.35,0,0,1-1.22.11l-15.95-9.2c-.29-.17-.21-.48.17-.71l18-10.4a1.33,1.33,0,0,1,1.18-.1Z"/><path id="Caminho_1392" data-name="Caminho 1392" class="cls-1" d="M76.63,68.76a.32.32,0,0,1-.29-.17.32.32,0,0,1,.12-.44l15-8.64a.34.34,0,0,1,.47.07.34.34,0,0,1-.07.46l-.07,0L76.79,68.71A.33.33,0,0,1,76.63,68.76Z"/><path id="Caminho_1393" data-name="Caminho 1393" class="cls-1" d="M78.28,69.71a.31.31,0,0,1-.32-.33.33.33,0,0,1,.16-.28l15-8.63a.33.33,0,0,1,.46.06.34.34,0,0,1-.07.47l-.06,0-15,8.64A.25.25,0,0,1,78.28,69.71Z"/><path id="Caminho_1394" data-name="Caminho 1394" class="cls-1" d="M79.94,70.66a.33.33,0,0,1-.32-.34.32.32,0,0,1,.16-.27l14.93-8.64a.33.33,0,0,1,.45.11h0A.34.34,0,0,1,95,62l-15,8.62A.25.25,0,0,1,79.94,70.66Z"/><path id="Caminho_1395" data-name="Caminho 1395" class="cls-1" d="M81.61,71.61a.33.33,0,0,1-.17-.61l15-8.64a.33.33,0,0,1,.45.12.34.34,0,0,1-.12.45h0l-15,8.64A.32.32,0,0,1,81.61,71.61Z"/><path id="Caminho_1396" data-name="Caminho 1396" class="cls-2" d="M66.79,63.9l.58-.33,6.81,3.93-.59.34Z"/><path id="Caminho_1397" data-name="Caminho 1397" class="cls-2" d="M69.15,62.53l1-.57L77,65.89l-1,.58Z"/><path id="Caminho_1398" data-name="Caminho 1398" class="cls-2" d="M71.51,61.17l.59-.34,6.81,3.93-.58.34Z"/><path id="Caminho_1399" data-name="Caminho 1399" class="cls-2" d="M73.29,60.13l1.17-.67,6.82,3.94-1.18.66Z"/><path id="Caminho_1400" data-name="Caminho 1400" class="cls-2" d="M76.25,58.43l.58-.33L83.64,62l-.58.34Z"/><path id="Caminho_1401" data-name="Caminho 1401" class="cls-2" d="M77.94,57.44l1.26-.71L86,60.66l-1.26.71Z"/><path id="Caminho_1402" data-name="Caminho 1402" class="cls-2" d="M81,55.7l.58-.34,6.81,3.93-.59.34Z"/><path id="Caminho_1403" data-name="Caminho 1403" class="cls-2" d="M82.33,54.91l.29-.16,6.81,3.93-.29.17Z"/><path id="Caminho_1404" data-name="Caminho 1404" class="cls-2" d="M79.94,56.34l.29-.17L87,60.1l-.29.18Z"/><path id="Caminho_1405" data-name="Caminho 1405" class="cls-2" d="M75.14,59.08l.29-.17,6.82,3.93L82,63Z"/><path id="Caminho_1406" data-name="Caminho 1406" class="cls-2" d="M72.54,60.59l.29-.17,6.81,3.94-.29.16Z"/><path id="Caminho_1407" data-name="Caminho 1407" class="cls-2" d="M70.69,61.69l.3-.17,6.81,3.93-.29.18Z"/><path id="Caminho_1408" data-name="Caminho 1408" class="cls-2" d="M68.1,63.13l.3-.17,6.8,3.94-.29.16Z"/><path id="Caminho_1409" data-name="Caminho 1409" class="cls-2" d="M83.35,54.33l.59-.33,6.81,3.93-.59.33Z"/><path id="Caminho_1410" data-name="Caminho 1410" class="cls-8" d="M119.29,138.56l-60-34.73V64l60,34.73Z"/><path id="Caminho_1411" data-name="Caminho 1411" class="cls-8" d="M119.29,138.56l53-30.69V68l-53,30.68Z"/><path id="Caminho_1412" data-name="Caminho 1412" class="cls-7" d="M119.29,138.56l53-30.69V68l-53,30.68Z"/><path id="Caminho_1413" data-name="Caminho 1413" class="cls-3" d="M148.4,87.9l-3.89,2.25V84.1l3.89-2.25Z"/><path id="Caminho_1414" data-name="Caminho 1414" class="cls-2" d="M144.51,84.1l-60-34.73,3.9-2.25,60,34.73Z"/><path id="Caminho_1415" data-name="Caminho 1415" class="cls-2" d="M97.28,119.5a3.31,3.31,0,0,1-1.39-2.64v-4l2.83,1.67h.18v.27h0v3.61a1.3,1.3,0,0,1-.55,1.22.86.86,0,0,1-.44.12A1.28,1.28,0,0,1,97.28,119.5Zm.32-4.35-.2,1.42H96.35v.3a2.85,2.85,0,0,0,1.17,2.24.61.61,0,0,0,.61.07.93.93,0,0,0,.32-.83V115Zm-.4-.39.84-.14-1.69-1v2.49H97Z"/><path id="Caminho_1416" data-name="Caminho 1416" class="cls-2" d="M97.4,122.56a.22.22,0,0,0,.22-.22v-3a.22.22,0,0,0-.22-.22.23.23,0,0,0-.23.22v3A.23.23,0,0,0,97.4,122.56Z"/><path id="Caminho_1417" data-name="Caminho 1417" class="cls-2" d="M98.71,123.34a.22.22,0,0,0,.24-.21.21.21,0,0,0-.12-.21l-2.64-1.53a.23.23,0,1,0-.22.4l2.64,1.52A.19.19,0,0,0,98.71,123.34Z"/><path id="Caminho_1418" data-name="Caminho 1418" class="cls-2" d="M106.59,128a.54.54,0,0,0,.25-.06.62.62,0,0,0,.27-.54v-.62a.23.23,0,0,0-.21-.25.24.24,0,0,0-.25.22v.65a.17.17,0,0,1,0,.15.21.21,0,0,1-.15,0,1.32,1.32,0,0,1-.42-1v-4a.23.23,0,0,0-.21-.25.24.24,0,0,0-.25.22v4.06a1.75,1.75,0,0,0,.66,1.41A.74.74,0,0,0,106.59,128Z"/><path id="Caminho_1419" data-name="Caminho 1419" class="cls-2" d="M103,121v-.13a1.92,1.92,0,0,1,3.13-1.81,6.39,6.39,0,0,1,2.9,5v.4Zm1.16-1.74a1.68,1.68,0,0,0-.7,1.48l5.1,2.94a6,6,0,0,0-2.64-4.23,2.38,2.38,0,0,0-1.13-.35,1.26,1.26,0,0,0-.63.16Z"/><path id="Caminho_1420" data-name="Caminho 1420" class="cls-2" d="M115.73,133.09a.22.22,0,0,0,.23-.22v-7.72a.23.23,0,0,0-.23-.23.23.23,0,0,0-.23.23v7.72A.23.23,0,0,0,115.73,133.09Z"/><path id="Caminho_1421" data-name="Caminho 1421" class="cls-2" d="M116.39,126.91a.23.23,0,0,0,.21-.32l-.78-1.87-.9,1a.21.21,0,0,0,0,.31h0a.22.22,0,0,0,.32,0l.43-.49.52,1.2A.24.24,0,0,0,116.39,126.91Z"/><path id="Caminho_1422" data-name="Caminho 1422" class="cls-2" d="M113.63,131.91a.23.23,0,0,0,.23-.22V124a.23.23,0,0,0-.21-.24.23.23,0,0,0-.25.21v7.75A.22.22,0,0,0,113.63,131.91Z"/><path id="Caminho_1423" data-name="Caminho 1423" class="cls-2" d="M114.29,125.71h.1a.25.25,0,0,0,.12-.3l-.82-1.86-.9,1a.24.24,0,0,0,0,.33.23.23,0,0,0,.32,0h0l.43-.49.52,1.21A.23.23,0,0,0,114.29,125.71Z"/><path id="Caminho_1424" data-name="Caminho 1424" class="cls-6" d="M77.56,100.25v10c0,.39-.27.54-.6.35l-15.58-9a1.38,1.38,0,0,1-.6-1v-10c0-.38.27-.54.61-.34l15.59,9A1.29,1.29,0,0,1,77.56,100.25Z"/><path id="Caminho_1425" data-name="Caminho 1425" class="cls-2" d="M61.75,91.6l.5.29V101l-.5-.29Z"/><path id="Caminho_1426" data-name="Caminho 1426" class="cls-2" d="M63.8,92.78l.87.51v9.08l-.87-.51Z"/><path id="Caminho_1427" data-name="Caminho 1427" class="cls-2" d="M65.85,94l.5.29v9.08l-.5-.29Z"/><path id="Caminho_1428" data-name="Caminho 1428" class="cls-2" d="M67.39,94.84l1,.6v9.08l-1-.6Z"/><path id="Caminho_1429" data-name="Caminho 1429" class="cls-2" d="M70,96.33l.5.29v9.08l-.5-.29Z"/><path id="Caminho_1430" data-name="Caminho 1430" class="cls-2" d="M71.43,97.16l1.07.64v9.09l-1.07-.65Z"/><path id="Caminho_1431" data-name="Caminho 1431" class="cls-2" d="M74.05,98.69l.5.29v9.09l-.5-.29Z"/><path id="Caminho_1432" data-name="Caminho 1432" class="cls-2" d="M75.22,99.36l.25.15v9.08l-.25-.15Z"/><path id="Caminho_1433" data-name="Caminho 1433" class="cls-2" d="M73.12,98.2l.25.14v9.09l-.25-.15Z"/><path id="Caminho_1434" data-name="Caminho 1434" class="cls-2" d="M69,95.78l.25.14V105l-.25-.15Z"/><path id="Caminho_1435" data-name="Caminho 1435" class="cls-2" d="M66.73,94.48l.25.14v9.09l-.25-.15Z"/><path id="Caminho_1436" data-name="Caminho 1436" class="cls-2" d="M65.1,93.58l.25.15v9.08l-.25-.14Z"/><path id="Caminho_1437" data-name="Caminho 1437" class="cls-2" d="M62.89,92.25l.26.14v9.08l-.26-.14Z"/><path id="Caminho_1438" data-name="Caminho 1438" class="cls-2" d="M76.1,99.88l.51.29v9.08L76.1,109Z"/></g></g><g id="freepik--box--inject-270-5"><path id="freepik--shadow--inject-270-4" class="cls-7" d="M58.31,63.44,115.8,96.7l45-26L103.26,37.44Z"/><g id="freepik--box--inject-270-6"><path id="Caminho_1439" data-name="Caminho 1439" class="cls-8" d="M55.65,45.28l48.23-27.85,56.27,32.49L111.92,77.76Z"/><path id="Caminho_1440" data-name="Caminho 1440" class="cls-7" d="M55.65,45.28l48.23-27.85,56.27,32.49L111.92,77.76Z"/><path id="Caminho_1441" data-name="Caminho 1441" class="cls-6" d="M81.08,34.41,97,43.6c.29.17.21.48-.17.71l-18,10.42a1.38,1.38,0,0,1-1.22.1l-16-9.22c-.29-.16-.22-.48.17-.7l18-10.4A1.38,1.38,0,0,1,81.08,34.41Z"/><path id="Caminho_1442" data-name="Caminho 1442" class="cls-1" d="M73,50.06a.34.34,0,0,1-.33-.34.33.33,0,0,1,.16-.28l15-8.63a.33.33,0,1,1,.39.53l-.06,0L73.18,50a.3.3,0,0,1-.16.05Z"/><path id="Caminho_1443" data-name="Caminho 1443" class="cls-1" d="M74.68,51a.33.33,0,0,1-.16-.61l15-8.64a.34.34,0,0,1,.45.12.34.34,0,0,1-.12.46L74.85,51A.33.33,0,0,1,74.68,51Z"/><path id="Caminho_1444" data-name="Caminho 1444" class="cls-1" d="M76.34,52a.33.33,0,0,1-.33-.33.32.32,0,0,1,.16-.28l15-8.64a.34.34,0,0,1,.46.13.33.33,0,0,1-.13.45h0l-15,8.63A.32.32,0,0,1,76.34,52Z"/><path id="Caminho_1445" data-name="Caminho 1445" class="cls-1" d="M78,52.91a.32.32,0,0,1-.29-.17.34.34,0,0,1,.12-.45l15-8.63a.33.33,0,1,1,.39.53l-.06,0-15,8.63a.3.3,0,0,1-.16,0Z"/><path id="Caminho_1446" data-name="Caminho 1446" class="cls-2" d="M63.18,45.2l.58-.34,6.81,3.93-.58.34Z"/><path id="Caminho_1447" data-name="Caminho 1447" class="cls-2" d="M65.54,43.83l1-.58,6.81,3.94-1,.57Z"/><path id="Caminho_1448" data-name="Caminho 1448" class="cls-2" d="M67.9,42.46l.59-.34,6.81,3.94-.58.33Z"/><path id="Caminho_1449" data-name="Caminho 1449" class="cls-2" d="M69.68,41.42l1.17-.66,6.82,3.93-1.18.67Z"/><path id="Caminho_1450" data-name="Caminho 1450" class="cls-2" d="M72.64,39.73l.58-.34L80,43.32l-.58.34Z"/><path id="Caminho_1451" data-name="Caminho 1451" class="cls-2" d="M74.33,38.73,75.59,38,82.41,42l-1.27.71Z"/><path id="Caminho_1452" data-name="Caminho 1452" class="cls-2" d="M77.38,37l.58-.34,6.81,3.94-.58.33Z"/><path id="Caminho_1453" data-name="Caminho 1453" class="cls-2" d="M78.72,36.21,79,36,85.82,40l-.29.17Z"/><path id="Caminho_1454" data-name="Caminho 1454" class="cls-2" d="M76.33,37.64l.29-.17,6.81,3.93-.29.17Z"/><path id="Caminho_1455" data-name="Caminho 1455" class="cls-2" d="M71.53,40.37l.3-.17,6.81,3.94-.29.17Z"/><path id="Caminho_1456" data-name="Caminho 1456" class="cls-2" d="M68.93,41.89l.3-.18L76,45.65l-.29.17Z"/><path id="Caminho_1457" data-name="Caminho 1457" class="cls-2" d="M67.09,43l.29-.18,6.81,3.94-.3.17Z"/><path id="Caminho_1458" data-name="Caminho 1458" class="cls-2" d="M64.5,44.42l.29-.16,6.8,3.93-.29.17Z"/><path id="Caminho_1459" data-name="Caminho 1459" class="cls-2" d="M79.75,35.62l.58-.33,6.81,3.93-.59.34Z"/><path id="Caminho_1460" data-name="Caminho 1460" class="cls-8" d="M111.92,96.33,55.65,63.84V45.28l56.27,32.48Z"/><g id="Grupo_190" data-name="Grupo 190" class="cls-13"><path id="Caminho_1461" data-name="Caminho 1461" d="M111.92,96.33,55.65,63.84V45.28l56.27,32.48Z"/></g><path id="Caminho_1462" data-name="Caminho 1462" class="cls-8" d="M111.92,96.33l48.23-27.85V49.92L111.92,77.76Z"/><path id="Caminho_1463" data-name="Caminho 1463" class="cls-14" d="M111.92,96.33l48.23-27.85V49.92L111.92,77.76Z"/><path id="Caminho_1464" data-name="Caminho 1464" class="cls-3" d="M141,67l-3.9,2.25v-6L141,60.9Z"/><path id="Caminho_1465" data-name="Caminho 1465" class="cls-2" d="M137.14,63.15,80.87,30.66l3.9-2.25L141,60.9Z"/><path id="Caminho_1466" data-name="Caminho 1466" class="cls-2" d="M89.92,77.27a3.24,3.24,0,0,1-1.39-2.64v-4l2.83,1.66.18,0v.26h0V76.1A1.34,1.34,0,0,1,91,77.33a1,1,0,0,1-.45.11A1.23,1.23,0,0,1,89.92,77.27Zm.31-4.34L90,74.34H89v.3a2.84,2.84,0,0,0,1.17,2.24.61.61,0,0,0,.61.07.94.94,0,0,0,.33-.83V72.78Zm-.4-.39.84-.15L89,71.4v2.46h.66Z"/><path id="Caminho_1467" data-name="Caminho 1467" class="cls-2" d="M90,80.33a.23.23,0,0,0,.23-.23v-3a.23.23,0,0,0-.21-.25.22.22,0,0,0-.24.22v3A.22.22,0,0,0,90,80.33Z"/><path id="Caminho_1468" data-name="Caminho 1468" class="cls-2" d="M91.35,81.12a.22.22,0,0,0,.2-.12.23.23,0,0,0-.09-.31l-2.63-1.51a.22.22,0,0,0-.31.08h0a.21.21,0,0,0,.07.3h0l2.64,1.53A.27.27,0,0,0,91.35,81.12Z"/><path id="Caminho_1469" data-name="Caminho 1469" class="cls-2" d="M99.25,85.78a.42.42,0,0,0,.24-.07.58.58,0,0,0,.28-.54v-.62a.24.24,0,0,0-.23-.23.23.23,0,0,0-.23.23v.62c0,.09,0,.14,0,.15a.26.26,0,0,1-.15,0,1.32,1.32,0,0,1-.42-1v-4a.22.22,0,0,0-.22-.22.24.24,0,0,0-.24.22v4a1.75,1.75,0,0,0,.66,1.41.76.76,0,0,0,.35.11Z"/><path id="Caminho_1470" data-name="Caminho 1470" class="cls-2" d="M95.6,78.77v-.13a1.92,1.92,0,0,1,3.13-1.81,6.43,6.43,0,0,1,2.9,5v.4ZM96.76,77A1.69,1.69,0,0,0,96,78.48l5.1,2.94a6,6,0,0,0-2.64-4.22,2.27,2.27,0,0,0-1.13-.35,1.27,1.27,0,0,0-.6.18Z"/><path id="Caminho_1471" data-name="Caminho 1471" class="cls-2" d="M108.36,90.86a.22.22,0,0,0,.23-.22V82.91a.22.22,0,0,0-.23-.22.22.22,0,0,0-.22.22v7.73a.22.22,0,0,0,.22.22Z"/><path id="Caminho_1472" data-name="Caminho 1472" class="cls-2" d="M109,84.68h.08a.21.21,0,0,0,.13-.28v0l-.8-1.86-.9,1a.26.26,0,0,0,0,.33.24.24,0,0,0,.32,0h0l.43-.5.52,1.21a.24.24,0,0,0,.24.08Z"/><path id="Caminho_1473" data-name="Caminho 1473" class="cls-2" d="M106.26,89.7a.24.24,0,0,0,.24-.23V81.75a.24.24,0,0,0-.24-.23.22.22,0,0,0-.22.23v7.72A.24.24,0,0,0,106.26,89.7Z"/><path id="Caminho_1474" data-name="Caminho 1474" class="cls-2" d="M106.93,83.48H107a.21.21,0,0,0,.12-.28v0l-.8-1.86-.9,1a.22.22,0,0,0,0,.32.21.21,0,0,0,.3,0h0l.43-.5.52,1.2A.21.21,0,0,0,106.93,83.48Z"/><path id="Caminho_1475" data-name="Caminho 1475" class="cls-6" d="M74,60.24v10c0,.38-.27.54-.6.35l-15.61-9a1.31,1.31,0,0,1-.6-1v-10c0-.39.27-.55.6-.35l15.6,9A1.32,1.32,0,0,1,74,60.24Z"/><path id="Caminho_1476" data-name="Caminho 1476" class="cls-2" d="M58.14,51.61l.5.29V61l-.5-.29Z"/><path id="Caminho_1477" data-name="Caminho 1477" class="cls-2" d="M60.19,52.8l.87.5v9.09l-.87-.52Z"/><path id="Caminho_1478" data-name="Caminho 1478" class="cls-2" d="M62.24,54l.51.29v9.08l-.51-.29Z"/><path id="Caminho_1479" data-name="Caminho 1479" class="cls-2" d="M63.79,54.85l1,.6v9.08l-1-.59Z"/><path id="Caminho_1480" data-name="Caminho 1480" class="cls-2" d="M66.34,56.34l.5.29v9.09l-.5-.29Z"/><path id="Caminho_1481" data-name="Caminho 1481" class="cls-2" d="M67.82,57.18l1.08.64V66.9l-1.08-.64Z"/><path id="Caminho_1482" data-name="Caminho 1482" class="cls-2" d="M70.44,58.71l.5.3v9.08l-.5-.3Z"/><path id="Caminho_1483" data-name="Caminho 1483" class="cls-2" d="M71.61,59.37l.25.15V68.6l-.25-.14Z"/><path id="Caminho_1484" data-name="Caminho 1484" class="cls-2" d="M69.51,58.21l.25.15v9.08l-.25-.14Z"/><path id="Caminho_1485" data-name="Caminho 1485" class="cls-2" d="M65.38,55.8l.25.14V65l-.25-.15Z"/><path id="Caminho_1486" data-name="Caminho 1486" class="cls-2" d="M63.12,54.5l.25.14v9.09l-.25-.15Z"/><path id="Caminho_1487" data-name="Caminho 1487" class="cls-2" d="M61.49,53.6l.26.15v9.08l-.26-.15Z"/><path id="Caminho_1488" data-name="Caminho 1488" class="cls-2" d="M59.29,52.26l.25.15v9.08l-.25-.14Z"/><path id="Caminho_1489" data-name="Caminho 1489" class="cls-2" d="M72.49,59.89l.51.29v9.09L72.49,69Z"/></g></g><g id="freepik--box--inject-270-7"><path id="freepik--shadow--inject-270-5" class="cls-7" d="M82.53,172,38.46,197.41l-33-19.07L49.65,153Z"/><g id="freepik--box--inject-270-8"><path id="Caminho_1490" data-name="Caminho 1490" class="cls-8" d="M9.49,97.11l40.19-23.2,29.48,17L39,114.13Z"/><path id="Caminho_1491" data-name="Caminho 1491" class="cls-7" d="M9.49,97.11l40.19-23.2,29.48,17L39,114.13Z"/><path id="Caminho_1492" data-name="Caminho 1492" class="cls-6" d="M49.3,77.24,37,84.34c-.22.13-.17.38.13.55l13.93,8A1.08,1.08,0,0,0,52,93L64.3,85.9c.23-.13.17-.37-.13-.55l-13.93-8A1.08,1.08,0,0,0,49.3,77.24Z"/><path id="Caminho_1493" data-name="Caminho 1493" class="cls-1" d="M55.53,89.33a.23.23,0,0,0,.22-.12.25.25,0,0,0-.1-.35L44.09,82.18a.27.27,0,0,0-.35.1.28.28,0,0,0,.09.35L55.4,89.3A.15.15,0,0,0,55.53,89.33Z"/><path id="Caminho_1494" data-name="Caminho 1494" class="cls-1" d="M54.24,90.07a.24.24,0,0,0,.22-.12.25.25,0,0,0-.08-.35h0L42.81,82.92a.25.25,0,0,0-.34.08h0a.26.26,0,0,0,.09.35h0L54.12,90A.27.27,0,0,0,54.24,90.07Z"/><path id="Caminho_1495" data-name="Caminho 1495" class="cls-1" d="M53,90.81a.27.27,0,0,0,.26-.27.27.27,0,0,0-.12-.21L41.52,83.65a.27.27,0,0,0-.35.1.26.26,0,0,0,.09.35l11.57,6.67a.19.19,0,0,0,.12,0Z"/><path id="Caminho_1496" data-name="Caminho 1496" class="cls-1" d="M51.68,91.54a.25.25,0,0,0,.22-.12.26.26,0,0,0-.09-.35h0L40.24,84.42a.24.24,0,0,0-.33.08h0a.26.26,0,0,0,.08.35h0l11.56,6.68Z"/><path id="Caminho_1497" data-name="Caminho 1497" class="cls-2" d="M63.14,85.58l-.45-.26-5.27,3,.45.26Z"/><path id="Caminho_1498" data-name="Caminho 1498" class="cls-2" d="M61.31,84.53l-.79-.45-5.26,3,.78.45Z"/><path id="Caminho_1499" data-name="Caminho 1499" class="cls-2" d="M59.48,83.47,59,83.21l-5.27,3,.45.26Z"/><path id="Caminho_1500" data-name="Caminho 1500" class="cls-2" d="M58.1,82.67l-.9-.52-5.27,3,.91.52Z"/><path id="Caminho_1501" data-name="Caminho 1501" class="cls-2" d="M55.81,81.35l-.44-.25-5.27,3,.45.25Z"/><path id="Caminho_1502" data-name="Caminho 1502" class="cls-2" d="M54.51,80.59l-1-.55-5.27,3,1,.55Z"/><path id="Caminho_1503" data-name="Caminho 1503" class="cls-2" d="M52.15,79.24,51.7,79l-5.26,3,.45.26Z"/><path id="Caminho_1504" data-name="Caminho 1504" class="cls-2" d="M51.12,78.63l-.23-.13-5.26,3,.22.14Z"/><path id="Caminho_1505" data-name="Caminho 1505" class="cls-2" d="M53,79.74l-.22-.14-5.27,3.05.23.13Z"/><path id="Caminho_1506" data-name="Caminho 1506" class="cls-2" d="M56.67,81.85l-.22-.13-5.27,3,.23.13Z"/><path id="Caminho_1507" data-name="Caminho 1507" class="cls-2" d="M58.68,83l-.22-.12-5.27,3,.23.13Z"/><path id="Caminho_1508" data-name="Caminho 1508" class="cls-2" d="M60.11,83.87l-.22-.13-5.27,3.05.22.12Z"/><path id="Caminho_1509" data-name="Caminho 1509" class="cls-2" d="M62.12,85l-.22-.13-5.27,3,.22.13Z"/><path id="Caminho_1510" data-name="Caminho 1510" class="cls-2" d="M50.33,78.18l-.45-.26-5.27,3,.45.27Z"/><path id="Caminho_1511" data-name="Caminho 1511" class="cls-8" d="M39,194.59l-29.48-17V97.11l29.48,17Z"/><g id="Grupo_191" data-name="Grupo 191" class="cls-13"><path id="Caminho_1512" data-name="Caminho 1512" d="M39,194.59l-29.48-17V97.11l29.48,17Z"/></g><path id="Caminho_1513" data-name="Caminho 1513" class="cls-8" d="M39,194.59l40.2-23.21V90.92L39,114.13Z"/><path id="Caminho_1514" data-name="Caminho 1514" class="cls-14" d="M39,194.59l40.2-23.21V90.92L39,114.13Z"/><path id="Caminho_1515" data-name="Caminho 1515" class="cls-3" d="M60.41,107.81l-3.9,2.25V104l3.9-2.24Z"/><path id="Caminho_1516" data-name="Caminho 1516" class="cls-2" d="M56.51,104,27,87l3.9-2.25,29.47,17Z"/><path id="Caminho_1517" data-name="Caminho 1517" class="cls-2" d="M17,175.53a3.32,3.32,0,0,1-1.4-2.64v-4l2.83,1.66h.19v.27h0v3.61a1.34,1.34,0,0,1-.55,1.22.89.89,0,0,1-.45.12A1.39,1.39,0,0,1,17,175.53Zm.31-4.34-.2,1.41H16v.3a2.86,2.86,0,0,0,1.16,2.24.63.63,0,0,0,.62.07.92.92,0,0,0,.32-.83V171Zm-.4-.39.84-.15-1.69-1v2.5h.66Z"/><path id="Caminho_1518" data-name="Caminho 1518" class="cls-2" d="M17.08,178.59a.22.22,0,0,0,.23-.22v-3a.22.22,0,0,0-.23-.22.23.23,0,0,0-.23.22v3a.24.24,0,0,0,.23.23Z"/><path id="Caminho_1519" data-name="Caminho 1519" class="cls-2" d="M18.4,179.35a.22.22,0,0,0,.23-.21.22.22,0,0,0-.12-.21l-2.64-1.52a.22.22,0,0,0-.31.08.24.24,0,0,0,.09.32h0l2.64,1.51a.15.15,0,0,0,.11,0Z"/><path id="Caminho_1520" data-name="Caminho 1520" class="cls-2" d="M26.29,184a.51.51,0,0,0,.25-.06.61.61,0,0,0,.28-.55v-.62a.25.25,0,0,0-.19-.27.24.24,0,0,0-.27.19v.7a.19.19,0,0,1,0,.15.17.17,0,0,1-.15,0,1.27,1.27,0,0,1-.42-1v-4a.23.23,0,0,0-.22-.24.22.22,0,0,0-.24.21v4.06a1.72,1.72,0,0,0,.66,1.41A.67.67,0,0,0,26.29,184Z"/><path id="Caminho_1521" data-name="Caminho 1521" class="cls-2" d="M22.65,177v-.13a1.93,1.93,0,0,1,3.14-1.81,6.46,6.46,0,0,1,2.9,5v.4Zm1.16-1.74a1.69,1.69,0,0,0-.7,1.48l5.1,2.94a6,6,0,0,0-2.64-4.22,2.18,2.18,0,0,0-1.13-.35,1.17,1.17,0,0,0-.63.15Z"/><path id="Caminho_1522" data-name="Caminho 1522" class="cls-2" d="M35.41,189.12a.22.22,0,0,0,.23-.22v-7.72a.22.22,0,0,0-.23-.22.22.22,0,0,0-.22.22v7.72A.22.22,0,0,0,35.41,189.12Z"/><path id="Caminho_1523" data-name="Caminho 1523" class="cls-2" d="M36.07,182.94h.1a.23.23,0,0,0,.11-.3h0l-.81-1.91-.9,1a.24.24,0,0,0,0,.32h0a.26.26,0,0,0,.33,0l.42-.5.52,1.2A.22.22,0,0,0,36.07,182.94Z"/><path id="Caminho_1524" data-name="Caminho 1524" class="cls-2" d="M33.31,187.93a.23.23,0,0,0,.23-.23V180a.23.23,0,0,0-.21-.24.22.22,0,0,0-.24.21,0,0,0,0,0,0,0v7.72A.22.22,0,0,0,33.31,187.93Z"/><path id="Caminho_1525" data-name="Caminho 1525" class="cls-2" d="M34,181.74h.09a.23.23,0,0,0,.12-.3l-.82-1.87-.9,1a.23.23,0,1,0,.34.3h0l.42-.49.52,1.2A.24.24,0,0,0,34,181.74Z"/><path id="Caminho_1526" data-name="Caminho 1526" class="cls-6" d="M36.29,164.49v10c0,.39-.27.54-.6.35l-15.6-9a1.34,1.34,0,0,1-.61-1.05v-10c0-.39.26-.54.6-.35l15.6,9A1.32,1.32,0,0,1,36.29,164.49Z"/><path id="Caminho_1527" data-name="Caminho 1527" class="cls-2" d="M20.45,155.86l.5.29v9.08l-.5-.29Z"/><path id="Caminho_1528" data-name="Caminho 1528" class="cls-2" d="M22.5,157l.87.52v9.08l-.87-.51Z"/><path id="Caminho_1529" data-name="Caminho 1529" class="cls-2" d="M24.55,158.23l.5.29v9.08l-.5-.29Z"/><path id="Caminho_1530" data-name="Caminho 1530" class="cls-2" d="M26.1,159.1l1,.6v9.08l-1-.59Z"/><path id="Caminho_1531" data-name="Caminho 1531" class="cls-2" d="M28.65,160.59l.51.3V170l-.51-.29Z"/><path id="Caminho_1532" data-name="Caminho 1532" class="cls-2" d="M30.13,161.43l1.07.64v9.08l-1.07-.64Z"/><path id="Caminho_1533" data-name="Caminho 1533" class="cls-2" d="M32.75,163l.5.29v9.08l-.5-.29Z"/><path id="Caminho_1534" data-name="Caminho 1534" class="cls-2" d="M33.92,163.63l.25.14v9.09l-.25-.15Z"/><path id="Caminho_1535" data-name="Caminho 1535" class="cls-2" d="M31.82,162.46l.25.15v9.08l-.25-.14Z"/><path id="Caminho_1536" data-name="Caminho 1536" class="cls-2" d="M27.69,160l.25.16v9.07l-.25-.14Z"/><path id="Caminho_1537" data-name="Caminho 1537" class="cls-2" d="M25.42,158.75l.26.15V168l-.26-.15Z"/><path id="Caminho_1538" data-name="Caminho 1538" class="cls-2" d="M23.8,157.85l.25.15v9.08l-.25-.14Z"/><path id="Caminho_1539" data-name="Caminho 1539" class="cls-2" d="M21.6,156.51l.25.15v9.08l-.25-.14Z"/><path id="Caminho_1540" data-name="Caminho 1540" class="cls-2" d="M34.8,164.15l.5.29v9.08l-.5-.29Z"/></g></g><g id="freepik--box--inject-270-9"><path id="freepik--shadow--inject-270-6" class="cls-7" d="M118.57,192.78,74.5,218.2,40.66,198.71l44.17-25.35Z"/><g id="freepik--box--inject-270-10"><path id="Caminho_1541" data-name="Caminho 1541" class="cls-8" d="M45.77,159.37,86,136.16l29.48,17-40.2,23.21Z"/><g id="Grupo_192" data-name="Grupo 192" class="cls-15"><path id="Caminho_1542" data-name="Caminho 1542" class="cls-16" d="M45.77,159.37,86,136.16l29.48,17-40.2,23.21Z"/></g><path id="Caminho_1543" data-name="Caminho 1543" class="cls-6" d="M85.58,139.5l-12.34,7.1c-.22.13-.16.38.13.55l13.93,8a1.06,1.06,0,0,0,1,.07l12.33-7.1c.23-.13.17-.37-.13-.54l-13.93-8A1,1,0,0,0,85.58,139.5Z"/><path id="Caminho_1544" data-name="Caminho 1544" class="cls-1" d="M91.81,151.59a.25.25,0,0,0,.22-.12.27.27,0,0,0-.08-.35h0l-11.57-6.67a.26.26,0,0,0-.25.44l11.56,6.68A.3.3,0,0,0,91.81,151.59Z"/><path id="Caminho_1545" data-name="Caminho 1545" class="cls-1" d="M90.52,152.37a.26.26,0,0,0,.13-.49l-11.56-6.71a.27.27,0,0,0-.35.1h0a.26.26,0,0,0,.09.35h0l11.57,6.67A.23.23,0,0,0,90.52,152.37Z"/><path id="Caminho_1546" data-name="Caminho 1546" class="cls-1" d="M89.25,153.06a.25.25,0,0,0,.12-.47l-11.56-6.68a.26.26,0,0,0-.26.44L89.11,153A.23.23,0,0,0,89.25,153.06Z"/><path id="Caminho_1547" data-name="Caminho 1547" class="cls-1" d="M88,153.8a.25.25,0,0,0,.25-.26.26.26,0,0,0-.13-.22l-11.56-6.67a.25.25,0,0,0-.34.09.26.26,0,0,0,.09.35l11.56,6.67A.2.2,0,0,0,88,153.8Z"/><path id="Caminho_1548" data-name="Caminho 1548" class="cls-2" d="M99.42,147.84l-.45-.27-5.27,3.05.45.26Z"/><path id="Caminho_1549" data-name="Caminho 1549" class="cls-2" d="M97.59,146.78l-.78-.44-5.27,3,.79.44Z"/><path id="Caminho_1550" data-name="Caminho 1550" class="cls-2" d="M95.76,145.72l-.45-.25-5.27,3,.45.26Z"/><path id="Caminho_1551" data-name="Caminho 1551" class="cls-2" d="M94.39,144.92l-.91-.51-5.27,3,.91.52Z"/><path id="Caminho_1552" data-name="Caminho 1552" class="cls-2" d="M92.1,143.61l-.45-.26-5.27,3,.45.26Z"/><path id="Caminho_1553" data-name="Caminho 1553" class="cls-2" d="M90.79,142.84l-1-.55-5.26,3,1,.56Z"/><path id="Caminho_1554" data-name="Caminho 1554" class="cls-2" d="M88.44,141.49l-.45-.25-5.27,3,.45.25Z"/><path id="Caminho_1555" data-name="Caminho 1555" class="cls-2" d="M87.4,140.89l-.23-.13-5.26,3,.22.13Z"/><path id="Caminho_1556" data-name="Caminho 1556" class="cls-2" d="M89.24,142l-.22-.13-5.26,3L84,145Z"/><path id="Caminho_1557" data-name="Caminho 1557" class="cls-2" d="M93,144.11l-.22-.13-5.26,3,.22.13Z"/><path id="Caminho_1558" data-name="Caminho 1558" class="cls-2" d="M95,145.28l-.22-.13-5.27,3,.22.13Z"/><path id="Caminho_1559" data-name="Caminho 1559" class="cls-2" d="M96.4,146.13l-.23-.13-5.26,3,.22.13Z"/><path id="Caminho_1560" data-name="Caminho 1560" class="cls-2" d="M98.4,147.25l-.22-.14-5.27,3,.22.14Z"/><path id="Caminho_1561" data-name="Caminho 1561" class="cls-2" d="M86.61,140.44l-.45-.26-5.27,3,.45.26Z"/><path id="Caminho_1562" data-name="Caminho 1562" class="cls-8" d="M75.25,215.54l-29.48-17V159.37l29.48,17Z"/><path id="Caminho_1563" data-name="Caminho 1563" class="cls-8" d="M75.25,215.54l-29.48-17V159.37l29.48,17Z"/><path id="Caminho_1564" data-name="Caminho 1564" class="cls-8" d="M75.25,215.54l40.2-23.2V153.18l-40.2,23.21Z"/><path id="Caminho_1565" data-name="Caminho 1565" class="cls-7" d="M75.25,215.54l40.2-23.2V153.18l-40.2,23.21Z"/><path id="Caminho_1566" data-name="Caminho 1566" class="cls-3" d="M96.69,170.06l-3.9,2.26v-6.06l3.9-2.25Z"/><path id="Caminho_1567" data-name="Caminho 1567" class="cls-2" d="M92.79,166.26l-29.48-17,3.9-2.24,29.48,17Z"/><path id="Caminho_1568" data-name="Caminho 1568" class="cls-2" d="M111.73,188.57a.74.74,0,0,1-.29-.08.88.88,0,0,1-.37-.81v-2.37h0v-.17h.12l1.87-1.1v2.63a2.15,2.15,0,0,1-.92,1.74A.86.86,0,0,1,111.73,188.57Zm-.36-3.08v2.2a.6.6,0,0,0,.22.54.41.41,0,0,0,.4,0,1.87,1.87,0,0,0,.76-1.47v-.2h-.66l-.14-.93Zm1,.73h.43v-1.65l-1.11.66.55.1Z"/><path id="Caminho_1569" data-name="Caminho 1569" class="cls-2" d="M112.06,190.46a.14.14,0,0,1-.14-.14v-2a.15.15,0,0,1,.12-.18.16.16,0,0,1,.18.13v2a.15.15,0,0,1-.15.14h0Z"/><path id="Caminho_1570" data-name="Caminho 1570" class="cls-2" d="M111.21,191a.15.15,0,0,1-.16-.14.16.16,0,0,1,.08-.14l1.73-1a.16.16,0,0,1,.2.06.15.15,0,0,1,0,.2h0l-1.74,1-.07,0Z"/><path id="Caminho_1571" data-name="Caminho 1571" class="cls-2" d="M106,194.05a.47.47,0,0,1-.17,0,.4.4,0,0,1-.18-.36v-.39a.15.15,0,0,1,.15-.15h0a.16.16,0,0,1,.16.15v.51h.1a.86.86,0,0,0,.27-.66v-2.64a.16.16,0,0,1,.13-.17.14.14,0,0,1,.17.12,0,0,0,0,1,0,.05v2.64a1.12,1.12,0,0,1-.42.93A.5.5,0,0,1,106,194.05Z"/><path id="Caminho_1572" data-name="Caminho 1572" class="cls-2" d="M104.42,191.73v-.26a4.25,4.25,0,0,1,1.91-3.3,1.28,1.28,0,0,1,1.79.15,1.26,1.26,0,0,1,.27,1v.08Zm2.83-3.55a1.66,1.66,0,0,0-.75.24,4,4,0,0,0-1.75,2.78l3.36-1.94a1.09,1.09,0,0,0-.46-1A.8.8,0,0,0,107.25,188.18Z"/><path id="Caminho_1573" data-name="Caminho 1573" class="cls-2" d="M100,197.4a.14.14,0,0,1-.14-.14v-5.09A.16.16,0,0,1,100,192a.17.17,0,0,1,.18.13v5.14a.15.15,0,0,1-.15.14Z"/><path id="Caminho_1574" data-name="Caminho 1574" class="cls-2" d="M99.55,193.32h-.06a.16.16,0,0,1-.08-.2l.53-1.22.6.66a.16.16,0,0,1-.05.21.17.17,0,0,1-.18,0l-.28-.33-.34.8A.16.16,0,0,1,99.55,193.32Z"/><path id="Caminho_1575" data-name="Caminho 1575" class="cls-2" d="M101.37,196.62a.16.16,0,0,1-.15-.16h0v-5.08a.15.15,0,0,1,.3,0h0v5.08a.16.16,0,0,1-.15.16Z"/><path id="Caminho_1576" data-name="Caminho 1576" class="cls-2" d="M100.94,192.54h-.06a.14.14,0,0,1-.09-.19h0l.53-1.23.59.66a.15.15,0,0,1,0,.21h0a.14.14,0,0,1-.21,0l-.28-.33-.35.79A.14.14,0,0,1,100.94,192.54Z"/><path id="Caminho_1577" data-name="Caminho 1577" class="cls-6" d="M78.42,199.36v10c0,.38.27.54.6.35l15.6-9a1.32,1.32,0,0,0,.61-1v-10c0-.38-.27-.54-.61-.34l-15.6,9A1.33,1.33,0,0,0,78.42,199.36Z"/><path id="Caminho_1578" data-name="Caminho 1578" class="cls-2" d="M94.26,190.74l-.5.29v9.08l.5-.29Z"/><path id="Caminho_1579" data-name="Caminho 1579" class="cls-2" d="M92.21,191.92l-.87.51v9.08l.87-.51Z"/><path id="Caminho_1580" data-name="Caminho 1580" class="cls-2" d="M90.16,193.1l-.5.29v9.08l.5-.29Z"/><path id="Caminho_1581" data-name="Caminho 1581" class="cls-2" d="M88.61,194l-1,.6v9.08l1-.6Z"/><path id="Caminho_1582" data-name="Caminho 1582" class="cls-2" d="M86.06,195.47l-.5.29v9.08l.5-.29Z"/><path id="Caminho_1583" data-name="Caminho 1583" class="cls-2" d="M84.58,196.3l-1.07.64V206l1.07-.65Z"/><path id="Caminho_1584" data-name="Caminho 1584" class="cls-2" d="M82,197.84l-.5.29v9.08l.5-.29Z"/><path id="Caminho_1585" data-name="Caminho 1585" class="cls-2" d="M80.79,198.5l-.25.15v9.08l.25-.14Z"/><path id="Caminho_1586" data-name="Caminho 1586" class="cls-2" d="M82.89,197.34l-.25.15v9.08l.25-.15Z"/><path id="Caminho_1587" data-name="Caminho 1587" class="cls-2" d="M87,194.92l-.25.14v9.09L87,204Z"/><path id="Caminho_1588" data-name="Caminho 1588" class="cls-2" d="M89.29,193.62l-.26.14v9.09l.26-.15Z"/><path id="Caminho_1589" data-name="Caminho 1589" class="cls-2" d="M90.91,192.72l-.25.15V202l.25-.14Z"/><path id="Caminho_1590" data-name="Caminho 1590" class="cls-2" d="M93.11,191.38l-.25.16v9.08l.25-.15Z"/><path id="Caminho_1591" data-name="Caminho 1591" class="cls-2" d="M79.9,199l-.5.29v9.08l.5-.29Z"/></g></g></g><g id="freepik--speech-bubble--inject-270"><g id="freepik--speech-bubble--inject-270-2"><g id="freepik--speech-bubble--inject-270-3"><path id="Caminho_1660" data-name="Caminho 1660" class="cls-8" d="M30.72,55.2l-9.78,5.66,3.89,8.7a.78.78,0,0,0,.37.41l3.36,2a.9.9,0,0,0,1.23-.33,1.54,1.54,0,0,0,.08-.19l4.21-14.29Z"/><path id="Caminho_1661" data-name="Caminho 1661" class="cls-17" d="M30.72,55.2l-9.78,5.66,3.89,8.7a.78.78,0,0,0,.37.41l3.36,2a.9.9,0,0,0,1.23-.33,1.54,1.54,0,0,0,.08-.19l4.21-14.29Z"/><path id="Caminho_1662" data-name="Caminho 1662" class="cls-8" d="M24.34,62.8l3.88,8.7a.89.89,0,0,0,1.67-.11L34.11,57.1Z"/><path id="Caminho_1663" data-name="Caminho 1663" class="cls-8" d="M43.05.21,6.22,21.5A1.88,1.88,0,0,0,5.37,23V68.71a1.87,1.87,0,0,0,.85,1.44l3,1.7a1.89,1.89,0,0,0,1.7,0L47.81,50.56a1.84,1.84,0,0,0,.85-1.46V3.36a1.84,1.84,0,0,0-.85-1.46l-3-1.7A1.92,1.92,0,0,0,43.05.21Z"/><path id="Caminho_1664" data-name="Caminho 1664" class="cls-11" d="M48.62,3.21c-.06-.43-.41-.58-.84-.34L11,24.15a1.75,1.75,0,0,0-.6.64L5.62,22.1a1.67,1.67,0,0,1,.58-.6L43.06.21a1.86,1.86,0,0,1,1.69,0l3,1.7a1.86,1.86,0,0,1,.84,1.3Z"/><path id="Caminho_1665" data-name="Caminho 1665" class="cls-8" d="M10.08,71.37V25.62A1.84,1.84,0,0,1,11,24.15L47.82,2.88c.47-.27.85-.06.85.48V49.11a1.86,1.86,0,0,1-.85,1.46L11,71.86C10.45,72.13,10.08,71.91,10.08,71.37Z"/><path id="Caminho_1666" data-name="Caminho 1666" class="cls-17" d="M11,71.86a2,2,0,0,1-1.7,0l-3-1.71a1.84,1.84,0,0,1-.85-1.45V23a1.74,1.74,0,0,1,.27-.86l4.75,2.69a1.65,1.65,0,0,0-.26.83V71.37C10.08,71.86,10.42,72.14,11,71.86Z"/></g><g id="freepik--check-list--inject-270"><path id="Caminho_1667" data-name="Caminho 1667" class="cls-6" d="M14,38.36a.42.42,0,0,1-.43-.41h0V30a.4.4,0,0,1,.22-.36l6.9-3.95a.4.4,0,0,1,.42,0,.41.41,0,0,1,.21.36V34a.43.43,0,0,1-.21.36l-6.9,4a.4.4,0,0,1-.21.09Zm.43-8.14v7l6-3.5v-7Z"/><path id="freepik--Check--inject-270" class="cls-2" d="M21.72,24a.83.83,0,0,0-1.1.44h0L17.46,32l-.79-.73a.83.83,0,1,0-1.17,1.19h0L17.14,34a.84.84,0,0,0,.58.24h.17a.87.87,0,0,0,.6-.5l3.67-8.66A.78.78,0,0,0,21.81,24l-.09,0Z"/><path id="Caminho_1668" data-name="Caminho 1668" class="cls-2" d="M26.77,25.39l17.6-10.16c.61-.36,1.11-.1,1.11.56a2.37,2.37,0,0,1-1.12,1.84L26.76,27.79c-.61.35-1.1.1-1.1-.57A2.38,2.38,0,0,1,26.77,25.39Z"/><path id="Caminho_1669" data-name="Caminho 1669" class="cls-6" d="M14,50.31a.5.5,0,0,1-.21-.05.47.47,0,0,1-.22-.38v-8a.42.42,0,0,1,.22-.37l6.9-3.95a.42.42,0,0,1,.57.16.39.39,0,0,1,.06.21V45.9a.42.42,0,0,1-.21.37l-6.9,3.95A.4.4,0,0,1,14,50.31Zm.42-8.14v7l6-3.5v-7Z"/><path id="freepik--check--inject-270-2" class="cls-2" d="M21.72,35.94a.84.84,0,0,0-1.1.45l-3.16,7.52-.79-.73a.83.83,0,0,0-1.18,0h0a.85.85,0,0,0,0,1.18l1.63,1.58a.78.78,0,0,0,.59.24h.16a.78.78,0,0,0,.6-.49L22.11,37A.83.83,0,0,0,21.72,35.94Z"/><path id="Caminho_1670" data-name="Caminho 1670" class="cls-2" d="M26.77,37.29l17.6-10.15c.61-.36,1.11-.1,1.11.56a2.38,2.38,0,0,1-1.11,1.83L26.77,39.7c-.61.34-1.1.09-1.1-.57A2.4,2.4,0,0,1,26.77,37.29Z"/><path id="Caminho_1671" data-name="Caminho 1671" class="cls-6" d="M14,62.25a.4.4,0,0,1-.21-.07.42.42,0,0,1-.22-.36v-8a.45.45,0,0,1,.22-.37l6.9-4a.4.4,0,0,1,.42,0,.41.41,0,0,1,.21.37v7.93a.44.44,0,0,1-.21.37l-6.9,4A.49.49,0,0,1,14,62.25Zm.42-8.15v7l6-3.49v-7Z"/><path id="freepik--check--inject-270-3" class="cls-2" d="M21.72,47.89a.85.85,0,0,0-1.1.44h0l-3.16,7.53-.79-.74a.84.84,0,0,0-1.17,1.2h0l1.64,1.59a.83.83,0,0,0,.58.23h.17a.84.84,0,0,0,.6-.5l3.63-8.7a.78.78,0,0,0-.38-1h0Z"/><path id="Caminho_1672" data-name="Caminho 1672" class="cls-2" d="M26.77,49.21l17.6-10.16c.61-.35,1.11-.1,1.11.57a2.38,2.38,0,0,1-1.11,1.83L26.77,51.61c-.61.35-1.1.1-1.1-.56A2.37,2.37,0,0,1,26.77,49.21Z"/></g></g></g></g></g></g></svg>