<svg xmlns="http://www.w3.org/2000/svg" xmlns:xlink="http://www.w3.org/1999/xlink" width="619" height="554.262" viewBox="0 0 619 554.262"><defs><filter id="a" x="0" y="0" width="619" height="413" filterUnits="userSpaceOnUse"><feOffset dy="3" input="SourceAlpha"/><feGaussianBlur stdDeviation="3" result="b"/><feFlood flood-opacity="0.161"/><feComposite operator="in" in2="b"/><feComposite in="SourceGraphic"/></filter><filter id="c" x="0" y="33" width="619" height="380" filterUnits="userSpaceOnUse"><feOffset dy="3" input="SourceAlpha"/><feGaussianBlur stdDeviation="3" result="d"/><feFlood flood-opacity="0.161"/><feComposite operator="in" in2="d"/><feComposite in="SourceGraphic"/></filter><filter id="e" x="15" y="49" width="589" height="327" filterUnits="userSpaceOnUse"><feOffset dy="3" input="SourceAlpha"/><feGaussianBlur stdDeviation="3" result="f"/><feFlood flood-opacity="0.161"/><feComposite operator="in" in2="f"/><feComposite in="SourceGraphic"/></filter><clipPath id="g"><path d="M272.906,160.411s30.791,29.753,32.174,44.624-21.453,26.986-14.871,31.828,24.543,17.649,17.638,28.716-10.375,13.845-7.954,16.265,8.3,4.462,7.954,10.375-7.263,10.989-7.263,10.989H191.255s-5.879.346-5.188-7.954,12.45-12.8,10.375-19.032-17.3-11.067-17.3-23.528,17.995-17.638,20.761-23.517-8.992-9.695-11.413-17.3,10.04-20.761,17.638-27.678,38.064-26.986,50.2-27.678S272.906,160.411,272.906,160.411Z" transform="translate(-179.14 -156.446)" fill="#263238" stroke="#263238" stroke-linecap="round" stroke-linejoin="round" stroke-width="1"/></clipPath><clipPath id="h"><path d="M303.561,386.839c-5.109-3.983-11.747-10.531-14.927-19.456-4.942-13.845-8.579-88.132-9.338-104.866-2.644-.8-5.3-1.606-7.91-2.376l1.116,69.87H222.859l-4.34-69.513c-2.644.815-5.31,1.651-7.921,2.477.056,14.112.056,79.944-3.916,98.831-3.046,14.5-15.73,24.287-23.428,29.006a202.762,202.762,0,0,1-10.565,44.033H314.929A164.149,164.149,0,0,1,303.561,386.839Z" transform="translate(-172.69 -260.14)" fill="#263238" stroke="#263238" stroke-linecap="round" stroke-linejoin="round" stroke-width="1"/></clipPath><clipPath id="i"><path d="M199.432,210.458s54.319-22.49,67.471-32.877,16.6-30.445-14.19-29.407S189.4,185.2,186.636,201.8,194.9,214.92,194.9,214.92" transform="translate(-186.191 -148.135)" fill="#263238" stroke="#263238" stroke-linecap="round" stroke-linejoin="round" stroke-width="1"/></clipPath></defs><g transform="translate(-951 -3312)"><g transform="translate(0 0.5)"><g transform="translate(960 3317.5)"><g transform="translate(-359 -2088.127)"><path d="M327.5,0,436.671,189.255,327.5,378.51H109.168L0,189.255,109.168,0Z" transform="translate(359.923 2096.309)" fill="#bdecc4"/><path d="M327.75,0,437,189.5,327.75,379H109.25L0,189.5,109.25,0Z" transform="translate(360 2096.127)" fill="#666"/><g transform="matrix(1, 0, 0, 1, 350, 2082.13)" filter="url(#a)"><rect width="601" height="395" transform="translate(9 6)" fill="#fff"/></g><g transform="matrix(1, 0, 0, 1, 350, 2082.13)" filter="url(#c)"><rect width="601" height="362" transform="translate(9 39)" fill="#0074ff"/></g><g transform="matrix(1, 0, 0, 1, 350, 2082.13)" filter="url(#e)"><g transform="translate(24 55)" fill="#fff" stroke="#bdecc4" stroke-width="1"><rect width="571" height="309" rx="15" stroke="none"/><rect x="0.5" y="0.5" width="570" height="308" rx="14.5" fill="none"/></g></g><g transform="translate(653 2094.127)" fill="#fff" stroke="#bdecc4" stroke-width="1"><rect width="95" height="20" rx="2" stroke="none"/><rect x="0.5" y="0.5" width="94" height="19" rx="1.5" fill="none"/></g><text transform="translate(658 2106.127)" fill="#0074ff" font-size="5" font-family="Ubuntu-Medium, Ubuntu" font-weight="500"><tspan x="0" y="0">Selecionar Vendedor</tspan></text><path d="M9.156,13.617,11.4,11.371a.422.422,0,0,1,.6,0,.428.428,0,0,1,0,.6L9.456,14.516a.423.423,0,0,1-.585.012l-2.56-2.555a.424.424,0,1,1,.6-.6Z" transform="translate(731.125 2091.593)" fill="#0074ff"/><g transform="translate(758 2094.127)" fill="#fff" stroke="#bdecc4" stroke-width="1"><rect width="95" height="20" rx="2" stroke="none"/><rect x="0.5" y="0.5" width="94" height="19" rx="1.5" fill="none"/></g><text transform="translate(762 2106.127)" fill="#0074ff" font-size="5" font-family="Ubuntu-Medium, Ubuntu" font-weight="500"><tspan x="0" y="0">Tabela de Preços</tspan></text><path d="M9.156,13.617,11.4,11.371a.422.422,0,0,1,.6,0,.428.428,0,0,1,0,.6L9.456,14.516a.423.423,0,0,1-.585.012l-2.56-2.555a.424.424,0,1,1,.6-.6Z" transform="translate(835.332 2091.504)" fill="#0074ff"/><text transform="translate(880 2106.127)" fill="#00c853" font-size="5" font-family="Ubuntu-Bold, Ubuntu" font-weight="700"><tspan x="0" y="0">SEFAZ: A3</tspan></text><path d="M8.592,4.577A4.015,4.015,0,1,1,4.577.562,4.015,4.015,0,0,1,8.592,4.577ZM4.113,6.7,7.092,3.724a.259.259,0,0,0,0-.366l-.366-.366a.259.259,0,0,0-.366,0L3.93,5.421,2.8,4.287a.259.259,0,0,0-.366,0l-.366.366a.259.259,0,0,0,0,.366L3.747,6.7a.259.259,0,0,0,.366,0Z" transform="translate(865.699 2100.285)" fill="#00c853"/><g transform="translate(862 2094.127)" fill="none" stroke="#bdecc4" stroke-width="1"><rect width="54" height="20" rx="2" stroke="none"/><rect x="0.5" y="0.5" width="53" height="19" rx="1.5" fill="none"/></g><g transform="translate(394.182 2104.654)"><g transform="translate(-20.402 -7.137)"><g transform="translate(8.405 7.416)"><path d="M104.424,97.687a3.392,3.392,0,0,1-1.3-.249,3.159,3.159,0,0,1-1.056-.69,3.342,3.342,0,0,1-.973-2.386v-.017a3.358,3.358,0,0,1,.964-2.378,3.226,3.226,0,0,1,1.072-.715A3.509,3.509,0,0,1,104.49,91a3.892,3.892,0,0,1,.9.091,3.085,3.085,0,0,1,.74.274,2.959,2.959,0,0,1,.607.424,3.525,3.525,0,0,1,.482.54l-.632.49a1.047,1.047,0,0,1-1.222.05l-.083-.058a1.5,1.5,0,0,0-.8-.2,1.43,1.43,0,0,0-.623.133,1.489,1.489,0,0,0-.482.366,1.7,1.7,0,0,0-.316.54,1.9,1.9,0,0,0-.116.665v.017a1.962,1.962,0,0,0,.116.673,1.688,1.688,0,0,0,.316.549,1.48,1.48,0,0,0,.482.366,1.422,1.422,0,0,0,.623.133,1.762,1.762,0,0,0,.457-.058,1.937,1.937,0,0,0,.49-.249,1.072,1.072,0,0,1,1.214.025l.632.449a4.787,4.787,0,0,1-.5.582,2.877,2.877,0,0,1-.615.457,3.217,3.217,0,0,1-.773.308A3.849,3.849,0,0,1,104.424,97.687Z" transform="translate(-101.099 -90.846)" fill="#2cc3ff"/><path d="M181.2,89.2h.657a1.1,1.1,0,0,1,1.1,1.1v5.611h-1.746Z" transform="translate(-174.541 -89.2)" fill="#2cc3ff"/><path d="M211.043,113.9a2.909,2.909,0,0,1-1.1-.2,2.685,2.685,0,0,1-.873-.557,2.5,2.5,0,0,1-.773-1.821v-.017a2.486,2.486,0,0,1,.208-1.006,2.56,2.56,0,0,1,.574-.831,2.735,2.735,0,0,1,.873-.565,2.885,2.885,0,0,1,1.106-.208,2.852,2.852,0,0,1,1.1.208,2.793,2.793,0,0,1,.873.557,2.46,2.46,0,0,1,.574.815,2.5,2.5,0,0,1,.208,1v.017a2.486,2.486,0,0,1-.208,1.006,2.552,2.552,0,0,1-.574.831,2.743,2.743,0,0,1-.873.565A2.885,2.885,0,0,1,211.043,113.9Zm.017-1.488a1.048,1.048,0,0,0,.432-.091.948.948,0,0,0,.324-.241,1.089,1.089,0,0,0,.208-.349,1.2,1.2,0,0,0,.075-.416V111.3a1.172,1.172,0,0,0-.075-.432,1.072,1.072,0,0,0-.224-.349,1.114,1.114,0,0,0-.333-.241.981.981,0,0,0-.424-.091,1.047,1.047,0,0,0-.432.091.948.948,0,0,0-.324.241,1.09,1.09,0,0,0-.208.349,1.206,1.206,0,0,0-.075.416v.017a1.173,1.173,0,0,0,.075.432,1.064,1.064,0,0,0,.224.349,1.105,1.105,0,0,0,.333.241A.973.973,0,0,0,211.06,112.414Z" transform="translate(-199.388 -107.077)" fill="#2cc3ff"/><path d="M282,114.988a1.631,1.631,0,0,1-1.255-.482,1.888,1.888,0,0,1-.449-1.338v-3.259h.665a1.089,1.089,0,0,1,1.089,1.081v1.6a.893.893,0,0,0,.191.624.648.648,0,0,0,.507.208.682.682,0,0,0,.515-.216.822.822,0,0,0,.2-.624V109.9h1.754v3.766a1.205,1.205,0,0,1-1.2,1.205h-.557v-.682a2.446,2.446,0,0,1-.59.549A1.538,1.538,0,0,1,282,114.988Z" transform="translate(-265.403 -108.179)" fill="#2cc3ff"/><path d="M347.781,96.417a2.036,2.036,0,0,1-.84-.183,2.077,2.077,0,0,1-.7-.507,2.5,2.5,0,0,1-.474-.806,3.043,3.043,0,0,1-.175-1.072v-.017a3.192,3.192,0,0,1,.175-1.089,2.444,2.444,0,0,1,.474-.815,2.1,2.1,0,0,1,.7-.515,2,2,0,0,1,.831-.175,1.754,1.754,0,0,1,.914.216,2.519,2.519,0,0,1,.607.5V90.747a1.147,1.147,0,0,1,1.147-1.147h.607v5.528a1.18,1.18,0,0,1-1.18,1.18h-.582v-.665a2.712,2.712,0,0,1-.607.54A1.54,1.54,0,0,1,347.781,96.417Zm.532-1.463a.948.948,0,0,0,.391-.083.964.964,0,0,0,.324-.233,1.115,1.115,0,0,0,.216-.357,1.28,1.28,0,0,0,.075-.457v-.017a1.247,1.247,0,0,0-.075-.449,1.124,1.124,0,0,0-.216-.357.953.953,0,0,0-1.106-.233A1,1,0,0,0,347.6,93a1.115,1.115,0,0,0-.216.357,1.223,1.223,0,0,0-.083.457v.017a1.223,1.223,0,0,0,.083.457,1.172,1.172,0,0,0,.216.357.965.965,0,0,0,.316.233.948.948,0,0,0,.4.083Z" transform="translate(-325.269 -89.567)" fill="#2cc3ff"/></g><path d="M3.009,6.656A5,5,0,0,1,1.372,6.39,3.974,3.974,0,0,1,0,5.576l.524-.623a.823.823,0,0,1,1.031-.191,3.134,3.134,0,0,0,1.521.407,1.064,1.064,0,0,0,.549-.116.357.357,0,0,0,.191-.324V4.711a.349.349,0,0,0-.05-.183.474.474,0,0,0-.166-.15,1.754,1.754,0,0,0-.333-.141q-.208-.067-.54-.141a9.448,9.448,0,0,1-.956-.266,2.926,2.926,0,0,1-.765-.366A1.663,1.663,0,0,1,.5,2.9a1.671,1.671,0,0,1-.191-.831V2.051a1.979,1.979,0,0,1,.175-.823,1.829,1.829,0,0,1,.5-.648,2.336,2.336,0,0,1,.79-.424A3.317,3.317,0,0,1,2.8,0,4.63,4.63,0,0,1,4.273.222a3.724,3.724,0,0,1,1.172.64l-.457.648a.823.823,0,0,1-1.023.266L3.65,1.652a2.735,2.735,0,0,0-.9-.158.806.806,0,0,0-.482.116.357.357,0,0,0-.158.291v.017a.357.357,0,0,0,.05.191.457.457,0,0,0,.175.15,1.92,1.92,0,0,0,.341.141q.216.067.549.141a7.864,7.864,0,0,1,1,.283,2.984,2.984,0,0,1,.757.391,1.563,1.563,0,0,1,.474.557,1.7,1.7,0,0,1,.166.773v.017a1.979,1.979,0,0,1-.191.881A1.9,1.9,0,0,1,4.9,6.1a2.394,2.394,0,0,1-.815.416,3.733,3.733,0,0,1-1.072.141Z" transform="translate(0 0.004)" fill="#0074ff"/><path d="M73.5,2h.748A1.047,1.047,0,0,1,75.3,3.047V8.426h-.748a1.047,1.047,0,0,1-1.039-1.039Z" transform="translate(-67.39 -1.833)" fill="#0074ff"/><path d="M104.705,6.982a3.874,3.874,0,0,1-1.4-.241,3.317,3.317,0,0,1-1.106-.682,3.159,3.159,0,0,1-.74-1.047,3.326,3.326,0,0,1-.266-1.347V3.649a3.325,3.325,0,0,1,.973-2.386,3.259,3.259,0,0,1,1.1-.715,3.658,3.658,0,0,1,1.38-.258,3.965,3.965,0,0,1,1.471.249,4.04,4.04,0,0,1,1.139.69l-.54.657a.881.881,0,0,1-1.081.224l-.133-.067a2.112,2.112,0,0,0-.84-.158,1.529,1.529,0,0,0-.648.141,1.63,1.63,0,0,0-.515.374,1.8,1.8,0,0,0-.349.565,1.837,1.837,0,0,0-.125.69v.017a1.954,1.954,0,0,0,.133.715,1.613,1.613,0,0,0,.366.565,1.713,1.713,0,0,0,.557.366,1.8,1.8,0,0,0,.707.133,1.85,1.85,0,0,0,1.031-.266V4.4h-.391a.881.881,0,0,1-.881-.881V3.1h2.96V5.985a4.681,4.681,0,0,1-1.214.707,4.157,4.157,0,0,1-1.588.291Z" transform="translate(-92.784 -0.264)" fill="#0074ff"/><path d="M186.531,6.689a3.816,3.816,0,0,1-1.388-.241,3.259,3.259,0,0,1-1.081-.673,3,3,0,0,1-.707-1.047,3.526,3.526,0,0,1-.258-1.363V3.339a3.583,3.583,0,0,1,.233-1.305A3.227,3.227,0,0,1,184,.969a3.134,3.134,0,0,1,1.023-.715,3.2,3.2,0,0,1,1.305-.266,3.375,3.375,0,0,1,1.438.283,2.843,2.843,0,0,1,1.006.765,3.226,3.226,0,0,1,.59,1.114,6.342,6.342,0,0,1,.183,1.8h-4.281a1.326,1.326,0,0,0,.491.79,1.488,1.488,0,0,0,.9.258,1.762,1.762,0,0,0,.74-.158l.158-.083a1.014,1.014,0,0,1,1.147.1l.615.507a3.459,3.459,0,0,1-1.139.948A3.328,3.328,0,0,1,186.531,6.689Zm.914-3.882a1.422,1.422,0,0,0-.357-.848,1,1,0,0,0-.757-.316.948.948,0,0,0-.732.316,1.662,1.662,0,0,0-.374.848Z" transform="translate(-167.876 0.013)" fill="#0074ff"/><path d="M293.409,18.7h0a4.356,4.356,0,0,0,1.787-8.33,5.636,5.636,0,0,0-10.383-2.935l-.416-.025a4.364,4.364,0,0,0-4.107,2.943.51.51,0,1,0,.964.333A3.342,3.342,0,0,1,284.4,8.423a3.567,3.567,0,0,1,.59.058l.357.067.175-.316a4.639,4.639,0,0,1,4.015-2.386h.008a4.63,4.63,0,0,1,4.63,4.63v.05a1.419,1.419,0,0,0-.017.166v.374l.357.125a3.342,3.342,0,0,1-1.089,6.493.511.511,0,0,0,0,1.023Z" transform="translate(-256.964 -4.431)" fill="#0074ff"/></g></g><text transform="translate(398 2466.127)" fill="#fff" font-size="5" font-family="Ubuntu-Bold, Ubuntu" font-weight="700"><tspan x="0" y="0">F2: Nova Busca</tspan></text><text transform="translate(653 2466.127)" fill="#fff" font-size="5" font-family="Ubuntu-Bold, Ubuntu" font-weight="700"><tspan x="0" y="0">F6: Adicionar Produtos</tspan></text><text transform="translate(468 2466.127)" fill="#fff" font-size="5" font-family="Ubuntu-Bold, Ubuntu" font-weight="700"><tspan x="0" y="0">F3: Busca Orçamento</tspan></text><text transform="translate(749 2466.127)" fill="#fff" font-size="5" font-family="Ubuntu-Bold, Ubuntu" font-weight="700"><tspan x="0" y="0">F8: Finalizar Venda</tspan></text><text transform="translate(558 2466.127)" fill="#fff" font-size="5" font-family="Ubuntu-Bold, Ubuntu" font-weight="700"><tspan x="0" y="0">F4: Mudar Quantidade</tspan></text><text transform="translate(832 2466.127)" fill="#fff" font-size="5" font-family="Ubuntu-Bold, Ubuntu" font-weight="700"><tspan x="0" y="0">F12: Menu Saída Consignada</tspan></text><path d="M15,0H556a15,15,0,0,1,15,15V43a0,0,0,0,1,0,0H0a0,0,0,0,1,0,0V15A15,15,0,0,1,15,0Z" transform="translate(374 2137.127)" fill="#2cc3ff"/><path d="M15,0H556a15,15,0,0,1,15,15V43a0,0,0,0,1,0,0H0a0,0,0,0,1,0,0V15A15,15,0,0,1,15,0Z" transform="translate(945 2446.127) rotate(180)" fill="#2cc3ff"/><rect width="569" height="24" transform="translate(375 2180.127)" fill="#f9f9f9"/><g transform="translate(398 2146.127)" fill="#fff" stroke="#bdecc4" stroke-width="1"><rect width="186" height="25" rx="2" stroke="none"/><rect x="0.5" y="0.5" width="185" height="24" rx="1.5" fill="none"/></g><g transform="translate(398 2413.127)" fill="#fff" stroke="#bdecc4" stroke-width="1"><rect width="186" height="24" rx="2" stroke="none"/><rect x="0.5" y="0.5" width="185" height="23" rx="1.5" fill="none"/></g><text transform="translate(407 2161.127)" fill="#0074ff" font-size="7" font-family="Ubuntu-Medium, Ubuntu" font-weight="500"><tspan x="0" y="0">Buscar produto...</tspan></text><text transform="translate(407 2427.127)" fill="#0074ff" font-size="7" font-family="Ubuntu-Medium, Ubuntu" font-weight="500"><tspan x="0" y="0">Buscar cliente por Nome ou CPF/CNPJ...</tspan></text><g transform="translate(568.476 2155.472)"><path d="M10.421,7.461A2.961,2.961,0,1,1,7.461,4.5,2.961,2.961,0,0,1,10.421,7.461Z" transform="translate(-4.5 -4.5)" fill="none" stroke="#0074ff" stroke-linecap="round" stroke-linejoin="round" stroke-width="3"/><path d="M26.585,26.585l-1.61-1.61" transform="translate(-19.923 -19.923)" fill="none" stroke="#0074ff" stroke-linecap="round" stroke-linejoin="round" stroke-width="3"/></g><g transform="translate(568.476 2421.936)"><path d="M10.421,7.461A2.961,2.961,0,1,1,7.461,4.5,2.961,2.961,0,0,1,10.421,7.461Z" transform="translate(-4.5 -4.5)" fill="none" stroke="#0074ff" stroke-linecap="round" stroke-linejoin="round" stroke-width="3"/><path d="M26.585,26.585l-1.61-1.61" transform="translate(-19.923 -19.923)" fill="none" stroke="#0074ff" stroke-linecap="round" stroke-linejoin="round" stroke-width="3"/></g><g transform="translate(589 2146.127)" fill="#00c853" stroke="#bdecc4" stroke-width="1"><rect width="54" height="25" rx="10" stroke="none"/><rect x="0.5" y="0.5" width="53" height="24" rx="9.5" fill="none"/></g><g transform="translate(836 2146.127)" fill="#fff" stroke="#00c853" stroke-width="1"><rect width="84" height="25" rx="10" stroke="none"/><rect x="0.5" y="0.5" width="83" height="24" rx="9.5" fill="none"/></g><g transform="translate(861 2413.127)" fill="#fff" stroke="#00c853" stroke-width="1"><rect width="59" height="24" rx="10" stroke="none"/><rect x="0.5" y="0.5" width="58" height="23" rx="9.5" fill="none"/></g><text transform="translate(598 2161.127)" fill="#fff" font-size="7" font-family="Ubuntu-Bold, Ubuntu" font-weight="700"><tspan x="0" y="0">Add. Item</tspan></text><text transform="translate(845 2160.127)" fill="#00c853" font-size="6" font-family="Ubuntu-Bold, Ubuntu" font-weight="700"><tspan x="0" y="0">Buscar Orçamento</tspan></text><ellipse cx="9.5" cy="10" rx="9.5" ry="10" transform="translate(926 2094.127)" fill="#da4f49"/><ellipse cx="9" cy="8.5" rx="9" ry="8.5" transform="translate(888 2215.127)" fill="#da4f49"/><path d="M8.08,1.037a4.755,4.755,0,1,1-5.527,0,.462.462,0,0,1,.671.148l.3.539A.46.46,0,0,1,3.4,2.32a3.221,3.221,0,1,0,3.833,0,.457.457,0,0,1-.125-.593l.3-.539a.46.46,0,0,1,.667-.15ZM6.085,5.063V.46A.459.459,0,0,0,5.625,0H5.012a.459.459,0,0,0-.46.46v4.6a.459.459,0,0,0,.46.46h.614A.459.459,0,0,0,6.085,5.063Z" transform="translate(929.936 2099.896)" fill="#fff"/><text transform="translate(398 2195.127)" fill="#666" font-size="7" font-family="Ubuntu-Bold, Ubuntu" font-weight="700"><tspan x="0" y="0">Nome do produto</tspan></text><text transform="translate(650 2195.127)" fill="#666" font-size="7" font-family="Ubuntu-Bold, Ubuntu" font-weight="700"><tspan x="0" y="0">Quantidade</tspan></text><text transform="translate(750 2195.127)" fill="#666" font-size="7" font-family="Ubuntu-Bold, Ubuntu" font-weight="700"><tspan x="0" y="0">Valor Un.</tspan></text><text transform="translate(818 2195.127)" fill="#666" font-size="7" font-family="Ubuntu-Bold, Ubuntu" font-weight="700"><tspan x="0" y="0">Valor Total</tspan></text><g transform="translate(647 2213.127)" fill="#fff" stroke="#bdecc4" stroke-width="1"><rect width="48" height="20" rx="2" stroke="none"/><rect x="0.5" y="0.5" width="47" height="19" rx="1.5" fill="none"/></g><g transform="translate(431.009 2219.901)"><text transform="translate(-0.01 6.726)" fill="#0074ff" font-size="7" font-family="Ubuntu-Bold, Ubuntu" font-weight="700"><tspan x="0" y="0">A La Minuta Acebolada</tspan></text></g><text transform="translate(431 2264.627)" fill="#0074ff" font-size="7" font-family="Ubuntu-Bold, Ubuntu" font-weight="700"><tspan x="0" y="0">Refrigerante Lata Coca-Cola</tspan></text><text transform="translate(431 2302.627)" fill="#0074ff" font-size="7" font-family="Ubuntu-Bold, Ubuntu" font-weight="700"><tspan x="0" y="0">Suco de Laranja</tspan></text><text transform="translate(431 2340.627)" fill="#0074ff" font-size="7" font-family="Ubuntu-Bold, Ubuntu" font-weight="700"><tspan x="0" y="0">Barra de chocolate Garoto</tspan></text><text transform="translate(671 2225.127)" fill="#666" font-size="7" font-family="Ubuntu-Bold, Ubuntu" font-weight="700"><tspan x="-1.988" y="0">2</tspan></text><text transform="translate(765 2226.127)" fill="#666" font-size="7" font-family="Ubuntu-Bold, Ubuntu" font-weight="700"><tspan x="-13.976" y="0">R$ 24,90</tspan></text><text transform="translate(837 2226.127)" fill="#666" font-size="7" font-family="Ubuntu-Bold, Ubuntu" font-weight="700"><tspan x="-13.976" y="0">R$ 49,80</tspan></text><path d="M6.628,5.054H4.333V2.76a.51.51,0,0,0-.51-.51h-.51a.51.51,0,0,0-.51.51V5.054H.51a.51.51,0,0,0-.51.51v.51a.51.51,0,0,0,.51.51H2.8V8.878a.51.51,0,0,0,.51.51h.51a.51.51,0,0,0,.51-.51V6.583H6.628a.51.51,0,0,0,.51-.51v-.51A.51.51,0,0,0,6.628,5.054Z" transform="translate(699.723 2217.459)" fill="#00c853"/><path d="M6.628,14.625H.51a.51.51,0,0,0-.51.51v.51a.51.51,0,0,0,.51.51H6.628a.51.51,0,0,0,.51-.51v-.51A.51.51,0,0,0,6.628,14.625Z" transform="translate(635.486 2207.891)" fill="#da4f49"/><path d="M9.643,7.662h0L7.478,5.5,9.643,3.332h0a.224.224,0,0,0,0-.315L8.62,1.993a.224.224,0,0,0-.315,0h0L6.139,4.159,3.974,1.993h0a.224.224,0,0,0-.315,0L2.636,3.016a.224.224,0,0,0,0,.315h0L4.8,5.5,2.636,7.662h0a.224.224,0,0,0,0,.315L3.659,9a.224.224,0,0,0,.315,0h0L6.14,6.835,8.3,9h0A.224.224,0,0,0,8.62,9L9.643,7.977a.224.224,0,0,0,0-.315Z" transform="translate(891.29 2217.781)" fill="#fff"/><ellipse cx="9" cy="8.5" rx="9" ry="8.5" transform="translate(888 2253.127)" fill="#da4f49"/><g transform="translate(647 2251.127)" fill="#fff" stroke="#bdecc4" stroke-width="1"><rect width="48" height="20" rx="2" stroke="none"/><rect x="0.5" y="0.5" width="47" height="19" rx="1.5" fill="none"/></g><text transform="translate(671 2263.127)" fill="#666" font-size="7" font-family="Ubuntu-Bold, Ubuntu" font-weight="700"><tspan x="-1.988" y="0">1</tspan></text><text transform="translate(764 2263.127)" fill="#666" font-size="6" font-family="Ubuntu-Bold, Ubuntu" font-weight="700"><tspan x="-10.275" y="0">R$ 6,50</tspan></text><text transform="translate(835 2263.127)" fill="#666" font-size="6" font-family="Ubuntu-Bold, Ubuntu" font-weight="700"><tspan x="-10.275" y="0">R$ 6,50</tspan></text><path d="M6.628,5.054H4.333V2.76a.51.51,0,0,0-.51-.51h-.51a.51.51,0,0,0-.51.51V5.054H.51a.51.51,0,0,0-.51.51v.51a.51.51,0,0,0,.51.51H2.8V8.878a.51.51,0,0,0,.51.51h.51a.51.51,0,0,0,.51-.51V6.583H6.628a.51.51,0,0,0,.51-.51v-.51A.51.51,0,0,0,6.628,5.054Z" transform="translate(699.723 2255.525)" fill="#00c853"/><path d="M6.628,14.625H.51a.51.51,0,0,0-.51.51v.51a.51.51,0,0,0,.51.51H6.628a.51.51,0,0,0,.51-.51v-.51A.51.51,0,0,0,6.628,14.625Z" transform="translate(635.486 2245.958)" fill="#da4f49"/><path d="M9.643,7.662h0L7.478,5.5,9.643,3.332h0a.224.224,0,0,0,0-.315L8.62,1.993a.224.224,0,0,0-.315,0h0L6.139,4.159,3.974,1.993h0a.224.224,0,0,0-.315,0L2.636,3.016a.224.224,0,0,0,0,.315h0L4.8,5.5,2.636,7.662h0a.224.224,0,0,0,0,.315L3.659,9a.224.224,0,0,0,.315,0h0L6.14,6.835,8.3,9h0A.224.224,0,0,0,8.62,9L9.643,7.977a.224.224,0,0,0,0-.315Z" transform="translate(891.29 2255.847)" fill="#fff"/><line x1="569" transform="translate(375 2242.127)" fill="none" stroke="#f1f1f1" stroke-width="1"/><line x1="569" transform="translate(375 2281.127)" fill="none" stroke="#f1f1f1" stroke-width="1"/><ellipse cx="9" cy="8.5" rx="9" ry="8.5" transform="translate(888 2291.127)" fill="#da4f49"/><g transform="translate(647 2290.127)" fill="#fff" stroke="#bdecc4" stroke-width="1"><rect width="48" height="19" rx="2" stroke="none"/><rect x="0.5" y="0.5" width="47" height="18" rx="1.5" fill="none"/></g><text transform="translate(671 2301.127)" fill="#666" font-size="7" font-family="Ubuntu-Bold, Ubuntu" font-weight="700"><tspan x="-1.988" y="0">1</tspan></text><text transform="translate(764 2301.127)" fill="#666" font-size="6" font-family="Ubuntu-Bold, Ubuntu" font-weight="700"><tspan x="-10.275" y="0">R$ 7,00</tspan></text><text transform="translate(835 2301.127)" fill="#666" font-size="6" font-family="Ubuntu-Bold, Ubuntu" font-weight="700"><tspan x="-10.275" y="0">R$ 7,00</tspan></text><path d="M6.628,5.054H4.333V2.76a.51.51,0,0,0-.51-.51h-.51a.51.51,0,0,0-.51.51V5.054H.51a.51.51,0,0,0-.51.51v.51a.51.51,0,0,0,.51.51H2.8V8.878a.51.51,0,0,0,.51.51h.51a.51.51,0,0,0,.51-.51V6.583H6.628a.51.51,0,0,0,.51-.51v-.51A.51.51,0,0,0,6.628,5.054Z" transform="translate(699.723 2293.592)" fill="#00c853"/><path d="M6.628,14.625H.51a.51.51,0,0,0-.51.51v.51a.51.51,0,0,0,.51.51H6.628a.51.51,0,0,0,.51-.51v-.51A.51.51,0,0,0,6.628,14.625Z" transform="translate(635.486 2284.024)" fill="#da4f49"/><path d="M9.643,7.662h0L7.478,5.5,9.643,3.332h0a.224.224,0,0,0,0-.315L8.62,1.993a.224.224,0,0,0-.315,0h0L6.139,4.159,3.974,1.993h0a.224.224,0,0,0-.315,0L2.636,3.016a.224.224,0,0,0,0,.315h0L4.8,5.5,2.636,7.662h0a.224.224,0,0,0,0,.315L3.659,9a.224.224,0,0,0,.315,0h0L6.14,6.835,8.3,9h0A.224.224,0,0,0,8.62,9L9.643,7.977a.224.224,0,0,0,0-.315Z" transform="translate(891.29 2293.914)" fill="#fff"/><ellipse cx="9" cy="8.5" rx="9" ry="8.5" transform="translate(888 2329.127)" fill="#da4f49"/><g transform="translate(647 2328.127)" fill="#fff" stroke="#bdecc4" stroke-width="1"><rect width="48" height="18" rx="2" stroke="none"/><rect x="0.5" y="0.5" width="47" height="17" rx="1.5" fill="none"/></g><text transform="translate(671 2340.127)" fill="#666" font-size="7" font-family="Ubuntu-Bold, Ubuntu" font-weight="700"><tspan x="-1.988" y="0">1</tspan></text><text transform="translate(765 2340.127)" fill="#666" font-size="7" font-family="Ubuntu-Bold, Ubuntu" font-weight="700"><tspan x="-11.988" y="0">R$ 6,50</tspan></text><text transform="translate(837 2340.127)" fill="#666" font-size="7" font-family="Ubuntu-Bold, Ubuntu" font-weight="700"><tspan x="-11.988" y="0">R$ 6,50</tspan></text><path d="M6.628,5.054H4.333V2.76a.51.51,0,0,0-.51-.51h-.51a.51.51,0,0,0-.51.51V5.054H.51a.51.51,0,0,0-.51.51v.51a.51.51,0,0,0,.51.51H2.8V8.878a.51.51,0,0,0,.51.51h.51a.51.51,0,0,0,.51-.51V6.583H6.628a.51.51,0,0,0,.51-.51v-.51A.51.51,0,0,0,6.628,5.054Z" transform="translate(699.723 2331.657)" fill="#00c853"/><path d="M6.628,14.625H.51a.51.51,0,0,0-.51.51v.51a.51.51,0,0,0,.51.51H6.628a.51.51,0,0,0,.51-.51v-.51A.51.51,0,0,0,6.628,14.625Z" transform="translate(635.486 2322.09)" fill="#da4f49"/><path d="M9.643,7.662h0L7.478,5.5,9.643,3.332h0a.224.224,0,0,0,0-.315L8.62,1.993a.224.224,0,0,0-.315,0h0L6.139,4.159,3.974,1.993h0a.224.224,0,0,0-.315,0L2.636,3.016a.224.224,0,0,0,0,.315h0L4.8,5.5,2.636,7.662h0a.224.224,0,0,0,0,.315L3.659,9a.224.224,0,0,0,.315,0h0L6.14,6.835,8.3,9h0A.224.224,0,0,0,8.62,9L9.643,7.977a.224.224,0,0,0,0-.315Z" transform="translate(891.29 2331.98)" fill="#fff"/><line x1="569" transform="translate(375 2319.127)" fill="none" stroke="#f1f1f1" stroke-width="1"/><line x1="569" transform="translate(375 2356.127)" fill="none" stroke="#f1f1f1" stroke-width="1"/><g transform="translate(398 2213.127)" fill="#fff" stroke="#0074ff" stroke-width="1"><rect width="24" height="23" rx="5" stroke="none"/><rect x="0.5" y="0.5" width="23" height="22" rx="4.5" fill="none"/></g><g transform="translate(398 2250.127)" fill="#fff" stroke="#0074ff" stroke-width="1"><rect width="24" height="24" rx="5" stroke="none"/><rect x="0.5" y="0.5" width="23" height="23" rx="4.5" fill="none"/></g><g transform="translate(398 2287.627)" fill="#fff" stroke="#0074ff" stroke-width="1"><rect width="24" height="24" rx="5" stroke="none"/><rect x="0.5" y="0.5" width="23" height="23" rx="4.5" fill="none"/></g><g transform="translate(398 2325.627)" fill="#fff" stroke="#0074ff" stroke-width="1"><rect width="24" height="24" rx="5" stroke="none"/><rect x="0.5" y="0.5" width="23" height="23" rx="4.5" fill="none"/></g><text transform="translate(811 2427.127)" fill="#fff" font-size="7" font-family="Ubuntu-Bold, Ubuntu" font-weight="700"><tspan x="0" y="0">Valor Total</tspan></text><text transform="translate(871 2427.127)" fill="#00c853" font-size="7" font-family="Ubuntu-Bold, Ubuntu" font-weight="700"><tspan x="0" y="0">R$ 1.827,23</tspan></text></g></g><g transform="translate(84.403 2769.519)"><g transform="translate(1011.597 916.478)"><path d="M102.129,281.045s0-4.3-6-10.3-9.873-9.438-9.873-9.438-3,9.873,2.577,15.875a105.856,105.856,0,0,0,13.3,11.58Z" transform="translate(-41.016 -261.31)" fill="#ffbd0e"/><path d="M94.319,305.044s0-4.284-6.013-10.286-9.862-9.438-9.862-9.438-3,9.862,2.577,15.864a104.861,104.861,0,0,0,13.3,11.58Z" transform="translate(-41.918 -258.534)" fill="#ffbd0e"/><path d="M100.144,287.389s.446-4.262,7.051-9.594,10.81-8.345,10.81-8.345,1.941,10.13-4.239,15.507A104.867,104.867,0,0,1,99.33,295.075Z" transform="translate(-39.411 -260.369)" fill="#ffbd0e"/><path d="M90.788,315.544s.9-4.195,8.032-8.813,11.625-7.151,11.625-7.151.848,10.264-5.846,14.971a104.523,104.523,0,0,1-15.429,8.534Z" transform="translate(-40.585 -256.886)" fill="#ffbd0e"/><path d="M92.4,346.844s0-4.3,6-10.3,9.862-9.427,9.862-9.427,3,9.862-2.577,15.864A105.291,105.291,0,0,1,92.4,354.564Z" transform="translate(-40.212 -253.702)" fill="#ffbd0e"/><path d="M93.838,354.6s.6-4.239-4.462-11.033-8.423-10.743-8.423-10.743-4.373,9.338.29,16.065a105.243,105.243,0,0,0,11.513,13.387Z" transform="translate(-41.75 -253.044)" fill="#ffbd0e"/><path d="M87,376.744s0-4.284,6-10.286,9.862-9.438,9.862-9.438,3,9.862-2.566,15.864A104.858,104.858,0,0,1,87,384.464Z" transform="translate(-40.836 -250.246)" fill="#ffbd0e"/><path d="M90.6,397.394s-1.116-4.15,3.2-11.479,7.151-11.625,7.151-11.625,5.411,8.78,1.54,16-11.022,12.874-11.022,12.874Z" transform="translate(-40.435 -248.25)" fill="#ffbd0e"/><path d="M102.514,278a121.754,121.754,0,0,1-1.64,13.32C98.5,303.592,92.563,311.49,90.2,322.557s4.462,25.335,2.611,39.57-7.363,22.134-5.779,31.627,7.809,39.314,7.809,39.314" transform="translate(-40.865 -259.381)" fill="none" stroke="#263238" stroke-linecap="round" stroke-linejoin="round" stroke-width="1"/><line y1="4.964" x2="6.459" transform="translate(60.678 24.911)" fill="none" stroke="#263238" stroke-linecap="round" stroke-linejoin="round" stroke-width="1"/><line x1="2.7" y1="4.808" transform="translate(58.268 19.344)" fill="none" stroke="#263238" stroke-linecap="round" stroke-linejoin="round" stroke-width="1"/><path d="M90.16,318.332s5.411-4.061,10.989-8.122" transform="translate(-40.471 -255.657)" fill="none" stroke="#263238" stroke-linecap="round" stroke-linejoin="round" stroke-width="1"/><path d="M93.583,311.435A86.752,86.752,0,0,0,84,296.72" transform="translate(-41.183 -257.217)" fill="none" stroke="#263238" stroke-linecap="round" stroke-linejoin="round" stroke-width="1"/><path d="M92.59,351.877A66.938,66.938,0,0,1,104.2,336.37" transform="translate(-40.19 -252.633)" fill="none" stroke="#263238" stroke-linecap="round" stroke-linejoin="round" stroke-width="1"/><path d="M92.621,357.362a74.738,74.738,0,0,0-5.868-11.156c-3.157-4.663-3.6-5.266-3.6-5.266" transform="translate(-41.281 -252.105)" fill="none" stroke="#263238" stroke-linecap="round" stroke-linejoin="round" stroke-width="1"/><path d="M87,383.65a73.384,73.384,0,0,1,4.875-9.873,62.831,62.831,0,0,1,6.281-8.267" transform="translate(-40.836 -249.264)" fill="none" stroke="#263238" stroke-linecap="round" stroke-linejoin="round" stroke-width="1"/><path d="M91,404.925a39.758,39.758,0,0,1,3.157-10.487c2.231-4.373,4.819-10.04,5.868-12.339" transform="translate(-40.374 -247.347)" fill="none" stroke="#263238" stroke-linecap="round" stroke-linejoin="round" stroke-width="1"/><path d="M56.483,331.8s-.469-2.689,2.644-7.106,5.165-6.984,5.165-6.984,2.956,5.857.112,10.23a66.668,66.668,0,0,1-7.084,8.7Z" transform="translate(-44.367 -254.79)" fill="#ffbd0e"/><path d="M64,346.011s-.457-2.689,2.655-7.106,5.154-6.995,5.154-6.995,2.956,5.868.112,10.23a67.2,67.2,0,0,1-7.084,8.713Z" transform="translate(-43.497 -253.149)" fill="#ffbd0e"/><path d="M58.762,335.375s-.747-2.622-5.466-5.254-7.675-4.061-7.675-4.061-.123,6.56,4.34,9.271a67.45,67.45,0,0,0,10.152,4.775Z" transform="translate(-45.62 -253.825)" fill="#ffbd0e"/><path d="M67.86,351.976s-1.026-2.532-6.024-4.641S53.77,344.1,53.77,344.1s.569,6.537,5.288,8.757a67.415,67.415,0,0,0,10.6,3.682Z" transform="translate(-44.678 -251.74)" fill="#ffbd0e"/><path d="M69.9,371.843s-.469-2.689-4.886-5.8-7.207-4.842-7.207-4.842-.814,6.5,3.347,9.661a66.656,66.656,0,0,0,9.594,5.823Z" transform="translate(-44.218 -249.763)" fill="#ffbd0e"/><path d="M69.535,377.016s-.848-2.588,1.606-7.408S75.258,362,75.258,362s3.76,5.388,1.562,10.119a67.382,67.382,0,0,1-5.768,9.616Z" transform="translate(-42.872 -249.67)" fill="#ffbd0e"/><path d="M76.328,396.083s.312-2.711,4.54-6.08S87.8,384.76,87.8,384.76s1.183,6.448-2.778,9.84a67.213,67.213,0,0,1-9.248,6.359Z" transform="translate(-42.134 -247.039)" fill="#ffbd0e"/><path d="M76.53,390.014s-.469-2.689-4.886-5.8-7.207-4.853-7.207-4.853-.814,6.515,3.347,9.672a67.853,67.853,0,0,0,9.594,5.823Z" transform="translate(-43.452 -247.663)" fill="#ffbd0e"/><path d="M76.244,403.387s.223-2.722-3.258-6.85S67.241,390,67.241,390s-2.432,6.091.781,10.208a67.141,67.141,0,0,0,7.809,8.055Z" transform="translate(-43.222 -246.434)" fill="#ffbd0e"/><path d="M56.07,329.78a75.224,75.224,0,0,0,2.477,8.166c2.811,7.43,7.4,11.747,10.04,18.441s0,16.366,2.655,25.09S78.3,394.563,78.3,400.688s-2.8,24.164-2.8,24.164" transform="translate(-44.412 -253.395)" fill="none" stroke="#263238" stroke-linecap="round" stroke-linejoin="round" stroke-width="1"/><line x1="4.596" y1="2.421" transform="translate(8.892 80.914)" fill="none" stroke="#263238" stroke-linecap="round" stroke-linejoin="round" stroke-width="1"/><line y1="3.313" x2="1.171" transform="translate(12.685 76.463)" fill="none" stroke="#263238" stroke-linecap="round" stroke-linejoin="round" stroke-width="1"/><path d="M67.889,353.773s-3.838-1.952-7.809-3.893" transform="translate(-43.948 -251.071)" fill="none" stroke="#263238" stroke-linecap="round" stroke-linejoin="round" stroke-width="1"/><path d="M64.73,349.955a55.1,55.1,0,0,1,4.462-10.275" transform="translate(-43.411 -252.25)" fill="none" stroke="#263238" stroke-linecap="round" stroke-linejoin="round" stroke-width="1"/><path d="M70.035,375.066a42.515,42.515,0,0,0-8.925-8.456" transform="translate(-43.829 -249.137)" fill="none" stroke="#263238" stroke-linecap="round" stroke-linejoin="round" stroke-width="1"/><path d="M70.29,378.642a48.84,48.84,0,0,1,2.477-7.619c1.473-3.269,1.685-3.693,1.685-3.693" transform="translate(-42.768 -249.054)" fill="none" stroke="#263238" stroke-linecap="round" stroke-linejoin="round" stroke-width="1"/><path d="M75.85,398.321a40.763,40.763,0,0,1,4.942-5.132,26.342,26.342,0,0,0,3.213-2.789" transform="translate(-42.125 -246.387)" fill="none" stroke="#263238" stroke-linecap="round" stroke-linejoin="round" stroke-width="1"/><path d="M76.932,394.389a46.7,46.7,0,0,0-4.128-5.656,40.5,40.5,0,0,0-4.864-4.462" transform="translate(-43.039 -247.096)" fill="none" stroke="#263238" stroke-linecap="round" stroke-linejoin="round" stroke-width="1"/><path d="M75.584,407.735a11.747,11.747,0,0,0-2.064-5.779c-1.885-2.5-4.117-5.8-5.02-7.106" transform="translate(-42.975 -245.873)" fill="none" stroke="#263238" stroke-linecap="round" stroke-linejoin="round" stroke-width="1"/></g><g transform="translate(1082.531 790.22)"><path d="M272.906,160.411s30.791,29.753,32.174,44.624-21.453,26.986-14.871,31.828,24.543,17.649,17.638,28.716-10.375,13.845-7.954,16.265,8.3,4.462,7.954,10.375-7.263,10.989-7.263,10.989H191.255s-5.879.346-5.188-7.954,12.45-12.8,10.375-19.032-17.3-11.067-17.3-23.528,17.995-17.638,20.761-23.517-8.992-9.695-11.413-17.3,10.04-20.761,17.638-27.678,38.064-26.986,50.2-27.678S272.906,160.411,272.906,160.411Z" transform="translate(-101.118 -147.174)" fill="#263238"/><g transform="translate(78.022 9.272)" clip-path="url(#g)"><path d="M270.7,167.22s16.734,29.24,14.09,40.719-20.36,24.543-13.577,33.412,16.734,12.528,12.539,23.495A55.088,55.088,0,0,1,272.782,282.6" transform="translate(-168.674 -155.201)" fill="none" stroke="#858585" stroke-linecap="round" stroke-linejoin="round" stroke-width="1"/><path d="M204.5,203.26s10.442,16.176,7.809,20.873-17.749,10.442-15.618,22.446,24.019,30.8,24.019,32.9" transform="translate(-177.135 -151.035)" fill="none" stroke="#858585" stroke-linecap="round" stroke-linejoin="round" stroke-width="1"/></g><path d="M272.906,160.411s30.791,29.753,32.174,44.624-21.453,26.986-14.871,31.828,24.543,17.649,17.638,28.716-10.375,13.845-7.954,16.265,8.3,4.462,7.954,10.375-7.263,10.989-7.263,10.989H191.255s-5.879.346-5.188-7.954,12.45-12.8,10.375-19.032-17.3-11.067-17.3-23.528,17.995-17.638,20.761-23.517-8.992-9.695-11.413-17.3,10.04-20.761,17.638-27.678,38.064-26.986,50.2-27.678S272.906,160.411,272.906,160.411Z" transform="translate(-101.118 -147.174)" fill="none" stroke="#263238" stroke-linecap="round" stroke-linejoin="round" stroke-width="1"/><path d="M299.892,273.27s41.835,65.263,47.971,73.072-.558,20.639-10.04,27.332-25.358.848-33.591-7.664-16.611-28.593-16.611-28.593Z" transform="translate(-88.578 -133.67)" fill="#fff" stroke="#263238" stroke-linecap="round" stroke-linejoin="round" stroke-width="1"/><path d="M242.9,253.771s-39.046,11.714-51.318,16.176-15.618,5.02-15.618,9.483c0,2.6,9.315,53.147,8.367,96.5-.681,31.326-11.714,59.685-11.714,59.685H314.859s-11.669-26.607-11.714-58.569c-.067-44.791,11.346-99.556,10.04-101.52C310.954,272.179,247.923,253.214,242.9,253.771Z" transform="translate(-101.872 -135.925)" fill="#fff" stroke="#263238" stroke-linecap="round" stroke-linejoin="round" stroke-width="1"/><path d="M303.561,386.839c-5.109-3.983-11.747-10.531-14.927-19.456-4.942-13.845-8.579-88.132-9.338-104.866-2.644-.8-5.3-1.606-7.91-2.376l1.116,69.87H222.859l-4.34-69.513c-2.644.815-5.31,1.651-7.921,2.477.056,14.112.056,79.944-3.916,98.831-3.046,14.5-15.73,24.287-23.428,29.006a202.762,202.762,0,0,1-10.565,44.033H314.929A164.149,164.149,0,0,1,303.561,386.839Z" transform="translate(-101.864 -135.188)" fill="#263238"/><g transform="translate(70.826 124.952)" clip-path="url(#h)"><path d="M208.749,262.22l-1.629.513c.056,14.112.056,79.944-3.916,98.831-.223,1.049-.5,2.053-.814,3.046v70.026h6.359Z" transform="translate(-169.257 -259.9)" fill="#424242"/><rect width="6.359" height="104.866" transform="translate(59.963 69.87)" fill="#424242"/><path d="M178.34,400.231v21.2h6.314V376c-.759.5-1.495.982-2.175,1.406A199.219,199.219,0,0,1,178.34,400.231Z" transform="translate(-172.037 -246.747)" fill="#424242"/><path d="M196.718,365.38a54.188,54.188,0,0,1-6.348,6.515v50.816h6.348Z" transform="translate(-170.646 -247.974)" fill="#424242"/><path d="M214.41,271.47v162.1h6.359V328.7h-2.778Z" transform="translate(-167.867 -258.83)" fill="#424242"/><path d="M274.53,346.17v78.761h6.348V365.358a36.666,36.666,0,0,1-4.016-7.921A67.005,67.005,0,0,1,274.53,346.17Z" transform="translate(-160.917 -250.195)" fill="#424242"/><path d="M286.55,370.76v51.318h6.359V392.224a157.93,157.93,0,0,1-2.51-18.173C289.183,373.1,287.878,372,286.55,370.76Z" transform="translate(-159.528 -247.352)" fill="#424242"/><path d="M268.858,262.459c-2.12-.658-4.25-1.294-6.348-1.919V434.83h6.348Z" transform="translate(-162.307 -260.094)" fill="#424242"/><rect width="6.359" height="104.866" transform="translate(86.782 69.87)" fill="#424242"/><rect width="6.359" height="104.866" transform="translate(73.373 69.87)" fill="#424242"/></g><path d="M303.561,386.839c-5.109-3.983-11.747-10.531-14.927-19.456-4.942-13.845-8.579-88.132-9.338-104.866-2.644-.8-5.3-1.606-7.91-2.376l1.116,69.87H222.859l-4.34-69.513c-2.644.815-5.31,1.651-7.921,2.477.056,14.112.056,79.944-3.916,98.831-3.046,14.5-15.73,24.287-23.428,29.006a202.762,202.762,0,0,1-10.565,44.033H314.929A164.149,164.149,0,0,1,303.561,386.839Z" transform="translate(-101.864 -135.188)" fill="none" stroke="#263238" stroke-linecap="round" stroke-linejoin="round" stroke-width="1"/><path d="M234.376,244.8s-14.5,5.188-17.3,11.067-1.383,29.006-3.8,35.978-8.3,12.115-5.176,12.506,12.45-13.845,17.292-12.115,17.995,19.724,19.032,19.724,11.078-12.1,13.153-15.909,9.683,2.075,13.142,10.721,4.462,5.578,4.462,2.421-4.15-16.611-3.458-19.032-.346-14.5-.346-26.641a20.081,20.081,0,0,0-16.611-20.081C247.139,242.025,234.376,244.8,234.376,244.8Z" transform="translate(-97.875 -137.164)" fill="#fff" stroke="#263238" stroke-linecap="round" stroke-linejoin="round" stroke-width="1"/><path d="M225.66,236.86v39.1s12.807,42.2,17.3,39.046,14.882-37.361,14.882-37.361v-40.44S241.925,244.134,225.66,236.86Z" transform="translate(-95.741 -137.879)" fill="#fff" stroke="#263238" stroke-linecap="round" stroke-linejoin="round" stroke-width="1"/><path d="M225.66,236.86v8.133c6.47,3.715,14.09,6.225,20.951,6.225a25.368,25.368,0,0,0,11.234-2.778V237.206S241.925,244.134,225.66,236.86Z" transform="translate(-95.741 -137.879)" fill="#263238" stroke="#263238" stroke-linecap="round" stroke-linejoin="round" stroke-width="1"/><path d="M215.24,199.281s-7.608-10.04-12.115-2.778,7.274,20.761,10.732,20.415S215.24,199.281,215.24,199.281Z" transform="translate(-98.463 -142.849)" fill="#fff" stroke="#263238" stroke-linecap="round" stroke-linejoin="round" stroke-width="1"/><path d="M268.794,199.281s7.608-10.04,12.115-2.778-7.274,20.761-10.732,20.415S268.794,199.281,268.794,199.281Z" transform="translate(-90.826 -142.849)" fill="#fff" stroke="#263238" stroke-linecap="round" stroke-linejoin="round" stroke-width="1"/><path d="M213.192,188.89s-3.838,34.584-.48,44.624,21.118,21.118,35.521,21.118,26.384-13.912,28.314-22.078-2.41-60.466-5.288-66.222-21.107-6.236-39.347,2.878S213.192,188.89,213.192,188.89Z" transform="translate(-97.396 -146.514)" fill="#fff" stroke="#263238" stroke-linecap="round" stroke-linejoin="round" stroke-width="1"/><path d="M245.913,191s-3.113,8.311-.346,13.153,1.037,8.3-2.075,8.3-4.462-5.188-4.462-5.188" transform="translate(-94.195 -143.18)" fill="none" stroke="#263238" stroke-linecap="round" stroke-linejoin="round" stroke-width="1"/><path d="M229.39,213.29s14.5,10.04,27.332,0" transform="translate(-95.309 -140.603)" fill="none" stroke="#263238" stroke-linecap="round" stroke-linejoin="round" stroke-width="1"/><path d="M248,186.918s6.236-6.917,13.5.692" transform="translate(-93.158 -143.985)" fill="none" stroke="#263238" stroke-linecap="round" stroke-linejoin="round" stroke-width="1"/><path d="M236.715,186.325s-6.225-6.571-13.845-.692" transform="translate(-96.063 -144.083)" fill="none" stroke="#263238" stroke-linecap="round" stroke-linejoin="round" stroke-width="1"/><ellipse cx="2.075" cy="4.15" rx="2.075" ry="4.15" transform="translate(158.646 49.159)" fill="#263238"/><ellipse cx="2.075" cy="4.15" rx="2.075" ry="4.15" transform="translate(132.697 49.159)" fill="#263238"/><path d="M221,201.246a32.988,32.988,0,0,1,10.732,0" transform="translate(-96.279 -142.047)" fill="none" stroke="#263238" stroke-linecap="round" stroke-linejoin="round" stroke-width="1"/><path d="M252.65,201.559a28.616,28.616,0,0,1,10.375,0" transform="translate(-92.621 -142.014)" fill="none" stroke="#263238" stroke-linecap="round" stroke-linejoin="round" stroke-width="1"/><path d="M199.432,210.458s54.319-22.49,67.471-32.877,16.6-30.445-14.19-29.407S189.4,185.2,186.636,201.8,194.9,214.92,194.9,214.92" transform="translate(-100.303 -148.135)" fill="#263238"/><g transform="translate(85.888)" clip-path="url(#i)"><path d="M274.021,149a164.808,164.808,0,0,1-44.892,38.109c-28.716,16.734-46.989,19.847-46.989,19.847" transform="translate(-186.659 -148.035)" fill="none" stroke="#858585" stroke-linecap="round" stroke-linejoin="round" stroke-width="1"/><path d="M253.823,144.29s-25.581,40.162-73.083,55.858" transform="translate(-186.821 -148.58)" fill="none" stroke="#858585" stroke-linecap="round" stroke-linejoin="round" stroke-width="1"/></g><path d="M199.432,210.458s54.319-22.49,67.471-32.877,16.6-30.445-14.19-29.407S189.4,185.2,186.636,201.8,194.9,214.92,194.9,214.92" transform="translate(-100.303 -148.135)" fill="none" stroke="#263238" stroke-linecap="round" stroke-linejoin="round" stroke-width="1"/><path d="M304.066,316.139s-6.415-2.789-13.945-5.3-11.714,2.51-8.646,6.972,13.945,5.3,19.244,10.04,9.483,20.081,14.782,22.87a34.016,34.016,0,0,0,11.156,3.347v-37.93Z" transform="translate(-89.406 -129.404)" fill="#fff" stroke="#263238" stroke-linecap="round" stroke-linejoin="round" stroke-width="1"/><path d="M335.064,363.2H303.248L296.13,297.57h46.052Z" transform="translate(-87.594 -130.861)" fill="#ffbd0e" stroke="#263238" stroke-linecap="round" stroke-linejoin="round" stroke-width="1"/><path d="M343.826,288.35h-48.25l-4.206,8.836h57.174Z" transform="translate(-88.144 -131.926)" fill="#fff" stroke="#263238" stroke-linecap="round" stroke-linejoin="round" stroke-width="1"/><path d="M297.212,299.126h45.661l3.983-2.856H292.75Z" transform="translate(-87.985 -131.011)" fill="#fff" stroke="#263238" stroke-linecap="round" stroke-linejoin="round" stroke-width="1"/><path d="M336.9,344.172l4.083-37.651H297.1l4.083,37.651Z" transform="translate(-87.482 -129.826)" fill="#fff" stroke="#263238" stroke-linecap="round" stroke-linejoin="round" stroke-width="1"/><path d="M344.1,316.77s-14.782.279-17.571,3.068-1.952,6.136,3.347,6.694,13.108,1.673,17.292.558S351.354,316.77,344.1,316.77Z" transform="translate(-84.261 -128.641)" fill="#fff" stroke="#263238" stroke-linecap="round" stroke-linejoin="round" stroke-width="1"/><path d="M340.654,343.52s-11.736.223-13.945,2.443-1.551,4.864,2.655,5.31,10.4,1.328,13.722.435S346.4,343.52,340.654,343.52Z" transform="translate(-84.203 -125.549)" fill="#fff" stroke="#263238" stroke-linecap="round" stroke-linejoin="round" stroke-width="1"/><path d="M347.533,327s-19.244,0-23.985.837-6.415,5.578.558,6.972,21.2,2.231,25.659,1.673S354.505,326.744,347.533,327Z" transform="translate(-84.901 -127.459)" fill="#fff" stroke="#263238" stroke-linecap="round" stroke-linejoin="round" stroke-width="1"/><path d="M346.085,336.008s-15.34-.558-20.639,1.395-3.347,4.741,1.673,5.857,16.176,2.51,20.36,1.115S351.663,335.472,346.085,336.008Z" transform="translate(-84.569 -126.426)" fill="#fff" stroke="#263238" stroke-linecap="round" stroke-linejoin="round" stroke-width="1"/><path d="M131.168,247.869s-2.956,1.774-.881,10.654l2.064,8.869,12.718-2.365s-5.578-10.04-7.988-14.5S131.8,246.687,131.168,247.869Z" transform="translate(-106.851 -136.706)" fill="#fff" stroke="#263238" stroke-linecap="round" stroke-linejoin="round" stroke-width="1"/><path d="M123.479,264.363s40.519-6.805,52.656-10.944a273.24,273.24,0,0,1,27.8-7.4,34.881,34.881,0,0,1,7.4-.893s1.183,0,.893,5.031,6.5,70.406,12.718,90.52,10.04,29.586,10.04,29.586-36.38,7.4-70.1,7.4a305.092,305.092,0,0,1-55.613-4.741c-1.183,0,14.5-59.127,13.9-79.275C122.609,273.277,123.479,264.363,123.479,264.363Z" transform="translate(-109.203 -136.923)" fill="#ffbd0e" stroke="#263238" stroke-linecap="round" stroke-linejoin="round" stroke-width="1"/><path d="M215.006,340.681c-6.214-20.081-13.019-85.488-12.718-90.52s-.893-5.031-.893-5.031a35.717,35.717,0,0,0-4.15.3,15.763,15.763,0,0,0,0,3.838s-.312,32.252-1.2,70.461c-.736,31.661-.257,49.867-.067,55.155,16.834-2.086,29.006-4.563,29.006-4.563S221.2,360.8,215.006,340.681Z" transform="translate(-99.21 -136.923)" fill="#ffbd0e" stroke="#263238" stroke-linecap="round" stroke-linejoin="round" stroke-width="1"/><path d="M209.4,246.552v14.793c0,4.73.893,7.1-.892,7.1s-16.555,2.666-40.519,7.4a334.723,334.723,0,0,1-46.152,5.913c-1.774,0,.3-17.448.3-17.448s44.959-7.106,59.45-11.836a213.9,213.9,0,0,1,26.328-6.805" transform="translate(-107.826 -136.861)" fill="#ffbd0e" stroke="#263238" stroke-linecap="round" stroke-linejoin="round" stroke-width="1"/><path d="M153.869,237.311s2.956-6.805,10.944-2.365,13.309,20.415,12.127,23.662-5.031,4.15-8.289.892-11.535-15.083-13.6-18.34S153.869,237.311,153.869,237.311Z" transform="translate(-104.061 -138.274)" fill="#fff" stroke="#263238" stroke-linecap="round" stroke-linejoin="round" stroke-width="1"/><path d="M145.908,241.238s14.949,21.8,17.749,23.673,8.01,2.945,6.5-3.548c-1.417-6.169-7.1-18.05-10.944-22.189s-6.5-4.73-9.762-2.956S145.317,238.873,145.908,241.238Z" transform="translate(-104.98 -138.062)" fill="#fff" stroke="#263238" stroke-linecap="round" stroke-linejoin="round" stroke-width="1"/><path d="M147.905,239.648s13.9,17.749,15.094,21.9-1.194,10.944-7.4,7.1-11.837-16.567-15.384-21.007S142.818,236.4,147.905,239.648Z" transform="translate(-105.739 -137.655)" fill="#fff" stroke="#263238" stroke-linecap="round" stroke-linejoin="round" stroke-width="1"/><path d="M140.582,243.54s-8.925,1.183-10.04,5.913,6.5,15.094,12.718,16.868,7.988-3.258,6.214-7.4S143.538,244.433,140.582,243.54Z" transform="translate(-106.749 -137.107)" fill="#fff" stroke="#263238" stroke-linecap="round" stroke-linejoin="round" stroke-width="1"/></g><g transform="translate(1011.597 1083.773)"><rect width="339" height="11.97" transform="translate(0 0)" fill="#fff" stroke="#263238" stroke-linecap="round" stroke-linejoin="round" stroke-width="1"/></g></g></g><path d="M15.967,6.4l-1.253,9.819H10.483L9.235,6.351H14.4l1.021-3.526L16,3l-.98,3.393.946.007ZM8.637,12.081S8.8,10.808,6.6,10.808H3.107c-2.191,0-2.036,1.273-2.036,1.273H8.637ZM1.071,14.946s-.155,1.273,2.036,1.273H6.6c2.194,0,2.036-1.273,2.036-1.273H1.071Zm7.237-.637a.732.732,0,0,0,.649-.8.731.731,0,0,0-.649-.8H1.369a.812.812,0,0,0,0,1.592Z" transform="translate(1002.28 3444.176)" fill="#2cc3ff"/><path d="M15.967,6.4l-1.253,9.819H10.483L9.235,6.351H14.4l1.021-3.526L16,3l-.98,3.393.946.007ZM8.637,12.081S8.8,10.808,6.6,10.808H3.107c-2.191,0-2.036,1.273-2.036,1.273H8.637ZM1.071,14.946s-.155,1.273,2.036,1.273H6.6c2.194,0,2.036-1.273,2.036-1.273H1.071Zm7.237-.637a.732.732,0,0,0,.649-.8.731.731,0,0,0-.649-.8H1.369a.812.812,0,0,0,0,1.592Z" transform="translate(1002.28 3482.176)" fill="#2cc3ff"/><path d="M15.967,6.4l-1.253,9.819H10.483L9.235,6.351H14.4l1.021-3.526L16,3l-.98,3.393.946.007ZM8.637,12.081S8.8,10.808,6.6,10.808H3.107c-2.191,0-2.036,1.273-2.036,1.273H8.637ZM1.071,14.946s-.155,1.273,2.036,1.273H6.6c2.194,0,2.036-1.273,2.036-1.273H1.071Zm7.237-.637a.732.732,0,0,0,.649-.8.731.731,0,0,0-.649-.8H1.369a.812.812,0,0,0,0,1.592Z" transform="translate(1002.28 3520.176)" fill="#2cc3ff"/><path d="M15.967,6.4l-1.253,9.819H10.483L9.235,6.351H14.4l1.021-3.526L16,3l-.98,3.393.946.007ZM8.637,12.081S8.8,10.808,6.6,10.808H3.107c-2.191,0-2.036,1.273-2.036,1.273H8.637ZM1.071,14.946s-.155,1.273,2.036,1.273H6.6c2.194,0,2.036-1.273,2.036-1.273H1.071Zm7.237-.637a.732.732,0,0,0,.649-.8.731.731,0,0,0-.649-.8H1.369a.812.812,0,0,0,0,1.592Z" transform="translate(1002.28 3558.176)" fill="#2cc3ff"/></g></svg>