<svg xmlns="http://www.w3.org/2000/svg" xmlns:xlink="http://www.w3.org/1999/xlink" width="596.419" height="540.369" viewBox="0 0 596.419 540.369"><defs><clipPath id="a"><ellipse cx="40.872" cy="40.872" rx="40.872" ry="40.872" fill="none" stroke="#263238" stroke-miterlimit="10" stroke-width="1"/></clipPath><clipPath id="b"><path d="M225.78,253.721s-52.514,60.8-59.589,68.893S153.8,336.9,153.8,336.9s4.767,29.534,44.768,34.76l36.318-43.637L220,372.149S217.621,377.39,241.4,385s31.888,4.293,31.888,4.293,20.6-51.277,29.168-61.743,23.346-20.963,23.82-33.339-4.767-25.241-4.767-25.241-5.714-12.391-40-19.053S225.78,253.721,225.78,253.721Z" transform="translate(-153.8 -247.698)" fill="#8f00fc " stroke="#263238" stroke-linecap="round" stroke-linejoin="round" stroke-width="1"/></clipPath></defs><g transform="translate(-960 -2466.35)"><g transform="translate(1033.88 2695.898)"><path d="M99.582,411.729c-1.235-64.337-1.235-129.319,0-193.879" transform="translate(-80.182 -213.933)" fill="none" stroke="#ccc" stroke-miterlimit="10" stroke-width="1"/><path d="M112.518,411.729c-.657-64.337-.657-129.319,0-193.879" transform="translate(-75.979 -213.933)" fill="none" stroke="#ccc" stroke-miterlimit="10" stroke-width="1"/><path d="M125.44,411.729V217.85" transform="translate(-71.762 -213.933)" fill="none" stroke="#ccc" stroke-miterlimit="10" stroke-width="1"/><path d="M138.48,411.729c.513-64.337.513-129.319,0-193.879" transform="translate(-67.663 -213.933)" fill="none" stroke="#ccc" stroke-miterlimit="10" stroke-width="1"/><path d="M151.52,411.729c1.091-64.337,1.091-129.319,0-193.879" transform="translate(-63.564 -213.933)" fill="none" stroke="#ccc" stroke-miterlimit="10" stroke-width="1"/><path d="M164.8,411.729c-1.314-64.337-1.314-129.319,0-193.879" transform="translate(-59.701 -213.933)" fill="none" stroke="#ccc" stroke-miterlimit="10" stroke-width="1"/><path d="M177.737,411.729c-.71-64.337-.71-129.319,0-193.879" transform="translate(-55.49 -213.933)" fill="none" stroke="#ccc" stroke-miterlimit="10" stroke-width="1"/><path d="M190.671,411.729c-.118-64.337-.118-129.319,0-193.879" transform="translate(-51.285 -213.933)" fill="none" stroke="#ccc" stroke-miterlimit="10" stroke-width="1"/><path d="M203.69,411.729c.46-64.337.46-129.319,0-193.879" transform="translate(-47.164 -213.933)" fill="none" stroke="#ccc" stroke-miterlimit="10" stroke-width="1"/><path d="M216.73,411.729c1.038-64.337,1.038-129.319,0-193.879" transform="translate(-43.065 -213.933)" fill="none" stroke="#ccc" stroke-miterlimit="10" stroke-width="1"/><path d="M230.006,411.729c-1.314-64.337-1.314-129.319,0-193.879" transform="translate(-39.202 -213.933)" fill="none" stroke="#ccc" stroke-miterlimit="10" stroke-width="1"/><path d="M242.944,411.729c-.749-64.337-.749-129.319,0-193.879" transform="translate(-35.001 -213.933)" fill="none" stroke="#ccc" stroke-miterlimit="10" stroke-width="1"/><path d="M255.891,411.729c-.171-64.337-.171-129.319,0-193.879" transform="translate(-30.795 -213.933)" fill="none" stroke="#ccc" stroke-miterlimit="10" stroke-width="1"/><path d="M268.9,411.729c.407-64.337.407-129.319,0-193.879" transform="translate(-26.666 -213.933)" fill="none" stroke="#ccc" stroke-miterlimit="10" stroke-width="1"/><path d="M281.94,411.729c.986-64.337.986-129.319,0-193.879" transform="translate(-22.567 -213.933)" fill="none" stroke="#ccc" stroke-miterlimit="10" stroke-width="1"/><path d="M295.248,411.729c-1.38-64.337-1.38-129.319,0-193.879" transform="translate(-18.709 -213.933)" fill="none" stroke="#ccc" stroke-miterlimit="10" stroke-width="1"/><path d="M308.144,411.729c-.8-64.337-.8-129.319,0-193.879" transform="translate(-14.519 -213.933)" fill="none" stroke="#ccc" stroke-miterlimit="10" stroke-width="1"/><path d="M321.1,411.729c-.21-64.337-.21-129.319,0-193.879" transform="translate(-10.307 -213.933)" fill="none" stroke="#ccc" stroke-miterlimit="10" stroke-width="1"/><path d="M334.1,411.729c.368-64.337.368-129.319,0-193.879" transform="translate(-6.17 -213.933)" fill="none" stroke="#ccc" stroke-miterlimit="10" stroke-width="1"/><path d="M347.15,411.729c.946-64.337.946-129.319,0-193.879" transform="translate(-2.068 -213.933)" fill="none" stroke="#ccc" stroke-miterlimit="10" stroke-width="1"/><path d="M360.447,411.729c-1.433-64.337-1.433-129.319,0-193.879" transform="translate(1.774 -213.933)" fill="none" stroke="#ccc" stroke-miterlimit="10" stroke-width="1"/><path d="M373.381,411.729c-.841-64.337-.841-129.319,0-193.879" transform="translate(5.979 -213.933)" fill="none" stroke="#ccc" stroke-miterlimit="10" stroke-width="1"/><path d="M386.317,411.729c-.263-64.337-.263-129.319,0-193.879" transform="translate(10.182 -213.933)" fill="none" stroke="#ccc" stroke-miterlimit="10" stroke-width="1"/><path d="M399.31,411.729c.315-64.337.315-129.319,0-193.879" transform="translate(14.328 -213.933)" fill="none" stroke="#ccc" stroke-miterlimit="10" stroke-width="1"/><path d="M412.35,411.729c.907-64.337.907-129.319,0-193.879" transform="translate(18.427 -213.933)" fill="none" stroke="#ccc" stroke-miterlimit="10" stroke-width="1"/><path d="M425.666,411.729c-1.485-64.337-1.485-129.319,0-193.879" transform="translate(22.263 -213.933)" fill="none" stroke="#ccc" stroke-miterlimit="10" stroke-width="1"/><path d="M438.6,411.729c-.894-64.337-.894-129.319,0-193.879" transform="translate(26.468 -213.933)" fill="none" stroke="#ccc" stroke-miterlimit="10" stroke-width="1"/><path d="M99.582,424.771c-1.235-64.4-1.235-145.341,0-209.9" transform="translate(-80.182 -214.87)" fill="none" stroke="#ccc" stroke-miterlimit="10" stroke-width="1"/><path d="M112.518,424.771c-.657-64.4-.657-145.341,0-209.9" transform="translate(-75.979 -214.87)" fill="none" stroke="#ccc" stroke-miterlimit="10" stroke-width="1"/><path d="M125.44,424.771V214.87" transform="translate(-71.762 -214.87)" fill="none" stroke="#ccc" stroke-miterlimit="10" stroke-width="1"/><path d="M138.48,424.771c.513-64.4.513-145.341,0-209.9" transform="translate(-67.663 -214.87)" fill="none" stroke="#ccc" stroke-miterlimit="10" stroke-width="1"/><path d="M151.52,424.771c1.091-64.4,1.091-145.341,0-209.9" transform="translate(-63.564 -214.87)" fill="none" stroke="#ccc" stroke-miterlimit="10" stroke-width="1"/><path d="M164.8,424.771c-1.314-64.4-1.314-145.341,0-209.9" transform="translate(-59.701 -214.87)" fill="none" stroke="#ccc" stroke-miterlimit="10" stroke-width="1"/><path d="M177.737,424.771c-.71-64.4-.71-145.341,0-209.9" transform="translate(-55.49 -214.87)" fill="none" stroke="#ccc" stroke-miterlimit="10" stroke-width="1"/><path d="M190.671,424.771c-.118-64.4-.118-145.341,0-209.9" transform="translate(-51.285 -214.87)" fill="none" stroke="#ccc" stroke-miterlimit="10" stroke-width="1"/><path d="M203.69,424.771c.46-64.4.46-145.341,0-209.9" transform="translate(-47.164 -214.87)" fill="none" stroke="#ccc" stroke-miterlimit="10" stroke-width="1"/><path d="M216.73,424.771c1.038-64.4,1.038-145.341,0-209.9" transform="translate(-43.065 -214.87)" fill="none" stroke="#ccc" stroke-miterlimit="10" stroke-width="1"/><path d="M230.006,424.771c-1.314-64.4-1.314-145.341,0-209.9" transform="translate(-39.202 -214.87)" fill="none" stroke="#ccc" stroke-miterlimit="10" stroke-width="1"/><path d="M242.944,424.771c-.749-64.4-.749-145.341,0-209.9" transform="translate(-35.001 -214.87)" fill="none" stroke="#ccc" stroke-miterlimit="10" stroke-width="1"/><path d="M255.891,424.771c-.171-64.4-.171-145.341,0-209.9" transform="translate(-30.795 -214.87)" fill="none" stroke="#ccc" stroke-miterlimit="10" stroke-width="1"/><path d="M268.9,424.771c.407-64.4.407-145.341,0-209.9" transform="translate(-26.666 -214.87)" fill="none" stroke="#ccc" stroke-miterlimit="10" stroke-width="1"/><path d="M281.94,424.771c.986-64.4.986-145.341,0-209.9" transform="translate(-22.567 -214.87)" fill="none" stroke="#ccc" stroke-miterlimit="10" stroke-width="1"/><path d="M295.248,424.771c-1.38-64.4-1.38-145.341,0-209.9" transform="translate(-18.709 -214.87)" fill="none" stroke="#ccc" stroke-miterlimit="10" stroke-width="1"/><path d="M308.144,424.771c-.8-64.4-.8-145.341,0-209.9" transform="translate(-14.519 -214.87)" fill="none" stroke="#ccc" stroke-miterlimit="10" stroke-width="1"/><path d="M321.1,424.771c-.21-64.4-.21-145.341,0-209.9" transform="translate(-10.307 -214.87)" fill="none" stroke="#ccc" stroke-miterlimit="10" stroke-width="1"/><path d="M334.1,424.771c.368-64.4.368-145.341,0-209.9" transform="translate(-6.17 -214.87)" fill="none" stroke="#ccc" stroke-miterlimit="10" stroke-width="1"/><path d="M347.15,424.771c.946-64.4.946-145.341,0-209.9" transform="translate(-2.068 -214.87)" fill="none" stroke="#ccc" stroke-miterlimit="10" stroke-width="1"/><path d="M360.447,424.771c-1.433-64.4-1.433-145.341,0-209.9" transform="translate(1.774 -214.87)" fill="none" stroke="#ccc" stroke-miterlimit="10" stroke-width="1"/><path d="M373.381,424.771c-.841-64.4-.841-145.341,0-209.9" transform="translate(5.979 -214.87)" fill="none" stroke="#ccc" stroke-miterlimit="10" stroke-width="1"/><path d="M386.317,424.771c-.263-64.4-.263-145.341,0-209.9" transform="translate(10.182 -214.87)" fill="none" stroke="#ccc" stroke-miterlimit="10" stroke-width="1"/><path d="M399.31,424.771c.315-64.4.315-145.341,0-209.9" transform="translate(14.328 -214.87)" fill="none" stroke="#ccc" stroke-miterlimit="10" stroke-width="1"/><path d="M412.35,424.771c.907-64.4.907-145.341,0-209.9" transform="translate(18.427 -214.87)" fill="none" stroke="#ccc" stroke-miterlimit="10" stroke-width="1"/><path d="M425.666,424.771c-1.485-64.4-1.485-145.341,0-209.9" transform="translate(22.263 -214.87)" fill="none" stroke="#ccc" stroke-miterlimit="10" stroke-width="1"/><path d="M438.6,424.771c-.894-64.4-.894-145.341,0-209.9" transform="translate(26.468 -214.87)" fill="none" stroke="#ccc" stroke-miterlimit="10" stroke-width="1"/><line x2="478.646" transform="translate(5.257 18.217)" fill="none" stroke="#ccc" stroke-miterlimit="10" stroke-width="1"/><line x2="478.646" transform="translate(5.257 33.476)" fill="none" stroke="#ccc" stroke-miterlimit="10" stroke-width="1"/><line x2="478.646" transform="translate(5.257 48.723)" fill="none" stroke="#ccc" stroke-miterlimit="10" stroke-width="1"/><line x2="478.646" transform="translate(5.257 63.982)" fill="none" stroke="#ccc" stroke-miterlimit="10" stroke-width="1"/><line x2="478.646" transform="translate(5.257 79.242)" fill="none" stroke="#ccc" stroke-miterlimit="10" stroke-width="1"/><line x2="478.646" transform="translate(5.257 94.488)" fill="none" stroke="#ccc" stroke-miterlimit="10" stroke-width="1"/><line x2="478.646" transform="translate(5.257 109.748)" fill="none" stroke="#ccc" stroke-miterlimit="10" stroke-width="1"/><line x2="478.646" transform="translate(5.257 125.008)" fill="none" stroke="#ccc" stroke-miterlimit="10" stroke-width="1"/><line x2="478.646" transform="translate(5.257 140.267)" fill="none" stroke="#ccc" stroke-miterlimit="10" stroke-width="1"/><line x2="478.646" transform="translate(5.257 155.514)" fill="none" stroke="#ccc" stroke-miterlimit="10" stroke-width="1"/><line x2="478.646" transform="translate(5.257 170.773)" fill="none" stroke="#ccc" stroke-miterlimit="10" stroke-width="1"/><line x2="478.646" transform="translate(5.257 186.033)" fill="none" stroke="#ccc" stroke-miterlimit="10" stroke-width="1"/><line x2="478.646" transform="translate(5.257 202.041)" fill="none" stroke="#ccc" stroke-miterlimit="10" stroke-width="1"/><path d="M565.651,215.3H94.628A10.042,10.042,0,0,0,84.6,225.328V425.556h4.8V230.336l21.108,14a12.762,12.762,0,0,1,5.731,10.659V425.517h4.784V254.993a17.547,17.547,0,0,0-7.886-14.655L89.476,224.632a5.257,5.257,0,0,1,5.152-4.469H565.651a5.258,5.258,0,0,1,5.087,4.035L546.278,240.4a17.547,17.547,0,0,0-7.886,14.655V425.517h4.784V254.993a12.762,12.762,0,0,1,5.731-10.659l21.95-14.55V425.622h4.8V225.328a10.042,10.042,0,0,0-10-10.028Z" transform="translate(-84.6 -214.735)" fill="#fff" stroke="#263238" stroke-miterlimit="10" stroke-width="1"/></g><g transform="translate(1364.728 2769.607)"><path d="M469.227,391.414c0,3.522-29.757,6.375-66.453,6.375s-66.453-2.852-66.453-6.375S366.129,385,402.773,385,469.227,387.878,469.227,391.414Z" transform="translate(-336.32 -235.164)" fill="#8f00fc "/><path d="M469.227,391.414c0,3.522-29.757,6.375-66.453,6.375s-66.453-2.852-66.453-6.375S366.129,385,402.773,385,469.227,387.878,469.227,391.414Z" transform="translate(-336.32 -235.164)" fill="#fff" opacity="0.5"/><path d="M369.278,348.88s-4.758,8.4-5.047,11.2-2.524,37.59-2.524,37.59-8.688,6.44-8.688,7.886,2.813,1.393,4.206.841,10.37-4.482,10.659-5.888a32.944,32.944,0,0,0,0-5.323s8.688-31.387,8.964-33.634,6.164-10.37,6.164-10.37Z" transform="translate(-331.07 -246.519)" fill="#fff" stroke="#263238" stroke-linecap="round" stroke-linejoin="round" stroke-width="1"/><path d="M357.235,395.124c1.406-.565,10.37-4.482,10.659-5.888a26.894,26.894,0,0,0,0-4.613,34.174,34.174,0,0,1-6.085-.092c-.079,1.2-.131,1.906-.131,1.906s-8.688,6.44-8.688,7.886S355.842,395.663,357.235,395.124Z" transform="translate(-331.08 -235.312)" fill="#8f00fc " stroke="#263238" stroke-linecap="round" stroke-linejoin="round" stroke-width="1"/><path d="M365.8,392.029s8.123-29.349,8.911-33.319a14.944,14.944,0,0,1-12.723.3c-.565,7.755-2.248,33.726-2.353,35.487,4.3,2.918,5.323-.736,5.323-.736l.907-.434C365.831,392.554,365.8,392.029,365.8,392.029Z" transform="translate(-328.989 -243.429)" fill="#fff" stroke="#263238" stroke-linecap="round" stroke-linejoin="round" stroke-width="1"/><path d="M414.095,348.88s4.758,8.4,5.047,11.2,2.524,37.59,2.524,37.59,8.688,6.44,8.688,7.886-2.813,1.393-4.206.841-10.37-4.482-10.646-5.888a31.446,31.446,0,0,1,0-5.323s-8.688-31.387-8.977-33.634-6.164-10.37-6.164-10.37Z" transform="translate(-316.189 -246.519)" fill="#fff" stroke="#263238" stroke-linecap="round" stroke-linejoin="round" stroke-width="1"/><path d="M422.571,395.124c-1.406-.565-10.37-4.482-10.646-5.888a25.587,25.587,0,0,1,0-4.613,34.178,34.178,0,0,0,6.086-.092c.079,1.2.131,1.906.131,1.906s8.688,6.44,8.688,7.886S423.885,395.663,422.571,395.124Z" transform="translate(-312.587 -235.312)" fill="#8f00fc " stroke="#263238" stroke-linecap="round" stroke-linejoin="round" stroke-width="1"/><path d="M414.014,392.029s-8.123-29.349-8.924-33.319a14.944,14.944,0,0,0,12.723.3c.565,7.755,2.247,33.726,2.353,35.487-4.3,2.918-5.323-.736-5.323-.736l-.907-.434C413.975,392.554,414.014,392.029,414.014,392.029Z" transform="translate(-314.702 -243.429)" fill="#fff" stroke="#263238" stroke-linecap="round" stroke-linejoin="round" stroke-width="1"/><path d="M444.859,352.225s-1.866-22.607-2.064-25.038S426.55,304.4,426.55,304.4s-4.863-4.666-10.278-9.2a23.355,23.355,0,0,0-11.579-5.034l-2.813-.171v-.21l-1.682.105-1.669-.105v.289l-2.813.171a23.356,23.356,0,0,0-11.579,5.034c-5.415,4.5-10.278,9.2-10.278,9.2S357.8,324.834,357.6,327.265s-2.05,25.038-2.05,25.038-.749,4.114-.749,5.047,2.8,2.8,2.8,2.8,5.257-.749,5.8-2.05a7.411,7.411,0,0,0,.565-2.629s.749-.2.552-1.682-3.168-5.428-3.168-5.428,2.432-11.4,3.549-15.5,1.866-6.572,1.866-6.572l12.513-9.9,5.047,18.861s-9.345,13.643-11.579,19.623-5.612,13.643-5.612,13.643l15.141,8.215,11.763-15.693c.565-.749,5.047-5.415,5.047-5.415l1.117-.447,1.13.447s4.482,4.666,5.047,5.415L418.152,376.7l15.141-8.215s-3.365-7.663-5.612-13.643S416.1,335.217,416.1,335.217l5.034-18.861,12.513,9.9s.749,2.432,1.866,6.572,3.549,15.5,3.549,15.5-2.984,3.943-3.168,5.428.552,1.682.552,1.682a7.414,7.414,0,0,0,.565,2.629c.552,1.314,5.783,2.05,5.783,2.05s2.813-1.866,2.813-2.8S444.859,352.225,444.859,352.225Z" transform="translate(-330.511 -265.097)" fill="#fff" stroke="#263238" stroke-linecap="round" stroke-linejoin="round" stroke-width="1"/><path d="M442.557,327.186c-.184-2.432-16.245-22.791-16.245-22.791s-4.863-4.666-10.278-9.2a23.356,23.356,0,0,0-11.579-5.034l-2.813-.171v-.21l-1.682.105-1.669-.105v.289l-2.813.171a23.356,23.356,0,0,0-11.579,5.034c-5.415,4.5-10.278,9.2-10.278,9.2s-16.061,20.359-16.258,22.791c-.145,1.88-1.314,15.772-1.8,22l5.547-.894s2.432-11.4,3.549-15.5,1.866-6.572,1.866-6.572l12.513-9.9,5.047,18.861s-9.345,13.643-11.579,19.623-5.612,13.643-5.612,13.643l15.141,8.215,11.763-15.706c.565-.749,5.047-5.415,5.047-5.415l1.117-.447,1.13.447s4.482,4.666,5.047,5.415L417.913,376.7l15.141-8.215s-3.365-7.663-5.612-13.643-11.579-19.623-11.579-19.623l5.034-18.861,12.513,9.9s.749,2.432,1.866,6.572c1.025,3.759,3.154,13.63,3.5,15.273l5.652,1.827C443.95,344.063,442.714,329.132,442.557,327.186Z" transform="translate(-330.272 -265.097)" fill="#8f00fc " stroke="#263238" stroke-linecap="round" stroke-linejoin="round" stroke-width="1"/><path d="M382.43,290.85s.539,10.857,3.444,15.417,5.639,5.257,9.4,0,1.814-15.417,1.814-15.417Z" transform="translate(-321.825 -264.76)" fill="#263238" stroke="#263238" stroke-linecap="round" stroke-linejoin="round" stroke-width="1"/><path d="M381.45,326.41a21.029,21.029,0,0,0,19.216,0" transform="translate(-322.134 -253.582)" fill="none" stroke="#263238" stroke-linecap="round" stroke-linejoin="round" stroke-width="1"/><path d="M412.549,303.588s-4.863-4.666-10.278-9.2a23.657,23.657,0,0,0-2.931-2.037l7.794,23.2,12.513,9.9s.749,2.432,1.866,6.572c1.025,3.759,3.154,13.63,3.5,15.273l5.652,1.827c-.473-5.836-1.709-20.767-1.866-22.712C428.61,323.947,412.549,303.588,412.549,303.588Z" transform="translate(-316.51 -264.289)" fill="#263238" stroke="#263238" stroke-linecap="round" stroke-linejoin="round" stroke-width="1"/><path d="M383.9,293.974c-5.415,4.5-10.278,9.2-10.278,9.2s-16.061,20.359-16.258,22.791c-.145,1.88-1.314,15.772-1.8,22l5.547-.894s2.432-11.4,3.549-15.5,1.866-6.572,1.866-6.572l12.513-9.9,5.113-21.319C384.068,293.856,383.976,293.908,383.9,293.974Z" transform="translate(-330.272 -263.836)" fill="#263238" stroke="#263238" stroke-linecap="round" stroke-linejoin="round" stroke-width="1"/><path d="M383.5,293.14s1.393,7.071,3.352,10.318,3.825,3.706,6.375,0,2.55-9.963,2.55-9.963Z" transform="translate(-321.489 -264.04)" fill="#fff" stroke="#263238" stroke-linecap="round" stroke-linejoin="round" stroke-width="1"/><path d="M381.5,284.458s-2.208-.881-2.418,2.208,1.761,5.073,3.089,4.193S381.5,284.458,381.5,284.458Z" transform="translate(-322.882 -266.806)" fill="#fff" stroke="#263238" stroke-linecap="round" stroke-linejoin="round" stroke-width="1"/><path d="M395.625,284.458s2.208-.881,2.432,2.208-1.774,5.073-3.089,4.193S395.625,284.458,395.625,284.458Z" transform="translate(-318.026 -266.806)" fill="#fff" stroke="#263238" stroke-linecap="round" stroke-linejoin="round" stroke-width="1"/><path d="M389.6,271s-7.886,1.1-9.043,5.257-.447,14.786,1.314,18.756,3.3,9.713,8.162,10.147,7.715-1.314,8.386-6.177,1.985-7.5,2.208-10.594-.447-12.131-1.551-14.563S389.6,271,389.6,271Z" transform="translate(-322.592 -271)" fill="#fff" stroke="#263238" stroke-linecap="round" stroke-linejoin="round" stroke-width="1"/><path d="M399.087,273.865c-1.1-2.418-9.49-2.865-9.49-2.865s-7.886,1.1-9.043,5.257a37.785,37.785,0,0,0-.263,11.238,2.195,2.195,0,0,0,2.024-2.405,51.693,51.693,0,0,1,0-5.967c.224-1.1,16.114-.223,16.114-.223a18.006,18.006,0,0,0-.223,4.64,10.133,10.133,0,0,0,2.432,4.85C400.848,285.34,400.191,276.257,399.087,273.865Z" transform="translate(-322.592 -271)" fill="#263238" stroke="#263238" stroke-linecap="round" stroke-linejoin="round" stroke-width="1"/><path d="M386.3,285.869c0,.8-.223,1.446-.513,1.446s-.526-.644-.526-1.446.237-1.459.526-1.459S386.3,285.067,386.3,285.869Z" transform="translate(-320.936 -266.785)" fill="#263238"/><path d="M391.058,285.869c0,.8-.223,1.446-.513,1.446s-.526-.644-.526-1.446.237-1.459.526-1.459S391.058,285.067,391.058,285.869Z" transform="translate(-319.44 -266.785)" fill="#263238"/><path d="M387.11,292.381l2.432-.118-.342-7.071,2.432-2.773,3.246-.118" transform="translate(-320.354 -267.448)" fill="none" stroke="#263238" stroke-linecap="round" stroke-linejoin="round" stroke-width="1"/><line x2="2.208" transform="translate(67.334 27.825)" fill="none" stroke="#263238" stroke-linecap="round" stroke-linejoin="round" stroke-width="1"/><line x1="5.336" y1="1.275" transform="translate(61.538 14.97)" fill="none" stroke="#263238" stroke-linecap="round" stroke-linejoin="round" stroke-width="1"/></g><g transform="translate(1105.089 2559.18)"><ellipse cx="159.667" cy="16.043" rx="159.667" ry="16.043" transform="translate(108.545 394.063)" fill="rgba(0,71,152,0.4)"/><path d="M397.434,200.106s-5.714,14.286-5.714,19.527-31.429-5.714-31.429-5.714,10.481-3.331,12.391-10.955.947-6.677,8.083-10.008S397.434,200.106,397.434,200.106Z" transform="translate(-71.009 -141.557)" fill="#fff" stroke="#263238" stroke-linecap="round" stroke-linejoin="round" stroke-width="1"/><path d="M359.649,176.225s-6.2,10.481-5.714,15.279,2.368.474.474,4.767-7.64,10.481-6.188,11.9a27.07,27.07,0,0,0,5.225,3.331s-.474,13.339,1.436,15.279,15.722.474,22.384-2.857,7.64-11.9,7.64-11.9,3.8-.489,8.572-5.241,8.572-21.91,2.857-28.572-17.158-9.611-23.881-9.2S359.649,176.225,359.649,176.225Z" transform="translate(-77.503 -153.872)" fill="#fff" stroke="#263238" stroke-linecap="round" stroke-linejoin="round" stroke-width="1"/><path d="M357.268,188.688c0,1.742-.581,3.163-1.314,3.163s-1.314-1.421-1.314-3.163.581-3.178,1.314-3.178S357.268,186.931,357.268,188.688Z" transform="translate(-73.991 -145.143)" fill="#263238"/><path d="M353.94,185.733a10.374,10.374,0,0,1,6.876-2.643" transform="translate(-74.361 -146.42)" fill="none" stroke="#263238" stroke-linecap="round" stroke-linejoin="round" stroke-width="1"/><path d="M366.007,166.684s-1.91-10.008-7.135-6.677-12.391,11.429-8.1,19.527S370.3,183.4,370.3,183.4s-3.82,7.135-.474,8.572,6.112,2.368,6.112,2.368-4.293,6.2,2.384,6.2,3.8-4.767,8.083-6.2,9.534,7.151,7.151,12.865-5.241,7.151-5.241,7.151a22.17,22.17,0,0,0,9.534,5.714c6.188,1.895,8.083-1.91,13.323-11.429s8.572-26.677,5.714-35.723-18.09-7.64-21.895-7.64a43.957,43.957,0,0,0-8.1.947s1.421-7.135-4.767-7.135S366.007,166.684,366.007,166.684Z" transform="translate(-76.726 -159.09)" fill="#263238" stroke="#263238" stroke-linecap="round" stroke-linejoin="round" stroke-width="1"/><path d="M315.195,232.434s-4.752-8.572-8.1-10.008-8.083,3.82-8.083,3.82-6.2-1.436-7.151.474l-2.384,4.767s-.947-.963-1.421,3.331c-.214,1.895-1.635,5.118-.932,6.983.779,2.108,3.239,2.414,5.164,3.392,5.485,2.811,10.038,9.381,15.737,11.047s10.955-2.017,14.79-5.714C335.684,238.148,319.962,231.96,315.195,232.434Z" transform="translate(-109.735 -125.786)" fill="#fff" stroke="#263238" stroke-linecap="round" stroke-linejoin="round" stroke-width="1"/><path d="M309.1,228.89a52.439,52.439,0,0,0-15.126,9.656" transform="translate(-106.02 -122.242)" fill="none" stroke="#263238" stroke-linecap="round" stroke-linejoin="round" stroke-width="1"/><path d="M412.66,265.758s22.384-23.774,29.55-35.234,14.286-28.1,14.286-33.813,1.91-11.429,5.241-14.286,10.955-11.841,10.955-7.151c0,2.857-.474,2.857-1.91,4.767s-5.714,9.045-5.714,9.045,15.722-12.85,17.143-13.751,5.241-3.8,6.2-2.384-1.91,5.714-1.91,5.714l-6.188,6.677s10.466-4.293,12.376-4.293,1.91,2.384.474,3.82-11.429,8.1-11.429,8.1l8.1-2.384s0,.474.947,1.895-3.8,8.1-5.714,9.534-18.564,12.85-18.564,12.85-14.76,27.151-17.617,38.58-10.481,25.241-12.865,30.008-7.151,7.64-10.955,9.045S412.66,273.383,412.66,265.758Z" transform="translate(-43.362 -151.975)" fill="#fff" stroke="#263238" stroke-linecap="round" stroke-linejoin="round" stroke-width="1"/><path d="M466.563,185.56a31.336,31.336,0,0,1-8.083,5.714" transform="translate(-19.173 -145.116)" fill="none" stroke="#263238" stroke-linecap="round" stroke-linejoin="round" stroke-width="1"/><line x1="2.857" y2="1.421" transform="translate(434.066 33.308)" fill="none" stroke="#263238" stroke-linecap="round" stroke-linejoin="round" stroke-width="1"/><path d="M395.461,275.33l-13.751,11.9s-40.474-5.714-64.294-1.421-35.234,9.519-37.144,14.76-19.053,31.918-36.67,51.949-33.4,31.4-37.678,32.315-11.918-5.241-20.963-12.376-15.279-5.714-13.751,1.895,6.677,12.865,10.955,19.053,8.1,20,11.9,21.91,10.481,2.857,13.339-2.384,16.67-17.617,34.76-29.993,34.271-18.075,48.022-27.594,19.038-32.865,19.038-32.865,42.384,10.955,55.723,13.339,22.384,3.8,22.384,3.8h4.293s4.752,27.151,10.466,50.009,12.865,43.331,17.632,45.715,93.814,31.918,101.438,34.775,29.519,11.429,29.519,11.429,14.286,10.466,18.106,17.143,6.188,15.279,9.519,16.2,3.82-13.339.474-29.534-.947-24.294-4.752-30.008-18.579,0-23.82.489-22.384-2.873-37.144-11.918-19.97-19.053-36.166-27.625a74.364,74.364,0,0,0-31.429-8.541s2.857-26.662,2.857-34.76V339.151a222.362,222.362,0,0,0,3.331-24.294c.474-9.519-2.384-23.8-2.384-23.8Z" transform="translate(-170.948 -97.726)" fill="#fff" stroke="#263238" stroke-linecap="round" stroke-linejoin="round" stroke-width="1"/><path d="M485.486,439.175c-3.331-16.2-.947-24.294-4.752-30.008s-18.579,0-23.82.489-22.384-2.873-37.144-11.918-20-19.053-36.2-27.625a75.633,75.633,0,0,0-20.841-7.3c-5.088,4.217-16.807,16.058-14.729,34.042,28.205,9.656,74.47,25.058,79.864,27.09,7.64,2.857,29.519,11.429,29.519,11.429s14.286,10.466,18.106,17.143,6.188,15.279,9.519,16.2S488.832,455.371,485.486,439.175Z" transform="translate(-77.623 -51.544)" fill="#fff" stroke="#263238" stroke-linecap="round" stroke-linejoin="round" stroke-width="1"/><path d="M418.278,418.31a6.916,6.916,0,0,0,0,1.131l1.971.779s14.286,10.466,18.106,17.143,6.188,15.279,9.519,16.2,3.82-13.339.474-29.534-.947-24.294-4.752-30.008c-3.178-4.767-13.965-1.528-20.5-.122l6.219,17.754S419.225,411.649,418.278,418.31Z" transform="translate(-40.409 -36.394)" fill="#263238" stroke="#263238" stroke-linecap="round" stroke-linejoin="round" stroke-width="1"/><path d="M290.2,343.944c8.067-5.577,13.2-15.844,16.089-23.438-17.54-1.329-26.647-15.783-30.3-23.576a351.01,351.01,0,0,1-32.468,44.157c-17.617,20-33.339,31.429-37.617,32.376s-11.918-5.241-20.963-12.376-15.279-5.714-13.751,1.895,6.677,12.865,10.955,19.053,8.1,20,11.9,21.91,10.482,2.857,13.339-2.383,16.67-17.617,34.76-29.993S276.448,353.463,290.2,343.944Z" transform="translate(-170.959 -86.323)" fill="#fff" stroke="#263238" stroke-linecap="round" stroke-linejoin="round" stroke-width="1"/><path d="M184.961,340.529c-9.045-7.151-15.279-5.714-13.751,1.895s6.677,12.865,10.955,19.053,8.1,20,11.9,21.91,10.481,2.857,13.339-2.384a35.142,35.142,0,0,1,5.577-6.677l-1.283-.458c-7.64-2.857-11.918-13.339-11.918-13.339l6.2-7.64C201.569,353.868,194.006,347.665,184.961,340.529Z" transform="translate(-170.948 -65.765)" fill="#263238" stroke="#263238" stroke-linecap="round" stroke-linejoin="round" stroke-width="1"/><path d="M397.563,392.108c.672-7.349,1.314-15.279,1.314-19.145V339.151a222.354,222.354,0,0,0,3.331-24.294c.474-9.519-2.384-23.8-2.384-23.8L346.011,275.33l-13.751,11.9s-40.474-5.714-64.294-1.421c-1.146.2-2.231.413-3.316.626,3.316,7.808,7.823,22.491,3.743,38.2,13.094,3.316,37.632,9.442,47.2,11.154,13.339,2.384,22.384,3.8,22.384,3.8h4.293s4.752,27.151,10.466,50.009c1.115,4.416,2.277,8.74,3.453,12.865C365.737,397.93,382.269,391.436,397.563,392.108Z" transform="translate(-121.498 -97.726)" fill="#263238" stroke="#263238" stroke-linecap="round" stroke-linejoin="round" stroke-width="1"/><path d="M326.382,351.679l-.4-1.528a13.14,13.14,0,0,1-.29-4.293,28.321,28.321,0,0,1,1.009-5.18c0-.076.229-.794.626-2.185s.7-2.353.917-2.888a10.7,10.7,0,0,0-.183-5.7c-.581-2.307-1.36-3.331-2.338-3.056s-1.146.978-1.024,2.307a17.129,17.129,0,0,0,.4,2.078l.856,3.407-3.9.978-.413-1.65a16.515,16.515,0,0,1-.764-6.967,4.385,4.385,0,0,1,2.017-2.888,7.81,7.81,0,0,1,2.139-.84,4.844,4.844,0,0,1,2.475,0,4.417,4.417,0,0,1,2.032,1.207,10.7,10.7,0,0,1,2.521,4.981,12.637,12.637,0,0,1,.168,6.02c-.428,1.849-.886,3.514-1.39,5a21.131,21.131,0,0,0-1.314,7.12l6.112-1.528.81,3.193Z" transform="translate(-91.861 -72.5)" fill="#fff"/><path d="M345.551,345.273a6.738,6.738,0,0,1-9.244,2.338,9.611,9.611,0,0,1-2.873-5.271l-3.224-12.819a8.511,8.511,0,0,1,.107-5.684,5.837,5.837,0,0,1,4.156-2.934,5.745,5.745,0,0,1,5.057.611,8.4,8.4,0,0,1,2.811,4.935l3.224,12.819a9.58,9.58,0,0,1-.015,6Zm-5.057-.428a1.742,1.742,0,0,0,1.3-1.131,6.677,6.677,0,0,0-.29-3.331l-3.3-13.048c-.5-1.986-1.253-2.979-2.216-3.056a5.075,5.075,0,0,0-.9.168,1.65,1.65,0,0,0-1.008.886,4.675,4.675,0,0,0,.153,2.934l3.3,13.064a6.861,6.861,0,0,0,1.314,3.056A1.7,1.7,0,0,0,340.494,344.845Z" transform="translate(-87.118 -73.84)" fill="#fff"/><path d="M480.3,250.936s-3.8-.947-24.767-18.09-29.519-22.919-45.241-27.625-36.67.474-47.625,5.241-58.061,31.9-58.061,31.9-4.278,7.135-.474,13.339a38.811,38.811,0,0,0,8.1,9.519l32.392-4.767-23.82,56.2,58.58,18.106s27.625-33.339,36.67-40.963,27.625-26.188,27.625-26.188l37.1,16.181S497.92,270.462,480.3,250.936Z" transform="translate(-101.486 -135.716)" fill="#8f00fc " stroke="#263238" stroke-linecap="round" stroke-linejoin="round" stroke-width="1"/><path d="M346.73,273.66l2.353-3.193a45.578,45.578,0,0,1,7.074-7.64,86.673,86.673,0,0,1,9.794-7.181c.137-.092,1.528-.993,4.324-2.75s4.675-2.918,5.791-3.514a36.67,36.67,0,0,0,9.611-9.733q5.134-6.967,3.056-8.419-1.65-1.222-4.874,2.368c-.932,1.039-2,2.384-3.224,4.034l-5.027,6.876-5.287-3.881,2.429-3.331q7.41-10.069,11.261-12.666t6.815-1.956a8.846,8.846,0,0,1,3.392,1.635,5.944,5.944,0,0,1,2.307,3.484,10.1,10.1,0,0,1-.2,4.874,36.791,36.791,0,0,1-6.219,11.841,43.651,43.651,0,0,1-10.176,10.283q-5.348,3.7-9.84,6.31a66.692,66.692,0,0,0-13.43,9.993l8.388,6.112-4.752,6.463Z" transform="translate(-78.167 -125.591)" fill="#263238"/><path d="M374.211,289.763a8.679,8.679,0,0,1-12.529-9.168q.886-5.317,6.4-12.819L387.076,241.8q5.256-7.12,9.84-9.274a8.969,8.969,0,0,1,12.5,9.167q-.672,5.042-5.9,12.223L384.525,279.8Q379.039,287.318,374.211,289.763Zm-3.942-7.869a2.781,2.781,0,0,0,3.147,0,23.2,23.2,0,0,0,5.455-5.959l19.359-26.387q4.385-6,3.056-8.113a5.792,5.792,0,0,0-1.1-.993,2.567,2.567,0,0,0-2.46,0q-1.635.642-4.874,5.088l-19.374,26.4a24.277,24.277,0,0,0-4.125,7.013,2.659,2.659,0,0,0,.917,2.949Z" transform="translate(-70.338 -120.715)" fill="#263238"/><line y1="4.752" x2="28.572" transform="translate(243.092 119.987)" fill="none" stroke="#263238" stroke-linecap="round" stroke-linejoin="round" stroke-width="1"/><line y1="12.865" x2="13.812" transform="translate(342.147 119.024)" fill="none" stroke="#263238" stroke-linecap="round" stroke-linejoin="round" stroke-width="1"/></g><g transform="translate(960 2467)"><ellipse cx="159.667" cy="19.863" rx="159.667" ry="19.863" transform="translate(0 499.994)" fill="rgba(0,71,152,0.4)"/><path d="M178.18,140.179s3.911,13.461,5.21,16.074,5.653,3.911,5.653,3.911V170.6c0,2.6,6.112,2.17,6.112,2.17s9.993,9.167,11.307,11.291,1.3,4.355,3.911,4.782a21.268,21.268,0,0,0,9.167-1.3c2.17-.871,38.2-20.856,38.2-20.856L241.222,148a138.094,138.094,0,0,0-12.605-18.259c-6.952-8.251-16.517-21.3-30.849-18.686S178.18,140.179,178.18,140.179Z" transform="translate(-22.058 -92.447)" fill="#fff" stroke="#263238" stroke-linecap="round" stroke-linejoin="round" stroke-width="1"/><path d="M245.509,155.2s.443-21.727-6.509-37.373S210.749,94.8,198.586,100.884s-23.469,19.129-24.34,32.086,2.6,18.243,6.509,16.945,10.863-20.856,10.863-16.945-2.6,11.291.871,14.347,7.823-.443,8.694.856,1.742,6.952,4.355,5.653,0-8.251,2.6-9.167,9.993,3.911,11.307,9.993,0,5.21,0,5.21,7.38,5.653,12.223,5.225S245.509,155.2,245.509,155.2Z" transform="translate(-24.206 -98.76)" fill="#263238" stroke="#263238" stroke-linecap="round" stroke-linejoin="round" stroke-width="1"/><path d="M204.836,138.83l-3.056,4.782a33.262,33.262,0,0,1,3.468,11.734" transform="translate(-9.599 -77.606)" fill="none" stroke="#263238" stroke-linecap="round" stroke-linejoin="round" stroke-width="1"/><path d="M203.752,328.83a62.522,62.522,0,0,0-8.572,22.919c-1.895,12.85,12.88,53.339,12.88,68.588s.932,27.609,0,37.128-6.662,14.775-9.519,19.527-10.481,8.572-10.481,13.339,12.376,8.1,15.279,11.9,9.534,10.955,19.053,4.767,7.151-21.391,8.1-29.534,3.8-39.038,6.188-46.189,8.572-32.865,5.714-49.061-10.955-32.85-10.955-32.85l8.1-8.1S208.992,335.507,203.752,328.83Z" transform="translate(-16.842 22.697)" fill="#fff" stroke="#263238" stroke-linecap="round" stroke-linejoin="round" stroke-width="1"/><path d="M230.434,429.9c.168-1.421.4-3.575.672-6.112-14.179,3.056-21.7-.779-25.623-4.95-2.17,4.4-5.134,7.64-6.952,10.7-2.872,4.767-10.481,8.572-10.481,13.339s12.376,8.1,15.279,11.9,9.534,10.955,19.053,4.767S229.487,438,230.434,429.9Z" transform="translate(-16.848 70.214)" fill="#263238" stroke="#263238" stroke-linecap="round" stroke-linejoin="round" stroke-width="1"/><path d="M239.048,371.549q-.26-1.421-.55-2.842c-.076-.321-.153-.642-.214-.963-.137-.626-.29-1.253-.443-1.864l-.275-1.146c-.153-.55-.29-1.1-.443-1.65s-.214-.81-.336-1.207-.29-1.024-.428-1.528-.245-.825-.382-1.238-.275-.917-.428-1.36l-.413-1.314c-.107-.336-.214-.642-.336-.978-.413-1.253-.84-2.475-1.268-3.636h0a43.058,43.058,0,0,0-10.7-2.613c-13.415-1.757-23.072,5.607-28.557,11.582,3.8,17.006,10.481,38.656,10.481,48.893,0,13.66.733,25,.214,34.072,0,1.054-.138,2.078-.229,3.056a20.787,20.787,0,0,1-.367,2.383l-.092.5a21.92,21.92,0,0,1-.565,2.154v.107c-.214.688-.458,1.36-.718,2a1.328,1.328,0,0,0-.107.26c-.29.672-.6,1.314-.9,1.925h0c-1.115,5.928.642,13.583,5.653,16.364,12.865,7.151,18.09-1.421,18.09-1.421l1.207-1.115a9.513,9.513,0,0,1,.092-1.635c.092-.519.076-1.054.137-1.528.947-8.083,3.8-39.038,6.188-46.189S241.9,387.745,239.048,371.549Z" transform="translate(-13.559 33.317)" fill="#fff" stroke="#263238" stroke-linecap="round" stroke-linejoin="round" stroke-width="1"/><g transform="translate(0.55 364.117)" clip-path="url(#a)"><path d="M76.17,377.952a40.9,40.9,0,1,0,12.023-28.935A40.872,40.872,0,0,0,76.17,377.952Z" transform="translate(-76.46 -337.065)" fill="#fff"/><path d="M76.17,377.946a40.872,40.872,0,1,1,40.612,40.887A40.872,40.872,0,0,1,76.17,377.946ZM142.3,365.188a69.338,69.338,0,0,0-2.857-14.867.886.886,0,0,0-.4-.458,70.682,70.682,0,0,0-12.361-6.112,1.206,1.206,0,0,0-.657,0l-4.874,1.528a37.235,37.235,0,0,0-9.3,4.278.489.489,0,0,0-.306.565c.718,4.721,1.421,9.442,2.139,14.148a.733.733,0,0,0,.336.474l15.187,7.349a.764.764,0,0,0,.581,0l12.223-6.585c.092.015.183-.183.29-.321ZM95.376,377.106h0l5.134.26a.764.764,0,0,0,.519-.168q5.775-5.974,11.49-11.979a.672.672,0,0,0,.168-.474q-1.024-6.983-2.093-13.98c-.092-.672-.092-.672-.81-.764a57.306,57.306,0,0,0-11.551-.55,1.161,1.161,0,0,0-.7.29A105.42,105.42,0,0,0,87.2,360.788a.779.779,0,0,0-.153.52c.229,1.7.474,3.377.718,5.057a94.572,94.572,0,0,0,1.971,10.115c0,.229.107.382.413.4C91.892,376.923,93.634,377.014,95.376,377.106Zm47.258-10.7-.4.214-11.948,6.448a.871.871,0,0,0-.5.749c-.4,3.056-.825,6.112-1.238,9.091-.336,2.353-.657,4.721-.963,7.089a.718.718,0,0,0,.183.581l8.037,7.212a.611.611,0,0,0,.489.092,45.4,45.4,0,0,0,12.514-6.432,1.345,1.345,0,0,0,.55-.856,87.093,87.093,0,0,0,1.528-10.5,1.97,1.97,0,0,0-.153-.993c-1.024-2.063-2-4.141-3.056-6.112a38,38,0,0,0-5.042-6.585ZM95.009,378.1h0l-5.134-.229a.657.657,0,0,0-.474.244c-.5.779-.993,1.528-1.528,2.368a35.571,35.571,0,0,0-3.147,8.77.718.718,0,0,0,.076.428,112.4,112.4,0,0,0,5.7,10.512,1.1,1.1,0,0,0,.489.382c1.895.535,3.789,1.131,5.73,1.528a38.325,38.325,0,0,0,8.572.627c.29,0,.306-.2.382-.382q1.528-4.141,2.949-8.3a.779.779,0,0,0,0-.733l-7.838-14.653a.6.6,0,0,0-.565-.351Zm22.6,34.042h.214a77.6,77.6,0,0,0,11.7-2.093.9.9,0,0,0,.443-.306,32.084,32.084,0,0,0,5.21-10.7.6.6,0,0,0-.214-.688q-3.881-3.438-7.64-6.891a1.024,1.024,0,0,0-.993-.26l-16.058,2.872a.642.642,0,0,0-.565.474c-.947,2.689-1.895,5.363-2.872,8.037a.963.963,0,0,0,.153.993,26.585,26.585,0,0,0,10.405,8.465,1.165,1.165,0,0,0,.214.092ZM80.036,363.492l.55-.229,5.027-2.277a2.155,2.155,0,0,0,.657-.5A117.948,117.948,0,0,1,97.3,348.718a1.392,1.392,0,0,0,.336-.535l1.329-3.377,1.085-2.75a39.893,39.893,0,0,0-20,21.391Zm75.326,4.385-.137.4q-1.528,4.675-2.964,9.351a4.951,4.951,0,0,0-.336,1.238,86.372,86.372,0,0,1-1.8,12.223,4.262,4.262,0,0,0-.153,1.222c.2,1.62.443,3.224.672,4.844a11.885,11.885,0,0,0,.229,1.6,39.42,39.42,0,0,0,5.623-16.471,37.968,37.968,0,0,0-1.131-14.408Zm-43.7,49.413a39.722,39.722,0,0,0,14.5-.687,38.366,38.366,0,0,0,13.14-5.837c-2.72-.107-5.439-.153-8.144-.2a2.394,2.394,0,0,0-.458.076,79.962,79.962,0,0,1-11.979,2.261,3.055,3.055,0,0,0-1.726.535c-1.62,1.223-3.285,2.368-4.935,3.545ZM91.2,408.123V407.8c-.275-1.833-.535-3.652-.81-5.47a3.636,3.636,0,0,0-.351-1.3A124.8,124.8,0,0,1,83.932,389.7a1.894,1.894,0,0,0-.351-.489L78.141,384.5l-.275-.183a39.436,39.436,0,0,0,5.241,14.24,40.048,40.048,0,0,0,8.083,9.549Zm30.314-69.642.214.229c1.421,1.268,2.827,2.552,4.248,3.8a1.528,1.528,0,0,0,.474.275,74.711,74.711,0,0,1,13.293,6.463,2.826,2.826,0,0,0,.993.336c.688.092,1.39.153,2.093.214l2.307.214A39.191,39.191,0,0,0,121.518,338.481Z" transform="translate(-76.46 -337.06)" fill="#263238"/><path d="M130.1,362.871c-.107.137-.2.336-.351.413l-12.223,6.585a.764.764,0,0,1-.581,0q-7.64-3.636-15.187-7.349a.733.733,0,0,1-.336-.474c-.718-4.706-1.421-9.427-2.139-14.148a.489.489,0,0,1,.306-.565,37.234,37.234,0,0,1,9.305-4.278l4.874-1.528a1.207,1.207,0,0,1,.657,0,70.691,70.691,0,0,1,12.361,6.112.886.886,0,0,1,.4.458,69.336,69.336,0,0,1,2.918,14.775Z" transform="translate(-64.264 -334.742)" fill="#fff"/><path d="M91.618,372.869c-1.742-.092-3.484-.183-5.225-.244-.306,0-.351-.168-.413-.4a94.569,94.569,0,0,1-1.971-10.115c-.244-1.681-.489-3.361-.718-5.057a.779.779,0,0,1,.153-.52,105.425,105.425,0,0,1,10.329-11.047,1.161,1.161,0,0,1,.7-.29,57.306,57.306,0,0,1,11.551.55c.718.092.718.092.81.764q1.054,7,2.093,13.98a.672.672,0,0,1-.168.474q-5.73,6-11.49,11.979a.763.763,0,0,1-.519.168l-5.134-.26Z" transform="translate(-72.702 -332.822)" fill="#fff"/><path d="M124.872,356.28a38,38,0,0,1,5.042,6.555c1.115,2,2.093,4.08,3.056,6.112a1.971,1.971,0,0,1,.153.993,87.092,87.092,0,0,1-1.528,10.5,1.344,1.344,0,0,1-.55.856,45.391,45.391,0,0,1-12.514,6.432.611.611,0,0,1-.489-.092l-8.037-7.212a.718.718,0,0,1-.183-.581c.306-2.368.626-4.736.963-7.089.413-3.056.84-6.112,1.238-9.091a.871.871,0,0,1,.5-.749l11.948-6.448Z" transform="translate(-58.698 -326.929)" fill="#fff"/><path d="M92.05,363.993l5.225.26a.6.6,0,0,1,.565.351l7.838,14.653a.779.779,0,0,1,0,.733q-1.528,4.156-2.949,8.3a.351.351,0,0,1-.382.382,38.319,38.319,0,0,1-8.572-.626c-1.94-.443-3.835-1.039-5.73-1.528a1.1,1.1,0,0,1-.489-.382,112.414,112.414,0,0,1-5.7-10.512.718.718,0,0,1-.076-.428,35.569,35.569,0,0,1,3.147-8.77c.458-.81.947-1.528,1.528-2.368a.657.657,0,0,1,.474-.244l5.134.229Z" transform="translate(-73.501 -322.954)" fill="#fff"/><path d="M107.059,393.455a1.155,1.155,0,0,1-.275-.092A26.587,26.587,0,0,1,96.379,384.9a.963.963,0,0,1-.153-.993c.978-2.674,1.925-5.348,2.872-8.037a.642.642,0,0,1,.565-.474l16.119-2.872a1.024,1.024,0,0,1,.993.26q3.835,3.453,7.64,6.891a.6.6,0,0,1,.214.688,32.087,32.087,0,0,1-5.21,10.7.9.9,0,0,1-.443.306,77.6,77.6,0,0,1-11.7,2.093Z" transform="translate(-65.912 -318.374)" fill="#fff"/><path d="M78.7,361.761a39.893,39.893,0,0,1,20-21.391l-1.085,2.75L96.286,346.5a1.391,1.391,0,0,1-.336.535A117.952,117.952,0,0,0,84.934,358.8a2.155,2.155,0,0,1-.657.5l-5.027,2.277Z" transform="translate(-75.125 -335.328)" fill="#fff"/><path d="M129.864,357.24a37.969,37.969,0,0,1,1.131,14.362,39.421,39.421,0,0,1-5.623,16.471c-.092-.611-.168-1.115-.229-1.6-.229-1.62-.474-3.224-.672-4.844a4.263,4.263,0,0,1,.153-1.222,86.375,86.375,0,0,0,1.8-12.223,4.949,4.949,0,0,1,.336-1.238q1.528-4.675,2.964-9.351Z" transform="translate(-50.962 -326.422)" fill="#fff"/><path d="M99.4,391.9l.4-.305c1.65-1.177,3.316-2.322,4.935-3.545a3.056,3.056,0,0,1,1.727-.535,79.95,79.95,0,0,0,11.979-2.261,2.4,2.4,0,0,1,.458-.076c2.7,0,5.424.092,8.144.2a38.367,38.367,0,0,1-13.14,5.837,39.722,39.722,0,0,1-14.5.688Z" transform="translate(-64.197 -311.672)" fill="#fff"/><path d="M90.614,391.79a40.047,40.047,0,0,1-8.128-9.565A39.435,39.435,0,0,1,77.26,368l.275.183,5.439,4.691a1.9,1.9,0,0,1,.351.489A124.787,124.787,0,0,0,89.437,384.7a3.636,3.636,0,0,1,.351,1.3c.275,1.818.535,3.636.81,5.47A1.507,1.507,0,0,1,90.614,391.79Z" transform="translate(-75.885 -320.742)" fill="#fff"/><path d="M105.85,338a39.191,39.191,0,0,1,23.621,11.536l-2.307-.214a15.913,15.913,0,0,1-2.093-.214,2.827,2.827,0,0,1-.993-.336,74.715,74.715,0,0,0-13.293-6.463,1.526,1.526,0,0,1-.474-.275c-1.421-1.253-2.827-2.536-4.248-3.8Z" transform="translate(-60.792 -336.579)" fill="#fff"/></g><ellipse cx="40.872" cy="40.872" rx="40.872" ry="40.872" transform="translate(0.55 364.117)" fill="none" stroke="#263238" stroke-miterlimit="10" stroke-width="1"/><path d="M174.41,302.56s-10.283,11.429-20.581,22.277-13.965,27.67-13.491,38.626-1.94,25.974-3.652,31.108-6.876,17.143-6.876,17.143l34.867-12.575s2.857-20.581,6.28-26.3,10.863-9.167,12.575-16a80.181,80.181,0,0,1,3.438-10.863l22.277-10.848S179.528,316.846,174.41,302.56Z" transform="translate(-47.593 8.829)" fill="#fff" stroke="#263238" stroke-linecap="round" stroke-linejoin="round" stroke-width="1"/><path d="M183.577,346.975c.993-3.927,1.956-6.891,2.613-8.724-.886-4.125-4.874-16.99-19.756-16.99-10.008,0-18.564,7.12-24.11,13.308a51.811,51.811,0,0,0-2.17,17.556c.565,13.14-1.727,27.5-3.438,32.575s-6.906,17.143-6.906,17.143l34.867-12.575s2.857-20.581,6.28-26.3S181.82,353.835,183.577,346.975Z" transform="translate(-47.593 18.701)" fill="#fff" stroke="#263238" stroke-linecap="round" stroke-linejoin="round" stroke-width="1"/><path d="M172.543,360.292s-30.283,14.867-49.718,26.861-22.919,37.724-14.286,38.87,28.007,0,34.286-6.86,6.28-17.143,17.708-24,25.73-12.575,27.5-21.712S184.537,355.158,172.543,360.292Z" transform="translate(-61.173 38.524)" fill="#263238" stroke="#263238" stroke-linecap="round" stroke-linejoin="round" stroke-width="1"/><path d="M225.78,253.721s-52.514,60.8-59.589,68.893S153.8,336.9,153.8,336.9s4.767,29.534,44.768,34.76l36.318-43.637L220,372.149S217.621,377.39,241.4,385s31.888,4.293,31.888,4.293,20.6-51.277,29.168-61.743,23.346-20.963,23.82-33.339-4.767-25.241-4.767-25.241-5.714-12.391-40-19.053S225.78,253.721,225.78,253.721Z" transform="translate(-34.928 -20.134)" fill="#8f00fc "/><g transform="translate(118.872 227.565)" clip-path="url(#b)"><path d="M270.1,293.726a156.242,156.242,0,0,1-35.249-2.857l-22.384,14.255-2.109,3.316,1.635-1.406L197.113,351.16s-2.384,5.241,21.391,12.85,31.949,4.324,31.949,4.324,20.6-51.277,29.168-61.743c5.119-6.264,12.437-12.529,17.617-19.191A95.631,95.631,0,0,1,270.1,293.726Z" transform="translate(-130.97 -226.739)" opacity="0.3"/><path d="M156.31,345.08s60.948-72.5,67.824-75.418,19.007-17.113,19.007-17.113" transform="translate(-152.475 -245.137)" fill="none" stroke="#263238" stroke-linecap="round" stroke-linejoin="round" stroke-width="3"/><path d="M158.8,348.81s60.948-72.5,67.809-75.418,19.023-17.113,19.023-17.113" transform="translate(-151.16 -243.168)" fill="none" stroke="#263238" stroke-linecap="round" stroke-linejoin="round" stroke-width="3"/></g><path d="M225.78,253.721s-52.514,60.8-59.589,68.893S153.8,336.9,153.8,336.9s4.767,29.534,44.768,34.76l36.318-43.637L220,372.149S217.621,377.39,241.4,385s31.888,4.293,31.888,4.293,20.6-51.277,29.168-61.743,23.346-20.963,23.82-33.339-4.767-25.241-4.767-25.241-5.714-12.391-40-19.053S225.78,253.721,225.78,253.721Z" transform="translate(-34.928 -20.134)" fill="none" stroke="#263238" stroke-linecap="round" stroke-linejoin="round" stroke-width="1"/><path d="M241.745,155.986a29.746,29.746,0,0,1-1.115-6.112c0-2.2,1.665-3.316,2.215-6.112s-2.215-4.966.55-9.366,8.816-3.316,12.682.55c0,0,3.3-.55,7.64,3.3a26.676,26.676,0,0,1,6.112,7.166s.55,4.416,1.1,7.166-1.772,3.209.55,5.516,1.65,6.616,1.65,6.616Z" transform="translate(10.91 -81.454)" fill="#fff" stroke="#263238" stroke-linecap="round" stroke-linejoin="round" stroke-width="1"/><path d="M274.919,161.69s19.3,14.332,24.813,19.863,9.366,15.982,9.366,23.713-4.966,8.816-11.016,10.466-9.931-2.75-16-11.031-25.975-42.445-25.975-42.445,1.65-4.966,5.516-4.966S274.919,161.69,274.919,161.69Z" transform="translate(19.082 -67.861)" fill="#fff" stroke="#263238" stroke-linecap="round" stroke-linejoin="round" stroke-width="1"/><path d="M258.932,147.339A33.278,33.278,0,0,0,232,145.17c-15.279,5.21-19.13,19.557-23.9,23.041s-17.831,16.5-16.517,32.59,19.114,48.664,18.686,58.229-.443,31.292-1.742,38.671-7.4,18.335-7.4,18.335a106.511,106.511,0,0,1,39.558-7.823c22.155,0,40.841,5.21,46.494,8.679a120.135,120.135,0,0,0,16.074,7.4s-8.617-37.816-8.617-42.231-.856-9.565,1.742-14.775,7.4-44.309,7.4-44.309l8.083,13.385s28.419-5.119,27.976-24.248c0,0-13.461-20.428-19.114-28.679s-12.223-21.3-20.856-29.122-20-7.823-24.767-7.823S258.932,147.339,258.932,147.339Z" transform="translate(-15.032 -75.252)" fill="#8f00fc " stroke="#263238" stroke-linecap="round" stroke-linejoin="round" stroke-width="1"/><path d="M199.237,224.162s20.81-11.78,25.211-16.807-.55-17.647-11.016-13.751S198.886,221.611,199.237,224.162Z" transform="translate(-10.953 -49.078)" fill="#263238" stroke="#263238" stroke-linecap="round" stroke-linejoin="round" stroke-width="1"/><path d="M228.579,189.74a129.4,129.4,0,0,1,9.993,16.96c3.056,6.952-13.033,79.085-13.033,79.085a88.789,88.789,0,0,1,6.524,11.307,47.121,47.121,0,0,1,3.468,16.96c0,3.468-5.21,7.38-5.21,7.38s7.38,3.484,4.339,4.339-4.339,1.314-4.339,1.314,2.6,3.911.428,3.911a42.261,42.261,0,0,1-11.291-1.742c-3.911-1.3-9.168-8.694-13.033-14.347s3.468-25.2,4.339-30.405.871-43.026-.443-49.978,0-22.17,0-22.17l-8.251-6.112A29.84,29.84,0,0,1,228.579,189.74Z" transform="translate(-9.446 -50.73)" fill="#fff" stroke="#263238" stroke-linecap="round" stroke-linejoin="round" stroke-width="1"/><path d="M226.43,282.777s-6.494.688-8.556-.229-8.434-8.908-8.434-8.908" transform="translate(-5.555 -6.439)" fill="none" stroke="#263238" stroke-linecap="round" stroke-linejoin="round" stroke-width="1"/><path d="M225.429,278.166l-5.944-.672-6.616-5.944" transform="translate(-3.745 -7.542)" fill="none" stroke="#263238" stroke-linecap="round" stroke-linejoin="round" stroke-width="1"/><path d="M225.745,276.759s-4.339-1.36-4.584-2.047-5.012-6.112-5.012-6.112" transform="translate(-2.013 -9.099)" fill="none" stroke="#263238" stroke-linecap="round" stroke-linejoin="round" stroke-width="1"/><path d="M210.871,161.87a40.276,40.276,0,0,0-22.6,17.006c-8.251,13.476,3.484,31.735,7.4,40.413s10.863,21.3,10.863,21.3,8.251-19.557,16.945-26.509a27.731,27.731,0,0,1,18.243-6.112s-11.291-16.945-15.2-22.6-13.033-9.167-13.033-9.167" transform="translate(-18.247 -65.443)" fill="#8f00fc " stroke="#263238" stroke-linecap="round" stroke-linejoin="round" stroke-width="1"/><path d="M264.993,211.378l-.183-25.761,1.65-20.4" transform="translate(23.675 -63.675)" fill="none" stroke="#263238" stroke-linecap="round" stroke-linejoin="round" stroke-width="1"/><path d="M235.814,244.388c-.29-27,2.4-36.38-5.944-63.7a7.288,7.288,0,0,1-2.781,3.56,12.9,12.9,0,0,1-4.37,1.879c-.657-2.964-1.528-5.9-2.17-8.831a11.811,11.811,0,0,0,5.073-4.462,22.734,22.734,0,0,0,2.7-7.639l7.548-1.7c6.677,31.765,9.274,47.976,10.1,80.444C242.628,244.158,239.206,244.265,235.814,244.388Z" transform="translate(0.31 -64.583)" fill="#263238"/><path d="M270.377,235.518c-2.872,5.271-6.387,6.31-11.138,6.753s-7.945.367-10.7-4.4-2.934-9.167-2.659-16.608c.367-9.7-2.338-27.319-5.027-36.777-1.986-6.952-2.4-10.97-.519-16.028s5.332-6.219,9.9-7.044,8.281-.871,12.223,3.056,5.256,7.426,6.937,14.592c2.292,9.733,5,27.625,4.981,37.816C274.258,224.747,273.25,230.247,270.377,235.518Zm-11.352-3.606c1.772-.168,2.552-.183,3.743-2.918s1.528-5.332,1.528-10.527a195.848,195.848,0,0,0-4.889-37.984c-1.528-5.974-1.528-7.013-5.638-9.167-.81-.428-1.222-.107-2.17.29s-1.818,0-2.322,2.338-.413,3.9.764,8.327c2.643,9.916,5.149,27.5,4.935,37.694-.107,5.18-.26,7.334.733,10.008S257.268,232.081,259.025,231.913Z" transform="translate(10.117 -65.92)" fill="#263238"/><line x1="2.872" y1="0.642" transform="translate(222.815 259.929)" fill="none" stroke="#263238" stroke-linecap="round" stroke-linejoin="round" stroke-width="1"/></g></g></svg>