<svg xmlns="http://www.w3.org/2000/svg" width="550.5" height="461.63" viewBox="0 0 550.5 461.63"><g transform="translate(-340 -1384.861)"><g transform="translate(340 1388.505)"><path d="M464.833,97.551s-39.375-54.285-110.915-53.9S238.651,92.506,189.6,120.811c-25.681,14.8-57.239,14.387-85.319,23.559C14.389,173.688-6.216,287.92,40.166,345.436c40.153,49.784,102.213,70.389,192.065,65.451s153.276-5.386,226.2-68.586S511.908,169.528,464.833,97.551Z" transform="translate(-16.174 -43.648)" fill="#8f00fc"/><path d="M464.833,97.551s-39.375-54.285-110.915-53.9S238.651,92.506,189.6,120.811c-25.681,14.8-57.239,14.387-85.319,23.559C14.389,173.688-6.216,287.92,40.166,345.436c40.153,49.784,102.213,70.389,192.065,65.451s153.276-5.386,226.2-68.586S511.908,169.528,464.833,97.551Z" transform="translate(-16.174 -43.648)" fill="#fff" opacity="0.7"/></g><g transform="translate(343.44 1385.861)"><rect width="489.52" height="11.475" transform="translate(0.64 315.671)" fill="#b2b2b2"/><line y1="321.377" transform="translate(362.394)" fill="none" stroke="#b2b2b2" stroke-linecap="round" stroke-linejoin="round" stroke-width="2"/><line y1="320.076" transform="translate(175.182 1.301)" fill="none" stroke="#b2b2b2" stroke-linecap="round" stroke-linejoin="round" stroke-width="2"/><line x2="490.171" transform="translate(0 202.634)" fill="none" stroke="#b2b2b2" stroke-linecap="round" stroke-linejoin="round" stroke-width="2"/><line x2="493.786" transform="translate(2.773 73.695)" fill="none" stroke="#b2b2b2" stroke-linecap="round" stroke-linejoin="round" stroke-width="2"/><line x1="4.842" y2="2.986" transform="translate(236.538 141.086)" fill="none" stroke="#b2b2b2" stroke-linecap="round" stroke-linejoin="round" stroke-width="0.5"/><line x1="75.134" y2="46.296" transform="translate(247.885 90.78)" fill="none" stroke="#b2b2b2" stroke-linecap="round" stroke-linejoin="round" stroke-width="0.5"/><line x1="60.193" y2="37.093" transform="translate(272.734 93.905)" fill="none" stroke="#b2b2b2" stroke-linecap="round" stroke-linejoin="round" stroke-width="0.5"/><line x1="18.173" y2="11.209" transform="translate(341.043 77.705)" fill="none" stroke="#b2b2b2" stroke-linecap="round" stroke-linejoin="round" stroke-width="0.5"/><g transform="translate(39.279 237.433)" opacity="0.3"><line x1="4.842" y2="2.986" transform="translate(0 63.382)" fill="none" stroke="#000" stroke-linecap="round" stroke-linejoin="round" stroke-width="0.5"/><line x1="75.124" y2="46.296" transform="translate(11.358 13.075)" fill="none" stroke="#b2b2b2" stroke-linecap="round" stroke-linejoin="round" stroke-width="0.5"/><line x1="60.182" y2="37.103" transform="translate(36.207 16.2)" fill="none" stroke="#b2b2b2" stroke-linecap="round" stroke-linejoin="round" stroke-width="0.5"/><line x1="18.173" y2="11.209" transform="translate(104.506)" fill="none" stroke="#b2b2b2" stroke-linecap="round" stroke-linejoin="round" stroke-width="0.5"/></g><line x1="4.842" y2="2.986" transform="translate(314.477 304.665)" fill="none" stroke="#000" stroke-linecap="round" stroke-linejoin="round" stroke-width="0.5" opacity="0.3"/><line x1="75.134" y2="46.296" transform="translate(325.824 254.359)" fill="none" stroke="#b2b2b2" stroke-linecap="round" stroke-linejoin="round" stroke-width="0.5"/><line x1="60.182" y2="37.093" transform="translate(350.684 257.484)" fill="none" stroke="#b2b2b2" stroke-linecap="round" stroke-linejoin="round" stroke-width="0.5"/><line x1="18.173" y2="11.209" transform="translate(418.983 241.283)" fill="none" stroke="#b2b2b2" stroke-linecap="round" stroke-linejoin="round" stroke-width="0.5"/><g transform="translate(13.726 83.442)" opacity="0.3"><line x1="4.842" y2="2.986" transform="translate(0 63.382)" fill="none" stroke="#b2b2b2" stroke-linecap="round" stroke-linejoin="round" stroke-width="0.5"/><line x1="75.134" y2="46.296" transform="translate(11.347 13.075)" fill="none" stroke="#b2b2b2" stroke-linecap="round" stroke-linejoin="round" stroke-width="0.5"/><line x1="60.182" y2="37.093" transform="translate(36.207 16.2)" fill="none" stroke="#b2b2b2" stroke-linecap="round" stroke-linejoin="round" stroke-width="0.5"/><line x1="18.173" y2="11.209" transform="translate(104.506)" fill="none" stroke="#b2b2b2" stroke-linecap="round" stroke-linejoin="round" stroke-width="0.5"/></g></g><g transform="translate(349.285 1821.172)"><line x2="10.036" transform="translate(461.6)" fill="none" stroke="#263238" stroke-linecap="round" stroke-linejoin="round" stroke-width="1"/><line x2="263.403" transform="translate(186.487)" fill="none" stroke="#263238" stroke-linecap="round" stroke-linejoin="round" stroke-width="1"/><line x2="179.789" fill="none" stroke="#263238" stroke-linecap="round" stroke-linejoin="round" stroke-width="1"/></g><g transform="translate(744.007 1598.981)"><line x2="14.099" y2="135.093" transform="translate(15.462 47.35)" fill="none" stroke="#263238" stroke-linecap="round" stroke-linejoin="round" stroke-width="2"/><line x1="6.388" y1="6.751" transform="translate(20.89 149.84)" fill="none" stroke="#263238" stroke-linecap="round" stroke-linejoin="round" stroke-width="2"/><path d="M417.254,383.94a7.273,7.273,0,0,0-2.538-5.428c-1.642-1.461-10.281-5.1-11.092-2.058C402.728,379.77,411.569,386.265,417.254,383.94Z" transform="translate(-394.422 -232.074)" fill="#8f00fc" stroke="#263238" stroke-linecap="round" stroke-linejoin="round" stroke-width="1"/><line x1="8.212" y1="5.13" transform="translate(14.619 146.737)" fill="none" stroke="#263238" stroke-linecap="round" stroke-linejoin="round" stroke-width="0.5"/><line x1="6.388" y1="6.74" transform="translate(22.501 165.208)" fill="none" stroke="#263238" stroke-linecap="round" stroke-linejoin="round" stroke-width="2"/><path d="M418.764,398.34a7.231,7.231,0,0,0-2.549-5.418c-1.642-1.472-10.27-5.1-11.092-2.058C404.228,394.17,413.069,400.686,418.764,398.34Z" transform="translate(-394.323 -231.116)" fill="#8f00fc" stroke="#263238" stroke-linecap="round" stroke-linejoin="round" stroke-width="1"/><line x1="8.223" y1="5.119" transform="translate(16.219 162.105)" fill="none" stroke="#263238" stroke-linecap="round" stroke-linejoin="round" stroke-width="0.5"/><line x1="6.399" y1="6.751" transform="translate(16.976 112.353)" fill="none" stroke="#263238" stroke-linecap="round" stroke-linejoin="round" stroke-width="2"/><path d="M413.584,348.78a7.2,7.2,0,0,0-2.538-5.418c-1.642-1.461-10.27-5.1-11.092-2.058C399.058,344.609,407.9,351.1,413.584,348.78Z" transform="translate(-394.666 -234.411)" fill="#8f00fc" stroke="#263238" stroke-linecap="round" stroke-linejoin="round" stroke-width="1"/><line x1="8.212" y1="5.119" transform="translate(10.705 109.249)" fill="none" stroke="#263238" stroke-linecap="round" stroke-linejoin="round" stroke-width="0.5"/><line x1="6.388" y1="6.751" transform="translate(18.587 127.71)" fill="none" stroke="#263238" stroke-linecap="round" stroke-linejoin="round" stroke-width="2"/><path d="M415.094,363.19a7.231,7.231,0,0,0-2.549-5.418c-1.642-1.472-10.27-5.1-11.092-2.058C400.558,359.02,409.4,365.515,415.094,363.19Z" transform="translate(-394.567 -233.453)" fill="#8f00fc" stroke="#263238" stroke-linecap="round" stroke-linejoin="round" stroke-width="1"/><line x1="8.223" y1="5.119" transform="translate(12.305 124.617)" fill="none" stroke="#263238" stroke-linecap="round" stroke-linejoin="round" stroke-width="0.5"/><line x1="6.388" y1="6.751" transform="translate(14.374 87.386)" fill="none" stroke="#263238" stroke-linecap="round" stroke-linejoin="round" stroke-width="2"/><path d="M411.144,325.38a7.242,7.242,0,0,0-2.538-5.418c-1.642-1.472-10.281-5.1-11.1-2.058C396.619,321.21,405.5,327.683,411.144,325.38Z" transform="translate(-394.829 -235.967)" fill="#8f00fc" stroke="#263238" stroke-linecap="round" stroke-linejoin="round" stroke-width="1"/><line x1="8.223" y1="5.119" transform="translate(8.092 84.293)" fill="none" stroke="#263238" stroke-linecap="round" stroke-linejoin="round" stroke-width="0.5"/><line x1="6.388" y1="6.751" transform="translate(11.761 62.324)" fill="none" stroke="#263238" stroke-linecap="round" stroke-linejoin="round" stroke-width="2"/><path d="M408.694,301.88a7.252,7.252,0,0,0-2.549-5.428c-1.632-1.461-10.27-5.1-11.091-2.048C394.169,297.71,403,304.2,408.694,301.88Z" transform="translate(-394.992 -237.53)" fill="#8f00fc" stroke="#263238" stroke-linecap="round" stroke-linejoin="round" stroke-width="1"/><line x1="8.223" y1="5.13" transform="translate(5.48 59.22)" fill="none" stroke="#263238" stroke-linecap="round" stroke-linejoin="round" stroke-width="0.5"/><line y1="7.935" x2="4.853" transform="translate(26.212 139.57)" fill="none" stroke="#263238" stroke-linecap="round" stroke-linejoin="round" stroke-width="2"/><path d="M422.738,374.791a7.263,7.263,0,0,1,1.376-5.834c1.3-1.77,9-7.114,10.43-4.266C436.1,367.709,428.8,375.889,422.738,374.791Z" transform="translate(-393.156 -232.832)" fill="#8f00fc" stroke="#263238" stroke-linecap="round" stroke-linejoin="round" stroke-width="1"/><line y1="7.082" x2="7.401" transform="translate(29.582 134.877)" fill="none" stroke="#263238" stroke-linecap="round" stroke-linejoin="round" stroke-width="0.5"/><line y1="7.924" x2="4.863" transform="translate(21.989 99.15)" fill="none" stroke="#263238" stroke-linecap="round" stroke-linejoin="round" stroke-width="2"/><path d="M418.789,336.881a7.231,7.231,0,0,1,1.365-5.834c1.3-1.77,9-7.114,10.43-4.266C432.141,329.8,424.836,337.979,418.789,336.881Z" transform="translate(-393.419 -235.353)" fill="#8f00fc" stroke="#263238" stroke-linecap="round" stroke-linejoin="round" stroke-width="1"/><line y1="7.082" x2="7.401" transform="translate(25.37 94.446)" fill="none" stroke="#263238" stroke-linecap="round" stroke-linejoin="round" stroke-width="0.5"/><line y1="7.924" x2="4.863" transform="translate(20.133 81.382)" fill="none" stroke="#263238" stroke-linecap="round" stroke-linejoin="round" stroke-width="2"/><path d="M417.009,320.221a7.231,7.231,0,0,1,1.365-5.834c1.312-1.77,9-7.1,10.43-4.266C430.4,313.139,423.1,321.319,417.009,320.221Z" transform="translate(-393.537 -236.46)" fill="#8f00fc" stroke="#263238" stroke-linecap="round" stroke-linejoin="round" stroke-width="1"/><line y1="7.082" x2="7.401" transform="translate(23.514 76.679)" fill="none" stroke="#263238" stroke-linecap="round" stroke-linejoin="round" stroke-width="0.5"/><line y1="7.924" x2="4.863" transform="translate(17.414 55.327)" fill="none" stroke="#263238" stroke-linecap="round" stroke-linejoin="round" stroke-width="2"/><path d="M414.5,295.79a7.209,7.209,0,0,1,1.365-5.823c1.312-1.77,9-7.114,10.43-4.266C427.841,288.709,420.546,296.889,414.5,295.79Z" transform="translate(-393.704 -238.085)" fill="#8f00fc" stroke="#263238" stroke-linecap="round" stroke-linejoin="round" stroke-width="1"/><line y1="7.071" x2="7.401" transform="translate(20.794 50.635)" fill="none" stroke="#263238" stroke-linecap="round" stroke-linejoin="round" stroke-width="0.5"/><path d="M409.378,285.381a7.263,7.263,0,0,1,1.376-5.834c1.3-1.77,9-7.1,10.43-4.266C422.742,278.3,415.436,286.479,409.378,285.381Z" transform="translate(-394.044 -238.777)" fill="#8f00fc" stroke="#263238" stroke-linecap="round" stroke-linejoin="round" stroke-width="1"/><line y1="7.082" x2="7.401" transform="translate(15.334 39.522)" fill="none" stroke="#263238" stroke-linecap="round" stroke-linejoin="round" stroke-width="0.5"/><path d="M410.392,285.806a7.22,7.22,0,0,1-5.652-1.973c-1.632-1.482-6.132-9.694-3.2-10.825C404.751,271.76,412.12,279.887,410.392,285.806Z" transform="translate(-394.621 -238.883)" fill="#8f00fc" stroke="#263238" stroke-linecap="round" stroke-linejoin="round" stroke-width="1"/><line x1="6.26" y1="8.095" transform="translate(9.511 38.807)" fill="none" stroke="#263238" stroke-linecap="round" stroke-linejoin="round" stroke-width="0.5"/><line x1="14.014" y2="135.093" transform="translate(38.626 65.96)" fill="none" stroke="#263238" stroke-linecap="round" stroke-linejoin="round" stroke-width="2"/><line x1="4.863" y1="7.924" transform="translate(36.856 167.362)" fill="none" stroke="#263238" stroke-linecap="round" stroke-linejoin="round" stroke-width="2"/><path d="M431.689,400.84a7.21,7.21,0,0,0-1.365-5.823c-1.312-1.77-9.012-7.1-10.441-4.266C418.337,393.769,425.642,401.949,431.689,400.84Z" transform="translate(-393.351 -231.099)" fill="#8f00fc" stroke="#263238" stroke-linecap="round" stroke-linejoin="round" stroke-width="1"/><line x1="6.986" y1="6.698" transform="translate(31.353 163.043)" fill="none" stroke="#263238" stroke-linecap="round" stroke-linejoin="round" stroke-width="0.5"/><line x1="4.863" y1="7.924" transform="translate(40.749 129.875)" fill="none" stroke="#263238" stroke-linecap="round" stroke-linejoin="round" stroke-width="2"/><path d="M435.339,365.681a7.21,7.21,0,0,0-1.376-5.834c-1.3-1.77-9-7.1-10.43-4.266C421.987,358.62,429.292,366.747,435.339,365.681Z" transform="translate(-393.108 -233.438)" fill="#8f00fc" stroke="#263238" stroke-linecap="round" stroke-linejoin="round" stroke-width="1"/><line x1="6.986" y1="6.708" transform="translate(35.245 125.545)" fill="none" stroke="#263238" stroke-linecap="round" stroke-linejoin="round" stroke-width="0.5"/><line x1="4.863" y1="7.913" transform="translate(39.159 145.243)" fill="none" stroke="#263238" stroke-linecap="round" stroke-linejoin="round" stroke-width="2"/><path d="M433.849,380.1a7.263,7.263,0,0,0-1.376-5.834c-1.3-1.77-9-7.1-10.43-4.266C420.486,373.019,427.8,381.2,433.849,380.1Z" transform="translate(-393.207 -232.479)" fill="#8f00fc" stroke="#263238" stroke-linecap="round" stroke-linejoin="round" stroke-width="1"/><line x1="6.996" y1="6.708" transform="translate(33.646 140.913)" fill="none" stroke="#263238" stroke-linecap="round" stroke-linejoin="round" stroke-width="0.5"/><line x1="4.863" y1="7.913" transform="translate(43.34 104.919)" fill="none" stroke="#263238" stroke-linecap="round" stroke-linejoin="round" stroke-width="2"/><path d="M437.749,342.291a7.263,7.263,0,0,0-1.376-5.834c-1.3-1.77-9-7.1-10.43-4.266C424.407,335.241,431.723,343.389,437.749,342.291Z" transform="translate(-392.948 -234.993)" fill="#8f00fc" stroke="#263238" stroke-linecap="round" stroke-linejoin="round" stroke-width="1"/><line x1="6.986" y1="6.708" transform="translate(37.837 100.589)" fill="none" stroke="#263238" stroke-linecap="round" stroke-linejoin="round" stroke-width="0.5"/><line x1="4.863" y1="7.924" transform="translate(45.942 79.846)" fill="none" stroke="#263238" stroke-linecap="round" stroke-linejoin="round" stroke-width="2"/><path d="M440.209,318.78a7.241,7.241,0,0,0-1.376-5.823c-1.3-1.781-9-7.1-10.43-4.266C426.846,311.709,434.162,319.889,440.209,318.78Z" transform="translate(-392.785 -236.556)" fill="#8f00fc" stroke="#263238" stroke-linecap="round" stroke-linejoin="round" stroke-width="1"/><line x1="6.986" y1="6.708" transform="translate(40.439 75.516)" fill="none" stroke="#263238" stroke-linecap="round" stroke-linejoin="round" stroke-width="0.5"/><line y1="6.751" x2="6.388" transform="translate(42.54 159.417)" fill="none" stroke="#263238" stroke-linecap="round" stroke-linejoin="round" stroke-width="2"/><path d="M439.05,392.92a7.252,7.252,0,0,1,2.549-5.428c1.632-1.461,10.27-5.1,11.092-2.058C453.576,388.74,444.745,395.234,439.05,392.92Z" transform="translate(-392.062 -231.477)" fill="#8f00fc" stroke="#263238" stroke-linecap="round" stroke-linejoin="round" stroke-width="1"/><line y1="5.396" x2="8.703" transform="translate(46.987 156.047)" fill="none" stroke="#263238" stroke-linecap="round" stroke-linejoin="round" stroke-width="0.5"/><line y1="6.751" x2="6.388" transform="translate(46.742 118.986)" fill="none" stroke="#263238" stroke-linecap="round" stroke-linejoin="round" stroke-width="2"/><path d="M443,355.01a7.22,7.22,0,0,1,2.538-5.428c1.642-1.461,10.27-5.1,11.091-2.058C457.515,350.83,448.674,357.324,443,355.01Z" transform="translate(-391.8 -233.997)" fill="#8f00fc" stroke="#263238" stroke-linecap="round" stroke-linejoin="round" stroke-width="1"/><line y1="5.407" x2="8.692" transform="translate(51.189 115.606)" fill="none" stroke="#263238" stroke-linecap="round" stroke-linejoin="round" stroke-width="0.5"/><line y1="6.751" x2="6.388" transform="translate(48.587 101.219)" fill="none" stroke="#263238" stroke-linecap="round" stroke-linejoin="round" stroke-width="2"/><path d="M444.72,338.35a7.22,7.22,0,0,1,2.538-5.428c1.642-1.461,10.27-5.1,11.092-2.058C459.246,334.17,450.4,340.686,444.72,338.35Z" transform="translate(-391.685 -235.105)" fill="#8f00fc" stroke="#263238" stroke-linecap="round" stroke-linejoin="round" stroke-width="1"/><line y1="5.407" x2="8.692" transform="translate(53.035 97.838)" fill="none" stroke="#263238" stroke-linecap="round" stroke-linejoin="round" stroke-width="0.5"/><line y1="6.762" x2="6.388" transform="translate(51.285 75.164)" fill="none" stroke="#263238" stroke-linecap="round" stroke-linejoin="round" stroke-width="2"/><path d="M447.25,313.92a7.242,7.242,0,0,1,2.538-5.418c1.642-1.472,10.27-5.109,11.092-2.069C461.776,309.74,452.945,316.245,447.25,313.92Z" transform="translate(-391.517 -236.73)" fill="#8f00fc" stroke="#263238" stroke-linecap="round" stroke-linejoin="round" stroke-width="1"/><line y1="5.396" x2="8.703" transform="translate(55.733 71.794)" fill="none" stroke="#263238" stroke-linecap="round" stroke-linejoin="round" stroke-width="0.5"/><path d="M444.39,302.67a7.241,7.241,0,0,1,2.538-5.418c1.642-1.472,10.27-5.108,11.092-2.058C458.9,298.5,450.085,304.995,444.39,302.67Z" transform="translate(-391.707 -237.477)" fill="#8f00fc" stroke="#263238" stroke-linecap="round" stroke-linejoin="round" stroke-width="1"/><line y1="5.396" x2="8.703" transform="translate(52.683 59.796)" fill="none" stroke="#263238" stroke-linecap="round" stroke-linejoin="round" stroke-width="0.5"/><path d="M445.184,303.4a7.21,7.21,0,0,1-5.119-3.1c-1.29-1.781-4-10.74-.9-11.241C442.55,288.508,448.1,297.978,445.184,303.4Z" transform="translate(-392.15 -237.809)" fill="#8f00fc" stroke="#263238" stroke-linecap="round" stroke-linejoin="round" stroke-width="1"/><line x1="4.458" y1="9.225" transform="translate(48.577 56.362)" fill="none" stroke="#263238" stroke-linecap="round" stroke-linejoin="round" stroke-width="0.5"/><line y2="170.842" transform="translate(36.579 10.94)" fill="none" stroke="#263238" stroke-linecap="round" stroke-linejoin="round" stroke-width="2"/><line x1="5.663" y1="7.38" transform="translate(31.054 148.72)" fill="none" stroke="#263238" stroke-linecap="round" stroke-linejoin="round" stroke-width="2"/><path d="M426.535,383.132a7.231,7.231,0,0,0-1.973-5.652c-1.472-1.621-9.684-6.132-10.814-3.2C412.511,377.48,420.627,384.86,426.535,383.132Z" transform="translate(-393.753 -232.204)" fill="#8f00fc" stroke="#263238" stroke-linecap="round" stroke-linejoin="round" stroke-width="1"/><line x1="7.647" y1="5.94" transform="translate(25.135 144.987)" fill="none" stroke="#263238" stroke-linecap="round" stroke-linejoin="round" stroke-width="0.5"/><line x1="5.663" y1="7.369" transform="translate(31.054 116.619)" fill="none" stroke="#263238" stroke-linecap="round" stroke-linejoin="round" stroke-width="2"/><path d="M426.535,353.033a7.22,7.22,0,0,0-1.973-5.652c-1.472-1.632-9.684-6.143-10.814-3.2C412.511,347.38,420.627,354.718,426.535,353.033Z" transform="translate(-393.753 -234.206)" fill="#8f00fc" stroke="#263238" stroke-linecap="round" stroke-linejoin="round" stroke-width="1"/><line x1="7.647" y1="5.951" transform="translate(25.135 112.875)" fill="none" stroke="#263238" stroke-linecap="round" stroke-linejoin="round" stroke-width="0.5"/><line x1="5.663" y1="7.38" transform="translate(31.054 78.918)" fill="none" stroke="#263238" stroke-linecap="round" stroke-linejoin="round" stroke-width="2"/><path d="M426.535,317.693a7.252,7.252,0,0,0-1.973-5.663c-1.472-1.621-9.684-6.132-10.814-3.2C412.511,312.03,420.627,319.41,426.535,317.693Z" transform="translate(-393.753 -236.556)" fill="#8f00fc" stroke="#263238" stroke-linecap="round" stroke-linejoin="round" stroke-width="1"/><line x1="7.647" y1="5.951" transform="translate(25.135 75.185)" fill="none" stroke="#263238" stroke-linecap="round" stroke-linejoin="round" stroke-width="0.5"/><line x1="5.663" y1="7.38" transform="translate(31.054 53.824)" fill="none" stroke="#263238" stroke-linecap="round" stroke-linejoin="round" stroke-width="2"/><path d="M426.535,294.163a7.22,7.22,0,0,0-1.973-5.652c-1.472-1.632-9.684-6.143-10.814-3.2C412.511,288.51,420.627,295.88,426.535,294.163Z" transform="translate(-393.753 -238.121)" fill="#8f00fc" stroke="#263238" stroke-linecap="round" stroke-linejoin="round" stroke-width="1"/><line x1="7.647" y1="5.951" transform="translate(25.135 50.091)" fill="none" stroke="#263238" stroke-linecap="round" stroke-linejoin="round" stroke-width="0.5"/><line x1="5.663" y1="7.38" transform="translate(31.054 28.622)" fill="none" stroke="#263238" stroke-linecap="round" stroke-linejoin="round" stroke-width="2"/><path d="M426.535,270.533a7.252,7.252,0,0,0-1.973-5.663c-1.472-1.621-9.684-6.132-10.814-3.2C412.511,264.87,420.627,272.25,426.535,270.533Z" transform="translate(-393.753 -239.692)" fill="#8f00fc" stroke="#263238" stroke-linecap="round" stroke-linejoin="round" stroke-width="1"/><line x1="7.647" y1="5.951" transform="translate(25.135 24.89)" fill="none" stroke="#263238" stroke-linecap="round" stroke-linejoin="round" stroke-width="0.5"/><line y1="7.38" x2="5.652" transform="translate(36.589 158.521)" fill="none" stroke="#263238" stroke-linecap="round" stroke-linejoin="round" stroke-width="2"/><path d="M433,392.333a7.263,7.263,0,0,1,1.962-5.663c1.482-1.621,9.694-6.132,10.825-3.2C447,386.67,438.889,394.05,433,392.333Z" transform="translate(-392.467 -231.593)" fill="#8f00fc" stroke="#263238" stroke-linecap="round" stroke-linejoin="round" stroke-width="1"/><line y1="6.271" x2="8.095" transform="translate(40.525 154.469)" fill="none" stroke="#263238" stroke-linecap="round" stroke-linejoin="round" stroke-width="0.5"/><line y1="7.38" x2="5.652" transform="translate(36.589 107.458)" fill="none" stroke="#263238" stroke-linecap="round" stroke-linejoin="round" stroke-width="2"/><path d="M433,344.453a7.242,7.242,0,0,1,1.962-5.652c1.482-1.632,9.694-6.143,10.825-3.2C447,338.8,438.889,346.17,433,344.453Z" transform="translate(-392.467 -234.777)" fill="#8f00fc" stroke="#263238" stroke-linecap="round" stroke-linejoin="round" stroke-width="1"/><line y1="6.271" x2="8.095" transform="translate(40.525 103.405)" fill="none" stroke="#263238" stroke-linecap="round" stroke-linejoin="round" stroke-width="0.5"/><line y1="7.38" x2="5.652" transform="translate(36.589 82.256)" fill="none" stroke="#263238" stroke-linecap="round" stroke-linejoin="round" stroke-width="2"/><path d="M433,320.823a7.263,7.263,0,0,1,1.962-5.663c1.482-1.621,9.694-6.132,10.825-3.2C447,315.16,438.889,322.54,433,320.823Z" transform="translate(-392.467 -236.348)" fill="#8f00fc" stroke="#263238" stroke-linecap="round" stroke-linejoin="round" stroke-width="1"/><line y1="6.271" x2="8.095" transform="translate(40.525 78.204)" fill="none" stroke="#263238" stroke-linecap="round" stroke-linejoin="round" stroke-width="0.5"/><line y1="7.38" x2="5.652" transform="translate(36.589 48.95)" fill="none" stroke="#263238" stroke-linecap="round" stroke-linejoin="round" stroke-width="2"/><path d="M433,289.612a7.242,7.242,0,0,1,1.962-5.652c1.482-1.632,9.694-6.132,10.825-3.2C447,283.928,438.889,291.308,433,289.612Z" transform="translate(-392.467 -238.423)" fill="#8f00fc" stroke="#263238" stroke-linecap="round" stroke-linejoin="round" stroke-width="1"/><line y1="6.26" x2="8.095" transform="translate(40.525 44.897)" fill="none" stroke="#263238" stroke-linecap="round" stroke-linejoin="round" stroke-width="0.5"/><line y1="7.38" x2="5.652" transform="translate(36.589 22.757)" fill="none" stroke="#263238" stroke-linecap="round" stroke-linejoin="round" stroke-width="2"/><path d="M433,265.033a7.263,7.263,0,0,1,1.962-5.663c1.482-1.621,9.694-6.132,10.825-3.2C447,259.37,438.889,266.718,433,265.033Z" transform="translate(-392.467 -240.058)" fill="#8f00fc" stroke="#263238" stroke-linecap="round" stroke-linejoin="round" stroke-width="1"/><line y1="6.271" x2="8.095" transform="translate(40.525 18.704)" fill="none" stroke="#263238" stroke-linecap="round" stroke-linejoin="round" stroke-width="0.5"/><path d="M429,254.143a7.252,7.252,0,0,1,1.973-5.663c1.472-1.621,9.684-6.132,10.814-3.2C443,248.48,434.889,255.86,429,254.143Z" transform="translate(-392.733 -240.782)" fill="#8f00fc" stroke="#263238" stroke-linecap="round" stroke-linejoin="round" stroke-width="1"/><line y1="6.271" x2="8.095" transform="translate(36.248 7.09)" fill="none" stroke="#263238" stroke-linecap="round" stroke-linejoin="round" stroke-width="0.5"/><path d="M429.889,254.7a7.231,7.231,0,0,1-5.418-2.549c-1.461-1.642-5.087-10.281-2.048-11.092C425.74,240.179,432.225,249.02,429.889,254.7Z" transform="translate(-393.246 -241.002)" fill="#8f00fc" stroke="#263238" stroke-linecap="round" stroke-linejoin="round" stroke-width="1"/><line x1="5.386" y1="8.703" transform="translate(31.257 5)" fill="none" stroke="#263238" stroke-linecap="round" stroke-linejoin="round" stroke-width="0.5"/><path d="M437.149,455.849h-18.1l-2.261-45.7h22.62Z" transform="translate(-393.543 -229.755)" fill="#263238" stroke="#263238" stroke-linecap="round" stroke-linejoin="round" stroke-width="1"/></g><path d="M224.221,60.328v2.7a5.822,5.822,0,0,1-.1,2.293c-.277.619-1.066,1-1.664,1.493a.811.811,0,0,0-.181.139.6.6,0,0,0-.128.309V68.9c.992-.3,1.92-.6,2.848-.843a2.037,2.037,0,0,1,.949,0c.928.235,1.856.523,2.784.789.224-1.589.181-1.717-.981-2.656-.267-.224-.555-.427-.811-.661a.629.629,0,0,1-.2-.405V60.274l9.353,2.89V61.458a.8.8,0,0,0-.469-.832c-2.794-1.653-5.578-3.338-8.383-4.991a.9.9,0,0,1-.523-.907V48.447a1.258,1.258,0,0,0-.725-1.28,1.226,1.226,0,0,0-1.738,1.269v6.4a.811.811,0,0,1-.459.821c-2.837,1.674-5.663,3.37-8.479,5.055-.171.107-.405.277-.416.427v2.133Z" transform="translate(337.04 1345.083)" fill="#fff"/><g transform="translate(346.521 1464.23)"><path d="M117.858,141.627l3.2,1.92a33.179,33.179,0,0,1,.213-4.266c.213-.64,3.829-.427,3.829-.427A25.1,25.1,0,0,0,119.767,128c-4.266-4.906-12.147-10.228-20.455-10.228s-17.245,3.445-21.927,10.91A26.044,26.044,0,0,0,74.4,149.338c1.493,4.693,3.2,17.469,3.2,17.469s4.042.213,5.109-.853.64-9.6,2.773-14.483,6.4-6.815,12.147-7.668,17.885-2.56,17.885-2.56Z" transform="translate(-18.885 -114.446)" fill="#263238" stroke="#263238" stroke-linecap="round" stroke-linejoin="round" stroke-width="1"/><path d="M99.812,369.028s-3.562,19.2-1.781,32.709,3.914,39.1,3.914,41.945v4.981s-1.429,0-1.429,3.551-.7,14.931-.7,16.712,7.1,2.837,8.532,2.837,8.169,3.562,12.8,4.981,11.731,2.133,12.435-1.781-3.9-9.6-6.4-11.731-8.169-9.6-8.169-9.6-.363-5.684-1.066-7.1a1.066,1.066,0,0,0-1.781-.363s7.114-47.278,7.114-51.9,1.418-17.426,1.418-22.4S99.812,369.028,99.812,369.028Z" transform="translate(-17.284 -97.769)" fill="#fff" stroke="#263238" stroke-linecap="round" stroke-linejoin="round" stroke-width="1"/><path d="M124.636,371.876c0-4.981-24.881-2.848-24.881-2.848s-.725,3.882-1.354,9.374a43.783,43.783,0,0,0,7.988.587,30.469,30.469,0,0,0,18.237-6.154C124.636,372.494,124.636,372.164,124.636,371.876Z" transform="translate(-17.227 -97.769)" fill="#263238" stroke="#263238" stroke-linecap="round" stroke-linejoin="round" stroke-width="1"/><path d="M133.433,470.148c.715-3.9-3.9-9.6-6.4-11.731s-8.169-9.6-8.169-9.6-.363-5.684-1.066-7.1c-.341-.683-.768-.789-1.066-.715l-.672.352a28.8,28.8,0,0,0-5.684,1.066c-1.781.715-2.133,3.914-2.133,3.914l-6.4-2.485s-1.429,0-1.429,3.551-.7,14.931-.7,16.712,7.1,2.837,8.532,2.837,8.169,3.562,12.8,4.981S132.729,474.063,133.433,470.148Z" transform="translate(-17.139 -92.954)" fill="#263238" stroke="#263238" stroke-linecap="round" stroke-linejoin="round" stroke-width="1"/><path d="M121,470.756c4.618,1.418,11.731,2.133,12.435-1.781a5.045,5.045,0,0,0,0-1.5c-6.847,5.332-20.263-2.272-23.132-4.181-2.56-1.706-8.287-3.861-10.484-4.661-.107,2.069-.181,3.711-.181,4.266,0,1.77,7.1,2.837,8.532,2.837S116.373,469.338,121,470.756Z" transform="translate(-17.144 -91.781)" fill="#fff" stroke="#263238" stroke-linecap="round" stroke-linejoin="round" stroke-width="1"/><path d="M72.7,372.355a105.05,105.05,0,0,0-3.551,23.111c-.715,13.864,5.684,35.546,6.4,39.812s-1.781,20.978-1.781,20.978a120.892,120.892,0,0,0-6.036,12.8c-2.133,5.684-.363,9.246,4.618,9.95s9.246,0,12.083-2.133,4.629-8.169,5.332-9.236,2.848-2.5,2.848-7.465-1.418-16.36-1.418-19.2.7-18.845,1.77-23.825,2.5-20.615,2.5-27.366a158.249,158.249,0,0,0-1.429-17.064S77.676,371.288,72.7,372.355Z" transform="translate(-19.325 -97.544)" fill="#fff" stroke="#263238" stroke-linecap="round" stroke-linejoin="round" stroke-width="1"/><path d="M94.334,377.7c-.32-2.9-.608-4.981-.608-4.981s-16.349-1.429-21.33-.363c0,0-.459,1.514-1.066,4.2a38.235,38.235,0,0,0,9.822,2.613A27.292,27.292,0,0,0,94.334,377.7Z" transform="translate(-19.027 -97.544)" fill="#263238" stroke="#263238" stroke-linecap="round" stroke-linejoin="round" stroke-width="1"/><path d="M89.759,463.068c.715-1.066,2.848-2.5,2.848-7.465,0-2.592-.384-6.9-.757-10.857-2.133,2.677-3.509,1.962-3.509,1.962s-1.418-5.684-6.047-6.036c-3.829-.3-6.676,2.581-7.54,3.573-.491,4.085-.992,7.465-.992,7.465a120.891,120.891,0,0,0-6.036,12.8c-2.133,5.684-.363,9.246,4.618,9.95s9.246,0,12.083-2.133S89.055,464.134,89.759,463.068Z" transform="translate(-19.325 -92.976)" fill="#263238" stroke="#263238" stroke-linecap="round" stroke-linejoin="round" stroke-width="1"/><path d="M92.6,455.7a63.953,63.953,0,0,1-4.575,4.586c-3.562,3.2-3.2,9.246-10.665,10.665a13.608,13.608,0,0,1-10.462-2.6c.245,2.837,2.133,4.607,5.482,5.087,4.981.715,9.246,0,12.083-2.133s4.629-8.169,5.332-9.236S92.272,459.785,92.6,455.7Z" transform="translate(-19.321 -91.976)" fill="#fff" stroke="#263238" stroke-linecap="round" stroke-linejoin="round" stroke-width="1"/><path d="M62.03,248.342l-12.8,6.666S41.5,307.533,41.5,308.6s4.533,3.733,10.4,3.733,13.6-5.066,13.6-5.066,3.466-52.258,3.466-53.858S66.029,243.543,62.03,248.342Z" transform="translate(-21.01 -105.862)" fill="#263238" stroke="#263238" stroke-linecap="round" stroke-linejoin="round" stroke-width="1"/><path d="M61.915,285.069S57.649,320.615,58,327.729s.352,21.33.352,24.881-1.066,18.482.715,20.615,6.751,6.762,17.778,8.532,13.15.715,15.283-.352,7.817-3.2,7.817-3.2,1.429,2.848,14.227,3.551,11.369-.7,14.216-1.77,6.751-2.848,8.532-4.629-2.848-37.679-2.848-41.593,1.066-26.662,1.429-31.995-2.5-9.236-2.5-12.083V278.67s-23.1,8.169-36.613,8.169-34.842-5.332-34.842-5.332Z" transform="translate(-19.914 -103.747)" fill="#fff" stroke="#263238" stroke-linecap="round" stroke-linejoin="round" stroke-width="1"/><path d="M101.4,291s-2.133,9.95-.7,11.017,3.551,2.848,2.485,6.047a44.793,44.793,0,0,1-2.133,5.332" transform="translate(-17.106 -102.927)" fill="none" stroke="#263238" stroke-linecap="round" stroke-linejoin="round" stroke-width="1"/><line x2="11.028" y2="6.036" transform="translate(66.168 209.051)" fill="none" stroke="#263238" stroke-linecap="round" stroke-linejoin="round" stroke-width="1"/><line y1="7.465" x2="9.598" transform="translate(86.079 210.117)" fill="none" stroke="#263238" stroke-linecap="round" stroke-linejoin="round" stroke-width="1"/><path d="M127.238,290.67s-9.6,4.266-14.568,7.1" transform="translate(-16.278 -102.949)" fill="none" stroke="#263238" stroke-linecap="round" stroke-linejoin="round" stroke-width="1"/><path d="M123.424,294.67s-8.532,5.684-12.094,6.4" transform="translate(-16.367 -102.683)" fill="none" stroke="#263238" stroke-linecap="round" stroke-linejoin="round" stroke-width="1"/><path d="M73.358,290.67a12.8,12.8,0,0,1-2.5,8.884A25.671,25.671,0,0,1,62.33,306.3" transform="translate(-19.625 -102.949)" fill="none" stroke="#263238" stroke-linecap="round" stroke-linejoin="round" stroke-width="1"/><path d="M64.2,288.67s-2.848,19.549-2.848,30.214S61,339.5,61,339.5" transform="translate(-19.713 -103.082)" fill="none" stroke="#263238" stroke-linecap="round" stroke-linejoin="round" stroke-width="1"/><path d="M59,335.33s1.418,2.5,10.313,3.914,14.216.352,14.216,2.485a53.38,53.38,0,0,1-1.418,7.828,29.8,29.8,0,0,1-12.094-.715A75.582,75.582,0,0,1,59,344.576" transform="translate(-19.846 -99.98)" fill="none" stroke="#263238" stroke-linecap="round" stroke-linejoin="round" stroke-width="1"/><path d="M82.044,348.67s-1.066,16.7-.715,18.834.352,3.914-3.551,3.562S61.418,365.734,60,363.6" transform="translate(-19.78 -99.093)" fill="none" stroke="#263238" stroke-linecap="round" stroke-linejoin="round" stroke-width="1"/><line x1="3.562" y2="55.458" transform="translate(80.032 219.001)" fill="none" stroke="#263238" stroke-linecap="round" stroke-linejoin="round" stroke-width="1"/><path d="M125.353,345.44S125,364.285,125,366.066s-.352,3.551,2.485,3.551,7.828-1.067,8.18-3.2-2.485-12.8-3.2-14.931a62.471,62.471,0,0,1-1.418-7.817Z" transform="translate(-15.459 -99.425)" fill="#fff" stroke="#263238" stroke-linecap="round" stroke-linejoin="round" stroke-width="1"/><path d="M129.959,337.33l-4.629,2.848v5.684s7.114-.352,7.114-1.77S129.959,337.33,129.959,337.33Z" transform="translate(-15.436 -99.847)" fill="#fff" stroke="#263238" stroke-linecap="round" stroke-linejoin="round" stroke-width="1"/><path d="M84.906,161.983l.533,14.131a15.336,15.336,0,0,1-4.266,1.333c-2.133.267-11.465-.533-19.464,1.333s-11.731,7.2-13.864,9.6-5.6,6.666-8.532,9.065-13.054,9.908-13.054,9.908l5.6,16.755a2.922,2.922,0,0,0,2.133,1.866c1.6.267-.8.533,3.733-1.066s14.12-8.532,14.12-8.532l1.333,3.733,9.6-2.133s0,38.394.267,48.525-.267,22.4-.533,24.263-.533,3.466-.533,3.466,23.2,7.732,31.995,6.666,25.063-2.4,29.6-5.332,15.2-6.4,15.2-6.4-4.533-45.059-4.266-50.125.8-16,.8-16l4-26.929s20.263-10.132,21.063-10.132a18.132,18.132,0,0,0,3.2-.8s-4.533-10.4-7.465-17.864-4.8-9.065-4.8-9.065l-10.4,4c-3.466,1.333-12,4.8-14.131,8a26.2,26.2,0,0,1-5.332,5.6H113.7l.267-10.4Z" transform="translate(-22.023 -111.754)" fill="#8f00fc" stroke="#263238" stroke-linecap="round" stroke-linejoin="round" stroke-width="1"/><path d="M112.091,174s-21.6,32.528-34.128,50.658A322.424,322.424,0,0,0,58.5,257.72l2.666,2.933s23.2-30.128,34.128-50.392a329.448,329.448,0,0,1,22.4-35.728Z" transform="translate(-19.88 -110.707)" fill="#263238" stroke="#263238" stroke-linecap="round" stroke-linejoin="round" stroke-width="1"/><line y1="17.597" x2="2.933" transform="translate(117.274 66.759)" fill="none" stroke="#263238" stroke-linecap="round" stroke-linejoin="round" stroke-width="1"/><line x1="0.373" y2="5.002" transform="translate(113.275 94.019)" fill="none" stroke="#263238" stroke-linecap="round" stroke-linejoin="round" stroke-width="1"/><line x1="1.386" y2="18.408" transform="translate(114.021 70.759)" fill="none" stroke="#263238" stroke-linecap="round" stroke-linejoin="round" stroke-width="1"/><path d="M106.8,204.47c-.565,1.344-1.162,2.688-1.8,4.031" transform="translate(-16.788 -108.681)" fill="#fff" stroke="#263238" stroke-linecap="round" stroke-linejoin="round" stroke-width="1"/><path d="M114.642,178.5a128.822,128.822,0,0,1-6.292,23.271" transform="translate(-16.565 -110.408)" fill="#fff" stroke="#263238" stroke-linecap="round" stroke-linejoin="round" stroke-width="1"/><path d="M101.517,232.1c-.8,1.557-1.632,3.125-2.517,4.693" transform="translate(-17.187 -106.844)" fill="none" stroke="#263238" stroke-linecap="round" stroke-linejoin="round" stroke-width="1"/><path d="M114.746,195.75a157.735,157.735,0,0,1-11.966,35.674" transform="translate(-16.935 -109.261)" fill="none" stroke="#263238" stroke-linecap="round" stroke-linejoin="round" stroke-width="1"/><path d="M93.332,224.75s-8.265,13.6-9.332,16.531" transform="translate(-18.184 -107.332)" fill="none" stroke="#263238" stroke-linecap="round" stroke-linejoin="round" stroke-width="1"/><line y1="3.999" x2="9.598" transform="translate(40.753 102.22)" fill="none" stroke="#263238" stroke-linecap="round" stroke-linejoin="round" stroke-width="1"/><path d="M111.442,175.614h-1.4l.267-10.4L81.25,161.75l.533,14.131s5.6,10.665,15.731,10.932C106.355,187.047,110.525,177.939,111.442,175.614Z" transform="translate(-18.367 -111.521)" fill="#fff" stroke="#263238" stroke-linecap="round" stroke-linejoin="round" stroke-width="1"/><path d="M116.722,136.266s-.853,25.137-.64,29.862-4.266,11.731-8.948,14.931a12.606,12.606,0,0,1-13.63.213c-3.413-2.133-9.6-7.241-10.665-10.43s-1.92-16-1.92-17.682,1.493-9.8,6.4-11.731a22.5,22.5,0,0,0,7.241-4.266l-1.493,3.413s5.108-.427,8.095-2.133A34.513,34.513,0,0,0,106.7,134.4l.213,2.975s3.626,1.066,4.906-.213,2.346-2.133,2.346-2.133Z" transform="translate(-18.389 -113.34)" fill="#fff" stroke="#263238" stroke-linecap="round" stroke-linejoin="round" stroke-width="1"/><path d="M96.638,156.044c0,1.066-.64,2.005-1.429,2.005s-1.429-.9-1.429-2.005.64-1.994,1.429-1.994S96.638,154.946,96.638,156.044Z" transform="translate(-17.534 -112.033)" fill="#263238"/><path d="M110.6,155.124c0,1.066-.64,2.005-1.429,2.005s-1.429-.9-1.429-2.005.64-1.994,1.429-1.994S110.6,153.983,110.6,155.124Z" transform="translate(-16.606 -112.095)" fill="#263238"/><path d="M100.51,164.972c.64.64,4.469,1.28,5.332-.64s-.64-10.441-.64-10.441l1.706-4.042s1.706-2.986,5.546-1.493" transform="translate(-17.086 -112.44)" fill="none" stroke="#263238" stroke-linecap="round" stroke-linejoin="round" stroke-width="1"/><path d="M106.072,168.31s-5.109.213-7.881,1.482-.213,1.706-.213,1.706,6.4,0,7.039-.853S106.5,169.792,106.072,168.31Z" transform="translate(-17.326 -111.085)" fill="none" stroke="#263238" stroke-linecap="round" stroke-linejoin="round" stroke-width="1"/><path d="M98.615,150.756s-5.332-1.28-8.095.64" transform="translate(-17.751 -112.28)" fill="none" stroke="#263238" stroke-linecap="round" stroke-linejoin="round" stroke-width="1"/><path d="M39.314,195.086c-2.933,2.4-13.054,9.908-13.054,9.908l5.6,16.755a2.922,2.922,0,0,0,2.133,1.866c1.6.267-.8.533,3.733-1.066s14.12-8.532,14.12-8.532l-11-20.317A18.21,18.21,0,0,1,39.314,195.086Z" transform="translate(-22.023 -109.397)" fill="none" stroke="#263238" stroke-linecap="round" stroke-linejoin="round" stroke-width="1"/><path d="M162.206,129.421c-13.6-2.133-39.194-1.066-39.194-1.066s-6.666-8.265-8.8-10.4-3.2-3.733-7.2-3.2-8.532,1.066-10.4,1.333-1.866,5.066-1.866,5.066,0,2.666,1.866,3.466,2.666,0,2.666,0l1.333-1.066,4.8.533,1.066,1.856c2.357,1.76,8.041,5.951,10.132,7.21,2.666,1.6,5.6,1.066,9.065,2.133a142.609,142.609,0,0,1,19.2,8.265,79.336,79.336,0,0,1,11.731,8.265l-9.812,9.374c.3.3,2.08,2.229,4.746,9.023,1.248,3.2,2.794,6.9,4.149,10.121,4.7-4.351,14.931-13.864,18.781-19.453,4.8-6.932,14.664-18.664,14.4-20.263S175.8,131.554,162.206,129.421Z" transform="translate(-17.469 -114.653)" fill="#fff" stroke="#263238" stroke-linecap="round" stroke-linejoin="round" stroke-width="1"/><path d="M105.416,117.25s-6.132,2.133-7.465,2.666-3.466-.533-3.2,1.066" transform="translate(-17.471 -114.48)" fill="none" stroke="#263238" stroke-linecap="round" stroke-linejoin="round" stroke-width="1"/><path d="M152.75,149.7s5.066.8,11.2-3.2" transform="translate(-13.613 -112.535)" fill="none" stroke="#263238" stroke-linecap="round" stroke-linejoin="round" stroke-width="1"/><path d="M127.05,127.767l-.8,7.465,4.8,2.133,1.333-9.865Z" transform="translate(-15.375 -113.799)" fill="#263238" stroke="#263238" stroke-linecap="round" stroke-linejoin="round" stroke-width="1"/><rect width="6.751" height="2.698" rx="0.81" transform="matrix(0.998, 0.062, -0.062, 0.998, 110.901, 10.357)" fill="#263238" stroke="#263238" stroke-linecap="round" stroke-linejoin="round" stroke-width="1"/><path d="M70.75,157.382l13.6,19.2,5.066-11.465-12.8-17.864Z" transform="translate(-19.065 -112.486)" fill="#263238" stroke="#263238" stroke-linecap="round" stroke-linejoin="round" stroke-width="1"/><path d="M82.92,167.811s.213,10.441-1.92,14.7-39.354,40.42-44.249,43.406-11.731,2.336-13.214-.427-1.92-12.8.213-16.189S68.907,181.44,71.04,180.161s.853-5.535.64-10.217-.213-8.735.853-10.441,7.241-6.815,8.948-7.668,4.469-2.773,5.109-.853-.427,2.549-.427,2.549,1.28,0,.853,2.346-5.332,6.4-5.332,6.4a58.088,58.088,0,0,0,6.4-3.2c1.066-.853,1.493.853.213,2.773s-5.109,3.829-5.109,3.829Z" transform="translate(-22.288 -112.292)" fill="#fff" stroke="#263238" stroke-linecap="round" stroke-linejoin="round" stroke-width="1"/><path d="M82.837,153.32s-9.6,8.127-9.9,8.852a13.084,13.084,0,0,1-1.45,2.069" transform="translate(-19.016 -112.082)" fill="#fff" stroke="#263238" stroke-linecap="round" stroke-linejoin="round" stroke-width="1"/><path d="M78.735,151.72s-6.73,7.039-7.657,8.532a13.64,13.64,0,0,0-1.237,2.282" transform="translate(-19.126 -112.188)" fill="#fff" stroke="#263238" stroke-linecap="round" stroke-linejoin="round" stroke-width="1"/><path d="M78.189,161.51s-3.466,2.186-3.573,2.912a3.508,3.508,0,0,1-.416,1.248" transform="translate(-18.836 -111.537)" fill="#fff" stroke="#263238" stroke-linecap="round" stroke-linejoin="round" stroke-width="1"/></g><g transform="translate(490.651 1592.58)"><line y2="99.184" transform="translate(51.264 9.065)" fill="none" stroke="#263238" stroke-linecap="round" stroke-linejoin="round" stroke-width="4"/><path d="M240.694,244.065v-2.4A6.666,6.666,0,0,0,234.029,235H212.166a6.666,6.666,0,0,0-6.666,6.666v2.4" transform="translate(-154.236 -235)" fill="none" stroke="#263238" stroke-linecap="round" stroke-linejoin="round" stroke-width="6"/><line y1="97.584" transform="translate(86.458 9.065)" fill="none" stroke="#263238" stroke-linecap="round" stroke-linejoin="round" stroke-width="4"/><circle cx="5.332" cy="5.332" r="5.332" transform="translate(52.331 234.629)" fill="#263238" stroke="#263238" stroke-linecap="round" stroke-linejoin="round" stroke-width="1"/><path d="M211.163,460.546h0a3.583,3.583,0,0,1-3.583-3.594V450.34h7.177v6.612A3.594,3.594,0,0,1,211.163,460.546Z" transform="translate(-154.098 -220.681)" fill="#636363" stroke="#263238" stroke-linecap="round" stroke-linejoin="round" stroke-width="1"/><circle cx="5.332" cy="5.332" r="5.332" transform="translate(11.335 234.629)" fill="#263238" stroke="#263238" stroke-linecap="round" stroke-linejoin="round" stroke-width="1"/><path d="M172.724,460.546h0a3.594,3.594,0,0,1-3.594-3.594V450.34h7.188v6.612a3.594,3.594,0,0,1-3.594,3.594Z" transform="translate(-156.654 -220.681)" fill="#636363" stroke="#263238" stroke-linecap="round" stroke-linejoin="round" stroke-width="1"/><circle cx="5.332" cy="5.332" r="5.332" transform="translate(77.926 234.629)" fill="#263238" stroke="#263238" stroke-linecap="round" stroke-linejoin="round" stroke-width="1"/><path d="M235.163,460.546h0a3.583,3.583,0,0,1-3.583-3.594V450.34h7.177v6.612a3.594,3.594,0,0,1-3.594,3.594Z" transform="translate(-152.502 -220.681)" fill="#636363" stroke="#263238" stroke-linecap="round" stroke-linejoin="round" stroke-width="1"/><circle cx="5.332" cy="5.332" r="5.332" transform="translate(36.397 234.629)" fill="#263238" stroke="#263238" stroke-linecap="round" stroke-linejoin="round" stroke-width="1"/><path d="M196.224,460.546h0a3.594,3.594,0,0,1-3.594-3.594V450.34h7.188v6.612A3.594,3.594,0,0,1,196.224,460.546Z" transform="translate(-155.092 -220.681)" fill="#636363" stroke="#263238" stroke-linecap="round" stroke-linejoin="round" stroke-width="1"/><path d="M217.7,461.645H167.3c-4.351,0-7.86-3.989-7.8-8.852l1.44-113.187c.053-4.767,3.53-8.607,7.8-8.607h47.523c4.266,0,7.743,3.839,7.807,8.607l1.429,113.187C225.559,457.657,222.05,461.645,217.7,461.645Z" transform="translate(-157.295 -228.617)" fill="#8f00fc" stroke="#263238" stroke-linecap="round" stroke-linejoin="round" stroke-width="1"/><path d="M242.887,461.645H208.759c-2.944,0-5.332-3.989-5.279-8.852l.971-113.187c0-4.767,2.389-8.607,5.332-8.607h32.165c2.89,0,5.236,3.839,5.279,8.607l.971,113.187C248.209,457.657,245.831,461.645,242.887,461.645Z" transform="translate(-154.37 -228.617)" fill="#8f00fc" stroke="#263238" stroke-linecap="round" stroke-linejoin="round" stroke-width="1"/><rect width="4.799" height="130.645" transform="translate(70.994 102.383)" fill="#263238" stroke="#263238" stroke-linecap="round" stroke-linejoin="round" stroke-width="1"/><path d="M233.226,332.873c-7.465,1.066-30.4,7.465-46.926,7.465H185c-15.816-.139-26.46-2.9-27.494-11.731-.512-4.383,1.717-8.895,5.908-12.691,4.469-4.042,11.177-7.263,19.2-8.639,15.464-2.666,36.261-4.266,36.261-4.266s20.8-2.133,27.2,8S240.691,331.807,233.226,332.873Z" transform="translate(-157.432 -230.49)" fill="#fff" stroke="#263238" stroke-linecap="round" stroke-linejoin="round" stroke-width="1"/><path d="M218.295,308.084c-4.266,2.666-21.863,3.2-34.661,10.665s-12.8,18.664-.533,20.8a8.15,8.15,0,0,1,1.9.523c-15.816-.139-26.46-2.9-27.494-11.731-.512-4.383,1.717-8.895,5.908-12.691a43.917,43.917,0,0,1,17.064-5.972c20.8-2.666,32.528-2.133,32.528-2.133S222.561,305.418,218.295,308.084Z" transform="translate(-157.432 -230.23)" fill="#fff" stroke="#263238" stroke-linecap="round" stroke-linejoin="round" stroke-width="1"/><path d="M195.43,330.278c15.3-1.92,38.3-4.021,47.534-12.8" transform="translate(-154.906 -229.516)" fill="none" stroke="#263238" stroke-linecap="round" stroke-linejoin="round" stroke-width="1"/><path d="M176,330s1.4,1.866,13.779.363" transform="translate(-156.198 -228.683)" fill="none" stroke="#263238" stroke-linecap="round" stroke-linejoin="round" stroke-width="1"/><path d="M230.3,323a38.677,38.677,0,0,0-4.8,5.866" transform="translate(-152.906 -229.149)" fill="none" stroke="#263238" stroke-linecap="round" stroke-linejoin="round" stroke-width="1"/><path d="M212.066,326.5s.533,3.2-1.066,4.8" transform="translate(-153.87 -228.916)" fill="none" stroke="#263238" stroke-linecap="round" stroke-linejoin="round" stroke-width="1"/><path d="M157.5,327s6.932,5.332,13.331,4.266" transform="translate(-157.428 -228.883)" fill="none" stroke="#263238" stroke-linecap="round" stroke-linejoin="round" stroke-width="1"/></g><rect width="290.875" height="50" rx="10" transform="translate(599.125 1499.5)" fill="#fff" stroke="#0074ff" stroke-width="1"/><text transform="translate(743.125 1530.001)" fill="#0074ff" font-size="16" font-family="Ubuntu-Bold, Ubuntu" font-weight="700"><tspan x="-99.192" y="0">Guia turístico responsável</tspan></text><g transform="translate(619.125 1517)" fill="#fff" stroke="#0074ff" stroke-width="1"><rect width="15" height="15" rx="5" stroke="none"/><rect x="0.5" y="0.5" width="14" height="14" rx="4.5" fill="none"/></g><path d="M5.376,16.149.232,11a.791.791,0,0,1,0-1.119L1.351,8.766a.791.791,0,0,1,1.119,0l3.466,3.466,7.423-7.423a.791.791,0,0,1,1.119,0L15.6,5.928a.791.791,0,0,1,0,1.119l-9.1,9.1A.791.791,0,0,1,5.376,16.149Z" transform="translate(620.727 1513.619)" fill="#00c853"/></g></svg>