<svg xmlns="http://www.w3.org/2000/svg" xmlns:xlink="http://www.w3.org/1999/xlink" width="612" height="461" viewBox="0 0 612 461"><defs><clipPath id="a"><rect width="502" height="461" transform="translate(360 1601)" fill="#fff" stroke="#707070" stroke-width="1"/></clipPath><clipPath id="b"><path d="M122.38,167.54S135.154,155.807,144,157.21c1.476.23-6.109,14.673-6.109,14.673Z" transform="translate(-122.38 -157.094)" fill="#8f00fc" stroke="#263238" stroke-linecap="round" stroke-linejoin="round" stroke-width="1"/></clipPath><clipPath id="c"><path d="M148.117,244.93s-12.991,21.834-8.842,41.127c0,0-4.947,66.263-6.871,70.569s-14.83,23.346-18.8,51.07a343.073,343.073,0,0,1-10.887,49.595h17.273s25.789-81.613,31.075-85.883,15.011-32.817,21.882-58.292c0,0,9.266,45.191,12.955,53.816s.6,33.531,5.879,49.449c5.213,15.725,4.839,40.958,4.839,40.958s17.963,4.451,17.794,0c-1.21-30.8,5.02-57.457-2.685-84.867-3.629-12.8,3.629-87.589-9.6-127.482Z" transform="translate(-102.72 -244.93)" fill="#bfbfbf" stroke="#263238" stroke-linecap="round" stroke-linejoin="round" stroke-width="1"/></clipPath><clipPath id="d"><path d="M101.442,412.588s8.467-3.508,17.092-.339l-.823,10.233,10.512-9.895s-6.617,12.447-4.669,16.257S137.1,434.458,139,436.938s2.516,7.524,2.516,7.524H96.41l4.669-15.616Z" transform="translate(-96.41 -410.924)" fill="#8f00fc" stroke="#263238" stroke-linecap="round" stroke-linejoin="round" stroke-width="1"/></clipPath><clipPath id="e"><path d="M167.475,269.9c-4.742,12.459-50.683,9.592-59.622,2.589-1.972-1.548-3.8-4.536-5.395-8.31a102.031,102.031,0,0,1-6.351-25.112h0c-.278-2.238-.472-4.355-.556-6.254-.206-4.258.1-7.463,1-8.625,3.629-4.609,7.681-9.072,7.681-9.072s-7.064-37.74,0-41.345a59.43,59.43,0,0,1,18.87-7.258c10.209-1.8,27.386-6.883,35.079,3.629a10.076,10.076,0,0,1,1,1.766C166.435,187.278,172.011,257.968,167.475,269.9Z" transform="translate(-95.489 -163.69)" fill="#8f00fc" stroke="#263238" stroke-linecap="round" stroke-linejoin="round" stroke-width="1"/></clipPath></defs><g transform="translate(-360 -3568)"><g transform="translate(0 1967)" clip-path="url(#a)"><g transform="translate(316.901 1526.863)"><g transform="translate(43.098 85.285)"><path d="M223.213,531.293c32.9,20.382,93.468-6.23,116.305-30.664,74.1-79.327,205.3-213.438,176.811-350.113-12.1-58.062-70.569-74.852-94.012-78.105-56.284-7.838-113.584.472-169.117,12.483-58.062,12.556-118.991,30.773-163.3,72.36-16.681,15.7-31.583,34.208-39.325,56.09-7.863,22.233-9.326,46.619-5.322,69.783,6.484,37.377,25.971,71.368,49.679,101.028s51.711,55.425,78.3,82.472C190.553,484.275,195.5,514.068,223.213,531.293Z" transform="translate(-43.098 -69.348)" fill="#8f00fc"/><path d="M223.213,531.293c32.9,20.382,93.468-6.23,116.305-30.664,74.1-79.327,205.3-213.438,176.811-350.113-12.1-58.062-70.569-74.852-94.012-78.105-56.284-7.838-113.584.472-169.117,12.483-58.062,12.556-118.991,30.773-163.3,72.36-16.681,15.7-31.583,34.208-39.325,56.09-7.863,22.233-9.326,46.619-5.322,69.783,6.484,37.377,25.971,71.368,49.679,101.028s51.711,55.425,78.3,82.472C190.553,484.275,195.5,514.068,223.213,531.293Z" transform="translate(-43.098 -69.348)" fill="#fff" opacity="0.7"/></g><g transform="translate(57.108 74.137)"><path d="M76.03,155.173H54.68s2.129-5.286,18.737-3.532c0,0,8.274-9.471,20.334-9.471a10.088,10.088,0,0,1,8.625-8.951c8.238-1.585,9.834,5.758,9.834,5.758a17.951,17.951,0,0,1,14.249,0c8.165,3.218,6.508,12.641,6.508,12.641s23.563-.774,27.616,3.556h-12.1" transform="translate(-54.68 -44.858)" fill="none" stroke="#263238" stroke-linecap="round" stroke-linejoin="round" stroke-width="1"/><line x2="3.568" transform="translate(25.063 110.316)" fill="none" stroke="#263238" stroke-linecap="round" stroke-linejoin="round" stroke-width="1"/><line x2="32.624" transform="translate(48.3 110.255)" fill="none" stroke="#263238" stroke-linecap="round" stroke-linejoin="round" stroke-width="1"/><path d="M228.172,252.95H197s1.826-4.512,15.991-3.012c0,0,7.064-8.08,17.346-8.08a8.637,8.637,0,0,1,7.367-7.645c7.028-1.343,8.395,4.923,8.395,4.923a15.3,15.3,0,0,1,12.157,0c6.967,2.746,5.564,10.79,5.564,10.79s20.1-.665,23.551,3.024h-7.548" transform="translate(-24.846 -23.679)" fill="none" stroke="#263238" stroke-linecap="round" stroke-linejoin="round" stroke-width="1"/><line x2="4.464" transform="translate(210.692 229.04)" fill="none" stroke="#263238" stroke-linecap="round" stroke-linejoin="round" stroke-width="1"/><path d="M226.352,79.048H195.12s1.827-4.512,15.991-3c0,0,7.052-8.092,17.346-8.092a8.613,8.613,0,0,1,7.367-7.633c7.028-1.355,8.395,4.911,8.395,4.911a15.3,15.3,0,0,1,12.1,0c6.967,2.746,5.552,10.79,5.552,10.79s20.116-.665,23.563,3.024h-7.548" transform="translate(-25.24 -60.131)" fill="none" stroke="#263238" stroke-linecap="round" stroke-linejoin="round" stroke-width="1"/><line x2="4.476" transform="translate(208.467 18.687)" fill="none" stroke="#263238" stroke-linecap="round" stroke-linejoin="round" stroke-width="1"/><path d="M153.421,302.318H75.57c5.806-6.205,39.651-5.1,39.651-5.1s-2.419-13.524,9.362-18.144,20.467,0,20.467,0,2.3-10.548,14.128-8.274,12.4,12.858,12.4,12.858c17.334,0,29.212,13.62,29.212,13.62,23.854-2.54,26.926,5.056,26.926,5.056h-8.7" transform="translate(-50.301 -16.039)" fill="none" stroke="#263238" stroke-linecap="round" stroke-linejoin="round" stroke-width="1"/><line x1="3.302" transform="translate(158.896 286.28)" fill="none" stroke="#263238" stroke-linecap="round" stroke-linejoin="round" stroke-width="1"/><line x2="11.37" transform="translate(116.596 286.28)" fill="none" stroke="#263238" stroke-linecap="round" stroke-linejoin="round" stroke-width="1"/></g><g transform="translate(106.471 123.094)"><path d="M122.38,167.54S135.154,155.807,144,157.21c1.476.23-6.109,14.673-6.109,14.673Z" transform="translate(-89.852 -88.764)" fill="#8f00fc"/><g transform="translate(32.528 68.33)" clip-path="url(#b)"><path d="M122.38,167.54S135.154,155.807,144,157.21c1.476.23-6.109,14.673-6.109,14.673Z" transform="translate(-122.38 -157.094)" fill="rgba(0,0,0,0.7)" opacity="0.5"/></g><path d="M122.38,167.54S135.154,155.807,144,157.21c1.476.23-6.109,14.673-6.109,14.673Z" transform="translate(-89.852 -88.764)" fill="none" stroke="#263238" stroke-linecap="round" stroke-linejoin="round" stroke-width="1"/><path d="M220.426,207.85s.484,38.442,1.911,44.853a55.523,55.523,0,0,0,5.746,13.572s-4.161,84.226-2.806,88.121,7.113,30.555,7.113,30.555l6.7,102.08h-2.419s-9.121-96.347-9.121-99.2-7.173-27.967-7.173-27.967-.956-83.537,0-88.3-5.613-17.358-5.613-17.358.085-38.635-1.935-42.47C212.878,211.721,217.076,208.285,220.426,207.85Z" transform="translate(-70.892 -78.124)" fill="#757575" stroke="#263238" stroke-linecap="round" stroke-linejoin="round" stroke-width="1"/><path d="M148.117,244.93s-12.991,21.834-8.842,41.127c0,0-4.947,66.263-6.871,70.569s-14.83,23.346-18.8,51.07a343.073,343.073,0,0,1-10.887,49.595h17.273s25.789-81.613,31.075-85.883,15.011-32.817,21.882-58.292c0,0,9.266,45.191,12.955,53.816s.6,33.531,5.879,49.449c5.213,15.725,4.839,40.958,4.839,40.958s17.963,4.451,17.794,0c-1.21-30.8,5.02-57.457-2.685-84.867-3.629-12.8,3.629-87.589-9.6-127.482Z" transform="translate(-93.973 -70.351)" fill="#bfbfbf"/><g transform="translate(8.747 174.579)" clip-path="url(#c)"><path d="M172.567,303.168c0,.871.133,3.072.29,5.806-6.871,25.4-16.523,53.586-21.773,57.868s-31.075,85.883-31.075,85.883H102.76a343.075,343.075,0,0,0,10.887-49.595c3.931-27.725,16.935-46.716,18.8-51.034s6.822-70.461,6.822-70.461a43.219,43.219,0,0,1-.29-15.217c.919,6.568,4.839,14.721,18.144,16.826a17.624,17.624,0,0,1,2.129-15.193s-2.577,13.584,8.334,19.947c.484.278.327,2.2.327,2.2S172.519,300.011,172.567,303.168Z" transform="translate(-102.712 -240.425)" fill="rgba(0,0,0,0.7)" opacity="0.3"/><path d="M197.42,250.46c-4.415,2.673-13.983,5.794-34.353,4.972a34.91,34.91,0,0,0-8.286,9.895l-1.947-1.548s-9.326,5.31-19.463,2.71a81.227,81.227,0,0,1,8.322-21.568h54.131C196.367,246.7,196.912,248.549,197.42,250.46Z" transform="translate(-96.295 -244.932)" fill="rgba(0,0,0,0.7)" opacity="0.3"/></g><path d="M148.117,244.93s-12.991,21.834-8.842,41.127c0,0-4.947,66.263-6.871,70.569s-14.83,23.346-18.8,51.07a343.073,343.073,0,0,1-10.887,49.595h17.273s25.789-81.613,31.075-85.883,15.011-32.817,21.882-58.292c0,0,9.266,45.191,12.955,53.816s.6,33.531,5.879,49.449c5.213,15.725,4.839,40.958,4.839,40.958s17.963,4.451,17.794,0c-1.21-30.8,5.02-57.457-2.685-84.867-3.629-12.8,3.629-87.589-9.6-127.482Z" transform="translate(-93.973 -70.351)" fill="none" stroke="#263238" stroke-linecap="round" stroke-linejoin="round" stroke-width="1"/><path d="M152.9,259.05s-8.951,17.092.786,27.253c0,0,12.3,11.552,25.571,8.782" transform="translate(-84.241 -67.391)" fill="none" stroke="#263238" stroke-linecap="round" stroke-linejoin="round" stroke-width="1"/><path d="M164.665,304.436s-1.21-9.314-3.52-13.306-1.536-5.08-1.536-5.08-10.475,3.23-17.249.762" transform="translate(-85.664 -61.731)" fill="none" stroke="#263238" stroke-linecap="round" stroke-linejoin="round" stroke-width="1"/><path d="M132.94,279a23.261,23.261,0,0,0,17.854,6.254" transform="translate(-87.638 -63.209)" fill="none" stroke="#263238" stroke-linecap="round" stroke-linejoin="round" stroke-width="1"/><path d="M152.25,171.172c.968-.4,49.244-4,51.651-8.975a59.272,59.272,0,0,1-5.3-14.237,109.325,109.325,0,0,0-14.358-32.176l12.1-2.214c7.258,20.394,24.386,38.49,24.084,57.409,0,0-26.128,17.769-52.727,20.66C160.04,192.45,152.25,171.172,152.25,171.172Z" transform="translate(-83.591 -97.887)" fill="#fff" stroke="#263238" stroke-linecap="round" stroke-linejoin="round" stroke-width="1"/><path d="M170.853,154.033a7.512,7.512,0,0,0-4.742.907c-4.911,2.976-4.016,11.854-4.016,11.854l-21.846-4.161c4.766-6.931,3.544-22.838,3.544-22.838,20.467-19.185,25.4-1.609,26.612,8.467A52.673,52.673,0,0,1,170.853,154.033Z" transform="translate(-86.106 -94.187)" fill="#fff" stroke="#263238" stroke-linecap="round" stroke-linejoin="round" stroke-width="1"/><path d="M166.931,151.583a7.512,7.512,0,0,0-4.742.907,23.8,23.8,0,0,1-3.23-9.58l7.56,2.915C166.859,148.656,166.919,150.893,166.931,151.583Z" transform="translate(-82.184 -91.737)" fill="#263238"/><path d="M133.8,113.469s-1.863-10.887,16.427-12.556,35.079,3.375,35.079,16.7-11.032,40.861-32.986,28.6S133.8,113.469,133.8,113.469Z" transform="translate(-87.498 -100.605)" fill="#263238"/><path d="M144.09,146.92c-1.887-2.419-6.871-11.1-7.669-14.419-4.935-20.382,6.217-21.858,14.515-25.983,15.786-7.826,30.144,8.044,28.91,22.172s5.431,12.459,5.129,14.407c-.254,1.645-4.488,3.314-4.488,3.314a21.131,21.131,0,0,0,.109,3.629l-1.04.956c-.544,2.685-1.778,9.459-2.661,9.677-1.766.532-11.673-2.927-13.306-6.592" transform="translate(-87.164 -99.8)" fill="#fff" stroke="#263238" stroke-linecap="round" stroke-linejoin="round" stroke-width="1"/><path d="M171.217,129.767c-.145,1.028-.726,1.79-1.294,1.718s-.931-.98-.8-2.008.726-1.79,1.306-1.706S171.4,128.739,171.217,129.767Z" transform="translate(-80.059 -94.912)" fill="#263238"/><path d="M172.406,122.784s-2.637-.448-5.286,2.419" transform="translate(-80.474 -95.961)" fill="none" stroke="#263238" stroke-linecap="round" stroke-linejoin="round" stroke-width="1"/><path d="M174.24,106.969c-7.258-5.552-47.756-11.262-41.03,20.745-.9,3.968,1.827,10.657,10.887,21.507,0,0,4.391-3.435,9.1-.484,0,0,2.843-8.806,7.742-10.8a7.6,7.6,0,0,0,2.746-2.044c12.967-3.242,14.612-15.544,14.443-19.85C178.9,114.868,180.289,111.541,174.24,106.969Z" transform="translate(-87.739 -100.177)" fill="#263238"/><path d="M145.826,108.256s-10.548-11.854-23.479-5.238-9.471,25.1-2.31,35.079-1.621,18.023,1.149,23.455,8.613,3.193,8.613,3.193a7.258,7.258,0,0,1-3.46-5.48c-.472-3.919,7.391-5.77,7.391-16.862s-2.54-21.023,6.7-16.4S145.826,108.256,145.826,108.256Z" transform="translate(-91.682 -100.52)" fill="#263238"/><path d="M172.878,143.141s-4.04.206-5.758-1.391" transform="translate(-80.474 -91.98)" fill="none" stroke="#263238" stroke-linecap="round" stroke-linejoin="round" stroke-width="1"/><g transform="translate(24.39 3.441)" opacity="0.2"><path d="M140.47,107s6.29,8.032-1.27,14.685" transform="translate(-110.716 -102.706)" fill="none" stroke="#fff" stroke-linecap="round" stroke-linejoin="round" stroke-width="1"/><path d="M168.677,106.22s9.677,10.56-9.677,22.39" transform="translate(-106.566 -102.869)" fill="none" stroke="#fff" stroke-linecap="round" stroke-linejoin="round" stroke-width="1"/><path d="M168.547,104.69s3.774,3.629-4.839,10.754-15.048,8.975-21.4,8.649" transform="translate(-110.064 -103.19)" fill="none" stroke="#fff" stroke-linecap="round" stroke-linejoin="round" stroke-width="1"/><path d="M141.43,113.012s-5.576-9.072-14.419-2.855-6.931,14.782-2.153,24.616,1.536,16.294,1.536,16.294" transform="translate(-114.567 -102.5)" fill="none" stroke="#fff" stroke-linecap="round" stroke-linejoin="round" stroke-width="1"/><path d="M125.75,103.45s-10.887.315-10.052,14.515,5.9,14.116,7.016,20.963" transform="translate(-115.652 -103.45)" fill="none" stroke="#fff" stroke-linecap="round" stroke-linejoin="round" stroke-width="1"/><path d="M151,131.262s-10.887,2.419-14.975-6.532" transform="translate(-111.383 -98.989)" fill="none" stroke="#fff" stroke-linecap="round" stroke-linejoin="round" stroke-width="1"/></g><path d="M158.589,132.079s-1.79-6.532-6.532-4.33-.593,8.467,1.754,11.443a2.976,2.976,0,0,0,5.371-.823" transform="translate(-84.087 -95.01)" fill="#fff" stroke="#263238" stroke-linecap="round" stroke-linejoin="round" stroke-width="1"/><path d="M140.75,154.589l-.508,3.689c-18.664,17.455-6.338,58.473,5.383,84.674l-7.488,23.66s31.934,10.633,61.038,2.31l-2.782-27.785-3.23-21.7s2.661-7.391,3.181-21.773S169.781,146.508,140.75,154.589Z" transform="translate(-88.118 -89.529)" fill="#263238"/><path d="M186.052,120.058s-4.838,2.589-6.907,1.887c0,0-10.415.593-10.705-3.81a13.753,13.753,0,0,0,8.915-5.661c1.742-2.419,16.765-2.419,15.882,2.6a5.322,5.322,0,0,1-2.831,3.8" transform="translate(-80.197 -98.448)" fill="#fff" stroke="#263238" stroke-linecap="round" stroke-linejoin="round" stroke-width="1"/><path d="M175.8,112.211c2.141-.339,1.089.75,2.613.641s1.657-1.089,2.77.363,2.347,0,3.5.484" transform="translate(-78.654 -98.186)" fill="#fff" stroke="#263238" stroke-linecap="round" stroke-linejoin="round" stroke-width="1"/><path d="M177.28,120.866c.145-1.21,4.391-3.5,5.5-5" transform="translate(-78.344 -97.405)" fill="#fff" stroke="#263238" stroke-linecap="round" stroke-linejoin="round" stroke-width="1"/><path d="M174.355,120.9c-1.318-1.6,1.73-2.322,4.645-5.177" transform="translate(-79.023 -97.437)" fill="#fff" stroke="#263238" stroke-linecap="round" stroke-linejoin="round" stroke-width="1"/><path d="M171.544,120.557c-1.645-1.633-.956-2.214,1.621-3.411a9.254,9.254,0,0,0,3.629-2.746" transform="translate(-79.733 -97.713)" fill="#fff" stroke="#263238" stroke-linecap="round" stroke-linejoin="round" stroke-width="1"/><path d="M174.91,412.588s10.8-3.508,19.427-.339l2.685,10.233,5.818-9.895s-1.948,12.447,0,16.257,13.548,5.613,15.447,8.092,2.516,7.524,2.516,7.524H175.72l3.508-15.616Z" transform="translate(-78.841 -35.555)" fill="#8f00fc" stroke="#263238" stroke-linecap="round" stroke-linejoin="round" stroke-width="1"/><path d="M101.442,412.588s8.467-3.508,17.092-.339l-.823,10.233,10.512-9.895s-6.617,12.447-4.669,16.257S137.1,434.458,139,436.938s2.516,7.524,2.516,7.524H96.41l4.669-15.616Z" transform="translate(-95.296 -35.555)" fill="#8f00fc"/><g transform="translate(1.114 375.369)" clip-path="url(#d)"><path d="M101.442,412.588s8.467-3.508,17.092-.339l-.823,10.233,10.512-9.895s-6.617,12.447-4.669,16.257S137.1,434.458,139,436.938s2.516,7.524,2.516,7.524H96.41l4.669-15.616Z" transform="translate(-96.41 -410.924)" fill="rgba(0,0,0,0.7)" opacity="0.3"/></g><path d="M101.442,412.588s8.467-3.508,17.092-.339l-.823,10.233,10.512-9.895s-6.617,12.447-4.669,16.257S137.1,434.458,139,436.938s2.516,7.524,2.516,7.524H96.41l4.669-15.616Z" transform="translate(-95.296 -35.555)" fill="none" stroke="#263238" stroke-linecap="round" stroke-linejoin="round" stroke-width="1"/><path d="M175.59,222.746s6.52-8.721,7.681-13.6l1.343,4.234s-3.447,9.677-9.024,14.7Z" transform="translate(-78.698 -77.852)" fill="#bfbfbf" stroke="#263238" stroke-linecap="round" stroke-linejoin="round" stroke-width="1"/><path d="M154.21,224.9s9.121,3.435,15.58,1.282a30.047,30.047,0,0,0,11.225-7.415l2.1,3.822s-14.576,25.4-28.91,21.555" transform="translate(-83.18 -75.835)" fill="#8f00fc" stroke="#263238" stroke-linecap="round" stroke-linejoin="round" stroke-width="1"/><path d="M167.475,269.9c-4.742,12.459-50.683,9.592-59.622,2.589-1.972-1.548-3.8-4.536-5.395-8.31a102.031,102.031,0,0,1-6.351-25.112h0c-.278-2.238-.472-4.355-.556-6.254-.206-4.258.1-7.463,1-8.625,3.629-4.609,7.681-9.072,7.681-9.072s-7.064-37.74,0-41.345a59.43,59.43,0,0,1,18.87-7.258c10.209-1.8,27.386-6.883,35.079,3.629a10.076,10.076,0,0,1,1,1.766C166.435,187.278,172.011,257.968,167.475,269.9Z" transform="translate(-95.489 -87.381)" fill="#8f00fc"/><g transform="translate(0 76.309)" clip-path="url(#e)"><path d="M167.624,268.472c-4.742,12.459-50.683,9.592-59.622,2.589-1.972-1.548-3.8-4.536-5.395-8.31-2.516-8.6-4.838-18.531-6.29-25.112h0c-.907-4.149-1.488-6.955-1.536-7.258a2.7,2.7,0,0,0,.98,1c2.165,1.548,8.988,4.439,30.241,5.842,0,0-15.459,4.294-27.579-1.016,0,0,4.149,25.015,8.613,29.95s24.725,9.1,29.515,6.387,1.536-28.136,2.528-30.737,4.838-4.766,5.044-5.6,1.04-13.04,1.04-13.04-29.829-6.121-38.127-5.891,3.508-5.673,11.806-4.718,24.882,4.488,25.281,4.718-3.447-36.482-7.742-41.974,5.419-5.25,7.742,3.484c2.226,8.467,7.8,39.192,8.2,41.309-.1-1.681-1.21-19.717-2.347-26.442-1.149-7.052-1.04-16.342.181-17.3s7.391-3.4,7.971-4.73a3.629,3.629,0,0,1,1.21-1.149C166.583,185.854,172.16,256.545,167.624,268.472Z" transform="translate(-95.638 -162.266)" fill="rgba(0,0,0,0.7)" opacity="0.3"/></g><path d="M167.475,269.9c-4.742,12.459-50.683,9.592-59.622,2.589-1.972-1.548-3.8-4.536-5.395-8.31a102.031,102.031,0,0,1-6.351-25.112h0c-.278-2.238-.472-4.355-.556-6.254-.206-4.258.1-7.463,1-8.625,3.629-4.609,7.681-9.072,7.681-9.072s-7.064-37.74,0-41.345a59.43,59.43,0,0,1,18.87-7.258c10.209-1.8,27.386-6.883,35.079,3.629a10.076,10.076,0,0,1,1,1.766C166.435,187.278,172.011,257.968,167.475,269.9Z" transform="translate(-95.489 -87.381)" fill="none" stroke="#263238" stroke-linecap="round" stroke-linejoin="round" stroke-width="1"/><path d="M139.3,166.442a23.176,23.176,0,0,0-11.2-5.02c-6.689-.956-12.435,8.129-12.435,8.129h3.109s4.306-8.371,12.919-.956" transform="translate(-91.261 -87.871)" fill="#8f00fc" stroke="#263238" stroke-linecap="round" stroke-linejoin="round" stroke-width="1"/><path d="M109.261,170.937s17.709-1.439,23.455,3.109,8.77,41.587,8.77,41.587-26.515-7.367-34.136-3.544" transform="translate(-93.003 -85.907)" fill="none" stroke="#263238" stroke-linecap="round" stroke-linejoin="round" stroke-width="1"/><path d="M104.878,202.209s-4.838-16.935-1.96-21.289,21.108-3.629,24.459,0,3.629,23.926,3.629,23.926-15.556-3.484-22.487-2.419" transform="translate(-94.123 -84.398)" fill="none" stroke="#263238" stroke-linecap="round" stroke-linejoin="round" stroke-width="1"/><path d="M97.26,221.93c.956,1.21,34.547,7.185,40.365,3.351" transform="translate(-95.118 -75.173)" fill="none" stroke="#263238" stroke-linecap="round" stroke-linejoin="round" stroke-width="1"/><path d="M98.45,217.145c2.419-1.911,26.612,2.867,31.583,3.1s13.838-5.262,14.358-6.242c0,0,6.617,36.131,4.621,43.075s-7.5,8.129-7.5,8.129" transform="translate(-94.868 -76.835)" fill="none" stroke="#263238" stroke-linecap="round" stroke-linejoin="round" stroke-width="1"/><path d="M103.59,247.65s1.439,8.129,31.112,10.524" transform="translate(-93.791 -69.781)" fill="none" stroke="#263238" stroke-linecap="round" stroke-linejoin="round" stroke-width="1"/><path d="M143.428,223.311c1.21-.484,9.786-1.391,12.919-3.351a89.806,89.806,0,0,1-.036,12.145s-9.326,3.629-11.008,2.879S142.98,229,142.98,229" transform="translate(-85.534 -75.586)" fill="none" stroke="#263238" stroke-linecap="round" stroke-linejoin="round" stroke-width="1"/><path d="M155.109,230.46s.786,15.4,0,17.5-9.157,5.2-10.112,4.959-2.637-15.072-2.637-15.072" transform="translate(-85.664 -73.384)" fill="none" stroke="#263238" stroke-linecap="round" stroke-linejoin="round" stroke-width="1"/><path d="M127.26,169.32s8.7,0,11.806,5.746,6.6,38.9,7.258,40.861" transform="translate(-88.829 -86.201)" fill="none" stroke="#263238" stroke-linecap="round" stroke-linejoin="round" stroke-width="1"/><path d="M140.25,167.381s19.354-10.62,29.479-7.342,14.213,13.511,14.213,13.511-3.46-9.556-13.088-8.939-23.5,10.185-23.5,10.185" transform="translate(-86.106 -88.278)" fill="#8f00fc" stroke="#263238" stroke-linecap="round" stroke-linejoin="round" stroke-width="1"/><path d="M167.4,163.681s10.887-.907,14.225,4.2,0,18.374,0,18.374,2.867,3.387-2.081,5.83-18.241,3.774-21.4-1.04S156.683,165.689,167.4,163.681Z" transform="translate(-82.652 -87.396)" fill="#263238"/><path d="M181.027,183.534s-11.516,41.623-7.742,45.687a65.55,65.55,0,0,1,14.358,2.419c21.616,5.5,33.869,1.512,33.869,1.512l-2.3,12.036c-21.652-.569-42.591,3.363-60.106-3.774,0,0-7.125-30.773-.194-56.622,0,0,2.008-2.589,7.959-3.363a24.12,24.12,0,0,1,14.153,2.1Z" transform="translate(-82.829 -83.722)" fill="#fff" stroke="#263238" stroke-linecap="round" stroke-linejoin="round" stroke-width="1"/><path d="M207.7,237.649c4.113,2.7,10.064-1.536,15.568-1.016s2.843-15.241,2.843-15.241-6.883-3.29-8.9-4.028-5.032,3.822-11.395,9.677" transform="translate(-72.363 -76.146)" fill="#fff" stroke="#263238" stroke-linecap="round" stroke-linejoin="round" stroke-width="1"/><path d="M140.88,157.347a56.162,56.162,0,0,1,18.144,1.367" transform="translate(-85.974 -88.756)" fill="none" stroke="#fff" stroke-linecap="round" stroke-linejoin="round" stroke-width="1"/><path d="M158.388,187.825s-1.863-2.722,0-4.028c0,0-5.419-4.173-4.645-8.467" transform="translate(-83.293 -84.941)" fill="none" stroke="#fff" stroke-linecap="round" stroke-linejoin="round" stroke-width="1"/><path d="M178.995,177.94l-.52,5.31s2.673,1.706-2.1,4.028" transform="translate(-78.534 -84.394)" fill="none" stroke="#fff" stroke-linecap="round" stroke-linejoin="round" stroke-width="1"/><path d="M181.972,209.15s-5.734,4.343-9.012,3.629" transform="translate(-79.249 -77.852)" fill="none" stroke="#fff" stroke-linecap="round" stroke-linejoin="round" stroke-width="1"/><path d="M160.82,243.76s13.717,7.971,28.233,4.705" transform="translate(-81.794 -70.596)" fill="none" stroke="#fff" stroke-linecap="round" stroke-linejoin="round" stroke-width="1"/><path d="M216.6,221.93a51.419,51.419,0,0,1,7.645,1.621" transform="translate(-70.101 -75.173)" fill="none" stroke="#263238" stroke-linecap="round" stroke-linejoin="round" stroke-width="1"/><path d="M216.6,226.08s6.205,0,7.887.181" transform="translate(-70.101 -74.303)" fill="none" stroke="#263238" stroke-linecap="round" stroke-linejoin="round" stroke-width="1"/><path d="M216.6,229.435s7.8-.23,7.645.556" transform="translate(-70.101 -73.606)" fill="none" stroke="#263238" stroke-linecap="round" stroke-linejoin="round" stroke-width="1"/><path d="M99.64,434.228s12.169-1.21,18.64,1.427" transform="translate(-94.619 -30.728)" fill="none" stroke="#263238" stroke-linecap="round" stroke-linejoin="round" stroke-width="1"/><path d="M102,424.909s6.7-1.548,10.294,0" transform="translate(-94.124 -32.768)" fill="none" stroke="#263238" stroke-linecap="round" stroke-linejoin="round" stroke-width="1"/><path d="M118.85,425.74s1.645,3.024,1.21,5.177" transform="translate(-90.592 -32.449)" fill="none" stroke="#263238" stroke-linecap="round" stroke-linejoin="round" stroke-width="1"/><path d="M133.142,432.43a44.467,44.467,0,0,1-8.782,0" transform="translate(-89.437 -31.047)" fill="none" stroke="#263238" stroke-linecap="round" stroke-linejoin="round" stroke-width="1"/><path d="M198,425.74s4.451,5.177,4.451,6.617" transform="translate(-74 -32.449)" fill="none" stroke="#263238" stroke-linecap="round" stroke-linejoin="round" stroke-width="1"/><path d="M211.907,432.43a22.26,22.26,0,0,1-6.447.242" transform="translate(-72.437 -31.047)" fill="none" stroke="#263238" stroke-linecap="round" stroke-linejoin="round" stroke-width="1"/><path d="M178.16,435.526s13.632-2.153,21.773,0" transform="translate(-78.159 -30.598)" fill="none" stroke="#263238" stroke-linecap="round" stroke-linejoin="round" stroke-width="1"/><path d="M180.93,426s6.7.206,9.58-1.488" transform="translate(-77.579 -32.707)" fill="none" stroke="#263238" stroke-linecap="round" stroke-linejoin="round" stroke-width="1"/><path d="M164.213,295.32s-7.367,44.345-16.935,54.868c0,0-12.435,34.39-17.382,43.546s-11.056,38.514-11.056,38.514" transform="translate(-90.594 -59.788)" fill="none" stroke="#263238" stroke-linecap="round" stroke-linejoin="round" stroke-width="1"/><path d="M127.26,337.811s4.548-6.629,9.677,0" transform="translate(-88.829 -51.499)" fill="none" stroke="#263238" stroke-linecap="round" stroke-linejoin="round" stroke-width="1"/><path d="M175.16,344.019s2.2-11.685,11.77-2.117" transform="translate(-78.788 -50.813)" fill="none" stroke="#263238" stroke-linecap="round" stroke-linejoin="round" stroke-width="1"/><path d="M184.89,253s5.661,24.338,4.705,37.764c0,0,3.193,50.236,2.238,64.207" transform="translate(-76.748 -68.66)" fill="none" stroke="#263238" stroke-linecap="round" stroke-linejoin="round" stroke-width="1"/><path d="M195,153.77s5.939,2.988,9.447.327" transform="translate(-74.629 -89.46)" fill="none" stroke="#263238" stroke-linecap="round" stroke-linejoin="round" stroke-width="1"/></g><g transform="translate(293.178 354.538)"><path d="M375.541,427.51s-2.54-26.733,2.625-51.482-4.839-27.676-8.975-20.89-5.48,29.261-5.48,29.261-2.081-22.777-5.661-34.39c-5.25-17.019-10.887-29.987-18.374-26.152-8.7,4.427,11.516,35.079,15.5,70.957,0,0-16.282-16.765-24.084-32.394s-17.273-6.133-10.318,7.863,23.527,19.112,32.66,33.954c0,0-22.8-13.6-27.41-5.359-2.6,4.645,6.677,5.625,10.814,6.629,20.1,4.839,29.418,25.729,29.418,25.729Z" transform="translate(-235.479 -285.391)" fill="#8f00fc" stroke="#263238" stroke-linecap="round" stroke-linejoin="round" stroke-width="1"/><path d="M375.541,427.51s-2.54-26.733,2.625-51.482-4.839-27.676-8.975-20.89-5.48,29.261-5.48,29.261-2.081-22.777-5.661-34.39c-5.25-17.019-10.887-29.987-18.374-26.152-8.7,4.427,11.516,35.079,15.5,70.957,0,0-16.282-16.765-24.084-32.394s-17.273-6.133-10.318,7.863,23.527,19.112,32.66,33.954c0,0-22.8-13.6-27.41-5.359-2.6,4.645,6.677,5.625,10.814,6.629,20.1,4.839,29.418,25.729,29.418,25.729Z" transform="translate(-235.479 -285.391)" fill="rgba(0,0,0,0.7)" stroke="#263238" stroke-miterlimit="10" stroke-width="1" opacity="0.2"/><path d="M366.852,399.089s1.343-24.35-7.536-44.526-.956-21.773,3.8-16.7S371.5,369.03,371.5,369.03s4.173-23.394,2.274-39.579-1.766-25.281,4.9-25.281c8.467,0,6.52,39.6-.363,63.336,0,0,10.887-17.249,14.685-31.995s13.62-8.358,10.209,4.838-16.6,20.564-21.7,34.873c0,0,16.935-15.725,22.414-9.532,3.06,3.5-4.681,6.048-8.032,7.609-16.269,7.79-20.443,27.277-20.443,27.277Z" transform="translate(-227.734 -289.376)" fill="#8f00fc" stroke="#263238" stroke-linecap="round" stroke-linejoin="round" stroke-width="1"/><path d="M362.33,349.905c7.548,17.019,7.983,41.853,7.983,41.853s9.919-49.341,7.427-70.158" transform="translate(-226.259 -285.723)" fill="none" stroke="#263238" stroke-linecap="round" stroke-linejoin="round" stroke-width="1"/><path d="M392.977,336.91s-11.08,23.37-21.217,32.333" transform="translate(-224.283 -282.513)" fill="none" stroke="#263238" stroke-linecap="round" stroke-linejoin="round" stroke-width="1"/><path d="M393.342,357.73s-18.725,12.1-23.322,19.427" transform="translate(-224.647 -278.149)" fill="none" stroke="#263238" stroke-linecap="round" stroke-linejoin="round" stroke-width="1"/><path d="M363.608,420.178s-14.3-19.7-17.709-41.478-10.947-18.81-12.229-12,9.786,30.749,9.786,30.749-16.161-17.54-23.237-32.128-12.169-22.233-17.781-18.628c-7.161,4.6,15.907,36.845,34.523,53.09,0,0-18.447-8.649-29.636-18.979s-15.979.327-6.048,9.592,25.076,8.322,37.111,17.612c0,0-22.789-4.052-24.011,4.089-.689,4.6,7.173,2.528,10.887,2.068,17.89-2.238,31.922,11.9,31.922,11.9Z" transform="translate(-240.19 -280.648)" fill="#8f00fc" stroke="#263238" stroke-linecap="round" stroke-linejoin="round" stroke-width="1"/><path d="M338.531,376.929c2.855,18.41,15.907,39.531,15.907,39.531s-35.006-36.144-44.127-54.989" transform="translate(-237.164 -277.365)" fill="none" stroke="#263238" stroke-linecap="round" stroke-linejoin="round" stroke-width="1"/><path d="M306.59,382s21.943,13.681,35.321,15.725" transform="translate(-237.944 -273.061)" fill="none" stroke="#263238" stroke-linecap="round" stroke-linejoin="round" stroke-width="1"/><path d="M317.84,399.54s22.257,0,30.107,3.75" transform="translate(-235.586 -269.384)" fill="none" stroke="#263238" stroke-linecap="round" stroke-linejoin="round" stroke-width="1"/><path d="M394.92,337.25s18.217,1.439,18.967,14.878C413.887,352.128,395.452,360.608,394.92,337.25Z" transform="translate(-219.428 -282.442)" fill="#8f00fc" stroke="#263238" stroke-linecap="round" stroke-linejoin="round" stroke-width="1"/><path d="M424.7,341.51s10.173-13.753,26.612-6.7C451.312,334.821,441.272,351.453,424.7,341.51Z" transform="translate(-213.185 -283.375)" fill="#8f00fc" stroke="#263238" stroke-linecap="round" stroke-linejoin="round" stroke-width="1"/><path d="M449.216,304.111s2.964,26.479-21.156,19.221C428.06,323.331,435.7,303.832,449.216,304.111Z" transform="translate(-212.481 -289.389)" fill="#8f00fc" stroke="#263238" stroke-linecap="round" stroke-linejoin="round" stroke-width="1"/><path d="M421.572,291.94s19.052,10.27,5.044,25.85C426.616,317.79,413.262,306.661,421.572,291.94Z" transform="translate(-214.412 -291.94)" fill="#8f00fc" stroke="#263238" stroke-linecap="round" stroke-linejoin="round" stroke-width="1"/><path d="M401.73,311.492s20.709-2.093,20.709,17.08C422.439,328.572,401.73,329.394,401.73,311.492Z" transform="translate(-218 -287.856)" fill="#8f00fc" stroke="#263238" stroke-linecap="round" stroke-linejoin="round" stroke-width="1"/><path d="M418.616,387.619s-9.435-19.814-.375-40,12.1-37.172,7.391-49.147" transform="translate(-215.363 -290.571)" fill="none" stroke="#263238" stroke-linecap="round" stroke-linejoin="round" stroke-width="1"/><path d="M407.35,315.74s12.411,4.935,16.632,17.721" transform="translate(-216.822 -286.951)" fill="none" stroke="#263238" stroke-linecap="round" stroke-linejoin="round" stroke-width="1"/><path d="M443.494,312.86s-7.173,9.774-19.354,8.721" transform="translate(-213.303 -287.555)" fill="none" stroke="#263238" stroke-linecap="round" stroke-linejoin="round" stroke-width="1"/><path d="M444.961,336.79s-19.874,5.734-27.821,3.859" transform="translate(-214.77 -282.538)" fill="none" stroke="#263238" stroke-linecap="round" stroke-linejoin="round" stroke-width="1"/><path d="M399.83,342.25s8.879,9.75,17.818,9.592" transform="translate(-218.399 -281.394)" fill="none" stroke="#263238" stroke-linecap="round" stroke-linejoin="round" stroke-width="1"/><path d="M301.679,394.3s-15.822,3.871-14.515,15.81C287.1,410.11,304.558,414.948,301.679,394.3Z" transform="translate(-242.032 -270.483)" fill="#8f00fc" stroke="#263238" stroke-linecap="round" stroke-linejoin="round" stroke-width="1"/><path d="M277.546,401.94s-10.887-10.657-24.386-2.093C253.16,399.823,264.373,413.032,277.546,401.94Z" transform="translate(-249.144 -270.018)" fill="#8f00fc" stroke="#263238" stroke-linecap="round" stroke-linejoin="round" stroke-width="1"/><path d="M249.84,372.385s1.21,23.721,21.374,13.862C271.214,386.247,261.694,370.208,249.84,372.385Z" transform="translate(-249.84 -275.119)" fill="#8f00fc" stroke="#263238" stroke-linecap="round" stroke-linejoin="round" stroke-width="1"/><path d="M270.847,358.13s-15.278,11.77-.762,23.491C270.085,381.621,280.27,369.912,270.847,358.13Z" transform="translate(-246.908 -278.065)" fill="#8f00fc" stroke="#263238" stroke-linecap="round" stroke-linejoin="round" stroke-width="1"/><path d="M292.265,372.58s-18.531,1.113-15.8,18C276.468,390.579,294.83,388.341,292.265,372.58Z" transform="translate(-244.316 -275.036)" fill="#8f00fc" stroke="#263238" stroke-linecap="round" stroke-linejoin="round" stroke-width="1"/><path d="M287.311,441.763s5.492-18.8-5.371-35.273-15.991-31.015-13.536-42.24" transform="translate(-246.075 -276.782)" fill="none" stroke="#263238" stroke-linecap="round" stroke-linejoin="round" stroke-width="1"/><path d="M287.236,377.13s-10.233,6.121-12.1,17.987" transform="translate(-244.537 -274.082)" fill="none" stroke="#263238" stroke-linecap="round" stroke-linejoin="round" stroke-width="1"/><path d="M255.86,379.28s7.705,7.584,18.253,4.923" transform="translate(-248.578 -273.632)" fill="none" stroke="#263238" stroke-linecap="round" stroke-linejoin="round" stroke-width="1"/><path d="M259.27,400.461s18.314,2.2,25-.581" transform="translate(-247.863 -269.313)" fill="none" stroke="#263238" stroke-linecap="round" stroke-linejoin="round" stroke-width="1"/><path d="M298.032,399.41s-6.435,9.846-14.322,10.983" transform="translate(-242.74 -269.412)" fill="none" stroke="#263238" stroke-linecap="round" stroke-linejoin="round" stroke-width="1"/></g><g transform="translate(83.732 433.696)"><path d="M520.124,378.055l-2.008-.073.508-5.855a2.661,2.661,0,0,0-.23-1.681c-.423-.653-1.294-.786-2.056-.956a9.555,9.555,0,0,1-5.552-3.629c-.968-1.319-1.657-2.939-3.06-3.774-1.96-1.21-4.427-.339-6.617.29s-5,.81-6.3-1.052c-.762-1.089-.81-2.661-1.863-3.484s-2.988-.29-4.379.4c-5.359,2.637-11.346,6.048-12.374,11.963-.363,2.02-6.629,10.451-8.867,11.576-3.907,1.948-11.3-1.778-15.265-3.1a180.459,180.459,0,0,1-25.4-2.419c-2.419,0-4.839,2.419-7.258,4.838-1.21,1.21-1.21,2.419-2.419,3.629-3.629,3.629-9.677,6.048-10.887,12.1,0,8.467-9.677,13.306-16.935,16.935-10.887,4.839-21.773,6.048-32.66,10.887-6.048,2.419-13.306,2.419-20.564,2.419-8.467,7.258-14.516,15.725-20.564,25.4-1.21,1.21-2.419,3.629-4.839,3.629-77.416,0-156.041,0-233.832-.423v27.6H520.632Z" transform="translate(-76.688 -357.371)" fill="#fff"/><path d="M76.69,455.686c77.791.423,156.416.423,233.832.423,2.419,0,3.629-2.419,4.839-3.629,6.048-9.677,12.1-18.144,20.564-25.4,7.258,0,14.515,0,20.564-2.419,10.887-4.839,21.773-6.048,32.66-10.887,7.258-3.629,16.935-8.467,16.935-16.935,1.21-6.048,7.258-8.467,10.887-12.1,1.21-1.21,1.21-2.419,2.419-3.629,2.419-2.419,4.839-4.838,7.258-4.838a180.465,180.465,0,0,0,25.4,2.419c3.967,1.318,11.358,5.044,15.265,3.1,2.238-1.125,8.467-9.556,8.867-11.576,1.028-5.879,7.016-9.326,12.374-11.963,1.391-.689,3.157-1.343,4.379-.4s1.1,2.419,1.863,3.484c1.306,1.863,4.1,1.669,6.3,1.052s4.657-1.452,6.617-.29c1.4.835,2.093,2.419,3.06,3.774a9.556,9.556,0,0,0,5.552,3.629c.762.169,1.633.3,2.056.956" transform="translate(-76.69 -357.381)" fill="none" stroke="#263238" stroke-linecap="round" stroke-linejoin="round" stroke-width="1"/><path d="M389.3,394.785c5.165.387,12.653-3.085,12.737-2.782s9.1,1.391,9.1,1.391,11.939,3.4,13.911,1.391,8.056-.629,12.907-1.077,9.8,3.484,9.8,3.484,8.564,7.342,9.677,7.681,9.75,2.867,13.1,5.189" transform="translate(-11.16 -350.127)" fill="none" stroke="#263238" stroke-linecap="round" stroke-linejoin="round" stroke-width="1"/><path d="M270,440.069h20.564s13.306-6.859,20.128-6.109,12.641,5.685,12.641,5.685H335.09l14.443,1.814h9.532" transform="translate(-36.168 -341.34)" fill="none" stroke="#263238" stroke-linecap="round" stroke-linejoin="round" stroke-width="1"/><path d="M391.629,415.557c-2.867-3.157-14.854-3.822-16.523-6.834s-12.181,3.883-13.62,2.818-9.012.847-10.246,4.439-.629,4.246-5.48,6.048" transform="translate(-20.287 -346.779)" fill="none" stroke="#263238" stroke-linecap="round" stroke-linejoin="round" stroke-width="1"/><path d="M451.022,379.332a5.165,5.165,0,0,0-6.653-.133,8.4,8.4,0,0,1-.871.726,5.492,5.492,0,0,1-2.782.423,9.992,9.992,0,0,0-5.915,2.117,5.42,5.42,0,0,1-1.742,1.137,6.242,6.242,0,0,1-1.21.157,6.205,6.205,0,0,0-2.939,1.21" transform="translate(-2.856 -353.048)" fill="none" stroke="#263238" stroke-linecap="round" stroke-linejoin="round" stroke-width="1"/><path d="M394.52,442.079c5.262,2.323,11.758.278,15.725-3.919,3.145-3.351,5.7-8.334,10.294-8.528,1.21,0,2.419.266,3.629.278,2.722,0,5.177-1.464,7.705-2.419s5.685-1.476,7.729.315c1.355,1.21,1.923,3.133,3.4,4.173s3.375.883,5.117,1.21,3.629,1.742,3.266,3.484" transform="translate(-10.065 -342.867)" fill="none" stroke="#263238" stroke-linecap="round" stroke-linejoin="round" stroke-width="1"/></g></g></g><g transform="translate(622 3629)" fill="#fff" stroke="#8f00fc" stroke-width="1"><rect width="350" height="82" rx="10" stroke="none"/><rect x="0.5" y="0.5" width="349" height="81" rx="9.5" fill="none"/></g><g transform="translate(0 5)"><g transform="translate(640.5 3642.5)"><path d="M24.955,19.227A5.727,5.727,0,1,1,19.227,13.5,5.727,5.727,0,0,1,24.955,19.227Z" transform="translate(3.273 3.273)" fill="none" stroke="#8f00fc" stroke-linecap="round" stroke-linejoin="round" stroke-width="3"/><path d="M36.627,28.227a3.15,3.15,0,0,0,.63,3.475l.115.115a3.82,3.82,0,1,1-5.4,5.4l-.115-.115a3.176,3.176,0,0,0-5.384,2.253v.325a3.818,3.818,0,1,1-7.636,0V39.51a3.15,3.15,0,0,0-2.062-2.883,3.15,3.15,0,0,0-3.475.63l-.115.115a3.82,3.82,0,1,1-5.4-5.4l.115-.115a3.176,3.176,0,0,0-2.253-5.384H5.318a3.818,3.818,0,0,1,0-7.636H5.49a3.15,3.15,0,0,0,2.883-2.062,3.15,3.15,0,0,0-.63-3.475l-.115-.115a3.82,3.82,0,1,1,5.4-5.4l.115.115a3.15,3.15,0,0,0,3.475.63h.153a3.15,3.15,0,0,0,1.909-2.883V5.318a3.818,3.818,0,0,1,7.636,0V5.49A3.176,3.176,0,0,0,31.7,7.743l.115-.115a3.82,3.82,0,1,1,5.4,5.4l-.115.115a3.15,3.15,0,0,0-.63,3.475v.153a3.15,3.15,0,0,0,2.883,1.909h.325a3.818,3.818,0,1,1,0,7.636H39.51a3.15,3.15,0,0,0-2.883,1.909Z" transform="translate(0 0)" fill="none" stroke="#8f00fc" stroke-linecap="round" stroke-linejoin="round" stroke-width="3"/></g><path d="M5.544.2A4.715,4.715,0,0,1,1.939-1.12,5.245,5.245,0,0,1,.7-4.858a5.748,5.748,0,0,1,.378-2.149A4.63,4.63,0,0,1,2.114-8.6,4.332,4.332,0,0,1,3.682-9.59a5.656,5.656,0,0,1,1.974-.336,6.327,6.327,0,0,1,1.12.091,7.262,7.262,0,0,1,.882.21,4.352,4.352,0,0,1,.63.245q.252.126.364.2L8.022-7.42a5.285,5.285,0,0,0-1.043-.406,4.977,4.977,0,0,0-1.351-.168,2.984,2.984,0,0,0-.987.168,2.232,2.232,0,0,0-.854.539,2.685,2.685,0,0,0-.6.959A4.024,4.024,0,0,0,2.968-4.9a5.1,5.1,0,0,0,.147,1.253,2.658,2.658,0,0,0,.476,1,2.285,2.285,0,0,0,.861.665,3.064,3.064,0,0,0,1.288.245,5.869,5.869,0,0,0,.854-.056,6.341,6.341,0,0,0,.672-.133A3.529,3.529,0,0,0,7.784-2.1q.224-.1.406-.182l.6,1.75a5.117,5.117,0,0,1-1.3.5A7.588,7.588,0,0,1,5.544.2ZM16.772-3.7a4.789,4.789,0,0,1-.252,1.589,3.452,3.452,0,0,1-.728,1.232,3.276,3.276,0,0,1-1.141.791A3.808,3.808,0,0,1,13.16.2a3.77,3.77,0,0,1-1.477-.28,3.276,3.276,0,0,1-1.141-.791A3.622,3.622,0,0,1,9.8-2.107,4.56,4.56,0,0,1,9.534-3.7a4.4,4.4,0,0,1,.273-1.582A3.588,3.588,0,0,1,10.563-6.5a3.4,3.4,0,0,1,1.148-.784,3.7,3.7,0,0,1,1.449-.28,3.733,3.733,0,0,1,1.463.28,3.322,3.322,0,0,1,1.141.784,3.558,3.558,0,0,1,.742,1.218A4.5,4.5,0,0,1,16.772-3.7Zm-2.128,0a2.622,2.622,0,0,0-.385-1.519,1.259,1.259,0,0,0-1.1-.553,1.277,1.277,0,0,0-1.106.553A2.587,2.587,0,0,0,11.662-3.7a2.654,2.654,0,0,0,.392,1.533A1.267,1.267,0,0,0,13.16-1.6a1.25,1.25,0,0,0,1.1-.567A2.691,2.691,0,0,0,14.644-3.7Zm3.738-3.416A11.627,11.627,0,0,1,19.754-7.4a11.274,11.274,0,0,1,1.764-.133,4.3,4.3,0,0,1,1.561.245,2.345,2.345,0,0,1,.987.693,2.7,2.7,0,0,1,.518,1.064,5.661,5.661,0,0,1,.154,1.372V0H22.652V-3.906a2.812,2.812,0,0,0-.266-1.428,1.085,1.085,0,0,0-.994-.42q-.224,0-.476.021t-.448.049V0H18.382ZM29.82-10.864a4.033,4.033,0,0,1,.973.1,4.669,4.669,0,0,1,.651.21L31.08-8.918a1.991,1.991,0,0,0-.5-.14A3.631,3.631,0,0,0,30.03-9.1a1.7,1.7,0,0,0-.637.1.983.983,0,0,0-.406.287,1.108,1.108,0,0,0-.21.434,2.247,2.247,0,0,0-.063.546v.364H31.29v1.736H28.714V0H26.628V-7.756a3.141,3.141,0,0,1,.805-2.268A3.157,3.157,0,0,1,29.82-10.864ZM34.58,0H32.494V-7.364H34.58Zm.2-9.492a1.145,1.145,0,0,1-.371.9,1.276,1.276,0,0,1-.875.329,1.276,1.276,0,0,1-.875-.329,1.145,1.145,0,0,1-.371-.9,1.145,1.145,0,0,1,.371-.9,1.276,1.276,0,0,1,.875-.329,1.276,1.276,0,0,1,.875.329A1.145,1.145,0,0,1,34.776-9.492ZM38.318-3.92q0,1.75,1.414,1.75a2.086,2.086,0,0,0,.6-.084,2.287,2.287,0,0,0,.476-.2V-5.782q-.154-.028-.364-.049t-.49-.021a1.436,1.436,0,0,0-1.232.546A2.26,2.26,0,0,0,38.318-3.92Zm4.578,3a3.547,3.547,0,0,1-.917,2.681,3.982,3.982,0,0,1-2.835.875A7.694,7.694,0,0,1,37.8,2.513,8.375,8.375,0,0,1,36.554,2.2l.364-1.75a6.114,6.114,0,0,0,1.029.308,6.054,6.054,0,0,0,1.225.112A1.694,1.694,0,0,0,40.439.476,1.407,1.407,0,0,0,40.81-.532V-.8a3.358,3.358,0,0,1-.693.231,3.686,3.686,0,0,1-.777.077A2.982,2.982,0,0,1,37-1.393,3.647,3.647,0,0,1,36.19-3.92,4.139,4.139,0,0,1,36.442-5.4a3.142,3.142,0,0,1,.735-1.141,3.281,3.281,0,0,1,1.183-.735,4.536,4.536,0,0,1,1.582-.259q.378,0,.777.035t.791.091q.392.056.749.133t.637.161Zm8.246.672A11.627,11.627,0,0,1,49.77.035a11.274,11.274,0,0,1-1.764.133,4.189,4.189,0,0,1-1.561-.252,2.37,2.37,0,0,1-.987-.707,2.759,2.759,0,0,1-.518-1.085,5.836,5.836,0,0,1-.154-1.386v-4.1h2.086v3.85a2.984,2.984,0,0,0,.266,1.456,1.058,1.058,0,0,0,.994.448q.224,0,.476-.021t.448-.049V-7.364h2.086Zm6.4-5.264q-.28-.07-.658-.147a4.066,4.066,0,0,0-.812-.077,3.768,3.768,0,0,0-.469.035,2.76,2.76,0,0,0-.413.077V0H53.1V-6.972a12.531,12.531,0,0,1,1.323-.371,7.623,7.623,0,0,1,1.7-.175q.168,0,.406.021t.476.056q.238.035.476.084a2.24,2.24,0,0,1,.406.119Zm4.144,4.06q.308,0,.588-.014a4.091,4.091,0,0,0,.448-.042V-3.094q-.126-.028-.378-.056a4.21,4.21,0,0,0-.462-.028,4.134,4.134,0,0,0-.553.035,1.445,1.445,0,0,0-.455.133.781.781,0,0,0-.308.266.741.741,0,0,0-.112.42.715.715,0,0,0,.329.679A1.818,1.818,0,0,0,61.684-1.456Zm-.168-6.1a4.831,4.831,0,0,1,1.54.21,2.392,2.392,0,0,1,.987.6,2.213,2.213,0,0,1,.525.952,4.7,4.7,0,0,1,.154,1.246V-.21q-.448.1-1.246.231a11.973,11.973,0,0,1-1.932.133A6.125,6.125,0,0,1,60.249.028a2.811,2.811,0,0,1-1-.413,1.89,1.89,0,0,1-.644-.749,2.585,2.585,0,0,1-.224-1.134,2.149,2.149,0,0,1,.259-1.092,1.993,1.993,0,0,1,.693-.714,3.132,3.132,0,0,1,.994-.385,5.576,5.576,0,0,1,1.162-.119,6.6,6.6,0,0,1,.721.035,3.209,3.209,0,0,1,.511.091v-.2A1.154,1.154,0,0,0,62.4-5.5a1.559,1.559,0,0,0-1.12-.322,7.132,7.132,0,0,0-1.05.077,4.5,4.5,0,0,0-.9.217l-.266-1.68q.182-.056.455-.119t.6-.112q.322-.049.679-.084T61.516-7.56ZM70.224.56a1.362,1.362,0,0,1,.616.532,1.3,1.3,0,0,1,.168.63,1.147,1.147,0,0,1-.532,1.022,2.509,2.509,0,0,1-1.4.35,3.915,3.915,0,0,1-.616-.049,5.808,5.808,0,0,1-.616-.133L68.1,1.694q.1.028.357.091a2.157,2.157,0,0,0,.511.063.729.729,0,0,0,.343-.077.308.308,0,0,0,.161-.273.373.373,0,0,0-.133-.308.977.977,0,0,0-.469-.21L68.7.938a4.351,4.351,0,0,1,.154-.413q.1-.231.2-.427A3.462,3.462,0,0,1,67.8-.385a3.1,3.1,0,0,1-.868-.84,3.484,3.484,0,0,1-.5-1.127,5.353,5.353,0,0,1-.161-1.33,4.341,4.341,0,0,1,.259-1.505,3.6,3.6,0,0,1,.749-1.232,3.574,3.574,0,0,1,1.19-.833,3.926,3.926,0,0,1,1.6-.308,5.151,5.151,0,0,1,1.078.105,5.247,5.247,0,0,1,.952.3l-.434,1.666a5.258,5.258,0,0,0-.644-.2,3.366,3.366,0,0,0-.784-.084,1.653,1.653,0,0,0-1.379.574,2.363,2.363,0,0,0-.455,1.512,2.448,2.448,0,0,0,.427,1.54,1.788,1.788,0,0,0,1.491.546,5.116,5.116,0,0,0,.812-.07,3.452,3.452,0,0,0,.8-.224l.294,1.708a4.117,4.117,0,0,1-.791.238,6.672,6.672,0,0,1-1.029.126q-.056.112-.1.21T70.224.56ZM80.15-3.7A4.788,4.788,0,0,1,79.9-2.107,3.452,3.452,0,0,1,79.17-.875a3.276,3.276,0,0,1-1.141.791A3.808,3.808,0,0,1,76.538.2a3.77,3.77,0,0,1-1.477-.28A3.276,3.276,0,0,1,73.92-.875a3.622,3.622,0,0,1-.742-1.232A4.559,4.559,0,0,1,72.912-3.7a4.4,4.4,0,0,1,.273-1.582A3.588,3.588,0,0,1,73.941-6.5a3.4,3.4,0,0,1,1.148-.784,3.7,3.7,0,0,1,1.449-.28A3.733,3.733,0,0,1,78-7.28a3.322,3.322,0,0,1,1.141.784,3.558,3.558,0,0,1,.742,1.218A4.5,4.5,0,0,1,80.15-3.7Zm-2.128,0a2.623,2.623,0,0,0-.385-1.519,1.259,1.259,0,0,0-1.1-.553,1.277,1.277,0,0,0-1.106.553A2.587,2.587,0,0,0,75.04-3.7a2.655,2.655,0,0,0,.392,1.533,1.267,1.267,0,0,0,1.106.567,1.25,1.25,0,0,0,1.1-.567A2.691,2.691,0,0,0,78.022-3.7Zm1.106-6.23a3.542,3.542,0,0,1-.231.462A2.444,2.444,0,0,1,78.54-9a1.871,1.871,0,0,1-.476.357,1.243,1.243,0,0,1-.588.14,1.393,1.393,0,0,1-.469-.077q-.217-.077-.427-.168t-.42-.168a1.251,1.251,0,0,0-.434-.077.626.626,0,0,0-.462.182,1.48,1.48,0,0,0-.294.42l-1.022-.672a3.542,3.542,0,0,1,.231-.462,2.444,2.444,0,0,1,.357-.469,1.871,1.871,0,0,1,.476-.357,1.243,1.243,0,0,1,.588-.14,1.393,1.393,0,0,1,.469.077q.217.077.427.168t.413.168A1.233,1.233,0,0,0,77.35-10a.626.626,0,0,0,.462-.182,1.48,1.48,0,0,0,.294-.42Zm2.282,6.3a4.5,4.5,0,0,1,.3-1.715A3.677,3.677,0,0,1,82.5-6.566a3.291,3.291,0,0,1,1.127-.742,3.529,3.529,0,0,1,1.309-.252,3.253,3.253,0,0,1,2.478.959,3.951,3.951,0,0,1,.91,2.821q0,.182-.014.4T88.284-3H83.552a1.386,1.386,0,0,0,.6,1.022,2.42,2.42,0,0,0,1.428.378A6.028,6.028,0,0,0,86.709-1.7a4.254,4.254,0,0,0,.9-.259l.28,1.694a2.881,2.881,0,0,1-.448.168,5.862,5.862,0,0,1-.623.147q-.343.063-.735.105A7.354,7.354,0,0,1,85.3.2,4.641,4.641,0,0,1,83.573-.1,3.368,3.368,0,0,1,82.355-.9a3.2,3.2,0,0,1-.714-1.211A4.8,4.8,0,0,1,81.41-3.626Zm4.9-.8a2.153,2.153,0,0,0-.091-.518,1.293,1.293,0,0,0-.238-.448,1.267,1.267,0,0,0-.406-.322,1.323,1.323,0,0,0-.609-.126,1.4,1.4,0,0,0-.6.119,1.244,1.244,0,0,0-.42.315,1.409,1.409,0,0,0-.259.455,2.986,2.986,0,0,0-.133.525ZM92.05-1.5a2.082,2.082,0,0,0,.812-.112.433.433,0,0,0,.238-.434.532.532,0,0,0-.308-.441,5.853,5.853,0,0,0-.938-.427,9.612,9.612,0,0,1-.889-.378,2.613,2.613,0,0,1-.679-.469,1.9,1.9,0,0,1-.434-.651,2.41,2.41,0,0,1-.154-.91,1.968,1.968,0,0,1,.77-1.638,3.349,3.349,0,0,1,2.114-.6,6.779,6.779,0,0,1,1.288.119,5.993,5.993,0,0,1,.98.259l-.364,1.624a7.659,7.659,0,0,0-.791-.224,4.3,4.3,0,0,0-.959-.1q-.98,0-.98.546a.564.564,0,0,0,.042.224.478.478,0,0,0,.168.189,2.389,2.389,0,0,0,.343.2q.217.106.553.233A8.521,8.521,0,0,1,94-3.99a2.7,2.7,0,0,1,.707.533,1.647,1.647,0,0,1,.364.636,2.821,2.821,0,0,1,.105.81,1.867,1.867,0,0,1-.819,1.648A4.084,4.084,0,0,1,92.036.2,6.659,6.659,0,0,1,90.405.028a6.612,6.612,0,0,1-.9-.28l.35-1.694a6.843,6.843,0,0,0,1.092.329A5.31,5.31,0,0,0,92.05-1.5ZM2.758,14.262a2.556,2.556,0,0,0,.434,1.554A1.5,1.5,0,0,0,4.48,16.4q.28,0,.518-.021t.392-.049V12.54a1.813,1.813,0,0,0-.511-.21,2.462,2.462,0,0,0-.637-.084Q2.758,12.246,2.758,14.262Zm4.718,3.5q-.28.084-.644.161t-.763.133q-.4.056-.812.091t-.791.035a4.63,4.63,0,0,1-1.624-.266,3.263,3.263,0,0,1-1.2-.763,3.311,3.311,0,0,1-.749-1.2A4.6,4.6,0,0,1,.63,14.36a5.439,5.439,0,0,1,.224-1.617A3.519,3.519,0,0,1,1.5,11.518a2.756,2.756,0,0,1,1.029-.77,3.45,3.45,0,0,1,1.393-.266,3.276,3.276,0,0,1,.777.084,4.205,4.205,0,0,1,.693.238V7.472l2.086-.336Zm4.774-1.218q.308,0,.588-.014a4.091,4.091,0,0,0,.448-.042V14.906q-.126-.028-.378-.056a4.21,4.21,0,0,0-.462-.028,4.135,4.135,0,0,0-.553.035,1.445,1.445,0,0,0-.455.133.781.781,0,0,0-.308.266.741.741,0,0,0-.112.42.715.715,0,0,0,.329.679A1.818,1.818,0,0,0,12.25,16.544Zm-.168-6.1a4.831,4.831,0,0,1,1.54.21,2.392,2.392,0,0,1,.987.6,2.213,2.213,0,0,1,.525.952,4.7,4.7,0,0,1,.154,1.246v4.34q-.448.1-1.246.231a11.973,11.973,0,0,1-1.932.133,6.125,6.125,0,0,1-1.3-.126,2.811,2.811,0,0,1-1-.413,1.89,1.89,0,0,1-.644-.749,2.585,2.585,0,0,1-.224-1.134A2.149,2.149,0,0,1,9.2,14.64a1.993,1.993,0,0,1,.693-.714,3.132,3.132,0,0,1,.994-.385,5.576,5.576,0,0,1,1.162-.119,6.6,6.6,0,0,1,.721.035,3.209,3.209,0,0,1,.511.091v-.2a1.154,1.154,0,0,0-.322-.854,1.559,1.559,0,0,0-1.12-.322,7.132,7.132,0,0,0-1.05.077,4.5,4.5,0,0,0-.9.217l-.266-1.68q.182-.056.455-.119t.6-.112q.322-.049.679-.084T12.082,10.44ZM27.16,16.124V18H20.678V8.3h2.184v7.826Zm8.148-1.82a4.788,4.788,0,0,1-.252,1.589,3.452,3.452,0,0,1-.728,1.232,3.276,3.276,0,0,1-1.141.791,4.073,4.073,0,0,1-2.968,0,3.276,3.276,0,0,1-1.141-.791,3.622,3.622,0,0,1-.742-1.232A4.56,4.56,0,0,1,28.07,14.3a4.4,4.4,0,0,1,.273-1.582A3.588,3.588,0,0,1,29.1,11.5a3.4,3.4,0,0,1,1.148-.784,3.926,3.926,0,0,1,2.912,0A3.322,3.322,0,0,1,34.3,11.5a3.558,3.558,0,0,1,.742,1.218A4.5,4.5,0,0,1,35.308,14.3Zm-2.128,0a2.622,2.622,0,0,0-.385-1.519,1.259,1.259,0,0,0-1.1-.553,1.277,1.277,0,0,0-1.106.553A2.587,2.587,0,0,0,30.2,14.3a2.654,2.654,0,0,0,.392,1.533A1.267,1.267,0,0,0,31.7,16.4a1.25,1.25,0,0,0,1.1-.567A2.691,2.691,0,0,0,33.18,14.3Zm3.052,6.286q-.2,0-.581-.042a3.462,3.462,0,0,1-.721-.154l.28-1.694a2.457,2.457,0,0,0,.385.1,2.871,2.871,0,0,0,.441.028.763.763,0,0,0,.686-.294,1.541,1.541,0,0,0,.2-.854V10.636H39v7.1a2.9,2.9,0,0,1-.714,2.156A2.819,2.819,0,0,1,36.232,20.59ZM39.2,8.508a1.145,1.145,0,0,1-.371.9,1.328,1.328,0,0,1-1.75,0,1.145,1.145,0,0,1-.371-.9,1.145,1.145,0,0,1,.371-.9,1.328,1.328,0,0,1,1.75,0A1.145,1.145,0,0,1,39.2,8.508Zm4.578,8.036q.308,0,.588-.014a4.091,4.091,0,0,0,.448-.042V14.906q-.126-.028-.378-.056a4.21,4.21,0,0,0-.462-.028,4.135,4.135,0,0,0-.553.035,1.445,1.445,0,0,0-.455.133.781.781,0,0,0-.308.266.741.741,0,0,0-.112.42.715.715,0,0,0,.329.679A1.818,1.818,0,0,0,43.778,16.544Zm-.168-6.1a4.831,4.831,0,0,1,1.54.21,2.392,2.392,0,0,1,.987.6,2.213,2.213,0,0,1,.525.952,4.7,4.7,0,0,1,.154,1.246v4.34q-.448.1-1.246.231a11.973,11.973,0,0,1-1.932.133,6.125,6.125,0,0,1-1.295-.126,2.811,2.811,0,0,1-1-.413,1.89,1.89,0,0,1-.644-.749,2.585,2.585,0,0,1-.224-1.134,2.149,2.149,0,0,1,.259-1.092,1.993,1.993,0,0,1,.693-.714,3.132,3.132,0,0,1,.994-.385,5.576,5.576,0,0,1,1.162-.119,6.6,6.6,0,0,1,.721.035,3.209,3.209,0,0,1,.511.091v-.2a1.154,1.154,0,0,0-.322-.854,1.559,1.559,0,0,0-1.12-.322,7.132,7.132,0,0,0-1.05.077,4.5,4.5,0,0,0-.9.217l-.266-1.68q.182-.056.455-.119t.6-.112q.322-.049.679-.084T43.61,10.44ZM55.106,18q-.579-1.222-1.143-2.537t-1.071-2.6q-.507-1.287-.932-2.463t-.735-2.1h2.408q.272.843.606,1.814t.679,1.936l.663,1.849q.317.884.607,1.527.273-.639.6-1.523t.67-1.849q.346-.965.679-1.936T58.743,8.3h2.325q-.326.928-.75,2.1t-.928,2.462q-.5,1.288-1.064,2.6T57.189,18Zm9.154,0H62.174V10.636H64.26Zm.2-9.492a1.145,1.145,0,0,1-.371.9,1.328,1.328,0,0,1-1.75,0,1.145,1.145,0,0,1-.371-.9,1.145,1.145,0,0,1,.371-.9,1.328,1.328,0,0,1,1.75,0A1.145,1.145,0,0,1,64.456,8.508Zm6.2,3.976q-.28-.07-.658-.147a4.066,4.066,0,0,0-.812-.077,3.768,3.768,0,0,0-.469.035,2.76,2.76,0,0,0-.413.077V18H66.22V11.028a12.531,12.531,0,0,1,1.323-.371,7.623,7.623,0,0,1,1.7-.175q.168,0,.406.021t.476.056q.238.035.476.084a2.24,2.24,0,0,1,.406.119Zm1.4-3.682,2.086-.336v2.17H76.65v1.736H74.144v2.59a2.06,2.06,0,0,0,.231,1.05.991.991,0,0,0,.931.392A3.986,3.986,0,0,0,76,16.341a3.572,3.572,0,0,0,.651-.175l.294,1.624a5.935,5.935,0,0,1-.84.266,4.895,4.895,0,0,1-1.134.112,3.733,3.733,0,0,1-1.414-.231,2.218,2.218,0,0,1-.9-.644,2.4,2.4,0,0,1-.469-1,5.91,5.91,0,0,1-.133-1.3ZM84.63,17.748a11.627,11.627,0,0,1-1.372.287,11.274,11.274,0,0,1-1.764.133,4.189,4.189,0,0,1-1.561-.252,2.37,2.37,0,0,1-.987-.707,2.759,2.759,0,0,1-.518-1.085,5.836,5.836,0,0,1-.154-1.386v-4.1H80.36v3.85a2.984,2.984,0,0,0,.266,1.456,1.058,1.058,0,0,0,.994.448q.224,0,.476-.021t.448-.049V10.636H84.63Zm4.774-1.2q.308,0,.588-.014a4.091,4.091,0,0,0,.448-.042V14.906q-.126-.028-.378-.056a4.21,4.21,0,0,0-.462-.028,4.134,4.134,0,0,0-.553.035,1.445,1.445,0,0,0-.455.133.781.781,0,0,0-.308.266.741.741,0,0,0-.112.42.715.715,0,0,0,.329.679A1.818,1.818,0,0,0,89.4,16.544Zm-.168-6.1a4.831,4.831,0,0,1,1.54.21,2.392,2.392,0,0,1,.987.6,2.213,2.213,0,0,1,.525.952,4.7,4.7,0,0,1,.154,1.246v4.34q-.448.1-1.246.231a11.973,11.973,0,0,1-1.932.133,6.125,6.125,0,0,1-1.295-.126,2.81,2.81,0,0,1-1-.413,1.89,1.89,0,0,1-.644-.749,2.585,2.585,0,0,1-.224-1.134,2.149,2.149,0,0,1,.259-1.092,1.993,1.993,0,0,1,.693-.714,3.132,3.132,0,0,1,.994-.385,5.576,5.576,0,0,1,1.162-.119,6.6,6.6,0,0,1,.721.035,3.209,3.209,0,0,1,.511.091v-.2a1.154,1.154,0,0,0-.322-.854A1.559,1.559,0,0,0,89,12.176a7.132,7.132,0,0,0-1.05.077,4.5,4.5,0,0,0-.9.217l-.266-1.68q.182-.056.455-.119t.6-.112q.322-.049.679-.084T89.236,10.44Zm8.036,7.7a5.211,5.211,0,0,1-1.477-.2,2.188,2.188,0,0,1-.9-.511,1.7,1.7,0,0,1-.448-.8,4.306,4.306,0,0,1-.119-1.057V7.472l2.086-.336v8.022a2.748,2.748,0,0,0,.042.5.87.87,0,0,0,.161.378.855.855,0,0,0,.343.252,1.88,1.88,0,0,0,.6.126Z" transform="translate(694 3661)" fill="#8f00fc"/><path d="M1.12,0V-9.7H7.672v1.834H3.3v1.9H7.182v1.792H3.3v2.338h4.69V0ZM12.676-5.3,14.14-7.364H16.3L13.74-3.783A21.884,21.884,0,0,1,15.3-1.777,18.415,18.415,0,0,1,16.394,0H14.157q-.114-.211-.282-.526T13.5-1.184a3.4,3.4,0,0,0-.438-.582Q12.831-2,12.609-2.2q-.212.181-.43.4a2.839,2.839,0,0,0-.415.548q-.2.328-.387.65T11.04,0H8.918q.176-.345.465-.824t.633-.99a12.361,12.361,0,0,1,.745-.991q.4-.481.787-.9l-1.32-1.876L8.974-7.364h2.254ZM19.6,0H17.514V-7.364H19.6Zm.2-9.492a1.145,1.145,0,0,1-.371.9,1.276,1.276,0,0,1-.875.329,1.276,1.276,0,0,1-.875-.329,1.145,1.145,0,0,1-.371-.9,1.145,1.145,0,0,1,.371-.9,1.276,1.276,0,0,1,.875-.329,1.276,1.276,0,0,1,.875.329A1.145,1.145,0,0,1,19.8-9.492Zm6.482,5.754q0-2.016-1.484-2.016a2.462,2.462,0,0,0-.637.084,1.813,1.813,0,0,0-.511.21v3.794q.154.028.392.049t.518.021a1.5,1.5,0,0,0,1.288-.588A2.556,2.556,0,0,0,26.278-3.738Zm2.128.056a4.655,4.655,0,0,1-.259,1.6A3.369,3.369,0,0,1,27.4-.868a3.291,3.291,0,0,1-1.2.777A4.523,4.523,0,0,1,24.57.182q-.378,0-.791-.035T22.967.056Q22.568,0,22.2-.077T21.56-.238v-10.29l2.086-.336V-7.2a3.908,3.908,0,0,1,.728-.238,3.739,3.739,0,0,1,.812-.084,3.324,3.324,0,0,1,1.386.273,2.714,2.714,0,0,1,1.008.777A3.49,3.49,0,0,1,28.2-5.257,5.521,5.521,0,0,1,28.406-3.682ZM32.1,0H30.016V-7.364H32.1Zm.2-9.492a1.145,1.145,0,0,1-.371.9,1.276,1.276,0,0,1-.875.329,1.276,1.276,0,0,1-.875-.329,1.145,1.145,0,0,1-.371-.9,1.145,1.145,0,0,1,.371-.9,1.276,1.276,0,0,1,.875-.329,1.276,1.276,0,0,1,.875.329A1.145,1.145,0,0,1,32.3-9.492Zm6.2,3.976q-.28-.07-.658-.147a4.066,4.066,0,0,0-.812-.077,3.768,3.768,0,0,0-.469.035,2.76,2.76,0,0,0-.413.077V0H34.062V-6.972a12.531,12.531,0,0,1,1.323-.371,7.623,7.623,0,0,1,1.7-.175q.168,0,.406.021t.476.056q.238.035.476.084a2.24,2.24,0,0,1,.406.119Z" transform="translate(913 3669)" fill="#00c853"/><g transform="translate(-9)"><rect width="74" height="40" rx="20" transform="translate(838 3644)" fill="#00c853"/><circle cx="17" cy="17" r="17" transform="translate(875 3647)" fill="#fff"/></g></g></g></svg>