<svg xmlns="http://www.w3.org/2000/svg" xmlns:xlink="http://www.w3.org/1999/xlink" width="602" height="492.571" viewBox="0 0 602 492.571">
  <defs>
    <filter id="Caminho_4071" x="256" y="0" width="346" height="262" filterUnits="userSpaceOnUse">
      <feOffset dx="1" dy="1" input="SourceAlpha"/>
      <feGaussianBlur stdDeviation="1.5" result="blur"/>
      <feFlood flood-opacity="0.4"/>
      <feComposite operator="in" in2="blur"/>
      <feComposite in="SourceGraphic"/>
    </filter>
    <filter id="Retângulo_45" x="272.5" y="198.5" width="313" height="48" filterUnits="userSpaceOnUse">
      <feOffset dy="3" input="SourceAlpha"/>
      <feGaussianBlur stdDeviation="3" result="blur-2"/>
      <feFlood flood-opacity="0.161"/>
      <feComposite operator="in" in2="blur-2"/>
      <feComposite in="SourceGraphic"/>
    </filter>
  </defs>
  <g id="Componente_18_1" data-name="Componente 18 – 1" transform="translate(0.5 3.5)">
    <g id="Seamstress-bro_1_" data-name="Seamstress-bro (1)" transform="translate(-15.63 76.956)">
      <g id="freepik--background-simple--inject-36" transform="translate(23.856 40.643)">
        <path id="Caminho_3949" data-name="Caminho 3949" d="M33.177,319.149s17.037,67.255,71.561,87.24,99.369-17.561,143.423-32.776c23.072-7.96,46.985,1.47,70.555,0,75.378-4.668,118.271-116.7,96.67-189.282-18.7-62.836-61.031-101.793-130.572-122.312S166.861,23.9,96.374,68.345,14.515,231.444,33.177,319.149Z" transform="translate(-25.2 -40.643)" fill="#8f00fc"/>
        <path id="Caminho_3950" data-name="Caminho 3950" d="M33.177,319.149s17.037,67.255,71.561,87.24,99.369-17.561,143.423-32.776c23.072-7.96,46.985,1.47,70.555,0,75.378-4.668,118.271-116.7,96.67-189.282-18.7-62.836-61.031-101.793-130.572-122.312S166.861,23.9,96.374,68.345,14.515,231.444,33.177,319.149Z" transform="translate(-25.2 -40.643)" fill="#fff" opacity="0.7"/>
      </g>
      <g id="freepik--Picture--inject-36" transform="translate(132.681 43.993)">
        <path id="Caminho_3951" data-name="Caminho 3951" d="M229.765,47.17V187.937H154.43V47.17h75.335m2.63-2.63H151.8V190.559h80.6V44.54Z" transform="translate(-151.8 -44.54)" fill="none" stroke="#a2a7a9" stroke-miterlimit="10" stroke-width="1"/>
        <path id="Caminho_3952" data-name="Caminho 3952" d="M159.709,74.625A18.651,18.651,0,0,0,162.1,76.1a37.579,37.579,0,0,0,5.115,2.175c.86.3,1.719.576,2.639.86a14.536,14.536,0,0,0,2.734.55v-.2a14.466,14.466,0,0,1-2.63-.67c-.86-.275-1.719-.585-2.579-.911a37.212,37.212,0,0,1-4.96-2.321,17.369,17.369,0,0,1-2.244-1.513,5.785,5.785,0,0,1-1.719-1.934l-.12-.275a.487.487,0,0,0-.06-.284,1.98,1.98,0,0,1,0-.55,2.244,2.244,0,0,1,.5-1.014,6.335,6.335,0,0,1,2.08-1.461,12.03,12.03,0,0,1,1.229-.533c.4-.181.86-.3,1.281-.447a23.094,23.094,0,0,1,2.579-.756l1.315-.318,1.332-.224c.86-.172,1.8-.215,2.691-.309a70.563,70.563,0,0,1,10.908.464,108.49,108.49,0,0,0,11.115.576,75.206,75.206,0,0,0,11.115-.98,79.385,79.385,0,0,0,10.848-2.579l1.324-.438c.438-.155.86-.344,1.307-.516s.86-.352,1.289-.567a13.356,13.356,0,0,0,1.264-.636,11.174,11.174,0,0,0,2.3-1.719,3.678,3.678,0,0,0,.481-.55,3.009,3.009,0,0,0,.387-.619,1.805,1.805,0,0,0,.1-1.461l-.172.086a1.582,1.582,0,0,1-.292,1.186,2.19,2.19,0,0,1-.4.5,2.621,2.621,0,0,1-.49.43,9.876,9.876,0,0,1-2.321,1.3c-.4.2-.86.327-1.255.49a12.589,12.589,0,0,1-1.289.43c-.43.12-.86.266-1.3.387l-1.324.327c-3.533.86-7.143,1.418-10.753,1.925-1.814.2-3.619.464-5.433.593s-3.619.292-5.441.378a95.03,95.03,0,0,1-10.943-.2c-1.926-.112-3.868-.249-5.828-.3a22.609,22.609,0,0,0-.155-3.885,12.894,12.894,0,0,0-.533-2.45,6.434,6.434,0,0,0-.258-.628c-.077-.2-.266-.473-.335-.619h0a.239.239,0,0,1,.086-.146,2.45,2.45,0,0,1,.55-.619,7.734,7.734,0,0,1,.808-.628,18.623,18.623,0,0,1,1.908-1.023,21.49,21.49,0,0,1,4.3-1.642,20.9,20.9,0,0,1,4.5-.748,12.438,12.438,0,0,1,4.453.7,22.547,22.547,0,0,1,7.908,4.822l.146-.129a23.208,23.208,0,0,0-3.533-3.206,19.961,19.961,0,0,0-4.212-2.441,13.754,13.754,0,0,0-4.805-1.049,22.35,22.35,0,0,0-4.857.49,26.14,26.14,0,0,0-4.7,1.418,13.007,13.007,0,0,0-2.235,1.186,5.673,5.673,0,0,0-1.968,2.054,2.252,2.252,0,0,0-.232.98,1.84,1.84,0,0,0,.361,1.109c.129.2.181.241.275.4a3.156,3.156,0,0,1,.232.447,14.613,14.613,0,0,1,.791,2.089c.361,1.169.679,2.372,1,3.576a42.5,42.5,0,0,0-4.788.155c-.937.12-1.865.189-2.785.4l-1.384.266-1.358.361a26.013,26.013,0,0,0-2.665.86,17.123,17.123,0,0,0-2.579,1.1,7,7,0,0,0-2.321,1.788,2.982,2.982,0,0,0-.645,1.461,2.578,2.578,0,0,0,.06.86,3.175,3.175,0,0,0,.095.387l.172.352a6.533,6.533,0,0,0,1.934,2.115Z" transform="translate(-152.591 -45.416)" fill="#919191"/>
        <path id="Caminho_3953" data-name="Caminho 3953" d="M198.308,100.471a19.041,19.041,0,0,0-.86-1.831c-.662-1.186-1.375-2.329-2.123-3.438-1.229-1.822-2.51-3.593-3.834-5.347.533-.98,1.04-1.96,1.5-2.974.542-1.169,1.04-2.355,1.47-3.576a11.115,11.115,0,0,0,3.774.086,13.41,13.41,0,0,0,4.1-1.367c.6-.335,1.212-.662,1.8-1.023a18.693,18.693,0,0,0,1.719-1.195,15.842,15.842,0,0,0,3.009-2.966,6.877,6.877,0,0,0,1.066-1.908,3.671,3.671,0,0,0,.206-1.1,1.719,1.719,0,0,0-.309-1.092l-.172.112a2.278,2.278,0,0,1-.533,1.719,7.737,7.737,0,0,1-1.281,1.375c-.241.215-.481.421-.739.61s-.5.4-.774.585l-.791.567-.86.524-3.335,2.132a10.6,10.6,0,0,1-3.438,1.513,9.636,9.636,0,0,1-3.748.1A11.871,11.871,0,0,1,190.52,80.7a19.771,19.771,0,0,1-6.017-5.158l-.163.112a19,19,0,0,0,2.536,3.206,17.82,17.82,0,0,0,3.181,2.648,13.315,13.315,0,0,0,3.817,1.668c-1.719,2.364-3.249,4.762-4.874,7.092-.928,1.341-1.84,2.691-2.811,3.937a10.771,10.771,0,0,1-1.539,1.719,2.4,2.4,0,0,1-.748.447h-.292a.5.5,0,0,0-.129-.095,5.269,5.269,0,0,1-1.083-1.822,21.038,21.038,0,0,1-.731-2.3c-.413-1.573-.731-3.189-1.006-4.814-.585-3.241-.98-6.533-1.332-9.825h-.2c0,3.318.232,6.636.55,9.954.181,1.659.4,3.318.739,4.968a21.909,21.909,0,0,0,.628,2.484,9.354,9.354,0,0,0,.49,1.246,4.41,4.41,0,0,0,.86,1.246l.352.3a4.02,4.02,0,0,0,.473.232,3.635,3.635,0,0,0,.533.095,2.389,2.389,0,0,0,.5-.052,3.9,3.9,0,0,0,1.435-.67,12.283,12.283,0,0,0,1.986-1.814,25.435,25.435,0,0,0,2.983-4.135c.241-.413.464-.86.7-1.264,1.255,1.719,2.476,3.524,3.628,5.338.722,1.135,1.4,2.286,2.02,3.438a16.9,16.9,0,0,1,.86,1.8,5.678,5.678,0,0,1,.292.92c.095.387.095.413-.129.567a4.547,4.547,0,0,1-1.814.352h-1.986c-1.324-.069-2.656-.2-3.98-.361-2.656-.318-5.3-.739-7.951-1.195s-5.278-.937-7.917-1.436l-3.963-.756-.989-.189-.507-.095h-.782a.783.783,0,0,0-.224.112.739.739,0,0,0-.284.318,1.321,1.321,0,0,0-.069.163v.12a1.374,1.374,0,0,0,0,.4,4.093,4.093,0,0,0,.077.6c.077.37.181.7.284,1.032.86,2.622,1.994,5.054,3.06,7.53l3.224,7.384c2.089,4.934,4.126,9.894,5.708,14.966a42.6,42.6,0,0,1,1.719,7.65,10.882,10.882,0,0,1-.086,3.636,3.319,3.319,0,0,1-.662,1.375c-.4.456-.86.937-1.35,1.393-1.874,1.865-3.9,3.61-5.923,5.372s-4.066,3.516-6.017,5.364a71.013,71.013,0,0,0-5.673,5.811,26.537,26.537,0,0,0-2.381,3.318,10.8,10.8,0,0,0-1.47,3.808l.2.043c.722-2.579,2.493-4.659,4.3-6.567a70.273,70.273,0,0,1,5.905-5.381c4.117-3.438,8.415-6.627,12.421-10.315.5-.481.971-.946,1.47-1.487a5.33,5.33,0,0,0,1.117-2.192,12.609,12.609,0,0,0,.18-4.375,42.581,42.581,0,0,0-1.943-8.011,160.01,160.01,0,0,0-6.129-15.008l-3.352-7.332c-1.109-2.433-2.269-4.882-3.146-7.341a7.613,7.613,0,0,1-.266-.86,1.789,1.789,0,0,1,0-.189l.352.052.989.172,3.971.688c2.656.456,5.3.86,7.968,1.289s5.329.748,8.02,1.014c1.341.12,2.691.223,4.049.258h2.037a6.127,6.127,0,0,0,1.04-.12,3,3,0,0,0,1.057-.37.928.928,0,0,0,.43-.567,1.307,1.307,0,0,0-.069-.619A5.906,5.906,0,0,0,198.308,100.471Zm-29.9-.86Z" transform="translate(-152.68 -48.499)" fill="#919191"/>
        <path id="Caminho_3954" data-name="Caminho 3954" d="M234.755,105.51a2.819,2.819,0,0,0-1.092-.679,8.046,8.046,0,0,0-2.209-.327c-2.862,0-5.613.4-8.372.628-1.384.12-2.759.215-4.135.206a16.143,16.143,0,0,1-2.046-.112,6.981,6.981,0,0,1-1.943-.464,9.069,9.069,0,0,1-3.215-2.415,20.1,20.1,0,0,1-2.364-3.37,37.383,37.383,0,0,1-3.18-7.668l-.189.052a36.961,36.961,0,0,0,3.026,7.805,20.092,20.092,0,0,0,2.338,3.507,9.7,9.7,0,0,0,3.352,2.63,7.831,7.831,0,0,0,2.089.559,17.507,17.507,0,0,0,2.115.163c1.41,0,2.811,0,4.212-.112,2.776-.163,5.57-.524,8.278-.43a7.385,7.385,0,0,1,1.9.309,1.865,1.865,0,0,1,.67.413.954.954,0,0,1,.206.61,3.006,3.006,0,0,1-.06.387c-.052.129-.077.249-.146.387a8.42,8.42,0,0,1-.49.86c-.37.55-.791,1.092-1.221,1.633-1.719,2.132-3.619,4.178-5.476,6.249-3.731,4.135-7.461,8.3-10.882,12.739a74.789,74.789,0,0,0-4.831,6.877c-.378.6-.731,1.212-1.066,1.84s-.662,1.264-.98,1.908-.567,1.315-.86,1.977a12.178,12.178,0,0,0-.679,2.072,13.676,13.676,0,0,0-.516,4.453,7.389,7.389,0,0,0,.138,1.152l.309,1.143c.224.713.473,1.324.722,1.994,1.006,2.579,2.037,5.158,3,7.779s1.908,5.158,2.716,7.822a69.028,69.028,0,0,1,1.883,8.011,41.6,41.6,0,0,1,.481,8.209,38.361,38.361,0,0,1-1.324,8.158l.181.06a35.067,35.067,0,0,0,2.08-8.132,43.452,43.452,0,0,0,0-8.458,61.493,61.493,0,0,0-1.573-8.3c-.739-2.716-1.616-5.39-2.579-8.029s-1.968-5.235-2.94-7.831c-.223-.645-.516-1.315-.713-1.925l-.249-.86c-.052-.3-.077-.61-.12-.92a11.784,11.784,0,0,1,.4-3.8c.138-.645.387-1.272.576-1.908a12.037,12.037,0,0,1,.774-1.865c.3-.61.559-1.229.86-1.831s.636-1.2.98-1.788A75.136,75.136,0,0,1,217.159,130c3.3-4.436,6.928-8.6,10.59-12.834,1.814-2.106,3.67-4.186,5.407-6.4.43-.559.86-1.117,1.246-1.719a9.528,9.528,0,0,0,.55-.971,4.5,4.5,0,0,0,.206-.6,3.071,3.071,0,0,0,.077-.636A1.969,1.969,0,0,0,234.755,105.51Z" transform="translate(-159.411 -51.107)" fill="#919191"/>
      </g>
      <g id="freepik--Dresses--inject-36" transform="translate(31.171 78.282)">
        <path id="Caminho_3955" data-name="Caminho 3955" d="M77.842,90.43v.241c.138,1.719.86,12.163-1.53,15.155-2.579,3.258-8.69,6.946-18.051,8.905s-16.074,3.034-19.117,9.988-5.433,29.329-5.433,29.329a18.094,18.094,0,0,0,6.954,3.688c4.126,1.092,6.731.653,8.252,1.092l1.521.43,3.7-6.954,6.516,34.324-.215,12.163S49.784,221.38,46.1,241.151s-4.728,80.14-4.951,89.492-.86,18.051-.86,18.051l-.215,36.816H150.864s-.438-87-4.564-114.8-18.241-69.515-19.109-71.9a12.894,12.894,0,0,1-1.092-4.341c0-.86-.215-7.169-.653-8.476a9.361,9.361,0,0,1-.43-2.579s3.688-9.559,3.688-14.553v-9.6l2.579,4.564s2.579,2.166,8.037-.223,8.966-8.467,10.685-9.774a12.747,12.747,0,0,0,2.39-2.166s-4.35-16.728-8.252-26.071-18.911-12.6-23.9-14.338-14.553-4.779-16.074-7.6-1.126-13.221-1.126-13.221Z" transform="translate(-33.71 -85.272)" fill="#263238" stroke="#263238" stroke-miterlimit="10" stroke-width="1"/>
        <path id="Caminho_3956" data-name="Caminho 3956" d="M128.687,159.258l2.579,4.564s2.579,2.166,8.037-.223,8.983-8.467,10.7-9.774a12.747,12.747,0,0,0,2.39-2.166s-4.35-16.728-8.252-26.071-18.911-12.6-23.9-14.338-14.553-4.779-16.074-7.6-1.126-13.221-1.126-13.221h-25.2v.241c.138,1.719.86,12.163-1.53,15.155-2.579,3.258-8.69,6.946-18.051,8.905s-16.074,3.034-19.117,9.988-5.433,29.329-5.433,29.329a18.1,18.1,0,0,0,6.954,3.688c4.126,1.092,6.731.653,8.252,1.092l1.521.43,3.7-6.954,6.516,34.324s38.845,7.882,64.3-3.258c0,0,3.688-9.559,3.688-14.553Z" transform="translate(-33.71 -85.272)" fill="#fff" stroke="#263238" stroke-miterlimit="10" stroke-width="1"/>
        <path id="Caminho_3957" data-name="Caminho 3957" d="M95.127,120.808c15.008.567,24.2-5.6,28.779-9.971-5.158-1.779-13.47-4.573-14.88-7.186-1.521-2.828-1.126-13.221-1.126-13.221H82.723v.241c.138,1.719.86,12.163-1.53,15.155-2.072,2.579-6.352,5.45-12.713,7.5C71.738,115.951,79.354,120.215,95.127,120.808Z" transform="translate(-38.592 -85.272)" fill="#858585" stroke="#263238" stroke-linecap="round" stroke-linejoin="round" stroke-width="1"/>
        <path id="Caminho_3958" data-name="Caminho 3958" d="M110.228,89.588c0,2.837-5.63,5.158-12.584,5.158S85.05,92.45,85.05,89.588s5.639-5.158,12.593-5.158S110.228,86.76,110.228,89.588Z" transform="translate(-40.918 -84.43)" fill="#a3a3a3" stroke="#263238" stroke-linecap="round" stroke-linejoin="round" stroke-width="1"/>
        <path id="Caminho_3959" data-name="Caminho 3959" d="M77.767,205.15a6.963,6.963,0,0,0-1.143,4.874c.284,3.146.284,9.163.284,9.163S75.48,236.1,75.764,250.708" transform="translate(-39.609 -101.38)" fill="none" stroke="gray" stroke-miterlimit="10" stroke-width="1"/>
        <path id="Caminho_3960" data-name="Caminho 3960" d="M72.806,218.15s-5.45,31.521-3.438,46.418" transform="translate(-38.654 -103.205)" fill="none" stroke="gray" stroke-miterlimit="10" stroke-width="1"/>
        <path id="Caminho_3961" data-name="Caminho 3961" d="M55.655,267.92c-.095.86-.163,1.668-.215,2.493" transform="translate(-36.761 -110.193)" fill="none" stroke="gray" stroke-miterlimit="10" stroke-width="1"/>
        <path id="Caminho_3962" data-name="Caminho 3962" d="M69.05,221.82s-9.456,17.974-12.55,34.943" transform="translate(-36.91 -103.72)" fill="none" stroke="gray" stroke-miterlimit="10" stroke-width="1"/>
        <path id="Caminho_3963" data-name="Caminho 3963" d="M120.315,273.68c-.052,1.229-.12,2.424-.215,3.559" transform="translate(-45.84 -111.002)" fill="none" stroke="gray" stroke-miterlimit="10" stroke-width="1"/>
        <path id="Caminho_3964" data-name="Caminho 3964" d="M117.1,208.48v10.031s2.94,23.063,2.888,41.037" transform="translate(-45.419 -101.847)" fill="none" stroke="gray" stroke-miterlimit="10" stroke-width="1"/>
        <path id="Caminho_3965" data-name="Caminho 3965" d="M131.77,204.15l1.143,10.891s7.453,25.5,7.453,46.126" transform="translate(-47.478 -101.239)" fill="none" stroke="gray" stroke-miterlimit="10" stroke-width="1"/>
        <path id="Caminho_3966" data-name="Caminho 3966" d="M151.46,261.68a44.154,44.154,0,0,1,.55,6.421" transform="translate(-50.243 -109.317)" fill="none" stroke="gray" stroke-miterlimit="10" stroke-width="1"/>
        <path id="Caminho_3967" data-name="Caminho 3967" d="M136.1,202.15c0,.86,1.436,11.175,1.436,11.175s7.135,18.258,10.547,33.524" transform="translate(-48.086 -100.959)" fill="none" stroke="gray" stroke-miterlimit="10" stroke-width="1"/>
        <path id="Caminho_3968" data-name="Caminho 3968" d="M288.428,85.17A24.928,24.928,0,0,0,263.5,110.1V372.7h7.736V110.1a17.192,17.192,0,0,1,17.192-17.192H448.742V85.17Z" transform="translate(-65.974 -84.534)" fill="#fff" stroke="#263238" stroke-miterlimit="10" stroke-width="1"/>
        <path id="Caminho_3969" data-name="Caminho 3969" d="M433.521,140.357l-4.917-3.4A46.365,46.365,0,0,1,412.6,116.9l-4.1-9.559h-6.507l-4.135,9.559a46.418,46.418,0,0,1-16.014,20.063l-4.917,3.4a11.02,11.02,0,0,0-4.436,9.086h65.432a11.02,11.02,0,0,0-4.4-9.086Zm-26.45,5.063H378.945c0-3.017,4.814-5.811,6.713-7.35l3.438-2.751a37.082,37.082,0,0,0,11.054-16.238l2.837-7.736h4.5l2.837,7.736A37.083,37.083,0,0,0,421.418,135.3l3.438,2.751c1.908,1.539,6.619,4.3,6.619,7.35Z" transform="translate(-81.277 -87.647)" fill="#fff" stroke="#263238" stroke-linejoin="round" stroke-width="1"/>
        <path id="Caminho_3970" data-name="Caminho 3970" d="M410.059,103.975V96.961s4.006-3.009,4.006-7.358-3.335-6.017-7.014-4.676" transform="translate(-86.129 -84.436)" fill="none" stroke="#263238" stroke-linecap="round" stroke-linejoin="round" stroke-width="1"/>
        <path id="Caminho_3971" data-name="Caminho 3971" d="M392.912,120.463l7.573,21.774,9.266-23.776s15.825,16.2,21.026,19.04,9.937,6.627,11.364,14.2,8.991,83.269,8.991,83.269l-17.51.946,1.582,42.894H364.519l4.3-44.7H352.21s10.41-81.885,13.255-87.567S392.912,120.463,392.912,120.463Z" transform="translate(-78.429 -89.208)" fill="#263238" stroke="#263238" stroke-linejoin="round" stroke-width="1"/>
        <path id="Caminho_3972" data-name="Caminho 3972" d="M391.3,125.536l4.264,23.192,8.991-15.146-5.682-16.092Z" transform="translate(-83.918 -89.072)" fill="#fff" stroke="#263238" stroke-linejoin="round" stroke-width="1"/>
        <path id="Caminho_3973" data-name="Caminho 3973" d="M417.868,118.46l-7.848,15.731,8.046,15.619,6.628-26.037Z" transform="translate(-86.546 -89.208)" fill="#fff" stroke="#263238" stroke-linejoin="round" stroke-width="1"/>
        <line id="Linha_264" data-name="Linha 264" x1="3.791" y1="71.939" transform="translate(351.402 74.802)" fill="none" stroke="gray" stroke-miterlimit="10" stroke-width="1"/>
        <line id="Linha_265" data-name="Linha 265" y1="70.048" x2="6.627" transform="translate(290.345 74.802)" fill="none" stroke="#263238" stroke-linejoin="round" stroke-width="1"/>
        <path id="Caminho_3974" data-name="Caminho 3974" d="M411.718,140.357l-4.883-3.4A46.418,46.418,0,0,1,390.83,116.9l-4.1-9.559h-6.542l-4.1,9.559a46.419,46.419,0,0,1-16.006,20.063l-4.917,3.4a11.02,11.02,0,0,0-4.436,9.086h65.424a11.02,11.02,0,0,0-4.436-9.086Zm-26.45,5.063H357.151c0-3.017,4.805-5.811,6.714-7.35l3.438-2.751a37.04,37.04,0,0,0,11.08-16.221l2.837-7.736h4.513l2.837,7.736a37.068,37.068,0,0,0,11.08,16.221l3.438,2.751c1.908,1.539,6.627,4.3,6.627,7.35Z" transform="translate(-78.221 -87.647)" fill="#fff" stroke="#263238" stroke-linejoin="round" stroke-width="1"/>
        <path id="Caminho_3975" data-name="Caminho 3975" d="M388.249,103.975V96.961s4.014-3.009,4.014-7.358-3.344-6.017-7.023-4.676" transform="translate(-83.067 -84.436)" fill="none" stroke="#263238" stroke-linecap="round" stroke-linejoin="round" stroke-width="1"/>
        <path id="Caminho_3976" data-name="Caminho 3976" d="M371.11,120.463l7.573,21.774,9.258-23.776s15.825,16.2,21.034,19.04,9.937,6.627,11.355,14.2,8.991,83.269,8.991,83.269l-17.51.946,1.625,42.894H342.709l4.3-44.7H330.4s10.418-81.885,13.255-87.567S371.11,120.463,371.11,120.463Z" transform="translate(-75.367 -89.208)" fill="#8f00fc" stroke="#263238" stroke-linejoin="round" stroke-width="1"/>
        <path id="Caminho_3977" data-name="Caminho 3977" d="M369.5,125.536l4.255,23.192,9-15.146-5.682-16.092Z" transform="translate(-80.857 -89.072)" fill="#fff" stroke="#263238" stroke-linejoin="round" stroke-width="1"/>
        <path id="Caminho_3978" data-name="Caminho 3978" d="M396.06,118.46l-7.839,15.731,8.046,15.619,6.627-26.037Z" transform="translate(-83.486 -89.208)" fill="#fff" stroke="#263238" stroke-linejoin="round" stroke-width="1"/>
        <line id="Linha_266" data-name="Linha 266" x1="3.791" y1="71.939" transform="translate(332.654 74.802)" fill="none" stroke="#263238" stroke-linejoin="round" stroke-width="1"/>
        <line id="Linha_267" data-name="Linha 267" y1="70.048" x2="6.619" transform="translate(271.606 74.802)" fill="none" stroke="#263238" stroke-linejoin="round" stroke-width="1"/>
        <path id="Caminho_3979" data-name="Caminho 3979" d="M363.4,143.494l-5.158-3.593a49,49,0,0,1-16.908-21.18l-4.3-10.1H330.16l-4.3,10.1a49,49,0,0,1-17,21.172l-5.157,3.593a11.63,11.63,0,0,0-4.7,9.6h69.1a11.63,11.63,0,0,0-4.7-9.593Zm-27.937,5.347h-29.7c0-3.189,5.08-6.137,7.092-7.736l3.593-2.931a39.154,39.154,0,0,0,11.708-17.132l3-8.175h4.754l3,8.175a38.87,38.87,0,0,0,11.708,17.132l3.593,2.905c2.011,1.625,6.989,4.573,6.989,7.736Z" transform="translate(-70.958 -87.826)" fill="#fff" stroke="#263238" stroke-linejoin="round" stroke-width="1"/>
        <path id="Caminho_3980" data-name="Caminho 3980" d="M338.61,105.065V97.647s4.229-3.172,4.229-7.736-3.481-6.378-7.41-4.986" transform="translate(-76.073 -84.435)" fill="none" stroke="#263238" stroke-linecap="round" stroke-linejoin="round" stroke-width="1"/>
        <path id="Caminho_3981" data-name="Caminho 3981" d="M311.456,136.17s7.874,9.077,17.768,9.232c10.5.163,22.848-9.026,22.848-9.026a51.67,51.67,0,0,0,9.146,6.318c5.493,3,9.112,7.384,11.991,15,3.215,8.476,10.315,31.547,10.315,31.547l-20.441,1,2.8,46.358H297.9l4.607-47.226H282.66s6.576-31.177,9.576-37.177S311.456,136.17,311.456,136.17Z" transform="translate(-68.664 -91.695)" fill="#fff" stroke="#263238" stroke-linejoin="round" stroke-width="1"/>
        <line id="Linha_268" data-name="Linha 268" y1="24.782" x2="1.04" transform="translate(233.844 72.894)" fill="none" stroke="#263238" stroke-linejoin="round" stroke-width="1"/>
        <line id="Linha_269" data-name="Linha 269" x1="1.599" y1="24.069" transform="translate(292.82 74.475)" fill="none" stroke="#263238" stroke-linejoin="round" stroke-width="1"/>
      </g>
      <g id="freepik--Table--inject-36" transform="translate(19.67 378.736)">
        <line id="Linha_270" data-name="Linha 270" x2="395.413" fill="none" stroke="#263238" stroke-linecap="round" stroke-linejoin="round" stroke-width="1"/>
      </g>
      <g id="freepik--Plant--inject-36" transform="translate(15.63 304.647)">
        <path id="Caminho_3982" data-name="Caminho 3982" d="M38.452,374.165s-.2-5.158-2.381-8.734-10.117-6.155-14.286-4.367a57.507,57.507,0,0,0-6.155,2.974A46.8,46.8,0,0,1,27.338,369.6a29.518,29.518,0,0,0,11.115,4.564Z" transform="translate(-15.63 -349.555)" fill="#8f00fc" stroke="#263238" stroke-linecap="round" stroke-linejoin="round" stroke-width="1"/>
        <path id="Caminho_3983" data-name="Caminho 3983" d="M50.952,374.959s-4.762-4.564-5.553-10.917,5.957-16.272,5.957-16.272a70.777,70.777,0,0,1,5.355,13.3C58.7,368.211,50.952,374.959,50.952,374.959Z" transform="translate(-19.801 -347.77)" fill="#8f00fc" stroke="#263238" stroke-linecap="round" stroke-linejoin="round" stroke-width="1"/>
        <path id="Caminho_3984" data-name="Caminho 3984" d="M62.437,374.9s-1.186-5.957,1-10.117,7.934-3.774,13.685-1.986,7.547,1.788,7.547,1.788a85.6,85.6,0,0,1-12.507,6.945,76.634,76.634,0,0,1-9.722,3.37Z" transform="translate(-22.157 -349.701)" fill="#8f00fc" stroke="#263238" stroke-linecap="round" stroke-linejoin="round" stroke-width="1"/>
        <path id="Caminho_3985" data-name="Caminho 3985" d="M51.856,397.2a.516.516,0,0,1-.516-.516V368.316a.516.516,0,0,1,.516-.516.507.507,0,0,1,.507.516v28.367a.507.507,0,0,1-.507.516Z" transform="translate(-20.644 -350.582)" fill="#263238"/>
        <path id="Caminho_3986" data-name="Caminho 3986" d="M54.625,397.494h-.077a.524.524,0,0,1-.438-.576c.1-.713,2.5-17.527,10.642-26.862a.516.516,0,0,1,.774.679c-7.943,9.1-10.375,26.149-10.392,26.321a.516.516,0,0,1-.507.438Z" transform="translate(-21.032 -350.878)" fill="#263238"/>
        <path id="Caminho_3987" data-name="Caminho 3987" d="M47.5,397.351h0a.507.507,0,0,1-.507-.516c0-.163.077-16.332-9.533-24a.516.516,0,0,1,.645-.8c10,8,9.92,24.129,9.911,24.808a.507.507,0,0,1-.516.507Z" transform="translate(-18.674 -351.165)" fill="#263238"/>
        <path id="Caminho_3988" data-name="Caminho 3988" d="M58.316,399.55a.383.383,0,0,1-.138,0,.516.516,0,0,1-.361-.628,33.249,33.249,0,0,1,4.642-9.7.524.524,0,0,1,.722-.112.516.516,0,0,1,.112.722,32.665,32.665,0,0,0-4.461,9.335A.507.507,0,0,1,58.316,399.55Z" transform="translate(-21.551 -353.561)" fill="#263238"/>
        <path id="Caminho_3989" data-name="Caminho 3989" d="M62,391.024s-.2-5.553,2.183-6.344,4.564,1.186,6.352,2.381,3.765,2.381,3.765,5.948a67.329,67.329,0,0,1-1.384,10.126s-1.986-6.155-5.364-8.931S62,391.024,62,391.024Z" transform="translate(-22.14 -352.927)" fill="#8f00fc" stroke="#263238" stroke-linecap="round" stroke-linejoin="round" stroke-width="1"/>
        <path id="Caminho_3990" data-name="Caminho 3990" d="M44.045,400.036a.516.516,0,0,1-.49-.352,18.182,18.182,0,0,0-5.158-7.693.507.507,0,0,1-.086-.722.524.524,0,0,1,.722-.086,19.052,19.052,0,0,1,5.527,8.183.516.516,0,0,1-.335.645Z" transform="translate(-18.799 -353.851)" fill="#263238"/>
        <path id="Caminho_3991" data-name="Caminho 3991" d="M39.554,392.895s.791-3.585-1.195-6.163-6.748-1.986-9.129.791-5.751,11.115-5.751,11.115,4.762-3.774,10.315-3.774S39.554,392.895,39.554,392.895Z" transform="translate(-16.732 -353.009)" fill="#8f00fc" stroke="#263238" stroke-linecap="round" stroke-linejoin="round" stroke-width="1"/>
        <path id="Caminho_3992" data-name="Caminho 3992" d="M56.691,432.612H40.857L32.94,406.42H64.607Z" transform="translate(-18.06 -356.005)" fill="#fff" stroke="#263238" stroke-linecap="round" stroke-linejoin="round" stroke-width="1"/>
        <rect id="Retângulo_357" data-name="Retângulo 357" width="31.848" height="4.341" transform="translate(14.785 46.074)" fill="#fff" stroke="#263238" stroke-linecap="round" stroke-linejoin="round" stroke-width="1"/>
      </g>
      <g id="freepik--Threads--inject-36" transform="translate(339.585 333.831)">
        <rect id="Retângulo_358" data-name="Retângulo 358" width="7.444" height="4.307" transform="translate(30.292)" fill="#fff" stroke="#263238" stroke-linecap="round" stroke-linejoin="round" stroke-width="1"/>
        <path id="Caminho_3993" data-name="Caminho 3993" d="M443.845,429.656H415.71l6.662-44.286h14.811Z" transform="translate(-395.759 -382.233)" fill="#858585" stroke="#263238" stroke-linecap="round" stroke-linejoin="round" stroke-width="1"/>
        <line id="Linha_271" data-name="Linha 271" y1="7.255" x2="13.616" transform="translate(25.71 3.198)" fill="none" stroke="#263238" stroke-linecap="round" stroke-linejoin="round" stroke-width="1"/>
        <line id="Linha_272" data-name="Linha 272" y1="7.246" x2="13.616" transform="translate(25.71 6.903)" fill="none" stroke="#263238" stroke-linecap="round" stroke-linejoin="round" stroke-width="1"/>
        <line id="Linha_273" data-name="Linha 273" x1="13.771" y2="7.702" transform="translate(28.521 10.745)" fill="none" stroke="#263238" stroke-linecap="round" stroke-linejoin="round" stroke-width="1"/>
        <line id="Linha_274" data-name="Linha 274" y1="2.372" x2="4.736" transform="translate(28.083 20.811)" fill="none" stroke="#263238" stroke-linecap="round" stroke-linejoin="round" stroke-width="1"/>
        <line id="Linha_275" data-name="Linha 275" x1="19.839" y2="10.367" transform="translate(25.117 28.066)" fill="none" stroke="#263238" stroke-linecap="round" stroke-linejoin="round" stroke-width="1"/>
        <line id="Linha_276" data-name="Linha 276" y1="8.295" x2="15.842" transform="translate(27.189 34.134)" fill="none" stroke="#263238" stroke-linecap="round" stroke-linejoin="round" stroke-width="1"/>
        <line id="Linha_277" data-name="Linha 277" x1="3.851" y2="2.218" transform="translate(21.567 43.169)" fill="none" stroke="#263238" stroke-linecap="round" stroke-linejoin="round" stroke-width="1"/>
        <line id="Linha_278" data-name="Linha 278" x1="10.212" y2="5.329" transform="translate(36.223 39.911)" fill="none" stroke="#263238" stroke-linecap="round" stroke-linejoin="round" stroke-width="1"/>
        <rect id="Retângulo_359" data-name="Retângulo 359" width="7.444" height="4.307" transform="translate(10.341)" fill="#fff" stroke="#263238" stroke-linecap="round" stroke-linejoin="round" stroke-width="1"/>
        <path id="Caminho_3994" data-name="Caminho 3994" d="M420.626,429.656H392.5l6.653-44.286h14.819Z" transform="translate(-392.5 -382.233)" fill="#fff" stroke="#263238" stroke-linecap="round" stroke-linejoin="round" stroke-width="1"/>
        <line id="Linha_279" data-name="Linha 279" y1="7.255" x2="13.616" transform="translate(5.759 3.198)" fill="none" stroke="#263238" stroke-linecap="round" stroke-linejoin="round" stroke-width="1"/>
        <line id="Linha_280" data-name="Linha 280" y1="7.246" x2="13.616" transform="translate(5.759 6.903)" fill="none" stroke="#263238" stroke-linecap="round" stroke-linejoin="round" stroke-width="1"/>
        <line id="Linha_281" data-name="Linha 281" x1="13.762" y2="7.702" transform="translate(8.57 10.745)" fill="none" stroke="#263238" stroke-linecap="round" stroke-linejoin="round" stroke-width="1"/>
        <line id="Linha_282" data-name="Linha 282" y1="2.372" x2="4.736" transform="translate(8.123 20.811)" fill="none" stroke="#263238" stroke-linecap="round" stroke-linejoin="round" stroke-width="1"/>
        <line id="Linha_283" data-name="Linha 283" x1="19.831" y2="10.367" transform="translate(5.166 28.066)" fill="none" stroke="#263238" stroke-linecap="round" stroke-linejoin="round" stroke-width="1"/>
        <line id="Linha_284" data-name="Linha 284" y1="8.295" x2="15.834" transform="translate(7.238 34.134)" fill="none" stroke="#263238" stroke-linecap="round" stroke-linejoin="round" stroke-width="1"/>
        <line id="Linha_285" data-name="Linha 285" x1="3.851" y2="2.218" transform="translate(1.607 43.169)" fill="none" stroke="#263238" stroke-linecap="round" stroke-linejoin="round" stroke-width="1"/>
        <line id="Linha_286" data-name="Linha 286" x1="10.212" y2="5.329" transform="translate(16.264 39.911)" fill="none" stroke="#263238" stroke-linecap="round" stroke-linejoin="round" stroke-width="1"/>
      </g>
      <g id="freepik--Character--inject-36" transform="translate(82.712 133.017)">
        <path id="Caminho_3995" data-name="Caminho 3995" d="M255.887,257.549s-34.091,6.585-43.263,8.88-12.61,9.172-15.756,16.908-25.5,56.733-26.647,59.6,6.017,4.582,14.9,7.736,14.037,6.593,16.616,3.155S210.9,337.2,210.9,337.2l-2.862,71.939h105.73l-4.59-75.068s4.014-58.452,3.731-60.747-35.243-16.049-38.974-16.332S255.887,257.549,255.887,257.549Z" transform="translate(-104.401 -163.385)" fill="#8f00fc"/>
        <g id="Grupo_764" data-name="Grupo 764" transform="translate(72.224 105.812)" opacity="0.4">
          <path id="Caminho_3996" data-name="Caminho 3996" d="M215.892,391.62l-.172,4.4a366.975,366.975,0,0,0,102.6,1.6l-.266-4.3a360.362,360.362,0,0,1-102.163-1.7Z" transform="translate(-183.03 -288.108)" fill="#fff"/>
          <path id="Caminho_3997" data-name="Caminho 3997" d="M303.624,310.115c-2,1.771-20.338,17.493-41.579,18.911-22.5,1.487-42.017-9.971-42.12-10.04l-25.736-16.728c-.567,1.272-1.16,2.579-1.779,3.971l25.246,16.41c.86.5,20.837,12.241,44.7,10.676s43.556-19.418,44.381-20.175a2.1,2.1,0,0,0,.335-.4,78.4,78.4,0,0,1,7.685-9.413c.138-2.218.275-4.393.4-6.473A81.931,81.931,0,0,0,303.624,310.115Z" transform="translate(-179.757 -274.803)" fill="#fff"/>
          <path id="Caminho_3998" data-name="Caminho 3998" d="M179.461,335.76l-1.771,3.92,31.581,13.865c.791-1.521,1.479-2.871,1.968-3.825Z" transform="translate(-177.69 -280.265)" fill="#fff"/>
          <path id="Caminho_3999" data-name="Caminho 3999" d="M201.8,284.171c11.243,5.777,43.212,21.834,53.424,22.822s44.467-22.814,59.467-33.636c-1.16-.636-2.648-1.367-4.358-2.158-20.243,14.476-47.665,32.192-54.7,31.513-8.415-.808-35.888-14.106-52.066-22.461C202.943,281.515,202.359,282.822,201.8,284.171Z" transform="translate(-181.075 -271.2)" fill="#fff"/>
          <path id="Caminho_4000" data-name="Caminho 4000" d="M217.753,355.677c1.461.447,36.1,10.865,62.75,7.736,22.831-2.648,32.776-10.315,35.544-12.963l-.275-4.5s.1-1.521.284-4.066a16.394,16.394,0,0,0-2.742,5.261c-1.719,1.719-10.848,9.456-33.266,12.034-25.031,2.9-58.667-6.877-60.928-7.573l-1.659-.731-.181,4.607.232.112Z" transform="translate(-183.249 -281.124)" fill="#fff"/>
          <path id="Caminho_4001" data-name="Caminho 4001" d="M244.114,317.707c18.567,3.155,41.106-7.625,55.212-19.711,5.063-4.341,11.321-9.094,17.132-13.315.12-2.218.215-4.092.275-5.5-6.61,4.736-14.218,10.418-20.2,15.55-13.341,11.441-34.5,21.67-51.7,18.739C230.85,311.088,208,295.478,199.5,289.4c-.5,1.143-1.092,2.5-1.771,4.031C206.979,300.025,229.492,315.223,244.114,317.707Z" transform="translate(-180.504 -272.321)" fill="#fff"/>
          <path id="Caminho_4002" data-name="Caminho 4002" d="M319.289,418.644l-.266-4.3c-22,1.135-65.742,2.665-104.011-.456l-.172,4.3c16.977,1.375,34.985,1.857,51.722,1.857C287.794,420.045,306.954,419.28,319.289,418.644Z" transform="translate(-182.906 -291.235)" fill="#fff"/>
          <path id="Caminho_4003" data-name="Caminho 4003" d="M231.4,380.389c26.1,3.774,74.544.052,86.106-.928l-.774-12.73a11.661,11.661,0,0,0-.507,1.152,2.089,2.089,0,0,0-.112,1.143l1.117,6.138c-11.175.937-59.853,4.642-85.22.971-5.029-.731-10.255-1.625-15.473-2.579l-.172,4.341C221.442,378.816,226.5,379.676,231.4,380.389Z" transform="translate(-183.121 -284.613)" fill="#fff"/>
          <path id="Caminho_4004" data-name="Caminho 4004" d="M213.98,338.049c1.719,1.014,25.857,15.266,51.687,12.18,26.2-3.12,43.607-20.261,44.338-20.991a1.72,1.72,0,0,0,.438-.645,10.7,10.7,0,0,1,1.986-2.338q.193-2.875.4-6.017c-4.014,3.06-5.544,5.158-6.095,6.146-2.115,2-18.455,16.788-41.57,19.547-24.7,2.957-48.765-11.476-49-11.622l-.112-.069L187.041,319c-.593,1.3-1.186,2.579-1.771,3.92Z" transform="translate(-178.754 -277.911)" fill="#fff"/>
        </g>
        <line id="Linha_287" data-name="Linha 287" y1="34.47" x2="7.152" transform="translate(106.504 139.344)" fill="#fff" stroke="#263238" stroke-linecap="round" stroke-linejoin="round" stroke-width="1"/>
        <path id="Caminho_4005" data-name="Caminho 4005" d="M211.93,269.435c10.315,7.195,40.4,27.834,46.109,27.361,5.226-.43,29.011-22.728,40.109-33.4-8.441-3.37-16.633-6.3-18.335-6.43-3.722-.284-18.051.576-18.051.576s-34.091,6.584-43.263,8.88A18.671,18.671,0,0,0,211.93,269.435Z" transform="translate(-110.274 -163.382)" fill="#fff" stroke="#263238" stroke-linecap="round" stroke-linejoin="round" stroke-width="1"/>
        <path id="Caminho_4006" data-name="Caminho 4006" d="M255.887,257.549s-34.091,6.585-43.263,8.88-12.61,9.172-15.756,16.908-25.5,56.733-26.647,59.6,6.017,4.582,14.9,7.736,14.037,6.593,16.616,3.155S210.9,337.2,210.9,337.2l-2.862,71.939h105.73l-4.59-75.068s4.014-58.452,3.731-60.747-35.243-16.049-38.974-16.332S255.887,257.549,255.887,257.549Z" transform="translate(-104.401 -163.385)" fill="none" stroke="#263238" stroke-linecap="round" stroke-linejoin="round" stroke-width="1"/>
        <path id="Caminho_4007" data-name="Caminho 4007" d="M298.882,259s-.86,16.908-4.59,41.836-3.722,23.776-3.722,35.243,2.862,48.137,2.862,48.137h4.59s-3.731-38.682-3.438-48.713,2.579-30.086,5.158-38.965S303.18,261.3,303.18,261.3Z" transform="translate(-121.315 -163.675)" fill="#fff" stroke="#263238" stroke-linecap="round" stroke-linejoin="round" stroke-width="1"/>
        <path id="Caminho_4008" data-name="Caminho 4008" d="M257.722,259.36l-6.1,1.41a167.073,167.073,0,0,0-1.427,32.665c1.152,16.049,2.862,20.914,2.862,20.914s1.436-38.965,2.579-46.126S257.722,259.36,257.722,259.36Z" transform="translate(-115.605 -163.726)" fill="#fff" stroke="#263238" stroke-linecap="round" stroke-linejoin="round" stroke-width="1"/>
        <path id="Caminho_4009" data-name="Caminho 4009" d="M253.289,323.31s.576,18.051-.576,36.963-1.143,35.536-1.143,35.536l5.158.284s-.576-21.773-.576-40.117A185.256,185.256,0,0,0,253.289,323.31Z" transform="translate(-115.84 -172.705)" fill="#fff" stroke="#263238" stroke-linecap="round" stroke-linejoin="round" stroke-width="1"/>
        <path id="Caminho_4010" data-name="Caminho 4010" d="M262.9,273.923l.86-28.943h29.8l-.576,26.364" transform="translate(-117.43 -161.707)" fill="#fff" stroke="#263238" stroke-linecap="round" stroke-linejoin="round" stroke-width="1"/>
        <path id="Caminho_4011" data-name="Caminho 4011" d="M293.433,252.908,286.187,245H263.838l-.628,21.163c1.668.653,5.63,1.556,12.524-.456,8.9-2.579,16.753-11.433,17.725-12.559Z" transform="translate(-117.474 -161.71)" fill="#263238" stroke="#263238" stroke-linecap="round" stroke-linejoin="round" stroke-width="1"/>
        <path id="Caminho_4012" data-name="Caminho 4012" d="M243.91,160.745c-5.966,5.966-10.968,14.226-11.218,21.49-.3,8.553-5.3,20.63-7.96,21.808a12.757,12.757,0,0,0-3.533,2.063s5.6,2.656,7.951,2.355a18.38,18.38,0,0,0,4.427-1.135,43.332,43.332,0,0,1-2.948,3.542l-1.178,1.178,4.711,1.178a24.569,24.569,0,0,1-5.6,2.648,17.41,17.41,0,0,1-3.834.593,8.941,8.941,0,0,0,6.782,7.074,26.15,26.15,0,0,0,10.9.86l-3.533,3.559s.86.86,6.774,1.178,8.837-1.47,8.837-1.47l36.249-1.478s.86,2.948,5.011,4.418,6.189,2.063,6.189,2.063-.593-2.355-.86-3.533-.86-5.9-.86-5.9,2.063,5.3,11.785,5.6,12.963-5.3,12.963-5.3a7.831,7.831,0,0,1-5.948-3.318c-2.355-3.241-2.656-4.427-2.656-4.427a18.117,18.117,0,0,0,6.782,1.186,10.763,10.763,0,0,0,5.3-2.364s-11.493-8.252-12.086-13.848-2.063-27.4-6.189-34.771S299,151.857,280.71,148.608c-9.877-1.719-20.252,1.143-28.882,5.948A36.868,36.868,0,0,0,243.91,160.745Z" transform="translate(-111.576 -148.105)" fill="#263238" stroke="#263238" stroke-linecap="round" stroke-linejoin="round" stroke-width="1"/>
        <path id="Caminho_4013" data-name="Caminho 4013" d="M294.984,194.07S277.422,209.3,250.13,213.523c0,0,.077,17.338,9.455,28.917,10.161,12.576,16.4,12.679,19.014,12.473,7.109-.559,21.6-17.347,22.246-20.269s1.607-13.986,1.607-21.12S294,201.54,294.984,194.07Z" transform="translate(-115.637 -154.559)" fill="#fff" stroke="#263238" stroke-linecap="round" stroke-linejoin="round" stroke-width="1"/>
        <path id="Caminho_4014" data-name="Caminho 4014" d="M243.5,218.707a.92.92,0,1,1,0-1.84c36.008-1,48.954-20.94,49.083-21.146a.92.92,0,0,1,1.547.98c-.533.86-13.521,20.974-50.578,22.006Z" transform="translate(-114.577 -154.741)" fill="#263238"/>
        <path id="Caminho_4015" data-name="Caminho 4015" d="M262.73,228.78a16.547,16.547,0,0,0,6.275,0" transform="translate(-117.407 -159.432)" fill="none" stroke="#263238" stroke-linecap="round" stroke-linejoin="round" stroke-width="1"/>
        <path id="Caminho_4016" data-name="Caminho 4016" d="M293.42,228.375a17.561,17.561,0,0,0,7.238-.155" transform="translate(-121.716 -159.354)" fill="none" stroke="#263238" stroke-linecap="round" stroke-linejoin="round" stroke-width="1"/>
        <path id="Caminho_4017" data-name="Caminho 4017" d="M297.577,225.229c0,1.427-.576,2.579-1.3,2.579s-1.289-1.16-1.289-2.579.576-2.579,1.289-2.579S297.577,223.81,297.577,225.229Z" transform="translate(-121.936 -158.572)" fill="#263238"/>
        <path id="Caminho_4018" data-name="Caminho 4018" d="M303.4,220.671c-.524-1.006-1.719-1.65-3.645-1.917-3.017-.421-19.375.671-20.072.713l-.284.06a4.044,4.044,0,0,0-.507.258V219.7h-5.1v.086a4.047,4.047,0,0,0-.507-.258l-.284-.06c-.7-.043-17.054-1.143-20.072-.713-1.891.266-3.12.911-3.645,1.917a2.51,2.51,0,0,0,0,2.355c.069.146.155.387.266.7.946,2.665,3.438,9.748,12.327,10.092h1.169c8.862,0,11.029-4.186,12.352-8.149a8.213,8.213,0,0,0,.249-.98h1.315a8.2,8.2,0,0,0,.249.98c1.324,3.963,3.481,8.149,12.352,8.149h1.169c8.871-.344,11.381-7.427,12.327-10.092.112-.318.2-.559.266-.7A2.51,2.51,0,0,0,303.4,220.671Zm-27.988.954h1.865a3.953,3.953,0,0,0-.344,1.169h-1.178a3.951,3.951,0,0,0-.344-1.178Zm-1.8,3.438c-1.307,3.92-3.077,7.126-11.622,6.817-7.564-.292-9.688-6.266-10.6-8.819-.146-.413-.258-.731-.352-.92a.671.671,0,0,1-.052-.6c.077-.146.473-.662,2.218-.911a19.43,19.43,0,0,1,2.08-.077c4.384,0,13.453.533,17.407.8.447.249,1.762,1.186.92,3.731Zm28.031-2.923c-.095.189-.206.507-.352.92-.911,2.579-3.034,8.527-10.6,8.819-8.536.318-10.315-2.9-11.622-6.817-.86-2.579.473-3.438.92-3.713,4.805-.318,17.192-1.049,19.487-.722,1.719.249,2.14.765,2.218.911a.645.645,0,0,1-.052.619Z" transform="translate(-115.479 -158.011)" fill="#fff" stroke="#263238" stroke-linecap="round" stroke-linejoin="round" stroke-width="1"/>
        <path id="Caminho_4019" data-name="Caminho 4019" d="M274.92,239.426s3.112,2.424,5.355,2.252,4.5-1.719,5.011-2.768" transform="translate(-119.118 -160.855)" fill="none" stroke="#263238" stroke-linecap="round" stroke-linejoin="round" stroke-width="1"/>
        <path id="Caminho_4020" data-name="Caminho 4020" d="M272.11,244.459s1.264,4.143,8.983,3.8c5.467-.249,6.739-4.3,6.739-4.3" transform="translate(-118.724 -161.564)" fill="none" stroke="#263238" stroke-linecap="round" stroke-linejoin="round" stroke-width="1"/>
        <path id="Caminho_4021" data-name="Caminho 4021" d="M288,216.569s5.69-3.095,10.186-2.579,6.387,2.072,6.387,2.072" transform="translate(-120.955 -157.348)" fill="none" stroke="#263238" stroke-linecap="round" stroke-linejoin="round" stroke-width="2"/>
        <path id="Caminho_4022" data-name="Caminho 4022" d="M271.116,216.571a20.294,20.294,0,0,0-8.51-1.375,21.937,21.937,0,0,0-7.736,2.072" transform="translate(-116.303 -157.521)" fill="none" stroke="#263238" stroke-linecap="round" stroke-linejoin="round" stroke-width="2"/>
        <path id="Caminho_4023" data-name="Caminho 4023" d="M266.576,225.229c0,1.427-.584,2.579-1.3,2.579s-1.3-1.16-1.3-2.579.585-2.579,1.3-2.579S266.576,223.81,266.576,225.229Z" transform="translate(-117.582 -158.572)" fill="#263238"/>
        <path id="Caminho_4024" data-name="Caminho 4024" d="M329.26,273.31s14.329,4.59,17.192,7.453,20.63,44.983,25.788,51.859,2.579,10.031,0,12.61-18.911,9.456-25.212,10.031-12.894,2.02-15.765-9.155-3.438-27.223-6.3-35.527-3.722-9.456-3.722-9.456" transform="translate(-125.622 -165.685)" fill="#8f00fc"/>
        <g id="Grupo_765" data-name="Grupo 765" transform="translate(197.346 107.608)" opacity="0.4">
          <path id="Caminho_4025" data-name="Caminho 4025" d="M340.094,313.635c-7.341,4.3-10.771,7.547-12.344,9.456.3,1.779.585,3.653.86,5.587.817-.731,1.3-1.212,1.41-1.315a1.721,1.721,0,0,0,.438-.645s1.805-3.542,11.819-9.4a110.371,110.371,0,0,1,17.14-7.564l-1.814-3.92a112.476,112.476,0,0,0-17.51,7.805Z" transform="translate(-323.882 -277.859)" fill="#fff"/>
          <path id="Caminho_4026" data-name="Caminho 4026" d="M347.483,326.857c-10.65,5.579-15.163,11.054-17.063,14.519.327,2.252.679,4.47,1.083,6.593a13.537,13.537,0,0,0,1.307-1.281,2.3,2.3,0,0,0,.481-1.049c0-.069,1.479-7.272,16.186-14.974A56.869,56.869,0,0,1,365.93,325c-.628-1.307-1.272-2.656-1.917-4.04A61.677,61.677,0,0,0,347.483,326.857Z" transform="translate(-324.257 -279.983)" fill="#fff"/>
          <path id="Caminho_4027" data-name="Caminho 4027" d="M335,359.938a9.455,9.455,0,0,0,2.983,3.387c1.925-3.37,6.765-10.074,16.685-14.776a81.951,81.951,0,0,1,19.977-6.129l-.456-.645a31.9,31.9,0,0,1-2.029-3.275,84.284,84.284,0,0,0-19.332,6.163A42.119,42.119,0,0,0,335,359.938Z" transform="translate(-324.9 -282.446)" fill="#fff"/>
          <path id="Caminho_4028" data-name="Caminho 4028" d="M323.25,306.752c.464,1.212,1.049,2.794,1.719,4.839a.324.324,0,0,0,.077-.069,2.092,2.092,0,0,0,.335-.4c.138-.2,11.493-17.149,25.135-21.739-.731-1.487-1.384-2.794-1.951-3.868C336.608,289.844,326.8,301.921,323.25,306.752Z" transform="translate(-323.25 -275.007)" fill="#fff"/>
          <path id="Caminho_4029" data-name="Caminho 4029" d="M329.76,275.731l2.527-1.831-1.831-.61Z" transform="translate(-324.164 -273.29)" fill="#fff"/>
          <path id="Caminho_4030" data-name="Caminho 4030" d="M326.593,284.676l-2,6.877c6.069-4.719,12.61-9.413,17.785-13.023-1.461-.679-3.095-1.341-4.693-1.96C334.269,278.994,330.435,281.753,326.593,284.676Z" transform="translate(-323.438 -273.751)" fill="#fff"/>
        </g>
        <path id="Caminho_4031" data-name="Caminho 4031" d="M329.26,273.31s14.329,4.59,17.192,7.453,20.63,44.983,25.788,51.859,2.579,10.031,0,12.61-18.911,9.456-25.212,10.031-12.894,2.02-15.765-9.155-3.438-27.223-6.3-35.527-3.722-9.456-3.722-9.456" transform="translate(-125.622 -165.685)" fill="none" stroke="#263238" stroke-miterlimit="10" stroke-width="1"/>
        <path id="Caminho_4032" data-name="Caminho 4032" d="M361.767,372.219s-2.579-11.175-4.865-15.189-19.487-.567-26.08,2.011-40.685,11.458-51.283,14.037-17.484,5.734-21.206,9.456-20.914,12.318-19.771,14.037,6.593,1.719,10.315,1.719,12.894-2.862,13.753-3.438a4.135,4.135,0,0,1,2-.567l-6.3,4.865s.86,2.579,4.014.576,8.88-6.017,10.023-6.877,6.593-2.862,8.312-4.582a15.98,15.98,0,0,0,2.862-4.59s38.974,1.152,57.025-1.719S360.907,374.2,361.767,372.219Z" transform="translate(-114.006 -177.182)" fill="#fff" stroke="#263238" stroke-linecap="round" stroke-linejoin="round" stroke-width="1"/>
        <path id="Caminho_4033" data-name="Caminho 4033" d="M246.57,403.625s0-1.427,3.155-2.579,8.6-2.579,14.9-7.736" transform="translate(-115.138 -182.533)" fill="none" stroke="#263238" stroke-linecap="round" stroke-linejoin="round" stroke-width="1"/>
        <path id="Caminho_4034" data-name="Caminho 4034" d="M268.9,399.854s4.014-2.871,6.31-4.874" transform="translate(-118.273 -182.768)" fill="none" stroke="#263238" stroke-linecap="round" stroke-linejoin="round" stroke-width="1"/>
        <path id="Caminho_4035" data-name="Caminho 4035" d="M242.239,402.637s-.292-2.3,3.438-4.014,7.444-2.862,14.321-8.312" transform="translate(-114.529 -182.112)" fill="none" stroke="#263238" stroke-linecap="round" stroke-linejoin="round" stroke-width="1"/>
        <path id="Caminho_4036" data-name="Caminho 4036" d="M200.552,386.125s-2-7.435-4.874-20.329-14.037-14.329-18.911-13.178-8.02,4.865-6.584,12.6,13.461,30.086,15.18,32.1,13.754.567,16.908-3.155S200.552,386.125,200.552,386.125Z" transform="translate(-104.363 -176.775)" fill="#fff" stroke="#263238" stroke-linecap="round" stroke-linejoin="round" stroke-width="1"/>
        <path id="Caminho_4037" data-name="Caminho 4037" d="M191.055,401.36s10.031-7.453,13.178-8.88,14.329-1.436,18.051-.576,8.6,11.175,8.6,11.175-31.8,1.719-36.387,1.719-6.3.86-6.593-2" transform="translate(-106.9 -182.254)" fill="#fff" stroke="#263238" stroke-linecap="round" stroke-linejoin="round" stroke-width="1"/>
        <path id="Caminho_4038" data-name="Caminho 4038" d="M214.45,404.813s-7.444-7.736-8.88-9.163" transform="translate(-109.381 -182.862)" fill="none" stroke="#263238" stroke-linecap="round" stroke-linejoin="round" stroke-width="1"/>
        <line id="Linha_288" data-name="Linha 288" x1="8.596" y1="10.023" transform="translate(102.206 211.069)" fill="none" stroke="#263238" stroke-linecap="round" stroke-linejoin="round" stroke-width="1"/>
        <path id="Caminho_4039" data-name="Caminho 4039" d="M229.45,403.874s-5.725-8.3-8.88-10.874" transform="translate(-111.487 -182.49)" fill="none" stroke="#263238" stroke-linecap="round" stroke-linejoin="round" stroke-width="1"/>
        <rect id="Retângulo_360" data-name="Retângulo 360" width="9.198" height="14.252" transform="translate(11.872 155.556)" fill="#8f00fc" stroke="#263238" stroke-linecap="round" stroke-linejoin="round" stroke-width="1"/>
        <line id="Linha_289" data-name="Linha 289" y1="4.014" x2="5.407" transform="translate(11.768 155.849)" fill="none" stroke="#263238" stroke-linecap="round" stroke-linejoin="round" stroke-width="1"/>
        <line id="Linha_290" data-name="Linha 290" y1="7.711" x2="9.103" transform="translate(11.966 155.556)" fill="none" stroke="#263238" stroke-linecap="round" stroke-linejoin="round" stroke-width="1"/>
        <line id="Linha_291" data-name="Linha 291" x2="3.009" y2="4.41" transform="translate(13.367 162.063)" fill="none" stroke="#263238" stroke-linecap="round" stroke-linejoin="round" stroke-width="1"/>
        <line id="Linha_292" data-name="Linha 292" x2="3.413" y2="5.209" transform="translate(15.972 160.061)" fill="none" stroke="#263238" stroke-linecap="round" stroke-linejoin="round" stroke-width="1"/>
        <line id="Linha_293" data-name="Linha 293" x2="2.398" y2="4.401" transform="translate(18.585 157.86)" fill="none" stroke="#263238" stroke-linecap="round" stroke-linejoin="round" stroke-width="1"/>
        <line id="Linha_294" data-name="Linha 294" y1="6.009" x2="8.415" transform="translate(12.568 163.869)" fill="none" stroke="#263238" stroke-linecap="round" stroke-linejoin="round" stroke-width="1"/>
        <line id="Linha_295" data-name="Linha 295" y1="2.003" x2="3.404" transform="translate(17.382 167.479)" fill="none" stroke="#263238" stroke-linecap="round" stroke-linejoin="round" stroke-width="1"/>
        <path id="Caminho_4040" data-name="Caminho 4040" d="M170.385,345.18l-1.84,2.106h-44.1l-1.831-2.106H96.95v19.642h99.094V345.18Z" transform="translate(-94.13 -175.776)" fill="#fff" stroke="#263238" stroke-linecap="round" stroke-linejoin="round" stroke-width="1"/>
        <path id="Caminho_4041" data-name="Caminho 4041" d="M228.084,386.382H199.976L193.95,337.05h40.16Z" transform="translate(-107.749 -174.634)" fill="#fff" stroke="#263238" stroke-linecap="round" stroke-linejoin="round" stroke-width="1"/>
        <path id="Caminho_4042" data-name="Caminho 4042" d="M230.621,337.05l-.421,49.332h2.974L239.2,337.05Z" transform="translate(-112.839 -174.634)" fill="#fff" stroke="#263238" stroke-linecap="round" stroke-linejoin="round" stroke-width="1"/>
        <rect id="Retângulo_361" data-name="Retângulo 361" width="44.14" height="3.069" rx="1.534" transform="translate(30.722 175.327)" fill="#fff" stroke="#263238" stroke-linecap="round" stroke-linejoin="round" stroke-width="1"/>
        <path id="Caminho_4043" data-name="Caminho 4043" d="M101.94,368v61.22H251.226v-21.1a5.536,5.536,0,0,0-5.544-5.536H142.264a4.143,4.143,0,0,1-4.143-4.143v-8.243a26.415,26.415,0,0,1,11.957-22.1h0Z" transform="translate(-94.831 -178.98)" fill="#fff" stroke="#263238" stroke-linecap="round" stroke-linejoin="round" stroke-width="1"/>
        <path id="Caminho_4044" data-name="Caminho 4044" d="M97,368v61.22H246.234V402.573H137.272a4.143,4.143,0,0,1-4.135-4.143v-8.244a26.416,26.416,0,0,1,12-22.092h0Z" transform="translate(-94.137 -178.98)" fill="#fff" stroke="#263238" stroke-linecap="round" stroke-linejoin="round" stroke-width="1"/>
        <circle id="Elipse_74" data-name="Elipse 74" cx="9.421" cy="9.421" r="9.421" transform="translate(6.362 228.201)" fill="#858585" stroke="#263238" stroke-linecap="round" stroke-linejoin="round" stroke-width="1"/>
        <path id="Caminho_4045" data-name="Caminho 4045" d="M199.77,384.69l1.023,8.381H228.9l1.023-8.381Z" transform="translate(-108.567 -181.323)" fill="#858585" stroke="#263238" stroke-linecap="round" stroke-linejoin="round" stroke-width="1"/>
        <path id="Caminho_4046" data-name="Caminho 4046" d="M230.269,384.69l-.069,8.381h2.974l1.023-8.381Z" transform="translate(-112.839 -181.323)" fill="#666" stroke="#263238" stroke-linecap="round" stroke-linejoin="round" stroke-width="1"/>
        <path id="Caminho_4047" data-name="Caminho 4047" d="M151.28,445.761s-53.131,1.564-57.034.782,12.5-6.249,34.384-8.983,57.816,8.6,57.816,8.6Z" transform="translate(-93.669 -188.687)" fill="#8f00fc" stroke="#263238" stroke-linecap="round" stroke-linejoin="round" stroke-width="1"/>
        <path id="Caminho_4048" data-name="Caminho 4048" d="M221.715,402.057c-3.911.12-7.822.456-11.716.9-7.117.808-20.828-.1-26.209,5.278,0,0-7.814,12.112-10.934,17.192s-5.467,8.2-8.6,9.37-16.41,6.645-16.41,6.645H258.8s16.332.567,21.773-6.069c5.905-7.169-4.143-15.335-9.275-19.177-8.467-6.344-17.785-9.069-27.911-11.871A72.683,72.683,0,0,0,221.715,402.057Z" transform="translate(-101.277 -183.751)" fill="#8f00fc" stroke="#263238" stroke-linecap="round" stroke-linejoin="round" stroke-width="1"/>
        <path id="Caminho_4049" data-name="Caminho 4049" d="M272,437.088s17.476-3.438,32.819-.43,37.074.43,47.278,1.281,26.854,2.983,26.854,2.983-25.573,4.3-38.785,5.115-25.573,1.719-25.573,1.719-6.817.43-24.722-5.115Z" transform="translate(-118.708 -188.447)" fill="#8f00fc" stroke="#263238" stroke-linecap="round" stroke-linejoin="round" stroke-width="1"/>
        <path id="Caminho_4050" data-name="Caminho 4050" d="M229.37,446.21a94.138,94.138,0,0,0,23.862-5.966c13.212-5.115,20.888-4.3,30.688-.43s13.212,7.246,24.722,8.1Z" transform="translate(-112.723 -188.62)" fill="#263238" stroke="#263238" stroke-linecap="round" stroke-linejoin="round" stroke-width="1"/>
      </g>
    </g>
    <g id="Grupo_780" data-name="Grupo 780" transform="translate(-12080 -2232)">
      <g transform="matrix(1, 0, 0, 1, 12079.5, 2228.5)" filter="url(#Caminho_4071)">
        <g id="Caminho_4071-2" data-name="Caminho 4071" transform="translate(259.5 3.5)" fill="#fff">
          <path d="M 327 252 L 10 252 C 5.037374973297119 252 1 247.9626312255859 1 243 L 1 10 C 1 5.037374973297119 5.037374973297119 1 10 1 L 327 1 C 331.9626159667969 1 336 5.037374973297119 336 10 L 336 243 C 336 247.9626312255859 331.9626159667969 252 327 252 Z" stroke="none"/>
          <path d="M 10 2 C 5.588775634765625 2 2 5.588775634765625 2 10 L 2 243 C 2 247.4112243652344 5.588775634765625 251 10 251 L 327 251 C 331.4112243652344 251 335 247.4112243652344 335 243 L 335 10 C 335 5.588775634765625 331.4112243652344 2 327 2 L 10 2 M 10 0 L 327 0 C 332.5228576660156 0 337 4.477142333984375 337 10 L 337 243 C 337 248.5228118896484 332.5228576660156 253 327 253 L 10 253 C 4.477142333984375 253 0 248.5228118896484 0 243 L 0 10 C 0 4.477142333984375 4.477142333984375 0 10 0 Z" stroke="none" fill="#8f00fc"/>
        </g>
      </g>
      <text id="Ordem_de_Produção" data-name="Ordem de Produção" transform="translate(12360 2265)" fill="#8f00fc" font-size="14" font-family="Ubuntu-Bold, Ubuntu" font-weight="700"><tspan x="0" y="0">Ordem de Produção</tspan></text>
      <g id="Retângulo_43" data-name="Retângulo 43" transform="translate(12361 2318)" fill="#fff" stroke="#f1f1f1" stroke-width="1">
        <rect width="295" height="65" rx="5" stroke="none"/>
        <rect x="0.5" y="0.5" width="294" height="64" rx="4.5" fill="none"/>
      </g>
      <g transform="matrix(1, 0, 0, 1, 12079.5, 2228.5)" filter="url(#Retângulo_45)">
        <rect id="Retângulo_45-2" data-name="Retângulo 45" width="295" height="30" rx="15" transform="translate(281.5 204.5)" fill="#00c853"/>
      </g>
      <text id="Gerar_Ordem_de_Produção" data-name="Gerar Ordem de Produção" transform="translate(12410 2454)" fill="#fff" font-size="16" font-family="Ubuntu-Bold, Ubuntu" font-weight="700"><tspan x="0" y="0">Gerar Ordem de Produção</tspan></text>
      <g id="Retângulo_41" data-name="Retângulo 41" transform="translate(12360 2278)" fill="#fff" stroke="#f1f1f1" stroke-width="1">
        <rect width="163" height="30" rx="2" stroke="none"/>
        <rect x="0.5" y="0.5" width="162" height="29" rx="1.5" fill="none"/>
      </g>
      <g id="Retângulo_47" data-name="Retângulo 47" transform="translate(12361 2393)" fill="#fff" stroke="#f1f1f1" stroke-width="1">
        <rect width="295" height="30" rx="2" stroke="none"/>
        <rect x="0.5" y="0.5" width="294" height="29" rx="1.5" fill="none"/>
      </g>
      <text id="Localizar_produtos" data-name="Localizar produtos" transform="translate(12370 2298)" fill="#8f00fc" font-size="14" font-family="Ubuntu-Bold, Ubuntu" font-weight="700"><tspan x="0" y="0">Localizar produtos</tspan></text>
      <text id="Responsável_pela_Produção" data-name="Responsável pela Produção" transform="translate(12371 2413)" fill="#8f00fc" font-size="14" font-family="Ubuntu-Bold, Ubuntu" font-weight="700"><tspan x="0" y="0">Responsável pela Produção</tspan></text>
      <path id="Icon_awesome-search" data-name="Icon awesome-search" d="M9.862,8.646,7.915,6.7a.468.468,0,0,0-.332-.137H7.265a4.06,4.06,0,1,0-.7.7v.318a.468.468,0,0,0,.137.332L8.646,9.862a.467.467,0,0,0,.662,0L9.86,9.31A.471.471,0,0,0,9.862,8.646Zm-5.8-2.084a2.5,2.5,0,1,1,2.5-2.5A2.5,2.5,0,0,1,4.062,6.562Z" transform="translate(12503 2289)" fill="#8f00fc"/>
      <g id="Retângulo_42" data-name="Retângulo 42" transform="translate(12533 2278)" fill="#fff" stroke="#f1f1f1" stroke-width="1">
        <rect width="56" height="30" rx="2" stroke="none"/>
        <rect x="0.5" y="0.5" width="55" height="29" rx="1.5" fill="none"/>
      </g>
      <text id="Qtd" transform="translate(12543 2298)" fill="#8f00fc" font-size="14" font-family="Ubuntu-Bold, Ubuntu" font-weight="700"><tspan x="0" y="0">Qtd</tspan></text>
      <g id="Retângulo_44" data-name="Retângulo 44" transform="translate(12361 2318)" fill="#8f00fc" stroke="#f1f1f1" stroke-width="1">
        <path d="M5,0H290a5,5,0,0,1,5,5V22a0,0,0,0,1,0,0H0a0,0,0,0,1,0,0V5A5,5,0,0,1,5,0Z" stroke="none"/>
        <path d="M5,.5H290A4.5,4.5,0,0,1,294.5,5V21a.5.5,0,0,1-.5.5H1A.5.5,0,0,1,.5,21V5A4.5,4.5,0,0,1,5,.5Z" fill="none"/>
      </g>
      <line id="Linha_24" data-name="Linha 24" x2="295" transform="translate(12361.5 2361.5)" fill="none" stroke="#f1f1f1" stroke-width="1"/>
      <text id="Produtos_a_serem_produzidos" data-name="Produtos a serem produzidos" transform="translate(12374 2333)" fill="#fff" font-size="10" font-family="Ubuntu-Light, Ubuntu" font-weight="300"><tspan x="0" y="0">Produtos a serem produzidos</tspan></text>
      <text id="Quantidade" transform="translate(12598 2333)" fill="#fff" font-size="10" font-family="Ubuntu-Light, Ubuntu" font-weight="300"><tspan x="-26.34" y="0">Quantidade</tspan></text>
      <text id="Camiseta_Regata" data-name="Camiseta Regata" transform="translate(12374 2354)" fill="#666" font-size="10" font-family="Ubuntu-Light, Ubuntu" font-weight="300"><tspan x="0" y="0">Camiseta Regata</tspan></text>
      <text id="_150_unidades" data-name="150 unidades" transform="translate(12599 2354)" fill="#666" font-size="10" font-family="Ubuntu-Light, Ubuntu" font-weight="300"><tspan x="-29.73" y="0">150 unidades</tspan></text>
      <text id="Calça_Jeans" data-name="Calça Jeans" transform="translate(12374 2375)" fill="#666" font-size="10" font-family="Ubuntu-Light, Ubuntu" font-weight="300"><tspan x="0" y="0">Calça Jeans</tspan></text>
      <text id="_100_unidades" data-name="100  unidades" transform="translate(12599 2376)" fill="#666" font-size="10" font-family="Ubuntu-Light, Ubuntu" font-weight="300"><tspan x="-30.87" y="0" xml:space="preserve">100  unidades</tspan></text>
      <rect id="Retângulo_46" data-name="Retângulo 46" width="57" height="30" rx="15" transform="translate(12599 2278)" fill="#00c853"/>
      <text id="Add" transform="translate(12614 2298)" fill="#fff" font-size="14" font-family="Ubuntu-Bold, Ubuntu" font-weight="700"><tspan x="0" y="0">Add</tspan></text>
    </g>
  </g>
</svg>
