<svg xmlns="http://www.w3.org/2000/svg" xmlns:xlink="http://www.w3.org/1999/xlink" width="609.5" height="624.868" viewBox="0 0 609.5 624.868"><defs><filter id="a" x="213.5" y="0" width="187" height="93" filterUnits="userSpaceOnUse"><feOffset dy="3" input="SourceAlpha"/><feGaussianBlur stdDeviation="3" result="b"/><feFlood flood-opacity="0.161"/><feComposite operator="in" in2="b"/><feComposite in="SourceGraphic"/></filter><filter id="c" x="402.5" y="0" width="187" height="93" filterUnits="userSpaceOnUse"><feOffset dy="3" input="SourceAlpha"/><feGaussianBlur stdDeviation="3" result="d"/><feFlood flood-opacity="0.161"/><feComposite operator="in" in2="d"/><feComposite in="SourceGraphic"/></filter><filter id="e" x="265.5" y="95" width="344" height="85" filterUnits="userSpaceOnUse"><feOffset dy="3" input="SourceAlpha"/><feGaussianBlur stdDeviation="3" result="f"/><feFlood flood-opacity="0.161"/><feComposite operator="in" in2="f"/><feComposite in="SourceGraphic"/></filter></defs><g transform="translate(-959.5 -2748)"><g transform="translate(-50 2025.264)"><g transform="translate(1010 1347.104)"><line x2="12.017" transform="translate(587.983)" fill="none" stroke="#263238" stroke-linecap="round" stroke-linejoin="round" stroke-width="1"/><line x2="557.081" transform="translate(24.893)" fill="none" stroke="#263238" stroke-linecap="round" stroke-linejoin="round" stroke-width="1"/><line x2="18.026" transform="translate(0)" fill="none" stroke="#263238" stroke-linecap="round" stroke-linejoin="round" stroke-width="1"/></g><g transform="translate(1055.338 765.5)"><path d="M128.027,351.9l-8.747,54.385-5.846,121.551s12.645,21.391,14.593,24.315,17.494,10.7,15.568,14.571-29.187,0-29.187,0a43.052,43.052,0,0,0-11.67-13.6c-7.773-5.846-9.721-2.447-9.721-8.271s.974-15.568.974-15.568-7.773-117.155-7.773-133.7-1.949-37.911-1.949-37.911Z" transform="translate(-8.895 11.665)" fill="#fff" stroke="#263238" stroke-linecap="round" stroke-linejoin="round" stroke-width="1"/><path d="M111.642,353.47l-2.266,54.385-9.7,115.7,7.455,28.348s4.532,9.064,5.982,11.194-.748,4.532-3.739,4.532H100.7a11.035,11.035,0,0,1-9.336-5.1,64.577,64.577,0,0,0-7.342-9.835c-4.532-4.532-2.266-17.154-2.266-20.893V524.4s-11.194-86.586-10.446-99.276,1.5-22.389,1.5-22.389L68.27,353.47Z" transform="translate(-29.151 13.653)" fill="#fff" stroke="#263238" stroke-linecap="round" stroke-linejoin="round" stroke-width="1"/><path d="M61.667,344.052l.272-1.042L61.1,337.14l5.824-22.366,2.742.612,3.286-11.806,50.827-.295a179.974,179.974,0,0,0,23.2,0,126.163,126.163,0,0,1,13.188-.952l.34,1.314,2.674-1.518s5.846,39.86,3.9,71.947-6.8,80.785-6.8,80.785H73.745l-1.9-43.395h-.363c-.272-2.855-.589-5.733-.884-8.566l-5.189-35.713C63.547,356.062,61.667,344.052,61.667,344.052Z" transform="translate(-38.229 -51.346)" fill="#263238" stroke="#263238" stroke-linecap="round" stroke-linejoin="round" stroke-width="1"/><path d="M111.894,242.59s19.488,97.871,16.021,103.082-11.013,9.268-15.636,4.056-8.7-82.235-10.424-88.036S104.008,238.533,111.894,242.59Z" transform="translate(12.859 -127.496)" fill="#7300cc" stroke="#263238" stroke-linecap="round" stroke-linejoin="round" stroke-width="1"/><path d="M116.007,274.731s14.48,6.934,15.636,10.424-1.722,16.791-6.934,21.414-13.324,9.268-16.225,1.745S107.328,273.552,116.007,274.731Z" transform="translate(20.121 -86.082)" fill="#7300cc" stroke="#263238" stroke-linecap="round" stroke-linejoin="round" stroke-width="1"/><path d="M115.656,278.534s-2.266,4.1-2.266,13.936,2.266,11.013,3.49,9.268,3.4-12.531,3.4-12.531S121.434,277.9,115.656,278.534Z" transform="translate(27.973 -81.252)" fill="#263238" stroke="#263238" stroke-linecap="round" stroke-linejoin="round" stroke-width="1"/><path d="M115.256,278.52s17.947,1.133,21.006,2.674a101.974,101.974,0,0,1,18.332,13.347c4.963,4.963,4.532,8.022,1.9,8.022h-8.407c-3.807,0-13.732-4.963-14.888-5.348s-4.532-1.9-7.637-3.059a15.318,15.318,0,0,1-5.71-4.963l-6.118-3.422S113.353,280.809,115.256,278.52Z" transform="translate(28.373 -81.237)" fill="#fff" stroke="#263238" stroke-linecap="round" stroke-linejoin="round" stroke-width="1"/><path d="M128.219,287.126a40.629,40.629,0,0,0,7.614,7.637c4.532,3.422,3.83,4.963,1.156,4.532s-9.064-6.118-9.064-6.118-7.251-1.518-9.54-3.807a16.451,16.451,0,0,1-3.444-5.733l.385-2.266" transform="translate(29.935 -77.629)" fill="#fff" stroke="#263238" stroke-linecap="round" stroke-linejoin="round" stroke-width="1"/><path d="M135.7,296.6s-8.77-9.925-12.214-13.37" transform="translate(40.76 -75.274)" fill="none" stroke="#263238" stroke-linecap="round" stroke-linejoin="round" stroke-width="1"/><path d="M137.577,297.108s-6.118-10.673-12.237-14.888" transform="translate(43.102 -76.553)" fill="none" stroke="#263238" stroke-linecap="round" stroke-linejoin="round" stroke-width="1"/><path d="M137.92,297.017a104.46,104.46,0,0,0-9.54-14.118" transform="translate(46.951 -75.692)" fill="none" stroke="#263238" stroke-linecap="round" stroke-linejoin="round" stroke-width="1"/><path d="M91.32,235s33.4,14.231,33.4,16.429,5.031,52.459,5.031,60.3,2.266,63.993,1.881,71.517,3.875,43.055,2.923,43.576-.657,6.526-7.863,5.257-6.05-42.874-6.05-42.874L115,353.446l-.317-23.272s0-24.768-2.493-38.523a182.959,182.959,0,0,0-10.673-33.583C100.883,257.139,91.32,235,91.32,235Z" transform="translate(0.031 -136.336)" fill="#7300cc" stroke="#263238" stroke-linecap="round" stroke-linejoin="round" stroke-width="1"/><path d="M110.277,231.75S93.509,238,84.036,242.151c-13.6,5.914-23.431,8.566-24.065,12.645s12.8,110.288,12.8,110.288l-18.6,72.944s29.776,11.33,50.782,10.424a135.03,135.03,0,0,0,32.858-4.8l1.02-49.377s3.92-29.685-4.056-74.122c-6.8-37.458-18.853-85.883-18.853-85.883Z" transform="translate(-47.003 -140.45)" fill="#7300cc" stroke="#263238" stroke-linecap="round" stroke-linejoin="round" stroke-width="1"/><path d="M117.39,247.482a95.174,95.174,0,0,1,12.848,16.95,97.44,97.44,0,0,1,6.594,15.047l-4.713,1.881,10.356,12.871a80.037,80.037,0,0,1-.634,22.887c-2.266,11.625-4.691,30.433-4.691,30.433s-20.077.317-26.037-3.444S84.125,298.921,83.2,295.477s8.452-17.562,8.452-17.562L85.19,276.4l-12.35-2.878s4.079-26.671,6.572-33.56,1.269-7.841,6.911-10.039,28.869,16.61,28.869,16.61Z" transform="translate(-23.366 -142.994)" fill="#7300cc" stroke="#263238" stroke-linecap="round" stroke-linejoin="round" stroke-width="1"/><path d="M89.065,219.449a87.854,87.854,0,0,1-4.713,18.831,86.4,86.4,0,0,1-3.762,8.158,631.646,631.646,0,0,1,16,64.31c5.642,31.067,9.4,61.478,9.4,76.864s-.612,22.275-.612,22.275,3.444,1.881,12.531,1.246a61.679,61.679,0,0,0,16.316-3.444s-7.841-67.777-8.158-84.07-16.61-59.824-16.61-59.824l2.81-9.064s-9.4-11.33-11.6-19.76S93.461,218.837,89.065,219.449Z" transform="translate(-13.554 -156.067)" fill="#fff" stroke="#263238" stroke-linecap="round" stroke-linejoin="round" stroke-width="1"/><path d="M93.2,226.29c2.266,8.452,11.557,19.6,11.557,19.6l-2.81,9.064,1.11,3.082C92.82,248.021,86.52,230.21,86.52,230.21Z" transform="translate(-6.046 -147.363)" fill="#263238" stroke="#263238" stroke-linecap="round" stroke-linejoin="round" stroke-width="1"/><path d="M85.65,250.18a81.917,81.917,0,0,0,26.4.929c3.852,12.259,7.478,25.856,7.614,33.56.317,16.293,8.158,84.07,8.158,84.07a61.682,61.682,0,0,1-16.316,3.444c-9.064.634-12.531-1.246-12.531-1.246s.612-6.911.612-22.275-3.762-45.8-9.4-76.864C88.868,264.569,87.3,257.2,85.65,250.18Z" transform="translate(-7.147 -117.117)" fill="#fff" stroke="#263238" stroke-linecap="round" stroke-linejoin="round" stroke-width="1"/><line x1="1.994" y2="2.311" transform="translate(95.294 184.412)" fill="none" stroke="#263238" stroke-linecap="round" stroke-linejoin="round" stroke-width="1"/><line x1="11.534" y2="13.324" transform="translate(98.806 169.32)" fill="none" stroke="#263238" stroke-linecap="round" stroke-linejoin="round" stroke-width="1"/><line x1="8.928" y2="8.452" transform="translate(96.246 182.485)" fill="none" stroke="#263238" stroke-linecap="round" stroke-linejoin="round" stroke-width="1"/><path d="M157.323,242.786a6.5,6.5,0,0,0,7.682-3.512c2.4-5.076-2.515-5.892-2.266-10.741s5.189-9.064,2.561-13.6-20.394-15.749-29.051-20.734-21.165-2.266-31.521,1-18.31,6.8-20.984,14.321-2.493,14.208-5.62,19.9-9.064,6.345-5.846,12.962,9.064,6.005,7.591,10.718-3.784,9.789-.272,12.35,9.54-1.02,12.463,1.337,4.985,4.034,7.387,3.762,3.943-5.506,9.631-12.554,11.987-13.1,19.828-15,15-5.1,19.669-4.011a29.461,29.461,0,0,1,8.747,3.807Z" transform="translate(-25.251 -191.46)" fill="#263238" stroke="#263238" stroke-linecap="round" stroke-linejoin="round" stroke-width="1"/><path d="M84.368,214.45a6.345,6.345,0,0,1-6.028.566" transform="translate(-16.402 -162.353)" fill="none" stroke="gray" stroke-linecap="round" stroke-linejoin="round" stroke-width="1"/><path d="M140.1,203.17s0,8.044-12.622,8.044-27.85-.861-33.991,4.305c-3.49,2.991-7.455,8.158-11.33,11.33" transform="translate(-11.566 -176.634)" fill="none" stroke="gray" stroke-linecap="round" stroke-linejoin="round" stroke-width="1"/><path d="M114.808,201.708a17.517,17.517,0,0,0-12.713,4.759c-8.044,7.773-13.211,16.95-19.239,17.245a18.944,18.944,0,0,1-8.316-.861" transform="translate(-21.213 -178.503)" fill="none" stroke="gray" stroke-linecap="round" stroke-linejoin="round" stroke-width="1"/><path d="M96.937,202.578a20.559,20.559,0,0,0-3.127-.748" transform="translate(3.183 -178.33)" fill="none" stroke="gray" stroke-linecap="round" stroke-linejoin="round" stroke-width="1"/><path d="M146.059,207.7s2.651,12.033-2.538,21.165-5.824,8.135-7.3,16.882-5.008,13.143-12.123,19.261-11.33,6.322-15.681,3.83S89.725,254.516,88.978,250.03s-1.858-9.721-1.858-9.721a24.2,24.2,0,0,1-3.92-4.124,15.864,15.864,0,0,1-.589-2.9s4.917,3.24,8.634.43,2.107-7.75,8.5-10.582,15.047-2.153,17.72-4.849,0-4.306,6.957-5.031S141.98,214.566,146.059,207.7Z" transform="translate(-10.996 -170.899)" fill="#fff" stroke="#263238" stroke-linecap="round" stroke-linejoin="round" stroke-width="1"/><path d="M109.715,218.87s-4.034,2.266-4.215,5.552,3.2,9.835,1.45,11.1-6.39.431-6.39.431" transform="translate(11.729 -156.757)" fill="none" stroke="#263238" stroke-linecap="round" stroke-linejoin="round" stroke-width="1"/><path d="M103.526,230.559A5.348,5.348,0,0,1,97,227.5" transform="translate(7.222 -145.831)" fill="none" stroke="#263238" stroke-linecap="round" stroke-linejoin="round" stroke-width="1"/><path d="M107.537,217.639s-2.515-3.49-9.427-3.014" transform="translate(8.627 -162.188)" fill="none" stroke="#263238" stroke-linecap="round" stroke-linejoin="round" stroke-width="2"/><path d="M106,217.718s2.765-1.632,4.283,2.493" transform="translate(18.617 -158.619)" fill="none" stroke="#263238" stroke-linecap="round" stroke-linejoin="round" stroke-width="2"/><path d="M98.5,220.5c-.68,1.541-.7,3.036,0,3.331s1.768-.7,2.47-2.266.68-3.036,0-3.331S99.179,218.941,98.5,220.5Z" transform="translate(8.464 -157.621)" fill="#263238"/><path d="M105.56,222.345c-.68,1.541-.7,3.036,0,3.331s1.768-.7,2.47-2.266.68-3.036,0-3.331S106.239,220.781,105.56,222.345Z" transform="translate(17.403 -155.292)" fill="#263238"/><path d="M95.664,279.706s10.628-.748,12.509,0,22.185,8.044,24.7,10.56a99.411,99.411,0,0,1,10.56,14.14c3.2,5.642,1.5,5.642.566,5.642a6.8,6.8,0,0,1-4.1-3.58,70.25,70.25,0,0,0-6.8-7.84l-4.351-2.017s4.351,7.954,6.8,11.715,3.875,5.937,2.47,6.639c-2.266,1.11-4.917-2.719-5.846-3.966s-3.512-3.9-3.512-3.9,2.81,5.642,2.493,6.594-2.561,1.45-4.4-1.269c-.77-1.156-9.064-11.194-9.064-11.194a80.55,80.55,0,0,1,4.124,9.948c0,1.246-1.246,1.564-3.762,0s-5.869-9.359-7.115-10.922a8.067,8.067,0,0,0-4.532-1.971,21.435,21.435,0,0,1-6.277-2.493c-1.314-1.4-3.83-3.671-3.83-3.671l-6.8,2.833.5-13.778Z" transform="translate(-2.273 -80.157)" fill="#fff" stroke="#263238" stroke-linecap="round" stroke-linejoin="round" stroke-width="1"/><line x1="2.991" y1="5.62" transform="translate(112.312 215.343)" fill="none" stroke="#263238" stroke-linecap="round" stroke-miterlimit="10" stroke-width="1"/><line x1="8.475" y1="13.166" transform="translate(117.864 213.666)" fill="none" stroke="#263238" stroke-linecap="round" stroke-linejoin="round" stroke-width="1"/><line x1="2.833" y1="4.691" transform="translate(123.71 211.808)" fill="none" stroke="#263238" stroke-linecap="round" stroke-linejoin="round" stroke-width="1"/><path d="M91.055,278.178l-2.266,55.541,56.787-1.269-.317,23.861s-40.449,6.571-60.549,5.96-32,1.246-33.56-1.269S61.392,260.117,61.392,260.117s1.881-15.681,5.008-16.61,22.66-7.047,22.66-7.047" transform="translate(-51.007 -134.487)" fill="#7300cc" stroke="#263238" stroke-linecap="round" stroke-linejoin="round" stroke-width="1"/><line x1="2.765" y2="0.091" transform="translate(15.892 199.775)" fill="#fff" stroke="#263238" stroke-linecap="round" stroke-linejoin="round" stroke-width="1"/><line x1="15.568" y2="0.431" transform="translate(22.282 199.231)" fill="#fff" stroke="#263238" stroke-linecap="round" stroke-linejoin="round" stroke-width="1"/><path d="M88.146,443.828c0-3.6.385-8.7.657-12.078,8.022,7.84,24.383,23.453,28.212,24.337a21.868,21.868,0,0,0,10.809-1.2c5.121,3.512,12.237,8.112,10.9,10.809-1.949,3.9-29.187,0-29.187,0a43.054,43.054,0,0,0-11.67-13.6,24.926,24.926,0,0,0-6.209-3.535l6.209,3.535L93,465.922H88.282V446.638l.363.2a5.891,5.891,0,0,1-.5-3.014Z" transform="translate(-4.024 112.759)" fill="#263238" stroke="#263238" stroke-linecap="round" stroke-linejoin="round" stroke-width="1"/><path d="M73.68,437.469c0-3.014,1-2.266,1.156-4.419,4.373,6.413,13.936,20.87,16.769,21.822,3.535,1.178,9.835-.408,9.835-.408l.634.295c1.428,2.765,3.331,6.39,4.215,7.7,1.473,2.266-.748,4.532-3.739,4.532h-8.7a11.035,11.035,0,0,1-9.336-5.1c-.476-.748-1-1.564-1.541-2.266l-1.609,5.6H73.884V440.279Z" transform="translate(-22.302 114.405)" fill="#263238" stroke="#263238" stroke-linecap="round" stroke-linejoin="round" stroke-width="1"/><rect width="111.286" height="5.348" transform="translate(245.057 239.386) rotate(180)" fill="#263238" stroke="#263238" stroke-linecap="round" stroke-linejoin="round" stroke-width="1"/><rect width="111.286" height="68.48" transform="translate(279.297 239.386) rotate(180)" fill="#263238" stroke="#263238" stroke-linecap="round" stroke-linejoin="round" stroke-width="1"/></g><g transform="translate(1188.292 1003.821)"><ellipse cx="114.821" cy="114.821" rx="114.821" ry="114.821" transform="translate(132.572 341.725) rotate(-90)" fill="#fff" stroke="#263238" stroke-linecap="round" stroke-linejoin="round" stroke-width="1"/><line x2="4.849" transform="translate(304.398 131.181)" fill="#fff" stroke="#263238" stroke-linecap="round" stroke-linejoin="round" stroke-width="1"/><line x2="6.64" transform="translate(315.298 139.634)" fill="#fff" stroke="#263238" stroke-linecap="round" stroke-linejoin="round" stroke-width="1"/><line x2="5.439" transform="translate(327.398 151.757)" fill="#fff" stroke="#263238" stroke-linecap="round" stroke-linejoin="round" stroke-width="1"/><line x2="5.439" transform="translate(339.499 168.095)" fill="#fff" stroke="#263238" stroke-linecap="round" stroke-linejoin="round" stroke-width="1"/><line x2="6.05" transform="translate(350.399 190.484)" fill="#fff" stroke="#263238" stroke-linecap="round" stroke-linejoin="round" stroke-width="1"/><line x2="6.662" transform="translate(355.543 226.899)" fill="#fff" stroke="#263238" stroke-linecap="round" stroke-linejoin="round" stroke-width="1"/><line x2="4.849" transform="translate(304.398 321.189)" fill="#fff" stroke="#263238" stroke-linecap="round" stroke-linejoin="round" stroke-width="1"/><line x2="6.64" transform="translate(315.298 312.714)" fill="#fff" stroke="#263238" stroke-linecap="round" stroke-linejoin="round" stroke-width="1"/><line x2="5.439" transform="translate(327.398 300.614)" fill="#fff" stroke="#263238" stroke-linecap="round" stroke-linejoin="round" stroke-width="1"/><line x2="5.439" transform="translate(339.499 284.275)" fill="#fff" stroke="#263238" stroke-linecap="round" stroke-linejoin="round" stroke-width="1"/><line x2="6.05" transform="translate(350.399 261.887)" fill="#fff" stroke="#263238" stroke-linecap="round" stroke-linejoin="round" stroke-width="1"/><ellipse cx="114.821" cy="114.821" rx="114.821" ry="114.821" transform="translate(125.922 341.705) rotate(-90)" fill="#fff" stroke="#263238" stroke-linecap="round" stroke-linejoin="round" stroke-width="1"/><ellipse cx="98.188" cy="98.188" rx="98.188" ry="98.188" transform="translate(142.565 325.06) rotate(-90)" fill="#fff" stroke="#263238" stroke-linecap="round" stroke-linejoin="round" stroke-width="1"/><path d="M224.4,373.369V363.92h16.338v9.449c14.185,2.923,21.459,13.823,21.459,31.09v3.988H243.3v-5.257c0-9.064-3.648-12.554-9.993-12.554S223.29,394.1,223.29,403.191c0,26.173,39.089,27.442,39.089,63.789,0,17.267-7.455,28.348-21.641,31.271v9.268H224.4v-9.268c-14.367-2.923-21.641-14-21.641-31.271v-8.724h18.9v10.084c0,9.064,4.011,12.373,10.356,12.373s10.378-3.286,10.378-12.373c0-26.173-39.089-27.442-39.089-63.789C203.3,387.374,210.4,376.474,224.4,373.369Z" transform="translate(8.164 -211.438)" fill="#fff" stroke="#263238" stroke-linecap="round" stroke-linejoin="round" stroke-width="1"/><path d="M222.248,373.369V363.92h16.361v9.449c14.185,2.923,21.437,13.823,21.437,31.09v3.988h-18.9v-5.257c0-9.064-3.626-12.554-9.993-12.554s-9.993,3.467-9.993,12.554c0,26.173,39.067,27.442,39.067,63.789,0,17.267-7.433,28.348-21.618,31.271v9.268H222.248v-9.268c-14.367-2.923-21.618-14-21.618-31.271v-8.724H219.6v10.084c0,9.064,3.988,12.373,10.356,12.373s10.356-3.286,10.356-12.373c0-26.173-39.067-27.442-39.067-63.789C201.174,387.374,208.267,376.474,222.248,373.369Z" transform="translate(5.467 -211.438)" fill="#fff" stroke="#263238" stroke-linecap="round" stroke-linejoin="round" stroke-width="1"/><rect width="193.928" height="17.245" transform="translate(204.125 35.078) rotate(180)" fill="#fff" stroke="#263238" stroke-linecap="round" stroke-linejoin="round" stroke-width="1"/><line y2="16.112" transform="translate(193.86 18.242)" fill="none" stroke="#263238" stroke-linecap="round" stroke-linejoin="round" stroke-width="1"/><line y2="16.112" transform="translate(199.48 18.242)" fill="none" stroke="#263238" stroke-linecap="round" stroke-linejoin="round" stroke-width="1"/><line y2="16.112" transform="translate(182.666 18.242)" fill="none" stroke="#263238" stroke-linecap="round" stroke-linejoin="round" stroke-width="1"/><line y2="16.112" transform="translate(171.449 18.242)" fill="none" stroke="#263238" stroke-linecap="round" stroke-linejoin="round" stroke-width="1"/><line y2="16.112" transform="translate(160.255 18.242)" fill="none" stroke="#263238" stroke-linecap="round" stroke-linejoin="round" stroke-width="1"/><line y2="16.112" transform="translate(149.038 18.242)" fill="none" stroke="#263238" stroke-linecap="round" stroke-linejoin="round" stroke-width="1"/><line y2="16.112" transform="translate(132.246 18.242)" fill="none" stroke="#263238" stroke-linecap="round" stroke-linejoin="round" stroke-width="1"/><line y2="16.112" transform="translate(104.215 18.242)" fill="none" stroke="#263238" stroke-linecap="round" stroke-linejoin="round" stroke-width="1"/><rect width="193.928" height="17.245" transform="translate(204.125 53.207) rotate(180)" fill="#fff" stroke="#263238" stroke-linecap="round" stroke-linejoin="round" stroke-width="1"/><line y2="16.112" transform="translate(193.86 36.37)" fill="none" stroke="#263238" stroke-linecap="round" stroke-linejoin="round" stroke-width="1"/><line y2="16.112" transform="translate(199.48 36.37)" fill="none" stroke="#263238" stroke-linecap="round" stroke-linejoin="round" stroke-width="1"/><line y2="16.112" transform="translate(182.666 36.37)" fill="none" stroke="#263238" stroke-linecap="round" stroke-linejoin="round" stroke-width="1"/><line y2="16.112" transform="translate(171.449 36.37)" fill="none" stroke="#263238" stroke-linecap="round" stroke-linejoin="round" stroke-width="1"/><line y2="16.112" transform="translate(160.255 36.37)" fill="none" stroke="#263238" stroke-linecap="round" stroke-linejoin="round" stroke-width="1"/><line y2="16.112" transform="translate(149.038 36.37)" fill="none" stroke="#263238" stroke-linecap="round" stroke-linejoin="round" stroke-width="1"/><line y2="16.112" transform="translate(132.246 36.37)" fill="none" stroke="#263238" stroke-linecap="round" stroke-linejoin="round" stroke-width="1"/><line y2="16.112" transform="translate(104.215 36.37)" fill="none" stroke="#263238" stroke-linecap="round" stroke-linejoin="round" stroke-width="1"/><rect width="193.928" height="17.245" transform="translate(204.125 17.245) rotate(180)" fill="#fff" stroke="#263238" stroke-linecap="round" stroke-linejoin="round" stroke-width="1"/><line y2="16.089" transform="translate(193.86 0.385)" fill="none" stroke="#263238" stroke-linecap="round" stroke-linejoin="round" stroke-width="1"/><line y2="16.089" transform="translate(199.48 0.385)" fill="none" stroke="#263238" stroke-linecap="round" stroke-linejoin="round" stroke-width="1"/><line y2="16.089" transform="translate(182.666 0.385)" fill="none" stroke="#263238" stroke-linecap="round" stroke-linejoin="round" stroke-width="1"/><line y2="16.089" transform="translate(171.449 0.385)" fill="none" stroke="#263238" stroke-linecap="round" stroke-linejoin="round" stroke-width="1"/><line y2="16.089" transform="translate(160.255 0.385)" fill="none" stroke="#263238" stroke-linecap="round" stroke-linejoin="round" stroke-width="1"/><line y2="16.089" transform="translate(149.038 0.385)" fill="none" stroke="#263238" stroke-linecap="round" stroke-linejoin="round" stroke-width="1"/><line y2="16.089" transform="translate(132.246 0.385)" fill="none" stroke="#263238" stroke-linecap="round" stroke-linejoin="round" stroke-width="1"/><line y2="16.089" transform="translate(104.215 0.385)" fill="none" stroke="#263238" stroke-linecap="round" stroke-linejoin="round" stroke-width="1"/><rect width="193.928" height="17.245" transform="translate(204.125 71.335) rotate(180)" fill="#fff" stroke="#263238" stroke-linecap="round" stroke-linejoin="round" stroke-width="1"/><line y2="16.112" transform="translate(193.86 54.498)" fill="none" stroke="#263238" stroke-linecap="round" stroke-linejoin="round" stroke-width="1"/><line y2="16.112" transform="translate(199.48 54.498)" fill="none" stroke="#263238" stroke-linecap="round" stroke-linejoin="round" stroke-width="1"/><line y2="16.112" transform="translate(182.666 54.498)" fill="none" stroke="#263238" stroke-linecap="round" stroke-linejoin="round" stroke-width="1"/><line y2="16.112" transform="translate(171.449 54.498)" fill="none" stroke="#263238" stroke-linecap="round" stroke-linejoin="round" stroke-width="1"/><line y2="16.112" transform="translate(160.255 54.498)" fill="none" stroke="#263238" stroke-linecap="round" stroke-linejoin="round" stroke-width="1"/><line y2="16.112" transform="translate(149.038 54.498)" fill="none" stroke="#263238" stroke-linecap="round" stroke-linejoin="round" stroke-width="1"/><line y2="16.112" transform="translate(132.246 54.498)" fill="none" stroke="#263238" stroke-linecap="round" stroke-linejoin="round" stroke-width="1"/><line y2="16.112" transform="translate(104.215 54.498)" fill="none" stroke="#263238" stroke-linecap="round" stroke-linejoin="round" stroke-width="1"/><rect width="193.928" height="17.245" transform="translate(208.658 89.463) rotate(180)" fill="#fff" stroke="#263238" stroke-linecap="round" stroke-linejoin="round" stroke-width="1"/><line y2="16.112" transform="translate(198.392 72.627)" fill="none" stroke="#263238" stroke-linecap="round" stroke-linejoin="round" stroke-width="1"/><line y2="16.112" transform="translate(204.012 72.627)" fill="none" stroke="#263238" stroke-linecap="round" stroke-linejoin="round" stroke-width="1"/><line y2="16.112" transform="translate(187.198 72.627)" fill="none" stroke="#263238" stroke-linecap="round" stroke-linejoin="round" stroke-width="1"/><line y2="16.112" transform="translate(175.981 72.627)" fill="none" stroke="#263238" stroke-linecap="round" stroke-linejoin="round" stroke-width="1"/><line y2="16.112" transform="translate(164.787 72.627)" fill="none" stroke="#263238" stroke-linecap="round" stroke-linejoin="round" stroke-width="1"/><line y2="16.112" transform="translate(153.57 72.627)" fill="none" stroke="#263238" stroke-linecap="round" stroke-linejoin="round" stroke-width="1"/><line y2="16.112" transform="translate(136.779 72.627)" fill="none" stroke="#263238" stroke-linecap="round" stroke-linejoin="round" stroke-width="1"/><line y2="16.112" transform="translate(108.748 72.627)" fill="none" stroke="#263238" stroke-linecap="round" stroke-linejoin="round" stroke-width="1"/><rect width="193.928" height="17.245" transform="translate(204.125 107.592) rotate(180)" fill="#fff" stroke="#263238" stroke-linecap="round" stroke-linejoin="round" stroke-width="1"/><line y2="16.112" transform="translate(193.86 90.755)" fill="none" stroke="#263238" stroke-linecap="round" stroke-linejoin="round" stroke-width="1"/><line y2="16.112" transform="translate(199.48 90.755)" fill="none" stroke="#263238" stroke-linecap="round" stroke-linejoin="round" stroke-width="1"/><line y2="16.112" transform="translate(182.666 90.755)" fill="none" stroke="#263238" stroke-linecap="round" stroke-linejoin="round" stroke-width="1"/><line y2="16.112" transform="translate(171.449 90.755)" fill="none" stroke="#263238" stroke-linecap="round" stroke-linejoin="round" stroke-width="1"/><line y2="16.112" transform="translate(160.255 90.755)" fill="none" stroke="#263238" stroke-linecap="round" stroke-linejoin="round" stroke-width="1"/><line y2="16.112" transform="translate(149.038 90.755)" fill="none" stroke="#263238" stroke-linecap="round" stroke-linejoin="round" stroke-width="1"/><line y2="16.112" transform="translate(132.246 90.755)" fill="none" stroke="#263238" stroke-linecap="round" stroke-linejoin="round" stroke-width="1"/><line y2="16.112" transform="translate(104.215 90.755)" fill="none" stroke="#263238" stroke-linecap="round" stroke-linejoin="round" stroke-width="1"/><rect width="193.928" height="17.245" transform="translate(213.19 125.72) rotate(180)" fill="#fff" stroke="#263238" stroke-linecap="round" stroke-linejoin="round" stroke-width="1"/><line y2="16.112" transform="translate(202.924 108.884)" fill="none" stroke="#263238" stroke-linecap="round" stroke-linejoin="round" stroke-width="1"/><line y2="16.112" transform="translate(208.544 108.884)" fill="none" stroke="#263238" stroke-linecap="round" stroke-linejoin="round" stroke-width="1"/><line y2="16.112" transform="translate(191.73 108.884)" fill="none" stroke="#263238" stroke-linecap="round" stroke-linejoin="round" stroke-width="1"/><line y2="16.112" transform="translate(180.513 108.884)" fill="none" stroke="#263238" stroke-linecap="round" stroke-linejoin="round" stroke-width="1"/><line y2="16.112" transform="translate(169.319 108.884)" fill="none" stroke="#263238" stroke-linecap="round" stroke-linejoin="round" stroke-width="1"/><line y2="16.112" transform="translate(158.102 108.884)" fill="none" stroke="#263238" stroke-linecap="round" stroke-linejoin="round" stroke-width="1"/><line y2="16.112" transform="translate(141.311 108.884)" fill="none" stroke="#263238" stroke-linecap="round" stroke-linejoin="round" stroke-width="1"/><line y2="16.112" transform="translate(113.28 108.884)" fill="none" stroke="#263238" stroke-linecap="round" stroke-linejoin="round" stroke-width="1"/><rect width="193.928" height="17.245" transform="translate(216.589 143.849) rotate(180)" fill="#fff" stroke="#263238" stroke-linecap="round" stroke-linejoin="round" stroke-width="1"/><line y2="16.112" transform="translate(206.324 127.012)" fill="none" stroke="#263238" stroke-linecap="round" stroke-linejoin="round" stroke-width="1"/><line y2="16.112" transform="translate(211.943 127.012)" fill="none" stroke="#263238" stroke-linecap="round" stroke-linejoin="round" stroke-width="1"/><line y2="16.112" transform="translate(195.129 127.012)" fill="none" stroke="#263238" stroke-linecap="round" stroke-linejoin="round" stroke-width="1"/><line y2="16.112" transform="translate(183.912 127.012)" fill="none" stroke="#263238" stroke-linecap="round" stroke-linejoin="round" stroke-width="1"/><line y2="16.112" transform="translate(172.718 127.012)" fill="none" stroke="#263238" stroke-linecap="round" stroke-linejoin="round" stroke-width="1"/><line y2="16.112" transform="translate(161.501 127.012)" fill="none" stroke="#263238" stroke-linecap="round" stroke-linejoin="round" stroke-width="1"/><line y2="16.112" transform="translate(144.71 127.012)" fill="none" stroke="#263238" stroke-linecap="round" stroke-linejoin="round" stroke-width="1"/><line y2="16.112" transform="translate(116.679 127.012)" fill="none" stroke="#263238" stroke-linecap="round" stroke-linejoin="round" stroke-width="1"/><rect width="193.928" height="17.245" transform="translate(207.525 161.977) rotate(180)" fill="#fff" stroke="#263238" stroke-linecap="round" stroke-linejoin="round" stroke-width="1"/><line y2="16.112" transform="translate(197.259 145.14)" fill="none" stroke="#263238" stroke-linecap="round" stroke-linejoin="round" stroke-width="1"/><line y2="16.112" transform="translate(202.879 145.14)" fill="none" stroke="#263238" stroke-linecap="round" stroke-linejoin="round" stroke-width="1"/><line y2="16.112" transform="translate(186.065 145.14)" fill="none" stroke="#263238" stroke-linecap="round" stroke-linejoin="round" stroke-width="1"/><line y2="16.112" transform="translate(174.848 145.14)" fill="none" stroke="#263238" stroke-linecap="round" stroke-linejoin="round" stroke-width="1"/><line y2="16.112" transform="translate(163.654 145.14)" fill="none" stroke="#263238" stroke-linecap="round" stroke-linejoin="round" stroke-width="1"/><line y2="16.112" transform="translate(152.437 145.14)" fill="none" stroke="#263238" stroke-linecap="round" stroke-linejoin="round" stroke-width="1"/><line y2="16.112" transform="translate(135.646 145.14)" fill="none" stroke="#263238" stroke-linecap="round" stroke-linejoin="round" stroke-width="1"/><line y2="16.112" transform="translate(107.615 145.14)" fill="none" stroke="#263238" stroke-linecap="round" stroke-linejoin="round" stroke-width="1"/><rect width="193.928" height="17.245" transform="translate(212.533 180.105) rotate(180)" fill="#fff" stroke="#263238" stroke-linecap="round" stroke-linejoin="round" stroke-width="1"/><line y2="16.112" transform="translate(202.267 163.269)" fill="none" stroke="#263238" stroke-linecap="round" stroke-linejoin="round" stroke-width="1"/><line y2="16.112" transform="translate(207.887 163.269)" fill="none" stroke="#263238" stroke-linecap="round" stroke-linejoin="round" stroke-width="1"/><line y2="16.112" transform="translate(191.073 163.269)" fill="none" stroke="#263238" stroke-linecap="round" stroke-linejoin="round" stroke-width="1"/><line y2="16.112" transform="translate(179.856 163.269)" fill="none" stroke="#263238" stroke-linecap="round" stroke-linejoin="round" stroke-width="1"/><line y2="16.112" transform="translate(168.662 163.269)" fill="none" stroke="#263238" stroke-linecap="round" stroke-linejoin="round" stroke-width="1"/><line y2="16.112" transform="translate(157.445 163.269)" fill="none" stroke="#263238" stroke-linecap="round" stroke-linejoin="round" stroke-width="1"/><line y2="16.112" transform="translate(140.654 163.269)" fill="none" stroke="#263238" stroke-linecap="round" stroke-linejoin="round" stroke-width="1"/><line y2="16.112" transform="translate(112.623 163.269)" fill="none" stroke="#263238" stroke-linecap="round" stroke-linejoin="round" stroke-width="1"/><rect width="193.928" height="17.245" transform="translate(204.125 198.234) rotate(180)" fill="#fff" stroke="#263238" stroke-linecap="round" stroke-linejoin="round" stroke-width="1"/><line y2="16.112" transform="translate(193.86 181.397)" fill="none" stroke="#263238" stroke-linecap="round" stroke-linejoin="round" stroke-width="1"/><line y2="16.112" transform="translate(199.48 181.397)" fill="none" stroke="#263238" stroke-linecap="round" stroke-linejoin="round" stroke-width="1"/><line y2="16.112" transform="translate(182.666 181.397)" fill="none" stroke="#263238" stroke-linecap="round" stroke-linejoin="round" stroke-width="1"/><line y2="16.112" transform="translate(171.449 181.397)" fill="none" stroke="#263238" stroke-linecap="round" stroke-linejoin="round" stroke-width="1"/><line y2="16.112" transform="translate(160.255 181.397)" fill="none" stroke="#263238" stroke-linecap="round" stroke-linejoin="round" stroke-width="1"/><line y2="16.112" transform="translate(149.038 181.397)" fill="none" stroke="#263238" stroke-linecap="round" stroke-linejoin="round" stroke-width="1"/><line y2="16.112" transform="translate(132.246 181.397)" fill="none" stroke="#263238" stroke-linecap="round" stroke-linejoin="round" stroke-width="1"/><line y2="16.112" transform="translate(104.215 181.397)" fill="none" stroke="#263238" stroke-linecap="round" stroke-linejoin="round" stroke-width="1"/><rect width="193.928" height="17.245" transform="translate(204.125 216.362) rotate(180)" fill="#fff" stroke="#263238" stroke-linecap="round" stroke-linejoin="round" stroke-width="1"/><line y2="16.112" transform="translate(193.86 199.525)" fill="none" stroke="#263238" stroke-linecap="round" stroke-linejoin="round" stroke-width="1"/><line y2="16.112" transform="translate(199.48 199.525)" fill="none" stroke="#263238" stroke-linecap="round" stroke-linejoin="round" stroke-width="1"/><line y2="16.112" transform="translate(182.666 199.525)" fill="none" stroke="#263238" stroke-linecap="round" stroke-linejoin="round" stroke-width="1"/><line y2="16.112" transform="translate(171.449 199.525)" fill="none" stroke="#263238" stroke-linecap="round" stroke-linejoin="round" stroke-width="1"/><line y2="16.112" transform="translate(160.255 199.525)" fill="none" stroke="#263238" stroke-linecap="round" stroke-linejoin="round" stroke-width="1"/><line y2="16.112" transform="translate(149.038 199.525)" fill="none" stroke="#263238" stroke-linecap="round" stroke-linejoin="round" stroke-width="1"/><line y2="16.112" transform="translate(132.246 199.525)" fill="none" stroke="#263238" stroke-linecap="round" stroke-linejoin="round" stroke-width="1"/><line y2="16.112" transform="translate(104.215 199.525)" fill="none" stroke="#263238" stroke-linecap="round" stroke-linejoin="round" stroke-width="1"/><rect width="193.928" height="17.245" transform="translate(193.928 234.49) rotate(180)" fill="#fff" stroke="#263238" stroke-linecap="round" stroke-linejoin="round" stroke-width="1"/><line y2="16.112" transform="translate(183.663 217.654)" fill="none" stroke="#263238" stroke-linecap="round" stroke-linejoin="round" stroke-width="1"/><line y2="16.112" transform="translate(189.283 217.654)" fill="none" stroke="#263238" stroke-linecap="round" stroke-linejoin="round" stroke-width="1"/><line y2="16.112" transform="translate(172.469 217.654)" fill="none" stroke="#263238" stroke-linecap="round" stroke-linejoin="round" stroke-width="1"/><line y2="16.112" transform="translate(161.252 217.654)" fill="none" stroke="#263238" stroke-linecap="round" stroke-linejoin="round" stroke-width="1"/><line y2="16.112" transform="translate(150.058 217.654)" fill="none" stroke="#263238" stroke-linecap="round" stroke-linejoin="round" stroke-width="1"/><line y2="16.112" transform="translate(138.841 217.654)" fill="none" stroke="#263238" stroke-linecap="round" stroke-linejoin="round" stroke-width="1"/><line y2="16.112" transform="translate(122.049 217.654)" fill="none" stroke="#263238" stroke-linecap="round" stroke-linejoin="round" stroke-width="1"/><line y2="16.112" transform="translate(94.018 217.654)" fill="none" stroke="#263238" stroke-linecap="round" stroke-linejoin="round" stroke-width="1"/><rect width="193.928" height="17.245" transform="translate(198.46 252.619) rotate(180)" fill="#fff" stroke="#263238" stroke-linecap="round" stroke-linejoin="round" stroke-width="1"/><line y2="16.112" transform="translate(188.195 235.782)" fill="none" stroke="#263238" stroke-linecap="round" stroke-linejoin="round" stroke-width="1"/><line y2="16.112" transform="translate(193.815 235.782)" fill="none" stroke="#263238" stroke-linecap="round" stroke-linejoin="round" stroke-width="1"/><line y2="16.112" transform="translate(177.001 235.782)" fill="none" stroke="#263238" stroke-linecap="round" stroke-linejoin="round" stroke-width="1"/><line y2="16.112" transform="translate(165.784 235.782)" fill="none" stroke="#263238" stroke-linecap="round" stroke-linejoin="round" stroke-width="1"/><line y2="16.112" transform="translate(154.59 235.782)" fill="none" stroke="#263238" stroke-linecap="round" stroke-linejoin="round" stroke-width="1"/><line y2="16.112" transform="translate(143.373 235.782)" fill="none" stroke="#263238" stroke-linecap="round" stroke-linejoin="round" stroke-width="1"/><line y2="16.112" transform="translate(126.581 235.782)" fill="none" stroke="#263238" stroke-linecap="round" stroke-linejoin="round" stroke-width="1"/><line y2="16.112" transform="translate(98.55 235.782)" fill="none" stroke="#263238" stroke-linecap="round" stroke-linejoin="round" stroke-width="1"/><rect width="193.928" height="17.245" transform="translate(199.593 270.747) rotate(180)" fill="#fff" stroke="#263238" stroke-linecap="round" stroke-linejoin="round" stroke-width="1"/><line y2="16.112" transform="translate(189.328 253.91)" fill="none" stroke="#263238" stroke-linecap="round" stroke-linejoin="round" stroke-width="1"/><line y2="16.112" transform="translate(194.948 253.91)" fill="none" stroke="#263238" stroke-linecap="round" stroke-linejoin="round" stroke-width="1"/><line y2="16.112" transform="translate(178.134 253.91)" fill="none" stroke="#263238" stroke-linecap="round" stroke-linejoin="round" stroke-width="1"/><line y2="16.112" transform="translate(166.917 253.91)" fill="none" stroke="#263238" stroke-linecap="round" stroke-linejoin="round" stroke-width="1"/><line y2="16.112" transform="translate(155.723 253.91)" fill="none" stroke="#263238" stroke-linecap="round" stroke-linejoin="round" stroke-width="1"/><line y2="16.112" transform="translate(144.506 253.91)" fill="none" stroke="#263238" stroke-linecap="round" stroke-linejoin="round" stroke-width="1"/><line y2="16.112" transform="translate(127.714 253.91)" fill="none" stroke="#263238" stroke-linecap="round" stroke-linejoin="round" stroke-width="1"/><line y2="16.112" transform="translate(99.683 253.91)" fill="none" stroke="#263238" stroke-linecap="round" stroke-linejoin="round" stroke-width="1"/><rect width="193.928" height="17.245" transform="translate(204.125 288.876) rotate(180)" fill="#fff" stroke="#263238" stroke-linecap="round" stroke-linejoin="round" stroke-width="1"/><line y2="16.112" transform="translate(193.86 272.039)" fill="none" stroke="#263238" stroke-linecap="round" stroke-linejoin="round" stroke-width="1"/><line y2="16.112" transform="translate(199.48 272.039)" fill="none" stroke="#263238" stroke-linecap="round" stroke-linejoin="round" stroke-width="1"/><line y2="16.112" transform="translate(182.666 272.039)" fill="none" stroke="#263238" stroke-linecap="round" stroke-linejoin="round" stroke-width="1"/><line y2="16.112" transform="translate(171.449 272.039)" fill="none" stroke="#263238" stroke-linecap="round" stroke-linejoin="round" stroke-width="1"/><line y2="16.112" transform="translate(160.255 272.039)" fill="none" stroke="#263238" stroke-linecap="round" stroke-linejoin="round" stroke-width="1"/><line y2="16.112" transform="translate(149.038 272.039)" fill="none" stroke="#263238" stroke-linecap="round" stroke-linejoin="round" stroke-width="1"/><line y2="16.112" transform="translate(132.246 272.039)" fill="none" stroke="#263238" stroke-linecap="round" stroke-linejoin="round" stroke-width="1"/><line y2="16.112" transform="translate(104.215 272.039)" fill="none" stroke="#263238" stroke-linecap="round" stroke-linejoin="round" stroke-width="1"/><rect width="193.928" height="17.245" transform="translate(204.125 307.004) rotate(180)" fill="#fff" stroke="#263238" stroke-linecap="round" stroke-linejoin="round" stroke-width="1"/><line y2="16.112" transform="translate(193.86 290.167)" fill="none" stroke="#263238" stroke-linecap="round" stroke-linejoin="round" stroke-width="1"/><line y2="16.112" transform="translate(199.48 290.167)" fill="none" stroke="#263238" stroke-linecap="round" stroke-linejoin="round" stroke-width="1"/><line y2="16.112" transform="translate(182.666 290.167)" fill="none" stroke="#263238" stroke-linecap="round" stroke-linejoin="round" stroke-width="1"/><line y2="16.112" transform="translate(171.449 290.167)" fill="none" stroke="#263238" stroke-linecap="round" stroke-linejoin="round" stroke-width="1"/><line y2="16.112" transform="translate(160.255 290.167)" fill="none" stroke="#263238" stroke-linecap="round" stroke-linejoin="round" stroke-width="1"/><line y2="16.112" transform="translate(149.038 290.167)" fill="none" stroke="#263238" stroke-linecap="round" stroke-linejoin="round" stroke-width="1"/><line y2="16.112" transform="translate(132.246 290.167)" fill="none" stroke="#263238" stroke-linecap="round" stroke-linejoin="round" stroke-width="1"/><line y2="16.112" transform="translate(104.215 290.167)" fill="none" stroke="#263238" stroke-linecap="round" stroke-linejoin="round" stroke-width="1"/><rect width="193.928" height="17.245" transform="translate(199.593 325.132) rotate(180)" fill="#fff" stroke="#263238" stroke-linecap="round" stroke-linejoin="round" stroke-width="1"/><line y2="16.112" transform="translate(189.328 308.296)" fill="none" stroke="#263238" stroke-linecap="round" stroke-linejoin="round" stroke-width="1"/><line y2="16.112" transform="translate(194.948 308.296)" fill="none" stroke="#263238" stroke-linecap="round" stroke-linejoin="round" stroke-width="1"/><line y2="16.112" transform="translate(178.134 308.296)" fill="none" stroke="#263238" stroke-linecap="round" stroke-linejoin="round" stroke-width="1"/><line y2="16.112" transform="translate(166.917 308.296)" fill="none" stroke="#263238" stroke-linecap="round" stroke-linejoin="round" stroke-width="1"/><line y2="16.112" transform="translate(155.723 308.296)" fill="none" stroke="#263238" stroke-linecap="round" stroke-linejoin="round" stroke-width="1"/><line y2="16.112" transform="translate(144.506 308.296)" fill="none" stroke="#263238" stroke-linecap="round" stroke-linejoin="round" stroke-width="1"/><line y2="16.112" transform="translate(127.714 308.296)" fill="none" stroke="#263238" stroke-linecap="round" stroke-linejoin="round" stroke-width="1"/><line y2="16.112" transform="translate(99.683 308.296)" fill="none" stroke="#263238" stroke-linecap="round" stroke-linejoin="round" stroke-width="1"/><rect width="193.928" height="17.245" transform="translate(204.125 343.261) rotate(180)" fill="#fff" stroke="#263238" stroke-linecap="round" stroke-linejoin="round" stroke-width="1"/><line y2="16.112" transform="translate(193.86 326.424)" fill="none" stroke="#263238" stroke-linecap="round" stroke-linejoin="round" stroke-width="1"/><line y2="16.112" transform="translate(199.48 326.424)" fill="none" stroke="#263238" stroke-linecap="round" stroke-linejoin="round" stroke-width="1"/><line y2="16.112" transform="translate(182.666 326.424)" fill="none" stroke="#263238" stroke-linecap="round" stroke-linejoin="round" stroke-width="1"/><line y2="16.112" transform="translate(171.449 326.424)" fill="none" stroke="#263238" stroke-linecap="round" stroke-linejoin="round" stroke-width="1"/><line y2="16.112" transform="translate(160.255 326.424)" fill="none" stroke="#263238" stroke-linecap="round" stroke-linejoin="round" stroke-width="1"/><line y2="16.112" transform="translate(149.038 326.424)" fill="none" stroke="#263238" stroke-linecap="round" stroke-linejoin="round" stroke-width="1"/><line y2="16.112" transform="translate(132.246 326.424)" fill="none" stroke="#263238" stroke-linecap="round" stroke-linejoin="round" stroke-width="1"/><line y2="16.112" transform="translate(104.215 326.424)" fill="none" stroke="#263238" stroke-linecap="round" stroke-linejoin="round" stroke-width="1"/></g></g><g transform="matrix(1, 0, 0, 1, 959.5, 2748)" filter="url(#a)"><g transform="translate(222.5 6)" fill="#e9ffec" stroke="#2bd142" stroke-width="1"><rect width="169" height="75" rx="5" stroke="none"/><rect x="0.5" y="0.5" width="168" height="74" rx="4.5" fill="none"/></g></g><g transform="matrix(1, 0, 0, 1, 959.5, 2748)" filter="url(#c)"><g transform="translate(411.5 6)" fill="#ffede5" stroke="#f26522" stroke-width="1"><rect width="169" height="75" rx="5" stroke="none"/><rect x="0.5" y="0.5" width="168" height="74" rx="4.5" fill="none"/></g></g><text transform="translate(1228 2779)" fill="#666" font-size="16" font-family="Ubuntu-Bold, Ubuntu" font-weight="700"><tspan x="0" y="0">A Receber</tspan></text><text transform="translate(1426 2779)" fill="#666" font-size="16" font-family="Ubuntu-Bold, Ubuntu" font-weight="700"><tspan x="0" y="0">A Pagar</tspan></text><text transform="translate(1202 2814)" fill="#37d24c" font-size="24" font-family="Ubuntu-Bold, Ubuntu" font-weight="700"><tspan x="0" y="0">R$ 3.800,00</tspan></text><text transform="translate(1391 2814)" fill="#f26522" font-size="24" font-family="Ubuntu-Bold, Ubuntu" font-weight="700"><tspan x="0" y="0">R$ 1.450,00</tspan></text><g transform="translate(0 237)"><g transform="matrix(1, 0, 0, 1, 959.5, 2511)" filter="url(#e)"><rect width="326" height="67" rx="5" transform="translate(274.5 101)" fill="#fff"/></g><text transform="translate(1254 2652)" fill="#0074ff" font-size="16" font-family="Ubuntu-Bold, Ubuntu" font-weight="700"><tspan x="0" y="0">Saldo atualizado</tspan></text><text transform="translate(1411 2654)" fill="#0074ff" font-size="24" font-family="Ubuntu-Bold, Ubuntu" font-weight="700"><tspan x="0" y="0">R$ 2.350,00</tspan></text></g></g></svg>