<svg xmlns="http://www.w3.org/2000/svg" viewBox="0 0 155.45 249"><defs><style>.cls-1{fill:#e0e0e0;}.cls-2{fill:#8f00fc;}.cls-15,.cls-18,.cls-19,.cls-20,.cls-21,.cls-3,.cls-6{isolation:isolate;}.cls-3{opacity:0.15;}.cls-18,.cls-21,.cls-4{fill:#fff;}.cls-5{opacity:0.7;}.cls-6{opacity:0.1;}.cls-7{opacity:0.6;}.cls-8{fill:#455a64;}.cls-15,.cls-9{opacity:0.4;}.cls-10{fill:#37474f;}.cls-11{fill:#fafafa;}.cls-12{opacity:0.8;}.cls-13{fill:#263238;}.cls-14{fill:#ffa8a7;}.cls-16{fill:#f28f8f;}.cls-17{fill:#b16668;}.cls-18{opacity:0.45;}.cls-19,.cls-21{opacity:0.3;}.cls-20{opacity:0.2;}</style></defs><g id="Camada_2" data-name="Camada 2"><g id="Camada_1-2" data-name="Camada 1"><g id="Grupo_449" data-name="Grupo 449"><path id="freepik--Shadow--inject-62" class="cls-1" d="M47.79,202.4l9.88-5.7,40.47,23.35L141,195.32l-88.25-51L0,174.81Z"/><ellipse id="freepik--shadow--inject-62-2" class="cls-1" cx="61.47" cy="229.49" rx="33.8" ry="19.51"/><g id="freepik--Plant--inject-62"><g id="freepik--Plants--inject-62"><path id="Caminho_765" data-name="Caminho 765" class="cls-2" d="M129.23,185.65a54.24,54.24,0,0,1,3.24-35.2c3.92-8,11.3-14.91,17.79-14.22,6.08.65,7.15,8.2,1.41,14.66s-15.78,18.72-18.16,26.84c-1.63,5.35-2.44,8.83-2.44,8.83Z"/><path id="Caminho_766" data-name="Caminho 766" class="cls-3" d="M129.23,185.65a54.24,54.24,0,0,1,3.24-35.2c3.92-8,11.3-14.91,17.79-14.22,6.08.65,7.15,8.2,1.41,14.66s-15.78,18.72-18.16,26.84c-1.63,5.35-2.44,8.83-2.44,8.83Z"/><path id="Caminho_767" data-name="Caminho 767" class="cls-4" d="M129.64,182.64a.39.39,0,0,0,.28-.39c-.54-18.66,10.62-36.44,18.55-41.6a.42.42,0,0,0,.11-.55A.4.4,0,0,0,148,140h0c-8.08,5.26-19.48,23.35-18.9,42.29a.38.38,0,0,0,.38.38h0Z"/><path id="Caminho_768" data-name="Caminho 768" class="cls-2" d="M130.2,194.76c.17-3.13,3.5-7,8.4-12.33,5.43-5.89,13.1-9.74,14.19-13.65,1.31-4.65-3.07-7.78-9.48-5.47s-16,13.95-14.77,27.94Z"/><path id="Caminho_769" data-name="Caminho 769" class="cls-4" d="M129.06,193.75a.4.4,0,0,0,.27-.33c2-16.54,12.47-24.56,17.72-26.48a.39.39,0,1,0-.24-.75h0c-5.8,2.14-16.17,10.24-18.23,27.12a.4.4,0,0,0,.35.44A.43.43,0,0,0,129.06,193.75Z"/></g></g><g id="freepik--Boxes--inject-62"><g id="freepik--boxes--inject-62-2"><path id="Caminho_770" data-name="Caminho 770" class="cls-2" d="M7.14,147.81,43.07,127l40.8,23.61L47.93,171.43Z"/><g id="Grupo_159" data-name="Grupo 159" class="cls-5"><path id="Caminho_771" data-name="Caminho 771" class="cls-4" d="M7.14,147.81,43.07,127l40.8,23.61L47.93,171.43Z"/></g><path id="Caminho_772" data-name="Caminho 772" class="cls-6" d="M79.67,148.21,44.79,168.39,8.2,147.2,43.07,127Z"/><path id="Caminho_773" data-name="Caminho 773" class="cls-2" d="M47.93,198.4,7.14,174.79v-27l40.79,23.62Z"/><g id="Grupo_160" data-name="Grupo 160" class="cls-7"><path id="Caminho_774" data-name="Caminho 774" class="cls-4" d="M47.93,198.4,7.14,174.79v-27l40.79,23.62Z"/></g><path id="Caminho_775" data-name="Caminho 775" class="cls-8" d="M42.94,189.31a2.59,2.59,0,0,1-1.1-2.09V184l2.24,1.32h.15v.21h0v2.86a1.06,1.06,0,0,1-.44,1,.74.74,0,0,1-.36.09,1.09,1.09,0,0,1-.49-.16Zm.22-3.47L43,187h-.81v.23a2.27,2.27,0,0,0,1,1.81.49.49,0,0,0,.48.05c.17-.09.26-.33.26-.66v-2.64Zm-.31-.31.65-.12-1.33-.81v2.05h.52Z"/><path id="Caminho_776" data-name="Caminho 776" class="cls-8" d="M43,191.74a.17.17,0,0,0,.17-.18h0v-2.44A.18.18,0,0,0,43,189a.19.19,0,0,0-.17.17v2.44a.18.18,0,0,0,.18.18Z"/><path id="Caminho_777" data-name="Caminho 777" class="cls-8" d="M44.07,192.33a.17.17,0,0,0,.16-.09.18.18,0,0,0-.07-.24l-2.08-1.2a.17.17,0,0,0-.24,0h0a.17.17,0,0,0,.07.24L44,192.33Z"/><path id="Caminho_778" data-name="Caminho 778" class="cls-8" d="M36.67,188.21a.36.36,0,0,0,.2-.06.45.45,0,0,0,.21-.43v-.5a.18.18,0,0,0-.17-.17.18.18,0,0,0-.18.17v.5a.24.24,0,0,1,0,.12h-.12a1,1,0,0,1-.34-.81v-3.2a.18.18,0,0,0-.18-.18.17.17,0,0,0-.17.18V187a1.36,1.36,0,0,0,.51,1.12.48.48,0,0,0,.24.06Z"/><path id="Caminho_779" data-name="Caminho 779" class="cls-8" d="M33.75,182.65v-.11a1.52,1.52,0,0,1,2.48-1.42,5.09,5.09,0,0,1,2.3,4v.31Zm.92-1.38a1.33,1.33,0,0,0-.56,1.18l4.06,2.32a4.76,4.76,0,0,0-2.1-3.34,1.8,1.8,0,0,0-.9-.28.88.88,0,0,0-.5.12Z"/><path id="Caminho_780" data-name="Caminho 780" class="cls-8" d="M30.18,184.52a.18.18,0,0,0,.18-.17h0v-6.11a.18.18,0,0,0-.36,0h0v6.12A.18.18,0,0,0,30.18,184.52Z"/><path id="Caminho_781" data-name="Caminho 781" class="cls-8" d="M30.7,179.62h.07a.18.18,0,0,0,.11-.23h0l-.65-1.48-.71.81a.18.18,0,0,0,0,.25.18.18,0,0,0,.26,0l0,0,.34-.39.41,1a.18.18,0,0,0,.17.1Z"/><path id="Caminho_782" data-name="Caminho 782" class="cls-8" d="M28.56,183.57a.18.18,0,0,0,.18-.18v-6.12a.18.18,0,0,0-.36,0v6.13A.18.18,0,0,0,28.56,183.57Z"/><path id="Caminho_783" data-name="Caminho 783" class="cls-8" d="M29.05,178.67h.06a.17.17,0,0,0,.1-.23h0l-.65-1.53-.71.81a.18.18,0,0,0,0,.26.19.19,0,0,0,.25,0h0l.34-.39.41,1A.18.18,0,0,0,29.05,178.67Z"/><path id="Caminho_784" data-name="Caminho 784" class="cls-2" d="M47.93,198.41l35.94-20.78v-27L47.93,171.43Z"/><g id="Grupo_161" data-name="Grupo 161" class="cls-9"><path id="Caminho_785" data-name="Caminho 785" class="cls-4" d="M47.93,198.41l35.94-20.78v-27L47.93,171.43Z"/></g><path id="Caminho_786" data-name="Caminho 786" class="cls-10" d="M67.66,164.1,65,165.63v-4.11L67.66,160Z"/><path id="Caminho_787" data-name="Caminho 787" class="cls-8" d="M65,161.52l-40.8-23.61,2.65-1.52L67.66,160Z"/><path id="Caminho_788" data-name="Caminho 788" class="cls-10" d="M63.47,157.58l-2.64,1.52-1.5-.85L62,156.72Z"/><path id="Caminho_789" data-name="Caminho 789" class="cls-11" d="M78.72,167.62,69.39,173a.91.91,0,0,0-.43.73v6.49c0,.54.38.76.81.49l9.34-5.4a1,1,0,0,0,.43-.73v-6.49C79.56,167.57,79.19,167.35,78.72,167.62Z"/><path id="Caminho_790" data-name="Caminho 790" class="cls-8" d="M79,168.63l-.32.19v5.72l.32-.18Z"/><path id="Caminho_791" data-name="Caminho 791" class="cls-8" d="M77.66,169.37l-.54.33v5.73l.54-.32Z"/><path id="Caminho_792" data-name="Caminho 792" class="cls-8" d="M76.37,170.12l-.32.19V176l.32-.18Z"/><path id="Caminho_793" data-name="Caminho 793" class="cls-8" d="M75.4,170.68l-.64.37v5.73l.64-.37Z"/><path id="Caminho_794" data-name="Caminho 794" class="cls-8" d="M73.78,171.61l-.31.19v5.73l.31-.18Z"/><path id="Caminho_795" data-name="Caminho 795" class="cls-8" d="M72.85,172.14l-.68.41v5.73l.68-.4Z"/><path id="Caminho_796" data-name="Caminho 796" class="cls-8" d="M71.2,173.11l-.32.18V179l.32-.18Z"/><path id="Caminho_797" data-name="Caminho 797" class="cls-8" d="M70.46,173.53l-.17.09v5.73l.17-.1Z"/><path id="Caminho_798" data-name="Caminho 798" class="cls-8" d="M71.79,172.8l-.16.09v5.73l.16-.1Z"/><path id="Caminho_799" data-name="Caminho 799" class="cls-8" d="M74.39,171.27l-.16.09v5.74l.16-.1Z"/><path id="Caminho_800" data-name="Caminho 800" class="cls-8" d="M75.82,170.45l-.16.09v5.73l.16-.09Z"/><path id="Caminho_801" data-name="Caminho 801" class="cls-8" d="M76.84,169.89l-.16.1v5.72l.16-.1Z"/><path id="Caminho_802" data-name="Caminho 802" class="cls-8" d="M78.23,169l-.15.09v5.74l.15-.1Z"/><path id="Caminho_803" data-name="Caminho 803" class="cls-8" d="M69.91,173.85l-.33.19v5.73l.33-.18Z"/><path id="Caminho_804" data-name="Caminho 804" class="cls-2" d="M3.63,116.28,39.56,95.5l40.79,23.61L44.43,139.89Z"/><g id="Grupo_162" data-name="Grupo 162" class="cls-12"><path id="Caminho_805" data-name="Caminho 805" class="cls-4" d="M3.63,116.28,39.56,95.5l40.79,23.61L44.43,139.89Z"/></g><path id="Caminho_806" data-name="Caminho 806" class="cls-2" d="M44.42,166.88,3.63,143.27v-27l40.79,23.61Z"/><g id="Grupo_163" data-name="Grupo 163" class="cls-5"><path id="Caminho_807" data-name="Caminho 807" class="cls-4" d="M44.42,166.88,3.63,143.27v-27l40.79,23.61Z"/></g><path id="Caminho_808" data-name="Caminho 808" class="cls-8" d="M39.42,157.78a2.6,2.6,0,0,1-1.1-2.09V152.5l2.24,1.31h.15V154h0v2.86a1.05,1.05,0,0,1-.44,1,.71.71,0,0,1-.35.1A1,1,0,0,1,39.42,157.78Zm.26-3.45-.17,1.13h-.82v.23a2.28,2.28,0,0,0,.92,1.78.5.5,0,0,0,.49.05.74.74,0,0,0,.26-.65V154.2Zm-.33-.3.67-.12-1.34-.81v2h.52Z"/><path id="Caminho_809" data-name="Caminho 809" class="cls-8" d="M39.51,160.21a.18.18,0,0,0,.18-.18v-2.44a.18.18,0,0,0-.36,0V160a.18.18,0,0,0,.18.18Z"/><path id="Caminho_810" data-name="Caminho 810" class="cls-8" d="M40.56,160.81a.19.19,0,0,0,.17-.13.18.18,0,0,0-.06-.24l-2.1-1.21a.18.18,0,0,0-.24.06.17.17,0,0,0,.05.24h0l2.1,1.21a.13.13,0,0,0,.07.06Z"/><path id="Caminho_811" data-name="Caminho 811" class="cls-8" d="M33.12,156.67a.41.41,0,0,0,.19,0,.47.47,0,0,0,.22-.43v-.5a.18.18,0,0,0-.36,0v.62h-.12a1.07,1.07,0,0,1-.34-.81v-3.2a.18.18,0,0,0-.18-.18.18.18,0,0,0-.17.18v3.2a1.36,1.36,0,0,0,.51,1.12.53.53,0,0,0,.25,0Z"/><path id="Caminho_812" data-name="Caminho 812" class="cls-8" d="M30.23,151.12V151a1.52,1.52,0,0,1,2.48-1.46,5.07,5.07,0,0,1,2.3,4v.31Zm.92-1.38a1.3,1.3,0,0,0-.55,1.17l4,2.34a4.8,4.8,0,0,0-2.1-3.36,1.89,1.89,0,0,0-.9-.27,1,1,0,0,0-.5.12Z"/><path id="Caminho_813" data-name="Caminho 813" class="cls-8" d="M26.66,153a.17.17,0,0,0,.18-.17h0v-6.12a.18.18,0,1,0-.36,0v6.12a.17.17,0,0,0,.17.18Z"/><path id="Caminho_814" data-name="Caminho 814" class="cls-8" d="M27.19,148.09h.07a.2.2,0,0,0,.09-.25l-.64-1.47-.72.81a.18.18,0,0,0,0,.24h0a.19.19,0,0,0,.26,0l.34-.39.41,1A.18.18,0,0,0,27.19,148.09Z"/><path id="Caminho_815" data-name="Caminho 815" class="cls-8" d="M25,152a.18.18,0,0,0,.18-.17v-6.12a.18.18,0,1,0-.36,0h0v6.12A.17.17,0,0,0,25,152Z"/><path id="Caminho_816" data-name="Caminho 816" class="cls-8" d="M25.53,147.14h.07a.17.17,0,0,0,.09-.23l-.64-1.49-.71.82a.18.18,0,0,0,0,.25.18.18,0,0,0,.23,0l.34-.39.41.95A.18.18,0,0,0,25.53,147.14Z"/><path id="Caminho_817" data-name="Caminho 817" class="cls-2" d="M44.42,166.88,80.35,146.1v-27L44.42,139.89Z"/><g id="Grupo_164" data-name="Grupo 164" class="cls-7"><path id="Caminho_818" data-name="Caminho 818" class="cls-4" d="M44.42,166.88,80.35,146.1v-27L44.42,139.89Z"/></g><path id="Caminho_819" data-name="Caminho 819" class="cls-10" d="M64.15,132.56l-2.65,1.53V130l2.65-1.53Z"/><path id="Caminho_820" data-name="Caminho 820" class="cls-8" d="M61.5,130,20.71,106.38l2.63-1.52,40.8,23.61Z"/><path id="Caminho_821" data-name="Caminho 821" class="cls-11" d="M75.2,136.09l-9.32,5.4a.93.93,0,0,0-.42.73v6.49c0,.52.38.74.81.48l9.35-5.38a1,1,0,0,0,.42-.73v-6.49C76.05,136,75.67,135.83,75.2,136.09Z"/><path id="Caminho_822" data-name="Caminho 822" class="cls-8" d="M75.44,137.1l-.32.19V143l.32-.18Z"/><path id="Caminho_823" data-name="Caminho 823" class="cls-8" d="M74.15,137.85l-.55.32v5.73l.55-.33Z"/><path id="Caminho_824" data-name="Caminho 824" class="cls-8" d="M72.85,138.59l-.32.19v5.73l.32-.19Z"/><path id="Caminho_825" data-name="Caminho 825" class="cls-8" d="M71.88,139.14l-.64.39v5.72l.64-.38Z"/><path id="Caminho_826" data-name="Caminho 826" class="cls-8" d="M70.26,140.09l-.31.18V146l.31-.19Z"/><path id="Caminho_827" data-name="Caminho 827" class="cls-8" d="M69.34,140.61l-.69.41v5.73l.69-.41Z"/><path id="Caminho_828" data-name="Caminho 828" class="cls-8" d="M67.67,141.58l-.31.19v5.72l.31-.18Z"/><path id="Caminho_829" data-name="Caminho 829" class="cls-8" d="M66.94,142l-.16.09v5.73l.16-.09Z"/><path id="Caminho_830" data-name="Caminho 830" class="cls-8" d="M68.26,141.26l-.15.1v5.73l.15-.09Z"/><path id="Caminho_831" data-name="Caminho 831" class="cls-8" d="M70.87,139.74l-.15.09v5.73l.15-.09Z"/><path id="Caminho_832" data-name="Caminho 832" class="cls-8" d="M72.3,138.93l-.15.08v5.74l.15-.09Z"/><path id="Caminho_833" data-name="Caminho 833" class="cls-8" d="M73.33,138.36l-.16.09v5.73l.16-.09Z"/><path id="Caminho_834" data-name="Caminho 834" class="cls-8" d="M74.72,137.51l-.17.09v5.73l.17-.09Z"/><path id="Caminho_835" data-name="Caminho 835" class="cls-8" d="M66.38,142.32l-.31.19v5.73l.31-.19Z"/></g><g id="freepik--boxes--inject-62-3"><path id="Caminho_836" data-name="Caminho 836" class="cls-2" d="M57.12,165.78,93,145l40.8,23.61L97.91,189.39Z"/><g id="Grupo_165" data-name="Grupo 165" class="cls-12"><path id="Caminho_837" data-name="Caminho 837" class="cls-4" d="M57.12,165.78,93,145l40.8,23.61L97.91,189.39Z"/></g><path id="Caminho_838" data-name="Caminho 838" class="cls-6" d="M129.63,166.18,94.93,186.3,58.34,165.12,93,145Z"/><path id="Caminho_839" data-name="Caminho 839" class="cls-2" d="M97.91,216.38,57.12,192.77v-27l40.79,23.61Z"/><g id="Grupo_166" data-name="Grupo 166" class="cls-5"><path id="Caminho_840" data-name="Caminho 840" class="cls-4" d="M97.91,216.38,57.12,192.77v-27l40.79,23.61Z"/></g><path id="Caminho_841" data-name="Caminho 841" class="cls-8" d="M92.91,207.28a2.59,2.59,0,0,1-1.1-2.09V202l2.25,1.32h.15v.21h0v2.86a1.08,1.08,0,0,1-.44,1,.74.74,0,0,1-.36.09A1,1,0,0,1,92.91,207.28Zm.26-3.44L93,205h-.81v.23a2.26,2.26,0,0,0,.93,1.78.49.49,0,0,0,.48.05c.17-.09.26-.33.26-.66v-2.67Zm-.32-.31.66-.12-1.33-.81v2h.51Z"/><path id="Caminho_842" data-name="Caminho 842" class="cls-8" d="M93,209.71a.19.19,0,0,0,.19-.17h0v-2.44a.18.18,0,0,0-.2-.16.16.16,0,0,0-.16.16v2.44A.17.17,0,0,0,93,209.71Z"/><path id="Caminho_843" data-name="Caminho 843" class="cls-8" d="M94.05,210.31a.18.18,0,0,0,.18-.17.17.17,0,0,0-.09-.16l-2.09-1.21a.18.18,0,0,0-.25,0,.19.19,0,0,0,0,.25l0,0,2.08,1.2Z"/><path id="Caminho_844" data-name="Caminho 844" class="cls-8" d="M86.61,206.17a.46.46,0,0,0,.2,0,.49.49,0,0,0,.21-.43v-.5a.18.18,0,1,0-.36,0v.5c0,.07,0,.11,0,.12h-.11a1.08,1.08,0,0,1-.33-.81v-3.2a.18.18,0,0,0-.36,0V205a1.39,1.39,0,0,0,.5,1.12.56.56,0,0,0,.28,0Z"/><path id="Caminho_845" data-name="Caminho 845" class="cls-8" d="M83.73,200.62v-.1a1.52,1.52,0,0,1,2.48-1.43,5.09,5.09,0,0,1,2.3,4v.31Zm.92-1.38a1.34,1.34,0,0,0-.56,1.18l4,2.33A4.68,4.68,0,0,0,86,199.4a1.87,1.87,0,0,0-.89-.28,1,1,0,0,0-.5.12Z"/><path id="Caminho_846" data-name="Caminho 846" class="cls-8" d="M80.16,202.49a.17.17,0,0,0,.18-.17h0V196.2a.17.17,0,0,0-.17-.19.18.18,0,0,0-.19.16v6.15a.17.17,0,0,0,.18.17Z"/><path id="Caminho_847" data-name="Caminho 847" class="cls-8" d="M80.68,197.59h.07a.17.17,0,0,0,.1-.23h0l-.64-1.49-.71.81a.19.19,0,0,0,0,.26.18.18,0,0,0,.25,0l0,0,.34-.39.41.95A.17.17,0,0,0,80.68,197.59Z"/><path id="Caminho_848" data-name="Caminho 848" class="cls-8" d="M78.5,201.54a.18.18,0,0,0,.17-.17v-6.12a.17.17,0,0,0-.17-.18.18.18,0,0,0-.18.18v6.12A.18.18,0,0,0,78.5,201.54Z"/><path id="Caminho_849" data-name="Caminho 849" class="cls-8" d="M79,196.64h.06a.17.17,0,0,0,.1-.23h0l-.64-1.48-.71.81a.17.17,0,0,0,0,.25.19.19,0,0,0,.26,0l.33-.38.41.94a.18.18,0,0,0,.19.09Z"/><path id="Caminho_850" data-name="Caminho 850" class="cls-2" d="M97.91,216.38l35.93-20.78v-27L97.91,189.39Z"/><g id="Grupo_167" data-name="Grupo 167" class="cls-7"><path id="Caminho_851" data-name="Caminho 851" class="cls-4" d="M97.91,216.38l35.93-20.78v-27L97.91,189.39Z"/></g><path id="Caminho_852" data-name="Caminho 852" class="cls-10" d="M117.64,182.07,115,183.6v-4.11l2.65-1.52Z"/><path id="Caminho_853" data-name="Caminho 853" class="cls-8" d="M115,179.49,74.2,155.88l2.64-1.52L117.64,178Z"/><path id="Caminho_854" data-name="Caminho 854" class="cls-10" d="M113.45,175.54l-2.64,1.53-1.5-.86,2.66-1.53Z"/><path id="Caminho_855" data-name="Caminho 855" class="cls-11" d="M128.7,185.59l-9.34,5.4a.92.92,0,0,0-.42.73v6.49c0,.54.37.76.81.49l9.41-5.4a1,1,0,0,0,.43-.73v-6.49C129.54,185.55,129.17,185.33,128.7,185.59Z"/><path id="Caminho_856" data-name="Caminho 856" class="cls-8" d="M128.94,186.6l-.33.19v5.72l.33-.18Z"/><path id="Caminho_857" data-name="Caminho 857" class="cls-8" d="M127.64,187.35l-.54.32v5.73l.54-.32Z"/><path id="Caminho_858" data-name="Caminho 858" class="cls-8" d="M126.35,188.09l-.32.19V194l.32-.18Z"/><path id="Caminho_859" data-name="Caminho 859" class="cls-8" d="M125.37,188.64l-.63.39v5.72l.63-.37Z"/><path id="Caminho_860" data-name="Caminho 860" class="cls-8" d="M123.76,189.59l-.31.18v5.73l.31-.18Z"/><path id="Caminho_861" data-name="Caminho 861" class="cls-8" d="M122.83,190.11l-.68.41v5.72l.68-.4Z"/><path id="Caminho_862" data-name="Caminho 862" class="cls-8" d="M121.17,191.08l-.31.19V197l.31-.18Z"/><path id="Caminho_863" data-name="Caminho 863" class="cls-8" d="M120.43,191.5l-.16.09v5.74l.16-.1Z"/><path id="Caminho_864" data-name="Caminho 864" class="cls-8" d="M121.77,190.77l-.17.09v5.73l.17-.09Z"/><path id="Caminho_865" data-name="Caminho 865" class="cls-8" d="M124.37,189.24l-.16.09v5.73l.16-.09Z"/><path id="Caminho_866" data-name="Caminho 866" class="cls-8" d="M125.8,188.43l-.16.08v5.73l.16-.09Z"/><path id="Caminho_867" data-name="Caminho 867" class="cls-8" d="M126.82,187.86l-.16.09v5.73l.15-.1Z"/><path id="Caminho_868" data-name="Caminho 868" class="cls-8" d="M128.21,187l-.16.09v5.74l.16-.1Z"/><path id="Caminho_869" data-name="Caminho 869" class="cls-8" d="M119.88,191.83l-.32.18v5.73l.32-.18Z"/><path id="Caminho_870" data-name="Caminho 870" class="cls-2" d="M53.61,134.25l35.93-20.78,40.79,23.61L94.4,157.87Z"/><g id="Grupo_168" data-name="Grupo 168" class="cls-5"><path id="Caminho_871" data-name="Caminho 871" class="cls-4" d="M53.61,134.25l35.93-20.78,40.79,23.61L94.4,157.87Z"/></g><path id="Caminho_872" data-name="Caminho 872" class="cls-6" d="M130.33,137.08,97,156.35,59.88,134.87l33.33-19.28Z"/><path id="Caminho_873" data-name="Caminho 873" class="cls-2" d="M94.4,184.85,53.61,161.24v-27L94.4,157.86Z"/><g id="Grupo_169" data-name="Grupo 169" class="cls-7"><path id="Caminho_874" data-name="Caminho 874" class="cls-4" d="M94.4,184.85,53.61,161.24v-27L94.4,157.86Z"/></g><path id="Caminho_875" data-name="Caminho 875" class="cls-8" d="M89.41,175.75a2.6,2.6,0,0,1-1.1-2.09v-3.19l2.24,1.31h.14V172h0v2.86a1.05,1.05,0,0,1-.43,1,.64.64,0,0,1-.35.1,1,1,0,0,1-.5-.17Zm.25-3.45-.17,1.12h-.81v.25a2.26,2.26,0,0,0,.93,1.77.49.49,0,0,0,.48.06.75.75,0,0,0,.26-.66v-2.65Zm-.32-.3.66-.12-1.33-.81v2h.52Z"/><path id="Caminho_876" data-name="Caminho 876" class="cls-8" d="M89.49,178.18a.18.18,0,0,0,.18-.18h0v-2.43a.18.18,0,1,0-.36,0V178a.19.19,0,0,0,.17.19Z"/><path id="Caminho_877" data-name="Caminho 877" class="cls-8" d="M90.54,178.78a.19.19,0,0,0,.15-.09.2.2,0,0,0-.06-.25l-2.1-1.2a.18.18,0,0,0-.24,0,.19.19,0,0,0,0,.25h0l2.08,1.21Z"/><path id="Caminho_878" data-name="Caminho 878" class="cls-8" d="M83.1,174.64a.41.41,0,0,0,.19,0,.47.47,0,0,0,.22-.44v-.48a.18.18,0,0,0-.2-.17.17.17,0,0,0-.16.17v.61H83a1.09,1.09,0,0,1-.34-.82v-3.18a.18.18,0,0,0-.36,0v3.18a1.37,1.37,0,0,0,.52,1.13A.51.51,0,0,0,83.1,174.64Z"/><path id="Caminho_879" data-name="Caminho 879" class="cls-8" d="M80.21,169.09V169a1.53,1.53,0,0,1,2.48-1.47,5.08,5.08,0,0,1,2.3,4v.32Zm.92-1.38a1.33,1.33,0,0,0-.56,1.17l4.06,2.34a4.76,4.76,0,0,0-2.1-3.35,1.8,1.8,0,0,0-.9-.28,1.08,1.08,0,0,0-.5.12Z"/><path id="Caminho_880" data-name="Caminho 880" class="cls-8" d="M76.64,171a.18.18,0,0,0,.18-.18v-6.12a.18.18,0,0,0-.36,0v6.12A.18.18,0,0,0,76.64,171Z"/><path id="Caminho_881" data-name="Caminho 881" class="cls-8" d="M77.17,166.06h.07a.18.18,0,0,0,.09-.24l-.64-1.47-.72.81a.17.17,0,0,0,0,.24h0a.19.19,0,0,0,.26,0l.34-.4.41,1a.18.18,0,0,0,.19.08Z"/><path id="Caminho_882" data-name="Caminho 882" class="cls-8" d="M75,170a.18.18,0,0,0,.17-.18h0v-6.12a.17.17,0,0,0-.19-.16.16.16,0,0,0-.16.16v6.12A.18.18,0,0,0,75,170Z"/><path id="Caminho_883" data-name="Caminho 883" class="cls-8" d="M75.5,165.11h.08a.17.17,0,0,0,.09-.22v0L75,163.4l-.71.81a.16.16,0,0,0,0,.24h0a.18.18,0,0,0,.25,0h0l.34-.39.42,1A.17.17,0,0,0,75.5,165.11Z"/><path id="Caminho_884" data-name="Caminho 884" class="cls-2" d="M94.4,184.85l35.93-20.79v-27L94.4,157.86Z"/><g id="Grupo_170" data-name="Grupo 170" class="cls-9"><path id="Caminho_885" data-name="Caminho 885" class="cls-4" d="M94.4,184.85l35.93-20.79v-27L94.4,157.86Z"/></g><path id="Caminho_886" data-name="Caminho 886" class="cls-6" d="M130.33,146.1,97,165.37v-9l33.33-19.27Z"/><path id="Caminho_887" data-name="Caminho 887" class="cls-10" d="M114.12,150.54l-2.64,1.52V148l2.64-1.52Z"/><path id="Caminho_888" data-name="Caminho 888" class="cls-8" d="M111.48,148l-40.8-23.61,2.64-1.52,40.79,23.61Z"/><path id="Caminho_889" data-name="Caminho 889" class="cls-11" d="M125.18,154.05l-9.34,5.4a1,1,0,0,0-.42.73v6.49c0,.54.38.76.81.49l9.34-5.4A.9.9,0,0,0,126,161v-6.49C126,154,125.64,153.79,125.18,154.05Z"/><path id="Caminho_890" data-name="Caminho 890" class="cls-8" d="M125.42,155.07l-.32.18V161l.32-.19Z"/><path id="Caminho_891" data-name="Caminho 891" class="cls-8" d="M124.13,155.82l-.56.32v5.73l.56-.32Z"/><path id="Caminho_892" data-name="Caminho 892" class="cls-8" d="M122.83,156.56l-.32.19v5.73l.32-.19Z"/><path id="Caminho_893" data-name="Caminho 893" class="cls-8" d="M121.86,157.12l-.64.37v5.73l.64-.38Z"/><path id="Caminho_894" data-name="Caminho 894" class="cls-8" d="M120.24,158.06l-.32.18V164l.32-.18Z"/><path id="Caminho_895" data-name="Caminho 895" class="cls-8" d="M119.31,158.58l-.68.41v5.73l.68-.41Z"/><path id="Caminho_896" data-name="Caminho 896" class="cls-8" d="M117.65,159.55l-.31.18v5.73l.31-.18Z"/><path id="Caminho_897" data-name="Caminho 897" class="cls-8" d="M116.91,160l-.15.09v5.73l.15-.09Z"/><path id="Caminho_898" data-name="Caminho 898" class="cls-8" d="M118.24,159.23l-.15.1v5.73l.15-.09Z"/><path id="Caminho_899" data-name="Caminho 899" class="cls-8" d="M120.85,157.71l-.15.1v5.73l.15-.09Z"/><path id="Caminho_900" data-name="Caminho 900" class="cls-8" d="M122.28,156.89l-.16.1v5.73l.16-.09Z"/><path id="Caminho_901" data-name="Caminho 901" class="cls-8" d="M123.3,156.33l-.15.09v5.73l.15-.09Z"/><path id="Caminho_902" data-name="Caminho 902" class="cls-8" d="M124.69,155.49l-.16.08v5.73l.16-.09Z"/><path id="Caminho_903" data-name="Caminho 903" class="cls-8" d="M116.36,160.3l-.31.18v5.73l.31-.19Z"/><path id="Caminho_904" data-name="Caminho 904" class="cls-2" d="M62.07,107.8,98,87l40.8,23.61-35.93,20.78Z"/><g id="Grupo_171" data-name="Grupo 171" class="cls-12"><path id="Caminho_905" data-name="Caminho 905" class="cls-4" d="M62.07,107.8,98,87l40.8,23.61-35.93,20.78Z"/></g><path id="Caminho_906" data-name="Caminho 906" class="cls-2" d="M102.86,158.4,62.07,134.79v-27l40.79,23.61Z"/><g id="Grupo_172" data-name="Grupo 172" class="cls-5"><path id="Caminho_907" data-name="Caminho 907" class="cls-4" d="M102.86,158.4,62.07,134.79v-27l40.79,23.61Z"/></g><path id="Caminho_908" data-name="Caminho 908" class="cls-8" d="M97.86,149.33a2.6,2.6,0,0,1-1.1-2.09V144L99,145.36h.15v.21h0v2.85a1.05,1.05,0,0,1-.44,1,.74.74,0,0,1-.35.1,1.09,1.09,0,0,1-.5-.16Zm.26-3.44L98,147h-.81v.23a2.26,2.26,0,0,0,.93,1.77.46.46,0,0,0,.48.06.73.73,0,0,0,.26-.66v-2.64Zm-.32-.32.66-.11-1.34-.81v2h.52Z"/><path id="Caminho_909" data-name="Caminho 909" class="cls-8" d="M98,151.76a.18.18,0,0,0,.18-.18h0v-2.43A.18.18,0,0,0,98,149a.18.18,0,0,0-.2.16v2.46a.18.18,0,0,0,.18.18Z"/><path id="Caminho_910" data-name="Caminho 910" class="cls-8" d="M99,152.33a.18.18,0,0,0,.18-.18.21.21,0,0,0-.09-.15L97,150.79a.18.18,0,1,0-.18.31h0l2.09,1.2.09,0Z"/><path id="Caminho_911" data-name="Caminho 911" class="cls-8" d="M91.56,148.19a.35.35,0,0,0,.2-.05.47.47,0,0,0,.21-.43v-.49a.18.18,0,0,0-.17-.18.18.18,0,0,0-.18.18h0v.48c0,.08,0,.12,0,.13h-.12a1.08,1.08,0,0,1-.33-.81v-3.2a.19.19,0,0,0-.37,0V147a1.43,1.43,0,0,0,.51,1.12.58.58,0,0,0,.29.05Z"/><path id="Caminho_912" data-name="Caminho 912" class="cls-8" d="M88.68,142.64v-.1a1.52,1.52,0,0,1,2.44-1.43,5.13,5.13,0,0,1,2.3,4v.31Zm.92-1.38a1.33,1.33,0,0,0-.56,1.17l4.06,2.34a4.76,4.76,0,0,0-2.1-3.35,1.8,1.8,0,0,0-.9-.28,1,1,0,0,0-.5.12Z"/><path id="Caminho_913" data-name="Caminho 913" class="cls-8" d="M85.11,144.52a.18.18,0,0,0,.18-.18h0v-6.12a.2.2,0,0,0-.2-.17.19.19,0,0,0-.17.17v6.12a.2.2,0,0,0,.19.19Z"/><path id="Caminho_914" data-name="Caminho 914" class="cls-8" d="M85.63,139.59h.07a.2.2,0,0,0,.1-.24l-.64-1.48-.71.81a.17.17,0,0,0,0,.25.19.19,0,0,0,.26,0h0l.34-.39.41.95A.19.19,0,0,0,85.63,139.59Z"/><path id="Caminho_915" data-name="Caminho 915" class="cls-8" d="M83.45,143.57a.18.18,0,0,0,.17-.18v-6.12a.18.18,0,0,0-.14-.22.18.18,0,0,0-.22.14.11.11,0,0,0,0,.08v6.12a.18.18,0,0,0,.18.18Z"/><path id="Caminho_916" data-name="Caminho 916" class="cls-8" d="M84,138.67H84a.18.18,0,0,0,.1-.23h0L83.5,137l-.72.81a.19.19,0,0,0,0,.25.18.18,0,0,0,.25,0l.34-.39.42,1a.19.19,0,0,0,.16.12Z"/><path id="Caminho_917" data-name="Caminho 917" class="cls-2" d="M102.86,158.4l35.93-20.78v-27l-35.93,20.78Z"/><g id="Grupo_173" data-name="Grupo 173" class="cls-7"><path id="Caminho_918" data-name="Caminho 918" class="cls-4" d="M102.86,158.4l35.93-20.78v-27l-35.93,20.78Z"/></g><path id="Caminho_919" data-name="Caminho 919" class="cls-10" d="M122.58,124.09l-2.64,1.52v-4.1l2.64-1.52Z"/><path id="Caminho_920" data-name="Caminho 920" class="cls-8" d="M119.94,121.51,79.15,97.9l2.64-1.52L122.59,120Z"/><path id="Caminho_921" data-name="Caminho 921" class="cls-11" d="M133.65,127.62,124.3,133a1,1,0,0,0-.43.73v6.49c0,.53.38.75.81.49l9.35-5.4a.93.93,0,0,0,.42-.73v-6.49C134.5,127.57,134.11,127.35,133.65,127.62Z"/><path id="Caminho_922" data-name="Caminho 922" class="cls-8" d="M133.88,128.62l-.32.19v5.73l.32-.19Z"/><path id="Caminho_923" data-name="Caminho 923" class="cls-8" d="M132.59,129.37l-.54.32v5.73l.54-.32Z"/><path id="Caminho_924" data-name="Caminho 924" class="cls-8" d="M131.3,130.11l-.33.19V136l.33-.19Z"/><path id="Caminho_925" data-name="Caminho 925" class="cls-8" d="M130.32,130.67l-.64.38v5.73l.64-.39Z"/><path id="Caminho_926" data-name="Caminho 926" class="cls-8" d="M128.71,131.61l-.32.18v5.73l.32-.18Z"/><path id="Caminho_927" data-name="Caminho 927" class="cls-8" d="M127.78,132.13l-.68.41v5.73l.68-.41Z"/><path id="Caminho_928" data-name="Caminho 928" class="cls-8" d="M126.12,133.1l-.31.19V139l.31-.19Z"/><path id="Caminho_929" data-name="Caminho 929" class="cls-8" d="M125.38,133.52l-.16.09v5.73l.16-.09Z"/><path id="Caminho_930" data-name="Caminho 930" class="cls-8" d="M126.71,132.79l-.16.09v5.73l.16-.09Z"/><path id="Caminho_931" data-name="Caminho 931" class="cls-8" d="M129.32,131.27l-.16.09v5.72l.16-.09Z"/><path id="Caminho_932" data-name="Caminho 932" class="cls-8" d="M130.74,130.45l-.16.09v5.72l.16-.08Z"/><path id="Caminho_933" data-name="Caminho 933" class="cls-8" d="M131.77,129.88l-.16.09v5.73l.16-.09Z"/><path id="Caminho_934" data-name="Caminho 934" class="cls-8" d="M133.16,129l-.16.08v5.73l.16-.09Z"/><path id="Caminho_935" data-name="Caminho 935" class="cls-8" d="M124.82,133.85l-.31.18v5.73l.31-.19Z"/></g></g><g id="freepik--character-2--inject-62"><g id="freepik--Character--inject-62"><path id="Caminho_936" data-name="Caminho 936" class="cls-13" d="M74.73,96a3.79,3.79,0,0,1,3.18,1.1,7.46,7.46,0,0,1,1.63,2.15,32,32,0,0,1,1.8,5.59,9.21,9.21,0,0,0,3,4.93c.62.44,1.4.87,1.52,1.62a1.56,1.56,0,0,1-.81,1.49,3.74,3.74,0,0,1-1.74.4,2.69,2.69,0,0,0,.92,1.41,1.82,1.82,0,0,1,.69,1.5c-.11.66-.81,1-1.51,1.16a6.1,6.1,0,0,1-5.9-2.27,11.93,11.93,0,0,1-2.16-9.34,18.31,18.31,0,0,0,.52-4,4.83,4.83,0,0,0-1.54-3.57c-.35-.29-.81-.57-.86-1a1.13,1.13,0,0,1,.77-1,2.3,2.3,0,0,1,.48-.17Z"/><path id="Caminho_937" data-name="Caminho 937" class="cls-14" d="M57.19,107.75s-3.38-.87-6,4.8c-1.44,3.15-6.42,14.87-6.42,14.87s-6.63.44-11.2.35c-2,0-3.61-.18-4-.5a3.81,3.81,0,0,1-1.4-2.17,8.1,8.1,0,0,1-.2-3c-.06-.87-1.32-.3-1.7,1.1-.28,1-.11,2-.5,2.17a9.61,9.61,0,0,1-1.81-.46c-.81-.36-2.33-.9-3.24-.3a1.15,1.15,0,0,0-.49.91,4.14,4.14,0,0,1-.05,1.53,3,3,0,0,0-.24.72,6.63,6.63,0,0,0,.21.88c.05.44-.36.81-.32,1.27s.26.59.32.9,0,.42.06.61a1.41,1.41,0,0,0,.81.81,10.12,10.12,0,0,0,3.83.93c1.13.12,2.58,0,3.84,0a48.4,48.4,0,0,1,5.1.27c5.4.56,13.23,1.53,14.85.67,2.25-1.2,9.74-18.25,9.74-18.25C59.27,109.57,57.19,107.75,57.19,107.75Z"/><path id="Caminho_938" data-name="Caminho 938" class="cls-8" d="M57.19,107.75c-1.69-.3-3.4.39-5.13,2.89s-6,12.17-6,12.17a8.7,8.7,0,0,0,8.34,4.53l3-6.41Z"/><path id="Caminho_939" data-name="Caminho 939" class="cls-8" d="M72.62,132.65a33.76,33.76,0,0,1,5.79,11.93c2.61,10.55-1.49,33.14-1.49,33.14.13,1.52,1.88,4.54,2.53,11.27.78,8-1.4,29.3-1.4,29.3a5.08,5.08,0,0,1-5.15.11s-5.57-31.31-6.57-39.23c-.87-6.9-2.64-21.25-2.64-21.25l-2.44,21.55s.33,3.8.62,6.75c.45,4.66-5.38,27.76-5.38,27.76a6.43,6.43,0,0,1-5.14-.11s-.7-29.91-1.12-35.53a214.31,214.31,0,0,1,.87-30.19c.33-3.24,2-13.19,2.54-16Z"/><path id="Caminho_940" data-name="Caminho 940" class="cls-13" d="M58.16,210.64c.56-3.65,2.64-8.28,1.12-8.75l-.43,1.93a6.59,6.59,0,0,1-4.18.68A5.23,5.23,0,0,1,51,202.88L51,201.57c-.81.2-.81.77-.64,3.12s.24,8.4.25,10.17a6.73,6.73,0,0,1-2.3,4.44,32.12,32.12,0,0,1-7.24,5.34c-.81.44-2.78,1.2-2.22,2.43a3.23,3.23,0,0,0,.72.93,7,7,0,0,0,4,1.44H44a10.33,10.33,0,0,0,6-2.34,10.44,10.44,0,0,1,4.28-2.54c1.35-.21,3.3-1.5,3.46-2.36a11.34,11.34,0,0,0,.05-3.24c-.07-.51-.11-1-.13-1.54a35.08,35.08,0,0,1,.57-6.78Z"/><path id="Caminho_941" data-name="Caminho 941" class="cls-10" d="M63.66,157.89l-.95-6.53a16.21,16.21,0,0,1-7.69-2.5,9.75,9.75,0,0,0,6.44,3.6l.6,5.85-.61,18.49Z"/><path id="Caminho_942" data-name="Caminho 942" class="cls-13" d="M78.43,221.54c.06-2.88.76-9.8.94-12s-.4-2-.4-2l-.11,1.36a5.82,5.82,0,0,1-3.55,1,8,8,0,0,1-4.1-.88c-.08-.6-.21-1.26-.21-1.26-.74.41-.18,1.95.6,6.2s1.12,4.24.55,9.92-.81,8.59-.6,10.24l.12,0a8.69,8.69,0,0,0,.87,2.9c1.17,2.49,4,1.15,5-.32A6.34,6.34,0,0,0,79,233.09h0c0-.48,0-1,0-1.42,0-1.72-.35-2.7-.52-4.26l0-.49v-.34C78.42,226.45,78.38,224.39,78.43,221.54Z"/><path id="Caminho_943" data-name="Caminho 943" class="cls-8" d="M53.54,125c.05,1.92.31,6.49.31,6.49,7.7,5.51,19,1,19,1l1.93-11.06s-3.94-5.82,0-11.76l-6.1-1.36-7.3-.63-4.2.11c-1,1.91-3.74,6.26-4.56,8.2S50.16,120.83,53.54,125Z"/><path id="Caminho_944" data-name="Caminho 944" class="cls-2" d="M75.8,132.29l1-10.14s-5.46-6.62-1.47-12.55l-5.26-1c-.81,2.06-5.38,6.57-10.09,7.21-2.21-2.13-.2-6.34.75-8.11l-3.58.1a45.33,45.33,0,0,0-4.8,8c-.81,2-2.36,5.77,1,10,.05,1.92,0,5.75,0,5.75l-2.44,13.23c17.33,6.07,27.9-.59,27.9-.59a60,60,0,0,0-3-11.86Z"/><path id="Caminho_945" data-name="Caminho 945" class="cls-11" d="M53.35,130.07c.71,1.46,7.44,1.94,11.9,1.93A49.67,49.67,0,0,0,76,130.15l.23-2.15a55.39,55.39,0,0,1-10.93,1.7c-4.44,0-11.2-.47-11.9-1.93Z"/><path id="Caminho_946" data-name="Caminho 946" class="cls-11" d="M76.59,134.65c-.44-1.33-.81-2.34-.81-2.34h0c-1.94,1.31-6.63,2.05-10.6,2.06-4.45,0-11.2-.47-11.89-1.93l-.07,2.3c.71,1.46,7.44,1.94,11.9,1.93C68.79,136.64,73.18,136.24,76.59,134.65Z"/><path id="Caminho_947" data-name="Caminho 947" class="cls-3" d="M59.64,146.89c.7.1,1.38.18,2,.24a96.77,96.77,0,0,1-2.14-13A100.65,100.65,0,0,1,60,115.78C58,120.4,57.89,135.77,59.64,146.89Z"/><path id="Caminho_948" data-name="Caminho 948" class="cls-2" d="M37,130l19.8,1.85,9.51,22.62-18.91-2.24Z"/><path id="Caminho_949" data-name="Caminho 949" class="cls-15" d="M37,130l19.8,1.85,9.51,22.62-18.91-2.24Z"/><path id="Caminho_950" data-name="Caminho 950" class="cls-3" d="M55,145.93a4.51,4.51,0,0,0,3.47,2.92,10,10,0,0,0,5.19-.81l-.81-1.89Z"/><path id="Caminho_951" data-name="Caminho 951" class="cls-3" d="M43.16,132.48l-.27-.7c-.16-.39,1-.59,2.48-.46l2.91.26c1.53.14,2.89.56,3,.95l.28.7Z"/><path id="Caminho_952" data-name="Caminho 952" class="cls-8" d="M41.39,130c-.1-.24.35-.38,1-.32l1.16.12s-.59-1.5,1.95-1.37a3.94,3.94,0,0,1,3.39,1.83l1.24.14a2.24,2.24,0,0,1,1.45.57l.21.42-10.23-.94A3.39,3.39,0,0,0,41.39,130Z"/><path id="Caminho_953" data-name="Caminho 953" class="cls-10" d="M51.2,132.62c-.12-.32-1.08-.66-2.28-.81l-.05-.11c-.12-.34,0-.57.71-.5v-.29l-7.07-.6.34.25c.93.08,1.32.13,1.55.73a.38.38,0,0,1,.06.13c-1.1,0-1.82.17-1.7.49l.28.7,8.43.76Z"/><path id="Caminho_954" data-name="Caminho 954" class="cls-14" d="M81.75,116.76c-1.62-6.34-4.06-6.92-7.72-7.3a11.38,11.38,0,0,0,.52,12.45l3,10.6a111.76,111.76,0,0,1-9.68,6.62c-.61.36-1.15.68-1.62.92s-1.35-.14-1.94-.28a14.23,14.23,0,0,0-4.12-.11c-1.18,0-1.83-.31-1.94,0a1.35,1.35,0,0,0,.81,1.63,9.34,9.34,0,0,0,2.13.64,12.58,12.58,0,0,1-3.86,1c-3.06.31-4.15,1.28-1.41,4.06,1.72,1.76,4.17,2.08,9.31-.43,1-.5,3.09-1.62,5-2.6.91-.47,1.8-.91,2.53-1.25,5.42-2.53,12.65-5.18,12.84-7.89S83.45,123.43,81.75,116.76Z"/><path id="Caminho_955" data-name="Caminho 955" class="cls-16" d="M80.83,131.79a4.33,4.33,0,0,0-3.29.71l-.23-.81S79.44,130.67,80.83,131.79Z"/><path id="Caminho_956" data-name="Caminho 956" class="cls-8" d="M73.84,109.31c2.28.27,3.93.54,5,1.39s2,2,3.66,7.89,1.84,6.62,1.84,6.62-2.38,3.83-8.41,3l-3.16-8.44S70.08,112.37,73.84,109.31Z"/><path id="Caminho_957" data-name="Caminho 957" class="cls-13" d="M54.87,95.92l-.35-.14A4.19,4.19,0,0,1,52.9,94.3a3.67,3.67,0,0,1-.36-2.77,5.44,5.44,0,0,1,2.09-2.83,4.21,4.21,0,0,0,.74-.58,6.87,6.87,0,0,0,1-1.47l.43-.74.72-1.23a2.49,2.49,0,0,1,.81-.67,11.54,11.54,0,0,1,2-1A11.33,11.33,0,0,1,65,82.27a12.54,12.54,0,0,1,5.86,1.78,7.42,7.42,0,0,1,3.8,4.57,22.15,22.15,0,0,1,1,7.22,11.58,11.58,0,0,1-2,6.08c-2.49,3-3.61,2.68-4.46,4.8-.28.71-1.35-.36-1.91-.55-1.87-.6-3.84-1.1-5.68-1.74a5.2,5.2,0,0,1-2.3-2.36c-.29-.49-.54-1-.81-1.51a14.16,14.16,0,0,0-2.17-3.72,2.49,2.49,0,0,0-.75-.62C55.33,96.09,55.11,96,54.87,95.92Z"/><path id="Caminho_958" data-name="Caminho 958" class="cls-14" d="M57.4,89.1c-1.38.67-2.57,1.58-3,8.51-.35,5.88,1.43,7.49,2.35,8s2.78.4,4.6.25l-.14,2.68s-2.8,3.92.68,4.36c4.86.61,7.11-4.15,7.11-4.15l.54-7.11a2,2,0,0,0,2.74-.37c1.52-1.44,1.44-3.44.61-4.17-1.23-1.1-2.5-.9-3.44.7-3.85-.2-5-5.19-5.13-7.87C62.33,87.59,59.39,93.21,57.4,89.1Z"/><path id="Caminho_959" data-name="Caminho 959" class="cls-13" d="M68.79,100,69.87,97c-.81-.34-2-.2-2.09.67A2.07,2.07,0,0,0,68.79,100Z"/><path id="Caminho_960" data-name="Caminho 960" class="cls-13" d="M55.84,88.56s.65,5.57,8.34,6.17l.34-6.25Z"/><path id="Caminho_961" data-name="Caminho 961" class="cls-13" d="M61.43,96.59a.76.76,0,0,0,.69.83.76.76,0,0,0,.17-1.52A.81.81,0,0,0,61.43,96.59Z"/><path id="Caminho_962" data-name="Caminho 962" class="cls-17" d="M62,101.14l-2.65.92a1.36,1.36,0,0,0,1.7.91h0A1.46,1.46,0,0,0,62,101.14Z"/><path id="Caminho_963" data-name="Caminho 963" class="cls-13" d="M55.33,94l1.55-.9a.85.85,0,0,0-1.14-.38l-.05,0A1,1,0,0,0,55.33,94Z"/><path id="Caminho_964" data-name="Caminho 964" class="cls-13" d="M55.41,95.88a.77.77,0,0,0,.61.9.76.76,0,0,0,.89-.62.19.19,0,0,0,0-.08.76.76,0,0,0-1.51-.2Z"/><path id="Caminho_965" data-name="Caminho 965" class="cls-16" d="M59.31,95.79,59,100.52l-2.24-.9Z"/><path id="Caminho_966" data-name="Caminho 966" class="cls-16" d="M61.36,105.85c1.88-.09,5.77-.87,6.49-2.33a3.87,3.87,0,0,1-1.5,1.82c-1.21.87-5,1.67-5,1.67Z"/><path id="Caminho_967" data-name="Caminho 967" class="cls-2" d="M76.16,93.47a11.74,11.74,0,0,1-.81,3.25c-.26-.32-.53-.62-.81-.91a19.92,19.92,0,0,0-5.68-3.93h0C64,89.58,58,88.82,53.16,90.15a10.66,10.66,0,0,1,.89-2.75,11.64,11.64,0,0,1,22.13,6Z"/><path id="Caminho_968" data-name="Caminho 968" class="cls-2" d="M71.14,81.89c-.59-.29-3.52-1.16-3.75-1.23a7,7,0,0,0-6.49,1.62A11.77,11.77,0,0,0,57,88.62l3.12,1,1,.1c.37-2.29,3.4-7.22,7.63-7.41q.3,0,.6,0a5.71,5.71,0,0,1,1.63.34,17.26,17.26,0,0,1,1.62,1.32A2.6,2.6,0,0,0,71.14,81.89Z"/><path id="Caminho_969" data-name="Caminho 969" class="cls-18" d="M71.14,81.89c-.59-.29-3.52-1.16-3.75-1.23a7,7,0,0,0-6.49,1.62A11.77,11.77,0,0,0,57,88.62l3.12,1,1,.1c.37-2.29,3.4-7.22,7.63-7.41q.3,0,.6,0a5.71,5.71,0,0,1,1.63.34,17.26,17.26,0,0,1,1.62,1.32A2.6,2.6,0,0,0,71.14,81.89Z"/><path id="Caminho_970" data-name="Caminho 970" class="cls-2" d="M61.1,89.7c.44-2.67,4.5-9,9.88-7.07A17,17,0,0,1,72.6,84a2.61,2.61,0,0,0-1.49-2.06c-1.4-.67-4.2-1-7.11,1.38a11.79,11.79,0,0,0-3.92,6.34Z"/><path id="Caminho_971" data-name="Caminho 971" class="cls-19" d="M61.1,89.7c.44-2.67,4.5-9,9.88-7.07A17,17,0,0,1,72.6,84a2.61,2.61,0,0,0-1.49-2.06c-1.4-.67-4.2-1-7.11,1.38a11.79,11.79,0,0,0-3.92,6.34Z"/><path id="Caminho_972" data-name="Caminho 972" class="cls-2" d="M68.93,91a13.11,13.11,0,0,0-5.17-4.6c-2.39-1.28-7.3-1.35-9.48-1.31-3.85.06-4.76.87-4.81,1.44,0,.14-.07.76-.09.9a.67.67,0,0,0,.08.37c.58.86,3.68,2.38,3.68,2.38,4.8-1.33,10.81-.56,15.7,1.74Z"/><path id="Caminho_973" data-name="Caminho 973" class="cls-3" d="M68.93,91a13.11,13.11,0,0,0-5.17-4.6c-2.39-1.28-7.3-1.35-9.48-1.31-3.85.06-4.76.87-4.81,1.44,0,.14-.07.76-.09.9a.67.67,0,0,0,.08.37c.58.86,3.68,2.38,3.68,2.38,4.8-1.33,10.81-.56,15.7,1.74Z"/><path id="Caminho_974" data-name="Caminho 974" class="cls-2" d="M68.84,91.91c-4.87-2.3-10.9-3.07-15.7-1.74,0,0-3.11-1.51-3.68-2.38-.31-.49,0-1.72,4.73-1.79,2.19,0,7.09,0,9.47,1.3a13.09,13.09,0,0,1,5.18,4.61Z"/><path id="Caminho_975" data-name="Caminho 975" class="cls-19" d="M68.84,91.91c-4.87-2.3-10.9-3.07-15.7-1.74,0,0-3.11-1.51-3.68-2.38-.31-.49,0-1.72,4.73-1.79,2.19,0,7.09,0,9.47,1.3a13.09,13.09,0,0,1,5.18,4.61Z"/><path id="Caminho_976" data-name="Caminho 976" class="cls-16" d="M60.41,102.89v.1a1.37,1.37,0,0,0,.75,0,1.44,1.44,0,0,0,.94-1.26,1.21,1.21,0,0,0-.37-.07A1.3,1.3,0,0,0,60.41,102.89Z"/></g></g><g id="freepik--speech-bubble--inject-62"><g id="freepik--speech-bubble--inject-62-2"><path id="Caminho_1282" data-name="Caminho 1282" class="cls-2" d="M62.22,65.43,65.55,56l-2.68-7.71V43.54l8.19,4.72V53l-3.56,9.3a.52.52,0,0,1-.23.21h0Z"/><path id="Caminho_1283" data-name="Caminho 1283" class="cls-20" d="M62.22,65.43,65.55,56l-2.68-7.71V43.54l8.19,4.72V53l-3.56,9.3a.52.52,0,0,1-.23.21h0Z"/><path id="Caminho_1284" data-name="Caminho 1284" class="cls-2" d="M42.68,6a5.43,5.43,0,0,1,2.44-4.25l2-1.16A5.49,5.49,0,0,1,52,.58L82.67,18.3a5.4,5.4,0,0,1,2.44,4.25v33.7a5.44,5.44,0,0,1-2.44,4.25l-2,1.15a5.4,5.4,0,0,1-4.86,0L66,56l-3.5,9.29a.53.53,0,0,1-.72.19.49.49,0,0,1-.23-.28L57.77,51.25,45.15,44a5.41,5.41,0,0,1-2.43-4.24Z"/><path id="Caminho_1285" data-name="Caminho 1285" class="cls-20" d="M85.13,56.25a5.47,5.47,0,0,1-2.44,4.25l-2,1.15a5.46,5.46,0,0,1-4.49.2c1.16.44,2-.21,2-1.62V26.53a5.08,5.08,0,0,0-.71-2.43l6.9-4a5.13,5.13,0,0,1,.72,2.44Z"/><path id="Caminho_1286" data-name="Caminho 1286" class="cls-21" d="M42.77,5.29c.28-1,1.23-1.37,2.37-.72L75.77,22.29a4.9,4.9,0,0,1,1.73,1.83l6.9-4a4.93,4.93,0,0,0-1.73-1.84L52.09.58a5.51,5.51,0,0,0-4.91,0l-2,1.16A5.39,5.39,0,0,0,42.77,5.29Z"/><path id="Caminho_1287" data-name="Caminho 1287" class="cls-4" d="M48,30.23l1.3,4.35a.8.8,0,0,0,.57.49l2.57.61a1.07,1.07,0,0,1,.65.49,22.35,22.35,0,0,0,1.38,2.43,1.06,1.06,0,0,1,.16.69l-.81,2.83a.81.81,0,0,0,.22.66l3,3.17c.15.15.32.2.43.13s0,0,.08-.06L59,43.85c.1-.15.35-.13.58,0s.55.37.81.52.59.33.87.47a1.28,1.28,0,0,1,.6.57l1.48,4a.77.77,0,0,0,.6.41l2.73.28a.47.47,0,0,0,.26,0h0a.24.24,0,0,0,.11-.27l-.86-3.91a.43.43,0,0,1,.28-.49,4.62,4.62,0,0,0,1.2-.69.48.48,0,0,1,.61.1L71,47.32a.46.46,0,0,0,.31.15h.1a.18.18,0,0,0,.07-.08l1.24-2.75A.7.7,0,0,0,72.6,44L70,40.82a1,1,0,0,1-.25-.7,12.19,12.19,0,0,0,0-2.26.36.36,0,0,1,.36-.38h0l2.34-.14a.3.3,0,0,0,.33-.27.49.49,0,0,0,0-.12l-1.23-4.39a.85.85,0,0,0-.58-.48l-2.56-.62a1.13,1.13,0,0,1-.66-.49,22.35,22.35,0,0,0-1.38-2.43,1,1,0,0,1-.15-.68L67,25a.85.85,0,0,0-.23-.66l-3-3.17c-.19-.18-.41-.22-.51-.07l-1.4,2.14c-.1.15-.36.14-.58,0a12.6,12.6,0,0,0-1.71-1,1.4,1.4,0,0,1-.6-.58l-1.47-4a.84.84,0,0,0-.6-.42l-2.75-.23a.47.47,0,0,0-.26.05.24.24,0,0,0-.12.27l.87,3.92a.45.45,0,0,1-.29.48,4.6,4.6,0,0,0-1.19.7.5.5,0,0,1-.62-.1l-2.79-2.55a.39.39,0,0,0-.4-.13h0a.2.2,0,0,0-.09.09L48,22.55a.7.7,0,0,0,.16.65l2.61,3.17a1.15,1.15,0,0,1,.26.69A11.46,11.46,0,0,0,51,28.23a6.82,6.82,0,0,0,.06,1.1.38.38,0,0,1-.38.38h0l-2.34.13a.37.37,0,0,0-.17.05h0A.27.27,0,0,0,48,30.23Zm10.28,8c-2.8-3-4.13-7.43-3-10a2.77,2.77,0,0,1,2.15-1.7h.32a4.49,4.49,0,0,1,1.94.42,5.58,5.58,0,0,1,.69.35A9.53,9.53,0,0,1,62.53,29a12.26,12.26,0,0,1,3.36,7.74,7.32,7.32,0,0,1,0,.81,4.81,4.81,0,0,1-.38,1.43,2.75,2.75,0,0,1-2.58,1.73h-1a7.77,7.77,0,0,1-3.54-2.46Z"/></g></g></g></g></g></svg>