<svg xmlns="http://www.w3.org/2000/svg" xmlns:xlink="http://www.w3.org/1999/xlink" width="604.072" height="445.03" viewBox="0 0 604.072 445.03"><defs><filter id="a" x="0" y="0" width="346" height="262" filterUnits="userSpaceOnUse"><feOffset dx="1" dy="1" input="SourceAlpha"/><feGaussianBlur stdDeviation="1.5" result="b"/><feFlood flood-opacity="0.4"/><feComposite operator="in" in2="b"/><feComposite in="SourceGraphic"/></filter><filter id="c" x="16.5" y="198.5" width="313" height="48" filterUnits="userSpaceOnUse"><feOffset dy="3" input="SourceAlpha"/><feGaussianBlur stdDeviation="3" result="d"/><feFlood flood-opacity="0.161"/><feComposite operator="in" in2="d"/><feComposite in="SourceGraphic"/></filter><clipPath id="e"><path d="M144.163,200.73s-6.484,20.506-6.831,29.383,12.3,20.8,19.428,27.672,19.837,9.918,37.579,9.224,33.14-8.877,33.14-8.877-.335,54.316,0,66.95,1.376,145.888,1.376,145.888H349.8s-3.075-125.047-2.058-139.739,7.526-57.391,7.526-57.391,45.439,21.176,55.68,21.176,34.851-27.276,33.834-34.5-36.562-28.02-48.861-38.273-17.085-20.147-25.627-24.251-47.113-12.646-55.692-13.638-55,1.7-67.644,2.38-33.822,22.217-38.942,25.974A116.129,116.129,0,0,1,195.7,220.22s2.058-2.393-1.364-3.075a29.46,29.46,0,0,0-5.12-.682s-1.711-19.837-3.075-21.87-21.523-6.831-29.036-6.2S144.163,200.73,144.163,200.73Z" transform="translate(-137.324 -184.135)" fill="#fff" stroke="#263238" stroke-linecap="round" stroke-linejoin="round" stroke-width="1.143"/></clipPath><clipPath id="f"><path d="M258.4,123.122a58.9,58.9,0,0,1-7.662-11.679c-2.914-6.2-6.931-16.415.731-22.614s37.194-10.216,51.452-8.393S329.189,96.85,340.5,117.283s14.965,36.128,12.4,43.059-12.77,14.593-24.8,14.233-18.969-13.142-25.9-19.7-28.516-20.073-31.38-23a123.112,123.112,0,0,0-10.588-8.381Z" transform="translate(-247.043 -79.994)" fill="#fff" stroke="#263238" stroke-linecap="round" stroke-linejoin="round" stroke-width="1.143"/></clipPath><clipPath id="g"><path d="M313.28,149.571c0-1.091-5.48-13.861-14.965-22.986s-27.734-11.307-33.934-10.948-9.125,3.285-9.125,3.285-6.559,24.089-9.844,32.483a34.132,34.132,0,0,0-.273,22.416,87.136,87.136,0,0,0,9.026,18.448c5.48,8.753,5.48,32.843,5.48,32.843s27.363-12.4,30.648-16.787,1.451-19.7,2.914-27a24.116,24.116,0,0,1,1.314-4.352,21.942,21.942,0,0,0,4.166-6.6S313.28,150.711,313.28,149.571Z" transform="translate(-243.381 -115.6)" fill="#fff" stroke="#263238" stroke-linecap="round" stroke-linejoin="round" stroke-width="1.143"/></clipPath><clipPath id="h"><path d="M206.57,176.223a19.118,19.118,0,0,0,37.5-6.683Z" transform="translate(-206.57 -169.54)" fill="#fff" stroke="#263238" stroke-linecap="round" stroke-linejoin="round" stroke-width="1.143"/></clipPath><clipPath id="i"><path d="M183.561,128.91s-5.468,10.923-5.468,15.708v18.114s-21.176,22.205-22.2,28.007-3.719,19.837,0,19.837,21.188-16.75,22.552-20.159S188,164.455,188,164.455a18.377,18.377,0,0,1,2.393-3.075c1.364-1.376,1.711-10.253,1.711-10.253s3.719-.347,3.719-2.393V136.46C195.86,133.683,183.561,128.91,183.561,128.91Z" transform="translate(-153.982 -128.91)" fill="#fff" stroke="#263238" stroke-linecap="round" stroke-linejoin="round" stroke-width="1.143"/></clipPath><clipPath id="j"><path d="M374.428,249.1s-29.755,5.12-26.643,11.617l1.029,4.786s-21.523,27.276-20.506,28.354,39.674,23.916,41,23.916,25.627-43.393,30.747-51.936,5.815-16.39-.682-20.494-13.638-7.86-13.638-7.86" transform="translate(-328.272 -237.48)" fill="#fff" stroke="#263238" stroke-linecap="round" stroke-linejoin="round" stroke-width="1.143"/></clipPath><clipPath id="k"><path d="M321.873,296.437s-3.422,4.439-6.831,6.2A36.289,36.289,0,0,0,302.4,314.587c-4.1,6.2-9.224,11.617-6.2,14.01a10.973,10.973,0,0,0,6.2,2.393s2.046,4.786,4.786,5.12a36.57,36.57,0,0,0,4.1.347s2.38,2.393,3.719,2.393h3.484s1.364,1.711,4.438,0,6.2-11.964,7.179-15.374,1.029-10.6,1.029-10.6l4.786-6.831L324.985,295.11Z" transform="translate(-295.284 -295.11)" fill="#fff" stroke="#263238" stroke-linecap="round" stroke-linejoin="round" stroke-width="1.143"/></clipPath><clipPath id="l"><path d="M309.221,156.291l9.857-9.919c5.269-5.269-3.98-15.5-7.327-19.279a69.838,69.838,0,0,0-28.9-19.316c-6.732-2.405-21.362-6.968-25.069,2.12l-6.571,16.043s17.878-1.451,33.2,6.571S309.221,156.291,309.221,156.291Z" transform="translate(-251.21 -104.481)" fill="#fff" stroke="#263238" stroke-linecap="round" stroke-linejoin="round" stroke-width="1.143"/></clipPath><clipPath id="m"><path d="M290.307,151.735s11.307-9.125,14.593-3.657-4.377,13.142-10.216,13.142-8.753-2.194-8.753-2.194" transform="translate(-285.93 -146.332)" fill="#fff" stroke="#263238" stroke-linecap="round" stroke-linejoin="round" stroke-width="1.143"/></clipPath><clipPath id="n"><path d="M256.035,317.69H135.29V449.581c0,7.935,27.139,14.369,60.627,14.369s60.627-6.435,60.627-14.369Z" transform="translate(-135.29 -317.69)" fill="#fff" stroke="#263238" stroke-linecap="round" stroke-linejoin="round" stroke-width="1.143"/></clipPath><clipPath id="o"><path d="M197.279,300.7c-15.6,0-31.516,1.017-46.741,4.637-8.505,2.033-24,6.323-20.395,18.6,1.612,5.48,7.947,7.588,12.782,9.323a101,101,0,0,0,18.362,4.067,233.085,233.085,0,0,0,35.954,2.566c15.609,0,31.541-1.017,46.766-4.649,6.2-1.463,13.873-3.05,18.213-8.1a10.513,10.513,0,0,0-1.24-15.2c-5.133-3.893-12.262-5.53-18.411-6.906a185.656,185.656,0,0,0-29.83-3.868Q205.04,300.7,197.279,300.7Z" transform="translate(-129.608 -300.7)" fill="#fff" stroke="#263238" stroke-linecap="round" stroke-linejoin="round" stroke-width="1.143"/></clipPath><clipPath id="p"><ellipse cx="60.565" cy="12.882" rx="60.565" ry="12.882" fill="#fff" stroke="#263238" stroke-linecap="round" stroke-linejoin="round" stroke-width="1.143"/></clipPath><clipPath id="q"><path d="M344.17,340.9H247.18V446.842c0,6.373,21.808,11.543,48.7,11.543s48.7-5.17,48.7-11.543Z" transform="translate(-247.18 -340.9)" fill="#fff" stroke="#263238" stroke-linecap="round" stroke-linejoin="round" stroke-width="1.143"/></clipPath><clipPath id="r"><path d="M296.973,327.26c-12.534,0-25.317.818-37.541,3.72-6.844,1.624-19.279,5.071-16.378,14.878,1.24,4.4,6.373,6.087,10.266,7.439a80.687,80.687,0,0,0,14.741,3.4,187.993,187.993,0,0,0,28.912,2.058c12.534,0,25.329-.818,37.566-3.719,4.959-1.178,11.158-2.48,14.63-6.509a8.455,8.455,0,0,0-1-12.212c-4.116-3.112-9.856-4.426-14.778-5.542a149.887,149.887,0,0,0-23.965-3.112Q303.209,327.26,296.973,327.26Z" transform="translate(-242.622 -327.26)" fill="#fff" stroke="#263238" stroke-linecap="round" stroke-linejoin="round" stroke-width="1.143"/></clipPath><clipPath id="s"><ellipse cx="48.65" cy="10.352" rx="48.65" ry="10.352" fill="#fff" stroke="#263238" stroke-linecap="round" stroke-linejoin="round" stroke-width="1.143"/></clipPath></defs><g transform="translate(-356.5 -2205.5)"><g transform="translate(-11979 -23)"><g transform="matrix(1, 0, 0, 1, 12335.5, 2228.5)" filter="url(#a)"><g transform="translate(3.5 3.5)" fill="#fff"><path d="M 327 252 L 10 252 C 5.037374973297119 252 1 247.9626312255859 1 243 L 1 10 C 1 5.037374973297119 5.037374973297119 1 10 1 L 327 1 C 331.9626159667969 1 336 5.037374973297119 336 10 L 336 243 C 336 247.9626312255859 331.9626159667969 252 327 252 Z" stroke="none"/><path d="M 10 2 C 5.588775634765625 2 2 5.588775634765625 2 10 L 2 243 C 2 247.4112243652344 5.588775634765625 251 10 251 L 327 251 C 331.4112243652344 251 335 247.4112243652344 335 243 L 335 10 C 335 5.588775634765625 331.4112243652344 2 327 2 L 10 2 M 10 0 L 327 0 C 332.5228576660156 0 337 4.477142333984375 337 10 L 337 243 C 337 248.5228118896484 332.5228576660156 253 327 253 L 10 253 C 4.477142333984375 253 0 248.5228118896484 0 243 L 0 10 C 0 4.477142333984375 4.477142333984375 0 10 0 Z" stroke="none" fill="#8f00fc"/></g></g><text transform="translate(12360 2265)" fill="#8f00fc" font-size="14" font-family="Ubuntu-Bold, Ubuntu" font-weight="700"><tspan x="0" y="0">Realizar pedido</tspan></text><g transform="translate(12361 2318)" fill="#fff" stroke="#f1f1f1" stroke-width="1"><rect width="295" height="65" rx="5" stroke="none"/><rect x="0.5" y="0.5" width="294" height="64" rx="4.5" fill="none"/></g><g transform="matrix(1, 0, 0, 1, 12335.5, 2228.5)" filter="url(#c)"><rect width="295" height="30" rx="15" transform="translate(25.5 204.5)" fill="#00c853"/></g><text transform="translate(12450 2454)" fill="#fff" font-size="16" font-family="Ubuntu-Bold, Ubuntu" font-weight="700"><tspan x="0" y="0">Realizar pedido</tspan></text><g transform="translate(12360 2278)" fill="#fff" stroke="#f1f1f1" stroke-width="1"><rect width="163" height="30" rx="2" stroke="none"/><rect x="0.5" y="0.5" width="162" height="29" rx="1.5" fill="none"/></g><g transform="translate(12361 2393)" fill="#fff" stroke="#f1f1f1" stroke-width="1"><rect width="295" height="30" rx="2" stroke="none"/><rect x="0.5" y="0.5" width="294" height="29" rx="1.5" fill="none"/></g><text transform="translate(12370 2298)" fill="#8f00fc" font-size="14" font-family="Ubuntu-Bold, Ubuntu" font-weight="700"><tspan x="0" y="0">Localizar itens</tspan></text><text transform="translate(12371 2413)" fill="#8f00fc" font-size="14" font-family="Ubuntu-Bold, Ubuntu" font-weight="700"><tspan x="0" y="0">Nome do cliente</tspan></text><path d="M9.862,8.646,7.915,6.7a.468.468,0,0,0-.332-.137H7.265a4.06,4.06,0,1,0-.7.7v.318a.468.468,0,0,0,.137.332L8.646,9.862a.467.467,0,0,0,.662,0L9.86,9.31A.471.471,0,0,0,9.862,8.646Zm-5.8-2.084a2.5,2.5,0,1,1,2.5-2.5A2.5,2.5,0,0,1,4.062,6.562Z" transform="translate(12503 2289)" fill="#8f00fc"/><g transform="translate(12533 2278)" fill="#fff" stroke="#f1f1f1" stroke-width="1"><rect width="56" height="30" rx="2" stroke="none"/><rect x="0.5" y="0.5" width="55" height="29" rx="1.5" fill="none"/></g><text transform="translate(12543 2298)" fill="#8f00fc" font-size="14" font-family="Ubuntu-Bold, Ubuntu" font-weight="700"><tspan x="0" y="0">Qtd</tspan></text><g transform="translate(12361 2318)" fill="#8f00fc" stroke="#f1f1f1" stroke-width="1"><path d="M5,0H290a5,5,0,0,1,5,5V22a0,0,0,0,1,0,0H0a0,0,0,0,1,0,0V5A5,5,0,0,1,5,0Z" stroke="none"/><path d="M5,.5H290A4.5,4.5,0,0,1,294.5,5V21a.5.5,0,0,1-.5.5H1A.5.5,0,0,1,.5,21V5A4.5,4.5,0,0,1,5,.5Z" fill="none"/></g><line x2="295" transform="translate(12361.5 2361.5)" fill="none" stroke="#f1f1f1" stroke-width="1"/><text transform="translate(12374 2333)" fill="#fff" font-size="10" font-family="Ubuntu-Light, Ubuntu" font-weight="300"><tspan x="0" y="0">Produtos a serem produzidos</tspan></text><text transform="translate(12598 2333)" fill="#fff" font-size="10" font-family="Ubuntu-Light, Ubuntu" font-weight="300"><tspan x="-26.34" y="0">Quantidade</tspan></text><text transform="translate(12374 2354)" fill="#666" font-size="10" font-family="Ubuntu-Light, Ubuntu" font-weight="300"><tspan x="0" y="0">Espaguete ao molho Bolonhesa</tspan></text><text transform="translate(12599 2354)" fill="#666" font-size="10" font-family="Ubuntu-Light, Ubuntu" font-weight="300"><tspan x="-24.09" y="0">2 unidades</tspan></text><text transform="translate(12374 2375)" fill="#666" font-size="10" font-family="Ubuntu-Light, Ubuntu" font-weight="300"><tspan x="0" y="0">A La Minuta - Bife Acebolado</tspan></text><text transform="translate(12599 2376)" fill="#666" font-size="10" font-family="Ubuntu-Light, Ubuntu" font-weight="300"><tspan x="-25.23" y="0" xml:space="preserve">3  unidades</tspan></text><rect width="57" height="30" rx="15" transform="translate(12599 2278)" fill="#00c853"/><text transform="translate(12614 2298)" fill="#fff" font-size="14" font-family="Ubuntu-Bold, Ubuntu" font-weight="700"><tspan x="0" y="0">Add</tspan></text></g><g transform="translate(486.59 2129.006)"><g transform="translate(152.652 79.994)"><path d="M144.163,200.73s-6.484,20.506-6.831,29.383,12.3,20.8,19.428,27.672,19.837,9.918,37.579,9.224,33.14-8.877,33.14-8.877-.335,54.316,0,66.95,1.376,145.888,1.376,145.888H349.8s-3.075-125.047-2.058-139.739,7.526-57.391,7.526-57.391,45.439,21.176,55.68,21.176,34.851-27.276,33.834-34.5-36.562-28.02-48.861-38.273-17.085-20.147-25.627-24.251-47.113-12.646-55.692-13.638-55,1.7-67.644,2.38-33.822,22.217-38.942,25.974A116.129,116.129,0,0,1,195.7,220.22s2.058-2.393-1.364-3.075a29.46,29.46,0,0,0-5.12-.682s-1.711-19.837-3.075-21.87-21.523-6.831-29.036-6.2S144.163,200.73,144.163,200.73Z" transform="translate(-137.324 -55.02)" fill="#fff"/><g transform="translate(0 129.115)" clip-path="url(#e)"><path d="M412.922,267.747c1.847-3.05,2.889-5.629,2.665-7.216-1.029-7.179-36.562-28.02-48.861-38.273s-17.085-20.147-25.627-24.251-47.113-12.646-55.692-13.638a126.942,126.942,0,0,0-13.638-.136c10.1,10.414-17.605,29.173-11.667,29.669s32.595-3.558,47.869-10.179c0,0,18.337-.521,33.624,8.679C354.6,220.138,388.138,247.749,412.922,267.747Z" transform="translate(-108.083 -184.14)" fill="#8f00fc"/><path d="M348.224,276.123s-13.749-13.749-15.274-17.357,8.679-42.773,3.05-33.1a45.948,45.948,0,0,0-6.038,18.424s-6.633-25.466-7.141-19.353-.508,21.4-.508,21.4-23.928-27.511-19.837-15.287,8.679,26.482,8.679,26.482L278.46,489.061l13.749-4.587,30.549-217.463Z" transform="translate(-103.479 -174.626)" fill="#8f00fc"/><path d="M229.02,271.287s.508-54.552-1.029-51.948-3.05,14.258-3.05,14.258-7.637-17.828-8.679-11.716,1.525,19.353,1.525,19.353-9.175,3.571-34.12,7.637-19.837,0-5.1-7.129,26.036-23.42,26.036-31.07-5.1-29.111-20.878-32.123-48.9,28.057-51.44,34.169,19.316-2.566,19.316-2.566,3.05,14.27,4.067,18.845-5.592,12.224-6.112,14.258,12.225-2.542,11.158-1.017-13.241,11.158-10.687,15.8,23.47,12.745,42.315,15.349a108.211,108.211,0,0,0,36.674-2.1Z" transform="translate(-138.581 -185.523)" fill="#8f00fc"/><path d="M229.02,271.287s.508-54.552-1.029-51.948-3.05,14.258-3.05,14.258-7.637-17.828-8.679-11.716,1.525,19.353,1.525,19.353-9.175,3.571-34.12,7.637-19.837,0-5.1-7.129,26.036-23.42,26.036-31.07-5.1-29.111-20.878-32.123-48.9,28.057-51.44,34.169,19.316-2.566,19.316-2.566,3.05,14.27,4.067,18.845-5.592,12.224-6.112,14.258,12.225-2.542,11.158-1.017-13.241,11.158-10.687,15.8,23.47,12.745,42.315,15.349a108.211,108.211,0,0,0,36.674-2.1Z" transform="translate(-138.581 -185.523)" fill="#fff" opacity="0.5"/><path d="M348.224,276.123s-13.749-13.749-15.274-17.357,8.679-42.773,3.05-33.1a45.948,45.948,0,0,0-6.038,18.424s-6.633-25.466-7.141-19.353-.508,21.4-.508,21.4-23.928-27.511-19.837-15.287,8.679,26.482,8.679,26.482L278.46,489.061l13.749-4.587,30.549-217.463Z" transform="translate(-103.479 -174.626)" fill="#fff" opacity="0.5"/><path d="M211.312,431.625H332.268s-.955-38.558-1.624-75.356L210.63,348.26C210.977,387.971,211.312,431.625,211.312,431.625Z" transform="translate(-119.745 -144.776)" fill="#263238"/><path d="M412.922,267.747c1.847-3.05,2.889-5.629,2.665-7.216-1.029-7.179-36.562-28.02-48.861-38.273s-17.085-20.147-25.627-24.251-47.113-12.646-55.692-13.638a126.942,126.942,0,0,0-13.638-.136c10.1,10.414-17.605,29.173-11.667,29.669s32.595-3.558,47.869-10.179c0,0,18.337-.521,33.624,8.679C354.6,220.138,388.138,247.749,412.922,267.747Z" transform="translate(-108.083 -184.14)" fill="#fff" opacity="0.5"/></g><path d="M144.163,200.73s-6.484,20.506-6.831,29.383,12.3,20.8,19.428,27.672,19.837,9.918,37.579,9.224,33.14-8.877,33.14-8.877-.335,54.316,0,66.95,1.376,145.888,1.376,145.888H349.8s-3.075-125.047-2.058-139.739,7.526-57.391,7.526-57.391,45.439,21.176,55.68,21.176,34.851-27.276,33.834-34.5-36.562-28.02-48.861-38.273-17.085-20.147-25.627-24.251-47.113-12.646-55.692-13.638-55,1.7-67.644,2.38-33.822,22.217-38.942,25.974A116.129,116.129,0,0,1,195.7,220.22s2.058-2.393-1.364-3.075a29.46,29.46,0,0,0-5.12-.682s-1.711-19.837-3.075-21.87-21.523-6.831-29.036-6.2S144.163,200.73,144.163,200.73Z" transform="translate(-137.324 -55.02)" fill="none" stroke="#263238" stroke-linecap="round" stroke-linejoin="round" stroke-width="1.143"/><path d="M212.479,218.785l-.682,31.776L202.92,215.71" transform="translate(-121.594 -47.448)" fill="none" stroke="#263238" stroke-linecap="round" stroke-linejoin="round" stroke-width="1.143"/><path d="M183.589,210.2S170.261,227.619,161,229.33" transform="translate(-131.647 -48.769)" fill="none" stroke="#263238" stroke-linecap="round" stroke-linejoin="round" stroke-width="1.143"/><path d="M186.234,213.23s-4.438,8.889-9.224,9.918" transform="translate(-127.807 -48.042)" fill="none" stroke="#263238" stroke-linecap="round" stroke-linejoin="round" stroke-width="1.143"/><path d="M319.614,239.195l-5.8,21.535-3.422-21.87" transform="translate(-95.822 -41.896)" fill="none" stroke="#263238" stroke-linecap="round" stroke-linejoin="round" stroke-width="1.143"/><path d="M259.577,206.89,247.613,216.8,237.36,463.816" transform="translate(-113.335 -49.563)" fill="none" stroke="#263238" stroke-linecap="round" stroke-linejoin="round" stroke-width="1.143"/><path d="M250.858,230.879a2.219,2.219,0,1,1-2.219-2.219,2.219,2.219,0,0,1,2.219,2.219Z" transform="translate(-111.162 -44.342)" fill="#263238"/><path d="M270.739,230.879a2.219,2.219,0,1,1-2.219-2.219A2.219,2.219,0,0,1,270.739,230.879Z" transform="translate(-106.395 -44.342)" fill="#263238"/><path d="M250.209,265.429a2.219,2.219,0,1,1-2.219-2.219A2.219,2.219,0,0,1,250.209,265.429Z" transform="translate(-111.318 -36.057)" fill="#263238"/><path d="M270.049,265.429a2.219,2.219,0,1,1-2.219-2.219A2.219,2.219,0,0,1,270.049,265.429Z" transform="translate(-106.56 -36.057)" fill="#263238"/><path d="M249.519,304.6a2.219,2.219,0,1,1-2.219-2.219A2.219,2.219,0,0,1,249.519,304.6Z" transform="translate(-111.484 -26.663)" fill="#263238"/><path d="M269.358,304.6a2.219,2.219,0,1,1-2.219-2.219A2.219,2.219,0,0,1,269.358,304.6Z" transform="translate(-106.726 -26.663)" fill="#263238"/><path d="M169.891,167.49s-8.889,0-11.964,1.017-14.345,21.87-17.357,29.383a33.983,33.983,0,0,0-2.058,15.374l16.4-7.86,4.786,21.87S185.661,206.78,189.083,200s-4.439-25.974-4.439-25.974Z" transform="translate(-137.078 -59.011)" fill="#263238" stroke="#263238" stroke-linecap="round" stroke-linejoin="round" stroke-width="1.143"/><path d="M259.362,179.81s-16.4,4.439-18.114,12.646,12.3,21.176,15.039,23.556,28.007-2.74,39.289-5.468,26.309-9.918,25.962-15.721-7.179-8.2-9.224-12.981-3.422-7.513-9.571-8.2a117.348,117.348,0,0,0-18.448-.347C281.889,173.66,259.362,179.81,259.362,179.81Z" transform="translate(-112.437 -57.668)" fill="#263238" stroke="#263238" stroke-linecap="round" stroke-linejoin="round" stroke-width="1.143"/><path d="M259.115,207.489s-1.711-3.409-8.208-3.075-11.617,7.513-11.617,7.513S251.936,214.668,259.115,207.489Z" transform="translate(-112.872 -50.162)" fill="#263238" stroke="#263238" stroke-linecap="round" stroke-linejoin="round" stroke-width="1.143"/><path d="M255.479,207.311s2.728-5.12,8.2.347,8.877,14.667,8.877,14.667-7.166,3.075-14-4.1S255.479,207.311,255.479,207.311Z" transform="translate(-109.237 -49.984)" fill="#263238" stroke="#263238" stroke-linecap="round" stroke-linejoin="round" stroke-width="1.143"/><path d="M305.59,183.47s.347,6.5-11.964,12.981a194.218,194.218,0,0,1-27.276,11.27" transform="translate(-106.383 -55.179)" fill="none" stroke="#fff" stroke-linecap="round" stroke-linejoin="round" stroke-width="1.143"/><path d="M281.22,193.538s9.175-5.889,10.538-9.918-2.728-6.2-2.728-6.2" transform="translate(-102.817 -56.63)" fill="none" stroke="#fff" stroke-linecap="round" stroke-linejoin="round" stroke-width="1.143"/><path d="M257.418,210.8s-8.208-9.918-8.208-17.357,3.075-8.542,3.075-8.542" transform="translate(-110.493 -54.836)" fill="none" stroke="#fff" stroke-linecap="round" stroke-linejoin="round" stroke-width="1.143"/><path d="M258.4,123.122a58.9,58.9,0,0,1-7.662-11.679c-2.914-6.2-6.931-16.415.731-22.614s37.194-10.216,51.452-8.393S329.189,96.85,340.5,117.283s14.965,36.128,12.4,43.059-12.77,14.593-24.8,14.233-18.969-13.142-25.9-19.7-28.516-20.073-31.38-23a123.112,123.112,0,0,0-10.588-8.381Z" transform="translate(-111.013 -79.994)" fill="#fff"/><g transform="translate(136.031)" clip-path="url(#f)"><path d="M306.454,82.75c5.579,6.794,18.709,23.978,19.911,36.773,1.525,16.291-29.545,8.146-29.545,8.146s20.37-12.225,14.258-10.7-11.158-2.033-20.37-2.033-20.878-12.225-20.878-8.146,1.017,5.1,3.571,8.679-2.554,0,9.671,17.357c3.719,5.319,6.6,11.555,9.41,17.89a50.221,50.221,0,0,1,4.24,3.558c6.931,6.559,13.861,19.329,25.9,19.7s22.317-7.3,24.8-14.233-1.1-22.627-12.4-43.059C326.179,100.64,316.893,88.267,306.454,82.75Z" transform="translate(-241.579 -79.333)" fill="#8f00fc"/><path d="M306.454,82.75c5.579,6.794,18.709,23.978,19.911,36.773,1.525,16.291-29.545,8.146-29.545,8.146s20.37-12.225,14.258-10.7-11.158-2.033-20.37-2.033-20.878-12.225-20.878-8.146,1.017,5.1,3.571,8.679-2.554,0,9.671,17.357c3.719,5.319,6.6,11.555,9.41,17.89a50.221,50.221,0,0,1,4.24,3.558c6.931,6.559,13.861,19.329,25.9,19.7s22.317-7.3,24.8-14.233-1.1-22.627-12.4-43.059C326.179,100.64,316.893,88.267,306.454,82.75Z" transform="translate(-241.579 -79.333)" fill="#fff" opacity="0.5"/></g><path d="M258.4,123.122a58.9,58.9,0,0,1-7.662-11.679c-2.914-6.2-6.931-16.415.731-22.614s37.194-10.216,51.452-8.393S329.189,96.85,340.5,117.283s14.965,36.128,12.4,43.059-12.77,14.593-24.8,14.233-18.969-13.142-25.9-19.7-28.516-20.073-31.38-23a123.112,123.112,0,0,0-10.588-8.381Z" transform="translate(-111.013 -79.994)" fill="none" stroke="#263238" stroke-linecap="round" stroke-linejoin="round" stroke-width="1.143"/><path d="M266.868,106.428s-3.62-2.008-9.658-9.658" transform="translate(-108.575 -75.971)" fill="none" stroke="#263238" stroke-linecap="round" stroke-linejoin="round" stroke-width="1.143"/><path d="M267.692,95.491a12.1,12.1,0,0,1-.1-3.261" transform="translate(-106.101 -77.059)" fill="none" stroke="#263238" stroke-linecap="round" stroke-linejoin="round" stroke-width="1.143"/><path d="M273.409,107.793A47.037,47.037,0,0,1,268.45,97.8" transform="translate(-105.879 -75.724)" fill="none" stroke="#263238" stroke-linecap="round" stroke-linejoin="round" stroke-width="1.143"/><path d="M296.15,118.85s10.067,2.008,18.92.409" transform="translate(-99.237 -70.676)" fill="none" stroke="#263238" stroke-linecap="round" stroke-linejoin="round" stroke-width="1.143"/><path d="M321.16,134.07h2.8" transform="translate(-93.239 -67.026)" fill="none" stroke="#263238" stroke-linecap="round" stroke-linejoin="round" stroke-width="1.143"/><path d="M307.51,132.16a78.883,78.883,0,0,0,12.51,2.083" transform="translate(-96.512 -67.484)" fill="none" stroke="#263238" stroke-linecap="round" stroke-linejoin="round" stroke-width="1.143"/><path d="M305.94,138.32s10.005,10.886,17.246,12.894" transform="translate(-96.889 -66.007)" fill="none" stroke="#263238" stroke-linecap="round" stroke-linejoin="round" stroke-width="1.143"/><path d="M313.28,149.571c0-1.091-5.48-13.861-14.965-22.986s-27.734-11.307-33.934-10.948-9.125,3.285-9.125,3.285-6.559,24.089-9.844,32.483a34.132,34.132,0,0,0-.273,22.416,87.136,87.136,0,0,0,9.026,18.448c5.48,8.753,5.48,32.843,5.48,32.843s27.363-12.4,30.648-16.787,1.451-19.7,2.914-27a24.116,24.116,0,0,1,1.314-4.352,21.942,21.942,0,0,0,4.166-6.6S313.28,150.711,313.28,149.571Z" transform="translate(-111.891 -71.455)" fill="#fff"/><g transform="translate(131.49 44.145)" clip-path="url(#g)"><path d="M302.63,130.963l-8.046-.484a256.336,256.336,0,0,1-8.679,30.561c-5.1,13.75-12.225,21.9-19.353,24.449s-15.274-1.017-12.224,3.05c1.81,2.418,12.795,12.745,25.032,22.007,4.1-2.281,7.439-4.4,8.443-5.753,3.285-4.377,1.451-19.7,2.914-27a24.115,24.115,0,0,1,1.314-4.352,21.945,21.945,0,0,0,4.166-6.6s14.593-19.7,14.593-20.8C310.813,145.246,307.887,138.241,302.63,130.963Z" transform="translate(-240.914 -112.032)" fill="#8f00fc"/><path d="M302.63,130.963l-8.046-.484a256.336,256.336,0,0,1-8.679,30.561c-5.1,13.75-12.225,21.9-19.353,24.449s-15.274-1.017-12.224,3.05c1.81,2.418,12.795,12.745,25.032,22.007,4.1-2.281,7.439-4.4,8.443-5.753,3.285-4.377,1.451-19.7,2.914-27a24.115,24.115,0,0,1,1.314-4.352,21.945,21.945,0,0,0,4.166-6.6s14.593-19.7,14.593-20.8C310.813,145.246,307.887,138.241,302.63,130.963Z" transform="translate(-240.914 -112.032)" fill="#fff" opacity="0.5"/></g><path d="M313.28,149.571c0-1.091-5.48-13.861-14.965-22.986s-27.734-11.307-33.934-10.948-9.125,3.285-9.125,3.285-6.559,24.089-9.844,32.483a34.132,34.132,0,0,0-.273,22.416,87.136,87.136,0,0,0,9.026,18.448c5.48,8.753,5.48,32.843,5.48,32.843s27.363-12.4,30.648-16.787,1.451-19.7,2.914-27a24.116,24.116,0,0,1,1.314-4.352,21.942,21.942,0,0,0,4.166-6.6S313.28,150.711,313.28,149.571Z" transform="translate(-111.891 -71.455)" fill="none" stroke="#263238" stroke-linecap="round" stroke-linejoin="round" stroke-width="1.143"/><path d="M264.691,136.27s-1.091,4.377-4.736,5.827-8.394,1.1-6.943,3.657,6.943,4,6.943,4" transform="translate(-109.646 -66.498)" fill="none" stroke="#263238" stroke-linecap="round" stroke-linejoin="round" stroke-width="1.143"/><path d="M254.44,154.51s6.2,2.554,9.844.731" transform="translate(-109.239 -62.124)" fill="none" stroke="#263238" stroke-linecap="round" stroke-linejoin="round" stroke-width="1.143"/><path d="M272.394,139.21s-.732,6.2,6.931,5.108" transform="translate(-104.938 -65.793)" fill="none" stroke="#263238" stroke-linecap="round" stroke-linejoin="round" stroke-width="1.143"/><path d="M252.67,134.5s3.645,5.839,8.753,2.194" transform="translate(-109.663 -66.923)" fill="none" stroke="#263238" stroke-linecap="round" stroke-linejoin="round" stroke-width="1.143"/><path d="M273.86,132.493s6.571-2.194,9.485,5.84" transform="translate(-104.582 -67.47)" fill="none" stroke="#263238" stroke-linecap="round" stroke-linejoin="round" stroke-width="1.143"/><path d="M264.426,130.777s-4.376-6.571-10.576-1.835" transform="translate(-109.38 -68.667)" fill="none" stroke="#263238" stroke-linecap="round" stroke-linejoin="round" stroke-width="1.143"/><path d="M262.68,152.16s.36,5.468,3.273,6.571" transform="translate(-107.263 -62.688)" fill="none" stroke="#263238" stroke-linecap="round" stroke-linejoin="round" stroke-width="1.143"/><path d="M292.777,157.75s-10.216,12.4-17.147,14.593" transform="translate(-104.157 -61.347)" fill="none" stroke="#263238" stroke-linecap="round" stroke-linejoin="round" stroke-width="1.143"/><path d="M289.523,135.38s-4.748,5.666-4.215,10.452,7.91,9.571,10.018,9.571,7.91-8.679,7.91-8.679S294.855,137.562,289.523,135.38Z" transform="translate(-101.846 -66.712)" fill="#263238" stroke="#263238" stroke-linecap="round" stroke-linejoin="round" stroke-width="1.143"/><path d="M268.387,122.437s-4.1,4.1-14.01,4.1a94.348,94.348,0,0,1-16.737-1.364S259.845,119.71,268.387,122.437Z" transform="translate(-113.268 -69.998)" fill="#263238" stroke="#263238" stroke-linecap="round" stroke-linejoin="round" stroke-width="1.143"/><path d="M206.57,176.223a19.118,19.118,0,0,0,37.5-6.683Z" transform="translate(-120.719 -58.52)" fill="#fff"/><g transform="translate(85.851 111.02)" clip-path="url(#h)"><path d="M206.57,176.223a19.118,19.118,0,0,0,37.5-6.683Z" transform="translate(-206.57 -169.54)" opacity="0.42"/></g><path d="M206.57,176.223a19.118,19.118,0,0,0,37.5-6.683Z" transform="translate(-120.719 -58.52)" fill="none" stroke="#263238" stroke-linecap="round" stroke-linejoin="round" stroke-width="1.143"/><path d="M188.589,138.248a18.213,18.213,0,0,0,2.046-7.513c0-3.719-1.364-9.918-3.409-9.224s-2.046,5.8-1.711,7.513a12.894,12.894,0,0,1-.335,4.439s-1.711,3.075-.347,5.468S188.589,138.248,188.589,138.248Z" transform="translate(-126.058 -70.051)" fill="#fff" stroke="#263238" stroke-linecap="round" stroke-linejoin="round" stroke-width="1.143"/><path d="M215.18,190.735l-37.021-79.447a3.93,3.93,0,0,0-5.244-1.885h0a3.918,3.918,0,0,0-1.835,5.294l1.624,3.261" transform="translate(-129.328 -73.032)" fill="none" stroke="#263238" stroke-linecap="round" stroke-linejoin="round" stroke-width="1.143"/><path d="M176.46,124.9s0,4.1,1.711,5.133,10.588,6.2,10.935,3.075-6.2-7.178-8.2-8.208S178.171,124.213,176.46,124.9Z" transform="translate(-127.939 -69.381)" fill="none" stroke="#263238" stroke-linecap="round" stroke-linejoin="round" stroke-width="1.143"/><path d="M183.561,128.91s-5.468,10.923-5.468,15.708v18.114s-21.176,22.205-22.2,28.007-3.719,19.837,0,19.837,21.188-16.75,22.552-20.159S188,164.455,188,164.455a18.377,18.377,0,0,1,2.393-3.075c1.364-1.376,1.711-10.253,1.711-10.253s3.719-.347,3.719-2.393V136.46C195.86,133.683,183.561,128.91,183.561,128.91Z" transform="translate(-133.33 -68.263)" fill="#fff"/><g transform="translate(20.653 60.647)" clip-path="url(#i)"><path d="M178.386,189.328c1.364-3.422,9.559-25.962,9.559-25.962a18.376,18.376,0,0,1,2.393-3.075c1.364-1.376,1.711-10.253,1.711-10.253s3.719-.347,3.719-2.393V135.384c0-.6-.583-1.24-1.488-1.984l-2.48,11.158-9.832.979a24.98,24.98,0,0,1,3.434,7.439c.992,3.93-.484,10.811-2.938,17.2-2.318,6.025-25.614,34.33-28.255,37.541.285,1.153.793,1.86,1.637,1.86C159.591,209.487,177.022,192.737,178.386,189.328Z" transform="translate(-153.928 -127.833)" fill="#8f00fc"/><path d="M178.386,189.328c1.364-3.422,9.559-25.962,9.559-25.962a18.376,18.376,0,0,1,2.393-3.075c1.364-1.376,1.711-10.253,1.711-10.253s3.719-.347,3.719-2.393V135.384c0-.6-.583-1.24-1.488-1.984l-2.48,11.158-9.832.979a24.98,24.98,0,0,1,3.434,7.439c.992,3.93-.484,10.811-2.938,17.2-2.318,6.025-25.614,34.33-28.255,37.541.285,1.153.793,1.86,1.637,1.86C159.591,209.487,177.022,192.737,178.386,189.328Z" transform="translate(-153.928 -127.833)" fill="#fff" opacity="0.5"/></g><path d="M183.561,128.91s-5.468,10.923-5.468,15.708v18.114s-21.176,22.205-22.2,28.007-3.719,19.837,0,19.837,21.188-16.75,22.552-20.159S188,164.455,188,164.455a18.377,18.377,0,0,1,2.393-3.075c1.364-1.376,1.711-10.253,1.711-10.253s3.719-.347,3.719-2.393V136.46C195.86,133.683,183.561,128.91,183.561,128.91Z" transform="translate(-133.33 -68.263)" fill="none" stroke="#263238" stroke-linecap="round" stroke-linejoin="round" stroke-width="1.143"/><path d="M185.588,147.35l-1.029-2.74-3.409.347" transform="translate(-126.815 -64.498)" fill="none" stroke="#263238" stroke-linecap="round" stroke-linejoin="round" stroke-width="1.143"/><line x2="11.617" y2="0.335" transform="translate(49.55 74.309)" fill="none" stroke="#263238" stroke-linecap="round" stroke-linejoin="round" stroke-width="1.143"/><line x2="11.27" y2="2.74" transform="translate(50.232 67.813)" fill="none" stroke="#263238" stroke-linecap="round" stroke-linejoin="round" stroke-width="1.143"/><path d="M374.428,249.1s-29.755,5.12-26.643,11.617l1.029,4.786s-21.523,27.276-20.506,28.354,39.674,23.916,41,23.916,25.627-43.393,30.747-51.936,5.815-16.39-.682-20.494-13.638-7.86-13.638-7.86" transform="translate(-91.533 -42.227)" fill="#fff"/><g transform="translate(236.738 195.253)" clip-path="url(#j)"><path d="M397.256,245.34c-6.5-4.1-13.638-7.86-13.638-7.86l-4.153,4.277c4.215,3.6,11.406,10.228,11.766,13.811.508,5.1-7.129,15.287-8.146,17.357s-10.191-14.258-18.845-14.258.372,3.224,4.959,8.232,5.17,13.154,1.6,18.25c-3.348,4.786-39.426,2.38-32.917,15.956,11.8,7.055,28.379,16.7,29.272,16.7,1.364,0,25.627-43.393,30.747-51.936S403.753,249.444,397.256,245.34Z" transform="translate(-326.155 -237.48)" fill="#8f00fc"/><path d="M397.256,245.34c-6.5-4.1-13.638-7.86-13.638-7.86l-4.153,4.277c4.215,3.6,11.406,10.228,11.766,13.811.508,5.1-7.129,15.287-8.146,17.357s-10.191-14.258-18.845-14.258.372,3.224,4.959,8.232,5.17,13.154,1.6,18.25c-3.348,4.786-39.426,2.38-32.917,15.956,11.8,7.055,28.379,16.7,29.272,16.7,1.364,0,25.627-43.393,30.747-51.936S403.753,249.444,397.256,245.34Z" transform="translate(-326.155 -237.48)" fill="#fff" opacity="0.5"/></g><path d="M374.428,249.1s-29.755,5.12-26.643,11.617l1.029,4.786s-21.523,27.276-20.506,28.354,39.674,23.916,41,23.916,25.627-43.393,30.747-51.936,5.815-16.39-.682-20.494-13.638-7.86-13.638-7.86" transform="translate(-91.533 -42.227)" fill="none" stroke="#263238" stroke-linecap="round" stroke-linejoin="round" stroke-width="1.143"/><path d="M348.42,258.749s10.588-4.091,18.1,3.422,8.889,10.588,8.889,10.588a22.316,22.316,0,0,0-8.542-15.708" transform="translate(-86.702 -37.534)" fill="none" stroke="#263238" stroke-linecap="round" stroke-linejoin="round" stroke-width="1.143"/><path d="M321.873,296.437s-3.422,4.439-6.831,6.2A36.289,36.289,0,0,0,302.4,314.587c-4.1,6.2-9.224,11.617-6.2,14.01a10.973,10.973,0,0,0,6.2,2.393s2.046,4.786,4.786,5.12a36.57,36.57,0,0,0,4.1.347s2.38,2.393,3.719,2.393h3.484s1.364,1.711,4.438,0,6.2-11.964,7.179-15.374,1.029-10.6,1.029-10.6l4.786-6.831L324.985,295.11Z" transform="translate(-99.444 -28.407)" fill="#fff"/><g transform="translate(195.839 266.703)" clip-path="url(#k)"><path d="M318.625,296.446a33.333,33.333,0,0,1-2.69,2.988l4.885,11.27s-3.719,18.1-6.385,23.1c-1.079,2.046-3.323,2.827-5.6,3.335a6.125,6.125,0,0,0,2.963,1.674h3.447s1.364,1.711,4.438,0,6.2-11.964,7.179-15.374,1.029-10.6,1.029-10.6l4.786-6.831L321.736,295.07Z" transform="translate(-292.035 -295.12)" fill="#8f00fc"/><path d="M318.625,296.446a33.333,33.333,0,0,1-2.69,2.988l4.885,11.27s-3.719,18.1-6.385,23.1c-1.079,2.046-3.323,2.827-5.6,3.335a6.125,6.125,0,0,0,2.963,1.674h3.447s1.364,1.711,4.438,0,6.2-11.964,7.179-15.374,1.029-10.6,1.029-10.6l4.786-6.831L321.736,295.07Z" transform="translate(-292.035 -295.12)" fill="#fff" opacity="0.5"/></g><path d="M321.873,296.437s-3.422,4.439-6.831,6.2A36.289,36.289,0,0,0,302.4,314.587c-4.1,6.2-9.224,11.617-6.2,14.01a10.973,10.973,0,0,0,6.2,2.393s2.046,4.786,4.786,5.12a36.57,36.57,0,0,0,4.1.347s2.38,2.393,3.719,2.393h3.484s1.364,1.711,4.438,0,6.2-11.964,7.179-15.374,1.029-10.6,1.029-10.6l4.786-6.831L324.985,295.11Z" transform="translate(-99.444 -28.407)" fill="none" stroke="#263238" stroke-linecap="round" stroke-linejoin="round" stroke-width="1.143"/><path d="M330.456,279.64s40.306,21.188,42.7,22.552,3.422,5.468,2.74,9.918,4.091,21.188-1.029,21.188-27.338-6.831-40.319-14.01-19.477-17.766-19.477-19.13S330.456,279.64,330.456,279.64Z" transform="translate(-94.699 -32.117)" fill="#263238" stroke="#263238" stroke-linecap="round" stroke-linejoin="round" stroke-width="1.143"/><path d="M309.221,156.291l9.857-9.919c5.269-5.269-3.98-15.5-7.327-19.279a69.838,69.838,0,0,0-28.9-19.316c-6.732-2.405-21.362-6.968-25.069,2.12l-6.571,16.043s17.878-1.451,33.2,6.571S309.221,156.291,309.221,156.291Z" transform="translate(-110.014 -74.121)" fill="#fff"/><g transform="translate(141.196 30.36)" clip-path="url(#l)"><path d="M281.116,107.823c-5.715-2.046-17.146-5.616-22.726-1.066,4.5-.124,11.6,1.153,22.317,6.521,22.416,11.158,22.924,14.766,21.387,20.37-.632,2.331-3.546,5.356-6.745,8.1a76.6,76.6,0,0,1,12.15,14.531l9.857-9.918c5.269-5.269-3.98-15.5-7.327-19.279a69.839,69.839,0,0,0-28.912-19.254Z" transform="translate(-249.488 -104.465)" fill="#8f00fc"/><path d="M281.116,107.823c-5.715-2.046-17.146-5.616-22.726-1.066,4.5-.124,11.6,1.153,22.317,6.521,22.416,11.158,22.924,14.766,21.387,20.37-.632,2.331-3.546,5.356-6.745,8.1a76.6,76.6,0,0,1,12.15,14.531l9.857-9.918c5.269-5.269-3.98-15.5-7.327-19.279a69.839,69.839,0,0,0-28.912-19.254Z" transform="translate(-249.488 -104.465)" fill="#fff" opacity="0.5"/></g><path d="M309.221,156.291l9.857-9.919c5.269-5.269-3.98-15.5-7.327-19.279a69.838,69.838,0,0,0-28.9-19.316c-6.732-2.405-21.362-6.968-25.069,2.12l-6.571,16.043s17.878-1.451,33.2,6.571S309.221,156.291,309.221,156.291Z" transform="translate(-110.014 -74.121)" fill="none" stroke="#263238" stroke-linecap="round" stroke-linejoin="round" stroke-width="1.143"/><path d="M290.307,151.735s11.307-9.125,14.593-3.657-4.377,13.142-10.216,13.142-8.753-2.194-8.753-2.194" transform="translate(-101.687 -64.085)" fill="#fff"/><g transform="translate(184.243 82.247)" clip-path="url(#m)"><path d="M290.307,151.735s11.307-9.125,14.593-3.657-4.377,13.142-10.216,13.142-8.753-2.194-8.753-2.194" transform="translate(-285.93 -146.332)" fill="#8f00fc"/><path d="M290.307,151.735s11.307-9.125,14.593-3.657-4.377,13.142-10.216,13.142-8.753-2.194-8.753-2.194" transform="translate(-285.93 -146.332)" fill="#fff" opacity="0.5"/></g><path d="M290.307,151.735s11.307-9.125,14.593-3.657-4.377,13.142-10.216,13.142-8.753-2.194-8.753-2.194" transform="translate(-101.687 -64.085)" fill="none" stroke="#263238" stroke-linecap="round" stroke-linejoin="round" stroke-width="1.143"/></g><g transform="translate(73.41 298.865)"><line x2="400" transform="translate(0 197.092)" fill="none" stroke="#263238" stroke-linecap="round" stroke-linejoin="round" stroke-width="1.143"/><path d="M256.035,317.69H135.29V449.581c0,7.935,27.139,14.369,60.627,14.369s60.627-6.435,60.627-14.369Z" transform="translate(-58.571 -241.863)" fill="#fff"/><g transform="translate(76.719 75.827)" clip-path="url(#n)"><path d="M256.035,317.69H135.29V449.581c0,7.935,27.139,14.369,60.627,14.369s60.627-6.435,60.627-14.369Z" transform="translate(-135.29 -317.69)" opacity="0.42"/><path d="M158.45,317.69v144.1a218.457,218.457,0,0,0,27.846,2.12V317.69Z" transform="translate(-129.736 -317.69)" fill="#263238"/><path d="M189.34,317.69V463.863c2.963,0,5.877-.186,8.679-.36V317.69Z" transform="translate(-122.328 -317.69)" fill="#263238"/><path d="M199.87,317.69v145.5q4.525-.372,8.679-.893V317.69Z" transform="translate(-119.803 -317.69)" fill="#fff"/></g><path d="M256.035,317.69H135.29V449.581c0,7.935,27.139,14.369,60.627,14.369s60.627-6.435,60.627-14.369Z" transform="translate(-58.571 -241.863)" fill="none" stroke="#263238" stroke-linecap="round" stroke-linejoin="round" stroke-width="1.143"/><path d="M197.279,300.7c-15.6,0-31.516,1.017-46.741,4.637-8.505,2.033-24,6.323-20.395,18.6,1.612,5.48,7.947,7.588,12.782,9.323a101,101,0,0,0,18.362,4.067,233.085,233.085,0,0,0,35.954,2.566c15.609,0,31.541-1.017,46.766-4.649,6.2-1.463,13.873-3.05,18.213-8.1a10.513,10.513,0,0,0-1.24-15.2c-5.133-3.893-12.262-5.53-18.411-6.906a185.656,185.656,0,0,0-29.83-3.868Q205.04,300.7,197.279,300.7Z" transform="translate(-59.933 -245.938)" fill="#fff"/><g transform="translate(69.675 54.762)" clip-path="url(#o)"><path d="M197.279,300.7c-15.6,0-31.516,1.017-46.741,4.637-8.505,2.033-24,6.323-20.395,18.6,1.612,5.48,7.947,7.588,12.782,9.323a101,101,0,0,0,18.362,4.067,233.085,233.085,0,0,0,35.954,2.566c15.609,0,31.541-1.017,46.766-4.649,6.2-1.463,13.873-3.05,18.213-8.1a10.513,10.513,0,0,0-1.24-15.2c-5.133-3.893-12.262-5.53-18.411-6.906a185.656,185.656,0,0,0-29.83-3.868Q205.04,300.7,197.279,300.7Z" transform="translate(-129.608 -300.7)" opacity="0.42"/></g><path d="M197.279,300.7c-15.6,0-31.516,1.017-46.741,4.637-8.505,2.033-24,6.323-20.395,18.6,1.612,5.48,7.947,7.588,12.782,9.323a101,101,0,0,0,18.362,4.067,233.085,233.085,0,0,0,35.954,2.566c15.609,0,31.541-1.017,46.766-4.649,6.2-1.463,13.873-3.05,18.213-8.1a10.513,10.513,0,0,0-1.24-15.2c-5.133-3.893-12.262-5.53-18.411-6.906a185.656,185.656,0,0,0-29.83-3.868Q205.04,300.7,197.279,300.7Z" transform="translate(-59.933 -245.938)" fill="none" stroke="#263238" stroke-linecap="round" stroke-linejoin="round" stroke-width="1.143"/><ellipse cx="60.565" cy="12.882" rx="60.565" ry="12.882" transform="translate(76.781 58.333)" fill="#fff"/><g transform="translate(76.781 58.333)" clip-path="url(#p)"><ellipse cx="60.565" cy="12.882" rx="60.565" ry="12.882" opacity="0.65"/></g><ellipse cx="60.565" cy="12.882" rx="60.565" ry="12.882" transform="translate(76.781 58.333)" fill="none" stroke="#263238" stroke-linecap="round" stroke-linejoin="round" stroke-width="1.143"/><path d="M137.776,350.867s-8.877-15.039-6.2-19.837,14.692-.335,18.114,4.1,6.5,16.75,4.786,17.085-4.439.682-5.133-1.7-4.091-12.646-6.2-14.022-6.831-4.091-6.831-1.017,5.133,13.638,4.439,15.374S139.835,352.913,137.776,350.867Z" transform="translate(-59.582 -239.16)" fill="#263238"/><path d="M344.17,340.9H247.18V446.842c0,6.373,21.808,11.543,48.7,11.543s48.7-5.17,48.7-11.543Z" transform="translate(-31.738 -236.297)" fill="#fff"/><g transform="translate(215.442 104.603)" clip-path="url(#q)"><path d="M344.17,340.9H247.18V446.842c0,6.373,21.808,11.543,48.7,11.543s48.7-5.17,48.7-11.543Z" transform="translate(-247.18 -340.9)" opacity="0.42"/></g><path d="M344.17,340.9H247.18V446.842c0,6.373,21.808,11.543,48.7,11.543s48.7-5.17,48.7-11.543Z" transform="translate(-31.738 -236.297)" fill="none" stroke="#263238" stroke-linecap="round" stroke-linejoin="round" stroke-width="1.143"/><path d="M265.79,340.9V456.649a176.228,176.228,0,0,0,22.317,1.711V340.9Z" transform="translate(-27.276 -236.297)" fill="#263238"/><path d="M290.59,340.9V458.322q3.6-.1,6.993-.3V340.9Z" transform="translate(-21.328 -236.297)" fill="#263238"/><path d="M299.05,340.9V457.777c2.418-.2,4.761-.434,6.993-.707V340.9Z" transform="translate(-19.299 -236.297)" fill="#fff"/><path d="M296.973,327.26c-12.534,0-25.317.818-37.541,3.72-6.844,1.624-19.279,5.071-16.378,14.878,1.24,4.4,6.373,6.087,10.266,7.439a80.687,80.687,0,0,0,14.741,3.4,187.993,187.993,0,0,0,28.912,2.058c12.534,0,25.329-.818,37.566-3.719,4.959-1.178,11.158-2.48,14.63-6.509a8.455,8.455,0,0,0-1-12.212c-4.116-3.112-9.856-4.426-14.778-5.542a149.887,149.887,0,0,0-23.965-3.112Q303.209,327.26,296.973,327.26Z" transform="translate(-32.831 -239.568)" fill="#fff"/><g transform="translate(209.791 87.692)" clip-path="url(#r)"><path d="M296.973,327.26c-12.534,0-25.317.818-37.541,3.72-6.844,1.624-19.279,5.071-16.378,14.878,1.24,4.4,6.373,6.087,10.266,7.439a80.687,80.687,0,0,0,14.741,3.4,187.993,187.993,0,0,0,28.912,2.058c12.534,0,25.329-.818,37.566-3.719,4.959-1.178,11.158-2.48,14.63-6.509a8.455,8.455,0,0,0-1-12.212c-4.116-3.112-9.856-4.426-14.778-5.542a149.887,149.887,0,0,0-23.965-3.112Q303.209,327.26,296.973,327.26Z" transform="translate(-242.622 -327.26)" opacity="0.42"/></g><path d="M296.973,327.26c-12.534,0-25.317.818-37.541,3.72-6.844,1.624-19.279,5.071-16.378,14.878,1.24,4.4,6.373,6.087,10.266,7.439a80.687,80.687,0,0,0,14.741,3.4,187.993,187.993,0,0,0,28.912,2.058c12.534,0,25.329-.818,37.566-3.719,4.959-1.178,11.158-2.48,14.63-6.509a8.455,8.455,0,0,0-1-12.212c-4.116-3.112-9.856-4.426-14.778-5.542a149.887,149.887,0,0,0-23.965-3.112Q303.209,327.26,296.973,327.26Z" transform="translate(-32.831 -239.568)" fill="none" stroke="#263238" stroke-linecap="round" stroke-linejoin="round" stroke-width="1.143"/><ellipse cx="48.65" cy="10.352" rx="48.65" ry="10.352" transform="translate(215.491 90.556)" fill="#fff"/><g transform="translate(215.491 90.556)" clip-path="url(#s)"><ellipse cx="48.65" cy="10.352" rx="48.65" ry="10.352" opacity="0.65"/></g><ellipse cx="48.65" cy="10.352" rx="48.65" ry="10.352" transform="translate(215.491 90.556)" fill="none" stroke="#263238" stroke-linecap="round" stroke-linejoin="round" stroke-width="1.143"/><path d="M249.179,367.55s-7.141-12.076-4.959-15.919,11.8-.273,14.555,3.285,5.207,13.452,3.843,13.725-3.571.558-4.116-1.364-3.3-10.154-4.959-11.258-5.492-3.3-5.492-.818,4.129,10.972,3.571,12.4S250.828,369.2,249.179,367.55Z" transform="translate(-32.548 -234.122)" fill="#263238"/><path d="M158.7,268.91c0,7.687,6.955,7.687,6.955,15.361s-6.955,7.674-6.955,15.361,6.955,7.674,6.955,15.361-6.955,7.687-6.955,15.361" transform="translate(-52.957 -253.561)" fill="none" stroke="#263238" stroke-linecap="round" stroke-linejoin="round" stroke-width="1.143"/><path d="M165.24,256.53c0,4.835-2.765,6.621-4.81,9.212" transform="translate(-52.542 -256.53)" fill="none" stroke="#263238" stroke-linecap="round" stroke-linejoin="round" stroke-width="1.143"/><path d="M186.145,268.44c0,6.2-6.955,6.2-6.955,12.4s6.955,6.2,6.955,12.4-6.955,6.2-6.955,12.4,6.955,6.2,6.955,12.4-6.955,6.2-6.955,12.4" transform="translate(-48.043 -253.674)" fill="none" stroke="#263238" stroke-linecap="round" stroke-linejoin="round" stroke-width="1.143"/><path d="M206.635,256.53c0,7.674-6.955,7.674-6.955,15.349s6.955,7.687,6.955,15.361-6.955,7.674-6.955,15.361,6.955,7.674,6.955,15.361-6.955,7.687-6.955,15.361" transform="translate(-43.129 -256.53)" fill="none" stroke="#263238" stroke-linecap="round" stroke-linejoin="round" stroke-width="1.143"/><path d="M272.246,307.69a6.929,6.929,0,0,1,.818,3.447c0,5.778-5.244,5.778-5.244,11.567s5.244,5.79,5.244,11.58-5.244,5.8-5.244,11.592" transform="translate(-26.789 -244.261)" fill="none" stroke="#263238" stroke-linecap="round" stroke-linejoin="round" stroke-width="1.143"/><path d="M288.514,300.77c0,4.674-5.244,4.674-5.244,9.348s5.244,4.674,5.244,9.348-5.244,4.674-5.244,9.361,5.244,4.674,5.244,9.348-5.244,4.674-5.244,9.361" transform="translate(-23.084 -245.921)" fill="none" stroke="#263238" stroke-linecap="round" stroke-linejoin="round" stroke-width="1.143"/><path d="M301.54,315c-1.364,1.513-2.79,2.951-2.79,5.963,0,5.79,5.244,5.79,5.244,11.58s-5.244,5.8-5.244,11.592" transform="translate(-19.371 -242.508)" fill="none" stroke="#263238" stroke-linecap="round" stroke-linejoin="round" stroke-width="1.143"/></g></g></g></svg>