<svg xmlns="http://www.w3.org/2000/svg" xmlns:xlink="http://www.w3.org/1999/xlink" width="249.29" height="249.99" viewBox="0 0 249.29 249.99">   <defs>     <clipPath id="clip-path">       <rect id="Retângulo_302" data-name="Retângulo 302" width="44.73" height="11.09" rx="4.97" fill="#7300cc" stroke="#263238" stroke-linecap="round" stroke-linejoin="round" stroke-width="1"></rect>     </clipPath>     <clipPath id="clip-path-2">       <path id="Caminho_3565" data-name="Caminho 3565" d="M249.616,251.42s-29.293,8.073-33.993,7.494-6.131-2.657-7.235-2.657-4.087,1.451-5.45,1.328-2.888-.484-2.888.361a2.759,2.759,0,0,0,1.928,2.173c.722,0,3.617-.123,3.617-.123s-5.668,1.689-5.913,2.773a1.928,1.928,0,0,0,1.574,2.289,3.406,3.406,0,0,1,1.567.729,8.393,8.393,0,0,0,1.206,2.65c.722.845,2.888,1.206,5.3.722a32.942,32.942,0,0,0,7.6-3.256c.961-.606,30.26-3.256,32.433-3.733s4.823-.484,5.668-1.935S249.616,251.42,249.616,251.42Z" transform="translate(-199.642 -251.42)" fill="#fff" stroke="#263238" stroke-linecap="round" stroke-linejoin="round" stroke-width="1"></path>     </clipPath>     <clipPath id="clip-path-3">       <path id="Caminho_3569" data-name="Caminho 3569" d="M304.78,206.1a63.124,63.124,0,0,1-6.022,12.051c-3.372,4.823-4.823,9.891-2.657,15.314a11.1,11.1,0,0,0,6.874,6.656s-1.689,15.914-1.206,20.137,6.989,9.163,16.758,9.537,18.2-3.134,18.2-6.513-6.867-21.336-6.867-25.076.6-15.43-2.657-25.887S312.5,198.385,304.78,206.1Z" transform="translate(-295.077 -201.922)" fill="#7300cc" stroke="#263238" stroke-linecap="round" stroke-linejoin="round" stroke-width="1"></path>     </clipPath>     <clipPath id="clip-path-4">       <path id="Caminho_3577" data-name="Caminho 3577" d="M298.33,210.71a25.994,25.994,0,0,0-5.062,4.217c-2.773,2.9-16.159,23.162-16.159,23.162s3.978,8.325,5.184,8.563,22.188-17.712,24.116-19.892,3.134-6.131,2.534-7.841" transform="translate(-277.11 -210.71)" fill="#7300cc" stroke="#263238" stroke-linecap="round" stroke-linejoin="round" stroke-width="1"></path>     </clipPath>     <clipPath id="clip-path-5">       <path id="Caminho_3585" data-name="Caminho 3585" d="M279.217,172.45s-.245,3.495.361,4.578,2.289,2.173,2.289,3.617-1.206,3.406-.845,4.462,2.3,1.206,2.3,1.206,3.611,4.462,4.7,6.029,1.567.961,3.256.484,5.3-3.617,7.351-6.029-1.362-9.769-5.784-14.708-11.1-4.823-12.542-3.406A4.789,4.789,0,0,0,279.217,172.45Z" transform="translate(-279.168 -167.833)" fill="#fff" stroke="#263238" stroke-linecap="round" stroke-linejoin="round" stroke-width="1"></path>     </clipPath>     <clipPath id="clip-path-6">       <path id="Caminho_3590" data-name="Caminho 3590" d="M273.648,159.206v.484l-.218,5.906,6.506.845,1.451-2.534v2.773a13.339,13.339,0,0,1,5.906.845c3.134,1.206,7.112,9.769,6.874,13.264s-3.256,4.217-2.9,9.537,8.434,10.593,14.565,7.221,7.119-7.718,9.646-6.874,6.39,6.029,8.8-1.328,1.328-12.051-4.339-18.08-10.123-5.545-10.852-10.368-2.289-11.336-7.494-14.987-12.657-3.856-19.075-1.083S273.648,156.072,273.648,159.206Z" transform="translate(-273.43 -142.933)" fill="#263238" stroke="#263238" stroke-linecap="round" stroke-linejoin="round" stroke-width="1"></path>     </clipPath>   </defs>   <g id="Designer_life-bro" data-name="Designer life-bro" transform="translate(-67.23 -68.255)">     <g id="freepik--Plants--inject-40" transform="translate(265.816 184.797)">       <path id="Caminho_3423" data-name="Caminho 3423" d="M403.717,252.41s0-2.848-3.992-6.812-6.547-6.267-6.547-6.267-2,6.547,1.7,10.539a70.409,70.409,0,0,0,8.856,7.691Z" transform="translate(-369.546 -239.33)" fill="#7300cc"></path>       <path id="Caminho_3424" data-name="Caminho 3424" d="M395.217,278.53s0-2.848-3.985-6.812-6.553-6.267-6.553-6.267-2,6.506,1.71,10.518a70.059,70.059,0,0,0,8.856,7.691Z" transform="translate(-366.837 -247.656)" fill="#7300cc"></path>       <path id="Caminho_3425" data-name="Caminho 3425" d="M408.294,260.082s.3-2.834,4.687-6.383,7.214-5.538,7.214-5.538,1.288,6.731-2.814,10.3a69.814,69.814,0,0,1-9.592,6.717Z" transform="translate(-374.375 -242.145)" fill="#7300cc"></path>       <path id="Caminho_3426" data-name="Caminho 3426" d="M397.779,291.53s.593-2.786,5.327-5.852,7.725-4.769,7.725-4.769.572,6.812-3.883,9.953a70.245,70.245,0,0,1-10.218,5.668Z" transform="translate(-370.85 -252.584)" fill="#7300cc"></path>       <path id="Caminho_3427" data-name="Caminho 3427" d="M400.187,324.01s0-2.848,3.985-6.812,6.553-6.267,6.553-6.267,2,6.553-1.71,10.545a70.591,70.591,0,0,1-8.856,7.691Z" transform="translate(-371.943 -262.154)" fill="#7300cc"></path>       <path id="Caminho_3428" data-name="Caminho 3428" d="M395.511,331.569s.4-2.82-2.977-7.337-5.593-7.133-5.593-7.133-2.909,6.2.191,10.675a69.99,69.99,0,0,0,7.65,8.856Z" transform="translate(-367.335 -264.121)" fill="#7300cc"></path>       <path id="Caminho_3429" data-name="Caminho 3429" d="M394.317,356.54s0-2.848,3.985-6.812,6.553-6.267,6.553-6.267,2,6.553-1.71,10.539a69.945,69.945,0,0,1-8.856,7.691Z" transform="translate(-370.072 -272.523)" fill="#7300cc"></path>       <path id="Caminho_3430" data-name="Caminho 3430" d="M398.193,377.538s-.715-2.759,2.132-7.623,4.769-7.725,4.769-7.725,3.59,5.831,1.015,10.634a69.54,69.54,0,0,1-6.594,9.674Z" transform="translate(-371.291 -278.494)" fill="#7300cc"></path>       <path id="Caminho_3431" data-name="Caminho 3431" d="M404.529,257.46a81.4,81.4,0,0,1-1.09,8.856c-1.58,8.141-5.518,13.4-7.1,20.757s2.95,16.833,1.737,26.289-4.891,14.7-3.835,21.009,6.588,23.38,6.588,23.38" transform="translate(-369.997 -245.109)" fill="none" stroke="#263238" stroke-linecap="round" stroke-linejoin="round" stroke-width="0.5"></path>       <line id="Linha_168" data-name="Linha 168" y1="3.304" x2="4.299" transform="translate(33.878 16.527)" fill="none" stroke="#263238" stroke-linecap="round" stroke-linejoin="round" stroke-width="0.5"></line>       <line id="Linha_169" data-name="Linha 169" x1="1.798" y1="3.202" transform="translate(32.284 12.828)" fill="none" stroke="#263238" stroke-linecap="round" stroke-linejoin="round" stroke-width="0.5"></line>       <path id="Caminho_3432" data-name="Caminho 3432" d="M397.76,297.9s3.6-2.725,7.3-5.4" transform="translate(-371.178 -256.279)" fill="none" stroke="#263238" stroke-linecap="round" stroke-linejoin="round" stroke-width="0.5"></path>       <path id="Caminho_3433" data-name="Caminho 3433" d="M397.407,287.606a57.24,57.24,0,0,0-6.4-9.776" transform="translate(-369.026 -251.603)" fill="none" stroke="#263238" stroke-linecap="round" stroke-linejoin="round" stroke-width="0.5"></path>       <path id="Caminho_3434" data-name="Caminho 3434" d="M400.4,331.273A44.515,44.515,0,0,1,408.1,321" transform="translate(-372.02 -265.364)" fill="none" stroke="#263238" stroke-linecap="round" stroke-linejoin="round" stroke-width="0.5"></path>       <path id="Caminho_3435" data-name="Caminho 3435" d="M396.431,336.9a50.747,50.747,0,0,0-3.9-7.4c-2.1-3.1-2.4-3.5-2.4-3.5" transform="translate(-368.746 -266.958)" fill="none" stroke="#263238" stroke-linecap="round" stroke-linejoin="round" stroke-width="0.5"></path>       <path id="Caminho_3436" data-name="Caminho 3436" d="M394.33,364.711a47.4,47.4,0,0,1,3.236-6.553,41.406,41.406,0,0,1,4.2-5.5" transform="translate(-370.085 -275.456)" fill="none" stroke="#263238" stroke-linecap="round" stroke-linejoin="round" stroke-width="0.5"></path>       <path id="Caminho_3437" data-name="Caminho 3437" d="M400.113,385.223a12.2,12.2,0,0,1,1.076-6.308c1.5-2.9,3.2-6.7,3.9-8.175" transform="translate(-371.91 -281.219)" fill="none" stroke="#263238" stroke-linecap="round" stroke-linejoin="round" stroke-width="0.5"></path>       <path id="Caminho_3438" data-name="Caminho 3438" d="M370.552,310.02s-.307-1.785,1.758-4.721,3.406-4.639,3.406-4.639,1.962,3.89.075,6.812a44.09,44.09,0,0,1-4.7,5.784Z" transform="translate(-362.5 -258.88)" fill="#7300cc"></path>       <path id="Caminho_3439" data-name="Caminho 3439" d="M378.712,325.477s-.307-1.792,1.764-4.721,3.406-4.646,3.406-4.646,1.962,3.9.068,6.812a44.617,44.617,0,0,1-4.7,5.784Z" transform="translate(-365.101 -263.805)" fill="#7300cc"></path>       <path id="Caminho_3440" data-name="Caminho 3440" d="M367.473,315.936s-.491-1.744-3.631-3.495-5.1-2.691-5.1-2.691-.075,4.36,2.882,6.131a44.625,44.625,0,0,0,6.751,3.175Z" transform="translate(-358.74 -261.778)" fill="#7300cc"></path>       <path id="Caminho_3441" data-name="Caminho 3441" d="M376.98,334.609s-.681-1.683-3.978-3.093-5.361-2.146-5.361-2.146.382,4.346,3.515,5.818a44.311,44.311,0,0,0,7.044,2.446Z" transform="translate(-361.577 -268.032)" fill="#7300cc"></path>       <path id="Caminho_3442" data-name="Caminho 3442" d="M380.021,355.041s-.307-1.785-3.243-3.856-4.769-3.215-4.769-3.215-.538,4.326,2.214,6.424a44.724,44.724,0,0,0,6.376,3.863Z" transform="translate(-362.956 -273.961)" fill="#7300cc"></path>       <path id="Caminho_3443" data-name="Caminho 3443" d="M384.7,358.807s-.559-1.724,1.07-4.925,2.725-5.082,2.725-5.082,2.493,3.576,1.035,6.717a44.4,44.4,0,0,1-3.835,6.4Z" transform="translate(-366.984 -274.225)" fill="#7300cc"></path>       <path id="Caminho_3444" data-name="Caminho 3444" d="M391.921,381.121s.2-1.8,3.018-4.033,4.6-3.488,4.6-3.488.783,4.292-1.846,6.54a44.317,44.317,0,0,1-6.131,4.224Z" transform="translate(-369.202 -282.131)" fill="#7300cc"></path>       <path id="Caminho_3445" data-name="Caminho 3445" d="M387.231,374.808s-.307-1.785-3.243-3.856-4.769-3.222-4.769-3.222-.538,4.326,2.221,6.431a44.435,44.435,0,0,0,6.37,3.863Z" transform="translate(-365.255 -280.26)" fill="#7300cc"></path>       <path id="Caminho_3446" data-name="Caminho 3446" d="M387.927,388.216s.15-1.805-2.166-4.551-3.815-4.326-3.815-4.326-1.615,4.047.518,6.812a44.915,44.915,0,0,0,5.184,5.354Z" transform="translate(-365.95 -283.961)" fill="#7300cc"></path>       <path id="Caminho_3447" data-name="Caminho 3447" d="M370.11,313.79a51.233,51.233,0,0,0,1.649,5.45c1.873,4.932,4.912,7.8,6.7,12.262s0,10.9,1.758,16.677,4.666,8.686,4.694,12.759-1.58,15.375-1.58,15.375" transform="translate(-362.364 -263.065)" fill="none" stroke="#263238" stroke-linecap="round" stroke-linejoin="round" stroke-width="0.5"></path>       <line id="Linha_170" data-name="Linha 170" x1="3.052" y1="1.601" transform="translate(5.913 53.736)" fill="none" stroke="#263238" stroke-linecap="round" stroke-linejoin="round" stroke-width="0.5"></line>       <line id="Linha_171" data-name="Linha 171" y1="2.2" x2="0.783" transform="translate(8.427 50.779)" fill="none" stroke="#263238" stroke-linecap="round" stroke-linejoin="round" stroke-width="0.5"></line>       <path id="Caminho_3448" data-name="Caminho 3448" d="M379.674,338.245s-2.548-1.3-5.164-2.6" transform="translate(-363.767 -270.034)" fill="none" stroke="#263238" stroke-linecap="round" stroke-linejoin="round" stroke-width="0.5"></path>       <path id="Caminho_3449" data-name="Caminho 3449" d="M379.54,331.392a36.351,36.351,0,0,1,2.95-6.812" transform="translate(-365.37 -266.505)" fill="none" stroke="#263238" stroke-linecap="round" stroke-linejoin="round" stroke-width="0.5"></path>       <path id="Caminho_3450" data-name="Caminho 3450" d="M381.527,359.48a28.356,28.356,0,0,0-5.947-5.62" transform="translate(-364.108 -275.838)" fill="none" stroke="#263238" stroke-linecap="round" stroke-linejoin="round" stroke-width="0.5"></path>       <path id="Caminho_3451" data-name="Caminho 3451" d="M385.59,362.161a31.763,31.763,0,0,1,1.642-5.062c.981-2.173,1.124-2.459,1.124-2.459" transform="translate(-367.299 -276.087)" fill="none" stroke="#263238" stroke-linecap="round" stroke-linejoin="round" stroke-width="0.5"></path>       <path id="Caminho_3452" data-name="Caminho 3452" d="M391.63,385.009a27.492,27.492,0,0,1,3.284-3.406,17.348,17.348,0,0,0,2.132-1.853" transform="translate(-369.224 -284.091)" fill="none" stroke="#263238" stroke-linecap="round" stroke-linejoin="round" stroke-width="0.5"></path>       <path id="Caminho_3453" data-name="Caminho 3453" d="M389.054,379.781a30.232,30.232,0,0,0-2.725-3.76,26.861,26.861,0,0,0-3.229-2.991" transform="translate(-366.505 -281.949)" fill="none" stroke="#263238" stroke-linecap="round" stroke-linejoin="round" stroke-width="0.5"></path>       <path id="Caminho_3454" data-name="Caminho 3454" d="M388.344,393.146a7.725,7.725,0,0,0-1.362-3.842c-1.253-1.655-2.725-3.856-3.331-4.714" transform="translate(-366.68 -285.634)" fill="none" stroke="#263238" stroke-linecap="round" stroke-linejoin="round" stroke-width="0.5"></path>       <path id="Caminho_3455" data-name="Caminho 3455" d="M377.56,402.62h26.091v19.551a2.044,2.044,0,0,1-2.044,2.044H379.631a2.044,2.044,0,0,1-2.044-2.044V402.62Z" transform="translate(-364.739 -291.382)" fill="#263238"></path>       <path id="Caminho_3456" data-name="Caminho 3456" d="M402.451,405.7H376.564a2.044,2.044,0,0,1-2.044-2.044h0a2.044,2.044,0,0,1,2.044-2.044h25.887a2.044,2.044,0,0,1,2.044,2.044h0a2.044,2.044,0,0,1-2.044,2.044Z" transform="translate(-363.77 -291.06)" fill="#263238"></path>     </g>     <g id="freepik--Clock--inject-40" transform="translate(228.698 68.255)">       <circle id="Elipse_67" data-name="Elipse 67" cx="23.162" cy="23.162" r="23.162" transform="translate(3.009 3.008)" fill="#263238"></circle>       <circle id="Elipse_68" data-name="Elipse 68" cx="20.09" cy="20.09" r="20.09" transform="translate(0 15.103) rotate(-22.08)" fill="#fff"></circle>       <path id="Caminho_3457" data-name="Caminho 3457" d="M323.54,101.832l13.032-3.692V79.91" transform="translate(-310.401 -71.97)" fill="none" stroke="#263238" stroke-miterlimit="10" stroke-width="2"></path>     </g>     <g id="freepik--Graphics--inject-40" transform="translate(83.764 98.328)">       <path id="Caminho_3458" data-name="Caminho 3458" d="M150.222,216.86h-25.43L91.5,127.51h25.43Z" transform="translate(-91.5 -117.217)" fill="#263238"></path>       <path id="Caminho_3459" data-name="Caminho 3459" d="M150.222,216.86h-25.43L91.5,127.51h25.43Z" transform="translate(-91.5 -117.217)" fill="#fff" opacity="0.2"></path>       <path id="Caminho_3460" data-name="Caminho 3460" d="M113.6,155h-6.54a2.35,2.35,0,0,1-2.044-1.478l-2.527-6.778a.988.988,0,0,1,.926-1.471h6.54A2.364,2.364,0,0,1,112,146.74l2.527,6.778C114.827,154.336,114.419,155,113.6,155Z" transform="translate(-94.963 -122.877)" fill="#263238"></path>       <path id="Caminho_3461" data-name="Caminho 3461" d="M118.613,132.027H93.183L91.5,127.51h25.43Z" transform="translate(-91.5 -117.217)" fill="#263238"></path>       <line id="Linha_172" data-name="Linha 172" x2="0.729" y2="1.962" transform="translate(10.375 15.553)" fill="none" stroke="#263238" stroke-linecap="round" stroke-linejoin="round" stroke-width="1"></line>       <line id="Linha_173" data-name="Linha 173" x2="0.729" y2="1.962" transform="translate(11.356 15.553)" fill="none" stroke="#263238" stroke-linecap="round" stroke-linejoin="round" stroke-width="1"></line>       <line id="Linha_174" data-name="Linha 174" x2="0.736" y2="1.962" transform="translate(12.33 15.553)" fill="none" stroke="#263238" stroke-linecap="round" stroke-linejoin="round" stroke-width="1"></line>       <line id="Linha_175" data-name="Linha 175" x2="0.729" y2="1.962" transform="translate(13.311 15.553)" fill="none" stroke="#263238" stroke-linecap="round" stroke-linejoin="round" stroke-width="1"></line>       <line id="Linha_176" data-name="Linha 176" x2="0.729" y2="1.962" transform="translate(14.292 15.553)" fill="none" stroke="#263238" stroke-linecap="round" stroke-linejoin="round" stroke-width="1"></line>       <line id="Linha_177" data-name="Linha 177" x2="0.729" y2="1.962" transform="translate(15.273 15.553)" fill="none" stroke="#263238" stroke-linecap="round" stroke-linejoin="round" stroke-width="1"></line>       <line id="Linha_178" data-name="Linha 178" x2="0.729" y2="1.962" transform="translate(16.254 15.553)" fill="none" stroke="#263238" stroke-linecap="round" stroke-linejoin="round" stroke-width="1"></line>       <line id="Linha_179" data-name="Linha 179" x2="0.729" y2="1.962" transform="translate(17.235 15.553)" fill="none" stroke="#263238" stroke-linecap="round" stroke-linejoin="round" stroke-width="1"></line>       <line id="Linha_180" data-name="Linha 180" x2="0.736" y2="1.962" transform="translate(18.209 15.553)" fill="none" stroke="#263238" stroke-linecap="round" stroke-linejoin="round" stroke-width="1"></line>       <line id="Linha_181" data-name="Linha 181" x2="0.729" y2="1.962" transform="translate(19.19 15.553)" fill="none" stroke="#263238" stroke-linecap="round" stroke-linejoin="round" stroke-width="1"></line>       <path id="Caminho_3462" data-name="Caminho 3462" d="M112.642,151.445l-6.131-3.9a.381.381,0,0,0-.409-.041.259.259,0,0,0-.061.347l2.82,6.083a.586.586,0,0,0,.381.313h.1a.225.225,0,0,0,.232-.157l.681-2H112.7a.225.225,0,0,0,.245-.232A.538.538,0,0,0,112.642,151.445Z" transform="translate(-96.122 -123.576)" fill="#fff"></path>       <path id="Caminho_3463" data-name="Caminho 3463" d="M112.688,151.883l-6.158-3.9,2.82,6.083.7-2.153Z" transform="translate(-96.291 -123.742)" fill="#263238"></path>       <path id="Caminho_3464" data-name="Caminho 3464" d="M129.578,151.883l-6.158-3.9,2.827,6.083.695-2.153Z" transform="translate(-101.675 -123.742)" fill="#fff"></path>       <path id="Caminho_3465" data-name="Caminho 3465" d="M136.491,158.2l-.552-1.253-.729,1.056Z" transform="translate(-105.433 -126.601)" fill="#fff"></path>       <path id="Caminho_3466" data-name="Caminho 3466" d="M158.331,216.823l-.552-1.253-.729,1.056Z" transform="translate(-112.395 -145.287)" fill="#fff"></path>       <path id="Caminho_3467" data-name="Caminho 3467" d="M165.041,234.813l-.559-1.253-.722,1.049Z" transform="translate(-114.534 -151.022)" fill="#fff"></path>       <path id="Caminho_3468" data-name="Caminho 3468" d="M171.911,253.253,171.352,252l-.722,1.056Z" transform="translate(-116.724 -156.9)" fill="#fff"></path>       <path id="Caminho_3469" data-name="Caminho 3469" d="M133.421,196.053l-.559-1.253-.722,1.049Z" transform="translate(-104.455 -138.666)" fill="#fff"></path>       <path id="Caminho_3470" data-name="Caminho 3470" d="M141.161,216.823l-.559-1.253-.722,1.056Z" transform="translate(-106.922 -145.287)" fill="#fff"></path>       <path id="Caminho_3471" data-name="Caminho 3471" d="M147.861,234.813l-.552-1.253-.729,1.049Z" transform="translate(-109.058 -151.022)" fill="#fff"></path>       <path id="Caminho_3472" data-name="Caminho 3472" d="M154.741,253.253,154.182,252l-.722,1.056Z" transform="translate(-111.251 -156.9)" fill="#fff"></path>       <path id="Caminho_3473" data-name="Caminho 3473" d="M115.75,175.655l1.07.688,2.943-6.138-1.07-.695Z" transform="translate(-99.23 -130.605)" fill="#fff"></path>       <path id="Caminho_3474" data-name="Caminho 3474" d="M115.812,168.374c-1.56-1.213-1.669-1.458-1.288-2.834-.8,1.1-1.042,1.124-2.725.225,1.56,1.219,1.669,1.465,1.288,2.841C113.864,167.5,114.1,167.482,115.812,168.374Z" transform="translate(-97.971 -129.339)" fill="#fff"></path>       <path id="Caminho_3475" data-name="Caminho 3475" d="M124.063,169.851c-.961-.749-1.029-.9-.8-1.751-.5.681-.64.681-1.7.143.961.749,1.029.9.79,1.751C122.858,169.313,123.007,169.3,124.063,169.851Z" transform="translate(-101.085 -130.155)" fill="#fff"></path>       <path id="Caminho_3476" data-name="Caminho 3476" d="M123.968,174.327c-.681-.538-.736-.64-.565-1.247-.354.484-.463.49-1.213.1.681.538.729.647.565,1.253C123.11,173.938,123.212,173.932,123.968,174.327Z" transform="translate(-101.283 -131.743)" fill="#fff"></path>       <path id="Caminho_3477" data-name="Caminho 3477" d="M147.46,212l.661.47,2.943-6.145-.661-.47Z" transform="translate(-109.338 -142.192)" fill="#fff"></path>       <path id="Caminho_3478" data-name="Caminho 3478" d="M141.3,174.59l-5.429-3.44,2.487,5.368.62-1.9Z" transform="translate(-105.644 -131.128)" fill="#fff"></path>       <path id="Caminho_3479" data-name="Caminho 3479" d="M135.634,174.225c-1.989,0-4.047-1.179-4.585-2.623s.647-2.6,2.65-2.6,4.047,1.179,4.585,2.616S137.63,174.225,135.634,174.225ZM133.8,169.3c-1.819,0-2.909,1.035-2.439,2.3s2.337,2.3,4.156,2.3,2.916-1.029,2.439-2.3S135.62,169.3,133.8,169.3Z" transform="translate(-104.066 -130.442)" fill="#fff"></path>       <path id="Caminho_3480" data-name="Caminho 3480" d="M133.723,175.064a1.424,1.424,0,0,1-1.219-.892.6.6,0,0,1,.559-.892,1.424,1.424,0,0,1,1.219.892.6.6,0,0,1-.559.892Zm-.545-1.465a.381.381,0,0,0-.361.572.913.913,0,0,0,.79.579c.313,0,.477-.259.361-.579A.926.926,0,0,0,133.178,173.6Z" transform="translate(-104.546 -131.806)" fill="#fff"></path>       <path id="Caminho_3481" data-name="Caminho 3481" d="M134.358,176.4l-.218-.3a.858.858,0,0,0,.634-.681,1.24,1.24,0,0,0-.232-.763l.259-.109a1.649,1.649,0,0,1,.307,1.008A1.049,1.049,0,0,1,134.358,176.4Z" transform="translate(-105.092 -132.211)" fill="#fff"></path>       <path id="Caminho_3482" data-name="Caminho 3482" d="M127.308,188.979l-3.794-2.759-.8,1.281,3.794,2.759Z" transform="translate(-101.449 -135.931)" fill="#fff"></path>       <path id="Caminho_3483" data-name="Caminho 3483" d="M120.368,193.324l.62.45,1.362-2.207a.456.456,0,0,1-.123-.525c.1-.17.381-.17.613,0a.511.511,0,0,1,.232.613.388.388,0,0,1-.5.075l-1.362,2.207.579.422,3.406-.961.211-2.044-3.74-2.725-1.669.933Z" transform="translate(-100.585 -136.7)" fill="#fff"></path>       <line id="Linha_182" data-name="Linha 182" x2="21.888" transform="translate(16.2 47.952)" fill="none" stroke="#263238" stroke-linecap="round" stroke-linejoin="round" stroke-width="1"></line>       <path id="Caminho_3484" data-name="Caminho 3484" d="M142.844,186.22l-.8,1.281,3.794,2.759.8-1.281Z" transform="translate(-107.611 -135.931)" fill="#fff"></path>       <path id="Caminho_3485" data-name="Caminho 3485" d="M139.28,189.56l.4,3.754.62.45,1.362-2.207a.456.456,0,0,1-.123-.525c.1-.17.382-.17.613,0a.511.511,0,0,1,.232.613.388.388,0,0,1-.5.075l-1.362,2.207.579.422,3.406-.961.211-2.044-3.74-2.725Z" transform="translate(-106.731 -136.696)" fill="#fff"></path>       <path id="Caminho_3486" data-name="Caminho 3486" d="M136.838,189.941c.041-.266.075-.552.1-.872a2.275,2.275,0,0,0-.538-1.71,3.461,3.461,0,0,0-1.662-1.029c-.1,0-.184,0-.17.123a.279.279,0,0,0,.2.218,3.024,3.024,0,0,1,1.362.838,1.894,1.894,0,0,1,.429,1.41,6.181,6.181,0,0,1-.1.858c-.184,1.362-.293,2.18,1.969,3.536a.218.218,0,0,0,.123.041.123.123,0,0,0,.116-.068.238.238,0,0,0-.129-.252C136.586,191.855,136.661,191.3,136.838,189.941Z" transform="translate(-105.229 -135.966)" fill="#fff"></path>       <path id="Caminho_3487" data-name="Caminho 3487" d="M123.68,204.987l.136.354a14.072,14.072,0,0,0,.681,1.6l.634-.157a10.523,10.523,0,0,1-.47-1.09h2.725l2.262,6.077h-1.015l.266.681h2.725l-.266-.681h-1.008l-2.275-6.1h2.636l.47,1.281h.715l-.606-1.635-.136-.354Z" transform="translate(-101.758 -141.905)" fill="#fff"></path>       <path id="Caminho_3488" data-name="Caminho 3488" d="M140.832,228.4c.586,1.567-.681,2.834-2.861,2.834s-4.387-1.267-4.966-2.834.681-2.827,2.861-2.827S140.253,226.837,140.832,228.4Z" transform="translate(-104.685 -148.475)" fill="#fff" opacity="0.44"></path>       <path id="Caminho_3489" data-name="Caminho 3489" d="M140.832,228.4c.586,1.567-.681,2.834-2.861,2.834s-4.387-1.267-4.966-2.834.681-2.827,2.861-2.827S140.253,226.837,140.832,228.4Z" transform="translate(-104.685 -148.475)" fill="none" stroke="#fff" stroke-miterlimit="10" stroke-width="1"></path>       <path id="Caminho_3490" data-name="Caminho 3490" d="M156.39,227.564l2.568-4.666a.477.477,0,0,1,.681-.1h0a.77.77,0,0,1,.47.77l-1.362,5.157Z" transform="translate(-112.185 -147.56)" fill="#fff"></path>       <path id="Caminho_3491" data-name="Caminho 3491" d="M155.5,230.413c1.008-.136,2.984.729,3.038,2.044a.811.811,0,0,1-.456.681,5.784,5.784,0,0,1-2.875.491.8.8,0,0,0,.279-.858,10.709,10.709,0,0,0-.47-1.1c-.184-.525-.089-1.226.484-1.267" transform="translate(-111.721 -150.014)" fill="#fff"></path>       <path id="Caminho_3492" data-name="Caminho 3492" d="M147.123,244.854a3.631,3.631,0,0,0-.926-1.274l-.777,1.233a4.087,4.087,0,0,1,1.07,1.444,11.044,11.044,0,0,0,.777,1.424l.756-1.213a10.711,10.711,0,0,1-.9-1.615Z" transform="translate(-108.688 -154.216)" fill="#fff"></path>       <path id="Caminho_3493" data-name="Caminho 3493" d="M145.81,246.944a3.767,3.767,0,0,0-.933-1.274l-.777,1.24a4.149,4.149,0,0,1,1.076,1.444,10.82,10.82,0,0,0,.77,1.424l.763-1.213a9.741,9.741,0,0,1-.9-1.621Z" transform="translate(-108.267 -154.882)" fill="#fff"></path>       <path id="Caminho_3494" data-name="Caminho 3494" d="M147.806,244.4a10.82,10.82,0,0,0,.77,1.424l1.117-1.785-2.5-1.826-.463.736A4.258,4.258,0,0,1,147.806,244.4Z" transform="translate(-109.106 -153.779)" fill="#fff"></path>       <path id="Caminho_3495" data-name="Caminho 3495" d="M144.538,249.044a3.631,3.631,0,0,0-.926-1.274l-.681,1.035.116,2.35a.307.307,0,0,0,.361.266l1.989-.783A10.546,10.546,0,0,1,144.538,249.044Zm-.879,1.608L143.6,249.4l1.138.831Z" transform="translate(-107.894 -155.552)" fill="#fff"></path>       <path id="Caminho_3496" data-name="Caminho 3496" d="M159.3,245.489l-.852,1.362,4.4,3.209.852-1.362.266.2,2.044-3.209-4.939-3.6-2.01,3.209Zm3.256,3.794-3.331-2.432.606-.974,3.338,2.432Z" transform="translate(-112.841 -153.741)" fill="#fff"></path>       <path id="Caminho_3497" data-name="Caminho 3497" d="M98.261,129.27l.163.429-.613.749,1.172.749.157.436L97.3,130.449Z" transform="translate(-93.349 -117.778)" fill="#fff"></path>       <path id="Caminho_3498" data-name="Caminho 3498" d="M96,129.27l.163.429-.613.749,1.172.749.163.436-1.846-1.185Z" transform="translate(-92.628 -117.778)" fill="#fff"></path>       <path id="Caminho_3499" data-name="Caminho 3499" d="M217.865,185.182h-52.6L149.19,140.33h52.6Z" transform="translate(-109.89 -121.303)" fill="#263238"></path>       <path id="Caminho_3500" data-name="Caminho 3500" d="M215.879,183.884H168.99L154.67,143.93h46.889Z" transform="translate(-111.637 -122.451)" fill="#7300cc"></path>       <path id="Caminho_3501" data-name="Caminho 3501" d="M213.662,163.4l-7.752-5.709-6.124,15.9-15.88-4.483-8.216,19.163h46.889Z" transform="translate(-118.337 -126.837)" fill="#fff"></path>       <path id="Caminho_3502" data-name="Caminho 3502" d="M178.68,153.914a8.649,8.649,0,0,0-7.494-5.5c-3.059,0-4.619,2.466-3.529,5.5a8.649,8.649,0,0,0,7.494,5.5C178.21,159.419,179.777,156.987,178.68,153.914Z" transform="translate(-115.666 -123.879)" fill="#fff"></path>       <path id="Caminho_3503" data-name="Caminho 3503" d="M225.865,173.852h-52.6L157.19,129h52.6Z" transform="translate(-112.44 -117.692)" fill="#263238"></path>       <path id="Caminho_3504" data-name="Caminho 3504" d="M223.879,172.551H176.99L162.67,132.59h46.889Z" transform="translate(-114.187 -118.836)" fill="#7300cc"></path>       <path id="Caminho_3505" data-name="Caminho 3505" d="M221.662,152.069l-7.752-5.709-6.124,15.9-15.88-4.483-8.216,19.163h46.889Z" transform="translate(-120.887 -123.225)" fill="#fff"></path>       <path id="Caminho_3506" data-name="Caminho 3506" d="M186.68,142.584a8.649,8.649,0,0,0-7.494-5.5c-3.059,0-4.619,2.466-3.529,5.5a8.649,8.649,0,0,0,7.494,5.5C186.21,148.089,187.777,145.623,186.68,142.584Z" transform="translate(-118.216 -120.267)" fill="#fff"></path>       <path id="Caminho_3507" data-name="Caminho 3507" d="M253.352,118.657l1.26,3.066h-.361a5.855,5.855,0,0,0-.715-1.158,3.345,3.345,0,0,0-1.1-.824,3.406,3.406,0,0,0-1.4-.266h-1.846l3.658,9.994a3.788,3.788,0,0,0,.811,1.506,1.983,1.983,0,0,0,1.274.409h.456l.129.354h-5.545l-.129-.354h.463c.552,0,.879-.17.988-.5a2.957,2.957,0,0,0-.3-1.41l-3.658-9.994H245.77a3.9,3.9,0,0,0-1.253.136,1.056,1.056,0,0,0-.6.681,2.446,2.446,0,0,0,.089,1.4h-.368l-.967-3.066Z" transform="translate(-139.688 -114.386)"></path>       <line id="Linha_183" data-name="Linha 183" x2="3.999" transform="translate(121.627 10.436)" fill="none" stroke="#263238" stroke-miterlimit="10" stroke-width="0.5"></line>       <path id="Caminho_3508" data-name="Caminho 3508" d="M262.807,133.736H242.67l-7.459-20.4h20.137Z" transform="translate(-137.31 -112.7)" fill="none" stroke="#263238" stroke-miterlimit="10" stroke-width="0.5"></path>       <path id="Caminho_3509" data-name="Caminho 3509" d="M240.984,128.116h-1.512l-.552-1.506h1.512Z" transform="translate(-138.493 -116.93)" fill="#fff" stroke="#263238" stroke-miterlimit="10" stroke-width="0.5"></path>       <path id="Caminho_3510" data-name="Caminho 3510" d="M270.584,128.116h-1.512l-.552-1.506h1.512Z" transform="translate(-147.928 -116.93)" fill="#fff" stroke="#263238" stroke-miterlimit="10" stroke-width="0.5"></path>       <path id="Caminho_3511" data-name="Caminho 3511" d="M235.787,113.906h-1.506l-.552-1.506h1.506Z" transform="translate(-136.838 -112.4)" fill="#fff" stroke="#263238" stroke-miterlimit="10" stroke-width="0.5"></path>       <path id="Caminho_3512" data-name="Caminho 3512" d="M265.387,113.906h-1.506l-.552-1.506h1.506Z" transform="translate(-146.274 -112.4)" fill="#fff" stroke="#263238" stroke-miterlimit="10" stroke-width="0.5"></path>       <path id="Caminho_3513" data-name="Caminho 3513" d="M250.6,113.906h-1.506l-.552-1.506h1.506Z" transform="translate(-141.559 -112.4)" fill="#fff" stroke="#263238" stroke-miterlimit="10" stroke-width="0.5"></path>       <path id="Caminho_3514" data-name="Caminho 3514" d="M246.614,143.506H245.1L244.55,142h1.512Z" transform="translate(-140.287 -121.836)" fill="#fff" stroke="#263238" stroke-miterlimit="10" stroke-width="0.5"></path>       <path id="Caminho_3515" data-name="Caminho 3515" d="M276.214,143.506H274.7L274.15,142h1.512Z" transform="translate(-149.723 -121.836)" fill="#fff" stroke="#263238" stroke-miterlimit="10" stroke-width="0.5"></path>       <line id="Linha_184" data-name="Linha 184" x2="1.465" y2="4.006" transform="translate(115.544 21.398)" fill="none" stroke="#263238" stroke-miterlimit="10" stroke-width="0.5"></line>       <path id="Caminho_3516" data-name="Caminho 3516" d="M261.424,143.506h-1.512L259.36,142h1.512Z" transform="translate(-145.008 -121.836)" fill="#fff" stroke="#263238" stroke-miterlimit="10" stroke-width="0.5"></path>       <path id="Caminho_3517" data-name="Caminho 3517" d="M263.834,150.092h-1.512l-.552-1.512h1.512Z" transform="translate(-145.777 -123.933)" fill="#263238"></path>       <line id="Linha_185" data-name="Linha 185" x2="16.915" transform="translate(104.154 17.215)" fill="none" stroke="#263238" stroke-miterlimit="10" stroke-width="0.5"></line>       <path id="Caminho_3518" data-name="Caminho 3518" d="M276.306,127.347a1.26,1.26,0,0,0-1.083-.8.538.538,0,0,0-.5.8,1.253,1.253,0,0,0,1.083.79.531.531,0,0,0,.5-.79Z" transform="translate(-149.883 -116.91)" fill="#263238"></path>     </g>     <g id="freepik--Table--inject-40" transform="translate(114.119 213.885)">       <path id="Caminho_3519" data-name="Caminho 3519" d="M140.03,285.636l18.25,15.641L140.888,386.37h1.179l19.347-83.533L179.14,317.7l-25.028,68.566,1.567-.259,26.33-66.74,73.26,66.74h44.58l-52.142-102.2Z" transform="translate(-137.325 -282.597)" opacity="0.2"></path>       <path id="Caminho_3520" data-name="Caminho 3520" d="M141.643,386.542h-1.179L138.7,284.35h4.707Z" transform="translate(-136.902 -282.77)" fill="#263238" stroke="#263238" stroke-linecap="round" stroke-linejoin="round" stroke-width="1"></path>       <path id="Caminho_3521" data-name="Caminho 3521" d="M290.5,386.542h-1.179L287.56,284.35h4.707Z" transform="translate(-184.353 -282.77)" fill="#263238" stroke="#263238" stroke-linecap="round" stroke-linejoin="round" stroke-width="1"></path>       <rect id="Retângulo_298" data-name="Retângulo 298" width="113.33" height="2.65" fill="#fff" stroke="#263238" stroke-linecap="round" stroke-linejoin="round" stroke-width="1"></rect>     </g>     <g id="freepik--paper-bin--inject-40" transform="translate(73.518 261.197)">       <path id="Caminho_3522" data-name="Caminho 3522" d="M97.544,361.159,95.5,365.5s2.521,2.725,3.665,2.725,1.6-1.144,2.977-1.608,3.658-4.8,3.658-4.8-1.362-2.289-2.725-2.521-3.406-.913-4.578-1.144S97.544,361.159,97.544,361.159Z" transform="translate(-82.529 -353.604)" fill="#fff" stroke="#263238" stroke-linecap="round" stroke-linejoin="round" stroke-width="1"></path>       <path id="Caminho_3523" data-name="Caminho 3523" d="M98.5,362.248l1.362,2.289v2.044s1.362.681,1.833,0,2.521-2.977,2.521-2.977l-.92-2.044" transform="translate(-83.486 -354.693)" fill="none" stroke="#263238" stroke-linecap="round" stroke-linejoin="round" stroke-width="1"></path>       <line id="Linha_186" data-name="Linha 186" x1="2.514" y1="0.456" transform="translate(13.87 11.445)" fill="none" stroke="#263238" stroke-linecap="round" stroke-linejoin="round" stroke-width="1"></line>       <path id="Caminho_3524" data-name="Caminho 3524" d="M154.186,422.3l-4.626,1.362s-.4,3.706.354,4.564,1.921.45,3.168,1.179,6.029-.429,6.029-.429.817-2.541.082-3.72-1.58-3.188-2.166-4.2S154.186,422.3,154.186,422.3Z" transform="translate(-99.728 -373.576)" fill="#fff" stroke="#263238" stroke-linecap="round" stroke-linejoin="round" stroke-width="1"></path>       <path id="Caminho_3525" data-name="Caminho 3525" d="M155.3,423l-.811,2.548-1.546,1.362s.388,1.485,1.206,1.362,3.9-.075,3.9-.075l.94-2.044" transform="translate(-100.839 -374.278)" fill="none" stroke="#263238" stroke-linecap="round" stroke-linejoin="round" stroke-width="1"></path>       <line id="Linha_187" data-name="Linha 187" x1="1.322" y1="2.194" transform="translate(50.779 50.445)" fill="none" stroke="#263238" stroke-linecap="round" stroke-linejoin="round" stroke-width="1"></line>       <path id="Caminho_3526" data-name="Caminho 3526" d="M86.2,361.22s-3.89,2.521-3.2,3.9a6.739,6.739,0,0,0,1.833,2.725c.688.436,2.725,1.144,3.406.681a5.253,5.253,0,0,0,2.514-3.406c.225-1.805.92-2.044.232-2.977S86.2,361.22,86.2,361.22Z" transform="translate(-78.519 -354.585)" fill="#fff" stroke="#263238" stroke-linecap="round" stroke-linejoin="round" stroke-width="1"></path>       <path id="Caminho_3527" data-name="Caminho 3527" d="M83,365.871l2.725,1.833,2.289-.232.913-2.521a1.362,1.362,0,0,0-1.362-1.362,3.031,3.031,0,0,0-2.044.681l.463,1.362" transform="translate(-78.545 -355.339)" fill="none" stroke="#263238" stroke-linecap="round" stroke-linejoin="round" stroke-width="1"></path>       <path id="Caminho_3528" data-name="Caminho 3528" d="M111.2,356.52s-3.406,3.2-2.977,5.491,4.809,4.121,4.809,4.121l5.266-2.97-1.608-4.087-3.406-1.833Z" transform="translate(-86.573 -353.087)" fill="#fff" stroke="#263238" stroke-linecap="round" stroke-linejoin="round" stroke-width="1"></path>       <path id="Caminho_3529" data-name="Caminho 3529" d="M108.24,362.868l3.665,1.376,4.121-1.376-1.608-3.658" transform="translate(-86.59 -353.944)" fill="none" stroke="#263238" stroke-linecap="round" stroke-linejoin="round" stroke-width="1"></path>       <path id="Caminho_3530" data-name="Caminho 3530" d="M112.5,356.52l-.232,4.81,2.752.913" transform="translate(-87.875 -353.087)" fill="none" stroke="#263238" stroke-linecap="round" stroke-linejoin="round" stroke-width="1"></path>       <path id="Caminho_3531" data-name="Caminho 3531" d="M126.319,419.69s-3.406,3.209-2.977,5.5,4.81,4.121,4.81,4.121l5.266-2.977-1.6-4.121-3.44-1.833Z" transform="translate(-91.393 -373.223)" fill="#fff" stroke="#263238" stroke-linecap="round" stroke-linejoin="round" stroke-width="1"></path>       <path id="Caminho_3532" data-name="Caminho 3532" d="M123.36,426.045l3.665,1.369,4.121-1.369-1.6-3.665" transform="translate(-91.41 -374.081)" fill="none" stroke="#263238" stroke-linecap="round" stroke-linejoin="round" stroke-width="1"></path>       <path id="Caminho_3533" data-name="Caminho 3533" d="M127.622,419.69l-.232,4.81,2.752.92" transform="translate(-92.695 -373.223)" fill="none" stroke="#263238" stroke-linecap="round" stroke-linejoin="round" stroke-width="1"></path>       <path id="Caminho_3534" data-name="Caminho 3534" d="M92.719,351.48s-3.406,3.2-2.977,5.491,4.81,4.087,4.81,4.087l5.259-2.977-1.6-4.087L94.8,352.161Z" transform="translate(-80.682 -351.48)" fill="#fff" stroke="#263238" stroke-linecap="round" stroke-linejoin="round" stroke-width="1"></path>       <path id="Caminho_3535" data-name="Caminho 3535" d="M89.76,357.828l3.665,1.376,4.115-1.376-1.6-3.658" transform="translate(-80.7 -352.337)" fill="none" stroke="#263238" stroke-linecap="round" stroke-linejoin="round" stroke-width="1"></path>       <path id="Caminho_3536" data-name="Caminho 3536" d="M94.022,351.48l-.232,4.809,2.745.913" transform="translate(-81.984 -351.48)" fill="none" stroke="#263238" stroke-linecap="round" stroke-linejoin="round" stroke-width="1"></path>       <path id="Caminho_3537" data-name="Caminho 3537" d="M107.7,413.286H80.534L76.46,368.25h35.315Z" transform="translate(-76.46 -356.826)" fill="#263238" stroke="#263238" stroke-linecap="round" stroke-linejoin="round" stroke-width="1"></path>       <path id="Caminho_3538" data-name="Caminho 3538" d="M94.27,423.39s-3.9,2.521-3.209,3.89A6.79,6.79,0,0,0,92.894,430c.688.436,2.725,1.144,3.406.681a5.281,5.281,0,0,0,2.521-3.406c.232-1.805.913-2.044.225-2.977S94.27,423.39,94.27,423.39Z" transform="translate(-81.089 -374.403)" fill="#fff" stroke="#263238" stroke-linecap="round" stroke-linejoin="round" stroke-width="1"></path>       <path id="Caminho_3539" data-name="Caminho 3539" d="M91.1,428.034l2.725,1.833,2.289-.225.913-2.521a1.362,1.362,0,0,0-1.362-1.362,3,3,0,0,0-2.044.681l.456,1.362" transform="translate(-81.127 -375.157)" fill="none" stroke="#263238" stroke-linecap="round" stroke-linejoin="round" stroke-width="1"></path>     </g>     <g id="freepik--Character--inject-40" transform="translate(129.604 119.128)">       <path id="Caminho_3540" data-name="Caminho 3540" d="M200.121,235.716a1.526,1.526,0,1,1-1.506-1.288,1.41,1.41,0,0,1,1.506,1.288Z" transform="translate(-170.998 -172.098)" fill="gray" stroke="#263238" stroke-linecap="round" stroke-linejoin="round" stroke-width="1"></path>       <path id="Caminho_3541" data-name="Caminho 3541" d="M202.251,241.476a1.526,1.526,0,1,1-1.506-1.288A1.41,1.41,0,0,1,202.251,241.476Z" transform="translate(-171.677 -173.934)" fill="gray" stroke="#263238" stroke-linecap="round" stroke-linejoin="round" stroke-width="1"></path>       <path id="Caminho_3542" data-name="Caminho 3542" d="M204.371,247.236a1.526,1.526,0,1,1-1.506-1.288A1.41,1.41,0,0,1,204.371,247.236Z" transform="translate(-172.353 -175.77)" fill="gray" stroke="#263238" stroke-linecap="round" stroke-linejoin="round" stroke-width="1"></path>       <path id="Caminho_3543" data-name="Caminho 3543" d="M206.5,253a1.526,1.526,0,1,1-1.512-1.288A1.417,1.417,0,0,1,206.5,253Z" transform="translate(-173.032 -177.606)" fill="gray" stroke="#263238" stroke-linecap="round" stroke-linejoin="round" stroke-width="1"></path>       <path id="Caminho_3544" data-name="Caminho 3544" d="M172.407,273.656H162.093L160.54,256.55h13.42Z" transform="translate(-159.348 -179.15)" fill="#263238" stroke="#263238" stroke-linecap="round" stroke-linejoin="round" stroke-width="1"></path>       <path id="Caminho_3545" data-name="Caminho 3545" d="M173.943,264.81l-11.853,6.036.5,5.443h5.518l5.354-6.152Z" transform="translate(-159.842 -181.784)" fill="#7300cc" stroke="#263238" stroke-linecap="round" stroke-linejoin="round" stroke-width="1"></path>       <rect id="Retângulo_299" data-name="Retângulo 299" width="15.805" height="3.72" transform="translate(0 75.356)" fill="#7300cc" stroke="#263238" stroke-linecap="round" stroke-linejoin="round" stroke-width="1"></rect>       <path id="Caminho_3546" data-name="Caminho 3546" d="M212.931,279.8H194.368a2.357,2.357,0,1,1,0-4.707h18.564a2.357,2.357,0,1,1,0,4.707Z" transform="translate(-169.339 -185.059)" fill="#263238" stroke="#263238" stroke-linecap="round" stroke-linejoin="round" stroke-width="1"></path>       <path id="Caminho_3547" data-name="Caminho 3547" d="M262.14,264.67H204.991l-13.631-37.1h57.149Z" transform="translate(-169.172 -169.913)" fill="#263238" stroke="#263238" stroke-linecap="round" stroke-linejoin="round" stroke-width="1"></path>       <path id="Caminho_3548" data-name="Caminho 3548" d="M261.659,261.547h-48.8L201.22,229.87h48.8Z" transform="translate(-172.315 -170.646)" fill="gray" stroke="#263238" stroke-linecap="round" stroke-linejoin="round" stroke-width="1"></path>       <path id="Caminho_3549" data-name="Caminho 3549" d="M272.5,298.83a38.721,38.721,0,0,1-4.482,5.45,71.019,71.019,0,0,0-13.345,16.254c-5.123,8.686-8.693,17.562-12.085,25.246s-9.537,21.868-12.61,26.187a81.52,81.52,0,0,1-5.15,6.628s-5.075.116-11.084-.416-8.495-1.615-8.57-.048,4.087,5.865,7.044,6.615,6.812,1.894,7.712,2.786,2.044,1.914,3.556,1.26,6.015-6.955,11.05-11.295,11.043-8.638,16.479-18.754,5.722-15.9,9.537-19.7,7.834-9.762,12.7-12.9,19.381-8.958,24.02-14.987,2.221-13.407-2.241-16.043S276,291.52,272.5,298.83Z" transform="translate(-173.574 -190.822)" fill="#263238" stroke="#263238" stroke-linecap="round" stroke-linejoin="round" stroke-width="1"></path>       <path id="Caminho_3550" data-name="Caminho 3550" d="M233.573,399.48a53.213,53.213,0,0,1-3.59,6.383c-3.106,4.312-5.15,6.628-5.15,6.628s-5.075.116-11.084-.416-8.495-1.614-8.57-.048,4.087,5.865,7.044,6.615,6.812,1.894,7.712,2.786,2.044,1.914,3.556,1.26,6.015-6.955,11.05-11.295c2.343-2.044,4.9-4.04,7.494-6.628A16.35,16.35,0,0,1,233.573,399.48Z" transform="translate(-173.577 -224.712)" fill="#fff" stroke="#263238" stroke-linecap="round" stroke-linejoin="round" stroke-width="1"></path>       <path id="Caminho_3551" data-name="Caminho 3551" d="M223.5,428.168a9.469,9.469,0,0,0,2.146-1.976c-4.087-.811-6.172-2.861-8.039-3.406a19.9,19.9,0,0,1-4.844-2.166l2.044-3-1.035-.089c-6.008-.531-8.495-1.615-8.57-.048s4.087,5.865,7.044,6.615,6.812,1.894,7.712,2.786S222.019,428.822,223.5,428.168Z" transform="translate(-173.584 -230.19)" fill="#7300cc" stroke="#263238" stroke-linecap="round" stroke-linejoin="round" stroke-width="1"></path>       <path id="Caminho_3552" data-name="Caminho 3552" d="M242.43,329.589a47.126,47.126,0,0,0,3.495,9.885c2.412,4.823,7.718,9.885,11.581,12.78s16.275,13.986,22.426,22.787c.77,1.1-2.173,4.823-5.79,8.079s-5.184,4.462-3.256,5.062,6.513.361,11.1-3.495,7.6-6.39,9.04-9.537c.722-1.567-3.256-3.5-5.668-5.545s-11.336-15.553-14.108-21.8-9.762-15.191-14.946-18.325" transform="translate(-185.452 -202.398)" fill="#263238" stroke="#263238" stroke-linecap="round" stroke-linejoin="round" stroke-width="1"></path>       <path id="Caminho_3553" data-name="Caminho 3553" d="M301.487,385.358c.722-1.567-3.256-3.5-5.668-5.545-2.044-1.724-8.658-11.547-12.364-18.352l-8.175,7.248c5.1,4.721,11.336,11.063,15.151,16.527.77,1.1-2.173,4.823-5.79,8.079s-5.184,4.462-3.256,5.062,6.513.361,11.1-3.495S300.043,388.491,301.487,385.358Z" transform="translate(-195.923 -212.592)" fill="#fff" stroke="#263238" stroke-linecap="round" stroke-linejoin="round" stroke-width="1"></path>       <path id="Caminho_3554" data-name="Caminho 3554" d="M301.459,391.84c-.647.967-1.492,2.282-2.466,3.924-2.289,3.856-8.556,8.8-9.4,7.957a8.306,8.306,0,0,1-1.267-1.907c-.409.4-.831.8-1.267,1.185-3.617,3.256-5.184,4.462-3.256,5.062s6.513.361,11.1-3.495,7.6-6.39,9.04-9.537C304.374,394.088,303.08,393,301.459,391.84Z" transform="translate(-198.375 -222.277)" fill="#7300cc" stroke="#263238" stroke-linecap="round" stroke-linejoin="round" stroke-width="1"></path>       <rect id="Retângulo_300" data-name="Retângulo 300" width="40.99" height="1.928" transform="translate(94.834 180.599)" fill="#fff" stroke="#263238" stroke-linecap="round" stroke-linejoin="round" stroke-width="1"></rect>       <path id="Caminho_3555" data-name="Caminho 3555" d="M300.138,332.12,293,400.693a.552.552,0,0,0,.552.606h0a.552.552,0,0,0,.545-.47l10.661-68.709Z" transform="translate(-201.57 -203.24)" fill="#fff" stroke="#263238" stroke-linecap="round" stroke-linejoin="round" stroke-width="1"></path>       <path id="Caminho_3556" data-name="Caminho 3556" d="M349.478,332.12l7.173,68.573a.545.545,0,0,1-.545.606h0a.545.545,0,0,1-.545-.47L344.9,332.12Z" transform="translate(-218.116 -203.24)" fill="#fff" stroke="#263238" stroke-linecap="round" stroke-linejoin="round" stroke-width="1"></path>       <path id="Caminho_3557" data-name="Caminho 3557" d="M330.358,332.12l.334,68.627a.559.559,0,0,1-.552.552h0a.545.545,0,0,1-.545-.525L325.76,332.12Z" transform="translate(-212.015 -203.24)" fill="#fff" stroke="#263238" stroke-linecap="round" stroke-linejoin="round" stroke-width="1"></path>       <rect id="Retângulo_301" data-name="Retângulo 301" width="44.73" height="11.09" rx="4.97" transform="translate(92.3 118.512)" fill="#7300cc"></rect>       <g id="Grupo_680" data-name="Grupo 680" transform="translate(92.3 118.512)" clip-path="url(#clip-path)">         <path id="Caminho_3558" data-name="Caminho 3558" d="M336,316.9H298.885l-1.1,2.316s34.252.6,34.252,2.575.593,4.557-6.131,4.557c-5.45,0-23.741.259-30.512.354a3.407,3.407,0,0,0,.981.838l1.989.45H336a3.406,3.406,0,0,0,3.406-3.406v-4.319A3.406,3.406,0,0,0,336,316.9Z" transform="translate(-294.634 -316.9)" opacity="0.2"></path>       </g>       <rect id="Retângulo_303" data-name="Retângulo 303" width="44.73" height="11.09" rx="4.97" transform="translate(92.3 118.512)" fill="none" stroke="#263238" stroke-linecap="round" stroke-linejoin="round" stroke-width="1"></rect>       <path id="Caminho_3559" data-name="Caminho 3559" d="M243.428,320.658c-.845-2.773-4.339-8.318,12.419-19.892,8.856-6.131,28.094-10.852,28.094-10.852l1.805-2.044s5.184,5.45,15.314,5.068,16.4-4.823,17.6-4.462,1.322,3.495.845,9.4-1.09,8.924-5.79,10.368-15.069,1.928-22.542,1.812a107.558,107.558,0,0,1-11.1-.606s-16.029,10.13-26.037,10.852" transform="translate(-185.489 -189.134)" fill="#263238" stroke="#263238" stroke-linecap="round" stroke-linejoin="round" stroke-width="1"></path>       <path id="Caminho_3560" data-name="Caminho 3560" d="M279.932,238.3c-.729.225-22.787,4.578-24.715,4.217s-6.989-4.7-8.8-4.585-5.45.729-5.784,1.689.845,4.224.845,4.224-1.206,1.805-.606,2.65,4.087-1.206,4.087-1.206,3.978,2.9,5.784,2.289,3.74-1.322,3.74-1.322,28.332,1.683,28.693,1.805,3.856.845,4.217-4.217S284.156,236.975,279.932,238.3Z" transform="translate(-184.86 -173.2)" fill="#fff" stroke="#263238" stroke-linecap="round" stroke-linejoin="round" stroke-width="1"></path>       <line id="Linha_188" data-name="Linha 188" y1="4.101" x2="4.939" transform="translate(56.617 66.547)" fill="none" stroke="#263238" stroke-linecap="round" stroke-linejoin="round" stroke-width="1"></line>       <path id="Caminho_3561" data-name="Caminho 3561" d="M244.55,240.088l2.65-8.318,1.09.238-1.328,6.029Z" transform="translate(-186.128 -171.251)" fill="#263238"></path>       <path id="Caminho_3562" data-name="Caminho 3562" d="M249.616,251.42s-29.293,8.073-33.993,7.494-6.131-2.657-7.235-2.657-4.087,1.451-5.45,1.328-2.888-.484-2.888.361a2.759,2.759,0,0,0,1.928,2.173c.722,0,3.617-.123,3.617-.123s-5.668,1.689-5.913,2.773a1.928,1.928,0,0,0,1.574,2.289,3.406,3.406,0,0,1,1.567.729,8.393,8.393,0,0,0,1.206,2.65c.722.845,2.888,1.206,5.3.722a32.942,32.942,0,0,0,7.6-3.256c.961-.606,30.26-3.256,32.433-3.733s4.823-.484,5.668-1.935S249.616,251.42,249.616,251.42Z" transform="translate(-171.812 -177.515)" fill="#fff"></path>       <g id="Grupo_681" data-name="Grupo 681" transform="translate(27.83 73.905)" clip-path="url(#clip-path-2)">         <path id="Caminho_3563" data-name="Caminho 3563" d="M214.264,267.471c-5.034,0-3.917-5.034-5.593-4.19-1.465.729-7.18,1.458-8.8,3.3a2.044,2.044,0,0,0,1.478,1.2,3.406,3.406,0,0,1,1.567.729,8.393,8.393,0,0,0,1.206,2.65c.722.845,2.888,1.206,5.3.722a32.941,32.941,0,0,0,7.6-3.256c.961-.606,30.26-3.256,32.433-3.733,1.751-.4,3.822-.47,4.993-1.247l.681-.681-3.113-3.038S219.319,267.471,214.264,267.471Z" transform="translate(-199.715 -254.133)" fill="#7300cc"></path>         <path id="Caminho_3564" data-name="Caminho 3564" d="M214.264,267.471c-5.034,0-3.917-5.034-5.593-4.19-1.465.729-7.18,1.458-8.8,3.3a2.044,2.044,0,0,0,1.478,1.2,3.406,3.406,0,0,1,1.567.729,8.393,8.393,0,0,0,1.206,2.65c.722.845,2.888,1.206,5.3.722a32.941,32.941,0,0,0,7.6-3.256c.961-.606,30.26-3.256,32.433-3.733,1.751-.4,3.822-.47,4.993-1.247l.681-.681-3.113-3.038S219.319,267.471,214.264,267.471Z" transform="translate(-199.715 -254.133)" fill="#fff" opacity="0.5"></path>       </g>       <path id="Caminho_3566" data-name="Caminho 3566" d="M249.616,251.42s-29.293,8.073-33.993,7.494-6.131-2.657-7.235-2.657-4.087,1.451-5.45,1.328-2.888-.484-2.888.361a2.759,2.759,0,0,0,1.928,2.173c.722,0,3.617-.123,3.617-.123s-5.668,1.689-5.913,2.773a1.928,1.928,0,0,0,1.574,2.289,3.406,3.406,0,0,1,1.567.729,8.393,8.393,0,0,0,1.206,2.65c.722.845,2.888,1.206,5.3.722a32.942,32.942,0,0,0,7.6-3.256c.961-.606,30.26-3.256,32.433-3.733s4.823-.484,5.668-1.935S249.616,251.42,249.616,251.42Z" transform="translate(-171.812 -177.515)" fill="none" stroke="#263238" stroke-linecap="round" stroke-linejoin="round" stroke-width="1"></path>       <path id="Caminho_3567" data-name="Caminho 3567" d="M304.78,206.1a63.124,63.124,0,0,1-6.022,12.051c-3.372,4.823-4.823,9.891-2.657,15.314a11.1,11.1,0,0,0,6.874,6.656s-1.689,15.914-1.206,20.137,6.989,9.163,16.758,9.537,18.2-3.134,18.2-6.513-6.867-21.336-6.867-25.076.6-15.43-2.657-25.887S312.5,198.385,304.78,206.1Z" transform="translate(-202.234 -161.737)" fill="#7300cc"></path>       <g id="Grupo_682" data-name="Grupo 682" transform="translate(92.843 40.185)" clip-path="url(#clip-path-3)">         <path id="Caminho_3568" data-name="Caminho 3568" d="M327.207,212.34c-1.751-5.647-5.886-9.231-10.532-10.13-2.241.5-8.366,1.928-9.891,2.289a15.752,15.752,0,0,0-2,1.7,63.126,63.126,0,0,1-6.022,12.051,17.813,17.813,0,0,0-3.679,10.062c8.9,2.105,22.481,5.532,21.118,5.913-1.955.559-10.341-3.917-7.827-1.117s15.941,15.668,12.024,14.538-12.582-10.348-10.341-5.872,8.386,11.744,6.431,11.744-12.3-10.348-8.672-4.2,20.13,15.941,14.817,17.337c-3.066.8-9.571.593-13.345,1.226a25.888,25.888,0,0,0,9.231,1.969c9.762.361,18.2-3.134,18.2-6.513S329.85,242,329.85,238.261,330.45,222.831,327.207,212.34Z" transform="translate(-295.078 -202.013)" opacity="0.2"></path>       </g>       <path id="Caminho_3570" data-name="Caminho 3570" d="M304.78,206.1a63.124,63.124,0,0,1-6.022,12.051c-3.372,4.823-4.823,9.891-2.657,15.314a11.1,11.1,0,0,0,6.874,6.656s-1.689,15.914-1.206,20.137,6.989,9.163,16.758,9.537,18.2-3.134,18.2-6.513-6.867-21.336-6.867-25.076.6-15.43-2.657-25.887S312.5,198.385,304.78,206.1Z" transform="translate(-202.234 -161.737)" fill="none" stroke="#263238" stroke-linecap="round" stroke-linejoin="round" stroke-width="1"></path>       <path id="Caminho_3571" data-name="Caminho 3571" d="M311.5,251s8.856,14.306,21.8,18.393" transform="translate(-207.469 -177.381)" fill="none" stroke="#263238" stroke-linecap="round" stroke-linejoin="round" stroke-width="1"></path>       <path id="Caminho_3572" data-name="Caminho 3572" d="M310,254.5s3.406,11.24,12.262,16.69" transform="translate(-206.991 -178.497)" fill="none" stroke="#263238" stroke-linecap="round" stroke-linejoin="round" stroke-width="1"></path>       <path id="Caminho_3573" data-name="Caminho 3573" d="M312.68,238.593s8-3.488,11.288-5.743" transform="translate(-207.845 -171.596)" fill="none" stroke="#263238" stroke-linecap="round" stroke-linejoin="round" stroke-width="1"></path>       <path id="Caminho_3574" data-name="Caminho 3574" d="M307.86,242.49s2.875.613,10.259,0" transform="translate(-206.309 -174.669)" fill="none" stroke="#263238" stroke-linecap="round" stroke-linejoin="round" stroke-width="1"></path>       <path id="Caminho_3575" data-name="Caminho 3575" d="M298.33,210.71a25.994,25.994,0,0,0-5.062,4.217c-2.773,2.9-16.159,23.162-16.159,23.162s3.978,8.325,5.184,8.563,22.188-17.712,24.116-19.892,3.134-6.131,2.534-7.841" transform="translate(-196.507 -164.538)" fill="#7300cc"></path>       <g id="Grupo_683" data-name="Grupo 683" transform="translate(80.603 46.172)" clip-path="url(#clip-path-4)">         <path id="Caminho_3576" data-name="Caminho 3576" d="M308.418,228.86c1.928-2.173,3.134-6.131,2.534-7.841l-4.769-3.679-1.526,1.574a12.108,12.108,0,0,1-5.593,9.5c-5.491,3.331-7.827,3.358-8.665,7.548s1.955,5.314-1.4,5.872-5.593.838-5.593,3.079a29.67,29.67,0,0,0,.252,3.318,1.506,1.506,0,0,0,.633.518C285.508,248.99,306.49,231.026,308.418,228.86Z" transform="translate(-279.118 -212.823)" opacity="0.2"></path>       </g>       <path id="Caminho_3578" data-name="Caminho 3578" d="M298.33,210.71a25.994,25.994,0,0,0-5.062,4.217c-2.773,2.9-16.159,23.162-16.159,23.162s3.978,8.325,5.184,8.563,22.188-17.712,24.116-19.892,3.134-6.131,2.534-7.841" transform="translate(-196.507 -164.538)" fill="none" stroke="#263238" stroke-linecap="round" stroke-linejoin="round" stroke-width="1"></path>       <path id="Caminho_3579" data-name="Caminho 3579" d="M270.332,250.585s3.74,8.924,4.578,9.891,5.307.361,6.751-.729a3.886,3.886,0,0,0,1.206-3.249s-5.545-9.769-6.131-10.218-.845.606-3.406,1.451S269.848,248.9,270.332,250.585Z" transform="translate(-194.307 -175.842)" fill="#fff" stroke="#263238" stroke-linecap="round" stroke-linejoin="round" stroke-width="1"></path>       <path id="Caminho_3580" data-name="Caminho 3580" d="M279.217,172.45s-.245,3.495.361,4.578,2.289,2.173,2.289,3.617-1.206,3.406-.845,4.462,2.3,1.206,2.3,1.206,3.611,4.462,4.7,6.029,1.567.961,3.256.484,5.3-3.617,7.351-6.029-1.362-9.769-5.784-14.708-11.1-4.823-12.542-3.406A4.789,4.789,0,0,0,279.217,172.45Z" transform="translate(-197.163 -150.871)" fill="#fff"></path>       <g id="Grupo_684" data-name="Grupo 684" transform="translate(82.005 16.963)" clip-path="url(#clip-path-5)">         <path id="Caminho_3581" data-name="Caminho 3581" d="M293.009,169.65c-.559,2.725-1.117,7.4.559,10.573,2.521,4.769,4.476,7.269,3.079,11.186-.252.681-.511,1.308-.763,1.853,1.8-.77,5.068-3.645,6.976-5.886,2.044-2.412-1.362-9.769-5.784-14.708A12.78,12.78,0,0,0,293.009,169.65Z" transform="translate(-283.402 -168.412)" fill="#7300cc"></path>         <path id="Caminho_3582" data-name="Caminho 3582" d="M293.009,169.65c-.559,2.725-1.117,7.4.559,10.573,2.521,4.769,4.476,7.269,3.079,11.186-.252.681-.511,1.308-.763,1.853,1.8-.77,5.068-3.645,6.976-5.886,2.044-2.412-1.362-9.769-5.784-14.708A12.78,12.78,0,0,0,293.009,169.65Z" transform="translate(-283.402 -168.412)" fill="#fff" opacity="0.5"></path>         <path id="Caminho_3583" data-name="Caminho 3583" d="M283.13,181.743s0-1.812,2.173-.606" transform="translate(-280.431 -171.942)" fill="none" stroke="#263238" stroke-linecap="round" stroke-linejoin="round" stroke-width="1"></path>         <path id="Caminho_3584" data-name="Caminho 3584" d="M285.4,184.68l.286,1.669s1.322.456,2.3-1.267" transform="translate(-281.155 -173.203)" fill="none" stroke="#263238" stroke-linecap="round" stroke-linejoin="round" stroke-width="1"></path>       </g>       <path id="Caminho_3586" data-name="Caminho 3586" d="M279.217,172.45s-.245,3.495.361,4.578,2.289,2.173,2.289,3.617-1.206,3.406-.845,4.462,2.3,1.206,2.3,1.206,3.611,4.462,4.7,6.029,1.567.961,3.256.484,5.3-3.617,7.351-6.029-1.362-9.769-5.784-14.708-11.1-4.823-12.542-3.406A4.789,4.789,0,0,0,279.217,172.45Z" transform="translate(-197.163 -150.871)" fill="none" stroke="#263238" stroke-linecap="round" stroke-linejoin="round" stroke-width="1"></path>       <path id="Caminho_3587" data-name="Caminho 3587" d="M273.648,159.206v.484l-.218,5.906,6.506.845,1.451-2.534v2.773a13.339,13.339,0,0,1,5.906.845c3.134,1.206,7.112,9.769,6.874,13.264s-3.256,4.217-2.9,9.537,8.434,10.593,14.565,7.221,7.119-7.718,9.646-6.874,6.39,6.029,8.8-1.328,1.328-12.051-4.339-18.08-10.123-5.545-10.852-10.368-2.289-11.336-7.494-14.987-12.657-3.856-19.075-1.083S273.648,156.072,273.648,159.206Z" transform="translate(-195.333 -142.933)" fill="#263238"></path>       <g id="Grupo_685" data-name="Grupo 685" transform="translate(78.097)" clip-path="url(#clip-path-6)">         <path id="Caminho_3588" data-name="Caminho 3588" d="M276.995,166.086a.442.442,0,0,1-.129,0c-.681-.157-.79-1.362-.858-4.292,0-.763-.034-1.546-.082-2.173v-.157A32.038,32.038,0,0,0,273.2,165.6l-.64-.232c2.466-6.867,3.27-6.765,3.529-6.724.47.061.518.681.538.913.048.64.068,1.437.082,2.2a13.34,13.34,0,0,0,.327,3.617,3.59,3.59,0,0,0,.763-1.179c.681-1.417,1.362-2.044,1.989-2.044.8,0,1.226,1.1,1.526,1.887a5.1,5.1,0,0,0,.252.565c.3.082,1.362-1,1.928-1.587l.5-.5a1.253,1.253,0,0,1,.967-.49c.382.061.565.416.763.783a3.107,3.107,0,0,0,.77,1.042c.218.17.327.143.375.136.49-.123,1.083-1.444,1.771-2.97.157-.361.327-.736.511-1.131s.531-1.056,1.035-1.008c.634.048.926,1.042,1.362,2.548a11.329,11.329,0,0,0,1.362,3.406c.157.191.368.409.565.388.531-.089,1.117-1.662,1.471-2.6a8.854,8.854,0,0,1,.586-1.362.64.64,0,0,1,.579-.368c.5,0,.852.681,1.322,1.608.354.681.838,1.642,1.24,1.8a.151.151,0,0,0,.129,0c.266-.136.49-1.015.681-1.717a7.924,7.924,0,0,1,.831-2.255,1.363,1.363,0,0,1,.926-.634c.892-.143,1.887.627,2.548,1.144-.034-.347-.109-.824-.17-1.24-.341-2.269-.436-3.365.129-3.679.266-.143.579-.061.933.252a24.073,24.073,0,0,1,1.744,1.833c1.247,1.4,3.14,3.515,3.9,3.311.211-.055.327-.381.382-.64l.681.136c-.143.681-.436,1.049-.872,1.165-1.1.286-2.589-1.274-4.592-3.515a22.894,22.894,0,0,0-1.73-1.819.834.834,0,0,0-.163-.123,11.88,11.88,0,0,0,.225,2.936c.245,1.6.293,2.044,0,2.228a.416.416,0,0,1-.456,0c-.116-.082-.266-.191-.429-.327-.538-.416-1.437-1.1-2.044-1.015a.681.681,0,0,0-.47.334,7.493,7.493,0,0,0-.736,2.044c-.266,1.008-.491,1.88-1.029,2.153a.8.8,0,0,1-.681,0c-.64-.252-1.124-1.206-1.594-2.119a6.871,6.871,0,0,0-.681-1.206h0a8.481,8.481,0,0,0-.531,1.274c-.5,1.362-1.076,2.888-2.01,3.031a1.288,1.288,0,0,1-1.2-.64,11.581,11.581,0,0,1-1.478-3.617,6.989,6.989,0,0,0-.777-2.044,3.5,3.5,0,0,0-.347.613c-.184.388-.354.77-.511,1.124-.852,1.9-1.417,3.154-2.234,3.352a1.1,1.1,0,0,1-.961-.266,3.7,3.7,0,0,1-.94-1.253,1.807,1.807,0,0,0-.273-.429s-.109,0-.375.293l-.491.5c-1.131,1.158-1.853,1.853-2.473,1.805a.681.681,0,0,1-.511-.313,3.919,3.919,0,0,1-.32-.681c-.191-.5-.559-1.437-.926-1.451-.109,0-.565.1-1.362,1.662C277.833,165.609,277.417,166.086,276.995,166.086Z" transform="translate(-273.153 -147.047)" fill="#575757"></path>         <path id="Caminho_3589" data-name="Caminho 3589" d="M299,202.877s1.689-6.288,3.406-4.292,2.909,2.609,3.065.92,0-4.142,1.689-1.839,5.825,4.6,6.131,1.07.77-8.284,2.766-5.825,3.679,4.292,3.835,2.909,1.533-2.452,2.146-.92,1.076,3.072,1.533-.456-1.689-7.364.613-6.444,3.406,3.985,3.406,2.3-2.766-3.685-.307-3.072,2.759,2.153,3.066,1.233-1.362-3.072.77-3.072" transform="translate(-281.581 -156.467)" fill="none" stroke="#575757" stroke-miterlimit="10" stroke-width="1"></path>       </g>       <path id="Caminho_3591" data-name="Caminho 3591" d="M273.648,159.206v.484l-.218,5.906,6.506.845,1.451-2.534v2.773a13.339,13.339,0,0,1,5.906.845c3.134,1.206,7.112,9.769,6.874,13.264s-3.256,4.217-2.9,9.537,8.434,10.593,14.565,7.221,7.119-7.718,9.646-6.874,6.39,6.029,8.8-1.328,1.328-12.051-4.339-18.08-10.123-5.545-10.852-10.368-2.289-11.336-7.494-14.987-12.657-3.856-19.075-1.083S273.648,156.072,273.648,159.206Z" transform="translate(-195.333 -142.933)" fill="none" stroke="#263238" stroke-linecap="round" stroke-linejoin="round" stroke-width="1"></path>     </g>     <g id="freepik--Floor--inject-40" transform="translate(67.23 317.658)">       <line id="Linha_189" data-name="Linha 189" x2="249.29" fill="none" stroke="#263238" stroke-miterlimit="10" stroke-width="1"></line>     </g>   </g> </svg>