<?xml version="1.0" encoding="utf-8"?>
<!-- Generator: Adobe Illustrator 25.3.1, SVG Export Plug-In . SVG Version: 6.00 Build 0)  -->
<svg version="1.1" id="Camada_1" xmlns="http://www.w3.org/2000/svg" xmlns:xlink="http://www.w3.org/1999/xlink" x="0px" y="0px"
	 viewBox="0 0 500 500" style="enable-background:new 0 0 500 500;" xml:space="preserve">
<style type="text/css">
	.st0{fill:#8f00fc ;}
	.st1{opacity:0.7;fill:#FFFFFF;enable-background:new    ;}
	.st2{fill:none;stroke:#263238;stroke-linecap:round;stroke-linejoin:round;}
	.st3{fill:#FFFFFF;stroke:#263238;stroke-linecap:round;stroke-linejoin:round;}
	.st4{fill:#8f00fc ;stroke:#263238;stroke-linecap:round;stroke-linejoin:round;}
	.st5{fill:#263238;}
	.st6{fill:#757575;stroke:#263238;stroke-linecap:round;stroke-linejoin:round;}
	.st7{fill:#FFFFFF;}
	.st8{clip-path:url(#SVGID_2_);}
	.st9{opacity:0.7;enable-background:new    ;}
	.st10{clip-path:url(#SVGID_4_);}
	.st11{clip-path:url(#SVGID_6_);}
	.st12{opacity:0.2;fill-opacity:0.7;enable-background:new    ;}
	.st13{opacity:0.2;}
	.st14{fill:none;stroke:#FFFFFF;stroke-linecap:round;stroke-linejoin:round;}
	.st15{fill:#BFBFBF;stroke:#263238;stroke-linecap:round;stroke-linejoin:round;}
	.st16{opacity:0.4;fill:#8f00fc ;enable-background:new    ;}
	.st17{fill:#00C853;}
	.st18{clip-path:url(#SVGID_8_);}
	.st19{opacity:0.3;fill-opacity:0.7;enable-background:new    ;}
	.st20{fill:#BFBFBF;}
	.st21{clip-path:url(#SVGID_10_);}
	.st22{opacity:0.4;fill:#FFFFFF;enable-background:new    ;}
	.st23{clip-path:url(#SVGID_12_);}
	.st24{fill:#999999;}
	.st25{clip-path:url(#SVGID_14_);}
	.st26{clip-path:url(#SVGID_16_);}
	.st27{opacity:0.2;enable-background:new    ;}
	.st28{fill:#999999;stroke:#263238;stroke-linecap:round;stroke-linejoin:round;}
	.st29{fill:#757575;}
	.st30{clip-path:url(#SVGID_18_);}
</style>
<g id="freepik--background-simple--inject-254">
	<path class="st0" d="M118.2,391c14.4,2.1,29,1.8,43.4,3.6c36.3,4.6,59,24.7,85.2,43.8h162.4c1.2-1.2,2.3-2.5,3.4-3.7
		c39.5-45.5,43.7-121.7,28.4-177c-20.5-74.3-77-164.5-157.8-181.7c-35.7-7.6-73.4-1.1-103.6,19.4c-67.3,45.8-130.9,125-128.8,210.5
		C51.9,346.8,75.8,384.7,118.2,391z"/>
	<path class="st1" d="M118.2,391c14.4,2.1,29,1.8,43.4,3.6c36.3,4.6,59,24.7,85.2,43.8h162.4c1.2-1.2,2.3-2.5,3.4-3.7
		c39.5-45.5,43.7-121.7,28.4-177c-20.5-74.3-77-164.5-157.8-181.7c-35.7-7.6-73.4-1.1-103.6,19.4c-67.3,45.8-130.9,125-128.8,210.5
		C51.9,346.8,75.8,384.7,118.2,391z"/>
</g>
<g id="freepik--Floor--inject-254">
	<line class="st2" x1="38.9" y1="438.4" x2="464.5" y2="438.4"/>
</g>
<g id="freepik--Character--inject-254">
	<path class="st3" d="M286.5,113.3l-0.7-6.3c0,0,3-5.5,3-6s-1.1-6-2.2-7.5c-1.1-1.3-2.3-2.4-3.6-3.4c-1.3-1.2-1.8,0-1.4,1.4
		c-1.5-0.5-3-0.8-4.6-1c-0.9,0.2-1.7,0.6-2.5,1c-0.5-0.1-1-0.2-1.6-0.2c-0.8,0.3-1.6,0.7-2.3,1.2c-0.6,0.2-1.1,0.4-1.7,0.6
		c-0.9,0.5-2,2.8-2,2.8s-1.6,0.7-1.9,1.2s-2.6,3.8-2,4.1c1.4,0.6,4-1.2,4-1.2s3.8,0.3,4,1.3s3,6,4.9,6.8v5.9L286.5,113.3z"/>
	<polygon class="st4" points="389.7,146.8 384.5,153.5 377,147.8 376.6,142.1 382.2,141.1 	"/>
	<path class="st5" d="M350.8,101.8c0,0,7.3-2.8,13,1.6c7.2,5.5,16.1,21.2,7.5,49.1c0,0-9.3-9.3-35.9,0c0,0-7.1-3.6-8.5-23.9
		C326.2,117.7,324.7,97.2,350.8,101.8z"/>
	<path class="st2" d="M376.6,142.1c0,0-6.8,0.5-9.7-10.7"/>
	<polygon class="st4" points="415.9,318.3 408.1,321.6 404.4,313 406.9,307.8 412.3,309.7 	"/>
	<path class="st2" d="M407.2,308.3c0,0-2.7-10.7-11.1-10.9"/>
	<path class="st4" d="M334.7,138.2c5.5,0.5,5.1-12.8,0.4-13.7C329.7,123.6,326.8,137.5,334.7,138.2z"/>
	<path class="st6" d="M336.6,121c-7.5-0.7-7,17.5-0.5,18.7C343.4,141.1,347.4,122.1,336.6,121z"/>
	<path class="st4" d="M323.5,414.1l1,2.9c-1.5,2.5-3.2,4.9-5.1,7.1c0,0-1-0.3-2.6,1.1c-1,1-1.6,2.3-1.8,3.8c0,0-7.6,9.2-17.3,9.3
		s-6.8-4.8-6.8-4.8L323.5,414.1z"/>
	<path class="st7" d="M314.4,390.8c0,0-13-4.8-15.5,4.8c0,0,2.3,10.5,0.9,16.3s-8.4,16.8-8.8,18.9c-0.8,4.1-0.2,4.4-0.2,4.4
		s5.1,2.9,11.9-0.2s18.7-16.7,20.5-19.5s-5.8-13.8-5.8-13.8L314.4,390.8z"/>
	<g>
		<defs>
			<path id="SVGID_1_" d="M314.4,390.8c0,0-13-4.8-15.5,4.8c0,0,2.3,10.5,0.9,16.3s-8.4,16.8-8.8,18.9c-0.8,4.1-0.2,4.4-0.2,4.4
				s5.1,2.9,11.9-0.2s18.7-16.7,20.5-19.5s-5.8-13.8-5.8-13.8L314.4,390.8z"/>
		</defs>
		<clipPath id="SVGID_2_">
			<use xlink:href="#SVGID_1_"  style="overflow:visible;"/>
		</clipPath>
		<g class="st8">
			<path class="st9" d="M314.4,390.8c0,0-13-4.8-15.5,4.8c0,0,2.3,10.5,0.9,16.3s-8.4,16.8-8.8,18.9c-0.8,4.1-0.2,4.4-0.2,4.4
				s5.1,2.9,11.9-0.2s18.7-16.7,20.5-19.5s-5.8-13.8-5.8-13.8L314.4,390.8z"/>
		</g>
	</g>
	<path class="st2" d="M314.4,390.8c0,0-13-4.8-15.5,4.8c0,0,2.3,10.5,0.9,16.3s-8.4,16.8-8.8,18.9c-0.8,4.1-0.2,4.4-0.2,4.4
		s5.1,2.9,11.9-0.2s18.7-16.7,20.5-19.5s-5.8-13.8-5.8-13.8L314.4,390.8z"/>
	<path class="st2" d="M307.7,404.4c1.1,6.5,0,13.1-3.2,18.8c0,0-3.2,3-1.9,4.8"/>
	<path class="st2" d="M306.3,421.9c0,0-6.8,0.4-10.4-1"/>
	<path class="st2" d="M307.6,418.1c0,0-6.4,1-9.9-1"/>
	<path class="st2" d="M308.6,414c0,0-5.6,0.8-9.2-0.9"/>
	<path class="st2" d="M309.3,409.2c0,0-6.2,2-9.1,0"/>
	<path class="st5" d="M363.3,225.6c0,0,12,34.9,6.7,57.8s-7,32.3-6.7,44.7s-12.6,77.1-12.6,77.1h-11.9c0,0,1.8-56,1.7-69.6
		s2.5-9.9-0.7-23s-0.8-26.4-5.1-40.6c0,0-23.3,40.1-27.5,45.9c0,0,4.7,17.6,4.2,32.6c-0.6,17.5,0.9,43.9,0.9,43.9s-2.6,5-9.9,3
		c0,0-18.9-78.1-17.9-82s8.4-46.1,28.7-74.2c0,0,3.5-11.9,5.9-19.6L363.3,225.6z"/>
	<path class="st7" d="M353.6,403.8c0,0-5.5-4-17-3.2c0,0-0.8,13.8-2.4,17.8s-9.8,10.9-11.3,12.1s-1.5,5.4-1.5,5.4h34.8
		c-0.4-6-1.4-11.9-2.8-17.7L353.6,403.8z"/>
	<g>
		<defs>
			<path id="SVGID_3_" d="M353.6,403.8c0,0-5.5-4-17-3.2c0,0-0.8,13.8-2.4,17.8s-9.8,10.9-11.3,12.1s-1.5,5.4-1.5,5.4h34.8
				c-0.4-6-1.4-11.9-2.8-17.7L353.6,403.8z"/>
		</defs>
		<clipPath id="SVGID_4_">
			<use xlink:href="#SVGID_3_"  style="overflow:visible;"/>
		</clipPath>
		<g class="st10">
			<path class="st9" d="M353.6,403.8c0,0-5.5-4-17-3.2c0,0-0.8,13.8-2.4,17.8s-9.8,10.9-11.3,12.1s-1.5,5.4-1.5,5.4h34.8
				c-0.4-6-1.4-11.9-2.8-17.7L353.6,403.8z"/>
		</g>
	</g>
	<path class="st2" d="M353.6,403.8c0,0-5.5-4-17-3.2c0,0-0.8,13.8-2.4,17.8s-9.8,10.9-11.3,12.1s-1.5,5.4-1.5,5.4h34.8
		c-0.4-6-1.4-11.9-2.8-17.7L353.6,403.8z"/>
	<path class="st2" d="M346.4,405.6c0,0-0.8,12.7-2.8,16c-1.1,1.8-2.4,3.5-3.9,5c0,0-2.4,0,0,3.2"/>
	<path class="st2" d="M342.4,425.4c0,0-7.4-4.3-12.7-1"/>
	<path class="st2" d="M344.2,422.5c0,0-5.2-4-11.3-1.8"/>
	<path class="st2" d="M346.4,418c0,0-5.6-4.3-11.5-1.6"/>
	<path class="st2" d="M347.2,412.5c0,0-6.8-3.6-11.7-0.9"/>
	<path class="st4" d="M356.2,435.8v2.6h-4c-2.1-1.1-4.6-1.1-6.7,0h-18.8c-2,0-3.9-0.4-5.7-1.3l0.4-1.3H356.2z"/>
	<path class="st0" d="M382.8,162.9c-3.8-2.5-7.9-4.4-12.3-5.6c0,0-2.4-2.3-3.6-0.5c-5,7.2-31.6-3.1-31.6-3.1s-1.5-1.6-5.2-1.6
		c-2.6-2.1-5.8-3.4-9.1-3.7c-5.5-0.4-24.8,3.2-27.2,1.7s-7.1-39.5-7.1-39.5h-11.5v4.9c0,0-5.1,12.1-4.7,29.5s-15.4,24.1,32.1,40
		c0,0-1.6,28.5,3.6,41.1c0,0,38.1,19.1,62.4,19.3c0,0,5.4,3.6-1.7-12.7l8.1-11.2c0,0,11.5,20,19.4,14.5S396,171.3,382.8,162.9z"/>
	<g>
		<defs>
			<path id="SVGID_5_" d="M382.8,162.9c-3.8-2.5-7.9-4.4-12.3-5.6c0,0-2.4-2.3-3.6-0.5c-5,7.2-31.6-3.1-31.6-3.1s-1.5-1.6-5.2-1.6
				c-2.6-2.1-5.8-3.4-9.1-3.7c-5.5-0.4-24.8,3.2-27.2,1.7s-7.1-39.5-7.1-39.5h-11.5v4.9c0,0-5.1,12.1-4.7,29.5s-15.4,24.1,32.1,40
				c0,0-1.6,28.5,3.6,41.1c0,0,38.1,19.1,62.4,19.3c0,0,5.4,3.6-1.7-12.7l8.1-11.2c0,0,11.5,20,19.4,14.5S396,171.3,382.8,162.9z"/>
		</defs>
		<clipPath id="SVGID_6_">
			<use xlink:href="#SVGID_5_"  style="overflow:visible;"/>
		</clipPath>
		<g class="st11">
			<path class="st12" d="M302.5,188.7c0.1-2.3,0.1-3.6,0.1-3.6c-47.5-15.8-31.7-22.6-32.1-40s4.7-29.5,4.7-29.5v-4.9h11.5
				c0,0,4.7,38,7.1,39.5c5.3,8.2-4.5,17.9-1,19.4s11.8-6,11.8-6C305.6,172,304.8,180.5,302.5,188.7z"/>
			<path class="st12" d="M392.3,211.9c0,0-2.3,16.4-3.5,24.6c-6.8-2.7-13.8-14.9-13.8-14.9l-8.1,11.2c7.1,16.2,1.7,12.7,1.7,12.7
				c-24.3-0.1-62.4-19.3-62.4-19.3c-0.8-2.1-1.5-4.3-1.9-6.6c24.9,19.9,57,22.2,59.9,22.4c-4.9-0.3-21.4-5.4-23.3-9.2
				s16-0.3,20.7-1.1s9.8-16,9.8-16c-3.5,0-8-12.7-7.5-14.2s6.5-1.2,6.5-1.2s-3.3-3.1-2.4-7.3s-0.7-10.3,2.5-9.5s2.5,6.3,2.5,6.3
				L392.3,211.9z"/>
		</g>
	</g>
	<path class="st2" d="M382.8,162.9c-3.8-2.5-7.9-4.4-12.3-5.6c0,0-2.4-2.3-3.6-0.5c-5,7.2-31.6-3.1-31.6-3.1s-1.5-1.6-5.2-1.6
		c-2.6-2.1-5.8-3.4-9.1-3.7c-5.5-0.4-24.8,3.2-27.2,1.7s-7.1-39.5-7.1-39.5h-11.5v4.9c0,0-5.1,12.1-4.7,29.5s-15.4,24.1,32.1,40
		c0,0-1.6,28.5,3.6,41.1c0,0,38.1,19.1,62.4,19.3c0,0,5.4,3.6-1.7-12.7l8.1-11.2c0,0,11.5,20,19.4,14.5S396,171.3,382.8,162.9z"/>
	<path class="st3" d="M344.3,169.5c11.5,0.9,22.6-12.7,22.6-12.7s-6.2-0.3-7-3.1c-2.5-9,3.7-20.9,3.7-20.9s-27.6,3-22.2,8.9
		c1,1.1,1.8,2.3,2.5,3.6c2,4,1.1,7.2,0.3,8c-0.1,0.1-0.1,0.1-0.2,0.1c-1.6,0.9-8.6,0.3-8.6,0.3S333.8,168.7,344.3,169.5z"/>
	<path class="st2" d="M363.3,160.7c-4,1.7-8.4,2.6-12.8,2.5l-3.3,2"/>
	<path class="st2" d="M343.7,165.2l-0.4-2.3c0,0-5.8-1.3-7.8-4.5"/>
	<path class="st5" d="M344.1,153.3c8.6,1.5,11.7-9.7,11.7-9.7s-6.9-1.5-12,1.6C345.8,149.2,344.9,152.4,344.1,153.3z"/>
	<path class="st3" d="M343.8,104.2c-18.8,2.8-9.7,30.5-7.8,37.4c0.7,2.6,8.6,10,12.2,9.3c2.8-0.5,12.6-8.9,13.1-12.3
		C362.7,129.5,365,101.1,343.8,104.2z"/>
	<path class="st2" d="M341.2,124.5c0,1.3,1.1,5-1.5,7.6c-1.6,1.7,2.5,2.4,2.5,2.4"/>
	<path class="st2" d="M340.4,118.7c-2.5,0-4.9,1.2-6.4,3.2"/>
	<path class="st2" d="M346.9,118.4c2.4-0.3,4.9-0.1,7.2,0.5"/>
	<path class="st5" d="M336.8,127.6c0.1,0.8,0.7,1.3,1.3,1.2s0.9-0.8,0.7-1.6s-0.7-1.3-1.3-1.2S336.6,126.8,336.8,127.6z"/>
	<path class="st5" d="M349,126.1c0.1,0.8,0.7,1.3,1.3,1.2c0.6-0.2,0.9-0.9,0.7-1.6c-0.1-0.8-0.7-1.3-1.3-1.2
		C349.1,124.8,348.8,125.4,349,126.1z"/>
	<path class="st2" d="M342.3,139.6c3.1-0.7,5.9-2,8.4-3.9c0,0,0.8,4.8-3.2,6.1c-3,1-4.5-2.4-4.5-2.4"/>
	<path class="st5" d="M350.8,108.1c0,0,0,13.8,12.5,17.8l4.6-13.6l-22.5-11.5c-23.9,0.1-29.2,29.6-16.4,46.5
		C328.9,147.3,326,109.5,350.8,108.1z"/>
	<path class="st3" d="M360.7,126.7c-0.3-1.5,3.3-5.8,4.8-3.4c2.6,4.1,1.3,8-0.9,9.6c-1,0.7-2.2,2.1-3.2,1"/>
	<path class="st6" d="M363.8,118.2c-7.5-0.7-7,17.5-0.5,18.7C370.6,138.3,374.5,119.3,363.8,118.2z"/>
	<path class="st4" d="M364.4,122.7c0,0-1-21.2-24-20.9c0,0,3.5-2.7,10.1-1s17.4,6.7,17.4,21.9L364.4,122.7z"/>
	<path class="st4" d="M365.6,120.8c-5.5-0.5-5.1,12.8-0.4,13.7C370.5,135.4,373.4,121.5,365.6,120.8z"/>
	<g class="st13">
		<path class="st14" d="M335.6,239.8c0,0-4.2,14.6-1.2,26.1"/>
		<path class="st14" d="M333.1,269c0,0-8.1-5.7-11.7-6.3"/>
		<path class="st14" d="M338.6,271.6c0,0-15.4-2.2-19.6,0"/>
		<path class="st14" d="M335.6,269c0,0,7.4-3.4,11.5-4.1"/>
		<path class="st14" d="M331.7,239.2c0,0-3.9,8.7,1.4,11.6"/>
		<path class="st14" d="M300.1,314.7c-0.2,0.8,5.1,3.2,5.1,3.2s-2.1,5.5-5.1,6.3"/>
		<path class="st14" d="M357.6,324.2c-2.2,5.8-8,10-8,10"/>
		<path class="st14" d="M296.7,362.7c0,0,7.4,7.9,8.6,10.8"/>
	</g>
	<path class="st15" d="M391.1,259.1l4.5,37.4c0.1,1-0.4,2-1.3,2.4L358,317.7c-1,0.5-2.2,0.1-2.7-0.9c-0.1-0.2-0.2-0.4-0.2-0.6
		l-5-38.2c-0.1-1,0.4-2,1.3-2.5l36.8-17.9c1-0.5,2.2,0,2.7,1C391,258.7,391.1,258.9,391.1,259.1z"/>
	<path class="st15" d="M393.1,260.3l4.5,37.4c0.1,1-0.4,2-1.3,2.4L360,318.9c-1,0.5-2.2,0.1-2.7-0.9c-0.1-0.2-0.2-0.4-0.2-0.6
		l-5-38.2c-0.1-1,0.4-2,1.3-2.5l36.8-17.9c1-0.5,2.2-0.1,2.7,0.9C393,259.9,393.1,260.1,393.1,260.3z"/>
	<path class="st4" d="M374.4,285.1c0-0.4,0-0.8-0.1-1.1c0.4-0.5,1-0.7,1.6-0.8c1.7,0,3,2.1,3,4.6s-1.4,4.6-3,4.6
		c-1.4,0-2.6-1.5-2.9-3.5C373.9,288,374.4,286.6,374.4,285.1z"/>
	<path class="st3" d="M380.8,249.1l3.7,43.5c0,0-2.1,5.8-3.7,7.6s-4.4,11.4-5.9,13.2s0.8,2.4,4.8-3.2c1.3,1.4,2.5,2.9,3.5,4.5
		c0.8,1.6,2.9-2.4,4.8-2.9s5.5-1.9,5.5-3.7s2.4-3.1,2.6-5.5s-2.4-11.6-2.4-11.6l1.1-40.2L380.8,249.1z"/>
	<path class="st4" d="M397.6,211.8c1.4,13,0.2,28.8,0.2,28.8l-2.3,20.2c0,0,1.1,3.9,0.3,5c-2.9,3.7-9.2-0.7-14.2-4.4s-2-6.1-2-6.1
		s-0.9-7.6-2.6-12.4s-3.9-32.6-4.1-37.5c0,0-0.7-7.9-2.5-10s12.2-17.9,16.5-18.5"/>
	<path class="st2" d="M303.8,156.7c0,0,3.2,15.3-1.2,28.3"/>
	<path class="st2" d="M366.9,232.8c-6.2,2.8-13.1,3.5-19.7,2"/>
	<path class="st2" d="M330.1,152.2c0,0,0.8,20.1,14.9,21.3"/>
	<path class="st2" d="M293.9,150.2c0,0,1.2,6.2-2.7,8.2s0-4.1,0-4.1"/>
	<path class="st2" d="M379.6,255.4c0,0,6.8,4.9,11.5,3.8"/>
	<path class="st2" d="M275.3,115.6c0,0,7.2,3.1,9.1,2.6"/>
	<path class="st5" d="M324.2,200L324.2,200l2-5.1l1.6,0.4l-1.8,7.4l-1.1-0.3l1.2-5.3l0,0l-2,5.1l-1.1-0.3l0.4-5.4l0,0l-1.2,5.2
		l-1-0.2l1.7-7.4l1.6,0.4L324.2,200z"/>
	<path class="st5" d="M328.1,197.2c0.1-1,1.1-1.7,2.1-1.5s1.7,1.1,1.5,2.1c0,0.1,0,0.2-0.1,0.3l-0.9,3.9c-0.1,1-1.1,1.7-2.1,1.5
		s-1.7-1.1-1.5-2.1c0-0.1,0-0.2,0.1-0.3L328.1,197.2z M328.4,201.4c-0.1,0.5,0.1,0.8,0.4,0.9s0.6-0.1,0.8-0.6l1-4
		c0.1-0.5-0.1-0.8-0.4-0.9s-0.6,0.1-0.8,0.6L328.4,201.4z"/>
	<path class="st5" d="M333.4,198.8L333.4,198.8l-1.3,5.4l-1-0.2l1.8-7.4l1.5,0.3l0.1,4.7l0,0l1-4.4l1,0.2l-1.8,7.4l-1.2-0.3
		L333.4,198.8z"/>
	<path class="st5" d="M337.4,197.5l1.8,0.4c0.9,0.1,1.5,0.9,1.4,1.8c0,0.1-0.1,0.3-0.1,0.4l-0.9,3.7c-0.1,0.9-0.8,1.6-1.7,1.5
		c-0.1,0-0.3,0-0.4-0.1l-1.8-0.4L337.4,197.5z M338.3,198.9l-1.3,5.3l0.7,0.2c0.4,0.1,0.6-0.1,0.8-0.6l0.9-3.9
		c0.1-0.5-0.1-0.8-0.4-0.9L338.3,198.9z"/>
	<path class="st5" d="M343.7,206.8l-1.2-0.3l0.1-1.4l-1.4-0.3l-0.5,1.3l-1.1-0.2l2.9-7.1l1.7,0.4L343.7,206.8z M341.6,203.8l1.1,0.3
		l0.3-3.9l0,0L341.6,203.8z"/>
	<path class="st5" d="M345.4,204.6l-0.3-5.3l1.2,0.3l0.1,3.6l0,0l1.7-3.2l1.1,0.3l-2.6,4.6l-0.6,2.5l-1.2-0.3L345.4,204.6z"/>
	<path class="st5" d="M330.7,184.2l1.2,0.3l-1.8,7.4l-1.1-0.3L330.7,184.2z"/>
	<path class="st5" d="M342.4,186.6c-1.1-0.7-2.6-0.4-3.5,0.5c-0.4-1.2-1.6-2-2.9-1.9c-2,0.2-3.1,2.4-2,4.9c0.8,1.5,1.8,2.9,3.2,3.9
		l0.3,0.2l0.3-0.1c1.7-0.4,3.2-1.2,4.5-2.2C344.2,190.1,344.1,187.6,342.4,186.6z"/>
	<path class="st2" d="M281.5,91.3c0.9,1.8,2,4.3,1.6,5.1s-3.4,4.9-2.4,7.4"/>
	<path class="st2" d="M266.7,95.8l-1.1,3c0.9,0.5,2,0.3,2.6-0.5c1.2-1.4,3.6-0.8,3.6-0.8"/>
	<path class="st2" d="M274.4,91.3c0,0-4.6,3,0.9,2.3c3.3-0.4,4.6,0.6,4.6,0.8"/>
	<path class="st2" d="M270.5,92.3c0,0-2,1.6-0.8,2.5s3.6,0.6,4,0.5c1,0,2.1,0.3,3,0.7"/>
</g>
<g id="freepik--Device--inject-254">
	<path class="st3" d="M111.3,86.4h161.9c5.1,0,9.3,4.1,9.3,9.3v333.5c0,5.1-4.1,9.3-9.3,9.3H111.3c-5.1,0-9.3-4.1-9.3-9.3V95.7
		C102,90.6,106.2,86.4,111.3,86.4z"/>
	<path class="st4" d="M178.3,95.2c0,1.4-1.1,2.5-2.5,2.5c-1.4,0-2.5-1.1-2.5-2.5s1.1-2.5,2.5-2.5c0,0,0,0,0,0
		C177.2,92.7,178.3,93.8,178.3,95.2z"/>
	<path class="st4" d="M211.3,95.2c0,0.9-0.7,1.6-1.6,1.6c-0.9,0-1.6-0.7-1.6-1.6c0-0.9,0.7-1.6,1.6-1.6c0,0,0,0,0,0
		C210.5,93.6,211.3,94.3,211.3,95.2z"/>
	<path class="st4" d="M183.3,94.3h19.2c0.4,0,0.7,0.3,0.7,0.7v0.3c0,0.4-0.3,0.7-0.7,0.7h-19.2c-0.4,0-0.7-0.3-0.7-0.7V95
		C182.5,94.6,182.9,94.3,183.3,94.3z"/>
	<path class="st16" d="M277.3,98.3v329.1c0,3.4-2.7,6.1-6.1,6.1H113.3c-3.4,0-6.1-2.7-6.1-6.1l0,0V98.3c0-3.4,2.7-6.1,6.1-6.1
		c0,0,0,0,0,0h32.4c2.1,0,4,1.3,4.8,3.3l1.4,3.7c0.7,2,2.6,3.3,4.8,3.3h71.1c2.1,0,4-1.3,4.8-3.3l1.4-3.7c0.7-2,2.6-3.3,4.8-3.3
		h32.4C274.6,92.2,277.3,94.9,277.3,98.3z"/>
	<path class="st0" d="M277.3,408.2v19.2c0,3.4-2.7,6.1-6.1,6.1c0,0,0,0,0,0H113.3c-3.4,0-6.1-2.7-6.1-6.1l0,0v-19.2H277.3z"/>
	<path class="st0" d="M277.3,98.3v15.1h-170V98.3c0-3.4,2.7-6.1,6.1-6.1h32.4c2.1,0,4,1.3,4.8,3.3l1.4,3.7c0.7,2,2.7,3.3,4.8,3.3
		h71.1c2.1,0,4-1.3,4.8-3.3l1.4-3.7c0.7-2,2.7-3.3,4.8-3.3h32.4C274.6,92.2,277.3,94.9,277.3,98.3C277.3,98.3,277.3,98.3,277.3,98.3
		z"/>
	<path class="st2" d="M277.3,98.3v329.1c0,3.4-2.7,6.1-6.1,6.1H113.3c-3.4,0-6.1-2.7-6.1-6.1c0,0,0,0,0,0V98.3
		c0-3.4,2.7-6.1,6.1-6.1l0,0h32.4c2.1,0,4,1.3,4.8,3.3l1.4,3.7c0.7,2,2.6,3.3,4.8,3.3h71.1c2.1,0,4-1.3,4.8-3.3l1.4-3.7
		c0.7-2,2.6-3.3,4.8-3.3h32.4C274.6,92.2,277.3,94.9,277.3,98.3L277.3,98.3z"/>
	<path class="st17" d="M156.5,301.3H228c6.7,0,12.1,5.4,12.1,12.1v4.8c0,6.7-5.4,12.1-12.1,12.1h-71.6c-6.7,0-12.1-5.4-12.1-12.1
		v-4.8C144.4,306.7,149.8,301.3,156.5,301.3z"/>
	<path class="st7" d="M212.3,253.6h-40l1-0.4c4.8-2,8-6.7,8-11.9v-14.7h22v14.6c0,5.2,3.2,10,8,11.9L212.3,253.6z"/>
	<g>
		<defs>
			<path id="SVGID_7_" d="M212.3,253.6h-40l1-0.4c4.8-2,8-6.7,8-11.9v-14.7h22v14.6c0,5.2,3.2,10,8,11.9L212.3,253.6z"/>
		</defs>
		<clipPath id="SVGID_8_">
			<use xlink:href="#SVGID_7_"  style="overflow:visible;"/>
		</clipPath>
		<g class="st18">
			<path class="st19" d="M203.3,226.6v12.8c-7.2,1.4-14.6,2.1-22,1.9v-14.7H203.3z"/>
		</g>
	</g>
	<path class="st2" d="M212.3,253.6h-40l1-0.4c4.8-2,8-6.7,8-11.9v-14.7h22v14.6c0,5.2,3.2,10,8,11.9L212.3,253.6z"/>
	<path class="st3" d="M147.5,163.4H237c1.7,0,3,1.3,3,3v65.2c0,1.7-1.3,3-3,3h-89.5c-1.7,0-3-1.3-3-3v-65.2
		C144.5,164.7,145.9,163.4,147.5,163.4z"/>
	<rect x="148.3" y="168.7" class="st20" width="87.9" height="60.4"/>
	<g>
		<defs>
			<rect id="SVGID_9_" x="148.3" y="168.7" width="87.9" height="60.4"/>
		</defs>
		<clipPath id="SVGID_10_">
			<use xlink:href="#SVGID_9_"  style="overflow:visible;"/>
		</clipPath>
		<g class="st21">
			<path class="st22" d="M209.4,168.7c0,0-21.9,41.3-61,46.4v-46.4H209.4z"/>
			<path class="st22" d="M236.2,190.1v39.1h-42.3C200.4,207.9,222.2,195.9,236.2,190.1z"/>
		</g>
	</g>
	<rect x="148.3" y="168.7" class="st2" width="87.9" height="60.4"/>
	<path class="st3" d="M172.1,251.1h40.4c1.1,0,2,0.9,2,2v3.7l0,0h-44.4l0,0v-3.7C170.1,252.1,171,251.2,172.1,251.1z"/>
	<rect x="136.1" y="269" class="st15" width="19.9" height="20"/>
	<rect x="159.2" y="269" class="st15" width="19.9" height="20"/>
	<rect x="182.3" y="269" class="st15" width="19.9" height="20"/>
	<rect x="205.4" y="269" class="st15" width="19.9" height="20"/>
	<rect x="228.5" y="269" class="st15" width="19.9" height="20"/>
	<polyline class="st2" points="253.2,281.9 256.2,278.9 253.2,276 	"/>
	<polyline class="st2" points="131.3,276 128.4,278.9 131.3,281.9 	"/>
	<polygon class="st4" points="236.6,149.9 241,148.9 243.5,152.9 248.1,153 249.4,157.4 253.8,158.8 254.1,163.3 258,165.7 
		257.1,170.2 260.3,173.5 258.3,177.6 260.6,181.6 257.7,185.1 258.9,189.6 255.2,192.2 255.2,196.8 251,198.5 249.9,203 
		245.4,203.5 243.2,207.6 238.7,206.9 235.6,210.4 231.3,208.6 227.5,211.2 223.8,208.4 219.5,209.9 216.6,206.4 212,206.8 
		210.1,202.6 205.6,201.8 204.7,197.3 200.5,195.4 200.9,190.9 197.3,188 198.7,183.6 195.9,180 198.4,176.1 196.7,171.9 200,168.8 
		199.4,164.2 203.4,162 203.9,157.5 208.4,156.4 210,152.1 214.6,152.1 217.2,148.3 221.6,149.5 225.1,146.5 229.1,148.8 
		233.2,146.7 	"/>
	<path class="st7" d="M212.1,178.6l-0.6,2.1c-0.5,1.6,0.1,2.4,1.2,2.7s2-0.1,2.5-1.7l1.4-5c0.5-1.6-0.1-2.4-1.2-2.8s-2,0.1-2.5,1.7
		l-0.2,0.7l-3.4-0.9l4.4-12.9l9.4,2.7l-0.9,3.2l-6.2-1.8l-1.8,5.4h0.1c0.9-0.9,2.3-1.2,3.5-0.8c2.6,0.7,3.4,3,2.5,6.3l-1.4,5
		c-1,3.6-3.4,5.2-6.9,4.2s-4.7-3.6-3.7-7.2l0.5-1.9L212.1,178.6z"/>
	<path class="st7" d="M224.2,171.4c1-3.6,3.5-5.1,7-4.1s4.8,3.6,3.8,7.2l-3.4,11.8c-1,3.6-3.5,5.1-7,4.2s-4.8-3.6-3.8-7.2
		L224.2,171.4z M224.4,184.4c-0.5,1.6,0.1,2.4,1.2,2.8s2-0.1,2.5-1.7l3.5-12.2c0.5-1.6-0.1-2.4-1.2-2.8s-2,0.1-2.5,1.7L224.4,184.4z
		"/>
	<path class="st7" d="M238.5,171.6c0.3-1.1,1.5-1.7,2.6-1.4s1.7,1.5,1.4,2.6l-1.2,4.3c-0.3,1.1-1.5,1.7-2.6,1.4s-1.7-1.5-1.4-2.6
		L238.5,171.6z M238.6,176.3c-0.2,0.6,0,0.9,0.4,1s0.8-0.1,0.9-0.6l1.3-4.5c0.2-0.6,0-0.9-0.4-1s-0.7,0-0.9,0.6L238.6,176.3z
		 M246.3,171.6l1.2,0.4l-8.9,11.7l-1.2-0.4L246.3,171.6z M243.7,178.2c0.3-1.1,1.5-1.7,2.6-1.4s1.7,1.5,1.4,2.6l-1.2,4.3
		c-0.3,1.1-1.5,1.7-2.6,1.4s-1.7-1.5-1.4-2.6L243.7,178.2z M243.7,183c-0.2,0.6,0,0.9,0.4,1s0.7-0.1,0.9-0.6l1.3-4.5
		c0.2-0.6,0-0.9-0.4-1s-0.8,0-0.9,0.6L243.7,183z"/>
	<path class="st7" d="M233.8,186.6c0.2-1,1.2-1.7,2.2-1.5c1,0.2,1.7,1.2,1.5,2.2c0,0.1,0,0.2-0.1,0.3l-1.1,4c-0.2,1-1.2,1.7-2.2,1.5
		c-1-0.2-1.7-1.2-1.5-2.2c0-0.1,0-0.2,0.1-0.3L233.8,186.6z M233.9,191c-0.1,0.5,0,0.8,0.4,0.9s0.7,0,0.8-0.6l1.2-4.1
		c0.1-0.5,0-0.8-0.4-0.9s-0.7,0-0.8,0.6L233.9,191z"/>
	<path class="st7" d="M239,189.8l1.5,0.4l-0.3,1.1l-1.5-0.4l-0.9,3.1l-1.2-0.3l2.2-7.6l3.2,0.9l-0.3,1.1l-2-0.6L239,189.8z"/>
	<path class="st7" d="M242.7,190.8l1.5,0.4l-0.3,1.1l-1.5-0.4l-0.9,3.1l-1.2-0.3l2.2-7.6l3.2,0.9l-0.3,1.1l-2-0.6L242.7,190.8z"/>
	<rect x="118.2" y="343.7" class="st0" width="148.2" height="13.3"/>
	<path class="st0" d="M126.2,365.7h108.2c0.7,0,1.2,0.5,1.2,1.2v0.5c0,0.7-0.5,1.2-1.2,1.2H126.2c-0.7,0-1.2-0.5-1.2-1.2v-0.5
		C125,366.2,125.5,365.7,126.2,365.7z"/>
	<path class="st0" d="M126.2,374.2h93.8c0.7,0,1.2,0.5,1.2,1.2v0.5c0,0.7-0.5,1.2-1.2,1.2h-93.8c-0.7,0-1.2-0.5-1.2-1.2v-0.5
		C125,374.8,125.5,374.2,126.2,374.2z"/>
	<path class="st0" d="M211.3,385.6h-84.9c-0.8,0-1.4-0.6-1.4-1.4l0,0c0-0.8,0.6-1.4,1.4-1.4h84.9c0.8,0,1.4,0.6,1.4,1.4l0,0l0,0
		C212.7,385,212.1,385.6,211.3,385.6C211.3,385.6,211.3,385.6,211.3,385.6z"/>
	<path class="st0" d="M126.2,391.3h98.6c0.7,0,1.2,0.5,1.2,1.2v0.5c0,0.7-0.5,1.2-1.2,1.2h-98.6c-0.7,0-1.2-0.5-1.2-1.2v-0.5
		C125,391.9,125.5,391.3,126.2,391.3z"/>
	<path class="st0" d="M246.2,365.7h12.1c0.7,0,1.2,0.5,1.2,1.2v0.5c0,0.7-0.5,1.2-1.2,1.2h-12.1c-0.7,0-1.2-0.5-1.2-1.2v-0.5
		C245,366.2,245.6,365.7,246.2,365.7z"/>
	<path class="st0" d="M248.6,374.2h9.7c0.7,0,1.2,0.5,1.2,1.2v0.5c0,0.7-0.5,1.2-1.2,1.2h-9.7c-0.7,0-1.2-0.5-1.2-1.2v-0.5
		C247.4,374.8,248,374.2,248.6,374.2z"/>
	<path class="st0" d="M245,382.8h13.3c0.7,0,1.2,0.5,1.2,1.2v0.5c0,0.7-0.5,1.2-1.2,1.2H245c-0.7,0-1.2-0.5-1.2-1.2V384
		C243.8,383.3,244.4,382.8,245,382.8z"/>
	<path class="st0" d="M254.6,391.3h3.7c0.7,0,1.2,0.5,1.2,1.2v0.5c0,0.7-0.5,1.2-1.2,1.2h-3.7c-0.7,0-1.2-0.5-1.2-1.2v-0.5
		C253.4,391.9,254,391.3,254.6,391.3z"/>
	<path class="st0" d="M134.9,129.2h114.8c2.1,0,3.8,1.7,3.8,3.8v1.5c0,2.1-1.7,3.8-3.8,3.8H134.9c-2.1,0-3.8-1.7-3.8-3.8v-1.5
		C131.1,131,132.8,129.2,134.9,129.2z"/>
	<polygon class="st3" points="250.8,328.7 232.9,321.6 240,339.5 242.8,333.2 245.8,336.3 247.6,334.5 244.5,331.5 	"/>
	<g>
		<path class="st7" d="M168.1,320.1h-2.9c-1,0-1.7-0.2-2.2-0.6c-0.5-0.4-0.7-1-0.7-1.8v-3.7c0-0.8,0.2-1.5,0.7-1.9
			c0.5-0.4,1.2-0.6,2.2-0.6h2.9c0.2,0,0.3,0,0.3,0.1c0.1,0.1,0.1,0.2,0.1,0.3v1.5c0,0.2,0,0.3-0.1,0.3c-0.1,0.1-0.2,0.1-0.3,0.1
			h-2.4c-0.2,0-0.4,0-0.6,0.2c-0.1,0.1-0.2,0.2-0.2,0.5v2.9c0,0.2,0.1,0.3,0.2,0.4c0.1,0.1,0.3,0.1,0.6,0.1h2.4c0.2,0,0.3,0,0.3,0.1
			c0.1,0.1,0.1,0.2,0.1,0.3v1.4c0,0.2,0,0.3-0.1,0.3C168.4,320,168.3,320.1,168.1,320.1z"/>
		<path class="st7" d="M177.2,317.8c0,0.4-0.1,0.7-0.2,1c-0.1,0.3-0.3,0.6-0.6,0.8c-0.3,0.2-0.7,0.4-1.1,0.5
			c-0.5,0.1-1.1,0.2-1.8,0.2c-0.7,0-1.4-0.1-1.8-0.2c-0.5-0.1-0.9-0.3-1.1-0.5s-0.5-0.5-0.6-0.8c-0.1-0.3-0.2-0.6-0.2-1v-4.1
			c0-0.4,0.1-0.7,0.2-1c0.1-0.3,0.3-0.6,0.6-0.8s0.7-0.4,1.1-0.5c0.5-0.1,1.1-0.2,1.8-0.2c0.7,0,1.4,0.1,1.8,0.2
			c0.5,0.1,0.9,0.3,1.1,0.5c0.3,0.2,0.5,0.5,0.6,0.8c0.1,0.3,0.2,0.6,0.2,1V317.8z M172.4,317.4c0,0.2,0.1,0.3,0.2,0.4
			c0.1,0.1,0.4,0.2,0.8,0.2c0.4,0,0.7-0.1,0.8-0.2c0.1-0.1,0.2-0.2,0.2-0.4v-3.2c0-0.2-0.1-0.3-0.2-0.4c-0.1-0.1-0.4-0.2-0.8-0.2
			c-0.4,0-0.7,0.1-0.8,0.2c-0.1,0.1-0.2,0.2-0.2,0.4V317.4z"/>
		<path class="st7" d="M180.9,320.1h-1.8c-0.2,0-0.3,0-0.3-0.1c-0.1-0.1-0.1-0.2-0.1-0.3v-7.8c0-0.2,0-0.3,0.1-0.3
			c0.1-0.1,0.2-0.1,0.3-0.1h1.9c0.1,0,0.2,0,0.3,0.1c0.1,0.1,0.2,0.1,0.2,0.3l1.1,2c0,0.1,0.1,0.1,0.1,0.2c0,0,0.1,0,0.1,0h0.1
			c0,0,0.1,0,0.1,0c0,0,0.1-0.1,0.1-0.2l1.1-2c0.1-0.1,0.1-0.2,0.2-0.3c0.1-0.1,0.2-0.1,0.3-0.1h1.9c0.2,0,0.3,0,0.3,0.1
			c0.1,0.1,0.1,0.2,0.1,0.3v7.8c0,0.2,0,0.3-0.1,0.3c-0.1,0.1-0.2,0.1-0.3,0.1h-1.8c-0.2,0-0.3,0-0.3-0.1c-0.1-0.1-0.1-0.2-0.1-0.3
			v-4.2l-0.7,1.3c-0.1,0.1-0.2,0.2-0.3,0.3c-0.1,0.1-0.2,0.1-0.4,0.1h-0.5c-0.2,0-0.3,0-0.4-0.1c-0.1-0.1-0.2-0.2-0.3-0.3l-0.7-1.3
			v4.2c0,0.2,0,0.3-0.1,0.3C181.2,320,181.1,320.1,180.9,320.1z"/>
		<path class="st7" d="M191.2,320.1h-1.9c-0.2,0-0.3,0-0.3-0.1c-0.1-0.1-0.1-0.2-0.1-0.3v-7.8c0-0.2,0-0.3,0.1-0.3
			c0.1-0.1,0.2-0.1,0.3-0.1h3.7c1.1,0,1.8,0.2,2.2,0.6c0.4,0.4,0.6,1,0.6,1.7v1.5c0,0.7-0.2,1.3-0.6,1.7c-0.4,0.4-1.1,0.6-2.2,0.6
			h-1.4v2c0,0.2,0,0.3-0.1,0.3C191.4,320,191.3,320.1,191.2,320.1z M191.6,313.7v1.8h1.1c0.2,0,0.4-0.1,0.5-0.2
			c0.1-0.1,0.1-0.3,0.1-0.4v-0.6c0-0.2,0-0.3-0.1-0.4c-0.1-0.1-0.2-0.2-0.5-0.2H191.6z"/>
		<path class="st7" d="M199.3,320.1h-1.8c-0.2,0-0.3,0-0.3-0.1c-0.1-0.1-0.1-0.2-0.1-0.3v-7.8c0-0.2,0-0.3,0.1-0.3
			c0.1-0.1,0.2-0.1,0.3-0.1h4c0.9,0,1.5,0.2,1.9,0.6s0.5,0.9,0.5,1.4v0.6c0,0.3-0.1,0.6-0.1,0.9c-0.1,0.2-0.3,0.4-0.5,0.5
			c0.4,0,0.8,0.2,1,0.5c0.3,0.3,0.4,0.7,0.4,1.2v2.5c0,0.2,0,0.3-0.1,0.3c-0.1,0.1-0.2,0.1-0.3,0.1h-1.9c-0.2,0-0.3,0-0.3-0.1
			c-0.1-0.1-0.1-0.2-0.1-0.3v-1.8c0-0.2,0-0.3-0.1-0.4c-0.1-0.1-0.2-0.1-0.4-0.1h-1.7v2.4c0,0.2,0,0.3-0.1,0.3
			C199.6,320,199.5,320.1,199.3,320.1z M199.8,313.6v1.5h0.9c0.2,0,0.3-0.1,0.4-0.2c0.1-0.1,0.1-0.2,0.1-0.4v-0.4
			c0-0.2,0-0.3-0.1-0.4c-0.1-0.1-0.2-0.2-0.4-0.2H199.8z"/>
		<path class="st7" d="M208.4,319.6c0,0.2,0,0.3-0.1,0.3c-0.1,0.1-0.2,0.1-0.3,0.1h-1.8c-0.2,0-0.3,0-0.3-0.1
			c-0.1-0.1-0.1-0.2-0.1-0.3v-3.2c0-0.2,0-0.5,0.1-0.8c0.1-0.3,0.2-0.7,0.4-1.1l1-2.7c0-0.1,0.1-0.2,0.2-0.3s0.2-0.1,0.4-0.1h3.2
			c0.2,0,0.3,0,0.4,0.1s0.2,0.2,0.2,0.3l1,2.7c0.2,0.4,0.3,0.8,0.4,1.1c0.1,0.3,0.1,0.6,0.1,0.8v3.2c0,0.2,0,0.3-0.1,0.3
			c-0.1,0.1-0.2,0.1-0.3,0.1H211c-0.2,0-0.3,0-0.4-0.1c-0.1-0.1-0.1-0.2-0.1-0.3V318h-2.1V319.6z M209.1,314l-0.6,1.8h1.9l-0.6-1.8
			c0-0.1-0.1-0.1-0.1-0.2c0,0-0.1,0-0.1,0h-0.3c0,0-0.1,0-0.1,0C209.2,313.8,209.1,313.9,209.1,314z"/>
		<path class="st7" d="M217,320.1h-1.8c-0.2,0-0.3,0-0.3-0.1c-0.1-0.1-0.1-0.2-0.1-0.3v-7.8c0-0.2,0-0.3,0.1-0.3
			c0.1-0.1,0.2-0.1,0.3-0.1h4c0.9,0,1.5,0.2,1.9,0.6s0.5,0.9,0.5,1.4v0.6c0,0.3-0.1,0.6-0.1,0.9c-0.1,0.2-0.3,0.4-0.5,0.5
			c0.4,0,0.8,0.2,1,0.5c0.3,0.3,0.4,0.7,0.4,1.2v2.5c0,0.2,0,0.3-0.1,0.3c-0.1,0.1-0.2,0.1-0.3,0.1H220c-0.2,0-0.3,0-0.3-0.1
			c-0.1-0.1-0.1-0.2-0.1-0.3v-1.8c0-0.2,0-0.3-0.1-0.4c-0.1-0.1-0.2-0.1-0.4-0.1h-1.7v2.4c0,0.2,0,0.3-0.1,0.3
			C217.3,320,217.2,320.1,217,320.1z M217.4,313.6v1.5h0.9c0.2,0,0.3-0.1,0.4-0.2c0.1-0.1,0.1-0.2,0.1-0.4v-0.4c0-0.2,0-0.3-0.1-0.4
			c-0.1-0.1-0.2-0.2-0.4-0.2H217.4z"/>
	</g>
</g>
<g id="freepik--Stuff--inject-254">
	<path class="st2" d="M64,407.9c-2.2,3.7-3.7,7.8-4.3,12.1"/>
	<polygon class="st4" points="105.8,374.9 98,371.5 101.7,362.9 107.1,361.1 109.5,366.2 	"/>
	<path class="st2" d="M107.1,361.1c2-3.7,9-10.6,13.8-8.8"/>
	<polygon class="st4" points="260.7,415.4 266.7,421.4 260.1,428.1 254.4,427.8 254.1,422.1 	"/>
	<path class="st2" d="M254.4,427.8c0,0-6.4,9-13.3,8.2"/>
	<polygon class="st4" points="458.6,386.1 454.4,393.5 446.2,388.9 445,383.4 450.4,381.5 	"/>
	<path class="st2" d="M445,383.4c0,0-6.5,0.4-10.2-9.6"/>
	<path class="st2" d="M431,422.7c0,0-0.8-7.5-4.3-11.5"/>
	<rect x="366.3" y="399.8" class="st20" width="62.7" height="38.5"/>
	<g>
		<defs>
			<rect id="SVGID_11_" x="366.3" y="399.8" width="62.7" height="38.5"/>
		</defs>
		<clipPath id="SVGID_12_">
			<use xlink:href="#SVGID_11_"  style="overflow:visible;"/>
		</clipPath>
		<g class="st23">
			<polygon class="st12" points="376.3,399.8 402.9,408.2 402.9,438.2 429.1,438.2 429.1,399.8 			"/>
			<rect x="402.7" y="399.2" class="st12" width="26.4" height="39"/>
		</g>
	</g>
	<rect x="366.3" y="399.8" class="st2" width="62.7" height="38.5"/>
	<polyline class="st2" points="388.8,417.9 387.3,419.8 402.9,438.2 	"/>
	<polyline class="st2" points="402.9,429.6 402.9,399.8 390.5,415.7 	"/>
	<line class="st2" x1="403" y1="433.3" x2="403" y2="435.7"/>
	<line class="st2" x1="369.5" y1="433.7" x2="366.3" y2="438.2"/>
	<polyline class="st2" points="377,416.2 379.3,419.8 371,431.6 	"/>
	<line class="st2" x1="371.3" y1="407.5" x2="375.4" y2="413.8"/>
	<line class="st2" x1="366.3" y1="399.8" x2="369" y2="403.9"/>
	<rect x="376.3" y="370.8" class="st24" width="62.7" height="30.3"/>
	<g>
		<defs>
			<rect id="SVGID_13_" x="376.3" y="370.8" width="62.7" height="30.3"/>
		</defs>
		<clipPath id="SVGID_14_">
			<use xlink:href="#SVGID_13_"  style="overflow:visible;"/>
		</clipPath>
		<g class="st25">
			<rect x="413" y="370.8" class="st12" width="26.1" height="30.3"/>
		</g>
	</g>
	<rect x="376.3" y="370.8" class="st2" width="62.7" height="30.3"/>
	<polyline class="st2" points="398.8,386.8 397.3,385.3 412.9,370.8 	"/>
	<polyline class="st2" points="412.9,377.6 412.9,401.1 400.5,388.5 	"/>
	<line class="st2" x1="413" y1="374.6" x2="413" y2="372.8"/>
	<line class="st2" x1="379.5" y1="374.4" x2="376.3" y2="370.8"/>
	<polyline class="st2" points="387,388.1 389.3,385.3 381,376 	"/>
	<line class="st2" x1="381.3" y1="395" x2="385.4" y2="390"/>
	<line class="st2" x1="376.3" y1="401.1" x2="379" y2="397.9"/>
	<rect x="120.9" y="352.3" class="st5" width="25.5" height="86.1"/>
	<path class="st20" d="M134.3,389.1c-2.1,15.9-4.5,35.6-4.5,49.3h-12.3V352c0-1.7,1.4-3.1,3.2-3.1h15
		C135.7,348.9,136.4,373.3,134.3,389.1z"/>
	<g>
		<defs>
			<path id="SVGID_15_" d="M134.3,389.1c-2.1,15.9-4.5,35.6-4.5,49.3h-12.3V352c0-1.7,1.4-3.1,3.2-3.1h15
				C135.7,348.9,136.4,373.3,134.3,389.1z"/>
		</defs>
		<clipPath id="SVGID_16_">
			<use xlink:href="#SVGID_15_"  style="overflow:visible;"/>
		</clipPath>
		<g class="st26">
			<path class="st27" d="M126.6,348.8v89.6h-9.1V352c0-1.7,1.4-3.1,3.2-3.1L126.6,348.8z"/>
		</g>
	</g>
	<path class="st2" d="M134.3,389.1c-2.1,15.9-4.5,35.6-4.5,49.3h-12.3V352c0-1.7,1.4-3.1,3.2-3.1h15
		C135.7,348.9,136.4,373.3,134.3,389.1z"/>
	<line class="st2" x1="126.6" y1="351" x2="126.6" y2="435.5"/>
	<path class="st15" d="M148.8,438.4V352c0-1.7-1.4-3.1-3.1-3.1h-5c0,0-0.8,24.5,1.3,40.3s4.5,35.6,4.5,49.3L148.8,438.4z"/>
	<path class="st5" d="M131.1,382.3L131.1,382.3c0.5,0,0.9-0.4,0.9-0.9l0,0v-25.7c0-0.5-0.4-0.9-0.9-0.9h0l0,0
		c-0.5,0-0.9,0.4-0.9,0.9l0,0v25.7C130.2,381.9,130.6,382.3,131.1,382.3z"/>
	<path class="st15" d="M224.4,435.4h-57.1c-1-0.1-1.8-0.7-2-1.7l-8.2-37.7c-0.2-0.7,0.2-1.4,0.9-1.6c0.1,0,0.3-0.1,0.4-0.1h57.1
		c1,0.1,1.8,0.7,2,1.7l8.2,37.7c0.2,0.7-0.1,1.4-0.8,1.6C224.7,435.4,224.6,435.4,224.4,435.4z"/>
	<path class="st5" d="M225.4,435.4h-57.1c-1-0.1-1.8-0.7-2-1.7l-8.2-37.7c-0.2-0.7,0.2-1.4,0.9-1.6c0.1,0,0.3-0.1,0.4-0.1h57.1
		c1,0.1,1.8,0.7,2,1.7l8.2,37.7c0.2,0.7-0.1,1.4-0.8,1.6C225.7,435.4,225.6,435.4,225.4,435.4z"/>
	<polygon class="st20" points="224.4,431.5 167.6,431.5 165.1,419.9 160.3,397.6 217,397.6 	"/>
	<path class="st15" d="M251.5,435.1v1.7l-13.8,1.2h-68.9c-0.8,0-1.4-0.6-1.4-1.4v-1.4L251.5,435.1z"/>
	<path class="st28" d="M199.5,435.1v1.7l-13.8,1.2h-16.9c-0.8,0-1.4-0.6-1.4-1.4v-1.4L199.5,435.1z"/>
	<path class="st22" d="M202.4,397.6c-5.2,8-16,18.7-37.2,22.3l-4.9-22.3H202.4z"/>
	<rect x="62" y="407.9" class="st29" width="62.7" height="30.3"/>
	<g>
		<defs>
			<rect id="SVGID_17_" x="62" y="407.9" width="62.7" height="30.3"/>
		</defs>
		<clipPath id="SVGID_18_">
			<use xlink:href="#SVGID_17_"  style="overflow:visible;"/>
		</clipPath>
		<g class="st30">
			<rect x="62" y="407.9" class="st27" width="26.1" height="30.3"/>
		</g>
	</g>
	<rect x="62" y="407.9" class="st2" width="62.7" height="30.3"/>
	<polyline class="st2" points="102.2,422.2 103.7,423.7 88.1,438.2 	"/>
	<polyline class="st2" points="88.1,431.4 88.1,407.9 100.6,420.5 	"/>
	<line class="st2" x1="88.1" y1="434.4" x2="88.1" y2="436.2"/>
	<line class="st2" x1="121.5" y1="434.7" x2="124.7" y2="438.2"/>
	<polyline class="st2" points="114.1,420.9 111.8,423.7 120.1,433 	"/>
	<line class="st2" x1="119.8" y1="414" x2="115.6" y2="419"/>
	<line class="st2" x1="124.7" y1="407.9" x2="122.1" y2="411.1"/>
	<path class="st15" d="M106.1,407.7c-0.2,0-0.3-0.1-0.5-0.1c-2-0.5-3.9-2.9-5.4-4.5c-1.1-1.2-11.9-1.2-13,0c-1.5,1.6-3.4,4-5.4,4.5
		c-0.2,0-0.3,0.1-0.5,0.1c-3.8,0.4,1.8-13.8,3.7-14.7s4.2-0.8,4.5,0.4h8.3c0.3-1.2,2.7-1.2,4.5-0.4S109.8,408.1,106.1,407.7z"/>
	<path class="st5" d="M105.6,407.6c-2-0.5-3.9-2.9-5.4-4.5c-1.1-1.2-11.9-1.2-13,0c-1.5,1.6-3.4,4-5.4,4.5c1.8-1.7,3.9-6.2,4.9-7.3
		c1.2-1.4,1.8-0.6,1.8-0.6h10.3c0,0,0.6-0.8,1.8,0.6C101.7,401.5,103.8,405.9,105.6,407.6z"/>
	<polygon class="st4" points="439.7,433.5 431.7,436.5 428.4,427.7 431,422.7 436.3,424.7 	"/>
	<polygon class="st4" points="62,433.4 53.7,431.8 55.4,422.6 60.2,419.6 63.7,424.1 	"/>
</g>
</svg>
