<svg xmlns="http://www.w3.org/2000/svg" width="203.507" height="248.5" viewBox="0 0 203.507 248.5">   <g id="Grupo_453" data-name="Grupo 453" transform="translate(-727.36 -1832.5)">     <path id="freepik--shadow--inject-270" d="M363.011,331.621l-77.728-44.745a5.238,5.238,0,0,0-4.75,0L165.489,353.317c-1.319.752-1.319,1.979,0,2.738L243.217,400.8a5.238,5.238,0,0,0,4.75,0l115.045-66.441C364.324,333.6,364.324,332.373,363.011,331.621Z" transform="translate(566.871 1679.631)" fill="#e0e0e0"></path>     <g id="freepik--Cart--inject-270" transform="translate(727.36 1845.635)">       <g id="freepik--cargo-car--inject-270" transform="translate(0 0)">         <path id="Caminho_1321" data-name="Caminho 1321" d="M352.688,110.621,398.865,137.3a13.144,13.144,0,0,1,5.937,10.324v91.165l3.918,2.269v-93.79c0-5.343-3.786-11.874-8.411-14.572L352.471,105.06c-4.618-2.639-8.411-.482-8.411,4.862v93.784l3.958,2.282V113.3C348.044,110.35,350.135,109.143,352.688,110.621Z" transform="translate(-221.601 -103.935)" fill="#e0e0e0"></path>         <path id="Caminho_1322" data-name="Caminho 1322" d="M303.13,415.638a16.655,16.655,0,0,1,7.54-13.048c2.183-1.267,4.143-1.319,5.521-.4h0l5.079,2.9-10.805,18.372-5.04-2.9h0C304.021,419.787,303.13,418.092,303.13,415.638Z" transform="translate(-207.671 -205.229)" fill="#455a64"></path>         <path id="Caminho_1323" data-name="Caminho 1323" d="M318.67,407.2a16.654,16.654,0,0,0-7.54,13.048c0,4.8,3.377,6.755,7.54,4.354a16.663,16.663,0,0,0,7.547-13.055C326.216,406.736,322.832,404.789,318.67,407.2Z" transform="translate(-210.393 -206.796)" fill="#37474f"></path>         <path id="Caminho_1324" data-name="Caminho 1324" d="M323.8,417.529c0-1.873-1.148-2.738-2.553-1.926a6.117,6.117,0,0,0-2.553,4.875c0,1.88,1.141,2.744,2.553,1.926A6.109,6.109,0,0,0,323.8,417.529Z" transform="translate(-212.966 -209.904)" fill="#263238"></path>         <path id="Caminho_1325" data-name="Caminho 1325" d="M303.541,395.57s0,8.576,4.1,11.643c.772.574,1.59.97,2.071,1.372,1.049.871.356,2.467-.917,3.153-1.847.99-11.907-1.689-16.168-9.895Z" transform="translate(-204.097 -203.19)" fill="#f0f0f0"></path>         <path id="Caminho_1326" data-name="Caminho 1326" d="M309.461,399s0,8.576,4.1,11.643c.772.574,1.59.97,2.078,1.372,1.042.871.35,2.474-.924,3.153-1.847.989-11.907-1.689-16.168-9.895Z" transform="translate(-206.112 -204.357)" fill="#fafafa"></path>         <path id="Caminho_1327" data-name="Caminho 1327" d="M322.186,419.6a1.6,1.6,0,0,0-.726,1.253c0,.462.323.66.726.416a1.6,1.6,0,0,0,.719-1.253C322.9,419.56,322.581,419.368,322.186,419.6Z" transform="translate(-213.909 -211.335)" fill="#263238"></path>         <path id="Caminho_1328" data-name="Caminho 1328" d="M427.17,344.026a16.656,16.656,0,0,1,7.54-13.055c2.183-1.26,4.143-1.319,5.521-.389h0l5.079,2.9L434.505,351.85l-5.04-2.9h0C428.061,348.175,427.17,346.473,427.17,344.026Z" transform="translate(-249.886 -180.856)" fill="#455a64"></path>         <path id="Caminho_1329" data-name="Caminho 1329" d="M442.71,335.579a16.656,16.656,0,0,0-7.54,13.055c0,4.809,3.377,6.755,7.54,4.354a16.635,16.635,0,0,0,7.52-13.055C450.23,335.124,446.872,333.178,442.71,335.579Z" transform="translate(-252.609 -182.423)" fill="#37474f"></path>         <path id="Caminho_1330" data-name="Caminho 1330" d="M447.836,345.917c0-1.88-1.148-2.744-2.553-1.926a6.127,6.127,0,0,0-2.553,4.875c0,1.88,1.141,2.738,2.553,1.926A6.1,6.1,0,0,0,447.836,345.917Z" transform="translate(-255.182 -185.53)" fill="#263238"></path>         <path id="Caminho_1331" data-name="Caminho 1331" d="M427.581,324s0,8.576,4.1,11.643c.772.574,1.59.97,2.071,1.372,1.049.871.356,2.474-.917,3.153-1.847.989-11.907-1.689-16.168-9.895Z" transform="translate(-246.313 -178.832)" fill="#f0f0f0"></path>         <path id="Caminho_1332" data-name="Caminho 1332" d="M433.5,327.35s0,8.576,4.1,11.643c.772.574,1.59.97,2.078,1.379,1.042.864.35,2.467-.924,3.147-1.847.989-11.907-1.689-16.168-9.895Z" transform="translate(-248.328 -179.972)" fill="#fafafa"></path>         <path id="Caminho_1333" data-name="Caminho 1333" d="M446.226,347.959a1.6,1.6,0,0,0-.726,1.253c0,.455.323.66.726.416a1.6,1.6,0,0,0,.719-1.253A.451.451,0,0,0,446.226,347.959Z" transform="translate(-256.125 -186.959)" fill="#263238"></path>         <path id="Caminho_1334" data-name="Caminho 1334" d="M349.53,293.632l-72.563-41.9L158.42,320.17l72.556,41.908Z" transform="translate(-158.42 -154.235)" fill="#455a64"></path>         <path id="Caminho_1335" data-name="Caminho 1335" d="M386.964,315.25v4.558L268.41,388.255V383.7Z" transform="translate(-195.854 -175.854)" fill="#37474f"></path>         <path id="Caminho_1336" data-name="Caminho 1336" d="M158.42,355.48v4.558l72.556,41.908v-4.558Z" transform="translate(-158.42 -189.546)" fill="#263238"></path>       </g>     </g>     <g id="freepik--Boxes--inject-270" transform="translate(732.829 1849.932)">       <g id="freepik--Box--inject-270" transform="translate(49.389 59.594)">         <path id="freepik--shadow--inject-270-2" data-name="freepik--shadow--inject-270" d="M367.285,296.716,305.052,332.66l-63.472-36.6,62.4-35.852Z" transform="translate(-241.58 -221.013)" opacity="0.1"></path>         <g id="freepik--box--inject-270-2" data-name="freepik--box--inject-270" transform="translate(6.359)">           <path id="Caminho_1337" data-name="Caminho 1337" d="M368.448,233.753,311.454,200.79,251.22,235.653l56.995,32.963Z" transform="translate(-251.22 -200.79)" fill="#8f00fc"></path>           <path id="Caminho_1338" data-name="Caminho 1338" d="M368.448,233.753,311.454,200.79,251.22,235.653l56.995,32.963Z" transform="translate(-251.22 -200.79)" fill="#fff" opacity="0.7"></path>           <path id="Caminho_1339" data-name="Caminho 1339" d="M337.62,325.46,397.854,290.6V250.76L337.62,285.623Z" transform="translate(-280.625 -217.797)" fill="#8f00fc"></path>           <path id="Caminho_1340" data-name="Caminho 1340" d="M337.62,325.46,397.854,290.6V250.76L337.62,285.623Z" transform="translate(-280.625 -217.797)" fill="#fff" opacity="0.6"></path>           <path id="Caminho_1341" data-name="Caminho 1341" d="M347.087,339.868a1.029,1.029,0,0,1-.521-.139,1.577,1.577,0,0,1-.66-1.431v-4.222h0v-.31l.218.04,3.3-1.946v4.71a3.806,3.806,0,0,1-1.629,3.081A1.438,1.438,0,0,1,347.087,339.868Zm-.66-5.475V338.3a1.1,1.1,0,0,0,.376.976.765.765,0,0,0,.719-.079,3.351,3.351,0,0,0,1.366-2.639v-.343h-1.227l-.237-1.656Zm1.7,1.319h.765V332.8l-1.979,1.161.976.178Z" transform="translate(-283.443 -245.398)" fill="#455a64"></path>           <path id="Caminho_1342" data-name="Caminho 1342" d="M348.464,346.967a.264.264,0,0,1-.264-.264v-3.549a.264.264,0,0,1,.528,0V346.7A.264.264,0,0,1,348.464,346.967Z" transform="translate(-284.226 -249.152)" fill="#455a64"></path>           <path id="Caminho_1343" data-name="Caminho 1343" d="M346.132,349.227a.257.257,0,0,1-.231-.132.264.264,0,0,1,.092-.363l3.087-1.781a.264.264,0,0,1,.363.1.27.27,0,0,1-.1.363l-3.081,1.781A.349.349,0,0,1,346.132,349.227Z" transform="translate(-283.431 -250.522)" fill="#455a64"></path>           <path id="Caminho_1344" data-name="Caminho 1344" d="M362.6,337.678a.66.66,0,0,1-.3-.073.712.712,0,0,1-.317-.66v-.693a.27.27,0,0,1,.534,0v.726c0,.112,0,.165.053.178s.079,0,.172-.046a1.577,1.577,0,0,0,.495-1.2v-4.717a.264.264,0,1,1,.528,0v4.717a2.019,2.019,0,0,1-.752,1.656.811.811,0,0,1-.416.112Z" transform="translate(-288.918 -245.082)" fill="#455a64"></path>           <path id="Caminho_1345" data-name="Caminho 1345" d="M358.68,331.363V330.9a7.507,7.507,0,0,1,3.391-5.878,2.243,2.243,0,0,1,3.661,2.111v.152Zm4.98-6.293a2.678,2.678,0,0,0-1.319.416,7.012,7.012,0,0,0-3.1,4.947l5.937-3.45a1.979,1.979,0,0,0-.818-1.728,1.392,1.392,0,0,0-.7-.185Z" transform="translate(-287.793 -242.889)" fill="#455a64"></path>           <path id="Caminho_1346" data-name="Caminho 1346" d="M377.224,328.007a.264.264,0,0,1-.264-.264v-9.031a.27.27,0,0,1,.534,0v9.031a.264.264,0,0,1-.27.264Z" transform="translate(-294.014 -240.846)" fill="#455a64"></path>           <path id="Caminho_1347" data-name="Caminho 1347" d="M376.052,320.693a.271.271,0,0,1-.106,0,.264.264,0,0,1-.138-.35l.943-2.183,1.055,1.22a.264.264,0,0,1-.4.343l-.5-.574-.607,1.405A.27.27,0,0,1,376.052,320.693Z" transform="translate(-293.615 -240.736)" fill="#455a64"></path>           <path id="Caminho_1348" data-name="Caminho 1348" d="M380.949,325.843a.264.264,0,0,1-.27-.264v-9.031a.27.27,0,1,1,.534,0v9.031A.264.264,0,0,1,380.949,325.843Z" transform="translate(-295.279 -240.081)" fill="#455a64"></path>           <path id="Caminho_1349" data-name="Caminho 1349" d="M379.772,318.527a.27.27,0,0,1-.106,0,.264.264,0,0,1-.138-.35l.963-2.177,1.055,1.214a.267.267,0,1,1-.4.35l-.5-.58-.607,1.412a.27.27,0,0,1-.264.132Z" transform="translate(-294.881 -240.001)" fill="#455a64"></path>           <path id="Caminho_1350" data-name="Caminho 1350" d="M308.215,326.44,251.22,293.483V253.64L308.215,286.6Z" transform="translate(-251.22 -218.777)" fill="#8f00fc"></path>           <path id="Caminho_1351" data-name="Caminho 1351" d="M308.215,326.44,251.22,293.483V253.64L308.215,286.6Z" transform="translate(-251.22 -218.777)" fill="#fff" opacity="0.5"></path>           <path id="Caminho_1352" data-name="Caminho 1352" d="M287.49,280.636l3.905,2.25v-6.056l-3.905-2.249Z" transform="translate(-263.564 -225.904)" fill="#37474f"></path>           <path id="Caminho_1353" data-name="Caminho 1353" d="M291.4,258.849l60.234-34.863-3.905-2.256L287.49,256.593Z" transform="translate(-263.564 -207.917)" fill="#455a64"></path>           <path id="Caminho_1354" data-name="Caminho 1354" d="M290.17,272.373l3.9,2.256,2.177-1.253-3.9-2.256Z" transform="translate(-264.476 -224.726)" fill="#37474f"></path>           <path id="Caminho_1355" data-name="Caminho 1355" d="M376.677,232.8l-15.957,9.189c-.29.171-.211.482.172.706l18.015,10.4a1.4,1.4,0,0,0,1.22.1l15.957-9.2c.29-.165.211-.482-.172-.706l-18.048-10.4A1.379,1.379,0,0,0,376.677,232.8Z" transform="translate(-288.427 -211.655)" fill="#fafafa"></path>           <path id="Caminho_1356" data-name="Caminho 1356" d="M389.3,251.773a.329.329,0,0,0,.165-.613L374.5,242.525a.33.33,0,0,0-.33.567l14.961,8.635a.284.284,0,0,0,.165.046Z" transform="translate(-293.019 -214.984)" fill="#e0e0e0"></path>           <path id="Caminho_1357" data-name="Caminho 1357" d="M386.764,253.212a.33.33,0,0,0,.165-.613l-14.954-8.622a.336.336,0,0,0-.455.119.343.343,0,0,0,.125.455l14.955,8.628A.3.3,0,0,0,386.764,253.212Z" transform="translate(-292.149 -215.473)" fill="#e0e0e0"></path>           <path id="Caminho_1358" data-name="Caminho 1358" d="M384.244,254.646a.33.33,0,0,0,.165-.613L369.454,245.4a.331.331,0,1,0-.33.574l14.954,8.635a.377.377,0,0,0,.165.04Z" transform="translate(-291.291 -215.957)" fill="#e0e0e0"></path>           <path id="Caminho_1359" data-name="Caminho 1359" d="M381.709,256.086a.336.336,0,0,0,.29-.165.343.343,0,0,0-.125-.455l-14.954-8.628a.33.33,0,1,0-.33.567l14.954,8.635A.31.31,0,0,0,381.709,256.086Z" transform="translate(-290.419 -216.44)" fill="#e0e0e0"></path>           <path id="Caminho_1360" data-name="Caminho 1360" d="M408.275,249.026l-.587-.336-6.808,3.932.58.336Z" transform="translate(-302.155 -217.092)" fill="#455a64"></path>           <path id="Caminho_1361" data-name="Caminho 1361" d="M404.464,246.831l-1.009-.58-6.814,3.938,1.009.574Z" transform="translate(-300.712 -216.262)" fill="#455a64"></path>           <path id="Caminho_1362" data-name="Caminho 1362" d="M401.095,244.876l-.581-.336-6.814,3.938.58.33Z" transform="translate(-299.712 -215.68)" fill="#455a64"></path>           <path id="Caminho_1363" data-name="Caminho 1363" d="M398.1,243.136l-1.174-.666L390.11,246.4l1.174.666Z" transform="translate(-298.49 -214.975)" fill="#455a64"></path>           <path id="Caminho_1364" data-name="Caminho 1364" d="M393.915,240.736l-.581-.336-6.814,3.932.58.336Z" transform="translate(-297.268 -214.271)" fill="#455a64"></path>           <path id="Caminho_1365" data-name="Caminho 1365" d="M391,239.032l-1.26-.712-6.814,3.938,1.26.712Z" transform="translate(-296.046 -213.563)" fill="#455a64"></path>           <path id="Caminho_1366" data-name="Caminho 1366" d="M386.745,236.586l-.587-.336-6.808,3.938.581.33Z" transform="translate(-294.828 -212.858)" fill="#455a64"></path>           <path id="Caminho_1367" data-name="Caminho 1367" d="M384.855,235.485l-.29-.165-6.814,3.932.29.171Z" transform="translate(-294.283 -212.542)" fill="#455a64"></path>           <path id="Caminho_1368" data-name="Caminho 1368" d="M388.475,237.652l-.29-.172-6.814,3.932.29.171Z" transform="translate(-295.515 -213.277)" fill="#455a64"></path>           <path id="Caminho_1369" data-name="Caminho 1369" d="M395.745,241.8l-.29-.172-6.814,3.938.29.165Z" transform="translate(-297.99 -214.689)" fill="#455a64"></path>           <path id="Caminho_1370" data-name="Caminho 1370" d="M399.694,244.091l-.29-.171-6.814,3.938.29.165Z" transform="translate(-299.334 -215.469)" fill="#455a64"></path>           <path id="Caminho_1371" data-name="Caminho 1371" d="M402.495,245.762l-.29-.172-6.814,3.938.29.165Z" transform="translate(-300.287 -216.037)" fill="#455a64"></path>           <path id="Caminho_1372" data-name="Caminho 1372" d="M406.424,247.945l-.29-.165-6.814,3.932.29.165Z" transform="translate(-301.624 -216.783)" fill="#455a64"></path>           <path id="Caminho_1373" data-name="Caminho 1373" d="M383.155,234.516l-.587-.336-6.808,3.932.58.336Z" transform="translate(-293.606 -212.154)" fill="#455a64"></path>           <path id="Caminho_1374" data-name="Caminho 1374" d="M400.88,299.918v9.994c0,.383.27.541.607.35l15.6-9.011a1.319,1.319,0,0,0,.6-1.042v-10c0-.383-.27-.541-.6-.35l-15.6,9.018A1.319,1.319,0,0,0,400.88,299.918Z" transform="translate(-302.155 -231.076)" fill="#fafafa"></path>           <path id="Caminho_1375" data-name="Caminho 1375" d="M424.631,292.07l-.5.29v9.084l.5-.29Z" transform="translate(-310.068 -231.856)" fill="#455a64"></path>           <path id="Caminho_1376" data-name="Caminho 1376" d="M421.331,293.87l-.871.508v9.083l.871-.508Z" transform="translate(-308.819 -232.469)" fill="#455a64"></path>           <path id="Caminho_1377" data-name="Caminho 1377" d="M418.411,295.66l-.5.29v9.084l.5-.29Z" transform="translate(-307.951 -233.078)" fill="#455a64"></path>           <path id="Caminho_1378" data-name="Caminho 1378" d="M415.809,296.99l-1.009.594v9.09l1.009-.6Z" transform="translate(-306.893 -233.531)" fill="#455a64"></path>           <path id="Caminho_1379" data-name="Caminho 1379" d="M412.191,299.25l-.5.29v9.083l.5-.29Z" transform="translate(-305.834 -234.3)" fill="#455a64"></path>           <path id="Caminho_1380" data-name="Caminho 1380" d="M409.662,300.51l-1.082.64v9.083l1.082-.64Z" transform="translate(-304.776 -234.729)" fill="#455a64"></path>           <path id="Caminho_1381" data-name="Caminho 1381" d="M405.981,302.83l-.5.3v9.084l.5-.29Z" transform="translate(-303.721 -235.518)" fill="#455a64"></path>           <path id="Caminho_1382" data-name="Caminho 1382" d="M404.331,303.84l-.251.145v9.083l.251-.139Z" transform="translate(-303.244 -235.862)" fill="#455a64"></path>           <path id="Caminho_1383" data-name="Caminho 1383" d="M407.527,302.08l-.257.152v9.084l.257-.145Z" transform="translate(-304.33 -235.263)" fill="#455a64"></path>           <path id="Caminho_1384" data-name="Caminho 1384" d="M413.791,298.42l-.251.145v9.083l.251-.145Z" transform="translate(-306.464 -234.017)" fill="#455a64"></path>           <path id="Caminho_1385" data-name="Caminho 1385" d="M417.217,296.45l-.257.145v9.083l.257-.145Z" transform="translate(-307.628 -233.347)" fill="#455a64"></path>           <path id="Caminho_1386" data-name="Caminho 1386" d="M419.681,295.09l-.251.145v9.084l.251-.145Z" transform="translate(-308.469 -232.884)" fill="#455a64"></path>           <path id="Caminho_1387" data-name="Caminho 1387" d="M423.021,293.06l-.251.145v9.083l.251-.145Z" transform="translate(-309.605 -232.193)" fill="#455a64"></path>           <path id="Caminho_1388" data-name="Caminho 1388" d="M402.871,304.63l-.5.29V314l.5-.29Z" transform="translate(-302.662 -236.131)" fill="#455a64"></path>         </g>       </g>       <g id="freepik--box--inject-270-3" data-name="freepik--box--inject-270" transform="translate(53.789 15.871)">         <path id="freepik--shadow--inject-270-3" data-name="freepik--shadow--inject-270" d="M364.351,232.021l-55.3,31.961L250.56,230.141l55.293-31.961Z" transform="translate(-249.036 -156.179)" opacity="0.1"></path>         <g id="freepik--box--inject-270-4" data-name="freepik--box--inject-270">           <path id="Caminho_1389" data-name="Caminho 1389" d="M248.25,165.191,301.3,134.51l60.022,34.731-53.043,30.681Z" transform="translate(-248.25 -134.51)" fill="#8f00fc"></path>           <path id="Caminho_1390" data-name="Caminho 1390" d="M248.25,165.191,301.3,134.51l60.022,34.731-53.043,30.681Z" transform="translate(-248.25 -134.51)" fill="#fff" opacity="0.3"></path>           <path id="Caminho_1391" data-name="Caminho 1391" d="M276.694,164.5l15.97,9.189c.29.165.211.482-.172.706l-18.015,10.4a1.379,1.379,0,0,1-1.22.106L257.3,175.7c-.29-.172-.211-.482.172-.706l18.042-10.4a1.319,1.319,0,0,1,1.181-.1Z" transform="translate(-251.27 -144.685)" fill="#fafafa"></path>           <path id="Caminho_1392" data-name="Caminho 1392" d="M274.408,183.456a.343.343,0,0,1-.29-.165.33.33,0,0,1,.125-.449l14.954-8.635a.33.33,0,1,1,.33.567l-14.954,8.635A.31.31,0,0,1,274.408,183.456Z" transform="translate(-257.04 -147.999)" fill="#e0e0e0"></path>           <path id="Caminho_1393" data-name="Caminho 1393" d="M276.921,184.9a.329.329,0,0,1-.165-.613l14.961-8.635a.33.33,0,1,1,.33.567l-14.961,8.635A.284.284,0,0,1,276.921,184.9Z" transform="translate(-257.896 -148.489)" fill="#e0e0e0"></path>           <path id="Caminho_1394" data-name="Caminho 1394" d="M279.442,186.345a.33.33,0,0,1-.165-.613l14.935-8.635a.323.323,0,0,1,.449.119.336.336,0,0,1-.119.455L279.587,186.3A.356.356,0,0,1,279.442,186.345Z" transform="translate(-258.755 -148.988)" fill="#e0e0e0"></path>           <path id="Caminho_1395" data-name="Caminho 1395" d="M281.961,187.786a.317.317,0,0,1-.284-.165.33.33,0,0,1,.119-.449l14.954-8.635a.331.331,0,1,1,.33.574l-14.954,8.635A.376.376,0,0,1,281.961,187.786Z" transform="translate(-259.612 -149.479)" fill="#e0e0e0"></path>           <path id="Caminho_1396" data-name="Caminho 1396" d="M259.66,180.726l.581-.336,6.814,3.932-.587.336Z" transform="translate(-252.133 -150.125)" fill="#455a64"></path>           <path id="Caminho_1397" data-name="Caminho 1397" d="M263.25,178.524l1-.574,6.814,3.932-1.009.58Z" transform="translate(-253.355 -149.294)" fill="#455a64"></path>           <path id="Caminho_1398" data-name="Caminho 1398" d="M266.83,176.576l.587-.336,6.808,3.932-.581.336Z" transform="translate(-254.574 -148.712)" fill="#455a64"></path>           <path id="Caminho_1399" data-name="Caminho 1399" d="M269.52,174.836l1.174-.666,6.814,3.932-1.174.666Z" transform="translate(-255.489 -148.008)" fill="#455a64"></path>           <path id="Caminho_1400" data-name="Caminho 1400" d="M274.01,172.43l.58-.33,6.814,3.932-.581.336Z" transform="translate(-257.017 -147.303)" fill="#455a64"></path>           <path id="Caminho_1401" data-name="Caminho 1401" d="M276.57,170.732l1.26-.712,6.814,3.938-1.26.706Z" transform="translate(-257.888 -146.596)" fill="#455a64"></path>           <path id="Caminho_1402" data-name="Caminho 1402" d="M281.19,168.286l.58-.336,6.814,3.932-.587.336Z" transform="translate(-259.461 -145.891)" fill="#455a64"></path>           <path id="Caminho_1403" data-name="Caminho 1403" d="M283.23,167.185l.29-.165,6.808,3.932-.29.165Z" transform="translate(-260.155 -145.574)" fill="#455a64"></path>           <path id="Caminho_1404" data-name="Caminho 1404" d="M279.6,169.345l.29-.165,6.814,3.932-.29.172Z" transform="translate(-258.92 -146.31)" fill="#455a64"></path>           <path id="Caminho_1405" data-name="Caminho 1405" d="M272.33,173.5l.29-.172,6.814,3.932-.29.172Z" transform="translate(-256.445 -147.722)" fill="#455a64"></path>           <path id="Caminho_1406" data-name="Caminho 1406" d="M268.38,175.792l.29-.172,6.814,3.938-.29.165Z" transform="translate(-255.101 -148.501)" fill="#455a64"></path>           <path id="Caminho_1407" data-name="Caminho 1407" d="M265.58,177.462l.3-.172,6.808,3.932-.29.172Z" transform="translate(-254.148 -149.07)" fill="#455a64"></path>           <path id="Caminho_1408" data-name="Caminho 1408" d="M261.65,179.642l.3-.171,6.808,3.938-.29.165Z" transform="translate(-252.811 -149.812)" fill="#455a64"></path>           <path id="Caminho_1409" data-name="Caminho 1409" d="M284.78,166.216l.581-.336,6.814,3.932-.587.336Z" transform="translate(-260.683 -145.187)" fill="#455a64"></path>           <path id="Caminho_1410" data-name="Caminho 1410" d="M308.279,255.595,248.25,220.863V181.02l60.029,34.731Z" transform="translate(-248.25 -150.339)" fill="#8f00fc"></path>           <path id="Caminho_1411" data-name="Caminho 1411" d="M339.25,257.684,392.293,227V187.16L339.25,217.841Z" transform="translate(-279.221 -152.429)" fill="#8f00fc"></path>           <path id="Caminho_1412" data-name="Caminho 1412" d="M339.25,257.684,392.293,227V187.16L339.25,217.841Z" transform="translate(-279.221 -152.429)" opacity="0.1"></path>           <path id="Caminho_1413" data-name="Caminho 1413" d="M381.379,214.156l-3.9,2.249v-6.056l3.9-2.249Z" transform="translate(-292.232 -159.556)" fill="#37474f"></path>           <path id="Caminho_1414" data-name="Caminho 1414" d="M346.509,192.437,286.48,157.706l3.9-2.256,60.029,34.731Z" transform="translate(-261.261 -141.637)" fill="#455a64"></path>           <path id="Caminho_1415" data-name="Caminho 1415" d="M305.172,261.736a3.3,3.3,0,0,1-1.392-2.639V255.06l2.83,1.662h.185V257h0v3.608a1.319,1.319,0,0,1-.554,1.22.851.851,0,0,1-.442.119A1.32,1.32,0,0,1,305.172,261.736Zm.317-4.347-.2,1.418h-1.049v.3a2.85,2.85,0,0,0,1.168,2.236.62.62,0,0,0,.613.073.93.93,0,0,0,.323-.831v-3.344Zm-.4-.389.838-.145-1.689-1v2.493h.66Z" transform="translate(-267.149 -175.538)" fill="#455a64"></path>           <path id="Caminho_1416" data-name="Caminho 1416" d="M305.951,268.023a.224.224,0,0,0,.224-.224v-3.034a.224.224,0,0,0-.224-.224.231.231,0,0,0-.231.224V267.8A.231.231,0,0,0,305.951,268.023Z" transform="translate(-267.809 -178.764)" fill="#455a64"></path>           <path id="Caminho_1417" data-name="Caminho 1417" d="M306.585,269.981a.224.224,0,0,0,.119-.422l-2.639-1.524a.227.227,0,1,0-.224.4l2.639,1.517A.2.2,0,0,0,306.585,269.981Z" transform="translate(-267.13 -179.944)" fill="#455a64"></path>           <path id="Caminho_1418" data-name="Caminho 1418" d="M319.482,275.089a.54.54,0,0,0,.251-.059.613.613,0,0,0,.27-.548v-.62a.228.228,0,1,0-.455,0v.62a.224.224,0,0,1-.04.152.211.211,0,0,1-.152-.04,1.319,1.319,0,0,1-.422-1.022v-4.03a.228.228,0,1,0-.455,0v4.03a1.722,1.722,0,0,0,.66,1.412A.66.66,0,0,0,319.482,275.089Z" transform="translate(-272.152 -180.388)" fill="#455a64"></path>           <path id="Caminho_1419" data-name="Caminho 1419" d="M314.5,266.218v-.132a1.926,1.926,0,0,1,3.133-1.807,6.425,6.425,0,0,1,2.9,5.027v.4Zm1.161-1.742a1.689,1.689,0,0,0-.706,1.484l5.1,2.942a5.983,5.983,0,0,0-2.639-4.228,2.316,2.316,0,0,0-1.128-.35A1.247,1.247,0,0,0,315.656,264.476Z" transform="translate(-270.786 -178.523)" fill="#455a64"></path>           <path id="Caminho_1420" data-name="Caminho 1420" d="M333.741,281.567a.224.224,0,0,0,.224-.224v-7.718a.224.224,0,0,0-.224-.224.231.231,0,0,0-.231.224v7.718A.231.231,0,0,0,333.741,281.567Z" transform="translate(-277.267 -181.78)" fill="#455a64"></path>           <path id="Caminho_1421" data-name="Caminho 1421" d="M334.071,275.283a.231.231,0,0,0,.211-.317L333.5,273.1l-.9,1.042a.224.224,0,0,0,0,.317.238.238,0,0,0,.323,0l.429-.495.521,1.2A.224.224,0,0,0,334.071,275.283Z" transform="translate(-276.938 -181.678)" fill="#455a64"></path>           <path id="Caminho_1422" data-name="Caminho 1422" d="M330.554,279.783a.231.231,0,0,0,.231-.224v-7.718a.228.228,0,1,0-.455,0v7.718A.224.224,0,0,0,330.554,279.783Z" transform="translate(-276.185 -181.171)" fill="#455a64"></path>           <path id="Caminho_1423" data-name="Caminho 1423" d="M330.879,273.474a.224.224,0,0,0,.092,0,.237.237,0,0,0,.119-.3l-.811-1.86-.9,1.036a.227.227,0,0,0,.343.3l.429-.495.521,1.207A.218.218,0,0,0,330.879,273.474Z" transform="translate(-275.843 -181.069)" fill="#455a64"></path>           <path id="Caminho_1424" data-name="Caminho 1424" d="M267.342,230.752v9.961c0,.383-.27.541-.607.35l-15.575-8.991a1.359,1.359,0,0,1-.6-1.049V221.009c0-.383.27-.541.607-.343l15.594,9.011A1.319,1.319,0,0,1,267.342,230.752Z" transform="translate(-249.036 -163.803)" fill="#fafafa"></path>           <path id="Caminho_1425" data-name="Caminho 1425" d="M252.03,222.88l.5.29v9.084l-.5-.29Z" transform="translate(-249.536 -164.586)" fill="#455a64"></path>           <path id="Caminho_1426" data-name="Caminho 1426" d="M255.13,224.67l.871.508v9.084l-.871-.508Z" transform="translate(-250.592 -165.195)" fill="#455a64"></path>           <path id="Caminho_1427" data-name="Caminho 1427" d="M258.24,226.46l.5.29v9.084l-.5-.29Z" transform="translate(-251.65 -165.804)" fill="#455a64"></path>           <path id="Caminho_1428" data-name="Caminho 1428" d="M260.58,227.79l1.009.6v9.083l-1.009-.6Z" transform="translate(-252.446 -166.257)" fill="#455a64"></path>           <path id="Caminho_1429" data-name="Caminho 1429" d="M264.46,230.05l.5.29v9.083l-.5-.29Z" transform="translate(-253.767 -167.026)" fill="#455a64"></path>           <path id="Caminho_1430" data-name="Caminho 1430" d="M266.7,231.31l1.075.64v9.09l-1.075-.646Z" transform="translate(-254.529 -167.455)" fill="#455a64"></path>           <path id="Caminho_1431" data-name="Caminho 1431" d="M270.68,233.64l.5.29v9.084l-.5-.29Z" transform="translate(-255.884 -168.248)" fill="#455a64"></path>           <path id="Caminho_1432" data-name="Caminho 1432" d="M272.45,234.65l.251.145v9.084l-.251-.145Z" transform="translate(-256.486 -168.592)" fill="#455a64"></path>           <path id="Caminho_1433" data-name="Caminho 1433" d="M269.26,232.89l.251.145v9.084l-.251-.145Z" transform="translate(-255.401 -167.993)" fill="#455a64"></path>           <path id="Caminho_1434" data-name="Caminho 1434" d="M263,229.22l.251.145v9.084L263,238.3Z" transform="translate(-253.27 -166.744)" fill="#455a64"></path>           <path id="Caminho_1435" data-name="Caminho 1435" d="M259.57,227.25l.251.145v9.084l-.251-.145Z" transform="translate(-252.103 -166.073)" fill="#455a64"></path>           <path id="Caminho_1436" data-name="Caminho 1436" d="M257.1,225.89l.257.145v9.084l-.257-.145Z" transform="translate(-251.262 -165.61)" fill="#455a64"></path>           <path id="Caminho_1437" data-name="Caminho 1437" d="M253.76,223.87l.257.145v9.077l-.257-.145Z" transform="translate(-250.125 -164.923)" fill="#455a64"></path>           <path id="Caminho_1438" data-name="Caminho 1438" d="M273.78,235.43l.508.29V244.8l-.508-.29Z" transform="translate(-256.939 -168.857)" fill="#455a64"></path>         </g>       </g>       <g id="freepik--box--inject-270-5" data-name="freepik--box--inject-270" transform="translate(50.18 0)">         <path id="freepik--shadow--inject-270-4" data-name="freepik--shadow--inject-270" d="M246.81,166.777,304.3,200.044l45.048-26.01L291.759,140.78Z" transform="translate(-244.152 -120.773)" opacity="0.1"></path>         <g id="freepik--box--inject-270-6" data-name="freepik--box--inject-270">           <path id="Caminho_1439" data-name="Caminho 1439" d="M242.78,138.294l48.234-27.844,56.269,32.488-48.234,27.844Z" transform="translate(-242.78 -110.45)" fill="#8f00fc"></path>           <path id="Caminho_1440" data-name="Caminho 1440" d="M242.78,138.294l48.234-27.844,56.269,32.488-48.234,27.844Z" transform="translate(-242.78 -110.45)" opacity="0.1"></path>           <path id="Caminho_1441" data-name="Caminho 1441" d="M271.223,136.139l15.951,9.189c.29.171.211.482-.172.706l-18.015,10.429a1.4,1.4,0,0,1-1.22.1L251.81,147.34c-.29-.165-.211-.482.171-.706L270,136.238A1.379,1.379,0,0,1,271.223,136.139Z" transform="translate(-245.793 -119.16)" fill="#fafafa"></path>           <path id="Caminho_1442" data-name="Caminho 1442" d="M268.941,155.1a.33.33,0,0,1-.165-.613l14.955-8.635a.33.33,0,1,1,.33.567l-14.954,8.635a.31.31,0,0,1-.165.046Z" transform="translate(-251.573 -122.476)" fill="#e0e0e0"></path>           <path id="Caminho_1443" data-name="Caminho 1443" d="M271.462,156.546a.33.33,0,0,1-.165-.613l14.954-8.635a.33.33,0,0,1,.449.119.336.336,0,0,1-.119.455L271.626,156.5A.31.31,0,0,1,271.462,156.546Z" transform="translate(-252.43 -122.976)" fill="#e0e0e0"></path>           <path id="Caminho_1444" data-name="Caminho 1444" d="M273.972,157.986a.33.33,0,0,1-.165-.613l14.954-8.635a.331.331,0,0,1,.33.574l-14.954,8.635A.357.357,0,0,1,273.972,157.986Z" transform="translate(-253.285 -123.466)" fill="#e0e0e0"></path>           <path id="Caminho_1445" data-name="Caminho 1445" d="M276.491,159.426a.33.33,0,0,1-.284-.165.336.336,0,0,1,.119-.455l14.954-8.628a.33.33,0,1,1,.33.567l-14.954,8.635a.31.31,0,0,1-.165.046Z" transform="translate(-254.141 -123.949)" fill="#e0e0e0"></path>           <path id="Caminho_1446" data-name="Caminho 1446" d="M254.19,152.366l.581-.336,6.814,3.932L261,156.3Z" transform="translate(-246.663 -124.601)" fill="#455a64"></path>           <path id="Caminho_1447" data-name="Caminho 1447" d="M257.77,150.171l1.016-.58,6.808,3.938-1.009.574Z" transform="translate(-247.882 -123.771)" fill="#455a64"></path>           <path id="Caminho_1448" data-name="Caminho 1448" d="M261.36,148.216l.587-.336,6.808,3.938-.581.33Z" transform="translate(-249.104 -123.189)" fill="#455a64"></path>           <path id="Caminho_1449" data-name="Caminho 1449" d="M264.05,146.476l1.174-.666,6.814,3.932-1.174.666Z" transform="translate(-250.019 -122.484)" fill="#455a64"></path>           <path id="Caminho_1450" data-name="Caminho 1450" d="M268.54,144.076l.581-.336,6.814,3.932-.581.336Z" transform="translate(-251.547 -121.78)" fill="#455a64"></path>           <path id="Caminho_1451" data-name="Caminho 1451" d="M271.1,142.372l1.26-.712,6.814,3.938-1.26.712Z" transform="translate(-252.418 -121.072)" fill="#455a64"></path>           <path id="Caminho_1452" data-name="Caminho 1452" d="M275.72,139.926l.581-.336,6.814,3.938-.581.33Z" transform="translate(-253.991 -120.368)" fill="#455a64"></path>           <path id="Caminho_1453" data-name="Caminho 1453" d="M277.75,138.825l.3-.165,6.808,3.932-.29.172Z" transform="translate(-254.682 -120.051)" fill="#455a64"></path>           <path id="Caminho_1454" data-name="Caminho 1454" d="M274.13,140.992l.29-.171,6.814,3.932-.29.171Z" transform="translate(-253.45 -120.786)" fill="#455a64"></path>           <path id="Caminho_1455" data-name="Caminho 1455" d="M266.86,145.142l.3-.172,6.808,3.938-.29.165Z" transform="translate(-250.975 -122.199)" fill="#455a64"></path>           <path id="Caminho_1456" data-name="Caminho 1456" d="M262.91,147.432l.3-.172,6.808,3.938-.29.165Z" transform="translate(-249.631 -122.978)" fill="#455a64"></path>           <path id="Caminho_1457" data-name="Caminho 1457" d="M260.12,149.1l.29-.171,6.808,3.938-.29.165Z" transform="translate(-248.682 -123.546)" fill="#455a64"></path>           <path id="Caminho_1458" data-name="Caminho 1458" d="M256.19,151.285l.29-.165,6.808,3.932-.29.165Z" transform="translate(-247.344 -124.292)" fill="#455a64"></path>           <path id="Caminho_1459" data-name="Caminho 1459" d="M279.31,137.856l.581-.336,6.814,3.932-.587.336Z" transform="translate(-255.213 -119.663)" fill="#455a64"></path>           <path id="Caminho_1460" data-name="Caminho 1460" d="M299.049,203.718,242.78,171.229V152.66l56.269,32.488Z" transform="translate(-242.78 -124.816)" fill="#8f00fc"></path>           <g id="Grupo_190" data-name="Grupo 190" transform="translate(0 27.844)" opacity="0.2">             <path id="Caminho_1461" data-name="Caminho 1461" d="M299.049,203.718,242.78,171.229V152.66l56.269,32.488Z" transform="translate(-242.78 -152.66)"></path>           </g>           <path id="Caminho_1462" data-name="Caminho 1462" d="M328.08,206.114l48.234-27.851V159.7L328.08,187.544Z" transform="translate(-271.811 -127.212)" fill="#8f00fc"></path>           <path id="Caminho_1463" data-name="Caminho 1463" d="M328.08,206.114l48.234-27.851V159.7L328.08,187.544Z" transform="translate(-271.811 -127.212)" opacity="0.3"></path>           <path id="Caminho_1464" data-name="Caminho 1464" d="M370.215,182.4l-3.905,2.249V178.6l3.905-2.256Z" transform="translate(-284.822 -132.875)" fill="#37474f"></path>           <path id="Caminho_1465" data-name="Caminho 1465" d="M337.279,161.834,281.01,129.346l3.9-2.256,56.276,32.488Z" transform="translate(-255.791 -116.113)" fill="#455a64"></path>           <path id="Caminho_1466" data-name="Caminho 1466" d="M294.012,197.719a3.259,3.259,0,0,1-1.392-2.639V191.05l2.83,1.662.185-.033v.264h0v3.608a1.359,1.359,0,0,1-.554,1.227.864.864,0,0,1-.442.112A1.241,1.241,0,0,1,294.012,197.719Zm.317-4.341-.211,1.412h-1.042v.3a2.863,2.863,0,0,0,1.168,2.243.62.62,0,0,0,.607.066.917.917,0,0,0,.33-.831v-3.338Zm-.4-.389.838-.152-1.689-.99v2.467h.66Z" transform="translate(-259.743 -137.881)" fill="#455a64"></path>           <path id="Caminho_1467" data-name="Caminho 1467" d="M294.784,204a.231.231,0,0,0,.231-.224v-3.028a.228.228,0,1,0-.455,0v3.028A.224.224,0,0,0,294.784,204Z" transform="translate(-260.403 -141.104)" fill="#455a64"></path>           <path id="Caminho_1468" data-name="Caminho 1468" d="M295.42,205.98a.218.218,0,0,0,.2-.119.231.231,0,0,0-.086-.31l-2.639-1.517a.224.224,0,0,0-.31.086.218.218,0,0,0,.079.3l2.639,1.524A.224.224,0,0,0,295.42,205.98Z" transform="translate(-259.719 -142.29)" fill="#455a64"></path>           <path id="Caminho_1469" data-name="Caminho 1469" d="M308.352,211.079a.521.521,0,0,0,.244-.066.594.594,0,0,0,.277-.548v-.62a.231.231,0,0,0-.231-.224.224.224,0,0,0-.224.224v.62c0,.092,0,.145-.046.152s-.066,0-.145-.04a1.319,1.319,0,0,1-.422-1.022v-4.031a.224.224,0,0,0-.224-.224.231.231,0,0,0-.231.224v4.031a1.728,1.728,0,0,0,.66,1.418.739.739,0,0,0,.343.106Z" transform="translate(-264.755 -142.731)" fill="#455a64"></path>           <path id="Caminho_1470" data-name="Caminho 1470" d="M303.334,202.206v-.132a1.92,1.92,0,0,1,3.127-1.807,6.418,6.418,0,0,1,2.9,5.027v.4Zm1.154-1.742a1.689,1.689,0,0,0-.726,1.451l5.1,2.942a5.937,5.937,0,0,0-2.639-4.222,2.283,2.283,0,0,0-1.135-.356A1.214,1.214,0,0,0,304.489,200.465Z" transform="translate(-263.379 -140.864)" fill="#455a64"></path>           <path id="Caminho_1471" data-name="Caminho 1471" d="M322.574,217.553a.231.231,0,0,0,.231-.224V209.6a.231.231,0,0,0-.231-.224.224.224,0,0,0-.224.224v7.725a.224.224,0,0,0,.224.224Z" transform="translate(-269.861 -144.12)" fill="#455a64"></path>           <path id="Caminho_1472" data-name="Caminho 1472" d="M322.89,211.277a.205.205,0,0,0,.086,0,.218.218,0,0,0,.119-.3l-.8-1.86-.9,1.036a.231.231,0,0,0,0,.323.224.224,0,0,0,.317,0l.429-.495.521,1.207a.237.237,0,0,0,.237.086Z" transform="translate(-269.51 -144.031)" fill="#455a64"></path>           <path id="Caminho_1473" data-name="Caminho 1473" d="M319.394,215.783a.231.231,0,0,0,.231-.231v-7.718a.231.231,0,0,0-.231-.224.224.224,0,0,0-.224.224v7.718a.231.231,0,0,0,.224.231Z" transform="translate(-268.779 -143.517)" fill="#455a64"></path>           <path id="Caminho_1474" data-name="Caminho 1474" d="M319.712,209.464a.2.2,0,0,0,.086,0,.218.218,0,0,0,.119-.3l-.8-1.867-.9,1.042a.231.231,0,0,0,0,.317.218.218,0,0,0,.317,0l.429-.495.521,1.2A.237.237,0,0,0,319.712,209.464Z" transform="translate(-268.43 -143.412)" fill="#455a64"></path>           <path id="Caminho_1475" data-name="Caminho 1475" d="M261.895,170.108V180.1c0,.383-.27.541-.6.35l-15.608-9.011a1.319,1.319,0,0,1-.607-1.042v-10c0-.383.27-.541.607-.35l15.594,9.011A1.32,1.32,0,0,1,261.895,170.108Z" transform="translate(-243.563 -127.303)" fill="#fafafa"></path>           <path id="Caminho_1476" data-name="Caminho 1476" d="M246.56,162.26l.5.29v9.084l-.5-.29Z" transform="translate(-244.066 -128.083)" fill="#455a64"></path>           <path id="Caminho_1477" data-name="Caminho 1477" d="M249.66,164.06l.871.508v9.084l-.871-.515Z" transform="translate(-245.122 -128.696)" fill="#455a64"></path>           <path id="Caminho_1478" data-name="Caminho 1478" d="M252.77,165.85l.508.29v9.084l-.508-.29Z" transform="translate(-246.18 -129.305)" fill="#455a64"></path>           <path id="Caminho_1479" data-name="Caminho 1479" d="M255.12,167.18l1,.594v9.084l-1-.594Z" transform="translate(-246.98 -129.758)" fill="#455a64"></path>           <path id="Caminho_1480" data-name="Caminho 1480" d="M258.99,169.44l.5.29v9.083l-.5-.29Z" transform="translate(-248.297 -130.527)" fill="#455a64"></path>           <path id="Caminho_1481" data-name="Caminho 1481" d="M261.23,170.7l1.075.64v9.084l-1.075-.64Z" transform="translate(-249.059 -130.955)" fill="#455a64"></path>           <path id="Caminho_1482" data-name="Caminho 1482" d="M265.21,173.02l.5.3V182.4l-.5-.3Z" transform="translate(-250.414 -131.745)" fill="#455a64"></path>           <path id="Caminho_1483" data-name="Caminho 1483" d="M266.98,174.03l.251.145v9.083l-.251-.145Z" transform="translate(-251.016 -132.089)" fill="#455a64"></path>           <path id="Caminho_1484" data-name="Caminho 1484" d="M263.79,172.27l.251.152V181.5l-.251-.145Z" transform="translate(-249.931 -131.49)" fill="#455a64"></path>           <path id="Caminho_1485" data-name="Caminho 1485" d="M257.53,168.61l.251.145v9.084l-.251-.145Z" transform="translate(-247.8 -130.244)" fill="#455a64"></path>           <path id="Caminho_1486" data-name="Caminho 1486" d="M254.1,166.64l.251.145v9.084l-.251-.145Z" transform="translate(-246.633 -129.574)" fill="#455a64"></path>           <path id="Caminho_1487" data-name="Caminho 1487" d="M251.64,165.28l.251.145v9.084l-.251-.145Z" transform="translate(-245.795 -129.111)" fill="#455a64"></path>           <path id="Caminho_1488" data-name="Caminho 1488" d="M248.3,163.25l.251.145v9.084l-.251-.145Z" transform="translate(-244.659 -128.42)" fill="#455a64"></path>           <path id="Caminho_1489" data-name="Caminho 1489" d="M268.31,174.82l.508.29v9.084l-.508-.29Z" transform="translate(-251.469 -132.358)" fill="#455a64"></path>         </g>       </g>       <g id="freepik--box--inject-270-7" data-name="freepik--box--inject-270" transform="translate(0 56.48)">         <path id="freepik--shadow--inject-270-5" data-name="freepik--shadow--inject-270" d="M243.771,334.951,199.7,360.368,166.71,341.3l44.177-25.357Z" transform="translate(-166.71 -236.867)" opacity="0.1"></path>         <g id="freepik--box--inject-270-8" data-name="freepik--box--inject-270" transform="translate(4.024)">           <path id="Caminho_1490" data-name="Caminho 1490" d="M172.81,219.27,213,196.07l29.48,17.013L202.29,236.289Z" transform="translate(-172.81 -196.07)" fill="#8f00fc"></path>           <path id="Caminho_1491" data-name="Caminho 1491" d="M172.81,219.27,213,196.07l29.48,17.013L202.29,236.289Z" transform="translate(-172.81 -196.07)" opacity="0.1"></path>           <path id="Caminho_1492" data-name="Caminho 1492" d="M226.715,201.082l-12.336,7.1c-.224.132-.165.376.132.548l13.932,8.041a1.068,1.068,0,0,0,.937.079l12.342-7.111c.224-.132.165-.369-.132-.548l-13.932-8.035A1.082,1.082,0,0,0,226.715,201.082Z" transform="translate(-186.912 -197.751)" fill="#fafafa"></path>           <path id="Caminho_1493" data-name="Caminho 1493" d="M236.5,215.745a.244.244,0,0,0,.218-.125.257.257,0,0,0-.092-.35l-11.564-6.676a.264.264,0,0,0-.35.1.257.257,0,0,0,.092.343l11.564,6.676A.231.231,0,0,0,236.5,215.745Z" transform="translate(-190.464 -200.322)" fill="#e0e0e0"></path>           <path id="Caminho_1494" data-name="Caminho 1494" d="M234.553,216.862a.257.257,0,0,0,.218-.125.251.251,0,0,0-.092-.35l-11.564-6.676a.244.244,0,0,0-.343.092.251.251,0,0,0,.092.35l11.564,6.676A.27.27,0,0,0,234.553,216.862Z" transform="translate(-189.801 -200.7)" fill="#e0e0e0"></path>           <path id="Caminho_1495" data-name="Caminho 1495" d="M232.6,217.974a.257.257,0,0,0,.132-.475l-11.564-6.676a.264.264,0,0,0-.35.092.257.257,0,0,0,.092.35l11.564,6.676a.224.224,0,0,0,.125.033Z" transform="translate(-189.139 -201.08)" fill="#e0e0e0"></path>           <path id="Caminho_1496" data-name="Caminho 1496" d="M230.663,219.106a.257.257,0,0,0,.218-.125.251.251,0,0,0-.092-.35l-11.564-6.649a.244.244,0,0,0-.343.092.251.251,0,0,0,.092.35l11.557,6.676A.323.323,0,0,0,230.663,219.106Z" transform="translate(-188.477 -201.473)" fill="#e0e0e0"></path>           <path id="Caminho_1497" data-name="Caminho 1497" d="M251.183,213.627l-.449-.257-5.264,3.041.449.257Z" transform="translate(-197.539 -201.958)" fill="#455a64"></path>           <path id="Caminho_1498" data-name="Caminho 1498" d="M248.239,211.932l-.785-.442-5.264,3.041.778.442Z" transform="translate(-196.423 -201.318)" fill="#455a64"></path>           <path id="Caminho_1499" data-name="Caminho 1499" d="M245.633,210.424l-.449-.264L239.92,213.2l.449.264Z" transform="translate(-195.65 -200.865)" fill="#455a64"></path>           <path id="Caminho_1500" data-name="Caminho 1500" d="M243.314,209.075l-.9-.515L237.14,211.6l.91.515Z" transform="translate(-194.704 -200.321)" fill="#455a64"></path>           <path id="Caminho_1501" data-name="Caminho 1501" d="M240.083,207.217l-.449-.257L234.37,210l.449.257Z" transform="translate(-193.761 -199.776)" fill="#455a64"></path>           <path id="Caminho_1502" data-name="Caminho 1502" d="M237.83,205.908l-.97-.548L231.59,208.4l.976.548Z" transform="translate(-192.815 -199.232)" fill="#455a64"></path>           <path id="Caminho_1503" data-name="Caminho 1503" d="M234.533,204.014l-.449-.264-5.264,3.041.449.264Z" transform="translate(-191.872 -198.684)" fill="#455a64"></path>           <path id="Caminho_1504" data-name="Caminho 1504" d="M233.078,203.162l-.224-.132-5.264,3.041.224.132Z" transform="translate(-191.454 -198.439)" fill="#455a64"></path>           <path id="Caminho_1505" data-name="Caminho 1505" d="M235.875,204.832l-.224-.132-5.271,3.041.231.132Z" transform="translate(-192.403 -199.007)" fill="#455a64"></path>           <path id="Caminho_1506" data-name="Caminho 1506" d="M241.495,208.042l-.224-.132L236,210.951l.231.132Z" transform="translate(-194.316 -200.1)" fill="#455a64"></path>           <path id="Caminho_1507" data-name="Caminho 1507" d="M244.548,209.815l-.224-.125-5.264,3.034.224.132Z" transform="translate(-195.358 -200.705)" fill="#455a64"></path>           <path id="Caminho_1508" data-name="Caminho 1508" d="M246.715,211.1l-.224-.132-5.271,3.048.224.125Z" transform="translate(-196.093 -201.141)" fill="#455a64"></path>           <path id="Caminho_1509" data-name="Caminho 1509" d="M249.755,212.792l-.224-.132L244.26,215.7l.224.132Z" transform="translate(-197.127 -201.716)" fill="#455a64"></path>           <path id="Caminho_1510" data-name="Caminho 1510" d="M231.759,202.407l-.449-.257-5.271,3.041.449.264Z" transform="translate(-190.926 -198.139)" fill="#455a64"></path>           <path id="Caminho_1511" data-name="Caminho 1511" d="M202.29,328.718,172.81,311.7V231.24l29.48,17.019Z" transform="translate(-172.81 -208.04)" fill="#8f00fc"></path>           <g id="Grupo_191" data-name="Grupo 191" transform="translate(0 23.2)" opacity="0.2">             <path id="Caminho_1512" data-name="Caminho 1512" d="M202.29,328.718,172.81,311.7V231.24l29.48,17.019Z" transform="translate(-172.81 -231.24)"></path>           </g>           <path id="Caminho_1513" data-name="Caminho 1513" d="M217.5,325.526l40.193-23.207V221.86L217.5,245.067Z" transform="translate(-188.02 -204.847)" fill="#8f00fc"></path>           <path id="Caminho_1514" data-name="Caminho 1514" d="M217.5,325.526l40.193-23.207V221.86L217.5,245.067Z" transform="translate(-188.02 -204.847)" opacity="0.3"></path>           <path id="Caminho_1515" data-name="Caminho 1515" d="M247.979,244.336l-3.9,2.249v-6.056l3.9-2.249Z" transform="translate(-197.066 -210.436)" fill="#37474f"></path>           <path id="Caminho_1516" data-name="Caminho 1516" d="M228.874,231.749,199.4,214.736l3.9-2.256L232.772,229.5Z" transform="translate(-181.86 -201.655)" fill="#455a64"></path>           <path id="Caminho_1517" data-name="Caminho 1517" d="M183.422,346.676a3.3,3.3,0,0,1-1.392-2.639V340l2.83,1.662h.185v.27h0v3.608a1.319,1.319,0,0,1-.554,1.22.851.851,0,0,1-.442.119A1.319,1.319,0,0,1,183.422,346.676Zm.317-4.347-.2,1.418h-1.049v.3a2.85,2.85,0,0,0,1.168,2.236.62.62,0,0,0,.613.073.937.937,0,0,0,.323-.831v-3.344Zm-.4-.389.838-.145-1.689-1v2.5h.66Z" transform="translate(-175.948 -245.055)" fill="#455a64"></path>           <path id="Caminho_1518" data-name="Caminho 1518" d="M184.2,352.963a.224.224,0,0,0,.224-.224V349.7a.224.224,0,0,0-.224-.224.231.231,0,0,0-.231.224v3.034a.231.231,0,0,0,.231.224Z" transform="translate(-176.608 -248.282)" fill="#455a64"></path>           <path id="Caminho_1519" data-name="Caminho 1519" d="M184.831,354.891a.224.224,0,0,0,.112-.422l-2.639-1.524a.227.227,0,0,0-.224.4l2.639,1.517a.172.172,0,0,0,.112.033Z" transform="translate(-175.926 -249.451)" fill="#455a64"></path>           <path id="Caminho_1520" data-name="Caminho 1520" d="M197.762,360.022a.541.541,0,0,0,.251-.059.614.614,0,0,0,.27-.548v-.62a.231.231,0,1,0-.455,0v.62a.224.224,0,0,1-.04.152.211.211,0,0,1-.152-.04,1.319,1.319,0,0,1-.422-1.022v-4.024a.228.228,0,1,0-.455,0v4.031a1.722,1.722,0,0,0,.66,1.412A.66.66,0,0,0,197.762,360.022Z" transform="translate(-180.961 -249.905)" fill="#455a64"></path>           <path id="Caminho_1521" data-name="Caminho 1521" d="M192.745,351.158v-.132a1.926,1.926,0,0,1,3.133-1.807,6.425,6.425,0,0,1,2.9,5.027v.4Zm1.161-1.742a1.689,1.689,0,0,0-.706,1.484l5.1,2.942a5.983,5.983,0,0,0-2.639-4.228,2.336,2.336,0,0,0-1.128-.35,1.247,1.247,0,0,0-.627.152Z" transform="translate(-179.585 -248.04)" fill="#455a64"></path>           <path id="Caminho_1522" data-name="Caminho 1522" d="M211.984,366.507a.231.231,0,0,0,.231-.224v-7.718a.231.231,0,0,0-.231-.224.224.224,0,0,0-.224.224v7.718A.224.224,0,0,0,211.984,366.507Z" transform="translate(-186.066 -251.297)" fill="#455a64"></path>           <path id="Caminho_1523" data-name="Caminho 1523" d="M212.3,360.21a.231.231,0,0,0,.092,0,.224.224,0,0,0,.112-.3L211.7,358l-.9,1.042a.224.224,0,0,0,0,.317.238.238,0,0,0,.323,0l.422-.495.521,1.2A.237.237,0,0,0,212.3,360.21Z" transform="translate(-185.719 -251.181)" fill="#455a64"></path>           <path id="Caminho_1524" data-name="Caminho 1524" d="M208.8,364.693a.231.231,0,0,0,.231-.224v-7.718a.228.228,0,1,0-.455,0v7.718A.224.224,0,0,0,208.8,364.693Z" transform="translate(-184.984 -250.678)" fill="#455a64"></path>           <path id="Caminho_1525" data-name="Caminho 1525" d="M209.122,358.407a.224.224,0,0,0,.092,0,.237.237,0,0,0,.119-.3l-.825-1.873-.9,1.036a.227.227,0,0,0,.343.3l.422-.495.521,1.207A.231.231,0,0,0,209.122,358.407Z" transform="translate(-184.635 -250.579)" fill="#455a64"></path>           <path id="Caminho_1526" data-name="Caminho 1526" d="M204.758,328.147v9.987c0,.389-.27.541-.6.35l-15.6-9a1.319,1.319,0,0,1-.607-1.049v-9.994c0-.389.264-.541.6-.35l15.6,9.011A1.319,1.319,0,0,1,204.758,328.147Z" transform="translate(-177.963 -237.569)" fill="#fafafa"></path>           <path id="Caminho_1527" data-name="Caminho 1527" d="M189.42,320.3l.5.29v9.083l-.5-.29Z" transform="translate(-178.463 -238.35)" fill="#455a64"></path>           <path id="Caminho_1528" data-name="Caminho 1528" d="M192.53,322.09l.864.515v9.084l-.864-.515Z" transform="translate(-179.521 -238.96)" fill="#455a64"></path>           <path id="Caminho_1529" data-name="Caminho 1529" d="M195.64,323.89l.5.29v9.084l-.5-.29Z" transform="translate(-180.58 -239.572)" fill="#455a64"></path>           <path id="Caminho_1530" data-name="Caminho 1530" d="M197.98,325.21l1.009.6v9.084l-1.009-.594Z" transform="translate(-181.376 -240.022)" fill="#455a64"></path>           <path id="Caminho_1531" data-name="Caminho 1531" d="M201.85,327.47l.508.3v9.083l-.508-.29Z" transform="translate(-182.693 -240.791)" fill="#455a64"></path>           <path id="Caminho_1532" data-name="Caminho 1532" d="M204.09,328.74l1.075.64v9.083l-1.075-.64Z" transform="translate(-183.456 -241.223)" fill="#455a64"></path>           <path id="Caminho_1533" data-name="Caminho 1533" d="M208.07,331.06l.5.29v9.084l-.5-.29Z" transform="translate(-184.81 -242.013)" fill="#455a64"></path>           <path id="Caminho_1534" data-name="Caminho 1534" d="M209.84,332.07l.251.145V341.3l-.251-.145Z" transform="translate(-185.413 -242.356)" fill="#455a64"></path>           <path id="Caminho_1535" data-name="Caminho 1535" d="M206.65,330.31l.251.145v9.083l-.251-.145Z" transform="translate(-184.327 -241.757)" fill="#455a64"></path>           <path id="Caminho_1536" data-name="Caminho 1536" d="M200.39,326.64l.251.152v9.077l-.251-.138Z" transform="translate(-182.197 -240.508)" fill="#455a64"></path>           <path id="Caminho_1537" data-name="Caminho 1537" d="M196.96,324.68l.251.145v9.083l-.251-.145Z" transform="translate(-181.029 -239.841)" fill="#455a64"></path>           <path id="Caminho_1538" data-name="Caminho 1538" d="M194.5,323.32l.251.145v9.083l-.251-.145Z" transform="translate(-180.192 -239.378)" fill="#455a64"></path>           <path id="Caminho_1539" data-name="Caminho 1539" d="M191.16,321.29l.251.145v9.083l-.251-.145Z" transform="translate(-179.055 -238.687)" fill="#455a64"></path>           <path id="Caminho_1540" data-name="Caminho 1540" d="M211.18,332.86l.5.29v9.084l-.5-.29Z" transform="translate(-185.869 -242.625)" fill="#455a64"></path>         </g>       </g>       <g id="freepik--box--inject-270-9" data-name="freepik--box--inject-270" transform="translate(35.193 118.732)">         <path id="freepik--shadow--inject-270-6" data-name="freepik--shadow--inject-270" d="M297.972,366.247,253.9,391.664,220.06,372.177l44.171-25.357Z" transform="translate(-220.06 -309.628)" opacity="0.1"></path>         <g id="freepik--box--inject-270-10" data-name="freepik--box--inject-270" transform="translate(5.112)">           <path id="Caminho_1541" data-name="Caminho 1541" d="M227.81,313.647l40.2-23.207,29.474,17.019L257.29,330.666Z" transform="translate(-227.81 -290.44)" fill="#8f00fc"></path>           <g id="Grupo_192" data-name="Grupo 192" opacity="0.3">             <path id="Caminho_1542" data-name="Caminho 1542" d="M227.81,313.647l40.2-23.207,29.474,17.019L257.29,330.666Z" transform="translate(-227.81 -290.44)" fill="#fff"></path>           </g>           <path id="Caminho_1543" data-name="Caminho 1543" d="M281.715,295.46l-12.336,7.1c-.224.132-.165.376.132.548l13.932,8.041a1.055,1.055,0,0,0,.943.073l12.336-7.1c.224-.132.165-.376-.132-.548l-13.932-8.035A1.036,1.036,0,0,0,281.715,295.46Z" transform="translate(-241.912 -292.122)" fill="#fafafa"></path>           <path id="Caminho_1544" data-name="Caminho 1544" d="M291.519,310.136a.257.257,0,0,0,.218-.125.251.251,0,0,0-.092-.35l-11.564-6.669a.257.257,0,0,0-.251.442l11.557,6.676A.323.323,0,0,0,291.519,310.136Z" transform="translate(-245.482 -294.706)" fill="#e0e0e0"></path>           <path id="Caminho_1545" data-name="Caminho 1545" d="M289.554,311.274a.257.257,0,0,0,.224-.132.264.264,0,0,0-.1-.35l-11.557-6.709a.257.257,0,0,0-.35.1.251.251,0,0,0,.092.343l11.564,6.676A.231.231,0,0,0,289.554,311.274Z" transform="translate(-244.803 -295.072)" fill="#e0e0e0"></path>           <path id="Caminho_1546" data-name="Caminho 1546" d="M287.612,312.353a.257.257,0,0,0,.125-.475L276.173,305.2a.257.257,0,0,0-.35.092.264.264,0,0,0,.092.35l11.564,6.669A.3.3,0,0,0,287.612,312.353Z" transform="translate(-244.14 -295.453)" fill="#e0e0e0"></path>           <path id="Caminho_1547" data-name="Caminho 1547" d="M285.664,313.473a.258.258,0,0,0,.125-.482l-11.564-6.669a.251.251,0,0,0-.251.435l11.564,6.676A.218.218,0,0,0,285.664,313.473Z" transform="translate(-243.479 -295.834)" fill="#e0e0e0"></path>           <path id="Caminho_1548" data-name="Caminho 1548" d="M306.183,308l-.449-.264-5.264,3.048.449.257Z" transform="translate(-252.539 -296.328)" fill="#455a64"></path>           <path id="Caminho_1549" data-name="Caminho 1549" d="M303.239,306.309l-.778-.449L297.19,308.9l.785.449Z" transform="translate(-251.423 -295.688)" fill="#455a64"></path>           <path id="Caminho_1550" data-name="Caminho 1550" d="M300.633,304.8l-.449-.257-5.264,3.041.449.257Z" transform="translate(-250.65 -295.239)" fill="#455a64"></path>           <path id="Caminho_1551" data-name="Caminho 1551" d="M298.321,303.455l-.91-.515-5.271,3.041.91.515Z" transform="translate(-249.704 -294.694)" fill="#455a64"></path>           <path id="Caminho_1552" data-name="Caminho 1552" d="M295.089,301.594l-.455-.264-5.264,3.041.449.264Z" transform="translate(-248.761 -294.146)" fill="#455a64"></path>           <path id="Caminho_1553" data-name="Caminho 1553" d="M292.834,300.278l-.97-.548-5.264,3.041.97.554Z" transform="translate(-247.819 -293.602)" fill="#455a64"></path>           <path id="Caminho_1554" data-name="Caminho 1554" d="M289.539,298.387l-.449-.257-5.271,3.041.449.257Z" transform="translate(-246.872 -293.057)" fill="#455a64"></path>           <path id="Caminho_1555" data-name="Caminho 1555" d="M288.078,297.542l-.224-.132-5.264,3.041.224.125Z" transform="translate(-246.454 -292.812)" fill="#455a64"></path>           <path id="Caminho_1556" data-name="Caminho 1556" d="M290.878,299.212l-.224-.132-5.264,3.041.224.132Z" transform="translate(-247.407 -293.381)" fill="#455a64"></path>           <path id="Caminho_1557" data-name="Caminho 1557" d="M296.5,302.422l-.224-.132-5.264,3.041.224.132Z" transform="translate(-249.319 -294.473)" fill="#455a64"></path>           <path id="Caminho_1558" data-name="Caminho 1558" d="M299.555,304.192l-.224-.132L294.06,307.1l.224.132Z" transform="translate(-250.358 -295.075)" fill="#455a64"></path>           <path id="Caminho_1559" data-name="Caminho 1559" d="M301.718,305.482l-.224-.132-5.264,3.041.218.132Z" transform="translate(-251.096 -295.515)" fill="#455a64"></path>           <path id="Caminho_1560" data-name="Caminho 1560" d="M304.755,307.172l-.224-.132-5.271,3.041.224.132Z" transform="translate(-252.127 -296.09)" fill="#455a64"></path>           <path id="Caminho_1561" data-name="Caminho 1561" d="M286.763,296.787l-.449-.257-5.264,3.041.449.257Z" transform="translate(-245.93 -292.513)" fill="#455a64"></path>           <path id="Caminho_1562" data-name="Caminho 1562" d="M257.29,381.79l-29.48-17.019V325.62l29.48,17.019Z" transform="translate(-227.81 -302.413)" fill="#8f00fc"></path>           <path id="Caminho_1563" data-name="Caminho 1563" d="M257.29,381.79l-29.48-17.019V325.62l29.48,17.019Z" transform="translate(-227.81 -302.413)" fill="#8f00fc"></path>           <path id="Caminho_1564" data-name="Caminho 1564" d="M272.5,378.6l40.193-23.207V316.24L272.5,339.447Z" transform="translate(-243.02 -299.221)" fill="#8f00fc"></path>           <path id="Caminho_1565" data-name="Caminho 1565" d="M272.5,378.6l40.193-23.207V316.24L272.5,339.447Z" transform="translate(-243.02 -299.221)" opacity="0.1"></path>           <path id="Caminho_1566" data-name="Caminho 1566" d="M302.978,338.709l-3.9,2.256v-6.056l3.9-2.249Z" transform="translate(-252.066 -304.809)" fill="#37474f"></path>           <path id="Caminho_1567" data-name="Caminho 1567" d="M283.874,326.129,254.4,309.109l3.9-2.249,29.474,17.019Z" transform="translate(-236.86 -296.028)" fill="#455a64"></path>           <path id="Caminho_1568" data-name="Caminho 1568" d="M327.451,367.545a.659.659,0,0,1-.29-.073.9.9,0,0,1-.363-.811v-2.375h0v-.172h.119l1.867-1.1v2.639a2.15,2.15,0,0,1-.917,1.735A.871.871,0,0,1,327.451,367.545Zm-.356-3.081v2.2a.607.607,0,0,0,.218.547.4.4,0,0,0,.4-.046,1.873,1.873,0,0,0,.765-1.471v-.2h-.66l-.139-.93Zm.956.732h.429v-1.643l-1.108.66.548.1Z" transform="translate(-261.498 -315.142)" fill="#455a64"></path>           <path id="Caminho_1569" data-name="Caminho 1569" d="M328.223,371.56a.145.145,0,0,1-.145-.145v-1.979a.152.152,0,1,1,.3,0v1.979a.145.145,0,0,1-.152.145Z" transform="translate(-261.934 -317.263)" fill="#455a64"></path>           <path id="Caminho_1570" data-name="Caminho 1570" d="M326.922,372.84a.149.149,0,0,1-.079-.277l1.735-1a.152.152,0,0,1,.2.053.145.145,0,0,1-.053.2l-1.735,1a.152.152,0,0,1-.073.02Z" transform="translate(-261.49 -318.042)" fill="#455a64"></path>           <path id="Caminho_1571" data-name="Caminho 1571" d="M318.923,376.251a.357.357,0,0,1-.165-.04.4.4,0,0,1-.178-.363v-.383a.152.152,0,0,1,.152-.152.158.158,0,0,1,.152.152v.508a.42.42,0,0,0,.1,0,.884.884,0,0,0,.277-.66v-2.639a.152.152,0,1,1,.3,0v2.639a1.141,1.141,0,0,1-.422.93A.416.416,0,0,1,318.923,376.251Z" transform="translate(-258.702 -318.366)" fill="#455a64"></path>           <path id="Caminho_1572" data-name="Caminho 1572" d="M316.72,372.681v-.257a4.215,4.215,0,0,1,1.906-3.3,1.267,1.267,0,0,1,2.065,1.187v.086Zm2.823-3.542a1.537,1.537,0,0,0-.745.231,3.958,3.958,0,0,0-1.748,2.784l3.358-1.939a1.088,1.088,0,0,0-.462-.97A.746.746,0,0,0,319.543,369.139Z" transform="translate(-258.07 -317.118)" fill="#455a64"></path>           <path id="Caminho_1573" data-name="Caminho 1573" d="M309.923,380.477a.145.145,0,0,1-.145-.145v-5.086a.152.152,0,1,1,.3,0v5.086a.145.145,0,0,1-.152.145Z" transform="translate(-255.706 -319.24)" fill="#455a64"></path>           <path id="Caminho_1574" data-name="Caminho 1574" d="M309.254,376.355h-.059a.165.165,0,0,1-.079-.2l.534-1.227.594.66a.152.152,0,0,1-.224.2l-.284-.323-.343.792A.152.152,0,0,1,309.254,376.355Z" transform="translate(-255.479 -319.195)" fill="#455a64"></path>           <path id="Caminho_1575" data-name="Caminho 1575" d="M312.012,379.3a.152.152,0,0,1-.152-.152v-5.086a.158.158,0,0,1,.152-.152.152.152,0,0,1,.152.152v5.086A.152.152,0,0,1,312.012,379.3Z" transform="translate(-256.416 -318.848)" fill="#455a64"></path>           <path id="Caminho_1576" data-name="Caminho 1576" d="M311.351,375.165h-.059a.145.145,0,0,1-.079-.2l.534-1.227.587.66a.145.145,0,0,1,0,.211.152.152,0,0,1-.211,0l-.277-.33-.35.792A.139.139,0,0,1,311.351,375.165Z" transform="translate(-256.19 -318.79)" fill="#455a64"></path>           <path id="Caminho_1577" data-name="Caminho 1577" d="M277.3,381.009V391c0,.383.27.541.6.35l15.6-9a1.319,1.319,0,0,0,.607-1.049v-10c0-.383-.27-.541-.607-.343l-15.6,9.011A1.319,1.319,0,0,0,277.3,381.009Z" transform="translate(-244.653 -317.814)" fill="#fafafa"></path>           <path id="Caminho_1578" data-name="Caminho 1578" d="M301.051,373.17l-.5.29v9.083l.5-.29Z" transform="translate(-252.566 -318.596)" fill="#455a64"></path>           <path id="Caminho_1579" data-name="Caminho 1579" d="M297.754,374.96l-.864.508v9.084l.864-.508Z" transform="translate(-251.321 -319.206)" fill="#455a64"></path>           <path id="Caminho_1580" data-name="Caminho 1580" d="M294.838,376.75l-.508.29v9.083l.508-.29Z" transform="translate(-250.449 -319.815)" fill="#455a64"></path>           <path id="Caminho_1581" data-name="Caminho 1581" d="M292.229,378.08l-1.009.6v9.083l1.009-.6Z" transform="translate(-249.391 -320.267)" fill="#455a64"></path>           <path id="Caminho_1582" data-name="Caminho 1582" d="M288.621,380.34l-.5.29v9.084l.5-.29Z" transform="translate(-248.336 -321.037)" fill="#455a64"></path>           <path id="Caminho_1583" data-name="Caminho 1583" d="M286.085,381.6l-1.075.64v9.09l1.075-.647Z" transform="translate(-247.277 -321.465)" fill="#455a64"></path>           <path id="Caminho_1584" data-name="Caminho 1584" d="M282.4,383.93l-.5.29V393.3l.5-.29Z" transform="translate(-246.219 -322.258)" fill="#455a64"></path>           <path id="Caminho_1585" data-name="Caminho 1585" d="M280.761,384.94l-.251.145v9.084l.251-.145Z" transform="translate(-245.746 -322.602)" fill="#455a64"></path>           <path id="Caminho_1586" data-name="Caminho 1586" d="M283.951,383.18l-.251.145v9.084l.251-.145Z" transform="translate(-246.832 -322.003)" fill="#455a64"></path>           <path id="Caminho_1587" data-name="Caminho 1587" d="M290.211,379.51l-.251.145v9.083l.251-.145Z" transform="translate(-248.962 -320.754)" fill="#455a64"></path>           <path id="Caminho_1588" data-name="Caminho 1588" d="M293.641,377.54l-.251.145v9.084l.251-.145Z" transform="translate(-250.129 -320.084)" fill="#455a64"></path>           <path id="Caminho_1589" data-name="Caminho 1589" d="M296.1,376.18l-.251.145v9.084l.251-.145Z" transform="translate(-250.967 -319.621)" fill="#455a64"></path>           <path id="Caminho_1590" data-name="Caminho 1590" d="M299.441,374.15l-.251.152v9.084l.251-.145Z" transform="translate(-252.103 -318.93)" fill="#455a64"></path>           <path id="Caminho_1591" data-name="Caminho 1591" d="M279.291,385.72l-.5.29v9.083l.5-.29Z" transform="translate(-245.161 -322.868)" fill="#455a64"></path>         </g>       </g>     </g>     <g id="freepik--speech-bubble--inject-270" transform="translate(732.733 1832.5)">       <g id="freepik--speech-bubble--inject-270-2" data-name="freepik--speech-bubble--inject-270" transform="translate(0 0)">         <g id="freepik--speech-bubble--inject-270-3" data-name="freepik--speech-bubble--inject-270">           <path id="Caminho_1660" data-name="Caminho 1660" d="M285.408,89.08l-9.778,5.668,3.881,8.7a.9.9,0,0,0,.372.411l3.359,1.945a.9.9,0,0,0,1.312-.522l4.213-14.284Z" transform="translate(-260.058 -33.884)" fill="#8f00fc"></path>           <path id="Caminho_1661" data-name="Caminho 1661" d="M285.408,89.08l-9.778,5.668,3.881,8.7a.9.9,0,0,0,.372.411l3.359,1.945a.9.9,0,0,0,1.312-.522l4.213-14.284Z" transform="translate(-260.058 -33.884)" opacity="0.15"></path>           <path id="Caminho_1662" data-name="Caminho 1662" d="M279.92,97.189l3.881,8.7a.893.893,0,0,0,1.676-.111L289.69,91.49Z" transform="translate(-260.957 -34.389)" fill="#8f00fc"></path>           <path id="Caminho_1663" data-name="Caminho 1663" d="M293.612,19.464,256.776,40.751a1.866,1.866,0,0,0-.846,1.462V87.966a1.857,1.857,0,0,0,.846,1.439l3.035,1.7a1.889,1.889,0,0,0,1.7,0L298.37,69.817a1.85,1.85,0,0,0,.846-1.462V22.61a1.858,1.858,0,0,0-.846-1.454l-3.035-1.7a1.9,1.9,0,0,0-1.723.008Z" transform="translate(-255.93 -19.253)" fill="#8f00fc"></path>           <path id="Caminho_1664" data-name="Caminho 1664" d="M299.241,22.462c-.063-.427-.411-.577-.838-.332L261.584,43.41a1.716,1.716,0,0,0-.6.632l-4.743-2.688a1.707,1.707,0,0,1,.585-.6l36.852-21.287a1.873,1.873,0,0,1,1.692,0l3.035,1.7a1.85,1.85,0,0,1,.838,1.3Z" transform="translate(-255.995 -19.256)" fill="#fff" opacity="0.5"></path>           <path id="Caminho_1665" data-name="Caminho 1665" d="M261.88,91.353V45.609a1.85,1.85,0,0,1,.885-1.47l36.86-21.279c.474-.269.846-.055.846.482V69.094a1.85,1.85,0,0,1-.846,1.462l-36.86,21.287C262.251,92.112,261.88,91.891,261.88,91.353Z" transform="translate(-257.177 -19.984)" fill="#8f00fc"></path>           <path id="Caminho_1666" data-name="Caminho 1666" d="M261.519,96.97a1.945,1.945,0,0,1-1.7,0l-3.043-1.707a1.842,1.842,0,0,1-.846-1.454V48.072a1.691,1.691,0,0,1,.269-.862l4.743,2.688a1.668,1.668,0,0,0-.253.838V96.48C260.633,96.97,260.981,97.255,261.519,96.97Z" transform="translate(-255.93 -25.111)" opacity="0.15"></path>         </g>         <g id="freepik--check-list--inject-270" transform="translate(8.221 15.069)">           <path id="Caminho_1667" data-name="Caminho 1667" d="M266.757,64.4a.419.419,0,0,1-.427-.419V56.01a.411.411,0,0,1,.213-.364l6.9-3.952a.4.4,0,0,1,.419,0,.411.411,0,0,1,.213.364v7.936a.419.419,0,0,1-.206.364l-6.9,3.952a.427.427,0,0,1-.213.087Zm.427-8.142v6.988l6.047-3.494V52.762Z" transform="translate(-266.33 -41.107)" fill="#fafafa"></path>           <path id="freepik--Check--inject-270" d="M274.9,49.592a.838.838,0,0,0-1.1.443l-3.162,7.525-.79-.735a.838.838,0,1,0-1.17,1.2l1.636,1.581a.846.846,0,0,0,.585.237h.166a.838.838,0,0,0,.6-.5l3.676-8.656a.791.791,0,0,0-.443-1.1Z" transform="translate(-266.77 -40.665)" fill="#455a64"></path>           <path id="Caminho_1668" data-name="Caminho 1668" d="M282.709,48.635l17.6-10.158c.609-.356,1.107-.1,1.107.561A2.372,2.372,0,0,1,300.3,40.88l-17.6,10.158c-.609.348-1.1.095-1.1-.569A2.371,2.371,0,0,1,282.709,48.635Z" transform="translate(-269.532 -38.316)" fill="#455a64"></path>           <path id="Caminho_1669" data-name="Caminho 1669" d="M266.757,79.516a.4.4,0,0,1-.213-.055.435.435,0,0,1-.213-.372V71.13a.419.419,0,0,1,.213-.372l6.9-3.952a.423.423,0,0,1,.632.372v7.928a.419.419,0,0,1-.213.372L266.97,79.43A.427.427,0,0,1,266.757,79.516Zm.419-8.142v6.98l6.055-3.5V67.881Z" transform="translate(-266.33 -44.274)" fill="#fafafa"></path>           <path id="freepik--check--inject-270-2" data-name="freepik--check--inject-270" d="M274.9,64.7a.846.846,0,0,0-1.1.451l-3.162,7.525-.79-.735a.838.838,0,0,0-1.186,0,.854.854,0,0,0,0,1.186l1.636,1.581a.791.791,0,0,0,.585.237.594.594,0,0,0,.166,0,.791.791,0,0,0,.6-.49l3.636-8.7A.838.838,0,0,0,274.9,64.7Z" transform="translate(-266.769 -43.832)" fill="#455a64"></path>           <path id="Caminho_1670" data-name="Caminho 1670" d="M282.709,63.7l17.6-10.158c.609-.356,1.107-.1,1.107.561a2.372,2.372,0,0,1-1.107,1.834l-17.6,10.165c-.609.348-1.1.095-1.1-.569A2.371,2.371,0,0,1,282.709,63.7Z" transform="translate(-269.532 -41.474)" fill="#455a64"></path>           <path id="Caminho_1671" data-name="Caminho 1671" d="M266.757,94.619a.4.4,0,0,1-.213-.063.411.411,0,0,1-.213-.364V86.24a.411.411,0,0,1,.213-.364l6.9-3.952a.4.4,0,0,1,.419,0,.411.411,0,0,1,.213.364v7.936a.411.411,0,0,1-.213.364L266.97,94.54A.443.443,0,0,1,266.757,94.619Zm.419-8.15v6.988l6.055-3.494V82.992Z" transform="translate(-266.33 -47.441)" fill="#fafafa"></path>           <path id="freepik--check--inject-270-3" data-name="freepik--check--inject-270" d="M274.9,79.822a.838.838,0,0,0-1.1.443l-3.162,7.525-.79-.735a.838.838,0,1,0-1.17,1.2l1.636,1.581a.846.846,0,0,0,.585.237h.166a.838.838,0,0,0,.6-.5l3.636-8.7a.79.79,0,0,0-.4-1.059Z" transform="translate(-266.77 -46.999)" fill="#455a64"></path>           <path id="Caminho_1672" data-name="Caminho 1672" d="M282.709,78.774l17.6-10.165c.609-.348,1.107-.095,1.107.569a2.372,2.372,0,0,1-1.107,1.834l-17.6,10.158c-.609.356-1.1.1-1.1-.561A2.371,2.371,0,0,1,282.709,78.774Z" transform="translate(-269.532 -44.631)" fill="#455a64"></path>         </g>       </g>     </g>   </g> </svg>