<svg xmlns="http://www.w3.org/2000/svg" xmlns:xlink="http://www.w3.org/1999/xlink" width="226.561" height="249.678" viewBox="0 0 226.561 249.678">   <defs>     <clipPath id="clip-path">       <path id="Caminho_18930" data-name="Caminho 18930" d="M141.178,193.487s-3.654,11.556-3.85,16.559,6.931,11.724,10.948,15.595,11.179,5.59,21.177,5.2a48.875,48.875,0,0,0,18.676-5s-.189,30.61,0,37.729.776,82.215.776,82.215h68.157s-1.733-70.47-1.16-78.749,4.241-32.342,4.241-32.342,25.607,11.934,31.378,11.934,19.64-15.371,19.067-19.445-20.6-15.79-27.535-21.569-9.628-11.354-14.442-13.666-26.55-7.127-31.385-7.686-30.994.957-38.12,1.341-19.06,12.521-21.946,14.638a65.442,65.442,0,0,1-6.938,4.234s1.16-1.348-.769-1.733a16.6,16.6,0,0,0-2.886-.384s-.964-11.179-1.733-12.325-12.129-3.85-16.363-3.493S141.178,193.487,141.178,193.487Z" transform="translate(-137.324 -184.135)" fill="#fff" stroke="#263238" stroke-linecap="round" stroke-linejoin="round" stroke-width="1.143"></path>     </clipPath>     <clipPath id="clip-path-2">       <path id="Caminho_18953" data-name="Caminho 18953" d="M253.441,104.3a33.2,33.2,0,0,1-4.318-6.582c-1.642-3.493-3.906-9.251.412-12.744s20.961-5.757,29-4.73,14.805,9.251,21.177,20.765,8.433,20.36,6.987,24.265-7.2,8.224-13.974,8.021-10.69-7.406-14.6-11.1-16.07-11.312-17.684-12.961a69.384,69.384,0,0,0-5.967-4.723Z" transform="translate(-247.043 -79.994)" fill="#fff" stroke="#263238" stroke-linecap="round" stroke-linejoin="round" stroke-width="1.143"></path>     </clipPath>     <clipPath id="clip-path-3">       <path id="Caminho_18965" data-name="Caminho 18965" d="M282.772,134.744c0-.615-3.088-7.811-8.433-12.954s-15.63-6.372-19.123-6.169a8.186,8.186,0,0,0-5.142,1.852s-3.7,13.576-5.548,18.306a19.235,19.235,0,0,0-.154,12.632,49.1,49.1,0,0,0,5.086,10.4c3.088,4.933,3.088,18.508,3.088,18.508s15.42-6.987,17.272-9.46.817-11.1,1.642-15.217a13.59,13.59,0,0,1,.741-2.452,12.366,12.366,0,0,0,2.348-3.717S282.772,135.387,282.772,134.744Z" transform="translate(-243.381 -115.6)" fill="#fff" stroke="#263238" stroke-linecap="round" stroke-linejoin="round" stroke-width="1.143"></path>     </clipPath>     <clipPath id="clip-path-4">       <path id="Caminho_18979" data-name="Caminho 18979" d="M206.57,173.306a10.774,10.774,0,0,0,21.135-3.766Z" transform="translate(-206.57 -169.54)" fill="#fff" stroke="#263238" stroke-linecap="round" stroke-linejoin="round" stroke-width="1.143"></path>     </clipPath>     <clipPath id="clip-path-5">       <path id="Caminho_18987" data-name="Caminho 18987" d="M170.651,128.91s-3.081,6.155-3.081,8.852V147.97s-11.934,12.514-12.514,15.783-2.1,11.179,0,11.179,11.941-9.439,12.709-11.361,5.387-14.631,5.387-14.631a10.355,10.355,0,0,1,1.348-1.733c.769-.776.964-5.778.964-5.778s2.1-.2,2.1-1.348v-6.917C177.582,131.6,170.651,128.91,170.651,128.91Z" transform="translate(-153.982 -128.91)" fill="#fff" stroke="#263238" stroke-linecap="round" stroke-linejoin="round" stroke-width="1.143"></path>     </clipPath>     <clipPath id="clip-path-6">       <path id="Caminho_18993" data-name="Caminho 18993" d="M354.283,244.027s-16.769,2.886-15.015,6.547l.58,2.7s-12.129,15.371-11.556,15.979,22.358,13.478,23.106,13.478,14.442-24.454,17.327-29.268,3.277-9.237-.384-11.549-7.686-4.43-7.686-4.43" transform="translate(-328.272 -237.48)" fill="#fff" stroke="#263238" stroke-linecap="round" stroke-linejoin="round" stroke-width="1.143"></path>     </clipPath>     <clipPath id="clip-path-7">       <path id="Caminho_18999" data-name="Caminho 18999" d="M310.268,295.858a14.842,14.842,0,0,1-3.85,3.493,20.451,20.451,0,0,0-7.127,6.735c-2.313,3.493-5.2,6.547-3.493,7.9a6.184,6.184,0,0,0,3.493,1.348s1.153,2.7,2.7,2.886a20.609,20.609,0,0,0,2.313.2s1.341,1.348,2.1,1.348h1.963s.769.964,2.5,0,3.493-6.742,4.045-8.664a31.094,31.094,0,0,0,.58-5.974l2.7-3.85-6.162-6.162Z" transform="translate(-295.284 -295.11)" fill="#fff" stroke="#263238" stroke-linecap="round" stroke-linejoin="round" stroke-width="1.143"></path>     </clipPath>     <clipPath id="clip-path-8">       <path id="Caminho_19005" data-name="Caminho 19005" d="M283.9,133.679l5.555-5.59c2.969-2.969-2.243-8.734-4.129-10.865a39.357,39.357,0,0,0-16.286-10.886c-3.794-1.355-12.038-3.927-14.128,1.195l-3.7,9.041s10.075-.817,18.711,3.7S283.9,133.679,283.9,133.679Z" transform="translate(-251.21 -104.481)" fill="#fff" stroke="#263238" stroke-linecap="round" stroke-linejoin="round" stroke-width="1.143"></path>     </clipPath>     <clipPath id="clip-path-9">       <path id="Caminho_19010" data-name="Caminho 19010" d="M288.4,149.377s6.372-5.142,8.224-2.061-2.466,7.406-5.757,7.406a8.618,8.618,0,0,1-4.933-1.237" transform="translate(-285.93 -146.332)" fill="#fff" stroke="#263238" stroke-linecap="round" stroke-linejoin="round" stroke-width="1.143"></path>     </clipPath>     <clipPath id="clip-path-10">       <path id="Caminho_19017" data-name="Caminho 19017" d="M203.335,317.69H135.29v74.327c0,4.472,15.294,8.1,34.166,8.1s34.166-3.626,34.166-8.1Z" transform="translate(-135.29 -317.69)" fill="#fff" stroke="#263238" stroke-linecap="round" stroke-linejoin="round" stroke-width="1.143"></path>     </clipPath>     <clipPath id="clip-path-11">       <path id="Caminho_19021" data-name="Caminho 19021" d="M167.744,300.7a114.263,114.263,0,0,0-26.341,2.613c-4.793,1.146-13.527,3.563-11.493,10.48.908,3.088,4.479,4.276,7.2,5.254a56.916,56.916,0,0,0,10.348,2.292,131.354,131.354,0,0,0,20.262,1.446,113.966,113.966,0,0,0,26.355-2.62c3.493-.824,7.818-1.719,10.264-4.562a5.925,5.925,0,0,0-.7-8.566c-2.893-2.194-6.91-3.116-10.376-3.892a104.622,104.622,0,0,0-16.81-2.18Q172.118,300.7,167.744,300.7Z" transform="translate(-129.608 -300.7)" fill="#fff" stroke="#263238" stroke-linecap="round" stroke-linejoin="round" stroke-width="1.143"></path>     </clipPath>     <clipPath id="clip-path-12">       <ellipse id="Elipse_113" data-name="Elipse 113" cx="34.131" cy="7.259" rx="34.131" ry="7.259" fill="#fff" stroke="#263238" stroke-linecap="round" stroke-linejoin="round" stroke-width="1.143"></ellipse>     </clipPath>     <clipPath id="clip-path-13">       <path id="Caminho_19026" data-name="Caminho 19026" d="M301.838,340.9H247.18v59.7c0,3.591,12.29,6.5,27.444,6.5s27.445-2.914,27.445-6.5Z" transform="translate(-247.18 -340.9)" fill="#fff" stroke="#263238" stroke-linecap="round" stroke-linejoin="round" stroke-width="1.143"></path>     </clipPath>     <clipPath id="clip-path-14">       <path id="Caminho_19033" data-name="Caminho 19033" d="M273.251,327.26a91.94,91.94,0,0,0-21.156,2.1c-3.857.915-10.865,2.858-9.23,8.384.7,2.48,3.591,3.431,5.785,4.192a45.473,45.473,0,0,0,8.307,1.914,105.942,105.942,0,0,0,16.293,1.16,92.1,92.1,0,0,0,21.17-2.1c2.795-.664,6.288-1.4,8.245-3.668a4.765,4.765,0,0,0-.566-6.882c-2.32-1.754-5.555-2.494-8.328-3.123a84.469,84.469,0,0,0-13.506-1.754Q276.766,327.26,273.251,327.26Z" transform="translate(-242.622 -327.26)" fill="#fff" stroke="#263238" stroke-linecap="round" stroke-linejoin="round" stroke-width="1.143"></path>     </clipPath>     <clipPath id="clip-path-15">       <ellipse id="Elipse_117" data-name="Elipse 117" cx="27.417" cy="5.834" rx="27.417" ry="5.834" fill="#fff" stroke="#263238" stroke-linecap="round" stroke-linejoin="round" stroke-width="1.143"></ellipse>     </clipPath>   </defs>   <g id="Cooking-bro_1_" data-name="Cooking-bro (1)" transform="translate(-72.838 -79.388)">     <g id="freepik--Character--inject-4" transform="translate(118.066 79.994)">       <path id="Caminho_18922" data-name="Caminho 18922" d="M141.178,193.487s-3.654,11.556-3.85,16.559,6.931,11.724,10.948,15.595,11.179,5.59,21.177,5.2a48.875,48.875,0,0,0,18.676-5s-.189,30.61,0,37.729.776,82.215.776,82.215h68.157s-1.733-70.47-1.16-78.749,4.241-32.342,4.241-32.342,25.607,11.934,31.378,11.934,19.64-15.371,19.067-19.445-20.6-15.79-27.535-21.569-9.628-11.354-14.442-13.666-26.55-7.127-31.385-7.686-30.994.957-38.12,1.341-19.06,12.521-21.946,14.638a65.442,65.442,0,0,1-6.938,4.234s1.16-1.348-.769-1.733a16.6,16.6,0,0,0-2.886-.384s-.964-11.179-1.733-12.325-12.129-3.85-16.363-3.493S141.178,193.487,141.178,193.487Z" transform="translate(-137.324 -111.373)" fill="#fff"></path>       <g id="Grupo_7688" data-name="Grupo 7688" transform="translate(0 72.762)" clip-path="url(#clip-path)">         <path id="Caminho_18923" data-name="Caminho 18923" d="M345.855,231.244c1.041-1.719,1.628-3.172,1.5-4.066-.58-4.045-20.6-15.79-27.535-21.569s-9.628-11.354-14.442-13.666-26.55-7.127-31.385-7.686a71.539,71.539,0,0,0-7.686-.077c5.694,5.869-9.921,16.44-6.575,16.72s18.369-2.005,26.976-5.736c0,0,10.334-.293,18.948,4.891C312.989,204.415,331.889,219.974,345.855,231.244Z" transform="translate(-174.065 -184.128)" fill="#8f00fc "></path>         <path id="Caminho_18924" data-name="Caminho 18924" d="M317.775,253.28s-7.748-7.748-8.608-9.782,4.891-24.1,1.719-18.655a25.893,25.893,0,0,0-3.4,10.383s-3.738-14.351-4.024-10.907-.286,12.059-.286,12.059-13.485-15.5-11.179-8.615,4.891,14.924,4.891,14.924L278.46,373.28l7.748-2.585,17.216-122.55Z" transform="translate(-179.85 -196.082)" fill="#8f00fc "></path>         <path id="Caminho_18925" data-name="Caminho 18925" d="M186.712,230.722s.286-30.742-.58-29.275-1.719,8.035-1.719,8.035-4.3-10.047-4.891-6.6.859,10.907.859,10.907-5.17,2.012-19.228,4.3-11.179,0-2.872-4.017,14.672-13.2,14.672-17.509-2.872-16.405-11.766-18.1-27.556,15.811-28.989,19.256,10.886-1.446,10.886-1.446,1.719,8.042,2.292,10.62-3.151,6.889-3.445,8.035,6.889-1.432,6.288-.573-7.462,6.288-6.023,8.9,13.226,7.183,23.846,8.65a60.982,60.982,0,0,0,20.667-1.181Z" transform="translate(-135.745 -182.39)" fill="#8f00fc "></path>         <path id="Caminho_18926" data-name="Caminho 18926" d="M186.712,230.722s.286-30.742-.58-29.275-1.719,8.035-1.719,8.035-4.3-10.047-4.891-6.6.859,10.907.859,10.907-5.17,2.012-19.228,4.3-11.179,0-2.872-4.017,14.672-13.2,14.672-17.509-2.872-16.405-11.766-18.1-27.556,15.811-28.989,19.256,10.886-1.446,10.886-1.446,1.719,8.042,2.292,10.62-3.151,6.889-3.445,8.035,6.889-1.432,6.288-.573-7.462,6.288-6.023,8.9,13.226,7.183,23.846,8.65a60.982,60.982,0,0,0,20.667-1.181Z" transform="translate(-135.745 -182.39)" fill="#fff" opacity="0.5"></path>         <path id="Caminho_18927" data-name="Caminho 18927" d="M317.775,253.28s-7.748-7.748-8.608-9.782,4.891-24.1,1.719-18.655a25.893,25.893,0,0,0-3.4,10.383s-3.738-14.351-4.024-10.907-.286,12.059-.286,12.059-13.485-15.5-11.179-8.615,4.891,14.924,4.891,14.924L278.46,373.28l7.748-2.585,17.216-122.55Z" transform="translate(-179.85 -196.082)" fill="#fff" opacity="0.5"></path>         <path id="Caminho_18928" data-name="Caminho 18928" d="M211.014,395.24h68.164s-.538-21.729-.915-42.466L210.63,348.26C210.826,370.639,211.014,395.24,211.014,395.24Z" transform="translate(-159.412 -233.588)" fill="#263238"></path>         <path id="Caminho_18929" data-name="Caminho 18929" d="M345.855,231.244c1.041-1.719,1.628-3.172,1.5-4.066-.58-4.045-20.6-15.79-27.535-21.569s-9.628-11.354-14.442-13.666-26.55-7.127-31.385-7.686a71.539,71.539,0,0,0-7.686-.077c5.694,5.869-9.921,16.44-6.575,16.72s18.369-2.005,26.976-5.736c0,0,10.334-.293,18.948,4.891C312.989,204.415,331.889,219.974,345.855,231.244Z" transform="translate(-174.065 -184.128)" fill="#fff" opacity="0.5"></path>       </g>       <path id="Caminho_18931" data-name="Caminho 18931" d="M141.178,193.487s-3.654,11.556-3.85,16.559,6.931,11.724,10.948,15.595,11.179,5.59,21.177,5.2a48.875,48.875,0,0,0,18.676-5s-.189,30.61,0,37.729.776,82.215.776,82.215h68.157s-1.733-70.47-1.16-78.749,4.241-32.342,4.241-32.342,25.607,11.934,31.378,11.934,19.64-15.371,19.067-19.445-20.6-15.79-27.535-21.569-9.628-11.354-14.442-13.666-26.55-7.127-31.385-7.686-30.994.957-38.12,1.341-19.06,12.521-21.946,14.638a65.442,65.442,0,0,1-6.938,4.234s1.16-1.348-.769-1.733a16.6,16.6,0,0,0-2.886-.384s-.964-11.179-1.733-12.325-12.129-3.85-16.363-3.493S141.178,193.487,141.178,193.487Z" transform="translate(-137.324 -111.373)" fill="none" stroke="#263238" stroke-linecap="round" stroke-linejoin="round" stroke-width="1.143"></path>       <path id="Caminho_18932" data-name="Caminho 18932" d="M208.307,217.443l-.384,17.907-5-19.64" transform="translate(-157.089 -120.887)" fill="none" stroke="#263238" stroke-linecap="round" stroke-linejoin="round" stroke-width="1.143"></path>       <path id="Caminho_18933" data-name="Caminho 18933" d="M173.73,210.2s-7.511,9.817-12.73,10.781" transform="translate(-144.458 -119.226)" fill="none" stroke="#263238" stroke-linecap="round" stroke-linejoin="round" stroke-width="1.143"></path>       <path id="Caminho_18934" data-name="Caminho 18934" d="M182.208,213.23s-2.5,5.01-5.2,5.59" transform="translate(-149.282 -120.139)" fill="none" stroke="#263238" stroke-linecap="round" stroke-linejoin="round" stroke-width="1.143"></path>       <path id="Caminho_18935" data-name="Caminho 18935" d="M315.588,239.049l-3.27,12.136L310.39,238.86" transform="translate(-189.471 -127.862)" fill="none" stroke="#263238" stroke-linecap="round" stroke-linejoin="round" stroke-width="1.143"></path>       <path id="Caminho_18936" data-name="Caminho 18936" d="M249.881,206.89l-6.742,5.583L237.36,351.679" transform="translate(-167.466 -118.229)" fill="none" stroke="#263238" stroke-linecap="round" stroke-linejoin="round" stroke-width="1.143"></path>       <path id="Caminho_18937" data-name="Caminho 18937" d="M248.921,229.911a1.251,1.251,0,1,1-1.251-1.251,1.251,1.251,0,0,1,1.251,1.251Z" transform="translate(-170.196 -124.789)" fill="#263238"></path>       <path id="Caminho_18938" data-name="Caminho 18938" d="M268.8,229.911a1.251,1.251,0,1,1-1.251-1.251A1.251,1.251,0,0,1,268.8,229.911Z" transform="translate(-176.186 -124.789)" fill="#263238"></path>       <path id="Caminho_18939" data-name="Caminho 18939" d="M248.271,264.461a1.251,1.251,0,1,1-1.251-1.251,1.251,1.251,0,0,1,1.251,1.251Z" transform="translate(-170 -135.199)" fill="#263238"></path>       <path id="Caminho_18940" data-name="Caminho 18940" d="M268.111,264.461a1.251,1.251,0,1,1-1.251-1.251,1.251,1.251,0,0,1,1.251,1.251Z" transform="translate(-175.978 -135.199)" fill="#263238"></path>       <path id="Caminho_18941" data-name="Caminho 18941" d="M247.581,303.631a1.251,1.251,0,1,1-1.251-1.251A1.251,1.251,0,0,1,247.581,303.631Z" transform="translate(-169.792 -147.001)" fill="#263238"></path>       <path id="Caminho_18942" data-name="Caminho 18942" d="M267.421,303.631a1.251,1.251,0,1,1-1.251-1.251A1.251,1.251,0,0,1,267.421,303.631Z" transform="translate(-175.77 -147.001)" fill="#263238"></path>       <path id="Caminho_18943" data-name="Caminho 18943" d="M156.125,167.49s-5.01,0-6.742.573-8.084,12.325-9.782,16.559a19.151,19.151,0,0,0-1.16,8.664l9.244-4.43,2.7,12.325s14.631-11.549,16.559-15.371-2.5-14.638-2.5-14.638Z" transform="translate(-137.634 -106.357)" fill="#263238" stroke="#263238" stroke-linecap="round" stroke-linejoin="round" stroke-width="1.143"></path>       <path id="Caminho_18944" data-name="Caminho 18944" d="M251.393,176.877s-9.244,2.5-10.208,7.127,6.931,11.934,8.475,13.275,15.783-1.544,22.141-3.081,14.826-5.59,14.631-8.859-4.045-4.618-5.2-7.315-1.928-4.234-5.394-4.618a66.13,66.13,0,0,0-10.4-.2C264.088,173.411,251.393,176.877,251.393,176.877Z" transform="translate(-168.594 -108.045)" fill="#263238" stroke="#263238" stroke-linecap="round" stroke-linejoin="round" stroke-width="1.143"></path>       <path id="Caminho_18945" data-name="Caminho 18945" d="M250.462,206.137s-.964-1.921-4.625-1.733-6.547,4.234-6.547,4.234S246.417,210.183,250.462,206.137Z" transform="translate(-168.048 -117.476)" fill="#263238" stroke="#263238" stroke-linecap="round" stroke-linejoin="round" stroke-width="1.143"></path>       <path id="Caminho_18946" data-name="Caminho 18946" d="M255.03,206.361s1.537-2.886,4.618.2,5,8.265,5,8.265-4.038,1.733-7.888-2.313S255.03,206.361,255.03,206.361Z" transform="translate(-172.615 -117.7)" fill="#263238" stroke="#263238" stroke-linecap="round" stroke-linejoin="round" stroke-width="1.143"></path>       <path id="Caminho_18947" data-name="Caminho 18947" d="M288.464,183.47s.2,3.661-6.742,7.315a109.45,109.45,0,0,1-15.371,6.351" transform="translate(-176.201 -111.172)" fill="none" stroke="#fff" stroke-linecap="round" stroke-linejoin="round" stroke-width="1.143"></path>       <path id="Caminho_18948" data-name="Caminho 18948" d="M281.22,186.5s5.17-3.319,5.939-5.59-1.537-3.493-1.537-3.493" transform="translate(-180.682 -109.349)" fill="none" stroke="#fff" stroke-linecap="round" stroke-linejoin="round" stroke-width="1.143"></path>       <path id="Caminho_18949" data-name="Caminho 18949" d="M253.835,199.5s-4.625-5.59-4.625-9.782,1.733-4.814,1.733-4.814" transform="translate(-171.037 -111.603)" fill="none" stroke="#fff" stroke-linecap="round" stroke-linejoin="round" stroke-width="1.143"></path>       <path id="Caminho_18950" data-name="Caminho 18950" d="M253.441,104.3a33.2,33.2,0,0,1-4.318-6.582c-1.642-3.493-3.906-9.251.412-12.744s20.961-5.757,29-4.73,14.805,9.251,21.177,20.765,8.433,20.36,6.987,24.265-7.2,8.224-13.974,8.021-10.69-7.406-14.6-11.1-16.07-11.312-17.684-12.961a69.384,69.384,0,0,0-5.967-4.723Z" transform="translate(-170.384 -79.994)" fill="#fff"></path>       <g id="Grupo_7689" data-name="Grupo 7689" transform="translate(76.659)" clip-path="url(#clip-path-2)">         <path id="Caminho_18951" data-name="Caminho 18951" d="M290.469,82.75c3.144,3.829,10.543,13.513,11.221,20.723.859,9.181-16.65,4.59-16.65,4.59s11.479-6.889,8.035-6.03-6.288-1.146-11.479-1.146S269.83,94,269.83,96.3s.573,2.872,2.012,4.891-1.439,0,5.45,9.782a60.35,60.35,0,0,1,5.3,10.082,28.3,28.3,0,0,1,2.39,2.005c3.906,3.7,7.811,10.893,14.6,11.1s12.576-4.115,13.974-8.021-.622-12.751-6.987-24.265C301.585,92.832,296.352,85.859,290.469,82.75Z" transform="translate(-253.909 -80.824)" fill="#8f00fc "></path>         <path id="Caminho_18952" data-name="Caminho 18952" d="M290.469,82.75c3.144,3.829,10.543,13.513,11.221,20.723.859,9.181-16.65,4.59-16.65,4.59s11.479-6.889,8.035-6.03-6.288-1.146-11.479-1.146S269.83,94,269.83,96.3s.573,2.872,2.012,4.891-1.439,0,5.45,9.782a60.35,60.35,0,0,1,5.3,10.082,28.3,28.3,0,0,1,2.39,2.005c3.906,3.7,7.811,10.893,14.6,11.1s12.576-4.115,13.974-8.021-.622-12.751-6.987-24.265C301.585,92.832,296.352,85.859,290.469,82.75Z" transform="translate(-253.909 -80.824)" fill="#fff" opacity="0.5"></path>       </g>       <path id="Caminho_18954" data-name="Caminho 18954" d="M253.441,104.3a33.2,33.2,0,0,1-4.318-6.582c-1.642-3.493-3.906-9.251.412-12.744s20.961-5.757,29-4.73,14.805,9.251,21.177,20.765,8.433,20.36,6.987,24.265-7.2,8.224-13.974,8.021-10.69-7.406-14.6-11.1-16.07-11.312-17.684-12.961a69.384,69.384,0,0,0-5.967-4.723Z" transform="translate(-170.384 -79.994)" fill="none" stroke="#263238" stroke-linecap="round" stroke-linejoin="round" stroke-width="1.143"></path>       <path id="Caminho_18955" data-name="Caminho 18955" d="M262.653,102.213s-2.04-1.132-5.443-5.443" transform="translate(-173.447 -85.049)" fill="none" stroke="#263238" stroke-linecap="round" stroke-linejoin="round" stroke-width="1.143"></path>       <path id="Caminho_18956" data-name="Caminho 18956" d="M267.62,94.068a6.819,6.819,0,0,1-.056-1.838" transform="translate(-176.556 -83.681)" fill="none" stroke="#263238" stroke-linecap="round" stroke-linejoin="round" stroke-width="1.143"></path>       <path id="Caminho_18957" data-name="Caminho 18957" d="M271.245,103.431A26.508,26.508,0,0,1,268.45,97.8" transform="translate(-176.834 -85.359)" fill="none" stroke="#263238" stroke-linecap="round" stroke-linejoin="round" stroke-width="1.143"></path>       <path id="Caminho_18958" data-name="Caminho 18958" d="M296.15,118.85a33.229,33.229,0,0,0,10.662.231" transform="translate(-185.18 -91.702)" fill="none" stroke="#263238" stroke-linecap="round" stroke-linejoin="round" stroke-width="1.143"></path>       <path id="Caminho_18959" data-name="Caminho 18959" d="M321.16,134.07h1.579" transform="translate(-192.716 -96.288)" fill="none" stroke="#263238" stroke-linecap="round" stroke-linejoin="round" stroke-width="1.143"></path>       <path id="Caminho_18960" data-name="Caminho 18960" d="M307.51,132.16a44.453,44.453,0,0,0,7.05,1.174" transform="translate(-188.603 -95.712)" fill="none" stroke="#263238" stroke-linecap="round" stroke-linejoin="round" stroke-width="1.143"></path>       <path id="Caminho_18961" data-name="Caminho 18961" d="M305.94,138.32s5.638,6.134,9.719,7.266" transform="translate(-188.13 -97.568)" fill="none" stroke="#263238" stroke-linecap="round" stroke-linejoin="round" stroke-width="1.143"></path>       <path id="Caminho_18962" data-name="Caminho 18962" d="M282.772,134.744c0-.615-3.088-7.811-8.433-12.954s-15.63-6.372-19.123-6.169a8.186,8.186,0,0,0-5.142,1.852s-3.7,13.576-5.548,18.306a19.235,19.235,0,0,0-.154,12.632,49.1,49.1,0,0,0,5.086,10.4c3.088,4.933,3.088,18.508,3.088,18.508s15.42-6.987,17.272-9.46.817-11.1,1.642-15.217a13.59,13.59,0,0,1,.741-2.452,12.366,12.366,0,0,0,2.348-3.717S282.772,135.387,282.772,134.744Z" transform="translate(-169.28 -90.722)" fill="#fff"></path>       <g id="Grupo_7690" data-name="Grupo 7690" transform="translate(74.101 24.878)" clip-path="url(#clip-path-3)">         <path id="Caminho_18963" data-name="Caminho 18963" d="M281.261,130.752l-4.534-.272a144.457,144.457,0,0,1-4.891,17.223c-2.872,7.748-6.889,12.339-10.907,13.778s-8.608-.573-6.889,1.719c1.02,1.362,7.21,7.183,14.107,12.4a19.159,19.159,0,0,0,4.758-3.242c1.852-2.466.817-11.1,1.642-15.217a13.589,13.589,0,0,1,.741-2.452,12.367,12.367,0,0,0,2.348-3.717s8.224-11.1,8.224-11.724C285.872,138.8,284.223,134.854,281.261,130.752Z" transform="translate(-246.481 -120.084)" fill="#8f00fc "></path>         <path id="Caminho_18964" data-name="Caminho 18964" d="M281.261,130.752l-4.534-.272a144.457,144.457,0,0,1-4.891,17.223c-2.872,7.748-6.889,12.339-10.907,13.778s-8.608-.573-6.889,1.719c1.02,1.362,7.21,7.183,14.107,12.4a19.159,19.159,0,0,0,4.758-3.242c1.852-2.466.817-11.1,1.642-15.217a13.589,13.589,0,0,1,.741-2.452,12.367,12.367,0,0,0,2.348-3.717s8.224-11.1,8.224-11.724C285.872,138.8,284.223,134.854,281.261,130.752Z" transform="translate(-246.481 -120.084)" fill="#fff" opacity="0.5"></path>       </g>       <path id="Caminho_18966" data-name="Caminho 18966" d="M282.772,134.744c0-.615-3.088-7.811-8.433-12.954s-15.63-6.372-19.123-6.169a8.186,8.186,0,0,0-5.142,1.852s-3.7,13.576-5.548,18.306a19.235,19.235,0,0,0-.154,12.632,49.1,49.1,0,0,0,5.086,10.4c3.088,4.933,3.088,18.508,3.088,18.508s15.42-6.987,17.272-9.46.817-11.1,1.642-15.217a13.59,13.59,0,0,1,.741-2.452,12.366,12.366,0,0,0,2.348-3.717S282.772,135.387,282.772,134.744Z" transform="translate(-169.28 -90.722)" fill="none" stroke="#263238" stroke-linecap="round" stroke-linejoin="round" stroke-width="1.143"></path>       <path id="Caminho_18967" data-name="Caminho 18967" d="M259.477,136.27a5.141,5.141,0,0,1-2.669,3.284c-2.054.817-4.73.622-3.913,2.061s3.913,2.257,3.913,2.257" transform="translate(-172.102 -96.95)" fill="none" stroke="#263238" stroke-linecap="round" stroke-linejoin="round" stroke-width="1.143"></path>       <path id="Caminho_18968" data-name="Caminho 18968" d="M254.44,154.51s3.493,1.439,5.548.412" transform="translate(-172.613 -102.446)" fill="none" stroke="#263238" stroke-linecap="round" stroke-linejoin="round" stroke-width="1.143"></path>       <path id="Caminho_18969" data-name="Caminho 18969" d="M272.385,139.21s-.412,3.493,3.906,2.879" transform="translate(-178.017 -97.836)" fill="none" stroke="#263238" stroke-linecap="round" stroke-linejoin="round" stroke-width="1.143"></path>       <path id="Caminho_18970" data-name="Caminho 18970" d="M252.67,134.5s2.054,3.291,4.933,1.237" transform="translate(-172.079 -96.417)" fill="none" stroke="#263238" stroke-linecap="round" stroke-linejoin="round" stroke-width="1.143"></path>       <path id="Caminho_18971" data-name="Caminho 18971" d="M273.86,132.373s3.7-1.237,5.345,3.291" transform="translate(-178.464 -95.73)" fill="none" stroke="#263238" stroke-linecap="round" stroke-linejoin="round" stroke-width="1.143"></path>       <path id="Caminho_18972" data-name="Caminho 18972" d="M259.81,129.227s-2.466-3.7-5.96-1.034" transform="translate(-172.435 -94.225)" fill="none" stroke="#263238" stroke-linecap="round" stroke-linejoin="round" stroke-width="1.143"></path>       <path id="Caminho_18973" data-name="Caminho 18973" d="M262.68,152.16s.2,3.081,1.845,3.7" transform="translate(-175.095 -101.738)" fill="none" stroke="#263238" stroke-linecap="round" stroke-linejoin="round" stroke-width="1.143"></path>       <path id="Caminho_18974" data-name="Caminho 18974" d="M285.293,157.75s-5.757,6.987-9.663,8.224" transform="translate(-178.997 -103.423)" fill="none" stroke="#263238" stroke-linecap="round" stroke-linejoin="round" stroke-width="1.143"></path>       <path id="Caminho_18975" data-name="Caminho 18975" d="M287.665,135.38s-2.676,3.193-2.376,5.89,4.458,5.394,5.645,5.394,4.458-4.891,4.458-4.891S290.67,136.61,287.665,135.38Z" transform="translate(-181.901 -96.682)" fill="#263238" stroke="#263238" stroke-linecap="round" stroke-linejoin="round" stroke-width="1.143"></path>       <path id="Caminho_18976" data-name="Caminho 18976" d="M254.967,122.1s-2.313,2.313-7.9,2.313a53.169,53.169,0,0,1-9.432-.769S250.154,120.568,254.967,122.1Z" transform="translate(-167.551 -92.553)" fill="#263238" stroke="#263238" stroke-linecap="round" stroke-linejoin="round" stroke-width="1.143"></path>       <path id="Caminho_18977" data-name="Caminho 18977" d="M206.57,173.306a10.774,10.774,0,0,0,21.135-3.766Z" transform="translate(-158.189 -106.975)" fill="#fff"></path>       <g id="Grupo_7691" data-name="Grupo 7691" transform="translate(48.381 62.565)" clip-path="url(#clip-path-4)">         <path id="Caminho_18978" data-name="Caminho 18978" d="M206.57,173.306a10.774,10.774,0,0,0,21.135-3.766Z" transform="translate(-206.57 -169.54)" opacity="0.42"></path>       </g>       <path id="Caminho_18980" data-name="Caminho 18980" d="M206.57,173.306a10.774,10.774,0,0,0,21.135-3.766Z" transform="translate(-158.189 -106.975)" fill="none" stroke="#263238" stroke-linecap="round" stroke-linejoin="round" stroke-width="1.143"></path>       <path id="Caminho_18981" data-name="Caminho 18981" d="M186.719,130.919a10.264,10.264,0,0,0,1.153-4.234c0-2.1-.769-5.59-1.921-5.2s-1.153,3.27-.964,4.234a7.267,7.267,0,0,1-.189,2.5,3.551,3.551,0,0,0-.2,3.081C185.37,132.652,186.719,130.919,186.719,130.919Z" transform="translate(-151.48 -92.487)" fill="#fff" stroke="#263238" stroke-linecap="round" stroke-linejoin="round" stroke-width="1.143"></path>       <path id="Caminho_18982" data-name="Caminho 18982" d="M195.752,155.072,174.889,110.3a2.215,2.215,0,0,0-2.955-1.062h0a2.208,2.208,0,0,0-1.034,2.983l.915,1.838" transform="translate(-147.371 -88.741)" fill="none" stroke="#263238" stroke-linecap="round" stroke-linejoin="round" stroke-width="1.143"></path>       <path id="Caminho_18983" data-name="Caminho 18983" d="M176.46,124.612s0,2.313.964,2.893,5.967,3.493,6.162,1.733-3.493-4.045-4.618-4.625A2.352,2.352,0,0,0,176.46,124.612Z" transform="translate(-149.116 -93.328)" fill="none" stroke="#263238" stroke-linecap="round" stroke-linejoin="round" stroke-width="1.143"></path>       <path id="Caminho_18984" data-name="Caminho 18984" d="M170.651,128.91s-3.081,6.155-3.081,8.852V147.97s-11.934,12.514-12.514,15.783-2.1,11.179,0,11.179,11.941-9.439,12.709-11.361,5.387-14.631,5.387-14.631a10.355,10.355,0,0,1,1.348-1.733c.769-.776.964-5.778.964-5.778s2.1-.2,2.1-1.348v-6.917C177.582,131.6,170.651,128.91,170.651,128.91Z" transform="translate(-142.344 -94.733)" fill="#fff"></path>       <g id="Grupo_7692" data-name="Grupo 7692" transform="translate(11.639 34.177)" clip-path="url(#clip-path-5)">         <path id="Caminho_18985" data-name="Caminho 18985" d="M167.834,164.918c.769-1.928,5.387-14.631,5.387-14.631a10.356,10.356,0,0,1,1.348-1.733c.769-.776.964-5.778.964-5.778s2.1-.2,2.1-1.348v-6.91c0-.335-.328-.7-.838-1.118l-1.4,6.288-5.541.552a14.078,14.078,0,0,1,1.935,4.192c.559,2.215-.272,6.093-1.656,9.691-1.307,3.4-14.435,19.347-15.923,21.156.161.65.447,1.048.922,1.048C157.242,176.279,167.066,166.839,167.834,164.918Z" transform="translate(-154.051 -130.263)" fill="#8f00fc "></path>         <path id="Caminho_18986" data-name="Caminho 18986" d="M167.834,164.918c.769-1.928,5.387-14.631,5.387-14.631a10.356,10.356,0,0,1,1.348-1.733c.769-.776.964-5.778.964-5.778s2.1-.2,2.1-1.348v-6.91c0-.335-.328-.7-.838-1.118l-1.4,6.288-5.541.552a14.078,14.078,0,0,1,1.935,4.192c.559,2.215-.272,6.093-1.656,9.691-1.307,3.4-14.435,19.347-15.923,21.156.161.65.447,1.048.922,1.048C157.242,176.279,167.066,166.839,167.834,164.918Z" transform="translate(-154.051 -130.263)" fill="#fff" opacity="0.5"></path>       </g>       <path id="Caminho_18988" data-name="Caminho 18988" d="M170.651,128.91s-3.081,6.155-3.081,8.852V147.97s-11.934,12.514-12.514,15.783-2.1,11.179,0,11.179,11.941-9.439,12.709-11.361,5.387-14.631,5.387-14.631a10.355,10.355,0,0,1,1.348-1.733c.769-.776.964-5.778.964-5.778s2.1-.2,2.1-1.348v-6.917C177.582,131.6,170.651,128.91,170.651,128.91Z" transform="translate(-142.344 -94.733)" fill="none" stroke="#263238" stroke-linecap="round" stroke-linejoin="round" stroke-width="1.143"></path>       <path id="Caminho_18989" data-name="Caminho 18989" d="M183.651,146.154l-.58-1.544-1.921.2" transform="translate(-150.529 -99.463)" fill="none" stroke="#263238" stroke-linecap="round" stroke-linejoin="round" stroke-width="1.143"></path>       <line id="Linha_393" data-name="Linha 393" x2="6.547" y2="0.189" transform="translate(27.924 41.877)" fill="none" stroke="#263238" stroke-linecap="round" stroke-linejoin="round" stroke-width="1.143"></line>       <line id="Linha_394" data-name="Linha 394" x2="6.351" y2="1.544" transform="translate(28.308 38.216)" fill="none" stroke="#263238" stroke-linecap="round" stroke-linejoin="round" stroke-width="1.143"></line>       <path id="Caminho_18990" data-name="Caminho 18990" d="M354.283,244.027s-16.769,2.886-15.015,6.547l.58,2.7s-12.129,15.371-11.556,15.979,22.358,13.478,23.106,13.478,14.442-24.454,17.327-29.268,3.277-9.237-.384-11.549-7.686-4.43-7.686-4.43" transform="translate(-194.859 -127.446)" fill="#fff"></path>       <g id="Grupo_7693" data-name="Grupo 7693" transform="translate(133.413 110.034)" clip-path="url(#clip-path-6)">         <path id="Caminho_18991" data-name="Caminho 18991" d="M371,241.91c-3.661-2.313-7.686-4.43-7.686-4.43l-2.341,2.41c2.376,2.026,6.428,5.764,6.631,7.783.286,2.872-4.017,8.615-4.59,9.782s-5.743-8.035-10.62-8.035.21,1.817,2.795,4.639a8.606,8.606,0,0,1,.9,10.285c-1.886,2.7-22.218,1.341-18.55,8.992,6.651,3.976,15.993,9.411,16.5,9.411.769,0,14.442-24.454,17.327-29.268S374.661,244.222,371,241.91Z" transform="translate(-330.931 -237.48)" fill="#8f00fc "></path>         <path id="Caminho_18992" data-name="Caminho 18992" d="M371,241.91c-3.661-2.313-7.686-4.43-7.686-4.43l-2.341,2.41c2.376,2.026,6.428,5.764,6.631,7.783.286,2.872-4.017,8.615-4.59,9.782s-5.743-8.035-10.62-8.035.21,1.817,2.795,4.639a8.606,8.606,0,0,1,.9,10.285c-1.886,2.7-22.218,1.341-18.55,8.992,6.651,3.976,15.993,9.411,16.5,9.411.769,0,14.442-24.454,17.327-29.268S374.661,244.222,371,241.91Z" transform="translate(-330.931 -237.48)" fill="#fff" opacity="0.5"></path>       </g>       <path id="Caminho_18994" data-name="Caminho 18994" d="M354.283,244.027s-16.769,2.886-15.015,6.547l.58,2.7s-12.129,15.371-11.556,15.979,22.358,13.478,23.106,13.478,14.442-24.454,17.327-29.268,3.277-9.237-.384-11.549-7.686-4.43-7.686-4.43" transform="translate(-194.859 -127.446)" fill="none" stroke="#263238" stroke-linecap="round" stroke-linejoin="round" stroke-width="1.143"></path>       <path id="Caminho_18995" data-name="Caminho 18995" d="M348.42,258.007s5.967-2.306,10.2,1.928,5.01,5.967,5.01,5.967a12.576,12.576,0,0,0-4.814-8.852" transform="translate(-200.93 -133.343)" fill="none" stroke="#263238" stroke-linecap="round" stroke-linejoin="round" stroke-width="1.143"></path>       <path id="Caminho_18996" data-name="Caminho 18996" d="M310.268,295.858a14.842,14.842,0,0,1-3.85,3.493,20.451,20.451,0,0,0-7.127,6.735c-2.313,3.493-5.2,6.547-3.493,7.9a6.184,6.184,0,0,0,3.493,1.348s1.153,2.7,2.7,2.886a20.609,20.609,0,0,0,2.313.2s1.341,1.348,2.1,1.348h1.963s.769.964,2.5,0,3.493-6.742,4.045-8.664a31.094,31.094,0,0,0,.58-5.974l2.7-3.85-6.162-6.162Z" transform="translate(-184.919 -144.811)" fill="#fff"></path>       <g id="Grupo_7694" data-name="Grupo 7694" transform="translate(110.364 150.299)" clip-path="url(#clip-path-7)">         <path id="Caminho_18997" data-name="Caminho 18997" d="M314.35,295.846a18.784,18.784,0,0,1-1.516,1.684l2.753,6.351s-2.1,10.2-3.6,13.017a4.328,4.328,0,0,1-3.158,1.879,3.452,3.452,0,0,0,1.67.943h1.942s.769.964,2.5,0,3.493-6.742,4.045-8.664a31.1,31.1,0,0,0,.58-5.974l2.7-3.85L316.1,295.07Z" transform="translate(-299.365 -295.098)" fill="#8f00fc "></path>         <path id="Caminho_18998" data-name="Caminho 18998" d="M314.35,295.846a18.784,18.784,0,0,1-1.516,1.684l2.753,6.351s-2.1,10.2-3.6,13.017a4.328,4.328,0,0,1-3.158,1.879,3.452,3.452,0,0,0,1.67.943h1.942s.769.964,2.5,0,3.493-6.742,4.045-8.664a31.1,31.1,0,0,0,.58-5.974l2.7-3.85L316.1,295.07Z" transform="translate(-299.365 -295.098)" fill="#fff" opacity="0.5"></path>       </g>       <path id="Caminho_19000" data-name="Caminho 19000" d="M310.268,295.858a14.842,14.842,0,0,1-3.85,3.493,20.451,20.451,0,0,0-7.127,6.735c-2.313,3.493-5.2,6.547-3.493,7.9a6.184,6.184,0,0,0,3.493,1.348s1.153,2.7,2.7,2.886a20.609,20.609,0,0,0,2.313.2s1.341,1.348,2.1,1.348h1.963s.769.964,2.5,0,3.493-6.742,4.045-8.664a31.094,31.094,0,0,0,.58-5.974l2.7-3.85-6.162-6.162Z" transform="translate(-184.919 -144.811)" fill="none" stroke="#263238" stroke-linecap="round" stroke-linejoin="round" stroke-width="1.143"></path>       <path id="Caminho_19001" data-name="Caminho 19001" d="M323.741,279.64s22.714,11.941,24.063,12.709,1.928,3.081,1.544,5.589,2.306,11.941-.58,11.941-15.406-3.85-22.721-7.9S315.07,291.972,315.07,291.2,323.741,279.64,323.741,279.64Z" transform="translate(-190.881 -140.149)" fill="#263238" stroke="#263238" stroke-linecap="round" stroke-linejoin="round" stroke-width="1.143"></path>       <path id="Caminho_19002" data-name="Caminho 19002" d="M283.9,133.679l5.555-5.59c2.969-2.969-2.243-8.734-4.129-10.865a39.357,39.357,0,0,0-16.286-10.886c-3.794-1.355-12.038-3.927-14.128,1.195l-3.7,9.041s10.075-.817,18.711,3.7S283.9,133.679,283.9,133.679Z" transform="translate(-171.639 -87.372)" fill="#fff"></path>       <g id="Grupo_7695" data-name="Grupo 7695" transform="translate(79.571 17.109)" clip-path="url(#clip-path-8)">         <path id="Caminho_19003" data-name="Caminho 19003" d="M271.2,106.394c-3.221-1.153-9.663-3.165-12.807-.6,2.536-.07,6.54.65,12.576,3.675,12.632,6.288,12.919,8.321,12.052,11.479-.356,1.314-2,3.018-3.8,4.562a43.172,43.172,0,0,1,6.847,8.189l5.555-5.59c2.969-2.969-2.243-8.734-4.129-10.865A39.357,39.357,0,0,0,271.2,106.394Z" transform="translate(-253.373 -104.502)" fill="#8f00fc "></path>         <path id="Caminho_19004" data-name="Caminho 19004" d="M271.2,106.394c-3.221-1.153-9.663-3.165-12.807-.6,2.536-.07,6.54.65,12.576,3.675,12.632,6.288,12.919,8.321,12.052,11.479-.356,1.314-2,3.018-3.8,4.562a43.172,43.172,0,0,1,6.847,8.189l5.555-5.59c2.969-2.969-2.243-8.734-4.129-10.865A39.357,39.357,0,0,0,271.2,106.394Z" transform="translate(-253.373 -104.502)" fill="#fff" opacity="0.5"></path>       </g>       <path id="Caminho_19006" data-name="Caminho 19006" d="M283.9,133.679l5.555-5.59c2.969-2.969-2.243-8.734-4.129-10.865a39.357,39.357,0,0,0-16.286-10.886c-3.794-1.355-12.038-3.927-14.128,1.195l-3.7,9.041s10.075-.817,18.711,3.7S283.9,133.679,283.9,133.679Z" transform="translate(-171.639 -87.372)" fill="none" stroke="#263238" stroke-linecap="round" stroke-linejoin="round" stroke-width="1.143"></path>       <path id="Caminho_19007" data-name="Caminho 19007" d="M288.4,149.377s6.372-5.142,8.224-2.061-2.466,7.406-5.757,7.406a8.618,8.618,0,0,1-4.933-1.237" transform="translate(-182.101 -99.982)" fill="#fff"></path>       <g id="Grupo_7696" data-name="Grupo 7696" transform="translate(103.829 46.35)" clip-path="url(#clip-path-9)">         <path id="Caminho_19008" data-name="Caminho 19008" d="M288.4,149.377s6.372-5.142,8.224-2.061-2.466,7.406-5.757,7.406a8.618,8.618,0,0,1-4.933-1.237" transform="translate(-285.93 -146.332)" fill="#8f00fc "></path>         <path id="Caminho_19009" data-name="Caminho 19009" d="M288.4,149.377s6.372-5.142,8.224-2.061-2.466,7.406-5.757,7.406a8.618,8.618,0,0,1-4.933-1.237" transform="translate(-285.93 -146.332)" fill="#fff" opacity="0.5"></path>       </g>       <path id="Caminho_19011" data-name="Caminho 19011" d="M288.4,149.377s6.372-5.142,8.224-2.061-2.466,7.406-5.757,7.406a8.618,8.618,0,0,1-4.933-1.237" transform="translate(-182.101 -99.982)" fill="none" stroke="#263238" stroke-linecap="round" stroke-linejoin="round" stroke-width="1.143"></path>     </g>     <g id="freepik--cooking-pots--inject-4" transform="translate(73.41 203.338)">       <line id="Linha_395" data-name="Linha 395" x2="225.418" transform="translate(0 111.071)" fill="none" stroke="#263238" stroke-linecap="round" stroke-linejoin="round" stroke-width="1.143"></line>       <path id="Caminho_19012" data-name="Caminho 19012" d="M203.335,317.69H135.29v74.327c0,4.472,15.294,8.1,34.166,8.1s34.166-3.626,34.166-8.1Z" transform="translate(-92.055 -274.958)" fill="#fff"></path>       <g id="Grupo_7697" data-name="Grupo 7697" transform="translate(43.235 42.732)" clip-path="url(#clip-path-10)">         <path id="Caminho_19013" data-name="Caminho 19013" d="M203.335,317.69H135.29v74.327c0,4.472,15.294,8.1,34.166,8.1s34.166-3.626,34.166-8.1Z" transform="translate(-135.29 -317.69)" opacity="0.42"></path>         <path id="Caminho_19014" data-name="Caminho 19014" d="M158.45,317.69V398.9a123.118,123.118,0,0,0,15.693,1.195v-82.4Z" transform="translate(-142.268 -317.69)" fill="#263238"></path>         <path id="Caminho_19015" data-name="Caminho 19015" d="M189.34,317.69v82.375c1.67,0,3.312-.1,4.891-.2V317.69Z" transform="translate(-151.576 -317.69)" fill="#263238"></path>         <path id="Caminho_19016" data-name="Caminho 19016" d="M199.87,317.69v82q2.55-.21,4.891-.5v-81.5Z" transform="translate(-154.749 -317.69)" fill="#fff"></path>       </g>       <path id="Caminho_19018" data-name="Caminho 19018" d="M203.335,317.69H135.29v74.327c0,4.472,15.294,8.1,34.166,8.1s34.166-3.626,34.166-8.1Z" transform="translate(-92.055 -274.958)" fill="none" stroke="#263238" stroke-linecap="round" stroke-linejoin="round" stroke-width="1.143"></path>       <path id="Caminho_19019" data-name="Caminho 19019" d="M167.744,300.7a114.263,114.263,0,0,0-26.341,2.613c-4.793,1.146-13.527,3.563-11.493,10.48.908,3.088,4.479,4.276,7.2,5.254a56.916,56.916,0,0,0,10.348,2.292,131.354,131.354,0,0,0,20.262,1.446,113.966,113.966,0,0,0,26.355-2.62c3.493-.824,7.818-1.719,10.264-4.562a5.925,5.925,0,0,0-.7-8.566c-2.893-2.194-6.91-3.116-10.376-3.892a104.622,104.622,0,0,0-16.81-2.18Q172.118,300.7,167.744,300.7Z" transform="translate(-90.343 -269.839)" fill="#fff"></path>       <g id="Grupo_7698" data-name="Grupo 7698" transform="translate(39.265 30.861)" clip-path="url(#clip-path-11)">         <path id="Caminho_19020" data-name="Caminho 19020" d="M167.744,300.7a114.263,114.263,0,0,0-26.341,2.613c-4.793,1.146-13.527,3.563-11.493,10.48.908,3.088,4.479,4.276,7.2,5.254a56.916,56.916,0,0,0,10.348,2.292,131.354,131.354,0,0,0,20.262,1.446,113.966,113.966,0,0,0,26.355-2.62c3.493-.824,7.818-1.719,10.264-4.562a5.925,5.925,0,0,0-.7-8.566c-2.893-2.194-6.91-3.116-10.376-3.892a104.622,104.622,0,0,0-16.81-2.18Q172.118,300.7,167.744,300.7Z" transform="translate(-129.608 -300.7)" opacity="0.42"></path>       </g>       <path id="Caminho_19022" data-name="Caminho 19022" d="M167.744,300.7a114.263,114.263,0,0,0-26.341,2.613c-4.793,1.146-13.527,3.563-11.493,10.48.908,3.088,4.479,4.276,7.2,5.254a56.916,56.916,0,0,0,10.348,2.292,131.354,131.354,0,0,0,20.262,1.446,113.966,113.966,0,0,0,26.355-2.62c3.493-.824,7.818-1.719,10.264-4.562a5.925,5.925,0,0,0-.7-8.566c-2.893-2.194-6.91-3.116-10.376-3.892a104.622,104.622,0,0,0-16.81-2.18Q172.118,300.7,167.744,300.7Z" transform="translate(-90.343 -269.839)" fill="none" stroke="#263238" stroke-linecap="round" stroke-linejoin="round" stroke-width="1.143"></path>       <ellipse id="Elipse_111" data-name="Elipse 111" cx="34.131" cy="7.259" rx="34.131" ry="7.259" transform="translate(43.27 32.873)" fill="#fff"></ellipse>       <g id="Grupo_7699" data-name="Grupo 7699" transform="translate(43.27 32.873)" clip-path="url(#clip-path-12)">         <ellipse id="Elipse_112" data-name="Elipse 112" cx="34.131" cy="7.259" rx="34.131" ry="7.259" opacity="0.65"></ellipse>       </g>       <ellipse id="Elipse_114" data-name="Elipse 114" cx="34.131" cy="7.259" rx="34.131" ry="7.259" transform="translate(43.27 32.873)" fill="none" stroke="#263238" stroke-linecap="round" stroke-linejoin="round" stroke-width="1.143"></ellipse>       <path id="Caminho_19023" data-name="Caminho 19023" d="M134.851,341.306s-5-8.475-3.493-11.179,8.279-.189,10.208,2.313,3.661,9.439,2.7,9.628-2.5.384-2.893-.957-2.306-7.127-3.493-7.9-3.85-2.306-3.85-.573,2.893,7.686,2.5,8.664S136.011,342.459,134.851,341.306Z" transform="translate(-90.785 -278.354)" fill="#263238"></path>       <path id="Caminho_19024" data-name="Caminho 19024" d="M301.838,340.9H247.18v59.7c0,3.591,12.29,6.5,27.444,6.5s27.445-2.914,27.445-6.5Z" transform="translate(-125.769 -281.952)" fill="#fff"></path>       <g id="Grupo_7700" data-name="Grupo 7700" transform="translate(121.411 58.948)" clip-path="url(#clip-path-13)">         <path id="Caminho_19025" data-name="Caminho 19025" d="M301.838,340.9H247.18v59.7c0,3.591,12.29,6.5,27.444,6.5s27.445-2.914,27.445-6.5Z" transform="translate(-247.18 -340.9)" opacity="0.42"></path>       </g>       <path id="Caminho_19027" data-name="Caminho 19027" d="M301.838,340.9H247.18v59.7c0,3.591,12.29,6.5,27.444,6.5s27.445-2.914,27.445-6.5Z" transform="translate(-125.769 -281.952)" fill="none" stroke="#263238" stroke-linecap="round" stroke-linejoin="round" stroke-width="1.143"></path>       <path id="Caminho_19028" data-name="Caminho 19028" d="M265.79,340.9v65.23a99.314,99.314,0,0,0,12.576.964V340.9Z" transform="translate(-131.376 -281.952)" fill="#263238"></path>       <path id="Caminho_19029" data-name="Caminho 19029" d="M290.59,340.9v66.173q2.026-.056,3.941-.168V340.9Z" transform="translate(-138.849 -281.952)" fill="#263238"></path>       <path id="Caminho_19030" data-name="Caminho 19030" d="M299.05,340.9v65.865c1.362-.112,2.683-.245,3.941-.4V340.9Z" transform="translate(-141.398 -281.952)" fill="#fff"></path>       <path id="Caminho_19031" data-name="Caminho 19031" d="M273.251,327.26a91.94,91.94,0,0,0-21.156,2.1c-3.857.915-10.865,2.858-9.23,8.384.7,2.48,3.591,3.431,5.785,4.192a45.473,45.473,0,0,0,8.307,1.914,105.942,105.942,0,0,0,16.293,1.16,92.1,92.1,0,0,0,21.17-2.1c2.795-.664,6.288-1.4,8.245-3.668a4.765,4.765,0,0,0-.566-6.882c-2.32-1.754-5.555-2.494-8.328-3.123a84.469,84.469,0,0,0-13.506-1.754Q276.766,327.26,273.251,327.26Z" transform="translate(-124.395 -277.842)" fill="#fff"></path>       <g id="Grupo_7701" data-name="Grupo 7701" transform="translate(118.227 49.418)" clip-path="url(#clip-path-14)">         <path id="Caminho_19032" data-name="Caminho 19032" d="M273.251,327.26a91.94,91.94,0,0,0-21.156,2.1c-3.857.915-10.865,2.858-9.23,8.384.7,2.48,3.591,3.431,5.785,4.192a45.473,45.473,0,0,0,8.307,1.914,105.942,105.942,0,0,0,16.293,1.16,92.1,92.1,0,0,0,21.17-2.1c2.795-.664,6.288-1.4,8.245-3.668a4.765,4.765,0,0,0-.566-6.882c-2.32-1.754-5.555-2.494-8.328-3.123a84.469,84.469,0,0,0-13.506-1.754Q276.766,327.26,273.251,327.26Z" transform="translate(-242.622 -327.26)" opacity="0.42"></path>       </g>       <path id="Caminho_19034" data-name="Caminho 19034" d="M273.251,327.26a91.94,91.94,0,0,0-21.156,2.1c-3.857.915-10.865,2.858-9.23,8.384.7,2.48,3.591,3.431,5.785,4.192a45.473,45.473,0,0,0,8.307,1.914,105.942,105.942,0,0,0,16.293,1.16,92.1,92.1,0,0,0,21.17-2.1c2.795-.664,6.288-1.4,8.245-3.668a4.765,4.765,0,0,0-.566-6.882c-2.32-1.754-5.555-2.494-8.328-3.123a84.469,84.469,0,0,0-13.506-1.754Q276.766,327.26,273.251,327.26Z" transform="translate(-124.395 -277.842)" fill="none" stroke="#263238" stroke-linecap="round" stroke-linejoin="round" stroke-width="1.143"></path>       <ellipse id="Elipse_115" data-name="Elipse 115" cx="27.417" cy="5.834" rx="27.417" ry="5.834" transform="translate(121.439 51.032)" fill="#fff"></ellipse>       <g id="Grupo_7702" data-name="Grupo 7702" transform="translate(121.439 51.032)" clip-path="url(#clip-path-15)">         <ellipse id="Elipse_116" data-name="Elipse 116" cx="27.417" cy="5.834" rx="27.417" ry="5.834" opacity="0.65"></ellipse>       </g>       <ellipse id="Elipse_118" data-name="Elipse 118" cx="27.417" cy="5.834" rx="27.417" ry="5.834" transform="translate(121.439 51.032)" fill="none" stroke="#263238" stroke-linecap="round" stroke-linejoin="round" stroke-width="1.143"></ellipse>       <path id="Caminho_19035" data-name="Caminho 19035" d="M246.834,359.878s-4.024-6.805-2.795-8.971,6.652-.154,8.2,1.852,2.934,7.581,2.166,7.734-2.012.314-2.32-.769-1.859-5.722-2.795-6.344-3.1-1.859-3.1-.461,2.327,6.183,2.012,6.987S247.763,360.807,246.834,359.878Z" transform="translate(-124.752 -284.685)" fill="#263238"></path>       <path id="Caminho_19036" data-name="Caminho 19036" d="M158.7,268.91c0,4.332,3.92,4.332,3.92,8.657s-3.92,4.325-3.92,8.657,3.92,4.325,3.92,8.657-3.92,4.332-3.92,8.657" transform="translate(-99.109 -260.26)" fill="none" stroke="#263238" stroke-linecap="round" stroke-linejoin="round" stroke-width="1.143"></path>       <path id="Caminho_19037" data-name="Caminho 19037" d="M163.141,256.53c0,2.725-1.558,3.731-2.711,5.191" transform="translate(-99.63 -256.53)" fill="none" stroke="#263238" stroke-linecap="round" stroke-linejoin="round" stroke-width="1.143"></path>       <path id="Caminho_19038" data-name="Caminho 19038" d="M183.11,268.44c0,3.493-3.92,3.493-3.92,6.987s3.92,3.493,3.92,6.987-3.92,3.493-3.92,6.987,3.92,3.493,3.92,6.987-3.92,3.493-3.92,6.987" transform="translate(-105.283 -260.119)" fill="none" stroke="#263238" stroke-linecap="round" stroke-linejoin="round" stroke-width="1.143"></path>       <path id="Caminho_19039" data-name="Caminho 19039" d="M203.6,256.53c0,4.325-3.92,4.325-3.92,8.65s3.92,4.332,3.92,8.657-3.92,4.325-3.92,8.657,3.92,4.325,3.92,8.657-3.92,4.332-3.92,8.657" transform="translate(-111.457 -256.53)" fill="none" stroke="#263238" stroke-linecap="round" stroke-linejoin="round" stroke-width="1.143"></path>       <path id="Caminho_19040" data-name="Caminho 19040" d="M270.314,307.69a3.905,3.905,0,0,1,.461,1.942c0,3.256-2.955,3.256-2.955,6.519s2.955,3.263,2.955,6.526-2.955,3.27-2.955,6.533" transform="translate(-131.988 -271.945)" fill="none" stroke="#263238" stroke-linecap="round" stroke-linejoin="round" stroke-width="1.143"></path>       <path id="Caminho_19041" data-name="Caminho 19041" d="M286.225,300.77c0,2.634-2.956,2.634-2.956,5.268s2.956,2.634,2.956,5.268-2.956,2.634-2.956,5.275,2.956,2.634,2.956,5.268-2.956,2.634-2.956,5.275" transform="translate(-136.643 -269.86)" fill="none" stroke="#263238" stroke-linecap="round" stroke-linejoin="round" stroke-width="1.143"></path>       <path id="Caminho_19042" data-name="Caminho 19042" d="M300.322,315a4.518,4.518,0,0,0-1.572,3.361c0,3.263,2.955,3.263,2.955,6.526s-2.955,3.27-2.955,6.533" transform="translate(-141.307 -274.148)" fill="none" stroke="#263238" stroke-linecap="round" stroke-linejoin="round" stroke-width="1.143"></path>     </g>   </g> </svg>