<svg xmlns="http://www.w3.org/2000/svg" xmlns:xlink="http://www.w3.org/1999/xlink" width="276.75" height="249.503" viewBox="0 0 276.75 249.503">   <defs>     <clipPath id="clip-path">       <path id="Caminho_19103" data-name="Caminho 19103" d="M255.406,159.671s25.044,24.2,26.169,36.3-17.449,21.95-12.1,25.888,19.962,14.355,14.346,23.356-8.439,11.261-6.47,13.23,6.751,3.63,6.47,8.439-5.907,8.938-5.907,8.938H188.994s-4.782.281-4.219-6.47,10.126-10.408,8.439-15.48-14.073-9-14.073-19.137,14.636-14.346,16.886-19.128-7.314-7.885-9.283-14.073,8.166-16.886,14.346-22.512,30.96-21.95,40.832-22.512S255.406,159.671,255.406,159.671Z" transform="translate(-179.14 -156.446)" fill="#263238" stroke="#263238" stroke-linecap="round" stroke-linejoin="round" stroke-width="1"></path>     </clipPath>     <clipPath id="clip-path-2">       <path id="Caminho_19115" data-name="Caminho 19115" d="M279.135,363.192c-4.156-3.239-9.555-8.566-12.141-15.825-4.02-11.261-6.978-71.683-7.595-85.294-2.151-.653-4.31-1.307-6.433-1.933l.907,56.829H213.5l-3.53-56.539c-2.15.662-4.319,1.343-6.442,2.014.045,11.478.045,65.023-3.185,80.385-2.477,11.8-12.794,19.754-19.055,23.592a164.917,164.917,0,0,1-8.593,35.814H288.381A133.511,133.511,0,0,1,279.135,363.192Z" transform="translate(-172.69 -260.14)" fill="#263238" stroke="#263238" stroke-linecap="round" stroke-linejoin="round" stroke-width="1"></path>     </clipPath>     <clipPath id="clip-path-3">       <path id="Caminho_19132" data-name="Caminho 19132" d="M196.961,198.826s44.181-18.293,54.879-26.741,13.5-24.762-11.542-23.919-51.494,30.116-53.744,43.618,6.724,10.671,6.724,10.671" transform="translate(-186.191 -148.135)" fill="#263238" stroke="#263238" stroke-linecap="round" stroke-linejoin="round" stroke-width="1"></path>     </clipPath>   </defs>   <g id="Grupo_7708" data-name="Grupo 7708" transform="translate(-1011.097 -789.717)">     <g id="freepik--Plants--inject-190" transform="translate(1011.597 892.913)">       <path id="Caminho_19068" data-name="Caminho 19068" d="M99.015,277.362s0-3.493-4.882-8.375-8.03-7.677-8.03-7.677-2.441,8.03,2.1,12.912a86.1,86.1,0,0,0,10.816,9.419Z" transform="translate(-49.308 -261.31)" fill="#8f00fc "></path>       <path id="Caminho_19069" data-name="Caminho 19069" d="M91.205,301.363s0-3.484-4.891-8.366-8.021-7.676-8.021-7.676-2.441,8.021,2.1,12.9a85.293,85.293,0,0,0,10.816,9.419Z" transform="translate(-48.585 -263.534)" fill="#8f00fc "></path>       <path id="Caminho_19070" data-name="Caminho 19070" d="M99.992,284.041s.363-3.466,5.735-7.8,8.793-6.787,8.793-6.787,1.579,8.239-3.448,12.613a85.294,85.294,0,0,1-11.742,8.23Z" transform="translate(-50.594 -262.064)" fill="#8f00fc "></path>       <path id="Caminho_19071" data-name="Caminho 19071" d="M90.486,312.565s.735-3.412,6.533-7.168,9.455-5.816,9.455-5.816.69,8.348-4.755,12.177A85.012,85.012,0,0,1,89.17,318.7Z" transform="translate(-49.653 -264.854)" fill="#8f00fc "></path>       <path id="Caminho_19072" data-name="Caminho 19072" d="M92.4,343.163s0-3.493,4.882-8.375,8.021-7.667,8.021-7.667,2.441,8.021-2.1,12.9A85.638,85.638,0,0,1,92.4,349.442Z" transform="translate(-49.952 -267.405)" fill="#8f00fc "></path>       <path id="Caminho_19073" data-name="Caminho 19073" d="M91.086,350.532s.49-3.448-3.63-8.974-6.851-8.738-6.851-8.738-3.557,7.595.236,13.066a85.6,85.6,0,0,0,9.364,10.889Z" transform="translate(-48.72 -267.933)" fill="#8f00fc "></path>       <path id="Caminho_19074" data-name="Caminho 19074" d="M87,373.063s0-3.484,4.882-8.366S99.9,357.02,99.9,357.02s2.441,8.021-2.087,12.9A85.29,85.29,0,0,1,87,379.342Z" transform="translate(-49.452 -270.174)" fill="#8f00fc "></path>       <path id="Caminho_19075" data-name="Caminho 19075" d="M90.579,393.082s-.907-3.375,2.6-9.337S99,374.29,99,374.29s4.4,7.141,1.252,13.012a39.184,39.184,0,0,1-8.965,10.471Z" transform="translate(-49.774 -271.774)" fill="#8f00fc "></path>       <path id="Caminho_19076" data-name="Caminho 19076" d="M99.571,278a99.036,99.036,0,0,1-1.334,10.834c-1.933,9.981-6.76,16.405-8.684,25.407s3.63,20.607,2.123,32.185-5.989,18-4.7,25.724,6.352,31.976,6.352,31.976" transform="translate(-49.429 -262.856)" fill="none" stroke="#263238" stroke-linecap="round" stroke-linejoin="round" stroke-width="1"></path>       <line id="Linha_436" data-name="Linha 436" y1="4.038" x2="5.254" transform="translate(49.353 20.262)" fill="none" stroke="#263238" stroke-linecap="round" stroke-linejoin="round" stroke-width="1"></line>       <line id="Linha_437" data-name="Linha 437" x1="2.196" y1="3.911" transform="translate(47.393 15.734)" fill="none" stroke="#263238" stroke-linecap="round" stroke-linejoin="round" stroke-width="1"></line>       <path id="Caminho_19077" data-name="Caminho 19077" d="M90.16,316.816s4.4-3.3,8.938-6.606" transform="translate(-49.745 -265.839)" fill="none" stroke="#263238" stroke-linecap="round" stroke-linejoin="round" stroke-width="1"></path>       <path id="Caminho_19078" data-name="Caminho 19078" d="M91.794,308.688A70.56,70.56,0,0,0,84,296.72" transform="translate(-49.174 -264.59)" fill="none" stroke="#263238" stroke-linecap="round" stroke-linejoin="round" stroke-width="1"></path>       <path id="Caminho_19079" data-name="Caminho 19079" d="M92.59,348.983a54.445,54.445,0,0,1,9.446-12.613" transform="translate(-49.97 -268.262)" fill="none" stroke="#263238" stroke-linecap="round" stroke-linejoin="round" stroke-width="1"></path>       <path id="Caminho_19080" data-name="Caminho 19080" d="M90.854,354.3a60.789,60.789,0,0,0-4.773-9.074c-2.568-3.793-2.931-4.283-2.931-4.283" transform="translate(-49.096 -268.685)" fill="none" stroke="#263238" stroke-linecap="round" stroke-linejoin="round" stroke-width="1"></path>       <path id="Caminho_19081" data-name="Caminho 19081" d="M87,380.264a59.688,59.688,0,0,1,3.965-8.03,51.1,51.1,0,0,1,5.109-6.724" transform="translate(-49.452 -270.961)" fill="none" stroke="#263238" stroke-linecap="round" stroke-linejoin="round" stroke-width="1"></path>       <path id="Caminho_19082" data-name="Caminho 19082" d="M91,400.665a32.338,32.338,0,0,1,2.568-8.529c1.815-3.557,3.92-8.166,4.773-10.036" transform="translate(-49.823 -272.497)" fill="none" stroke="#263238" stroke-linecap="round" stroke-linejoin="round" stroke-width="1"></path>       <path id="Caminho_19083" data-name="Caminho 19083" d="M56.478,329.17s-.381-2.187,2.15-5.78,4.2-5.68,4.2-5.68,2.4,4.764.091,8.321a54.226,54.226,0,0,1-5.762,7.078Z" transform="translate(-46.623 -266.534)" fill="#8f00fc "></path>       <path id="Caminho_19084" data-name="Caminho 19084" d="M64,343.379s-.372-2.187,2.16-5.78,4.192-5.689,4.192-5.689,2.4,4.773.091,8.321a54.66,54.66,0,0,1-5.762,7.087Z" transform="translate(-47.32 -267.849)" fill="#8f00fc "></path>       <path id="Caminho_19085" data-name="Caminho 19085" d="M56.309,333.637s-.608-2.132-4.446-4.274-6.243-3.3-6.243-3.3-.1,5.335,3.53,7.54a54.858,54.858,0,0,0,8.257,3.884Z" transform="translate(-45.62 -267.307)" fill="#8f00fc "></path>       <path id="Caminho_19086" data-name="Caminho 19086" d="M65.23,350.506s-.835-2.06-4.9-3.775-6.56-2.631-6.56-2.631.463,5.317,4.3,7.123a54.835,54.835,0,0,0,8.62,2.994Z" transform="translate(-46.375 -268.978)" fill="#8f00fc "></path>       <path id="Caminho_19087" data-name="Caminho 19087" d="M67.631,369.857s-.381-2.187-3.974-4.718-5.862-3.938-5.862-3.938-.662,5.29,2.722,7.858a54.222,54.222,0,0,0,7.8,4.737Z" transform="translate(-46.742 -270.562)" fill="#8f00fc "></path>       <path id="Caminho_19088" data-name="Caminho 19088" d="M69.508,374.213s-.69-2.105,1.307-6.025S74.163,362,74.163,362s3.058,4.383,1.27,8.23a54.807,54.807,0,0,1-4.691,7.822Z" transform="translate(-47.822 -270.636)" fill="#8f00fc "></path>       <path id="Caminho_19089" data-name="Caminho 19089" d="M76.224,393.97s.254-2.2,3.693-4.945,5.635-4.265,5.635-4.265.962,5.245-2.259,8a54.669,54.669,0,0,1-7.522,5.172Z" transform="translate(-48.412 -272.744)" fill="#8f00fc "></path>       <path id="Caminho_19090" data-name="Caminho 19090" d="M74.261,388.026s-.381-2.187-3.974-4.718-5.862-3.947-5.862-3.947-.662,5.3,2.722,7.867a55.189,55.189,0,0,0,7.8,4.737Z" transform="translate(-47.357 -272.243)" fill="#8f00fc "></path>       <path id="Caminho_19091" data-name="Caminho 19091" d="M74.4,400.889s.181-2.214-2.65-5.571S67.077,390,67.077,390s-1.978,4.954.635,8.3a54.612,54.612,0,0,0,6.352,6.551Z" transform="translate(-47.541 -273.229)" fill="#8f00fc "></path>       <path id="Caminho_19092" data-name="Caminho 19092" d="M56.07,329.78a61.182,61.182,0,0,0,2.014,6.642c2.287,6.043,6.016,9.555,8.166,15s0,13.311,2.16,20.407,5.744,10.644,5.744,15.625-2.278,19.654-2.278,19.654" transform="translate(-46.588 -267.651)" fill="none" stroke="#263238" stroke-linecap="round" stroke-linejoin="round" stroke-width="1"></path>       <line id="Linha_438" data-name="Linha 438" x1="3.738" y1="1.969" transform="translate(7.232 65.812)" fill="none" stroke="#263238" stroke-linecap="round" stroke-linejoin="round" stroke-width="1"></line>       <line id="Linha_439" data-name="Linha 439" y1="2.695" x2="0.953" transform="translate(10.317 62.192)" fill="none" stroke="#263238" stroke-linecap="round" stroke-linejoin="round" stroke-width="1"></line>       <path id="Caminho_19093" data-name="Caminho 19093" d="M66.432,353.047s-3.121-1.588-6.352-3.167" transform="translate(-46.959 -269.513)" fill="none" stroke="#263238" stroke-linecap="round" stroke-linejoin="round" stroke-width="1"></path>       <path id="Caminho_19094" data-name="Caminho 19094" d="M64.73,348.037a44.814,44.814,0,0,1,3.63-8.357" transform="translate(-47.39 -268.568)" fill="none" stroke="#263238" stroke-linecap="round" stroke-linejoin="round" stroke-width="1"></path>       <path id="Caminho_19095" data-name="Caminho 19095" d="M68.369,373.488a34.579,34.579,0,0,0-7.259-6.878" transform="translate(-47.054 -271.063)" fill="none" stroke="#263238" stroke-linecap="round" stroke-linejoin="round" stroke-width="1"></path>       <path id="Caminho_19096" data-name="Caminho 19096" d="M70.29,376.531a39.724,39.724,0,0,1,2.014-6.2c1.2-2.659,1.37-3,1.37-3" transform="translate(-47.905 -271.129)" fill="none" stroke="#263238" stroke-linecap="round" stroke-linejoin="round" stroke-width="1"></path>       <path id="Caminho_19097" data-name="Caminho 19097" d="M75.85,396.842a33.153,33.153,0,0,1,4.02-4.174,21.427,21.427,0,0,0,2.613-2.268" transform="translate(-48.42 -273.266)" fill="none" stroke="#263238" stroke-linecap="round" stroke-linejoin="round" stroke-width="1"></path>       <path id="Caminho_19098" data-name="Caminho 19098" d="M75.254,392.5a37.987,37.987,0,0,0-3.357-4.6,32.934,32.934,0,0,0-3.956-3.63" transform="translate(-47.687 -272.698)" fill="none" stroke="#263238" stroke-linecap="round" stroke-linejoin="round" stroke-width="1"></path>       <path id="Caminho_19099" data-name="Caminho 19099" d="M74.262,405.33a9.555,9.555,0,0,0-1.679-4.7c-1.533-2.033-3.348-4.718-4.083-5.78" transform="translate(-47.739 -273.678)" fill="none" stroke="#263238" stroke-linecap="round" stroke-linejoin="round" stroke-width="1"></path>     </g>     <g id="freepik--Character--inject-190" transform="translate(1069.292 790.22)">       <path id="Caminho_19100" data-name="Caminho 19100" d="M255.406,159.671s25.044,24.2,26.169,36.3-17.449,21.95-12.1,25.888,19.962,14.355,14.346,23.356-8.439,11.261-6.47,13.23,6.751,3.63,6.47,8.439-5.907,8.938-5.907,8.938H188.994s-4.782.281-4.219-6.47,10.126-10.408,8.439-15.48-14.073-9-14.073-19.137,14.636-14.346,16.886-19.128-7.314-7.885-9.283-14.073,8.166-16.886,14.346-22.512,30.96-21.95,40.832-22.512S255.406,159.671,255.406,159.671Z" transform="translate(-115.68 -148.905)" fill="#263238"></path>       <g id="Grupo_7705" data-name="Grupo 7705" transform="translate(63.46 7.541)" clip-path="url(#clip-path)">         <path id="Caminho_19101" data-name="Caminho 19101" d="M270.505,167.22s13.611,23.783,11.46,33.12-16.56,19.962-11.043,27.176,13.611,10.19,10.2,19.109a44.806,44.806,0,0,1-8.92,14.436" transform="translate(-187.525 -157.444)" fill="none" stroke="#858585" stroke-linecap="round" stroke-linejoin="round" stroke-width="1"></path>         <path id="Caminho_19102" data-name="Caminho 19102" d="M203,203.26s8.493,13.157,6.352,16.977-14.436,8.493-12.7,18.257,19.536,25.053,19.536,26.759" transform="translate(-180.747 -160.782)" fill="none" stroke="#858585" stroke-linecap="round" stroke-linejoin="round" stroke-width="1"></path>       </g>       <path id="Caminho_19104" data-name="Caminho 19104" d="M255.406,159.671s25.044,24.2,26.169,36.3-17.449,21.95-12.1,25.888,19.962,14.355,14.346,23.356-8.439,11.261-6.47,13.23,6.751,3.63,6.47,8.439-5.907,8.938-5.907,8.938H188.994s-4.782.281-4.219-6.47,10.126-10.408,8.439-15.48-14.073-9-14.073-19.137,14.636-14.346,16.886-19.128-7.314-7.885-9.283-14.073,8.166-16.886,14.346-22.512,30.96-21.95,40.832-22.512S255.406,159.671,255.406,159.671Z" transform="translate(-115.68 -148.905)" fill="none" stroke="#263238" stroke-linecap="round" stroke-linejoin="round" stroke-width="1"></path>       <path id="Caminho_19105" data-name="Caminho 19105" d="M297.6,273.27s34.027,53.082,39.017,59.434-.454,16.787-8.166,22.231-20.625.69-27.321-6.234-13.511-23.256-13.511-23.256Z" transform="translate(-125.727 -159.725)" fill="#fff" stroke="#263238" stroke-linecap="round" stroke-linejoin="round" stroke-width="1"></path>       <path id="Caminho_19106" data-name="Caminho 19106" d="M229.785,253.769s-31.758,9.528-41.74,13.157-12.7,4.083-12.7,7.713c0,2.114,7.577,43.228,6.805,78.489-.553,25.479-9.528,48.545-9.528,48.545H288.311a132.606,132.606,0,0,1-9.528-47.638c-.054-36.431,9.228-80.975,8.166-82.572C285.135,268.741,233.868,253.315,229.785,253.769Z" transform="translate(-115.076 -157.918)" fill="#fff" stroke="#263238" stroke-linecap="round" stroke-linejoin="round" stroke-width="1"></path>       <path id="Caminho_19107" data-name="Caminho 19107" d="M279.135,363.192c-4.156-3.239-9.555-8.566-12.141-15.825-4.02-11.261-6.978-71.683-7.595-85.294-2.151-.653-4.31-1.307-6.433-1.933l.907,56.829H213.5l-3.53-56.539c-2.15.662-4.319,1.343-6.442,2.014.045,11.478.045,65.023-3.185,80.385-2.477,11.8-12.794,19.754-19.055,23.592a164.917,164.917,0,0,1-8.593,35.814H288.381A133.511,133.511,0,0,1,279.135,363.192Z" transform="translate(-115.083 -158.509)" fill="#263238"></path>       <g id="Grupo_7706" data-name="Grupo 7706" transform="translate(57.607 101.631)" clip-path="url(#clip-path-2)">         <path id="Caminho_19108" data-name="Caminho 19108" d="M207.562,262.22l-1.325.417c.045,11.478.045,65.023-3.185,80.385-.181.853-.408,1.67-.662,2.477v56.956h5.172Z" transform="translate(-175.441 -260.333)" fill="#424242"></path>         <rect id="Retângulo_4747" data-name="Retângulo 4747" width="5.172" height="85.294" transform="translate(48.772 56.829)" fill="#424242"></rect>         <path id="Caminho_19109" data-name="Caminho 19109" d="M178.34,395.708v17.24h5.136V376c-.617.408-1.216.8-1.769,1.143A162.042,162.042,0,0,1,178.34,395.708Z" transform="translate(-173.213 -270.871)" fill="#424242"></path>         <path id="Caminho_19110" data-name="Caminho 19110" d="M195.533,365.38a44.075,44.075,0,0,1-5.163,5.3V412.01h5.163Z" transform="translate(-174.327 -269.887)" fill="#424242"></path>         <path id="Caminho_19111" data-name="Caminho 19111" d="M214.41,271.47V403.313h5.172V318.019h-2.259Z" transform="translate(-176.554 -261.189)" fill="#424242"></path>         <path id="Caminho_19112" data-name="Caminho 19112" d="M274.53,346.17v64.061h5.163V361.777a29.82,29.82,0,0,1-3.267-6.443A54.5,54.5,0,0,1,274.53,346.17Z" transform="translate(-182.122 -268.108)" fill="#424242"></path>         <path id="Caminho_19113" data-name="Caminho 19113" d="M286.55,370.76V412.5h5.172V388.218a128.454,128.454,0,0,1-2.042-14.781C288.691,372.665,287.63,371.767,286.55,370.76Z" transform="translate(-183.235 -270.385)" fill="#424242"></path>         <path id="Caminho_19114" data-name="Caminho 19114" d="M267.673,262.1c-1.724-.535-3.457-1.052-5.163-1.561V402.3h5.163Z" transform="translate(-181.009 -260.177)" fill="#424242"></path>         <rect id="Retângulo_4748" data-name="Retângulo 4748" width="5.172" height="85.294" transform="translate(70.585 56.829)" fill="#424242"></rect>         <rect id="Retângulo_4749" data-name="Retângulo 4749" width="5.172" height="85.294" transform="translate(59.679 56.829)" fill="#424242"></rect>       </g>       <path id="Caminho_19116" data-name="Caminho 19116" d="M279.135,363.192c-4.156-3.239-9.555-8.566-12.141-15.825-4.02-11.261-6.978-71.683-7.595-85.294-2.151-.653-4.31-1.307-6.433-1.933l.907,56.829H213.5l-3.53-56.539c-2.15.662-4.319,1.343-6.442,2.014.045,11.478.045,65.023-3.185,80.385-2.477,11.8-12.794,19.754-19.055,23.592a164.917,164.917,0,0,1-8.593,35.814H288.381A133.511,133.511,0,0,1,279.135,363.192Z" transform="translate(-115.083 -158.509)" fill="none" stroke="#263238" stroke-linecap="round" stroke-linejoin="round" stroke-width="1"></path>       <path id="Caminho_19117" data-name="Caminho 19117" d="M229.3,244.474s-11.8,4.219-14.074,9-1.125,23.592-3.094,29.263-6.751,9.854-4.21,10.172,10.126-11.261,14.064-9.854S236.626,299.1,237.47,299.1s9.01-9.845,10.7-12.939,7.876,1.688,10.689,8.72,3.63,4.537,3.63,1.969-3.375-13.511-2.813-15.48-.281-11.8-.281-21.668a16.333,16.333,0,0,0-13.511-16.333C239.684,242.214,229.3,244.474,229.3,244.474Z" transform="translate(-118.279 -156.925)" fill="#fff" stroke="#263238" stroke-linecap="round" stroke-linejoin="round" stroke-width="1"></path>       <path id="Caminho_19118" data-name="Caminho 19118" d="M225.66,236.86v31.8s10.417,34.326,14.073,31.758,12.1-30.388,12.1-30.388V237.141S238.89,242.776,225.66,236.86Z" transform="translate(-119.989 -156.353)" fill="#fff" stroke="#263238" stroke-linecap="round" stroke-linejoin="round" stroke-width="1"></path>       <path id="Caminho_19119" data-name="Caminho 19119" d="M225.66,236.86v6.615c5.263,3.022,11.46,5.063,17.041,5.063a20.634,20.634,0,0,0,9.137-2.259v-9.137S238.89,242.776,225.66,236.86Z" transform="translate(-119.989 -156.353)" fill="#263238" stroke="#263238" stroke-linecap="round" stroke-linejoin="round" stroke-width="1"></path>       <path id="Caminho_19120" data-name="Caminho 19120" d="M212.79,198.27s-6.188-8.166-9.854-2.259,5.916,16.886,8.729,16.605S212.79,198.27,212.79,198.27Z" transform="translate(-117.808 -152.371)" fill="#fff" stroke="#263238" stroke-linecap="round" stroke-linejoin="round" stroke-width="1"></path>       <path id="Caminho_19121" data-name="Caminho 19121" d="M268.679,198.27s6.188-8.166,9.854-2.259-5.916,16.886-8.729,16.605S268.679,198.27,268.679,198.27Z" transform="translate(-123.927 -152.371)" fill="#fff" stroke="#263238" stroke-linecap="round" stroke-linejoin="round" stroke-width="1"></path>       <path id="Caminho_19122" data-name="Caminho 19122" d="M212.846,183.9s-3.121,28.129-.39,36.3,17.177,17.177,28.891,17.177,21.46-11.315,23.029-17.957-1.96-49.18-4.3-53.862-17.168-5.072-32,2.341S212.846,183.9,212.846,183.9Z" transform="translate(-118.662 -149.434)" fill="#fff" stroke="#263238" stroke-linecap="round" stroke-linejoin="round" stroke-width="1"></path>       <path id="Caminho_19123" data-name="Caminho 19123" d="M244.629,191s-2.532,6.76-.281,10.7.844,6.751-1.688,6.751-3.63-4.219-3.63-4.219" transform="translate(-121.227 -152.105)" fill="none" stroke="#263238" stroke-linecap="round" stroke-linejoin="round" stroke-width="1"></path>       <path id="Caminho_19124" data-name="Caminho 19124" d="M229.39,213.29s11.8,8.166,22.231,0" transform="translate(-120.334 -154.17)" fill="none" stroke="#263238" stroke-linecap="round" stroke-linejoin="round" stroke-width="1"></path>       <path id="Caminho_19125" data-name="Caminho 19125" d="M248,186.381s5.072-5.626,10.979.563" transform="translate(-122.058 -151.461)" fill="none" stroke="#263238" stroke-linecap="round" stroke-linejoin="round" stroke-width="1"></path>       <path id="Caminho_19126" data-name="Caminho 19126" d="M234.131,185.74a8.286,8.286,0,0,0-11.261-.563" transform="translate(-119.73 -151.382)" fill="none" stroke="#263238" stroke-linecap="round" stroke-linejoin="round" stroke-width="1"></path>       <ellipse id="Elipse_128" data-name="Elipse 128" cx="1.688" cy="3.375" rx="1.688" ry="3.375" transform="translate(129.036 39.984)" fill="#263238"></ellipse>       <ellipse id="Elipse_129" data-name="Elipse 129" cx="1.688" cy="3.375" rx="1.688" ry="3.375" transform="translate(107.931 39.984)" fill="#263238"></ellipse>       <path id="Caminho_19127" data-name="Caminho 19127" d="M221,201.164a26.831,26.831,0,0,1,8.729,0" transform="translate(-119.557 -153.014)" fill="none" stroke="#263238" stroke-linecap="round" stroke-linejoin="round" stroke-width="1"></path>       <path id="Caminho_19128" data-name="Caminho 19128" d="M252.65,201.471a23.275,23.275,0,0,1,8.439,0" transform="translate(-122.489 -153.039)" fill="none" stroke="#263238" stroke-linecap="round" stroke-linejoin="round" stroke-width="1"></path>       <path id="Caminho_19129" data-name="Caminho 19129" d="M196.961,198.826s44.181-18.293,54.879-26.741,13.5-24.762-11.542-23.919-51.494,30.116-53.744,43.618,6.724,10.671,6.724,10.671" transform="translate(-116.333 -148.135)" fill="#263238"></path>       <g id="Grupo_7707" data-name="Grupo 7707" transform="translate(69.858)" clip-path="url(#clip-path-3)">         <path id="Caminho_19130" data-name="Caminho 19130" d="M256.872,149a134.047,134.047,0,0,1-36.513,31C197,193.607,182.14,196.139,182.14,196.139" transform="translate(-185.816 -148.215)" fill="none" stroke="#858585" stroke-linecap="round" stroke-linejoin="round" stroke-width="1"></path>         <path id="Caminho_19131" data-name="Caminho 19131" d="M240.183,144.29s-20.806,32.666-59.443,45.433" transform="translate(-185.686 -147.779)" fill="none" stroke="#858585" stroke-linecap="round" stroke-linejoin="round" stroke-width="1"></path>       </g>       <path id="Caminho_19133" data-name="Caminho 19133" d="M196.961,198.826s44.181-18.293,54.879-26.741,13.5-24.762-11.542-23.919-51.494,30.116-53.744,43.618,6.724,10.671,6.724,10.671" transform="translate(-116.333 -148.135)" fill="none" stroke="#263238" stroke-linecap="round" stroke-linejoin="round" stroke-width="1"></path>       <path id="Caminho_19134" data-name="Caminho 19134" d="M299.66,315.024s-5.217-2.268-11.342-4.31-9.528,2.042-7.032,5.671,11.342,4.31,15.652,8.166,7.713,16.333,12.023,18.6a27.668,27.668,0,0,0,9.074,2.722V315.024Z" transform="translate(-125.064 -163.142)" fill="#fff" stroke="#263238" stroke-linecap="round" stroke-linejoin="round" stroke-width="1"></path>       <path id="Caminho_19135" data-name="Caminho 19135" d="M327.8,350.951H301.919L296.13,297.57h37.457Z" transform="translate(-126.516 -161.975)" fill="#8f00fc " stroke="#263238" stroke-linecap="round" stroke-linejoin="round" stroke-width="1"></path>       <path id="Caminho_19136" data-name="Caminho 19136" d="M334.035,288.35H294.791l-3.421,7.186h46.5Z" transform="translate(-126.075 -161.122)" fill="#fff" stroke="#263238" stroke-linecap="round" stroke-linejoin="round" stroke-width="1"></path>       <path id="Caminho_19137" data-name="Caminho 19137" d="M296.38,298.593h37.139l3.239-2.323H292.75Z" transform="translate(-126.203 -161.855)" fill="#fff" stroke="#263238" stroke-linecap="round" stroke-linejoin="round" stroke-width="1"></path>       <path id="Caminho_19138" data-name="Caminho 19138" d="M329.475,337.144,332.8,306.52H297.1l3.321,30.624Z" transform="translate(-126.605 -162.804)" fill="#fff" stroke="#263238" stroke-linecap="round" stroke-linejoin="round" stroke-width="1"></path>       <path id="Caminho_19139" data-name="Caminho 19139" d="M340.531,316.77s-12.023.227-14.291,2.5-1.588,4.991,2.722,5.444,10.662,1.361,14.064.454S346.429,316.77,340.531,316.77Z" transform="translate(-129.186 -163.754)" fill="#fff" stroke="#263238" stroke-linecap="round" stroke-linejoin="round" stroke-width="1"></path>       <path id="Caminho_19140" data-name="Caminho 19140" d="M337.819,343.52s-9.546.182-11.342,1.987-1.261,3.956,2.16,4.319,8.457,1.08,11.161.354S342.492,343.52,337.819,343.52Z" transform="translate(-129.233 -166.231)" fill="#fff" stroke="#263238" stroke-linecap="round" stroke-linejoin="round" stroke-width="1"></path>       <path id="Caminho_19141" data-name="Caminho 19141" d="M342.286,327s-15.652,0-19.509.681-5.217,4.537.454,5.671,17.24,1.815,20.87,1.361S347.958,326.791,342.286,327Z" transform="translate(-128.673 -164.701)" fill="#fff" stroke="#263238" stroke-linecap="round" stroke-linejoin="round" stroke-width="1"></path>       <path id="Caminho_19142" data-name="Caminho 19142" d="M341.645,335.994s-12.477-.454-16.787,1.134-2.722,3.856,1.361,4.764,13.157,2.042,16.56.907S346.182,335.558,341.645,335.994Z" transform="translate(-128.939 -165.529)" fill="#fff" stroke="#263238" stroke-linecap="round" stroke-linejoin="round" stroke-width="1"></path>       <path id="Caminho_19143" data-name="Caminho 19143" d="M130.866,247.708s-2.4,1.443-.717,8.665l1.679,7.214,10.344-1.924s-4.537-8.166-6.5-11.8S131.383,246.747,130.866,247.708Z" transform="translate(-111.087 -157.293)" fill="#fff" stroke="#263238" stroke-linecap="round" stroke-linejoin="round" stroke-width="1"></path>       <path id="Caminho_19144" data-name="Caminho 19144" d="M120.815,260.773s32.956-5.535,42.828-8.9a222.24,222.24,0,0,1,22.612-6.016,28.371,28.371,0,0,1,6.016-.726s.962,0,.726,4.092,5.29,57.265,10.344,73.625,8.166,24.064,8.166,24.064-29.59,6.016-57.02,6.016a248.148,248.148,0,0,1-45.233-3.856c-.962,0,11.8-48.091,11.306-64.479C120.107,268.023,120.815,260.773,120.815,260.773Z" transform="translate(-109.203 -157.119)" fill="#8f00fc " stroke="#263238" stroke-linecap="round" stroke-linejoin="round" stroke-width="1"></path>       <path id="Caminho_19145" data-name="Caminho 19145" d="M211.393,322.847c-5.054-16.333-10.589-69.533-10.344-73.625s-.726-4.092-.726-4.092a29.044,29.044,0,0,0-3.375.245,12.822,12.822,0,0,0,0,3.121s-.254,26.232-.98,57.31c-.6,25.752-.209,40.56-.054,44.861,13.692-1.7,23.592-3.711,23.592-3.711S216.429,339.207,211.393,322.847Z" transform="translate(-117.209 -157.119)" fill="#8f00fc " stroke="#263238" stroke-linecap="round" stroke-linejoin="round" stroke-width="1"></path>       <path id="Caminho_19146" data-name="Caminho 19146" d="M192.921,246.386v12.032c0,3.847.726,5.771-.726,5.771s-13.466,2.169-32.956,6.016a272.256,272.256,0,0,1-37.538,4.809c-1.443,0,.245-14.192.245-14.192s36.568-5.78,48.354-9.627a173.98,173.98,0,0,1,21.414-5.535" transform="translate(-110.306 -157.168)" fill="#8f00fc " stroke="#263238" stroke-linecap="round" stroke-linejoin="round" stroke-width="1"></path>       <path id="Caminho_19147" data-name="Caminho 19147" d="M153.834,236.589s2.4-5.535,8.9-1.924,10.825,16.605,9.863,19.246-4.092,3.375-6.742.726-9.382-12.268-11.061-14.917S153.834,236.589,153.834,236.589Z" transform="translate(-113.322 -156.036)" fill="#fff" stroke="#263238" stroke-linecap="round" stroke-linejoin="round" stroke-width="1"></path>       <path id="Caminho_19148" data-name="Caminho 19148" d="M145.876,240.125s12.159,17.73,14.436,19.255,6.515,2.4,5.29-2.885c-1.152-5.018-5.771-14.681-8.9-18.048s-5.29-3.847-7.94-2.4S145.395,238.2,145.876,240.125Z" transform="translate(-112.587 -156.206)" fill="#fff" stroke="#263238" stroke-linecap="round" stroke-linejoin="round" stroke-width="1"></path>       <path id="Caminho_19149" data-name="Caminho 19149" d="M146.275,239.49s11.306,14.436,12.277,17.812-.971,8.9-6.016,5.771-9.627-13.475-12.513-17.086S142.137,236.849,146.275,239.49Z" transform="translate(-111.978 -156.532)" fill="#fff" stroke="#263238" stroke-linecap="round" stroke-linejoin="round" stroke-width="1"></path>       <path id="Caminho_19150" data-name="Caminho 19150" d="M138.687,243.54s-7.259.962-8.166,4.809,5.29,12.277,10.344,13.72,6.5-2.65,5.054-6.016S141.092,244.266,138.687,243.54Z" transform="translate(-111.169 -156.971)" fill="#fff" stroke="#263238" stroke-linecap="round" stroke-linejoin="round" stroke-width="1"></path>     </g>     <g id="freepik--Device--inject-190" transform="translate(1011.597 1028.984)">       <rect id="Retângulo_4750" data-name="Retângulo 4750" width="275.729" height="9.736" transform="translate(0 0)" fill="#fff" stroke="#263238" stroke-linecap="round" stroke-linejoin="round" stroke-width="1"></rect>     </g>   </g> </svg>