<svg xmlns="http://www.w3.org/2000/svg" xmlns:xlink="http://www.w3.org/1999/xlink" width="605.141" height="487.98" viewBox="0 0 605.141 487.98"><defs><filter id="a" x="259.141" y="0" width="346" height="260" filterUnits="userSpaceOnUse"><feOffset dx="1" dy="1" input="SourceAlpha"/><feGaussianBlur stdDeviation="1.5" result="b"/><feFlood flood-opacity="0.4"/><feComposite operator="in" in2="b"/><feComposite in="SourceGraphic"/></filter><filter id="c" x="275.641" y="198.5" width="313" height="48" filterUnits="userSpaceOnUse"><feOffset dy="3" input="SourceAlpha"/><feGaussianBlur stdDeviation="3" result="d"/><feFlood flood-opacity="0.161"/><feComposite operator="in" in2="d"/><feComposite in="SourceGraphic"/></filter></defs><g transform="translate(0 3.5)"><path d="M456.859,353.043l-114.474-65.9a7.714,7.714,0,0,0-6.995,0L165.957,385c-1.943,1.108-1.943,2.915,0,4.032l114.474,65.9a7.714,7.714,0,0,0,6.995,0l169.433-97.851C458.792,355.958,458.792,354.151,456.859,353.043Z" transform="translate(-158.594 28.715)" fill="#e0e0e0"/><g transform="translate(0 137.844)"><g transform="translate(0 0)"><path d="M356.767,113.781l68.006,39.288c4.858,2.788,8.744,9.628,8.744,15.2V302.537l5.771,3.342V167.749c0-7.869-5.577-17.487-12.387-21.461l-70.454-40.7c-6.8-3.886-12.387-.709-12.387,7.16V250.872l5.829,3.361V117.726C349.928,113.383,353.008,111.605,356.767,113.781Z" transform="translate(-163.708 -103.935)" fill="#e0e0e0"/><path d="M303.13,422.292c0-7.073,4.974-15.68,11.1-19.217,3.216-1.865,6.1-1.943,8.132-.583h0l7.481,4.275-15.913,27.057-7.422-4.275h0C304.442,428.4,303.13,425.906,303.13,422.292Z" transform="translate(-162.542 -112.412)" fill="#455a64"/><path d="M322.234,407.685c-6.13,3.536-11.1,12.144-11.1,19.217s4.974,9.948,11.1,6.412,11.114-12.144,11.114-19.226S328.365,404.139,322.234,407.685Z" transform="translate(-162.77 -112.543)" fill="#37474f"/><path d="M326.21,418.584c0-2.759-1.69-4.032-3.76-2.837s-3.76,4.411-3.76,7.18,1.681,4.042,3.76,2.837S326.21,421.353,326.21,418.584Z" transform="translate(-162.985 -112.803)" fill="#263238"/><path d="M308.7,395.57s0,12.63,6.043,17.147c1.137.845,2.341,1.428,3.051,2.021,1.545,1.282.525,3.633-1.35,4.644-2.72,1.457-17.536-2.487-23.812-14.573Z" transform="translate(-162.243 -112.241)" fill="#f0f0f0"/><path d="M314.619,399s0,12.63,6.043,17.147c1.137.845,2.341,1.428,3.06,2.021,1.535,1.282.515,3.643-1.36,4.644-2.72,1.457-17.536-2.487-23.812-14.573Z" transform="translate(-162.411 -112.339)" fill="#fafafa"/><path d="M322.529,419.646a2.351,2.351,0,0,0-1.069,1.846c0,.68.476.972,1.069.612a2.361,2.361,0,0,0,1.059-1.846C323.588,419.587,323.112,419.306,322.529,419.646Z" transform="translate(-163.064 -112.923)" fill="#263238"/><path d="M427.17,350.682c0-7.082,4.974-15.69,11.1-19.226,3.216-1.856,6.1-1.943,8.132-.573h0l7.481,4.275L437.973,362.2l-7.422-4.265h0C428.482,356.793,427.17,354.286,427.17,350.682Z" transform="translate(-166.075 -110.372)" fill="#455a64"/><path d="M446.274,336.066c-6.13,3.536-11.1,12.144-11.1,19.226s4.974,9.948,11.1,6.412,11.075-12.144,11.075-19.226S452.4,332.529,446.274,336.066Z" transform="translate(-166.303 -110.503)" fill="#37474f"/><path d="M450.25,346.974c0-2.769-1.69-4.042-3.76-2.837s-3.76,4.411-3.76,7.18,1.681,4.032,3.76,2.837S450.25,349.742,450.25,346.974Z" transform="translate(-166.518 -110.763)" fill="#263238"/><path d="M432.739,324s0,12.63,6.043,17.147c1.137.845,2.341,1.428,3.051,2.021,1.545,1.282.525,3.643-1.35,4.644-2.72,1.457-17.536-2.487-23.812-14.573Z" transform="translate(-165.776 -110.203)" fill="#f0f0f0"/><path d="M438.659,327.35s0,12.63,6.043,17.147c1.137.845,2.341,1.428,3.06,2.03,1.535,1.273.515,3.633-1.36,4.634-2.72,1.457-17.536-2.487-23.812-14.573Z" transform="translate(-165.944 -110.298)" fill="#fafafa"/><path d="M446.569,348a2.351,2.351,0,0,0-1.069,1.846c0,.67.476.972,1.069.612a2.361,2.361,0,0,0,1.059-1.846A.664.664,0,0,0,446.569,348Z" transform="translate(-166.597 -110.883)" fill="#263238"/><path d="M439.878,313.441,333.011,251.73,158.42,352.525l106.857,61.721Z" transform="translate(-158.42 -108.144)" fill="#455a64"/><path d="M443.011,315.25v6.713l-174.6,100.8v-6.713Z" transform="translate(-161.553 -109.953)" fill="#37474f"/><path d="M158.42,355.48v6.713l106.857,61.721V417.2Z" transform="translate(-158.42 -111.099)" fill="#263238"/></g></g><g transform="translate(8.055 144.174)"><g transform="translate(72.737 87.767)"><path d="M426.712,313.974l-91.653,52.938-93.479-53.9,91.906-52.8Z" transform="translate(-241.58 -202.482)" opacity="0.1"/><g transform="translate(9.365)"><path d="M423.868,249.337,339.929,200.79,251.22,252.135l83.939,48.547Z" transform="translate(-251.22 -200.79)" fill="#8f00fc "/><path d="M423.868,249.337,339.929,200.79,251.22,252.135l83.939,48.547Z" transform="translate(-251.22 -200.79)" fill="#fff" opacity="0.7"/><path d="M337.62,360.775l88.709-51.335V250.76L337.62,302.1Z" transform="translate(-253.681 -202.213)" fill="#8f00fc "/><path d="M337.62,360.775l88.709-51.335V250.76L337.62,302.1Z" transform="translate(-253.681 -202.213)" fill="#fff" opacity="0.6"/><path d="M347.649,343.654a1.515,1.515,0,0,1-.768-.2,2.322,2.322,0,0,1-.971-2.108v-6.218h0v-.457l.321.058,4.858-2.866V338.8a5.606,5.606,0,0,1-2.4,4.537A2.118,2.118,0,0,1,347.649,343.654Zm-.972-8.064v5.751a1.622,1.622,0,0,0,.554,1.438,1.127,1.127,0,0,0,1.059-.117,4.935,4.935,0,0,0,2.011-3.886v-.505h-1.807l-.35-2.439Zm2.5,1.943H350.3V333.24l-2.915,1.71,1.438.262Z" transform="translate(-253.917 -204.523)" fill="#455a64"/><path d="M348.589,348.894a.389.389,0,0,1-.389-.389v-5.227a.389.389,0,0,1,.777,0v5.227A.389.389,0,0,1,348.589,348.894Z" transform="translate(-253.982 -204.837)" fill="#455a64"/><path d="M346.258,350.32a.379.379,0,0,1-.34-.194.389.389,0,0,1,.136-.534l4.547-2.623a.389.389,0,0,1,.534.146.4.4,0,0,1-.146.534l-4.537,2.623A.514.514,0,0,1,346.258,350.32Z" transform="translate(-253.916 -204.952)" fill="#455a64"/><path d="M362.893,340.869a.971.971,0,0,1-.437-.107,1.049,1.049,0,0,1-.466-.972v-1.02a.4.4,0,0,1,.787,0v1.069c0,.165,0,.243.078.262s.117,0,.253-.068a2.322,2.322,0,0,0,.729-1.768v-6.946a.389.389,0,1,1,.777,0v6.946a2.973,2.973,0,0,1-1.108,2.439,1.2,1.2,0,0,1-.612.165Z" transform="translate(-254.375 -204.497)" fill="#455a64"/><path d="M358.68,334.613v-.68a11.056,11.056,0,0,1,4.994-8.656,3.3,3.3,0,0,1,5.392,3.109v.223Zm7.335-9.268a3.944,3.944,0,0,0-1.943.612,10.327,10.327,0,0,0-4.566,7.286l8.744-5.081a2.914,2.914,0,0,0-1.2-2.545,2.05,2.05,0,0,0-1.03-.272Z" transform="translate(-254.281 -204.313)" fill="#455a64"/><path d="M377.349,332.509a.389.389,0,0,1-.389-.389v-13.3a.4.4,0,0,1,.787,0v13.3a.389.389,0,0,1-.4.389Z" transform="translate(-254.801 -204.142)" fill="#455a64"/><path d="M376.178,321.891a.4.4,0,0,1-.155,0,.389.389,0,0,1-.2-.515l1.389-3.216,1.554,1.8a.389.389,0,0,1-.593.505l-.738-.845-.894,2.069A.4.4,0,0,1,376.178,321.891Z" transform="translate(-254.768 -204.133)" fill="#455a64"/><path d="M381.078,330.385a.389.389,0,0,1-.4-.389V316.7a.4.4,0,1,1,.787,0V330A.389.389,0,0,1,381.078,330.385Z" transform="translate(-254.907 -204.078)" fill="#455a64"/><path d="M379.9,319.721a.4.4,0,0,1-.155,0,.389.389,0,0,1-.2-.515L380.957,316l1.554,1.788a.393.393,0,1,1-.593.515l-.738-.855-.894,2.079a.4.4,0,0,1-.389.194Z" transform="translate(-254.874 -204.071)" fill="#455a64"/><path d="M335.159,360.857,251.22,312.32V253.64l83.939,48.547Z" transform="translate(-251.22 -202.295)" fill="#8f00fc "/><path d="M335.159,360.857,251.22,312.32V253.64l83.939,48.547Z" transform="translate(-251.22 -202.295)" fill="#fff" opacity="0.5"/><path d="M287.49,283.5l5.751,3.313v-8.919l-5.751-3.313Z" transform="translate(-252.253 -202.892)" fill="#37474f"/><path d="M293.241,276.4l88.709-51.345L376.2,221.73,287.49,273.075Z" transform="translate(-252.253 -201.386)" fill="#455a64"/><path d="M290.17,272.966l5.742,3.323,3.206-1.846-5.742-3.323Z" transform="translate(-252.329 -202.793)" fill="#37474f"/><path d="M384.3,232.846l-23.5,13.533c-.427.253-.311.709.253,1.04l26.532,15.321a2.059,2.059,0,0,0,1.8.146l23.5-13.543c.427-.243.311-.709-.253-1.04l-26.581-15.311a2.03,2.03,0,0,0-1.749-.146Z" transform="translate(-254.334 -201.699)" fill="#fafafa"/><path d="M396.511,256.159a.485.485,0,0,0,.243-.9L374.72,242.539a.486.486,0,0,0-.486.835l22.034,12.717a.418.418,0,0,0,.243.068Z" transform="translate(-254.718 -201.978)" fill="#e0e0e0"/><path d="M393.99,257.6a.486.486,0,0,0,.243-.9L372.209,244a.5.5,0,0,0-.67.175.505.505,0,0,0,.185.67l22.024,12.707A.437.437,0,0,0,393.99,257.6Z" transform="translate(-254.645 -202.019)" fill="#e0e0e0"/><path d="M391.47,259.039a.486.486,0,0,0,.243-.9l-22.024-12.717a.487.487,0,0,0-.486.845l22.024,12.717a.554.554,0,0,0,.243.058Z" transform="translate(-254.574 -202.059)" fill="#e0e0e0"/><path d="M388.949,260.488a.5.5,0,0,0,.427-.243.505.505,0,0,0-.185-.67l-22.024-12.707a.486.486,0,1,0-.486.836l22.024,12.717a.457.457,0,0,0,.243.068Z" transform="translate(-254.501 -202.1)" fill="#e0e0e0"/><path d="M411.771,249.185l-.865-.5-10.026,5.79.855.5Z" transform="translate(-255.483 -202.154)" fill="#455a64"/><path d="M408.162,247.1l-1.486-.855-10.036,5.8,1.486.845Z" transform="translate(-255.362 -202.085)" fill="#455a64"/><path d="M404.591,245.035l-.855-.5-10.036,5.8.855.486Z" transform="translate(-255.278 -202.036)" fill="#455a64"/><path d="M401.875,243.451l-1.729-.981-10.036,5.79,1.729.981Z" transform="translate(-255.176 -201.977)" fill="#455a64"/><path d="M397.411,240.9l-.855-.5-10.036,5.79.855.5Z" transform="translate(-255.074 -201.918)" fill="#455a64"/><path d="M394.821,239.369l-1.856-1.049-10.036,5.8,1.856,1.049Z" transform="translate(-254.971 -201.859)" fill="#455a64"/><path d="M390.241,236.745l-.865-.5-10.026,5.8.855.486Z" transform="translate(-254.869 -201.8)" fill="#455a64"/><path d="M388.213,235.563l-.427-.243-10.036,5.79.427.253Z" transform="translate(-254.824 -201.773)" fill="#455a64"/><path d="M391.833,237.733l-.427-.253-10.036,5.79.427.253Z" transform="translate(-254.927 -201.835)" fill="#455a64"/><path d="M399.1,241.883l-.427-.253-10.036,5.8.427.243Z" transform="translate(-255.134 -201.953)" fill="#455a64"/><path d="M403.053,244.173l-.427-.253-10.036,5.8.427.243Z" transform="translate(-255.247 -202.018)" fill="#455a64"/><path d="M405.853,245.843l-.427-.253-10.036,5.8.427.243Z" transform="translate(-255.326 -202.066)" fill="#455a64"/><path d="M409.783,248.023l-.427-.243-10.036,5.79.427.243Z" transform="translate(-255.438 -202.128)" fill="#455a64"/><path d="M386.651,234.675l-.865-.5-10.026,5.79.855.5Z" transform="translate(-254.767 -201.741)" fill="#455a64"/><path d="M400.88,304.712v14.718c0,.563.4.8.894.515l22.976-13.271a1.943,1.943,0,0,0,.884-1.535V290.411c0-.563-.4-.8-.884-.515l-22.976,13.281a1.943,1.943,0,0,0-.894,1.535Z" transform="translate(-255.483 -203.325)" fill="#fafafa"/><path d="M424.868,292.07l-.738.427v13.378l.738-.427Z" transform="translate(-256.145 -203.39)" fill="#455a64"/><path d="M421.742,293.87l-1.282.748V308l1.282-.748Z" transform="translate(-256.04 -203.441)" fill="#455a64"/><path d="M418.648,295.66l-.738.427v13.378l.738-.427Z" transform="translate(-255.968 -203.492)" fill="#455a64"/><path d="M416.286,296.99l-1.486.874v13.387l1.486-.884Z" transform="translate(-255.879 -203.53)" fill="#455a64"/><path d="M412.428,299.25l-.738.427v13.378l.738-.427Z" transform="translate(-255.791 -203.594)" fill="#455a64"/><path d="M410.173,300.51l-1.593.942V314.83l1.593-.942Z" transform="translate(-255.702 -203.63)" fill="#455a64"/><path d="M406.218,302.83l-.738.437v13.378l.738-.427Z" transform="translate(-255.614 -203.696)" fill="#455a64"/><path d="M404.449,303.84l-.369.214v13.378l.369-.2Z" transform="translate(-255.574 -203.725)" fill="#455a64"/><path d="M407.649,302.08l-.379.223v13.378l.379-.214Z" transform="translate(-255.665 -203.675)" fill="#455a64"/><path d="M413.909,298.42l-.369.214v13.378l.369-.214Z" transform="translate(-255.843 -203.571)" fill="#455a64"/><path d="M417.339,296.45l-.379.214v13.378l.379-.214Z" transform="translate(-255.941 -203.515)" fill="#455a64"/><path d="M419.8,295.09l-.369.214v13.378l.369-.214Z" transform="translate(-256.011 -203.476)" fill="#455a64"/><path d="M423.139,293.06l-.369.214v13.378l.369-.214Z" transform="translate(-256.106 -203.418)" fill="#455a64"/><path d="M403.108,304.63l-.738.427v13.378l.738-.427Z" transform="translate(-255.525 -203.748)" fill="#455a64"/></g></g><g transform="translate(79.218 23.375)"><path d="M418.147,248.019,336.7,295.089,250.56,245.25l81.433-47.07Z" transform="translate(-248.316 -136.323)" opacity="0.1"/><path d="M248.25,179.7l78.129-45.185,88.4,51.15-78.12,45.185Z" transform="translate(-248.25 -134.51)" fill="#8f00fc "/><path d="M248.25,179.7l78.129-45.185,88.4,51.15-78.12,45.185Z" transform="translate(-248.25 -134.51)" fill="#fff" opacity="0.3"/><path d="M285.945,164.546l23.52,13.533c.427.243.311.709-.253,1.04L282.681,194.43a2.03,2.03,0,0,1-1.8.155l-23.5-13.543c-.427-.253-.311-.709.253-1.04l26.571-15.311a1.943,1.943,0,0,1,1.739-.146Z" transform="translate(-248.503 -135.361)" fill="#fafafa"/><path d="M274.566,187.858a.505.505,0,0,1-.427-.243.486.486,0,0,1,.185-.661l22.024-12.717a.486.486,0,1,1,.486.836L274.809,187.79A.457.457,0,0,1,274.566,187.858Z" transform="translate(-248.986 -135.639)" fill="#e0e0e0"/><path d="M277.076,189.3a.485.485,0,0,1-.243-.9l22.034-12.717a.486.486,0,1,1,.486.836L277.319,189.23a.418.418,0,0,1-.243.068Z" transform="translate(-249.057 -135.68)" fill="#e0e0e0"/><path d="M279.6,190.739a.486.486,0,0,1-.243-.9l22-12.717a.476.476,0,0,1,.661.175.5.5,0,0,1-.175.67L279.81,190.68A.524.524,0,0,1,279.6,190.739Z" transform="translate(-249.129 -135.722)" fill="#e0e0e0"/><path d="M282.116,192.179a.466.466,0,0,1-.418-.243.486.486,0,0,1,.175-.661L303.9,178.558a.487.487,0,1,1,.486.845L282.359,192.12a.554.554,0,0,1-.243.058Z" transform="translate(-249.201 -135.763)" fill="#e0e0e0"/><path d="M259.66,180.885l.855-.5,10.036,5.79-.865.5Z" transform="translate(-248.575 -135.817)" fill="#455a64"/><path d="M263.25,178.8l1.477-.845,10.036,5.79-1.486.855Z" transform="translate(-248.677 -135.747)" fill="#455a64"/><path d="M266.83,176.735l.865-.5,10.026,5.79-.855.5Z" transform="translate(-248.779 -135.699)" fill="#455a64"/><path d="M269.52,175.151l1.729-.981,10.036,5.79-1.729.981Z" transform="translate(-248.856 -135.64)" fill="#455a64"/><path d="M274.01,172.586l.855-.486,10.036,5.79-.855.5Z" transform="translate(-248.984 -135.581)" fill="#455a64"/><path d="M276.57,171.069l1.856-1.049,10.036,5.8-1.856,1.04Z" transform="translate(-249.057 -135.521)" fill="#455a64"/><path d="M281.19,168.445l.855-.5,10.036,5.79-.865.5Z" transform="translate(-249.188 -135.462)" fill="#455a64"/><path d="M283.23,167.263l.427-.243,10.026,5.79-.427.243Z" transform="translate(-249.246 -135.436)" fill="#455a64"/><path d="M279.6,169.423l.427-.243,10.036,5.79-.427.253Z" transform="translate(-249.143 -135.497)" fill="#455a64"/><path d="M272.33,173.583l.427-.253,10.036,5.79-.427.253Z" transform="translate(-248.936 -135.616)" fill="#455a64"/><path d="M268.38,175.873l.427-.253,10.036,5.8-.427.243Z" transform="translate(-248.823 -135.681)" fill="#455a64"/><path d="M265.58,177.543l.437-.253,10.026,5.79-.427.253Z" transform="translate(-248.744 -135.728)" fill="#455a64"/><path d="M261.65,179.723l.437-.253,10.026,5.8-.427.243Z" transform="translate(-248.632 -135.791)" fill="#455a64"/><path d="M284.78,166.375l.855-.5,10.036,5.79-.865.5Z" transform="translate(-249.29 -135.403)" fill="#455a64"/><path d="M336.658,290.85,248.25,239.7V181.02l88.408,51.15Z" transform="translate(-248.25 -135.835)" fill="#8f00fc "/><path d="M339.25,291.025l78.12-45.185V187.16l-78.12,45.185Z" transform="translate(-250.842 -136.01)" fill="#8f00fc "/><path d="M339.25,291.025l78.12-45.185V187.16l-78.12,45.185Z" transform="translate(-250.842 -136.01)" opacity="0.1"/><path d="M383.222,217.019l-5.742,3.313v-8.919l5.742-3.313Z" transform="translate(-251.931 -136.606)" fill="#37474f"/><path d="M374.888,209.923l-88.408-51.15,5.742-3.323L380.63,206.6Z" transform="translate(-249.339 -135.106)" fill="#455a64"/><path d="M305.83,264.892a4.858,4.858,0,0,1-2.05-3.886V255.06l4.168,2.448h.272v.408h0v5.314a1.943,1.943,0,0,1-.816,1.8,1.254,1.254,0,0,1-.651.175A1.943,1.943,0,0,1,305.83,264.892Zm.466-6.4-.3,2.089H304.45v.437a4.2,4.2,0,0,0,1.72,3.293.913.913,0,0,0,.9.107,1.37,1.37,0,0,0,.476-1.224v-4.926Zm-.593-.573,1.234-.214-2.487-1.467v3.672h.971Z" transform="translate(-249.832 -137.944)" fill="#455a64"/><path d="M306.06,269.67a.33.33,0,0,0,.33-.33V264.87a.33.33,0,0,0-.33-.33.34.34,0,0,0-.34.33v4.469a.34.34,0,0,0,.34.33Z" transform="translate(-249.887 -138.214)" fill="#455a64"/><path d="M307.937,270.915a.33.33,0,0,0,.175-.622l-3.886-2.244a.335.335,0,1,0-.33.583l3.886,2.234A.291.291,0,0,0,307.937,270.915Z" transform="translate(-249.83 -138.312)" fill="#455a64"/><path d="M319.957,277.821a.8.8,0,0,0,.369-.087.9.9,0,0,0,.4-.806v-.913a.335.335,0,1,0-.67,0v.913a.33.33,0,0,1-.058.223.311.311,0,0,1-.223-.058,1.943,1.943,0,0,1-.622-1.506V269.65a.335.335,0,1,0-.67,0v5.936a2.536,2.536,0,0,0,.972,2.079A.971.971,0,0,0,319.957,277.821Z" transform="translate(-250.25 -138.349)" fill="#455a64"/><path d="M314.509,267.347v-.194a2.837,2.837,0,0,1,4.615-2.662,9.463,9.463,0,0,1,4.265,7.4v.583Zm1.71-2.565a2.487,2.487,0,0,0-1.04,2.186l7.51,4.333a8.811,8.811,0,0,0-3.886-6.227,3.41,3.41,0,0,0-1.661-.515,1.836,1.836,0,0,0-.923.223Z" transform="translate(-250.136 -138.193)" fill="#455a64"/><path d="M333.85,285.427a.33.33,0,0,0,.33-.33V273.73a.33.33,0,0,0-.33-.33.34.34,0,0,0-.34.33V285.1A.34.34,0,0,0,333.85,285.427Z" transform="translate(-250.678 -138.466)" fill="#455a64"/><path d="M334.794,276.316a.34.34,0,0,0,.311-.466l-1.146-2.749-1.321,1.535a.33.33,0,0,0,0,.466.35.35,0,0,0,.476,0l.631-.729.768,1.768A.33.33,0,0,0,334.794,276.316Z" transform="translate(-250.651 -138.457)" fill="#455a64"/><path d="M330.66,283.647a.34.34,0,0,0,.34-.33V271.95a.335.335,0,1,0-.67,0v11.367A.33.33,0,0,0,330.66,283.647Z" transform="translate(-250.588 -138.415)" fill="#455a64"/><path d="M331.613,274.5a.33.33,0,0,0,.136,0,.35.35,0,0,0,.175-.447l-1.195-2.74-1.321,1.525a.334.334,0,0,0,.505.437l.632-.729.767,1.778A.321.321,0,0,0,331.613,274.5Z" transform="translate(-250.559 -138.406)" fill="#455a64"/><path d="M275.275,235.561v14.67c0,.563-.4.8-.894.515L251.444,237.5a2,2,0,0,1-.884-1.545V221.212c0-.563.4-.8.894-.505l22.967,13.271A1.943,1.943,0,0,1,275.275,235.561Z" transform="translate(-248.316 -136.961)" fill="#fafafa"/><path d="M252.03,222.88l.738.427v13.378l-.738-.427Z" transform="translate(-248.358 -137.027)" fill="#455a64"/><path d="M255.13,224.67l1.282.748V238.8l-1.282-.748Z" transform="translate(-248.446 -137.078)" fill="#455a64"/><path d="M258.24,226.46l.738.427v13.378l-.738-.427Z" transform="translate(-248.535 -137.129)" fill="#455a64"/><path d="M260.58,227.79l1.486.884v13.378l-1.486-.884Z" transform="translate(-248.601 -137.167)" fill="#455a64"/><path d="M264.46,230.05l.738.427v13.378l-.738-.427Z" transform="translate(-248.712 -137.231)" fill="#455a64"/><path d="M266.7,231.31l1.584.942V245.64l-1.584-.952Z" transform="translate(-248.775 -137.267)" fill="#455a64"/><path d="M270.68,233.64l.738.427v13.378l-.738-.427Z" transform="translate(-248.889 -137.333)" fill="#455a64"/><path d="M272.45,234.65l.369.214v13.378l-.369-.214Z" transform="translate(-248.939 -137.362)" fill="#455a64"/><path d="M269.26,232.89l.369.214v13.378l-.369-.214Z" transform="translate(-248.848 -137.312)" fill="#455a64"/><path d="M263,229.22l.369.214v13.378L263,242.6Z" transform="translate(-248.67 -137.208)" fill="#455a64"/><path d="M259.57,227.25l.369.214v13.378l-.369-.214Z" transform="translate(-248.572 -137.151)" fill="#455a64"/><path d="M257.1,225.89l.379.214v13.378l-.379-.214Z" transform="translate(-248.502 -137.113)" fill="#455a64"/><path d="M253.76,223.87l.379.214v13.368l-.379-.214Z" transform="translate(-248.407 -137.055)" fill="#455a64"/><path d="M273.78,235.43l.748.427v13.378l-.748-.427Z" transform="translate(-248.977 -137.384)" fill="#455a64"/></g><g transform="translate(73.903 0)"><path d="M246.81,179.068l84.668,48.994,66.345-38.307L313.009,140.78Z" transform="translate(-242.895 -111.314)" opacity="0.1"/><path d="M242.78,151.458l71.037-41.008,82.87,47.847L325.65,199.305Z" transform="translate(-242.78 -110.45)" fill="#8f00fc "/><path d="M242.78,151.458l71.037-41.008,82.87,47.847L325.65,199.305Z" transform="translate(-242.78 -110.45)" opacity="0.1"/><path d="M280.484,136.186l23.491,13.533c.427.253.311.709-.253,1.04l-26.532,15.36a2.06,2.06,0,0,1-1.8.146l-23.5-13.582c-.427-.243-.311-.709.253-1.04l26.542-15.311a2.031,2.031,0,0,1,1.8-.146Z" transform="translate(-243.032 -111.179)" fill="#fafafa"/><path d="M269.1,159.5a.486.486,0,0,1-.243-.9l22.024-12.717a.486.486,0,1,1,.486.835L269.339,159.43a.456.456,0,0,1-.243.068Z" transform="translate(-243.516 -111.456)" fill="#e0e0e0"/><path d="M271.616,160.939a.486.486,0,0,1-.243-.9L293.4,147.318a.486.486,0,0,1,.661.175.5.5,0,0,1-.175.67l-22.024,12.707A.456.456,0,0,1,271.616,160.939Z" transform="translate(-243.588 -111.498)" fill="#e0e0e0"/><path d="M274.126,162.379a.486.486,0,0,1-.243-.9l22.024-12.717a.487.487,0,0,1,.486.845L274.369,162.32a.525.525,0,0,1-.243.058Z" transform="translate(-243.659 -111.539)" fill="#e0e0e0"/><path d="M276.646,163.828a.486.486,0,0,1-.418-.243.5.5,0,0,1,.175-.67l22.024-12.707a.486.486,0,1,1,.486.835L276.889,163.76a.456.456,0,0,1-.243.068Z" transform="translate(-243.731 -111.58)" fill="#e0e0e0"/><path d="M254.19,152.525l.855-.5,10.036,5.79-.865.5Z" transform="translate(-243.105 -111.634)" fill="#455a64"/><path d="M257.77,150.445l1.5-.855,10.026,5.8-1.486.845Z" transform="translate(-243.207 -111.565)" fill="#455a64"/><path d="M261.36,148.375l.865-.5,10.026,5.8-.855.486Z" transform="translate(-243.309 -111.516)" fill="#455a64"/><path d="M264.05,146.791l1.729-.981,10.036,5.79-1.729.981Z" transform="translate(-243.386 -111.457)" fill="#455a64"/><path d="M268.54,144.235l.855-.5,10.036,5.79-.855.5Z" transform="translate(-243.514 -111.398)" fill="#455a64"/><path d="M271.1,142.709l1.856-1.049,10.036,5.8-1.856,1.049Z" transform="translate(-243.587 -111.339)" fill="#455a64"/><path d="M275.72,140.085l.855-.5,10.036,5.8-.855.486Z" transform="translate(-243.718 -111.28)" fill="#455a64"/><path d="M277.75,138.9l.437-.243,10.026,5.79-.427.253Z" transform="translate(-243.776 -111.253)" fill="#455a64"/><path d="M274.13,141.073l.427-.253,10.036,5.79-.427.253Z" transform="translate(-243.673 -111.315)" fill="#455a64"/><path d="M266.86,145.223l.437-.253,10.026,5.8-.427.243Z" transform="translate(-243.466 -111.433)" fill="#455a64"/><path d="M262.91,147.513l.437-.253,10.026,5.8-.427.243Z" transform="translate(-243.353 -111.498)" fill="#455a64"/><path d="M260.12,149.183l.427-.253,10.026,5.8-.427.243Z" transform="translate(-243.274 -111.546)" fill="#455a64"/><path d="M256.19,151.363l.427-.243,10.026,5.79-.427.243Z" transform="translate(-243.162 -111.608)" fill="#455a64"/><path d="M279.31,138.015l.855-.5,10.036,5.79-.865.5Z" transform="translate(-243.82 -111.221)" fill="#455a64"/><path d="M325.65,227.855l-82.87-47.847V152.66l82.87,47.847Z" transform="translate(-242.78 -111.652)" fill="#8f00fc "/><g transform="translate(0 41.008)" opacity="0.2"><path d="M325.65,227.855l-82.87-47.847V152.66l82.87,47.847Z" transform="translate(-242.78 -152.66)"/></g><path d="M328.08,228.056l71.037-41.017V159.7L328.08,200.708Z" transform="translate(-245.21 -111.853)" fill="#8f00fc "/><path d="M328.08,228.056l71.037-41.017V159.7L328.08,200.708Z" transform="translate(-245.21 -111.853)" opacity="0.3"/><path d="M372.061,185.259l-5.751,3.313v-8.909l5.751-3.323Z" transform="translate(-246.298 -112.327)" fill="#37474f"/><path d="M363.88,178.26l-82.87-47.847,5.742-3.323,82.88,47.847Z" transform="translate(-243.869 -110.924)" fill="#455a64"/><path d="M294.67,200.872a4.8,4.8,0,0,1-2.05-3.886V191.05l4.168,2.448.272-.049v.389h0v5.314a2,2,0,0,1-.816,1.807,1.273,1.273,0,0,1-.651.165,1.827,1.827,0,0,1-.923-.253Zm.466-6.393-.311,2.079H293.29V197a4.216,4.216,0,0,0,1.72,3.3.913.913,0,0,0,.894.1,1.35,1.35,0,0,0,.486-1.224v-4.916Zm-.593-.573,1.234-.223-2.487-1.457v3.633h.971Z" transform="translate(-244.2 -112.746)" fill="#455a64"/><path d="M294.89,205.65a.34.34,0,0,0,.34-.33V200.86a.335.335,0,1,0-.67,0v4.459A.33.33,0,0,0,294.89,205.65Z" transform="translate(-244.255 -113.015)" fill="#455a64"/><path d="M296.776,206.915a.321.321,0,0,0,.291-.175.34.34,0,0,0-.126-.457l-3.886-2.234a.33.33,0,0,0-.457.126.321.321,0,0,0,.117.447l3.886,2.244A.33.33,0,0,0,296.776,206.915Z" transform="translate(-244.198 -113.115)" fill="#455a64"/><path d="M308.827,213.81a.767.767,0,0,0,.359-.1.874.874,0,0,0,.408-.806v-.913a.34.34,0,0,0-.34-.33.33.33,0,0,0-.33.33v.913c0,.136,0,.214-.068.223s-.1,0-.214-.058a1.943,1.943,0,0,1-.622-1.506V205.63a.33.33,0,0,0-.33-.33.34.34,0,0,0-.34.33v5.936a2.545,2.545,0,0,0,.972,2.089,1.088,1.088,0,0,0,.505.155Z" transform="translate(-244.619 -113.152)" fill="#455a64"/><path d="M303.349,203.337v-.194a2.827,2.827,0,0,1,4.6-2.662,9.453,9.453,0,0,1,4.275,7.4v.583Zm1.7-2.565a2.487,2.487,0,0,0-1.069,2.137l7.51,4.333a8.744,8.744,0,0,0-3.886-6.218,3.361,3.361,0,0,0-1.671-.525A1.788,1.788,0,0,0,305.049,200.772Z" transform="translate(-244.504 -112.995)" fill="#455a64"/><path d="M322.68,221.417a.34.34,0,0,0,.34-.33V209.71a.34.34,0,0,0-.34-.33.33.33,0,0,0-.33.33v11.376a.33.33,0,0,0,.33.33Z" transform="translate(-245.046 -113.268)" fill="#455a64"/><path d="M323.632,212.3a.3.3,0,0,0,.126,0,.321.321,0,0,0,.175-.437l-1.185-2.74-1.331,1.525a.34.34,0,0,0,0,.476.33.33,0,0,0,.466,0l.631-.729.768,1.778a.35.35,0,0,0,.35.126Z" transform="translate(-245.017 -113.26)" fill="#455a64"/><path d="M319.5,219.647a.34.34,0,0,0,.34-.34V207.94a.34.34,0,0,0-.34-.33.33.33,0,0,0-.33.33v11.367a.34.34,0,0,0,.33.34Z" transform="translate(-244.956 -113.217)" fill="#455a64"/><path d="M320.452,210.487a.3.3,0,0,0,.126,0,.321.321,0,0,0,.175-.437l-1.185-2.749-1.331,1.535a.34.34,0,0,0,0,.466.321.321,0,0,0,.466,0l.631-.729.768,1.768a.35.35,0,0,0,.35.146Z" transform="translate(-244.927 -113.209)" fill="#455a64"/><path d="M269.844,174.9v14.718c0,.563-.4.8-.884.515l-22.986-13.271a1.943,1.943,0,0,1-.894-1.535V160.6c0-.563.4-.8.894-.515l22.967,13.271A1.943,1.943,0,0,1,269.844,174.9Z" transform="translate(-242.846 -111.86)" fill="#fafafa"/><path d="M246.56,162.26l.738.427v13.378l-.738-.427Z" transform="translate(-242.888 -111.926)" fill="#455a64"/><path d="M249.66,164.06l1.282.748v13.378l-1.282-.758Z" transform="translate(-242.976 -111.977)" fill="#455a64"/><path d="M252.77,165.85l.748.427v13.378l-.748-.427Z" transform="translate(-243.065 -112.028)" fill="#455a64"/><path d="M255.12,167.18l1.477.874v13.378l-1.477-.874Z" transform="translate(-243.131 -112.066)" fill="#455a64"/><path d="M258.99,169.44l.738.427v13.378l-.738-.427Z" transform="translate(-243.242 -112.13)" fill="#455a64"/><path d="M261.23,170.7l1.584.942V185.02l-1.584-.942Z" transform="translate(-243.306 -112.166)" fill="#455a64"/><path d="M265.21,173.02l.738.437v13.378l-.738-.437Z" transform="translate(-243.419 -112.232)" fill="#455a64"/><path d="M266.98,174.03l.369.214v13.378l-.369-.214Z" transform="translate(-243.469 -112.261)" fill="#455a64"/><path d="M263.79,172.27l.369.223v13.368l-.369-.214Z" transform="translate(-243.378 -112.211)" fill="#455a64"/><path d="M257.53,168.61l.369.214V182.2l-.369-.214Z" transform="translate(-243.2 -112.107)" fill="#455a64"/><path d="M254.1,166.64l.369.214v13.378l-.369-.214Z" transform="translate(-243.102 -112.05)" fill="#455a64"/><path d="M251.64,165.28l.369.214v13.378l-.369-.214Z" transform="translate(-243.032 -112.012)" fill="#455a64"/><path d="M248.3,163.25l.369.214v13.378l-.369-.214Z" transform="translate(-242.937 -111.954)" fill="#455a64"/><path d="M268.31,174.82l.748.427v13.378l-.748-.427Z" transform="translate(-243.507 -112.283)" fill="#455a64"/></g><g transform="translate(0 83.181)"><path d="M280.2,343.939,215.3,381.372,166.71,353.285l65.063-37.345Z" transform="translate(-166.71 -199.484)" opacity="0.1"/><g transform="translate(5.926)"><path d="M172.81,230.238,232,196.07l43.417,25.055L216.227,255.3Z" transform="translate(-172.81 -196.07)" fill="#8f00fc "/><path d="M172.81,230.238,232,196.07l43.417,25.055L216.227,255.3Z" transform="translate(-172.81 -196.07)" opacity="0.1"/><path d="M232.611,201.117,214.444,211.58c-.33.194-.243.554.194.806l20.518,11.843a1.574,1.574,0,0,0,1.38.117l18.177-10.473c.33-.194.243-.544-.194-.806L234,201.233a1.593,1.593,0,0,0-1.389-.117Z" transform="translate(-173.99 -196.211)" fill="#fafafa"/><path d="M242.09,219.14a.36.36,0,0,0,.321-.185.379.379,0,0,0-.136-.515l-17.031-9.832a.389.389,0,0,0-.515.146.379.379,0,0,0,.136.505l17.031,9.832A.34.34,0,0,0,242.09,219.14Z" transform="translate(-174.287 -196.426)" fill="#e0e0e0"/><path d="M240.14,220.26a.379.379,0,0,0,.321-.185.369.369,0,0,0-.136-.515l-17.031-9.832a.359.359,0,0,0-.505.136.369.369,0,0,0,.136.515l17.031,9.832A.4.4,0,0,0,240.14,220.26Z" transform="translate(-174.232 -196.458)" fill="#e0e0e0"/><path d="M238.19,221.37a.379.379,0,0,0,.194-.7l-17.031-9.832a.389.389,0,0,0-.515.136.379.379,0,0,0,.136.515l17.031,9.832a.33.33,0,0,0,.185.049Z" transform="translate(-174.177 -196.489)" fill="#e0e0e0"/><path d="M236.25,222.491a.379.379,0,0,0,.321-.185.369.369,0,0,0-.136-.515L219.4,212a.359.359,0,0,0-.505.136.369.369,0,0,0,.136.515l17.021,9.832A.476.476,0,0,0,236.25,222.491Z" transform="translate(-174.121 -196.522)" fill="#e0e0e0"/><path d="M253.883,213.749l-.661-.379-7.753,4.479.661.379Z" transform="translate(-174.88 -196.563)" fill="#455a64"/><path d="M251.1,212.141l-1.156-.651-7.753,4.479,1.146.651Z" transform="translate(-174.786 -196.509)" fill="#455a64"/><path d="M248.333,210.549l-.661-.389-7.753,4.479.661.389Z" transform="translate(-174.721 -196.471)" fill="#455a64"/><path d="M246.233,209.318l-1.331-.758-7.762,4.479,1.341.758Z" transform="translate(-174.642 -196.426)" fill="#455a64"/><path d="M242.783,207.339l-.661-.379-7.753,4.479.661.379Z" transform="translate(-174.563 -196.38)" fill="#455a64"/><path d="M240.781,206.166l-1.428-.806-7.762,4.479,1.438.806Z" transform="translate(-174.484 -196.335)" fill="#455a64"/><path d="M237.233,204.139l-.661-.389-7.753,4.479.661.389Z" transform="translate(-174.405 -196.289)" fill="#455a64"/><path d="M235.673,203.224l-.33-.194-7.753,4.479.33.194Z" transform="translate(-174.37 -196.268)" fill="#455a64"/><path d="M238.473,204.894l-.33-.194-7.762,4.479.34.194Z" transform="translate(-174.45 -196.316)" fill="#455a64"/><path d="M244.093,208.1l-.33-.194L236,212.389l.34.194Z" transform="translate(-174.61 -196.407)" fill="#455a64"/><path d="M247.143,209.875l-.33-.185-7.753,4.469.33.194Z" transform="translate(-174.697 -196.458)" fill="#455a64"/><path d="M249.313,211.164l-.33-.194-7.762,4.488.33.185Z" transform="translate(-174.758 -196.494)" fill="#455a64"/><path d="M252.353,212.854l-.33-.194-7.762,4.479.33.194Z" transform="translate(-174.845 -196.543)" fill="#455a64"/><path d="M234.463,202.529l-.661-.379-7.762,4.479.661.389Z" transform="translate(-174.326 -196.243)" fill="#455a64"/><path d="M216.227,374.8,172.81,349.736V231.24l43.417,25.065Z" transform="translate(-172.81 -197.072)" fill="#8f00fc "/><g transform="translate(0 34.168)" opacity="0.2"><path d="M216.227,374.8,172.81,349.736V231.24l43.417,25.065Z" transform="translate(-172.81 -231.24)"/></g><path d="M217.5,374.534l59.195-34.178V221.86L217.5,256.038Z" transform="translate(-174.083 -196.805)" fill="#8f00fc "/><path d="M217.5,374.534l59.195-34.178V221.86L217.5,256.038Z" transform="translate(-174.083 -196.805)" opacity="0.3"/><path d="M249.822,247.2l-5.742,3.313v-8.919l5.742-3.313Z" transform="translate(-174.84 -197.272)" fill="#37474f"/><path d="M242.807,240.858,199.4,215.8l5.742-3.323,43.407,25.065Z" transform="translate(-173.567 -196.537)" fill="#455a64"/><path d="M184.08,349.832a4.857,4.857,0,0,1-2.05-3.886V340l4.168,2.448h.272v.4h0v5.314a1.943,1.943,0,0,1-.816,1.8,1.253,1.253,0,0,1-.651.175,1.943,1.943,0,0,1-.923-.3Zm.466-6.4-.3,2.089H182.7v.437a4.2,4.2,0,0,0,1.72,3.293.913.913,0,0,0,.9.107,1.38,1.38,0,0,0,.476-1.224v-4.926Zm-.593-.573,1.234-.214-2.487-1.467v3.682h.972Z" transform="translate(-173.073 -200.169)" fill="#455a64"/><path d="M184.31,354.61a.33.33,0,0,0,.33-.33V349.81a.33.33,0,0,0-.33-.33.34.34,0,0,0-.34.33v4.469a.34.34,0,0,0,.34.33Z" transform="translate(-173.128 -200.439)" fill="#455a64"/><path d="M186.186,355.825a.33.33,0,0,0,.165-.622l-3.886-2.244a.335.335,0,0,0-.33.583l3.886,2.234a.253.253,0,0,0,.165.049Z" transform="translate(-173.071 -200.537)" fill="#455a64"/><path d="M198.237,362.751a.8.8,0,0,0,.369-.087.9.9,0,0,0,.4-.806v-.913a.34.34,0,1,0-.67,0v.913a.33.33,0,0,1-.058.223.311.311,0,0,1-.223-.058,1.943,1.943,0,0,1-.622-1.506V354.59a.335.335,0,1,0-.67,0v5.936a2.536,2.536,0,0,0,.972,2.079.972.972,0,0,0,.505.146Z" transform="translate(-173.492 -200.575)" fill="#455a64"/><path d="M192.759,352.287v-.194a2.837,2.837,0,0,1,4.615-2.662,9.463,9.463,0,0,1,4.265,7.4v.583Zm1.71-2.565a2.487,2.487,0,0,0-1.04,2.186l7.51,4.333a8.812,8.812,0,0,0-3.886-6.227,3.439,3.439,0,0,0-1.661-.515,1.836,1.836,0,0,0-.923.223Z" transform="translate(-173.377 -200.419)" fill="#455a64"/><path d="M212.09,370.367a.34.34,0,0,0,.34-.33V358.67a.34.34,0,0,0-.34-.33.33.33,0,0,0-.33.33v11.367A.33.33,0,0,0,212.09,370.367Z" transform="translate(-173.919 -200.692)" fill="#455a64"/><path d="M213.043,361.255a.341.341,0,0,0,.136,0,.33.33,0,0,0,.165-.437L212.158,358l-1.321,1.535a.33.33,0,0,0,0,.466.35.35,0,0,0,.476,0l.622-.729.767,1.768a.35.35,0,0,0,.34.214Z" transform="translate(-173.89 -200.682)" fill="#455a64"/><path d="M208.91,368.557a.34.34,0,0,0,.34-.33V356.86a.335.335,0,1,0-.67,0v11.367A.33.33,0,0,0,208.91,368.557Z" transform="translate(-173.829 -200.64)" fill="#455a64"/><path d="M209.862,359.436a.33.33,0,0,0,.136,0,.35.35,0,0,0,.175-.447l-1.214-2.759-1.321,1.525a.334.334,0,0,0,.505.437l.622-.729.767,1.778A.34.34,0,0,0,209.862,359.436Z" transform="translate(-173.8 -200.632)" fill="#455a64"/><path d="M212.7,332.942v14.709c0,.573-.4.8-.884.515L188.844,334.9a1.943,1.943,0,0,1-.894-1.545V318.641c0-.573.389-.8.884-.515L211.81,331.4a1.943,1.943,0,0,1,.894,1.545Z" transform="translate(-173.241 -199.543)" fill="#fafafa"/><path d="M189.42,320.3l.738.427v13.378l-.738-.427Z" transform="translate(-173.283 -199.608)" fill="#455a64"/><path d="M192.53,322.09l1.273.758v13.378l-1.273-.758Z" transform="translate(-173.372 -199.659)" fill="#455a64"/><path d="M195.64,323.89l.738.427V337.7l-.738-.427Z" transform="translate(-173.46 -199.711)" fill="#455a64"/><path d="M197.98,325.21l1.486.884v13.378l-1.486-.874Z" transform="translate(-173.527 -199.748)" fill="#455a64"/><path d="M201.85,327.47l.748.437v13.378l-.748-.427Z" transform="translate(-173.637 -199.813)" fill="#455a64"/><path d="M204.09,328.74l1.584.942V343.06l-1.584-.942Z" transform="translate(-173.701 -199.849)" fill="#455a64"/><path d="M208.07,331.06l.738.427v13.378l-.738-.427Z" transform="translate(-173.814 -199.915)" fill="#455a64"/><path d="M209.84,332.07l.369.214v13.378l-.369-.214Z" transform="translate(-173.865 -199.944)" fill="#455a64"/><path d="M206.65,330.31l.369.214V343.9l-.369-.214Z" transform="translate(-173.774 -199.894)" fill="#455a64"/><path d="M200.39,326.64l.369.223v13.368l-.369-.2Z" transform="translate(-173.596 -199.789)" fill="#455a64"/><path d="M196.96,324.68l.369.214v13.378l-.369-.214Z" transform="translate(-173.498 -199.733)" fill="#455a64"/><path d="M194.5,323.32l.369.214v13.378l-.369-.214Z" transform="translate(-173.428 -199.694)" fill="#455a64"/><path d="M191.16,321.29l.369.214v13.378l-.369-.214Z" transform="translate(-173.333 -199.637)" fill="#455a64"/><path d="M211.18,332.86l.738.427v13.378l-.738-.427Z" transform="translate(-173.903 -199.966)" fill="#455a64"/></g></g><g transform="translate(51.83 174.863)"><path d="M334.806,375.431,269.9,412.864l-49.839-28.7,65.053-37.345Z" transform="translate(-220.06 -292.046)" opacity="0.1"/><g transform="translate(7.529)"><path d="M227.81,324.618l59.2-34.178,43.407,25.065-59.195,34.178Z" transform="translate(-227.81 -290.44)" fill="#8f00fc "/><g opacity="0.3"><path d="M227.81,324.618l59.2-34.178,43.407,25.065-59.195,34.178Z" transform="translate(-227.81 -290.44)" fill="#fff"/></g><path d="M287.612,295.5,269.444,305.96c-.33.194-.243.554.194.806l20.518,11.843a1.554,1.554,0,0,0,1.389.107l18.167-10.463c.33-.194.243-.554-.194-.806L289,295.613A1.525,1.525,0,0,0,287.612,295.5Z" transform="translate(-228.99 -290.581)" fill="#fafafa"/><path d="M297.091,313.521a.379.379,0,0,0,.321-.185.369.369,0,0,0-.136-.515L280.245,303a.379.379,0,0,0-.369.651l17.021,9.832a.476.476,0,0,0,.194.039Z" transform="translate(-229.289 -290.797)" fill="#e0e0e0"/><path d="M295.14,314.688a.379.379,0,0,0,.33-.194.389.389,0,0,0-.146-.515L278.3,304.1a.379.379,0,0,0-.515.146.369.369,0,0,0,.136.505l17.031,9.832A.34.34,0,0,0,295.14,314.688Z" transform="translate(-229.232 -290.828)" fill="#e0e0e0"/><path d="M293.2,315.75a.379.379,0,0,0,.185-.7l-17.031-9.832a.379.379,0,0,0-.515.136.389.389,0,0,0,.136.515l17.031,9.822a.447.447,0,0,0,.194.058Z" transform="translate(-229.177 -290.859)" fill="#e0e0e0"/><path d="M291.25,316.87a.38.38,0,0,0,.185-.709L274.4,306.339a.37.37,0,0,0-.369.641l17.031,9.832A.32.32,0,0,0,291.25,316.87Z" transform="translate(-229.121 -290.891)" fill="#e0e0e0"/><path d="M308.883,308.129l-.661-.389-7.753,4.488.661.379Z" transform="translate(-229.88 -290.933)" fill="#455a64"/><path d="M306.1,306.521l-1.146-.661-7.762,4.479,1.156.661Z" transform="translate(-229.786 -290.879)" fill="#455a64"/><path d="M303.333,304.919l-.661-.379-7.753,4.479.661.379Z" transform="translate(-229.721 -290.842)" fill="#455a64"/><path d="M301.243,303.7l-1.341-.758-7.762,4.479,1.341.758Z" transform="translate(-229.642 -290.796)" fill="#455a64"/><path d="M297.793,301.719l-.67-.389-7.753,4.479.661.389Z" transform="translate(-229.563 -290.75)" fill="#455a64"/><path d="M295.781,300.536l-1.428-.806-7.753,4.479,1.428.816Z" transform="translate(-229.484 -290.705)" fill="#455a64"/><path d="M292.243,298.509l-.661-.379-7.762,4.479.661.379Z" transform="translate(-229.405 -290.659)" fill="#455a64"/><path d="M290.673,297.6l-.33-.194-7.753,4.479.33.185Z" transform="translate(-229.37 -290.639)" fill="#455a64"/><path d="M293.473,299.274l-.33-.194-7.753,4.479.33.194Z" transform="translate(-229.45 -290.686)" fill="#455a64"/><path d="M299.093,302.484l-.33-.194-7.753,4.479.33.194Z" transform="translate(-229.61 -290.778)" fill="#455a64"/><path d="M302.153,304.254l-.33-.194-7.762,4.479.33.194Z" transform="translate(-229.697 -290.828)" fill="#455a64"/><path d="M304.313,305.544l-.33-.194-7.753,4.479.321.194Z" transform="translate(-229.759 -290.865)" fill="#455a64"/><path d="M307.353,307.234l-.33-.194-7.762,4.479.33.194Z" transform="translate(-229.845 -290.913)" fill="#455a64"/><path d="M289.463,296.909l-.661-.379-7.753,4.479.661.379Z" transform="translate(-229.326 -290.613)" fill="#455a64"/><path d="M271.227,408.345,227.81,383.28V325.62l43.417,25.065Z" transform="translate(-227.81 -291.442)" fill="#8f00fc "/><path d="M271.227,408.345,227.81,383.28V325.62l43.417,25.065Z" transform="translate(-227.81 -291.442)" fill="#8f00fc "/><path d="M272.5,408.078,331.695,373.9V316.24L272.5,350.418Z" transform="translate(-229.083 -291.175)" fill="#8f00fc "/><path d="M272.5,408.078,331.695,373.9V316.24L272.5,350.418Z" transform="translate(-229.083 -291.175)" opacity="0.1"/><path d="M304.822,341.569l-5.742,3.323v-8.919l5.742-3.313Z" transform="translate(-229.84 -291.643)" fill="#37474f"/><path d="M297.807,335.238,254.4,310.173l5.742-3.313,43.407,25.065Z" transform="translate(-228.567 -290.908)" fill="#455a64"/><path d="M327.762,369.685a.971.971,0,0,1-.427-.107,1.321,1.321,0,0,1-.534-1.2v-3.5h0v-.253h.175l2.749-1.613v3.886a3.167,3.167,0,0,1-1.35,2.555A1.282,1.282,0,0,1,327.762,369.685Zm-.525-4.537v3.235a.894.894,0,0,0,.321.806.592.592,0,0,0,.593-.068,2.759,2.759,0,0,0,1.127-2.167v-.291h-.972l-.2-1.37Zm1.409,1.078h.632v-2.419l-1.632.972.806.146Z" transform="translate(-230.629 -292.507)" fill="#455a64"/><path d="M328.294,372.65a.214.214,0,0,1-.214-.214v-2.915a.223.223,0,1,1,.437,0v2.915a.214.214,0,0,1-.223.214Z" transform="translate(-230.666 -292.685)" fill="#455a64"/><path d="M326.993,373.454a.219.219,0,0,1-.117-.408l2.555-1.477a.223.223,0,0,1,.3.078.214.214,0,0,1-.078.3l-2.555,1.477a.223.223,0,0,1-.107.029Z" transform="translate(-230.629 -292.75)" fill="#455a64"/><path d="M319.085,378.028a.525.525,0,0,1-.243-.058.593.593,0,0,1-.262-.534v-.564a.223.223,0,0,1,.223-.223.233.233,0,0,1,.223.223v.748a.617.617,0,0,0,.146,0,1.3,1.3,0,0,0,.408-.971v-3.886a.223.223,0,1,1,.437,0v3.886a1.681,1.681,0,0,1-.622,1.37.612.612,0,0,1-.311.01Z" transform="translate(-230.395 -292.777)" fill="#455a64"/><path d="M316.72,374.5v-.379a6.208,6.208,0,0,1,2.808-4.858,1.865,1.865,0,0,1,3.041,1.749v.126Zm4.158-5.217a2.264,2.264,0,0,0-1.1.34,5.829,5.829,0,0,0-2.575,4.1l4.945-2.856a1.6,1.6,0,0,0-.68-1.428A1.1,1.1,0,0,0,320.878,369.287Z" transform="translate(-230.342 -292.673)" fill="#455a64"/><path d="M309.994,383.036a.214.214,0,0,1-.214-.214v-7.49a.223.223,0,1,1,.437,0v7.49a.214.214,0,0,1-.223.214Z" transform="translate(-230.145 -292.85)" fill="#455a64"/><path d="M309.324,377.028h-.087a.243.243,0,0,1-.117-.291l.787-1.807.874.972a.223.223,0,0,1-.33.291l-.418-.476-.505,1.166a.223.223,0,0,1-.2.146Z" transform="translate(-230.126 -292.846)" fill="#455a64"/><path d="M312.083,381.847a.223.223,0,0,1-.223-.223v-7.49a.233.233,0,0,1,.223-.223.223.223,0,0,1,.223.223v7.49A.223.223,0,0,1,312.083,381.847Z" transform="translate(-230.204 -292.817)" fill="#455a64"/><path d="M311.423,375.838h-.087a.214.214,0,0,1-.117-.291l.787-1.807.865.971a.214.214,0,0,1,0,.311.223.223,0,0,1-.311,0l-.408-.486-.515,1.166A.2.2,0,0,1,311.423,375.838Z" transform="translate(-230.185 -292.813)" fill="#455a64"/><path d="M277.3,385.8v14.719c0,.563.4.8.884.515l22.976-13.261a1.943,1.943,0,0,0,.894-1.545V371.5c0-.563-.4-.8-.894-.505l-22.976,13.271A1.943,1.943,0,0,0,277.3,385.8Z" transform="translate(-229.22 -292.731)" fill="#fafafa"/><path d="M301.288,373.17l-.738.427v13.378l.738-.427Z" transform="translate(-229.882 -292.796)" fill="#455a64"/><path d="M298.163,374.96l-1.273.748v13.378l1.273-.748Z" transform="translate(-229.778 -292.847)" fill="#455a64"/><path d="M295.078,376.75l-.748.427v13.378l.748-.427Z" transform="translate(-229.705 -292.898)" fill="#455a64"/><path d="M292.706,378.08l-1.486.884v13.378l1.486-.884Z" transform="translate(-229.616 -292.936)" fill="#455a64"/><path d="M288.858,380.34l-.738.427v13.378l.738-.427Z" transform="translate(-229.528 -293.001)" fill="#455a64"/><path d="M286.594,381.6l-1.584.942V395.93l1.584-.952Z" transform="translate(-229.439 -293.036)" fill="#455a64"/><path d="M282.638,383.93l-.738.427v13.378l.738-.427Z" transform="translate(-229.351 -293.103)" fill="#455a64"/><path d="M280.879,384.94l-.369.214v13.378l.369-.214Z" transform="translate(-229.311 -293.132)" fill="#455a64"/><path d="M284.069,383.18l-.369.214v13.378l.369-.214Z" transform="translate(-229.402 -293.081)" fill="#455a64"/><path d="M290.329,379.51l-.369.214V393.1l.369-.214Z" transform="translate(-229.58 -292.977)" fill="#455a64"/><path d="M293.759,377.54l-.369.214v13.378l.369-.214Z" transform="translate(-229.678 -292.921)" fill="#455a64"/><path d="M296.219,376.18l-.369.214v13.378l.369-.214Z" transform="translate(-229.748 -292.882)" fill="#455a64"/><path d="M299.559,374.15l-.369.223v13.378l.369-.214Z" transform="translate(-229.843 -292.824)" fill="#455a64"/><path d="M279.528,385.72l-.738.427v13.378l.738-.427Z" transform="translate(-229.262 -293.154)" fill="#455a64"/></g></g></g><g transform="translate(7.914 118.5)"><g transform="translate(0 0)"><path d="M290.031,89.08l-14.4,8.347,5.716,12.806a1.327,1.327,0,0,0,.547.605l4.948,2.864a1.327,1.327,0,0,0,1.932-.768L294.978,91.9Z" transform="translate(-252.696 -7.79)" fill="#8f00fc "/><path d="M290.031,89.08l-14.4,8.347,5.716,12.806a1.327,1.327,0,0,0,.547.605l4.948,2.864a1.327,1.327,0,0,0,1.932-.768L294.978,91.9Z" transform="translate(-252.696 -7.79)" opacity="0.15"/><path d="M279.92,99.884l5.716,12.806a1.316,1.316,0,0,0,2.468-.163l6.2-21.036Z" transform="translate(-251.992 -7.394)" fill="#8f00fc "/><path d="M311.426,19.564l-54.25,31.351a2.747,2.747,0,0,0-1.246,2.154v67.382a2.736,2.736,0,0,0,1.246,2.119l4.47,2.5a2.782,2.782,0,0,0,2.5,0l54.285-31.351a2.724,2.724,0,0,0,1.246-2.154V24.2a2.736,2.736,0,0,0-1.246-2.142l-4.47-2.5a2.794,2.794,0,0,0-2.538.012Z" transform="translate(-255.93 -19.253)" fill="#8f00fc "/><path d="M319.571,23.974c-.093-.629-.605-.85-1.234-.489L264.11,54.825a2.527,2.527,0,0,0-.885.931L256.24,51.8a2.514,2.514,0,0,1,.861-.885l54.273-31.351a2.759,2.759,0,0,1,2.491,0l4.47,2.5a2.724,2.724,0,0,1,1.234,1.909Z" transform="translate(-255.879 -19.251)" fill="#fff" opacity="0.5"/><path d="M261.88,123.789V56.419a2.724,2.724,0,0,1,1.3-2.165l54.285-31.339c.7-.4,1.246-.081,1.246.71V91.006a2.724,2.724,0,0,1-1.246,2.154l-54.285,31.351C262.427,124.907,261.88,124.581,261.88,123.789Z" transform="translate(-254.953 -18.68)" fill="#8f00fc "/><path d="M264.161,120.494a2.864,2.864,0,0,1-2.5,0l-4.482-2.515a2.713,2.713,0,0,1-1.246-2.142V48.479a2.491,2.491,0,0,1,.4-1.269l6.985,3.958a2.456,2.456,0,0,0-.373,1.234v67.37C262.857,120.494,263.369,120.913,264.161,120.494Z" transform="translate(-255.93 -14.664)" opacity="0.15"/><g transform="translate(12.107 22.192)"><path d="M266.959,70.43a.617.617,0,0,1-.629-.617V58.079a.605.605,0,0,1,.314-.536l10.163-5.821a.594.594,0,0,1,.617,0,.605.605,0,0,1,.314.536V63.946a.617.617,0,0,1-.3.536L267.273,70.3a.629.629,0,0,1-.314.128Zm.629-11.991V68.731l8.906-5.146V53.294Z" transform="translate(-266.33 -36.129)" fill="#fafafa"/><path d="M277.965,49.624a1.234,1.234,0,0,0-1.618.652L271.69,61.359l-1.164-1.083a1.235,1.235,0,1,0-1.723,1.77l2.41,2.328a1.246,1.246,0,0,0,.861.349h.244a1.234,1.234,0,0,0,.885-.733l5.413-12.748a1.164,1.164,0,0,0-.652-1.618Z" transform="translate(-265.985 -36.476)" fill="#455a64"/><path d="M283.228,53.513l25.914-14.96c.9-.524,1.63-.151,1.63.827a3.493,3.493,0,0,1-1.63,2.713l-25.914,14.96c-.9.512-1.618.14-1.618-.838a3.492,3.492,0,0,1,1.618-2.7Z" transform="translate(-263.821 -38.316)" fill="#455a64"/><path d="M266.959,85.551a.582.582,0,0,1-.314-.081.64.64,0,0,1-.314-.547V73.2a.617.617,0,0,1,.314-.547l10.163-5.821a.623.623,0,0,1,.931.547V79.055a.617.617,0,0,1-.314.547l-10.151,5.821A.629.629,0,0,1,266.959,85.551Zm.617-11.991V83.84l8.918-5.157V68.414Z" transform="translate(-266.33 -33.648)" fill="#fafafa"/><path d="M277.965,64.733a1.246,1.246,0,0,0-1.618.664L271.69,76.48,270.526,75.4a1.234,1.234,0,0,0-1.746,0,1.257,1.257,0,0,0,0,1.746l2.41,2.328a1.164,1.164,0,0,0,.861.349.874.874,0,0,0,.245,0,1.164,1.164,0,0,0,.885-.722l5.355-12.806a1.234,1.234,0,0,0-.57-1.56Z" transform="translate(-265.986 -33.995)" fill="#455a64"/><path d="M283.228,68.583l25.914-14.96c.9-.524,1.63-.151,1.63.827a3.493,3.493,0,0,1-1.63,2.7L283.228,72.122c-.9.512-1.618.14-1.618-.838A3.493,3.493,0,0,1,283.228,68.583Z" transform="translate(-263.821 -35.842)" fill="#455a64"/><path d="M266.959,100.649a.582.582,0,0,1-.314-.093.605.605,0,0,1-.314-.536V88.309a.605.605,0,0,1,.314-.536l10.163-5.821a.594.594,0,0,1,.617,0,.605.605,0,0,1,.314.536V94.176a.605.605,0,0,1-.314.535l-10.152,5.821A.652.652,0,0,1,266.959,100.649Zm.617-12V98.937l8.918-5.146V83.524Z" transform="translate(-266.33 -31.167)" fill="#fafafa"/><path d="M277.965,79.854a1.234,1.234,0,0,0-1.618.652L271.69,91.589l-1.164-1.083a1.235,1.235,0,1,0-1.723,1.77l2.41,2.328a1.246,1.246,0,0,0,.861.349h.244a1.234,1.234,0,0,0,.885-.733l5.355-12.806a1.164,1.164,0,0,0-.594-1.56Z" transform="translate(-265.985 -31.513)" fill="#455a64"/><path d="M283.228,83.654l25.914-14.971c.9-.512,1.63-.14,1.63.838a3.493,3.493,0,0,1-1.63,2.7l-25.914,14.96c-.9.524-1.618.151-1.618-.827A3.493,3.493,0,0,1,283.228,83.654Z" transform="translate(-263.821 -33.369)" fill="#455a64"/></g></g></g><g transform="translate(-697.359 -1790)"><g transform="matrix(1, 0, 0, 1, 697.36, 1786.5)" filter="url(#a)"><g transform="translate(262.64 3.5)" fill="#fff" stroke="#8f00fc " stroke-width="2"><rect width="337" height="251" rx="10" stroke="none"/><rect x="1" y="1" width="335" height="249" rx="9" fill="none"/></g></g><text transform="translate(982 1823)" fill="#8f00fc " font-size="14" font-family="Ubuntu-Bold, Ubuntu" font-weight="700"><tspan x="0" y="0">Movimentações de estoque</tspan></text><g transform="translate(982 1916)" fill="#fff" stroke="#f1f1f1" stroke-width="1"><rect width="295" height="65" rx="5" stroke="none"/><rect x="0.5" y="0.5" width="294" height="64" rx="4.5" fill="none"/></g><g transform="translate(981 1836)" fill="#fff" stroke="#f1f1f1" stroke-width="1"><rect width="136" height="30" rx="10" stroke="none"/><rect x="0.5" y="0.5" width="135" height="29" rx="9.5" fill="none"/></g><g transform="translate(1140 1836)" fill="#fff" stroke="#f1f1f1" stroke-width="1"><rect width="137" height="30" rx="10" stroke="none"/><rect x="0.5" y="0.5" width="136" height="29" rx="9.5" fill="none"/></g><g transform="matrix(1, 0, 0, 1, 697.36, 1786.5)" filter="url(#c)"><rect width="295" height="30" rx="15" transform="translate(284.64 204.5)" fill="#8f00fc "/></g><text transform="translate(991 1857)" fill="#666" font-size="16" font-family="Ubuntu-Bold, Ubuntu" font-weight="700"><tspan x="0" y="0">Origem</tspan></text><text transform="translate(1051 2012)" fill="#fff" font-size="16" font-family="Ubuntu-Bold, Ubuntu" font-weight="700"><tspan x="0" y="0">Movimentar Estoque</tspan></text><text transform="translate(1150 1857)" fill="#666" font-size="16" font-family="Ubuntu-Bold, Ubuntu" font-weight="700"><tspan x="0" y="0">Destino</tspan></text><path d="M714.667,1529.333l3.533,7.78-3.533,7.781" transform="translate(412.4 314.306)" fill="none" stroke="#8f00fc " stroke-width="1"/><g transform="translate(981 1876)" fill="#fff" stroke="#f1f1f1" stroke-width="1"><rect width="163" height="30" rx="10" stroke="none"/><rect x="0.5" y="0.5" width="162" height="29" rx="9.5" fill="none"/></g><text transform="translate(991 1896)" fill="#8f00fc " font-size="14" font-family="Ubuntu-Bold, Ubuntu" font-weight="700"><tspan x="0" y="0">Localizar produtos</tspan></text><path d="M9.862,8.646,7.915,6.7a.468.468,0,0,0-.332-.137H7.265a4.06,4.06,0,1,0-.7.7v.318a.468.468,0,0,0,.137.332L8.646,9.862a.467.467,0,0,0,.662,0L9.86,9.31A.471.471,0,0,0,9.862,8.646Zm-5.8-2.084a2.5,2.5,0,1,1,2.5-2.5A2.5,2.5,0,0,1,4.062,6.562Z" transform="translate(1124 1887)" fill="#8f00fc "/><g transform="translate(1154 1876)" fill="#fff" stroke="#f1f1f1" stroke-width="1"><rect width="56" height="30" rx="10" stroke="none"/><rect x="0.5" y="0.5" width="55" height="29" rx="9.5" fill="none"/></g><text transform="translate(1164 1896)" fill="#8f00fc " font-size="14" font-family="Ubuntu-Bold, Ubuntu" font-weight="700"><tspan x="0" y="0">Qtd</tspan></text><g transform="translate(982 1916)" fill="#8f00fc " stroke="#f1f1f1" stroke-width="1"><path d="M5,0H290a5,5,0,0,1,5,5V22a0,0,0,0,1,0,0H0a0,0,0,0,1,0,0V5A5,5,0,0,1,5,0Z" stroke="none"/><path d="M5,.5H290A4.5,4.5,0,0,1,294.5,5V21a.5.5,0,0,1-.5.5H1A.5.5,0,0,1,.5,21V5A4.5,4.5,0,0,1,5,.5Z" fill="none"/></g><line x2="295" transform="translate(982.5 1959.5)" fill="none" stroke="#f1f1f1" stroke-width="1"/><text transform="translate(995 1931)" fill="#fff" font-size="10" font-family="Ubuntu-Light, Ubuntu" font-weight="300"><tspan x="0" y="0">Produtos a serem enviados</tspan></text><text transform="translate(1194 1931)" fill="#fff" font-size="10" font-family="Ubuntu-Light, Ubuntu" font-weight="300"><tspan x="0" y="0">Quantidade</tspan></text><text transform="translate(995 1952)" fill="#666" font-size="10" font-family="Ubuntu-Light, Ubuntu" font-weight="300"><tspan x="0" y="0">Produto Exemplo 1</tspan></text><text transform="translate(1194 1952)" fill="#666" font-size="10" font-family="Ubuntu-Light, Ubuntu" font-weight="300"><tspan x="0" y="0">10 unidades</tspan></text><text transform="translate(995 1973)" fill="#666" font-size="10" font-family="Ubuntu-Light, Ubuntu" font-weight="300"><tspan x="0" y="0">Produto Exemplo 1</tspan></text><text transform="translate(1194 1973)" fill="#666" font-size="10" font-family="Ubuntu-Light, Ubuntu" font-weight="300"><tspan x="0" y="0">5 unidades</tspan></text><rect width="57" height="30" rx="15" transform="translate(1220 1876)" fill="#8f00fc "/><text transform="translate(1235 1896)" fill="#fff" font-size="14" font-family="Ubuntu-Bold, Ubuntu" font-weight="700"><tspan x="0" y="0">Add</tspan></text></g></g></svg>