<svg xmlns="http://www.w3.org/2000/svg" xmlns:xlink="http://www.w3.org/1999/xlink" width="603.999" height="393.092" viewBox="0 0 603.999 393.092"><defs><filter id="a" x="0" y="0" width="346" height="298" filterUnits="userSpaceOnUse"><feOffset dx="1" dy="1" input="SourceAlpha"/><feGaussianBlur stdDeviation="1.5" result="b"/><feFlood flood-opacity="0.4"/><feComposite operator="in" in2="b"/><feComposite in="SourceGraphic"/></filter><filter id="c" x="13.5" y="236.5" width="318" height="48" filterUnits="userSpaceOnUse"><feOffset dy="3" input="SourceAlpha"/><feGaussianBlur stdDeviation="3" result="d"/><feFlood flood-opacity="0.161"/><feComposite operator="in" in2="d"/><feComposite in="SourceGraphic"/></filter><clipPath id="e"><path d="M242.79,222c.46,1.76.94,3.51,1.42,5.22,5,18,11.5,52.25,11.5,52.25,32,6.75,65.75,0,65.75,0,.18-7.46-.73-17.31-1.74-27.66,5.24-1.45,9-6.29,9.24-14.34.25-9.75-1.52-27.3-2.5-35.5-.87-7.21-.25-11.5-11.42-17-5.6-3.23-14.9-4.76-26.33-6.29-22.5-3-38.74,1.55-44.5,4-4.57-1.2-5.84,4.16-5.84,4.16-2.53-1.91-5.47,6.19-5.47,6.19-7.4,9.44-13.22,25.34-15.16,31a6.62,6.62,0,0,1-2.26,3.11c-5.25,4-2.33,8.95-2.33,8.95l10.75,3.29s5.21,1.36,9.19-5.49C236.41,228.17,241.85,218.46,242.79,222Z" fill="#8f00fc" stroke="#263238" stroke-linecap="round" stroke-linejoin="round" stroke-width="1"/></clipPath><clipPath id="f"><path d="M290.27,178.88c-.94-3.29-5.23-4.21-5.23-4.21-20.5-3.5-24.83,4-24.83,4a30.18,30.18,0,0,0,0,21s5.83-2.42,6.83,0,2.83,7.58,2.83,7.58A23.12,23.12,0,0,0,277,201c3.17-4.17,10.61,0,10.61,0C292.43,192.67,290.27,178.88,290.27,178.88Zm-5-.24c-7.94,24.92-14.94,26-14.94,26-2.33-9.16-4.33-7.16-7.5-12.89-2.54-4.6-1.68-10.42-1.24-12.55a1.75,1.75,0,0,1,.9-1.2c7.88-4,17.52-2.53,21.49-1.66a1.78,1.78,0,0,1,1.33,2.3Z" fill="#8f00fc" stroke="#263238" stroke-linecap="round" stroke-linejoin="round" stroke-width="1"/></clipPath><clipPath id="g"><rect width="29.43" height="14.86" transform="translate(393.95 276.12) rotate(180)" fill="#8f00fc" stroke="#263238" stroke-miterlimit="10" stroke-width="1"/></clipPath></defs><g transform="translate(-356.5 -2257.5)"><g transform="matrix(1, 0, 0, 1, 356.5, 2257.5)" filter="url(#a)"><g transform="translate(3.5 3.5)" fill="#fff"><path d="M 327 288 L 10 288 C 5.037374973297119 288 1 284.796630859375 1 280.859130859375 L 1 8.140832901000977 C 1 4.203374862670898 5.037374973297119 1 10 1 L 327 1 C 331.9626159667969 1 336 4.203374862670898 336 8.140832901000977 L 336 280.859130859375 C 336 284.796630859375 331.9626159667969 288 327 288 Z" stroke="none"/><path d="M 10 2 C 7.787506103515625 2 5.72467041015625 2.6873779296875 4.19158935546875 3.935394287109375 C 2.7783203125 5.085968017578125 2 6.5794677734375 2 8.14080810546875 L 2 280.859130859375 C 2 282.4205322265625 2.7783203125 283.9140319824219 4.19158935546875 285.0646057128906 C 5.72467041015625 286.3126220703125 7.787506103515625 287 10 287 L 327 287 C 329.2124938964844 287 331.2753295898438 286.3126220703125 332.8084106445312 285.0646057128906 C 334.2216796875 283.9140319824219 335 282.4205322265625 335 280.859130859375 L 335 8.14080810546875 C 335 6.5794677734375 334.2216796875 5.085968017578125 332.8084106445312 3.935394287109375 C 331.2753295898438 2.6873779296875 329.2124938964844 2 327 2 L 10 2 M 10 0 L 327 0 C 332.5228576660156 0 337 3.644775390625 337 8.14080810546875 L 337 280.859130859375 C 337 285.355224609375 332.5228576660156 289 327 289 L 10 289 C 4.477142333984375 289 0 285.355224609375 0 280.859130859375 L 0 8.14080810546875 C 0 3.644775390625 4.477142333984375 0 10 0 Z" stroke="none" fill="#0074ff"/></g></g><rect width="337" height="71" transform="translate(360 2419)" fill="#0074ff"/><text transform="translate(382 2294)" fill="#0074ff" font-size="14" font-family="Ubuntu-Bold, Ubuntu" font-weight="700"><tspan x="0" y="0">Ordem de Serviços</tspan></text><g transform="translate(379 2379)" fill="#fff" stroke="#f1f1f1" stroke-width="1"><rect width="145" height="30" rx="5" stroke="none"/><rect x="0.5" y="0.5" width="144" height="29" rx="4.5" fill="none"/></g><g transform="translate(379 2307)" fill="#fff" stroke="#f1f1f1" stroke-width="1"><rect width="145" height="30" rx="5" stroke="none"/><rect x="0.5" y="0.5" width="144" height="29" rx="4.5" fill="none"/></g><g transform="translate(534 2379)" fill="#fff" stroke="#f1f1f1" stroke-width="1"><rect width="145" height="30" rx="5" stroke="none"/><rect x="0.5" y="0.5" width="144" height="29" rx="4.5" fill="none"/></g><g transform="translate(534 2307)" fill="#fff" stroke="#f1f1f1" stroke-width="1"><rect width="145" height="30" rx="5" stroke="none"/><rect x="0.5" y="0.5" width="144" height="29" rx="4.5" fill="none"/></g><g transform="matrix(1, 0, 0, 1, 356.5, 2257.5)" filter="url(#c)"><rect width="300" height="30" rx="15" transform="translate(22.5 242.5)" fill="#00c853"/></g><text transform="translate(461 2519)" fill="#fff" font-size="12" font-family="Ubuntu-Bold, Ubuntu" font-weight="700"><tspan x="0" y="0">Gerar Ordem de Serviço</tspan></text><text transform="translate(389 2399)" fill="#666" font-size="12" font-family="Ubuntu-Bold, Ubuntu" font-weight="700"><tspan x="0" y="0">Responsável Técnico</tspan></text><text transform="translate(389 2327)" fill="#666" font-size="12" font-family="Ubuntu-Bold, Ubuntu" font-weight="700"><tspan x="0" y="0">Data Início</tspan></text><text transform="translate(544 2399)" fill="#666" font-size="12" font-family="Ubuntu-Bold, Ubuntu" font-weight="700"><tspan x="0" y="0">Dados do cliente</tspan></text><text transform="translate(544 2327)" fill="#666" font-size="12" font-family="Ubuntu-Bold, Ubuntu" font-weight="700"><tspan x="0" y="0">Nome do cliente</tspan></text><g transform="translate(379 2450)" fill="#fff" stroke="#f1f1f1" stroke-width="1"><rect width="233" height="30" rx="5" stroke="none"/><rect x="0.5" y="0.5" width="232" height="29" rx="4.5" fill="none"/></g><text transform="translate(389 2470)" fill="#0074ff" font-size="14" font-family="Ubuntu-Bold, Ubuntu" font-weight="700"><tspan x="0" y="0">Localizar serviços</tspan></text><path d="M9.862,8.646,7.915,6.7a.468.468,0,0,0-.332-.137H7.265a4.06,4.06,0,1,0-.7.7v.318a.468.468,0,0,0,.137.332L8.646,9.862a.467.467,0,0,0,.662,0L9.86,9.31A.471.471,0,0,0,9.862,8.646Zm-5.8-2.084a2.5,2.5,0,1,1,2.5-2.5A2.5,2.5,0,0,1,4.062,6.562Z" transform="translate(592.002 2460)" fill="#0074ff"/><rect width="57" height="30" rx="15" transform="translate(622 2450)" fill="#00c853"/><text transform="translate(639 2470)" fill="#fff" font-size="12" font-family="Ubuntu-Bold, Ubuntu" font-weight="700"><tspan x="0" y="0">Add</tspan></text><g transform="translate(379 2347)" fill="#0074ff" stroke="#f1f1f1" stroke-width="1"><rect width="300" height="22" rx="5" stroke="none"/><rect x="0.5" y="0.5" width="299" height="21" rx="4.5" fill="none"/></g><text transform="translate(392 2362)" fill="#fff" font-size="10" font-family="Ubuntu-Bold, Ubuntu" font-weight="700"><tspan x="0" y="0">Controle de Equipamentos</tspan></text><text transform="translate(379 2438)" fill="#fff" font-size="10" font-family="Ubuntu-Bold, Ubuntu" font-weight="700"><tspan x="0" y="0">Adicione produtos a Ordem de Serviço</tspan></text><path d="M8.02,4.291A3.729,3.729,0,1,1,4.291.563,3.728,3.728,0,0,1,8.02,4.291ZM3.63,2.547V4.291H2.564a.181.181,0,0,0-.128.308L4.163,6.318a.179.179,0,0,0,.254,0L6.145,4.6a.18.18,0,0,0-.128-.308H4.953V2.547a.181.181,0,0,0-.18-.18H3.81A.181.181,0,0,0,3.63,2.547Z" transform="translate(660.146 2353.438)" fill="#bdecc4"/><g transform="translate(503.22 2240.81)"><line x2="367.499" transform="translate(89.28 408.51)" fill="none" stroke="#263238" stroke-linecap="round" stroke-linejoin="round" stroke-width="1"/><g transform="translate(20.669)"><path d="M295.88,335.1c-9.23,0-35.87-6-35.87-6h71.74S305.1,335.1,295.88,335.1Z" fill="#263238" stroke="#263238" stroke-linecap="round" stroke-linejoin="round" stroke-width="1"/><rect width="16.44" height="11.27" transform="translate(287.66 332.09)" fill="#858585" stroke="#263238" stroke-linecap="round" stroke-linejoin="round" stroke-width="1"/><rect width="21.3" height="48.45" transform="translate(285.23 343.36)" fill="#999" stroke="#263238" stroke-linecap="round" stroke-linejoin="round" stroke-width="1"/><path d="M335.89,314.71H322c1.54-9.54,2.68-19.26,3.38-28.89h13.84C338.56,295.45,337.43,305.17,335.89,314.71Z" fill="#858585" stroke="#263238" stroke-linecap="round" stroke-linejoin="round" stroke-width="1"/><path d="M356.92,200.48H297.24c-7,0-11.61,5.93-10.25,12.91a453.666,453.666,0,0,1,6.82,64.54,11.15,11.15,0,0,0,11.25,11.2H355.3a13.1,13.1,0,0,0,12.83-11.2,448.822,448.822,0,0,0,2.62-64.54C370.42,206.41,363.93,200.48,356.92,200.48Z" fill="#858585" stroke="#263238" stroke-linecap="round" stroke-linejoin="round" stroke-width="1"/><path d="M360.17,213.39a448.821,448.821,0,0,1-2.62,64.54,13.1,13.1,0,0,1-12.83,11.2H305.06a11.15,11.15,0,0,1-11.25-11.2A453.667,453.667,0,0,0,287,213.39c-1.36-7,3.23-12.91,10.25-12.91h49.09C353.35,200.48,359.84,206.41,360.17,213.39Z" fill="#999" stroke="#263238" stroke-linecap="round" stroke-linejoin="round" stroke-width="1"/><path d="M331.75,400.51a1.78,1.78,0,0,1-2.16,1.74c-6.53-1.42-26.08-5.54-33.71-5.54s-27.19,4.12-33.72,5.54a1.77,1.77,0,0,1-2.15-1.74h0a4.67,4.67,0,0,1,3.69-4.57c7.64-1.64,25.07-5.21,32.18-5.21s24.54,3.57,32.18,5.21A4.68,4.68,0,0,1,331.75,400.51Z" fill="#263238" stroke="#263238" stroke-linecap="round" stroke-linejoin="round" stroke-width="1"/><path d="M260,396.91a6.14,6.14,0,1,0,6.13,6.13,6.14,6.14,0,0,0-6.13-6.13Zm0,9.46a3.33,3.33,0,1,1,3.32-3.33,3.33,3.33,0,0,1-3.32,3.33Z" fill="#858585" stroke="#263238" stroke-linecap="round" stroke-linejoin="round" stroke-width="1"/><path d="M295.88,396.91A6.14,6.14,0,1,0,302,403,6.14,6.14,0,0,0,295.88,396.91Zm0,9.46a3.33,3.33,0,1,1,2.362-.993A3.33,3.33,0,0,1,295.88,406.37Z" fill="#858585" stroke="#263238" stroke-linecap="round" stroke-linejoin="round" stroke-width="1"/><path d="M331,396.91a6.13,6.13,0,1,0,4.341,1.792A6.14,6.14,0,0,0,331,396.91Zm0,9.46a3.33,3.33,0,1,1,3.33-3.33A3.33,3.33,0,0,1,331,406.37Z" fill="#858585" stroke="#263238" stroke-linecap="round" stroke-linejoin="round" stroke-width="1"/><path d="M314.06,312.77a473.088,473.088,0,0,1-71.69-3.17,7.5,7.5,0,0,0-8.83,7.59v1.17a10.55,10.55,0,0,0,8.83,10.16,474.386,474.386,0,0,0,71.69,3.17Z" fill="#999" stroke="#263238" stroke-linecap="round" stroke-linejoin="round" stroke-width="1"/><path d="M351.66,328.21c-14.86,1.86-29.59,3.09-44.55,3.73a6.41,6.41,0,0,1-6.61-6.45v-5.75a6.78,6.78,0,0,1,6.61-6.71c15-.65,29.69-1.88,44.55-3.74a5.54,5.54,0,0,1,6.56,5.61v5.75a7.88,7.88,0,0,1-6.56,7.56Z" fill="#858585" stroke="#263238" stroke-linecap="round" stroke-linejoin="round" stroke-width="1"/><path d="M252.17,406c0-3.34-.73-10-4.67-18.65l-5.13-18.5-16,6.83,4.5,14.17s-13.75,6.56-18.83,8.33c-3.38,1.18-13.5,3.5-13,7.84h0a2.33,2.33,0,0,0,2.33,2.33h48.46a2.33,2.33,0,0,0,2.34-2.35Z" fill="#fff" stroke="#263238" stroke-linecap="round" stroke-linejoin="round" stroke-width="1"/><path d="M243.36,395.17c-2.5,1.84-15.83,4.17-12.49,1.5s0-6.83,0-6.83-13.75,6.56-18.83,8.33c-3.38,1.18-13.5,3.5-13,7.84a2.33,2.33,0,0,0,2.33,2.33h48.46a2.32,2.32,0,0,0,2.33-2.35,44.13,44.13,0,0,0-3.06-14.78C246.35,391.24,245.86,393.34,243.36,395.17Z" fill="#8f00fc" stroke="#263238" stroke-linecap="round" stroke-linejoin="round" stroke-width="1"/><path d="M263.74,408.34h35.5a1.53,1.53,0,0,0,1.5-1.24c.54-2.82.42-9.13-2.78-17.51l-.32-17-18.18,3.09,2.3,14.5s-7.32,8.06-10.8,9.5c-2.44,1-8,1.12-8.74,7a1.52,1.52,0,0,0,1.52,1.66Z" fill="#fff" stroke="#263238" stroke-linecap="round" stroke-linejoin="round" stroke-width="1"/><path d="M292,395.24c-3.75,2.62-6.52,2.93-4.77-1s-5.43-4.07-5.43-4.07-7.32,8.06-10.8,9.5c-2.44,1-8,1.12-8.74,7a1.52,1.52,0,0,0,1.52,1.7h35.5a1.53,1.53,0,0,0,1.5-1.24c.54-2.82.42-9.13-2.78-17.51C295.22,390.26,295.72,392.61,292,395.24Z" fill="#8f00fc" stroke="#263238" stroke-linecap="round" stroke-linejoin="round" stroke-width="1"/><path d="M260.21,278.51s-3.58,3.66-18.21,6-45,9.66-44.63,21.66,28.34,76,28.34,76,14-2.66,20.5-6.66c0,0-11.27-45.67-19.72-57.67,0,0,37.93-4.67,58.91-13.33s8.64-28.4,8.64-28.4Z" fill="#263238" stroke="#263238" stroke-linecap="round" stroke-linejoin="round" stroke-width="1"/><path d="M284,276.82s5.38,9,1.36,14-26.85,14.33-24.27,25.67,11.1,27.33,16.65,65.33c0,0,12.93-2,21.59-5.67,0,0,1.44-38.66-8.61-55.33,0,0,28.78-5.33,31.7-15s-2.54-24.45-2.65-29.73Z" fill="#263238" stroke="#263238" stroke-linecap="round" stroke-linejoin="round" stroke-width="1"/><path d="M266.7,291.14a13.323,13.323,0,0,0-2,0" fill="none" stroke="#7f7f7f" stroke-linecap="round" stroke-linejoin="round" stroke-width="0.75"/><path d="M268,285.17s5.91,1.74,8.23,9.45a.62.62,0,0,1-1,.62,14.26,14.26,0,0,0-5.69-3.58" fill="none" stroke="#7f7f7f" stroke-linecap="round" stroke-linejoin="round" stroke-width="0.75"/><path d="M223.71,317.42c0-3.25-14-5-10.25-8s12.25,6.75,12.25,6.75" fill="none" stroke="#7f7f7f" stroke-linecap="round" stroke-linejoin="round" stroke-width="0.75"/><path d="M292.5,330.42c0-3.72-13.38-5.75-12.71-9.75s9.17,3.88,9.17,3.88" fill="none" stroke="#7f7f7f" stroke-linecap="round" stroke-linejoin="round" stroke-width="0.75"/><path d="M224.23,382.4l1.47,3.4a.88.88,0,0,0,1,.51c3.23-.73,16.71-3.91,21.44-7.31a.85.85,0,0,0,.32-.9l-.92-3.79a.87.87,0,0,0-1.27-.56c-2.13,1.16-8.06,3.93-21.45,7.45a.89.89,0,0,0-.59,1.2Z" fill="#999" stroke="#263238" stroke-linecap="round" stroke-linejoin="round" stroke-width="1"/><path d="M276.15,379.6a.69.69,0,0,1,.91-.75,8.79,8.79,0,0,0,5,.07c3.71-.84,14.32-4.2,17.48-5.21a.69.69,0,0,1,.9.66v4.42a.68.68,0,0,1-.41.63c-2.48,1.11-15.77,6.8-22.72,5.25a.68.68,0,0,1-.52-.58Z" fill="#999" stroke="#263238" stroke-linecap="round" stroke-linejoin="round" stroke-width="1"/><path d="M286.85,287a7,7,0,0,1-1.45,3.8c-2.94,3.65-15.87,9.6-21.66,17" fill="none" stroke="#7f7f7f" stroke-linecap="round" stroke-linejoin="round" stroke-width="1"/><path d="M286.22,282a16,16,0,0,1,.51,2.25" fill="none" stroke="#7f7f7f" stroke-linecap="round" stroke-linejoin="round" stroke-width="1"/><path d="M209.64,400.42a17.08,17.08,0,0,1,1.75,4.75H247.5a6.38,6.38,0,0,1,2-4.12" fill="none" stroke="#263238" stroke-linecap="round" stroke-linejoin="round" stroke-width="1"/><path d="M272.39,400.42s5,.38,6.87,4.75h18.88a12.279,12.279,0,0,0,1-4.12" fill="none" stroke="#263238" stroke-linecap="round" stroke-linejoin="round" stroke-width="1"/><path d="M242.79,222c.46,1.76.94,3.51,1.42,5.22,5,18,11.5,52.25,11.5,52.25,32,6.75,65.75,0,65.75,0,.18-7.46-.73-17.31-1.74-27.66,5.24-1.45,9-6.29,9.24-14.34.25-9.75-1.52-27.3-2.5-35.5-.87-7.21-.25-11.5-11.42-17-5.6-3.23-14.9-4.76-26.33-6.29-22.5-3-38.74,1.55-44.5,4-4.57-1.2-5.84,4.16-5.84,4.16-2.53-1.91-5.47,6.19-5.47,6.19-7.4,9.44-13.22,25.34-15.16,31a6.62,6.62,0,0,1-2.26,3.11c-5.25,4-2.33,8.95-2.33,8.95l10.75,3.29s5.21,1.36,9.19-5.49C236.41,228.17,241.85,218.46,242.79,222Z" fill="#8f00fc"/><g clip-path="url(#e)"><path d="M225.88,234.87s-.25-5-4.25-5.87,1.12-2.37,4.25-1.62,2.4-2,5.08-6.5,4-8.06,6.26-5.47,4.61,3,5.57,6.54-3.79,12-3.79,12l-7.46,5.79-3.79,2.12H222.1l-1.94-4.89Z" opacity="0.3"/></g><path d="M242.79,222c.46,1.76.94,3.51,1.42,5.22,5,18,11.5,52.25,11.5,52.25,32,6.75,65.75,0,65.75,0,.18-7.46-.73-17.31-1.74-27.66,5.24-1.45,9-6.29,9.24-14.34.25-9.75-1.52-27.3-2.5-35.5-.87-7.21-.25-11.5-11.42-17-5.6-3.23-14.9-4.76-26.33-6.29-22.5-3-38.74,1.55-44.5,4-4.57-1.2-5.84,4.16-5.84,4.16-2.53-1.91-5.47,6.19-5.47,6.19-7.4,9.44-13.22,25.34-15.16,31a6.62,6.62,0,0,1-2.26,3.11c-5.25,4-2.33,8.95-2.33,8.95l10.75,3.29s5.21,1.36,9.19-5.49C236.41,228.17,241.85,218.46,242.79,222Z" fill="none" stroke="#263238" stroke-linecap="round" stroke-linejoin="round" stroke-width="1"/><path d="M321.46,279.42a180.781,180.781,0,0,0-.95-19.24c1.09,15.23-30.62,20-31.62,11.74s30.83-20.16,13.51-16c-15.11,3.63-44.4.16-51.6-.78,2.77,13,4.91,24.28,4.91,24.28C287.71,286.17,321.46,279.42,321.46,279.42Z" opacity="0.3"/><path d="M306.92,202.92s-4.53,13.25-4.52,20.25-12.69,11.7-12.72,11.7c6.81-1.38,13.43-3.21,16.59-4.13a2.43,2.43,0,0,0,1.76-2.55,243.843,243.843,0,0,1-1.11-25.27Z" opacity="0.3"/><path d="M238.6,199.59a53.94,53.94,0,0,0,3.33,18.29.86.86,0,0,1-1.3,1c-1.72-1.23-4.15-3.73-6.34-8.77" fill="none" stroke="#263238" stroke-linecap="round" stroke-linejoin="round" stroke-width="0.75"/><path d="M323.46,240.42c-2.64-8.75-7.21-10.94-10.75-11.16a.56.56,0,0,1-.26-1c2.06-1.11,6.07-2,11,3.46" fill="none" stroke="#263238" stroke-linecap="round" stroke-linejoin="round" stroke-width="0.75"/><path d="M272.73,215.38a1.51,1.51,0,1,1-.7-1.451,1.51,1.51,0,0,1,.7,1.451Z" fill="#999" stroke="#263238" stroke-linecap="round" stroke-linejoin="round" stroke-width="0.75"/><path d="M274.76,232.4a1.5,1.5,0,1,1-1.5-1.5A1.5,1.5,0,0,1,274.76,232.4Z" fill="#999" stroke="#263238" stroke-linecap="round" stroke-linejoin="round" stroke-width="0.75"/><path d="M279.79,273.42a1.51,1.51,0,1,1-1.51-1.5,1.51,1.51,0,0,1,1.51,1.5Z" fill="#999" stroke="#263238" stroke-linecap="round" stroke-linejoin="round" stroke-width="1"/><path d="M251.07,243.55s-4.91,4.68-2.57,4.76,5.29-3.14,8-3.51-1.67-2-1.67-2Z" fill="#fff" stroke="#263238" stroke-linecap="round" stroke-linejoin="round" stroke-width="1"/><path d="M279.74,238.28a2.15,2.15,0,0,0-1.63-.54c-2.4.2-9.3.72-11.9.56-4.62-.29-18.23-3.17-18.23-3.17a2.14,2.14,0,0,0-.94.05l-8.43,2.48a2,2,0,0,0-.82.47l-5.1,4.68a2.18,2.18,0,0,0-.42.54l-1.06,1.94a2.08,2.08,0,0,0,.37,2.49h0L240,248a2,2,0,0,0,1.42-.5l2.5-2.14a2.28,2.28,0,0,0,.43-.5c.61-1,3-4.3,6.7-4,0,0-8,4.25-6.49,6s7.63-3.25,9.63-2.75,2.13,5.41,13,3.63a3.42,3.42,0,0,1,1.46.07l9.9,2.77a2.29,2.29,0,0,0,2.83-1.64C282.15,246.1,282.83,241.1,279.74,238.28Z" fill="#fff" stroke="#263238" stroke-linecap="round" stroke-linejoin="round" stroke-width="1"/><path d="M249.16,236.92l-2.12.36a5.7,5.7,0,0,0-2.79,1.32L242,240.53a5.9,5.9,0,0,0-1,1.17l-1.45,2.21a5.245,5.245,0,0,1-.53.69c-.86,1-3.23,3.77-.67,3.39" fill="#fff" stroke="#263238" stroke-linecap="round" stroke-linejoin="round" stroke-width="1"/><path d="M243.19,237.67l-2.19.6a4,4,0,0,0-1.82,1l-1.71,1.64a3,3,0,0,0-.45.5l-2.81,3.73s-1.5,2.64,0,2.69" fill="#fff" stroke="#263238" stroke-linecap="round" stroke-linejoin="round" stroke-width="1"/><path d="M307,200.8a229.575,229.575,0,0,0,1,27.39,2.43,2.43,0,0,1-1.76,2.55A187.387,187.387,0,0,1,282,236.19" fill="none" stroke="#263238" stroke-linecap="round" stroke-linejoin="round" stroke-width="1"/><path d="M307.48,194.6c-.13,1-.24,2.09-.32,3.2" fill="none" stroke="#263238" stroke-linecap="round" stroke-linejoin="round" stroke-width="0.75"/><path d="M310.83,185.24a10.159,10.159,0,0,0-2.59,5.21" fill="none" stroke="#263238" stroke-linecap="round" stroke-linejoin="round" stroke-width="0.75"/><path d="M260.76,179.3s.63-2,4-3.13,15.06-2.92,21.07,0-5.5,18.81-5.5,18.81L275,202.36l-4.75,3.56-2.12-6.33-2.75-2.86s-5.94-4.87-5.44-9.68S260.76,179.3,260.76,179.3Z" fill="#fff"/><path d="M290.27,178.88c-.94-3.29-5.23-4.21-5.23-4.21-20.5-3.5-24.83,4-24.83,4a30.18,30.18,0,0,0,0,21s5.83-2.42,6.83,0,2.83,7.58,2.83,7.58A23.12,23.12,0,0,0,277,201c3.17-4.17,10.61,0,10.61,0C292.43,192.67,290.27,178.88,290.27,178.88Zm-5-.24c-7.94,24.92-14.94,26-14.94,26-2.33-9.16-4.33-7.16-7.5-12.89-2.54-4.6-1.68-10.42-1.24-12.55a1.75,1.75,0,0,1,.9-1.2c7.88-4,17.52-2.53,21.49-1.66a1.78,1.78,0,0,1,1.33,2.3Z" fill="#8f00fc"/><g clip-path="url(#f)"><path d="M290.27,178.88c-.94-3.29-5.23-4.21-5.23-4.21-20.5-3.5-24.83,4-24.83,4a30.18,30.18,0,0,0,0,21s5.83-2.42,6.83,0,2.83,7.58,2.83,7.58A23.12,23.12,0,0,0,277,201c3.17-4.17,10.61,0,10.61,0C292.43,192.67,290.27,178.88,290.27,178.88Zm-5-.24c-7.94,24.92-14.94,26-14.94,26-2.33-9.16-4.33-7.16-7.5-12.89-2.54-4.6-1.68-10.42-1.24-12.55a1.75,1.75,0,0,1,.9-1.2c7.88-4,17.52-2.53,21.49-1.66a1.78,1.78,0,0,1,1.33,2.3Z" fill="#fff" opacity="0.4"/></g><path d="M290.27,178.88c-.94-3.29-5.23-4.21-5.23-4.21-20.5-3.5-24.83,4-24.83,4a30.18,30.18,0,0,0,0,21s5.83-2.42,6.83,0,2.83,7.58,2.83,7.58A23.12,23.12,0,0,0,277,201c3.17-4.17,10.61,0,10.61,0C292.43,192.67,290.27,178.88,290.27,178.88Zm-5-.24c-7.94,24.92-14.94,26-14.94,26-2.33-9.16-4.33-7.16-7.5-12.89-2.54-4.6-1.68-10.42-1.24-12.55a1.75,1.75,0,0,1,.9-1.2c7.88-4,17.52-2.53,21.49-1.66a1.78,1.78,0,0,1,1.33,2.3Z" fill="none" stroke="#263238" stroke-linecap="round" stroke-linejoin="round" stroke-width="1"/><path d="M256.8,140.8s-17.67,3.54-7.94,15C259.65,168.57,256.8,140.8,256.8,140.8Z" fill="#263238" stroke="#263238" stroke-linecap="round" stroke-linejoin="round" stroke-width="1"/><path d="M249.83,168.84s-4.2-17,3.8-25.17,16.67-9.83,23.17-5.83,9.2,14,8.2,19.16-.52,23.66-9.43,31.33-14.39,5.78-20.28-4.67C251.38,176.81,249.53,174.84,249.83,168.84Z" fill="#fff" stroke="#263238" stroke-linecap="round" stroke-linejoin="round" stroke-width="1"/><path d="M280.8,165.51s-6.72-6.67-8.78-14.5-3.22-9.17-10.89-5.34-19.63-1.32-16.5-11c3.29-10.16,13.34,3,23-.33s16.53,2.67,16.54,11.5c0,0,5.84,5.67,0,20.33Z" fill="#263238" stroke="#263238" stroke-linecap="round" stroke-linejoin="round" stroke-width="1"/><path d="M278.69,164.39s1.7-9.32,6.42-8.46,1.35,14.62-4.21,13.12" fill="#fff" stroke="#263238" stroke-linecap="round" stroke-linejoin="round" stroke-width="1"/><path d="M256.22,167.55s-1.86,8.65-1.25,10.13,6.32.35,6.32.35" fill="#fff" stroke="#263238" stroke-linecap="round" stroke-linejoin="round" stroke-width="1"/><path d="M262.09,181.8s4.48,1.77,8.43-4.12" fill="#fff" stroke="#263238" stroke-linecap="round" stroke-linejoin="round" stroke-width="1"/><path d="M253.15,168.27c.16.8-.05,1.53-.47,1.62s-.91-.49-1.08-1.3,0-1.53.47-1.62S253,167.46,253.15,168.27Z" fill="#263238"/><path d="M264.11,167.39c.17.8,0,1.53-.47,1.62s-.9-.5-1.07-1.3,0-1.53.47-1.62S264,166.58,264.11,167.39Z" fill="#263238"/><path d="M255.45,167.89c.23,2.27-2,4.35-5.08,4.65s-5.68-1.28-5.91-3.55,2.16-3.26,5.2-3.57S255.23,165.63,255.45,167.89Z" fill="none" stroke="#263238" stroke-linecap="round" stroke-linejoin="round" stroke-width="1"/><path d="M269.6,166.48c.23,2.26-2.05,4.35-5.08,4.65s-5.68-1.29-5.91-3.55,2.16-3.27,5.2-3.57S269.38,164.21,269.6,166.48Z" fill="none" stroke="#263238" stroke-linecap="round" stroke-linejoin="round" stroke-width="1"/><line y1="0.31" x2="3.16" transform="translate(255.45 167.58)" fill="#fff" stroke="#263238" stroke-linecap="round" stroke-linejoin="round" stroke-width="1"/><line y1="6.85" x2="11.62" transform="translate(269.22 158.49)" fill="#fff" stroke="#263238" stroke-linecap="round" stroke-linejoin="round" stroke-width="1"/><line x2="0.55" y2="1.33" transform="translate(282.83 176.01)" fill="#fff" stroke="#263238" stroke-linecap="round" stroke-linejoin="round" stroke-width="1"/><path d="M248.9,164.24s1.77-2.25,3.94-1.17" fill="#fff" stroke="#263238" stroke-linecap="round" stroke-linejoin="round" stroke-width="1"/><path d="M267,163.23s-3.11-3-6.11-.88" fill="#fff" stroke="#263238" stroke-linecap="round" stroke-linejoin="round" stroke-width="1"/><path d="M252.83,135.8c4.73,1.5,12.69,3.34,19.19,1.37,10-3,6.57,8.2,8.82,11.29" fill="none" stroke="#7f7f7f" stroke-linecap="round" stroke-linejoin="round" stroke-width="1"/><path d="M248.73,134.3s.79.35,2.14.83" fill="none" stroke="#7f7f7f" stroke-linecap="round" stroke-linejoin="round" stroke-width="1"/><path d="M260.68,141.37c.53-.16,1.08-.35,1.66-.57" fill="none" stroke="#7f7f7f" stroke-linecap="round" stroke-linejoin="round" stroke-width="1"/><path d="M249.83,140.05s2.12,3.27,8.94,1.82" fill="none" stroke="#7f7f7f" stroke-linecap="round" stroke-linejoin="round" stroke-width="1"/><path d="M275.23,146.46a24.12,24.12,0,0,0,4.24,10.71" fill="none" stroke="#7f7f7f" stroke-linecap="round" stroke-linejoin="round" stroke-width="1"/><path d="M275,142.92a15.915,15.915,0,0,0,.06,1.79" fill="none" stroke="#7f7f7f" stroke-linecap="round" stroke-linejoin="round" stroke-width="1"/><path d="M283.86,250.2a1.16,1.16,0,0,0,.74,2.05c6.76,0,25,.08,32-.33,8.75-.5,2.07-10-5-6.38C305.19,248.89,291.55,243.31,283.86,250.2Z" opacity="0.3"/><path d="M207.71,240.82s4.09-10.89,14.35-9.16,2.42,10.32-2.52,11.08C219.54,242.74,218.79,239.75,207.71,240.82Z" fill="#fff" stroke="#263238" stroke-linecap="round" stroke-linejoin="round" stroke-width="1"/><path d="M199,247c-1.35,1.35-4.6,1.47-2.41-1.46a15.49,15.49,0,0,1,7-5.17c4.86-2.17,6.76-1.73,11.16-2.7s5.23.83,6.75,1.66c3.63,2,4.5,2.34,5.42,4.34s1.92,4.6-.92,4.6c-2.58,0-2.75-4.27-5.25-4.1s-3.75,4.1-5.5,4.1h-.66c-1.5,0-1.58-1.25-.67-3.21s1.92-3.73,1.92-3.73a7.67,7.67,0,0,0-3.38,3.55c-1.2,2.55-1.42,3.62-3.63,3.62s-2-1.64.14-5.26a8.54,8.54,0,0,0-3.05,3.13c-1.08,2-1.65,1.9-3.06,1.9-1.86,0-1.73-3.06,1.56-5.06C204.44,243.21,203.71,242.31,199,247Z" fill="#fff" stroke="#263238" stroke-linecap="round" stroke-linejoin="round" stroke-width="1"/><path d="M211.88,239.69s-1.29-.06-2.11,2.12" fill="#fff" stroke="#263238" stroke-linecap="round" stroke-linejoin="round" stroke-width="0.75"/></g><g transform="translate(20.669)"><path d="M141.23,408.51h-3.71l-1-147.26h4.71Z" fill="#858585" stroke="#263238" stroke-linecap="round" stroke-linejoin="round" stroke-width="1"/><path d="M144.93,408.51h-3.7V261.25h4.7Z" fill="#999" stroke="#263238" stroke-linecap="round" stroke-linejoin="round" stroke-width="1"/><rect width="254.21" height="9.02" transform="translate(98.78 252.24)" fill="#263238" stroke="#263238" stroke-linecap="round" stroke-linejoin="round" stroke-width="1"/><rect width="56.92" height="9.02" transform="translate(349.19 252.24)" fill="#858585" stroke="#263238" stroke-linecap="round" stroke-linejoin="round" stroke-width="1"/><rect width="252.72" height="14.86" transform="translate(111.8 261.25)" fill="#8f00fc" stroke="#263238" stroke-miterlimit="10" stroke-width="1"/><rect width="29.43" height="14.86" transform="translate(393.95 276.12) rotate(180)" fill="#8f00fc"/><g clip-path="url(#g)"><rect width="29.43" height="14.86" transform="translate(393.95 276.12) rotate(180)" opacity="0.3"/></g><rect width="29.43" height="14.86" transform="translate(393.95 276.12) rotate(180)" fill="none" stroke="#263238" stroke-miterlimit="10" stroke-width="1"/><path d="M364.52,408.51h-3.7l-1-147.26h4.7Z" fill="#858585" stroke="#263238" stroke-linecap="round" stroke-linejoin="round" stroke-width="1"/><path d="M368.23,408.51h-3.71V261.25h4.71Z" fill="#999" stroke="#263238" stroke-linecap="round" stroke-linejoin="round" stroke-width="1"/><path d="M111.8,408.51h-3.71l-1-147.26h4.71Z" fill="#858585" stroke="#263238" stroke-linecap="round" stroke-linejoin="round" stroke-width="1"/><path d="M115.5,408.51h-3.7V261.25h4.7Z" fill="#999" stroke="#263238" stroke-linecap="round" stroke-linejoin="round" stroke-width="1"/><path d="M393.95,408.51h-3.71l-1-147.26h4.71Z" fill="#858585" stroke="#263238" stroke-linecap="round" stroke-linejoin="round" stroke-width="1"/><path d="M397.65,408.51h-3.7V261.25h4.7Z" fill="#999" stroke="#263238" stroke-linecap="round" stroke-linejoin="round" stroke-width="1"/><path d="M263.05,251.24H233.26a1.11,1.11,0,0,1-1.1-1.11v-2.46l32,1v1.46A1.11,1.11,0,0,1,263.05,251.24Z" fill="#858585" stroke="#263238" stroke-linecap="round" stroke-linejoin="round" stroke-width="1"/><path d="M228.83,251.24H168.94a2.39,2.39,0,0,1-2.19-1.67l-12.86-41.74a1.58,1.58,0,0,1,1.52-2.16H215.3a2.38,2.38,0,0,1,2.19,1.66l12.86,41.74a1.59,1.59,0,0,1-1.52,2.17Z" fill="#999" stroke="#263238" stroke-linecap="round" stroke-linejoin="round" stroke-width="1"/><path d="M233,249.07l-12.86-41.74a2.38,2.38,0,0,0-2.19-1.66H215.3a2.38,2.38,0,0,1,2.19,1.66l12.86,41.74a1.59,1.59,0,0,1-1.52,2.17h2.69a1.59,1.59,0,0,0,1.48-2.17Z" fill="#858585" stroke="#263238" stroke-linecap="round" stroke-linejoin="round" stroke-width="1"/><path d="M195.83,228.45a3.21,3.21,0,0,1-3.25,3.71,4.31,4.31,0,0,1-4.16-3.71,3.2,3.2,0,0,1,3.25-3.7,4.32,4.32,0,0,1,4.16,3.7Z" fill="#fff" stroke="#263238" stroke-linecap="round" stroke-linejoin="round" stroke-width="1"/></g></g></g></svg>