<svg xmlns="http://www.w3.org/2000/svg" xmlns:xlink="http://www.w3.org/1999/xlink" width="250.5" height="227.002" viewBox="0 0 250.5 227.002">   <defs>     <clipPath id="clip-path">       <path id="Caminho_25614" data-name="Caminho 25614" d="M237.047,213.642c.373,1.428.763,2.848,1.152,4.235,4.057,14.6,9.331,42.395,9.331,42.395,25.964,5.477,53.348,0,53.348,0,.146-6.053-.592-14.045-1.412-22.443,4.252-1.177,7.3-5.1,7.5-11.635.2-7.911-1.233-22.151-2.028-28.8-.706-5.85-.2-9.331-9.266-13.793-4.544-2.621-12.09-3.862-21.364-5.1-18.256-2.434-31.433,1.258-36.107,3.246-3.708-.974-4.738,3.375-4.738,3.375-2.053-1.55-4.438,5.022-4.438,5.022-6,7.659-10.726,20.56-12.3,25.153a5.372,5.372,0,0,1-1.834,2.523c-4.26,3.246-1.891,7.262-1.891,7.262l8.722,2.669s4.227,1.1,7.457-4.454C231.87,218.649,236.284,210.77,237.047,213.642Z" transform="translate(-212.34 -177.691)" fill="#8f00fc" stroke="#263238" stroke-linecap="round" stroke-linejoin="round" stroke-width="1"></path>     </clipPath>     <clipPath id="clip-path-2">       <path id="Caminho_25633" data-name="Caminho 25633" d="M284.245,177.91c-.763-2.669-4.244-3.416-4.244-3.416-16.633-2.84-20.147,3.246-20.147,3.246a24.487,24.487,0,0,0,0,17.039s4.73-1.964,5.542,0,2.3,6.15,2.3,6.15a18.759,18.759,0,0,0,5.785-5.071c2.572-3.383,8.609,0,8.609,0C286,189.1,284.245,177.91,284.245,177.91Zm-4.057-.195c-6.442,20.22-12.122,21.1-12.122,21.1-1.891-7.432-3.513-5.81-6.085-10.459-2.061-3.732-1.363-8.455-1.006-10.183a1.42,1.42,0,0,1,.73-.974c6.394-3.246,14.215-2.053,17.437-1.347a1.444,1.444,0,0,1,1.079,1.866Z" transform="translate(-258.325 -173.739)" fill="#8f00fc" stroke="#263238" stroke-linecap="round" stroke-linejoin="round" stroke-width="1"></path>     </clipPath>     <clipPath id="clip-path-3">       <rect id="Retângulo_4841" data-name="Retângulo 4841" width="23.879" height="12.057" transform="translate(23.879 12.057) rotate(180)" fill="#8f00fc" stroke="#263238" stroke-miterlimit="10" stroke-width="1"></rect>     </clipPath>   </defs>   <g id="Programmer-bro" transform="translate(-118.949 -130.245)">     <g id="freepik--Floor--inject-181" transform="translate(119.449 356.118)">       <line id="Linha_772" data-name="Linha 772" x2="249.5" fill="none" stroke="#263238" stroke-linecap="round" stroke-linejoin="round" stroke-width="1"></line>     </g>     <g id="freepik--Character--inject-181" transform="translate(198.211 130.743)">       <path id="Caminho_25586" data-name="Caminho 25586" d="M289.114,333.968c-7.489,0-29.1-4.868-29.1-4.868h58.209S296.6,333.968,289.114,333.968Z" transform="translate(-207.953 -168.157)" fill="#263238" stroke="#263238" stroke-linecap="round" stroke-linejoin="round" stroke-width="1"></path>       <rect id="Retângulo_4834" data-name="Retângulo 4834" width="13.339" height="9.144" transform="translate(74.492 163.369)" fill="#858585" stroke="#263238" stroke-linecap="round" stroke-linejoin="round" stroke-width="1"></rect>       <rect id="Retângulo_4835" data-name="Retângulo 4835" width="17.282" height="39.311" transform="translate(72.52 172.513)" fill="#999" stroke="#263238" stroke-linecap="round" stroke-linejoin="round" stroke-width="1"></rect>       <path id="Caminho_25587" data-name="Caminho 25587" d="M333.27,309.261H322c1.25-7.741,2.174-15.627,2.742-23.441h11.23C335.436,293.634,334.52,301.52,333.27,309.261Z" transform="translate(-219.646 -159.994)" fill="#858585" stroke="#263238" stroke-linecap="round" stroke-linejoin="round" stroke-width="1"></path>       <path id="Caminho_25588" data-name="Caminho 25588" d="M343.685,200.48H295.262c-5.68,0-9.42,4.811-8.317,10.475a368.1,368.1,0,0,1,5.534,52.367,9.047,9.047,0,0,0,9.128,9.087h40.764a10.629,10.629,0,0,0,10.41-9.087,364.162,364.162,0,0,0,2.126-52.367C354.639,205.292,349.373,200.48,343.685,200.48Z" transform="translate(-212.997 -143.897)" fill="#858585" stroke="#263238" stroke-linecap="round" stroke-linejoin="round" stroke-width="1"></path>       <path id="Caminho_25589" data-name="Caminho 25589" d="M346.324,210.955a364.171,364.171,0,0,1-2.126,52.367,10.629,10.629,0,0,1-10.41,9.087H301.609a9.047,9.047,0,0,1-9.128-9.087,368.1,368.1,0,0,0-5.526-52.367c-1.1-5.68,2.621-10.475,8.317-10.475H335.1C340.79,200.48,346.056,205.292,346.324,210.955Z" transform="translate(-212.999 -143.897)" fill="#999" stroke="#263238" stroke-linecap="round" stroke-linejoin="round" stroke-width="1"></path>       <path id="Caminho_25590" data-name="Caminho 25590" d="M318.219,398.665a1.444,1.444,0,0,1-1.753,1.412c-5.3-1.152-21.161-4.5-27.352-4.5s-22.061,3.343-27.36,4.5a1.436,1.436,0,0,1-1.744-1.412h0A3.789,3.789,0,0,1,263,394.957c6.2-1.331,20.341-4.227,26.11-4.227s19.911,2.9,26.11,4.227A3.8,3.8,0,0,1,318.219,398.665Z" transform="translate(-207.953 -179.782)" fill="#263238" stroke="#263238" stroke-linecap="round" stroke-linejoin="round" stroke-width="1"></path>       <path id="Caminho_25591" data-name="Caminho 25591" d="M258.84,396.91a4.982,4.982,0,1,0,4.974,4.974,4.982,4.982,0,0,0-4.974-4.974Zm0,7.676a2.7,2.7,0,1,1,2.694-2.7,2.7,2.7,0,0,1-2.694,2.7Z" transform="translate(-206.791 -180.947)" fill="#858585" stroke="#263238" stroke-linecap="round" stroke-linejoin="round" stroke-width="1"></path>       <path id="Caminho_25592" data-name="Caminho 25592" d="M294.718,396.91a4.982,4.982,0,1,0,4.966,4.941A4.982,4.982,0,0,0,294.718,396.91Zm0,7.676a2.7,2.7,0,1,1,1.917-.806A2.7,2.7,0,0,1,294.718,404.586Z" transform="translate(-213.557 -180.947)" fill="#858585" stroke="#263238" stroke-linecap="round" stroke-linejoin="round" stroke-width="1"></path>       <path id="Caminho_25593" data-name="Caminho 25593" d="M329.842,396.91a4.974,4.974,0,1,0,3.522,1.454,4.982,4.982,0,0,0-3.522-1.454Zm0,7.676a2.7,2.7,0,1,1,2.7-2.7A2.7,2.7,0,0,1,329.842,404.586Z" transform="translate(-220.185 -180.947)" fill="#858585" stroke="#263238" stroke-linecap="round" stroke-linejoin="round" stroke-width="1"></path>       <path id="Caminho_25594" data-name="Caminho 25594" d="M298.872,312.15a383.862,383.862,0,0,1-58.168-2.572,6.085,6.085,0,0,0-7.165,6.158v.949a8.56,8.56,0,0,0,7.164,8.244,384.909,384.909,0,0,0,58.168,2.572Z" transform="translate(-202.96 -164.456)" fill="#999" stroke="#263238" stroke-linecap="round" stroke-linejoin="round" stroke-width="1"></path>       <path id="Caminho_25595" data-name="Caminho 25595" d="M342.01,324.623c-12.057,1.509-24.009,2.507-36.147,3.026a5.2,5.2,0,0,1-5.363-5.233v-4.665a5.5,5.5,0,0,1,5.363-5.444c12.171-.527,24.09-1.525,36.147-3.035a4.5,4.5,0,0,1,5.323,4.552v4.665a6.394,6.394,0,0,1-5.323,6.134Z" transform="translate(-215.59 -164.403)" fill="#858585" stroke="#263238" stroke-linecap="round" stroke-linejoin="round" stroke-width="1"></path>       <path id="Caminho_25596" data-name="Caminho 25596" d="M242.145,398.993c0-2.71-.592-8.114-3.789-15.132l-4.162-15.011-12.982,5.542,3.651,11.5s-11.157,5.323-15.278,6.759c-2.742.957-10.954,2.84-10.548,6.361h0a1.89,1.89,0,0,0,1.891,1.891h39.32a1.891,1.891,0,0,0,1.9-1.907Z" transform="translate(-196.45 -175.655)" fill="#fff" stroke="#263238" stroke-linecap="round" stroke-linejoin="round" stroke-width="1"></path>       <path id="Caminho_25597" data-name="Caminho 25597" d="M235,394.165c-2.028,1.493-12.844,3.383-10.134,1.217s0-5.542,0-5.542-11.157,5.323-15.278,6.759c-2.742.957-10.954,2.84-10.548,6.361a1.89,1.89,0,0,0,1.891,1.891h39.32a1.882,1.882,0,0,0,1.891-1.907,35.806,35.806,0,0,0-2.483-11.992C237.423,390.976,237.026,392.68,235,394.165Z" transform="translate(-196.45 -179.614)" fill="#8f00fc" stroke="#263238" stroke-linecap="round" stroke-linejoin="round" stroke-width="1"></path>       <path id="Caminho_25598" data-name="Caminho 25598" d="M263.452,401.6h28.8a1.241,1.241,0,0,0,1.217-1.006c.438-2.288.341-7.408-2.256-14.207l-.26-13.793L276.207,375.1l1.866,11.765s-5.939,6.54-8.763,7.708c-1.98.811-6.491.909-7.091,5.68a1.233,1.233,0,0,0,1.233,1.347Z" transform="translate(-208.369 -176.36)" fill="#fff" stroke="#263238" stroke-linecap="round" stroke-linejoin="round" stroke-width="1"></path>       <path id="Caminho_25599" data-name="Caminho 25599" d="M286.388,394.18c-3.043,2.126-5.29,2.377-3.87-.811s-4.406-3.3-4.406-3.3-5.939,6.54-8.763,7.708c-1.98.811-6.491.909-7.091,5.68a1.233,1.233,0,0,0,1.233,1.379h28.8a1.241,1.241,0,0,0,1.217-1.006c.438-2.288.341-7.408-2.256-14.207C289,390.139,289.407,392.046,286.388,394.18Z" transform="translate(-208.376 -179.572)" fill="#8f00fc" stroke="#263238" stroke-linecap="round" stroke-linejoin="round" stroke-width="1"></path>       <path id="Caminho_25600" data-name="Caminho 25600" d="M248.357,278.057s-2.9,2.97-14.775,4.868-36.512,7.838-36.212,17.575,22.995,61.665,22.995,61.665,11.359-2.158,16.633-5.4c0,0-9.144-37.056-16-46.792,0,0,30.776-3.789,47.8-10.816s7.01-23.043,7.01-23.043Z" transform="translate(-196.137 -158.162)" fill="#263238" stroke="#263238" stroke-linecap="round" stroke-linejoin="round" stroke-width="1"></path>       <path id="Caminho_25601" data-name="Caminho 25601" d="M279.641,276.682s4.365,7.3,1.1,11.359-21.786,11.627-19.692,20.828,9.006,22.175,13.51,53.008c0,0,10.491-1.623,17.518-4.6,0,0,1.168-31.368-6.986-44.894,0,0,23.352-4.325,25.721-12.171s-2.061-19.838-2.15-24.122Z" transform="translate(-208.119 -158.158)" fill="#263238" stroke="#263238" stroke-linecap="round" stroke-linejoin="round" stroke-width="1"></path>       <path id="Caminho_25602" data-name="Caminho 25602" d="M266.323,291.133a10.812,10.812,0,0,0-1.623,0" transform="translate(-208.838 -160.99)" fill="none" stroke="#7f7f7f" stroke-linecap="round" stroke-linejoin="round" stroke-width="0.75"></path>       <path id="Caminho_25603" data-name="Caminho 25603" d="M268,285.17s4.8,1.412,6.678,7.668a.5.5,0,0,1-.811.5,11.57,11.57,0,0,0-4.617-2.9" transform="translate(-209.46 -159.871)" fill="none" stroke="#7f7f7f" stroke-linecap="round" stroke-linejoin="round" stroke-width="0.75"></path>       <path id="Caminho_25604" data-name="Caminho 25604" d="M221.656,315.8c0-2.637-11.359-4.057-8.317-6.491s9.939,5.477,9.939,5.477" transform="translate(-199.053 -164.337)" fill="none" stroke="#7f7f7f" stroke-linecap="round" stroke-linejoin="round" stroke-width="0.75"></path>       <path id="Caminho_25605" data-name="Caminho 25605" d="M290.1,328.367c0-3.018-10.856-4.665-10.313-7.911s7.44,3.148,7.44,3.148" transform="translate(-211.679 -166.353)" fill="none" stroke="#7f7f7f" stroke-linecap="round" stroke-linejoin="round" stroke-width="0.75"></path>       <path id="Caminho_25606" data-name="Caminho 25606" d="M224.217,380.748l1.193,2.759a.714.714,0,0,0,.811.414c2.621-.592,13.558-3.173,17.4-5.931a.69.69,0,0,0,.26-.73l-.746-3.075a.706.706,0,0,0-1.03-.454c-1.728.941-6.54,3.189-17.4,6.045a.722.722,0,0,0-.479.974Z" transform="translate(-201.192 -176.558)" fill="#999" stroke="#263238" stroke-linecap="round" stroke-linejoin="round" stroke-width="1"></path>       <path id="Caminho_25607" data-name="Caminho 25607" d="M276.149,378.483a.56.56,0,0,1,.738-.609,7.132,7.132,0,0,0,4.057.057c3.01-.682,11.619-3.408,14.183-4.227a.56.56,0,0,1,.73.536v3.586a.552.552,0,0,1-.333.511c-2.012.9-12.8,5.517-18.435,4.26a.552.552,0,0,1-.422-.471Z" transform="translate(-210.996 -176.565)" fill="#999" stroke="#263238" stroke-linecap="round" stroke-linejoin="round" stroke-width="1"></path>       <path id="Caminho_25608" data-name="Caminho 25608" d="M282.491,287a5.68,5.68,0,0,1-1.177,3.083c-2.385,2.962-12.877,7.789-17.575,13.793" transform="translate(-208.657 -160.216)" fill="none" stroke="#7f7f7f" stroke-linecap="round" stroke-linejoin="round" stroke-width="1"></path>       <path id="Caminho_25609" data-name="Caminho 25609" d="M286.22,282a12.978,12.978,0,0,1,.414,1.826" transform="translate(-212.897 -159.273)" fill="none" stroke="#7f7f7f" stroke-linecap="round" stroke-linejoin="round" stroke-width="1"></path>       <path id="Caminho_25610" data-name="Caminho 25610" d="M209.64,400.42a13.859,13.859,0,0,1,1.42,3.854h29.3a5.177,5.177,0,0,1,1.623-3.343" transform="translate(-198.452 -181.609)" fill="none" stroke="#263238" stroke-linecap="round" stroke-linejoin="round" stroke-width="1"></path>       <path id="Caminho_25611" data-name="Caminho 25611" d="M272.39,400.42s4.057.308,5.574,3.854h15.319a9.962,9.962,0,0,0,.811-3.343" transform="translate(-210.288 -181.609)" fill="none" stroke="#263238" stroke-linecap="round" stroke-linejoin="round" stroke-width="1"></path>       <path id="Caminho_25612" data-name="Caminho 25612" d="M237.047,213.642c.373,1.428.763,2.848,1.152,4.235,4.057,14.6,9.331,42.395,9.331,42.395,25.964,5.477,53.348,0,53.348,0,.146-6.053-.592-14.045-1.412-22.443,4.252-1.177,7.3-5.1,7.5-11.635.2-7.911-1.233-22.151-2.028-28.8-.706-5.85-.2-9.331-9.266-13.793-4.544-2.621-12.09-3.862-21.364-5.1-18.256-2.434-31.433,1.258-36.107,3.246-3.708-.974-4.738,3.375-4.738,3.375-2.053-1.55-4.438,5.022-4.438,5.022-6,7.659-10.726,20.56-12.3,25.153a5.372,5.372,0,0,1-1.834,2.523c-4.26,3.246-1.891,7.262-1.891,7.262l8.722,2.669s4.227,1.1,7.457-4.454C231.87,218.649,236.284,210.77,237.047,213.642Z" transform="translate(-198.962 -139.599)" fill="#8f00fc"></path>       <g id="Grupo_8381" data-name="Grupo 8381" transform="translate(13.378 38.092)" clip-path="url(#clip-path)">         <path id="Caminho_25613" data-name="Caminho 25613" d="M224.8,231.035s-.2-4.057-3.448-4.763.909-1.923,3.448-1.314,1.947-1.623,4.122-5.274,3.246-6.54,5.079-4.438,3.74,2.434,4.519,5.306-3.075,9.737-3.075,9.737l-6.053,4.7-3.075,1.72h-4.584l-1.574-3.968Z" transform="translate(-213.815 -184.64)" opacity="0.3"></path>       </g>       <path id="Caminho_25615" data-name="Caminho 25615" d="M237.047,213.642c.373,1.428.763,2.848,1.152,4.235,4.057,14.6,9.331,42.395,9.331,42.395,25.964,5.477,53.348,0,53.348,0,.146-6.053-.592-14.045-1.412-22.443,4.252-1.177,7.3-5.1,7.5-11.635.2-7.911-1.233-22.151-2.028-28.8-.706-5.85-.2-9.331-9.266-13.793-4.544-2.621-12.09-3.862-21.364-5.1-18.256-2.434-31.433,1.258-36.107,3.246-3.708-.974-4.738,3.375-4.738,3.375-2.053-1.55-4.438,5.022-4.438,5.022-6,7.659-10.726,20.56-12.3,25.153a5.372,5.372,0,0,1-1.834,2.523c-4.26,3.246-1.891,7.262-1.891,7.262l8.722,2.669s4.227,1.1,7.457-4.454C231.87,218.649,236.284,210.77,237.047,213.642Z" transform="translate(-198.962 -139.599)" fill="none" stroke="#263238" stroke-linecap="round" stroke-linejoin="round" stroke-width="1"></path>       <path id="Caminho_25616" data-name="Caminho 25616" d="M308.132,274.826a146.677,146.677,0,0,0-.771-15.611c.884,12.357-24.845,16.228-25.656,9.526s25.015-16.357,10.962-12.982c-12.26,2.945-36.025.13-41.867-.633,2.248,10.548,3.984,19.7,3.984,19.7C280.748,280.3,308.132,274.826,308.132,274.826Z" transform="translate(-206.216 -154.192)" opacity="0.3"></path>       <path id="Caminho_25617" data-name="Caminho 25617" d="M303.668,202.92s-3.676,10.751-3.667,16.43-10.3,9.493-10.321,9.493c5.526-1.12,10.9-2.6,13.461-3.351a1.972,1.972,0,0,0,1.428-2.069,197.857,197.857,0,0,1-.9-20.5Z" transform="translate(-213.549 -144.357)" opacity="0.3"></path>       <path id="Caminho_25618" data-name="Caminho 25618" d="M237.787,199.59a43.766,43.766,0,0,0,2.7,14.84.7.7,0,0,1-1.055.811c-1.4-1-3.367-3.026-5.144-7.116" transform="translate(-203.102 -143.729)" fill="none" stroke="#263238" stroke-linecap="round" stroke-linejoin="round" stroke-width="0.75"></path>       <path id="Caminho_25619" data-name="Caminho 25619" d="M321.342,237.969c-2.142-7.1-5.85-8.877-8.722-9.055a.454.454,0,0,1-.211-.811c1.671-.9,4.925-1.623,8.925,2.807" transform="translate(-217.803 -148.979)" fill="none" stroke="#263238" stroke-linecap="round" stroke-linejoin="round" stroke-width="0.75"></path>       <path id="Caminho_25620" data-name="Caminho 25620" d="M272.162,215.062a1.225,1.225,0,1,1-.564-1.178,1.225,1.225,0,0,1,.564,1.178Z" transform="translate(-209.785 -146.39)" fill="#999" stroke="#263238" stroke-linecap="round" stroke-linejoin="round" stroke-width="0.75"></path>       <path id="Caminho_25621" data-name="Caminho 25621" d="M274.194,232.117a1.217,1.217,0,1,1-1.217-1.217A1.217,1.217,0,0,1,274.194,232.117Z" transform="translate(-210.169 -149.635)" fill="#999" stroke="#263238" stroke-linecap="round" stroke-linejoin="round" stroke-width="0.75"></path>       <path id="Caminho_25622" data-name="Caminho 25622" d="M279.22,273.137A1.225,1.225,0,1,1,278,271.92a1.225,1.225,0,0,1,1.225,1.217Z" transform="translate(-211.114 -157.372)" fill="#999" stroke="#263238" stroke-linecap="round" stroke-linejoin="round" stroke-width="1"></path>       <path id="Caminho_25623" data-name="Caminho 25623" d="M250.466,243.409s-3.984,3.8-2.085,3.862,4.292-2.548,6.491-2.848-1.355-1.623-1.355-1.623Z" transform="translate(-205.663 -151.879)" fill="#fff" stroke="#263238" stroke-linecap="round" stroke-linejoin="round" stroke-width="1"></path>       <path id="Caminho_25624" data-name="Caminho 25624" d="M270.538,237.68a1.744,1.744,0,0,0-1.323-.438c-1.947.162-7.546.584-9.655.454-3.749-.235-14.792-2.572-14.792-2.572a1.736,1.736,0,0,0-.763.041l-6.84,2.012a1.623,1.623,0,0,0-.665.381l-4.138,3.8a1.768,1.768,0,0,0-.341.438l-.86,1.574a1.688,1.688,0,0,0,.3,2.02h0l6.832.179a1.623,1.623,0,0,0,1.152-.406l2.028-1.736a1.85,1.85,0,0,0,.349-.406c.495-.811,2.434-3.489,5.436-3.246,0,0-6.491,3.448-5.266,4.868s6.191-2.637,7.814-2.231,1.728,4.39,10.548,2.945a2.775,2.775,0,0,1,1.185.057l8.033,2.248a1.858,1.858,0,0,0,2.3-1.331C272.493,244.025,273.045,239.968,270.538,237.68Z" transform="translate(-202.472 -150.427)" fill="#fff" stroke="#263238" stroke-linecap="round" stroke-linejoin="round" stroke-width="1"></path>       <path id="Caminho_25625" data-name="Caminho 25625" d="M246.9,236.92l-1.72.292a4.625,4.625,0,0,0-2.264,1.071l-1.826,1.566a4.787,4.787,0,0,0-.811.949l-1.177,1.793a4.257,4.257,0,0,1-.43.56c-.7.811-2.621,3.059-.544,2.751" transform="translate(-203.65 -150.77)" fill="#fff" stroke="#263238" stroke-linecap="round" stroke-linejoin="round" stroke-width="1"></path>       <path id="Caminho_25626" data-name="Caminho 25626" d="M241.37,237.67l-1.777.487a3.246,3.246,0,0,0-1.477.811l-1.387,1.331a2.435,2.435,0,0,0-.365.406l-2.28,3.026s-1.217,2.142,0,2.183" transform="translate(-202.961 -150.912)" fill="#fff" stroke="#263238" stroke-linecap="round" stroke-linejoin="round" stroke-width="1"></path>       <path id="Caminho_25627" data-name="Caminho 25627" d="M302.285,200.8a186.274,186.274,0,0,0,.811,22.224,1.972,1.972,0,0,1-1.428,2.069A152.046,152.046,0,0,1,282,229.515" transform="translate(-212.101 -143.957)" fill="none" stroke="#263238" stroke-linecap="round" stroke-linejoin="round" stroke-width="1"></path>       <path id="Caminho_25628" data-name="Caminho 25628" d="M307.42,194.6c-.105.811-.195,1.7-.26,2.6" transform="translate(-216.846 -142.788)" fill="none" stroke="#263238" stroke-linecap="round" stroke-linejoin="round" stroke-width="0.75"></path>       <path id="Caminho_25629" data-name="Caminho 25629" d="M310.341,185.24a8.243,8.243,0,0,0-2.1,4.227" transform="translate(-217.05 -141.022)" fill="none" stroke="#263238" stroke-linecap="round" stroke-linejoin="round" stroke-width="0.75"></path>       <path id="Caminho_25630" data-name="Caminho 25630" d="M260.6,178.41s.511-1.623,3.246-2.54,12.219-2.369,17.1,0-4.463,15.262-4.463,15.262l-4.325,5.988-3.854,2.889-1.72-5.136-2.231-2.321s-4.82-3.951-4.414-7.854S260.6,178.41,260.6,178.41Z" transform="translate(-207.934 -139.012)" fill="#fff"></path>       <path id="Caminho_25631" data-name="Caminho 25631" d="M284.245,177.91c-.763-2.669-4.244-3.416-4.244-3.416-16.633-2.84-20.147,3.246-20.147,3.246a24.487,24.487,0,0,0,0,17.039s4.73-1.964,5.542,0,2.3,6.15,2.3,6.15a18.759,18.759,0,0,0,5.785-5.071c2.572-3.383,8.609,0,8.609,0C286,189.1,284.245,177.91,284.245,177.91Zm-4.057-.195c-6.442,20.22-12.122,21.1-12.122,21.1-1.891-7.432-3.513-5.81-6.085-10.459-2.061-3.732-1.363-8.455-1.006-10.183a1.42,1.42,0,0,1,.73-.974c6.394-3.246,14.215-2.053,17.437-1.347a1.444,1.444,0,0,1,1.079,1.866Z" transform="translate(-207.635 -138.853)" fill="#8f00fc"></path>       <g id="Grupo_8382" data-name="Grupo 8382" transform="translate(50.689 34.886)" clip-path="url(#clip-path-2)">         <path id="Caminho_25632" data-name="Caminho 25632" d="M284.245,177.91c-.763-2.669-4.244-3.416-4.244-3.416-16.633-2.84-20.147,3.246-20.147,3.246a24.487,24.487,0,0,0,0,17.039s4.73-1.964,5.542,0,2.3,6.15,2.3,6.15a18.759,18.759,0,0,0,5.785-5.071c2.572-3.383,8.609,0,8.609,0C286,189.1,284.245,177.91,284.245,177.91Zm-4.057-.195c-6.442,20.22-12.122,21.1-12.122,21.1-1.891-7.432-3.513-5.81-6.085-10.459-2.061-3.732-1.363-8.455-1.006-10.183a1.42,1.42,0,0,1,.73-.974c6.394-3.246,14.215-2.053,17.437-1.347a1.444,1.444,0,0,1,1.079,1.866Z" transform="translate(-258.325 -173.739)" fill="#fff" opacity="0.4"></path>       </g>       <path id="Caminho_25634" data-name="Caminho 25634" d="M284.245,177.91c-.763-2.669-4.244-3.416-4.244-3.416-16.633-2.84-20.147,3.246-20.147,3.246a24.487,24.487,0,0,0,0,17.039s4.73-1.964,5.542,0,2.3,6.15,2.3,6.15a18.759,18.759,0,0,0,5.785-5.071c2.572-3.383,8.609,0,8.609,0C286,189.1,284.245,177.91,284.245,177.91Zm-4.057-.195c-6.442,20.22-12.122,21.1-12.122,21.1-1.891-7.432-3.513-5.81-6.085-10.459-2.061-3.732-1.363-8.455-1.006-10.183a1.42,1.42,0,0,1,.73-.974c6.394-3.246,14.215-2.053,17.437-1.347a1.444,1.444,0,0,1,1.079,1.866Z" transform="translate(-207.635 -138.853)" fill="none" stroke="#263238" stroke-linecap="round" stroke-linejoin="round" stroke-width="1"></path>       <path id="Caminho_25635" data-name="Caminho 25635" d="M254.751,140.8s-14.337,2.872-6.442,12.171C257.063,163.332,254.751,140.8,254.751,140.8Z" transform="translate(-205.298 -132.64)" fill="#263238" stroke="#263238" stroke-linecap="round" stroke-linejoin="round" stroke-width="1"></path>       <path id="Caminho_25636" data-name="Caminho 25636" d="M249.622,162.6s-3.408-13.794,3.083-20.423,13.526-7.976,18.8-4.73,7.465,11.359,6.653,15.546-.422,19.2-7.651,25.421-11.676,4.69-16.455-3.789C250.88,169.066,249.379,167.468,249.622,162.6Z" transform="translate(-205.825 -131.689)" fill="#fff" stroke="#263238" stroke-linecap="round" stroke-linejoin="round" stroke-width="1"></path>       <path id="Caminho_25637" data-name="Caminho 25637" d="M273.881,158.952s-5.452-5.412-7.124-11.765-2.613-7.44-8.836-4.333-15.927-1.071-13.388-8.925c2.669-8.244,10.824,2.434,18.662-.268s13.412,2.166,13.42,9.331c0,0,4.738,4.6,0,16.5Z" transform="translate(-204.956 -130.743)" fill="#263238" stroke="#263238" stroke-linecap="round" stroke-linejoin="round" stroke-width="1"></path>       <path id="Caminho_25638" data-name="Caminho 25638" d="M278.69,162.784s1.379-7.562,5.209-6.864,1.1,11.862-3.416,10.645" transform="translate(-211.477 -135.484)" fill="#fff" stroke="#263238" stroke-linecap="round" stroke-linejoin="round" stroke-width="1"></path>       <path id="Caminho_25639" data-name="Caminho 25639" d="M255.961,167.55s-1.509,7.018-1.014,8.219,5.128.284,5.128.284" transform="translate(-206.979 -137.686)" fill="#fff" stroke="#263238" stroke-linecap="round" stroke-linejoin="round" stroke-width="1"></path>       <path id="Caminho_25640" data-name="Caminho 25640" d="M262.09,181.023s3.635,1.436,6.84-3.343" transform="translate(-208.345 -139.597)" fill="#fff" stroke="#263238" stroke-linecap="round" stroke-linejoin="round" stroke-width="1"></path>       <path id="Caminho_25641" data-name="Caminho 25641" d="M252.845,168.023c.13.649-.041,1.241-.381,1.314s-.738-.4-.876-1.055,0-1.241.381-1.314S252.724,167.366,252.845,168.023Z" transform="translate(-206.355 -137.575)" fill="#263238"></path>       <path id="Caminho_25642" data-name="Caminho 25642" d="M263.807,167.143c.138.649,0,1.241-.381,1.314s-.73-.406-.868-1.055,0-1.241.381-1.314S263.718,166.486,263.807,167.143Z" transform="translate(-208.424 -137.409)" fill="#263238"></path>       <path id="Caminho_25643" data-name="Caminho 25643" d="M253.374,167.409c.187,1.842-1.623,3.53-4.122,3.773s-4.609-1.039-4.8-2.88,1.753-2.645,4.219-2.9S253.2,165.575,253.374,167.409Z" transform="translate(-205.017 -137.269)" fill="none" stroke="#263238" stroke-linecap="round" stroke-linejoin="round" stroke-width="1"></path>       <path id="Caminho_25644" data-name="Caminho 25644" d="M267.524,166c.187,1.834-1.663,3.53-4.122,3.773s-4.609-1.047-4.8-2.88,1.753-2.653,4.219-2.9S267.346,164.157,267.524,166Z" transform="translate(-207.686 -137.003)" fill="none" stroke="#263238" stroke-linecap="round" stroke-linejoin="round" stroke-width="1"></path>       <line id="Linha_773" data-name="Linha 773" y1="0.252" x2="2.564" transform="translate(48.357 29.888)" fill="#fff" stroke="#263238" stroke-linecap="round" stroke-linejoin="round" stroke-width="1"></line>       <line id="Linha_774" data-name="Linha 774" y1="5.558" x2="9.428" transform="translate(59.53 22.513)" fill="#fff" stroke="#263238" stroke-linecap="round" stroke-linejoin="round" stroke-width="1"></line>       <line id="Linha_775" data-name="Linha 775" x2="0.446" y2="1.079" transform="translate(70.573 36.728)" fill="#fff" stroke="#263238" stroke-linecap="round" stroke-linejoin="round" stroke-width="1"></line>       <path id="Caminho_25645" data-name="Caminho 25645" d="M248.9,163.964s1.436-1.826,3.2-.949" transform="translate(-205.858 -136.786)" fill="#fff" stroke="#263238" stroke-linecap="round" stroke-linejoin="round" stroke-width="1"></path>       <path id="Caminho_25646" data-name="Caminho 25646" d="M265.848,162.921s-2.523-2.434-4.958-.714" transform="translate(-208.119 -136.562)" fill="#fff" stroke="#263238" stroke-linecap="round" stroke-linejoin="round" stroke-width="1"></path>       <path id="Caminho_25647" data-name="Caminho 25647" d="M252.83,135.8c3.838,1.217,10.3,2.71,15.57,1.112,8.114-2.434,5.331,6.653,7.156,9.161" transform="translate(-206.599 -131.697)" fill="none" stroke="#7f7f7f" stroke-linecap="round" stroke-linejoin="round" stroke-width="1"></path>       <path id="Caminho_25648" data-name="Caminho 25648" d="M248.73,134.3s.641.284,1.736.673" transform="translate(-205.826 -131.414)" fill="none" stroke="#7f7f7f" stroke-linecap="round" stroke-linejoin="round" stroke-width="1"></path>       <path id="Caminho_25649" data-name="Caminho 25649" d="M260.68,141.262c.43-.13.876-.284,1.347-.462" transform="translate(-208.08 -132.64)" fill="none" stroke="#7f7f7f" stroke-linecap="round" stroke-linejoin="round" stroke-width="1"></path>       <path id="Caminho_25650" data-name="Caminho 25650" d="M249.83,140.05s1.72,2.653,7.254,1.477" transform="translate(-206.033 -132.499)" fill="none" stroke="#7f7f7f" stroke-linecap="round" stroke-linejoin="round" stroke-width="1"></path>       <path id="Caminho_25651" data-name="Caminho 25651" d="M275.23,146.46a19.571,19.571,0,0,0,3.44,8.69" transform="translate(-210.824 -133.708)" fill="none" stroke="#7f7f7f" stroke-linecap="round" stroke-linejoin="round" stroke-width="1"></path>       <path id="Caminho_25652" data-name="Caminho 25652" d="M275,142.92a12.911,12.911,0,0,0,.049,1.452" transform="translate(-210.78 -133.04)" fill="none" stroke="#7f7f7f" stroke-linecap="round" stroke-linejoin="round" stroke-width="1"></path>       <path id="Caminho_25653" data-name="Caminho 25653" d="M283.781,249.166a.941.941,0,0,0,.6,1.663c5.485,0,20.285.065,25.964-.268,7.1-.406,1.68-8.114-4.057-5.177C301.088,248.1,290.021,243.576,283.781,249.166Z" transform="translate(-212.373 -152.241)" opacity="0.3"></path>       <path id="Caminho_25654" data-name="Caminho 25654" d="M207.71,239.057s3.319-8.836,11.643-7.432,1.964,8.373-2.045,8.99C217.309,240.615,216.7,238.189,207.71,239.057Z" transform="translate(-198.088 -149.743)" fill="#fff" stroke="#263238" stroke-linecap="round" stroke-linejoin="round" stroke-width="1"></path>       <path id="Caminho_25655" data-name="Caminho 25655" d="M198.406,245.187c-1.1,1.1-3.732,1.193-1.955-1.185a12.569,12.569,0,0,1,5.68-4.195c3.943-1.761,5.485-1.4,9.055-2.191s4.244.673,5.477,1.347c2.945,1.623,3.651,1.9,4.4,3.521s1.558,3.732-.746,3.732c-2.093,0-2.231-3.465-4.26-3.327s-3.043,3.327-4.463,3.327h-.536c-1.217,0-1.282-1.014-.544-2.6s1.558-3.026,1.558-3.026a6.223,6.223,0,0,0-2.742,2.88c-.974,2.069-1.152,2.937-2.945,2.937s-1.623-1.331.114-4.268a6.929,6.929,0,0,0-2.475,2.54c-.876,1.623-1.339,1.542-2.483,1.542-1.509,0-1.4-2.483,1.266-4.106C202.82,242.112,202.228,241.382,198.406,245.187Z" transform="translate(-195.852 -150.859)" fill="#fff" stroke="#263238" stroke-linecap="round" stroke-linejoin="round" stroke-width="1"></path>       <path id="Caminho_25656" data-name="Caminho 25656" d="M211.482,239.69s-1.047-.049-1.712,1.72" transform="translate(-198.477 -151.293)" fill="#fff" stroke="#263238" stroke-linecap="round" stroke-linejoin="round" stroke-width="0.75"></path>     </g>     <g id="freepik--Desk--inject-181" transform="translate(119.449 191.537)">       <path id="Caminho_25657" data-name="Caminho 25657" d="M140.342,380.734h-3.01L136.52,261.25h3.822Z" transform="translate(-105.898 -216.153)" fill="#858585" stroke="#263238" stroke-linecap="round" stroke-linejoin="round" stroke-width="1"></path>       <path id="Caminho_25658" data-name="Caminho 25658" d="M144.232,380.734h-3V261.25h3.813Z" transform="translate(-106.787 -216.153)" fill="#999" stroke="#263238" stroke-linecap="round" stroke-linejoin="round" stroke-width="1"></path>       <rect id="Retângulo_4836" data-name="Retângulo 4836" width="206.261" height="7.319" transform="translate(0 37.787)" fill="#263238" stroke="#263238" stroke-linecap="round" stroke-linejoin="round" stroke-width="1"></rect>       <rect id="Retângulo_4837" data-name="Retângulo 4837" width="46.184" height="7.319" transform="translate(203.178 37.787)" fill="#858585" stroke="#263238" stroke-linecap="round" stroke-linejoin="round" stroke-width="1"></rect>       <rect id="Retângulo_4838" data-name="Retângulo 4838" width="205.053" height="12.057" transform="translate(10.564 45.097)" fill="#8f00fc" stroke="#263238" stroke-miterlimit="10" stroke-width="1"></rect>       <rect id="Retângulo_4839" data-name="Retângulo 4839" width="23.879" height="12.057" transform="translate(239.496 57.163) rotate(180)" fill="#8f00fc"></rect>       <g id="Grupo_8383" data-name="Grupo 8383" transform="translate(215.617 45.105)" clip-path="url(#clip-path-3)">         <rect id="Retângulo_4840" data-name="Retângulo 4840" width="23.879" height="12.057" transform="translate(23.879 12.057) rotate(180)" opacity="0.3"></rect>       </g>       <rect id="Retângulo_4842" data-name="Retângulo 4842" width="23.879" height="12.057" transform="translate(239.496 57.163) rotate(180)" fill="none" stroke="#263238" stroke-miterlimit="10" stroke-width="1"></rect>       <path id="Caminho_25659" data-name="Caminho 25659" d="M363.634,380.734h-3L359.82,261.25h3.814Z" transform="translate(-148.017 -216.153)" fill="#858585" stroke="#263238" stroke-linecap="round" stroke-linejoin="round" stroke-width="1"></path>       <path id="Caminho_25660" data-name="Caminho 25660" d="M367.53,380.734h-3.01V261.25h3.822Z" transform="translate(-148.903 -216.153)" fill="#999" stroke="#263238" stroke-linecap="round" stroke-linejoin="round" stroke-width="1"></path>       <path id="Caminho_25661" data-name="Caminho 25661" d="M110.912,380.734H107.9L107.09,261.25h3.822Z" transform="translate(-100.347 -216.153)" fill="#858585" stroke="#263238" stroke-linecap="round" stroke-linejoin="round" stroke-width="1"></path>       <path id="Caminho_25662" data-name="Caminho 25662" d="M114.8,380.734h-3V261.25h3.813Z" transform="translate(-101.236 -216.153)" fill="#999" stroke="#263238" stroke-linecap="round" stroke-linejoin="round" stroke-width="1"></path>       <path id="Caminho_25663" data-name="Caminho 25663" d="M393.062,380.734h-3.01L389.24,261.25h3.822Z" transform="translate(-153.566 -216.153)" fill="#858585" stroke="#263238" stroke-linecap="round" stroke-linejoin="round" stroke-width="1"></path>       <path id="Caminho_25664" data-name="Caminho 25664" d="M396.952,380.734h-3V261.25h3.813Z" transform="translate(-154.454 -216.153)" fill="#999" stroke="#263238" stroke-linecap="round" stroke-linejoin="round" stroke-width="1"></path>       <path id="Caminho_25665" data-name="Caminho 25665" d="M257.224,250.567H233.053a.9.9,0,0,1-.893-.9v-2l25.964.811v1.185A.9.9,0,0,1,257.224,250.567Z" transform="translate(-123.938 -213.591)" fill="#858585" stroke="#263238" stroke-linecap="round" stroke-linejoin="round" stroke-width="1"></path>       <path id="Caminho_25666" data-name="Caminho 25666" d="M214.674,242.645H166.08a1.939,1.939,0,0,1-1.777-1.355l-10.434-33.867a1.282,1.282,0,0,1,1.233-1.753H203.7a1.931,1.931,0,0,1,1.777,1.347l10.434,33.867a1.29,1.29,0,0,1-1.233,1.761Z" transform="translate(-109.154 -205.669)" fill="#999" stroke="#263238" stroke-linecap="round" stroke-linejoin="round" stroke-width="1"></path>       <path id="Caminho_25667" data-name="Caminho 25667" d="M229.661,240.884l-10.434-33.867a1.931,1.931,0,0,0-1.777-1.347H215.3a1.931,1.931,0,0,1,1.777,1.347l10.434,33.867a1.29,1.29,0,0,1-1.233,1.761h2.183a1.29,1.29,0,0,0,1.2-1.761Z" transform="translate(-120.758 -205.669)" fill="#858585" stroke="#263238" stroke-linecap="round" stroke-linejoin="round" stroke-width="1"></path>       <path id="Caminho_25668" data-name="Caminho 25668" d="M194.425,227.752a2.6,2.6,0,0,1-2.637,3.01,3.5,3.5,0,0,1-3.375-3.01,2.6,2.6,0,0,1,2.637-3,3.505,3.505,0,0,1,3.375,3Z" transform="translate(-115.68 -209.268)" fill="#fff" stroke="#263238" stroke-linecap="round" stroke-linejoin="round" stroke-width="1"></path>     </g>   </g> </svg>