<svg xmlns="http://www.w3.org/2000/svg" width="252.04" height="249.5" viewBox="0 0 252.04 249.5">   <g id="Work_in_progress-bro" data-name="Work in progress-bro" transform="translate(-29.474 -128.77)">     <g id="freepik--Board--inject-33" transform="translate(29.98 129.27)">       <rect id="Retângulo_4771" data-name="Retângulo 4771" width="187.784" height="125.396" fill="none" stroke="#000" stroke-miterlimit="10" stroke-width="1" opacity="0.5"></rect>       <rect id="Retângulo_4772" data-name="Retângulo 4772" width="182.748" height="122.031" transform="translate(2.522 1.687)" fill="none" stroke="#000" stroke-miterlimit="10" stroke-width="1" opacity="0.5"></rect>       <path id="Caminho_19321" data-name="Caminho 19321" d="M273.89,153.119s2.006,10.8,2.006,14v11.193s8,.4,14.4,0,14-4.4,14-4.4-2.8-10.8-2.8-13.6-1.638-9.6-1.638-9.6Z" transform="translate(-249.251 -133.156)" fill="#fff" stroke="#000" stroke-miterlimit="10" stroke-width="1" opacity="0.3"></path>       <path id="Caminho_19322" data-name="Caminho 19322" d="M274.162,235.72s-1.2,9.2-1.2,13.2-2.006,10.4-2.006,10.4,9.6,3.6,12,3.6,12.8-.819,12.8-.819l1.6-23.6S277.363,236.522,274.162,235.72Z" transform="translate(-248.72 -148.555)" fill="#fff" stroke="#000" stroke-miterlimit="10" stroke-width="1" opacity="0.3"></path>       <path id="Caminho_19323" data-name="Caminho 19323" d="M329.1,173.457l4.831,21.994s6,.4,12.4.4,17.2-6,17.2-6-5.2-10.4-5.2-13.2-1.638-10.8-1.638-10.8-16.377,5.2-18.833,5.6S329.1,173.457,329.1,173.457Z" transform="translate(-259.253 -135.897)" fill="#fff" stroke="#000" stroke-miterlimit="10" stroke-width="1" opacity="0.3"></path>       <path id="Caminho_19324" data-name="Caminho 19324" d="M372.707,167.82s-1.2,14.4-1.2,16-.4,8-.4,8a114.1,114.1,0,0,0,12.4,1.2c4.405,0,12-.4,12-.4s-.4-13.994.4-15.2,1.2-7.6,1.2-7.6S374.3,168.213,372.707,167.82Z" transform="translate(-266.864 -136.254)" fill="#fff" stroke="#000" stroke-miterlimit="10" stroke-width="1" opacity="0.3"></path>       <path id="Caminho_19325" data-name="Caminho 19325" d="M383.629,206.545v9.6c0,1.6-.819,13.2-.819,13.2s10.4.4,14.4,0,12-2.8,12-2.8l-1.2-12.8-.819-8.8S388.026,207.74,383.629,206.545Z" transform="translate(-268.984 -142.979)" fill="#fff" stroke="#000" stroke-miterlimit="10" stroke-width="1" opacity="0.3"></path>       <path id="Caminho_19326" data-name="Caminho 19326" d="M454.393,140.822l-9.2.4h-4.8v6.8c0,2-.4,8.4-.4,9.6s6.4,2.006,9.2,2.006h10l.4-19.6Z" transform="translate(-279.343 -131.218)" fill="#fff" stroke="#000" stroke-miterlimit="10" stroke-width="1" opacity="0.3"></path>       <g id="Grupo_8229" data-name="Grupo 8229" transform="translate(151.845 52.766)" opacity="0.5">         <line id="Linha_440" data-name="Linha 440" x2="17.204" fill="none" stroke="#000" stroke-miterlimit="10" stroke-width="1"></line>         <line id="Linha_441" data-name="Linha 441" x2="17.204" transform="translate(0 3.996)" fill="none" stroke="#000" stroke-miterlimit="10" stroke-width="1"></line>         <line id="Linha_442" data-name="Linha 442" x2="17.204" transform="translate(0 8)" fill="none" stroke="#000" stroke-miterlimit="10" stroke-width="1"></line>         <line id="Linha_443" data-name="Linha 443" x2="17.204" transform="translate(0 11.996)" fill="none" stroke="#000" stroke-miterlimit="10" stroke-width="1"></line>       </g>       <g id="Grupo_8230" data-name="Grupo 8230" transform="translate(63.042 7.165)" opacity="0.5">         <line id="Linha_444" data-name="Linha 444" x2="56.803" fill="none" stroke="#000" stroke-miterlimit="10" stroke-width="1"></line>         <line id="Linha_445" data-name="Linha 445" x2="56.803" transform="translate(0 3.996)" fill="none" stroke="#000" stroke-miterlimit="10" stroke-width="1"></line>       </g>       <g id="Grupo_8231" data-name="Grupo 8231" transform="translate(121.048 94.363)" opacity="0.5">         <line id="Linha_446" data-name="Linha 446" x2="17.196" fill="none" stroke="#000" stroke-miterlimit="10" stroke-width="1"></line>         <line id="Linha_447" data-name="Linha 447" x2="17.196" transform="translate(0 4.004)" fill="none" stroke="#000" stroke-miterlimit="10" stroke-width="1"></line>         <line id="Linha_448" data-name="Linha 448" x2="17.196" transform="translate(0 8)" fill="none" stroke="#000" stroke-miterlimit="10" stroke-width="1"></line>         <line id="Linha_449" data-name="Linha 449" x2="17.196" transform="translate(0 12.004)" fill="none" stroke="#000" stroke-miterlimit="10" stroke-width="1"></line>       </g>       <g id="Grupo_8232" data-name="Grupo 8232" transform="translate(14.24 67.963)" opacity="0.5">         <line id="Linha_450" data-name="Linha 450" x2="17.204" fill="none" stroke="#000" stroke-miterlimit="10" stroke-width="1"></line>         <line id="Linha_451" data-name="Linha 451" x2="17.204" transform="translate(0 4.004)" fill="none" stroke="#000" stroke-miterlimit="10" stroke-width="1"></line>         <line id="Linha_452" data-name="Linha 452" x2="17.204" transform="translate(0 8)" fill="none" stroke="#000" stroke-miterlimit="10" stroke-width="1"></line>         <line id="Linha_453" data-name="Linha 453" x2="17.204" transform="translate(0 12.004)" fill="none" stroke="#000" stroke-miterlimit="10" stroke-width="1"></line>       </g>       <g id="Grupo_8233" data-name="Grupo 8233" transform="translate(135.444 17.564)" opacity="0.5">         <line id="Linha_454" data-name="Linha 454" x2="17.204" fill="none" stroke="#000" stroke-miterlimit="10" stroke-width="1"></line>         <line id="Linha_455" data-name="Linha 455" x2="17.204" transform="translate(0 3.996)" fill="none" stroke="#000" stroke-miterlimit="10" stroke-width="1"></line>         <line id="Linha_456" data-name="Linha 456" x2="17.204" transform="translate(0 8)" fill="none" stroke="#000" stroke-miterlimit="10" stroke-width="1"></line>         <line id="Linha_457" data-name="Linha 457" x2="17.204" transform="translate(0 11.996)" fill="none" stroke="#000" stroke-miterlimit="10" stroke-width="1"></line>       </g>       <path id="Caminho_19327" data-name="Caminho 19327" d="M324.279,196.019l-9.867,2.817,2.538,2.194c-4.61,3.038-14.379,8.237-20.774,2.956-8.573-7.083-6.264-13.2-6.166-13.462l-.753-.3-.762-.311c-.123.295-2.915,7.443,6.641,15.337a11.783,11.783,0,0,0,7.738,2.678c5.969,0,12.127-3.554,15.378-5.732l3.21,2.776Z" transform="translate(-251.812 -140.256)" opacity="0.5"></path>       <path id="Caminho_19328" data-name="Caminho 19328" d="M452.1,174.708l-2.85-9.5-5.224,7.6,2.9.68-3.013,10.833,1.58.442,3.03-10.9Z" transform="translate(-280.053 -135.781)" opacity="0.5"></path>       <path id="Caminho_19329" data-name="Caminho 19329" d="M292.858,154.572a2.4,2.4,0,1,0-2.391,2.366A2.4,2.4,0,0,0,292.858,154.572Z" transform="translate(-251.818 -133.413)" fill="#fff" stroke="#000" stroke-miterlimit="10" stroke-width="1" opacity="0.3"></path>       <path id="Caminho_19330" data-name="Caminho 19330" d="M346.6,173.149a2.4,2.4,0,1,0-2.4,2.4A2.4,2.4,0,0,0,346.6,173.149Z" transform="translate(-261.554 -136.785)" fill="#8f00fc" stroke="#000" stroke-miterlimit="10" stroke-width="1" opacity="0.3"></path>       <circle id="Elipse_130" data-name="Elipse 130" cx="2.399" cy="2.399" r="2.399" transform="translate(116.643 30.362)" fill="#fff" stroke="#000" stroke-miterlimit="10" stroke-width="1" opacity="0.3"></circle>       <circle id="Elipse_131" data-name="Elipse 131" cx="2.399" cy="2.399" r="2.399" transform="translate(124.643 63.566)" fill="#fff" stroke="#000" stroke-miterlimit="10" stroke-width="1" opacity="0.3"></circle>       <path id="Caminho_19331" data-name="Caminho 19331" d="M292.858,240.556a2.4,2.4,0,1,0-2.391,2.383A2.4,2.4,0,0,0,292.858,240.556Z" transform="translate(-251.818 -148.993)" fill="#8f00fc" stroke="#000" stroke-miterlimit="10" stroke-width="1" opacity="0.3"></path>       <path id="Caminho_19332" data-name="Caminho 19332" d="M454.068,140.469a2.4,2.4,0,1,0-2.4,2.4A2.4,2.4,0,0,0,454.068,140.469Z" transform="translate(-281.024 -130.864)" fill="#8f00fc" stroke="#000" stroke-miterlimit="10" stroke-width="1" opacity="0.3"></path>     </g>     <g id="freepik--Device--inject-33" transform="translate(162.178 249.706)">       <path id="Caminho_19338" data-name="Caminho 19338" d="M298.77,422.27H228.76v-3.734l70.01-3.726Z" transform="translate(-228.76 -301.436)" fill="#fff" stroke="#263238" stroke-miterlimit="10" stroke-width="1"></path>       <path id="Caminho_19339" data-name="Caminho 19339" d="M355.654,397.119,337.639,352.46l-3.046,1.236v.729l17.785,44a6.8,6.8,0,0,1-6.321,9.335H322.45v3.562h23.607a10.383,10.383,0,0,0,9.6-14.207Z" transform="translate(-245.733 -290.14)" fill="#fff" stroke="#263238" stroke-miterlimit="10" stroke-width="1"></path>       <rect id="Retângulo_4773" data-name="Retângulo 4773" width="5.601" height="105.007" transform="translate(95.168) rotate(6.88)" fill="#fff" stroke="#263238" stroke-miterlimit="10" stroke-width="1"></rect>       <path id="Caminho_19340" data-name="Caminho 19340" d="M316.467,421.205h-30.3v-3.562a7.517,7.517,0,0,1,6.755-7.484l15.288-1.548a7.517,7.517,0,0,1,8.27,7.476Z" transform="translate(-239.161 -300.306)" fill="#fff" stroke="#263238" stroke-miterlimit="10" stroke-width="1"></path>     </g>     <g id="freepik--Character--inject-33" transform="translate(29.98 206.453)">       <path id="Caminho_19341" data-name="Caminho 19341" d="M150.275,240.619s-6.461-15.632-12.577-16.991-31.935,11.554-24.811,23.451,14.616,11.21,21.413,8.188S150.275,240.619,150.275,240.619Z" transform="translate(-61.347 -223.529)" fill="#263238" stroke="#263238" stroke-miterlimit="10" stroke-width="1"></path>       <path id="Caminho_19342" data-name="Caminho 19342" d="M121.619,230.175s-6.8-2.375-10.194-2.375-4.094,10.874-4.094,10.874S109.729,228.136,121.619,230.175Z" transform="translate(-60.564 -224.303)" fill="#263238" stroke="#263238" stroke-miterlimit="10" stroke-width="1"></path>       <path id="Caminho_19343" data-name="Caminho 19343" d="M202.792,257.574s3.742,5.093,4.757,9.515-1.7,9.171-.68,12.913,5.781,7.132,5.437,9.515-7.132,6.117-7.132,6.117-5.781,13.92-8.188,14.952-10.506-1.367-14.2-3.054a20.419,20.419,0,0,0-8.5-1.359L152.18,294.953s2.383-4.422-.336-10.874-4.094-17.335,12.569-28.209S202.792,257.574,202.792,257.574Z" transform="translate(-68.329 -228.586)" fill="#fff" stroke="#263238" stroke-miterlimit="10" stroke-width="1"></path>       <path id="Caminho_19344" data-name="Caminho 19344" d="M209.722,304.217a3.611,3.611,0,0,0-4.422-1.359" transform="translate(-78.312 -237.85)" fill="none" stroke="#263238" stroke-miterlimit="10" stroke-width="1"></path>       <path id="Caminho_19345" data-name="Caminho 19345" d="M213.473,283.564c0,1.7-.532,3.062-1.187,3.062s-1.2-1.367-1.2-3.062.532-3.054,1.2-3.054S213.473,281.877,213.473,283.564Z" transform="translate(-79.361 -233.852)" fill="#263238"></path>       <path id="Caminho_19346" data-name="Caminho 19346" d="M209.87,273.661a3.12,3.12,0,0,1,4.757.336" transform="translate(-79.14 -232.44)" fill="none" stroke="#263238" stroke-miterlimit="10" stroke-width="1"></path>       <ellipse id="Elipse_132" data-name="Elipse 132" cx="5.945" cy="9.515" rx="5.945" ry="9.515" transform="translate(127.332 37.479)" fill="none" stroke="#263238" stroke-miterlimit="10" stroke-width="1"></ellipse>       <line id="Linha_523" data-name="Linha 523" x1="26.514" y2="2.719" transform="translate(100.818 46.994)" fill="#fff" stroke="#263238" stroke-miterlimit="10" stroke-width="1"></line>       <path id="Caminho_19347" data-name="Caminho 19347" d="M161.082,280.543s-6.452,7.14-10.194,7.14-10.874-4.766-14.272-9.826,3.4-18.014,7.14-25.49,10.53-20.053,24.467-22.772,19.374-1.695,31.263,4.422,10.538,14.952,8.5,17.67a31.8,31.8,0,0,1-5.1,5.1s7.476-4.094,10.194-2.719,2.727,3.054,2.727,3.054-8.5.344-9.523.344-4.414,1.695-4.414,1.695-7.14,1.7-10.874.68-8.835-4.79-9.2-.7-5.437,11.218-7.476,11.9-5.1,1.015-7.82,3.054S161.082,280.543,161.082,280.543Z" transform="translate(-65.702 -224.371)" fill="#263238" stroke="#263238" stroke-miterlimit="10" stroke-width="1"></path>       <path id="Caminho_19348" data-name="Caminho 19348" d="M173.709,286.9s-4.757-9.826-9.515-5.773.336,14.608,2.375,15.632,6.117-1.7,6.117-1.7.344,4.422,1.7,6.461" transform="translate(-70.508 -233.786)" fill="#fff" stroke="#263238" stroke-miterlimit="10" stroke-width="1"></path>       <path id="Caminho_19349" data-name="Caminho 19349" d="M143.05,315.254s5.732-5.781,5.732-9.515,2.039-6.8,14.952-.68,17.376,13.241,14.657,15.288-8.5,4.094-9.826,5.437-6.117,7.82-6.117,7.82S154.26,315.254,143.05,315.254Z" transform="translate(-67.035 -237.668)" fill="#8f00fc" stroke="#263238" stroke-miterlimit="10" stroke-width="1"></path>       <path id="Caminho_19350" data-name="Caminho 19350" d="M159.349,303.38s-2.882.581-2.3,2.6a6.927,6.927,0,0,1,0,3.734l-1.728,2.6" transform="translate(-69.258 -237.995)" fill="none" stroke="#263238" stroke-miterlimit="10" stroke-width="1"></path>       <path id="Caminho_19351" data-name="Caminho 19351" d="M166.952,305.83s-3.2,3.464-2.915,4.61.868,2.882-.287,3.456a23.962,23.962,0,0,1-3.161,1.155" transform="translate(-70.212 -238.439)" fill="none" stroke="#263238" stroke-miterlimit="10" stroke-width="1"></path>       <path id="Caminho_19352" data-name="Caminho 19352" d="M169.466,322.12c-.6.876-1.146,1.638-1.146,1.638" transform="translate(-71.613 -241.39)" fill="none" stroke="#263238" stroke-miterlimit="10" stroke-width="1"></path>       <path id="Caminho_19353" data-name="Caminho 19353" d="M174.935,310.76a6.413,6.413,0,0,1-.581,4.315c-1.155,1.728-2.588,1.728-2.874,2.588" transform="translate(-72.185 -239.332)" fill="none" stroke="#263238" stroke-miterlimit="10" stroke-width="1"></path>       <path id="Caminho_19354" data-name="Caminho 19354" d="M181.455,316.38a24.509,24.509,0,0,1-2.014,4.315c-.868,1.155-4.029.868-4.61,2.3a9.237,9.237,0,0,1-2.3,2.882" transform="translate(-72.376 -240.351)" fill="none" stroke="#263238" stroke-miterlimit="10" stroke-width="1"></path>       <path id="Caminho_19355" data-name="Caminho 19355" d="M262.053,381.923c-2.53-1.007-9.613-2.023-9.613-2.023" transform="translate(-86.852 -251.858)" fill="none" stroke="#263238" stroke-miterlimit="10" stroke-width="1"></path>       <path id="Caminho_19356" data-name="Caminho 19356" d="M248.73,378.511s5.568-1.515,9.105,0" transform="translate(-86.18 -251.485)" fill="none" stroke="#263238" stroke-miterlimit="10" stroke-width="1"></path>       <path id="Caminho_19357" data-name="Caminho 19357" d="M260.747,392.154s3.005,5.183,3.824,6.821,1.089,2.457.27,2.457-3.824-1.359-4.094-3a6.7,6.7,0,0,0-.819-2.456s1.539,6,1.089,6.272c-1.777,1.089-3-.819-3-.819l-2.186-6.551s-.819,3.275-1.089,4.094-1.916-1.359-1.916-3a37.023,37.023,0,0,1,.278-3.824l-1.638-1.367s2.457-2.457,5.183-2.457S260.747,392.154,260.747,392.154Z" transform="translate(-86.677 -253.385)" fill="#fff" stroke="#263238" stroke-miterlimit="10" stroke-width="1"></path>       <path id="Caminho_19358" data-name="Caminho 19358" d="M200,380.523l1.064-.074c4.708-.311,23.394-1.564,24.565-1.564,1.367,0,9.277,4.364,9.277,4.364a37.669,37.669,0,0,1,7.37.278c2.735.54,5.191,3.816,6.28,4.913s4.643,2.457,2.727,3-2.727.819-3.816.549S242,388.712,242,388.712l-7.1-1.089s-6.551,3.546-7.37,3.816,1.1,2.186,3.005,3.554,4.913,3.275,4.643,5.453-1.1,1.916-3.275,0-4.373-3-7.648-5.183a73.853,73.853,0,0,1-8.459-7.1l-1.638-1.638s-19.1,6.28-25.654,8.188a137.811,137.811,0,0,1-18.268,3.824c-4.094.549-12-1.089-14.19-2.727s-7.918-6.829-7.918-6.829l9.826-19.652s11.742,10.923,16.377,12.012S200,380.523,200,380.523Z" transform="translate(-67.955 -249.943)" fill="#fff" stroke="#263238" stroke-miterlimit="10" stroke-width="1"></path>       <path id="Caminho_19359" data-name="Caminho 19359" d="M174.333,381.342c-4.635-1.089-16.377-12.012-16.377-12.012l-9.826,19.652s5.732,5.191,7.918,6.829,10.1,3.275,14.19,2.727a140.02,140.02,0,0,0,16.614-3.357c.147-1.253.262-2.6.311-4.012.106-3.1,0-6.6-.156-9.72C181.735,381.752,176.4,381.858,174.333,381.342Z" transform="translate(-67.955 -249.943)" fill="#8f00fc" stroke="#263238" stroke-miterlimit="10" stroke-width="1"></path>       <path id="Caminho_19360" data-name="Caminho 19360" d="M155.194,339.384a27.153,27.153,0,0,0-5.1-15.73,16.712,16.712,0,0,0-6.231-5.478c-11.349-5.159-19.325-1.417-26.514,8.188-14.272,19.038-24.033,41.646-27.84,50.981C81.474,396.8,80,403.818,80,403.818h53.7s-2.719-6.8-2.719-8.491,2.719-5.1,2.719-5.1,16.311-5.781,19.365-14.616C155.284,369.108,155.333,349.366,155.194,339.384Z" transform="translate(-55.612 -240.255)" fill="#8f00fc" stroke="#263238" stroke-miterlimit="10" stroke-width="1"></path>       <path id="Caminho_19361" data-name="Caminho 19361" d="M268.5,350.24a88.349,88.349,0,0,1,12.692,3.546" transform="translate(-89.762 -246.485)" fill="none" stroke="#263238" stroke-miterlimit="10" stroke-width="1"></path>       <path id="Caminho_19362" data-name="Caminho 19362" d="M278.39,348.39A35.815,35.815,0,0,1,287,353.45" transform="translate(-91.554 -246.15)" fill="none" stroke="#263238" stroke-miterlimit="10" stroke-width="1"></path>       <path id="Caminho_19363" data-name="Caminho 19363" d="M129.35,353.565s16.655,45.544,21.069,46.9,8.835-.68,10.874-2.039,61.175-43.161,61.175-43.161,10.538,6.125,12.577,6.125,6.117,6.117,7.132,8.188,2.039,3.054,2.383,1.015-2.383-6.452-3.062-7.812a19.556,19.556,0,0,1-1.015-2.383,11.153,11.153,0,0,1,3.4,1.024c1.015.68,4.414,5.093,5.437,6.452s3.4,2.719,3.4.68-3.742-5.773-4.422-7.476a4.75,4.75,0,0,0-2.039-2.375,71.988,71.988,0,0,1,8.188,1.7c1.728.68,2.727,4.757,4.766,5.1s-1.024-4.094-1.7-6.117-9.179-4.757-9.179-4.757,5.437-.68,7.14-.68,5.429,3.349,6.428,3.349,1.015-1.024-1.7-3.062-7.476-4.094-9.515-4.094a37,37,0,0,1-6.117-.68c-2.039-.336-17.335-3.4-20.389-3.4s-48.942,21.413-48.942,21.413l-2.972-2.645a.36.36,0,0,0-.2-.09l-.5-.057a7.1,7.1,0,0,0-4.807,1.359c-.246.164-.491.139-.7-.27-.68-1.359-5.093-28.545-7.476-34.326s-9.826-18.686-22.764-11.21" transform="translate(-64.553 -240.638)" fill="#fff" stroke="#263238" stroke-miterlimit="10" stroke-width="1"></path>       <path id="Caminho_19364" data-name="Caminho 19364" d="M129.35,353.57s16.655,45.544,21.069,46.9,8.835-.68,10.874-2.039c1.081-.721,18.014-12.684,33.818-23.836l-5.879-13.56c-7.9,3.619-14,6.469-14,6.469l-2.972-2.645a.36.36,0,0,0-.2-.09l-.5-.057a7.1,7.1,0,0,0-4.807,1.359c-.246.164-.491.139-.7-.27-.68-1.359-5.093-28.545-7.476-34.326s-9.826-18.686-22.764-11.21" transform="translate(-64.553 -240.644)" fill="#8f00fc" stroke="#263238" stroke-miterlimit="10" stroke-width="1"></path>       <path id="Caminho_19365" data-name="Caminho 19365" d="M172.342,377.73a71.514,71.514,0,0,1-8.532,8.77" transform="translate(-70.796 -251.465)" fill="none" stroke="#263238" stroke-miterlimit="10" stroke-width="1"></path>       <path id="Caminho_19366" data-name="Caminho 19366" d="M169.585,380.41s-5.6,1.949-10.235,3.169" transform="translate(-69.988 -251.951)" fill="none" stroke="#263238" stroke-miterlimit="10" stroke-width="1"></path>       <path id="Caminho_19367" data-name="Caminho 19367" d="M74.6,403.613,65.229,321.4a7.533,7.533,0,0,0-8.54-6.608h0a7.533,7.533,0,0,0-6.411,8.4L60.5,403.744Z" transform="translate(-50.217 -240.05)" fill="#263238" stroke="#263238" stroke-miterlimit="10" stroke-width="1"></path>     </g>     <g id="freepik--Cup--inject-33" transform="translate(108.11 342.83)">       <path id="Caminho_19368" data-name="Caminho 19368" d="M133.186,396.645a4.176,4.176,0,0,0-4.995-.721c-2.858,1.572-3.431,8-2.145,12.569s7.14,2,7.14,2l-.139-3s-4.856.565-5.142-2-.426-5.855,2.456-5.855,3.718.712,3.718.712Z" transform="translate(-125.396 -391.044)" fill="#fff" stroke="#263238" stroke-miterlimit="10" stroke-width="1"></path>       <rect id="Retângulo_4774" data-name="Retângulo 4774" width="22.674" height="27.136" transform="translate(7.316)" fill="#fff" stroke="#263238" stroke-miterlimit="10" stroke-width="1"></rect>     </g>     <g id="freepik--Table--inject-33" transform="translate(29.98 369.819)">       <rect id="Retângulo_4775" data-name="Retângulo 4775" width="251.033" height="7.951" transform="translate(0 0)" fill="#263238" stroke="#263238" stroke-miterlimit="10" stroke-width="1"></rect>     </g>   </g> </svg>