<svg xmlns="http://www.w3.org/2000/svg" width="277.648" height="252.938" viewBox="0 0 277.648 252.938">   <g id="Choosing_clothes-bro" data-name="Choosing clothes-bro" transform="translate(-15.72 -29.154)">     <g id="freepik--background-simple--inject-92" transform="translate(15.72 29.154)">       <path id="Caminho_3734" data-name="Caminho 3734" d="M201.99,34.107s-45.445-16.07-90.114,9.683S44.617,120.568,25.234,161.45s-8.327,82.394,25.712,101.3,57.267-9.063,105.044-10.518,60.639,5.37,100.34-21.621,46.947-90.64,15.731-137.68S201.99,34.107,201.99,34.107Z" transform="translate(-15.72 -29.154)" fill="#8f00fc"></path>       <path id="Caminho_3735" data-name="Caminho 3735" d="M201.99,34.107s-45.445-16.07-90.114,9.683S44.617,120.568,25.234,161.45s-8.327,82.394,25.712,101.3,57.267-9.063,105.044-10.518,60.639,5.37,100.34-21.621,46.947-90.64,15.731-137.68S201.99,34.107,201.99,34.107Z" transform="translate(-15.72 -29.154)" fill="#fff" opacity="0.7"></path>     </g>     <g id="freepik--Plants--inject-92" transform="translate(198.787 80.677)">       <path id="Caminho_3736" data-name="Caminho 3736" d="M392.017,247.411l23.152-17.449L389,243.046l15.1-25.834-20.131,23.152,5.47-26.3,2.583.584-2.308-1.934,1.169-5.727,19.932,2.285-25.84-8.391,26.506-4.675H381.592l23.152-17.449-26.173,13.09L390.4,171.608l12.02,2.793-9.139-7.7.421-.719-.538.619-1.169-.952,25.5,2.922a.368.368,0,0,0,.158-.719l-22.3-7.246,22.346-3.956a.374.374,0,0,0-.064-.742H392.017l20.271-15.275a.339.339,0,0,0-.345-.584L389,151.53l13.323-22.79a.328.328,0,0,0-.532-.386l-17.823,20.505,6.492-31.24a.257.257,0,0,0-.485-.152L377.922,146.51l-1.046-27.465a.438.438,0,0,0-.877,0l-2.1,28.119-12.231-27.108a.362.362,0,0,0-.678.251l8.543,29.937-21.358-23.3,17.805,27.33-.053.678-25.513-18.2L361.777,157l-21.534-9.969a.165.165,0,0,0-.175.28l13.242,8.935.9,5.294-12.073-1.572a.187.187,0,0,0-.07.368l12.54,3.547.584,3.3-11,1.806-3.506-5.014,15.778,31.877-24.21-15.819,22.533,20.85-24.981-10.226L352.439,202.9,329,200.873l22.79,5.382-15.83,3.611,16.5-1.262-11.074,7.38,19.354-5.207,6.241,22.059c0,1.753.053,3.9.082,6.194L348.155,218.4l18.7,28.663-26.436-18.857,24.753,23.912L337.123,236.8l25.682,17.326-23.228-3.021,22.556,6.381-18.062,3.015,18.734-.666-11.074,7.38,15.5-4.172c-.035,2.922-.076,6.34-.117,9.718-.047,4.172-.093,8.181-.123,10.875h-6.673a3.015,3.015,0,0,0-2.571,1.461l-7.188,11.968a8.269,8.269,0,0,0-.888,6.346l3.2,11.892a4.248,4.248,0,0,0,4.09,3.15H389.68a4.266,4.266,0,0,0,4.09-3.15l3.191-11.892a8.239,8.239,0,0,0-.888-6.346L388.891,285.1a3,3,0,0,0-2.577-1.461h-8.181c0-6.229.07-14.609.111-23.374l24.128,5.616-10.4-8.724,29.218,3.354-25.817-8.391,26.512-4.675ZM390.8,206.974l-2.045,4.932-7.164-5.984Zm-1.706-35.7-10.816,12.441c-.041-5.89-.082-11.278-.111-14.989Zm-21.387,46.556c-.4-1.981-.169-6.031.064-8.835l5.7,1.332a21.177,21.177,0,0,0-.625,4.6c-.047.584-.093,1.251-.158,1.987-.181,2.18-.526,2.641-1.093,3.4a10.6,10.6,0,0,0-1.531,2.723,26.88,26.88,0,0,0-.917,5.119l-.462-1.023A57.525,57.525,0,0,0,367.708,217.831Zm3.979,5.844A9.04,9.04,0,0,1,373,221.337a6.9,6.9,0,0,0,1.438-4.307c.064-.742.111-1.4.158-2a19.013,19.013,0,0,1,.584-4.342l.783.181-2.063,27.81-3.331-7.4a44.343,44.343,0,0,1,1.122-7.591Zm1.87-34.553,2.922-13.96c0,3.173.053,6.779.076,10.518Zm1.116-19.593-7.153,17.262-.584-15.164Zm-8.374-14.8.549.841-.532-.38Zm-1.671,17.531-1.134,15.193-4.389-13.727Zm-6.294-.923-.894-2.776,5.382-.193Zm-4.792-14.954,9.262,6.253-7.6-.988Zm2.519,7.889,6.071,1.718-5.259.877ZM344.193,169l11.237-.4.713,4.2-4.377,2.922,4.675-1.251,2.717,16.017Zm21.8,40.35a41.379,41.379,0,0,0,0,8.818c.269,1.338.479,2.811.637,4.377l-5.37-11.915Zm2.741,74.278c0-2.671.076-6.691.123-10.857.041-3.57.088-7.2.123-10.209l7.532-2.028c-.041,8.66-.082,16.946-.111,23.094Zm9.689-72.145,9.6,2.226L378.4,236.869c.041-9.35.07-17.063.07-20.213,0-1.321-.006-3.1-.018-5.172Z" transform="translate(-329 -117.324)" fill="#c7c7c7"></path>     </g>     <g id="freepik--Clock--inject-92" transform="translate(200.54 34.323)">       <circle id="Elipse_70" data-name="Elipse 70" cx="22.498" cy="22.498" r="22.498" fill="none" stroke="#263238" stroke-linecap="round" stroke-miterlimit="10" stroke-width="1"></circle>       <circle id="Elipse_71" data-name="Elipse 71" cx="20.312" cy="20.312" r="20.312" transform="translate(2.185 2.185)" fill="none" stroke="#263238" stroke-linecap="round" stroke-miterlimit="10" stroke-width="1"></circle>       <path id="Caminho_3737" data-name="Caminho 3737" d="M378.558,69.163l-8.058-2.5,9.543-13.832" transform="translate(-348.002 -44.164)" fill="none" stroke="#263238" stroke-linecap="round" stroke-miterlimit="10" stroke-width="1"></path>       <circle id="Elipse_72" data-name="Elipse 72" cx="1.139" cy="1.139" r="1.139" transform="translate(21.358 21.358)" fill="#263238" stroke="#263238" stroke-miterlimit="10" stroke-width="1"></circle>       <circle id="Elipse_73" data-name="Elipse 73" cx="4.12" cy="4.12" r="4.12" transform="translate(10.518 8.035)" fill="none" stroke="#263238" stroke-linecap="round" stroke-miterlimit="10" stroke-width="1"></circle>       <path id="Caminho_3738" data-name="Caminho 3738" d="M358.815,70.372a.882.882,0,1,1-.882-.882A.882.882,0,0,1,358.815,70.372Z" transform="translate(-342.412 -51.089)" fill="none" stroke="#263238" stroke-linecap="round" stroke-miterlimit="10" stroke-width="1"></path>     </g>     <g id="freepik--Dresser--inject-92" transform="translate(27.057 56.529)">       <path id="Caminho_3739" data-name="Caminho 3739" d="M42.045,76H157.987V300.995H35.12V76h3.448" transform="translate(-35.12 -76)" fill="none" stroke="#263238" stroke-miterlimit="10" stroke-width="1"></path>       <rect id="Ret창ngulo_323" data-name="Ret창ngulo 323" width="37.235" height="215.253" transform="translate(81.909 4.868)" fill="none" stroke="#263238" stroke-miterlimit="10" stroke-width="1"></rect>       <rect id="Ret창ngulo_324" data-name="Ret창ngulo 324" width="35.102" height="215.253" transform="translate(42.547 4.868)" fill="none" stroke="#263238" stroke-miterlimit="10" stroke-width="1"></rect>       <line id="Linha_222" data-name="Linha 222" y1="3.909" transform="translate(38.293 59.505)" fill="none" stroke="#263238" stroke-miterlimit="10" stroke-width="1"></line>       <path id="Caminho_3740" data-name="Caminho 3740" d="M76.061,135.49V84.33H41.49V299.583H76.061V147.657" transform="translate(-37.768 -79.462)" fill="none" stroke="#263238" stroke-miterlimit="10" stroke-width="1"></path>     </g>     <g id="freepik--Clothe--inject-92" transform="translate(20.611 137.357)">       <path id="Caminho_3741" data-name="Caminho 3741" d="M135.58,361.2V226.059a5.329,5.329,0,0,1,5.335-5.329h87.239a5.329,5.329,0,0,1,5.329,5.329V360.987" transform="translate(-70.43 -216.985)" fill="none" stroke="#263238" stroke-linejoin="round" stroke-width="4"></path>       <path id="Caminho_3742" data-name="Caminho 3742" d="M289.716,250.564l-2.571-1.753a24.286,24.286,0,0,1-8.374-10.518l-2.168-5H273.2l-2.145,5a24.286,24.286,0,0,1-8.374,10.518l-2.571,1.753a5.756,5.756,0,0,0-2.337,4.751h34.226a5.756,5.756,0,0,0-2.279-4.751Zm-13.838,2.647H261.17c0-1.578,2.519-3.039,3.506-3.839l1.753-1.443a19.43,19.43,0,0,0,5.8-8.485l1.484-4.05h2.337l1.484,4.05a19.389,19.389,0,0,0,5.8,8.485l1.753,1.443c1,.8,3.465,2.261,3.465,3.839Z" transform="translate(-121.217 -222.205)" fill="#fff" stroke="#263238" stroke-linecap="round" stroke-linejoin="round" stroke-width="1"></path>       <path id="Caminho_3743" data-name="Caminho 3743" d="M285.972,225.9v-3.67a5.444,5.444,0,0,0,2.1-3.845c0-2.273-1.753-3.15-3.67-2.448" transform="translate(-132.286 -214.893)" fill="none" stroke="#263238" stroke-linecap="round" stroke-linejoin="round" stroke-width="1"></path>       <path id="Caminho_3744" data-name="Caminho 3744" d="M260.235,253.37s3.9,4.494,8.8,4.57c5.2.082,11.313-4.47,11.313-4.47a25.81,25.81,0,0,0,4.529,3.132c2.723,1.484,4.517,3.658,5.943,7.427,1.6,4.2,5.107,15.626,5.107,15.626l-10.121.491,1.385,22.965H253.521l2.279-23.374H246s3.255-15.439,4.745-18.407S260.235,253.37,260.235,253.37Z" transform="translate(-116.326 -230.551)" fill="#fff" stroke="#263238" stroke-linecap="round" stroke-linejoin="round" stroke-width="1"></path>       <line id="Linha_223" data-name="Linha 223" y1="12.271" x2="0.514" transform="translate(139.474 36.89)" fill="none" stroke="#263238" stroke-linecap="round" stroke-linejoin="round" stroke-width="1"></line>       <line id="Linha_224" data-name="Linha 224" x1="0.795" y1="11.915" transform="translate(168.686 37.679)" fill="none" stroke="#263238" stroke-linecap="round" stroke-linejoin="round" stroke-width="1"></line>       <path id="Caminho_3745" data-name="Caminho 3745" d="M280.763,250.564l-2.571-1.753a24.286,24.286,0,0,1-8.374-10.518l-2.145-5h-3.407l-2.145,5a24.245,24.245,0,0,1-8.374,10.518l-2.571,1.753a5.756,5.756,0,0,0-2.337,4.751h34.226a5.756,5.756,0,0,0-2.3-4.751Zm-13.838,2.647H252.217c0-1.578,2.519-3.039,3.506-3.839l1.782-1.443a19.43,19.43,0,0,0,5.8-8.485l1.484-4.05h2.337l1.484,4.05a19.389,19.389,0,0,0,5.8,8.485l1.753,1.443c1,.8,3.465,2.261,3.465,3.839Z" transform="translate(-117.505 -222.205)" fill="#fff" stroke="#263238" stroke-linecap="round" stroke-linejoin="round" stroke-width="1"></path>       <path id="Caminho_3746" data-name="Caminho 3746" d="M277,225.9v-3.67a5.444,5.444,0,0,0,2.1-3.845c0-2.273-1.753-3.15-3.67-2.448" transform="translate(-128.558 -214.893)" fill="none" stroke="#263238" stroke-linecap="round" stroke-linejoin="round" stroke-width="1"></path>       <path id="Caminho_3747" data-name="Caminho 3747" d="M251.252,253.37s3.9,4.494,8.8,4.57c5.2.082,11.313-4.47,11.313-4.47a25.811,25.811,0,0,0,4.529,3.132c2.729,1.484,4.517,3.658,5.943,7.427,1.6,4.2,5.113,15.626,5.113,15.626l-10.127.491,1.385,22.965H244.538l2.279-23.374H237s3.249-15.48,4.733-18.4S251.252,253.37,251.252,253.37Z" transform="translate(-112.585 -230.551)" fill="#6b6b6b" stroke="#263238" stroke-linecap="round" stroke-linejoin="round" stroke-width="1"></path>       <line id="Linha_225" data-name="Linha 225" y1="12.271" x2="0.514" transform="translate(134.232 36.89)" fill="none" stroke="#263238" stroke-linecap="round" stroke-linejoin="round" stroke-width="1"></line>       <line id="Linha_226" data-name="Linha 226" x1="0.795" y1="11.915" transform="translate(163.444 37.679)" fill="none" stroke="#263238" stroke-linecap="round" stroke-linejoin="round" stroke-width="1"></line>       <path id="Caminho_3748" data-name="Caminho 3748" d="M252.692,242.27l9.122.438v39.07H250.98Z" transform="translate(-118.395 -225.938)" fill="#fff" stroke="#263238" stroke-linecap="round" stroke-linejoin="round" stroke-width="1"></path>       <path id="Caminho_3749" data-name="Caminho 3749" d="M265,249.194l-2.571-1.753a24.3,24.3,0,0,1-8.38-10.518l-2.139-5h-3.407l-2.145,5a24.286,24.286,0,0,1-8.374,10.518l-2.571,1.753a5.756,5.756,0,0,0-2.337,4.751H267.3a5.756,5.756,0,0,0-2.3-4.751Zm-13.855,2.641H236.457c0-1.578,2.513-3.039,3.506-3.845l1.753-1.437a19.436,19.436,0,0,0,5.8-8.485l1.484-4.05h2.337l1.484,4.05a19.43,19.43,0,0,0,5.844,8.508l1.782,1.437c.993.806,3.465,2.267,3.465,3.845Z" transform="translate(-110.955 -221.636)" fill="#fff" stroke="#263238" stroke-linecap="round" stroke-linejoin="round" stroke-width="1"></path>       <path id="Caminho_3750" data-name="Caminho 3750" d="M261.242,224.523v-3.67a5.463,5.463,0,0,0,2.1-3.851c0-2.273-1.753-3.144-3.67-2.448" transform="translate(-122.007 -214.321)" fill="none" stroke="#263238" stroke-linecap="round" stroke-linejoin="round" stroke-width="1"></path>       <path id="Caminho_3751" data-name="Caminho 3751" d="M238.764,241.526l3.956,34.869,4.862-35.915s8.28,8.473,11,9.934,5.2,3.471,5.943,7.427,4.675,43.575,4.675,43.575l-9.163.5.841,22.433H223.91l2.226-23.374H217.47s5.446-42.827,6.93-45.8S238.764,241.526,238.764,241.526Z" transform="translate(-104.467 -225.194)" fill="#fff" stroke="#263238" stroke-linecap="round" stroke-linejoin="round" stroke-width="1"></path>       <path id="Caminho_3752" data-name="Caminho 3752" d="M248.831,242.27l4.862,37.188-1.169,1.549L241.69,248.9S245.12,243.38,248.831,242.27Z" transform="translate(-114.534 -225.938)" fill="#fff" stroke="#263238" stroke-linecap="round" stroke-linejoin="round" stroke-width="1"></path>       <path id="Caminho_3753" data-name="Caminho 3753" d="M264.274,240.438l-6.644,49.086,15.071-41.77S264.21,239.614,264.274,240.438Z" transform="translate(-121.159 -225.152)" fill="#fff" stroke="#263238" stroke-linecap="round" stroke-linejoin="round" stroke-width="1"></path>       <path id="Caminho_3754" data-name="Caminho 3754" d="M221.533,265.57s-7.077,34.4-8.625,42.529-2.337,21.276-2.337,21.276l13.54.386,3.868-58.027" transform="translate(-101.599 -235.622)" fill="#fff" stroke="#263238" stroke-linecap="round" stroke-linejoin="round" stroke-width="1"></path>       <path id="Caminho_3755" data-name="Caminho 3755" d="M291.875,265.57s7.077,34.4,8.625,42.529,2.337,21.276,2.337,21.276l-13.54.386-3.868-58.027" transform="translate(-132.714 -235.622)" fill="#fff" stroke="#263238" stroke-linecap="round" stroke-linejoin="round" stroke-width="1"></path>       <line id="Linha_227" data-name="Linha 227" y2="35.207" transform="translate(136.453 64.349)" fill="#fff" stroke="#263238" stroke-linecap="round" stroke-linejoin="round" stroke-width="1"></line>       <path id="Caminho_3756" data-name="Caminho 3756" d="M240.3,250.564l-2.571-1.753a24.332,24.332,0,0,1-8.374-10.518l-2.145-5h-3.389l-2.145,5a24.333,24.333,0,0,1-8.374,10.518l-2.577,1.753a5.756,5.756,0,0,0-2.337,4.751h34.249A5.756,5.756,0,0,0,240.3,250.564Zm-13.838,2.647h-14.7c0-1.578,2.519-3.039,3.506-3.839l1.753-1.443a19.377,19.377,0,0,0,5.8-8.485l1.484-4.05h2.337l1.49,4.05a19.377,19.377,0,0,0,5.8,8.485l1.782,1.443c.993.8,3.459,2.261,3.459,3.839Z" transform="translate(-100.692 -222.205)" fill="#fff" stroke="#263238" stroke-linecap="round" stroke-linejoin="round" stroke-width="1"></path>       <path id="Caminho_3757" data-name="Caminho 3757" d="M236.552,225.9v-3.67a5.444,5.444,0,0,0,2.1-3.845c0-2.273-1.753-3.15-3.67-2.448" transform="translate(-111.745 -214.893)" fill="none" stroke="#263238" stroke-linecap="round" stroke-linejoin="round" stroke-width="1"></path>       <path id="Caminho_3758" data-name="Caminho 3758" d="M214.078,242.9l3.962,11.389,4.844-12.435s8.28,8.473,11,9.934,5.195,3.465,5.937,7.427,4.7,43.57,4.7,43.57l-9.157.5.824,22.4H199.224l2.226-23.374h-8.66s5.446-42.839,6.93-45.761S214.078,242.9,214.078,242.9Z" transform="translate(-94.209 -225.763)" fill="#263238" stroke="#263238" stroke-linecap="round" stroke-linejoin="round" stroke-width="1"></path>       <path id="Caminho_3759" data-name="Caminho 3759" d="M222.87,245.307l2.226,12.131,4.7-7.918-2.969-8.421Z" transform="translate(-106.712 -225.451)" fill="#fff" stroke="#263238" stroke-linecap="round" stroke-linejoin="round" stroke-width="1"></path>       <path id="Caminho_3760" data-name="Caminho 3760" d="M241.372,241.85l-4.1,8.228,4.207,8.169,3.471-13.615Z" transform="translate(-112.697 -225.763)" fill="#fff" stroke="#263238" stroke-linecap="round" stroke-linejoin="round" stroke-width="1"></path>       <line id="Linha_228" data-name="Linha 228" x1="1.981" y1="37.633" transform="translate(139.182 39.911)" fill="none" stroke="#263238" stroke-linecap="round" stroke-linejoin="round" stroke-width="1"></line>       <line id="Linha_229" data-name="Linha 229" y1="36.645" x2="3.471" transform="translate(107.241 39.911)" fill="none" stroke="#263238" stroke-linecap="round" stroke-linejoin="round" stroke-width="1"></line>       <path id="Caminho_3761" data-name="Caminho 3761" d="M217.362,250.564l-2.577-1.753a24.333,24.333,0,0,1-8.374-10.518l-2.145-5h-3.4l-2.145,5a24.332,24.332,0,0,1-8.374,10.518l-2.571,1.753a5.744,5.744,0,0,0-2.337,4.751h34.22A5.756,5.756,0,0,0,217.362,250.564Zm-13.838,2.647H188.817c0-1.578,2.513-3.039,3.506-3.839l1.782-1.443a19.377,19.377,0,0,0,5.8-8.485l1.484-4.05h2.337l1.484,4.05a19.377,19.377,0,0,0,5.8,8.485l1.782,1.443c.993.8,3.459,2.261,3.459,3.839Z" transform="translate(-91.153 -222.205)" fill="#fff" stroke="#263238" stroke-linecap="round" stroke-linejoin="round" stroke-width="1"></path>       <path id="Caminho_3762" data-name="Caminho 3762" d="M213.6,225.9v-3.67a5.444,5.444,0,0,0,2.1-3.845c0-2.273-1.753-3.15-3.676-2.448" transform="translate(-102.202 -214.893)" fill="none" stroke="#263238" stroke-linecap="round" stroke-linejoin="round" stroke-width="1"></path>       <path id="Caminho_3763" data-name="Caminho 3763" d="M191.118,242.9l3.939,11.389L199.9,241.85s8.28,8.473,11,9.934,5.2,3.465,5.943,7.427,4.675,43.57,4.675,43.57l-9.11.514.83,22.4H176.264l2.232-23.374H169.83s5.446-42.857,6.93-45.778S191.118,242.9,191.118,242.9Z" transform="translate(-84.666 -225.763)" fill="#6b6b6b" stroke="#263238" stroke-linecap="round" stroke-linejoin="round" stroke-width="1"></path>       <path id="Caminho_3764" data-name="Caminho 3764" d="M199.91,245.307l2.226,12.131,4.7-7.918-2.969-8.421Z" transform="translate(-97.169 -225.451)" fill="#fff" stroke="#263238" stroke-linecap="round" stroke-linejoin="round" stroke-width="1"></path>       <path id="Caminho_3765" data-name="Caminho 3765" d="M218.412,241.85l-4.1,8.228,4.213,8.169,3.465-13.615Z" transform="translate(-103.154 -225.763)" fill="#fff" stroke="#263238" stroke-linecap="round" stroke-linejoin="round" stroke-width="1"></path>       <line id="Linha_230" data-name="Linha 230" x1="1.981" y1="37.633" transform="translate(125.765 39.911)" fill="none" stroke="#263238" stroke-linecap="round" stroke-linejoin="round" stroke-width="1"></line>       <line id="Linha_231" data-name="Linha 231" y1="36.645" x2="3.465" transform="translate(93.83 39.911)" fill="none" stroke="#263238" stroke-linecap="round" stroke-linejoin="round" stroke-width="1"></line>       <path id="Caminho_3766" data-name="Caminho 3766" d="M196.193,250.564l-2.571-1.753a24.286,24.286,0,0,1-8.374-10.518l-2.145-5H179.7l-2.145,5a24.286,24.286,0,0,1-8.374,10.518l-2.571,1.753a5.756,5.756,0,0,0-2.337,4.751h34.226A5.756,5.756,0,0,0,196.193,250.564Zm-13.838,2.647H167.647c0-1.578,2.513-3.039,3.506-3.839l1.782-1.443a19.43,19.43,0,0,0,5.785-8.485l1.484-4.05h2.337l1.484,4.05a19.389,19.389,0,0,0,5.8,8.485l1.753,1.443c1,.8,3.465,2.261,3.465,3.839Z" transform="translate(-82.354 -222.205)" fill="#fff" stroke="#263238" stroke-linecap="round" stroke-linejoin="round" stroke-width="1"></path>       <path id="Caminho_3767" data-name="Caminho 3767" d="M192.432,225.9v-3.67a5.444,5.444,0,0,0,2.1-3.845c0-2.273-1.753-3.15-3.67-2.448" transform="translate(-93.407 -214.893)" fill="none" stroke="#263238" stroke-linecap="round" stroke-linejoin="round" stroke-width="1"></path>       <path id="Caminho_3768" data-name="Caminho 3768" d="M166.674,253.37s3.9,4.494,8.8,4.57c5.2.082,11.313-4.47,11.313-4.47a25.815,25.815,0,0,0,4.535,3.132c2.723,1.484,4.517,3.658,5.943,7.427,1.6,4.2,5.107,15.626,5.107,15.626l-10.121.491,1.385,22.965H159.96l2.279-23.374H152.41s3.267-15.48,4.745-18.4S166.674,253.37,166.674,253.37Z" transform="translate(-77.425 -230.551)" fill="#a1a1a1" stroke="#263238" stroke-linecap="round" stroke-linejoin="round" stroke-width="1"></path>       <line id="Linha_232" data-name="Linha 232" y1="12.271" x2="0.514" transform="translate(84.813 36.89)" fill="none" stroke="#263238" stroke-linecap="round" stroke-linejoin="round" stroke-width="1"></line>       <line id="Linha_233" data-name="Linha 233" x1="0.795" y1="11.915" transform="translate(114.025 37.679)" fill="none" stroke="#263238" stroke-linecap="round" stroke-linejoin="round" stroke-width="1"></line>       <path id="Caminho_3769" data-name="Caminho 3769" d="M180.353,250.564l-2.571-1.753a24.286,24.286,0,0,1-8.374-10.518l-2.145-5h-3.407l-2.145,5a24.286,24.286,0,0,1-8.374,10.518l-2.571,1.753a5.756,5.756,0,0,0-2.337,4.751h34.226A5.756,5.756,0,0,0,180.353,250.564Zm-13.838,2.647H151.807c0-1.578,2.513-3.039,3.506-3.839l1.753-1.443a19.389,19.389,0,0,0,5.8-8.485l1.484-4.05h2.337l1.484,4.05a19.43,19.43,0,0,0,5.8,8.485l1.782,1.443c.993.8,3.465,2.261,3.465,3.839Z" transform="translate(-75.77 -222.205)" fill="#fff" stroke="#263238" stroke-linecap="round" stroke-linejoin="round" stroke-width="1"></path>       <path id="Caminho_3770" data-name="Caminho 3770" d="M176.592,225.9v-3.67a5.444,5.444,0,0,0,2.1-3.845c0-2.273-1.753-3.15-3.67-2.448" transform="translate(-86.823 -214.893)" fill="none" stroke="#263238" stroke-linecap="round" stroke-linejoin="round" stroke-width="1"></path>       <path id="Caminho_3771" data-name="Caminho 3771" d="M150.846,253.37s3.9,4.494,8.8,4.57c5.2.082,11.313-4.47,11.313-4.47a25.81,25.81,0,0,0,4.529,3.132c2.723,1.484,4.511,3.658,5.943,7.427,1.6,4.2,5.107,15.626,5.107,15.626l-10.121.491L177.8,303.11H144.12l2.279-23.374H136.57s3.255-15.439,4.739-18.407S150.846,253.37,150.846,253.37Z" transform="translate(-70.842 -230.551)" fill="#fff" stroke="#263238" stroke-linecap="round" stroke-linejoin="round" stroke-width="1"></path>       <line id="Linha_234" data-name="Linha 234" y1="12.271" x2="0.514" transform="translate(75.557 36.89)" fill="none" stroke="#263238" stroke-linecap="round" stroke-linejoin="round" stroke-width="1"></line>       <line id="Linha_235" data-name="Linha 235" x1="0.795" y1="11.915" transform="translate(104.769 37.679)" fill="none" stroke="#263238" stroke-linecap="round" stroke-linejoin="round" stroke-width="1"></line>       <path id="Caminho_3772" data-name="Caminho 3772" d="M150.363,361.2V226.059a5.329,5.329,0,0,0-5.335-5.329H57.789a5.329,5.329,0,0,0-5.329,5.329V360.987" transform="translate(-35.882 -216.985)" fill="none" stroke="#263238" stroke-linejoin="round" stroke-width="4"></path>       <path id="Caminho_3773" data-name="Caminho 3773" d="M41.459,250.564l2.571-1.753A24.286,24.286,0,0,0,52.4,238.292l2.145-5h3.407l2.139,5a24.286,24.286,0,0,0,8.374,10.518l2.571,1.753a5.756,5.756,0,0,1,2.337,4.751H39.139a5.756,5.756,0,0,1,2.32-4.751ZM55.3,253.211H70.028c0-1.578-2.519-3.039-3.506-3.839l-1.753-1.443a19.43,19.43,0,0,1-5.844-8.485l-1.484-4.05H55.1l-1.484,4.05a19.389,19.389,0,0,1-5.8,8.485l-1.753,1.443c-1,.8-3.465,2.261-3.465,3.839Z" transform="translate(-30.344 -222.205)" fill="#fff" stroke="#263238" stroke-linecap="round" stroke-linejoin="round" stroke-width="1"></path>       <path id="Caminho_3774" data-name="Caminho 3774" d="M66.968,225.9v-3.67a5.444,5.444,0,0,1-2.1-3.845c0-2.273,1.753-3.15,3.67-2.448" transform="translate(-41.04 -214.893)" fill="none" stroke="#263238" stroke-linecap="round" stroke-linejoin="round" stroke-width="1"></path>       <path id="Caminho_3775" data-name="Caminho 3775" d="M59.794,253.37s-3.9,4.494-8.8,4.57c-5.2.082-11.313-4.47-11.313-4.47a25.813,25.813,0,0,1-4.54,3.132c-2.723,1.484-4.517,3.658-5.943,7.427-1.6,4.2-5.107,15.626-5.107,15.626l10.121.491L32.826,303.11H66.508l-2.279-23.374h9.829s-3.272-15.48-4.745-18.4S59.794,253.37,59.794,253.37Z" transform="translate(-24.09 -230.551)" fill="#fff" stroke="#263238" stroke-linecap="round" stroke-linejoin="round" stroke-width="1"></path>       <line id="Linha_236" data-name="Linha 236" x1="0.514" y1="12.271" transform="translate(39.625 36.89)" fill="none" stroke="#263238" stroke-linecap="round" stroke-linejoin="round" stroke-width="1"></line>       <line id="Linha_237" data-name="Linha 237" y1="11.915" x2="0.795" transform="translate(10.133 37.679)" fill="none" stroke="#263238" stroke-linecap="round" stroke-linejoin="round" stroke-width="1"></line>       <path id="Caminho_3776" data-name="Caminho 3776" d="M50.429,250.564,53,248.811a24.286,24.286,0,0,0,8.374-10.518l2.145-5h3.407l2.156,5a24.286,24.286,0,0,0,8.374,10.518l2.571,1.753a5.756,5.756,0,0,1,2.337,4.751H48.109a5.756,5.756,0,0,1,2.32-4.751Zm13.838,2.647H78.975c0-1.578-2.519-3.039-3.506-3.839l-1.753-1.443a19.43,19.43,0,0,1-5.8-8.485l-1.484-4.05H64.091l-1.484,4.05a19.389,19.389,0,0,1-5.8,8.485l-1.753,1.443c-1,.8-3.465,2.261-3.465,3.839Z" transform="translate(-34.073 -222.205)" fill="#fff" stroke="#263238" stroke-linecap="round" stroke-linejoin="round" stroke-width="1"></path>       <path id="Caminho_3777" data-name="Caminho 3777" d="M75.938,225.9v-3.67a5.444,5.444,0,0,1-2.1-3.845c0-2.273,1.753-3.15,3.67-2.448" transform="translate(-44.768 -214.893)" fill="none" stroke="#263238" stroke-linecap="round" stroke-linejoin="round" stroke-width="1"></path>       <path id="Caminho_3778" data-name="Caminho 3778" d="M68.772,253.37s-3.9,4.494-8.8,4.57c-5.2.082-11.313-4.47-11.313-4.47a25.811,25.811,0,0,1-4.523,3.132c-2.729,1.484-4.517,3.658-5.943,7.427-1.6,4.2-5.113,15.626-5.113,15.626l10.127.491L41.8,303.11H75.469L73.19,279.736h9.829s-3.237-15.48-4.727-18.4S68.772,253.37,68.772,253.37Z" transform="translate(-27.827 -230.551)" fill="#6b6b6b" stroke="#263238" stroke-linecap="round" stroke-linejoin="round" stroke-width="1"></path>       <line id="Linha_238" data-name="Linha 238" x1="0.514" y1="12.271" transform="translate(44.867 36.89)" fill="none" stroke="#263238" stroke-linecap="round" stroke-linejoin="round" stroke-width="1"></line>       <line id="Linha_239" data-name="Linha 239" y1="11.915" x2="0.795" transform="translate(15.374 37.679)" fill="none" stroke="#263238" stroke-linecap="round" stroke-linejoin="round" stroke-width="1"></line>       <path id="Caminho_3779" data-name="Caminho 3779" d="M95.152,242.27l-9.122.438v39.07H96.864Z" transform="translate(-49.835 -225.938)" fill="#fff" stroke="#263238" stroke-linecap="round" stroke-linejoin="round" stroke-width="1"></path>       <path id="Caminho_3780" data-name="Caminho 3780" d="M66.189,249.194l2.571-1.753a24.3,24.3,0,0,0,8.38-10.518l2.139-5h3.407l2.145,5A24.286,24.286,0,0,0,93.2,247.44l2.571,1.753a5.756,5.756,0,0,1,2.337,4.751H63.869a5.756,5.756,0,0,1,2.32-4.751Zm13.838,2.641H94.735c0-1.578-2.513-3.039-3.506-3.845l-1.753-1.437a19.436,19.436,0,0,1-5.8-8.485l-1.484-4.05H79.851l-1.484,4.05a19.43,19.43,0,0,1-5.844,8.508l-1.782,1.437c-.993.806-3.465,2.267-3.465,3.845Z" transform="translate(-40.623 -221.636)" fill="#fff" stroke="#263238" stroke-linecap="round" stroke-linejoin="round" stroke-width="1"></path>       <path id="Caminho_3781" data-name="Caminho 3781" d="M91.7,224.523v-3.67A5.463,5.463,0,0,1,89.6,217c0-2.273,1.753-3.144,3.67-2.448" transform="translate(-51.319 -214.321)" fill="none" stroke="#263238" stroke-linecap="round" stroke-linejoin="round" stroke-width="1"></path>       <path id="Caminho_3782" data-name="Caminho 3782" d="M80,241.526l-3.956,34.869L71.2,240.48s-8.28,8.473-11,9.934-5.2,3.471-5.943,7.427-4.675,43.575-4.675,43.575l9.163.5-.859,22.433H94.856L92.63,300.973H101.3s-5.446-42.827-6.93-45.8S80,241.526,80,241.526Z" transform="translate(-34.685 -225.194)" fill="#fff" stroke="#263238" stroke-linecap="round" stroke-linejoin="round" stroke-width="1"></path>       <path id="Caminho_3783" data-name="Caminho 3783" d="M98.182,242.27,93.32,279.458l1.169,1.549,10.834-32.11S101.9,243.38,98.182,242.27Z" transform="translate(-52.865 -225.938)" fill="#fff" stroke="#263238" stroke-linecap="round" stroke-linejoin="round" stroke-width="1"></path>       <path id="Caminho_3784" data-name="Caminho 3784" d="M80.574,240.438l6.644,49.086L72.13,247.754S80.621,239.614,80.574,240.438Z" transform="translate(-44.058 -225.152)" fill="#fff" stroke="#263238" stroke-linecap="round" stroke-linejoin="round" stroke-width="1"></path>       <path id="Caminho_3785" data-name="Caminho 3785" d="M121.635,265.57s7.077,34.4,8.625,42.529,2.337,21.276,2.337,21.276l-13.54.386-3.868-58.027" transform="translate(-61.955 -235.622)" fill="#fff" stroke="#263238" stroke-linecap="round" stroke-linejoin="round" stroke-width="1"></path>       <path id="Caminho_3786" data-name="Caminho 3786" d="M51.293,265.57s-7.065,34.4-8.625,42.529-2.337,21.276-2.337,21.276l13.54.386,3.868-58.027" transform="translate(-30.84 -235.622)" fill="#fff" stroke="#263238" stroke-linecap="round" stroke-linejoin="round" stroke-width="1"></path>       <line id="Linha_240" data-name="Linha 240" y2="35.207" transform="translate(43.161 64.349)" fill="#fff" stroke="#263238" stroke-linecap="round" stroke-linejoin="round" stroke-width="1"></line>       <path id="Caminho_3787" data-name="Caminho 3787" d="M90.879,250.564l2.571-1.753a24.333,24.333,0,0,0,8.374-10.518l2.145-5h3.4l2.145,5a24.3,24.3,0,0,0,8.38,10.518l2.571,1.753a5.756,5.756,0,0,1,2.337,4.751H88.559A5.756,5.756,0,0,1,90.879,250.564Zm13.838,2.647h14.708c0-1.578-2.519-3.039-3.506-3.839l-1.782-1.443a19.43,19.43,0,0,1-5.8-8.485l-1.484-4.05h-2.337l-1.49,4.05a19.377,19.377,0,0,1-5.8,8.485l-1.753,1.443c-.993.8-3.459,2.261-3.459,3.839Z" transform="translate(-50.885 -222.205)" fill="#fff" stroke="#263238" stroke-linecap="round" stroke-linejoin="round" stroke-width="1"></path>       <path id="Caminho_3788" data-name="Caminho 3788" d="M116.388,225.9v-3.67a5.444,5.444,0,0,1-2.1-3.845c0-2.273,1.753-3.15,3.67-2.448" transform="translate(-61.581 -214.893)" fill="none" stroke="#263238" stroke-linecap="round" stroke-linejoin="round" stroke-width="1"></path>       <path id="Caminho_3789" data-name="Caminho 3789" d="M104.692,242.9l-3.962,11.389L95.885,241.85s-8.28,8.473-11,9.934-5.195,3.465-5.937,7.427-4.675,43.57-4.675,43.57l9.157.5-.824,22.4h36.972l-2.226-23.374h8.666s-5.481-42.839-6.966-45.761S104.692,242.9,104.692,242.9Z" transform="translate(-44.947 -225.763)" fill="#263238" stroke="#263238" stroke-linecap="round" stroke-linejoin="round" stroke-width="1"></path>       <path id="Caminho_3790" data-name="Caminho 3790" d="M127.75,245.307l-2.226,12.131-4.7-7.918,2.974-8.421Z" transform="translate(-64.295 -225.451)" fill="#fff" stroke="#263238" stroke-linecap="round" stroke-linejoin="round" stroke-width="1"></path>       <path id="Caminho_3791" data-name="Caminho 3791" d="M108.716,241.85l4.1,8.228-4.207,8.169-3.471-13.615Z" transform="translate(-57.778 -225.763)" fill="#fff" stroke="#263238" stroke-linecap="round" stroke-linejoin="round" stroke-width="1"></path>       <line id="Linha_241" data-name="Linha 241" y1="37.633" x2="1.981" transform="translate(38.451 39.911)" fill="none" stroke="#263238" stroke-linecap="round" stroke-linejoin="round" stroke-width="1"></line>       <line id="Linha_242" data-name="Linha 242" x1="3.471" y1="36.645" transform="translate(68.901 39.911)" fill="none" stroke="#263238" stroke-linecap="round" stroke-linejoin="round" stroke-width="1"></line>       <path id="Caminho_3792" data-name="Caminho 3792" d="M113.829,250.564l2.577-1.753a24.333,24.333,0,0,0,8.374-10.518l2.145-5h3.4l2.145,5a24.332,24.332,0,0,0,8.374,10.518l2.571,1.753a5.744,5.744,0,0,1,2.337,4.751H111.509A5.756,5.756,0,0,1,113.829,250.564Zm13.838,2.647h14.708c0-1.578-2.513-3.039-3.506-3.839l-1.782-1.443a19.377,19.377,0,0,1-5.8-8.485l-1.484-4.05h-2.337l-1.484,4.05a19.377,19.377,0,0,1-5.8,8.485l-1.753,1.443c-.993.8-3.459,2.261-3.459,3.839Z" transform="translate(-60.425 -222.205)" fill="#fff" stroke="#263238" stroke-linecap="round" stroke-linejoin="round" stroke-width="1"></path>       <path id="Caminho_3793" data-name="Caminho 3793" d="M139.338,225.9v-3.67a5.444,5.444,0,0,1-2.1-3.845c0-2.273,1.753-3.15,3.676-2.448" transform="translate(-71.12 -214.893)" fill="none" stroke="#263238" stroke-linecap="round" stroke-linejoin="round" stroke-width="1"></path>       <path id="Caminho_3794" data-name="Caminho 3794" d="M127.647,242.9l-3.962,11.389-4.844-12.435s-8.28,8.473-11,9.934-5.2,3.465-5.943,7.427-4.675,43.57-4.675,43.57l9.163.5-.83,22.4h36.978L140.3,302.307h8.666s-5.475-42.839-6.96-45.761S127.647,242.9,127.647,242.9Z" transform="translate(-54.486 -225.763)" fill="#6b6b6b" stroke="#263238" stroke-linecap="round" stroke-linejoin="round" stroke-width="1"></path>       <path id="Caminho_3795" data-name="Caminho 3795" d="M150.71,245.307l-2.226,12.131-4.7-7.918,2.969-8.421Z" transform="translate(-73.838 -225.451)" fill="#fff" stroke="#263238" stroke-linecap="round" stroke-linejoin="round" stroke-width="1"></path>       <path id="Caminho_3796" data-name="Caminho 3796" d="M131.676,241.85l4.1,8.228-4.213,8.169L128.1,244.632Z" transform="translate(-67.321 -225.763)" fill="#fff" stroke="#263238" stroke-linecap="round" stroke-linejoin="round" stroke-width="1"></path>       <line id="Linha_243" data-name="Linha 243" y1="37.633" x2="1.981" transform="translate(51.867 39.911)" fill="none" stroke="#263238" stroke-linecap="round" stroke-linejoin="round" stroke-width="1"></line>       <line id="Linha_244" data-name="Linha 244" x1="3.465" y1="36.645" transform="translate(82.318 39.911)" fill="none" stroke="#263238" stroke-linecap="round" stroke-linejoin="round" stroke-width="1"></line>       <path id="Caminho_3797" data-name="Caminho 3797" d="M135,250.564l2.571-1.753a24.286,24.286,0,0,0,8.374-10.518l2.145-5H151.5l2.145,5a24.286,24.286,0,0,0,8.374,10.518l2.571,1.753a5.756,5.756,0,0,1,2.337,4.751H132.679A5.756,5.756,0,0,1,135,250.564Zm13.838,2.647h14.708c0-1.578-2.513-3.039-3.506-3.839l-1.782-1.443a19.43,19.43,0,0,1-5.8-8.485l-1.478-4.05h-2.337l-1.484,4.05a19.389,19.389,0,0,1-5.8,8.485l-1.753,1.443c-1,.8-3.465,2.261-3.465,3.839Z" transform="translate(-69.224 -222.205)" fill="#fff" stroke="#263238" stroke-linecap="round" stroke-linejoin="round" stroke-width="1"></path>       <path id="Caminho_3798" data-name="Caminho 3798" d="M160.508,225.9v-3.67a5.444,5.444,0,0,1-2.1-3.845c0-2.273,1.753-3.15,3.67-2.448" transform="translate(-79.919 -214.893)" fill="none" stroke="#263238" stroke-linecap="round" stroke-linejoin="round" stroke-width="1"></path>       <path id="Caminho_3799" data-name="Caminho 3799" d="M153.342,253.37s-3.9,4.494-8.8,4.57c-5.2.082-11.313-4.47-11.313-4.47A25.813,25.813,0,0,1,128.7,256.6c-2.723,1.484-4.517,3.658-5.943,7.427-1.6,4.2-5.107,15.626-5.107,15.626l10.121.491-1.385,22.965h33.671l-2.279-23.374h9.829s-3.255-15.48-4.757-18.4S153.342,253.37,153.342,253.37Z" transform="translate(-62.978 -230.551)" fill="#a1a1a1" stroke="#263238" stroke-linecap="round" stroke-linejoin="round" stroke-width="1"></path>       <line id="Linha_245" data-name="Linha 245" x1="0.514" y1="12.271" transform="translate(94.286 36.89)" fill="none" stroke="#263238" stroke-linecap="round" stroke-linejoin="round" stroke-width="1"></line>       <line id="Linha_246" data-name="Linha 246" y1="11.915" x2="0.795" transform="translate(64.793 37.679)" fill="none" stroke="#263238" stroke-linecap="round" stroke-linejoin="round" stroke-width="1"></line>       <path id="Caminho_3800" data-name="Caminho 3800" d="M150.839,250.564l2.571-1.753a24.286,24.286,0,0,0,8.374-10.518l2.145-5h3.407l2.145,5a24.286,24.286,0,0,0,8.374,10.518l2.571,1.753a5.756,5.756,0,0,1,2.337,4.751H148.519A5.756,5.756,0,0,1,150.839,250.564Zm13.838,2.647h14.708c0-1.578-2.513-3.039-3.506-3.839l-1.753-1.443a19.389,19.389,0,0,1-5.8-8.485l-1.484-4.05H164.5l-1.484,4.05a19.43,19.43,0,0,1-5.8,8.485l-1.782,1.443c-.993.8-3.465,2.261-3.465,3.839Z" transform="translate(-75.807 -222.205)" fill="#fff" stroke="#263238" stroke-linecap="round" stroke-linejoin="round" stroke-width="1"></path>       <path id="Caminho_3801" data-name="Caminho 3801" d="M176.348,225.9v-3.67a5.444,5.444,0,0,1-2.1-3.845c0-2.273,1.753-3.15,3.67-2.448" transform="translate(-86.503 -214.893)" fill="none" stroke="#263238" stroke-linecap="round" stroke-linejoin="round" stroke-width="1"></path>       <path id="Caminho_3802" data-name="Caminho 3802" d="M169.182,253.37s-3.9,4.494-8.8,4.57c-5.2.082-11.313-4.47-11.313-4.47a25.809,25.809,0,0,1-4.529,3.132c-2.723,1.484-4.511,3.658-5.943,7.427-1.589,4.2-5.107,15.626-5.107,15.626l10.121.491-1.385,22.965H175.9l-2.279-23.374h9.841s-3.267-15.48-4.751-18.4S169.182,253.37,169.182,253.37Z" transform="translate(-69.561 -230.551)" fill="#fff" stroke="#263238" stroke-linecap="round" stroke-linejoin="round" stroke-width="1"></path>       <line id="Linha_247" data-name="Linha 247" x1="0.514" y1="12.271" transform="translate(103.542 36.89)" fill="none" stroke="#263238" stroke-linecap="round" stroke-linejoin="round" stroke-width="1"></line>       <line id="Linha_248" data-name="Linha 248" y1="11.915" x2="0.795" transform="translate(74.05 37.679)" fill="none" stroke="#263238" stroke-linecap="round" stroke-linejoin="round" stroke-width="1"></line>     </g>     <g id="freepik--Character--inject-92" transform="translate(95.572 76.913)">       <path id="Caminho_3803" data-name="Caminho 3803" d="M281.892,268.94s-1.2,22.246-.684,28.049,2.226,14.889,2.4,17.285,2.057,8.724,3.08,12.856,8.216,25.157,9.753,29.089,1.648,15.5,1.648,15.5-6.849,5.475-9.069,6.673-3.255.684-2.922,2.226,12.149.169,14.889.169,6.843.514,7.012-1.367-2.051-7.871-2.565-10.612-.619-15.5-1.134-23.2-.508-13.171-3.08-19.675-5.131-14.206-5.131-14.206l6.854-37.492Z" transform="translate(-205.868 -176.578)" fill="#fff" stroke="#263238" stroke-linecap="round" stroke-linejoin="round" stroke-width="1"></path>       <path id="Caminho_3804" data-name="Caminho 3804" d="M297.606,366.459c-.321-2.711-1.665-8.047-2.238-10.787-.871-4.137-7.655-24.444-8.684-28.552s-2.922-10.442-3.08-12.856-1.882-11.465-2.4-17.285.684-28.049.684-28.049l21.037,5.306-6.843,37.475s2.565,7.7,5.131,14.206,2.571,11.979,3.08,19.675c.4,5.949.386,15.918.783,20.277A14.649,14.649,0,0,1,297.606,366.459Z" transform="translate(-205.868 -176.574)" fill="#263238" stroke="#263238" stroke-linecap="round" stroke-linejoin="round" stroke-width="1"></path>       <path id="Caminho_3805" data-name="Caminho 3805" d="M289.634,454.231c-.345-1.543.684-1.029,2.922-2.226a92.528,92.528,0,0,0,8.07-5.884,2.717,2.717,0,0,1,1.513,1.093,8.392,8.392,0,0,1,.853,1.882L310.507,448a20.082,20.082,0,0,1,1.04,5.031c-.169,1.882-4.277,1.367-7.012,1.367S289.973,455.791,289.634,454.231Z" transform="translate(-209.396 -250.222)" fill="#666" stroke="#263238" stroke-linecap="round" stroke-linejoin="round" stroke-width="1"></path>       <path id="Caminho_3806" data-name="Caminho 3806" d="M325.945,272.042a89.236,89.236,0,0,1-5.131,20.534c-3.933,9.753-7.737,23.725-7.737,23.725s7.077,8.152,8.619,15.509,2.337,20.832,2.536,22.539,1.712,7.532,4.09,9.934,4.278,2.922,3.255,4.792-6.673,9.069-7.7,10.267-5.306,2.051-7.188,2.051-.684,0,.169-2.922a78.093,78.093,0,0,0,1.882-13.516c0-2.565-3.08-12.149-6.5-17.969s-8.561-21.563-10.1-25.326-3.594-6.843-3.594-9.239,1.882-25.326,2.226-29.434.853-8.724.853-8.724l24.812-4.453Z" transform="translate(-213.129 -176.94)" fill="#fff" stroke="#263238" stroke-linecap="round" stroke-linejoin="round" stroke-width="1"></path>       <path id="Caminho_3807" data-name="Caminho 3807" d="M328.909,447.89c-1.882,0-.684,0,.169-2.922a79.716,79.716,0,0,0,1.847-12.435c.514-.444,2.448-2.016,3.629-1.426a5.739,5.739,0,0,1,2.057,1.736l3.126-3.033a8.129,8.129,0,0,0,.806.982c2.4,2.4,4.277,2.922,3.255,4.792s-6.673,9.069-7.7,10.267S330.791,447.89,328.909,447.89Z" transform="translate(-225.332 -243.443)" fill="#666" stroke="#263238" stroke-linecap="round" stroke-linejoin="round" stroke-width="1"></path>       <path id="Caminho_3808" data-name="Caminho 3808" d="M300.811,282.806c.339-4.09.853-8.724.853-8.724l26.524-4.722.584,4.091a60.5,60.5,0,0,1-4.371,17.215c-3.933,9.759-11.3,25.455-11.3,25.455s7.077,8.152,8.619,15.509,2.337,20.832,2.536,22.539a23.377,23.377,0,0,0,1.093,4.336,17.472,17.472,0,0,1-7.3,2.431,65.169,65.169,0,0,0-5.762-14.124c-3.424-5.844-8.561-21.563-10.1-25.326s-3.594-6.843-3.594-9.239S300.466,286.914,300.811,282.806Z" transform="translate(-213.145 -176.753)" fill="#263238" stroke="#263238" stroke-linecap="round" stroke-linejoin="round" stroke-width="1"></path>       <path id="Caminho_3809" data-name="Caminho 3809" d="M308.914,349.222c-2.974-7.451-7.509-15.778-9-21.475-2.069-7.848,1.169-35.377,1.169-35.377" transform="translate(-213.406 -186.317)" fill="none" stroke="#7d7d7d" stroke-linecap="round" stroke-linejoin="round" stroke-width="1"></path>       <path id="Caminho_3810" data-name="Caminho 3810" d="M318.335,396.017l-.935-2.337" transform="translate(-220.964 -228.426)" fill="none" stroke="#7d7d7d" stroke-linecap="round" stroke-linejoin="round" stroke-width="1"></path>       <path id="Caminho_3811" data-name="Caminho 3811" d="M228.576,164.727s-4.313-2.209-5.376-2.507-1.677.678-1.262.958,1.093.8,1.093.8-1.958-.058-1.478.584l.958,1.256s-1.753.333-1.3,1.11a3.126,3.126,0,0,0,1.654,1.128s-1.782.485-.993,1.2,3.132.584,3.132.584a10.518,10.518,0,0,0,2.548,3.191,7.281,7.281,0,0,0,3.722,1.385l2.419,2.5,3.237-3.857Z" transform="translate(-180.951 -132.198)" fill="#fff" stroke="#263238" stroke-linecap="round" stroke-linejoin="round" stroke-width="1"></path>       <path id="Caminho_3812" data-name="Caminho 3812" d="M169.826,148.743l3.2-1.531a27.535,27.535,0,0,0,11.255-10.244l3.307-5.218.362.058,3.091.5.356.058,1.5,6a27.541,27.541,0,0,0,7.491,13.259l2.589,2.484a6.545,6.545,0,0,1,1.753,5.744l-17.624-2.84-3.091-.5-17.624-2.84A6.521,6.521,0,0,1,169.826,148.743Zm15.018,5.458,2.145.345,14.334,2.337c.281-1.753-2.273-3.857-3.243-4.938l-1.753-1.934a22.007,22.007,0,0,1-4.961-10.553l-.935-4.8-.251-.035-2.139-.345-.257-.041-2.39,4.266a22.048,22.048,0,0,1-8.029,8.461l-2.25,1.291c-1.262.719-4.289,1.911-4.576,3.676Z" transform="translate(-158.197 -119.556)" fill="#fff" stroke="#263238" stroke-linecap="round" stroke-linejoin="round" stroke-width="1"></path>       <path id="Caminho_3813" data-name="Caminho 3813" d="M205.255,124.038l.666-4.09s-2.069-2.139-1.66-4.675,2.53-3.214,4.558-2.08" transform="translate(-173.916 -111.622)" fill="none" stroke="#263238" stroke-linecap="round" stroke-linejoin="round" stroke-width="1"></path>       <path id="Caminho_3814" data-name="Caminho 3814" d="M159.067,180.672l-6.7-1.625s1.443-12.92,3.985-17.338c2.279-3.962,4.675-6.077,7.994-7.246a29,29,0,0,0,5.639-2.694s6.025,6.206,11.868,7.053c5.5.795,10.682-3.535,10.682-3.535s8.1,7.012,9.233,10.606,1.993,21.475,1.993,21.475l-11.009-1.753,3.138,26.617-.292-.053.292.736s-3.547-1.753-10.413-1.081-14.58,1.882-17.84,1.028-13.358-4.675-13.358-4.675Z" transform="translate(-152.37 -127.877)" fill="#8f00fc" stroke="#263238" stroke-linecap="round" stroke-linejoin="round" stroke-width="1"></path>       <line id="Linha_249" data-name="Linha 249" x1="0.754" y1="5.861" transform="translate(39.631 51.86)" fill="none" stroke="#263238" stroke-linecap="round" stroke-linejoin="round" stroke-width="1"></line>       <line id="Linha_250" data-name="Linha 250" y1="14.141" x2="2.694" transform="translate(6.697 38.654)" fill="none" stroke="#263238" stroke-linecap="round" stroke-linejoin="round" stroke-width="1"></line>       <path id="Caminho_3815" data-name="Caminho 3815" d="M180.95,155.59a56.682,56.682,0,0,0-.69,8.765" transform="translate(-163.962 -129.465)" fill="none" stroke="#263238" stroke-linecap="round" stroke-linejoin="round" stroke-width="1"></path>       <path id="Caminho_3816" data-name="Caminho 3816" d="M178.358,156.18a27.71,27.71,0,0,0-1.028,4.973" transform="translate(-162.744 -129.71)" fill="none" stroke="#263238" stroke-linecap="round" stroke-linejoin="round" stroke-width="1"></path>       <path id="Caminho_3817" data-name="Caminho 3817" d="M212.14,189.83c.129.543.269,1.081.415,1.607" transform="translate(-177.213 -143.697)" fill="none" stroke="#263238" stroke-linecap="round" stroke-linejoin="round" stroke-width="1"></path>       <path id="Caminho_3818" data-name="Caminho 3818" d="M208.15,166.45s.584,5.528,1.753,11.272" transform="translate(-175.555 -133.979)" fill="none" stroke="#263238" stroke-linecap="round" stroke-linejoin="round" stroke-width="1"></path>       <path id="Caminho_3819" data-name="Caminho 3819" d="M211.38,164.4a49.73,49.73,0,0,1,1.718,5.844" transform="translate(-176.897 -133.127)" fill="none" stroke="#263238" stroke-linecap="round" stroke-linejoin="round" stroke-width="1"></path>       <line id="Linha_251" data-name="Linha 251" y1="34.296" x2="4.622" transform="translate(12.605 43.352)" fill="none" stroke="#263238" stroke-linecap="round" stroke-linejoin="round" stroke-width="1"></line>       <line id="Linha_252" data-name="Linha 252" y1="2.004" x2="0.275" transform="translate(11.897 80.85)" fill="none" stroke="#263238" stroke-linecap="round" stroke-linejoin="round" stroke-width="1"></line>       <line id="Linha_253" data-name="Linha 253" x1="0.941" y2="16.929" transform="translate(22.872 30.811)" fill="none" stroke="#263238" stroke-linecap="round" stroke-linejoin="round" stroke-width="1"></line>       <path id="Caminho_3820" data-name="Caminho 3820" d="M238.943,173.95s-3.161-3.763-4.412-4.359-5.294-1.385-6.808-2.279-1.934-.421-1.069.818,3.927,2.472,3.927,2.472,1.309,2.963,2.822,3.857l3.448,2.039Z" transform="translate(-183.061 -134.145)" fill="#fff" stroke="#263238" stroke-linecap="round" stroke-linejoin="round" stroke-width="1"></path>       <path id="Caminho_3821" data-name="Caminho 3821" d="M274.674,177.906s-6.031,0-6.919,1.6-4.786,11.173-6.381,13.861-1.6,3.366-1.6,3.366L243.645,177,238,181.809s18.793,31.2,20.213,31.736,10.1-6.562,11.167-7.094,6.919-26.062,6.919-26.062S277.684,178.969,274.674,177.906Z" transform="translate(-187.962 -138.364)" fill="#666" stroke="#263238" stroke-linecap="round" stroke-linejoin="round" stroke-width="1"></path>       <path id="Caminho_3822" data-name="Caminho 3822" d="M293.118,179.442l19.868-5.142S316,190.966,316,198.259s5.055,34.839,5.055,34.839-14.983,4.523-23.316,4.523a29.831,29.831,0,0,1-13.651-3.015s4.09-14.025,4.254-21.621-.888-17.911,0-23.959A17.285,17.285,0,0,1,293.118,179.442Z" transform="translate(-207.119 -137.242)" fill="#fff" stroke="#263238" stroke-linecap="round" stroke-linejoin="round" stroke-width="1"></path>       <line id="Linha_254" data-name="Linha 254" x2="6.206" y2="8.689" transform="translate(84.065 66.446)" fill="none" stroke="#263238" stroke-linecap="round" stroke-linejoin="round" stroke-width="1"></line>       <line id="Linha_255" data-name="Linha 255" x2="0.853" y2="1.245" transform="translate(90.505 78.39)" fill="none" stroke="#263238" stroke-linecap="round" stroke-linejoin="round" stroke-width="1"></line>       <line id="Linha_256" data-name="Linha 256" x2="3.553" y2="5.183" transform="translate(85.93 71.722)" fill="none" stroke="#263238" stroke-linecap="round" stroke-linejoin="round" stroke-width="1"></line>       <path id="Caminho_3823" data-name="Caminho 3823" d="M281.051,185.149s-.532,1.952-1.239,5.142-.532,5.318-.181,12.943,0,9.747-2.484,15.6-9.3,20.873-9.3,20.873l6.206,5.674s5.575-14.317,7.7-23.181,1.958-21.1,2.659-27.126,6.562-15.591,6.562-15.591l1.239-2.127a17.887,17.887,0,0,1-5.137.707,16.016,16.016,0,0,0-4.611.532" transform="translate(-200.369 -138.514)" fill="#666" stroke="#263238" stroke-linecap="round" stroke-linejoin="round" stroke-width="1"></path>       <path id="Caminho_3824" data-name="Caminho 3824" d="M322.439,173.076S313.4,188.854,311.629,194s-.532,8.181-.181,11.687,5.405,40.543,5.405,40.543,11.687-3.547,16.491-5.323,6.381-3.722,6.381-3.722-8.66-29.06-8.66-29.773,7.509-33.092,6.27-33.8S322.439,173.076,322.439,173.076Z" transform="translate(-218.178 -136.725)" fill="#666" stroke="#263238" stroke-linecap="round" stroke-linejoin="round" stroke-width="1"></path>       <path id="Caminho_3825" data-name="Caminho 3825" d="M295.877,168.743s.245,5.756-.859,8.456a9.935,9.935,0,0,1-2.448,3.792s4.9-2.448,6.738-4.406a32.645,32.645,0,0,0,3.676-5.259l-3.307-5.756Z" transform="translate(-210.643 -133.613)" fill="#263238" stroke="#263238" stroke-linecap="round" stroke-linejoin="round" stroke-width="1"></path>       <path id="Caminho_3826" data-name="Caminho 3826" d="M284.231,127.476a33.679,33.679,0,0,0-1.315,6.2c-.169,2.513.736,3.045.584,4.552s-2.408,4.161-2.074,5.335,2.337,1.841,2.337,1.841,1.513,5.844,2.016,7.375,2.676,1.005,4.856.333a42.7,42.7,0,0,0,4.675-1.841l2.01,4.856,11.395-5.528-4.856-19.284s-6.7-5.195-10.892-5.195Z" transform="translate(-205.997 -117.216)" fill="#fff" stroke="#263238" stroke-linecap="round" stroke-linejoin="round" stroke-width="1"></path>       <path id="Caminho_3827" data-name="Caminho 3827" d="M305.18,167.859l2.752-1.829-1.636,3.43Z" transform="translate(-215.885 -133.804)" fill="#263238" stroke="#263238" stroke-linecap="round" stroke-linejoin="round" stroke-width="1"></path>       <path id="Caminho_3828" data-name="Caminho 3828" d="M287.75,147.15c0,.742.275,1.344.614,1.344s.584-.584.584-1.344-.269-1.35-.584-1.35S287.75,146.4,287.75,147.15Z" transform="translate(-208.64 -125.396)" fill="#263238"></path>       <path id="Caminho_3829" data-name="Caminho 3829" d="M289.746,142.314s-1.6-2.817-3.676-1.1" transform="translate(-207.942 -123.259)" fill="none" stroke="#263238" stroke-linecap="round" stroke-linejoin="round" stroke-width="1"></path>       <path id="Caminho_3830" data-name="Caminho 3830" d="M292.557,159.63s-1.654,2.115-3.547,1.1" transform="translate(-209.164 -131.144)" fill="none" stroke="#263238" stroke-linecap="round" stroke-linejoin="round" stroke-width="1"></path>       <path id="Caminho_3831" data-name="Caminho 3831" d="M312.031,175.729a10.97,10.97,0,0,1-2.571,1.1c-3.138,1.122-4.167.368-4.167.368a66.5,66.5,0,0,1-1.245-6.632c-.123-1.835.4-1.543,3.7-2.069,3.687-.584,9.268-2.852,10.127-2.852s1.385-.088,1.385,1.017a38.863,38.863,0,0,0,1.1,5.142,45.14,45.14,0,0,1-8.333,3.921Z" transform="translate(-215.408 -133.645)" fill="#fff" stroke="#263238" stroke-linecap="round" stroke-linejoin="round" stroke-width="1"></path>       <path id="Caminho_3832" data-name="Caminho 3832" d="M298.943,132.368a7.419,7.419,0,0,1-3.185-.672,3.986,3.986,0,0,1-1.344-2.174s-7.205-1.847-10.384-5.844-5.364-4.359-3.857-6.2,11.9-4.862,15.252-6.2,8.4.841,13.078,4.669,4.529,4.353,5.195,9.215,5.195,21.785,5.195,21.785l-4.675,1.005s-2.682,5.364-7.538,8.041-7.708,3.021-7.708,3.021,3.851-8.549,3.851-15.924S298.943,132.368,298.943,132.368Z" transform="translate(-205.288 -110.883)" fill="#263238" stroke="#263238" stroke-linecap="round" stroke-linejoin="round" stroke-width="1"></path>       <path id="Caminho_3833" data-name="Caminho 3833" d="M308.91,146.6s1.338-6.872,4.523-4.675-.672,9.887-1.841,9.718a4.174,4.174,0,0,1-2.18-1.508" transform="translate(-217.435 -123.604)" fill="#fff" stroke="#263238" stroke-linecap="round" stroke-linejoin="round" stroke-width="1"></path>       <path id="Caminho_3834" data-name="Caminho 3834" d="M408.3,188.373s5.107-1.023,6.3-1.023,1.531,1.169,1.017,1.362-1.362.514-1.362.514,2.045.508,1.362,1.017l-1.362,1.023s1.706.853,1.023,1.531a3.343,3.343,0,0,1-2.039.684s1.7,1.023.678,1.531-3.407-.339-3.407-.339a11.4,11.4,0,0,1-3.57,2.554,7.807,7.807,0,0,1-4.26.339l-3.249,1.852-2.215-4.938Z" transform="translate(-254.136 -142.666)" fill="#fff" stroke="#263238" stroke-linecap="round" stroke-linejoin="round" stroke-width="1"></path>       <path id="Caminho_3835" data-name="Caminho 3835" d="M342.776,173.608s4.611-1.239,6.562,0,2.484,11.687,2.484,11.687l5.844,13.651,16.491-11.173,5.318,7.8s-21.1,19.331-22.872,20.038a2.776,2.776,0,0,1-3.547-.888c-.707-.882-13.475-22.515-13.475-22.515" transform="translate(-230.183 -136.725)" fill="#666" stroke="#263238" stroke-linecap="round" stroke-linejoin="round" stroke-width="1"></path>       <path id="Caminho_3836" data-name="Caminho 3836" d="M424.3,207.32l-10.349.5v44.329h12.289Z" transform="translate(-261.094 -150.966)" fill="#666" stroke="#263238" stroke-linecap="round" stroke-linejoin="round" stroke-width="1"></path>       <path id="Caminho_3837" data-name="Caminho 3837" d="M391.438,215.173l2.922-2.016a27.587,27.587,0,0,0,9.5-11.9l2.431-5.674h3.863l2.431,5.674a27.587,27.587,0,0,0,9.5,11.9l2.922,2.016a6.539,6.539,0,0,1,2.63,5.394H388.809a6.539,6.539,0,0,1,2.63-5.394Zm15.7,3h16.689c0-1.788-2.857-3.448-3.985-4.359l-2.022-1.63a22.053,22.053,0,0,1-6.574-9.63l-1.689-4.593h-2.671l-1.689,4.593a22.053,22.053,0,0,1-6.574,9.63l-2.022,1.63c-1.128.912-3.927,2.571-3.927,4.359Z" transform="translate(-250.644 -146.087)" fill="#fff" stroke="#263238" stroke-linecap="round" stroke-linejoin="round" stroke-width="1"></path>       <path id="Caminho_3838" data-name="Caminho 3838" d="M420.378,187.187v-4.166S418,181.233,418,178.656s1.981-3.57,4.166-2.776" transform="translate(-262.777 -137.787)" fill="none" stroke="#263238" stroke-linecap="round" stroke-linejoin="round" stroke-width="1"></path>       <path id="Caminho_3839" data-name="Caminho 3839" d="M407.1,206.472l-4.476,39.549L397.13,205.28s-9.391,9.613-12.482,11.3-5.9,3.933-6.744,8.426-5.335,49.437-5.335,49.437l10.39.584-.935,25.414h41.928l-2.524-26.536h9.829s-6.177-48.6-7.865-51.967S407.1,206.472,407.1,206.472Z" transform="translate(-243.895 -150.118)" fill="#8f00fc" stroke="#263238" stroke-linecap="round" stroke-linejoin="round" stroke-width="1"></path>       <path id="Caminho_3840" data-name="Caminho 3840" d="M427.736,207.32l-5.516,42.191,1.315,1.753,12.272-36.423S431.944,208.582,427.736,207.32Z" transform="translate(-264.531 -150.966)" fill="#263238" stroke="#263238" stroke-linecap="round" stroke-linejoin="round" stroke-width="1"></path>       <path id="Caminho_3841" data-name="Caminho 3841" d="M407.758,205.243l7.538,55.666-17.116-47.4S407.81,204.308,407.758,205.243Z" transform="translate(-254.539 -150.075)" fill="#263238" stroke="#263238" stroke-linecap="round" stroke-linejoin="round" stroke-width="1"></path>       <path id="Caminho_3842" data-name="Caminho 3842" d="M454.328,233.76s8.035,39.029,9.788,48.244,2.635,24.14,2.635,24.14l-15.363.438L447,240.749" transform="translate(-274.831 -161.956)" fill="#8f00fc" stroke="#263238" stroke-linecap="round" stroke-linejoin="round" stroke-width="1"></path>       <rect id="Ret창ngulo_325" data-name="Ret창ngulo 325" width="17.303" height="5.867" rx="1.13" transform="translate(192.925 145.713) rotate(180)" fill="#263238" stroke="#263238" stroke-linecap="round" stroke-linejoin="round" stroke-width="1"></rect>       <path id="Caminho_3843" data-name="Caminho 3843" d="M374.548,233.76s-8.029,39.029-9.782,48.244-2.635,24.14-2.635,24.14l15.363.438,4.389-65.834" transform="translate(-239.555 -161.956)" fill="#8f00fc" stroke="#263238" stroke-linecap="round" stroke-linejoin="round" stroke-width="1"></path>       <rect id="Ret창ngulo_326" data-name="Ret창ngulo 326" width="17.303" height="5.867" rx="1.13" transform="translate(138.755 145.713) rotate(180)" fill="#263238" stroke="#263238" stroke-linecap="round" stroke-linejoin="round" stroke-width="1"></rect>       <line id="Linha_257" data-name="Linha 257" y2="39.257" transform="translate(160.756 110.833)" fill="#fff" stroke="#263238" stroke-linecap="round" stroke-linejoin="round" stroke-width="1"></line>       <path id="Caminho_3844" data-name="Caminho 3844" d="M401.88,192.6c1.619-1.4,3.617-4.552,4.348-4.844,1.28-.526,5.37-1.081,6.93-1.887s1.958-.3,1.017.888S410.131,189,410.131,189s-1.478,2.875-3.039,3.681l-1.034.555" transform="translate(-256.077 -141.888)" fill="#fff" stroke="#263238" stroke-linecap="round" stroke-linejoin="round" stroke-width="1"></path>     </g>     <g id="freepik--Floor--inject-92" transform="translate(16.468 281.524)">       <line id="Linha_258" data-name="Linha 258" x2="276.401" fill="none" stroke="#263238" stroke-linecap="round" stroke-linejoin="round" stroke-width="1"></line>     </g>   </g> </svg>