<svg xmlns="http://www.w3.org/2000/svg" xmlns:xlink="http://www.w3.org/1999/xlink" width="251.775" height="233.545" viewBox="0 0 251.775 233.545"><defs><clipPath id="a"><path d="M256.359,326.654l7.086-60.984-83.535,1.144.5,58.886Z" transform="translate(-179.91 -265.67)" fill="#8f00fc" stroke="#263238" stroke-linecap="round" stroke-linejoin="round" stroke-width="1"/></clipPath><clipPath id="b"><path d="M166.75,269.188l3.373-12.932-1.442-46.026,38.606-7.89,17.4,41.043,8.469,10.685-5.894,10.221-46.02,9.774Z" transform="translate(-166.75 -202.34)" fill="#8f00fc" stroke="#263238" stroke-linecap="round" stroke-linejoin="round" stroke-width="1"/></clipPath><clipPath id="c"><path d="M215.71,252.177l9.78-9.106L248.94,203.44l36.818,14.035-7.312,43.97L279.87,275l-10.453,5.471L225.323,264.06Z" transform="translate(-215.71 -203.44)" fill="#8f00fc" stroke="#263238" stroke-linecap="round" stroke-linejoin="round" stroke-width="1"/></clipPath><clipPath id="d"><path d="M246.566,320.94l-7.581,9.041-47.015,1.645-13.421-7.312.119-.256,5.441-11.9,6.561-45.579,39.393-1.073,3.915,16.979,6.1,26.46,6.466,11.943Z" transform="translate(-178.55 -265.51)" fill="#8f00fc" stroke="#263238" stroke-linecap="round" stroke-linejoin="round" stroke-width="1"/></clipPath></defs><g transform="translate(-39.064 -50.958)"><g transform="translate(39.064 50.958)"><path d="M81.1,284H254.446c51.371-63.368,40.6-112.82,15.048-128.2-16.6-9.994-34.845,0-47.456-15.548s2-48.088-16.347-74.232-50.257-14.172-66.64,4.988-23.242,71.371-54.411,63.04-62.9,23.892-34.571,65.5C76.571,238.464,80.677,278.918,81.1,284Z" transform="translate(-39.064 -50.958)" fill="#8f00fc"/><path d="M81.1,284H254.446c51.371-63.368,40.6-112.82,15.048-128.2-16.6-9.994-34.845,0-47.456-15.548s2-48.088-16.347-74.232-50.257-14.172-66.64,4.988-23.242,71.371-54.411,63.04-62.9,23.892-34.571,65.5C76.571,238.464,80.677,278.918,81.1,284Z" transform="translate(-39.064 -50.958)" fill="#fff" opacity="0.7"/></g><g transform="translate(43.293 284.001)"><line x2="242.959" fill="none" stroke="#263238" stroke-linecap="round" stroke-linejoin="round" stroke-width="1"/></g><g transform="translate(56.732 62.687)"><path d="M377.54,237.64l23.82,5.7,1.12-3.933" transform="translate(-193.491 -138.116)" fill="none" stroke="#263238" stroke-linecap="round" stroke-linejoin="round" stroke-width="1"/><path d="M359.659,196.85l-4.219,21.162,8.463,2.02" transform="translate(-184.562 -121.635)" fill="none" stroke="#263238" stroke-linecap="round" stroke-linejoin="round" stroke-width="1"/><path d="M397.7,214.761l6.126-21.532-39.41-8.91-.894,4.505" transform="translate(-187.827 -116.572)" fill="none" stroke="#263238" stroke-linecap="round" stroke-linejoin="round" stroke-width="1"/><line x1="0.656" y2="3.069" transform="translate(165.985 191.981)" fill="none" stroke="#263238" stroke-linecap="round" stroke-linejoin="round" stroke-width="1"/><line x1="15.417" y2="72.462" transform="translate(167.642 114.811)" fill="none" stroke="#263238" stroke-linecap="round" stroke-linejoin="round" stroke-width="1"/><line x1="1.841" y2="8.665" transform="translate(184.049 101.491)" fill="none" stroke="#263238" stroke-linecap="round" stroke-linejoin="round" stroke-width="1"/><line x1="8.814" y2="42.372" transform="translate(170.669 144.507)" fill="none" stroke="#263238" stroke-linecap="round" stroke-linejoin="round" stroke-width="1"/><line x1="7.896" y2="37.968" transform="translate(180.413 102.069)" fill="none" stroke="#263238" stroke-linecap="round" stroke-linejoin="round" stroke-width="1"/><path d="M100.2,252.024l24.232-3.594-.423-4.07" transform="translate(-81.433 -140.831)" fill="none" stroke="#263238" stroke-linecap="round" stroke-linejoin="round" stroke-width="1"/><path d="M71.06,224.97l3.975,21.21,8.606-1.275" transform="translate(-69.66 -132.996)" fill="none" stroke="#263238" stroke-linecap="round" stroke-linejoin="round" stroke-width="1"/><path d="M110.945,223.891,108.6,201.62,68.71,208.05l.846,4.517" transform="translate(-68.71 -123.562)" fill="none" stroke="#263238" stroke-linecap="round" stroke-linejoin="round" stroke-width="1"/><line x2="0.536" y2="3.087" transform="translate(37.098 203.477)" fill="none" stroke="#263238" stroke-linecap="round" stroke-linejoin="round" stroke-width="1"/><line x2="12.718" y2="72.987" transform="translate(23.552 125.746)" fill="none" stroke="#263238" stroke-linecap="round" stroke-linejoin="round" stroke-width="1"/><line x2="1.52" y2="8.725" transform="translate(21.21 112.331)" fill="none" stroke="#263238" stroke-linecap="round" stroke-linejoin="round" stroke-width="1"/><line x2="7.628" y2="42.605" transform="translate(31.305 154.632)" fill="none" stroke="#263238" stroke-linecap="round" stroke-linejoin="round" stroke-width="1"/><line x2="6.83" y2="38.177" transform="translate(23.671 111.962)" fill="none" stroke="#263238" stroke-linecap="round" stroke-linejoin="round" stroke-width="1"/></g><g transform="translate(40.319 210.337)"><path d="M92.224,384.9a33.374,33.374,0,0,0-.369,3.9c.119,1.555.471,14.13.471,14.13l-.471.495c-.471.495-1.3-.781-1.3-.781s0-.775-2.312-11.877c-.65-3.111-1.675-6.746-2.515-10.262a46.944,46.944,0,0,1-1.418-8.421,13.386,13.386,0,0,1,1.788-7.747l7.4-3.737s1.067,1.424,1.788,2.306-1.442,10.548-1.442,10.548S92.8,380.32,92.224,384.9Z" transform="translate(-58.594 -335.446)" fill="#8f00fc" stroke="#263238" stroke-linecap="round" stroke-linejoin="round" stroke-width="1"/><path d="M93.3,416.426l-.471.495c-.471.495-1.3-.781-1.3-.781s0-.775-2.312-11.877c-.65-3.111-1.675-6.746-2.515-10.262a23.839,23.839,0,0,0,6.5,4.4,33.372,33.372,0,0,0-.369,3.9C92.946,403.851,93.3,416.426,93.3,416.426Z" transform="translate(-59.566 -348.941)" fill="#263238"/><path d="M78.972,344.41c-.918.232-4.172,11.6-4.172,11.6s1.12,1.925,1.24,1.788,4.4-8.8,4.4-8.8Z" transform="translate(-54.758 -328.905)" fill="#fff" stroke="#263238" stroke-linecap="round" stroke-linejoin="round" stroke-width="1"/><path d="M89.438,323.918a7.4,7.4,0,0,0,3.79,3.522c1.007.518-.215,2.914.65,4.446s3.1.2,3.1.2-.2,3.492-2.908,3.451a1.252,1.252,0,0,0,1.1.632s-6.556,3.969-12.968,1.138-3.5-8.939-3.5-8.939-2.241,2.318-1.788,5.03c0,0-3.188-4.482,1.138-6.555s4.815-5.364,6.83-5.03A14.2,14.2,0,0,1,89.438,323.918Z" transform="translate(-55.158 -319.765)" fill="#263238"/><path d="M92.271,333.428s-.822,3.3-.232,4.362-5.149,1.377-5.149,1.377a3.949,3.949,0,0,0,1.3-4.13C87.367,332.6,92.271,333.428,92.271,333.428Z" transform="translate(-59.643 -324.413)" fill="#fff" stroke="#263238" stroke-linecap="round" stroke-linejoin="round" stroke-width="1"/><path d="M96.382,431a24.89,24.89,0,0,1,.56,3.236c0,.787-.077,4.088-1.651,3.147s-.667-6.293-.667-6.293Z" transform="translate(-62.663 -363.891)" fill="#263238"/><path d="M102.048,391.658s1.508,3.135,1.269,4.672-2.592,1.573-2.67-2.336S102.048,391.658,102.048,391.658Z" transform="translate(-65.201 -347.869)" fill="#757575" stroke="#263238" stroke-linecap="round" stroke-linejoin="round" stroke-width="1"/><path d="M84.84,324c.244-3.951,9.237-4.881,7.485,2.509S84.327,332.46,84.84,324Z" transform="translate(-58.803 -319.44)" fill="#fff" stroke="#263238" stroke-linecap="round" stroke-linejoin="round" stroke-width="1"/><path d="M81.569,341.418s8.719-3.8,10.727-3.236,1.389,12.885,0,14.261c-2.849,2.825-7.962,2.819-7.962,2.819S76.736,345.029,81.569,341.418Z" transform="translate(-56.843 -326.366)" fill="#757575" stroke="#263238" stroke-linecap="round" stroke-linejoin="round" stroke-width="1"/><path d="M95.55,369.331c-1.019-.316-3.379,2.98-3.379,2.98a48.111,48.111,0,0,0-1.144,14.124c.971,2.205,2.443,1.091,4.476-.8s3.153-9.309,4.452-14.345-3.206-9.142-3.206-9.142" transform="translate(-61.271 -336.073)" fill="#8f00fc" stroke="#263238" stroke-linecap="round" stroke-linejoin="round" stroke-width="1"/><path d="M88.27,375.94s1.418,1.788,2.831,1.949" transform="translate(-60.201 -341.644)" fill="#8f00fc" stroke="#263238" stroke-linecap="round" stroke-linejoin="round" stroke-width="1"/><path d="M86.527,322.026c-1.675-.864-3.379,2.044-6.442,3.933s-4-.471-4-.471,1.567.31,1.788-.393a6.215,6.215,0,0,1,4.172-5.715c4.362-1.83,6.228-.685,6.7,0a7.032,7.032,0,0,1,1.412,3.159c.471,2,1.5,4.309.471,4.172C87.159,326.15,86.527,322.026,86.527,322.026Z" transform="translate(-55.275 -318.393)" fill="#263238"/><path d="M99.869,338.22c.906.042,6.347,8.51,6.347,8.51l-1.019,2.008-5.328-5.286s-1.466-1.508-1.192-2.664a10.614,10.614,0,0,1,1.192-2.569Z" transform="translate(-64.392 -326.404)" fill="#fff" stroke="#263238" stroke-linecap="round" stroke-linejoin="round" stroke-width="1"/><path d="M104.75,358.382l2.449,8.9.167,2.837,8.194-2.259,3.242-3.17-1.645-1.49-4.231-9.863-7.306,2.849Z" transform="translate(-66.859 -332.513)" fill="#263238"/><path d="M108.039,355.429s-1.955-2.461-.244-4.142,3.5,2.443,3.5,2.443" transform="translate(-67.806 -331.521)" fill="none" stroke="#263238" stroke-linecap="round" stroke-linejoin="round" stroke-width="1"/><path d="M108.62,356.109l4.285,8.182.769,2.735,7.533-3.951,2.485-3.79-1.919-1.108-6.234-8.737L109,353.784Z" transform="translate(-68.423 -330.937)" fill="#757575" stroke="#263238" stroke-linecap="round" stroke-linejoin="round" stroke-width="1"/><path d="M110.736,353.465s-2.437-1.99-1.12-3.993,3.945,1.639,3.945,1.639" transform="translate(-68.667 -330.707)" fill="none" stroke="#263238" stroke-linecap="round" stroke-linejoin="round" stroke-width="1"/><path d="M128.047,365.96l-8.022,3.617L119.4,371.4" transform="translate(-72.778 -337.612)" fill="none" stroke="#263238" stroke-linecap="round" stroke-linejoin="round" stroke-width="1"/><path d="M116.773,366.834l-1.335-1.222-4.088-6.442" transform="translate(-69.526 -334.868)" fill="none" stroke="#263238" stroke-linecap="round" stroke-linejoin="round" stroke-width="1"/><path d="M72.5,366.7l-1.883,9.041.012,2.843L62.3,376.84l-3.433-2.962,1.549-1.591,3.6-10.107,7.473,2.384Z" transform="translate(-48.322 -336.085)" fill="#757575" stroke="#263238" stroke-linecap="round" stroke-linejoin="round" stroke-width="1"/><path d="M75.343,363.651s1.788-2.58,0-4.172S72,362.161,72,362.161" transform="translate(-53.627 -334.85)" fill="none" stroke="#263238" stroke-linecap="round" stroke-linejoin="round" stroke-width="1"/><path d="M58.87,381.81l8.766,1.627,1.335,1.853" transform="translate(-48.322 -344.016)" fill="none" stroke="#263238" stroke-linecap="round" stroke-linejoin="round" stroke-width="1"/><path d="M73.58,378.475l.787-1.555,2.408-7.39" transform="translate(-54.265 -339.054)" fill="none" stroke="#263238" stroke-linecap="round" stroke-linejoin="round" stroke-width="1"/><path d="M67.735,364.616l-3.76,8.439-.6,2.777-7.765-3.468-2.724-3.629,1.853-1.222,5.673-9.112,6.794,3.921Z" transform="translate(-45.905 -334.557)" fill="#8f00fc" stroke="#263238" stroke-linecap="round" stroke-linejoin="round" stroke-width="1"/><path d="M72.408,361.882s2.306-2.139.864-4.058-3.832,1.889-3.832,1.889" transform="translate(-52.592 -334.106)" fill="none" stroke="#263238" stroke-linecap="round" stroke-linejoin="round" stroke-width="1"/><path d="M52.89,375.74l7.855,3.135L62,380.984" transform="translate(-45.905 -341.564)" fill="none" stroke="#263238" stroke-linecap="round" stroke-linejoin="round" stroke-width="1"/><path d="M66.07,375.622l1.257-1.49,3.611-6.442" transform="translate(-51.231 -338.311)" fill="none" stroke="#263238" stroke-linecap="round" stroke-linejoin="round" stroke-width="1"/><path d="M55.5,352.836l-8.111,4.416L45.228,359.1l-4.058-7.473.036-4.535,2.217.155,10.036-3.8,3.021,7.241Z" transform="translate(-41.17 -328.517)" fill="#bfbfbf" stroke="#263238" stroke-linecap="round" stroke-linejoin="round" stroke-width="1"/><path d="M64.169,351.355s3.135-.3,3.153-2.7-4.172-.828-4.172-.828" transform="translate(-50.051 -330.081)" fill="none" stroke="#263238" stroke-linecap="round" stroke-linejoin="round" stroke-width="1"/><path d="M41.23,349.56l4.339,7.259-.286,2.443" transform="translate(-41.194 -330.986)" fill="none" stroke="#263238" stroke-linecap="round" stroke-linejoin="round" stroke-width="1"/><path d="M48.51,359.473l1.907-.423,6.782-2.92" transform="translate(-44.136 -333.64)" fill="none" stroke="#263238" stroke-linecap="round" stroke-linejoin="round" stroke-width="1"/><path d="M73.073,356.336,69.73,352.76l-1.83.37s1.973,5.626,4.124,6.281S73.073,356.336,73.073,356.336Z" transform="translate(-51.97 -332.279)" fill="#fff" stroke="#263238" stroke-linecap="round" stroke-linejoin="round" stroke-width="1"/><path d="M109.153,347.781c.328-.6,2.563-4.631,2.563-4.631l1.7.215s-1.7,8.427-4.112,7.366A2.8,2.8,0,0,1,109.153,347.781Z" transform="translate(-68.497 -328.396)" fill="#fff" stroke="#263238" stroke-linecap="round" stroke-linejoin="round" stroke-width="1"/><path d="M67.7,351.174c-.763-.912-1.651-3.111-1.418-3.474s1.6-1.9,1.746-1.71l.632.8s.28-.864.6-.393.691,3.713-.137,4.13" transform="translate(-51.302 -329.537)" fill="#fff" stroke="#263238" stroke-linecap="round" stroke-linejoin="round" stroke-width="1"/><path d="M69.33,347.33a5.233,5.233,0,0,1,.459,2.014c-.089.775-1.228,1.526-1.889,1.687" transform="translate(-51.97 -330.085)" fill="none" stroke="#263238" stroke-linecap="round" stroke-linejoin="round" stroke-width="1"/><path d="M118.717,343.58,126.828,348l2.157,1.847,4.058-7.467-.036-4.535-2.211.149-10.042-3.79-3.016,7.241Z" transform="translate(-72.108 -324.779)" fill="#8f00fc" stroke="#263238" stroke-linecap="round" stroke-linejoin="round" stroke-width="1"/><path d="M117.593,342.1s-3.129-.3-3.153-2.694,4.172-.828,4.172-.828" transform="translate(-70.774 -326.345)" fill="none" stroke="#263238" stroke-linecap="round" stroke-linejoin="round" stroke-width="1"/><path d="M140.423,340.31l-4.333,7.259.28,2.437" transform="translate(-79.522 -327.248)" fill="none" stroke="#263238" stroke-linecap="round" stroke-linejoin="round" stroke-width="1"/><path d="M130.2,350.219l-1.907-.423-6.782-2.926" transform="translate(-73.631 -329.899)" fill="none" stroke="#263238" stroke-linecap="round" stroke-linejoin="round" stroke-width="1"/><path d="M114.6,341.911c.769-.906,1.657-3.111,1.418-3.474s-1.591-1.9-1.74-1.716-.638.8-.638.8-.274-.858-.6-.387-.685,3.707.137,4.124" transform="translate(-70.063 -325.792)" fill="#fff" stroke="#263238" stroke-linecap="round" stroke-linejoin="round" stroke-width="1"/><path d="M113.983,338.07a5.155,5.155,0,0,0-.453,2.014c.089.781,1.192,1.526,1.889,1.693" transform="translate(-70.407 -326.343)" fill="none" stroke="#263238" stroke-linecap="round" stroke-linejoin="round" stroke-width="1"/></g><g transform="translate(237.958 192.415)"><path d="M378.619,431.038a8.42,8.42,0,0,0-.942,3.4c0,1.651-.53,2.771.5,2.914s2.682.274,2.682-.2v-1.192s.822-4.434,0-4.929A3.222,3.222,0,0,0,378.619,431.038Z" transform="translate(-374.718 -345.894)" fill="#fff" stroke="#263238" stroke-linecap="round" stroke-linejoin="round" stroke-width="1"/><path d="M393.411,369.77s.7,15.167-.632,19.488-10.531,16.9-10.531,16.9-.471,1.889-1.728,1.728a2.193,2.193,0,0,1-1.651-2.747c.477-.864,1.788-3.54,1.788-3.54s5.03-11.293,5.817-12.837-2.908-8.689-2.908-8.689l-1.871-4.946-.078-4.958Z" transform="translate(-375.201 -321.23)" fill="#999" stroke="#263238" stroke-linecap="round" stroke-linejoin="round" stroke-width="1"/><path d="M398.114,410.908l-.954,3.016a38.66,38.66,0,0,0,1.335,3.659c.6,1.24,2.586,1.937,2.884,1.007s-.447-4.869-.447-4.869,1.085-2.253.316-2.557A13.283,13.283,0,0,0,398.114,410.908Z" transform="translate(-382.645 -337.85)" fill="#fff" stroke="#263238" stroke-linecap="round" stroke-linejoin="round" stroke-width="1"/><path d="M382.825,317.1c-2.515.6-4.768,1.311-4.088,6.818a4.7,4.7,0,0,0,1.633,3.343h0a2.312,2.312,0,0,1,0,2.277c-.685,1.192,4.738.7,4.738.7a2.858,2.858,0,0,1,0-2.789h0a5.589,5.589,0,0,0,1.907-1.192C388.415,324.727,385.34,316.49,382.825,317.1Z" transform="translate(-375.151 -299.935)" fill="#fff" stroke="#263238" stroke-linecap="round" stroke-linejoin="round" stroke-width="1"/><path d="M377.5,316.228s-.268-1.6-1.329-2.068,2.831.232,2.831,0a17.939,17.939,0,0,0-.6-1.877s2.122-.22,2.712,1.329,1.192-.566,1.651-.423.632,1.943.632,1.943l1.1-.882s1.9,3.749.948,5.131c0,0-1.788-1.949-3.576-2.05A3.8,3.8,0,0,0,379.2,318l.131,3.379s-.328-1.573-1.12-.56c-.447.6.322,3.039.322,3.039a3.6,3.6,0,0,1-2.539-2.9C375.352,318.4,377.5,316.228,377.5,316.228Z" transform="translate(-374.043 -297.998)" fill="#263238"/><path d="M373.564,338.711c.787-1.669,9.9-2.384,13.671-1.985s5.268,24.047,5.268,24.047-.751-1.788-5.185-1.424a23.135,23.135,0,0,0-8.439,2.527l-.942-7.914s-4.768-10.209-5.03-11.365a5.566,5.566,0,0,1,.656-3.886Z" transform="translate(-372.804 -307.835)" fill="#263238"/><path d="M383.55,333.191a5.582,5.582,0,0,0,3.629.149c1.681-.65.6-1.24.6-1.24S384.289,333.608,383.55,333.191Z" transform="translate(-377.146 -306.009)" fill="#263238"/><path d="M389.266,289.7l9.082-1.377,12.289,2.491v2.08L399,293.612l-9.744-.769.006-2.664" transform="translate(-379.453 -288.32)" fill="#999" stroke="#263238" stroke-linecap="round" stroke-linejoin="round" stroke-width="1"/><path d="M393.26,295.73l8.087.5,9.976,4.38-1.186,4.851-9.964-1.579-8.4-2.044Z" transform="translate(-380.467 -291.314)" fill="#999" stroke="#263238" stroke-linecap="round" stroke-linejoin="round" stroke-width="1"/><line x1="0.763" y2="3.141" transform="translate(20.117 4.917)" fill="#757575" stroke="#263238" stroke-linecap="round" stroke-linejoin="round" stroke-width="1"/><path d="M389.26,294.637l9.648-1.877,9.941,1.1" transform="translate(-379.453 -290.114)" fill="#999" stroke="#263238" stroke-linecap="round" stroke-linejoin="round" stroke-width="1"/><path d="M391.77,305.136l8.3-1.246,8.969,3.439" transform="translate(-380.467 -294.611)" fill="#999" stroke="#263238" stroke-linecap="round" stroke-linejoin="round" stroke-width="1"/><path d="M389.36,311.365l5.971.6h15.215v-3.379l-13.326-2.962-7.861,3.451Z" transform="translate(-379.493 -295.31)" fill="#8f00fc" stroke="#263238" stroke-linecap="round" stroke-linejoin="round" stroke-width="1"/><path d="M391.71,312.724l1.275,7.044h17.6v-7.6l-11.627-1.573Z" transform="translate(-380.443 -297.318)" fill="#8f00fc" stroke="#263238" stroke-linecap="round" stroke-linejoin="round" stroke-width="1"/><path d="M403.87,310.59l.513,7.306,9.547,1.228" transform="translate(-385.356 -297.318)" fill="#8f00fc" stroke="#263238" stroke-linecap="round" stroke-linejoin="round" stroke-width="1"/><line y1="1.21" transform="translate(17.847 10.906)" fill="#8f00fc" stroke="#263238" stroke-linecap="round" stroke-linejoin="round" stroke-width="1"/><path d="M387.52,325.045l9.076-1.395,12.295,2.461v2.08l-11.627.751-9.744-.751v-2.67" transform="translate(-378.75 -302.595)" fill="#999" stroke="#263238" stroke-linecap="round" stroke-linejoin="round" stroke-width="1"/><path d="M389.36,329.514l7.98-1.424,10.727,1.9v4.994l-10.06.822H389.36Z" transform="translate(-379.493 -304.389)" fill="#999" stroke="#263238" stroke-linecap="round" stroke-linejoin="round" stroke-width="1"/><path d="M393.608,340.962l-.358-3.385,6.329-1.687,13.475,2.533v2.539l-9.9,1.031Z" transform="translate(-381.065 -307.54)" fill="#757575" stroke="#263238" stroke-linecap="round" stroke-linejoin="round" stroke-width="1"/><path d="M396.058,342.091l4.321-1.061,12.515,2.1v6.1s-11.871.405-12.515.405-5.149-.405-5.149-.405Z" transform="translate(-381.865 -309.617)" fill="#757575" stroke="#263238" stroke-linecap="round" stroke-linejoin="round" stroke-width="1"/><path d="M403.87,341.03v6.758l10.882.423" transform="translate(-385.356 -309.617)" fill="#757575" stroke="#263238" stroke-linecap="round" stroke-linejoin="round" stroke-width="1"/><line y2="3.236" transform="translate(17.847 23.701)" fill="#757575" stroke="#263238" stroke-linecap="round" stroke-linejoin="round" stroke-width="1"/><path d="M389.98,357.4l5.971.6H411.16v-3.379l-13.326-2.962L389.98,355.1Z" transform="translate(-379.744 -313.908)" fill="#8f00fc" stroke="#263238" stroke-linecap="round" stroke-linejoin="round" stroke-width="1"/><path d="M392.32,358.754,393.6,365.8h17.6v-7.6l-11.633-1.573Z" transform="translate(-380.689 -315.916)" fill="#8f00fc" stroke="#263238" stroke-linecap="round" stroke-linejoin="round" stroke-width="1"/><path d="M404.48,356.62l.513,7.306,9.547,1.228" transform="translate(-385.602 -315.916)" fill="#8f00fc" stroke="#263238" stroke-linecap="round" stroke-linejoin="round" stroke-width="1"/><line y1="1.21" transform="translate(18.21 38.338)" fill="#8f00fc" stroke="#263238" stroke-linecap="round" stroke-linejoin="round" stroke-width="1"/><path d="M375.88,347.456s.453-4.47,3.325-4.416l3.611,6.812,8.343-5.364s3.111-1.061,3.969-.7a1.633,1.633,0,0,1,1.013,1.079h-1.013l1.687,1.263s-.536,1.311-1.687,1.192a15.049,15.049,0,0,0-2.867.119s-8.343,6.1-9.44,7.056S375.88,347.456,375.88,347.456Z" transform="translate(-374.047 -310.429)" fill="#fff" stroke="#263238" stroke-linecap="round" stroke-linejoin="round" stroke-width="1"/><path d="M423.216,365.936s1.395-.477,1.478,0,.066,4.768-.6,4.613-2.223-.143-2.02-.6S423.216,365.936,423.216,365.936Z" transform="translate(-392.705 -319.595)" fill="#fff" stroke="#263238" stroke-linecap="round" stroke-linejoin="round" stroke-width="1"/><path d="M383.678,377.138s-.554,6.174,1.323,8.23,9.19-1.323,9.19-1.323L392.635,396.3s1.639,1.573,3.337.942c.912-.334,7.575-19.225,6.317-21.669s-14.154,1.383-14.154,1.383" transform="translate(-377.167 -323.246)" fill="#999" stroke="#263238" stroke-linecap="round" stroke-linejoin="round" stroke-width="1"/><path d="M400.954,388.207s-1.126-1.788-.328-3.147" transform="translate(-383.929 -327.407)" fill="none" stroke="#263238" stroke-linecap="round" stroke-linejoin="round" stroke-width="1"/><path d="M397.16,387.7a3.266,3.266,0,0,0,1.9,1.841" transform="translate(-382.645 -328.474)" fill="none" stroke="#263238" stroke-linecap="round" stroke-linejoin="round" stroke-width="1"/></g><g transform="translate(88.527 81.579)"><path d="M260.8,140.935s-2.354,3.611-5.185,1.567-3.772-4.237-7.229-3.611a6.524,6.524,0,0,1,4.869,0c2.354,1.1,5.745-3.147,5.745-3.147l-3.069-1.949s-1.883,3.677-3.617,2.42-3.457-4.213-6.6-2.42c-.6.346-1.037.113-1.365-.5,1.156-2.145,3.319-6.77,2.622-10.274a11.709,11.709,0,0,0-.953-2.92c1.472,1.341,3.409,2.6,5.113,2.074L249.01,119.4s-2.92.763-7.873-5.656c-1.7-2.205-5.566-6.913-14.053-3.671-5.96,2.271-12.759,4.768-13.963,9.327s.149,9.792-5.083,11.418-8.224-.232-8.85,2.98,1.162,3.576,1.162,3.576l2.294-.6s-2.515-1.788-1.412-2.283a19.249,19.249,0,0,1,4.273-.691s-2.074,1.478-1.919,2.11,1.1,3.927-1.257,4.082-7.5-1.412-8.939,1.257c0,0,2.652.471,3.129,1.418,0,0,.912-.471,3.832,0s7.074.626,6.961-2.831c0,0,2.384,4.4-5.292,4.088,0,0,2.02,3.141,2.58,4.4s17.283,5.03,22.122,5.03,17.515-5.632,18.016-5.632h2.384l4.7-1.418s-.191-2.64-6.412-3.242l-.673-.06c-6.883-.471,6.162-1.1,9.148,1.573s8.474.632,8.474.632ZM238.748,119.4s2.718-.262,4.923,3.8c1.192,2.235.661,5.221-.077,7.455-.739-3.76-1.377-9.595-4.851-11.258Z" transform="translate(-150.882 -105.017)" fill="#263238"/><path d="M251.124,145.63s-4.964,10.9,3.021,12c0,0-5.834,4.172-9.225,4.172s-8.57-4.172-8.57-4.172,3.719-.936,3.707-3.927a23.518,23.518,0,0,0-1.663-7.032Z" transform="translate(-168.239 -119.831)" fill="#fff" stroke="#263238" stroke-linecap="round" stroke-linejoin="round" stroke-width="1"/><path d="M230.833,133.754s-1.192-1.228-1.788-.828a2.557,2.557,0,0,0-.965,2.592c.322,1.049,1.722,2.867,1.83,3.927s.828,2.259,1.621,1.555S230.833,133.754,230.833,133.754Z" transform="translate(-164.874 -114.666)" fill="#fff" stroke="#263238" stroke-linecap="round" stroke-linejoin="round" stroke-width="1"/><path d="M268.1,133.754s1.192-1.228,1.788-.828a2.557,2.557,0,0,1,.965,2.592c-.322,1.049-1.722,2.867-1.83,3.927S268.2,141.7,267.4,141,268.1,133.754,268.1,133.754Z" transform="translate(-180.692 -114.666)" fill="#fff" stroke="#263238" stroke-linecap="round" stroke-linejoin="round" stroke-width="1"/><path d="M243.74,108.1c-15.137,0-11.043,18.3-8.254,24.774.977,2.277,5.912,4.136,8.343,4.136,2.283,0,6.734-1.675,7.658-3.808C254.324,126.694,258.174,108.1,243.74,108.1Z" transform="translate(-166.803 -104.667)" fill="#fff" stroke="#263238" stroke-linecap="round" stroke-linejoin="round" stroke-width="1"/><path d="M243.361,126.8s-3.945-1.192-5.161,1.192" transform="translate(-168.987 -112.102)" fill="none" stroke="#263238" stroke-linecap="round" stroke-linejoin="round" stroke-width="1"/><ellipse cx="0.53" cy="0.84" rx="0.53" ry="0.84" transform="translate(71.448 17.163)" fill="#263238"/><path d="M254.61,126.8s3.945-1.192,5.161,1.192" transform="translate(-175.617 -112.102)" fill="none" stroke="#263238" stroke-linecap="round" stroke-linejoin="round" stroke-width="1"/><path d="M258.795,131.98c0,.465-.232.84-.524.84s-.53-.375-.53-.84.238-.84.53-.84S258.795,131.515,258.795,131.98Z" transform="translate(-176.882 -113.977)" fill="#263238"/><path d="M251.725,131.47c-.518.876,1.108,3.528.518,3.969a2.932,2.932,0,0,1-1.514.441" transform="translate(-174.05 -114.11)" fill="#fff" stroke="#263238" stroke-linecap="round" stroke-linejoin="round" stroke-width="1"/><path d="M252.472,141.89a11.663,11.663,0,0,1-7.032,0s-.036,2.431,1.961,2.98C249.945,145.621,252.18,144.935,252.472,141.89Z" transform="translate(-171.912 -118.32)" fill="#fff" stroke="#263238" stroke-linecap="round" stroke-linejoin="round" stroke-width="1"/><path d="M243.041,106.59c-15.936,0-10.417,18.475-10.417,18.475,0-2.712,1.406-5.423,1.055-6.645s.673-4.583.673-4.583a16.687,16.687,0,0,1,8.689-2.688,15.376,15.376,0,0,1,8.451,2.688s1.031,3.367.673,4.583,1.055,3.933,1.061,6.645C253.226,125.082,258.983,106.59,243.041,106.59Z" transform="translate(-166.36 -104.057)" fill="#263238"/><path d="M246.731,109.807c-.751-1.3-2.872-2.187-4.517-2.211,0,0-.238-.143-.56-.31a4.183,4.183,0,0,0-3.325-1.508c-4.172-.286-3.814-1.71-3.975-2.1s.846-1.335.846-1.335h-1.311c-1.788,0-1.609,2.533-1.609,2.533a11.757,11.757,0,0,0-3.892-1.353,3.213,3.213,0,0,0-2.205,1.353,15.436,15.436,0,0,1,4.482,1.788,13.8,13.8,0,0,0-6.21,0c-1.788,2.128-1.335,3.147-1.335,3.147a27.325,27.325,0,0,1,4.875-.709,15.364,15.364,0,0,0-9.994,9.13s.316,3.576.548,2.938a11.1,11.1,0,0,1,3.01-5.453,27.349,27.349,0,0,0-2.533,10.614l1.1,2.134s1.99-13.153,8.379-16.55a8.987,8.987,0,0,0-1.561,3.48l2.533-.6c.6-2.658,2.825-3.707,4.768-4.13,1.067-.125,2.056-.232,2.64-.292h.489c-.965.834-3.653.822-3.653.822l-.912,1.073c2.825.691,5.566-.513,7.354-1.621a7.61,7.61,0,0,1-1.007,1.418l1.573.411a3.4,3.4,0,0,0,1.293-1.645,7.217,7.217,0,0,1,4.714,4.368C248.191,119.42,248.209,112.376,246.731,109.807Z" transform="translate(-160.825 -102.34)" fill="#263238"/><path d="M195.139,168.694c1.669-2.712,9.356-1.192,10.62-3.314s5.2-2.64,6.848-2.64,15.691,2.712,15.691,2.712,14.3-2.712,15.739-2.712,6.174,4.124,6.174,4.124,8.725,1.067,9.786,1.83-.948,5.006-3.069,7.485-10.954,5.632-10.954,5.632l-2.61,28.94H214.7l-4.47-29.8S190.031,177.007,195.139,168.694Z" transform="translate(-151.254 -126.744)" fill="#757575" stroke="#263238" stroke-linecap="round" stroke-linejoin="round" stroke-width="1"/><path d="M199.136,179.219a3.671,3.671,0,0,1-2.437-3.576c0-2.819,1.693.316,4.029.316s5.072-.149,5.65.375,3.093,4.416,3.623,5.125,2.575,1.651,2.336,2.283S202.33,183.724,199.136,179.219Z" transform="translate(-152.218 -131.483)" fill="#263238"/><path d="M198.649,182.942s-2.384-4.952-4.094-4.952h-4.768s-4,6.836-4.768,7.783-4.333,1.645-5.5,2.944-8.379,18.707-8.379,18.707l8.379,1.645s11.216-11.508,11.216-13.629S198.649,182.942,198.649,182.942Z" transform="translate(-141.892 -132.906)" fill="#fff" stroke="#263238" stroke-linecap="round" stroke-linejoin="round" stroke-width="1"/><path d="M278.391,184.166c.977,1.156,6.836-.894,8.093-1.99s6.883-6.263,6.883-8.028-2.283,1.663-4.505,1.663-4.982-.316-5.739.441S277.681,183.331,278.391,184.166Z" transform="translate(-185.196 -131.15)" fill="#263238"/><path d="M282.17,182.942s2.384-4.952,4.094-4.952h4.768s4,6.836,4.768,7.783,4.327,1.645,5.495,2.944,8.379,18.707,8.379,18.707l-8.379,1.645s-11.21-11.508-11.21-13.629S282.17,182.942,282.17,182.942Z" transform="translate(-186.753 -132.906)" fill="#fff" stroke="#263238" stroke-linecap="round" stroke-linejoin="round" stroke-width="1"/><path d="M221,183.06a2.056,2.056,0,0,0,2.384-1.234c.751-1.675-1.883-6.7-1.549-7.485a9.434,9.434,0,0,0,.882-6.371" transform="translate(-162.037 -128.858)" fill="none" stroke="#263238" stroke-linecap="round" stroke-linejoin="round" stroke-width="1"/><path d="M278.239,183.932c-2.2-.316-2.67-.9-2.831-1.7s.864-7.962.471-8.278-1.9-5.03-1.693-5.96" transform="translate(-183.519 -128.866)" fill="none" stroke="#263238" stroke-linecap="round" stroke-linejoin="round" stroke-width="1"/><path d="M232.8,205.173c.84-.554,11.83-7.151,17.14-8.343" transform="translate(-166.805 -140.518)" fill="none" stroke="#263238" stroke-linecap="round" stroke-linejoin="round" stroke-width="1"/><path d="M242,168s7.9.548,10.954,0" transform="translate(-170.522 -128.87)" fill="none" stroke="#263238" stroke-linecap="round" stroke-linejoin="round" stroke-width="1"/><path d="M258.546,298.1c-3.3,1.192-6.359,14.619-6.7,22.533s-8.141,4.815-14.136,2.223-19.7,6.842-33.844,8.755-17.688-11.109-28.159-11-33.624,1.281-36.681-3.433.471-11.323-.471-18.391-10.131-1.651-14.625-8.778C119.8,283.456,123.282,270.392,127,271a2.014,2.014,0,0,1,.942.453c4,3.319,16.5-3.546,15.8-8.939S175.7,241.87,175.7,241.87s45.537.673,46.3,4.249,15.566,9.1,22.378,9.7,7.807,18.737,9.059,20.262c1.043,1.287,8.469,4.768,11.466,9.267h0a7.2,7.2,0,0,1,1.192,2.837C267.038,294.064,261.854,296.93,258.546,298.1Z" transform="translate(-122.062 -158.716)" fill="#999" stroke="#263238" stroke-linecap="round" stroke-linejoin="round" stroke-width="1"/><path d="M258.546,317.84c-3.3,1.192-6.359,14.619-6.7,22.533s-8.141,4.815-14.136,2.223-19.7,6.842-33.844,8.755-17.688-11.109-28.159-11-33.624,1.281-36.681-3.433.471-11.323-.471-18.391-10.131-1.651-14.625-8.778c-4.124-6.556-.644-19.619,3.075-19.011,1.561,2.134,7.747,10.918,10.578,14.3,3.063,3.611,18.922-8.135,22.152-5.584s33.969,15.829,40.8,14.517,19.875-7.455,26.389-5.566,4.97,16.508,17.7,9.434,15.107-16.8,20.262-12.759h0a7.205,7.205,0,0,1,1.192,2.837C267.038,313.8,261.854,316.666,258.546,317.84Z" transform="translate(-122.062 -178.452)" fill="#263238"/><path d="M248.11,384.113l1.126,21.532h5.322l4.69-21.508s-3.528-1.687-5.441-1.687A43.98,43.98,0,0,0,248.11,384.113Z" transform="translate(-172.991 -215.517)" fill="#fff" stroke="#263238" stroke-linecap="round" stroke-linejoin="round" stroke-width="1"/><path d="M248.568,426.137c-2.283-.1-4.172-2.128-4.249-2.819a22.168,22.168,0,0,0-1.192-5.292c-1.031-3.284,2.33-6.615,2.33-6.615a21.519,21.519,0,0,0,.471-3.576c0-1.281,3.629-3.01,5.727-2.283a5.1,5.1,0,0,1,2.872,2.527c.411.465,0,4.052,0,4.052a7.914,7.914,0,0,1,1.871,4.726c0,2.646-.733,3.016-2.02,4.857S252.078,426.292,248.568,426.137Z" transform="translate(-170.898 -224.782)" fill="#8f00fc" stroke="#263238" stroke-linecap="round" stroke-linejoin="round" stroke-width="1"/><path d="M245.211,428.824c.364-4.869-2.735-6.555.912-8.343s8.617-1.752,10.131,1.192-3.409,8.451-3.409,8.451a6.371,6.371,0,0,1-3.939,1.079A5.482,5.482,0,0,1,245.211,428.824Z" transform="translate(-171.462 -230.395)" fill="#263238"/><path d="M247.19,414.691s2.521-1.687,4.929-1.049,3.355.679,4.172,1.788" transform="translate(-172.619 -228.062)" fill="none" stroke="#263238" stroke-linecap="round" stroke-linejoin="round" stroke-width="1"/><path d="M245.58,418.878a9.8,9.8,0,0,1,5.888-1.549,9.911,9.911,0,0,1,4.416,1.192" transform="translate(-171.969 -229.603)" fill="none" stroke="#263238" stroke-linecap="round" stroke-linejoin="round" stroke-width="1"/><path d="M250.758,409.741s.459-2.437-.358-2.861" transform="translate(-173.916 -225.388)" fill="none" stroke="#263238" stroke-linecap="round" stroke-linejoin="round" stroke-width="1"/><path d="M259.2,410.645s.06-3.391,1.043-2.819" transform="translate(-177.472 -225.744)" fill="none" stroke="#263238" stroke-linecap="round" stroke-linejoin="round" stroke-width="1"/><path d="M249.94,408.666a6.556,6.556,0,0,1,3.29-.906,4.321,4.321,0,0,1,3.093,1.442" transform="translate(-173.73 -225.744)" fill="none" stroke="#263238" stroke-linecap="round" stroke-linejoin="round" stroke-width="1"/><path d="M249.48,410.615a16.352,16.352,0,0,1,3.468-.435,6.067,6.067,0,0,1,3.188,1.073" transform="translate(-173.544 -226.721)" fill="none" stroke="#263238" stroke-linecap="round" stroke-linejoin="round" stroke-width="1"/><path d="M246.42,425.356a71.819,71.819,0,0,1,9.3.417" transform="translate(-172.308 -232.851)" fill="none" stroke="#fff" stroke-linecap="round" stroke-linejoin="round" stroke-width="1" opacity="0.2"/><path d="M246.88,429.355a54.147,54.147,0,0,1,8.385.447" transform="translate(-172.494 -234.466)" fill="none" stroke="#fff" stroke-linecap="round" stroke-linejoin="round" stroke-width="1" opacity="0.2"/><path d="M247.65,432.48s6,.6,6.555.548" transform="translate(-172.805 -235.732)" fill="none" stroke="#fff" stroke-linecap="round" stroke-linejoin="round" stroke-width="1" opacity="0.2"/><path d="M248.49,435.93s3.117.405,4.172.405" transform="translate(-173.144 -237.126)" fill="none" stroke="#fff" stroke-linecap="round" stroke-linejoin="round" stroke-width="1" opacity="0.2"/><path d="M226,368.59l5.673,16.091s1.251,3.486.9,5.876-.083,7.241,2.718,6.871,1.418-5.548,2.294-7.64a6.882,6.882,0,0,0-.9-5.876c-.727-.846-.209-8.028-1.1-11.675S226,368.59,226,368.59Z" transform="translate(-164.057 -209.917)" fill="#263238"/><path d="M256.359,326.654l7.086-60.984-83.535,1.144.5,58.886Z" transform="translate(-145.435 -168.333)" fill="#8f00fc"/><g transform="translate(34.475 97.337)" clip-path="url(#a)"><path d="M256.359,326.654l7.086-60.984-83.535,1.144.5,58.886Z" transform="translate(-179.91 -265.67)" fill="rgba(0,0,0,0.7)" opacity="0.5"/><path d="M180.411,305.438l10.125,2.038v12.491h59.035l2-11.138h6.407l5.471-43.159-83.535,1.144Z" transform="translate(-179.91 -265.67)" fill="rgba(0,0,0,0.7)" opacity="0.4"/></g><path d="M256.359,326.654l7.086-60.984-83.535,1.144.5,58.886Z" transform="translate(-145.435 -168.333)" fill="none" stroke="#263238" stroke-linecap="round" stroke-linejoin="round" stroke-width="1"/><path d="M193.822,209.425s-.6-6.424,6.556-8.063,7.372,4.5,7.372,4.5" transform="translate(-151.051 -142.237)" fill="none" stroke="#263238" stroke-linecap="round" stroke-linejoin="round" stroke-width="2"/><path d="M166.75,269.188l3.373-12.932-1.442-46.026,38.606-7.89,17.4,41.043,8.469,10.685-5.894,10.221-46.02,9.774Z" transform="translate(-140.118 -142.745)" fill="#8f00fc"/><g transform="translate(26.632 59.595)" clip-path="url(#b)"><path d="M233.151,254.069l-5.894,10.221-46.026,9.774-14.482-4.875.066-.244,2.729-10.483.572-2.205-.048-1.561-1.389-44.464,38.606-7.89,3.927,9.267,13.469,31.776Z" transform="translate(-166.75 -202.34)" fill="rgba(0,0,0,0.7)" opacity="0.3"/><path d="M198.048,222.426l2.008-.888,1.52,1.591,2.163-.364,1.079,1.919,2.187.191.566,2.122,2.074.727.018,2.2,1.83,1.222-.53,2.134,1.466,1.639-1.037,1.931L212.4,238.8l-1.49,1.615.5,2.139-1.847,1.192-.054,2.2-2.08.7-.6,2.11-2.187.161-1.108,1.9-2.157-.393-1.544,1.567-2-.918-1.883,1.132-1.7-1.389-2.11.632-1.305-1.77-2.193.089-.828-2.038-2.145-.465-.3-2.175-1.967-.983.256-2.181L182,240.484l.787-2.05-1.246-1.806,1.275-1.788-.763-2.062,1.681-1.418-.221-2.187,1.979-.954.328-2.169,2.151-.435.858-2.02,2.2.119,1.329-1.746,2.1.662,1.728-1.359Z" transform="translate(-172.726 -209.989)" fill="#263238"/><path d="M194.944,244.588c-.173-.816-.5-.977-.954-.882s-.679.4-.548,1.043l.125.6-1.341.28-.1-.489a2.164,2.164,0,1,1,4.225-.888l.048.232a1.815,1.815,0,0,1-.6,2.05h0c.775.161,1.192.763,1.389,1.675l.149.709a2.164,2.164,0,1,1-4.225.888l-.161-.751,1.341-.28.179.84c.131.644.471.828.918.733s.691-.369.524-1.192l-.149-.7c-.179-.84-.524-1.091-1.192-.954l-.477.1-.274-1.293.554-.113c.53-.113.8-.411.65-1.132Z" transform="translate(-176.97 -218.509)" fill="#fff"/><path d="M200.627,243.328a2.2,2.2,0,1,1,4.3-.936l.983,4.69a2.2,2.2,0,1,1-4.3.93Zm2.42,4.482c.131.644.465.828.918.733s.685-.4.548-1.043l-1.019-4.869c-.137-.644-.471-.834-.924-.739s-.679.4-.548,1.043Z" transform="translate(-180.406 -217.773)" fill="#fff"/><path d="M208.978,240.316a1.4,1.4,0,0,1,2.729-.6l.6,2.98a1.4,1.4,0,1,1-2.729.6Zm1.538,2.837c.083.4.286.53.6.471s.429-.268.346-.667l-.65-3.093c-.083-.4-.3-.524-.6-.465s-.429.262-.346.662Zm3.111-5.274.84-.179-1.669,9.768-.834.179Zm.53,4.768a1.4,1.4,0,1,1,2.735-.6l.6,2.98a1.4,1.4,0,1,1-2.735.6Zm1.538,2.837c.083.4.286.536.6.471s.429-.262.346-.661l-.65-3.093c-.083-.4-.3-.53-.6-.471s-.429.262-.346.662Z" transform="translate(-183.799 -216.627)" fill="#fff"/><path d="M233.151,260.352l-5.894,10.221-46.026,9.774-14.482-4.875.066-.244,12.664-2.652-9.935-7.831.572-2.205-.048-1.561,24.357-11.46,16.788-31.627,13.469,31.776Z" transform="translate(-166.75 -208.623)" fill="rgba(0,0,0,0.7)" opacity="0.2"/></g><path d="M166.75,269.188l3.373-12.932-1.442-46.026,38.606-7.89,17.4,41.043,8.469,10.685-5.894,10.221-46.02,9.774Z" transform="translate(-140.118 -142.745)" fill="none" stroke="#263238" stroke-linecap="round" stroke-linejoin="round" stroke-width="1"/><line y1="14.5" x2="63.797" transform="translate(26.632 111.944)" fill="#8f00fc" stroke="#263238" stroke-linecap="round" stroke-linejoin="round" stroke-width="1"/><path d="M189.358,205.313s-4.142-9,2.706-11.812,10.8,2.384,10.65,8.82" transform="translate(-148.751 -138.858)" fill="none" stroke="#263238" stroke-linecap="round" stroke-linejoin="round" stroke-width="2"/><path d="M176.28,314.31l12.515.352-3.439,3.135" transform="translate(-143.968 -187.986)" fill="none" stroke="#263238" stroke-linecap="round" stroke-linejoin="round" stroke-width="1"/><path d="M201.85,305.844l33.952-6.925,6.263-5.209" transform="translate(-154.3 -179.662)" fill="none" stroke="#263238" stroke-linecap="round" stroke-linejoin="round" stroke-width="1"/><line x2="4.041" y2="1.198" transform="translate(81.502 119.262)" fill="#8f00fc" stroke="#263238" stroke-linecap="round" stroke-linejoin="round" stroke-width="1"/><line y1="11.496" x2="49.744" transform="translate(29.999 102.015)" fill="#8f00fc" stroke="#263238" stroke-linecap="round" stroke-linejoin="round" stroke-width="1"/><path d="M291.86,213.15s2.944-5.739,9.845-3.308,3.808,7.747,3.808,7.747" transform="translate(-190.668 -145.533)" fill="none" stroke="#263238" stroke-linecap="round" stroke-linejoin="round" stroke-width="2"/><path d="M215.71,252.177l9.78-9.106L248.94,203.44l36.818,14.035-7.312,43.97L279.87,275l-10.453,5.471L225.323,264.06Z" transform="translate(-159.9 -143.189)" fill="#8f00fc"/><g transform="translate(55.81 60.251)" clip-path="url(#c)"><path d="M280.454,249.376l-2.008,12.068,1.424,13.564-10.453,5.465L225.323,264.06l-9.535-11.782-.077-.1.06-.054.441-.411,9.273-8.647,4.571-7.724L248.94,203.44l35.882,13.677.936.358Z" transform="translate(-215.71 -203.44)" fill="rgba(0,0,0,0.7)" opacity="0.2"/><path d="M286.474,229.262l2.163.364.4,2.163,2.008.888-.155,2.193,1.722,1.365-.691,2.08,1.329,1.752-1.186,1.847.852,2.02-1.615,1.5.328,2.169-1.931,1.049-.226,2.181-2.134.536-.763,2.056-2.2-.012-1.246,1.806-2.128-.56-1.663,1.436-1.913-1.073-1.967.977-1.591-1.514-2.151.459-1.162-1.859-2.2-.089L267.7,250.9l-2.1-.632-.125-2.193-1.877-1.138.423-2.157-1.538-1.567.948-1.979-1.1-1.9,1.412-1.681-.59-2.116,1.782-1.281-.048-2.193,2.05-.8.495-2.139,2.187-.256,1.013-1.949,2.175.286,1.466-1.633,2.038.822,1.83-1.216,1.77,1.3,2.074-.721,1.389,1.7,2.187-.185Z" transform="translate(-234.543 -212.224)" fill="#263238"/><path d="M273.984,245.482l-.316.793c-.238.6-.06.942.37,1.108s.787.054,1.025-.56l.745-1.883c.238-.6.066-.954-.364-1.12s-.793-.042-1.031.6l-.1.256-1.275-.5,2.2-4.881,3.576,1.4-.483,1.222-2.384-.924-.894,1.979h0a1.359,1.359,0,0,1,1.412-.167c.989.387,1.222,1.287.721,2.545l-.751,1.913a2.163,2.163,0,1,1-4.017-1.579l.28-.715Z" transform="translate(-238.525 -217.925)" fill="#fff"/><path d="M282.233,244.665a2.2,2.2,0,1,1,4.088,1.627l-1.788,4.458a2.2,2.2,0,1,1-4.082-1.627Zm-.441,5.072c-.238.6-.06.954.37,1.12s.787.042,1.031-.6l1.824-4.637c.238-.6.06-.948-.369-1.12s-.787-.042-1.031.6Z" transform="translate(-241.773 -219.468)" fill="#fff"/><path d="M296.418,247.542l.8.316-6.758,7.241-.8-.31Zm-5.2-.53a1.4,1.4,0,1,1,2.6,1.019l-1.108,2.819a1.4,1.4,0,1,1-2.6-1.019Zm-.274,3.218c-.149.381-.054.6.226.709s.507,0,.656-.364l1.156-2.938c.149-.381.042-.6-.226-.715s-.507,0-.656.364Zm3.29,1.591a1.4,1.4,0,1,1,2.6,1.025l-1.108,2.813a1.4,1.4,0,1,1-2.6-1.019Zm-.274,3.218c-.149.381-.054.6.232.709s.5,0,.65-.364L296,252.447c.149-.381.042-.6-.227-.715s-.507,0-.656.364Z" transform="translate(-245.589 -220.641)" fill="#fff"/><path d="M278.446,270.717l1.424,13.564-10.453,5.465-44.095-16.413-9.613-11.877,9.774-9.112,4.571-7.724,54.768-18.23.936.358Z" transform="translate(-215.71 -212.713)" fill="rgba(0,0,0,0.7)" opacity="0.2"/><path d="M278.474,289.752l1.424,13.564-10.453,5.465-44.1-16.413-9.535-11.782v-.149c-.036-.375-.06-.6-.06-.6l.5.173L277.378,301.3l-43.826-27.8,46.943,4.172Z" transform="translate(-215.726 -231.747)" fill="rgba(0,0,0,0.7)" opacity="0.2"/></g><path d="M215.71,252.177l9.78-9.106L248.94,203.44l36.818,14.035-7.312,43.97L279.87,275l-10.453,5.471L225.323,264.06Z" transform="translate(-159.9 -143.189)" fill="none" stroke="#263238" stroke-linecap="round" stroke-linejoin="round" stroke-width="1"/><line x2="61.628" y2="21.955" transform="translate(55.81 108.988)" fill="#8f00fc" stroke="#263238" stroke-linecap="round" stroke-linejoin="round" stroke-width="1"/><path d="M289.46,206.955s1.329-9.821,8.612-8.516,7.825,7.819,4.267,13.153" transform="translate(-189.698 -141.12)" fill="none" stroke="#263238" stroke-linecap="round" stroke-linejoin="round" stroke-width="2"/><path d="M223.87,290.17l10.37,7-4.583.8" transform="translate(-163.197 -178.232)" fill="none" stroke="#263238" stroke-linecap="round" stroke-linejoin="round" stroke-width="1"/><path d="M245.58,303.67l32.372,12.354,8.081-1.049" transform="translate(-171.969 -183.687)" fill="none" stroke="#263238" stroke-linecap="round" stroke-linejoin="round" stroke-width="1"/><line x2="2.765" y2="3.182" transform="translate(105.984 132.338)" fill="none" stroke="#263238" stroke-linecap="round" stroke-linejoin="round" stroke-width="1"/><line x2="48.159" y2="16.949" transform="translate(65.584 99.882)" fill="#8f00fc" stroke="#263238" stroke-linecap="round" stroke-linejoin="round" stroke-width="1"/><path d="M222.46,266.37s.53-6.43,7.837-6.812,6.478,5.709,6.478,5.709" transform="translate(-162.627 -165.856)" fill="none" stroke="#263238" stroke-linecap="round" stroke-linejoin="round" stroke-width="2"/><path d="M246.566,320.94l-7.581,9.041-47.015,1.645-13.421-7.312.119-.256,5.441-11.9,6.561-45.579,39.393-1.073,3.915,16.979,6.1,26.46,6.466,11.943Z" transform="translate(-144.886 -168.268)" fill="#8f00fc"/><g transform="translate(33.664 97.242)" clip-path="url(#d)"><path d="M246.566,358.488l-7.581,9.041-47.015,1.645-13.421-7.312.119-.256,67.873-3.164Z" transform="translate(-178.55 -303.058)" fill="rgba(0,0,0,0.7)" opacity="0.2"/><path d="M226.507,282.454l2.134-.513,1.21,1.836,2.193.042.715,2.074,2.116.584.173,2.193,1.907,1.091-.375,2.163,1.573,1.532-.9,2,1.144,1.877-1.377,1.716.644,2.1-1.758,1.323.1,2.193-2.026.84-.453,2.151-2.175.31-.965,1.973L228.2,309.7l-1.43,1.669-2.056-.775-1.8,1.257-1.794-1.257-2.056.769-1.43-1.669-2.181.238-.971-1.973-2.169-.316-.447-2.151-2.032-.84.107-2.2-1.758-1.317.644-2.1-1.365-1.716,1.144-1.871-.9-2,1.573-1.532-.369-2.163,1.907-1.091.173-2.187,2.122-.584.715-2.074,2.2-.036,1.2-1.836,2.139.513,1.627-1.478L222.937,282l1.943-1.025Z" transform="translate(-190.231 -271.757)" fill="#263238"/><path d="M222.564,299.87l.036,1.263-1.937,8.01-1.448.036,1.925-7.956-2.884.077-.036-1.317Z" transform="translate(-194.578 -279.393)" fill="#fff"/><path d="M227,301.932a2.2,2.2,0,1,1,4.4-.119l.119,4.768a2.2,2.2,0,1,1-4.4.119Zm1.567,4.845c0,.661.316.906.775.894s.745-.268.727-.93l-.125-4.976c0-.656-.31-.9-.769-.888s-.745.268-.727.924Z" transform="translate(-198.125 -279.262)" fill="#fff"/><path d="M235.8,300.962a1.395,1.395,0,0,1,2.789-.066l.077,3.027a1.395,1.395,0,0,1-2.789.066Zm1,3.069c0,.411.185.6.483.6s.471-.185.465-.6l-.083-3.159c0-.405-.2-.6-.489-.6s-.465.185-.459.6Zm3.993-4.6h.852l-3.4,9.279h-.852Zm-.34,4.768a1.395,1.395,0,0,1,2.789-.066l.072,3.027a1.395,1.395,0,1,1-2.789.066Zm1,3.075c0,.405.185.6.489.566s.471-.185.459-.6l-.077-3.159c0-.411-.2-.6-.489-.6s-.471.185-.459.6Z" transform="translate(-201.681 -279.215)" fill="#fff"/><path d="M245.588,320.46l-53.4,3.212L239.491,294Z" transform="translate(-184.061 -277.021)" fill="rgba(0,0,0,0.7)" opacity="0.2"/></g><path d="M246.566,320.94l-7.581,9.041-47.015,1.645-13.421-7.312.119-.256,5.441-11.9,6.561-45.579,39.393-1.073,3.915,16.979,6.1,26.46,6.466,11.943Z" transform="translate(-144.886 -168.268)" fill="none" stroke="#263238" stroke-linecap="round" stroke-linejoin="round" stroke-width="1"/><line y1="3.218" x2="65.34" transform="translate(33.664 152.827)" fill="#8f00fc" stroke="#263238" stroke-linecap="round" stroke-linejoin="round" stroke-width="1"/><path d="M218.813,261.373s-2.515-9.6,4.708-11.156,10.215,4.243,8.939,10.531" transform="translate(-160.982 -161.986)" fill="none" stroke="#263238" stroke-linecap="round" stroke-linejoin="round" stroke-width="2"/><path d="M187.97,365.64l12.265,2.515-3.933,2.491" transform="translate(-148.692 -208.725)" fill="none" stroke="#263238" stroke-linecap="round" stroke-linejoin="round" stroke-width="1"/><path d="M213.19,366.462l34.637-.93,7.074-4.052" transform="translate(-158.882 -207.044)" fill="none" stroke="#263238" stroke-linecap="round" stroke-linejoin="round" stroke-width="1"/><line x2="3.772" y2="1.883" transform="translate(88.951 158.488)" fill="none" stroke="#263238" stroke-linecap="round" stroke-linejoin="round" stroke-width="1"/><line y1="2.694" x2="50.984" transform="translate(39.225 141.199)" fill="#8f00fc" stroke="#263238" stroke-linecap="round" stroke-linejoin="round" stroke-width="1"/><path d="M257.391,312.411H170.406L160.65,230.14h106.5Z" transform="translate(-137.653 -153.977)" fill="none" stroke="#263238" stroke-linecap="round" stroke-linejoin="round" stroke-width="3"/><path d="M193.921,312.411,187.05,230.14h75.031l-6.871,82.271" transform="translate(-148.32 -153.977)" fill="none" stroke="#263238" stroke-linecap="round" stroke-linejoin="round" stroke-width="3"/><path d="M220.257,312.411,216.61,230.14h39.8l-3.647,82.271" transform="translate(-160.263 -153.977)" fill="none" stroke="#263238" stroke-linecap="round" stroke-linejoin="round" stroke-width="3"/><line y2="82.271" transform="translate(76.245 76.163)" fill="none" stroke="#263238" stroke-linecap="round" stroke-linejoin="round" stroke-width="3"/><rect width="112.904" height="5.876" rx="2.938" transform="translate(19.797 72.021)" fill="#8f00fc" stroke="#263238" stroke-linecap="round" stroke-linejoin="round" stroke-width="1"/><line x2="102.48" transform="translate(25.005 92.593)" fill="none" stroke="#263238" stroke-linecap="round" stroke-linejoin="round" stroke-width="3"/><line x2="97.891" transform="translate(27.3 109.59)" fill="none" stroke="#263238" stroke-linecap="round" stroke-linejoin="round" stroke-width="3"/><line x2="93.696" transform="translate(29.397 126.581)" fill="none" stroke="#263238" stroke-linecap="round" stroke-linejoin="round" stroke-width="3"/><line x2="89.941" transform="translate(31.275 143.577)" fill="none" stroke="#263238" stroke-linecap="round" stroke-linejoin="round" stroke-width="3"/><path d="M170.931,409.5h-4.672a1.949,1.949,0,0,0-1.949,1.955v9.184c0,1.651,1.311,2.652,1.663,1.269l2.384-9.357a1.567,1.567,0,0,1,1.52-1.192h1.538v9.267c0,1.651,1.311,2.652,1.663,1.269l2.193-8.659a2.265,2.265,0,0,0-1.3-2.646l-2.128-.918a2.336,2.336,0,0,0-.912-.173Z" transform="translate(-139.132 -226.447)" fill="#263238"/><path d="M163.877,417.93c-1.567,0-2.837,3.212-2.837,7.151s1.269,7.151,2.837,7.151h6.2v-14.3Z" transform="translate(-137.811 -229.853)" fill="#757575" stroke="#263238" stroke-linecap="round" stroke-linejoin="round" stroke-width="1"/><ellipse cx="2.831" cy="7.169" rx="2.831" ry="7.169" transform="translate(29.439 188.083)" fill="#999" stroke="#263238" stroke-linecap="round" stroke-linejoin="round" stroke-width="1"/><path d="M177.667,427.576c0,1.979-.632,3.576-1.418,3.576s-1.418-1.6-1.418-3.576.638-3.576,1.418-3.576S177.667,425.573,177.667,427.576Z" transform="translate(-143.382 -232.305)" fill="#263238"/><path d="M177.437,410.6l-2.128-.918a2.336,2.336,0,0,0-.9-.185h-1.49v1.943a1.43,1.43,0,0,1,.423-.072h1.538v9.267c0,1.651,1.311,2.652,1.663,1.269l2.193-8.659A2.265,2.265,0,0,0,177.437,410.6Z" transform="translate(-142.611 -226.447)" fill="#263238"/><path d="M172.14,401.85v5.262l3.677.524.763-5.262S175.632,401.85,172.14,401.85Z" transform="translate(-142.296 -223.356)" fill="#263238"/><path d="M321.59,409.5h4.672a1.949,1.949,0,0,1,1.949,1.955v9.184c0,1.651-1.311,2.652-1.663,1.269l-2.384-9.357a1.567,1.567,0,0,0-1.52-1.192h-1.538v9.267c0,1.651-1.311,2.652-1.663,1.269l-2.193-8.659a2.265,2.265,0,0,1,1.3-2.646l2.128-.918a2.336,2.336,0,0,1,.912-.173Z" transform="translate(-200.898 -226.447)" fill="#263238"/><path d="M329.994,417.93c1.567,0,2.837,3.212,2.837,7.151s-1.269,7.151-2.837,7.151h-6.2v-14.3Z" transform="translate(-203.569 -229.853)" fill="#757575" stroke="#263238" stroke-linecap="round" stroke-linejoin="round" stroke-width="1"/><ellipse cx="2.831" cy="7.169" rx="2.831" ry="7.169" transform="translate(117.39 188.083)" fill="#999" stroke="#263238" stroke-linecap="round" stroke-linejoin="round" stroke-width="1"/><path d="M320.41,427.576c0,1.979.632,3.576,1.418,3.576s1.418-1.6,1.418-3.576S322.609,424,321.828,424,320.41,425.573,320.41,427.576Z" transform="translate(-202.203 -232.305)" fill="#263238"/><path d="M318.57,410.6l2.128-.918a2.336,2.336,0,0,1,.9-.185h1.49v1.943a1.43,1.43,0,0,0-.423-.072h-1.538v9.267c0,1.651-1.311,2.652-1.663,1.269l-2.193-8.659A2.265,2.265,0,0,1,318.57,410.6Z" transform="translate(-200.906 -226.447)" fill="#263238"/><path d="M324.85,401.85v5.262l-3.677.524-.763-5.262S321.358,401.85,324.85,401.85Z" transform="translate(-202.203 -223.356)" fill="#263238"/><path d="M196.448,420h-3.165a1.323,1.323,0,0,0-1.323,1.323v6.222c0,1.114.888,1.788,1.126.858l1.609-6.335a1.067,1.067,0,0,1,1.031-.8h1.025v6.281c0,1.114.888,1.788,1.126.858l1.49-5.864a1.543,1.543,0,0,0-.882-1.788l-1.442-.6A1.52,1.52,0,0,0,196.448,420Z" transform="translate(-150.304 -230.689)" fill="#263238"/><path d="M191.7,425.7c-1.061,0-1.919,2.175-1.919,4.857s.84,4.857,1.919,4.857h4.172V425.7Z" transform="translate(-149.423 -232.992)" fill="#263238"/><ellipse cx="1.919" cy="4.857" rx="1.919" ry="4.857" transform="translate(44.541 192.708)" fill="#263238"/><path d="M201.009,432.206c0,1.341-.429,2.426-.959,2.426s-.959-1.085-.959-2.426.429-2.426.959-2.426S201.009,430.865,201.009,432.206Z" transform="translate(-153.185 -234.641)" fill="#263238"/><path d="M200.857,420.751l-1.442-.6a1.519,1.519,0,0,0-.6-.125H197.8v1.317a.9.9,0,0,1,.286-.054h1.025v6.281c0,1.114.888,1.788,1.126.858l1.49-5.864A1.544,1.544,0,0,0,200.857,420.751Z" transform="translate(-152.663 -230.701)" fill="#263238"/><path d="M197.27,414.81v3.576l2.491.352.513-3.576A7.386,7.386,0,0,0,197.27,414.81Z" transform="translate(-152.449 -228.592)" fill="#263238"/><path d="M298.5,420h3.165a1.323,1.323,0,0,1,1.323,1.323v6.222c0,1.114-.888,1.788-1.126.858l-1.609-6.335a1.067,1.067,0,0,0-1.031-.8H298.2v6.281c0,1.114-.888,1.788-1.126.858l-1.49-5.864a1.544,1.544,0,0,1,.882-1.788l1.442-.6A1.52,1.52,0,0,1,298.5,420Z" transform="translate(-192.152 -230.689)" fill="#263238"/><path d="M304.172,425.7c1.061,0,1.919,2.175,1.919,4.857s-.84,4.857-1.919,4.857H300V425.7Z" transform="translate(-193.957 -232.992)" fill="#263238"/><ellipse cx="1.919" cy="4.857" rx="1.919" ry="4.857" transform="translate(104.112 192.708)" fill="#263238"/><path d="M297.69,432.206c0,1.341.429,2.426.959,2.426s.959-1.085.959-2.426-.429-2.426-.959-2.426S297.69,430.865,297.69,432.206Z" transform="translate(-193.024 -234.641)" fill="#263238"/><path d="M296.443,420.751l1.442-.6a1.519,1.519,0,0,1,.6-.125h1.007v1.317a.9.9,0,0,0-.286-.054H298.19v6.281c0,1.114-.888,1.788-1.126.858l-1.49-5.864A1.544,1.544,0,0,1,296.443,420.751Z" transform="translate(-192.146 -230.701)" fill="#263238"/><path d="M300.7,414.81v3.576l-2.5.352-.513-3.576A7.406,7.406,0,0,1,300.7,414.81Z" transform="translate(-193.024 -228.592)" fill="#263238"/><path d="M246.163,375.163H194.744L177.02,368.19h86.872Z" transform="translate(-144.267 -209.756)" fill="#263238" stroke="#263238" stroke-linecap="round" stroke-linejoin="round" stroke-width="3"/><path d="M165.87,401.85l18.707,7.724h62.861l17.646-7.724H166.931" transform="translate(-139.762 -223.356)" fill="none" stroke="#263238" stroke-linecap="round" stroke-linejoin="round" stroke-width="3"/><path d="M293.04,379.89v15.978l5.781,4.833" transform="translate(-191.145 -214.483)" fill="none" stroke="#263238" stroke-linecap="round" stroke-linejoin="round" stroke-width="3"/><path d="M202.922,379.89v15.978L197.26,400.7" transform="translate(-152.445 -214.483)" fill="none" stroke="#263238" stroke-linecap="round" stroke-linejoin="round" stroke-width="3"/></g></g></svg>