<svg xmlns="http://www.w3.org/2000/svg" width="269.285" height="250" viewBox="0 0 269.285 250"><g transform="translate(-19.266 -110.72)"><g transform="translate(20.433 111.22)"><rect width="14.595" height="16.622" transform="translate(102.155 40.198)" fill="#fff" stroke="#263238" stroke-linecap="round" stroke-linejoin="round" stroke-width="1"/><rect width="9.47" height="16.622" transform="translate(102.155 40.198)" fill="#fff" stroke="#263238" stroke-linecap="round" stroke-linejoin="round" stroke-width="1"/><rect width="7.229" height="7.803" transform="translate(103.219 47.259)" fill="#8f00fc" stroke="#263238" stroke-linecap="round" stroke-linejoin="round" stroke-width="1"/><rect width="14.595" height="16.622" transform="translate(89.824 40.198)" fill="#fff" stroke="#263238" stroke-linecap="round" stroke-linejoin="round" stroke-width="1"/><rect width="9.47" height="16.622" transform="translate(89.824 40.198)" fill="#fff" stroke="#263238" stroke-linecap="round" stroke-linejoin="round" stroke-width="1"/><rect width="7.229" height="7.803" transform="translate(90.888 47.259)" fill="#8f00fc" stroke="#263238" stroke-linecap="round" stroke-linejoin="round" stroke-width="1"/><rect width="14.595" height="24.463" transform="translate(78.128 32.358)" fill="#8f00fc" stroke="#263238" stroke-linecap="round" stroke-linejoin="round" stroke-width="1"/><rect width="9.47" height="24.463" transform="translate(78.128 32.358)" fill="#fff" stroke="#263238" stroke-linecap="round" stroke-linejoin="round" stroke-width="1"/><rect width="7.229" height="11.482" transform="translate(79.191 42.753)" fill="#8f00fc" stroke="#263238" stroke-linecap="round" stroke-linejoin="round" stroke-width="1"/><rect width="14.595" height="24.463" transform="translate(65.797 32.358)" fill="#8f00fc" stroke="#263238" stroke-linecap="round" stroke-linejoin="round" stroke-width="1"/><rect width="9.47" height="24.463" transform="translate(65.797 32.358)" fill="#8f00fc" stroke="#263238" stroke-linecap="round" stroke-linejoin="round" stroke-width="1"/><rect width="7.229" height="11.482" transform="translate(66.86 42.753)" fill="#fff" stroke="#263238" stroke-linecap="round" stroke-linejoin="round" stroke-width="1"/><rect width="14.595" height="16.622" transform="translate(54.95 40.198)" fill="#fff" stroke="#263238" stroke-linecap="round" stroke-linejoin="round" stroke-width="1"/><rect width="9.47" height="16.622" transform="translate(54.95 40.198)" fill="#fff" stroke="#263238" stroke-linecap="round" stroke-linejoin="round" stroke-width="1"/><rect width="7.229" height="7.803" transform="translate(56.013 47.259)" fill="#8f00fc" stroke="#263238" stroke-linecap="round" stroke-linejoin="round" stroke-width="1"/><rect width="14.595" height="16.622" transform="translate(42.619 40.198)" fill="#fff" stroke="#263238" stroke-linecap="round" stroke-linejoin="round" stroke-width="1"/><rect width="9.47" height="16.622" transform="translate(42.619 40.198)" fill="#fff" stroke="#263238" stroke-linecap="round" stroke-linejoin="round" stroke-width="1"/><rect width="7.229" height="7.803" transform="translate(43.682 47.259)" fill="#8f00fc" stroke="#263238" stroke-linecap="round" stroke-linejoin="round" stroke-width="1"/><rect width="14.595" height="24.463" transform="translate(30.923 32.358)" fill="#fff" stroke="#263238" stroke-linecap="round" stroke-linejoin="round" stroke-width="1"/><rect width="9.47" height="24.463" transform="translate(30.923 32.358)" fill="#fff" stroke="#263238" stroke-linecap="round" stroke-linejoin="round" stroke-width="1"/><rect width="7.229" height="11.482" transform="translate(31.986 42.753)" fill="#8f00fc" stroke="#263238" stroke-linecap="round" stroke-linejoin="round" stroke-width="1"/><rect width="14.595" height="24.463" transform="translate(18.592 32.358)" fill="#fff" stroke="#263238" stroke-linecap="round" stroke-linejoin="round" stroke-width="1"/><rect width="9.47" height="24.463" transform="translate(18.592 32.358)" fill="#fff" stroke="#263238" stroke-linecap="round" stroke-linejoin="round" stroke-width="1"/><rect width="7.229" height="11.482" transform="translate(19.655 42.753)" fill="#8f00fc" stroke="#263238" stroke-linecap="round" stroke-linejoin="round" stroke-width="1"/><rect width="14.595" height="16.622" transform="translate(102.155 169.177)" fill="#fff" stroke="#263238" stroke-linecap="round" stroke-linejoin="round" stroke-width="1"/><rect width="9.47" height="16.622" transform="translate(102.155 169.177)" fill="#fff" stroke="#263238" stroke-linecap="round" stroke-linejoin="round" stroke-width="1"/><rect width="7.229" height="7.803" transform="translate(103.219 176.238)" fill="#8f00fc" stroke="#263238" stroke-linecap="round" stroke-linejoin="round" stroke-width="1"/><rect width="14.595" height="16.622" transform="translate(89.824 169.177)" fill="#fff" stroke="#263238" stroke-linecap="round" stroke-linejoin="round" stroke-width="1"/><rect width="9.47" height="16.622" transform="translate(89.824 169.177)" fill="#fff" stroke="#263238" stroke-linecap="round" stroke-linejoin="round" stroke-width="1"/><rect width="7.229" height="7.803" transform="translate(90.888 176.238)" fill="#8f00fc" stroke="#263238" stroke-linecap="round" stroke-linejoin="round" stroke-width="1"/><rect width="14.595" height="24.463" transform="translate(78.128 161.336)" fill="#8f00fc" stroke="#263238" stroke-linecap="round" stroke-linejoin="round" stroke-width="1"/><rect width="9.47" height="24.463" transform="translate(78.128 161.336)" fill="#fff" stroke="#263238" stroke-linecap="round" stroke-linejoin="round" stroke-width="1"/><rect width="7.229" height="11.482" transform="translate(79.191 171.725)" fill="#8f00fc" stroke="#263238" stroke-linecap="round" stroke-linejoin="round" stroke-width="1"/><rect width="14.595" height="24.463" transform="translate(65.797 161.336)" fill="#8f00fc" stroke="#263238" stroke-linecap="round" stroke-linejoin="round" stroke-width="1"/><rect width="9.47" height="24.463" transform="translate(65.797 161.336)" fill="#8f00fc" stroke="#263238" stroke-linecap="round" stroke-linejoin="round" stroke-width="1"/><rect width="7.229" height="11.482" transform="translate(66.86 171.725)" fill="#fff" stroke="#263238" stroke-linecap="round" stroke-linejoin="round" stroke-width="1"/><rect width="14.595" height="16.622" transform="translate(54.95 169.177)" fill="#fff" stroke="#263238" stroke-linecap="round" stroke-linejoin="round" stroke-width="1"/><rect width="9.47" height="16.622" transform="translate(54.95 169.177)" fill="#fff" stroke="#263238" stroke-linecap="round" stroke-linejoin="round" stroke-width="1"/><rect width="7.229" height="7.803" transform="translate(56.013 176.238)" fill="#8f00fc" stroke="#263238" stroke-linecap="round" stroke-linejoin="round" stroke-width="1"/><rect width="14.595" height="16.622" transform="translate(42.619 169.177)" fill="#fff" stroke="#263238" stroke-linecap="round" stroke-linejoin="round" stroke-width="1"/><rect width="9.47" height="16.622" transform="translate(42.619 169.177)" fill="#fff" stroke="#263238" stroke-linecap="round" stroke-linejoin="round" stroke-width="1"/><rect width="7.229" height="7.803" transform="translate(43.682 176.238)" fill="#8f00fc" stroke="#263238" stroke-linecap="round" stroke-linejoin="round" stroke-width="1"/><rect width="14.595" height="24.463" transform="translate(30.923 161.336)" fill="#fff" stroke="#263238" stroke-linecap="round" stroke-linejoin="round" stroke-width="1"/><rect width="9.47" height="24.463" transform="translate(30.923 161.336)" fill="#fff" stroke="#263238" stroke-linecap="round" stroke-linejoin="round" stroke-width="1"/><rect width="7.229" height="11.482" transform="translate(31.986 171.725)" fill="#8f00fc" stroke="#263238" stroke-linecap="round" stroke-linejoin="round" stroke-width="1"/><rect width="14.595" height="24.463" transform="translate(18.592 161.336)" fill="#fff" stroke="#263238" stroke-linecap="round" stroke-linejoin="round" stroke-width="1"/><rect width="9.47" height="24.463" transform="translate(18.592 161.336)" fill="#fff" stroke="#263238" stroke-linecap="round" stroke-linejoin="round" stroke-width="1"/><rect width="7.229" height="11.482" transform="translate(19.655 171.725)" fill="#8f00fc" stroke="#263238" stroke-linecap="round" stroke-linejoin="round" stroke-width="1"/><path d="M43.731,217.37h4.888a4.146,4.146,0,0,1,4.146,4.146v14.136H39.6V221.516a4.146,4.146,0,0,1,4.131-4.146Z" transform="translate(-25.047 -136.17)" fill="#8f00fc" stroke="#263238" stroke-linecap="round" stroke-linejoin="round" stroke-width="1"/><rect width="5.424" height="5.102" transform="translate(18.699 76.098)" fill="#263238" stroke="#263238" stroke-linecap="round" stroke-linejoin="round" stroke-width="1"/><rect width="8.506" height="8.506" transform="translate(15.616 86.73)" fill="#fff" stroke="#263238" stroke-linecap="round" stroke-linejoin="round" stroke-width="1"/><path d="M64.036,217.37h4.888a4.146,4.146,0,0,1,4.146,4.146v14.136H59.89V221.516A4.146,4.146,0,0,1,64.036,217.37Z" transform="translate(-29.816 -136.17)" fill="#8f00fc" stroke="#263238" stroke-linecap="round" stroke-linejoin="round" stroke-width="1"/><rect width="5.424" height="5.102" transform="translate(34.22 76.098)" fill="#263238" stroke="#263238" stroke-linecap="round" stroke-linejoin="round" stroke-width="1"/><rect width="8.506" height="8.506" transform="translate(31.137 86.73)" fill="#fff" stroke="#263238" stroke-linecap="round" stroke-linejoin="round" stroke-width="1"/><path d="M84.326,204.58h4.9a4.146,4.146,0,0,1,4.138,4.146v23.92H80.18v-23.92A4.146,4.146,0,0,1,84.326,204.58Z" transform="translate(-34.585 -133.164)" fill="#8f00fc" stroke="#263238" stroke-linecap="round" stroke-linejoin="round" stroke-width="1"/><rect width="5.424" height="5.102" transform="translate(49.741 66.314)" fill="#263238" stroke="#263238" stroke-linecap="round" stroke-linejoin="round" stroke-width="1"/><rect width="8.506" height="18.282" transform="translate(46.658 76.947)" fill="#fff" stroke="#263238" stroke-linecap="round" stroke-linejoin="round" stroke-width="1"/><path d="M104.616,217.37H109.5a4.146,4.146,0,0,1,4.146,4.146v14.136H100.47V221.516A4.146,4.146,0,0,1,104.616,217.37Z" transform="translate(-39.354 -136.17)" fill="#8f00fc" stroke="#263238" stroke-linecap="round" stroke-linejoin="round" stroke-width="1"/><rect width="5.424" height="5.102" transform="translate(65.262 76.098)" fill="#263238" stroke="#263238" stroke-linecap="round" stroke-linejoin="round" stroke-width="1"/><rect width="8.506" height="8.506" transform="translate(62.179 86.73)" fill="#fff" stroke="#263238" stroke-linecap="round" stroke-linejoin="round" stroke-width="1"/><path d="M124.906,217.37h4.888a4.146,4.146,0,0,1,4.146,4.146v14.136H120.76V221.516A4.146,4.146,0,0,1,124.906,217.37Z" transform="translate(-44.123 -136.17)" fill="#8f00fc" stroke="#263238" stroke-linecap="round" stroke-linejoin="round" stroke-width="1"/><rect width="5.424" height="5.102" transform="translate(80.783 76.098)" fill="#263238" stroke="#263238" stroke-linecap="round" stroke-linejoin="round" stroke-width="1"/><rect width="8.506" height="8.506" transform="translate(77.7 86.73)" fill="#fff" stroke="#263238" stroke-linecap="round" stroke-linejoin="round" stroke-width="1"/><path d="M145.2,210.7h4.888a4.146,4.146,0,0,1,4.146,4.146v19.246H141.05V214.846A4.146,4.146,0,0,1,145.2,210.7Z" transform="translate(-48.893 -134.602)" fill="#8f00fc" stroke="#263238" stroke-linecap="round" stroke-linejoin="round" stroke-width="1"/><rect width="5.424" height="5.102" transform="translate(96.311 70.995)" fill="#263238" stroke="#263238" stroke-linecap="round" stroke-linejoin="round" stroke-width="1"/><rect width="8.506" height="13.609" transform="translate(93.221 81.621)" fill="#fff" stroke="#263238" stroke-linecap="round" stroke-linejoin="round" stroke-width="1"/><path d="M43.731,387.42h4.888a4.146,4.146,0,0,1,4.146,4.146V405.7H39.6V391.566a4.146,4.146,0,0,1,4.131-4.146Z" transform="translate(-25.047 -176.14)" fill="#8f00fc" stroke="#263238" stroke-linecap="round" stroke-linejoin="round" stroke-width="1"/><rect width="5.424" height="5.102" transform="translate(18.699 206.178)" fill="#263238" stroke="#263238" stroke-linecap="round" stroke-linejoin="round" stroke-width="1"/><rect width="8.506" height="8.506" transform="translate(15.616 216.803)" fill="#fff" stroke="#263238" stroke-linecap="round" stroke-linejoin="round" stroke-width="1"/><path d="M64.036,387.42h4.888a4.146,4.146,0,0,1,4.146,4.146V405.7H59.89V391.566A4.146,4.146,0,0,1,64.036,387.42Z" transform="translate(-29.816 -176.14)" fill="#8f00fc" stroke="#263238" stroke-linecap="round" stroke-linejoin="round" stroke-width="1"/><rect width="5.424" height="5.102" transform="translate(34.22 206.178)" fill="#263238" stroke="#263238" stroke-linecap="round" stroke-linejoin="round" stroke-width="1"/><rect width="8.506" height="8.506" transform="translate(31.137 216.803)" fill="#fff" stroke="#263238" stroke-linecap="round" stroke-linejoin="round" stroke-width="1"/><path d="M84.326,374.63h4.9a4.146,4.146,0,0,1,4.146,4.146V402.7H80.18v-23.92A4.146,4.146,0,0,1,84.326,374.63Z" transform="translate(-34.585 -173.133)" fill="#8f00fc" stroke="#263238" stroke-linecap="round" stroke-linejoin="round" stroke-width="1"/><rect width="5.424" height="5.102" transform="translate(49.741 196.394)" fill="#263238" stroke="#263238" stroke-linecap="round" stroke-linejoin="round" stroke-width="1"/><rect width="8.506" height="18.282" transform="translate(46.658 207.027)" fill="#fff" stroke="#263238" stroke-linecap="round" stroke-linejoin="round" stroke-width="1"/><path d="M104.616,387.42H109.5a4.146,4.146,0,0,1,4.146,4.146V405.7H100.47V391.566A4.146,4.146,0,0,1,104.616,387.42Z" transform="translate(-39.354 -176.14)" fill="#8f00fc" stroke="#263238" stroke-linecap="round" stroke-linejoin="round" stroke-width="1"/><rect width="5.424" height="5.102" transform="translate(65.262 206.178)" fill="#263238" stroke="#263238" stroke-linecap="round" stroke-linejoin="round" stroke-width="1"/><rect width="8.506" height="8.506" transform="translate(62.179 216.803)" fill="#fff" stroke="#263238" stroke-linecap="round" stroke-linejoin="round" stroke-width="1"/><path d="M124.906,387.42h4.888a4.146,4.146,0,0,1,4.146,4.146V405.7H120.76V391.566A4.146,4.146,0,0,1,124.906,387.42Z" transform="translate(-44.123 -176.14)" fill="#8f00fc" stroke="#263238" stroke-linecap="round" stroke-linejoin="round" stroke-width="1"/><rect width="5.424" height="5.102" transform="translate(80.783 206.178)" fill="#263238" stroke="#263238" stroke-linecap="round" stroke-linejoin="round" stroke-width="1"/><rect width="8.506" height="8.506" transform="translate(77.7 216.803)" fill="#fff" stroke="#263238" stroke-linecap="round" stroke-linejoin="round" stroke-width="1"/><path d="M145.2,380.75h4.888a4.146,4.146,0,0,1,4.146,4.146v19.246H141.05V384.9a4.146,4.146,0,0,1,4.154-4.146Z" transform="translate(-48.893 -174.572)" fill="#8f00fc" stroke="#263238" stroke-linecap="round" stroke-linejoin="round" stroke-width="1"/><rect width="5.424" height="5.102" transform="translate(96.311 201.076)" fill="#263238" stroke="#263238" stroke-linecap="round" stroke-linejoin="round" stroke-width="1"/><rect width="8.506" height="13.609" transform="translate(93.221 211.701)" fill="#fff" stroke="#263238" stroke-linecap="round" stroke-linejoin="round" stroke-width="1"/><path d="M53.185,263.41H41.06l3.029,26.024h6.066Z" transform="translate(-25.39 -146.992)" fill="#fff" stroke="#263238" stroke-linecap="round" stroke-linejoin="round" stroke-width="1"/><path d="M44.39,292.02l.482,4.138h6.066l.482-4.138Z" transform="translate(-26.173 -153.716)" fill="#263238" stroke="#263238" stroke-linecap="round" stroke-linejoin="round" stroke-width="1"/><rect width="5.026" height="12.423" transform="translate(18.921 121.444)" fill="#8f00fc" stroke="#263238" stroke-linecap="round" stroke-linejoin="round" stroke-width="1"/><path d="M72.522,263.41H60.39l3.037,26.024h6.058Z" transform="translate(-29.934 -146.992)" fill="#fff" stroke="#263238" stroke-linecap="round" stroke-linejoin="round" stroke-width="1"/><path d="M63.73,292.02l.482,4.138H70.27l.482-4.138Z" transform="translate(-30.719 -153.716)" fill="#263238" stroke="#263238" stroke-linecap="round" stroke-linejoin="round" stroke-width="1"/><rect width="5.026" height="12.423" transform="translate(33.715 121.444)" fill="#8f00fc" stroke="#263238" stroke-linecap="round" stroke-linejoin="round" stroke-width="1"/><path d="M91.852,263.41H79.72l3.037,26.024h6.058Z" transform="translate(-34.477 -146.992)" fill="#fff" stroke="#263238" stroke-linecap="round" stroke-linejoin="round" stroke-width="1"/><path d="M83.06,292.02l.482,4.138H89.6l.49-4.138Z" transform="translate(-35.262 -153.716)" fill="#263238" stroke="#263238" stroke-linecap="round" stroke-linejoin="round" stroke-width="1"/><rect width="5.026" height="12.423" transform="translate(48.502 121.444)" fill="#8f00fc" stroke="#263238" stroke-linecap="round" stroke-linejoin="round" stroke-width="1"/><path d="M111.185,263.41H99.06l3.029,26.024h6.066Z" transform="translate(-39.023 -146.992)" fill="#fff" stroke="#263238" stroke-linecap="round" stroke-linejoin="round" stroke-width="1"/><path d="M102.39,292.02l.482,4.138h6.066l.482-4.138Z" transform="translate(-39.806 -153.716)" fill="#263238" stroke="#263238" stroke-linecap="round" stroke-linejoin="round" stroke-width="1"/><rect width="5.026" height="12.423" transform="translate(63.288 121.444)" fill="#8f00fc" stroke="#263238" stroke-linecap="round" stroke-linejoin="round" stroke-width="1"/><rect width="12.821" height="4.437" transform="translate(75.734 128.543)" fill="#263238" stroke="#263238" stroke-linecap="round" stroke-linejoin="round" stroke-width="1"/><rect width="16.714" height="9.761" transform="translate(73.791 132.98)" fill="#8f00fc" stroke="#263238" stroke-linecap="round" stroke-linejoin="round" stroke-width="1"/><rect width="12.017" height="5.622" transform="translate(76.132 135.053)" fill="#fff" stroke="#263238" stroke-linecap="round" stroke-linejoin="round" stroke-width="1"/><rect width="12.821" height="4.437" transform="translate(94.667 128.543)" fill="#263238" stroke="#263238" stroke-linecap="round" stroke-linejoin="round" stroke-width="1"/><rect width="16.714" height="9.761" transform="translate(92.716 132.98)" fill="#8f00fc" stroke="#263238" stroke-linecap="round" stroke-linejoin="round" stroke-width="1"/><rect width="12.017" height="5.622" transform="translate(95.064 135.053)" fill="#fff" stroke="#263238" stroke-linecap="round" stroke-linejoin="round" stroke-width="1"/><rect width="5.538" height="111.837" transform="translate(122.312 55.918) rotate(90)" fill="#fff" stroke="#263238" stroke-linecap="round" stroke-linejoin="round" stroke-width="1"/><rect width="5.538" height="111.837" transform="translate(122.32 99.1) rotate(90)" fill="#fff" stroke="#263238" stroke-linecap="round" stroke-linejoin="round" stroke-width="1"/><rect width="5.538" height="111.837" transform="translate(122.312 142.289) rotate(90)" fill="#fff" stroke="#263238" stroke-linecap="round" stroke-linejoin="round" stroke-width="1"/><rect width="5.538" height="111.837" transform="translate(122.312 185.478) rotate(90)" fill="#fff" stroke="#263238" stroke-linecap="round" stroke-linejoin="round" stroke-width="1"/><rect width="5.538" height="115.061" transform="translate(125.545 228.201) rotate(90)" fill="#fff" stroke="#263238" stroke-linecap="round" stroke-linejoin="round" stroke-width="1"/><rect width="5.538" height="223.68" transform="translate(6.047 23.255)" fill="#fff" stroke="#263238" stroke-linecap="round" stroke-linejoin="round" stroke-width="1"/><rect width="5.538" height="223.68" transform="translate(122.32 23.255)" fill="#fff" stroke="#263238" stroke-linecap="round" stroke-linejoin="round" stroke-width="1"/><rect width="132.679" height="23.805" transform="translate(0)" fill="#8f00fc" stroke="#263238" stroke-linecap="round" stroke-linejoin="round" stroke-width="1"/><path d="M300.033,121.556h-5.148V116.4h-5.309v5.156H284.42v5.309h5.156v5.148h5.309v-5.148h5.148Z" transform="translate(-226.512 -112.438)" fill="#fff"/></g><g transform="translate(183.47 131.958)"><rect width="81.062" height="120.924" fill="none" stroke="#8f00fc" stroke-linecap="round" stroke-linejoin="round" stroke-width="1"/><path d="M411.923,171.342l-27.684,17.127a12.622,12.622,0,0,1-17.38-4.092h0A12.622,12.622,0,0,1,370.952,167l27.7-17.135a12.629,12.629,0,0,1,17.38,4.092h0A12.622,12.622,0,0,1,411.923,171.342Z" transform="translate(-359.876 -140.598)" fill="none" stroke="#8f00fc" stroke-linecap="round" stroke-linejoin="round" stroke-width="1"/><path d="M404.661,149.869l-14.121,8.743,13.287,21.465,14.121-8.736a12.625,12.625,0,0,0-13.287-21.472Z" transform="translate(-365.885 -140.598)" fill="none" stroke="#8f00fc" stroke-linecap="round" stroke-linejoin="round" stroke-width="1"/><path d="M424.785,236.938l-30.751-10.709a12.614,12.614,0,0,1-7.78-16.064h0a12.614,12.614,0,0,1,16.064-7.78l30.751,10.709a12.622,12.622,0,0,1,7.78,16.064h0a12.622,12.622,0,0,1-16.064,7.78Z" transform="translate(-364.714 -153.221)" fill="none" stroke="#8f00fc" stroke-linecap="round" stroke-linejoin="round" stroke-width="1"/><path d="M440.3,214.914l-15.689-5.454-8.284,23.851,15.689,5.454a12.625,12.625,0,1,0,8.284-23.851Z" transform="translate(-371.947 -155.049)" fill="none" stroke="#8f00fc" stroke-linecap="round" stroke-linejoin="round" stroke-width="1"/><line x2="3.909" transform="translate(64.532 94.349)" fill="none" stroke="#8f00fc" stroke-linecap="round" stroke-linejoin="round" stroke-width="1"/><line x2="48.253" transform="translate(11.964 94.349)" fill="none" stroke="#8f00fc" stroke-linecap="round" stroke-linejoin="round" stroke-width="1"/><line x2="56.477" transform="translate(11.964 102.986)" fill="none" stroke="#8f00fc" stroke-linecap="round" stroke-linejoin="round" stroke-width="1"/><line x2="46.823" transform="translate(21.618 111.63)" fill="none" stroke="#8f00fc" stroke-linecap="round" stroke-linejoin="round" stroke-width="1"/><line x2="3.985" transform="translate(11.964 111.63)" fill="none" stroke="#8f00fc" stroke-linecap="round" stroke-linejoin="round" stroke-width="1"/><line x2="3.787" transform="translate(46.716 83.059)" fill="none" stroke="#8f00fc" stroke-linecap="round" stroke-linejoin="round" stroke-width="1"/><path d="M371.34,208.69v29.237h31.891" transform="translate(-361.373 -154.868)" fill="none" stroke="#8f00fc" stroke-linecap="round" stroke-linejoin="round" stroke-width="1"/><line x1="3.649" transform="translate(59.804 10.258)" fill="none" stroke="#8f00fc" stroke-linecap="round" stroke-linejoin="round" stroke-width="1"/><path d="M451.559,198.624V151.74H446.9" transform="translate(-379.133 -141.482)" fill="none" stroke="#8f00fc" stroke-linecap="round" stroke-linejoin="round" stroke-width="1"/><path d="M391.736,151.36H370.47v13.953" transform="translate(-361.168 -141.393)" fill="none" stroke="#8f00fc" stroke-linecap="round" stroke-linejoin="round" stroke-width="1"/></g><g transform="translate(74.135 184.822)"><path d="M279.77,258.263c-2.983,3.289-14.006,3.756-23.675,3.718s-21.954-5.5-26.062-11.367,4.184-17.839,5.638-20.615,2.035-16.416,10.365-20.417,25.871-1.92,31.57,2.295,17.709,11.581,19.667,18.871-4.873,7.374-5.454,7.726-1.53.7-3,3.481a5.485,5.485,0,0,1-4.483,2.838Z" transform="translate(-212.436 -207.438)" fill="#263238" stroke="#263238" stroke-linecap="round" stroke-linejoin="round" stroke-width="1"/><path d="M307.17,235c5.538,1.461,9.18,3.243,6.418,5.186" transform="translate(-230.833 -213.916)" fill="none" stroke="#545454" stroke-linecap="round" stroke-linejoin="round" stroke-width="1"/><path d="M278,230s10.923,1.2,19.529,3.121" transform="translate(-223.977 -212.741)" fill="none" stroke="#545454" stroke-linecap="round" stroke-linejoin="round" stroke-width="1"/><path d="M271.84,227.11s14.022-4.674,27.332,1.079" transform="translate(-222.529 -211.641)" fill="none" stroke="#545454" stroke-linecap="round" stroke-linejoin="round" stroke-width="1"/><path d="M293.15,219.27a15.789,15.789,0,0,1,2.035.665" transform="translate(-227.538 -210.219)" fill="none" stroke="#545454" stroke-linecap="round" stroke-linejoin="round" stroke-width="1"/><path d="M265.26,224.082s8.468-5.806,17.464-5.515" transform="translate(-220.982 -210.051)" fill="none" stroke="#545454" stroke-linecap="round" stroke-linejoin="round" stroke-width="1"/><path d="M235.943,262.44a13.771,13.771,0,0,1-3.113.719" transform="translate(-213.36 -220.366)" fill="none" stroke="#545454" stroke-linecap="round" stroke-linejoin="round" stroke-width="1"/><path d="M263.026,235.65s-10.067,10.067-16.538,15.46a28.914,28.914,0,0,1-6.158,3.985" transform="translate(-215.123 -214.069)" fill="none" stroke="#545454" stroke-linecap="round" stroke-linejoin="round" stroke-width="1"/><path d="M255.424,232.83S245,244.694,235.65,248.259" transform="translate(-214.023 -213.406)" fill="none" stroke="#545454" stroke-linecap="round" stroke-linejoin="round" stroke-width="1"/><path d="M387,413.52s3.6,3.251,4.077,4.177,2.241,4.873,1.591,4.972-2.218-2.417-2.685-3.473-2.295-3.825-2.295-3.825Z" transform="translate(-249.597 -255.877)" fill="#fff" stroke="#263238" stroke-linecap="round" stroke-linejoin="round" stroke-width="1"/><path d="M384.05,410.53a22.381,22.381,0,0,1,2.96,3.22c.474.926,2.693,9.279,2.693,9.279s-1.071.857-1.821.444-3.373-8.667-3.373-8.667Z" transform="translate(-248.904 -255.174)" fill="#fff" stroke="#263238" stroke-linecap="round" stroke-linejoin="round" stroke-width="1"/><path d="M376.655,405.82s4.544,2.394,5.653,3.6,2.869,11.222,3.22,12.14-1.752,1.6-2.249,1.193-2.54-9.149-2.54-9.149l-4.1-6.625Z" transform="translate(-247.162 -254.067)" fill="#fff" stroke="#263238" stroke-linecap="round" stroke-linejoin="round" stroke-width="1"/><path d="M360.891,404.37l8.6.168a4.75,4.75,0,0,1,3.741,1.958l3.611,5.018.62,9.983a.91.91,0,0,1-.933.949h0a.933.933,0,0,1-.841-.673l-2.5-9.026-3.282-1.53s-5.026,2.754-4.919,3.274a48.509,48.509,0,0,0,3.534,4.8c.612.8,2.1,2.157,1.683,2.914s-2.968,0-3.825-.558-5.531-6.433-7.282-7.65-3.633-2.486-3.633-2.486Z" transform="translate(-242.184 -253.726)" fill="#fff" stroke="#263238" stroke-linecap="round" stroke-linejoin="round" stroke-width="1"/><path d="M359.589,407.39l-1.17,6.464-1.958-1.568,3.129-4.9" transform="translate(-242.419 -254.436)" fill="#263238" stroke="#263238" stroke-linecap="round" stroke-linejoin="round" stroke-width="1"/><path d="M310.148,297.6s7.734,2.065,8.82,7.114,5.867,54.778,5.867,54.778l25.626,16.653L342.7,388.116l-24.333-4.781L304.12,296Z" transform="translate(-230.116 -228.254)" fill="#fff" stroke="#263238" stroke-linecap="round" stroke-linejoin="round" stroke-width="1"/><path d="M329.79,379s-3.389,1.79-4.59,3.4" transform="translate(-235.071 -247.763)" fill="none" stroke="#263238" stroke-linecap="round" stroke-linejoin="round" stroke-width="1"/><path d="M293.062,307.1,299.9,399l-86.371-3.519S215.963,300.532,217,298.5s9.424-3.006,16.347-5.179S252.619,287,252.619,287l16.248.688c4.544.2,23.323,8.973,23.293,9.73" transform="translate(-208.824 -226.139)" fill="#fff" stroke="#263238" stroke-linecap="round" stroke-linejoin="round" stroke-width="1"/><rect width="8.575" height="3.32" transform="translate(76.452 99.094)" fill="#263238" stroke="#263238" stroke-linecap="round" stroke-linejoin="round" stroke-width="1"/><path d="M252.72,291.87l.811,33.987,9.761,2.318-5.5,8.675L271.507,375" transform="translate(-218.035 -227.283)" fill="#fff" stroke="#263238" stroke-linecap="round" stroke-linejoin="round" stroke-width="1"/><path d="M290.77,289.3s9.049,18.787,11.627,24.968,3.634,8.124,3.634,8.124l-6.456,4.467,6.6,5.217L300,365.183" transform="translate(-226.978 -226.679)" fill="#fff" stroke="#263238" stroke-linecap="round" stroke-linejoin="round" stroke-width="1"/><path d="M257,289.029s13.081,35.119,14.113,46.349,3.557,62.558,3.557,62.558l16.829.765s-.627-51.252-3.213-70.315-6.265-34.981-6.938-36.9a18.781,18.781,0,0,0-2.295-4.085l-10.388-1.53Z" transform="translate(-219.041 -225.873)" fill="#8f00fc" stroke="#263238" stroke-linecap="round" stroke-linejoin="round" stroke-width="1"/><line x1="6.418" y2="13.249" transform="translate(63.639 120.589)" fill="none" stroke="#263238" stroke-linecap="round" stroke-linejoin="round" stroke-width="1"/><line x1="9.225" y2="19.269" transform="translate(58.422 120.589)" fill="none" stroke="#263238" stroke-linecap="round" stroke-linejoin="round" stroke-width="1"/><path d="M262.765,269.55s.054,11.956-.191,13.272-4.077.841-4.154,2.547,5.737,17.816,11.4,22.8,7.4,4.3,9.088.39,2.18-11.589,2.295-14.052a27.6,27.6,0,0,0,0-5.156c-.4-1.874-.9-4.552-2.486-5.638l-.6-.413.252-5.867S268.716,276.641,262.765,269.55Z" transform="translate(-219.374 -222.037)" fill="#fff" stroke="#263238" stroke-linecap="round" stroke-linejoin="round" stroke-width="1"/><path d="M279.437,283.3l.252-5.867s-9.638-.765-15.59-7.887v.077l.4,1.836s3.748,11.023,15.544,12.239Z" transform="translate(-220.71 -222.037)" fill="#263238" stroke="#263238" stroke-linecap="round" stroke-linejoin="round" stroke-width="1"/><path d="M269.635,228.714s-10.709-3.3-11.176-4.842.046-5.309-1.316-4.59-1.178,5.255.658,6.663,11.994,3.366,12.691,4.911-.306,2.639-3.725,7.045-18.3,10.977-18.367,12.507,1.629,6.12,4.276,6.441a7.9,7.9,0,0,0,4.789-1.117,23.11,23.11,0,0,0,7.971,8.69c5.355,3.266,13.081,4.544,17.77,1.339,2.563-1.759,7.084-10.319,7.428-13.907s-1.568-7.65-1.53-9.179.145-3.4.145-3.4-13.333-7.4-15.161-9a7.328,7.328,0,0,0-4.452-1.553Z" transform="translate(-217.019 -210.201)" fill="#fff" stroke="#263238" stroke-linecap="round" stroke-linejoin="round" stroke-width="1"/><path d="M273.16,245.012s3.825-2.448,7.65-.528" transform="translate(-222.839 -215.973)" fill="none" stroke="#263238" stroke-linecap="round" stroke-linejoin="round" stroke-width="1"/><path d="M292.81,244.858s2.44-1.224,4.735,1.576" transform="translate(-227.458 -216.171)" fill="none" stroke="#263238" stroke-linecap="round" stroke-linejoin="round" stroke-width="1"/><path d="M289.311,253.57s-.3,2.639.428,3.243,2.234,1.04,1.43,2.15-3.282,1.186-4.36-.191" transform="translate(-226.048 -218.281)" fill="none" stroke="#263238" stroke-linecap="round" stroke-linejoin="round" stroke-width="1"/><path d="M291.752,265.9s-3.129,2.142-8.162.214" transform="translate(-225.291 -221.179)" fill="none" stroke="#263238" stroke-linecap="round" stroke-linejoin="round" stroke-width="1"/><path d="M278.694,252.34c-.046,1.048-.681,1.874-1.407,1.836s-1.293-.9-1.247-1.951.673-1.866,1.408-1.836S278.74,251.3,278.694,252.34Z" transform="translate(-223.515 -217.533)" fill="#263238"/><path d="M296.264,253.1c-.046,1.048-.681,1.874-1.408,1.836s-1.293-.9-1.247-1.951.681-1.866,1.408-1.836S296.31,252.06,296.264,253.1Z" transform="translate(-227.645 -217.712)" fill="#263238"/><rect width="13.264" height="7.581" rx="2.62" transform="translate(47.548 30.065) rotate(2.48)" fill="none" stroke="#263238" stroke-linecap="round" stroke-linejoin="round" stroke-width="1"/><rect width="11.367" height="7.581" rx="2.62" transform="translate(63.263 30.752) rotate(2.48)" fill="none" stroke="#263238" stroke-linecap="round" stroke-linejoin="round" stroke-width="1"/><line x2="2.272" y2="0.099" transform="translate(60.77 31.579)" fill="none" stroke="#263238" stroke-linecap="round" stroke-linejoin="round" stroke-width="1"/><line x1="5.301" y1="0.229" transform="translate(42.113 33.239)" fill="none" stroke="#263238" stroke-linecap="round" stroke-linejoin="round" stroke-width="1"/><path d="M274.129,396.8s5.561-.245,7.535-1.124,15.88-4.59,16.592-4.353a53.751,53.751,0,0,1,6.885,3.435c1.124.826,3.542,7.412,4.46,10.021a1.193,1.193,0,0,1-.643,1.53h0a1.209,1.209,0,0,1-1.53-.451l-2-3.213,1.446,6.013a1.278,1.278,0,0,1-.849,1.53h0a1.285,1.285,0,0,1-1.392-.405l-4.712-5.821-2.295-2.295,4.819,8.95a1.178,1.178,0,0,1-.834,1.714h0a1.186,1.186,0,0,1-1.017-.314c-1.385-1.346-5.668-5.515-6.043-6.12A19.7,19.7,0,0,0,292,403.382l4.682,8.889h0a1.04,1.04,0,0,1-.4,1.53h-.069c-1.591.061-2.394-1.071-3.534-2.188l-4.926-4.819s-7.55,1.6-9.7,1.025S271,403.413,271,403.413Z" transform="translate(-222.332 -250.658)" fill="#fff" stroke="#263238" stroke-linecap="round" stroke-linejoin="round" stroke-width="1"/><path d="M274.112,398.49l-.214,8.568-2.968-1.951Z" transform="translate(-222.315 -252.344)" fill="#263238" stroke="#263238" stroke-linecap="round" stroke-linejoin="round" stroke-width="1"/><path d="M313.607,403.74l-1.691-3.419-5.967-4.36" transform="translate(-230.546 -251.749)" fill="#fff" stroke="#263238" stroke-linecap="round" stroke-linejoin="round" stroke-width="1"/><line x1="2.708" y1="2.83" transform="translate(72.527 148.188)" fill="#fff" stroke="#263238" stroke-linecap="round" stroke-linejoin="round" stroke-width="1"/><path d="M223.6,299.307s-7.466-.321-9.516,2.486-6.823,69.573-6.709,72.472,46.134,14.657,46.134,14.657l6.647-14.19-27.485-16.263,1.6-37.942" transform="translate(-207.377 -229.029)" fill="#fff" stroke="#263238" stroke-linecap="round" stroke-linejoin="round" stroke-width="1"/><path d="M224.46,376.624s7.206-3.58,12.239-.382" transform="translate(-211.393 -246.803)" fill="none" stroke="#263238" stroke-linecap="round" stroke-linejoin="round" stroke-width="1"/><path d="M228.18,379.447a14.756,14.756,0,0,1,7.5-2.127" transform="translate(-212.267 -247.368)" fill="none" stroke="#263238" stroke-linecap="round" stroke-linejoin="round" stroke-width="1"/><path d="M223.49,384.469a6.379,6.379,0,0,1,.574-.849" transform="translate(-211.165 -248.849)" fill="none" stroke="#263238" stroke-linecap="round" stroke-linejoin="round" stroke-width="1"/></g><g transform="translate(259.618 298.317)"><path d="M455.779,391.509s-3.419-4.345-3.419-6.984S455,385.772,455,385.772s-5.584-10.243-5.118-14.435,4.651,7.3,4.651,7.3-1.392-23.584.933-22.811,5.278,22.949,5.278,24.364,2.012-9.776,3.565-6.517,1.53,11.015,1.53,11.015,2.019-11.8,3.572-7.757-1.851,14.733-1.851,14.733" transform="translate(-449.854 -355.806)" fill="#8f00fc"/><rect width="18.887" height="15.674" transform="translate(2.713 39.291)" fill="none" stroke="#263238" stroke-linecap="round" stroke-linejoin="round" stroke-width="1"/><path d="M472.414,411.532V402.62H453.29v10.235a2.3,2.3,0,0,0,2.295,2.295h.122A2.3,2.3,0,0,0,458,412.855v-1.293h.122v1.293a2.3,2.3,0,0,0,2.295,2.295h.122a2.3,2.3,0,0,0,2.295-2.295v-1.293h.122v1.293a2.3,2.3,0,0,0,2.295,2.295h.115a2.3,2.3,0,0,0,2.295-2.295v-1.293h.122v1.293a2.3,2.3,0,0,0,2.295,2.295h.115a2.3,2.3,0,0,0,2.295-2.295v-1.293Z" transform="translate(-450.662 -366.809)" fill="#fff" stroke="#263238" stroke-linecap="round" stroke-linejoin="round" stroke-width="1"/></g><g transform="translate(131.57 274.874)"><path d="M283.73,424.886l49.408-.75,5.064-.826H389.73l-1.691,3.473H282.46Z" transform="translate(-282.46 -348.23)" fill="#263238" stroke="#263238" stroke-linecap="round" stroke-linejoin="round" stroke-width="1"/><path d="M417.324,388.888H353.97l8.881-63.728H426.2Z" transform="translate(-299.268 -325.16)" fill="#263238" stroke="#263238" stroke-linecap="round" stroke-linejoin="round" stroke-width="1"/><path d="M421.023,388.888H357.67l8.881-63.728H429.9Z" transform="translate(-300.138 -325.16)" fill="#3d3d3d" stroke="#263238" stroke-linecap="round" stroke-linejoin="round" stroke-width="1"/><path d="M409.576,375.129H389.71l3.343-23.989h19.866Z" transform="translate(-307.669 -331.267)" fill="#3d3d3d" stroke="#263238" stroke-linecap="round" stroke-linejoin="round" stroke-width="1"/><path d="M388.251,345.034,369.28,325.16h63.353l-24.517,19.874Z" transform="translate(-302.867 -325.16)" fill="#595959" stroke="#263238" stroke-linecap="round" stroke-linejoin="round" stroke-width="1"/><path d="M382.612,382.5l-23.1,19.659,61.946.207L402.477,382.5Z" transform="translate(-300.57 -338.638)" fill="#2e2e2e" stroke="#263238" stroke-linecap="round" stroke-linejoin="round" stroke-width="1"/><circle cx="11.887" cy="11.887" r="11.887" transform="translate(84.29 24.456)" fill="#263238" stroke="#263238" stroke-linecap="round" stroke-linejoin="round" stroke-width="1"/><path d="M407.227,364.79h.765a7.757,7.757,0,0,1,7.757,7.757v42.073H399.47V372.547A7.757,7.757,0,0,1,407.227,364.79Z" transform="translate(-309.963 -334.475)" fill="#595959" stroke="#263238" stroke-linecap="round" stroke-linejoin="round" stroke-width="1"/><path d="M416.532,415.246V373.564a6.887,6.887,0,0,0-13.677,1.629v40.053Z" transform="translate(-310.747 -335.11)" fill="#595959" stroke="#263238" stroke-linecap="round" stroke-linejoin="round" stroke-width="1"/><rect width="4.23" height="10.748" rx="2.115" transform="translate(97.968 59.292)" fill="#263238" stroke="#263238" stroke-linecap="round" stroke-linejoin="round" stroke-width="1"/><rect width="29.956" height="3.909" transform="translate(76.151 76.228)" fill="#595959" stroke="#263238" stroke-linecap="round" stroke-linejoin="round" stroke-width="1"/></g><g transform="translate(19.766 353.382)"><rect width="268.285" height="6.839" fill="#263238" stroke="#263238" stroke-linecap="round" stroke-linejoin="round" stroke-width="1"/></g></g></svg>