<svg xmlns="http://www.w3.org/2000/svg" xmlns:xlink="http://www.w3.org/1999/xlink" width="529.357" height="460" xmlns:v="https://vecta.io/nano"><style><![CDATA[.B{fill:#263238}.C{fill:#ff8b7b}.D{opacity:.2}.E{fill:#8f00fc}.F{fill:#e0e0e0}.G{fill:#f5f5f5}]]></style><g fill="#7400cc8c"><path d="M354.46 457.5H118.54L.577 253 118.54 48.5H354.46L472.423 253 354.46 457.5z"/><path d="M118.828 49L1.154 253l117.673 204h235.345l117.673-204L354.172 49H118.828m-.578-1h236.5L473 253 354.75 458h-236.5L0 253 118.25 48z" fill="#7300cc"/></g><use xlink:href="#B" class="E"/><use xlink:href="#B" class="D"/><path d="M293.137 18.933h23.45v1.447h-23.45zm-14.317 0h5.95v1.447h-5.95zm235.176 5.023H264.13a5.28 5.28 0 0 0-3.788 1.598c-.995 1.022-1.534 2.404-1.495 3.83l10.13 344.143a5.3 5.3 0 0 0 5.283 5.124h249.827c1.427-.003 2.792-.583 3.784-1.6a5.29 5.29 0 0 0 1.485-3.834L519.22 29.08c-.085-2.833-2.4-5.094-5.225-5.124z" class="E"/><path d="M269.557 42.64l9.38 320.52c.1 2.867 2.443 5.146 5.312 5.168h226.273a4.98 4.98 0 0 0 4.994-5.168l-9.38-320.52a5.34 5.34 0 0 0-5.312-5.153H274.55c-1.355-.01-2.655.536-3.598 1.5s-1.447 2.29-1.396 3.643z" class="D"/><path d="M271.12 41.08l9.38 320.52a5.34 5.34 0 0 0 5.312 5.153h226.273c1.355.01 2.655-.536 3.598-1.5s1.447-2.29 1.396-3.643L507.7 41.08a5.34 5.34 0 0 0-5.312-5.153H276.114c-1.355-.01-2.655.536-3.598 1.5s-1.447 2.29-1.396 3.643z" fill="#fff"/><path d="M340.688 144.318h-43.483l-1.274-43.5h43.483z" class="G"/><path d="M482.253 118.087h-122.95l-.232-8.106h122.95zm-26.24 17.066h-96.2l-.246-8.106h96.215z" class="F"/><path d="M342.975 222.32h-43.483l-1.274-43.483H341.7z" class="G"/><path d="M406.768 196.106H361.6l-.232-8.12h45.162zm42.772 0h-33.22l-.246-8.12h33.235zm20.134 17.066H362.082l-.232-8.12h107.593z" class="F"/><path d="M345.262 300.34H301.78l-1.274-43.5h43.483z" class="G"/><path d="M487.087 283.058h-122.95l.232 8.12h122.95zm-27.242-17.05H363.63l.246 8.106h96.2z" class="F"/><path d="M321.102 133a1.9 1.9 0 0 1-3.185-.145h0c-2.895-4.632-8.222-8.86-11.32-10.958-.835-.554-1.105-1.655-.622-2.533h0a1.85 1.85 0 0 1 1.21-.88c.5-.1 1.042-.001 1.467.302a52.11 52.11 0 0 1 9.365 8.048c.355.437.887.7 1.45.7a1.87 1.87 0 0 0 1.45-.69 123.98 123.98 0 0 1 22.074-20.511 1.91 1.91 0 0 1 2.663.405h0a1.88 1.88 0 0 1-.333 2.649c-11.117 8.4-19.02 16.154-24.144 23.623zm2.288 78.022a1.91 1.91 0 0 1-3.184-.159h0c-2.823-4.632-8.222-8.86-11.334-10.943-.83-.558-1.094-1.66-.608-2.533h0a1.88 1.88 0 0 1 2.692-.565 51.4 51.4 0 0 1 9.351 8.034 1.88 1.88 0 0 0 2.9 0 123.96 123.96 0 0 1 22.016-20.5 1.9 1.9 0 0 1 2.663.405h0a1.88 1.88 0 0 1-.333 2.634c-11.117 8.424-19.02 16.17-24.144 23.638zm2.23 78.168a1.91 1.91 0 0 1-3.185-.159h0c-2.895-4.632-8.222-8.86-11.32-10.943a1.94 1.94 0 0 1-.622-2.533h0a1.85 1.85 0 0 1 1.21-.88c.5-.1 1.042-.001 1.467.302 3.427 2.3 6.57 4.997 9.365 8.034a1.88 1.88 0 0 0 2.895 0 123.31 123.31 0 0 1 22-20.5 1.9 1.9 0 0 1 2.663.405h0a1.85 1.85 0 0 1-.332 2.634c-11.1 8.428-19.018 16.172-24.142 23.64z" class="E"/><path d="M426.1 347.283c-4.854.044-9.575-1.592-13.36-4.632-3.01-2.084-5.8-4.04-11.48-4.04a16.82 16.82 0 0 0-11.247 4.038 19.89 19.89 0 0 1-13.027 4.632c-4.86.047-9.585-1.6-13.375-4.63-3.01-2.084-5.8-4.038-11.48-4.038-4.113-.08-8.112 1.358-11.233 4.038-3.65 3.05-8.27 4.692-13.027 4.632-4.854.044-9.575-1.592-13.36-4.632-3.01-2.084-5.8-4.04-11.48-4.04l-.1-3.257c4.86-.046 9.585 1.6 13.375 4.632a17.7 17.7 0 0 0 11.479 4.038 16.75 16.75 0 0 0 11.232-4.038 19.9 19.9 0 0 1 13.1-4.632 21.03 21.03 0 0 1 13.36 4.632c3.01 2.084 5.8 4.038 11.48 4.038a16.75 16.75 0 0 0 11.233-4.038 19.96 19.96 0 0 1 13.1-4.632c4.86-.046 9.585 1.6 13.375 4.632 3.01 2.084 5.8 4.04 11.48 4.04z" fill="#ebebeb"/><path d="M447.628 33.915h-.275C444.01 23.305 436 16.27 427.233 16.27H409.4c-2.83-.106-5.284-1.986-6.123-4.7C400.89 4.82 395.026 0 388.295 0s-12.333 4.82-14.374 11.58a6.27 6.27 0 0 1-5.877 4.69h-17.818c-8.757 0-16.415 7.035-19.194 17.645h-.26a3.82 3.82 0 0 0-3.546 4.169 4.07 4.07 0 0 0 3.764 4.154h116.885a3.82 3.82 0 0 0 3.561-4.154 4.07 4.07 0 0 0-3.807-4.169z" class="B"/><path d="M318.323 76.268c-1.38.096-2.734-.4-3.727-1.36-.913-1.073-1.372-2.46-1.28-3.865-.013-.76.12-1.513.39-2.222.24-.618.604-1.18 1.07-1.65a4.48 4.48 0 0 1 1.621-1.02 5.85 5.85 0 0 1 2.041-.348 6.54 6.54 0 0 1 1.158.09 7.51 7.51 0 0 1 .912.217 4.5 4.5 0 0 1 .651.253q.26.13.376.2l-.65 1.83c-.343-.178-.705-.32-1.078-.42-.456-.122-.928-.18-1.4-.174-.347 0-.692.06-1.02.174a2.31 2.31 0 0 0-.883.557c-.273.283-.483.62-.615.992a4.16 4.16 0 0 0-.232 1.476 5.27 5.27 0 0 0 .158 1.295 2.75 2.75 0 0 0 .489 1.037c.237.298.542.534.9.688a3.17 3.17 0 0 0 1.332.253 6.07 6.07 0 0 0 .883-.058c.234-.033.466-.08.695-.138a3.65 3.65 0 0 0 .535-.182q.232-.1.42-.188l.622 1.81a5.29 5.29 0 0 1-1.346.521c-.658.164-1.334.243-2.012.233zm11.61-4.024a4.95 4.95 0 0 1-.261 1.643 3.57 3.57 0 0 1-.756 1.274c-.33.354-.733.633-1.18.818-.49.2-1.014.297-1.542.29a3.9 3.9 0 0 1-1.527-.289c-.447-.185-.85-.464-1.18-.818-.338-.37-.6-.802-.767-1.274-.187-.527-.278-1.084-.27-1.643-.007-.558.088-1.113.282-1.636a3.71 3.71 0 0 1 .784-1.259 3.51 3.51 0 0 1 1.187-.811 3.82 3.82 0 0 1 1.5-.289 3.86 3.86 0 0 1 1.513.289c.446.184.848.46 1.18.81a3.68 3.68 0 0 1 .767 1.259c.187.525.28 1.08.27 1.636zm-2.2 0a2.71 2.71 0 0 0-.4-1.571 1.3 1.3 0 0 0-1.136-.572 1.32 1.32 0 0 0-1.144.572c-.294.47-.436 1.018-.405 1.57-.03.557.112 1.1.405 1.585a1.31 1.31 0 0 0 1.144.586 1.29 1.29 0 0 0 1.136-.586c.29-.476.428-1.03.4-1.585zm3.865-3.532a12.02 12.02 0 0 1 1.419-.3c.603-.094 1.213-.14 1.824-.138a4.44 4.44 0 0 1 1.614.253c.397.146.748.393 1.02.717a2.79 2.79 0 0 1 .536 1.1c.11.465.164.94.16 1.42v4.3h-2.154v-4.036c.04-.508-.056-1.017-.275-1.476a1.12 1.12 0 0 0-1.028-.434q-.232 0-.492.022-.26.022-.463.05v5.876h-2.16zm8.453-2.157l2.157-.347v2.244h2.59v1.795h-2.59v2.678a2.13 2.13 0 0 0 .239 1.086c.223.3.592.456.963.405a4.12 4.12 0 0 0 .717-.065c.23-.04.455-.1.673-.18l.3 1.68c-.282.113-.573.205-.87.275a5.06 5.06 0 0 1-1.172.116 3.86 3.86 0 0 1-1.462-.239c-.36-.14-.678-.37-.926-.666a2.48 2.48 0 0 1-.485-1.035 6.11 6.11 0 0 1-.135-1.347zm11.088 3.807q-.29-.072-.68-.152a4.2 4.2 0 0 0-.84-.08 3.9 3.9 0 0 0-.485.036c-.144.016-.287.043-.427.08v5.82h-2.156v-7.21c.448-.153.903-.28 1.365-.384a7.88 7.88 0 0 1 1.761-.18q.174 0 .42.022.246.022.492.058.246.036.492.087c.144.028.284.07.42.123zm8.5 1.882a4.95 4.95 0 0 1-.261 1.643 3.57 3.57 0 0 1-.753 1.274 3.39 3.39 0 0 1-1.18.818c-.49.2-1.014.297-1.542.29a3.9 3.9 0 0 1-1.527-.289c-.447-.185-.85-.464-1.18-.818-.338-.37-.6-.802-.767-1.274-.188-.527-.282-1.083-.275-1.643-.007-.558.088-1.113.282-1.636a3.71 3.71 0 0 1 .78-1.259 3.51 3.51 0 0 1 1.187-.811 3.82 3.82 0 0 1 1.5-.289 3.86 3.86 0 0 1 1.513.289c.446.184.848.46 1.18.81a3.68 3.68 0 0 1 .767 1.259c.188.525.28 1.08.273 1.636zm-2.2 0a2.71 2.71 0 0 0-.4-1.571 1.3 1.3 0 0 0-1.136-.572 1.32 1.32 0 0 0-1.144.572c-.294.47-.436 1.018-.405 1.57-.03.557.112 1.1.405 1.585a1.31 1.31 0 0 0 1.144.586 1.29 1.29 0 0 0 1.136-.586c.288-.477.426-1.03.397-1.585zm6.9 3.966a5.39 5.39 0 0 1-1.523-.202 2.26 2.26 0 0 1-.926-.528c-.227-.227-.387-.513-.463-.825a4.45 4.45 0 0 1-.126-1.094v-8.38l2.157-.347v8.294a2.84 2.84 0 0 0 .043.521.9.9 0 0 0 .166.391c.094.116.217.205.355.26.2.077.41.12.622.13zm1.177-3.893c-.013-.606.093-1.208.31-1.773a3.8 3.8 0 0 1 .818-1.267 3.4 3.4 0 0 1 1.165-.767 3.65 3.65 0 0 1 1.353-.261c.956-.05 1.888.312 2.562.992.68.813 1.018 1.86.94 2.917q0 .188-.014.413-.014.225-.03.4h-4.896c.038.428.267.816.622 1.057a2.5 2.5 0 0 0 1.476.391c.39 0 .78-.036 1.165-.11a4.4 4.4 0 0 0 .934-.268l.292 1.75a2.98 2.98 0 0 1-.463.174 6.06 6.06 0 0 1-.644.152q-.355.065-.76.11a7.6 7.6 0 0 1-.811.043 4.8 4.8 0 0 1-1.788-.3 3.48 3.48 0 0 1-1.259-.832 3.3 3.3 0 0 1-.738-1.252 4.96 4.96 0 0 1-.237-1.57zm5.063-.824c-.01-.182-.04-.362-.094-.536-.05-.17-.134-.326-.246-.463a1.31 1.31 0 0 0-.423-.334 1.37 1.37 0 0 0-.63-.13c-.214-.005-.426.037-.622.123-.166.077-.314.188-.434.326s-.21.298-.268.47-.11.358-.138.543zm9.06.71a2.64 2.64 0 0 0 .449 1.607 1.55 1.55 0 0 0 1.332.608q.3 0 .536-.022.246-.022.405-.05V70.42c-.164-.1-.342-.172-.528-.217-.215-.058-.436-.087-.66-.087q-1.535 0-1.535 2.085zm4.876 3.618q-.3.087-.666.166-.376.08-.79.138-.413.058-.84.094-.427.036-.818.036c-.572.01-1.14-.084-1.68-.275-.467-.168-.89-.436-1.242-.786-.345-.354-.61-.78-.774-1.245a4.75 4.75 0 0 1-.268-1.643c-.007-.566.07-1.13.232-1.672a3.64 3.64 0 0 1 .666-1.267 2.85 2.85 0 0 1 1.064-.8c.456-.2.946-.284 1.44-.275a3.39 3.39 0 0 1 .8.087 4.35 4.35 0 0 1 .717.246V65.18l2.157-.347zm1.665-3.5c-.013-.606.093-1.208.31-1.773a3.8 3.8 0 0 1 .824-1.27 3.4 3.4 0 0 1 1.165-.767 3.65 3.65 0 0 1 1.353-.261c.956-.05 1.888.312 2.562.992.68.813 1.018 1.86.94 2.917q0 .188-.014.413-.014.225-.03.4h-4.896c.038.426.265.812.618 1.054a2.5 2.5 0 0 0 1.476.391c.39 0 .78-.036 1.165-.11a4.4 4.4 0 0 0 .934-.268l.294 1.754a2.98 2.98 0 0 1-.463.174 6.06 6.06 0 0 1-.644.152q-.355.065-.76.11a7.6 7.6 0 0 1-.811.043 4.8 4.8 0 0 1-1.788-.3 3.48 3.48 0 0 1-1.259-.832 3.3 3.3 0 0 1-.738-1.252 4.96 4.96 0 0 1-.239-1.57zm5.068-.827c-.01-.182-.04-.362-.094-.536-.05-.17-.134-.326-.246-.463a1.31 1.31 0 0 0-.42-.333 1.37 1.37 0 0 0-.63-.13c-.214-.005-.426.037-.622.123-.166.077-.314.188-.434.326s-.21.298-.268.47-.11.358-.138.543zm9.06.825q0 2.07 1.534 2.07c.223 0 .444-.03.66-.087.186-.045.364-.118.528-.217v-3.89q-.16-.03-.405-.05-.246-.022-.536-.022c-.516-.034-1.015.19-1.332.6a2.61 2.61 0 0 0-.447 1.597zm-2.2-.058a4.66 4.66 0 0 1 .268-1.614c.167-.47.43-.898.774-1.26.35-.36.775-.64 1.245-.818a4.57 4.57 0 0 1 1.679-.29q.39 0 .818.036.427.036.84.094.413.058.79.138.376.08.666.166v10.03h-2.157v-2.866a4.04 4.04 0 0 1-.753.246c-.276.06-.558.09-.84.087a2.99 2.99 0 0 1-2.475-1.064c-.61-.835-.9-1.855-.854-2.887zm15.6 3.546a12.02 12.02 0 0 1-1.419.3c-.603.094-1.213.14-1.824.138a4.33 4.33 0 0 1-1.614-.261 2.45 2.45 0 0 1-1.021-.731c-.26-.33-.442-.713-.536-1.122-.108-.47-.16-.954-.153-1.437v-4.24h2.157v3.98c-.036.517.058 1.034.275 1.505.23.333.626.51 1.028.463q.232 0 .492-.022.26-.022.463-.05v-5.875h2.158zm4.936-1.245q.318 0 .608-.014a4.23 4.23 0 0 0 .463-.043v-1.637q-.13-.03-.39-.058c-.16-.018-.318-.028-.478-.03-.19-.001-.382.01-.572.036-.163.02-.322.066-.47.138-.128.062-.238.157-.318.275-.08.13-.122.28-.116.434a.74.74 0 0 0 .34.7 1.88 1.88 0 0 0 .938.197zm-.174-6.31a5 5 0 0 1 1.592.217c.386.12.736.334 1.02.622a2.29 2.29 0 0 1 .543.984c.1.42.164.853.16 1.288v4.487q-.463.1-1.288.24a12.38 12.38 0 0 1-2 .138c-.45.004-.9-.04-1.34-.13-.37-.074-.72-.22-1.035-.427-.287-.194-.517-.462-.666-.774-.165-.368-.244-.77-.232-1.172a2.22 2.22 0 0 1 .276-1.129 2.06 2.06 0 0 1 .714-.74 3.24 3.24 0 0 1 1.028-.4c.395-.083.797-.124 1.2-.123a6.82 6.82 0 0 1 .745.036 3.32 3.32 0 0 1 .528.094v-.2c.015-.328-.105-.647-.333-.883a1.61 1.61 0 0 0-1.158-.333c-.363 0-.726.027-1.086.08-.316.043-.626.118-.926.224l-.275-1.737q.188-.058.47-.123.282-.065.615-.116.333-.05.7-.087.367-.036.753-.036zm8.31 7.96a5.39 5.39 0 0 1-1.527-.2 2.26 2.26 0 0 1-.926-.528c-.227-.227-.387-.513-.463-.825a4.45 4.45 0 0 1-.119-1.097v-8.38l2.157-.347v8.294c-.002.175.013.35.043.52a.9.9 0 0 0 .166.391c.094.116.217.205.355.26.2.077.41.12.622.13zm3.69-.145h-2.156v-7.614h2.157zm.2-9.814c.018.353-.123.696-.384.934a1.32 1.32 0 0 1-.9.34 1.32 1.32 0 0 1-.9-.34c-.26-.238-.402-.58-.384-.934-.018-.353.123-.696.384-.934a1.32 1.32 0 0 1 .9-.34 1.32 1.32 0 0 1 .9.34c.264.237.407.58.39.934zm3.662 5.95a2.64 2.64 0 0 0 .449 1.607 1.55 1.55 0 0 0 1.332.608q.3 0 .536-.022.246-.022.405-.05V70.42c-.164-.1-.342-.172-.528-.217-.215-.058-.436-.087-.66-.087q-1.528 0-1.528 2.085zm4.882 3.62q-.29.087-.666.166-.377.08-.79.138-.413.058-.84.094-.427.036-.818.036c-.572.01-1.14-.084-1.68-.275-.468-.168-.893-.437-1.245-.79-.345-.354-.61-.78-.774-1.245a4.75 4.75 0 0 1-.268-1.643c-.007-.566.07-1.13.232-1.672a3.64 3.64 0 0 1 .666-1.267 2.85 2.85 0 0 1 1.064-.8c.456-.2.946-.284 1.44-.275a3.39 3.39 0 0 1 .8.087 4.35 4.35 0 0 1 .716.246v-3.44l2.16-.347zm4.936-1.26q.318 0 .608-.014a4.23 4.23 0 0 0 .463-.043v-1.637q-.13-.03-.39-.058c-.16-.018-.318-.028-.478-.03-.19-.001-.382.01-.572.036-.163.02-.322.066-.47.138-.128.062-.238.157-.318.275-.08.13-.122.28-.116.434a.74.74 0 0 0 .34.7 1.88 1.88 0 0 0 .937.197zm-.174-6.31a5 5 0 0 1 1.592.217c.386.12.736.334 1.02.622a2.29 2.29 0 0 1 .543.984c.1.42.164.853.16 1.288v4.487q-.463.1-1.288.24a12.38 12.38 0 0 1-2 .138c-.45.004-.9-.04-1.34-.13-.37-.074-.72-.22-1.035-.427-.287-.194-.517-.462-.666-.774-.165-.368-.244-.77-.232-1.172a2.22 2.22 0 0 1 .275-1.129 2.06 2.06 0 0 1 .717-.738 3.24 3.24 0 0 1 1.028-.4c.395-.083.797-.124 1.2-.123a6.82 6.82 0 0 1 .745.036 3.32 3.32 0 0 1 .528.094v-.2c.015-.328-.105-.647-.333-.883a1.61 1.61 0 0 0-1.158-.333c-.363 0-.726.027-1.086.08a4.66 4.66 0 0 0-.926.224l-.275-1.737q.188-.058.47-.123.282-.065.615-.116.333-.05.7-.087.367-.036.75-.038zm7.107 3.952a2.64 2.64 0 0 0 .449 1.607 1.55 1.55 0 0 0 1.332.608q.3 0 .536-.022.246-.022.405-.05V70.42c-.164-.1-.342-.172-.528-.217-.215-.058-.436-.087-.66-.087q-1.53 0-1.53 2.085zm4.878 3.62q-.3.087-.666.166-.376.08-.79.138-.413.058-.84.094-.427.036-.818.036c-.572.01-1.14-.084-1.68-.275-.468-.168-.893-.437-1.245-.79-.345-.354-.61-.78-.774-1.245a4.75 4.75 0 0 1-.268-1.643c-.007-.566.07-1.13.232-1.672a3.64 3.64 0 0 1 .666-1.267 2.85 2.85 0 0 1 1.064-.8c.456-.2.946-.284 1.44-.275a3.39 3.39 0 0 1 .8.087 4.35 4.35 0 0 1 .716.246V65.18l2.157-.347zm1.665-3.5c-.013-.606.093-1.208.31-1.773a3.8 3.8 0 0 1 .818-1.267 3.4 3.4 0 0 1 1.165-.767 3.65 3.65 0 0 1 1.353-.261c.956-.05 1.888.312 2.562.992.68.813 1.018 1.86.94 2.917q0 .188-.014.413-.014.225-.03.4h-4.89c.038.428.267.816.622 1.057a2.5 2.5 0 0 0 1.476.391c.39 0 .78-.036 1.165-.11a4.4 4.4 0 0 0 .934-.268l.3 1.75a2.98 2.98 0 0 1-.463.174 6.06 6.06 0 0 1-.644.152q-.355.065-.76.11a7.6 7.6 0 0 1-.811.043 4.8 4.8 0 0 1-1.788-.3 3.48 3.48 0 0 1-1.259-.832 3.3 3.3 0 0 1-.738-1.252 4.96 4.96 0 0 1-.239-1.574zm5.066-.825c-.01-.182-.04-.362-.094-.536a1.34 1.34 0 0 0-.246-.463 1.31 1.31 0 0 0-.42-.333 1.37 1.37 0 0 0-.63-.13c-.214-.005-.426.037-.622.123-.166.077-.314.188-.434.326s-.21.298-.268.47-.11.358-.138.543z" class="E"/><g class="C"><path d="M215.248 186.41l-4.893 126.555-1.187 126.57H199.6s-15.286-73.65-10.755-126.57C182 272.332 177.38 186.41 177.38 186.41z"/><path d="M202.582 186.41l-32.134 129.61c-9.843 37.04-23.073 120.76-23.16 123.515h-8.28s-2.605-96.722 10.51-129.61c0-41.2 17.138-123.515 17.138-123.515z"/></g><g class="B"><path d="M138.807 434.512c-1.578 1.795-2.895 11.088-.463 15.228s0 10.263 7.96 10.263 8.685-1.737 6.73-5.443-4.342-10.668-4.256-15.025c.085-5.623 2.242-8.513-9.973-5.023z"/><path d="M137.82 444.194c-.174 4.777-.072 12.58-.072 12.58h1.26s.94-8.54 1.737-11.7z"/></g><path d="M223.397 128.784l2.78 22.074 2.46 22.2.65 5.312a50.06 50.06 0 0 0 .478 2.5l.55 2.577c.782 3.445 1.78 6.9 2.9 10.364s2.186 6.92 3.46 10.35l3.88 10.248-5.34 2.9a143.69 143.69 0 0 1-10.914-20.265 111.88 111.88 0 0 1-4.111-10.856c-.318-.912-.58-1.882-.854-2.823s-.55-1.9-.782-2.9a57.36 57.36 0 0 1-1.071-5.718q-1.737-11.073-3.27-22.176l-2.9-22.22z" class="C"/><path d="M221.298 118.044c3.04 5.69 4.618 28.14 7.165 43.555.17 1.123-.48 2.21-1.55 2.59-3.397 1.35-6.54 3.27-9.293 5.674-.632.54-1.502.704-2.287.434s-1.37-.937-1.534-1.75l-7.238-33.452 3.14-6.34a15.3 15.3 0 0 1 11.58-10.711z" class="B"/><g class="C"><path d="M240.318 213.188l10.538 5.92-11.392 4.343s-5.8-4.994-4.762-9.857z"/><path d="M254.72 228.4l-9.727 3.054-5.53-8.077 11.392-4.27z"/></g><path d="M235.672 225.825l111.54-13.158.13 1.057L236 228.358zM222.37 122.213c.188 8.685-.347 33.177-6.44 70.667h-50.793c.825-19.83 3.3-38.648-6.152-79.178a134.96 134.96 0 0 1 19.686-2.52 155.86 155.86 0 0 1 22.074 0c4.748.434 9.814 1.2 13.693 1.867 4.5.772 7.8 4.608 7.932 9.163z" class="B"/><path d="M196.314 193.053h0a.2.2 0 0 1-.159-.2c4.632-43.092.565-60.274.52-60.447-.02-.095.037-.19.13-.217.046-.018.098-.014.14.01s.07.07.076.12c0 .174 4.125 17.37-.507 60.578-.004.048-.027.093-.065.123s-.087.043-.135.036z" fill="#fff" class="D"/><path d="M200.743 111.14H178.67s7.585 12.738 17.645 19.454a28.82 28.82 0 0 0 4.429-19.454z" class="F"/><g class="B"><path d="M188.222 79.775c4.965 8.38 2.982 18.73-4.43 23.16s-17.37 1.13-22.393-7.237-2.982-18.817 4.43-23.16 17.43-1.163 22.393 7.237z"/><path d="M157.044 88.935c-.27-4.636 1.16-9.212 4.024-12.868a14.69 14.69 0 0 1 22.552-1.1 19.12 19.12 0 0 1 5.269 12.463h-.724a18.41 18.41 0 0 0-5.066-12c-2.805-3.066-6.83-4.722-10.98-4.518s-7.994 2.248-10.485 5.575c-2.78 3.517-4.174 7.93-3.923 12.405z"/><ellipse cx="16.357" cy="15.546" rx="16.357" ry="15.546" transform="matrix(.43586 -.900015 .900015 .43586 178.843 94.252)"/></g><path d="M180.87 86.3c1.447 7.093 2.78 20.106-2.186 24.84 0 0 3.836 7.512 15.184 10.132 7.05-4.342 6.9-10.132 6.9-10.132-7.918-1.9-7.715-7.76-6.34-13.274z" class="C"/><path d="M189.22 119.8l-9.886-11.652-3.416 1.8-.565 16.85 7.324-9.6zm6.703-.01l3.213-10.48 4.04 1.8 4.43 14.185-6.6-8.12z" fill="#fff"/><path d="M186.385 91.02l8.02 6.832a22.06 22.06 0 0 0-.68 3.923c-3.025-.434-7.237-3.764-7.5-6.934a10.13 10.13 0 0 1 .159-3.821z" class="D"/><path d="M173.372 73.273c2.78 11.58 3.72 16.487 10.668 21.437 10.465 7.44 24.028 1.447 24.752-10.654.65-10.93-4-27.966-16.255-30.586a16.2 16.2 0 0 0-19.165 19.8z" class="C"/><path d="M176.008 78.6c7.238-4.343 6.282-17.37 6.282-17.37 12.52-.16 17.37 0 21.177.536s1.447-4.56-4.125-8.685-20.685-2.9-25.39 4.994C168.16 60.4 162.63 73.533 176.008 78.6z" class="B"/><g class="E"><path d="M166.177 67.382l49.316-11.16c0-5.1-20.96 1.216-20.96 1.216z"/><path d="M206.055 55.917c-.782-2.895-6.79-17.442-27.5-11.48-19.08 5.573-12.38 22.943-12.38 22.943z"/><path d="M192.044 43.975l-7.252-1.81-8.323 1.476.1 1.462 5.457.883z"/></g><path d="M191.928 58.566c-.378.001-.694-.29-.724-.666 0-.45-.912-10.726-13.838-12.71a.74.74 0 0 1-.608-.825c.073-.387.433-.653.825-.608 14.1 2.17 15.054 13.925 15.068 14.04.012.192-.053.38-.18.525s-.307.23-.5.242z" opacity=".4"/><path d="M210.63 302.08l-24.2-5.906-1.867-16.24 26.634 4.66-.567 17.486zm-58.536-27.808l27.705 4.835-3.648 14.562-25.447-6.268 1.4-13.13z" class="D"/><g class="B"><path d="M193.795 73.403c.16.955.8 1.636 1.448 1.52s1-.97.825-1.925-.8-1.62-1.448-1.448-.998.898-.825 1.853zm10.74-1.896c.16.94.8 1.62 1.447 1.52s1-.97.825-1.925-.8-1.636-1.447-1.447-.998.896-.825 1.852z"/><path d="M205.086 69.683l2.17-1.057s-.854 1.983-2.17 1.057z"/></g><path d="M201.988 73.635c1.228 2.02 2.728 3.862 4.458 5.472-.856.87-2.053 1.32-3.27 1.23z" fill="#ff5652"/><path d="M197.487 84.75a9.1 9.1 0 0 0 1.621-.145c.073-.01.14-.05.183-.1s.06-.135.05-.208a.29.29 0 0 0-.333-.232c-2.388.47-4.857-.216-6.658-1.853-.065-.08-.17-.118-.27-.098s-.183.096-.21.196.002.207.077.278a7.86 7.86 0 0 0 5.543 2.172z" class="B"/><path d="M171.765 79.86c.9 2.13 2.615 3.813 4.762 4.675 2.9 1.13 4.574-1.317 4.067-4.154-.463-2.548-2.475-6.224-5.443-6.152-1.33.033-2.553.745-3.24 1.886s-.742 2.554-.148 3.745z" class="C"/><path d="M189.062 69.075a.56.56 0 0 0 .39-.217c.872-1.15 2.235-1.82 3.677-1.8a.56.56 0 0 0 .417-.124c.117-.096.2-.233.205-.383a.58.58 0 0 0-.521-.622c-1.824-.045-3.56.8-4.66 2.244a.58.58 0 0 0 .087.8.61.61 0 0 0 .405.111zm17.476-3.518a.55.55 0 0 0 .318-.275.57.57 0 0 0 .032-.44c-.048-.146-.155-.263-.293-.328a5.63 5.63 0 0 0-5.168 0 .58.58 0 0 0-.2.782c.076.13.202.227.35.264a.57.57 0 0 0 .433-.064 4.46 4.46 0 0 1 4.1 0 .51.51 0 0 0 .43.06zm-12.192 6.023l2.17-1.057s-.854 1.983-2.17 1.057zm21.582 121.3l-2.084 100.8-64.978-9.264c-2.605-52.7 6.514-80.365 16.27-91.525z" class="B"/><path d="M198.877 251.85l-15.474-18.615v-14.692z" class="D"/><path d="M165.352 126.728c-1.94 5.8-3.807 11.84-5.573 17.76s-3.33 11.956-4.59 17.906a85.35 85.35 0 0 0-1.447 8.815v.81a.94.94 0 0 0 .1.593c.425.9 1.014 1.715 1.737 2.4a36.97 36.97 0 0 0 6.47 5.139c2.5 1.592 5.225 3.127 7.86 4.5l-1.853 5.8c-3.3-.633-6.56-1.548-9.713-2.736a38.39 38.39 0 0 1-9.452-5.023 18.37 18.37 0 0 1-4.446-4.743c-.742-1.184-1.276-2.486-1.578-3.85-.163-.756-.245-1.527-.246-2.3v-1.52c.1-1.708.246-3.416.45-5.066s.45-3.3.695-4.936a191.5 191.5 0 0 1 4.256-19.064q1.23-4.7 2.707-9.307c.97-3.083 1.94-6.108 3.083-9.235z" class="C"/><path d="M202.958 166.782l-7.817-5.776-17.9 26.793-20.4 24.955 7.83 5.8 17.89-26.808z" fill="#fafafa"/><path d="M195.127 161.006a13.08 13.08 0 0 0 7.83 5.8 13.03 13.03 0 0 0-7.831-5.79zm-38.287 51.748a13.08 13.08 0 0 0 7.83 5.8 13.08 13.08 0 0 0-7.83-5.8z" fill="#e6e6e6"/><g class="C"><path d="M168.58 184.223l12.9.854-8.44 8.757s-7.41-2-8.54-6.832z"/><path d="M185.66 191.866L182.028 197a2.23 2.23 0 0 1-2.895.651l-7.9-4.43 10.277-8.12 3.923 3.88c.778.78.877 2.007.232 2.9z"/></g><path d="M169.45 124.388c-.912-5.6-5.1-8.9-10.465-10.726-7.9 5.718-11.768 24.607-16.14 46.638a2.9 2.9 0 0 0 1.679 3.156c3.46 1.447 6.412 2.895 8.4 3.82a2.79 2.79 0 0 0 3.85-1.45l14.127-35.062zm57.913 333.252c-1.468-1.07-3.1-1.9-4.835-2.432h0s-8.57-4.85-13.027-19.4l-9.9-2.475a1.8 1.8 0 0 0-2.215 1.52l-.26 2.4c-.094 1.576-.094 3.157 0 4.733.087 4.907.637 15.922.637 15.922h1.158c0-3.354.203-6.705.608-10.035.564-3.24 2.895.6 4.14 4.26s6.44 7.585 13.925 7.76c8.758.268 12.32-.123 9.77-2.25z" class="B"/><defs ><path id="B" d="M511.593 23.956h-249.88c-1.424.003-2.787.58-3.78 1.603s-1.53 2.4-1.5 3.825l10.132 344.142c.086 2.855 2.426 5.125 5.283 5.124h249.8c1.43.001 2.798-.578 3.793-1.603s1.533-2.41 1.5-3.84L516.818 29.08a5.27 5.27 0 0 0-5.225-5.124z"/></defs></svg>