<svg xmlns="http://www.w3.org/2000/svg" xmlns:xlink="http://www.w3.org/1999/xlink" width="447.32" height="410.058" viewBox="0 0 447.32 410.058"><defs><clipPath id="a"><path d="M289.34,290.73,301,294.58c1.23.32,3.65-1.73,3.54-3L301.05,251a3.87,3.87,0,0,0-2.89-3.42l-12.87-2.8c-1.23-.31-4.32,1.16-4.21,2.42l5.36,40.11a3.87,3.87,0,0,0,2.9,3.42Z" fill="#7300cc" stroke="#263238" stroke-linecap="round" stroke-linejoin="round" stroke-width="1"/></clipPath></defs><g transform="translate(0.677)"><g transform="translate(-26.057 -54.941)"><path d="M236,56.1c124-11.05,124.25,58.93,180.13,124.13S484,275,463,350.13,370.89,484.2,283.06,450.82s-138.14-1.32-193.54-31-76-86.91-35.42-154.41S83.1,69.72,236,56.1Z" fill="#7400cc8c"/></g><g transform="translate(-26.057 -54.941)"><path d="M198,422a18.09,18.09,0,0,0-35.61,4.47A18.361,18.361,0,0,0,163,431a18.12,18.12,0,0,0,17.49,13.6,18.441,18.441,0,0,0,4.53-.57,18,18,0,0,0,7.85-4.3,7.449,7.449,0,0,1-.49-.87h0a17.08,17.08,0,0,1-20.13,2.61l-.42-.23a17.076,17.076,0,1,1,25.59-12.16,7.354,7.354,0,0,1,1-.11A18,18,0,0,0,198,422Z" fill="#263238"/><path d="M192.37,438.89a23.41,23.41,0,0,1-6.14,4.21,9.318,9.318,0,0,1-1.34.47,9.219,9.219,0,0,1-1.41.24c-5,.52-11.69-2-11.69-2l.44-.33a22.478,22.478,0,0,1,4-2.51,3.135,3.135,0,0,0,2-4.22,16.5,16.5,0,0,1-5.74-9.38c-.62-2.74-2-8.05,3.57-10.26h0a13.636,13.636,0,0,1,1.36-.43c.48-.12.95-.21,1.39-.28h0c6-.76,7.29,4.57,8.07,7.26a16.53,16.53,0,0,1-.52,11c.62,2.74,2.76,3,3.79,2.73a6.638,6.638,0,0,1,1.51-.05,6.984,6.984,0,0,0,.64,3.53Z" fill="#263238"/><path d="M198.64,443.36a7.45,7.45,0,1,1,7.22-9.3h0a7.47,7.47,0,0,1-7.22,9.3Zm0-13.9a6.35,6.35,0,1,0,6.346,5.934,6.3,6.3,0,0,0-6.346-5.934Z" fill="#263238"/><path d="M198.21,435.61,197,432.75l1.63-.42.29,3.1,2.35-2.05.9,1.41-2.83,1.27,2.66,1.57-1.06,1.3-2.08-2.32-.71,3-1.54-.62,1.57-2.66-3.1.25.11-1.67Z" fill="#263238"/><path d="M186.06,414.8c-5.13-5.62-8.93-1.45-8.93-1.45s-5.33-1.83-7.13,5.57,3.44,13.21-1,15.66c0,0,5.64,2.4,13.66.34s11.81-6.87,11.81-6.87C189.41,428,191.2,420.41,186.06,414.8Z" fill="#263238"/><path d="M470.74,250.58a12.41,12.41,0,0,0-23.11-8.45,12.832,12.832,0,0,0-1.07,2.93A12.4,12.4,0,0,0,462,259.76a5.077,5.077,0,0,1,0-.68h0a11.79,11.79,0,0,1-6,.19,11.58,11.58,0,0,1-7.13-4.92,2.756,2.756,0,0,1-.19-.28,11.621,11.621,0,0,1-1.63-4.26,12,12,0,0,1,.13-4.58,11.707,11.707,0,1,1,20.9,9.47,4.422,4.422,0,0,1,.67.25,12.349,12.349,0,0,0,1.99-4.37Z" fill="#263238"/><path d="M462,259.08a16.169,16.169,0,0,1-5.06.64,7.3,7.3,0,0,1-1-.14,6.642,6.642,0,0,1-.93-.29c-3.2-1.25-6.5-4.9-6.5-4.9l.38-.06a14.84,14.84,0,0,1,3.25-.26,2.16,2.16,0,0,0,2.55-1.95,11.32,11.32,0,0,1-.56-7.52c.49-1.86,1.29-5.54,5.4-5.13h0a9.6,9.6,0,0,1,1,.16q.5.12.93.27h0c3.88,1.41,3,5.08,2.64,7a11.36,11.36,0,0,1-3.76,6.54,2.13,2.13,0,0,0,1.45,2.85,4.481,4.481,0,0,1,.93.44,5,5,0,0,0-.6,1.47,4.507,4.507,0,0,0-.11.89S462,259.07,462,259.08Z" fill="#263238"/><path d="M464.42,263.77a5.108,5.108,0,1,1,7.3-3.4h0a5.09,5.09,0,0,1-6.11,3.84,5,5,0,0,1-1.19-.44Zm4.38-8.46a4.72,4.72,0,0,0-1.05-.39,4.43,4.43,0,1,0,2.76,1.96,4.37,4.37,0,0,0-1.71-1.57Z" fill="#263238"/><path d="M466.59,258.91l.15-2.13,1.12.25-.8,2,2.08-.51.11,1.14-2.13-.12,1.13,1.8-1.05.45-.54-2.07-1.39,1.63-.74-.86,1.79-1.13-2-.82.6-1Z" fill="#263238"/><path d="M465.72,242.41c-1.36-5-5-3.69-5-3.69s-2.67-2.78-6.09,1.16-2.05,9.13-5.53,9.24a17.22,17.22,0,0,0,17.58,4C463.61,251.53,467.09,247.45,465.72,242.41Z" fill="#263238"/><path d="M335.13,80.31a18.08,18.08,0,1,0-25.22,13.5,18.43,18.43,0,0,0,4.37,1.32,18.05,18.05,0,0,0,8.92-.73,8.464,8.464,0,0,1-.1-1h0a17.07,17.07,0,0,1-19.45-5.81c-.1-.12-.2-.25-.29-.38a17.191,17.191,0,0,1-2.74-6.08,17.37,17.37,0,0,1-.18-6.67,17.09,17.09,0,0,1,19.71-14,16.67,16.67,0,0,1,4.12,1.24,17.1,17.1,0,0,1,7.43,24.8,7.638,7.638,0,0,1,1,.32A18.1,18.1,0,0,0,335.13,80.31Z" fill="#263238"/><path d="M323.1,93.4a23.37,23.37,0,0,1-7.32,1.35,9,9,0,0,1-1.41-.12,8.838,8.838,0,0,1-1.39-.35c-4.76-1.55-9.86-6.6-9.86-6.6l.54-.12a23,23,0,0,1,4.71-.65,3.107,3.107,0,0,0,3.55-3A16.5,16.5,0,0,1,310.5,73c.55-2.75,1.42-8.18,7.43-7.92h0a12.86,12.86,0,0,1,1.42.16,13.34,13.34,0,0,1,1.38.31h0c5.76,1.73,4.8,7.14,4.42,9.91a16.52,16.52,0,0,1-5,9.83c-.55,2.76,1.3,3.86,2.35,4a6.35,6.35,0,0,1,1.4.57,6.78,6.78,0,0,0-.76,2.19,7.066,7.066,0,0,0-.09,1.29S323.11,93.39,323.1,93.4Z" fill="#263238"/><path d="M327,100a7.454,7.454,0,1,1,10.39-5.56h0a7.46,7.46,0,0,1-8.59,6.1A7.81,7.81,0,0,1,327,100Zm5.68-12.69a6.27,6.27,0,0,0-1.56-.47,6.42,6.42,0,1,0,1.56.47Z" fill="#263238"/><path d="M329.77,92.78V89.66l1.65.28-1,3,3-.92.25,1.66h-3.11l1.79,2.52-1.49.75-1-3-1.88,2.48-1.16-1.2,2.52-1.79-2.93-1,.78-1.47Z" fill="#263238"/><rect width="32.42" height="21.14" rx="1.9" transform="translate(166.134 63.76) rotate(-9.41)" fill="none" stroke="#263238" stroke-linecap="round" stroke-linejoin="round" stroke-width="1"/><path d="M166.54,66.27,182,73a3.83,3.83,0,0,0,4.12-.69L198.52,61" fill="none" stroke="#263238" stroke-linecap="round" stroke-linejoin="round" stroke-width="1"/><path d="M171.89,79.94l6.8-5.45" fill="none" stroke="#263238" stroke-linecap="round" stroke-linejoin="round" stroke-width="1"/><path d="M197.87,75.64l-8.2-3" fill="none" stroke="#263238" stroke-linecap="round" stroke-linejoin="round" stroke-width="1"/><rect width="32.251" height="21.03" rx="1.89" transform="translate(290.164 399.065) rotate(30.174)" fill="none" stroke="#263238" stroke-linecap="round" stroke-linejoin="round" stroke-width="0.995"/><path d="M288.82,403.86l7.59,15A3.83,3.83,0,0,0,300,421l16.82-.82" fill="none" stroke="#263238" stroke-linecap="round" stroke-linejoin="round" stroke-width="1"/><path d="M284.22,417.81l8.72.13" fill="none" stroke="#263238" stroke-linecap="round" stroke-linejoin="round" stroke-width="1"/><path d="M307,431.06l-4.42-7.52" fill="none" stroke="#263238" stroke-linecap="round" stroke-linejoin="round" stroke-width="1"/><rect width="32.42" height="21.14" rx="1.9" transform="translate(26.057 306.348) rotate(-28.34)" fill="none" stroke="#263238" stroke-linecap="round" stroke-linejoin="round" stroke-width="1"/><path d="M27.23,308.58,44,310a3.85,3.85,0,0,0,3.67-2l8.08-14.77" fill="none" stroke="#263238" stroke-linecap="round" stroke-linejoin="round" stroke-width="1"/><path d="M36.73,319.79l4.66-7.37" fill="none" stroke="#263238" stroke-linecap="round" stroke-linejoin="round" stroke-width="1"/><path d="M59.91,307.29l-8.72-.15" fill="none" stroke="#263238" stroke-linecap="round" stroke-linejoin="round" stroke-width="1"/></g><g transform="translate(-26.057 -54.941)"><path d="M74.55,113.87V395.92a2.87,2.87,0,0,0,2.86,2.87h171.5a2.87,2.87,0,0,0,2.87-2.87v-282a6.56,6.56,0,0,0-6.54-6.54H204.39a3.68,3.68,0,0,0-3.52,2.63,3.64,3.64,0,0,1-1.32,1.9,3.7,3.7,0,0,1-2.2.73H129a3.67,3.67,0,0,1-3.52-2.63,3.6,3.6,0,0,0-1.33-1.9,3.7,3.7,0,0,0-2.2-.73H81.09a6.56,6.56,0,0,0-6.54,6.49Z" fill="#263238" stroke="#263238" stroke-linecap="round" stroke-linejoin="round" stroke-width="1"/><rect width="177.23" height="35.3" transform="translate(251.78 165.45) rotate(180)" fill="#7300cc" stroke="#263238" stroke-linecap="round" stroke-linejoin="round" stroke-width="1"/><rect width="177.23" height="196.95" transform="translate(251.78 362.4) rotate(180)" fill="#fff" stroke="#263238" stroke-linecap="round" stroke-linejoin="round" stroke-width="1"/><rect width="12.13" height="12.13" rx="3.3" transform="translate(171.57 384.21) rotate(180)" fill="#fff" stroke="#263238" stroke-linecap="round" stroke-linejoin="round" stroke-width="1"/><path d="M147.32,185.48H118a2,2,0,0,1-2-2h0a2,2,0,0,1,2-2h29.28a2,2,0,0,1,2,2h0a2,2,0,0,1-1.96,2Z" fill="#263238"/><path d="M218.79,190.39H117.12a1.05,1.05,0,0,1-1.06-1.06h0a1.05,1.05,0,0,1,1.06-1.05H218.79a1,1,0,0,1,1.05,1.05h0a1.05,1.05,0,0,1-1.05,1.06Z" fill="#263238"/><circle cx="10.88" cy="10.88" r="10.88" transform="translate(83.536 185.652) rotate(-42.62)" fill="#fff" stroke="#263238" stroke-linecap="round" stroke-linejoin="round" stroke-width="1"/><path d="M99.79,197.08h0c3.06-.45,6.7-3,6.7-3a17.461,17.461,0,0,0-3.13-1,1.93,1.93,0,0,1-1.85-2.22,10.19,10.19,0,0,0,2-6.5c-.05-1.74,0-5.13-3.72-5.6H98.03c-3.69.47-3.66,3.86-3.72,5.6a10.19,10.19,0,0,0,2,6.5,1.93,1.93,0,0,1-1.85,2.22,17.311,17.311,0,0,0-3.12,1s3.63,2.55,6.69,3h0a5.431,5.431,0,0,0,.88.08h0A5.329,5.329,0,0,0,99.79,197.08Z" fill="#263238"/><circle cx="4.3" cy="4.3" r="4.3" transform="translate(104.04 190.39)" fill="#7300cc" stroke="#263238" stroke-linecap="round" stroke-linejoin="round" stroke-width="1"/><path d="M108.12,194.44l-.3-1.91h1l-.3,1.91,1.72-.87.32,1-1.89.33,1.35,1.35-.83.61-.89-1.71-.89,1.71-.83-.61,1.35-1.35-1.9-.33.33-1Z" fill="#263238"/><path d="M104,180.1c-2.21-4.15-5.13-2.24-5.13-2.24S96,176,93.78,180.1s0,8.45-3,9.23a15.46,15.46,0,0,0,16.26,0C104,188.55,106.25,184.25,104,180.1Z" fill="#263238"/><rect width="1.98" height="4.04" transform="translate(102.84 126.32) rotate(180)" fill="#fff"/><rect width="1.98" height="5.68" transform="translate(99.2 126.31) rotate(180)" fill="#fff"/><rect width="1.98" height="7.31" transform="translate(95.57 126.32) rotate(180)" fill="#fff"/><rect width="1.98" height="8.94" transform="translate(91.93 126.31) rotate(180)" fill="#fff"/><rect width="13.04" height="7.31" rx="1.19" transform="translate(239.84 125.49) rotate(180)" fill="#fff"/><path d="M223.27,119.72h1a1,1,0,0,1,1,1V123a1,1,0,0,1-1,1h-1v-4.28Z" transform="translate(448.55 243.68) rotate(180)" fill="#fff"/><g transform="translate(-64.53)"><rect width="24.33" height="15.87" rx="1.9" transform="translate(152.47 139.63)" fill="#263238" stroke="#7300cc" stroke-linecap="round" stroke-linejoin="round" stroke-width="1"/><path d="M152.47,141.53l10.6,6.89a2.91,2.91,0,0,0,3.13,0l10.6-6.89" fill="#263238" stroke="#7300cc" stroke-linecap="round" stroke-linejoin="round" stroke-width="1"/><path d="M154.75,152.32l5.71-3.21" fill="#263238" stroke="#7300cc" stroke-linecap="round" stroke-linejoin="round" stroke-width="1"/><path d="M174.52,152.32l-5.7-3.21" fill="#263238" stroke="#7300cc" stroke-linecap="round" stroke-linejoin="round" stroke-width="1"/></g><path d="M137.32,220.34H118a2,2,0,0,1-2-2h0a2,2,0,0,1,2-2h19.28a2,2,0,0,1,2,2h0a2,2,0,0,1-1.96,2Z" fill="#263238"/><path d="M178.79,225.26H117.12a1.06,1.06,0,0,1-1.06-1.06h0a1.05,1.05,0,0,1,1.06-1h61.67a1,1,0,0,1,1.05,1h0a1.06,1.06,0,0,1-1.05,1.06Z" fill="#263238"/><circle cx="10.88" cy="10.88" r="10.88" transform="translate(83.528 220.927) rotate(-44.21)" fill="#fff" stroke="#263238" stroke-linecap="round" stroke-linejoin="round" stroke-width="1"/><path d="M99.79,232h0c3.06-.45,6.7-3,6.7-3a17.461,17.461,0,0,0-3.13-1,1.93,1.93,0,0,1-1.85-2.22,10.23,10.23,0,0,0,2-6.5c-.05-1.74,0-5.14-3.72-5.6h0a8.258,8.258,0,0,0-.88,0h0a8.258,8.258,0,0,0-.88,0h0c-3.69.46-3.66,3.86-3.72,5.6a10.23,10.23,0,0,0,2,6.5A1.93,1.93,0,0,1,94.46,228a17.309,17.309,0,0,0-3.12,1S95,231.5,98,232h0a5.431,5.431,0,0,0,.88.08h0a5.332,5.332,0,0,0,.88-.08Z" fill="#263238"/><circle cx="4.3" cy="4.3" r="4.3" transform="translate(104.04 225.25)" fill="#7300cc" stroke="#263238" stroke-linecap="round" stroke-linejoin="round" stroke-width="1"/><path d="M108.12,229.31l-.3-1.91h1l-.3,1.91,1.72-.87.32,1-1.89.32,1.35,1.36-.83.61-.89-1.71-.89,1.71-.83-.61,1.35-1.36-1.9-.32.33-1Z" fill="#263238"/><path d="M157.32,255.21H118a2,2,0,0,1-2-2h0a2,2,0,0,1,2-2h39.28a2,2,0,0,1,2,2h0a2,2,0,0,1-1.96,2Z" fill="#263238"/><path d="M198.79,260.13H117.12a1.06,1.06,0,0,1-1.06-1.06h0a1.05,1.05,0,0,1,1.06-1.05h81.67a1,1,0,0,1,1.05,1.05h0a1.06,1.06,0,0,1-1.05,1.06Z" fill="#263238"/><circle cx="10.88" cy="10.88" r="10.88" transform="matrix(0.971, -0.238, 0.238, 0.971, 85.766, 248.037)" fill="#fff" stroke="#263238" stroke-linecap="round" stroke-linejoin="round" stroke-width="1"/><path d="M99.79,266.82h0c3.06-.45,6.7-3,6.7-3a17.458,17.458,0,0,0-3.13-1,1.93,1.93,0,0,1-1.85-2.22,10.23,10.23,0,0,0,2-6.5c-.05-1.74,0-5.14-3.72-5.6h0a8.262,8.262,0,0,0-.88,0h0a8.262,8.262,0,0,0-.88,0h0c-3.69.46-3.66,3.86-3.72,5.6a10.23,10.23,0,0,0,2,6.5,1.93,1.93,0,0,1-1.85,2.22,17.312,17.312,0,0,0-3.12,1s3.63,2.55,6.69,3h0a5.433,5.433,0,0,0,.88.08h0A5.327,5.327,0,0,0,99.79,266.82Z" fill="#263238"/><path d="M98.91,247.81c-3.91,0-6.65,2.71-7.16,12.48a22.49,22.49,0,0,0,14.32,0C105.56,250.52,102.82,247.81,98.91,247.81Z" fill="#263238"/><path d="M147.32,290.08H118a2,2,0,0,1-2-2h0a2,2,0,0,1,2-2h29.28a2,2,0,0,1,2,2h0a2,2,0,0,1-1.96,2Z" fill="#263238"/><path d="M218.79,295H117.12a1.05,1.05,0,0,1-1.06-1.05h0a1.06,1.06,0,0,1,1.06-1.06H218.79a1.06,1.06,0,0,1,1.05,1.06h0a1,1,0,0,1-1.05,1.05Z" fill="#263238"/><circle cx="10.88" cy="10.88" r="10.88" transform="translate(83.537 290.656) rotate(-44.21)" fill="#fff" stroke="#263238" stroke-linecap="round" stroke-linejoin="round" stroke-width="1"/><path d="M99.79,301.69h0c3.06-.45,6.7-3,6.7-3a17.46,17.46,0,0,0-3.13-1,1.93,1.93,0,0,1-1.85-2.22,10.24,10.24,0,0,0,2-6.51c-.05-1.73,0-5.13-3.72-5.59h0a8.176,8.176,0,0,0-.88-.05h0a8.176,8.176,0,0,0-.88.05h0c-3.69.46-3.66,3.86-3.72,5.59a10.24,10.24,0,0,0,2,6.51,1.93,1.93,0,0,1-1.85,2.22,17.307,17.307,0,0,0-3.12,1s3.63,2.55,6.69,3h0a6.84,6.84,0,0,0,.88.08h0a6.69,6.69,0,0,0,.88-.08Z" fill="#263238"/><circle cx="4.3" cy="4.3" r="4.3" transform="translate(104.04 294.99)" fill="#7300cc" stroke="#263238" stroke-linecap="round" stroke-linejoin="round" stroke-width="1"/><path d="M108.12,299l-.3-1.9h1l-.3,1.9,1.72-.86.32,1-1.89.32,1.35,1.35-.83.62-.89-1.71-.89,1.71-.83-.62,1.35-1.35-1.9-.32.33-1Z" fill="#263238"/><path d="M127.32,325H118a2,2,0,0,1-2-2h0a2,2,0,0,1,2-2h9.28a2,2,0,0,1,2,2h0a2,2,0,0,1-1.96,2Z" fill="#263238"/><path d="M208.79,329.86H117.12a1.05,1.05,0,0,1-1.06-1.05h0a1.06,1.06,0,0,1,1.06-1.06h91.67a1.06,1.06,0,0,1,1.05,1.06h0a1,1,0,0,1-1.05,1.05Z" fill="#263238"/><circle cx="10.88" cy="10.88" r="10.88" transform="translate(83.542 325.53) rotate(-44.21)" fill="#fff" stroke="#263238" stroke-linecap="round" stroke-linejoin="round" stroke-width="1"/><path d="M99.79,336.56h0c3.06-.46,6.7-3,6.7-3a17.458,17.458,0,0,0-3.13-1,1.94,1.94,0,0,1-1.85-2.22,10.24,10.24,0,0,0,2-6.51c-.05-1.73,0-5.13-3.72-5.59h0a8.176,8.176,0,0,0-.88-.05h0a8.176,8.176,0,0,0-.88.05h0c-3.69.46-3.66,3.86-3.72,5.59a10.24,10.24,0,0,0,2,6.51,1.94,1.94,0,0,1-1.85,2.22,17.31,17.31,0,0,0-3.12,1s3.63,2.54,6.69,3h0a6.8,6.8,0,0,0,.88.07h0A6.652,6.652,0,0,0,99.79,336.56Z" fill="#263238"/><path d="M147.32,359.82H118a2,2,0,0,1-2-2h0a2,2,0,0,1,2-2h29.28a2,2,0,0,1,2,2h0a2,2,0,0,1-1.96,2Z" fill="#263238"/><path d="M109.79,360.62a10.43,10.43,0,0,1-.15,1.78H88.18a10.431,10.431,0,0,1-.15-1.78,10.88,10.88,0,1,1,21.76,0Z" fill="#fff" stroke="#263238" stroke-linecap="round" stroke-linejoin="round" stroke-width="1"/><path d="M103.51,358.69a10.22,10.22,0,0,1-.55,3.71h-8.1a10.22,10.22,0,0,1-.55-3.71c.06-1.73,0-5.13,3.72-5.59h0a7.771,7.771,0,0,1,1.76,0h0C103.49,353.56,103.46,357,103.51,358.69Z" fill="#263238"/></g><g transform="translate(-26.057 -54.941)"><path d="M278.08,133.19h49.79a6.5,6.5,0,0,1,6.5,6.5v29.66a6.5,6.5,0,0,1-6.5,6.51h-6.21l5.74,10.88-13.26-10.88H278.08a6.5,6.5,0,0,1-6.5-6.51V139.69A6.5,6.5,0,0,1,278.08,133.19Z" fill="none" stroke="#263238" stroke-linecap="round" stroke-linejoin="round" stroke-width="1"/><g opacity="0.5"><rect width="46.1" height="2" rx="0.82" transform="translate(326.03 145.18) rotate(180)" fill="#263238"/><rect width="46.1" height="2" rx="0.82" transform="translate(326.03 151.92) rotate(180)" fill="#263238"/><rect width="46.1" height="2" rx="0.82" transform="translate(326.03 158.66) rotate(180)" fill="#263238"/><rect width="25.09" height="2" rx="0.82" transform="translate(326.02 165.41) rotate(180)" fill="#263238"/></g></g><g transform="translate(-26.057 -54.941)"><path d="M340.22,326.29a.32.32,0,0,0,0,.06c-.48,1-7.4,15.79-15.83,30-2.21,3.73-4.52,7.41-6.85,10.8-5.07,7.38-10.21,13.35-14.48,15.21-14,6.09-6-41.63-6-41.63a103.739,103.739,0,0,0,13.09-19.8c1.67-3.3,3.61-7.13,5.64-11,1.56-2.95,3.16-5.9,4.73-8.63,3.55-6.2,6.86-11.2,8.87-12.18,2.2-1.08,5.24,10.07,7.54,20.44C338.8,318.2,340.22,326.29,340.22,326.29Z" fill="#fff" stroke="#263238" stroke-linecap="round" stroke-linejoin="round" stroke-width="1"/><path d="M340.22,326.29a.32.32,0,0,0,0,.06c-.48,1-7.4,15.79-15.83,30,2.54-22.71.16-37.9.16-37.9-5.41-8.18-8.8-8.49-8.8-8.49,1.56-2.95,3.16-5.9,4.73-8.63l7.16-6.69,9.25,14.95C338.8,318.2,340.22,326.29,340.22,326.29Z" fill="#263238"/><path d="M404.74,173.57c12.64,9.15,23.7,41.47,19.48,62.47s17.49,27,17.41,60.15c0,9.24-28.62,46.8-61.85,26.76s-42.46-29.9-39.3-50,3.3-33.32-2.7-50.19S381.81,157,404.74,173.57Z" fill="#263238"/><path d="M453.36,315.32l-7.06,4.79a148.519,148.519,0,0,1-9.55,33.75c-8.89,20.87-16.76,33.31-19.51,37.42-.68,1-1.05,1.5-1.05,1.5l7.38,27.67S374.32,471.66,320,464.27l3.63-29,4.89-39,1.59-12.67s-.67-9.09-1.74-20.28c-.73-7.71-1.65-16.42-2.69-23.84a6.31,6.31,0,0,1-.05-1c.08-4.68,3.75-14.52,3.75-14.52-3.1-4.91-6-9.43-8.39-13-3.16-4.79-5.25-7.87-5.25-7.87s11-13.52,11.62-15.06c3.48-9.11,15.64-7.41,15.64-7.41a6.82,6.82,0,0,1,3.28-1.76c5.78-1.45,22.21,10.07,31.18,10.16s53-11.77,53-11.77l4.48,1.61s6.07-.72,10.81,8.06C448,291.17,453.36,315.32,453.36,315.32Z" fill="#7300cc"/><path d="M374.3,429.36s-30.6,10.33-50.72,5.92l4.89-39C332.83,400.61,358.11,425,374.3,429.36Z" fill="rgba(0,0,0,0.7)" opacity="0.3"/><path d="M329.33,324c-3.1-4.91-6-9.43-8.39-13,2.08-5,5.17-9.63,9.45-9.36C330.39,301.64,327.4,314.92,329.33,324Z" fill="rgba(0,0,0,0.7)" opacity="0.3"/><path d="M428.57,315.32c-5.49,1.82-17.93,7.33-17.93,7.33l-2.3-2.67,8.85-12.68s-6.23,2.52-8.85,5.69-3.31,10.24-3.41,10.21-2.29-7.44-2.29-7.44a57.748,57.748,0,0,0-1.46,9.39c-.29,3.35,3.39,8.8,6.58,12.85l-5.56,29.59L381,354.7l-10-6.06a24,24,0,0,1-2.53-1.54c-1.16-.94-1.92-2.16-3.27-3a17.331,17.331,0,0,0-4.94-1.85A43.94,43.94,0,0,0,341,342.1c-2.68.58-5.43,1.41-8.09.78s-4.94-2.76-7.28-4.36a6.313,6.313,0,0,0,.05,1c1,7.42,2,16.13,2.69,23.84h1.14a8.089,8.089,0,0,1,2.2.18c1.53.42,4.57,7.88,5.62,9.06,7.67,8.56,20.5,23,29.82,29.75-1.86-5-11.59-22.5-11.41-28,2.09.7,3.72,2.31,5.4,3.74,5.06,4.34,11.1,7.36,17.06,10.34L391.33,395c4,2,9.27,5.13,13.87,3.9,3.77-1,8.52-4.79,11.53-7.18l.5-.4c2.75-4.11,10.62-16.55,19.51-37.42a148.521,148.521,0,0,0,9.55-33.75l7.06-4.79S434.06,313.5,428.57,315.32Z" fill="rgba(0,0,0,0.7)" opacity="0.3"/><path d="M320,464.27l10.11-80.62s-1.9-25.92-4.43-44.12c-.57-4.08,3.7-15.53,3.7-15.53-7.27-11.5-13.64-20.87-13.64-20.87s11-13.52,11.62-15.06c3.48-9.11,15.64-7.41,15.64-7.41a6.82,6.82,0,0,1,3.28-1.76c5.78-1.45,22.21,10.07,31.18,10.16s53-11.77,53-11.77l4.48,1.61s6.07-.72,10.81,8.06c2.28,4.21,7.65,28.36,7.65,28.36l-7.06,4.79a148.52,148.52,0,0,1-9.55,33.75c-11.08,26-20.57,38.94-20.57,38.94l7.38,27.67" fill="none" stroke="#263238" stroke-linecap="round" stroke-linejoin="round" stroke-width="1"/><path d="M418.35,305.77S405.82,322,406.13,325s6.11,6.09,6.11,6.09" fill="none" stroke="#263238" stroke-linecap="round" stroke-linejoin="round" stroke-width="1"/><path d="M402.2,312.28A106.223,106.223,0,0,1,403.25,325c0,5.56,15.1,14.79,15.1,14.79" fill="none" stroke="#263238" stroke-linecap="round" stroke-linejoin="round" stroke-width="1"/><path d="M329.33,324s-1.05-21.4,2.28-25.09" fill="none" stroke="#263238" stroke-linecap="round" stroke-linejoin="round" stroke-width="1"/><path d="M325.63,306.82s1.72,11.08,3.54,13.19" fill="none" stroke="#263238" stroke-linecap="round" stroke-linejoin="round" stroke-width="1"/><path d="M381.89,315.32s-21.63,13.92-41.67,15.77" fill="none" stroke="#263238" stroke-linecap="round" stroke-linejoin="round" stroke-width="1"/><path d="M340.22,376.19s24.26,29.27,40.09,33.23" fill="none" stroke="#263238" stroke-linecap="round" stroke-linejoin="round" stroke-width="1"/><path d="M416.18,392.8s-5.51-4-3.94-6.34" fill="none" stroke="#263238" stroke-linecap="round" stroke-linejoin="round" stroke-width="1"/><path d="M402.2,416.6s-34.42,19.19-52,17.61" fill="none" stroke="#263238" stroke-linecap="round" stroke-linejoin="round" stroke-width="1"/><path d="M309.84,355.08c-4.49-16.5-11.84-21.88-16.69-39.55-1.44-5.23-5.71-21.18-5.71-21.18s5.45-17-5.44-26.68c0,0-3,0-8.11,11.77a28,28,0,0,0-1.59,16.26s3.39,20.73,4.13,26.3c1.78,13.43,5.64,35.92,11,47.21,5.75,12.07,11.81,14.77,16.35,12.28" fill="#fff" stroke="#263238" stroke-linecap="round" stroke-linejoin="round" stroke-width="1"/><path d="M289.34,290.73,301,294.58c1.23.32,3.65-1.73,3.54-3L301.05,251a3.87,3.87,0,0,0-2.89-3.42l-12.87-2.8c-1.23-.31-4.32,1.16-4.21,2.42l5.36,40.11a3.87,3.87,0,0,0,2.9,3.42Z" fill="#7300cc"/><g clip-path="url(#a)"><path d="M289.34,290.73,301,294.58c1.23.32,3.65-1.73,3.54-3L301.05,251a3.87,3.87,0,0,0-2.89-3.42l-12.87-2.8c-1.23-.31-4.32,1.16-4.21,2.42l5.36,40.11a3.87,3.87,0,0,0,2.9,3.42Z" fill="rgba(0,0,0,0.7)" opacity="0.3"/></g><path d="M289.34,290.73,301,294.58c1.23.32,3.65-1.73,3.54-3L301.05,251a3.87,3.87,0,0,0-2.89-3.42l-12.87-2.8c-1.23-.31-4.32,1.16-4.21,2.42l5.36,40.11a3.87,3.87,0,0,0,2.9,3.42Z" fill="none" stroke="#263238" stroke-linecap="round" stroke-linejoin="round" stroke-width="1"/><path d="M287.42,291.73l12.87,2.79a1.83,1.83,0,0,0,2.29-1.93L299.14,252a3.87,3.87,0,0,0-2.9-3.42l-12.86-2.8a1.84,1.84,0,0,0-2.29,1.94l3.44,40.59A3.87,3.87,0,0,0,287.42,291.73Z" fill="#7300cc" stroke="#263238" stroke-linecap="round" stroke-linejoin="round" stroke-width="1"/><path d="M294.56,259.51l2.07.45a.3.3,0,0,0,.37-.31l-.55-6.55a.63.63,0,0,0-.47-.55l-2.08-.45a.3.3,0,0,0-.37.31l.56,6.55A.63.63,0,0,0,294.56,259.51Z" fill="rgba(0,0,0,0.7)" opacity="0.3"/><path d="M276.46,279.85c-.5-5.69,4.68-14.23,8.13-14.23s13.93,8.08,13.93,8.08c4.06,2.94,2.05,5.74,2.05,5.74,2.39,1.58,3,3.72,1.95,4.71s-4.56,0-4.56,0,3.48,2.54,2.61,3.79c-2.05,2.95-8.79-.94-8.79-.94s3.91,2.58,3.69,3.07c-1.48,3.22-7.87-.53-7.87-.53l-4.49,2.3A3.84,3.84,0,0,1,279,295.7" fill="#fff" stroke="#263238" stroke-linecap="round" stroke-linejoin="round" stroke-width="1"/><path d="M300.57,279.44s-9.82-6.34-11.06-6.51-5.79-1.16-5.79-1.16" fill="#fff" stroke="#263238" stroke-linecap="round" stroke-linejoin="round" stroke-width="1"/><path d="M298,284.15s-8-4.12-9.44-4.12A54.282,54.282,0,0,1,282,278.9" fill="#fff" stroke="#263238" stroke-linecap="round" stroke-linejoin="round" stroke-width="1"/><path d="M291.78,287a20,20,0,0,0-2.95-1.74,40,40,0,0,0-5.72,0" fill="#fff" stroke="#263238" stroke-linecap="round" stroke-linejoin="round" stroke-width="1"/><path d="M391.78,350.87s6.2-3.49,11.74-16.51,7.12-11.71,7.12-11.71,12.13-5.95,17.93-7.33,16.35,0,16.35,0-9,26.11-18.19,43.09-16.59,27-21.5,28S391.78,350.87,391.78,350.87Z" fill="#fff" stroke="#263238" stroke-linecap="round" stroke-linejoin="round" stroke-width="1"/><path d="M427.78,279s-44.14,23.51-56.9,23.38-20.71-22-20.71-22,23.6-.53,20.86-11.81a2.294,2.294,0,0,0-.15-.6c-1.13-3.94-5.46-10.84-7.07-13.32-.38-.59-.61-.93-.61-.93l34.93-26.08c-2,26.37,1.86,37.93,4.23,42.27C406.43,277.34,427.78,279,427.78,279Z" fill="#fff" stroke="#263238" stroke-linecap="round" stroke-linejoin="round" stroke-width="1"/><path d="M388.22,242.42S380.94,263,371,268.57a2.294,2.294,0,0,0-.15-.6c-1.13-3.94-5.46-10.84-7.07-13.32Z" fill="#263238"/><path d="M373.09,296.11s2.47-4.77,6.16-5.33,13.85-.66,32.64-3.78" fill="none" stroke="#263238" stroke-linecap="round" stroke-linejoin="round" stroke-width="1"/><path d="M367.42,296.11s-1.58-3.71-2-5.33-10.24-3.66-13.5-6.34" fill="none" stroke="#263238" stroke-linecap="round" stroke-linejoin="round" stroke-width="1"/><path d="M340.71,184.23c-6.47,7.05-8.4,30.06-5.17,40,0,0,16.21,2.32,20-.6S340.71,184.23,340.71,184.23Z" fill="#263238"/><path d="M401.67,230.7c1.56-6.89,9.83-40.29-9.64-55.07s-43.22,4.93-46.55,9.58c-13.43,18.76-7.48,33.67-5,42.66s1.26,19.88,13.82,34.85c5.28,6.29,14.78,2.94,24.14-3.57,5.61-3.9,13.51-10.76,13.71-17.37" fill="#fff" stroke="#263238" stroke-linecap="round" stroke-linejoin="round" stroke-width="1"/><path d="M357.16,216.06s10.55-1.88,16.52,1.86" fill="none" stroke="#263238" stroke-linecap="round" stroke-linejoin="round" stroke-width="1"/><path d="M368.32,226.26c.26,1.62-.31,3.06-1.28,3.22s-2-1-2.24-2.64.31-3.06,1.28-3.22S368.05,224.64,368.32,226.26Z" fill="#263238"/><path d="M347.24,226.26c.26,1.62-.31,3.06-1.28,3.22s-2-1-2.24-2.64.31-3.06,1.28-3.22S347,224.64,347.24,226.26Z" fill="#263238"/><path d="M345.48,216.16s-5.82-2.08-7.7.59" fill="none" stroke="#263238" stroke-linecap="round" stroke-linejoin="round" stroke-width="1"/><path d="M349.15,225.46c.6,2.28-4,12.56-3.67,13.45s2.59,2.47,6.64,2.87" fill="none" stroke="#263238" stroke-linecap="round" stroke-linejoin="round" stroke-width="1"/><path d="M354.12,248.85s8.44,0,13.3-3.43" fill="none" stroke="#263238" stroke-linecap="round" stroke-linejoin="round" stroke-width="1"/><path d="M343.12,179.27s-8.9,8.27-3.16,24.53a28.68,28.68,0,0,0,5.52,9c5.95-3.35,8.92,1.88,12.48.17s9.23,1.92,12.92,1.2a12.14,12.14,0,0,1,10.42,2.53c2.77,2.48,2.77,7.91,6.92,10.53,0,0,2.42-8.49,7.52-7.26s.59,16,.59,16a51.91,51.91,0,0,0,11.47-27.29c2-17-4.72-31.85-16-35,0,0-3.76-7.32-16.62-6.14S350.66,168,343.12,179.27Z" fill="#263238"/><path d="M391.78,222.2s4.75-11.64,11.67-6.81-1.38,19.66-4.75,23.42-4.35-.39-4.74-1.58" fill="#fff" stroke="#263238" stroke-linecap="round" stroke-linejoin="round" stroke-width="1"/><g opacity="0.2"><path d="M346.24,187.73a18.869,18.869,0,0,1,2.55-8.26" fill="none" stroke="#fff" stroke-linecap="round" stroke-linejoin="round" stroke-width="1"/><path d="M354.12,207.76c-4.28-4.78-7.54-11.21-7.89-17.67" fill="none" stroke="#fff" stroke-linecap="round" stroke-linejoin="round" stroke-width="1"/><path d="M363.2,199.72a26.45,26.45,0,0,0,9.89,9.42" fill="none" stroke="#fff" stroke-linecap="round" stroke-linejoin="round" stroke-width="1"/><path d="M360.77,179.47c-3.28,5.27-1.39,12.83,1.17,18" fill="none" stroke="#fff" stroke-linecap="round" stroke-linejoin="round" stroke-width="1"/><path d="M394.1,209.44a40.92,40.92,0,0,0,7.77,3.07" fill="none" stroke="#fff" stroke-linecap="round" stroke-linejoin="round" stroke-width="1"/><path d="M370.88,186.4A58.82,58.82,0,0,0,392,208.29" fill="none" stroke="#fff" stroke-linecap="round" stroke-linejoin="round" stroke-width="1"/></g><path d="M321.13,273.14s-3,0-3.27,2.19,4.2,5.05,4.2,5.05" fill="#fff" stroke="#263238" stroke-linecap="round" stroke-linejoin="round" stroke-width="1"/><path d="M405.4,352.69c-6.76-10.31-16.3-16.76-24.83-28.2a311.189,311.189,0,0,1-19.51-29.6l-9.05-17s-11.08-13.36-15.56-15-29-2.42-29-2.42-1,2.66,2.79,4,15.4,2.43,15.4,2.43-3.42,1.47-4.21,2.68,0,11.15,1.58,13.17,7.65,3.86,7.65,3.86.8,7,6.73,10.47,8.83,3.51,8.83,3.51,5.58,9.48,7.91,16.25c5,14.43,17.61,47.24,26.72,59.07,10.78,14,24.75,14.54,29.8,5.63" fill="#fff" stroke="#263238" stroke-linecap="round" stroke-linejoin="round" stroke-width="1"/><path d="M336,272.18s-8.6,1-9.69,1.78-.57,6.93,0,9.08a3.89,3.89,0,0,0,1.88,2.7" fill="none" stroke="#263238" stroke-linecap="round" stroke-linejoin="round" stroke-width="1"/><path d="M332.45,267.1s-8.46,2.11-9,3.2a21.319,21.319,0,0,0-.39,9.12c.69,3.34.89,4.39,2.18,5" fill="none" stroke="#263238" stroke-linecap="round" stroke-linejoin="round" stroke-width="1"/><path d="M325.63,266.91a28.79,28.79,0,0,1,3.7-1.26" fill="none" stroke="#263238" stroke-linecap="round" stroke-linejoin="round" stroke-width="1"/><path d="M330.79,279a7.76,7.76,0,0,0,5.79,2.65s-1.85,7.12,1.45,11.74" fill="none" stroke="#263238" stroke-linecap="round" stroke-linejoin="round" stroke-width="1"/><path d="M332.45,280.38s-1.91,1.55-1.66,2.38" fill="none" stroke="#263238" stroke-linecap="round" stroke-linejoin="round" stroke-width="1"/><path d="M410.64,322.65s17-7.44,19.46-7.94,20.89.41,20.89.41a26.761,26.761,0,0,1-7.77,5s-.41-3.39-5-3.78S410.64,322.65,410.64,322.65Z" fill="#263238"/></g><text transform="translate(95 96.029)" fill="#263238" font-size="10" font-family="Ubuntu-Bold, Ubuntu" font-weight="700"><tspan x="0" y="0">Pedidos e Orçamentos</tspan></text></g></svg>