<svg xmlns="http://www.w3.org/2000/svg" xmlns:xlink="http://www.w3.org/1999/xlink" width="507.052" height="518" viewBox="0 0 507.052 518"><defs><clipPath id="a"><path d="M449.877,300.976s-7.191,30.8-12.43,39.371l-108.947-.14s5.847-8.185,10.243-11.05,19.364,1.45,22.311,1.45,54.62-8.279,56.572-8.934,8.255-24.743,8.255-24.743S444.206,297.7,449.877,300.976Z" transform="translate(-328.5 -296.93)" fill="#bfbfbf" stroke="#263238" stroke-linecap="round" stroke-linejoin="round" stroke-width="1"/></clipPath><clipPath id="b"><path d="M316.349,334.717a26.322,26.322,0,0,0-4.4-5.777c-4.139-3.707-20.265-48.153-28.871-54.421l-7.741,40.319c1.964,3.508,8.068,11.553,7.741,13.3s3.368,4.35,3.368,4.35c-1.742,2.841,1.754,11.565,1.754,11.565h28.146Z" transform="translate(-275.34 -274.52)" fill="#999" stroke="#263238" stroke-linecap="round" stroke-linejoin="round" stroke-width="1"/></clipPath><clipPath id="c"><path d="M299.306,280.541c-.819-6.092-14.2-9.8-14.2-9.8L279.439,267s-19.411,9.518-27.07,10.021S221.872,267,221.872,267l-5.075,3.707s-13.377,1.345-17.026,6.338,14.032,68.2,14.032,68.2h71.329a185.532,185.532,0,0,1,8.185-25.725c3.508-8.372-2.982-14.394,1.964-29.233" transform="translate(-199.276 -267)" fill="#999" stroke="#263238" stroke-linecap="round" stroke-linejoin="round" stroke-width="1"/></clipPath><clipPath id="d"><path d="M272.78,328.605s5.847-7.074,9.8-7.519,5.5.433,8.279,2.619l1.777,1.38s2.97-2.9,8.91-2.689c7.3.257,14.593,6.759,12.629,13.506H274.09Z" transform="translate(-272.78 -320.974)" fill="#fff" stroke="#263238" stroke-linecap="round" stroke-linejoin="round" stroke-width="1"/></clipPath><clipPath id="e"><path d="M66.485,303.56s-7.554,12.231-9.285,13.786V332.91l26.333-14.7,2.806-19.2S70.729,298.637,66.485,303.56Z" transform="translate(-57.2 -299.004)" fill="#fff" stroke="#263238" stroke-linecap="round" stroke-linejoin="round" stroke-width="1"/></clipPath><clipPath id="f"><path d="M93.407,261c-12.582,5.847-20.007,28.637-25.912,45.125,0,0-2.748,1.848-2.339,3.824,0,0,2.222-1.777,8.758-1.169s13.564,17.2,13.564,17.2L104.925,306.1" transform="translate(-65.114 -261)" fill="#7300cc" stroke="#263238" stroke-linecap="round" stroke-linejoin="round" stroke-width="1"/></clipPath><clipPath id="g"><path d="M89.035,265.617a10.7,10.7,0,0,1,1.777-2.923C95.876,257.63,133.458,251,133.458,251a128.711,128.711,0,0,1,25.421,5.847c14.64,4.783,24.767,7.016,27.865,18s-3.1,38.588-3.1,38.588l-2.818,34.612H83.5s-1.731-33.607-2.923-38.728c-.69-2.982,1.169-16.523,3.847-28.321" transform="translate(-80.436 -251)" fill="#7300cc" stroke="#263238" stroke-linecap="round" stroke-linejoin="round" stroke-width="1"/></clipPath></defs><path d="M69.559,190.454s-32.6,84.192,13.213,168.969,140.18,129.562,215.707,167.858S452.434,546.926,489.7,484.2s-13.845-107.5-13.915-196.94,13.389-113.122-35.08-188.684S273.421,6.284,183.569,62.33,69.559,190.454,69.559,190.454Z" transform="translate(-28.94 -29.116)" fill="#fff" opacity="0.7"/><path d="M172.913,527.458C37.072,475.014,72.97,401.509,47.993,304.232S25.776,169.759,86.581,101.809,252.393,8.671,327.3,89.039,471.608,161.8,514.429,221.432s34.835,130.4-42.552,180.288S340.409,592.111,172.913,527.458Z" transform="translate(-33.194 -27.457)" fill="#7300cc"/><path d="M172.913,527.458C37.072,475.014,72.97,401.509,47.993,304.232S25.776,169.759,86.581,101.809,252.393,8.671,327.3,89.039,471.608,161.8,514.429,221.432s34.835,130.4-42.552,180.288S340.409,592.111,172.913,527.458Z" transform="translate(-33.194 -27.457)" fill="#fff" opacity="0.7"/><g transform="translate(28.095 43.516)"><path d="M501.778,111.75H86.909a1.169,1.169,0,0,0,0,2.339H501.778a1.169,1.169,0,0,0,0-2.339Z" transform="translate(-52.391 -58.639)" fill="#263238"/><path d="M506.565,119.77H58.639a1.169,1.169,0,0,0,0,2.339H506.565a1.169,1.169,0,0,0,0-2.339Z" transform="translate(-57.178 -57.281)" fill="#263238"/><path d="M484.527,127.78H58.644a1.2,1.2,0,1,0,0,2.4H484.527a1.2,1.2,0,1,0,0-2.4Z" transform="translate(-57.182 -55.924)" fill="#263238"/><path d="M501.778,141.46H86.909a1.169,1.169,0,0,0,0,2.339H501.778a1.169,1.169,0,0,0,0-2.339Z" transform="translate(-52.391 -53.608)" fill="#263238"/><path d="M506.569,149.48H58.644a1.2,1.2,0,1,0,0,2.4H506.569a1.2,1.2,0,0,0,0-2.4Z" transform="translate(-57.182 -52.25)" fill="#263238"/><path d="M440.467,157.5H58.644a1.2,1.2,0,0,0,0,2.4H440.467a1.2,1.2,0,0,0,0-2.4Z" transform="translate(-57.182 -50.892)" fill="#263238"/><path d="M85.371,80.462,74.04,69.143a1.006,1.006,0,0,0-1.427,0L61.282,80.462a.561.561,0,0,0,.4.947h2.806a.608.608,0,0,1,.608.608v7.577a.608.608,0,0,0,.608.608H80.9a.608.608,0,0,0,.608-.608V82.017a.608.608,0,0,1,.608-.608h2.818a.561.561,0,0,0,.433-.947Z" transform="translate(-56.558 -65.904)" fill="none" stroke="#263238" stroke-miterlimit="10" stroke-width="1"/><path d="M442.827,82.42V77.485l-3.707-.327a9.889,9.889,0,0,0-.912-2.21l2.339-2.841L437.039,68.6,434.2,70.937a10.521,10.521,0,0,0-2.21-.912l-.316-3.7h-4.946l-.316,3.7a10.22,10.22,0,0,0-2.21.912L421.358,68.6l-3.508,3.508,2.339,2.841a9.927,9.927,0,0,0-.924,2.21l-3.7.327V82.42l3.7.316a10.021,10.021,0,0,0,.924,2.222l-2.339,2.83,3.508,3.508,2.841-2.339a10.219,10.219,0,0,0,2.21.912l.316,3.7h4.946l.316-3.7a10.523,10.523,0,0,0,2.21-.912l2.841,2.339,3.508-3.508-2.339-2.83a9.985,9.985,0,0,0,.912-2.222Zm-13.564,3.262a5.73,5.73,0,1,1,4.059-1.674,5.741,5.741,0,0,1-4.059,1.674Z" transform="translate(3.461 -66.33)" fill="none" stroke="#263238" stroke-miterlimit="10" stroke-width="1"/><path d="M238.9,410.37l12.98,7.3,12.98-7.3" transform="translate(-26.455 -8.072)" fill="none" stroke="#263238" stroke-linecap="round" stroke-linejoin="round" stroke-width="1"/><path d="M238.9,415.08l12.98,7.3,12.98-7.3" transform="translate(-26.455 -7.274)" fill="none" stroke="#263238" stroke-linecap="round" stroke-linejoin="round" stroke-width="1"/><path d="M238.9,419.79l12.98,7.3,12.98-7.3" transform="translate(-26.455 -6.477)" fill="none" stroke="#263238" stroke-linecap="round" stroke-linejoin="round" stroke-width="1"/><path d="M423.842,436.162H59.3a2.081,2.081,0,0,1-2.081-2.07V407.3A2.081,2.081,0,0,1,59.3,405.21h11.46" transform="translate(-57.22 -8.946)" fill="none" stroke="#263238" stroke-linecap="round" stroke-linejoin="round" stroke-width="1"/><line x1="37.653" transform="translate(384.045 427.217)" fill="none" stroke="#263238" stroke-linecap="round" stroke-linejoin="round" stroke-width="1"/><path d="M108.72,405.21H497.267a2.081,2.081,0,0,1,2.1,2.093v26.8a2.081,2.081,0,0,1-2.081,2.07H476.64" transform="translate(-48.499 -8.946)" fill="none" stroke="#263238" stroke-linecap="round" stroke-linejoin="round" stroke-width="1"/><line x2="23.878" transform="translate(22.755 396.264)" fill="none" stroke="#263238" stroke-linecap="round" stroke-linejoin="round" stroke-width="1"/></g><g transform="translate(336.448 178.259)"><path d="M320.92,333.94H463.439v59.835a5.145,5.145,0,0,1-5.145,5.145H326.065a5.145,5.145,0,0,1-5.145-5.145Z" transform="translate(-320.92 -155.757)" fill="#263238" stroke="#263238" stroke-linecap="round" stroke-linejoin="round" stroke-width="1"/><path d="M326.065,181.56H458.294a5.145,5.145,0,0,1,5.145,5.145V359.767H320.92V186.752a5.145,5.145,0,0,1,5.145-5.192Z" transform="translate(-320.92 -181.56)" fill="#fff" stroke="#263238" stroke-linecap="round" stroke-linejoin="round" stroke-width="1"/><path d="M336.355,266.344c.573-5.765,24.556-13.389,53.252-13.693,26.731-.281,52.421,8.665,55.894,14.558s-7.016,80.684-7.016,80.684H342.926S334.612,283.884,336.355,266.344Z" transform="translate(-318.347 -169.523)" fill="#263238"/><path d="M401.415,257.51a18.709,18.709,0,0,1-16.64,9.53c-9.811,0-16.955-8.5-16.955-8.5,3.45-3.1,3.66-8.828,3.146-13.33a39.933,39.933,0,0,0-1.286-6.548h29.327c-1.789,5.847-1.719,10.08-1.029,13C399.006,255.966,401.415,257.51,401.415,257.51Z" transform="translate(-312.978 -171.891)" fill="#bfbfbf" stroke="#263238" stroke-miterlimit="10" stroke-width="1"/><path d="M449.877,300.976s-7.191,30.8-12.43,39.371l-108.947-.14s5.847-8.185,10.243-11.05,19.364,1.45,22.311,1.45,54.62-8.279,56.572-8.934,8.255-24.743,8.255-24.743S444.206,297.7,449.877,300.976Z" transform="translate(-319.636 -162.024)" fill="#bfbfbf"/><g transform="translate(8.864 134.906)" clip-path="url(#a)"><path d="M449.877,300.949s-3.075,13.19-6.689,24.72c-2.935-2.058-7.612-3.835-14.745-3.017-14.8,1.707-24.755,3.789-24.755,3.789s-14.827,6.63-19.388,13.81l-55.8-.07s5.847-8.185,10.243-11.05,19.364,1.45,22.311,1.45,54.62-8.279,56.572-8.934,7.729-22.744,8.185-24.556a144.59,144.59,0,0,1,19.072,2.175h0A19.457,19.457,0,0,1,449.877,300.949Z" transform="translate(-328.5 -296.903)" opacity="0.15"/></g><path d="M449.877,300.976s-7.191,30.8-12.43,39.371l-108.947-.14s5.847-8.185,10.243-11.05,19.364,1.45,22.311,1.45,54.62-8.279,56.572-8.934,8.255-24.743,8.255-24.743S444.206,297.7,449.877,300.976Z" transform="translate(-319.636 -162.024)" fill="none" stroke="#263238" stroke-linecap="round" stroke-linejoin="round" stroke-width="1"/><path d="M418.609,274.042c-4.233,3.274-8.279,16.7-8.279,16.7l-1.45,16.1s20.042,2.619,26.439,11.693c0,0,.573-2.841,0-4.139a102.6,102.6,0,0,0,7.484-23.223c2.608-13.365-5.847-26.3-12.22-28.263" transform="translate(-306.025 -167.785)" fill="#263238"/><path d="M418.609,272.43c-4.233,3.274-8.279,16.7-8.279,16.7l-1.45,16.1" transform="translate(-306.025 -166.173)" fill="#263238" stroke="#fff" stroke-linecap="round" stroke-linejoin="round" stroke-width="1"/><path d="M424.562,297.662c2.222-.187,8.431,1.988,9.53,3.625s2.175,3.8.655,5.168a14.338,14.338,0,0,1,.748,3.508c0,1.427-2.163,2.07-2.163,2.07a3.122,3.122,0,0,1-1.672,4.034s.631,2.725-1.637,3.812l-1.169-.865s-7.4,1.087-11,0" transform="translate(-304.506 -161.902)" fill="#bfbfbf" stroke="#263238" stroke-linecap="round" stroke-linejoin="round" stroke-width="1"/><path d="M439.763,309.288a13.062,13.062,0,0,1,1.38-2.163c.772-1.239-1.754-2.339-.994-3.274,2.011-2.4-.129-3.508-.129-3.508-.865-2.175-14.921,2.175-15.8-.433-1.263-3.8,6.361-11.027,1.707-14.8-.678-.561-1.485,4.537-7.367,9.624-3.005,2.6-3.1,9.9-8.793,13.167s-17.435,7.414-29.783,8.723c-6.864.725-18.522,4.2-18.522,4.2s-.129-9.355-2.537-14.663-19.388-8.3-19.388-8.3l-6.279,12.863s6.9,24.708,10.15,31.689l25.912-.374a151.686,151.686,0,0,0,19.165-8.185,126.992,126.992,0,0,1,28.333-10.08c3.508-.655,17.715-1.742,19.68-2.83a2.877,2.877,0,0,0,1.415-3.894c-.55-1.462.97-2.76.97-2.76" transform="translate(-318.83 -164.033)" fill="#bfbfbf" stroke="#263238" stroke-linecap="round" stroke-linejoin="round" stroke-width="1"/><path d="M433.331,305.718s-2.187-2.116-2.689-2.409S426.21,302,426.21,302" transform="translate(-303.09 -161.165)" fill="none" stroke="#263238" stroke-linecap="round" stroke-linejoin="round" stroke-width="1"/><path d="M432.011,310.476s-.982-2.035-2.479-2.491a34.884,34.884,0,0,0-3.882-.8" transform="translate(-303.185 -160.286)" fill="none" stroke="#263238" stroke-linecap="round" stroke-linejoin="round" stroke-width="1"/><path d="M430.561,313.8s-2.222-1.38-3.169-1.883a10.01,10.01,0,0,0-3.052-.655" transform="translate(-303.407 -159.597)" fill="none" stroke="#263238" stroke-linecap="round" stroke-linejoin="round" stroke-width="1"/><path d="M341.3,261.16s-10.524.105-13.377,20.884c-1.614,11.471,3.7,30.286,4.35,33.993a9.507,9.507,0,0,0,3.882,5.777s12.629-7.94,25.047-7.425c0,0,2.187-6.6,0-7.25s2.187-13.33-2.783-22.217" transform="translate(-319.785 -168.081)" fill="#263238"/><path d="M357.693,309.056s2.175-6.583,0-7.238,2.175-13.33-2.783-22.217" transform="translate(-315.164 -164.958)" fill="#263238" stroke="#fff" stroke-linecap="round" stroke-linejoin="round" stroke-width="1"/><path d="M397.708,251.663c-21.188,5.554-25.4-6.548-25.4-6.548l-1.614.094a39.933,39.933,0,0,0-1.286-6.548h29.327C396.995,244.53,396.995,248.74,397.708,251.663Z" transform="translate(-312.709 -171.891)" fill="#263238"/><path d="M400.264,221.335s2.339-2.573,3.508-1.731a5.519,5.519,0,0,1,1.906,5.414c-.643,2.187-3.379,5.975-3.59,8.185s-1.637,4.677-3.192,3.262S400.264,221.335,400.264,221.335Z" transform="translate(-307.793 -175.146)" fill="#bfbfbf" stroke="#263238" stroke-miterlimit="10" stroke-width="1"/><path d="M364.8,221.335s-2.339-2.573-3.508-1.731a5.519,5.519,0,0,0-1.906,5.414c.632,2.187,3.379,5.975,3.59,8.185s1.637,4.677,3.192,3.262S364.8,221.335,364.8,221.335Z" transform="translate(-314.426 -175.146)" fill="#bfbfbf" stroke="#263238" stroke-miterlimit="10" stroke-width="1"/><path d="M384.554,195.69c29.713,0,22.65,39.559,17.178,52.258-1.918,4.467-11.869,10.314-16.675,10.314-4.479,0-14.71-7.016-16.523-11.179C363,234.313,356.244,195.69,384.554,195.69Z" transform="translate(-313.692 -179.167)" fill="#bfbfbf" stroke="#263238" stroke-miterlimit="10" stroke-width="1"/><path d="M385.83,216.668s7.729-2.4,10.126,2.339" transform="translate(-309.928 -175.718)" fill="none" stroke="#263238" stroke-linecap="round" stroke-linejoin="round" stroke-width="1"/><path d="M391.03,222.38c0,.912-.468,1.649-1.041,1.649s-1.029-.737-1.029-1.649.456-1.66,1.029-1.66S391.03,221.468,391.03,222.38Z" transform="translate(-309.398 -174.929)" fill="#263238"/><path d="M379.536,216.668s-7.729-2.4-10.126,2.339" transform="translate(-312.709 -175.718)" fill="none" stroke="#263238" stroke-linecap="round" stroke-linejoin="round" stroke-width="1"/><path d="M373.17,222.38c0,.912.468,1.649,1.041,1.649s1.029-.737,1.029-1.649-.456-1.66-1.029-1.66S373.17,221.468,373.17,222.38Z" transform="translate(-312.072 -174.929)" fill="#263238"/><path d="M397.189,206.311a37.7,37.7,0,0,1-22.9,0s-4.011-.234-5.589,1.777,0,8.185.421,10.77-3.508,4.291-2.947,10.688l-1.508,2.21s-4.2-10.29-3.146-19.154,6.654-12.313,6.654-12.313,2.549-7.647,17.54-7.589c16.113.058,17.739,8.782,17.739,8.782s10.922,7.285,2.841,31.022l-1.754-2.958a13.283,13.283,0,0,0-2.035-9c-1.4-2.046.842-8.185.316-11.389S397.189,206.311,397.189,206.311Z" transform="translate(-314.073 -179.674)" fill="#263238"/><path d="M383.963,220.72s.444,9.144,1.754,11.693-3.262,3.005-5.227,1.485" transform="translate(-310.833 -174.929)" fill="none" stroke="#263238" stroke-linecap="round" stroke-linejoin="round" stroke-width="1"/><path d="M376.39,236.17a5.847,5.847,0,0,0,2.76,3.508c2.035.877,8.185.515,9.355-.222s1.742-3.1,1.742-3.1" transform="translate(-311.527 -172.313)" fill="#fff" stroke="#263238" stroke-linecap="round" stroke-linejoin="round" stroke-width="1"/><path d="M375.83,236s6.151,1.742,15.353,0" transform="translate(-311.622 -172.341)" fill="none" stroke="#263238" stroke-linecap="round" stroke-linejoin="round" stroke-width="1"/><path d="M392.375,208s-3.344.07-3.508,1.52-.14,3.637-3.262,2.76c0,0-1.1,2.666-3.707.76s-3.344.69-3.344.69-1.169,0-1.041-1.45c0,0-2.877-.3-2.877,1.45s-4.514,3.064-4.514,1.31c0,0-.76,4.069-3.648,3.2s-4.28,3.707-4.28,3.707-1.848-2.982-.514-5.449c0,0-2.6-2.619-1.871-5.379a19.4,19.4,0,0,1,1.871-4.677s-2.619-4.21,1.1-6.244,2.993-3.122,2.993-3.59,1.59-3.672,4.5-2.654,3.847-2.619,6.209-3.344,6.724-.573,7.519,0a4.116,4.116,0,0,0,3.508.585c1.1-.433,4.327-1.31,4.888-.14a4.35,4.35,0,0,0,2.947,2.058c1.111.257,2.28-1.427,3.438,0S392.375,208,392.375,208Z" transform="translate(-314.356 -180.11)" fill="#263238"/><path d="M387.64,207.354c3.146-.655,4.058,1.52,4.35,3.122s2.9,1.918,2.9,1.918,1.462.982,1.462,1.427.725-.292.725-2.035c0,0,.655,2.9.982,4.5a3.134,3.134,0,0,0,4.49,2.035c2.268-1.017,2.046,2.187,2.046,2.187a3.3,3.3,0,0,0,1.052-3.929s2.035-3.052,1.169-5.671,1.45-5.087-.725-6.829-2-1.45-2.163-2.608.2-2.912-1.368-3.344-3.59-1.24-3.59-2.14-2.467-3.087-6.677-1.5S387.64,207.354,387.64,207.354Z" transform="translate(-309.622 -179.466)" fill="#263238"/><path d="M386.323,343.31h-54.5a2.14,2.14,0,1,0,0,4.28h54.5a2.14,2.14,0,0,0,0-4.28Z" transform="translate(-319.436 -154.17)" fill="#fff"/><path d="M450.495,358.34H330.884a1.2,1.2,0,0,0,0,2.4H450.495a1.2,1.2,0,0,0,0-2.4Z" transform="translate(-319.436 -151.625)" fill="#fff"/><path d="M428.476,363.44H330.884a1.2,1.2,0,0,0,0,2.4h97.593a1.2,1.2,0,0,0,0-2.4Z" transform="translate(-319.436 -150.761)" fill="#fff"/><path d="M362.374,350.25h-31.49a1.2,1.2,0,0,0,0,2.4h31.49a1.2,1.2,0,0,0,0-2.4Z" transform="translate(-319.436 -152.995)" fill="#fff"/><rect width="5.356" height="5.356" rx="1.06" transform="translate(126.908 225.881)" fill="#fff"/><rect width="5.356" height="5.356" rx="1.06" transform="translate(115.893 225.881)" fill="#fff"/><rect width="5.356" height="5.356" rx="1.06" transform="translate(104.878 225.881)" fill="#fff"/></g><g transform="translate(182.26 178.259)"><path d="M189.06,333.94H331.579v59.835a5.145,5.145,0,0,1-5.145,5.145H194.205a5.145,5.145,0,0,1-5.145-5.145V333.94Z" transform="translate(-189.06 -155.757)" fill="#263238" stroke="#263238" stroke-linecap="round" stroke-linejoin="round" stroke-width="1"/><path d="M254.463,343.31h-54.5a2.14,2.14,0,1,0,0,4.28h54.5a2.14,2.14,0,0,0,0-4.28Z" transform="translate(-187.576 -154.17)" fill="#fff"/><path d="M318.647,358.34H199.024a1.2,1.2,0,0,0,0,2.4H318.647a1.2,1.2,0,0,0,0-2.4Z" transform="translate(-187.576 -151.625)" fill="#fff"/><path d="M296.616,363.44H199.024a1.2,1.2,0,0,0,0,2.4h97.593a1.2,1.2,0,0,0,0-2.4Z" transform="translate(-187.576 -150.761)" fill="#fff"/><path d="M230.514,350.25h-31.49a1.2,1.2,0,0,0,0,2.4h31.49a1.2,1.2,0,0,0,0-2.4Z" transform="translate(-187.576 -152.995)" fill="#fff"/><rect width="5.356" height="5.356" rx="1.06" transform="translate(126.908 225.881)" fill="#fff"/><rect width="5.356" height="5.356" rx="1.06" transform="translate(115.893 225.881)" fill="#fff"/><rect width="5.356" height="5.356" rx="1.06" transform="translate(104.878 225.881)" fill="#fff"/><path d="M194.205,181.56H326.434a5.145,5.145,0,0,1,5.145,5.145V359.767H189.06V186.752a5.145,5.145,0,0,1,5.145-5.192Z" transform="translate(-189.06 -181.56)" fill="#fff" stroke="#263238" stroke-linecap="round" stroke-linejoin="round" stroke-width="1"/><path d="M276.834,233.134c.994,16.92,1.754,26.462,3.508,40.541s.877,29.339-20.919,35.431-45.756-9.577-46.633-19.61,7.25-33.981,5.262-53.053,15.4-33.455,29.374-32.578S276.191,221.862,276.834,233.134Z" transform="translate(-185.053 -177.789)" fill="#7300cc" stroke="#263238" stroke-linecap="round" stroke-linejoin="round" stroke-width="1"/><path d="M257.327,249.7s-1.263,17.4,4.385,29.035" transform="translate(-177.52 -170.021)" fill="none" stroke="#263238" stroke-linecap="round" stroke-linejoin="round" stroke-width="1"/><path d="M224.035,243.43s3.356,17.423-3.7,34.928" transform="translate(-183.763 -171.083)" fill="none" stroke="#263238" stroke-linecap="round" stroke-linejoin="round" stroke-width="1"/><path d="M230.819,255.6a114.244,114.244,0,0,1-1.649,25.129" transform="translate(-182.268 -169.022)" fill="none" stroke="#263238" stroke-linecap="round" stroke-linejoin="round" stroke-width="1"/><path d="M261.06,237.41s.865,11.986,3.8,17.061" transform="translate(-176.868 -172.103)" fill="none" stroke="#263238" stroke-linecap="round" stroke-linejoin="round" stroke-width="1"/><path d="M316.349,334.717a26.322,26.322,0,0,0-4.4-5.777c-4.139-3.707-20.265-48.153-28.871-54.421l-7.741,40.319c1.964,3.508,8.068,11.553,7.741,13.3s3.368,4.35,3.368,4.35c-1.742,2.841,1.754,11.565,1.754,11.565h28.146Z" transform="translate(-174.45 -165.819)" fill="#999"/><g transform="translate(100.89 108.701)" clip-path="url(#b)"><path d="M313.121,341.413H288.2s-3.508-8.723-1.754-11.565c0,0-3.683-2.608-3.368-4.35s-5.8-9.811-7.741-13.249l3.847-20.042,2.233-2.4s2.058,5.2,1.672,8.372a8.876,8.876,0,0,0,2.573-4.677s7.566,18.218,5.706,27.818c0,0,11.81-2.421,19.61,3.812,0,0-7.928-1.614-9.659,0C301.323,325.112,313.671,325.346,313.121,341.413Z" transform="translate(-275.34 -271.931)" opacity="0.15"/></g><path d="M316.349,334.717a26.322,26.322,0,0,0-4.4-5.777c-4.139-3.707-20.265-48.153-28.871-54.421l-7.741,40.319c1.964,3.508,8.068,11.553,7.741,13.3s3.368,4.35,3.368,4.35c-1.742,2.841,1.754,11.565,1.754,11.565h28.146Z" transform="translate(-174.45 -165.819)" fill="none" stroke="#263238" stroke-linecap="round" stroke-linejoin="round" stroke-width="1"/><path d="M273.327,273.182s-17.236,9.811-25.059,9.811-29.678-10.021-29.678-10.021c6.9-.655,15.611-3.906,17.236-7.6.854-1.929.292-8.127-.409-13.623-.655-5.063-1.45-9.518-1.45-9.518l25.983,3.508a105.8,105.8,0,0,0-1.485,12.044,34.144,34.144,0,0,0,.269,7.343C260,271.7,273.327,273.182,273.327,273.182Z" transform="translate(-184.059 -171.286)" fill="#fff" stroke="#263238" stroke-linecap="round" stroke-linejoin="round" stroke-width="1"/><path d="M299.306,280.541c-.819-6.092-14.2-9.8-14.2-9.8L279.439,267s-19.411,9.518-27.07,10.021S221.872,267,221.872,267l-5.075,3.707s-13.377,1.345-17.026,6.338,14.032,68.2,14.032,68.2h71.329a185.532,185.532,0,0,1,8.185-25.725c3.508-8.372-2.982-14.394,1.964-29.233" transform="translate(-187.33 -167.092)" fill="#999"/><g transform="translate(11.946 99.908)" clip-path="url(#c)"><path d="M292.418,316.048a185.532,185.532,0,0,0-8.185,25.725H212.9s-4.525-16.207-8.513-32.858L215.7,287.68s6.5,3.508,5.847,6.63c0,0,5.519,20.51,13.424,21.913s17.142-5.215,29.865-2.947c12.231,2.187,23.387,3.742,28.555-4.56a15.2,15.2,0,0,1-.971,7.332Z" transform="translate(-198.41 -263.498)" opacity="0.15"/></g><path d="M299.306,280.541c-.819-6.092-14.2-9.8-14.2-9.8L279.439,267s-19.411,9.518-27.07,10.021S221.872,267,221.872,267l-5.075,3.707s-13.377,1.345-17.026,6.338,14.032,68.2,14.032,68.2h71.329a185.532,185.532,0,0,1,8.185-25.725c3.508-8.372-2.982-14.394,1.964-29.233" transform="translate(-187.33 -167.092)" fill="none" stroke="#263238" stroke-linecap="round" stroke-linejoin="round" stroke-width="1"/><path d="M263.69,260.715a129.049,129.049,0,0,0,5.613,16.032,44.026,44.026,0,0,1,2.935,26.357s3.777,1.169,3.987-4,1.462-11.2-1.3-19.727c0,0,4.572,6.712,3.508,17.622a37.243,37.243,0,0,0-1.169-20.7c-3.871-11.541-4.6-11.764-6.958-22.872" transform="translate(-176.422 -169.39)" fill="#7300cc" stroke="#263238" stroke-linecap="round" stroke-linejoin="round" stroke-width="1"/><path d="M272.78,328.605s5.847-7.074,9.8-7.519,5.5.433,8.279,2.619l1.777,1.38s2.97-2.9,8.91-2.689c7.3.257,14.593,6.759,12.629,13.506H274.09Z" transform="translate(-174.883 -157.952)" fill="#fff"/><g transform="translate(97.897 163.022)" clip-path="url(#d)"><path d="M307.709,335.9H293.677c-.982-2.444-.8-5.847-1.368-6.572s-1.731-1.041-2.654-1.649-.865-3.169-2.035-3.789-2.432-.339-2.888-.573-.269-2.035-1.392-2.339c2.245.152,3.66,1.041,5.753,2.689l1.777,1.38a10.523,10.523,0,0,1,4.479-2.222C305.37,326.406,307.37,332.7,307.709,335.9Z" transform="translate(-270.992 -320.973)" opacity="0.15"/></g><path d="M272.78,328.605s5.847-7.074,9.8-7.519,5.5.433,8.279,2.619l1.777,1.38s2.97-2.9,8.91-2.689c7.3.257,14.593,6.759,12.629,13.506H274.09Z" transform="translate(-174.883 -157.952)" fill="none" stroke="#263238" stroke-linecap="round" stroke-linejoin="round" stroke-width="1"/><path d="M233.2,321.07c14.64.444,25.889,5.449,37.594,6.1s17.54.877,21.282,0,14.114,8.945,14.114,8.945H230.179l-15.049-4.806,8.279-9.156Z" transform="translate(-184.645 -157.936)" fill="#fff" stroke="#263238" stroke-linecap="round" stroke-linejoin="round" stroke-width="1"/><path d="M208.841,277.339c8.945,5.671,20.744,49.907,22.837,49.475s4.572,1.953,4.572,1.953-2.795,8.992-2.993,15.049H214.722s-9.437.362-12.2-13.482c-5.309-26.637-7.858-51.907-2.339-54.713" transform="translate(-187.699 -165.632)" fill="#999" stroke="#263238" stroke-linecap="round" stroke-linejoin="round" stroke-width="1"/><path d="M289.76,324.49s4.467,3.625,5.379,6.794" transform="translate(-172.008 -157.357)" fill="none" stroke="#263238" stroke-linecap="round" stroke-linejoin="round" stroke-width="1"/><path d="M277.71,327.086s5.122-2.409,5.777-2.6" transform="translate(-174.048 -157.357)" fill="none" stroke="#263238" stroke-linecap="round" stroke-linejoin="round" stroke-width="1"/><line y1="0.76" x2="1.532" transform="translate(111.613 169.729)" fill="none" stroke="#263238" stroke-linecap="round" stroke-linejoin="round" stroke-width="1"/><path d="M257.763,245.761a105.8,105.8,0,0,0-1.485,12.044,12.617,12.617,0,0,1-7.975,1.8,17.283,17.283,0,0,1-13.482-8.957l-1.59,1.1c-.655-5.063-1.45-9.518-1.45-9.518Z" transform="translate(-181.826 -171.286)" fill="#263238"/><path d="M225.919,229.389s-2.339-2.421-3.508-1.625a5.016,5.016,0,0,0-1.894,5.087c.631,2.046,3.379,5.625,3.59,7.694s1.625,4.443,3.181,3.064S225.919,229.389,225.919,229.389Z" transform="translate(-183.753 -173.763)" fill="#fff" stroke="#263238" stroke-linecap="round" stroke-linejoin="round" stroke-width="1"/><path d="M261.374,229.389s2.339-2.421,3.508-1.625a5.016,5.016,0,0,1,1.894,5.087c-.631,2.046-3.379,5.625-3.59,7.694s-1.625,4.443-3.181,3.064S261.374,229.389,261.374,229.389Z" transform="translate(-177.123 -173.763)" fill="#fff" stroke="#263238" stroke-linecap="round" stroke-linejoin="round" stroke-width="1"/><path d="M246.65,203.86c-29.7,0-21.668,35.91-16.2,48.609,1.918,4.467,11.389,10.711,16.2,10.711,4.479,0,13.424-5.847,15.2-10.08C267.417,240.343,274.971,203.86,246.65,203.86Z" transform="translate(-182.944 -177.784)" fill="#fff" stroke="#263238" stroke-linecap="round" stroke-linejoin="round" stroke-width="1"/><path d="M240.706,224.825s-7.741-2.339-10.126,2.339" transform="translate(-182.029 -174.333)" fill="none" stroke="#263238" stroke-linecap="round" stroke-linejoin="round" stroke-width="1"/><ellipse cx="1.041" cy="1.649" rx="1.041" ry="1.649" transform="translate(52.936 55.356)" fill="#263238"/><path d="M247,224.825s7.741-2.339,10.126,2.339" transform="translate(-179.248 -174.333)" fill="none" stroke="#263238" stroke-linecap="round" stroke-linejoin="round" stroke-width="1"/><ellipse cx="1.041" cy="1.649" rx="1.041" ry="1.649" transform="translate(71.4 55.356)" fill="#263238"/><path d="M245.061,229.22c-1.017,2.339,2.175,9.3,1.017,10.466a4.677,4.677,0,0,1-2.958,1.169" transform="translate(-179.906 -173.489)" fill="#fff" stroke="#263238" stroke-linecap="round" stroke-linejoin="round" stroke-width="1"/><path d="M251.618,241.64s-7.262,3.052-13.8,0" transform="translate(-180.803 -171.386)" fill="#fff" stroke="#263238" stroke-linecap="round" stroke-linejoin="round" stroke-width="1"/><path d="M242.97,209.921s-.935,14.745-5.063,16.628c-1.076.491-2.339-.222-4.443,1.6a14.592,14.592,0,0,0,.947-5.309s-1.567,9.156-11.927,17.949c-2.76,2.339-4.806,2-4.981,0-1.169-13.693,0-39.874,26.135-41.476a21.048,21.048,0,0,1,24.848,9.437,49.112,49.112,0,0,1,7.6,25.725,38.172,38.172,0,0,1-1.462,4.479s.55,6.689-.491,10.045c0,0-4.9-13.67-8.922-17.365-2.689-2.467-2.339-7.542-4.291-10.091,0,0,.62,3.2-1.45,4.514-1.111.7-3.66-.3-5.683-.351a5.578,5.578,0,0,0-3.064.924S250.314,216.306,242.97,209.921Z" transform="translate(-184.293 -178.735)" fill="#7300cc"/><path d="M220.34,241.346a5.449,5.449,0,0,1,1.614-2.245c10.232-8.934,11.927-17.949,11.927-17.949a14.593,14.593,0,0,1-.947,5.309c2.1-1.824,3.368-1.111,4.443-1.6,4.128-1.883,5.063-16.628,5.063-16.628,7.343,6.385,7.753,16.7,7.753,16.7a5.577,5.577,0,0,1,3.064-.924c2.023,0,4.572,1.052,5.683.351,2.07-1.31,1.45-4.514,1.45-4.514,1.964,2.549,1.6,7.624,4.291,10.091,2.479,2.269,5.274,8.314,7.074,12.641" transform="translate(-183.763 -177.044)" fill="none" stroke="#263238" stroke-linecap="round" stroke-linejoin="round" stroke-width="1"/><path d="M217.28,251.075a64.158,64.158,0,0,0,.538-7.285c-1.532-12.383-2.339-42.751,25.819-44.435a21.048,21.048,0,0,1,24.848,9.437,49.357,49.357,0,0,1,7.6,27.433" transform="translate(-184.293 -178.728)" fill="none" stroke="#263238" stroke-linecap="round" stroke-linejoin="round" stroke-width="1"/><path d="M255.881,215.892s-1.894-10.9-12.991-14.032" transform="translate(-179.944 -178.122)" fill="none" stroke="#263238" stroke-linecap="round" stroke-linejoin="round" stroke-width="1"/><path d="M259.56,208.23a37.723,37.723,0,0,1,4.829,24.556" transform="translate(-177.122 -177.044)" fill="none" stroke="#263238" stroke-linecap="round" stroke-linejoin="round" stroke-width="1"/><path d="M236.059,203.74s-2.233,14.71-11.869,23.387" transform="translate(-183.111 -177.804)" fill="none" stroke="#263238" stroke-linecap="round" stroke-linejoin="round" stroke-width="1"/><path d="M229.453,207.52s-10.524,9.67-12.243,23.141" transform="translate(-184.293 -177.164)" fill="none" stroke="#263238" stroke-linecap="round" stroke-linejoin="round" stroke-width="1"/><path d="M239.24,208.99a36.806,36.806,0,0,0,0-5.25" transform="translate(-180.563 -177.804)" fill="none" stroke="#263238" stroke-linecap="round" stroke-linejoin="round" stroke-width="1"/><path d="M217.39,284.74s3.321,7.086,1.4,13.178" transform="translate(-184.263 -164.088)" fill="none" stroke="#263238" stroke-linecap="round" stroke-linejoin="round" stroke-width="1"/><path d="M285.243,290.69a11.191,11.191,0,0,1-5.063,9.074" transform="translate(-173.63 -163.08)" fill="none" stroke="#263238" stroke-linecap="round" stroke-linejoin="round" stroke-width="1"/><path d="M287,321.428s7.18-3.871,15.084-1.929" transform="translate(-172.475 -158.294)" fill="none" stroke="#263238" stroke-linecap="round" stroke-linejoin="round" stroke-width="1"/><path d="M225.714,320s-5.753,3.707-10.524,2.549" transform="translate(-184.635 -158.117)" fill="none" stroke="#263238" stroke-linecap="round" stroke-linejoin="round" stroke-width="1"/></g><g transform="translate(28.071 178.259)"><path d="M57.2,333.94H199.719v59.835a5.145,5.145,0,0,1-5.145,5.145H62.345a5.145,5.145,0,0,1-5.145-5.145V333.94Z" transform="translate(-57.2 -155.757)" fill="#263238" stroke="#263238" stroke-linecap="round" stroke-linejoin="round" stroke-width="1"/><path d="M62.345,181.56H194.574a5.145,5.145,0,0,1,5.145,5.145V359.767H57.2V186.752a5.145,5.145,0,0,1,5.145-5.192Z" transform="translate(-57.2 -181.56)" fill="#fff" stroke="#263238" stroke-linecap="round" stroke-linejoin="round" stroke-width="1"/><path d="M66.485,303.56s-7.554,12.231-9.285,13.786V332.91l26.333-14.7,2.806-19.2S70.729,298.637,66.485,303.56Z" transform="translate(-57.2 -161.673)" fill="#fff"/><g transform="translate(0 137.332)" clip-path="url(#e)"><path d="M66.485,303.56s-7.554,12.231-9.285,13.786V332.91l26.333-14.7,2.806-19.2S70.729,298.637,66.485,303.56Z" transform="translate(-57.2 -299.004)" fill="#7300cc" opacity="0.4"/></g><path d="M66.485,303.56s-7.554,12.231-9.285,13.786V332.91l26.333-14.7,2.806-19.2S70.729,298.637,66.485,303.56Z" transform="translate(-57.2 -161.673)" fill="none" stroke="#263238" stroke-linecap="round" stroke-linejoin="round" stroke-width="1"/><path d="M93.407,261c-12.582,5.847-20.007,28.637-25.912,45.125,0,0-2.748,1.848-2.339,3.824,0,0,2.222-1.777,8.758-1.169s13.564,17.2,13.564,17.2L104.925,306.1" transform="translate(-55.86 -168.108)" fill="#7300cc"/><g transform="translate(9.255 92.892)" clip-path="url(#f)"><path d="M93.407,261c-12.582,5.847-20.007,28.637-25.912,45.125,0,0-2.748,1.848-2.339,3.824,0,0,2.222-1.777,8.758-1.169s13.564,17.2,13.564,17.2L104.925,306.1" transform="translate(-65.114 -261)" opacity="0.15"/></g><path d="M93.407,261c-12.582,5.847-20.007,28.637-25.912,45.125,0,0-2.748,1.848-2.339,3.824,0,0,2.222-1.777,8.758-1.169s13.564,17.2,13.564,17.2L104.925,306.1" transform="translate(-55.86 -168.108)" fill="none" stroke="#263238" stroke-linecap="round" stroke-linejoin="round" stroke-width="1"/><path d="M89.035,265.617a10.7,10.7,0,0,1,1.777-2.923C95.876,257.63,133.458,251,133.458,251a128.711,128.711,0,0,1,25.421,5.847c14.64,4.783,24.767,7.016,27.865,18s-3.1,38.588-3.1,38.588l-2.818,34.612H83.5s-1.731-33.607-2.923-38.728c-.69-2.982,1.169-16.523,3.847-28.321" transform="translate(-53.265 -169.801)" fill="#7300cc"/><g transform="translate(27.171 81.199)" clip-path="url(#g)"><path d="M186.155,294.271c-1.169,7.6-2.5,13.7-2.5,13.7l-1.169,15c-4.315,5.5-12.605,14.956-22.054,19.61H108.851L90.457,323.727l-7.647,7.1c-.62-10.22-1.544-23.854-2.269-26.965-.55-2.339.515-11.448,2.339-20.99l45.663,54.07,33.092-21.4,18.511-27.047Z" transform="translate(-80.443 -245.603)" opacity="0.15"/></g><path d="M89.035,265.617a10.7,10.7,0,0,1,1.777-2.923C95.876,257.63,133.458,251,133.458,251a128.711,128.711,0,0,1,25.421,5.847c14.64,4.783,24.767,7.016,27.865,18s-3.1,38.588-3.1,38.588l-2.818,34.612H83.5s-1.731-33.607-2.923-38.728c-.69-2.982,1.169-16.523,3.847-28.321" transform="translate(-53.265 -169.801)" fill="none" stroke="#263238" stroke-linecap="round" stroke-linejoin="round" stroke-width="1"/><path d="M112.21,238.67s6.244,13.494,0,19.13c0,0,2.339,9.553,6.466,11.81s25.269-12.1,25.269-12.1-4.818-14.336-2.409-18.838Z" transform="translate(-47.885 -171.889)" fill="#fff" stroke="#263238" stroke-linecap="round" stroke-linejoin="round" stroke-width="1"/><path d="M143.014,221.335s2.339-2.573,3.508-1.731a5.5,5.5,0,0,1,1.906,5.414c-.631,2.187-3.379,5.975-3.59,8.185s-1.637,4.677-3.192,3.262S143.014,221.335,143.014,221.335Z" transform="translate(-42.977 -175.146)" fill="#fff" stroke="#263238" stroke-linecap="round" stroke-linejoin="round" stroke-width="1"/><path d="M107.551,221.335s-2.339-2.573-3.508-1.731a5.519,5.519,0,0,0-1.906,5.414c.643,2.187,3.379,5.975,3.59,8.185s1.637,4.677,3.192,3.262S107.551,221.335,107.551,221.335Z" transform="translate(-49.611 -175.146)" fill="#fff" stroke="#263238" stroke-linecap="round" stroke-linejoin="round" stroke-width="1"/><path d="M127.284,195.69c29.713,0,21.668,35.91,16.207,48.609-1.918,4.467-11.389,10.711-16.207,10.711-4.467,0-13.412-5.847-15.2-10.068C106.529,232.173,98.975,195.69,127.284,195.69Z" transform="translate(-48.798 -179.167)" fill="#fff" stroke="#263238" stroke-linecap="round" stroke-linejoin="round" stroke-width="1"/><path d="M128.63,216.668s7.741-2.4,10.126,2.339" transform="translate(-45.104 -175.718)" fill="none" stroke="#263238" stroke-linecap="round" stroke-linejoin="round" stroke-width="1"/><path d="M133.83,222.38c0,.912-.468,1.649-1.041,1.649s-1.029-.737-1.029-1.649.456-1.66,1.029-1.66S133.83,221.468,133.83,222.38Z" transform="translate(-44.574 -174.929)" fill="#263238"/><path d="M122.336,216.668s-7.729-2.4-10.126,2.339" transform="translate(-47.885 -175.718)" fill="none" stroke="#263238" stroke-linecap="round" stroke-linejoin="round" stroke-width="1"/><path d="M116,222.38c0,.912.468,1.649,1.041,1.649s1.029-.737,1.029-1.649-.456-1.66-1.029-1.66S116,221.468,116,222.38Z" transform="translate(-47.243 -174.929)" fill="#263238"/><path d="M121.8,227.94c-1.169,1.169,2.76,3.169,3.508,3.169s3.7-1.555,3.7-2.467" transform="translate(-46.297 -173.706)" fill="#fff" stroke="#263238" stroke-linecap="round" stroke-linejoin="round" stroke-width="1"/><path d="M108.357,224.21s1.754,7.951,2.526,8.653,3.59,2.888,3.59,2.888,5.2-2.608,6.256-2.678,4.432.631,7.18.631,4.677-1.169,6.256-.351,5.695,3.169,5.695,3.169,4.081-3.508,4.291-3.66,2.526-8.653,2.526-8.653l.854.725s-.924,19.809-2.467,21.925-11.693,8.185-17.54,8.185-17.54-6.127-18.16-8.022S107.585,225.7,108.357,224.21Z" transform="translate(-48.581 -174.338)" fill="#263238"/><path d="M117.34,235.55s1.579,1.368,2.421,1.169a35.507,35.507,0,0,1,5.847-.561c1.988,0,4.069.514,5.66.6a6.338,6.338,0,0,0,2.9-.6" transform="translate(-47.016 -172.418)" fill="none" stroke="#fff" stroke-linecap="round" stroke-linejoin="round" stroke-width="1"/><path d="M139.905,206.315a37.7,37.7,0,0,1-22.9,0s-4-.234-5.589,1.777,0,8.185.421,10.77-3.508,4.291-2.947,10.688l-.526,2.421s-4.327-10.992-3.274-19.879,5.847-11.822,5.847-11.822,2.549-7.647,17.54-7.589c16.113.058,17.739,8.782,17.739,8.782s10.021,7.566,1.941,31.3l-.854-3.239a13.284,13.284,0,0,0-2.035-9c-1.4-2.046.842-8.185.316-11.389S139.905,206.315,139.905,206.315Z" transform="translate(-49.118 -179.677)" fill="#263238"/><path d="M70.659,314.952s2.035-12.173,3.824-13.74c4.677-4.058,4.5-5.741,7.437-7.3a7.975,7.975,0,0,0,3.929-6.256s5.04,1.286-.854,8.723a20.521,20.521,0,0,0-2.935,5.25c-.55,1.462,3.438,2.654,8.852,1.286,6.806-1.707,11.693,7.8,3.508,12.863a63.144,63.144,0,0,0-12.547,10.524l-9.705,15.47H57.2V325.313S67.291,320.039,70.659,314.952Z" transform="translate(-57.2 -163.594)" fill="#fff" stroke="#263238" stroke-linecap="round" stroke-linejoin="round" stroke-width="1"/><path d="M84.65,313.792s4.023-2.806,6.618-2.982" transform="translate(-52.552 -159.673)" fill="#fff" stroke="#263238" stroke-linecap="round" stroke-linejoin="round" stroke-width="1"/><path d="M84.65,308.967a17.132,17.132,0,0,0,3.66-2.21c.912-.959,4.023-4.467,4.023-4.467" transform="translate(-52.552 -161.116)" fill="#fff" stroke="#263238" stroke-linecap="round" stroke-linejoin="round" stroke-width="1"/><path d="M84.69,265.417c-1.953-.62-7.659,0-9.133-.55s-3.321.854-2.187,3.508,9.156,2.748,9.156,2.748Z" transform="translate(-54.521 -167.473)" fill="#fff" stroke="#263238" stroke-linecap="round" stroke-linejoin="round" stroke-width="1"/><path d="M78.024,267.284s-6.174-.8-7.811-.257c-.561.164-1.941,4.093-1.31,7.9s7.2,4.163,7.2,4.163Z" transform="translate(-55.245 -167.119)" fill="#fff" stroke="#263238" stroke-linecap="round" stroke-linejoin="round" stroke-width="1"/><path d="M70.19,270.22a2.912,2.912,0,0,0,3.11,1.544" transform="translate(-55 -166.547)" fill="none" stroke="#263238" stroke-linecap="round" stroke-linejoin="round" stroke-width="1"/><path d="M72.207,272.19s-5.075,2.561-5.5,4.736,1.064,5.578,1.064,5.578l6.127-.362Z" transform="translate(-55.602 -166.213)" fill="#fff" stroke="#263238" stroke-linecap="round" stroke-linejoin="round" stroke-width="1"/><path d="M69.819,279.28a48.137,48.137,0,0,0-3.344,3.566c-.713.994,2.6,6.77,3.344,7.612s7.308,1.263,7.308,1.263S73.163,281.069,69.819,279.28Z" transform="translate(-55.646 -165.013)" fill="#fff" stroke="#263238" stroke-linecap="round" stroke-linejoin="round" stroke-width="1"/><path d="M70.19,287.944s3.286-.538,2.771-3.344" transform="translate(-55 -164.112)" fill="none" stroke="#263238" stroke-linecap="round" stroke-linejoin="round" stroke-width="1"/><path d="M71.532,289.5c3.508,3.087,9.249,7.963,12.325,9.413,4.023,1.906,19.084,32.741,34.3,46.621h42.891s9.694-13.061,13.249-20.7,9.5-28.707,9.5-28.707l-16.371-4.841-16.09,18.557-11.074,17.739S100.835,295.922,96.193,286.1,87.9,265.32,85.564,265.32c-2.725,0-2.023,2.128-7.4,2.222-2.514,0-2.725,3.005-4.911,4.911s-3.835.982-3.508,7.121c.21,4.081-3.356,3.777-1.169,7.086" transform="translate(-55.395 -167.376)" fill="#fff" stroke="#263238" stroke-linecap="round" stroke-linejoin="round" stroke-width="1"/><path d="M153.037,265.63c-4.5,2.573-10.2,24.24-9.6,29.023s-6.151,14.348-5.028,16.874c0,0,9.285-.842,14.628,1.7s9.846,9.846,9,13.775c0,0,2.806,0,2.806-1.4s10.407-15.2,14.628-25.035,5.133-30.672-8.7-37" transform="translate(-43.47 -167.675)" fill="#7300cc" stroke="#263238" stroke-linecap="round" stroke-linejoin="round" stroke-width="1"/><path d="M81,298.151s1.766-5.344,8.723-10.688c4.49-3.45,6.466-2.537,6.466-2.537l3.66,5.2-.444.783a16.277,16.277,0,0,0-5.741,3.508,26.1,26.1,0,0,0-6.9,8.349h-1.5Z" transform="translate(-53.17 -164.075)" fill="#757575" stroke="#263238" stroke-linecap="round" stroke-linejoin="round" stroke-width="1"/><path d="M96.19,290.743a5.145,5.145,0,1,1-5.133-5.133A5.145,5.145,0,0,1,96.19,290.743Z" transform="translate(-52.34 -163.941)" fill="#fff" stroke="#263238" stroke-linecap="round" stroke-linejoin="round" stroke-width="1"/><path d="M139.368,277.27s-.912,12.395,2.163,17.47" transform="translate(-43.307 -165.353)" fill="none" stroke="#263238" stroke-linecap="round" stroke-linejoin="round" stroke-width="1"/><path d="M110.87,267.856s5.777,4.163,18-2.526" transform="translate(-48.112 -167.375)" fill="none" stroke="#263238" stroke-linecap="round" stroke-linejoin="round" stroke-width="1"/><path d="M87.93,321.07S99.2,333.594,104.3,336.119" transform="translate(-51.996 -157.936)" fill="none" stroke="#263238" stroke-linecap="round" stroke-linejoin="round" stroke-width="1"/><path d="M122.614,343.31H68.1a2.14,2.14,0,1,0,0,4.28h54.514a2.14,2.14,0,1,0,0-4.28Z" transform="translate(-55.716 -154.17)" fill="#fff"/><path d="M186.785,358.34H67.174a1.2,1.2,0,0,0,0,2.4H186.8a1.2,1.2,0,1,0,0-2.4Z" transform="translate(-55.714 -151.625)" fill="#fff"/><path d="M164.755,363.44H67.174a1.2,1.2,0,0,0,0,2.4h97.593a1.2,1.2,0,0,0,0-2.4Z" transform="translate(-55.714 -150.761)" fill="#fff"/><path d="M98.652,350.25H67.174a1.2,1.2,0,0,0,0,2.4H98.652a1.2,1.2,0,1,0,0-2.4Z" transform="translate(-55.714 -152.995)" fill="#fff"/><rect width="5.356" height="5.356" rx="1.06" transform="translate(126.908 225.881)" fill="#fff"/><rect width="5.356" height="5.356" rx="1.06" transform="translate(115.893 225.881)" fill="#fff"/><rect width="5.356" height="5.356" rx="1.06" transform="translate(104.878 225.881)" fill="#fff"/></g></svg>