<svg xmlns="http://www.w3.org/2000/svg" width="578.309" height="536.5" viewBox="0 0 578.309 536.5"><g transform="translate(-519.459 -2598)"><g transform="translate(509.173 2576.99)"><g transform="translate(43.686 21.011)"><path d="M38.219,250.469s-8.74,94.938,62.267,171.065S280.231,520.406,368,541.165s161.938-17.951,181.572-91.912-45.139-107.479-71.067-199.729-19.113-120.068-90.12-186S191.914,9.825,116.925,90,38.219,250.469,38.219,250.469Z" transform="translate(-37.878 -21.011)" fill="#8f00fc"/><path d="M38.219,250.469s-8.74,94.938,62.267,171.065S280.231,520.406,368,541.165s161.938-17.951,181.572-91.912-45.139-107.479-71.067-199.729-19.113-120.068-90.12-186S191.914,9.825,116.925,90,38.219,250.469,38.219,250.469Z" transform="translate(-37.878 -21.011)" fill="#fff" opacity="0.7"/></g><g transform="translate(10.286 375)"><path d="M20.943,376.74c3.631-.266,10.676-4.2,10.689-4.2s-4.007-3.874-4.3-4.091c-3.3-2.421-11.124-5.266-14.877-2.59a5.447,5.447,0,0,0-.69,8.086C13.91,376.4,17.88,376.958,20.943,376.74Z" transform="translate(-10.286 -302.644)" fill="#263238"/><path d="M33.255,406.972c3.268-1.15,8.679-6.367,9.1-6.791a96.607,96.607,0,0,0,9.527,8.691c1.949,1.562,3.958,3.087,6.052,4.588-1.041-.545-1.961-1.029-2.094-1.077-3.837-1.5-12.1-2.143-15.046,1.428a5.447,5.447,0,0,0,1.428,8.038c2.711,1.8,6.694,1.3,9.587.266s7.65-5.387,8.885-6.561c.787.569,1.562,1.15,2.348,1.707,3.789,2.711,7.59,5.4,11.233,8.147,1.283.968,2.506,1.973,3.74,2.966-.92-.484-1.695-.884-1.816-.932-3.837-1.5-12.1-2.143-15.046,1.428a5.459,5.459,0,0,0,1.477,7.989c2.712,1.792,6.694,1.283,9.587.266s7.19-4.975,8.655-6.355c1.21,1.053,2.421,2.106,3.631,3.2.763.75,1.549,1.428,2.276,2.227l2.191,2.324c1.332,1.513,2.724,3.075,3.982,4.6.9,1.053,1.719,2.058,2.554,3.087-1.21-.98-3.789-2.845-4.007-2.978-3.631-2.058-11.657-3.958-15.083-.859a5.447,5.447,0,0,0,.242,8.11c2.421,2.179,6.428,2.288,9.442,1.719,3.329-.642,9.248-4.781,9.986-5.3,1.368,1.695,2.7,3.365,3.922,4.951,3.3,4.261,6.052,8.05,8.171,11.112l2.711-1.428c-2.252-3.1-5.181-7-8.74-11.379-1.392-1.731-2.917-3.547-4.491-5.4a57.485,57.485,0,0,0,4.188-5.556c3.28,1.21,10.023.981,10.894.956.218,2.179.4,4.285.545,6.294.387,5.217.581,9.793.69,13.461l2.941-1.562c-.182-3.438-.46-7.529-.908-12.1-.206-2.215-.472-4.564-.775-6.984.847-.242,7.808-2.276,10.374-4.479,2.348-2,4.769-5.193,4.576-8.473A5.459,5.459,0,0,0,124,421.038c-4.539.738-8.134,8.231-8.752,12.3,0,.242-.145,2.893-.182,4.564-.121-.981-.242-1.937-.375-2.954-.278-2.009-.605-4.007-.944-6.149q-.3-1.537-.617-3.123c-.182-1.053-.508-2.13-.763-3.208-.629-2.494-1.4-4.975-2.227-7.469,1.755-.23,7.977-1.21,10.6-2.8s5.5-4.418,5.8-7.65a5.471,5.471,0,0,0-5.314-6.149c-4.6,0-9.284,6.912-10.519,10.894-.073.254-.642,3.171-.92,4.781-.508-1.5-1-2.99-1.574-4.479-1.622-4.309-3.414-8.619-5.169-12.928l-1.586-3.958c.629-.085,8.05-1.041,10.991-2.857,2.615-1.622,5.5-4.418,5.786-7.65a5.459,5.459,0,0,0-5.29-6.258c-4.612,0-9.3,6.912-10.519,10.834-.1.3-.9,4.5-1.053,5.58-1.21-2.905-2.288-5.822-3.28-8.728a96.834,96.834,0,0,1-3.3-12.008c.291,0,8.05-1,11.064-2.869,2.6-1.622,5.483-4.418,5.786-7.65a5.459,5.459,0,0,0-5.3-6.149c-4.612,0-9.3,6.912-10.519,10.834-.1.315-.968,4.842-1.065,5.665a3.82,3.82,0,0,0-.169-.714,70.873,70.873,0,0,1-1.1-12.444c0-2.3.073-4.5.218-6.646,1.465,0,8.147-.242,11.052-1.622s5.931-3.789,6.6-6.972a5.471,5.471,0,0,0-4.6-6.694c-4.588-.46-10,5.847-11.657,9.623-.085.206-.775,2.421-1.21,3.982.085-.956.145-1.961.242-2.881.351-3.474.9-6.621,1.392-9.418.291-1.586.593-3,.884-4.333,1.428-.787,7.106-3.995,9.006-6.512s3.535-6.052,2.639-9.224a5.459,5.459,0,0,0-7.2-3.813c-4.285,1.695-6.173,9.793-5.907,13.9,0,.363,1.029,5.871,1.1,5.822h.085c-.3,1.271-.617,2.639-.932,4.152-.557,2.784-1.21,5.931-1.6,9.405a96.6,96.6,0,0,0-.859,11.27,71.164,71.164,0,0,0,.847,12.625s0,.1,0,.145c-.605-1.21-2.421-4.527-2.59-4.757-2.421-3.365-8.921-8.473-13.315-7.106a5.459,5.459,0,0,0-3.171,7.469c1.271,2.99,4.842,4.769,7.856,5.52,3.365.835,10.749-.533,11.342-.642a95.8,95.8,0,0,0,3.147,12.492c.763,2.421,1.6,4.769,2.421,7.142-.557-1.029-1.065-1.937-1.15-2.058-2.421-3.365-8.921-8.473-13.315-7.106a5.459,5.459,0,0,0-3.171,7.469c1.271,3,4.842,4.769,7.844,5.52s9.357-.278,11.027-.581c.351.908.678,1.816,1.029,2.724,1.658,4.358,3.341,8.691,4.842,12.988.533,1.513,1,3.026,1.489,4.539-.5-.908-.932-1.67-1-1.779-2.421-3.365-8.933-8.473-13.315-7.105a5.459,5.459,0,0,0-3.184,7.469c1.283,2.99,4.842,4.769,7.856,5.52s8.74-.194,10.725-.533c.448,1.562.9,3.123,1.21,4.66.218,1.053.508,2.058.678,3.123s.363,2.106.545,3.135c.266,2.009.569,4.079.787,6.052.157,1.368.291,2.675.424,3.983-.521-1.513-1.586-4.455-1.707-4.7a21.292,21.292,0,0,0-7.263-7.8,6.887,6.887,0,0,0-.629-1.029,5.459,5.459,0,0,0-8.062-.98c-3.389,3.123-2.239,11.354-.521,15.095.109.218,1.477,2.482,2.421,3.9-.654-.75-1.21-1.489-1.949-2.251-1.332-1.525-2.711-3.014-4.176-4.612L88.465,434.6c-.726-.763-1.6-1.489-2.421-2.251-1.9-1.719-3.91-3.377-5.968-4.987,1.332-1.21,6.052-5.387,7.263-8.195s2.143-6.706.605-9.575a5.447,5.447,0,0,0-7.808-2.264c-3.825,2.578-3.946,10.894-2.808,14.853.073.242,1.21,2.99,1.864,4.479-1.21-.956-2.421-1.925-3.777-2.857-3.728-2.7-7.6-5.314-11.439-7.929l-3.51-2.421c.484-.412,6.137-5.3,7.59-8.473,1.283-2.8,2.143-6.706.605-9.575a5.435,5.435,0,0,0-7.759-2.167c-3.825,2.566-3.946,10.894-2.8,14.841.085.29,1.731,4.249,2.191,5.229-2.566-1.792-5.108-3.631-7.553-5.471a96.607,96.607,0,0,1-9.393-8.183c.218-.194,6.161-5.278,7.638-8.473,1.283-2.784,2.155-6.706.617-9.575a5.459,5.459,0,0,0-7.82-2.191c-3.825,2.578-3.946,10.894-2.8,14.84.085.315,1.864,4.564,2.239,5.3l-.533-.5a69.672,69.672,0,0,1-7.783-9.769c-1.3-1.913-2.421-3.8-3.486-5.665,1.21-.835,6.658-4.709,8.316-7.457s2.869-6.428,1.658-9.442a5.459,5.459,0,0,0-7.529-3.05c-4.079,2.143-5.108,10.4-4.406,14.453,0,.218.666,2.421,1.21,4.007-.46-.847-.956-1.719-1.38-2.542-1.622-3.087-2.917-6.052-4.043-8.607-.617-1.489-1.21-2.845-1.646-4.116.75-1.428,3.716-7.263,3.91-10.386s-.508-7.057-2.929-9.176a5.459,5.459,0,0,0-8.086.763c-2.639,3.777.254,11.572,2.748,14.853.218.29,4.091,4.321,4.128,4.249v-.085c.448,1.21.944,2.554,1.5,3.983,1.077,2.627,2.312,5.592,3.861,8.728a96.33,96.33,0,0,0,5.532,9.878,71.419,71.419,0,0,0,7.662,10.059l.109.109c-1.21-.678-4.515-2.421-4.842-2.542-3.837-1.5-12.1-2.143-15.034,1.428a5.447,5.447,0,0,0,1.465,7.977C26.379,408.534,30.35,408,33.255,406.972Z" transform="translate(-9.198 -313.448)" fill="#263238"/><path d="M82.629,347.27c.085,0-1.21-5.447-1.332-5.786-1.392-3.874-6.367-10.531-10.979-10.374a5.471,5.471,0,0,0-5.036,6.367c.448,3.232,3.438,5.9,6.125,7.4C74.555,346.641,82.617,347.27,82.629,347.27Z" transform="translate(1.273 -309.73)" fill="#263238"/><path d="M481.086,376.74c-3.631-.266-10.676-4.2-10.676-4.2s4.007-3.874,4.285-4.091c3.3-2.421,11.136-5.266,14.889-2.59a5.447,5.447,0,0,1,.678,8.086C488.071,376.4,484.149,376.958,481.086,376.74Z" transform="translate(86.561 -302.644)" fill="#263238"/><path d="M485.031,406.962c-3.268-1.15-8.679-6.367-9.115-6.791a95.256,95.256,0,0,1-9.526,8.691c-1.949,1.562-3.958,3.087-5.992,4.588,1.029-.545,1.961-1.029,2.094-1.077,3.837-1.5,12.1-2.143,15.034,1.428a5.447,5.447,0,0,1-1.477,7.977c-2.711,1.8-6.682,1.3-9.587.266s-7.65-5.387-8.873-6.561l-2.36,1.707c-3.789,2.711-7.578,5.4-11.221,8.147-1.283.968-2.518,1.973-3.752,2.966.92-.484,1.695-.884,1.828-.932,3.825-1.5,12.1-2.143,15.034,1.428a5.459,5.459,0,0,1-1.477,7.989c-2.711,1.792-6.694,1.283-9.587.266s-7.19-4.975-8.655-6.355c-1.21,1.053-2.421,2.106-3.631,3.2-.775.75-1.561,1.428-2.288,2.227s-1.465,1.549-2.179,2.324c-1.344,1.513-2.724,3.075-3.995,4.6-.884,1.053-1.719,2.058-2.554,3.087,1.271-.98,3.789-2.845,4.019-2.978,3.559-2.058,11.657-3.958,15.07-.859a5.447,5.447,0,0,1-.242,8.11c-2.421,2.179-6.416,2.288-9.442,1.719-3.317-.642-9.236-4.781-9.974-5.3-1.38,1.695-2.7,3.365-3.934,4.951-3.292,4.261-6.052,8.05-8.171,11.112l-2.724-1.428c2.252-3.1,5.193-7,8.74-11.379,1.392-1.731,2.917-3.547,4.5-5.4a58.97,58.97,0,0,1-4.2-5.556c-3.28,1.21-10.023.981-10.894.956-.206,2.179-.4,4.285-.545,6.294-.387,5.217-.581,9.793-.678,13.461l-2.954-1.562c.182-3.438.472-7.529.908-12.1.218-2.215.484-4.564.775-6.984-.847-.242-7.8-2.276-10.374-4.479-2.336-2-4.757-5.193-4.563-8.473a5.447,5.447,0,0,1,6.173-5.266c4.551.738,8.134,8.231,8.752,12.3,0,.242.145,2.893.182,4.563.133-.98.242-1.937.387-2.954.266-2.009.593-4.007.944-6.149.194-1.029.4-2.07.605-3.123s.508-2.13.763-3.208c.642-2.494,1.4-4.975,2.227-7.469-1.755-.23-7.977-1.21-10.6-2.8s-5.5-4.418-5.786-7.65a5.459,5.459,0,0,1,5.3-6.149c4.612,0,9.3,6.912,10.519,10.894.085.254.642,3.171.92,4.781.508-1.5,1.017-2.99,1.574-4.479,1.634-4.309,3.414-8.619,5.169-12.928.545-1.319,1.065-2.639,1.586-3.958-.617-.085-8.05-1.041-10.991-2.857-2.6-1.622-5.484-4.418-5.786-7.65a5.459,5.459,0,0,1,5.3-6.149c4.612,0,9.3,6.912,10.531,10.834.085.3.9,4.5,1.041,5.58,1.211-2.905,2.288-5.822,3.293-8.728a96.691,96.691,0,0,0,3.317-12.008c-.291,0-8.038-1-11.052-2.869-2.615-1.622-5.5-4.418-5.8-7.65A5.471,5.471,0,0,1,411.955,355c4.612,0,9.284,6.912,10.519,10.834.1.315.956,4.842,1.053,5.665a5.088,5.088,0,0,1,.169-.714,69.728,69.728,0,0,0,1.1-12.444c0-2.3-.073-4.5-.218-6.645-1.465,0-8.147-.242-11.04-1.622s-5.944-3.789-6.6-6.972a5.459,5.459,0,0,1,4.6-6.694c4.588-.46,10,5.847,11.645,9.623.1.206.775,2.421,1.211,3.983-.085-.956-.145-1.961-.242-2.881-.351-3.474-.884-6.621-1.392-9.418-.291-1.586-.593-3-.884-4.334-1.416-.787-7.093-3.995-8.994-6.512s-3.535-6.052-2.651-9.224a5.459,5.459,0,0,1,7.166-3.813c4.285,1.695,6.173,9.793,5.907,13.9,0,.363-1.029,5.871-1.1,5.822h-.085c.3,1.271.629,2.639.944,4.152.557,2.784,1.21,5.931,1.6,9.405a96.7,96.7,0,0,1,.847,11.27A71.129,71.129,0,0,1,424.677,371v.145c.605-1.21,2.421-4.527,2.59-4.757,2.421-3.365,8.921-8.473,13.315-7.106a5.447,5.447,0,0,1,3.171,7.469c-1.271,2.99-4.842,4.769-7.844,5.52-3.365.835-10.761-.533-11.354-.642a95.788,95.788,0,0,1-3.147,12.492c-.763,2.421-1.6,4.769-2.421,7.142.557-1.029,1.065-1.937,1.15-2.058,2.421-3.365,8.933-8.473,13.315-7.105a5.459,5.459,0,0,1,3.184,7.469c-1.283,3-4.842,4.769-7.856,5.52s-9.357-.278-11.027-.581l-1.017,2.724c-1.67,4.358-3.353,8.691-4.842,12.988-.533,1.513-1,3.026-1.477,4.539.5-.908.92-1.67.993-1.779,2.421-3.365,8.933-8.473,13.315-7.106a5.459,5.459,0,0,1,3.171,7.469c-1.283,2.99-4.842,4.769-7.856,5.52s-8.74-.194-10.725-.533c-.436,1.562-.884,3.123-1.21,4.66-.218,1.053-.508,2.058-.666,3.123s-.363,2.106-.545,3.135c-.278,2.009-.569,4.079-.787,6.052-.169,1.368-.3,2.675-.436,3.982.521-1.513,1.6-4.455,1.707-4.7a21.232,21.232,0,0,1,7.239-7.9,5.331,5.331,0,0,1,.629-1.029,5.447,5.447,0,0,1,8.05-.98c3.389,3.123,2.252,11.354.52,15.095-.109.218-1.477,2.481-2.421,3.9.654-.75,1.283-1.489,1.961-2.251,1.332-1.525,2.7-3.014,4.176-4.612l2.227-2.276c.738-.763,1.61-1.489,2.421-2.251,1.9-1.719,3.91-3.377,5.98-4.987-1.332-1.21-6.052-5.387-7.263-8.195s-2.155-6.706-.617-9.575a5.459,5.459,0,0,1,7.82-2.2c3.825,2.578,3.934,10.894,2.8,14.853-.073.242-1.21,2.99-1.864,4.479,1.21-.956,2.481-1.925,3.777-2.857,3.74-2.7,7.6-5.314,11.451-7.929l3.5-2.421c-.472-.412-6.137-5.3-7.59-8.473-1.283-2.8-2.143-6.706-.605-9.575a5.447,5.447,0,0,1,7.82-2.191c3.813,2.566,3.934,10.894,2.8,14.841-.085.29-1.731,4.249-2.2,5.229,2.578-1.792,5.12-3.631,7.553-5.471a95.2,95.2,0,0,0,9.393-8.183c-.218-.194-6.149-5.278-7.638-8.473-1.283-2.784-2.143-6.706-.605-9.575a5.447,5.447,0,0,1,7.808-2.191c3.825,2.578,3.946,10.894,2.8,14.84-.085.315-1.852,4.564-2.227,5.3l.533-.5a70.459,70.459,0,0,0,7.771-9.769c1.3-1.913,2.421-3.8,3.486-5.665-1.21-.835-6.658-4.709-8.3-7.457s-2.869-6.428-1.658-9.442a5.459,5.459,0,0,1,7.529-3.05c4.079,2.142,5.108,10.4,4.406,14.453,0,.218-.678,2.421-1.211,4.007.46-.847.956-1.719,1.392-2.542,1.622-3.087,2.905-6.052,4.031-8.606.629-1.489,1.211-2.845,1.658-4.116-.763-1.428-3.716-7.263-3.922-10.386s.424-7.033,2.881-9.151a5.459,5.459,0,0,1,8.086.763c2.639,3.777-.254,11.572-2.736,14.853-.218.29-4.1,4.321-4.14,4.249v-.085c-.436,1.21-.932,2.554-1.5,3.983-1.065,2.627-2.3,5.592-3.861,8.728a96.328,96.328,0,0,1-5.508,9.878,69.588,69.588,0,0,1-7.662,10.059l-.109.109c1.21-.678,4.515-2.421,4.842-2.542,3.825-1.5,12.1-2.143,15.034,1.428a5.447,5.447,0,0,1-1.477,7.977C491.907,408.523,487.924,407.991,485.031,406.962Z" transform="translate(69.228 -313.437)" fill="#263238"/><path d="M418.731,347.27c-.085,0,1.21-5.447,1.319-5.786,1.392-3.874,6.379-10.531,10.979-10.374a5.459,5.459,0,0,1,5.036,6.367c-.436,3.232-3.438,5.9-6.113,7.4C426.8,346.641,418.731,347.27,418.731,347.27Z" transform="translate(75.682 -309.73)" fill="#263238"/></g><g transform="translate(51.241 32.376)"><line x2="1.005" y2="0.666" transform="translate(58.236 206.024)" fill="none" stroke="#263238" stroke-miterlimit="10" stroke-width="1"/><line x2="185.482" y2="120.6" transform="translate(61.274 208.009)" fill="none" stroke="#263238" stroke-miterlimit="10" stroke-width="1" stroke-dasharray="1.998 1.998"/><path d="M248.81,302.481l1,.654-.654-1" transform="translate(-1.037 26.794)" fill="none" stroke="#263238" stroke-miterlimit="10" stroke-width="1"/><line x1="159.105" y1="244.638" transform="translate(87.711 82.264)" fill="none" stroke="#263238" stroke-miterlimit="10" stroke-width="1" stroke-dasharray="1.984 1.984"/><line x1="0.654" y1="1.017" transform="translate(86.392 80.243)" fill="none" stroke="#263238" stroke-miterlimit="10" stroke-width="1"/><line x1="1.005" y2="0.666" transform="translate(438.327 206.024)" fill="none" stroke="#263238" stroke-miterlimit="10" stroke-width="1"/><line x1="185.482" y2="120.6" transform="translate(250.811 208.009)" fill="none" stroke="#263238" stroke-miterlimit="10" stroke-width="1" stroke-dasharray="1.998 1.998"/><path d="M250.657,302.481l-1.017.654.666-1" transform="translate(-0.862 26.794)" fill="none" stroke="#263238" stroke-miterlimit="10" stroke-width="1"/><line y1="244.638" x2="159.105" transform="translate(250.751 82.264)" fill="none" stroke="#263238" stroke-miterlimit="10" stroke-width="1" stroke-dasharray="1.984 1.984"/><line y1="1.017" x2="0.666" transform="translate(410.51 80.243)" fill="none" stroke="#263238" stroke-miterlimit="10" stroke-width="1"/><line y2="1.21" transform="translate(248.778 42.694)" fill="none" stroke="#263238" stroke-miterlimit="10" stroke-width="1"/><line y2="281.17" transform="translate(248.778 46.337)" fill="none" stroke="#263238" stroke-miterlimit="10" stroke-width="1" stroke-dasharray="2.011 2.011"/><line y2="1.21" transform="translate(248.778 328.718)" fill="none" stroke="#263238" stroke-miterlimit="10" stroke-width="1"/><circle cx="37.222" cy="37.222" r="37.222" transform="translate(213.819)" fill="#263238" stroke="#263238" stroke-miterlimit="10" stroke-width="2"/><path d="M251.51,67.3l31.327-20.094A37.307,37.307,0,0,0,263.106,31.93Z" transform="translate(-0.469 -30.078)" fill="#8f00fc" stroke="#263238" stroke-miterlimit="10" stroke-width="1"/><path d="M251.51,64.644,269.05,97.46a37.222,37.222,0,0,0,13.739-52.91Z" transform="translate(-0.469 -27.422)" fill="#fff" stroke="#263238" stroke-miterlimit="10" stroke-width="1"/><circle cx="37.21" cy="37.21" r="37.21" transform="translate(352.352 80.006) rotate(-45)" fill="none" stroke="#263238" stroke-miterlimit="10" stroke-width="1"/><circle cx="32.259" cy="32.259" r="32.259" transform="translate(372.707 47.753)" fill="#263238"/><path d="M399.432,99.638,368.19,81.59v36.084Z" transform="translate(24.09 -19.626)" fill="#fff"/><circle cx="38.832" cy="38.832" r="38.832" transform="matrix(0.233, -0.972, 0.972, 0.233, 411.484, 230.117)" fill="#263238"/><circle cx="27.732" cy="27.732" r="27.732" transform="matrix(0.232, -0.973, 0.973, 0.232, 424.907, 221.971)" fill="#fff"/><circle cx="16.644" cy="16.644" r="16.644" transform="translate(438.227 213.737) rotate(-76.64)" fill="#263238"/><circle cx="8.958" cy="8.958" r="8.958" transform="matrix(0.231, -0.973, 0.973, 0.231, 447.544, 208.087)" fill="#fff"/><path d="M472.383,183.042l-4.939-1.925,2.155-1.053a1.029,1.029,0,1,0-.9-1.852l-1.562.763,2.481-5.375-9.212,4.116-1.344,5.169-36.617,17.83a1.029,1.029,0,0,0-.472,1.38,1,1,0,0,0,1.368.472l36.738-17.891,4.007,2.264Z" transform="translate(35.389 -0.259)" fill="#263238"/><circle cx="38.82" cy="38.82" r="38.82" transform="translate(50.816 39.571)" fill="#fff" stroke="#263238" stroke-miterlimit="10" stroke-width="2"/><ellipse cx="28.156" cy="38.82" rx="28.156" ry="38.82" transform="translate(61.48 39.571)" fill="#fff" stroke="#263238" stroke-miterlimit="10" stroke-width="1"/><ellipse cx="11.984" cy="38.82" rx="11.984" ry="38.82" transform="translate(77.652 39.571)" fill="#fff" stroke="#263238" stroke-miterlimit="10" stroke-width="1"/><line x2="41.822" transform="translate(69.07 45.599)" fill="none" stroke="#263238" stroke-miterlimit="10" stroke-width="1"/><line x2="69.203" transform="translate(55.004 60.815)" fill="none" stroke="#263238" stroke-miterlimit="10" stroke-width="1"/><line x2="77.374" transform="translate(51.01 76.018)" fill="none" stroke="#263238" stroke-miterlimit="10" stroke-width="1"/><line x2="73.391" transform="translate(52.716 91.234)" fill="none" stroke="#263238" stroke-miterlimit="10" stroke-width="1"/><line x2="53.612" transform="translate(63.175 106.438)" fill="none" stroke="#263238" stroke-miterlimit="10" stroke-width="1"/><circle cx="38.82" cy="38.82" r="38.82" transform="translate(0 162.592)" fill="#263238" stroke="#263238" stroke-miterlimit="10" stroke-width="2"/><rect width="51.482" height="41.193" transform="translate(11.935 183.061)" fill="#fff" stroke="#263238" stroke-miterlimit="10" stroke-width="2"/><rect width="57.921" height="16.729" transform="translate(8.715 183.061)" fill="#fff" stroke="#263238" stroke-miterlimit="10" stroke-width="2"/><path d="M78.585,183.641s-12.1-14.175-14.175-13.5-7.42,10.12-4.382,11.136S78.585,183.641,78.585,183.641Z" transform="translate(-40.964 -0.992)" fill="#8f00fc"/><path d="M75.29,183.641s12.1-14.175,14.175-13.5,7.432,10.12,4.394,11.136S75.29,183.641,75.29,183.641Z" transform="translate(-37.559 -0.992)" fill="#8f00fc"/><path d="M79.56,210.479l-3.644-6.331-3.777,6.331V182.13h7.42Z" transform="translate(-38.222 1.536)" fill="#8f00fc"/></g><g transform="translate(107.25 232.311)"><path d="M90.39,303.993,283.026,195.57,480.382,303.993V461.173H92.763Z" transform="translate(-90.39 -195.57)" fill="#263238" stroke="#263238" stroke-linecap="round" stroke-linejoin="round" stroke-width="1"/><rect width="288.361" height="256.452" transform="translate(50.828 29.245)" fill="#fff" stroke="#263238" stroke-miterlimit="10" stroke-width="1"/><line x2="218.637" transform="translate(83.91 74.154)" fill="none" stroke="#263238" stroke-miterlimit="10" stroke-width="1"/><line x2="218.637" transform="translate(83.91 96.608)" fill="none" stroke="#263238" stroke-miterlimit="10" stroke-width="1"/><line x2="218.637" transform="translate(83.91 119.063)" fill="none" stroke="#263238" stroke-miterlimit="10" stroke-width="1"/><line x2="218.637" transform="translate(83.91 141.517)" fill="none" stroke="#263238" stroke-miterlimit="10" stroke-width="1"/><line x2="218.637" transform="translate(83.91 163.972)" fill="none" stroke="#263238" stroke-miterlimit="10" stroke-width="1"/><line x2="218.637" transform="translate(83.91 186.426)" fill="none" stroke="#263238" stroke-miterlimit="10" stroke-width="1"/><path d="M480.382,501.416H90.39V285.14L285.4,417.506,480.382,285.14Z" transform="translate(-90.39 -176.717)" fill="#8f00fc" stroke="#263238" stroke-miterlimit="10" stroke-width="1"/><line y1="120.092" x2="141.796" transform="translate(0 204.607)" fill="none" stroke="#263238" stroke-miterlimit="10" stroke-width="1"/><line x1="140.743" y1="120.285" transform="translate(248.633 204.414)" fill="none" stroke="#263238" stroke-miterlimit="10" stroke-width="1"/></g><g transform="translate(34.525 557.01)"><line x2="532.999" fill="none" stroke="#263238" stroke-miterlimit="10" stroke-width="1"/></g></g></g></svg>