<svg xmlns="http://www.w3.org/2000/svg" width="444.539" height="431.74" viewBox="0 0 444.539 431.74"><g transform="translate(0.707)"><g transform="translate(-31.218 -38.26)"><path d="M132.36,86.75S70.52,137.64,47.54,200.51,42.25,334,95.42,377.93s132.09,19.64,206.42,38.69S449,412.8,465.91,334.93s-36.63-94.08-62.13-174.5S280.19-24.69,132.36,86.75Z" fill="#8f00fc"/><path d="M132.36,86.75S70.52,137.64,47.54,200.51,42.25,334,95.42,377.93s132.09,19.64,206.42,38.69S449,412.8,465.91,334.93s-36.63-94.08-62.13-174.5S280.19-24.69,132.36,86.75Z" fill="#fff" opacity="0.7"/><line x2="412.08" transform="translate(49.92 425.46)" fill="none" stroke="#263238" stroke-miterlimit="10" stroke-width="1"/><line x2="6.45" transform="translate(32.4 425.46)" fill="none" stroke="#263238" stroke-miterlimit="10" stroke-width="1"/><rect width="54.96" height="34.57" rx="1.66" transform="translate(173.33 99.81)" fill="none" stroke="#263238" stroke-miterlimit="10" stroke-width="1"/><rect width="54.96" height="7.98" transform="translate(173.33 120.2)" fill="none" stroke="#263238" stroke-miterlimit="10" stroke-width="1"/><circle cx="3.77" cy="3.77" r="3.77" transform="translate(215.88 102.69)" fill="none" stroke="#263238" stroke-miterlimit="10" stroke-width="1"/><circle cx="3.77" cy="3.77" r="3.77" transform="translate(210.12 102.69)" fill="none" stroke="#263238" stroke-miterlimit="10" stroke-width="1"/><line x2="15.07" transform="translate(178.21 105.35)" fill="none" stroke="#263238" stroke-miterlimit="10" stroke-width="1"/><rect width="54.96" height="34.57" rx="1.66" transform="translate(56.7 254)" fill="none" stroke="#263238" stroke-miterlimit="10" stroke-width="1"/><rect width="54.96" height="7.98" transform="translate(56.7 274.39)" fill="none" stroke="#263238" stroke-miterlimit="10" stroke-width="1"/><path d="M106.78,260.65a3.77,3.77,0,1,1-3.77-3.77A3.77,3.77,0,0,1,106.78,260.65Z" fill="none" stroke="#263238" stroke-miterlimit="10" stroke-width="1"/><circle cx="3.77" cy="3.77" r="3.77" transform="translate(93.48 256.88)" fill="none" stroke="#263238" stroke-miterlimit="10" stroke-width="1"/><line x2="15.07" transform="translate(61.57 259.54)" fill="none" stroke="#263238" stroke-miterlimit="10" stroke-width="1"/><rect width="34.15" height="34.15" transform="translate(366.56 66.56)" fill="none" stroke="#263238" stroke-miterlimit="10" stroke-width="1"/><path d="M394.19,81.01h-8.71v-8.7h-3.69v8.7h-8.7V84.7h8.7v8.71h3.69V84.7h8.71Z" fill="none" stroke="#263238" stroke-miterlimit="10" stroke-width="1"/><rect width="34.15" height="34.15" transform="translate(400.64 66.56)" fill="none" stroke="#263238" stroke-miterlimit="10" stroke-width="1"/><rect width="18.19" height="3.16" transform="translate(408.61 81.01)" fill="none" stroke="#263238" stroke-miterlimit="10" stroke-width="1"/><rect width="34.15" height="34.15" transform="translate(366.56 100.65)" fill="none" stroke="#263238" stroke-miterlimit="10" stroke-width="1"/><path d="M389.79,108.18l-6.15,6.15-6.15-6.15-2.61,2.61,6.15,6.15-6.15,6.15,2.61,2.61,6.15-6.15,6.15,6.15,2.61-2.61-6.15-6.15,6.15-6.15Z" fill="none" stroke="#263238" stroke-miterlimit="10" stroke-width="1"/><rect width="34.15" height="34.15" transform="translate(400.64 100.65)" fill="none" stroke="#263238" stroke-miterlimit="10" stroke-width="1"/><rect width="18.19" height="3.16" transform="translate(408.61 115.09)" fill="none" stroke="#263238" stroke-miterlimit="10" stroke-width="1"/><path d="M417.71,112.2a2.29,2.29,0,1,0-2.29-2.29A2.29,2.29,0,0,0,417.71,112.2Z" fill="none" stroke="#263238" stroke-miterlimit="10" stroke-width="1"/><circle cx="2.29" cy="2.29" r="2.29" transform="translate(415.42 121.51)" fill="none" stroke="#263238" stroke-miterlimit="10" stroke-width="1"/><rect width="21.57" height="21.57" transform="translate(36.08 366)" fill="none" stroke="#263238" stroke-miterlimit="10" stroke-width="1"/><path d="M53.52,375.13H48.03v-5.5H45.7v5.5H40.2v2.33h5.5v5.49h2.33v-5.49h5.49Z" fill="none" stroke="#263238" stroke-miterlimit="10" stroke-width="1"/><rect width="21.57" height="21.57" transform="translate(57.6 366)" fill="none" stroke="#263238" stroke-miterlimit="10" stroke-width="1"/><rect width="11.49" height="2" transform="translate(62.64 375.13)" fill="none" stroke="#263238" stroke-miterlimit="10" stroke-width="1"/><rect width="21.57" height="21.57" transform="translate(36.08 387.53)" fill="none" stroke="#263238" stroke-miterlimit="10" stroke-width="1"/><path d="M50.75,392.28l-3.89,3.89-3.88-3.89-1.65,1.65,3.89,3.89-3.89,3.88,1.65,1.65,3.88-3.89,3.89,3.89,1.65-1.65-3.89-3.88,3.89-3.89Z" fill="none" stroke="#263238" stroke-miterlimit="10" stroke-width="1"/><rect width="21.57" height="21.57" transform="translate(57.6 387.53)" fill="none" stroke="#263238" stroke-miterlimit="10" stroke-width="1"/><rect width="11.49" height="2" transform="translate(62.64 396.65)" fill="none" stroke="#263238" stroke-miterlimit="10" stroke-width="1"/><circle cx="1.44" cy="1.44" r="1.44" transform="translate(66.94 391.94)" fill="none" stroke="#263238" stroke-miterlimit="10" stroke-width="1"/><path d="M68.38,400.7a1.45,1.45,0,1,0,1.45,1.45,1.45,1.45,0,0,0-1.45-1.45Z" fill="none" stroke="#263238" stroke-miterlimit="10" stroke-width="1"/><path d="M297.48,109.2a.24.24,0,0,0-.2.23v1.48a.49.49,0,0,1-.56.56h-1.95a.49.49,0,0,1-.56-.56l.07-1.51a.26.26,0,0,0-.2-.24c-3.76-.46-5.93-2.73-5.93-5.9v-1.41a.5.5,0,0,1,.56-.56h3.42c.37,0,.57.16.57.42v.47a3,3,0,0,0,3.32,3.13c2.11,0,3-1.29,3-2.61,0-2.34-4.28-2.7-7.45-4.74-2-1.26-3.46-2.87-3.46-5.67,0-3.46,2.15-5.9,5.94-6.46a.25.25,0,0,0,.19-.23l-.06-1.78a.49.49,0,0,1,.56-.56h1.88a.5.5,0,0,1,.56.56v1.74a.23.23,0,0,0,.19.23c4,.43,6.2,2.84,6.2,6.23v1.09a.51.51,0,0,1-.56.56h-3.46c-.36,0-.56-.13-.56-.33V93a3.09,3.09,0,0,0-3.3-3.33c-1.84,0-3,1-3,2.44,0,2.14,3,2.47,6.09,3.83,3.4,1.51,4.88,3.62,4.88,6.52C303.71,106.1,301.5,108.67,297.48,109.2Z" fill="none" stroke="#263238" stroke-miterlimit="10" stroke-width="1"/><circle cx="18.74" cy="18.74" r="18.74" transform="translate(276.92 78.8)" fill="none" stroke="#263238" stroke-miterlimit="10" stroke-width="1"/><path d="M147.33,74.35a.17.17,0,0,0-.14.16v1a.33.33,0,0,1-.38.37h-1.3a.33.33,0,0,1-.38-.37l.05-1a.17.17,0,0,0-.13-.15c-2.52-.31-4-1.83-4-4v-.95a.35.35,0,0,1,.38-.38h2.29c.25,0,.38.11.38.29v.31a2,2,0,0,0,2.23,2.1,1.76,1.76,0,0,0,2-1.75c0-1.56-2.87-1.81-5-3.18a4.16,4.16,0,0,1-2.25-3.8,4.21,4.21,0,0,1,4-4.33.17.17,0,0,0,.14-.15l-.05-1.19a.33.33,0,0,1,.38-.38h1.26a.34.34,0,0,1,.37.38V58.5a.16.16,0,0,0,.13.15c2.65.29,4.15,1.9,4.15,4.17v.73A.34.34,0,0,1,151,64h-2.31c-.25,0-.38-.08-.38-.22v-.22a2.06,2.06,0,0,0-2.2-2.23c-1.24,0-2,.64-2,1.64,0,1.43,2,1.65,4.08,2.56,2.28,1,3.27,2.43,3.27,4.37C151.5,72.28,150,74,147.33,74.35Z" fill="none" stroke="#263238" stroke-miterlimit="10" stroke-width="1"/><circle cx="12.55" cy="12.55" r="12.55" transform="translate(128.358 66.549) rotate(-45)" fill="none" stroke="#263238" stroke-miterlimit="10" stroke-width="1"/><path d="M50.19,200.07a.15.15,0,0,0-.13.15v1c0,.27-.13.38-.37.38H48.4c-.24,0-.37-.11-.37-.38v-1a.17.17,0,0,0-.13-.16c-2.52-.3-4-1.83-4-3.95v-1a.33.33,0,0,1,.37-.37h2.3c.24,0,.37.11.37.29v.31a2,2,0,0,0,2.23,2.09,1.76,1.76,0,0,0,2-1.74c0-1.57-2.87-1.81-5-3.18a4.31,4.31,0,0,1,1.66-8.12.16.16,0,0,0,.13-.16v-1.19a.32.32,0,0,1,.37-.37h1.26a.34.34,0,0,1,.38.37v1.17a.18.18,0,0,0,.14.16c2.64.28,4.15,1.89,4.15,4.17v.73a.34.34,0,0,1-.38.37h-2.3c-.24,0-.37-.09-.37-.22v-.22A2.07,2.07,0,0,0,49,187c-1.24,0-2,.64-2,1.63,0,1.44,2,1.66,4.09,2.56,2.27,1,3.26,2.43,3.26,4.37C54.36,198,52.88,199.71,50.19,200.07Z" fill="none" stroke="#263238" stroke-miterlimit="10" stroke-width="1"/><circle cx="12.55" cy="12.55" r="12.55" transform="translate(31.218 192.262) rotate(-45)" fill="none" stroke="#263238" stroke-miterlimit="10" stroke-width="1"/><path d="M463.22,371.81a.15.15,0,0,0-.13.15v1c0,.27-.13.38-.37.38h-1.31c-.24,0-.37-.11-.37-.38v-1a.17.17,0,0,0-.13-.16c-2.52-.31-4-1.83-4-3.95v-.95a.33.33,0,0,1,.37-.37h2.3c.24,0,.37.11.37.29v.3a2,2,0,0,0,2.23,2.1,1.76,1.76,0,0,0,2-1.74c0-1.57-2.87-1.81-5-3.18a4.31,4.31,0,0,1,1.66-8.12.17.17,0,0,0,.13-.16v-1.19a.32.32,0,0,1,.37-.37h1.26a.34.34,0,0,1,.38.37V356a.16.16,0,0,0,.14.15c2.64.29,4.15,1.9,4.15,4.18V361a.34.34,0,0,1-.38.38h-2.32c-.24,0-.37-.09-.37-.22V361a2.06,2.06,0,0,0-2.21-2.23c-1.24,0-2,.64-2,1.63,0,1.44,2,1.66,4.09,2.56,2.27,1,3.26,2.43,3.26,4.37C467.39,369.73,465.91,371.45,463.22,371.81Z" fill="none" stroke="#263238" stroke-miterlimit="10" stroke-width="1"/><circle cx="12.55" cy="12.55" r="12.55" transform="translate(449.45 351.45)" fill="none" stroke="#263238" stroke-miterlimit="10" stroke-width="1"/><path d="M421.85,448.51c0,3.34-76.58,6.05-171,6.05s-171-2.71-171-6.05,76.58-6,171.05-6S421.85,445.18,421.85,448.51Z" fill="#ccc"/><path d="M238.5,394.21s8.32,35.76,4.7,41.63c-4.74,7.69-55.15,12.32-55.15,12.32H299.21s13.93-3.91,9.74-15.11c-3.24-8.66-18.79-38.84-18.79-38.84Z" fill="#fff" stroke="#263238" stroke-linecap="round" stroke-linejoin="round" stroke-width="1"/><path d="M236.06,394.21s8.88,36.06,4.7,41.63-52.71,9.84-52.71,9.84H299.73s9.39-3.79,6.78-12.63-18.78-38.84-18.78-38.84Z" fill="#fff" stroke="#263238" stroke-linecap="round" stroke-linejoin="round" stroke-width="1"/><path d="M287.73,394.21H236.06s5.26,21.36,5.77,33.74h62.75C299.5,416.05,287.73,394.21,287.73,394.21Z" fill="#263238" stroke="#263238" stroke-linecap="round" stroke-linejoin="round" stroke-width="1"/><rect width="111.15" height="2.3" transform="translate(188.05 445.86)" fill="#fff" stroke="#263238" stroke-linecap="round" stroke-linejoin="round" stroke-width="1"/><rect width="335.38" height="251.53" rx="8.48" transform="translate(97.99 146.19)" fill="#fff" stroke="#263238" stroke-linecap="round" stroke-linejoin="round" stroke-width="1"/><rect width="335.38" height="251.53" rx="8.48" transform="translate(90.09 146.19)" fill="#263238" stroke="#263238" stroke-linecap="round" stroke-linejoin="round" stroke-width="1"/><path d="M90.09,358.63H425.47v30.61a8.48,8.48,0,0,1-8.48,8.48H98.57a8.48,8.48,0,0,1-8.48-8.48Z" fill="#fff" stroke="#263238" stroke-linecap="round" stroke-linejoin="round" stroke-width="1"/><rect width="301.64" height="177.71" transform="translate(106.96 161.84)" fill="#fff" stroke="#263238" stroke-linecap="round" stroke-linejoin="round" stroke-width="1"/><rect width="256.06" height="11.24" transform="translate(122.08 264.15)" fill="#8f00fc"/><rect width="256.06" height="11.24" transform="translate(122.08 285.39)" fill="#8f00fc"/><line x2="45.05" transform="translate(122.06 197.11)" fill="none" stroke="#263238" stroke-miterlimit="10" stroke-width="1"/><line x2="45.05" transform="translate(122.06 203.73)" fill="none" stroke="#263238" stroke-miterlimit="10" stroke-width="1"/><line x2="45.05" transform="translate(268.13 203.73)" fill="none" stroke="#263238" stroke-miterlimit="10" stroke-width="1"/><line x2="45.05" transform="translate(268.13 210.32)" fill="none" stroke="#263238" stroke-miterlimit="10" stroke-width="1"/><line x2="45.05" transform="translate(268.13 216.91)" fill="none" stroke="#263238" stroke-miterlimit="10" stroke-width="1"/><line x2="45.05" transform="translate(122.06 210.36)" fill="none" stroke="#263238" stroke-miterlimit="10" stroke-width="1"/><line x2="45.05" transform="translate(122.06 216.98)" fill="none" stroke="#263238" stroke-miterlimit="10" stroke-width="1"/><rect width="107.98" height="11.92" transform="translate(122.06 223.61)" fill="#8f00fc"/><rect width="56.97" height="5.96" transform="translate(320.79 211.68)" fill="#8f00fc"/><rect width="56.97" height="21.2" transform="translate(320.79 196.45)" fill="none" stroke="#263238" stroke-miterlimit="10" stroke-width="1"/><rect width="56.97" height="9.27" transform="translate(320.79 202.41)" fill="none" stroke="#263238" stroke-miterlimit="10" stroke-width="1"/><line y2="20.76" transform="translate(329.46 196.63)" fill="none" stroke="#263238" stroke-miterlimit="10" stroke-width="1"/><rect width="256.06" height="71.82" transform="translate(122.08 243.54)" fill="none" stroke="#263238" stroke-miterlimit="10" stroke-width="1"/><rect width="256.06" height="11.24" transform="translate(122.08 243.54)" fill="#8f00fc" stroke="#263238" stroke-miterlimit="10" stroke-width="1"/><line y2="71.43" transform="translate(302.85 243.81)" fill="none" stroke="#263238" stroke-miterlimit="10" stroke-width="1"/><line y2="71.43" transform="translate(330.68 243.81)" fill="none" stroke="#263238" stroke-miterlimit="10" stroke-width="1"/><rect width="301.64" height="8.21" transform="translate(106.96 161.84)" fill="#8f00fc" stroke="#263238" stroke-linecap="round" stroke-linejoin="round" stroke-width="1"/><path d="M264,378.18a6.19,6.19,0,1,0-6.18,6.18,6.19,6.19,0,0,0,6.18-6.18Z" fill="#263238" stroke="#263238" stroke-linecap="round" stroke-linejoin="round" stroke-width="1"/><path d="M434.47,462.81c0,4-17.78,7.19-39.72,7.19S355,466.78,355,462.81s17.79-7.19,39.72-7.19S434.47,458.84,434.47,462.81Z" fill="#ccc"/><path d="M370.2,278.5s-4.28,1.6-5.61,7.62-4.15,24.2-5.62,32.76-9.36,36.36-9.36,36.36l4.15,2.81s10.16-14.84,13-21.79,5.61-11.77,6-17.12-.26-34.76-.26-37S371.41,278.23,370.2,278.5Z" fill="#8f00fc" stroke="#263238" stroke-linecap="round" stroke-linejoin="round" stroke-width="1"/><path d="M374.08,453.07s-10.56,6.82-11.77,9.22,1.07,3.08,7,2.28,10-3.88,12.83-5.49,4.15-1.73,3.21-5.34S374.08,453.07,374.08,453.07Z" fill="#fff" stroke="#263238" stroke-linecap="round" stroke-linejoin="round" stroke-width="1"/><path d="M415.39,454.14s11.64,7.88,11,9.62-4.15,2.54-10.3.54-7.49-3.61-10-5.75-1.6-4.81-1.6-6.69S415.39,454.14,415.39,454.14Z" fill="#fff" stroke="#263238" stroke-linecap="round" stroke-linejoin="round" stroke-width="1"/><path d="M368.6,332s-2.41,21.12-2.68,38,7.49,81.11,7.49,81.78v2a18.481,18.481,0,0,0,6.29,1.6,52.933,52.933,0,0,0,6.81-.27s0-11.9.27-21.12,1.74-51.3,1.74-51.3l.4-18.18,2.67,1.74,12.57,89.13,11.23-1.2s1.34-59.32,1.07-75.63-3.46-45.1-3.46-45.1Z" fill="#263238" stroke="#263238" stroke-linecap="round" stroke-linejoin="round" stroke-width="1"/><path d="M389.59,272.22s-17.78,5.48-19.39,6.28-2.67,5.08-2.67,10.43,2,31.82,1.74,35-1.87,7.22-.54,9.49,19,3.74,28.48,3.34,14.84.54,16.18-2.14,2.14-35.69,3.47-43.32,2.28-11.63-.4-13.77-16.84-4.68-20.32-5.48Z" fill="#8f00fc" stroke="#263238" stroke-linecap="round" stroke-linejoin="round" stroke-width="1"/><path d="M389,268.85s-2.95,1-3.93,3.21-3.92,13.21-2.85,13.74,9.37-3.48,10.62-3.21,6.33,6.87,7.85,6,5.09-10.26,3.75-15.08S390.33,267.6,389,268.85Z" fill="#fff" stroke="#263238" stroke-linecap="round" stroke-linejoin="round" stroke-width="1"/><path d="M387.38,265.82s-.09,4.9-.09,7.4,2.15,11.42,4,11.07,9.64-9.1,10.89-11.43,1.51-7.13,1.51-7.13-5.53,3.92-9.72,2.67a36.519,36.519,0,0,1-6.59-2.58Z" fill="#ccc" stroke="#263238" stroke-linecap="round" stroke-linejoin="round" stroke-width="1"/><path d="M394,268.4a36.518,36.518,0,0,1-6.61-2.58s0,1.93-.06,4c.61,1.31,1.19,2.41,1.6,3.19a5.18,5.18,0,0,0,6.62,2.77,21.42,21.42,0,0,0,7.56-5.59,30.418,30.418,0,0,0,.61-4.44S398.18,269.65,394,268.4Z" fill="#263238" stroke="#263238" stroke-linecap="round" stroke-linejoin="round" stroke-width="1"/><path d="M385.28,251.46s-.5-3.56-2.18-2.11-1.38,5.09-.58,6.84,1.67,1.53,1.89,1.45S385.28,251.46,385.28,251.46Z" fill="#ccc" stroke="#263238" stroke-linecap="round" stroke-linejoin="round" stroke-width="1"/><path d="M408.56,254.88c.22-.36,2.91-9.38,3.06-14.26s-6.91-9.45-11.93-10.4-12.44.29-14,3.13-1.75,14-1.75,15.86,1.46,2.18,1.82,1.74,1.46-11.42,2.11-12.22,12.29-.43,14.11.07,2.84,2.41,2.48,5.17.07,2.62.8,4.22.72,2.18.72,4.36S407,257.35,408.56,254.88Z" fill="#263238" stroke="#263238" stroke-linecap="round" stroke-linejoin="round" stroke-width="1"/><path d="M386.89,238.37a121.688,121.688,0,0,0-2.62,16.22c-.37,6.47,3.2,13.16,4.65,15.93a5.167,5.167,0,0,0,6.62,2.76,22.36,22.36,0,0,0,8.8-7c2.69-3.49,4.08-11.86,4.08-11.86s-1.1.58-1.17-.36.66-4.22-.07-6.33-2.33-2.62-1.38-4.66a13.608,13.608,0,0,0,1.31-3.63c0-.37-3.64-2.55-10.26-3.13S387.25,236.55,386.89,238.37Z" fill="#ccc" stroke="#263238" stroke-linecap="round" stroke-linejoin="round" stroke-width="1"/><path d="M387.61,244.33s1.95-1.69,4.66.26" fill="none" stroke="#263238" stroke-linecap="round" stroke-linejoin="round" stroke-width="1"/><path d="M397.45,245.1s4.66-1.87,6.53,1.44" fill="none" stroke="#263238" stroke-linecap="round" stroke-linejoin="round" stroke-width="1"/><path d="M407.69,255.46s1.45-3.27,3.56-3.42,1.82,4-.14,6.7-4.8,3.78-4.88,1.81" fill="#ccc" stroke="#263238" stroke-linecap="round" stroke-linejoin="round" stroke-width="1"/><path d="M393.43,249.57s-2.4,6.91-1.89,7.86,2.47,2,4.87.87" fill="none" stroke="#263238" stroke-linecap="round" stroke-linejoin="round" stroke-width="1"/><path d="M394.38,261.57a6.58,6.58,0,0,0,6.25-1.09" fill="none" stroke="#263238" stroke-linecap="round" stroke-linejoin="round" stroke-width="1"/><path d="M391,249.82c0,.79-.28,1.42-.62,1.42s-.62-.63-.62-1.42.28-1.41.62-1.41S391,249,391,249.82Z" fill="#263238"/><ellipse cx="0.62" cy="1.42" rx="0.62" ry="1.42" transform="translate(398.89 249.35)" fill="#263238"/><path d="M393.5,249.39a4.18,4.18,0,1,1-4.18-4.18A4.18,4.18,0,0,1,393.5,249.39Z" fill="none" stroke="#263238" stroke-linecap="round" stroke-linejoin="round" stroke-width="1"/><path d="M404.35,250.29a4.4,4.4,0,1,1-1.285-3.118A4.4,4.4,0,0,1,404.35,250.29Z" fill="none" stroke="#263238" stroke-linecap="round" stroke-linejoin="round" stroke-width="1"/><path d="M393.5,248.62a1.67,1.67,0,0,1,2,.37" fill="none" stroke="#263238" stroke-linecap="round" stroke-linejoin="round" stroke-width="1"/><line x2="5.24" y2="2.19" transform="translate(404.27 250.73)" fill="none" stroke="#263238" stroke-linecap="round" stroke-linejoin="round" stroke-width="1"/><line x2="5.62" y2="2.27" transform="translate(350.68 352.17)" fill="#fff" stroke="#263238" stroke-linecap="round" stroke-linejoin="round" stroke-width="1"/><path d="M345.5,369.29s.79,4.62,1.33,4.87.73-2.25.55-3.83l-.18-1.58s.85,4.13,1.7,4.5.37-1.46.12-2.38l-.24-.91s2.13,2.25,2.31,1.7-1.28-3.28-1.34-3.46A22.494,22.494,0,0,1,349,365c-.06-.85-1.27-4.26-2.49-2.13S345.5,369.29,345.5,369.29Z" fill="#ccc" stroke="#263238" stroke-linecap="round" stroke-linejoin="round" stroke-width="1"/><path d="M349.61,355.24s-4,6.42-5.08,8.56-1.87,10.16-.93,10.7,1.19-1.42,1.41-2.77a21.072,21.072,0,0,1,1.7-4.63s-.57,5.12.23,5,1.47-4.81,2-6,3.75-2.94,4.82-8Z" fill="#ccc" stroke="#263238" stroke-linecap="round" stroke-linejoin="round" stroke-width="1"/><path d="M346.71,367.1a22.362,22.362,0,0,1,.49-3.22" fill="#fff" stroke="#263238" stroke-linecap="round" stroke-linejoin="round" stroke-width="1"/><path d="M415.93,277.3a20,20,0,0,1,6.68,8.95c2.54,6.29,11.23,33.7,11.5,34.23s0,5.88-4.28,7.62-6.28-2-8.82-6.28-8.42-23.27-8.42-23.27" fill="#8f00fc" stroke="#263238" stroke-linecap="round" stroke-linejoin="round" stroke-width="1"/><path d="M426.89,312.73l20.76-10.2,3.61,4.15S436,325.29,432.64,327.43s-7.49,1.61-9.09-2" fill="#8f00fc" stroke="#263238" stroke-linecap="round" stroke-linejoin="round" stroke-width="1"/><line x2="3.87" y2="4.68" transform="translate(445.38 304)" fill="#fff" stroke="#263238" stroke-linecap="round" stroke-linejoin="round" stroke-width="1"/><path d="M447.65,302.53s4.55-7.08,5.88-7.62,5.08-1.33,7.22-2.94,3.34-1.2,2.14.54-2.54,2-3.74,2.54a9.479,9.479,0,0,0-1.74.93s3.34.14,5.48.27a15.152,15.152,0,0,0,3.88-.27s5.48-2.4,4.14.54-1.2,4.81-6.55,6.41a38.67,38.67,0,0,1-10.69,1.48l-2.41,2.27Z" fill="#ccc" stroke="#263238" stroke-linecap="round" stroke-linejoin="round" stroke-width="1"/><path d="M468.64,300.93a5.89,5.89,0,0,0,3.61-3.74c.94-2.95.4-3.08-.8-2a14.29,14.29,0,0,0-2.81,4.15C468,300.66,468.64,300.93,468.64,300.93Z" fill="#ccc" stroke="#263238" stroke-linecap="round" stroke-linejoin="round" stroke-width="1"/><path d="M467.44,301.06s1.6,1.07,2.81-2.14,1.06-5.75,0-5.21-1.34.67-2.68,3.48-2.54,4-1.74,4.27a1.9,1.9,0,0,0,1.61-.4Z" fill="#ccc" stroke="#263238" stroke-linecap="round" stroke-linejoin="round" stroke-width="1"/><path d="M452.06,302.27s2-3.35,4.28-3.35a76.945,76.945,0,0,1,8.29,1.07s4.41-6.41,5.35-5.48-1.47,5.35-2.54,6.55-1.21,1.34-2.14,1.61" fill="#ccc" stroke="#263238" stroke-linecap="round" stroke-linejoin="round" stroke-width="1"/><line x1="6.15" y1="2.94" transform="translate(382.77 361.53)" fill="none" stroke="#7d7d7d" stroke-linecap="round" stroke-linejoin="round" stroke-width="1"/></g><text transform="translate(90 148.001)" fill="#8f00fc" font-size="8" font-family="Ubuntu-Bold, Ubuntu" font-weight="700" letter-spacing="-0.01em"><tspan x="0" y="0">LANÇAMENTO</tspan></text></g></svg>