<svg xmlns="http://www.w3.org/2000/svg" width="426.858" height="414" viewBox="0 0 426.858 414"><g transform="translate(-359.5 -1509.46)"><g transform="translate(-157.081 -6.41)"><g transform="translate(535.493 1529.552)"><path d="M542.143,1661.5s17.221-72.785,85.086-108.194,148.8-20.343,214.706-9.93,107.827,60.833,103.345,121.318-57.631,66.2-98.21,126.846-42.682,83.2-108.051,111.075-149.319-17.991-181.605-99.3S542.143,1661.5,542.143,1661.5Z" transform="translate(-537.663 -1531.104)" fill="#8f00fc"/><path d="M542.143,1661.5s17.221-72.785,85.086-108.194,148.8-20.343,214.706-9.93,107.827,60.833,103.345,121.318-57.631,66.2-98.21,126.846-42.682,83.2-108.051,111.075-149.319-17.991-181.605-99.3S542.143,1661.5,542.143,1661.5Z" transform="translate(-537.663 -1531.104)" fill="#fff" opacity="0.8" style="isolation:isolate"/></g><g transform="translate(536.968 1530.066)"><line x2="327.426" y2="305.956" transform="translate(63.284 81.625)" fill="none" stroke="#263238" stroke-linecap="round" stroke-miterlimit="10" stroke-width="1"/><path d="M645.868,1573.047a22.311,22.311,0,0,0-34.326-22.643,30.1,30.1,0,0,0-57.971,11.451v1.109a19.592,19.592,0,0,0,2.684,38.262v.206h88.656a14.2,14.2,0,0,0,.957-28.386Z" transform="translate(-539.311 -1531.679)" fill="none" stroke="#263238" stroke-miterlimit="10" stroke-width="1"/><line y1="1.342" transform="translate(174.001 129.326)" fill="none" stroke="#263238" stroke-linecap="round" stroke-linejoin="round" stroke-width="1"/><line y1="94.229" transform="translate(174.001 32.448)" fill="none" stroke="#263238" stroke-linecap="round" stroke-linejoin="round" stroke-width="1" stroke-dasharray="2.967 2.967"/><path d="M733.652,1566.312v-1.342h-1.342" transform="translate(-559.652 -1535.188)" fill="none" stroke="#263238" stroke-linecap="round" stroke-linejoin="round" stroke-width="1"/><line x1="52.773" transform="translate(117.184 29.783)" fill="none" stroke="#263238" stroke-linecap="round" stroke-linejoin="round" stroke-width="1" stroke-dasharray="3.025 3.025"/><line x1="1.342" transform="translate(114.492 29.783)" fill="none" stroke="#263238" stroke-linecap="round" stroke-linejoin="round" stroke-width="1"/><path d="M737.75,1676.291l-4.464,7.72-4.455-7.72Z" transform="translate(-559.285 -1546.92)" fill="#263238"/><path d="M747.874,1632.891H714.631v-46.171h23.564l9.68,9.6Z" transform="translate(-557.788 -1537.48)" fill="#fff" stroke="#263238" stroke-linecap="round" stroke-linejoin="round" stroke-width="1"/><path d="M740.971,1586.721v9.429h9.68Z" transform="translate(-560.564 -1537.48)" fill="#fff" stroke="#263238" stroke-linecap="round" stroke-linejoin="round" stroke-width="1"/><line x2="22.965" transform="translate(161.977 64.78)" fill="none" stroke="#263238" stroke-linecap="round" stroke-linejoin="round" stroke-width="1"/><line x2="22.965" transform="translate(161.977 71.042)" fill="none" stroke="#263238" stroke-linecap="round" stroke-linejoin="round" stroke-width="1"/><line x2="22.965" transform="translate(161.977 77.304)" fill="none" stroke="#263238" stroke-linecap="round" stroke-linejoin="round" stroke-width="1"/><line x2="22.965" transform="translate(161.977 83.566)" fill="none" stroke="#263238" stroke-linecap="round" stroke-linejoin="round" stroke-width="1"/><path d="M676.114,1582.941H642.871v-46.171h23.564l9.68,9.6Z" transform="translate(-550.225 -1532.216)" fill="#fff" stroke="#263238" stroke-linecap="round" stroke-linejoin="round" stroke-width="1"/><path d="M669.211,1536.771v9.429h9.68Z" transform="translate(-553.001 -1532.216)" fill="#fff" stroke="#263238" stroke-linecap="round" stroke-linejoin="round" stroke-width="1"/><line x2="22.965" transform="translate(97.78 20.094)" fill="none" stroke="#263238" stroke-linecap="round" stroke-linejoin="round" stroke-width="1"/><line x2="22.965" transform="translate(97.78 26.356)" fill="none" stroke="#263238" stroke-linecap="round" stroke-linejoin="round" stroke-width="1"/><line x2="22.965" transform="translate(97.78 32.618)" fill="none" stroke="#263238" stroke-linecap="round" stroke-linejoin="round" stroke-width="1"/><line x2="22.965" transform="translate(97.78 38.881)" fill="none" stroke="#263238" stroke-linecap="round" stroke-linejoin="round" stroke-width="1"/><line y1="254.838" transform="translate(43.066 88.907)" fill="none" stroke="#263238" stroke-linecap="round" stroke-linejoin="round" stroke-width="1" stroke-dasharray="3 3"/><path d="M591.38,1631.61l-4.455-7.729-4.464,7.729Z" transform="translate(-543.859 -1541.397)" fill="#263238"/><path d="M602.655,1863.061H569.421v-46.171h23.555l9.68,9.6Z" transform="translate(-542.484 -1561.738)" fill="#fff" stroke="#263238" stroke-linecap="round" stroke-linejoin="round" stroke-width="1"/><path d="M595.751,1816.891v9.429h9.68Z" transform="translate(-545.259 -1561.738)" fill="#fff" stroke="#263238" stroke-linecap="round" stroke-linejoin="round" stroke-width="1"/><line x2="22.965" transform="translate(32.071 270.691)" fill="none" stroke="#263238" stroke-linecap="round" stroke-linejoin="round" stroke-width="1"/><line x2="22.965" transform="translate(32.071 276.954)" fill="none" stroke="#263238" stroke-linecap="round" stroke-linejoin="round" stroke-width="1"/><line x2="22.965" transform="translate(32.071 283.216)" fill="none" stroke="#263238" stroke-linecap="round" stroke-linejoin="round" stroke-width="1"/><line x2="22.965" transform="translate(32.071 289.478)" fill="none" stroke="#263238" stroke-linecap="round" stroke-linejoin="round" stroke-width="1"/><path d="M602.655,1726.061H569.421v-46.171h23.555l9.68,9.6Z" transform="translate(-542.484 -1547.3)" fill="#fff" stroke="#263238" stroke-linecap="round" stroke-linejoin="round" stroke-width="1"/><path d="M595.751,1679.891v9.429h9.68Z" transform="translate(-545.259 -1547.3)" fill="#fff" stroke="#263238" stroke-linecap="round" stroke-linejoin="round" stroke-width="1"/><line x2="22.965" transform="translate(32.071 148.13)" fill="none" stroke="#263238" stroke-linecap="round" stroke-linejoin="round" stroke-width="1"/><line x2="22.965" transform="translate(32.071 154.392)" fill="none" stroke="#263238" stroke-linecap="round" stroke-linejoin="round" stroke-width="1"/><line x2="22.965" transform="translate(32.071 160.655)" fill="none" stroke="#263238" stroke-linecap="round" stroke-linejoin="round" stroke-width="1"/><line x2="22.965" transform="translate(32.071 166.917)" fill="none" stroke="#263238" stroke-linecap="round" stroke-linejoin="round" stroke-width="1"/></g><g transform="translate(788.612 1516.371)"><path d="M889.66,1524.281H823.217l-.877,9.134H889.66Z" transform="translate(-820.784 -1517.204)" fill="none" stroke="#b2b2b2" stroke-miterlimit="10" stroke-width="1"/><path d="M889.66,1534.491H823.217l-.877,9.134H889.66Z" transform="translate(-820.784 -1518.28)" fill="none" stroke="#b2b2b2" stroke-miterlimit="10" stroke-width="1"/><path d="M889.66,1544.7H823.217l-.877,9.134H889.66Z" transform="translate(-820.784 -1519.356)" fill="none" stroke="#b2b2b2" stroke-miterlimit="10" stroke-width="1"/><path d="M889.66,1554.911H823.217l-.877,9.134H889.66Z" transform="translate(-820.784 -1520.432)" fill="none" stroke="#b2b2b2" stroke-miterlimit="10" stroke-width="1"/><path d="M889.66,1565.121H823.217l-.877,9.134H889.66Z" transform="translate(-820.784 -1521.508)" fill="none" stroke="#b2b2b2" stroke-miterlimit="10" stroke-width="1"/><path d="M889.66,1575.331H823.217l-.877,9.134H889.66Z" transform="translate(-820.784 -1522.584)" fill="none" stroke="#b2b2b2" stroke-miterlimit="10" stroke-width="1"/><path d="M889.66,1585.541H823.217l-.877,9.134H889.66Z" transform="translate(-820.784 -1523.661)" fill="none" stroke="#b2b2b2" stroke-miterlimit="10" stroke-width="1"/><path d="M889.66,1595.751H823.217l-.877,9.134H889.66Z" transform="translate(-820.784 -1524.737)" fill="none" stroke="#b2b2b2" stroke-miterlimit="10" stroke-width="1"/><path d="M889.66,1605.961H823.217l-.877,9.134H889.66Z" transform="translate(-820.784 -1525.813)" fill="none" stroke="#b2b2b2" stroke-miterlimit="10" stroke-width="1"/><path d="M889.66,1616.171H823.217l-.877,9.134H889.66Z" transform="translate(-820.784 -1526.889)" fill="none" stroke="#b2b2b2" stroke-miterlimit="10" stroke-width="1"/><path d="M889.66,1626.381H823.217l-.877,9.134H889.66Z" transform="translate(-820.784 -1527.965)" fill="none" stroke="#b2b2b2" stroke-miterlimit="10" stroke-width="1"/><path d="M889.66,1636.591H823.217l-.877,9.134H889.66Z" transform="translate(-820.784 -1529.041)" fill="none" stroke="#b2b2b2" stroke-miterlimit="10" stroke-width="1"/><path d="M889.66,1646.8H823.217l-.877,9.143H889.66Z" transform="translate(-820.784 -1530.117)" fill="none" stroke="#b2b2b2" stroke-miterlimit="10" stroke-width="1"/><path d="M889.66,1657.021H823.217l-.877,9.134H889.66Z" transform="translate(-820.784 -1531.194)" fill="none" stroke="#b2b2b2" stroke-miterlimit="10" stroke-width="1"/><path d="M889.66,1667.231H823.217l-.877,9.134H889.66Z" transform="translate(-820.784 -1532.27)" fill="none" stroke="#b2b2b2" stroke-miterlimit="10" stroke-width="1"/><path d="M966.009,1524.281H899.566l-.886,9.134h67.328Z" transform="translate(-828.83 -1517.204)" fill="none" stroke="#b2b2b2" stroke-miterlimit="10" stroke-width="1"/><path d="M966.009,1534.491H899.566l-.886,9.134h67.328Z" transform="translate(-828.83 -1518.28)" fill="none" stroke="#b2b2b2" stroke-miterlimit="10" stroke-width="1"/><path d="M966.009,1544.7H899.566l-.886,9.134h67.328Z" transform="translate(-828.83 -1519.356)" fill="none" stroke="#b2b2b2" stroke-miterlimit="10" stroke-width="1"/><path d="M966.009,1554.911H899.566l-.886,9.134h67.328Z" transform="translate(-828.83 -1520.432)" fill="none" stroke="#b2b2b2" stroke-miterlimit="10" stroke-width="1"/><path d="M966.009,1565.121H899.566l-.886,9.134h67.328Z" transform="translate(-828.83 -1521.508)" fill="none" stroke="#b2b2b2" stroke-miterlimit="10" stroke-width="1"/><path d="M966.009,1575.331H899.566l-.886,9.134h67.328Z" transform="translate(-828.83 -1522.584)" fill="none" stroke="#b2b2b2" stroke-miterlimit="10" stroke-width="1"/><path d="M966.009,1585.541H899.566l-.886,9.134h67.328Z" transform="translate(-828.83 -1523.661)" fill="none" stroke="#b2b2b2" stroke-miterlimit="10" stroke-width="1"/><path d="M966.009,1595.751H899.566l-.886,9.134h67.328Z" transform="translate(-828.83 -1524.737)" fill="none" stroke="#b2b2b2" stroke-miterlimit="10" stroke-width="1"/><path d="M966.009,1605.961H899.566l-.886,9.134h67.328Z" transform="translate(-828.83 -1525.813)" fill="none" stroke="#b2b2b2" stroke-miterlimit="10" stroke-width="1"/><path d="M966.009,1616.171H899.566l-.886,9.134h67.328Z" transform="translate(-828.83 -1526.889)" fill="none" stroke="#b2b2b2" stroke-miterlimit="10" stroke-width="1"/><path d="M966.009,1626.381H899.566l-.886,9.134h67.328Z" transform="translate(-828.83 -1527.965)" fill="none" stroke="#b2b2b2" stroke-miterlimit="10" stroke-width="1"/><path d="M966.009,1636.591H899.566l-.886,9.134h67.328Z" transform="translate(-828.83 -1529.041)" fill="none" stroke="#b2b2b2" stroke-miterlimit="10" stroke-width="1"/><path d="M966.009,1646.8H899.566l-.886,9.143h67.328Z" transform="translate(-828.83 -1530.117)" fill="none" stroke="#b2b2b2" stroke-miterlimit="10" stroke-width="1"/><path d="M966.009,1657.021H899.566l-.886,9.134h67.328Z" transform="translate(-828.83 -1531.194)" fill="none" stroke="#b2b2b2" stroke-miterlimit="10" stroke-width="1"/><path d="M966.009,1667.231H899.566l-.886,9.134h67.328Z" transform="translate(-828.83 -1532.27)" fill="none" stroke="#b2b2b2" stroke-miterlimit="10" stroke-width="1"/><rect width="140.498" height="6.888" transform="translate(0)" fill="none" stroke="#b2b2b2" stroke-miterlimit="10" stroke-width="1"/><line y2="121.363" transform="translate(140.507 6.889)" fill="none" stroke="#b2b2b2" stroke-miterlimit="10" stroke-width="1"/><line y2="83.261" transform="translate(138.968 7.085)" fill="none" stroke="#b2b2b2" stroke-miterlimit="10" stroke-width="1"/><rect width="1.888" height="3.095" transform="translate(139.613 127.983)" fill="#263238" stroke="#b2b2b2" stroke-miterlimit="10" stroke-width="1"/><rect width="1.888" height="3.095" transform="translate(137.904 89.684)" fill="#263238" stroke="#b2b2b2" stroke-miterlimit="10" stroke-width="1"/></g><g transform="translate(660.406 1561.267)"><path d="M791.732,1657.011s-23.94,9.089-27.608,12.444-24.843,71.524-24.843,71.524h147.61s-10.941-45.786-13.625-61.245-14.546-18.787-20.576-20S791.732,1657.011,791.732,1657.011Z" transform="translate(-683.824 -1576.089)" fill="#263238" stroke="#263238" stroke-linecap="round" stroke-linejoin="round" stroke-width="1"/><path d="M842.6,1670.728l-3.167,71.014h25.595l-10.288-77.231Z" transform="translate(-694.379 -1576.879)" fill="#8f00fc"/><path d="M799.806,1649.224s-3.954,5.806-3.167,7.658,9.769,15.834,18.742,17.418,20.317-3.435,26.391-7.157,13.983-6.593,15.3-7.39-3.426-7.157-5.538-8.177-4.75-2.684-4.75-2.684-2.9-3.695-3.426-4.473-.8-2.111-1.583-3.167a3.524,3.524,0,0,0-2.639-1.583c-1.324-.26-3.167,6.334-11.084,7.658s-27.187,2.111-27.187,2.111Z" transform="translate(-689.858 -1574.261)" fill="#8f00fc"/><path d="M827.631,1674.867s15.307-7.658,17.15-13.723,1.852-16.1,1.852-16.1" transform="translate(-693.135 -1574.828)" fill="none" stroke="#263238" stroke-linecap="round" stroke-linejoin="round" stroke-width="1"/><path d="M840.611,1668.794s6.593-2.9,8.7-6.862,2.111-11.871,2.111-11.871" transform="translate(-694.503 -1575.357)" fill="none" stroke="#263238" stroke-linecap="round" stroke-linejoin="round" stroke-width="1"/><path d="M790.7,1611.572c-.286,1.073,5.9,31.723,10.324,39.47s13.643,12.167,19.18,9.59c6.405-3,13.464-8.875,16.523-15.4.564-1.208,3.686-14.26,3.024-14.484,0,0,4.428,1.476,6.262-6.638s3.319-12.909,1.109-17.338-14.743-14.752-26.185-12.882S792.543,1604.567,790.7,1611.572Z" transform="translate(-689.242 -1569.413)" fill="#fff" stroke="#263238" stroke-linecap="round" stroke-linejoin="round" stroke-width="1"/><path d="M818.87,1599.088s-16.228,12.525-27.294,13.652-11.057-4.026-11.057-4.026-14.385,4.061-12.909-7,23.645-19.923,23.645-19.923-7.747-2.21-4.062-6.262,17.7-8.49,26.928-7.38,13.276,3.319,13.276,3.319-2.585-6.638,2.952-4.473,10.279,12.954,10.279,12.954,9.59.743,10.333,3.319-5.538,3.3-5.538,3.3,5.9,11.066,2.952,17.338-9.223,8.114-9.59,9.223,1.109,5.162-1.843,3.686-4.061-7.747-4.061-7.747-4.419-4.419-4.8-6.262-.734-4.053-.734-4.053-2.585,7.747-8.481,8.848S818.87,1599.088,818.87,1599.088Z" transform="translate(-686.798 -1566.556)" fill="#263238" stroke="#263238" stroke-linecap="round" stroke-linejoin="round" stroke-width="1"/><path d="M809.517,1632.651s-7.372,16.228-3.319,16.595,7.747-4.062,7.747-4.062" transform="translate(-690.748 -1573.522)" fill="#fff" stroke="#263238" stroke-linecap="round" stroke-linejoin="round" stroke-width="1"/><path d="M810.491,1653.873s4.8,5.162,13.643-1.852" transform="translate(-691.329 -1575.563)" fill="none" stroke="#263238" stroke-linecap="round" stroke-linejoin="round" stroke-width="1"/><path d="M821.291,1636.271s.895,3.337,7.577,2.729" transform="translate(-692.467 -1573.903)" fill="none" stroke="#263238" stroke-linecap="round" stroke-linejoin="round" stroke-width="1"/><path d="M805.166,1635.591s-2.12,2.729-4.545,2.729" transform="translate(-690.289 -1573.832)" fill="none" stroke="#263238" stroke-linecap="round" stroke-linejoin="round" stroke-width="1"/><path d="M835,1626.91s-17.1-.367-18.939.376-2.21,5.162-1.109,8.114,3.695,7,10.333,7,9.957-3.319,12.167-9.59S835,1626.91,835,1626.91Z" transform="translate(-691.733 -1572.907)" fill="none" stroke="#263238" stroke-linecap="round" stroke-linejoin="round" stroke-width="1"/><path d="M790,1626.91s13.16-.367,14.582.376,1.7,5.162.895,8.114-2.845,7-7.953,7-7.667-3.319-9.367-9.59S790,1626.91,790,1626.91Z" transform="translate(-688.926 -1572.907)" fill="none" stroke="#263238" stroke-linecap="round" stroke-linejoin="round" stroke-width="1"/><line y1="7.425" x2="5.618" transform="translate(146.519 48.662)" fill="none" stroke="#263238" stroke-linecap="round" stroke-linejoin="round" stroke-width="1"/><line x1="8.758" transform="translate(115.565 54.334)" fill="none" stroke="#263238" stroke-linecap="round" stroke-linejoin="round" stroke-width="1"/><line x1="5.43" transform="translate(116.648 57.894)" fill="none" stroke="#263238" stroke-linecap="round" stroke-linejoin="round" stroke-width="1"/><line y1="2.711" x2="4.169" transform="translate(99.087 53.01)" fill="none" stroke="#263238" stroke-linecap="round" stroke-linejoin="round" stroke-width="1"/><path d="M825.518,1633.986c0,1.378-.653,2.5-1.458,2.5s-1.449-1.127-1.449-2.5.653-2.505,1.449-2.505S825.518,1632.6,825.518,1633.986Z" transform="translate(-692.606 -1573.398)" fill="#263238"/><path d="M803.979,1632.806c0,1.387-.644,2.505-1.449,2.505s-1.449-1.118-1.449-2.505.653-2.5,1.449-2.5S803.979,1631.419,803.979,1632.806Z" transform="translate(-690.337 -1573.274)" fill="#263238"/><path d="M796.651,1623.379s5.278-2.111,7.917-.528" transform="translate(-689.87 -1572.427)" fill="none" stroke="#263238" stroke-linecap="round" stroke-linejoin="round" stroke-width="2"/><path d="M819.051,1623.152a14.659,14.659,0,0,1,10.825,1.056" transform="translate(-692.231 -1572.459)" fill="none" stroke="#263238" stroke-linecap="round" stroke-linejoin="round" stroke-width="2"/><path d="M721.945,1740.68a16.424,16.424,0,0,0-13.339-1.789c-7.273,2.12-10.905,8.49-10.905,10.61h30.6A13.285,13.285,0,0,0,721.945,1740.68Z" transform="translate(-679.442 -1584.647)" fill="gray" stroke="#263238" stroke-linecap="round" stroke-linejoin="round" stroke-width="1"/><path d="M703.242,1732.841s-3.936,5.761-3.936,7.881-2.12,4.24.895,5.153,4.849-9.7,4.849-10.905S703.242,1732.841,703.242,1732.841Z" transform="translate(-679.534 -1584.081)" fill="#fff" stroke="#263238" stroke-linecap="round" stroke-linejoin="round" stroke-width="1"/><path d="M708.888,1732.463s-4.24-.895-5.457.3-3.328,11.827-3.024,13.034,3.328,1.512,4.24.3S708.888,1732.463,708.888,1732.463Z" transform="translate(-679.724 -1584.007)" fill="#fff" stroke="#263238" stroke-linecap="round" stroke-linejoin="round" stroke-width="1"/><path d="M727.435,1737.112s-12.73-4.554-15.459-6.37-4.24,1.789-5.153,3.945-3.033,9.7-3.033,11.818,3.337,3.024,3.945.6,5.457-10.3,5.457-10.3l6.361,2.424s.608.895-2.12,2.729-6.665,5.752-5.457,6.361,4.849.3,6.065-.895,7.568-2.729,7.568-2.729,5.761,3.641,6.978,3.945,8.785-1.217,8.785-1.217-8.49-7.273-9.7-8.177A25.964,25.964,0,0,0,727.435,1737.112Z" transform="translate(-680.083 -1583.808)" fill="#fff" stroke="#263238" stroke-linecap="round" stroke-linejoin="round" stroke-width="1"/><path d="M856.8,1732.6H850.44c-2.729,0-8.186-1.789-8.49,1.208s6.065,4.849,9.089,4.849,4.849-1.208,8.49.608,5.761,3.033,5.761,3.033l-4.249-6.674Z" transform="translate(-694.643 -1584)" fill="#fff" stroke="#263238" stroke-linecap="round" stroke-linejoin="round" stroke-width="1"/><path d="M882.562,1747.522s-5.761-12.426-8.49-16.362-18.787-6.969-20.576-6.969-6.37,10-5.761,12.426,1.789-.3,2.684-1.789,4.24-5.752,4.24-5.752,5.153,8.481,7.273,13.026,6.37,5.153,8.794,5.761S882.562,1747.522,882.562,1747.522Z" transform="translate(-695.248 -1583.169)" fill="#fff" stroke="#263238" stroke-linecap="round" stroke-linejoin="round" stroke-width="1"/><path d="M868.008,1729.155s-5.761-7.577-8.794-6.37-7.873,15.763-8.481,17.579,3.033.608,3.632-.895,6.065-9.393,6.065-9.393l4.849,3.033" transform="translate(-695.563 -1583.007)" fill="#fff" stroke="#263238" stroke-linecap="round" stroke-linejoin="round" stroke-width="1"/><path d="M872.832,1729.379s-6.056-5.153-8.186-4.554-9.7,15.459-8.481,16.1,3.632-.608,4.849-2.424,3.632-6.065,3.632-6.065l4.554,3.337" transform="translate(-696.129 -1583.231)" fill="#fff" stroke="#263238" stroke-linecap="round" stroke-linejoin="round" stroke-width="1"/><path d="M876.62,1733.974s-2.961-5.967-5.081-5.055-9.393,12.122-7.273,12.122,8.49-6.665,8.49-6.665-.608,5.153,0,7.873" transform="translate(-696.956 -1583.658)" fill="#fff" stroke="#263238" stroke-linecap="round" stroke-linejoin="round" stroke-width="1"/><rect width="79.522" height="2.46" transform="translate(91.644 162.402)" fill="gray" stroke="#263238" stroke-linecap="round" stroke-linejoin="round" stroke-width="1"/><path d="M714.841,1690.271h79.871l16.183,54.186H731.024Z" transform="translate(-681.248 -1579.594)" fill="gray" stroke="#263238" stroke-linecap="round" stroke-linejoin="round" stroke-width="1"/><line x2="282.186" transform="translate(0 164.863)" fill="none" stroke="#263238" stroke-linecap="round" stroke-linejoin="round" stroke-width="1"/></g><g transform="translate(848.825 1630.308)"><path d="M916.7,1718.331s1.315,13.983.528,18.474-2.907,5.01-3.435,7.157,3.435,1.852,5.806,1.583,5.01-11.63,7.917-25.595" transform="translate(-890.631 -1651.593)" fill="#fff" stroke="#263238" stroke-linecap="round" stroke-linejoin="round" stroke-width="1"/><path d="M939.85,1746.791s-6.012.707-6.191,2.3,1.056,2.827,5.654,3.006,16.443-.349,18.393-1.413-4.419-2.684-8.311-3.185S939.85,1746.791,939.85,1746.791Z" transform="translate(-892.727 -1654.593)" fill="#fff" stroke="#263238" stroke-linecap="round" stroke-linejoin="round" stroke-width="1"/><path d="M911.48,1684.241s-6.334,4.75-6.862,15.575,8.436,18.993,12.909,20.844,10.028,3.695,11.63,5.01,1.986,8.946,4.223,12.408c3.408,5.251,12.668,7.389,24.28,6.065s11.836-14.081,12.927-22.7c1.288-10.172-4.75-27.169-12.14-31.642s-19.261-3.167-22.956-3.963a15.2,15.2,0,0,1-6.6-3.695A15.253,15.253,0,0,0,911.48,1684.241Z" transform="translate(-889.666 -1647.589)" fill="#fff" stroke="#263238" stroke-linecap="round" stroke-linejoin="round" stroke-width="1"/><path d="M931.88,1681.537c.975,3.131-2.979,7.157-8.821,8.946s-11.37.751-12.346-2.38,2.97-7.157,8.821-8.946S930.9,1678.388,931.88,1681.537Z" transform="translate(-890.295 -1647.372)" fill="#8f00fc"/><path d="M921.216,1695.38a3.149,3.149,0,1,1-3.942-2.075h.005A3.158,3.158,0,0,1,921.216,1695.38Z" transform="translate(-890.769 -1648.941)" fill="#263238" stroke="#263238" stroke-linecap="round" stroke-linejoin="round" stroke-width="1"/><path d="M924.692,1716.561s0,13.2-.528,18.733-1.583,6.862-3.167,7.917-1.852,2.907.528,3.695,5.538-.259,6.325-1.315,6.074-15.047,9.769-26.919" transform="translate(-891.266 -1651.406)" fill="#fff" stroke="#263238" stroke-linecap="round" stroke-linejoin="round" stroke-width="1"/><path d="M968.472,1739.081s7.076,4.392,4.965,10.467-25.335,7.389-42.753,7.389-35.623-1.324-34-7.157,14.251-1.843,26.65-1.056,39,1.011,41.438-2.371A32.837,32.837,0,0,0,968.472,1739.081Z" transform="translate(-888.822 -1653.78)" fill="#fff" stroke="#263238" stroke-linecap="round" stroke-linejoin="round" stroke-width="1"/><path d="M887.911,1659.094a42.543,42.543,0,0,0,3.874,5.976,14.382,14.382,0,0,0,2.925,2.854s3.444-5.609,2.245-7.98S887.911,1659.094,887.911,1659.094Z" transform="translate(-887.908 -1645.3)" fill="#fff" stroke="#263238" stroke-linecap="round" stroke-linejoin="round" stroke-width="1"/><path d="M929.843,1643.731a16.628,16.628,0,0,1,1.145,6.1c0,3.578-.76,5.01-.76,5.01l-6.736-3.024S927.767,1644.652,929.843,1643.731Z" transform="translate(-891.657 -1643.731)" fill="#fff" stroke="#263238" stroke-linecap="round" stroke-linejoin="round" stroke-width="1"/><path d="M895.774,1660.344s-4.58,9.1-1.315,14.913,10.735,7.837,13.983,8.23,8.678,1.736,13.544-2.746,5.529-4.777,5.529-4.777,7.049-7.318,5.806-15.208-11.684-9.7-11.684-9.7l4.473-7.327s-6.361,2.183-8.391,3.578a41.989,41.989,0,0,1-3.927,2.317,22.978,22.978,0,0,0-8.123,1.378,48.033,48.033,0,0,0-8.123,4.768s-10.163.7-9.617,1.789S895.774,1660.344,895.774,1660.344Z" transform="translate(-887.907 -1643.731)" fill="#fff" stroke="#263238" stroke-linecap="round" stroke-linejoin="round" stroke-width="1"/><path d="M911.733,1677.47a7.336,7.336,0,0,0,3.838-.689c1.888-.957,1.118-2.031-.054-2.12a6.921,6.921,0,0,0-3.578,1.136C911.062,1676.343,910.83,1676.79,911.733,1677.47Z" transform="translate(-890.358 -1646.991)" fill="#fff" stroke="#263238" stroke-linecap="round" stroke-linejoin="round" stroke-width="1"/><path d="M911.662,1672.379s-3.578,1-3.874,3.078,2.049,3.471,3.489,2.3a5.133,5.133,0,0,0,1.745-2.63s3.659,2.049,5.242.689,2.067-3.283.662-4.267S911.662,1672.379,911.662,1672.379Z" transform="translate(-890 -1646.632)" fill="#fff" stroke="#263238" stroke-linecap="round" stroke-linejoin="round" stroke-width="1"/><path d="M914.757,1671.741s-2.979.6-3.292,1.091.895,2.487,2.04,2.031a3.116,3.116,0,0,0,1.619-2.174A.9.9,0,0,0,914.757,1671.741Z" transform="translate(-890.385 -1646.683)" fill="#263238" stroke="#263238" stroke-linecap="round" stroke-linejoin="round" stroke-width="1"/><path d="M906.089,1668.64c.68,1.351.662,2.738-.054,3.087s-1.789-.447-2.5-1.789-.662-2.738,0-3.086S905.409,1667.29,906.089,1668.64Z" transform="translate(-889.499 -1646.159)" fill="#263238"/><path d="M918.183,1665.086c.608,1.386.51,2.764-.215,3.086s-1.789-.555-2.415-1.941-.51-2.764.215-3.077S917.575,1663.7,918.183,1665.086Z" transform="translate(-890.778 -1645.771)" fill="#263238"/></g><g transform="translate(768.081 1856.814)"><path d="M828.743,1967.9a18.346,18.346,0,0,1-6.477-1.539,2.244,2.244,0,0,1,1.789-4.115c2.067.895,4.715,1.414,5.43,1.109,1.3-1.458,3.31-10.315.716-14.537a2.065,2.065,0,0,0-1.485-1.163c-1.476-.2-3.659,1.315-4.428,2.04a2.238,2.238,0,1,1-3.051-3.274c.411-.385,4.124-3.74,8.051-3.2a6.479,6.479,0,0,1,4.7,3.256c3.82,6.209,1.2,18.044-1.727,20.388A5.581,5.581,0,0,1,828.743,1967.9Z" transform="translate(-800.061 -1901.794)" fill="#263238" stroke="#263238" stroke-linecap="round" stroke-linejoin="round" stroke-width="1"/><rect width="24.718" height="32.805" transform="translate(0 39.586)" fill="#263238" stroke="#263238" stroke-linecap="round" stroke-linejoin="round" stroke-width="1"/><path d="M800.161,1934.709s0-2.729,5-5.457,7.747-6.835,5.01-14.573-2.272-13.2,3.194-17.758" transform="translate(-797.915 -1896.921)" fill="none" stroke="#263238" stroke-linecap="round" stroke-linejoin="round" stroke-width="1"/><path d="M801.431,1905.59a12.08,12.08,0,0,1,4.777-8.669" transform="translate(-798.049 -1896.921)" fill="none" stroke="#263238" stroke-linecap="round" stroke-linejoin="round" stroke-width="1"/><path d="M803.069,1916.274a33.142,33.142,0,0,1-1.208-4.223" transform="translate(-798.094 -1898.516)" fill="none" stroke="#263238" stroke-linecap="round" stroke-linejoin="round" stroke-width="1"/><path d="M822.753,1919.289a21.448,21.448,0,0,0-.76-2.684c-.143-.42-.286-.832-.412-1.235" transform="translate(-800.173 -1898.865)" fill="none" stroke="#263238" stroke-linecap="round" stroke-linejoin="round" stroke-width="1"/><path d="M810.841,1937.6s0-2.729,5.01-5.457c3.292-1.789,5.591-4.178,6.021-7.783" transform="translate(-799.041 -1899.813)" fill="none" stroke="#263238" stroke-linecap="round" stroke-linejoin="round" stroke-width="1"/></g><g transform="translate(819.968 1859.739)"><path d="M870.743,1930.366a21.085,21.085,0,0,0-5.788-5.028c-3.015-1.5-9.3-2.773-9.3-2.773s5.529-1.252,9.841-.25,7.3,5.287,7.3,5.287-1.261-1.789-3.024-7.05-1.789-16.595-1.789-16.595a35.8,35.8,0,0,1,6.262,10.565,52.541,52.541,0,0,1,2.514,10.816s-.5-8.8,1.011-13.831,5.779-11.317,5.779-11.317.25,11.057-1.5,17.1-2.523,8.8-2.523,8.8a21.693,21.693,0,0,1,5.287-8.3c3.766-3.516,12.82-6.54,12.82-6.54s-4.276,7.8-7.041,10.315-5.529,5.278-5.529,5.278a14.6,14.6,0,0,1,8.293-2.263c5.287,0,11.567,3.525,11.567,3.525s-18.348-.25-21.873,2.764Z" transform="translate(-855.651 -1900.191)" fill="#8f00fc"/><line x1="3.095" y1="2.138" transform="translate(15.405 26.677)" fill="none" stroke="#263238" stroke-linecap="round" stroke-linejoin="round" stroke-width="1"/><line x1="4.285" y1="11.442" transform="translate(17.552 19.046)" fill="none" stroke="#263238" stroke-linecap="round" stroke-linejoin="round" stroke-width="1"/><line y1="16.684" x2="2.863" transform="translate(21.363 15.235)" fill="none" stroke="#263238" stroke-linecap="round" stroke-linejoin="round" stroke-width="1"/><line y1="10.011" x2="8.105" transform="translate(21.837 20.477)" fill="none" stroke="#263238" stroke-linecap="round" stroke-linejoin="round" stroke-width="1"/><line y1="3.024" x2="11.836" transform="translate(20.254 26.435)" fill="none" stroke="#263238" stroke-linecap="round" stroke-linejoin="round" stroke-width="1"/><path d="M892.934,1973.093H867.841l-1.136-9.116a85.341,85.341,0,0,1-.116-20.048l1.252-11.138h25.138l1.235,10.9a84.808,84.808,0,0,1-.089,20.03Z" transform="translate(-856.747 -1903.627)" fill="#263238"/><path d="M894.8,1955.97l-3.766-22.884L886,1972.565l-8.794-39.479-5.287,39.989L868,1932.791" transform="translate(-856.953 -1903.627)" fill="#263238" stroke="#fff" stroke-linecap="round" stroke-linejoin="round" stroke-width="1"/><path d="M892.934,1973.093H867.841l-1.136-9.116a85.341,85.341,0,0,1-.116-20.048l1.252-11.138h25.138l1.235,10.9a84.808,84.808,0,0,1-.089,20.03Z" transform="translate(-856.747 -1903.627)" fill="none" stroke="#263238" stroke-miterlimit="10" stroke-width="1"/></g><g transform="translate(592.165 1708.756)"><circle cx="32.653" cy="32.653" r="32.653" fill="none" stroke="#b2b2b2" stroke-miterlimit="10" stroke-width="1"/><circle cx="26.123" cy="26.123" r="26.123" transform="translate(6.531 6.531)" fill="none" stroke="#b2b2b2" stroke-miterlimit="10" stroke-width="1"/><path d="M632.961,1767.443a4.07,4.07,0,1,0,4.079-4.062h-.009A4.07,4.07,0,0,0,632.961,1767.443Z" transform="translate(-604.378 -1734.789)" fill="none" stroke="#b2b2b2" stroke-miterlimit="10" stroke-width="1"/><line y2="15.396" transform="translate(32.653 36.715)" fill="none" stroke="#b2b2b2" stroke-miterlimit="10" stroke-width="1"/><line x2="9.563" transform="translate(36.715 32.653)" fill="none" stroke="#b2b2b2" stroke-miterlimit="10" stroke-width="1"/></g><g transform="translate(517.081 1732.794)"><line x1="380.182" transform="translate(0 196.411)" fill="none" stroke="#263238" stroke-linecap="round" stroke-linejoin="round" stroke-width="1"/><path d="M703.86,1848.921s-2.389,16.371,0,19.449,7.846,5.457,15.691,7.846,12.963-2.738,20.46,5.8,13.652,30.354,17.74,37.18,8.875,17.4,9.939,25.282-2.389,12.274-9.215,13.3-18.787-15.691-20.12-18.08-7.89-10.261-7.89-10.261-3.757,27.634-3.757,28.994.34,5.8.34,5.8H628.811s7.506-40.928,9.545-55.26,1.029-23.877,9.214-28.994,15.691-3.748,21.149-5.457,8.866-3.068,9.214-6.137.34-17.4.34-17.4Z" transform="translate(-528.856 -1767.842)" fill="#8f00fc"/><path d="M627.478,1959.8l-44.927,11.827,3.552,4.33h51.234" transform="translate(-523.981 -1779.528)" fill="#8f00fc"/><path d="M573.295,1967.68a16.4,16.4,0,0,0-13.33-1.789c-7.273,2.12-10.914,8.49-10.914,10.61h30.613A13.276,13.276,0,0,0,573.295,1967.68Z" transform="translate(-520.45 -1780.098)" fill="gray" stroke="#263238" stroke-linecap="round" stroke-linejoin="round" stroke-width="1"/><path d="M554.6,1959.841s-3.945,5.761-3.945,7.882-2.12,4.24.895,5.153,4.849-9.7,4.849-10.905S554.6,1959.841,554.6,1959.841Z" transform="translate(-520.543 -1779.532)" fill="#fff" stroke="#263238" stroke-linecap="round" stroke-linejoin="round" stroke-width="1"/><path d="M560.247,1959.473s-4.249-.895-5.457.3-3.337,11.827-3.033,13.035,3.337,1.512,4.24.3S560.247,1959.473,560.247,1959.473Z" transform="translate(-520.732 -1779.459)" fill="#fff" stroke="#263238" stroke-linecap="round" stroke-linejoin="round" stroke-width="1"/><path d="M591.526,1968.406l-7.157-.814a11.966,11.966,0,0,0-1.324-1.351,25.659,25.659,0,0,0-4.258-2.129s-12.73-4.553-15.459-6.37-4.24,1.789-5.144,3.945-3.033,9.7-3.033,11.818,3.328,3.024,3.936.6,5.457-10.3,5.457-10.3l6.361,2.424s.608.895-2.12,2.729-6.665,5.752-5.457,6.361,4.849.3,6.065-.895,7.577-2.684,7.577-2.684,5.761,3.641,6.969,3.945a14.1,14.1,0,0,0,2.362.143h7.39A7.794,7.794,0,0,0,591.526,1968.406Z" transform="translate(-521.093 -1779.259)" fill="#fff" stroke="#263238" stroke-linecap="round" stroke-linejoin="round" stroke-width="1"/><path d="M571.261,1969.317s2.684-3.059,4.858-3.426" transform="translate(-522.791 -1780.17)" fill="none" stroke="#263238" stroke-linecap="round" stroke-linejoin="round" stroke-width="1"/><path d="M767.193,1942.031a87.5,87.5,0,0,1,9.51,3.713c4.41,2.084,6.039,7.157,5.368,13.464s-5.108,11.147-11.63,9.286-9.984-7.157-10.216-11.379S758.1,1943.418,767.193,1942.031Z" transform="translate(-542.672 -1777.655)" fill="#fff" stroke="#263238" stroke-linecap="round" stroke-linejoin="round" stroke-width="1"/><path d="M687.279,1896.035c-15.351-.546-25.308-10-31.258-18.662,5.985-2,11.379-1.521,15.566-2.827,5.457-1.709,8.866-3.068,9.214-6.137s.34-17.4.34-17.4l25.586-2.049s-2.389,16.371,0,19.449,7.846,5.457,15.691,7.846c3.435,1.038,6.343.644,9.17.591C726.981,1881.874,711.165,1896.885,687.279,1896.035Z" transform="translate(-531.724 -1767.846)" fill="#fff" stroke="#263238" stroke-linecap="round" stroke-linejoin="round" stroke-width="1"/><path d="M684.051,1861.262a35.3,35.3,0,0,0,6.352,4.876c4.1,2.308,11.111.26,13.16-2.3,1-1.252,3.068-3.721,5.278-6.692.313-4.321.895-8.186.895-8.186l-25.586,2.049S684.1,1856.386,684.051,1861.262Z" transform="translate(-534.678 -1767.846)" fill="#263238" stroke="#263238" stroke-linecap="round" stroke-linejoin="round" stroke-width="1"/><path d="M763.541,1908.168s-13.929,18.339-15.325,26.006-5.806,26.212-5.806,26.212-13.464,5.806-22.052,6.039-23.448-1.163-23.448-1.163,9.519-24.557,13.231-36.894a139.115,139.115,0,0,0,4.643-19.27s21.131,2.782,33.2,0l18.107-4.178Z" transform="translate(-536.033 -1773.744)" fill="#fff" stroke="#263238" stroke-linecap="round" stroke-linejoin="round" stroke-width="1"/><path d="M767.345,1948.7s-1.7-21.471-3.748-22.168-14.314-2.389-17.74-1.709-4.473,2.049-1.7,2.729,7.5,1.369,9.545,1.709a61.16,61.16,0,0,1,6.826,2.049s-7.506,1.02-10.574,1.02-10.234,3.069-10.574,4.473a3.208,3.208,0,0,0,.34,2.389,3.922,3.922,0,0,0,.054,2.138c.34,1.369,8.472.689,10.521,1.029s6.137,1.324,6.137,1.324-11.934-.68-11.934,1.709,5.108,2.04,7.157,2.04a13.755,13.755,0,0,1,6.826,2.729c1.02,1.029.68,6.379,3.748,7.407a16.3,16.3,0,0,0,4.1,1.02" transform="translate(-540.499 -1775.825)" fill="#fff" stroke="#263238" stroke-linecap="round" stroke-linejoin="round" stroke-width="1"/><path d="M739.771,1940.711s13.643-3.077,20.469.34" transform="translate(-540.55 -1777.382)" fill="none" stroke="#263238" stroke-linecap="round" stroke-linejoin="round" stroke-width="1"/><path d="M656.514,1920.271s-5.457,19.1-4.428,25.944,4.088,14.663,4.428,15.691-1.2,9.116-1.2,9.116" transform="translate(-531.295 -1775.362)" fill="none" stroke="#263238" stroke-linecap="round" stroke-linejoin="round" stroke-width="1"/><path d="M643.953,1797.448c3.068-3.069,0-4.777.34-8.186s3.748-5.117,5.457-5.8,1.02-2.388,1.369-6.146,4.428-5.117,7.157-6.137,1.029-2.684,2.389-5.457,8.875-2.049,8.875-2.049,1.7-3.069,3.748-3.069,3.408,2.729,6.137.34,5.117-3.408,8.875-2.049a27.2,27.2,0,0,0,3.73,1.181,26.958,26.958,0,0,0,3.74-1.181c3.748-1.36,6.137-.34,8.866,2.049s4.1-.34,6.146-.34,3.748,3.069,3.748,3.069,7.506-.68,8.875,2.049-.349,4.428,2.38,5.457,6.826,2.388,7.157,6.137-.34,5.457,1.369,6.146,5.117,2.38,5.457,5.8-2.684,5.117.34,8.186,6.137,5.457,3.408,7.506-5.457,2.729-5.117,5.8,3.757,6.826,1.029,8.526-5.457,1.709-5.457,4.777,1.02,7.506-2.049,8.186-7.506,0-7.506,2.049-.34,5.8-5.117,5.117-6.477-2.049-7.506.68-3.409,4.473-6.137,4.1-6.486-.68-8.875,1.36a8.285,8.285,0,0,1-4.061,1.682v.116h-1.4v-.116a8.345,8.345,0,0,1-4.062-1.682c-2.389-2.04-6.137-1.7-8.866-1.36a5.838,5.838,0,0,1-6.137-4.1c-1.02-2.729-2.729-1.36-7.506-.68s-5.117-3.069-5.117-5.117-4.473-1.36-7.506-2.049-2.049-5.117-2.049-8.186-2.684-3.068-5.457-4.777.68-5.457,1.02-8.526-2.389-3.749-5.117-5.8S640.885,1800.516,643.953,1797.448Z" transform="translate(-529.98 -1758.291)" fill="#263238" stroke="#263238" stroke-linecap="round" stroke-linejoin="round" stroke-width="1"/><path d="M674.159,1822.68s-3.883-5.824-6.218-3.1-1.548,9.706,1.557,13.2,6.593,2.326,6.593,2.326" transform="translate(-532.837 -1764.673)" fill="#fff" stroke="#263238" stroke-linecap="round" stroke-linejoin="round" stroke-width="1"/><path d="M721.063,1822.415s4.536-5.368,6.531-2.362.4,9.841-3.086,12.927-6.826,1.548-6.826,1.548" transform="translate(-538.222 -1764.703)" fill="#fff" stroke="#263238" stroke-linecap="round" stroke-linejoin="round" stroke-width="1"/><path d="M714.7,1807.341a6.186,6.186,0,0,1-5.117,1.53,15.9,15.9,0,0,1-4.858-1.53s-3.068,2.049-5.368,1.279-4.867-1.539-4.867-1.539a7.921,7.921,0,0,1-5.627,1.029c-3.578-.519-4.607-1.279-4.607-1.279a7.5,7.5,0,0,1-4.088,1.789,30.086,30.086,0,0,1-3.838-.26,5.127,5.127,0,0,1-1.789.51h-1.789s-.76,15.352,1.789,26.355,12.524,19.189,16.631,21.471,11.12.259,13.169-2.3,8.579-10.234,11.63-16.89,4.1-26.1,4.1-27.375S715.949,1810.409,714.7,1807.341Z" transform="translate(-533.476 -1763.406)" fill="#fff" stroke="#263238" stroke-linecap="round" stroke-linejoin="round" stroke-width="1"/><path d="M703.377,1817.152a1.869,1.869,0,0,0-1.136,1.789c.089,2.9.519,9.787,2.532,10.995,2.559,1.53,14.5,2.684,17.4.76,1.53-1.02,4.858-9.975,3.578-12.525S713.611,1812.948,703.377,1817.152Z" transform="translate(-536.595 -1764.262)" fill="none" stroke="#263238" stroke-linecap="round" stroke-linejoin="round" stroke-width="1"/><path d="M692.011,1817.152a1.87,1.87,0,0,1,1.136,1.789c-.089,2.9-.519,9.787-2.532,10.995-2.559,1.53-14.5,2.684-17.4.76-1.53-1.02-4.858-9.975-3.578-12.525S681.777,1812.948,692.011,1817.152Z" transform="translate(-533.129 -1764.262)" fill="none" stroke="#263238" stroke-linecap="round" stroke-linejoin="round" stroke-width="1"/><path d="M702.59,1817.371s-4.741-1.029-7.819.51" transform="translate(-535.808 -1764.482)" fill="none" stroke="#263238" stroke-linecap="round" stroke-linejoin="round" stroke-width="1"/><line x1="4.867" transform="translate(160.242 55.958)" fill="none" stroke="#263238" stroke-linecap="round" stroke-linejoin="round" stroke-width="1"/><ellipse cx="1.539" cy="2.818" rx="1.539" ry="2.818" transform="translate(171.246 56.978)" fill="#263238"/><ellipse cx="1.539" cy="2.818" rx="1.539" ry="2.818" transform="translate(153.846 56.978)" fill="#263238"/><path d="M700.6,1827.131s-.26,3.579,1.02,4.858,2.809,2.308,1.02,3.578-3.319,2.3-5.878,0" transform="translate(-536.017 -1765.546)" fill="none" stroke="#263238" stroke-linecap="round" stroke-linejoin="round" stroke-width="1"/><path d="M704.795,1842.451s-6.4,3.077-12.024-1.02" transform="translate(-535.597 -1767.053)" fill="none" stroke="#263238" stroke-linecap="round" stroke-linejoin="round" stroke-width="1"/><path d="M714.808,1818.664a7.547,7.547,0,0,0-7.157-1.029" transform="translate(-537.165 -1764.495)" fill="none" stroke="#263238" stroke-linecap="round" stroke-linejoin="round" stroke-width="1"/><path d="M691.115,1818.438s-5.887-3.069-9.214,1.789" transform="translate(-534.451 -1764.529)" fill="none" stroke="#263238" stroke-linecap="round" stroke-linejoin="round" stroke-width="1"/><path d="M712.2,1873.171l-19.959,49.123-11.773-47.074" transform="translate(-534.301 -1770.398)" fill="none" stroke="#263238" stroke-linecap="round" stroke-linejoin="round" stroke-width="1"/><path d="M690.771,1930.329a2.818,2.818,0,1,0,2.818-2.818h0A2.818,2.818,0,0,0,690.771,1930.329Z" transform="translate(-535.386 -1776.125)" fill="#263238" stroke="#263238" stroke-linecap="round" stroke-linejoin="round" stroke-width="1"/><rect width="77.097" height="2.389" transform="translate(94.614 194.032)" fill="gray" stroke="#263238" stroke-linecap="round" stroke-linejoin="round" stroke-width="1"/><path d="M559.931,1919.121h77.428l15.691,52.531H575.622Z" transform="translate(-521.597 -1775.241)" fill="gray" stroke="#263238" stroke-linecap="round" stroke-linejoin="round" stroke-width="1"/></g></g></g></svg>