<svg xmlns="http://www.w3.org/2000/svg" xmlns:xlink="http://www.w3.org/1999/xlink" width="430.53" height="413.58" viewBox="0 0 430.53 413.58"><defs><clipPath id="a"><path d="M235.65,218a.14.14,0,0,0,0,.06c-5.65,20.34-13,59.06-13,59.06-36.17,7.63-74.32,0-74.32,0-.21-8.44.82-19.57,2-31.27-5.93-1.64-10.21-7.11-10.45-16.21-.28-11,1.72-30.86,2.83-40.12,1-8.15.28-13,12.91-19.18,6.33-3.65,16.83-5.38,29.76-7.1a142.36,142.36,0,0,1,39,.23c9.07,1.36,15.18,7.26,16.28,16C242.23,192.6,239.77,204.67,235.65,218Z" fill="#8f00fc" stroke="#263238" stroke-linecap="round" stroke-linejoin="round" stroke-width="1"/></clipPath><clipPath id="b"><path d="M229.27,152.09s4.74-19.21-4.3-28.44-18.84-11.12-26.18-6.59-10.36,15.82-9.23,21.66.58,26.75,10.65,35.42,16.27,6.52,22.93-5.28C227.51,161.1,229.61,158.88,229.27,152.09Z" fill="#fff" stroke="#263238" stroke-linecap="round" stroke-linejoin="round" stroke-width="1"/></clipPath><clipPath id="c"><rect width="97.7" height="11" transform="translate(186.06 266.15) rotate(180)" fill="#8f00fc" stroke="#263238" stroke-linecap="round" stroke-linejoin="round" stroke-width="1"/></clipPath><clipPath id="d"><path d="M262.5,46.3a35.08,35.08,0,0,0-35.08,35.08h70.16A35.09,35.09,0,0,0,262.5,46.3Z" fill="#fff" stroke="#263238" stroke-linecap="round" stroke-linejoin="round" stroke-width="1"/></clipPath></defs><g transform="translate(0.5 0.5)"><g transform="translate(-36.4 -32.76)"><line x1="429.53" transform="translate(36.4 445.34)" fill="none" stroke="#263238" stroke-linecap="round" stroke-linejoin="round" stroke-width="1"/></g><g transform="translate(-36.4 -32.76)"><path d="M423.69,445.34V61.3H305.83a110.21,110.21,0,0,1-53.1,86.5l-1.57.94v296.6Z" fill="none" stroke="#263238" stroke-linecap="round" stroke-linejoin="round" stroke-width="1"/></g><g transform="translate(-36.4 -32.76)"><g opacity="0.2"><path d="M315.5,89.28a13.15,13.15,0,0,1-1.31,4.44c-.76,1.68-.86,3.32-1.94,4.91,5.08.26,8.91.64,10.83.39,2.14-3,2.23-7.33,1.76-10.69-3,.91-6.67,0-9.79.76Z"/></g><path d="M315.6,88a13.521,13.521,0,0,1-1.86,4.29,34.889,34.889,0,0,1-3.38,4.64,57.52,57.52,0,0,0,10.87.47,12.77,12.77,0,0,0,3.61-9.07C321.22,88.22,315.6,88,315.6,88Z" fill="#fff"/><g opacity="0.2"><path d="M299.62,102.05a13.221,13.221,0,0,1-1.31,4.44c-.76,1.67-.34,3.31-1.42,4.9,5.08.27,8.91.65,10.84.4,2.13-3,1.7-7.33,1.23-10.69-3,.9-6.67,0-9.79.76Z"/></g><path d="M299.72,100.76a13.66,13.66,0,0,1-1.86,4.3,34.893,34.893,0,0,1-3.38,4.64,58.41,58.41,0,0,0,10.87.47A12.81,12.81,0,0,0,309,101.1C305.34,101,299.72,100.76,299.72,100.76Z" fill="#fff"/><g opacity="0.2"><path d="M332.3,88.47a13.221,13.221,0,0,1-1.3,4.44c-.76,1.67-.92,3.31-2,4.9,5.09.27,8.92.65,10.84.4,2.14-3,2.29-7.33,1.83-10.69-3,.9-6.68,0-9.8.76Z"/></g><path d="M332.4,87.18a13.66,13.66,0,0,1-1.86,4.3,34.89,34.89,0,0,1-3.38,4.64,58.41,58.41,0,0,0,10.87.47,12.86,12.86,0,0,0,3.62-9.07C338,87.41,332.4,87.18,332.4,87.18Z" fill="#8f00fc"/><g opacity="0.2"><path d="M394.35,172.94a13.22,13.22,0,0,1-1.31,4.44c-.76,1.67-.92,3.31-2,4.9,5.08.26,8.91.65,10.83.4,2.14-3,2.29-7.34,1.83-10.69-3,.9-6.67,0-9.8.75Z"/></g><path d="M394.45,171.65a13.66,13.66,0,0,1-1.86,4.3,34.165,34.165,0,0,1-3.38,4.63,58.751,58.751,0,0,0,10.88.48A12.89,12.89,0,0,0,403.7,172C400.07,171.88,394.45,171.65,394.45,171.65Z" fill="#8f00fc"/><g opacity="0.2"><path d="M374.55,176.17a13.15,13.15,0,0,1-1.31,4.44c-.77,1.68-.93,3.32-2,4.91,5.08.26,8.91.64,10.84.39,2.13-3,2.29-7.33,1.82-10.69-3,.9-6.67,0-9.8.76Z"/></g><path d="M374.65,174.89a13.64,13.64,0,0,1-1.87,4.29,34.89,34.89,0,0,1-3.38,4.64,58.49,58.49,0,0,0,10.88.47,12.82,12.82,0,0,0,3.61-9.07C380.27,175.11,374.65,174.89,374.65,174.89Z" fill="#8f00fc"/><g opacity="0.2"><path d="M356.78,173.1a13.09,13.09,0,0,1-1.31,4.44c-.76,1.68-.92,3.32-2,4.91,5.08.26,8.91.64,10.83.39,2.14-3,2.29-7.33,1.83-10.69-3,.91-6.67,0-9.8.76Z"/></g><path d="M356.88,171.82a13.661,13.661,0,0,1-1.86,4.3,35.458,35.458,0,0,1-3.38,4.63,58.75,58.75,0,0,0,10.88.48,12.9,12.9,0,0,0,3.61-9.08C362.51,172,356.88,171.82,356.88,171.82Z" fill="#fff"/><rect width="58.24" height="85.62" transform="translate(345.77 79.38)" fill="#263238"/><path d="M401.65,163.93h-59.2l2.87-34a171.4,171.4,0,0,0,.58-17.7l-.67-33.94h57.94l.27,41.63c0,3.36,0,6.72-.2,10.07Z" fill="#fff" stroke="#263238" stroke-linecap="round" stroke-linejoin="round" stroke-width="1"/><path d="M399.19,162.77H339.36l1.83-9.52c3.91-23.3,4.88-33.62,4.34-63.81l-.62-12.29h56.75l.67,11.61C403.77,139.28,399.19,162.77,399.19,162.77Z" fill="#fff" stroke="#263238" stroke-linecap="round" stroke-linejoin="round" stroke-width="1"/><path d="M348.27,81.47a1.55,1.55,0,0,1,0-3.09.23.23,0,1,1,0,.46,1.09,1.09,0,1,0,1.09,1.09.23.23,0,1,1,.46,0,1.55,1.55,0,0,1-1.55,1.54Z" fill="#263238"/><path d="M348.24,80.83c-1.42,0-1.49-3-1.49-3.66h0c0-.61.07-3.68,1.49-3.68s1.51,3.31,1.52,3.69h-1.23a7.79,7.79,0,0,0-.3-2.1,7.478,7.478,0,0,0-.25,2.07h0a7,7,0,0,0,.26,2.08s0-.09,0-.15l.1-.33.85.25a.34.34,0,0,1,.23.42h0C349.21,80.36,348.8,80.83,348.24,80.83Z" fill="#263238"/><path d="M349.59,80.16a.23.23,0,0,1-.23-.23,1.09,1.09,0,0,0-1.09-1.09.23.23,0,0,1-.23-.23.24.24,0,0,1,.23-.23,1.56,1.56,0,0,1,1.55,1.55.24.24,0,0,1-.23.23Z" fill="#263238"/><path d="M355.55,81.47a1.55,1.55,0,0,1,0-3.09.23.23,0,1,1,0,.46,1.09,1.09,0,1,0,1.09,1.09.23.23,0,0,1,.46,0,1.55,1.55,0,0,1-1.55,1.54Z" fill="#263238"/><path d="M355.52,80.83c-1.41,0-1.49-3-1.49-3.66h0c0-.61.07-3.68,1.49-3.68S357,76.78,357,77.16h-1.23a7.792,7.792,0,0,0-.3-2.1,7.479,7.479,0,0,0-.25,2.07h0a7,7,0,0,0,.26,2.08q0-.075,0-.15l.1-.33.85.25a.34.34,0,0,1,.23.42h0C356.49,80.36,356.08,80.83,355.52,80.83Z" fill="#263238"/><path d="M356.87,80.16a.23.23,0,0,1-.23-.23,1.09,1.09,0,0,0-1.09-1.09.23.23,0,0,1-.23-.23.24.24,0,0,1,.23-.23,1.56,1.56,0,0,1,1.55,1.55.24.24,0,0,1-.23.23Z" fill="#263238"/><path d="M362.83,81.47a1.55,1.55,0,0,1,0-3.09.23.23,0,1,1,0,.46,1.09,1.09,0,1,0,1.09,1.09.23.23,0,0,1,.46,0,1.55,1.55,0,0,1-1.55,1.54Z" fill="#263238"/><path d="M362.8,80.83c-1.41,0-1.49-3-1.49-3.66h0c0-.61.07-3.68,1.49-3.68s1.51,3.31,1.52,3.69h-1.23a7.79,7.79,0,0,0-.3-2.1,7.478,7.478,0,0,0-.25,2.07h0a7,7,0,0,0,.26,2.08q0-.075,0-.15l.1-.33.85.25a.34.34,0,0,1,.23.42h0C363.77,80.36,363.36,80.83,362.8,80.83Z" fill="#263238"/><path d="M364.15,80.16a.23.23,0,0,1-.23-.23,1.09,1.09,0,0,0-1.09-1.09.23.23,0,0,1-.23-.23.24.24,0,0,1,.23-.23,1.56,1.56,0,0,1,1.55,1.55.24.24,0,0,1-.23.23Z" fill="#263238"/><path d="M370.11,81.47a1.55,1.55,0,0,1,0-3.09.23.23,0,1,1,0,.46,1.09,1.09,0,1,0,1.09,1.09.23.23,0,0,1,.46,0,1.54,1.54,0,0,1-1.55,1.54Z" fill="#263238"/><path d="M370.08,80.83c-1.41,0-1.49-3-1.49-3.66h0c0-.61.07-3.68,1.49-3.68s1.51,3.31,1.52,3.69h-1.23a7.792,7.792,0,0,0-.3-2.1,7.479,7.479,0,0,0-.25,2.07h0a7,7,0,0,0,.26,2.08q0-.075,0-.15l.1-.33.85.25a.34.34,0,0,1,.23.42h0C371.05,80.36,370.64,80.83,370.08,80.83Z" fill="#263238"/><path d="M371.43,80.16a.23.23,0,0,1-.23-.23,1.09,1.09,0,0,0-1.09-1.09.23.23,0,0,1-.23-.23.24.24,0,0,1,.23-.23,1.55,1.55,0,0,1,1.55,1.55.24.24,0,0,1-.23.23Z" fill="#263238"/><path d="M377.35,81.47a1.55,1.55,0,1,1,0-3.09.23.23,0,1,1,0,.46,1.09,1.09,0,1,0,1.08,1.09.23.23,0,0,1,.46,0,1.54,1.54,0,0,1-1.54,1.54Z" fill="#263238"/><path d="M377.31,80.83c-1.41,0-1.49-3-1.49-3.66h0c0-.61.07-3.68,1.49-3.68s1.52,3.31,1.53,3.69h-1.23a7.34,7.34,0,0,0-.31-2.1,7.479,7.479,0,0,0-.25,2.07h0a7.31,7.31,0,0,0,.26,2.08,1.309,1.309,0,0,0,.05-.15l.09-.33.86.25a.34.34,0,0,1,.23.42h0C378.29,80.36,377.87,80.83,377.31,80.83Z" fill="#263238"/><path d="M378.66,80.16a.24.24,0,0,1-.23-.23,1.08,1.08,0,0,0-1.08-1.09.23.23,0,1,1,0-.46,1.55,1.55,0,0,1,1.54,1.55A.23.23,0,0,1,378.66,80.16Z" fill="#263238"/><path d="M384.63,81.47a1.55,1.55,0,1,1,0-3.09.23.23,0,1,1,0,.46,1.09,1.09,0,1,0,1.08,1.09.23.23,0,0,1,.46,0,1.54,1.54,0,0,1-1.54,1.54Z" fill="#263238"/><path d="M384.59,80.83c-1.41,0-1.49-3-1.49-3.66h0c0-.61.07-3.68,1.49-3.68s1.52,3.31,1.53,3.69h-1.23a7.34,7.34,0,0,0-.31-2.1,7.478,7.478,0,0,0-.25,2.07h0a7.31,7.31,0,0,0,.26,2.08,1.309,1.309,0,0,0,.05-.15l.09-.33.86.25a.34.34,0,0,1,.23.42h0C385.57,80.36,385.15,80.83,384.59,80.83Z" fill="#263238"/><path d="M385.94,80.16a.24.24,0,0,1-.23-.23,1.08,1.08,0,0,0-1.08-1.09.23.23,0,1,1,0-.46,1.55,1.55,0,0,1,1.54,1.55A.23.23,0,0,1,385.94,80.16Z" fill="#263238"/><path d="M391.91,81.47a1.55,1.55,0,1,1,0-3.09.23.23,0,1,1,0,.46A1.09,1.09,0,1,0,393,79.93a.23.23,0,0,1,.46,0,1.54,1.54,0,0,1-1.55,1.54Z" fill="#263238"/><path d="M391.87,80.83c-1.41,0-1.49-3-1.49-3.66h0c0-.61.07-3.68,1.49-3.68s1.52,3.31,1.53,3.69h-1.23a7.34,7.34,0,0,0-.31-2.1,7.479,7.479,0,0,0-.25,2.07h0a7.31,7.31,0,0,0,.26,2.08,1.309,1.309,0,0,0,.05-.15l.09-.33.86.25a.34.34,0,0,1,.23.42h0C392.85,80.36,392.43,80.83,391.87,80.83Z" fill="#263238"/><path d="M393.22,80.16a.24.24,0,0,1-.23-.23,1.08,1.08,0,0,0-1.08-1.09.23.23,0,1,1,0-.46,1.55,1.55,0,0,1,1.54,1.55A.23.23,0,0,1,393.22,80.16Z" fill="#263238"/><path d="M399.19,81.47a1.55,1.55,0,0,1,0-3.09.23.23,0,1,1,0,.46,1.09,1.09,0,1,0,1.08,1.09.23.23,0,0,1,.46,0,1.54,1.54,0,0,1-1.54,1.54Z" fill="#263238"/><path d="M399.15,80.83c-1.41,0-1.49-3-1.49-3.66h0c0-.61.08-3.68,1.49-3.68s1.52,3.31,1.53,3.69h-1.23a7.34,7.34,0,0,0-.31-2.1,7.478,7.478,0,0,0-.25,2.07h0a7.31,7.31,0,0,0,.26,2.08,1.309,1.309,0,0,0,.05-.15l.09-.33.86.25a.34.34,0,0,1,.23.42h0C400.13,80.36,399.71,80.83,399.15,80.83Z" fill="#263238"/><path d="M400.5,80.16a.24.24,0,0,1-.23-.23,1.08,1.08,0,0,0-1.08-1.09.23.23,0,1,1,0-.46,1.55,1.55,0,0,1,1.54,1.55A.23.23,0,0,1,400.5,80.16Z" fill="#263238"/><path d="M362.79,75.08h8.87V68.93a2.08,2.08,0,0,1,2.08-2.08h0a2.08,2.08,0,0,1,2.08,2.08v6.15h8.76" fill="#fff" stroke="#263238" stroke-linecap="round" stroke-linejoin="round" stroke-width="1"/><rect width="6.71" height="6.71" transform="translate(350.72 130)" fill="none" stroke="#8f00fc" stroke-linecap="round" stroke-linejoin="round" stroke-width="1"/><rect width="6.71" height="6.71" transform="translate(349.8 140.97)" fill="none" stroke="#8f00fc" stroke-linecap="round" stroke-linejoin="round" stroke-width="1"/><rect width="6.71" height="6.71" transform="translate(351.03 118.74)" fill="none" stroke="#8f00fc" stroke-linecap="round" stroke-linejoin="round" stroke-width="1"/><rect width="6.71" height="6.71" transform="translate(351.7 108.13)" fill="none" stroke="#8f00fc" stroke-linecap="round" stroke-linejoin="round" stroke-width="1"/><path d="M353.3,110.41h.55a8.31,8.31,0,0,0,1.42,4.08c.1.14.22.29.38.31s.42-.25.51-.49q1.88-4.65,3.39-9.44" fill="none" stroke="#263238" stroke-linecap="round" stroke-linejoin="round" stroke-width="1"/><path d="M3.7-6.516A13.388,13.388,0,0,1,2.01-6.627q-.873-.111-1.67-.24A.176.176,0,0,1,.176-6.9a.37.37,0,0,1-.094-.141.566.566,0,0,1-.041-.17Q.035-7.289.035-7.336H.645q.434,0,1.025.012t1.289.035q.7.023,1.4.07t1.359.111q.656.064,1.166.164a4.082,4.082,0,0,1,.809.229q.3.129.3.293a.812.812,0,0,1-.035.234.162.162,0,0,1-.176.117A4.527,4.527,0,0,1,6.926-6.2Q6.5-6.3,6.082-6.4a6.286,6.286,0,0,0-.861-.141,2.3,2.3,0,0,0-.9.1q0,.539.064,1.184t.152,1.313q.088.668.2,1.336t.217,1.254a.962.962,0,0,0,.1.3q.076.146.158.281A2.034,2.034,0,0,1,5.355-.5a.726.726,0,0,1,.059.281.187.187,0,0,1-.059.146.3.3,0,0,1-.141.07.838.838,0,0,1-.176.018H4.887a.43.43,0,0,1-.369-.187,1.382,1.382,0,0,1-.205-.439,2.856,2.856,0,0,1-.094-.521q-.023-.27-.047-.434-.094-.645-.164-1.248T3.885-4.025q-.053-.6-.094-1.219T3.7-6.516ZM7.2-1.98a1.459,1.459,0,0,1,.117-.457,1.738,1.738,0,0,1,.328-.5A2.251,2.251,0,0,1,8.2-3.381a2.492,2.492,0,0,1,.8-.275,3.624,3.624,0,0,1,1.055-.012,5.5,5.5,0,0,1,1.318.352v-.117l-.012-.105a1.274,1.274,0,0,0-.176-.621,2.244,2.244,0,0,0-.451-.568,2.594,2.594,0,0,0-.592-.41A1.361,1.361,0,0,0,9.539-5.3a.55.55,0,0,0-.205.035,1,1,0,0,0-.17.088q-.082.053-.158.094a.378.378,0,0,1-.182.041q-.023,0-.023-.012l-.023-.023q-.023-.023-.064-.059T8.672-5.18a.8.8,0,0,1,.076-.363.646.646,0,0,1,.211-.246,1.1,1.1,0,0,1,.3-.146,1.2,1.2,0,0,1,.357-.053,2.277,2.277,0,0,1,.9.287,3.51,3.51,0,0,1,.785.6,4.011,4.011,0,0,1,.627.838,6.213,6.213,0,0,1,.451.984,4.593,4.593,0,0,1,.24,1.025,3.977,3.977,0,0,1,.012,1.008l-.07-.006-.129-.012a.752.752,0,0,1-.117-.018l-.059-.012a3.413,3.413,0,0,0-.551-.891,3.063,3.063,0,0,0-.6-.533,2.183,2.183,0,0,0-.557-.27q-.258-.076-.422-.111-.176,0-.416.023a4,4,0,0,0-.5.082,3.958,3.958,0,0,0-.521.158,2.2,2.2,0,0,0-.469.24,1.159,1.159,0,0,0-.328.334A.822.822,0,0,0,7.77-1.8a.6.6,0,0,0,.223.475,1.818,1.818,0,0,0,.539.316,2.908,2.908,0,0,0,.645.17A3.915,3.915,0,0,0,9.7-.8a5.833,5.833,0,0,0,.645-.035q.316-.035.627-.082T11.59-1a5.312,5.312,0,0,1,.609-.035h.082q.059,0,.123.006t.117.006H12.6a.143.143,0,0,1,.105.105.854.854,0,0,1,.012.141q0,.07-.146.152a2.454,2.454,0,0,1-.381.164q-.234.082-.521.17t-.551.146q-.264.059-.492.1A2.131,2.131,0,0,1,10.3,0,7.093,7.093,0,0,1,9.258-.082a3.562,3.562,0,0,1-1.008-.3,2.049,2.049,0,0,1-.756-.6A1.582,1.582,0,0,1,7.2-1.98ZM14.332,0a6.372,6.372,0,0,1-.445-1.02,11.251,11.251,0,0,1-.316-1.113q-.129-.562-.205-1.1t-.1-.967a1.566,1.566,0,0,0-.012-.182,1.188,1.188,0,0,1-.006-.205.818.818,0,0,1,.035-.2.4.4,0,0,1,.1-.164h.023q.012,0,.012-.006s0-.006.012-.006.012,0,.012.006.008.006.023.006h.023q.023.012.117.047a.385.385,0,0,1,.117.059q.211-.07.434-.17t.451-.187a3.972,3.972,0,0,1,.463-.146,1.881,1.881,0,0,1,.457-.059q.164,0,.287.012a1.8,1.8,0,0,1,.246.041q.123.029.264.07t.328.1q.094.07.17.135a1,1,0,0,1,.141.146.6.6,0,0,1,.1.2,1.087,1.087,0,0,1,.035.3,1.353,1.353,0,0,1-.439-.029q-.252-.053-.527-.135T15.563-4.7A2.345,2.345,0,0,0,15-4.746a1.054,1.054,0,0,0-.5.152,1.061,1.061,0,0,0-.434.422,2.462,2.462,0,0,0-.07.668,3.442,3.442,0,0,0,.082.639,5.323,5.323,0,0,0,.182.621q.111.311.211.621t.182.615a3.33,3.33,0,0,1,.105.621.382.382,0,0,1-.129.252A.4.4,0,0,1,14.332,0Zm3.094-3.141a3.735,3.735,0,0,1,.182-1.166,2.99,2.99,0,0,1,.527-.979,2.587,2.587,0,0,1,.844-.674,2.524,2.524,0,0,1,1.154-.252A1.775,1.775,0,0,1,20.807-6a1.529,1.529,0,0,1,.469.4,1.561,1.561,0,0,1,.264.557,2.915,2.915,0,0,1,.07.656,1.268,1.268,0,0,1-.246.762,2.116,2.116,0,0,1-.621.568,3.252,3.252,0,0,1-.809.352,2.972,2.972,0,0,1-.809.123h-.287a.7.7,0,0,1-.264-.047.427.427,0,0,1-.187-.141.466.466,0,0,1-.07-.281.253.253,0,0,1,.018-.1q.018-.041.1-.059a.947.947,0,0,1,.246-.006q.164.023.445.07a1.549,1.549,0,0,0,.475-.111,4.487,4.487,0,0,0,.633-.287,2.519,2.519,0,0,0,.557-.4.648.648,0,0,0,.234-.451,1.455,1.455,0,0,0-.076-.463,1.18,1.18,0,0,0-.229-.4,1.188,1.188,0,0,0-.357-.281.828.828,0,0,0-.463-.082,1.818,1.818,0,0,0-.744.223,1.892,1.892,0,0,0-.568.486,2.325,2.325,0,0,0-.363.662,2.261,2.261,0,0,0-.129.762q0,.3.012.609a2.8,2.8,0,0,0,.088.6,1.99,1.99,0,0,0,.246.563,1.552,1.552,0,0,0,.492.475,2.988,2.988,0,0,0,.814.34,5.75,5.75,0,0,0,1.219.17l2.1-.141a1.5,1.5,0,0,1-.475.422,3.024,3.024,0,0,1-.609.264,4.291,4.291,0,0,1-.639.146,4.087,4.087,0,0,1-.6.047,3.629,3.629,0,0,1-1.277-.223A3.33,3.33,0,0,1,18.41-.85a2.9,2.9,0,0,1-.721-.984A3.123,3.123,0,0,1,17.426-3.141Zm9.926-.586q.246,0,.211.234a.16.16,0,0,1-.006.24.723.723,0,0,1-.369.164,3.06,3.06,0,0,1-.645.047,4.566,4.566,0,0,1-.844-.1,1.749,1.749,0,0,0,.205.832,7.025,7.025,0,0,0,.451.738q.246.352.457.68a1.206,1.206,0,0,1,.211.656.2.2,0,0,1-.094.2.384.384,0,0,1-.211.047.468.468,0,0,1-.252-.088,1.168,1.168,0,0,1-.246-.217,2.723,2.723,0,0,1-.205-.27Q25.934-.7,25.887-.8l-.135-.27-.205-.41q-.117-.234-.234-.486t-.229-.486q-.111-.234-.193-.422a2.487,2.487,0,0,1-.129-.27l-.129-.129a1.329,1.329,0,0,1-.217.053l-.334.064-.34.07a1.292,1.292,0,0,1-.234.035h-.059a.134.134,0,0,1-.129-.064.327.327,0,0,1-.035-.158.358.358,0,0,1,.141-.3.9.9,0,0,1,.34-.152,2.8,2.8,0,0,1,.416-.064l.357-.029q-.023-.352-.035-.832a7.256,7.256,0,0,1,.047-1,6.826,6.826,0,0,1,.193-1.014,3.258,3.258,0,0,1,.387-.9A2.054,2.054,0,0,1,25.77-8.2a1.733,1.733,0,0,1,.949-.246,1.792,1.792,0,0,1,.691.158,2.942,2.942,0,0,1,.7.416,2.487,2.487,0,0,1,.533.58,1.178,1.178,0,0,1,.211.65h-.27a.582.582,0,0,1-.416-.176q-.182-.176-.381-.393a3.616,3.616,0,0,0-.422-.393.792.792,0,0,0-.5-.176,1.514,1.514,0,0,0-.727.176,1.805,1.805,0,0,0-.562.469,2.047,2.047,0,0,0-.352.656,2.391,2.391,0,0,0-.117.738v.117l.211,1.676a.281.281,0,0,0,.129.041q.105.018.334.047t.609.064Q26.766-3.762,27.352-3.727Zm.785,1.746a1.459,1.459,0,0,1,.117-.457,1.738,1.738,0,0,1,.328-.5,2.251,2.251,0,0,1,.563-.439,2.492,2.492,0,0,1,.8-.275A3.624,3.624,0,0,1,31-3.668a5.5,5.5,0,0,1,1.318.352v-.117l-.012-.105a1.274,1.274,0,0,0-.176-.621,2.244,2.244,0,0,0-.451-.568,2.594,2.594,0,0,0-.592-.41A1.361,1.361,0,0,0,30.48-5.3a.55.55,0,0,0-.205.035,1,1,0,0,0-.17.088q-.082.053-.158.094a.378.378,0,0,1-.182.041q-.023,0-.023-.012l-.023-.023q-.023-.023-.064-.059t-.041-.047a.8.8,0,0,1,.076-.363.646.646,0,0,1,.211-.246,1.1,1.1,0,0,1,.3-.146,1.2,1.2,0,0,1,.357-.053,2.277,2.277,0,0,1,.9.287,3.51,3.51,0,0,1,.785.6,4.011,4.011,0,0,1,.627.838,6.213,6.213,0,0,1,.451.984,4.593,4.593,0,0,1,.24,1.025,3.977,3.977,0,0,1,.012,1.008l-.07-.006-.129-.012a.752.752,0,0,1-.117-.018L33.2-1.289a3.413,3.413,0,0,0-.551-.891,3.063,3.063,0,0,0-.6-.533,2.183,2.183,0,0,0-.557-.27q-.258-.076-.422-.111-.176,0-.416.023a4,4,0,0,0-.5.082,3.958,3.958,0,0,0-.521.158,2.2,2.2,0,0,0-.469.24,1.159,1.159,0,0,0-.328.334.822.822,0,0,0-.123.451.6.6,0,0,0,.223.475,1.818,1.818,0,0,0,.539.316,2.908,2.908,0,0,0,.645.17,3.915,3.915,0,0,0,.527.047,5.833,5.833,0,0,0,.645-.035q.316-.035.627-.082T32.531-1a5.312,5.312,0,0,1,.609-.035h.082q.059,0,.123.006t.117.006h.076a.143.143,0,0,1,.105.105.854.854,0,0,1,.012.141q0,.07-.146.152a2.454,2.454,0,0,1-.381.164q-.234.082-.521.17t-.551.146q-.264.059-.492.1A2.131,2.131,0,0,1,31.242,0,7.093,7.093,0,0,1,30.2-.082a3.562,3.562,0,0,1-1.008-.3,2.049,2.049,0,0,1-.756-.6A1.582,1.582,0,0,1,28.137-1.98Zm6.047.563a.472.472,0,0,1,.17-.088.757.757,0,0,1,.17-.018.468.468,0,0,1,.211.053.927.927,0,0,1,.193.129q.088.076.182.146a1.025,1.025,0,0,0,.2.117q.3.129.486.211a2.874,2.874,0,0,0,.334.129,1.5,1.5,0,0,0,.352.059q.2.012.516.012.246,0,.6.006a3.082,3.082,0,0,0,.668-.059A1.3,1.3,0,0,0,38.8-.955a.614.614,0,0,0,.223-.521.685.685,0,0,0-.182-.533,1.274,1.274,0,0,0-.521-.3,3.58,3.58,0,0,0-.738-.146q-.41-.041-.844-.088a8.557,8.557,0,0,1-.85-.135,2.553,2.553,0,0,1-.744-.275,1.45,1.45,0,0,1-.527-.516,1.682,1.682,0,0,1-.211-.844,1.053,1.053,0,0,1,.369-.627,2.1,2.1,0,0,1,.715-.387,2.976,2.976,0,0,1,.885-.141,2.752,2.752,0,0,1,.861.117,1.547,1.547,0,0,1,.656.393.96.96,0,0,1,.275.668.85.85,0,0,1-.035.387.508.508,0,0,1-.158.229.3.3,0,0,1-.205.07.211.211,0,0,1-.164-.082.337.337,0,0,1-.053-.223.857.857,0,0,1,.135-.369.523.523,0,0,0-.27-.352,1.579,1.579,0,0,0-.516-.182,2.365,2.365,0,0,0-.627-.023,2.59,2.59,0,0,0-.609.123,1.273,1.273,0,0,0-.445.246.393.393,0,0,0-.146.352.713.713,0,0,0,.205.545,1.379,1.379,0,0,0,.533.3,3.852,3.852,0,0,0,.756.152q.428.047.879.088t.873.117a2.688,2.688,0,0,1,.762.252,1.415,1.415,0,0,1,.539.475,1.381,1.381,0,0,1,.2.779,1.054,1.054,0,0,1-.187.627,1.6,1.6,0,0,1-.475.439,2.165,2.165,0,0,1-.627.258A2.75,2.75,0,0,1,37.887,0q-.3,0-.65-.006t-.7-.041a6.712,6.712,0,0,1-.721-.111,2.7,2.7,0,0,1-.674-.234,2.185,2.185,0,0,1-.557-.4A1.849,1.849,0,0,1,34.184-1.418Z" transform="translate(354.115 97.803) rotate(-3)" fill="#263238"/><path d="M2.977-3.832q.164,0,.352.006a1.145,1.145,0,0,1,.352.064.678.678,0,0,1,.27.17.451.451,0,0,1,.105.322q0,.246-.223.246a1.66,1.66,0,0,1-.475-.064,1.7,1.7,0,0,0-.486-.064,5.523,5.523,0,0,0-.674.041q-.334.041-.674.088T.85-2.936a5.523,5.523,0,0,1-.674.041A.7.7,0,0,1,.3-3.34.926.926,0,0,1,.645-3.6a1.6,1.6,0,0,1,.475-.135,4.893,4.893,0,0,1,.545-.041l.551-.012q.27-.006.48-.029H2.73a.672.672,0,0,0,.082-.006.755.755,0,0,1,.094-.006Zm4.5,0q.164,0,.352.006a1.145,1.145,0,0,1,.352.064.678.678,0,0,1,.27.17.451.451,0,0,1,.105.322q0,.246-.223.246a1.66,1.66,0,0,1-.475-.064,1.7,1.7,0,0,0-.486-.064,5.523,5.523,0,0,0-.674.041q-.334.041-.674.088t-.674.088a5.523,5.523,0,0,1-.674.041A.7.7,0,0,1,4.8-3.34a.926.926,0,0,1,.34-.264,1.6,1.6,0,0,1,.475-.135,4.893,4.893,0,0,1,.545-.041l.551-.012q.27-.006.48-.029H7.23a.672.672,0,0,0,.082-.006.755.755,0,0,1,.094-.006Zm4.5,0q.164,0,.352.006a1.145,1.145,0,0,1,.352.064.678.678,0,0,1,.27.17.451.451,0,0,1,.105.322q0,.246-.223.246a1.66,1.66,0,0,1-.475-.064,1.7,1.7,0,0,0-.486-.064,5.523,5.523,0,0,0-.674.041q-.334.041-.674.088t-.674.088a5.523,5.523,0,0,1-.674.041A.7.7,0,0,1,9.3-3.34a.926.926,0,0,1,.34-.264,1.6,1.6,0,0,1,.475-.135,4.893,4.893,0,0,1,.545-.041l.551-.012q.27-.006.48-.029h.035a.672.672,0,0,0,.082-.006.755.755,0,0,1,.094-.006Zm4.5,0q.164,0,.352.006a1.145,1.145,0,0,1,.352.064.678.678,0,0,1,.27.17.451.451,0,0,1,.105.322q0,.246-.223.246a1.66,1.66,0,0,1-.475-.064,1.7,1.7,0,0,0-.486-.064,5.523,5.523,0,0,0-.674.041q-.334.041-.674.088t-.674.088a5.523,5.523,0,0,1-.674.041A.7.7,0,0,1,13.8-3.34a.926.926,0,0,1,.34-.264,1.6,1.6,0,0,1,.475-.135,4.893,4.893,0,0,1,.545-.041l.551-.012q.27-.006.48-.029h.035a.672.672,0,0,0,.082-.006.755.755,0,0,1,.094-.006Zm4.5,0q.164,0,.352.006a1.145,1.145,0,0,1,.352.064.678.678,0,0,1,.27.17.451.451,0,0,1,.105.322q0,.246-.223.246a1.66,1.66,0,0,1-.475-.064,1.7,1.7,0,0,0-.486-.064,5.523,5.523,0,0,0-.674.041q-.334.041-.674.088t-.674.088a5.523,5.523,0,0,1-.674.041A.7.7,0,0,1,18.3-3.34a.926.926,0,0,1,.34-.264,1.6,1.6,0,0,1,.475-.135,4.893,4.893,0,0,1,.545-.041l.551-.012q.27-.006.48-.029h.035a.672.672,0,0,0,.082-.006.755.755,0,0,1,.094-.006Zm4.5,0q.164,0,.352.006a1.145,1.145,0,0,1,.352.064.678.678,0,0,1,.27.17.451.451,0,0,1,.105.322q0,.246-.223.246a1.66,1.66,0,0,1-.475-.064,1.7,1.7,0,0,0-.486-.064,5.523,5.523,0,0,0-.674.041q-.334.041-.674.088t-.674.088a5.523,5.523,0,0,1-.674.041A.7.7,0,0,1,22.8-3.34a.926.926,0,0,1,.34-.264,1.6,1.6,0,0,1,.475-.135,4.893,4.893,0,0,1,.545-.041l.551-.012q.27-.006.48-.029h.035a.672.672,0,0,0,.082-.006.755.755,0,0,1,.094-.006Z" transform="translate(364.613 115.188) rotate(-3)" fill="#263238"/><path d="M2.977-3.832q.164,0,.352.006a1.145,1.145,0,0,1,.352.064.678.678,0,0,1,.27.17.451.451,0,0,1,.105.322q0,.246-.223.246a1.66,1.66,0,0,1-.475-.064,1.7,1.7,0,0,0-.486-.064,5.523,5.523,0,0,0-.674.041q-.334.041-.674.088T.85-2.936a5.523,5.523,0,0,1-.674.041A.7.7,0,0,1,.3-3.34.926.926,0,0,1,.645-3.6a1.6,1.6,0,0,1,.475-.135,4.893,4.893,0,0,1,.545-.041l.551-.012q.27-.006.48-.029H2.73a.672.672,0,0,0,.082-.006.755.755,0,0,1,.094-.006Zm4.5,0q.164,0,.352.006a1.145,1.145,0,0,1,.352.064.678.678,0,0,1,.27.17.451.451,0,0,1,.105.322q0,.246-.223.246a1.66,1.66,0,0,1-.475-.064,1.7,1.7,0,0,0-.486-.064,5.523,5.523,0,0,0-.674.041q-.334.041-.674.088t-.674.088a5.523,5.523,0,0,1-.674.041A.7.7,0,0,1,4.8-3.34a.926.926,0,0,1,.34-.264,1.6,1.6,0,0,1,.475-.135,4.893,4.893,0,0,1,.545-.041l.551-.012q.27-.006.48-.029H7.23a.672.672,0,0,0,.082-.006.755.755,0,0,1,.094-.006Zm4.5,0q.164,0,.352.006a1.145,1.145,0,0,1,.352.064.678.678,0,0,1,.27.17.451.451,0,0,1,.105.322q0,.246-.223.246a1.66,1.66,0,0,1-.475-.064,1.7,1.7,0,0,0-.486-.064,5.523,5.523,0,0,0-.674.041q-.334.041-.674.088t-.674.088a5.523,5.523,0,0,1-.674.041A.7.7,0,0,1,9.3-3.34a.926.926,0,0,1,.34-.264,1.6,1.6,0,0,1,.475-.135,4.893,4.893,0,0,1,.545-.041l.551-.012q.27-.006.48-.029h.035a.672.672,0,0,0,.082-.006.755.755,0,0,1,.094-.006Zm4.5,0q.164,0,.352.006a1.145,1.145,0,0,1,.352.064.678.678,0,0,1,.27.17.451.451,0,0,1,.105.322q0,.246-.223.246a1.66,1.66,0,0,1-.475-.064,1.7,1.7,0,0,0-.486-.064,5.523,5.523,0,0,0-.674.041q-.334.041-.674.088t-.674.088a5.523,5.523,0,0,1-.674.041A.7.7,0,0,1,13.8-3.34a.926.926,0,0,1,.34-.264,1.6,1.6,0,0,1,.475-.135,4.893,4.893,0,0,1,.545-.041l.551-.012q.27-.006.48-.029h.035a.672.672,0,0,0,.082-.006.755.755,0,0,1,.094-.006Zm4.5,0q.164,0,.352.006a1.145,1.145,0,0,1,.352.064.678.678,0,0,1,.27.17.451.451,0,0,1,.105.322q0,.246-.223.246a1.66,1.66,0,0,1-.475-.064,1.7,1.7,0,0,0-.486-.064,5.523,5.523,0,0,0-.674.041q-.334.041-.674.088t-.674.088a5.523,5.523,0,0,1-.674.041A.7.7,0,0,1,18.3-3.34a.926.926,0,0,1,.34-.264,1.6,1.6,0,0,1,.475-.135,4.893,4.893,0,0,1,.545-.041l.551-.012q.27-.006.48-.029h.035a.672.672,0,0,0,.082-.006.755.755,0,0,1,.094-.006Zm4.5,0q.164,0,.352.006a1.145,1.145,0,0,1,.352.064.678.678,0,0,1,.27.17.451.451,0,0,1,.105.322q0,.246-.223.246a1.66,1.66,0,0,1-.475-.064,1.7,1.7,0,0,0-.486-.064,5.523,5.523,0,0,0-.674.041q-.334.041-.674.088t-.674.088a5.523,5.523,0,0,1-.674.041A.7.7,0,0,1,22.8-3.34a.926.926,0,0,1,.34-.264,1.6,1.6,0,0,1,.475-.135,4.893,4.893,0,0,1,.545-.041l.551-.012q.27-.006.48-.029h.035a.672.672,0,0,0,.082-.006.755.755,0,0,1,.094-.006Z" transform="translate(364.613 125.797) rotate(-3)" fill="#263238"/><path d="M2.977-3.832q.164,0,.352.006a1.145,1.145,0,0,1,.352.064.678.678,0,0,1,.27.17.451.451,0,0,1,.105.322q0,.246-.223.246a1.66,1.66,0,0,1-.475-.064,1.7,1.7,0,0,0-.486-.064,5.523,5.523,0,0,0-.674.041q-.334.041-.674.088T.85-2.936a5.523,5.523,0,0,1-.674.041A.7.7,0,0,1,.3-3.34.926.926,0,0,1,.645-3.6a1.6,1.6,0,0,1,.475-.135,4.893,4.893,0,0,1,.545-.041l.551-.012q.27-.006.48-.029H2.73a.672.672,0,0,0,.082-.006.755.755,0,0,1,.094-.006Zm4.5,0q.164,0,.352.006a1.145,1.145,0,0,1,.352.064.678.678,0,0,1,.27.17.451.451,0,0,1,.105.322q0,.246-.223.246a1.66,1.66,0,0,1-.475-.064,1.7,1.7,0,0,0-.486-.064,5.523,5.523,0,0,0-.674.041q-.334.041-.674.088t-.674.088a5.523,5.523,0,0,1-.674.041A.7.7,0,0,1,4.8-3.34a.926.926,0,0,1,.34-.264,1.6,1.6,0,0,1,.475-.135,4.893,4.893,0,0,1,.545-.041l.551-.012q.27-.006.48-.029H7.23a.672.672,0,0,0,.082-.006.755.755,0,0,1,.094-.006Zm4.5,0q.164,0,.352.006a1.145,1.145,0,0,1,.352.064.678.678,0,0,1,.27.17.451.451,0,0,1,.105.322q0,.246-.223.246a1.66,1.66,0,0,1-.475-.064,1.7,1.7,0,0,0-.486-.064,5.523,5.523,0,0,0-.674.041q-.334.041-.674.088t-.674.088a5.523,5.523,0,0,1-.674.041A.7.7,0,0,1,9.3-3.34a.926.926,0,0,1,.34-.264,1.6,1.6,0,0,1,.475-.135,4.893,4.893,0,0,1,.545-.041l.551-.012q.27-.006.48-.029h.035a.672.672,0,0,0,.082-.006.755.755,0,0,1,.094-.006Zm4.5,0q.164,0,.352.006a1.145,1.145,0,0,1,.352.064.678.678,0,0,1,.27.17.451.451,0,0,1,.105.322q0,.246-.223.246a1.66,1.66,0,0,1-.475-.064,1.7,1.7,0,0,0-.486-.064,5.523,5.523,0,0,0-.674.041q-.334.041-.674.088t-.674.088a5.523,5.523,0,0,1-.674.041A.7.7,0,0,1,13.8-3.34a.926.926,0,0,1,.34-.264,1.6,1.6,0,0,1,.475-.135,4.893,4.893,0,0,1,.545-.041l.551-.012q.27-.006.48-.029h.035a.672.672,0,0,0,.082-.006.755.755,0,0,1,.094-.006Zm4.5,0q.164,0,.352.006a1.145,1.145,0,0,1,.352.064.678.678,0,0,1,.27.17.451.451,0,0,1,.105.322q0,.246-.223.246a1.66,1.66,0,0,1-.475-.064,1.7,1.7,0,0,0-.486-.064,5.523,5.523,0,0,0-.674.041q-.334.041-.674.088t-.674.088a5.523,5.523,0,0,1-.674.041A.7.7,0,0,1,18.3-3.34a.926.926,0,0,1,.34-.264,1.6,1.6,0,0,1,.475-.135,4.893,4.893,0,0,1,.545-.041l.551-.012q.27-.006.48-.029h.035a.672.672,0,0,0,.082-.006.755.755,0,0,1,.094-.006Zm4.5,0q.164,0,.352.006a1.145,1.145,0,0,1,.352.064.678.678,0,0,1,.27.17.451.451,0,0,1,.105.322q0,.246-.223.246a1.66,1.66,0,0,1-.475-.064,1.7,1.7,0,0,0-.486-.064,5.523,5.523,0,0,0-.674.041q-.334.041-.674.088t-.674.088a5.523,5.523,0,0,1-.674.041A.7.7,0,0,1,22.8-3.34a.926.926,0,0,1,.34-.264,1.6,1.6,0,0,1,.475-.135,4.893,4.893,0,0,1,.545-.041l.551-.012q.27-.006.48-.029h.035a.672.672,0,0,0,.082-.006.755.755,0,0,1,.094-.006Z" transform="translate(364.613 137.057) rotate(-3)" fill="#263238"/><path d="M2.977-3.832q.164,0,.352.006a1.145,1.145,0,0,1,.352.064.678.678,0,0,1,.27.17.451.451,0,0,1,.105.322q0,.246-.223.246a1.66,1.66,0,0,1-.475-.064,1.7,1.7,0,0,0-.486-.064,5.523,5.523,0,0,0-.674.041q-.334.041-.674.088T.85-2.936a5.523,5.523,0,0,1-.674.041A.7.7,0,0,1,.3-3.34.926.926,0,0,1,.645-3.6a1.6,1.6,0,0,1,.475-.135,4.893,4.893,0,0,1,.545-.041l.551-.012q.27-.006.48-.029H2.73a.672.672,0,0,0,.082-.006.755.755,0,0,1,.094-.006Zm4.5,0q.164,0,.352.006a1.145,1.145,0,0,1,.352.064.678.678,0,0,1,.27.17.451.451,0,0,1,.105.322q0,.246-.223.246a1.66,1.66,0,0,1-.475-.064,1.7,1.7,0,0,0-.486-.064,5.523,5.523,0,0,0-.674.041q-.334.041-.674.088t-.674.088a5.523,5.523,0,0,1-.674.041A.7.7,0,0,1,4.8-3.34a.926.926,0,0,1,.34-.264,1.6,1.6,0,0,1,.475-.135,4.893,4.893,0,0,1,.545-.041l.551-.012q.27-.006.48-.029H7.23a.672.672,0,0,0,.082-.006.755.755,0,0,1,.094-.006Zm4.5,0q.164,0,.352.006a1.145,1.145,0,0,1,.352.064.678.678,0,0,1,.27.17.451.451,0,0,1,.105.322q0,.246-.223.246a1.66,1.66,0,0,1-.475-.064,1.7,1.7,0,0,0-.486-.064,5.523,5.523,0,0,0-.674.041q-.334.041-.674.088t-.674.088a5.523,5.523,0,0,1-.674.041A.7.7,0,0,1,9.3-3.34a.926.926,0,0,1,.34-.264,1.6,1.6,0,0,1,.475-.135,4.893,4.893,0,0,1,.545-.041l.551-.012q.27-.006.48-.029h.035a.672.672,0,0,0,.082-.006.755.755,0,0,1,.094-.006Zm4.5,0q.164,0,.352.006a1.145,1.145,0,0,1,.352.064.678.678,0,0,1,.27.17.451.451,0,0,1,.105.322q0,.246-.223.246a1.66,1.66,0,0,1-.475-.064,1.7,1.7,0,0,0-.486-.064,5.523,5.523,0,0,0-.674.041q-.334.041-.674.088t-.674.088a5.523,5.523,0,0,1-.674.041A.7.7,0,0,1,13.8-3.34a.926.926,0,0,1,.34-.264,1.6,1.6,0,0,1,.475-.135,4.893,4.893,0,0,1,.545-.041l.551-.012q.27-.006.48-.029h.035a.672.672,0,0,0,.082-.006.755.755,0,0,1,.094-.006Zm4.5,0q.164,0,.352.006a1.145,1.145,0,0,1,.352.064.678.678,0,0,1,.27.17.451.451,0,0,1,.105.322q0,.246-.223.246a1.66,1.66,0,0,1-.475-.064,1.7,1.7,0,0,0-.486-.064,5.523,5.523,0,0,0-.674.041q-.334.041-.674.088t-.674.088a5.523,5.523,0,0,1-.674.041A.7.7,0,0,1,18.3-3.34a.926.926,0,0,1,.34-.264,1.6,1.6,0,0,1,.475-.135,4.893,4.893,0,0,1,.545-.041l.551-.012q.27-.006.48-.029h.035a.672.672,0,0,0,.082-.006.755.755,0,0,1,.094-.006Zm4.5,0q.164,0,.352.006a1.145,1.145,0,0,1,.352.064.678.678,0,0,1,.27.17.451.451,0,0,1,.105.322q0,.246-.223.246a1.66,1.66,0,0,1-.475-.064,1.7,1.7,0,0,0-.486-.064,5.523,5.523,0,0,0-.674.041q-.334.041-.674.088t-.674.088a5.523,5.523,0,0,1-.674.041A.7.7,0,0,1,22.8-3.34a.926.926,0,0,1,.34-.264,1.6,1.6,0,0,1,.475-.135,4.893,4.893,0,0,1,.545-.041l.551-.012q.27-.006.48-.029h.035a.672.672,0,0,0,.082-.006.755.755,0,0,1,.094-.006Z" transform="translate(364.613 148.028) rotate(-3)" fill="#263238"/></g><g transform="translate(-36.4 -32.76)"><path d="M198.49,347.15C209.43,347.15,241,340,241,340H156S187.56,347.15,198.49,347.15Z" fill="#858585" stroke="#263238" stroke-linecap="round" stroke-linejoin="round" stroke-width="1"/><rect width="19.49" height="13.36" transform="translate(208.24 356.94) rotate(180)" fill="#858585" stroke="#263238" stroke-linecap="round" stroke-linejoin="round" stroke-width="1"/><rect width="16.41" height="34.33" transform="translate(174.42 322.97) rotate(180)" fill="#263238" stroke="#263238" stroke-linecap="round" stroke-linejoin="round" stroke-width="1"/><rect width="25.25" height="60.54" transform="translate(211.12 417.48) rotate(180)" fill="#858585" stroke="#263238" stroke-linecap="round" stroke-linejoin="round" stroke-width="1"/><path d="M126.22,292.57H197a14.3,14.3,0,0,0,14.27-15.36l-5.59-76.38a14.32,14.32,0,0,0-14.28-13.27H131.82a14.32,14.32,0,0,0-14.28,13.269l-5.6,76.381a14.32,14.32,0,0,0,14.28,15.36Z" fill="#8f00fc" stroke="#263238" stroke-linecap="round" stroke-linejoin="round" stroke-width="1"/><path d="M124.49,277.21l5.6-76.38a14.31,14.31,0,0,1,14.27-13.27h47a14.32,14.32,0,0,1,14.28,13.269l5.59,76.381A14.3,14.3,0,0,1,197,292.57H138.8a14.31,14.31,0,0,1-14.31-15.36Z" fill="#263238" stroke="#263238" stroke-linecap="round" stroke-linejoin="round" stroke-width="1"/><path d="M156,429.64a2.1,2.1,0,0,0,2.56,2.06c7.74-1.69,30.92-6.57,40-6.57s32.23,4.88,40,6.57a2.1,2.1,0,0,0,2.56-2.06h0a5.54,5.54,0,0,0-4.38-5.42c-9-1.94-29.73-6.18-38.15-6.18s-29.09,4.24-38.15,6.18a5.54,5.54,0,0,0-4.37,5.42Z" fill="#263238" stroke="#263238" stroke-linecap="round" stroke-linejoin="round" stroke-width="1"/><path d="M233.75,437.8a7.27,7.27,0,1,0,7.27-7.27,7.27,7.27,0,0,0-7.27,7.27Zm3.33,0a3.94,3.94,0,1,1,3.94,3.94A3.94,3.94,0,0,1,237.08,437.8Z" fill="#858585" stroke="#263238" stroke-linecap="round" stroke-linejoin="round" stroke-width="1"/><path d="M191.22,437.8a7.28,7.28,0,1,0,7.27-7.27,7.28,7.28,0,0,0-7.27,7.27Zm3.34,0a3.94,3.94,0,1,1,3.93,3.94,3.94,3.94,0,0,1-3.93-3.94Z" fill="#858585" stroke="#263238" stroke-linecap="round" stroke-linejoin="round" stroke-width="1"/><path d="M149.58,437.8a7.28,7.28,0,1,0,7.27-7.27,7.28,7.28,0,0,0-7.27,7.27Zm3.33,0a3.94,3.94,0,1,1,3.94,3.94,3.94,3.94,0,0,1-3.94-3.94Z" fill="#858585" stroke="#263238" stroke-linecap="round" stroke-linejoin="round" stroke-width="1"/><path d="M177,317.59h84.87a10.52,10.52,0,0,1,10.52,10.52v1.38A10.52,10.52,0,0,1,261.87,340H177Z" fill="#8f00fc" stroke="#263238" stroke-linecap="round" stroke-linejoin="round" stroke-width="1"/><rect width="68.43" height="22.43" rx="6.84" transform="translate(193.02 340.01) rotate(180)" fill="#8f00fc" stroke="#263238" stroke-linecap="round" stroke-linejoin="round" stroke-width="1"/><path d="M325.34,141.55c-6.5,18.36-26.75,33.94-34.32,36.84-3.6,1.38-50.58,18.59-50.58,18.59-10.28-1.11-15.82-17.06-16.23-21.49-.6-6.4-.9-11.41,9.46-12,16.26-.87,48.53-4.65,54.82-9.84,5.19-4.27,22.89-17.79,28.23-21.87C316.72,131.82,321.29,133.1,325.34,141.55Z" fill="#8f00fc" stroke="#263238" stroke-linecap="round" stroke-linejoin="round" stroke-width="1"/><path d="M313.63,135.44l10.07-11.81.32-1.53a44.23,44.23,0,0,1,6.11-14.93h0l10.88-4.1,8.87,6.86-2.52,5.67-.84,3.3a3.93,3.93,0,0,1-1.46,2.19h0a43,43,0,0,1-12.19,7.58l-.42.2-9.22,16.31c-1.8,3.1-5.15,2.76-7.59-.15-.05-.05,0,0-.06,0C314.19,144,311.17,139.41,313.63,135.44Z" fill="#fff" stroke="#263238" stroke-linecap="round" stroke-linejoin="round" stroke-width="1"/><rect width="7.55" height="1.11" transform="translate(349.224 106.512) rotate(-11.51)" fill="#fff" stroke="#263238" stroke-linecap="round" stroke-linejoin="round" stroke-width="1"/><rect width="7.55" height="2.47" transform="translate(345.996 106.47) rotate(-11.51)" fill="#fff" stroke="#263238" stroke-linecap="round" stroke-linejoin="round" stroke-width="1"/><rect width="34.63" height="4.02" transform="translate(315.636 112.035) rotate(-11.51)" fill="#fff" stroke="#263238" stroke-linecap="round" stroke-linejoin="round" stroke-width="1"/><path d="M355.62,105s3.25-.77,3.37.08-3.08,1.33-3.08,1.33Z" fill="#263238"/><path d="M317.69,113.68c.23,1.13-.17,2.16-.89,2.31s-1.49-.65-1.71-1.78.16-2.15.88-2.3S317.46,112.56,317.69,113.68Z" fill="#fff" stroke="#263238" stroke-linecap="round" stroke-linejoin="round" stroke-width="1"/><path d="M335.36,121.77a5.92,5.92,0,0,1-2.35,2" fill="#fff" stroke="#263238" stroke-linecap="round" stroke-linejoin="round" stroke-width="1"/><path d="M329.68,114.38c.43-1.54,3.33-4.95,12.58-6,1,.62.41,2.32-.62,3s-2.36.85-3.13,1.78-1,4-2.08,6.68" fill="#fff" stroke="#263238" stroke-linecap="round" stroke-linejoin="round" stroke-width="1"/><path d="M339.86,107.08l2.4,1.27c4.23,2.14,5.81-.89,5.4-1.39h0l-6-3.43" fill="#fff" stroke="#263238" stroke-linecap="round" stroke-linejoin="round" stroke-width="1"/><path d="M345.73,120.51l-2.39.86a9.572,9.572,0,0,1-1.33.33,1.56,1.56,0,0,1-1.55-.38,1.45,1.45,0,0,1-.31-1.09,2,2,0,0,1,.42-.94,3.13,3.13,0,0,1,2-1.18s3.88-1.61,4.83-2.51l-.13,1.57a5.33,5.33,0,0,1-1.5,3.34Z" fill="#fff" stroke="#263238" stroke-linecap="round" stroke-linejoin="round" stroke-width="1"/><path d="M343.8,113.38a4.71,4.71,0,0,0-2.42,1.44,2.38,2.38,0,0,0-.59,1,1.22,1.22,0,0,0,.26,1.12,1.89,1.89,0,0,0,1.8.25,12.689,12.689,0,0,0,1.59-.49l2.92-1.13s1.6-.39,2.52-5.67l-.51-.4-1.11.57s-.93,3.75-2.46,4.19a1.55,1.55,0,0,1-2-.88Z" fill="#fff" stroke="#263238" stroke-linecap="round" stroke-linejoin="round" stroke-width="1"/><path d="M348.46,109.43c-.17.61-.4,1.34-.66,2a8.2,8.2,0,0,1-1.46,2.44,1.29,1.29,0,0,1-2.14-.26,4.18,4.18,0,0,1-.26-.82,5.51,5.51,0,0,1,.45-2.58Z" fill="#fff" stroke="#263238" stroke-linecap="round" stroke-linejoin="round" stroke-width="1"/><path d="M344,104.81a28.211,28.211,0,0,1,4,.36" fill="#fff" stroke="#263238" stroke-linecap="round" stroke-linejoin="round" stroke-width="1"/><path d="M342.49,110.84c.2.92.41,1.84.61,2.75" fill="#fff" stroke="#263238" stroke-linecap="round" stroke-linejoin="round" stroke-width="1"/><path d="M192.45,159.37a43.08,43.08,0,0,1-5-14,11.19,11.19,0,0,1,.09-1.62,16,16,0,0,0,2.43,6.57,22,22,0,0,1,2.08,3.4A12.64,12.64,0,0,1,192.45,159.37Z" fill="#263238" stroke="#263238" stroke-linecap="round" stroke-linejoin="round" stroke-width="1"/><path d="M217.89,444.85H174.73a1.85,1.85,0,0,1-1.82-1.51c-.66-3.43-.51-11.1,3.38-21.29l.39-20.68,22.11,3.76L196,422.76s8.9,9.8,13.13,11.55c3,1.24,9.73,1.37,10.63,8.47a1.86,1.86,0,0,1-1.87,2.07Z" fill="#fff" stroke="#263238" stroke-linecap="round" stroke-linejoin="round" stroke-width="1"/><path d="M183.58,428.92c10.2,2.31,12.4-6.16,12.4-6.16s8.9,9.8,13.13,11.55c3,1.24,9.73,1.37,10.63,8.47a1.86,1.86,0,0,1-1.85,2.07H174.73a1.85,1.85,0,0,1-1.82-1.51c-.66-3.43-.51-11.1,3.38-21.29C176.29,422.05,178.15,427.69,183.58,428.92Z" fill="#263238" stroke="#263238" stroke-linecap="round" stroke-linejoin="round" stroke-width="1"/><path d="M272.58,432.93l-3.68-39.91,21.92,3.86,1.74,31.72Z" fill="#fff" stroke="#263238" stroke-linecap="round" stroke-linejoin="round" stroke-width="1"/><path d="M222.19,276.25s4.35,4.46,22.14,7.3S299,295.3,298.59,309.89s-5.8,97.37-5.8,97.37-17-3.24-24.93-8.11c0,0-5.09-40.76-4.67-75.07,0,0-46.12-5.67-71.63-16.21s-10.51-34.52-10.51-34.52Z" fill="#263238" stroke="#263238" stroke-linecap="round" stroke-linejoin="round" stroke-width="1"/><path d="M193.22,274.21s-6.55,11-1.66,17,32.64,17.43,29.51,31.21-13.49,42.93-20.25,89.14c0,0-15.71-2.43-26.25-6.89,0,0-1.75-56.72,10.47-77,0,0-35-6.49-38.54-18.24s3.09-29.73,3.22-36.14Z" fill="#263238" stroke="#263238" stroke-linecap="round" stroke-linejoin="round" stroke-width="1"/><path d="M295,407.33l-.94,5.24a1,1,0,0,1-1.07.94c-4-.41-21-2.34-27.5-6.33a1.45,1.45,0,0,1-.6-1.25l.19-5.7a1.019,1.019,0,0,1,1.38-1.07c2.84,1.27,10.62,4.11,27.54,6.55a1.37,1.37,0,0,1,1,1.62Z" fill="#fff" stroke="#263238" stroke-linecap="round" stroke-linejoin="round" stroke-width="1"/><path d="M202.8,408.88a.84.84,0,0,0-1.1-.92,10.66,10.66,0,0,1-6.11.09c-4.5-1-17.41-5.11-21.25-6.34a.84.84,0,0,0-1.09.81v5.37a.83.83,0,0,0,.5.77c3,1.34,19.17,8.26,27.62,6.38a.85.85,0,0,0,.64-.71Z" fill="#fff" stroke="#263238" stroke-linecap="round" stroke-linejoin="round" stroke-width="1"/><path d="M190.56,280.45a19.88,19.88,0,0,0-.62,2.74" fill="none" stroke="#7f7f7f" stroke-linecap="round" stroke-linejoin="round" stroke-width="1"/><path d="M322.74,442.1a2.84,2.84,0,0,1-2.83,2.84s-29.26.19-31.12.11c-1.6-.07-3.68-2.63-10.43-3.31-1.57-.15-2.16,1.29-1.11,3.11l-8.35.2a2.83,2.83,0,0,1-2.84-2.86c0-3.43-1.82-11.06,4.74-19.21.76,3,3.23,4.65,7,4.83,15.26.69,15.18-6.49,15.18-6.49s7.79,9.1,14,11.25C311,434,323.35,436.83,322.74,442.1Z" fill="#263238" stroke="#263238" stroke-linecap="round" stroke-linejoin="round" stroke-width="1"/><path d="M235.65,218a.14.14,0,0,0,0,.06c-5.65,20.34-13,59.06-13,59.06-36.17,7.63-74.32,0-74.32,0-.21-8.44.82-19.57,2-31.27-5.93-1.64-10.21-7.11-10.45-16.21-.28-11,1.72-30.86,2.83-40.12,1-8.15.28-13,12.91-19.18,6.33-3.65,16.83-5.38,29.76-7.1a142.36,142.36,0,0,1,39,.23c9.07,1.36,15.18,7.26,16.28,16C242.23,192.6,239.77,204.67,235.65,218Z" fill="#8f00fc"/><g clip-path="url(#a)"><path d="M148.31,277.09a204.355,204.355,0,0,1,1.07-21.75c-1.23,17.21,34.61,22.59,35.74,13.26s-34.84-22.78-15.27-18.08c17.08,4.11,50.18.19,58.33-.88-3.13,14.71-5.55,27.45-5.55,27.45C186.46,284.72,148.31,277.09,148.31,277.09Z" opacity="0.3"/><path d="M184.25,160.88a53,53,0,0,0-2.07,33.61,13.13,13.13,0,0,1,14.49-2.42c3.49,1.66,7,5,10.59,3.6,1.52-.59,2.61-1.92,4-2.82a8,8,0,0,1,10.94,2.76,163.776,163.776,0,0,0-3.3-16.73c-1-4-2.2-8-4.73-11.2-3.35-4.23-8.74-6.52-14.12-7s-10.78.81-15.86,2.63" opacity="0.3"/><path d="M164.75,190.62s5.11,15,5.1,22.89,14.35,13.21,14.38,13.22c-7.69-1.56-15.18-3.63-18.76-4.67a2.73,2.73,0,0,1-2-2.88,280.3,280.3,0,0,0,1.26-28.56Z" opacity="0.3"/></g><path d="M235.65,218a.14.14,0,0,0,0,.06c-5.65,20.34-13,59.06-13,59.06-36.17,7.63-74.32,0-74.32,0-.21-8.44.82-19.57,2-31.27-5.93-1.64-10.21-7.11-10.45-16.21-.28-11,1.72-30.86,2.83-40.12,1-8.15.28-13,12.91-19.18,6.33-3.65,16.83-5.38,29.76-7.1a142.36,142.36,0,0,1,39,.23c9.07,1.36,15.18,7.26,16.28,16C242.23,192.6,239.77,204.67,235.65,218Z" fill="none" stroke="#263238" stroke-linecap="round" stroke-linejoin="round" stroke-width="1"/><path d="M146.05,233c3-9.88,8.14-12.36,12.14-12.61a.64.64,0,0,0,.3-1.19c-2.32-1.25-6.86-2.25-12.44,3.91" fill="none" stroke="#263238" stroke-linecap="round" stroke-linejoin="round" stroke-width="0.75"/><path d="M246.59,239.71s7.14,4.37,3.58,6.39c-2.27,1.3-6.4-3.79-9.5-4s1.58-3,1.58-3Z" fill="#fff" stroke="#263238" stroke-linecap="round" stroke-linejoin="round" stroke-width="1"/><path d="M197.13,230a2.44,2.44,0,0,1,1.92-.3c2.64.67,10.22,2.56,13.16,2.87,5.2.56,20.9-.07,20.9-.07a2.37,2.37,0,0,1,1,.23l8.92,4.36a2.46,2.46,0,0,1,.83.67s2.54,2.94,2.62,3.18l.85,3.41c-.31-1.3.05.2.06.3a4.67,4.67,0,0,1-.14,1.7,1.4,1.4,0,0,1-2.18.7h0l-.36-1.16c.93,2.47.21,3-.2,3.13a2.14,2.14,0,0,1-2.78-1.24l-.57-1.39s-.81,2.63-3.53,0c-.36-.36-1.05-2-2.28-3.56,0,0-1.74-2.24-2.9-2.71-2.62-1.06-3.09-1.57-3.92-1.71,0,0,8.1,6.24,6.09,7.91s-7.88-5.07-10.2-4.89-3.4,5.62-15.2,1.58a3.71,3.71,0,0,0-1.62-.19L196.07,244a2.57,2.57,0,0,1-2.83-2.36C193,238.23,193.15,232.51,197.13,230Z" fill="#fff" stroke="#263238" stroke-linecap="round" stroke-linejoin="round" stroke-width="1"/><path d="M232.92,236.94l1.72.6a4.75,4.75,0,0,1,2.14,1.5l2.4,3.09a46.484,46.484,0,0,1,2,4.22" fill="none" stroke="#263238" stroke-linecap="round" stroke-linejoin="round" stroke-width="1"/><path d="M237.08,236.1s3.63,1.8,4.19,2.49L243.5,243c.28.34,1.86,3.5,1.56,5.24" fill="none" stroke="#263238" stroke-linecap="round" stroke-linejoin="round" stroke-width="1"/><path d="M212.7,234.41c4.44-1.35,11.16-2.18,14.4-1.76" fill="none" stroke="#263238" stroke-linecap="round" stroke-linejoin="round" stroke-width="1"/><path d="M164.67,188.22c.42,10-.42,22.16-1.18,31a2.73,2.73,0,0,0,2,2.88c4.94,1.43,17.31,4.83,27.4,6.16" fill="none" stroke="#263238" stroke-linecap="round" stroke-linejoin="round" stroke-width="1"/><path d="M197.13,229l-11.06-5a34.06,34.06,0,0,0-2.68,16.81c.94,9.45,15.25,2.1,15.25,2.1Z" fill="#fff" stroke="#263238" stroke-linecap="round" stroke-linejoin="round" stroke-width="1"/><path d="M316.71,131.82l8.63,9.73-5.4,16.57L306.7,139.49Z" fill="#fff" stroke="#263238" stroke-linecap="round" stroke-linejoin="round" stroke-width="1"/><path d="M164.11,181.21c.15,1.15.27,2.36.37,3.62" fill="none" stroke="#263238" stroke-linecap="round" stroke-linejoin="round" stroke-width="0.75"/><path d="M160.32,170.63c1.29,1.11,2.25,3.18,2.93,5.9" fill="none" stroke="#263238" stroke-linecap="round" stroke-linejoin="round" stroke-width="0.75"/><path d="M186.52,188.45s3.93-5.43,10.3-.23a114.176,114.176,0,0,1,9.14,8.56s7.45-9.18,10.14-10.39c5.63-2.52,6.8,1.83,6.8,1.83a99,99,0,0,0-5.36-25.07s-4.9-8.42-28.07-4.46c0,0-4.85,1-5.91,4.76C183.56,163.45,181.12,179,186.52,188.45Z" fill="#fff" stroke="#263238" stroke-linecap="round" stroke-linejoin="round" stroke-width="1"/><path d="M216.91,163.92s-.71-2.27-4.52-3.54-14.25-2-21,1.32,3.45,20,3.45,20l2.12,2.91a44.89,44.89,0,0,0,9.32,9.45h0l4.41-5.79s7.81-10.11,7.25-15.54S216.91,163.92,216.91,163.92Z" fill="#fff" stroke="#263238" stroke-linecap="round" stroke-linejoin="round" stroke-width="1"/><path d="M192.42,159.15c-.45,1,1.65,17.53,8.9,22.06S214.53,178,214.53,178s-11.76,8.26-22.53-17.8l-.62,1.5" fill="#263238" stroke="#263238" stroke-linecap="round" stroke-linejoin="round" stroke-width="1"/><path d="M229.27,152.09s4.74-19.21-4.3-28.44-18.84-11.12-26.18-6.59-10.36,15.82-9.23,21.66.58,26.75,10.65,35.42,16.27,6.52,22.93-5.28C227.51,161.1,229.61,158.88,229.27,152.09Z" fill="#fff"/><g clip-path="url(#b)"><path d="M199.05,152.49a10.66,10.66,0,0,1,.43,2c.51,1.88,1.52,6.49,3.46,6.61,8.34.51,10-.07,14.53,1.49,1.69.58,2.35,3.34,3.85,2.36,5.07-3.34,2.61,2.79,3.36,1.17-1.54,2.69-2.66,8-8.32,11.33-3.66,2.19-8.49,1.79-12.22-.29a21.759,21.759,0,0,1-8.39-9.41c-.91-1.79-5.6-13.06-3.08-13.84,1-.32,2.34,1.54,3.61,1.07C197.37,154.64,197.74,149.81,199.05,152.49Z" opacity="0.2"/></g><path d="M229.27,152.09s4.74-19.21-4.3-28.44-18.84-11.12-26.18-6.59-10.36,15.82-9.23,21.66.58,26.75,10.65,35.42,16.27,6.52,22.93-5.28C227.51,161.1,229.61,158.88,229.27,152.09Z" fill="none" stroke="#263238" stroke-linecap="round" stroke-linejoin="round" stroke-width="1"/><path d="M196.65,147.06s-1.92-10.53-7.26-9.55-1.52,16.52,4.76,14.82" fill="#fff" stroke="#263238" stroke-linecap="round" stroke-linejoin="round" stroke-width="1"/><path d="M217.07,169.71s-6.59-.44-9.29-5.21" fill="none" stroke="#263238" stroke-linecap="round" stroke-linejoin="round" stroke-width="1"/><path d="M225.52,151.45c-.19.91,0,1.73.53,1.83s1-.56,1.22-1.47-.05-1.73-.53-1.83S225.71,150.54,225.52,151.45Z" fill="#263238"/><path d="M213.12,150.45c-.18.91,0,1.73.54,1.83s1-.55,1.21-1.46-.05-1.73-.53-1.83S213.31,149.54,213.12,150.45Z" fill="#263238"/><path d="M224.68,148.07c-1.9,1.19-2.63,3.65-2.53,5.89a45.428,45.428,0,0,0,1.3,6.59c.28,1.43.3,3.16-.86,4a2.94,2.94,0,0,1-3.28-.14,8.71,8.71,0,0,1-2.25-2.64" fill="none" stroke="#263238" stroke-linecap="round" stroke-linejoin="round" stroke-width="1"/><path d="M197.59,155.83a17.7,17.7,0,0,1,1.88,8" fill="none" stroke="#263238" stroke-linecap="round" stroke-linejoin="round" stroke-width="0.75"/><path d="M209.91,142.45c-1,.15-2.26.54-2.29,1.22,0,.52.75.94,1.54,1.09a18.46,18.46,0,0,0,2.48.14c2.37.12,4.49,1,6.82,1.28,3.72.49,3.76-1.52,1.19-2.51A19.8,19.8,0,0,0,209.91,142.45Z" fill="#263238" stroke="#263238" stroke-linecap="round" stroke-linejoin="round" stroke-width="1"/><path d="M226.84,144.51c-1.06.11-1.88.46-1.9,1.14,0,.53.74.95,1.54,1.1a7.07,7.07,0,0,1,2.54.72c1.49.67,1.87.18,1.32-2.52C230.2,144.26,228.93,144.27,226.84,144.51Z" fill="#263238" stroke="#263238" stroke-linecap="round" stroke-linejoin="round" stroke-width="1"/><path d="M190.81,244.05a1.32,1.32,0,0,1-.84,2.32c-7.64,0-28.23.09-36.21-.37-9.9-.56-2.35-11.32,5.61-7.21C166.7,242.57,182.11,236.27,190.81,244.05Z" opacity="0.3"/><path d="M297.32,316.22a33.93,33.93,0,0,1-12.49,19.55" fill="none" stroke="#7f7f7f" stroke-linecap="round" stroke-linejoin="round" stroke-width="1"/><path d="M298.08,310.46a20.063,20.063,0,0,1-.2,2.45" fill="none" stroke="#7f7f7f" stroke-linecap="round" stroke-linejoin="round" stroke-width="1"/><path d="M197.21,320.54a25.4,25.4,0,0,1,2.85-.62" fill="none" stroke="#7f7f7f" stroke-linecap="round" stroke-linejoin="round" stroke-width="1"/><path d="M184,328.22a29.45,29.45,0,0,1,10.4-6.78" fill="none" stroke="#7f7f7f" stroke-linecap="round" stroke-linejoin="round" stroke-width="1"/><path d="M290,363.94a109.421,109.421,0,0,1-18.4,30.7" fill="none" stroke="#7f7f7f" stroke-linecap="round" stroke-linejoin="round" stroke-width="1"/><path d="M293.2,354.56q-.78,2.69-1.7,5.32" fill="none" stroke="#7f7f7f" stroke-linecap="round" stroke-linejoin="round" stroke-width="1"/><path d="M217.16,332.05a36.8,36.8,0,0,1-4.91,7.43" fill="none" stroke="#7f7f7f" stroke-linecap="round" stroke-linejoin="round" stroke-width="1"/><path d="M196.49,289.15c11.45,5.69,23,15.78,24.36,27.67l.07.85a35.261,35.261,0,0,1-2.73,12.14" fill="none" stroke="#7f7f7f" stroke-linecap="round" stroke-linejoin="round" stroke-width="1"/><path d="M190.63,286.62q1.56.57,3.15,1.26" fill="none" stroke="#7f7f7f" stroke-linecap="round" stroke-linejoin="round" stroke-width="1"/><path d="M181.18,401.74a125.65,125.65,0,0,0,26.09-39.36" fill="none" stroke="#7f7f7f" stroke-linecap="round" stroke-linejoin="round" stroke-width="1"/><path d="M264.94,313.91c1.33-.61,2.65-1.27,3.94-2" fill="none" stroke="#7f7f7f" stroke-linecap="round" stroke-linejoin="round" stroke-width="1"/><path d="M220.85,316.82c13.78,3.35,27.72,3.24,40.14-1.3" fill="none" stroke="#7f7f7f" stroke-linecap="round" stroke-linejoin="round" stroke-width="1"/><path d="M273.83,315.13a23.8,23.8,0,0,1,2.46-1.47" fill="none" stroke="#7f7f7f" stroke-linecap="round" stroke-linejoin="round" stroke-width="1"/><path d="M262.77,324.69c3.62-4.87,5.4-5.53,8.62-7.86" fill="none" stroke="#7f7f7f" stroke-linecap="round" stroke-linejoin="round" stroke-width="1"/><path d="M241.43,127.08a5.17,5.17,0,0,1-4.29,4.52,5.47,5.47,0,0,1-6.56,8.57c-2-1.55-4.87-.23-7.41-.28-4.75-.08-14.5-6.64-15.41-7a13.17,13.17,0,0,1-3.89-3.14,33.5,33.5,0,0,0-7.35-5.44l-.76-.42a8.811,8.811,0,0,0,.36,2.22,18,18,0,0,1,2.69,1.56,15.84,15.84,0,0,1,6.56,15.53c-.11.53-.31,1.14-.83,1.3-.87.26-1.39-.9-2-1.58-1.37-1.55-4.18-.51-5,1.37s-.43,3.74,0,5.61a51.55,51.55,0,0,0-3.15-9c-.76-1.64-2-3.48-3.76-3.5a3.3,3.3,0,0,0-2.82,2c0,.1-.08.18-.11.27a7.37,7.37,0,0,0-.34,3.3,3.46,3.46,0,0,0,.09.78c0,.66-.07,1.22-.09,1.62v.42c-1.62-4.23-2.37-15.28-.76-19.51,2.38-6.23,6.3-11.42,12.57-14.38a6.673,6.673,0,0,1,.66-.31,13.39,13.39,0,0,1,3.17-1c4.65-.78,9.19.75,13.74,1.69a8.7,8.7,0,0,0,3.89.2c2.41-.62,3.81-3.13,6-4.38a7.84,7.84,0,0,1,7.08-.1,14.23,14.23,0,0,1,5.45,4.83,8.89,8.89,0,0,1,2,5,3.973,3.973,0,0,1-3.07,4,5.19,5.19,0,0,1,3.34,5.25Z" fill="#263238" stroke="#263238" stroke-linecap="round" stroke-linejoin="round" stroke-width="1"/><path d="M227.75,115.66a3.44,3.44,0,0,1,1.74.18" fill="none" stroke="#7f7f7f" stroke-linecap="round" stroke-linejoin="round" stroke-width="1"/><path d="M209.82,119a9.43,9.43,0,0,0,11.64.94c1.29-.91,2.32-2.14,3.6-3.07" fill="none" stroke="#7f7f7f" stroke-linecap="round" stroke-linejoin="round" stroke-width="1"/><path d="M231.57,123.87a5.12,5.12,0,0,1,2.11.79" fill="none" stroke="#7f7f7f" stroke-linecap="round" stroke-linejoin="round" stroke-width="1"/><path d="M216.56,124.49c2.08,2.15,5.64,1.49,8.48.53a22.581,22.581,0,0,1,4.45-1.16" fill="none" stroke="#7f7f7f" stroke-linecap="round" stroke-linejoin="round" stroke-width="1"/><path d="M220.88,129.12l5.44.81a10.14,10.14,0,0,1,4.23,1.29,3.49,3.49,0,0,1,1.62,3.81c-.48,1.41-2.67,2-3.53.8" fill="none" stroke="#7f7f7f" stroke-linecap="round" stroke-linejoin="round" stroke-width="1"/><path d="M216.66,128.49l2.11.31" fill="none" stroke="#7f7f7f" stroke-linecap="round" stroke-linejoin="round" stroke-width="1"/><path d="M271,326.81q6.84-4.74,14-8.92c1.66-1,3.47-1.95,5.38-1.77.86,1.68-.21,3.67-1.36,5.17a38,38,0,0,1-12.27,10.43" fill="none" stroke="#7f7f7f" stroke-linecap="round" stroke-linejoin="round" stroke-width="1"/></g><g transform="translate(-36.4 -32.76)"><path d="M121.42,215.27a125.319,125.319,0,0,0,35.58,2,2.43,2.43,0,0,0,1.87-.74c.59-.85-.1-2-.66-2.84a13.66,13.66,0,0,1-1.76-10.85,56.84,56.84,0,0,1-32.59,12.43Z" fill="#fff" stroke="#263238" stroke-linecap="round" stroke-linejoin="round" stroke-width="1"/><rect width="50.54" height="39.58" transform="translate(147.21 254.88) rotate(180)" fill="#999" stroke="#263238" stroke-linecap="round" stroke-linejoin="round" stroke-width="1"/><rect width="34.3" height="39.58" transform="translate(146.97 215.3)" fill="#fff" stroke="#263238" stroke-linecap="round" stroke-linejoin="round" stroke-width="1"/><line x2="10.25" transform="translate(133.45 217.87)" fill="none" stroke="#263238" stroke-linecap="round" stroke-linejoin="round" stroke-width="1"/><line x2="10.87" transform="translate(100.2 217.87)" fill="none" stroke="#263238" stroke-linecap="round" stroke-linejoin="round" stroke-width="1"/><line x2="16.85" transform="translate(126.85 225.27)" fill="none" stroke="#263238" stroke-linecap="round" stroke-linejoin="round" stroke-width="1"/><line x2="14.77" transform="translate(100.2 225.27)" fill="none" stroke="#263238" stroke-linecap="round" stroke-linejoin="round" stroke-width="1"/><line x2="8.43" transform="translate(135.27 232.67)" fill="none" stroke="#263238" stroke-linecap="round" stroke-linejoin="round" stroke-width="1"/><line x2="18.73" transform="translate(100.2 232.67)" fill="none" stroke="#263238" stroke-linecap="round" stroke-linejoin="round" stroke-width="1"/><line x2="16.85" transform="translate(126.85 240.08)" fill="none" stroke="#263238" stroke-linecap="round" stroke-linejoin="round" stroke-width="1"/><line x2="6.55" transform="translate(100.2 240.08)" fill="none" stroke="#263238" stroke-linecap="round" stroke-linejoin="round" stroke-width="1"/><line x2="8.43" transform="translate(135.27 247.48)" fill="none" stroke="#263238" stroke-linecap="round" stroke-linejoin="round" stroke-width="1"/><line x2="7.62" transform="translate(100.2 247.48)" fill="none" stroke="#263238" stroke-linecap="round" stroke-linejoin="round" stroke-width="1"/><line x2="11.6" transform="translate(166.15 217.87)" fill="none" stroke="#263238" stroke-linecap="round" stroke-linejoin="round" stroke-width="1"/><line x2="5.06" transform="translate(150.49 217.87)" fill="none" stroke="#263238" stroke-linecap="round" stroke-linejoin="round" stroke-width="1"/><line x2="13.28" transform="translate(164.47 225.27)" fill="none" stroke="#263238" stroke-linecap="round" stroke-linejoin="round" stroke-width="1"/><line x2="8.13" transform="translate(150.49 225.27)" fill="none" stroke="#263238" stroke-linecap="round" stroke-linejoin="round" stroke-width="1"/><line x2="10.16" transform="translate(167.59 232.67)" fill="none" stroke="#263238" stroke-linecap="round" stroke-linejoin="round" stroke-width="1"/><line x2="11.25" transform="translate(150.49 232.67)" fill="none" stroke="#263238" stroke-linecap="round" stroke-linejoin="round" stroke-width="1"/><line x2="16.8" transform="translate(160.95 240.08)" fill="none" stroke="#263238" stroke-linecap="round" stroke-linejoin="round" stroke-width="1"/><line x2="1.64" transform="translate(150.49 240.08)" fill="none" stroke="#263238" stroke-linecap="round" stroke-linejoin="round" stroke-width="1"/><line x2="10.16" transform="translate(167.59 247.48)" fill="none" stroke="#263238" stroke-linecap="round" stroke-linejoin="round" stroke-width="1"/><line x2="2.49" transform="translate(150.49 247.48)" fill="none" stroke="#263238" stroke-linecap="round" stroke-linejoin="round" stroke-width="1"/><path d="M98.95,221.86l8.87-3.95H100.2Z" fill="#fff" stroke="#263238" stroke-linecap="round" stroke-linejoin="round" stroke-width="1"/><path d="M176.39,221.86l-8.87-3.95h7.62Z" fill="#999" stroke="#263238" stroke-linecap="round" stroke-linejoin="round" stroke-width="1"/><path d="M168.9,244.03l-8.87-3.96h12.91Z" fill="#999" stroke="#263238" stroke-linecap="round" stroke-linejoin="round" stroke-width="1"/><path d="M122.04,238.33l3.9-5.65H107.58Z" fill="#fff" stroke="#263238" stroke-linecap="round" stroke-linejoin="round" stroke-width="1"/><path d="M96.68,240.51l-5.13,7.04,5.13-.64Z" fill="#fff" stroke="#263238" stroke-linecap="round" stroke-linejoin="round" stroke-width="1"/><rect width="50.54" height="59.21" transform="translate(374.43 255.08) rotate(180)" fill="#999" stroke="#263238" stroke-linecap="round" stroke-linejoin="round" stroke-width="1"/><rect width="34.3" height="59.21" transform="translate(408.48 255.08) rotate(180)" fill="#fff" stroke="#263238" stroke-linecap="round" stroke-linejoin="round" stroke-width="1"/><line x2="6.75" transform="translate(364.16 203.28)" fill="none" stroke="#263238" stroke-linecap="round" stroke-linejoin="round" stroke-width="1"/><line x2="21.75" transform="translate(327.41 203.28)" fill="none" stroke="#263238" stroke-linecap="round" stroke-linejoin="round" stroke-width="1"/><line x2="16.85" transform="translate(354.06 210.68)" fill="none" stroke="#263238" stroke-linecap="round" stroke-linejoin="round" stroke-width="1"/><line x2="10.87" transform="translate(327.41 210.68)" fill="none" stroke="#263238" stroke-linecap="round" stroke-linejoin="round" stroke-width="1"/><line x2="10.25" transform="translate(360.66 218.08)" fill="none" stroke="#263238" stroke-linecap="round" stroke-linejoin="round" stroke-width="1"/><line x2="10.87" transform="translate(327.41 218.08)" fill="none" stroke="#263238" stroke-linecap="round" stroke-linejoin="round" stroke-width="1"/><line x2="16.85" transform="translate(354.06 225.48)" fill="none" stroke="#263238" stroke-linecap="round" stroke-linejoin="round" stroke-width="1"/><line x2="14.77" transform="translate(327.41 225.48)" fill="none" stroke="#263238" stroke-linecap="round" stroke-linejoin="round" stroke-width="1"/><line x2="8.43" transform="translate(362.48 232.88)" fill="none" stroke="#263238" stroke-linecap="round" stroke-linejoin="round" stroke-width="1"/><line x2="18.73" transform="translate(327.41 232.88)" fill="none" stroke="#263238" stroke-linecap="round" stroke-linejoin="round" stroke-width="1"/><line x2="16.85" transform="translate(354.06 240.28)" fill="none" stroke="#263238" stroke-linecap="round" stroke-linejoin="round" stroke-width="1"/><line x2="6.55" transform="translate(327.41 240.28)" fill="none" stroke="#263238" stroke-linecap="round" stroke-linejoin="round" stroke-width="1"/><line x2="8.43" transform="translate(362.48 247.68)" fill="none" stroke="#263238" stroke-linecap="round" stroke-linejoin="round" stroke-width="1"/><line x2="7.62" transform="translate(327.41 247.68)" fill="none" stroke="#263238" stroke-linecap="round" stroke-linejoin="round" stroke-width="1"/><line x2="8.84" transform="translate(396.12 203.28)" fill="none" stroke="#263238" stroke-linecap="round" stroke-linejoin="round" stroke-width="1"/><line x2="13.63" transform="translate(377.7 203.28)" fill="none" stroke="#263238" stroke-linecap="round" stroke-linejoin="round" stroke-width="1"/><line x2="16.8" transform="translate(388.16 210.68)" fill="none" stroke="#263238" stroke-linecap="round" stroke-linejoin="round" stroke-width="1"/><line x2="5.06" transform="translate(377.7 210.68)" fill="none" stroke="#263238" stroke-linecap="round" stroke-linejoin="round" stroke-width="1"/><line x2="11.6" transform="translate(393.36 218.08)" fill="none" stroke="#263238" stroke-linecap="round" stroke-linejoin="round" stroke-width="1"/><line x2="5.06" transform="translate(377.7 218.08)" fill="none" stroke="#263238" stroke-linecap="round" stroke-linejoin="round" stroke-width="1"/><line x2="13.28" transform="translate(391.68 225.48)" fill="none" stroke="#263238" stroke-linecap="round" stroke-linejoin="round" stroke-width="1"/><line x2="8.13" transform="translate(377.7 225.48)" fill="none" stroke="#263238" stroke-linecap="round" stroke-linejoin="round" stroke-width="1"/><line x2="10.16" transform="translate(394.8 232.88)" fill="none" stroke="#263238" stroke-linecap="round" stroke-linejoin="round" stroke-width="1"/><line x2="11.25" transform="translate(377.7 232.88)" fill="none" stroke="#263238" stroke-linecap="round" stroke-linejoin="round" stroke-width="1"/><line x2="16.8" transform="translate(388.16 240.28)" fill="none" stroke="#263238" stroke-linecap="round" stroke-linejoin="round" stroke-width="1"/><line x2="1.64" transform="translate(377.7 240.28)" fill="none" stroke="#263238" stroke-linecap="round" stroke-linejoin="round" stroke-width="1"/><line x2="10.16" transform="translate(394.8 247.68)" fill="none" stroke="#263238" stroke-linecap="round" stroke-linejoin="round" stroke-width="1"/><line x2="2.49" transform="translate(377.7 247.68)" fill="none" stroke="#263238" stroke-linecap="round" stroke-linejoin="round" stroke-width="1"/><path d="M354,216.33l12.69-5.65H348.34Z" fill="#fff" stroke="#263238" stroke-linecap="round" stroke-linejoin="round" stroke-width="1"/><path d="M326.16,222.07l8.87-3.95h-7.62Z" fill="#fff" stroke="#263238" stroke-linecap="round" stroke-linejoin="round" stroke-width="1"/><path d="M403.6,222.07l-8.87-3.95h7.62Z" fill="#999" stroke="#263238" stroke-linecap="round" stroke-linejoin="round" stroke-width="1"/><path d="M396.11,244.23l-8.87-3.95h12.9Z" fill="#999" stroke="#263238" stroke-linecap="round" stroke-linejoin="round" stroke-width="1"/><path d="M349.25,238.54l3.9-5.66H334.8Z" fill="#fff" stroke="#263238" stroke-linecap="round" stroke-linejoin="round" stroke-width="1"/><path d="M408.48,210.68l5.14,5.28-5.14-.64Z" fill="#999" stroke="#263238" stroke-linecap="round" stroke-linejoin="round" stroke-width="1"/><path d="M323.89,203.28l-8.65,7.03,8.65-.63Z" fill="#fff" stroke="#263238" stroke-linecap="round" stroke-linejoin="round" stroke-width="1"/><path d="M323.89,240.71l-5.13,7.04,5.13-.64Z" fill="#fff" stroke="#263238" stroke-linecap="round" stroke-linejoin="round" stroke-width="1"/><path d="M338.81,249.91s.44-3.74-6.72-5.68c-12.9-3.49-20.57,3.87-20.64,3.93-3,2.71-1.44,7.13,2.37,7.12h8.26Z" fill="#fff" stroke="#263238" stroke-linecap="round" stroke-linejoin="round" stroke-width="1"/><path d="M323.85,248.85h13.22a1.73,1.73,0,0,1,1.73,1.73v4.57H322.12v-4.57A1.73,1.73,0,0,1,323.85,248.85Z" transform="translate(660.92 504) rotate(180)" fill="#fff" stroke="#263238" stroke-linecap="round" stroke-linejoin="round" stroke-width="1"/><path d="M338.81,248.87c0-2.39-3.74-4.33-8.35-4.33s-8.34,1.94-8.34,4.33Z" fill="#fff" stroke="#263238" stroke-linecap="round" stroke-linejoin="round" stroke-width="1"/><path d="M322.12,248.87c0-2.39,3.73-4.33,8.34-4.33v4.33Z" fill="#fff" stroke="#263238" stroke-linecap="round" stroke-linejoin="round" stroke-width="1"/><path d="M210.11,254.24h24.92v-6.09l-24.92,2.61Z" fill="#999" stroke="#263238" stroke-linecap="round" stroke-linejoin="round" stroke-width="1"/><rect width="55.4" height="6.1" transform="translate(290.43 254.24) rotate(180)" fill="#5c5c5c" stroke="#263238" stroke-linecap="round" stroke-linejoin="round" stroke-width="1"/><path d="M242.47,166.43h7l-7.18,68.29h-7a2.59,2.59,0,0,1-2.62-2.93l6.57-62.44a3.32,3.32,0,0,1,3.23-2.92Z" fill="#fff" stroke="#263238" stroke-linecap="round" stroke-linejoin="round" stroke-width="1"/><path d="M238.57,234.72H327.1a3.32,3.32,0,0,0,3.23-2.93l6.57-62.44a2.59,2.59,0,0,0-2.62-2.92H245.75a3.32,3.32,0,0,0-3.23,2.92L236,231.79a2.59,2.59,0,0,0,2.57,2.93Z" fill="#999" stroke="#263238" stroke-linecap="round" stroke-linejoin="round" stroke-width="1"/><line x2="7.21" transform="translate(269.33 171.59)" fill="none" stroke="#263238" stroke-linecap="round" stroke-linejoin="round" stroke-width="1"/><path d="M244.74,194.69l1.8-15a9.16,9.16,0,0,1,9.09-8.07h9.71" fill="none" stroke="#263238" stroke-linecap="round" stroke-linejoin="round" stroke-width="1"/><rect width="44.03" height="7.03" transform="translate(313.36 255.8) rotate(180)" fill="#5c5c5c" stroke="#263238" stroke-linecap="round" stroke-linejoin="round" stroke-width="1"/><rect width="12.88" height="7.03" transform="translate(269.33 255.8) rotate(180)" fill="#263238" stroke="#263238" stroke-linecap="round" stroke-linejoin="round" stroke-width="1"/><path d="M291.72,219a7.9,7.9,0,0,0-6-6.7,6.381,6.381,0,0,1,1.65-.23,7.89,7.89,0,0,1,7.66,6.93,6.13,6.13,0,0,1-6.2,6.93,7.41,7.41,0,0,1-1.7-.23,6.07,6.07,0,0,0,4.59-6.7Z" fill="#263238" stroke="#263238" stroke-linecap="round" stroke-linejoin="round" stroke-width="1"/><path d="M276,207.07l4.39,41.7h-3.34l-4.39-41.7a1.6,1.6,0,0,1,1.63-1.81h3.34a1.61,1.61,0,0,0-1.63,1.81Z" fill="#263238" stroke="#263238" stroke-linecap="round" stroke-linejoin="round" stroke-width="1"/><path d="M276,207.07l4.39,41.7H302.1l-4.38-41.7a2.06,2.06,0,0,0-2-1.81H277.65a1.61,1.61,0,0,0-1.65,1.81Zm11.39,5a7.89,7.89,0,0,1,7.66,6.93,6.13,6.13,0,0,1-6.2,6.93,7.88,7.88,0,0,1-7.66-6.93,6.12,6.12,0,0,1,6.22-6.92Z" fill="#5c5c5c" stroke="#263238" stroke-linecap="round" stroke-linejoin="round" stroke-width="1"/><rect width="227.37" height="19.47" transform="translate(403.98 285.62) rotate(180)" fill="#5c5c5c" stroke="#263238" stroke-linecap="round" stroke-linejoin="round" stroke-width="1"/><rect width="80.94" height="19.47" transform="translate(176.61 285.62) rotate(180)" fill="#5c5c5c" stroke="#263238" stroke-linecap="round" stroke-linejoin="round" stroke-width="1"/><rect width="225.22" height="11" transform="translate(411.28 266.15) rotate(180)" fill="#8f00fc" stroke="#263238" stroke-linecap="round" stroke-linejoin="round" stroke-width="1"/><rect width="97.7" height="11" transform="translate(186.06 266.15) rotate(180)" fill="#8f00fc"/><g clip-path="url(#c)"><rect width="97.7" height="11" transform="translate(186.06 266.15) rotate(180)" opacity="0.3"/></g><rect width="97.7" height="11" transform="translate(186.06 266.15) rotate(180)" fill="none" stroke="#263238" stroke-linecap="round" stroke-linejoin="round" stroke-width="1"/><path d="M391.64,445.05h4.93l1.75-159.43h-6.68Z" fill="#999" stroke="#263238" stroke-linecap="round" stroke-linejoin="round" stroke-width="1"/><path d="M386.72,445.05h4.92V285.62h-6.68Z" fill="#858585" stroke="#263238" stroke-linecap="round" stroke-linejoin="round" stroke-width="1"/><path d="M326.63,445.05h4.92l1.76-159.43h-6.68Z" fill="#999" stroke="#263238" stroke-linecap="round" stroke-linejoin="round" stroke-width="1"/><path d="M321.7,445.05h4.93V285.62h-6.69Z" fill="#858585" stroke="#263238" stroke-linecap="round" stroke-linejoin="round" stroke-width="1"/><path d="M173.03,445.05h4.92l1.76-159.43h-6.68Z" fill="#999" stroke="#263238" stroke-linecap="round" stroke-linejoin="round" stroke-width="1"/><path d="M168.1,445.05h4.93V285.62h-6.69Z" fill="#858585" stroke="#263238" stroke-linecap="round" stroke-linejoin="round" stroke-width="1"/><path d="M108,445.05h4.93l1.76-159.43H108Z" fill="#999" stroke="#263238" stroke-linecap="round" stroke-linejoin="round" stroke-width="1"/><path d="M103.08,445.05H108V285.62h-6.67Z" fill="#858585" stroke="#263238" stroke-linecap="round" stroke-linejoin="round" stroke-width="1"/><path d="M201.83,224H206l3.1-17.93a2.06,2.06,0,0,0-2-2.41h0a2.05,2.05,0,0,0-2,1.71Z" fill="#263238" stroke="#263238" stroke-linecap="round" stroke-linejoin="round" stroke-width="1"/><path d="M189.52,224h4.38l-1.67-16.61a1.07,1.07,0,0,0-1.07-1H189a1.07,1.07,0,0,0-1.07,1.19Z" fill="#fff" stroke="#263238" stroke-linecap="round" stroke-linejoin="round" stroke-width="1"/><path d="M197.29,224.02h2.78l1.76-19.71h-2.78Z" fill="#999" stroke="#263238" stroke-linecap="round" stroke-linejoin="round" stroke-width="1"/><path d="M192.23,214.17H205a4,4,0,0,1,4,4v37.29H188.2V218.19a4,4,0,0,1,4.03-4.02Z" transform="translate(397.21 469.65) rotate(180)" fill="#fff" stroke="#263238" stroke-linecap="round" stroke-linejoin="round" stroke-width="1"/><path d="M205.49,225.27v25a1.94,1.94,0,0,1-1.93,1.94h-7.38" fill="none" stroke="#263238" stroke-linecap="round" stroke-linejoin="round" stroke-width="1"/><line y2="2.83" transform="translate(205.49 219.24)" fill="none" stroke="#263238" stroke-linecap="round" stroke-linejoin="round" stroke-width="1"/></g><g transform="translate(-36.4 -32.76)"><rect width="40.81" height="45.57" transform="translate(130.44 444.69) rotate(180)" fill="#999" stroke="#263238" stroke-linecap="round" stroke-linejoin="round" stroke-width="1"/><rect width="27.7" height="45.57" transform="translate(130.24 399.11)" fill="#fff" stroke="#263238" stroke-linecap="round" stroke-linejoin="round" stroke-width="1"/><path d="M89.87,389.82a23,23,0,0,0,13.15,4,3.319,3.319,0,0,0,1.62-.32,1.63,1.63,0,0,0,.87-1.47,2.39,2.39,0,0,0-1.15-1.62,38.52,38.52,0,0,0-9.54-5.19,35.374,35.374,0,0,0-5.2-1.49c-1.42-.3-2.93-1-4.35-1C85,385.83,87.8,388.43,89.87,389.82Z" fill="#8f00fc"/><path d="M145.93,372.12a11.58,11.58,0,0,1,7.77-4.48.63.63,0,0,1,.5.09.94.94,0,0,1,.23.71,18.61,18.61,0,0,1-3.35,11,8.47,8.47,0,0,1-3.82,3.23,4.24,4.24,0,0,1-3.5-.21c-1.06-.6-.86-1.47-.76-2.66a14.8,14.8,0,0,1,2.93-7.68Z" fill="#8f00fc"/><path d="M145.93,372.12a11.58,11.58,0,0,1,7.77-4.48.63.63,0,0,1,.5.09.94.94,0,0,1,.23.71,18.61,18.61,0,0,1-3.35,11,8.47,8.47,0,0,1-3.82,3.23,4.24,4.24,0,0,1-3.5-.21c-1.06-.6-.86-1.47-.76-2.66a14.8,14.8,0,0,1,2.93-7.68Z" opacity="0.2"/><path d="M126.91,375.72a10.89,10.89,0,0,0,2.58-6.53,11.47,11.47,0,0,0-1.61-5.77,31.122,31.122,0,0,0-3.49-4.68A102.659,102.659,0,0,0,124,372.1a7.11,7.11,0,0,0,.49,2.76,2,2,0,0,0,2,1.26Z" fill="#8f00fc"/><path d="M132.55,362.16a17.24,17.24,0,0,0-4.7,11,8.72,8.72,0,0,0,.67,4.31,3.44,3.44,0,0,0,3.18,2.15c1.35-.15,2.4-1.4,3.17-2.68,1.27-2.12,2.82-5.15,2.09-7.77a14,14,0,0,0-4.41-7.01Z" fill="#8f00fc"/><path d="M132.55,362.16a17.24,17.24,0,0,0-4.7,11,8.72,8.72,0,0,0,.67,4.31,3.44,3.44,0,0,0,3.18,2.15c1.35-.15,2.4-1.4,3.17-2.68,1.27-2.12,2.82-5.15,2.09-7.77a14,14,0,0,0-4.41-7.01Z" opacity="0.1"/><path d="M140.9,376.89c2.24-2.1,3.16-5.6,3.06-8.89a36.11,36.11,0,0,0-2.05-9.57,39.87,39.87,0,0,0-5.27,10,13.56,13.56,0,0,0-1,4.31,5.65,5.65,0,0,0,1.37,4,2.72,2.72,0,0,0,3.63.38l-.37.23Z" fill="#8f00fc"/><g opacity="0.2"><path d="M140.9,376.89c2.24-2.1,3.16-5.6,3.06-8.89a36.11,36.11,0,0,0-2.05-9.57,39.87,39.87,0,0,0-5.27,10,13.56,13.56,0,0,0-1,4.31,5.65,5.65,0,0,0,1.37,4,2.72,2.72,0,0,0,3.63.38l-.37.23Z"/></g><path d="M146,364c.56,4.07,1.11,8.24.42,12.28s-2.86,8-6.26,9.43c-1.42.59-3.24.6-4.19-.73a4.08,4.08,0,0,1-.42-3.29,11.34,11.34,0,0,1,1.46-3c2.72-4.42,8.38-15.12,8.95-14.67Z" fill="#8f00fc"/><path d="M146,364c.56,4.07,1.11,8.24.42,12.28s-2.86,8-6.26,9.43c-1.42.59-3.24.6-4.19-.73a4.08,4.08,0,0,1-.42-3.29,11.34,11.34,0,0,1,1.46-3c2.72-4.42,8.38-15.12,8.95-14.67Z" fill="#8f00fc"/><g opacity="0.1"><path d="M146,364c.56,4.07,1.11,8.24.42,12.28s-2.86,8-6.26,9.43c-1.42.59-3.24.6-4.19-.73a4.08,4.08,0,0,1-.42-3.29,11.34,11.34,0,0,1,1.46-3c2.72-4.42,8.38-15.12,8.95-14.67Z"/></g><path d="M135.5,369.46a24.571,24.571,0,0,1,2.91,7.82,13.65,13.65,0,0,1-1,8.27c-1.25,2.46-3.59,4.28-6.1,4.3a5.73,5.73,0,0,1-4.88-3c-1.16-2-.32-3.88.57-5.87C129,376.44,132.28,372.88,135.5,369.46Z" fill="#8f00fc"/><path d="M160.48,377a4.69,4.69,0,0,1,.2,3.95,9.85,9.85,0,0,1-2.19,3.26,27,27,0,0,1-22.71,8.68A2.2,2.2,0,0,1,134,392a2,2,0,0,1,.56-2.27,4.73,4.73,0,0,1,2.12-.88,36.181,36.181,0,0,0,11.87-5.41C152.19,380.85,156.56,379.1,160.48,377Z" fill="#8f00fc"/><path d="M160.48,377a4.69,4.69,0,0,1,.2,3.95,9.85,9.85,0,0,1-2.19,3.26,27,27,0,0,1-22.71,8.68A2.2,2.2,0,0,1,134,392a2,2,0,0,1,.56-2.27,4.73,4.73,0,0,1,2.12-.88,36.181,36.181,0,0,0,11.87-5.41C152.19,380.85,156.56,379.1,160.48,377Z" opacity="0.1"/><path d="M146,377c.61-.9,1.37-1.94,2.37-1.83.77.09,1.34.87,1.66,1.67,1.3,3.26-.26,7.25-2.74,9.45s-5.67,3-8.74,3.81l-3.16.8c-1.26.31-3.78-.11-2.66-2.1.75-1.33,3.27-2.08,4.43-2.87A33,33,0,0,0,146,377Z" fill="#8f00fc"/><path d="M159,389.82a23,23,0,0,1-13.16,4,3.36,3.36,0,0,1-1.62-.32,1.62,1.62,0,0,1-.86-1.47,2.36,2.36,0,0,1,1.15-1.62,38.52,38.52,0,0,1,9.54-5.19,35.379,35.379,0,0,1,5.2-1.49c1.41-.3,2.92-1,4.35-1C163.91,385.83,161.11,388.43,159,389.82Z" fill="#8f00fc"/><path d="M146.29,402a20.19,20.19,0,0,0,10.8-4.56c.61-.48,1.27-1.25,1-2a1.77,1.77,0,0,0-1.25-.95c-3.67-1.23-7.42-2.47-11.24-2.31a12.87,12.87,0,0,0-5.27,1.36c-1.29.65-4,2.26-4.34,4s3,3.1,4.19,3.58A14.08,14.08,0,0,0,146.29,402Z" fill="#8f00fc"/><path d="M146.29,402a20.19,20.19,0,0,0,10.8-4.56c.61-.48,1.27-1.25,1-2a1.77,1.77,0,0,0-1.25-.95c-3.67-1.23-7.42-2.47-11.24-2.31a12.87,12.87,0,0,0-5.27,1.36c-1.29.65-4,2.26-4.34,4s3,3.1,4.19,3.58A14.08,14.08,0,0,0,146.29,402Z" opacity="0.1"/><path d="M131,392.41a33.4,33.4,0,0,1,11.49-.62,6.51,6.51,0,0,1,2.76.79,3.23,3.23,0,0,1,1.57,2.56,3.36,3.36,0,0,1-1.42,2.69,7.9,7.9,0,0,1-2.71,1.1c-2.76.73-5.6,1.43-8.42,1.05a8.63,8.63,0,0,1-5.85-3.21C126.66,394.28,129,392.87,131,392.41Z" fill="#8f00fc"/><path d="M131,392.41a33.4,33.4,0,0,1,11.49-.62,6.51,6.51,0,0,1,2.76.79,3.23,3.23,0,0,1,1.57,2.56,3.36,3.36,0,0,1-1.42,2.69,7.9,7.9,0,0,1-2.71,1.1c-2.76.73-5.6,1.43-8.42,1.05a8.63,8.63,0,0,1-5.85-3.21C126.66,394.28,129,392.87,131,392.41Z" fill="#fff" opacity="0.1"/><path d="M119.47,392.37a6,6,0,0,1-1.88-2.07,2.72,2.72,0,0,1,.18-2.8c.87-1,5.74-2.49,7-2.77a4.84,4.84,0,0,1,3,.64c1.4.65,2.77,1.35,4.13,2.09a6.34,6.34,0,0,1,1.87,1.39,2.79,2.79,0,0,1,.66,2.33A3.34,3.34,0,0,1,132,393.3a21.929,21.929,0,0,1-8.08,1.28C124.14,394.54,120.68,393.3,119.47,392.37Z" fill="#8f00fc"/><g opacity="0.1"><path d="M119.47,392.37a6,6,0,0,1-1.88-2.07,2.72,2.72,0,0,1,.18-2.8c.87-1,5.74-2.49,7-2.77a4.84,4.84,0,0,1,3,.64c1.4.65,2.77,1.35,4.13,2.09a6.34,6.34,0,0,1,1.87,1.39,2.79,2.79,0,0,1,.66,2.33A3.34,3.34,0,0,1,132,393.3a21.929,21.929,0,0,1-8.08,1.28C124.14,394.54,120.68,393.3,119.47,392.37Z"/></g><path d="M129.35,394.29a4.61,4.61,0,0,1,2.9,2.44,3.51,3.51,0,0,1-.56,3.85,4.26,4.26,0,0,1-2.56.85l-3.32.33a2.68,2.68,0,0,1-2-.35c-.78-.63-.85-1.88-.84-3a9.07,9.07,0,0,1,.37-3,2.17,2.17,0,0,1,2.41-1.65A26.17,26.17,0,0,1,129.35,394.29Z" fill="#8f00fc"/><path d="M103,372.12a11.56,11.56,0,0,0-7.77-4.48.63.63,0,0,0-.5.09.9.9,0,0,0-.22.71,18.6,18.6,0,0,0,3.34,11,8.58,8.58,0,0,0,3.82,3.23,4.24,4.24,0,0,0,3.5-.21c1.06-.6.87-1.47.76-2.66a14.8,14.8,0,0,0-2.93-7.68Z" fill="#8f00fc"/><path d="M103,372.12a11.56,11.56,0,0,0-7.77-4.48.63.63,0,0,0-.5.09.9.9,0,0,0-.22.71,18.6,18.6,0,0,0,3.34,11,8.58,8.58,0,0,0,3.82,3.23,4.24,4.24,0,0,0,3.5-.21c1.06-.6.87-1.47.76-2.66a14.8,14.8,0,0,0-2.93-7.68Z" opacity="0.2"/><path d="M122,375.72a10.89,10.89,0,0,1-2.58-6.53,11.38,11.38,0,0,1,1.62-5.77,30.389,30.389,0,0,1,3.48-4.68,102.661,102.661,0,0,1,.36,13.36,7.12,7.12,0,0,1-.5,2.76,1.94,1.94,0,0,1-2,1.26Z" fill="#8f00fc"/><path d="M116.35,362.16a17.3,17.3,0,0,1,4.71,11,8.83,8.83,0,0,1-.67,4.31,3.44,3.44,0,0,1-3.18,2.15c-1.36-.15-2.41-1.4-3.17-2.68-1.27-2.12-2.82-5.15-2.1-7.77A14.09,14.09,0,0,1,116.35,362.16Z" fill="#8f00fc"/><path d="M116.35,362.16a17.3,17.3,0,0,1,4.71,11,8.83,8.83,0,0,1-.67,4.31,3.44,3.44,0,0,1-3.18,2.15c-1.36-.15-2.41-1.4-3.17-2.68-1.27-2.12-2.82-5.15-2.1-7.77A14.09,14.09,0,0,1,116.35,362.16Z" opacity="0.1"/><path d="M108,376.89c-2.25-2.1-3.16-5.6-3.06-8.89a36.11,36.11,0,0,1,2-9.57,39.871,39.871,0,0,1,5.27,10,13.54,13.54,0,0,1,1,4.31,5.65,5.65,0,0,1-1.37,4,2.72,2.72,0,0,1-3.63.38l.38.23Z" fill="#8f00fc"/><g opacity="0.2"><path d="M108,376.89c-2.25-2.1-3.16-5.6-3.06-8.89a36.11,36.11,0,0,1,2-9.57,39.871,39.871,0,0,1,5.27,10,13.54,13.54,0,0,1,1,4.31,5.65,5.65,0,0,1-1.37,4,2.72,2.72,0,0,1-3.63.38l.38.23Z"/></g><path d="M102.89,364c-.56,4.07-1.11,8.24-.43,12.28s2.87,8,6.27,9.43c1.41.59,3.24.6,4.19-.73a4.08,4.08,0,0,0,.41-3.29,11.34,11.34,0,0,0-1.46-3c-2.71-4.42-8.37-15.12-9-14.67Z" fill="#8f00fc"/><path d="M102.89,364c-.56,4.07-1.11,8.24-.43,12.28s2.87,8,6.27,9.43c1.41.59,3.24.6,4.19-.73a4.08,4.08,0,0,0,.41-3.29,11.34,11.34,0,0,0-1.46-3c-2.71-4.42-8.37-15.12-9-14.67Z" fill="#8f00fc"/><g opacity="0.1"><path d="M102.89,364c-.56,4.07-1.11,8.24-.43,12.28s2.87,8,6.27,9.43c1.41.59,3.24.6,4.19-.73a4.08,4.08,0,0,0,.41-3.29,11.34,11.34,0,0,0-1.46-3c-2.71-4.42-8.37-15.12-9-14.67Z"/></g><path d="M113.4,369.46a24.55,24.55,0,0,0-2.9,7.82,13.65,13.65,0,0,0,1,8.27c1.25,2.46,3.6,4.28,6.1,4.3a5.74,5.74,0,0,0,4.89-3c1.16-2,.31-3.88-.57-5.87C120,376.44,116.62,372.88,113.4,369.46Z" fill="#8f00fc"/><path d="M88.42,377.3a4.55,4.55,0,0,0-.2,3.87,9.46,9.46,0,0,0,2.15,3.19,26.44,26.44,0,0,0,22.26,8.51,2.13,2.13,0,0,0,1.77-.9,1.94,1.94,0,0,0-.55-2.22,4.56,4.56,0,0,0-2.07-.86,35.42,35.42,0,0,1-11.64-5.31C96.54,381.1,92.26,379.37,88.42,377.3Z" fill="#8f00fc"/><path d="M88.42,377.3a4.55,4.55,0,0,0-.2,3.87,9.46,9.46,0,0,0,2.15,3.19,26.44,26.44,0,0,0,22.26,8.51,2.13,2.13,0,0,0,1.77-.9,1.94,1.94,0,0,0-.55-2.22,4.56,4.56,0,0,0-2.07-.86,35.42,35.42,0,0,1-11.64-5.31C96.54,381.1,92.26,379.37,88.42,377.3Z" opacity="0.1"/><path d="M102.23,376.69c-.6-.88-1.35-1.91-2.33-1.8-.76.09-1.31.86-1.63,1.65-1.27,3.2.25,7.11,2.69,9.27s5.56,3,8.58,3.74l3.11.79c1.23.31,3.7-.11,2.6-2.06-.74-1.31-3.2-2-4.35-2.82a32.32,32.32,0,0,1-8.67-8.77Z" fill="#8f00fc"/><path d="M102.61,402a20.12,20.12,0,0,1-10.79-4.56c-.61-.48-1.28-1.25-1-2a1.77,1.77,0,0,1,1.25-.95c3.67-1.23,7.42-2.47,11.25-2.31a13,13,0,0,1,5.27,1.36c1.29.65,4,2.26,4.34,4s-3,3.1-4.19,3.58A14.12,14.12,0,0,1,102.61,402Z" fill="#8f00fc"/><path d="M102.61,402a20.12,20.12,0,0,1-10.79-4.56c-.61-.48-1.28-1.25-1-2a1.77,1.77,0,0,1,1.25-.95c3.67-1.23,7.42-2.47,11.25-2.31a13,13,0,0,1,5.27,1.36c1.29.65,4,2.26,4.34,4s-3,3.1-4.19,3.58A14.12,14.12,0,0,1,102.61,402Z" opacity="0.1"/><path d="M117.93,392.41a33.469,33.469,0,0,0-11.5-.62,6.55,6.55,0,0,0-2.76.79,3.22,3.22,0,0,0-1.56,2.56,3.36,3.36,0,0,0,1.42,2.69,7.931,7.931,0,0,0,2.7,1.1c2.77.73,5.61,1.43,8.43,1.05a8.63,8.63,0,0,0,5.85-3.21C122.25,394.28,120,392.87,117.93,392.41Z" fill="#8f00fc"/><path d="M117.93,392.41a33.469,33.469,0,0,0-11.5-.62,6.55,6.55,0,0,0-2.76.79,3.22,3.22,0,0,0-1.56,2.56,3.36,3.36,0,0,0,1.42,2.69,7.931,7.931,0,0,0,2.7,1.1c2.77.73,5.61,1.43,8.43,1.05a8.63,8.63,0,0,0,5.85-3.21C122.25,394.28,120,392.87,117.93,392.41Z" fill="#fff" opacity="0.1"/><path d="M129.44,392.37a5.821,5.821,0,0,0,1.87-2.07,2.72,2.72,0,0,0-.17-2.8c-.88-1-5.74-2.49-7-2.77a4.86,4.86,0,0,0-3,.64c-1.39.65-2.77,1.35-4.12,2.09a6.38,6.38,0,0,0-1.88,1.39,2.78,2.78,0,0,0-.65,2.33,3.31,3.31,0,0,0,2.39,2.12,21.9,21.9,0,0,0,8.08,1.28C124.77,394.54,128.23,393.3,129.44,392.37Z" fill="#8f00fc"/><g opacity="0.1"><path d="M129.44,392.37a5.821,5.821,0,0,0,1.87-2.07,2.72,2.72,0,0,0-.17-2.8c-.88-1-5.74-2.49-7-2.77a4.86,4.86,0,0,0-3,.64c-1.39.65-2.77,1.35-4.12,2.09a6.38,6.38,0,0,0-1.88,1.39,2.78,2.78,0,0,0-.65,2.33,3.31,3.31,0,0,0,2.39,2.12,21.9,21.9,0,0,0,8.08,1.28C124.77,394.54,128.23,393.3,129.44,392.37Z"/></g><path d="M119.55,394.29a4.64,4.64,0,0,0-2.9,2.44,3.51,3.51,0,0,0,.57,3.85,4.23,4.23,0,0,0,2.55.85l3.33.33a2.68,2.68,0,0,0,2-.35c.77-.63.84-1.88.83-3a8.59,8.59,0,0,0-.37-3,2.16,2.16,0,0,0-2.41-1.65,26.612,26.612,0,0,0-3.6.53Z" fill="#8f00fc"/><path d="M125,370.5a2.279,2.279,0,0,0-.59-.36.38.38,0,0,1,.2,0,.19.19,0,0,1,.12,0h0a.26.26,0,0,1,.11.08l.09.12a.33.33,0,0,1,0,.12.05.05,0,0,1,.07.04Z" fill="#8f00fc"/><path d="M125,370.5h0a2.279,2.279,0,0,0-.59-.36.38.38,0,0,1,.2,0,.19.19,0,0,1,.12,0h0a.26.26,0,0,1,.11.08l.09.12a.33.33,0,0,1,0,.12.05.05,0,0,1,.07.04Z" fill="#8f00fc" opacity="0.1"/><path d="M129.18,381.79a9.07,9.07,0,0,1-1.72,3,3.81,3.81,0,0,1-2.88,1.4h-.26a3.84,3.84,0,0,1-2.88-1.4,9.42,9.42,0,0,1-1.72-3,9.87,9.87,0,0,1-.71-4.68,8.09,8.09,0,0,1,2.34-4.49c.3,0,1.28-1.14,1.58-1.37l.09-.06.09-.08c.21-.16.49-.41.76-.62l.37-.25.11-.05a.24.24,0,0,1,.1-.05,2.279,2.279,0,0,1,.59.36h0c.37.27.74.61.93.75s1.28,1.37,1.59,1.37a8.08,8.08,0,0,1,2.33,4.49A9.75,9.75,0,0,1,129.18,381.79Z" fill="#8f00fc"/><path d="M124.45,370.14a.24.24,0,0,0-.1.05l-.11.05-.37.25c.09-.23.21-.38.39-.39a.36.36,0,0,1,.19.04Z" fill="#8f00fc"/><g opacity="0.2"><path d="M129.18,381.79a9.07,9.07,0,0,1-1.72,3,3.81,3.81,0,0,1-2.88,1.4h-.26a3.84,3.84,0,0,1-2.88-1.4,9.42,9.42,0,0,1-1.72-3,9.87,9.87,0,0,1-.71-4.68,8.09,8.09,0,0,1,2.34-4.49c.3,0,1.28-1.14,1.58-1.37s.58-.48.94-.76a2.351,2.351,0,0,1,.58-.35,2.13,2.13,0,0,1,.59.36c.37.27.74.61.93.75s1.28,1.37,1.59,1.37a8.08,8.08,0,0,1,2.33,4.49,9.75,9.75,0,0,1-.71,4.68Z" fill="#fff"/><path d="M124.45,370.14a2.351,2.351,0,0,0-.58.35c.09-.23.21-.38.39-.39a.36.36,0,0,1,.19.04Z" fill="#fff"/></g><path d="M125,370.5a2.13,2.13,0,0,0-.59-.36.38.38,0,0,1,.2,0A.339.339,0,0,1,125,370.5Z" fill="#fff" opacity="0.1"/></g><g transform="translate(-36.4 -32.76)"><path d="M266.44,32.76V48.7H262.5" fill="none" stroke="#263238" stroke-linecap="round" stroke-linejoin="round" stroke-width="1"/><line y1="15.94" transform="translate(262.5 32.76)" fill="none" stroke="#263238" stroke-linecap="round" stroke-linejoin="round" stroke-width="1"/><path d="M262.5,46.3a35.08,35.08,0,0,0-35.08,35.08h70.16A35.09,35.09,0,0,0,262.5,46.3Z" fill="#fff"/><g clip-path="url(#d)"><path d="M256,46.91q1.61-.3,3.24-.45a35.08,35.08,0,0,1,31.83,34.92h-6.5A35.08,35.08,0,0,0,256,46.91Z" fill="#999"/></g><path d="M262.5,46.3a35.08,35.08,0,0,0-35.08,35.08h70.16A35.09,35.09,0,0,0,262.5,46.3Z" fill="none" stroke="#263238" stroke-linecap="round" stroke-linejoin="round" stroke-width="1"/></g></g></svg>