<svg xmlns="http://www.w3.org/2000/svg" xmlns:xlink="http://www.w3.org/1999/xlink" width="475.61" height="397" viewBox="0 0 475.61 397"><defs><clipPath id="a"><path d="M163.824,143.444h0l-6.156-40.784L139.425,106.4l-9.1,5.865s-10.856,8.517-10.856,9.39,18.366,31.606,18.366,31.606a34.046,34.046,0,0,0,25.988-9.815Z" transform="translate(-119.47 -102.66)" fill="#fff" stroke="#263238" stroke-linecap="round" stroke-linejoin="round" stroke-width="1"/></clipPath><clipPath id="b"><path d="M128.39,105.178a69.659,69.659,0,0,1,2.641,8.215c.582,2.932,8.506,7.924,9.379,8.215s1.466-9.39,1.466-9.39l-2.339-11.438Z" transform="translate(-128.39 -100.78)" fill="#fff" stroke="#263238" stroke-linecap="round" stroke-linejoin="round" stroke-width="1"/></clipPath><clipPath id="c"><path d="M120.42,93.684s2.518,10.487,7.924,15.669,11.192,5.227,13.2-4.007c1.645-7.611-2.44-17.762-2.44-17.762S125.915,76.728,120.42,93.684Z" transform="translate(-120.42 -84.162)" fill="#fff" stroke="#263238" stroke-linecap="round" stroke-linejoin="round" stroke-width="1"/></clipPath><clipPath id="d"><path d="M120.551,119.65,110.4,160.5l29.771,8.439,1.466-5.283-19.552-9.021,6.637-23.5s-.873-4.4-5.6-9.379" transform="translate(-110.4 -119.65)" fill="#fff" stroke="#263238" stroke-linecap="round" stroke-linejoin="round" stroke-width="1"/></clipPath><clipPath id="e"><path d="M199.113,133.948l-22.541-4.734-23.022-26.6,3.4,21.4,14.124,13.453,28.383,1.3Z" transform="translate(-153.55 -102.61)" fill="#fff" stroke="#263238" stroke-linecap="round" stroke-linejoin="round" stroke-width="1"/></clipPath><clipPath id="f"><path d="M415.972,352.608H131.46a6.29,6.29,0,0,1-6.29-6.29v-159.2a6.29,6.29,0,0,1,6.29-6.29h.772a6.323,6.323,0,0,0,5.853-3.962l4.331-10.89a6.122,6.122,0,0,1,2.518-3.022,8.058,8.058,0,0,1,4.074-1.119h73.129a8.081,8.081,0,0,1,2.876.526,6.1,6.1,0,0,1,3.022,2.641l7.443,12.681a6.29,6.29,0,0,0,5.428,3.111H415.972a6.29,6.29,0,0,1,6.29,6.29V346.318a6.29,6.29,0,0,1-6.29,6.29Z" transform="translate(-125.17 -161.84)" fill="#8f00fc" stroke="#263238" stroke-miterlimit="10" stroke-width="1"/></clipPath><clipPath id="g"><rect width="314.921" height="195.222" rx="5.27" fill="#fff" stroke="#263238" stroke-miterlimit="10" stroke-width="1"/></clipPath><clipPath id="h"><path d="M396.946,233.054l-2.641-7.9-2.966-4.063a.4.4,0,0,0-.739.246v11.707l2.238,2.944Z" transform="translate(-390.599 -220.908)" fill="#8f00fc" stroke="#263238" stroke-miterlimit="10" stroke-width="1"/></clipPath><clipPath id="i"><path d="M442.306,244.3a12.043,12.043,0,0,0-2.238,4.578c-.325,2.149.19,10.42.19,10.42l-11.528,1.3s.873-8.405.918-9.8a12.468,12.468,0,0,1,6.1-8.282C439.709,240.562,443.078,241.513,442.306,244.3Z" transform="translate(-428.73 -241.483)" fill="#fff" stroke="#263238" stroke-miterlimit="10" stroke-width="1.004"/></clipPath><clipPath id="j"><path d="M445.707,247.216c9.558-12.625-13.486-25.742-19.541-13.2a23.634,23.634,0,0,0-1.992,4.88c-.918.56-3.358,2.059-3.805,2.473s1.119,1.477,1.981,2c-1.645,4.04-1.4,8.293-.929,9.256.817,1.656,4.846,1.679,7.5,1.186s3.7-3.033,4.477-3.727,4.622.19,5.977.593S443.849,249.712,445.707,247.216Z" transform="translate(-420.29 -228.942)" fill="#fff" stroke="#263238" stroke-miterlimit="10" stroke-width="1"/></clipPath><clipPath id="k"><path d="M427.8,260.541s-5.294,5.988-7.4,8.45-2.115,28.887-2.115,32.77-2.1,14.427,1.41,16.542,25.014,1.41,27.129-2.115,3.514-45.787,3.167-49.659a10.778,10.778,0,0,0-6-8.1C441.544,257.3,427.8,260.541,427.8,260.541Z" transform="translate(-417.662 -258.186)" fill="#fff" stroke="#263238" stroke-miterlimit="10" stroke-width="1"/></clipPath></defs><g transform="translate(32.546)"><path d="M414.5,88.975c-55.4-31.662-104.466-5.6-129.01,22.16s-42.832,55.792-73.643,60.941-77.561-7.913-112.39,16.62-34.7,89.693-7.118,126.638,98.926,54.606,181.243,66.481a217.013,217.013,0,0,0,88.54-4.913l37.392-13.576c18.265-8.338,33.576-17.728,46.536-25.35,19.72-11.64,26.671-40.011,30.442-60.8a250.353,250.353,0,0,0-1.4-94.013C466.837,144.151,448,108.1,414.5,88.975Z" transform="translate(-72.424 -74.473)" fill="#8f00fc"/><path d="M414.5,88.975c-55.4-31.662-104.466-5.6-129.01,22.16s-42.832,55.792-73.643,60.941-77.561-7.913-112.39,16.62-34.7,89.693-7.118,126.638,98.926,54.606,181.243,66.481a217.013,217.013,0,0,0,88.54-4.913l37.392-13.576c18.265-8.338,33.576-17.728,46.536-25.35,19.72-11.64,26.671-40.011,30.442-60.8a250.353,250.353,0,0,0-1.4-94.013C466.837,144.151,448,108.1,414.5,88.975Z" transform="translate(-72.424 -74.473)" fill="#fff" opacity="0.8"/><path d="M456.8,124.43c-1.253-20.683-15.378-27.465-24.331-17.616a17.482,17.482,0,0,0-3.212,17.907c3.145,8.495,8.551,23.57,11.774,35.367,4.745,17.415,3.156,30.868,8.7,23.749S458.377,150.552,456.8,124.43Z" transform="translate(-30.03 -71.148)" fill="#8f00fc" opacity="0.8"/><path d="M456.8,124.43c-1.253-20.683-15.378-27.465-24.331-17.616a17.482,17.482,0,0,0-3.212,17.907c3.145,8.495,8.551,23.57,11.774,35.367,4.745,17.415,3.156,30.868,8.7,23.749S458.377,150.552,456.8,124.43Z" transform="translate(-30.03 -71.148)" fill="#fff" opacity="0.8"/><path d="M240.676,123.738c8.7-1.578,19.776-22.16,34.024-30.868s1.589-15.042-11.841-8.707c0,0-10.3,2.373-18.209,18.209S231.968,125.316,240.676,123.738Z" transform="translate(-52.924 -73.624)" fill="#8f00fc"/><path d="M240.676,123.738c8.7-1.578,19.776-22.16,34.024-30.868s1.589-15.042-11.841-8.707c0,0-10.3,2.373-18.209,18.209S231.968,125.316,240.676,123.738Z" transform="translate(-52.924 -73.624)" fill="#fff" opacity="0.8"/><path d="M227.755,111.6c7.062-2.832,14.762-22.059,6.715-21.075a5.977,5.977,0,0,0-4.645,3.581C227.251,99.824,221.4,114.139,227.755,111.6Z" transform="translate(-54.25 -72.564)" fill="#8f00fc"/><path d="M227.755,111.6c7.062-2.832,14.762-22.059,6.715-21.075a5.977,5.977,0,0,0-4.645,3.581C227.251,99.824,221.4,114.139,227.755,111.6Z" transform="translate(-54.25 -72.564)" fill="#fff" opacity="0.8"/></g><g transform="translate(22.737 380.167)"><ellipse cx="226.437" cy="8.416" rx="226.437" ry="8.416" fill="#8f00fc"/><ellipse cx="226.437" cy="8.416" rx="226.437" ry="8.416" fill="#fff" opacity="0.8"/></g><g transform="translate(322.291 72.219)"><path d="M367.024,139a1.679,1.679,0,0,0-1.679,1.679v8.607H334.668v-8.607a1.679,1.679,0,1,0-3.358,0V357.468a1.679,1.679,0,1,0,3.358,0V308.973h30.677v48.495a1.679,1.679,0,0,0,3.358,0V140.645A1.679,1.679,0,0,0,367.024,139Zm-1.679,166.649H334.668V294.77h30.677Zm0-14.247H334.668V280.534h30.677Zm0-14.236H334.668V266.332h30.677Zm0-14.225H334.668V252.151h30.677Zm0-14.214H334.668V238.06h30.677Zm0-14.169H334.668V223.824h30.677Zm0-14.1H334.668V209.622h30.677Zm0-14.236H334.668V195.385h30.677Zm0-14.2H334.668V181.149h30.677Zm0-14.236H334.668V166.89h30.677Zm0-14.247H334.668v-10.89h30.677Z" transform="translate(-331.31 -139)" fill="#fff"/></g><g transform="translate(0 182.363)"><path d="M104.892,299.867s25.126-34.393,12.871-42.53c-12.748-8.405-18.735,17.057-21.433,29.558-5.753,26.682-4.13,32.345-.269,26.48Z" transform="translate(-37.477 -235.237)" fill="#8f00fc"/><path d="M104.892,299.867s25.126-34.393,12.871-42.53c-12.748-8.405-18.735,17.057-21.433,29.558-5.753,26.682-4.13,32.345-.269,26.48Z" transform="translate(-37.477 -235.237)" fill="#fff" opacity="0.5"/><path d="M113.717,318.268s34.93-24.376,25.965-35.993c-9.323-12.1-23.257,10.073-29.871,21-14.113,23.369-14.4,29.256-8.853,24.958Z" transform="translate(-36.878 -232.484)" fill="#8f00fc"/><path d="M113.717,318.268s34.93-24.376,25.965-35.993c-9.323-12.1-23.257,10.073-29.871,21-14.113,23.369-14.4,29.256-8.853,24.958Z" transform="translate(-36.878 -232.484)" fill="#fff" opacity="0.5"/><path d="M114.153,342.243s30.218-13.576,25.059-23.761c-5.372-10.6-19.239,4.309-25.876,11.718-14.18,15.826-15.255,20.28-10.386,17.806Z" transform="translate(-36.552 -228.188)" fill="#8f00fc"/><path d="M114.153,342.243s30.218-13.576,25.059-23.761c-5.372-10.6-19.239,4.309-25.876,11.718-14.18,15.826-15.255,20.28-10.386,17.806Z" transform="translate(-36.552 -228.188)" fill="#fff" opacity="0.5"/><path d="M115.752,367.612s30.218-13.576,25.07-23.761c-5.383-10.588-19.239,4.309-25.887,11.729-14.169,15.826-15.255,20.28-10.375,17.8Z" transform="translate(-36.361 -225.164)" fill="#8f00fc"/><path d="M115.752,367.612s30.218-13.576,25.07-23.761c-5.383-10.588-19.239,4.309-25.887,11.729-14.169,15.826-15.255,20.28-10.375,17.8Z" transform="translate(-36.361 -225.164)" fill="#fff" opacity="0.5"/><path d="M87.268,309.9S54.05,283.23,45.421,295.094C36.467,307.405,61.6,314.6,73.972,317.87c26.391,6.973,32.121,5.6,26.436,1.477Z" transform="translate(-43.322 -230.9)" fill="#8f00fc"/><path d="M87.268,309.9S54.05,283.23,45.421,295.094C36.467,307.405,61.6,314.6,73.972,317.87c26.391,6.973,32.121,5.6,26.436,1.477Z" transform="translate(-43.322 -230.9)" fill="#fff" opacity="0.5"/><path d="M88.275,329.066s-37.851-19.541-43.951-6.189c-6.346,13.889,19.732,15.9,32.457,16.643,27.253,1.589,32.6-.9,26.212-3.805Z" transform="translate(-43.345 -227.782)" fill="#8f00fc"/><path d="M88.275,329.066s-37.851-19.541-43.951-6.189c-6.346,13.889,19.732,15.9,32.457,16.643,27.253,1.589,32.6-.9,26.212-3.805Z" transform="translate(-43.345 -227.782)" fill="#fff" opacity="0.5"/><path d="M91.632,351.125s-32.457-15.669-37.3-4.219C49.281,358.8,71.374,359.9,82.2,360.224c23.078.716,27.544-1.522,22.071-3.761Z" transform="translate(-42.123 -224.86)" fill="#8f00fc"/><path d="M91.632,351.125s-32.457-15.669-37.3-4.219C49.281,358.8,71.374,359.9,82.2,360.224c23.078.716,27.544-1.522,22.071-3.761Z" transform="translate(-42.123 -224.86)" fill="#fff" opacity="0.5"/><path d="M93.022,369.486S62.4,350.46,56.369,361.327c-6.279,11.293,15.579,14.729,26.3,16.206,22.876,3.156,27.544,1.421,22.384-1.455Z" transform="translate(-41.925 -223.042)" fill="#8f00fc"/><path d="M93.022,369.486S62.4,350.46,56.369,361.327c-6.279,11.293,15.579,14.729,26.3,16.206,22.876,3.156,27.544,1.421,22.384-1.455Z" transform="translate(-41.925 -223.042)" fill="#fff" opacity="0.5"/><path d="M90.016,282.625s-5.753-49.95-24.622-44.846c-19.6,5.327-3.19,30.6,5.137,42.821,17.695,26.01,24.208,28.875,22.809,20.75Z" transform="translate(-41.818 -237.413)" fill="#8f00fc"/><path d="M90.016,282.625s-5.753-49.95-24.622-44.846c-19.6,5.327-3.19,30.6,5.137,42.821,17.695,26.01,24.208,28.875,22.809,20.75Z" transform="translate(-41.818 -237.413)" fill="#fff" opacity="0.5"/><path d="M67.86,254s28.719,53.811,33.173,78.792c5.126,28.7,5.954,60.75,2.417,85.865" transform="translate(-40.422 -235.436)" fill="none" stroke="#8f00fc" stroke-linecap="round" stroke-linejoin="round" stroke-width="1.252"/><line y1="43.089" x2="14.068" transform="translate(56.078 37.647)" fill="none" stroke="#8f00fc" stroke-linecap="round" stroke-linejoin="round" stroke-width="1.252"/><line y1="33.296" x2="26.48" transform="translate(60.611 64.06)" fill="none" stroke="#8f00fc" stroke-linecap="round" stroke-linejoin="round" stroke-width="1.252"/><line x1="38.344" y1="16.105" transform="translate(20.577 75.196)" fill="none" stroke="#8f00fc" stroke-linecap="round" stroke-linejoin="round" stroke-width="1.252"/><line y1="22.093" x2="28.831" transform="translate(63.935 97.815)" fill="none" stroke="#8f00fc" stroke-linecap="round" stroke-linejoin="round" stroke-width="1.252"/><line x1="30.118" y1="6.268" transform="translate(32.284 104.161)" fill="none" stroke="#8f00fc" stroke-linecap="round" stroke-linejoin="round" stroke-width="1.252"/><line x1="23.324" y1="3.693" transform="translate(40.521 129.802)" fill="none" stroke="#8f00fc" stroke-linecap="round" stroke-linejoin="round" stroke-width="1.252"/><line y1="14.057" x2="15.691" transform="translate(65.815 134.368)" fill="none" stroke="#8f00fc" stroke-linecap="round" stroke-linejoin="round" stroke-width="1.252"/><line x1="26.805" y1="6.738" transform="translate(38.697 148.011)" fill="none" stroke="#8f00fc" stroke-linecap="round" stroke-linejoin="round" stroke-width="1.252"/><path d="M84.13,383.01h31.685v6.559H113.05l-5.719,35.781H92.614l-5.719-35.781H84.13Z" transform="translate(-38.483 -220.058)" fill="#8f00fc"/><path d="M84.13,383.01h31.685v6.559H113.05l-5.719,35.781H92.614l-5.719-35.781H84.13Z" transform="translate(-38.483 -220.058)" fill="#fff" opacity="0.5"/></g><g transform="translate(75.048 4.815)"><path d="M133.112,81.4a10.319,10.319,0,0,0-10.274-2.048C116.683,81.4,110.784,90.3,112.273,97.829c1.041,5.215,5.876,12.9,7.342,15.837s-.593,7.89-5.249,18.187-6.458,19.955,7.04,28.461,28.775-4.992,36.609-14.673-5.876-31.976-7.051-41.41S147.774,76.71,133.112,81.4Z" transform="translate(-110.337 -78.775)" fill="#263238"/><path d="M162.2,139.1a32.322,32.322,0,0,1-25.854,9.334l-3.235,13.486,6.156,30.789,40.191-20.828-9.1-23.5Z" transform="translate(-107.693 -71.585)" fill="#8f00fc" stroke="#263238" stroke-linecap="round" stroke-linejoin="round" stroke-width="1"/><path d="M162.2,139.1a32.322,32.322,0,0,1-25.854,9.334l-3.235,13.486,6.156,30.789,40.191-20.828-9.1-23.5Z" transform="translate(-107.693 -71.585)" fill="#263238" opacity="0.3"/><path d="M163.824,143.444h0l-6.156-40.784L139.425,106.4l-9.1,5.865s-10.856,8.517-10.856,9.39,18.366,31.606,18.366,31.606a34.046,34.046,0,0,0,25.988-9.815Z" transform="translate(-109.319 -75.928)" fill="#fff"/><g transform="translate(10.151 26.732)" clip-path="url(#a)"><path d="M170.315,152.784l-8.215-9.39-6.156-40.784L137.758,106.4l-4.3,2.776,1.365,18.489a10.755,10.755,0,0,0,3.626,1.3c1.3,0,2.339-2.854,2.339-2.854l1.556-2.6a5.708,5.708,0,0,0,5.977.526c3.626-1.567,1.556-7.275,1.03-9.345s4.936-.783,4.936-.783,4.41,9.6,4.936,12.714-2.339,11.684-2.082,13.509.257,5.182-.772,6.223-4.678,6.715-4.678,6.715,15.322,1.3,16.878,1.3a13.161,13.161,0,0,0,2.238-.436Z" transform="translate(-117.802 -102.666)" fill="none" opacity="0.5"/></g><path d="M163.824,143.444h0l-6.156-40.784L139.425,106.4l-9.1,5.865s-10.856,8.517-10.856,9.39,18.366,31.606,18.366,31.606a34.046,34.046,0,0,0,25.988-9.815Z" transform="translate(-109.319 -75.928)" fill="none" stroke="#263238" stroke-linecap="round" stroke-linejoin="round" stroke-width="1"/><path d="M137.408,138.311s12.86-9.536,11.673-6.715-10.073,9.86-12.457,10.073S137.408,138.311,137.408,138.311Z" transform="translate(-107.38 -72.541)" fill="#8f00fc" opacity="0.5"/><path d="M137.58,122.028l.5.526,3.134,3.313.806,12.725,3.839-.6-3.033-11.919,4.857,10.1,4.04-4.04-8.685-7.879-.213-6.256-4.443-2.227" transform="translate(-107.16 -74.367)" fill="#263238"/><path d="M131.676,108.192s-3.816,1.757-3.816,5.271,4.13,11.875,6.715,13.632,7.017-6.29,7.017-6.29,6.715,3.223,8.506.291-4.107-12.613-7.913-15.255S131.676,108.192,131.676,108.192Z" transform="translate(-108.319 -75.641)" fill="#fff" stroke="#263238" stroke-linecap="round" stroke-linejoin="round" stroke-width="1"/><path d="M128.39,105.178a69.659,69.659,0,0,1,2.641,8.215c.582,2.932,8.506,7.924,9.379,8.215s1.466-9.39,1.466-9.39l-2.339-11.438Z" transform="translate(-108.256 -76.152)" fill="#fff"/><g transform="translate(20.134 24.628)" clip-path="url(#b)"><path d="M139.7,101.9a11.371,11.371,0,0,0-1.5-.313l-8.092,2.854-1.063,2.776c.537,1.5,1.22,3.514,1.634,5.148a9.009,9.009,0,0,0,4.622,1.936c2.429.168,4.566-1.712,6.077-4.018Z" transform="translate(-128.311 -100.683)" fill="#8f00fc" opacity="0.5"/></g><path d="M128.39,105.178a69.659,69.659,0,0,1,2.641,8.215c.582,2.932,8.506,7.924,9.379,8.215s1.466-9.39,1.466-9.39l-2.339-11.438Z" transform="translate(-108.256 -76.152)" fill="none" stroke="#263238" stroke-linecap="round" stroke-linejoin="round" stroke-width="1"/><path d="M124.014,100.374s-3.234-2.63-3.234,0,2.943,4.107,5.283,4.107" transform="translate(-109.163 -76.34)" fill="#fff" stroke="#263238" stroke-linecap="round" stroke-linejoin="round" stroke-width="1"/><path d="M139.13,92.793s2.059-3.223,2.641.3a8.954,8.954,0,0,1-1.757,6.447Z" transform="translate(-106.975 -77.265)" fill="#fff" stroke="#263238" stroke-linecap="round" stroke-linejoin="round" stroke-width="1"/><path d="M124.014,100.374s-3.234-2.63-3.234,0,2.943,4.107,5.283,4.107" transform="translate(-109.163 -76.34)" fill="#8f00fc" stroke="#263238" stroke-linecap="round" stroke-linejoin="round" stroke-width="1" opacity="0.5"/><path d="M139.13,92.793s2.059-3.223,2.641.3a8.954,8.954,0,0,1-1.757,6.447Z" transform="translate(-106.975 -77.265)" fill="#8f00fc" stroke="#263238" stroke-linecap="round" stroke-linejoin="round" stroke-width="1" opacity="0.5"/><path d="M120.42,93.684s2.518,10.487,7.924,15.669,11.192,5.227,13.2-4.007c1.645-7.611-2.44-17.762-2.44-17.762S125.915,76.728,120.42,93.684Z" transform="translate(-109.206 -78.133)" fill="#fff"/><g transform="translate(11.214 6.028)" clip-path="url(#c)"><path d="M128.81,84.171l2.048,5.148s3.223-.716,5.036,3.179,3.637,9.6,2.6,14.024c-1,4.208-3.358,5.6-7,5.7,3.962,1.69,7.555,0,9.043-6.894,1.645-7.611-2.44-17.762-2.44-17.762S133.634,83.9,128.81,84.171Z" transform="translate(-119.42 -84.162)" fill="#8f00fc" opacity="0.5"/></g><path d="M120.42,93.684s2.518,10.487,7.924,15.669,11.192,5.227,13.2-4.007c1.645-7.611-2.44-17.762-2.44-17.762S125.915,76.728,120.42,93.684Z" transform="translate(-109.206 -78.133)" fill="none" stroke="#263238" stroke-linecap="round" stroke-linejoin="round" stroke-width="1"/><path d="M129.527,97.7c.313.593.257,1.231-.123,1.433s-.94-.123-1.242-.716-.257-1.22.123-1.421S129.224,97.119,129.527,97.7Z" transform="translate(-108.306 -76.61)" fill="#263238"/><path d="M134.744,96.1c.224.627.078,1.254-.325,1.388s-.918-.246-1.119-.873-.078-1.254.325-1.388S134.52,95.491,134.744,96.1Z" transform="translate(-107.682 -76.818)" fill="#263238"/><path d="M135.376,93.046a2.518,2.518,0,0,0-3.044.179c-1.612,1.254,1.433,7.532,1.433,7.532s.056,1.981-2.485,1.063" transform="translate(-107.911 -77.125)" fill="none" stroke="#263238" stroke-linecap="round" stroke-linejoin="round" stroke-width="0.5"/><path d="M135.417,102.66a2.888,2.888,0,0,1-4.477,1.119" transform="translate(-107.952 -75.928)" fill="none" stroke="#263238" stroke-linecap="round" stroke-linejoin="round" stroke-width="0.5"/><path d="M129.289,94.564s-2.865-2.7-4.119,2.507" transform="translate(-108.639 -76.977)" fill="none" stroke="#263238" stroke-linecap="round" stroke-linejoin="round" stroke-width="0.5"/><path d="M139.742,84.633c-3.145-2.731-5.686-2.7-6.794-2.339a7.51,7.51,0,0,0-3.436-1.119c-8.8-1.175-9.972,5.6-9.972,12.031s-5.6,14.08-1.757,14.964a4.589,4.589,0,0,0,5.283-2.641s4.107-6.715,4.107-11.449,5.115-4.287,5.115-4.287h0a2.731,2.731,0,0,1,4.119-.47c2.328,1.992,2.6,4.331,4.477,4.936s5.025-2.417,5.025-2.417A44.276,44.276,0,0,0,139.742,84.633Z" transform="translate(-109.68 -78.505)" fill="#263238"/><path d="M132.366,85.944s-3.537-2.843-6.715.347-2.832,9.222-3.895,13.128-3.906,4.611-3.906,4.611" transform="translate(-109.512 -78.06)" fill="none" stroke="#fff" stroke-linecap="round" stroke-linejoin="round" stroke-width="0.5"/><path d="M129.82,85.021S126,81.238,121.2,86.028c-3.66,3.671-2.026,6.077-2.742,12.11" transform="translate(-109.439 -78.2)" fill="none" stroke="#fff" stroke-linecap="round" stroke-linejoin="round" stroke-width="0.5"/><path d="M132.41,84.3s6.715-3.19,9.58,4.969" transform="translate(-107.776 -78.19)" fill="none" stroke="#fff" stroke-linecap="round" stroke-linejoin="round" stroke-width="0.5"/><path d="M120.551,119.65,110.4,160.5l29.771,8.439,1.466-5.283-19.552-9.021,6.637-23.5s-.873-4.4-5.6-9.379" transform="translate(-110.4 -73.903)" fill="#fff"/><g transform="translate(0 45.747)" clip-path="url(#d)"><path d="M141.3,163.1l-19.552-9.021,6.637-23.5a18.041,18.041,0,0,0-2.5-5.473l-.638-.481v6.491c0,4.152-5.193,17.392-7.017,20.5s-4.667,7.006-4.667,7.006l5.708-2.6,21.634,8.663Z" transform="translate(-110.022 -119.058)" fill="#8f00fc" opacity="0.5"/></g><path d="M120.551,119.65,110.4,160.5l29.771,8.439,1.466-5.283-19.552-9.021,6.637-23.5s-.873-4.4-5.6-9.379" transform="translate(-110.4 -73.903)" fill="none" stroke="#263238" stroke-linecap="round" stroke-linejoin="round" stroke-width="1"/><path d="M199.113,133.948l-22.541-4.734-23.022-26.6,3.4,21.4,14.124,13.453,28.383,1.3Z" transform="translate(-105.256 -75.934)" fill="#fff"/><g transform="translate(48.294 26.676)" clip-path="url(#e)"><path d="M153.55,102.61l2.742,17.079,1.746,5.339.224.2c.66-.683,4.387-4.555,5.339-4.555s11.684,9.345,10.129,10.073l-1.567.772,26.738,4.41.19-2.048-22.5-4.723Z" transform="translate(-153.55 -102.61)" fill="#8f00fc" opacity="0.5"/></g><path d="M199.113,133.948l-22.541-4.734-23.022-26.6,3.4,21.4,14.124,13.453,28.383,1.3Z" transform="translate(-105.256 -75.934)" fill="none" stroke="#263238" stroke-linecap="round" stroke-linejoin="round" stroke-width="1"/><path d="M413.158,357.276l-287.042-42.06a3.481,3.481,0,0,1-2.932-3.951L147.09,148.187a3.47,3.47,0,0,1,3.94-2.932l5.439.795a3.458,3.458,0,0,0,3.514-1.7l7.219-12.479a3.291,3.291,0,0,1,.873-1.007,8,8,0,0,1,5.853-1.433l72.356,10.61a7.991,7.991,0,0,1,4.331,2.082,3.358,3.358,0,0,1,.739,1.119l6.435,15.937a3.458,3.458,0,0,0,2.72,2.138l177.561,26.033a3.481,3.481,0,0,1,2.944,3.94L417.109,354.355a3.481,3.481,0,0,1-3.951,2.921Z" transform="translate(-108.881 -72.747)" fill="#263238" stroke="#263238" stroke-miterlimit="10" stroke-width="1"/><path d="M415.972,352.608H131.46a6.29,6.29,0,0,1-6.29-6.29v-159.2a6.29,6.29,0,0,1,6.29-6.29h.772a6.323,6.323,0,0,0,5.853-3.962l4.331-10.89a6.122,6.122,0,0,1,2.518-3.022,8.058,8.058,0,0,1,4.074-1.119h73.129a8.081,8.081,0,0,1,2.876.526,6.1,6.1,0,0,1,3.022,2.641l7.443,12.681a6.29,6.29,0,0,0,5.428,3.111H415.972a6.29,6.29,0,0,1,6.29,6.29V346.318a6.29,6.29,0,0,1-6.29,6.29Z" transform="translate(-108.639 -68.874)" fill="#8f00fc"/><g transform="translate(16.531 92.966)" clip-path="url(#f)"><path d="M415.972,352.608H131.46a6.29,6.29,0,0,1-6.29-6.29v-159.2a6.29,6.29,0,0,1,6.29-6.29h.772a6.323,6.323,0,0,0,5.853-3.962l4.331-10.89a6.122,6.122,0,0,1,2.518-3.022,8.058,8.058,0,0,1,4.074-1.119h73.129a8.081,8.081,0,0,1,2.876.526,6.1,6.1,0,0,1,3.022,2.641l7.443,12.681a6.29,6.29,0,0,0,5.428,3.111H415.972a6.29,6.29,0,0,1,6.29,6.29V346.318a6.29,6.29,0,0,1-6.29,6.29Z" transform="translate(-125.17 -161.84)" fill="#263238" opacity="0.1"/></g><path d="M415.972,352.608H131.46a6.29,6.29,0,0,1-6.29-6.29v-159.2a6.29,6.29,0,0,1,6.29-6.29h.772a6.323,6.323,0,0,0,5.853-3.962l4.331-10.89a6.122,6.122,0,0,1,2.518-3.022,8.058,8.058,0,0,1,4.074-1.119h73.129a8.081,8.081,0,0,1,2.876.526,6.1,6.1,0,0,1,3.022,2.641l7.443,12.681a6.29,6.29,0,0,0,5.428,3.111H415.972a6.29,6.29,0,0,1,6.29,6.29V346.318a6.29,6.29,0,0,1-6.29,6.29Z" transform="translate(-108.639 -68.874)" fill="none" stroke="#263238" stroke-miterlimit="10" stroke-width="1"/><path d="M202.285,179.2H156.756a4.1,4.1,0,0,1-4.1-4.1h0a4.1,4.1,0,0,1,4.1-4.107h45.529a4.107,4.107,0,0,1,4.107,4.107h0a4.1,4.1,0,0,1-4.107,4.1Z" transform="translate(-105.363 -67.782)" fill="#fff"/><path d="M415.972,377.427H131.46a6.29,6.29,0,0,1-6.29-6.29v-159.2a6.29,6.29,0,0,1,6.29-6.29h.772a6.312,6.312,0,0,0,5.853-3.962l4.331-10.879a6.077,6.077,0,0,1,2.518-3.022,7.958,7.958,0,0,1,4.074-1.119h73.129a8.081,8.081,0,0,1,2.876.526,6.066,6.066,0,0,1,3.022,2.652l7.443,12.692a6.29,6.29,0,0,0,5.428,3.111H415.972a6.29,6.29,0,0,1,6.29,6.29v159.2A6.29,6.29,0,0,1,415.972,377.427Z" transform="translate(-108.639 -65.914)" fill="#263238" stroke="#263238" stroke-miterlimit="10" stroke-width="1"/><path d="M221.684,150.466l-45.171-5.6a4.119,4.119,0,0,1-3.57-4.578h0a4.107,4.107,0,0,1,4.589-3.559l45.16,5.6a4.107,4.107,0,0,1,3.57,4.578h0a4.1,4.1,0,0,1-4.578,3.559Z" transform="translate(-102.948 -71.87)" fill="#8f00fc"/><path d="M221.684,150.466l-45.171-5.6a4.119,4.119,0,0,1-3.57-4.578h0a4.107,4.107,0,0,1,4.589-3.559l45.16,5.6a4.107,4.107,0,0,1,3.57,4.578h0a4.1,4.1,0,0,1-4.578,3.559Z" transform="translate(-102.948 -71.87)" fill="#fff" opacity="0.5"/><path d="M202.285,204.035H156.756a4.1,4.1,0,0,1-4.1-4.107h0a4.107,4.107,0,0,1,4.1-4.107h45.529a4.107,4.107,0,0,1,4.107,4.107h0A4.107,4.107,0,0,1,202.285,204.035Z" transform="translate(-105.363 -64.823)" fill="#8f00fc"/><path d="M202.285,204.035H156.756a4.1,4.1,0,0,1-4.1-4.107h0a4.107,4.107,0,0,1,4.1-4.107h45.529a4.107,4.107,0,0,1,4.107,4.107h0A4.107,4.107,0,0,1,202.285,204.035Z" transform="translate(-105.363 -64.823)" fill="#fff" opacity="0.5"/><rect width="314.921" height="195.222" rx="5.27" transform="translate(7.611 187.617)" fill="#fff"/><g transform="translate(7.611 187.617)" clip-path="url(#g)"><path d="M430.143,293.36a471.766,471.766,0,0,1-117.628,80.471c-63.627,30.431-136.352,51.4-178.725,62.205H424.234a5.9,5.9,0,0,0,5.909-5.9Z" transform="translate(-115.222 -240.814)" fill="#8f00fc"/><path d="M430.143,293.36a471.766,471.766,0,0,1-117.628,80.471c-63.627,30.431-136.352,51.4-178.725,62.205H424.234a5.9,5.9,0,0,0,5.909-5.9Z" transform="translate(-115.222 -240.814)" fill="#fff" opacity="0.2"/></g><rect width="314.921" height="195.222" rx="5.27" transform="translate(7.611 187.617)" fill="none" stroke="#263238" stroke-miterlimit="10" stroke-width="1"/><path d="M121.27,263.193v-7.834a5.909,5.909,0,0,1,5.909-5.9h12.815" transform="translate(-109.104 -58.429)" fill="none" stroke="#263238" stroke-miterlimit="10" stroke-width="1"/><line y1="109.435" transform="translate(12.166 214.31)" fill="none" stroke="#263238" stroke-miterlimit="10" stroke-width="1"/><path d="M396.228,401.4v12.39a5.9,5.9,0,0,1-5.9,5.909H380" transform="translate(-78.263 -40.318)" fill="none" stroke="#263238" stroke-miterlimit="10" stroke-width="1"/><line y2="149.861" transform="translate(317.965 202.01)" fill="none" stroke="#263238" stroke-miterlimit="10" stroke-width="1"/><rect width="99.754" height="53.89" rx="2.73" transform="translate(115.188 259)" fill="#263238" stroke="#263238" stroke-miterlimit="10" stroke-width="1"/><rect width="99.754" height="16.385" rx="2.73" transform="translate(115.188 259)" fill="#fff" stroke="#263238" stroke-miterlimit="10" stroke-width="1"/><path d="M137,164.332l2.048,3.816,4.354,3.134a1.69,1.69,0,0,0,1.9.067l.381-.246a1.332,1.332,0,0,0,.526-1.679l-2.473-5.686,1.668,1.3a1.287,1.287,0,0,0,1.78-.2h0a1.3,1.3,0,0,0,0-1.623L143.3,158.3l-4.857.75Z" transform="translate(-107.229 -69.296)" fill="#fff" stroke="#263238" stroke-miterlimit="10" stroke-width="1"/><line x1="3.895" y1="5.115" transform="translate(34.606 96.693)" fill="none" stroke="#263238" stroke-linecap="round" stroke-linejoin="round" stroke-width="0.5"/><line x1="3.055" y1="4.052" transform="translate(33.162 97.935)" fill="none" stroke="#263238" stroke-linecap="round" stroke-linejoin="round" stroke-width="0.5"/><path d="M194.26,130.61l6.088.358,7.409,4.734s.414,1.444-.616,1.645-6.592-1.847-6.592-1.847l-5.943-.078Z" transform="translate(-100.404 -72.597)" fill="#fff" stroke="#263238" stroke-miterlimit="10" stroke-width="1"/><path d="M194.54,134.306l6.391,2.888s1.03-1.444-.414-2.059l-2.1-1.444" transform="translate(-100.37 -72.229)" fill="#fff" stroke="#263238" stroke-linejoin="round" stroke-width="1"/></g><g transform="translate(379.303 163.89)"><path d="M396.946,233.054l-2.641-7.9-2.966-4.063a.4.4,0,0,0-.739.246v11.707l2.238,2.944Z" transform="translate(-381.254 -220.908)" fill="#fff"/><path d="M439.751,266.31l-22.16.783a4.309,4.309,0,0,1-3.984-2.339l-16.9-32.994s-3.805,2.059-4.1,2.932,12.513,32.983,16.441,42.843a4.309,4.309,0,0,0,4.175,2.708l24.768-1.052" transform="translate(-381.015 -219.614)" fill="#fff" stroke="#263238" stroke-miterlimit="10" stroke-width="1"/><line x1="3.47" y2="1.433" transform="translate(13.845 16.253)" fill="#fff" stroke="#263238" stroke-miterlimit="10" stroke-width="0.75"/><g transform="translate(11.591 12.146)" opacity="0.5"><path d="M439.751,266.31l-22.16.783a4.309,4.309,0,0,1-3.984-2.339l-16.9-32.994s-3.805,2.059-4.1,2.932,12.513,32.983,16.441,42.843a4.309,4.309,0,0,0,4.175,2.708l24.768-1.052" transform="translate(-392.606 -231.76)" fill="#8f00fc" stroke="#263238" stroke-miterlimit="10" stroke-width="1"/><line x1="3.47" y2="1.433" transform="translate(2.254 4.107)" fill="#8f00fc" stroke="#263238" stroke-miterlimit="10" stroke-width="0.75"/></g><path d="M396.946,233.054l-2.641-7.9-2.966-4.063a.4.4,0,0,0-.739.246v11.707l2.238,2.944Z" transform="translate(-381.254 -220.908)" fill="#8f00fc"/><g transform="translate(9.345)" clip-path="url(#h)"><path d="M396.946,233.054l-2.641-7.9-2.966-4.063a.4.4,0,0,0-.739.246v11.707l2.238,2.944Z" transform="translate(-390.599 -220.908)" fill="#fff" opacity="0.5"/></g><path d="M396.946,233.054l-2.641-7.9-2.966-4.063a.4.4,0,0,0-.739.246v11.707l2.238,2.944Z" transform="translate(-381.254 -220.908)" fill="none" stroke="#263238" stroke-miterlimit="10" stroke-width="1"/><path d="M442.306,244.3a12.043,12.043,0,0,0-2.238,4.578c-.325,2.149.19,10.42.19,10.42l-11.528,1.3s.873-8.405.918-9.8a12.468,12.468,0,0,1,6.1-8.282C439.709,240.562,443.078,241.513,442.306,244.3Z" transform="translate(-376.709 -218.455)" fill="#fff"/><g transform="translate(52.021 23.028)" clip-path="url(#i)"><path d="M442.167,244.264c-2.093-.571-4.633-1.209-6.782-1.724a12.513,12.513,0,0,0-5.831,8.114c0,.537-.157,2.1-.313,3.828,1.119-.257,2.9-.649,4.219-.884a18.525,18.525,0,0,0,3.078-.772l-.392,6.715h.257l3.76-.425s-.515-8.271-.19-10.42A11.762,11.762,0,0,1,442.167,244.264Z" transform="translate(-428.669 -241.357)" fill="#8f00fc" opacity="0.5"/></g><path d="M442.306,244.3a12.043,12.043,0,0,0-2.238,4.578c-.325,2.149.19,10.42.19,10.42l-11.528,1.3s.873-8.405.918-9.8a12.468,12.468,0,0,1,6.1-8.282C439.709,240.562,443.078,241.513,442.306,244.3Z" transform="translate(-376.709 -218.455)" fill="none" stroke="#263238" stroke-miterlimit="10" stroke-width="1.004"/><path d="M445.707,247.216c9.558-12.625-13.486-25.742-19.541-13.2a23.634,23.634,0,0,0-1.992,4.88c-.918.56-3.358,2.059-3.805,2.473s1.119,1.477,1.981,2c-1.645,4.04-1.4,8.293-.929,9.256.817,1.656,4.846,1.679,7.5,1.186s3.7-3.033,4.477-3.727,4.622.19,5.977.593S443.849,249.712,445.707,247.216Z" transform="translate(-377.715 -219.95)" fill="#fff"/><g transform="translate(42.575 8.992)" clip-path="url(#j)"><path d="M436.036,244.19s.2.951-1.724,1.724-2.306.19-2.876,1.533a4.79,4.79,0,0,1-3.839,3.458,45.966,45.966,0,0,1-5.518.705c1.522.851,4.544.783,6.715.392,2.641-.481,3.7-3.033,4.477-3.727s4.622.19,5.977.593a2.462,2.462,0,0,0,.962,0,10.5,10.5,0,0,0,.9-3.559Z" transform="translate(-420.076 -227.124)" fill="#8f00fc" opacity="0.5"/></g><path d="M445.707,247.216c9.558-12.625-13.486-25.742-19.541-13.2a23.634,23.634,0,0,0-1.992,4.88c-.918.56-3.358,2.059-3.805,2.473s1.119,1.477,1.981,2c-1.645,4.04-1.4,8.293-.929,9.256.817,1.656,4.846,1.679,7.5,1.186s3.7-3.033,4.477-3.727,4.622.19,5.977.593S443.849,249.712,445.707,247.216Z" transform="translate(-377.715 -219.95)" fill="none" stroke="#263238" stroke-miterlimit="10" stroke-width="1"/><path d="M426.441,238.96c-.246.537-.66.873-.929.75s-.291-.66,0-1.2.66-.873.929-.75S426.688,238.423,426.441,238.96Z" transform="translate(-377.117 -218.902)" fill="#263238"/><path d="M426.12,235.771s1.119-.929,1.343,1.209" transform="translate(-377.02 -219.16)" fill="none" stroke="#263238" stroke-linecap="round" stroke-linejoin="round" stroke-width="0.5"/><path d="M421.93,243.78s0,1.119,2.015,1.119" transform="translate(-377.519 -218.182)" fill="none" stroke="#263238" stroke-linecap="round" stroke-linejoin="round" stroke-width="0.5"/><path d="M420.206,309.22l-.884,10.946s-6.122,43.582-5.831,48.585.951,56.688.951,56.688l7.376,1.175,8.282-57.325,11.629-58.254Z" transform="translate(-378.527 -210.381)" fill="#8f00fc" stroke="#263238" stroke-miterlimit="10" stroke-width="1"/><path d="M420.206,309.22l-.884,10.946s-6.122,43.582-5.831,48.585.951,56.688.951,56.688l7.376,1.175,8.282-57.325,11.629-58.254Z" transform="translate(-378.527 -210.381)" fill="#263238" opacity="0.2"/><path d="M428.925,344.79s-2.832,16.665-4.969,24.835-2.126,16.318-2.126,25.182-3.19,25.2-3.19,25.2" transform="translate(-377.912 -206.141)" fill="none" stroke="#263238" stroke-miterlimit="10" stroke-width="0.75"/><path d="M434.139,307.113c4.857-2.552,10.073-4.242,11.561-.851,2.955,6.782-.582,17.09-.582,17.09l2.7,47.544,4.936,57.359-7.376-1.186s-11.326-48.405-13.095-51.36-4.555-44.4-4.555-44.4l-5.6-5.092" transform="translate(-377.496 -210.96)" fill="#8f00fc" stroke="#263238" stroke-miterlimit="10" stroke-width="1"/><g transform="translate(44.634 93.402)" opacity="0.2"><path d="M434.139,307.113c4.857-2.552,10.073-4.242,11.561-.851,2.955,6.782-.582,17.09-.582,17.09l2.7,47.544,4.936,57.359-7.376-1.186s-11.326-48.405-13.095-51.36-4.555-44.4-4.555-44.4l-5.6-5.092" transform="translate(-422.13 -304.362)" fill="#263238"/></g><path d="M438,339c.168,11.024,1.287,16.329,2.16,19.239,1.063,3.548.705,10.285.705,13.43s-1.421-.705,1.78,13.845,5.316,34.762,5.316,34.762" transform="translate(-375.604 -206.831)" fill="none" stroke="#263238" stroke-miterlimit="10" stroke-width="0.75"/><path d="M438,317.53s.347-.716,0,15.96v2.6" transform="translate(-375.604 -209.391)" fill="none" stroke="#263238" stroke-miterlimit="10" stroke-width="0.75"/><path d="M423.518,314.7l-.235,4.992-1.153,3.47,1.724,2.015" transform="translate(-377.496 -209.728)" fill="none" stroke="#263238" stroke-linecap="round" stroke-linejoin="round" stroke-width="0.75"/><path d="M421.35,317.36s2.888,2.888,10.386,2.015" transform="translate(-377.589 -209.411)" fill="none" stroke="#263238" stroke-linecap="round" stroke-linejoin="round" stroke-width="0.75"/><path d="M439.327,316.412c5.6-1.119,5.954-2.664,7.89-3.962a16.15,16.15,0,0,0-1.119-6.189c-1.466-3.358-6.715-1.7-11.561.851l-2.35,3.716-12.613-1.03-.4,4.947a41.208,41.208,0,0,0,20.157,1.668Z" transform="translate(-377.848 -210.959)" fill="#263238"/><path d="M420.633,312.28l-.123,1.97,3.2.739.246-2.585Z" transform="translate(-377.689 -210.016)" fill="#fff" stroke="#263238" stroke-miterlimit="10" stroke-width="0.75"/><path d="M440.637,315.469l-.537-4.9,1.623-.537.817,4.354" transform="translate(-375.353 -210.284)" fill="#8f00fc" stroke="#263238" stroke-miterlimit="10" stroke-width="1"/><path d="M429.516,316.959l-1.086-5.719h2.72l1.086,4.9" transform="translate(-376.745 -210.14)" fill="#8f00fc" stroke="#263238" stroke-miterlimit="10" stroke-width="1"/><g transform="translate(51.685 99.746)" opacity="0.2"><path d="M440.637,315.469l-.537-4.9,1.623-.537.817,4.354" transform="translate(-427.039 -310.03)" fill="#263238"/><path d="M429.516,316.959l-1.086-5.719h2.72l1.086,4.9" transform="translate(-428.43 -309.886)" fill="#263238"/></g><path d="M419.192,270.46s-.929,6.212-3.716,16.788-5.6,23.257-5.6,23.257l1.556,6.514,4.645-6.827Z" transform="translate(-378.956 -215.001)" fill="#263238" stroke="#263238" stroke-miterlimit="10" stroke-width="1"/><path d="M425.956,262.86s-6.514,1.545-7.129,4.645a25.739,25.739,0,0,0-.627,4.343l9.927-8.058,12.412-4.969Z" transform="translate(-377.964 -216.389)" fill="#263238" stroke="#263238" stroke-miterlimit="10" stroke-width="1"/><path d="M427.8,260.541s-5.294,5.988-7.4,8.45-2.115,28.887-2.115,32.77-2.1,14.427,1.41,16.542,25.014,1.41,27.129-2.115,3.514-45.787,3.167-49.659a10.778,10.778,0,0,0-6-8.1C441.544,257.3,427.8,260.541,427.8,260.541Z" transform="translate(-378.028 -216.464)" fill="#fff"/><g transform="translate(39.634 41.722)" clip-path="url(#k)"><path d="M443.6,258.421a2.81,2.81,0,0,0-.918-.2l-1.522.795a14.437,14.437,0,0,1,4.992,8.26,43.907,43.907,0,0,1-.19,14.2c-.761,5.182-13.05,0-10.744,1.925s10.935,5.182,11.326,6.905-4.275,4.6-5.954,4.8,1.119,4.029,2.876,7.286,1.119,7.834-2.876,10.946-13.274,4.645-17.28,4.8c-1.3,0-2.1.336-2.35.716,6.156,1.377,23.582.481,25.473-2.675,2.115-3.525,3.514-45.787,3.167-49.659a10.778,10.778,0,0,0-6-8.1Z" transform="translate(-417.269 -258.182)" fill="#8f00fc" opacity="0.5"/></g><path d="M427.8,260.541s-5.294,5.988-7.4,8.45-2.115,28.887-2.115,32.77-2.1,14.427,1.41,16.542,25.014,1.41,27.129-2.115,3.514-45.787,3.167-49.659a10.778,10.778,0,0,0-6-8.1C441.544,257.3,427.8,260.541,427.8,260.541Z" transform="translate(-378.028 -216.464)" fill="none" stroke="#263238" stroke-miterlimit="10" stroke-width="1"/><path d="M437.524,284.955c-5.674-1.768-10.644-6.715-10.644-6.715a24.007,24.007,0,0,0,9.58,14.55" transform="translate(-376.929 -214.074)" fill="#fff" stroke="#263238" stroke-linecap="round" stroke-linejoin="round" stroke-width="0.75"/><path d="M442.163,254.94l-16.911,3.872-1.052,4.936,19.015-4.936Z" transform="translate(-377.249 -216.851)" fill="#fff" stroke="#263238" stroke-miterlimit="10" stroke-width="1"/><path d="M423.941,421.627l-.985-7.431-7.376-1.175-6.144,4.376-5.507,3.022v1.209Z" transform="translate(-379.665 -198.008)" fill="#263238" stroke="#263238" stroke-miterlimit="10" stroke-width="1"/><path d="M452.434,422.092l-.918-6.905L444.141,414,438,418.376l-5.507,3.033v.683Z" transform="translate(-376.261 -197.891)" fill="#263238" stroke="#263238" stroke-miterlimit="10" stroke-width="1"/><path d="M394,226.281l-4.544-2.63s-1.768-.213-1.007,1.757l4.544,3.5" transform="translate(-381.533 -220.582)" fill="#fff" stroke="#263238" stroke-linecap="round" stroke-linejoin="round" stroke-width="1"/><path d="M394.046,233a4.545,4.545,0,0,0-.929-1.455l-.851-.918h0l-4.622-5.73s-1.433-.963-1.119,1.119l2.865,5.6L384.3,226.83s-.963-.795-.963.325,4.622,6.055,4.622,6.055l-5.1-2.4s-1.119.795-.313,1.589,5.092,2.4,5.092,2.4l-3.816-.157s-1.119.951-.325,1.276,5.26,1.265,5.26,1.265a6.357,6.357,0,0,0,1.914,1.119l1.119,2.071,4.286-2.16Z" transform="translate(-382.249 -220.459)" fill="#fff" stroke="#263238" stroke-linecap="round" stroke-linejoin="round" stroke-width="1"/><path d="M438.793,281.241l-25.54,5.988a5.742,5.742,0,0,1-6.346-3.57L390.79,238.89l4.286-2.16,17.807,32.983a3.984,3.984,0,0,0,4.3,2.026l19.53-5.518" transform="translate(-381.231 -219.022)" fill="#fff"/><path d="M438.793,281.241l-25.54,5.988a5.742,5.742,0,0,1-6.346-3.57L390.79,238.89l4.286-2.16,17.807,32.983a3.984,3.984,0,0,0,4.3,2.026l19.53-5.518" transform="translate(-381.231 -219.022)" fill="none" stroke="#263238" stroke-miterlimit="10" stroke-width="1"/><line x1="4.969" y2="2.485" transform="translate(11.282 21.927)" fill="none" stroke="#263238" stroke-miterlimit="10" stroke-width="0.75"/><path d="M431.745,235.051s-2.72,2.72-1.365,4.757a13.555,13.555,0,0,1,1.813,3.839s-1.119,2.72-.224,2.72.448-2.037,2.037-1.578,3.167,3.167,1.813,4.074a15.467,15.467,0,0,1-3.2,1.343.761.761,0,0,0-.157,1.388,10.778,10.778,0,0,0,4.936,1.791,17.3,17.3,0,0,0,4.3-.448s4.477-6.111,7.7-7.7,1.813-8.831,1.813-9.737-3.167-2.943-3.167-2.943.907-2.037-3.167-6.559-11.774-5.439-12-3.85a2.238,2.238,0,0,0,.907,2.238s-6.794-2.944-9.961.224S431.745,235.051,431.745,235.051Z" transform="translate(-377.362 -220.846)" fill="#263238" stroke="#263238" stroke-miterlimit="10" stroke-width="1"/><path d="M430.84,233.6s5.507,6.715,13.665,7.364" transform="translate(-376.457 -219.395)" fill="none" stroke="#fff" stroke-linecap="round" stroke-linejoin="round" stroke-width="0.5"/><path d="M429.1,235.43s2.563,7.454,13.162,9.58" transform="translate(-376.665 -219.177)" fill="none" stroke="#fff" stroke-linecap="round" stroke-linejoin="round" stroke-width="0.5"/></g></svg>