<svg xmlns="http://www.w3.org/2000/svg" width="502.938" height="397" viewBox="0 0 502.938 397"><g transform="translate(-62.14 -100.788)"><g transform="translate(62.14 100.788)"><path d="M524.215,220.522s-15.154-33.848-73.055-78.4S321.981,92.238,289.028,110.946s-40.089,38.311-69.487,72.16S150.054,230.317,107.293,251.7,53.842,322.08,68.086,365.736s68.605,47.211,102.453,35.625,81.073-66.814,167.477-53.452,88.2,53.452,173.717,56.124S563.408,283.768,524.215,220.522Zm-420.49,79.736-.8-8.018,8.018-.815.815,8.018Zm117.513,52.5L219.3,344.89l7.871-1.938,1.938,7.871Zm29.612-93.7-14.459-5.652,5.679-14.459,14.459,5.679Zm19.8-73.108-1.938-7.871,7.871-1.938,1.938,7.871ZM374.725,244.2l-1.938-7.871,7.871-1.938,1.938,7.871Zm30.374,93.54-14.419-5.679,5.652-14.512,14.392,5.733Zm10.356-168.746L401,163.315l5.719-14.459,14.419,5.666Zm113.1,188.176-.8-8.018,8.018-.815.8,8.018Z" transform="translate(-62.14 -100.788)" fill="#8f00fc"/></g><g transform="translate(99.128 355.995)"><path d="M456.551,370.023a164.364,164.364,0,0,0-34.409,3.568l-69.581-42.146c8.993-4.209,14.459-9.768,14.459-15.875,0-13.136-25.323-23.8-56.565-23.8s-56.578,10.69-56.578,23.8c0,6.227,5.706,11.893,15.02,16.142l-66.814,42.414a162.6,162.6,0,0,0-36.841-4.009c-41.652,0-75.42,14.2-75.42,31.724s33.768,31.723,75.42,31.723,75.42-14.2,75.42-31.723c0-9.514-9.969-18.04-25.737-23.853l66.226-42.133a126.492,126.492,0,0,0,59.051-.12l68.511,41.492c-16.837,5.813-27.568,14.7-27.568,24.521,0,17.519,33.768,31.723,75.42,31.723s75.42-14.2,75.42-31.723S498.2,370.023,456.551,370.023ZM218.692,399.755c0,11.318-23.92,20.5-53.452,20.5s-53.452-9.18-53.452-20.5,23.92-20.485,53.452-20.485,53.425,9.18,53.425,20.485Zm51.714-85.736c0-8.485,17.946-15.367,40.089-15.367s40.089,6.882,40.089,15.367-17.933,15.354-40.089,15.354-40.115-6.869-40.115-15.354ZM456.578,420.254c-29.505,0-53.452-9.18-53.452-20.5s23.92-20.485,53.452-20.485,53.452,9.18,53.452,20.485-23.973,20.5-53.478,20.5Z" transform="translate(-89.82 -291.77)" fill="#ea4335"/></g><g transform="translate(126.144 187.641)"><path d="M178.216,358.789s14.125-1.617,16.5-2.753,5.559.454,3.9,2.258a114.337,114.337,0,0,1-10.69,10.129c-3.354,2.566-10.757,7.724-12.855,7.109S169.41,364,169.41,364,175.958,362.985,178.216,358.789Z" transform="translate(-90.07 -101.933)" fill="#fff"/><path d="M175.588,376.347a1.642,1.642,0,0,1-.521,0c-2.258-.641-5.252-9.354-6.12-12.027a.748.748,0,0,1,.067-.561.7.7,0,0,1,.481-.307s6.227-.976,8.285-4.864a.655.655,0,0,1,.508-.347c3.9-.454,14.432-1.817,16.289-2.673a4.249,4.249,0,0,1,4.944.775,1.911,1.911,0,0,1-.254,2.539,116.408,116.408,0,0,1-10.69,10.209C186.853,370.361,178.809,376.347,175.588,376.347Zm-5.131-11.719c1.657,4.891,4.009,10.076,4.984,10.37,1.416.414,7.35-3.234,12.267-6.989a116.033,116.033,0,0,0,10.57-10.062c.441-.481.254-.722.174-.828a2.98,2.98,0,0,0-3.3-.374c-2.272,1.082-13.871,2.485-16.37,2.779-2.018,3.461-6.508,4.8-8.325,5.131Z" transform="translate(-90.235 -102.12)" fill="#263238"/><path d="M123.9,368.753s9.434,6.4,11.693,7.817,5.546.9,5.345,3.541-6.508,2.151-12.361,2.405a39.154,39.154,0,0,1-16.664-3.835c-3.381-1.751.414-7.563,1.042-10.223S123.9,368.753,123.9,368.753Z" transform="translate(-109.869 -98)" fill="#fff"/><path d="M127.814,383.364a40.463,40.463,0,0,1-16.035-3.929c-3.06-1.577-1.4-5.6-.187-8.539a19.411,19.411,0,0,0,.882-2.419,1.764,1.764,0,0,1,.869-1.123c2.445-1.443,10.116.682,10.984.922a.817.817,0,0,1,.187.094c.094.067,9.448,6.4,11.679,7.791a8.765,8.765,0,0,0,2.352.909c1.617.468,3.461.989,3.234,3.274-.267,2.753-4.664,2.833-9.742,2.913-1.069,0-2.178,0-3.261.094Zm-12.027-15.18a4.009,4.009,0,0,0-1.871.321.508.508,0,0,0-.241.267,17.933,17.933,0,0,1-.949,2.673c-1.336,3.194-2.258,5.906-.428,6.842a38.82,38.82,0,0,0,16.4,3.728c1.1,0,2.2-.067,3.287-.094,3.889-.067,8.285-.147,8.445-1.71.094-1.069-.508-1.336-2.272-1.844a10.61,10.61,0,0,1-2.673-1.069c-2.165-1.336-10.61-7.069-11.626-7.764a35.341,35.341,0,0,0-8.044-1.35Z" transform="translate(-110.037 -98.166)" fill="#263238"/><path d="M124.642,264.217s-3.434,8.793-3.114,16.744a25.8,25.8,0,0,0,4.37,13.363l.388,42.895s-8.739,14.552-8.512,20.044-6.294,48.374-6.294,48.374a6.454,6.454,0,0,0,4.543,1.189c2.405-.441,7.537-2.045,7.537-2.045s13.911-48.334,16.476-53.291,5.252-15.1,6.387-21.033,2.312-19.47,2.312-19.47,15.207,24.628,15.969,25.977,3.087,16.142,4.677,21.274a92.712,92.712,0,0,0,8.379,18.334c3.341,5.345,11.559,19.951,11.559,19.951a8.913,8.913,0,0,0,5.479-1.617,9.421,9.421,0,0,0,2.886-5.345s-9.755-26.592-10.757-34.156-5.786-22.61-7.082-28.784-20.312-47.265-20.312-47.265l-3.06-15.447Z" transform="translate(-109.551 -132.785)" fill="#263238"/><path d="M115.351,407.736a7.389,7.389,0,0,1-4.1-1.416.682.682,0,0,1-.267-.628c0-.428,6.521-42.841,6.294-48.24s7.5-18.588,8.512-20.285l-.388-42.507a26.486,26.486,0,0,1-4.37-13.51c-.334-8.018,3.02-16.65,3.167-17.011a.655.655,0,0,1,.615-.428l31.83-.281h0a.668.668,0,0,1,.655.535l3.047,15.367c1.163,2.512,19.042,41.238,20.325,47.345.481,2.325,1.5,6.013,2.566,9.915a171.81,171.81,0,0,1,4.517,18.908c.989,7.416,10.69,33.755,10.69,34.022a.721.721,0,0,1,0,.334,10.009,10.009,0,0,1-3.154,5.733,9.447,9.447,0,0,1-5.92,1.751.641.641,0,0,1-.535-.334c-.094-.147-8.258-14.592-11.546-19.911a92.87,92.87,0,0,1-8.445-18.494c-.855-2.673-1.9-8.1-2.82-12.828-.708-3.648-1.523-7.764-1.817-8.312-.615-1.122-11.439-18.708-14.9-24.254-.374,4.009-1.256,13.015-2.125,17.545-1.109,5.759-3.849,16.156-6.468,21.207-2.5,4.837-16.289,52.69-16.423,53.171a.681.681,0,0,1-.441.454c-.214.067-5.2,1.617-7.617,2.058a4.784,4.784,0,0,1-.882.094Zm-3.007-2.258a5.626,5.626,0,0,0,3.7.855c1.991-.374,5.933-1.55,7.109-1.924,1.336-4.7,13.951-48.28,16.423-53.064s5.252-15.167,6.334-20.846,2.285-19.269,2.3-19.416a.668.668,0,0,1,.508-.588.7.7,0,0,1,.735.294c.615,1.016,15.22,24.668,16.035,26.018a60.893,60.893,0,0,1,1.964,8.713c.909,4.69,1.951,10.022,2.779,12.681a91.1,91.1,0,0,0,8.272,18.24c3.02,4.891,10.129,17.372,11.385,19.63a8.1,8.1,0,0,0,4.664-1.483,8.486,8.486,0,0,0,2.606-4.717c-.909-2.512-9.755-26.819-10.69-34.142a173.827,173.827,0,0,0-4.477-18.708c-1.122-4.1-2.1-7.644-2.592-10.009-1.336-6.027-20.044-46.7-20.258-47.118a.656.656,0,0,1,0-.147l-2.953-14.913-30.815.281c-.668,1.831-3.194,9.354-2.913,16.035A25.255,25.255,0,0,0,126.7,294.1a.789.789,0,0,1,.134.388l.388,42.908a.642.642,0,0,1-.094.348c-.08.147-8.632,14.445-8.419,19.71S113.093,400.76,112.344,405.477Z" transform="translate(-109.721 -132.947)" fill="#263238"/><path d="M176.571,230.018s-.334-7.951,2.085-8.018,8.018,1.056,7.39,2.82a9.141,9.141,0,0,1-1.617,2.833l-3.5-.9,4.73,5.345s7.737-5.171,5.465-1.617-2.1,7.7-4.49,8.5a83.168,83.168,0,0,0-8.485,4.156l-34.65,14.94-1.978-14.111,33.768-3.822Z" transform="translate(-99.449 -146.88)" fill="#fff"/><path d="M143.674,258.918a.6.6,0,0,1-.334-.094.668.668,0,0,1-.334-.481l-2-14.111a.668.668,0,0,1,.588-.762l33.233-3.755,1.243-9.528c-.08-2.085-.107-8.566,2.673-8.686,2.085-.094,6.681.722,7.8,2.285a1.483,1.483,0,0,1,.241,1.416,9.688,9.688,0,0,1-1.751,3.073.668.668,0,0,1-.655.187l-1.336-.347,2.9,3.274c5.158-3.367,5.866-2.673,6.174-2.379.628.628,0,1.59-.254,2a18.628,18.628,0,0,0-1.871,4.343c-.682,2.071-1.27,3.862-2.967,4.423a81.978,81.978,0,0,0-8.379,4.116L143.9,258.864a1.054,1.054,0,0,1-.227.053Zm-1.216-14.191,1.751,12.561L178.084,242.7a82.933,82.933,0,0,1,8.539-4.183c1.069-.347,1.537-1.777,2.125-3.581a19.872,19.872,0,0,1,2.018-4.637v-.067a31.243,31.243,0,0,0-4.583,2.592.655.655,0,0,1-.869-.107l-4.717-5.345a.668.668,0,0,1,.668-1.082l3.073.788a8.684,8.684,0,0,0,1.243-2.312s0-.08,0-.187c-.708-.935-4.5-1.817-6.681-1.737-1.029,0-1.59,3.915-1.443,7.363a.334.334,0,0,1,0,.107L176.119,240.4a.682.682,0,0,1-.588.588Z" transform="translate(-99.626 -147.049)" fill="#263238"/><path d="M152.006,212.555s3.421,17.813,2.779,27.127-.975,26.271-.615,34.917,1.911,11.479-.08,13.015-9.354,2.459-19.082,2.86-13.47-1.1-13.764-3.154-.107-27.661-1.47-35.438-.281-31.576,2.98-37.7,19.7-12.8,22.182-12.695S152.006,212.555,152.006,212.555Z" transform="translate(-106.955 -153.777)" fill="#7300cc"/><path d="M132.148,291.377c-7.216,0-11.051-1.269-11.4-3.8-.094-.655-.134-3.1-.214-7.724-.134-8.926-.334-22.41-1.256-27.7-1.336-8.018-.241-31.951,3.047-38.124,3.448-6.481,20.2-13.136,22.8-13.042s6.534,8.806,7.657,11.479v.12c.134.735,3.434,18.013,2.779,27.314-.655,9.554-.962,26.485-.615,34.837.134,3.087.414,5.345.628,7.216.4,3.314.628,5.145-.962,6.361-2,1.523-8.552,2.539-19.456,2.993C134.126,291.35,133.11,291.377,132.148,291.377ZM145.03,202.34c-2.258,0-18.4,6.454-21.528,12.334s-4.249,29.545-2.913,37.269c.949,5.345,1.149,18.949,1.336,27.915,0,3.889.107,6.949.2,7.55s1.336,3.073,13.069,2.579c10.169-.428,16.984-1.416,18.708-2.673.935-.708.855-1.8.454-5.118-.227-1.871-.508-4.2-.628-7.336-.361-8.379,0-25.389.615-34.984.615-8.833-2.526-25.683-2.753-26.9-2.138-5.065-5.2-10.53-6.454-10.583Z" transform="translate(-107.115 -153.945)" fill="#263238"/><path d="M145.179,208.95l4.4,6.628.241,5.773-5.546-4.53Z" transform="translate(-98.524 -151.268)" fill="#fff"/><path d="M149.968,222.189a.628.628,0,0,1-.414-.16l-5.492-4.517a.655.655,0,0,1-.241-.588l.909-7.884a.681.681,0,0,1,.508-.575.641.641,0,0,1,.708.281l4.41,6.681a.668.668,0,0,1,.107.347l.241,5.773a.668.668,0,0,1-.361.615A.615.615,0,0,1,149.968,222.189Zm-4.851-5.479,4.129,3.354-.174-4.1L145.785,211Z" transform="translate(-98.677 -151.438)" fill="#263238"/><path d="M151.929,192.221,140.29,205.3l4.223,12.414,15.661-5.813s-2.833-8.552-3.234-13.082-.521-7.617-.521-7.617S155.136,189,151.929,192.221Z" transform="translate(-99.863 -157.483)" fill="#fff"/><path d="M144.716,218.55a.721.721,0,0,1-.281-.067.668.668,0,0,1-.361-.414l-4.236-12.414a.681.681,0,0,1,.134-.655l11.639-13.082h0a4.958,4.958,0,0,1,3.835-1.938,2.339,2.339,0,0,1,1.71,1.056.642.642,0,0,1,.094.307s.134,3.14.521,7.59,3.167,12.842,3.194,12.922a.668.668,0,0,1-.4.842l-15.648,5.813Zm-3.474-12.935,3.889,11.4,14.405-5.345a75.112,75.112,0,0,1-3.047-12.615c-.334-3.822-.481-6.681-.521-7.43a1.029,1.029,0,0,0-.655-.321,4.009,4.009,0,0,0-2.673,1.537Z" transform="translate(-100.026 -157.647)" fill="#263238"/><path d="M180.471,195.859s1.684.548,4.463-2.044,3.5-10.263-.762-18.347-20.044-10.69-27.808-8.338S140.93,178.3,140.89,187.173s5.345,14.445,8.3,15.768a16.316,16.316,0,0,0,7.684,1.336c2.071-.08,10.9-1.069,14.539-2.873a16.143,16.143,0,0,0,5.6-4.57Z" transform="translate(-99.661 -165.611)" fill="#263238"/><path d="M155.985,205.132a16.5,16.5,0,0,1-6.909-1.416c-2.846-1.336-8.726-6.962-8.686-16.37s8.285-18.321,15.955-20.686c8.151-2.512,24.214.374,28.583,8.673s3.742,16.236.628,19.149c-2.512,2.325-4.263,2.325-4.891,2.232l-3.087.869a17.078,17.078,0,0,1-5.639,4.57c-3.8,1.884-12.842,2.86-14.806,2.94Zm7.029-38a21.568,21.568,0,0,0-6.281.815c-7.216,2.218-14.966,10.543-15.007,19.416s5.345,13.978,7.9,15.14a15.634,15.634,0,0,0,7.39,1.336c2.272-.094,10.864-1.109,14.272-2.806a15.434,15.434,0,0,0,5.345-4.343.642.642,0,0,1,.361-.267l3.474-.962a.6.6,0,0,1,.374,0s1.457.294,3.808-1.9c2.673-2.5,3.114-9.929-.9-17.532-3.087-5.946-12.922-8.9-20.739-8.9Z" transform="translate(-99.829 -165.784)" fill="#263238"/><path d="M156.109,193.907a5.906,5.906,0,0,0-2.739-6.08c-3.595-2.325-4.41,3.073-3.862,6.147a13.617,13.617,0,0,0,1.416,4.49s-2.245,5.666-1.43,10.169,8.526,11.412,10.383,11.332,8.285-9.007,8.285-9.007,4.744-.2,5.345-1.871-.321-7.831-.321-7.831a89.136,89.136,0,0,0,4.757-9.7c1.336-3.555-3.154-6.267-4.851-7.43s-4.664-3.114-5.626-1.216.962,8.218-1.1,8.512-4.61-1.871-4.61-1.871-.828,4.984-2.886,5.278a2.512,2.512,0,0,1-2.766-.922Z" transform="translate(-96.827 -160.292)" fill="#fff"/><path d="M160.018,220.865c-2.445,0-10.183-7.269-11.011-11.893-.735-4.1.9-8.993,1.336-10.236a16.5,16.5,0,0,1-1.336-4.423c-.388-2.245-.134-5.92,1.657-7.109a2.779,2.779,0,0,1,3.247.281,6.588,6.588,0,0,1,3.06,6.454,2.151,2.151,0,0,0,1.924.441c1.069-.147,2.018-2.9,2.312-4.717a.682.682,0,0,1,.441-.521.655.655,0,0,1,.655.12c.655.548,2.673,1.911,4.089,1.71.588-.08.428-2.526.334-3.849a9.488,9.488,0,0,1,.267-4.289,1.978,1.978,0,0,1,1.336-1.1c1.47-.374,3.408.762,5.278,2.058l.347.227c2,1.336,6.147,4.156,4.757,8.018a87.129,87.129,0,0,1-4.69,9.608c.174,1.243.8,6.267.267,7.9-.6,1.831-4.249,2.232-5.572,2.325-2.1,2.886-6.681,8.953-8.619,9.02ZM152,188.152a.935.935,0,0,0-.548.16c-1.069.708-1.443,3.635-1.069,5.773a13.042,13.042,0,0,0,1.336,4.236.735.735,0,0,1,0,.6s-2.165,5.546-1.4,9.808,8.258,10.8,9.675,10.8h0c.989-.107,4.811-4.61,7.791-8.739a.655.655,0,0,1,.508-.281c1.8-.08,4.423-.615,4.69-1.416.361-1.109,0-5.2-.361-7.523a.788.788,0,0,1,.08-.428,85.4,85.4,0,0,0,4.717-9.595c1.042-2.846-2.392-5.171-4.249-6.414l-.347-.241c-.855-.588-3.127-2.151-4.2-1.857a.682.682,0,0,0-.454.4,9.661,9.661,0,0,0-.12,3.595c.16,2.472.334,5.011-1.47,5.265a6.8,6.8,0,0,1-4.276-1.336c-.4,1.67-1.336,4.517-3.234,4.784a3.18,3.18,0,0,1-3.394-1.256.628.628,0,0,1-.067-.468,5.2,5.2,0,0,0-2.445-5.345,2.272,2.272,0,0,0-1.216-.588Zm4.33,5.973Z" transform="translate(-96.994 -160.443)" fill="#263238"/><path d="M142.3,198.77l6.748,18.508-4.664,7-7.964-22.8Z" transform="translate(-101.164 -154.691)" fill="#fff"/><path d="M144.534,225.093h-.08a.655.655,0,0,1-.548-.441l-7.9-22.757a.681.681,0,0,1,.347-.828l5.88-2.673a.668.668,0,0,1,.535,0,.708.708,0,0,1,.374.388l6.748,18.508a.641.641,0,0,1-.067.6l-4.664,7.016A.668.668,0,0,1,144.534,225.093Zm-7.189-23.1,7.323,20.953,3.742-5.612-6.4-17.505Z" transform="translate(-101.314 -154.836)" fill="#263238"/><path d="M181.665,215.9l-9.955,27.06,2.419-.107,10-26.018Z" transform="translate(-89.297 -148.931)" fill="#263238"/><path d="M171.878,243.8a.655.655,0,0,1-.535-.281.641.641,0,0,1-.094-.615l9.955-27.06a.655.655,0,0,1,.869-.4l2.459.935a.735.735,0,0,1,.374.347.708.708,0,0,1,0,.521l-9.969,26.018a.641.641,0,0,1-.6.428l-2.419.107Zm10.343-26.873-9.354,25.5h.975l9.595-24.989Z" transform="translate(-89.465 -149.101)" fill="#263238"/><path d="M138.4,254.018s37.964-10.917,38.98-11.652-.575-13.817-.575-13.817l8.606-1.056s2.793.575,1.109,1.684-4.744,2.673-4.744,2.673l10.3-2.151,2.673-3.568s2.138,1.644,1.163,3.06a11.452,11.452,0,0,0-1.871,4.931c0,1.029-.134,5.185-2.472,7.016s-15.888,9.354-22.316,12.695-26.365,17.559-31.817,18.534-10-15.5-10-15.5Z" transform="translate(-104.184 -145.49)" fill="#fff"/><path d="M137.149,273.267c-5.639,0-9.728-14.352-10.183-16.035a.615.615,0,0,1,.067-.508.708.708,0,0,1,.414-.321l10.944-2.873c14.7-4.209,36.654-10.69,38.752-11.532.374-1.122-.08-7.51-.775-13.216a.668.668,0,0,1,.588-.748l8.606-1.042h.214c.588.12,1.978.508,2.165,1.457.067.361,0,.909-.828,1.443l-.735.468,5.546-1.163,2.459-3.367a.668.668,0,0,1,.949-.134c.989.748,2.365,2.432,1.336,4.009a10.824,10.824,0,0,0-1.751,4.517s.187,5.345-2.739,7.59c-2.392,1.857-15.875,9.354-22.41,12.748-2.258,1.189-6.307,3.822-10.583,6.6-8.3,5.345-17.692,11.479-21.381,12.093A2.674,2.674,0,0,1,137.149,273.267Zm-8.713-15.741c1.336,4.771,5.238,15.02,9.047,14.378,3.421-.575,13.1-6.855,20.873-11.906,4.5-2.926,8.392-5.439,10.69-6.681,6.334-3.327,19.924-10.837,22.222-12.628,1.978-1.537,2.272-5.2,2.218-6.468a11.946,11.946,0,0,1,1.991-5.345c.361-.535-.107-1.229-.521-1.684l-2.178,2.967a.7.7,0,0,1-.4.267l-10.289,2.151a.682.682,0,0,1-.775-.428.7.7,0,0,1,.334-.828s3.033-1.5,4.664-2.566l.147-.107a3.421,3.421,0,0,0-.922-.347l-7.831.949c1.523,12.842.548,13.55.227,13.777-1.029.748-30.254,9.194-39.18,11.759h0Zm10.129-3.354Z" transform="translate(-104.352 -145.684)" fill="#263238"/><path d="M128.734,213.66s-7.136,3.408-6.882,9.354,3.087,41.051,3.087,41.051l17.1-4.864.214-19.737s2.793-7.724,3.02-10.5-5.933-9.795-5.933-9.795" transform="translate(-106.066 -149.684)" fill="#7300cc"/><path d="M125.117,264.839a.7.7,0,0,1-.388-.12.655.655,0,0,1-.281-.494c0-.347-2.846-35.265-3.087-41.077-.267-6.24,6.949-9.768,7.256-9.915a.668.668,0,1,1,.575,1.2s-6.681,3.3-6.508,8.659,2.673,34.9,3.033,40.222l15.835-4.517.214-19.229a.681.681,0,0,1,0-.227c0-.067,2.766-7.67,2.993-10.329.147-1.817-3.474-6.681-5.786-9.354a.668.668,0,0,1,1-.882c.655.748,6.361,7.31,6.107,10.289-.227,2.673-2.673,9.595-3.02,10.57l-.214,19.63a.668.668,0,0,1-.494.628l-17.1,4.864a.4.4,0,0,1-.134.08Z" transform="translate(-106.231 -149.857)" fill="#263238"/><path d="M138.668,237.27h0a.668.668,0,0,1-.628-.708c.414-5.933-5.238-13.443-5.345-13.51a.672.672,0,0,1,1.069-.815c.241.321,6,8.018,5.559,14.419A.668.668,0,0,1,138.668,237.27Z" transform="translate(-102.463 -146.889)" fill="#263238"/></g><g transform="translate(288.212 161.805)"><path d="M264.309,153.712s3.073-7.229,10.517-6.134,13.363,16.65,13.8,23.652-3.5,14.9-2.405,18.628,9.421-.227,9.421,4.383-3.073,12.267-12.935,13.136-20.806-8.753-22.784-16.209S263,171.886,263,166.42A87.086,87.086,0,0,1,264.309,153.712Z" transform="translate(-221.853 -146.108)" fill="#263238"/><path d="M281.653,208.282c-9.541,0-20.151-9.033-22.2-16.77-1.336-4.851.241-11.252,1.59-16.9a41.581,41.581,0,0,0,1.457-8.018,86.393,86.393,0,0,1,1.336-12.828v-.147c0-.08,3.367-7.684,11.225-6.534,8.018,1.189,13.951,17.452,14.378,24.28a37.978,37.978,0,0,1-1.51,10.9c-.762,3.167-1.416,5.906-.935,7.577.361,1.2,1.871,1.336,4.142,1.336s5.345.107,5.345,3.194c0,4.356-2.833,12.855-13.537,13.8A7.072,7.072,0,0,1,281.653,208.282Zm-16.53-54.213a87.521,87.521,0,0,0-1.336,12.521,42.029,42.029,0,0,1-1.483,8.325c-1.336,5.506-2.806,11.733-1.617,16.249,1.8,6.828,12.387,16.583,22.089,15.728S295.1,198.34,295.1,194.411c0-1.6-1.229-1.8-4.009-1.857-2.218,0-4.73-.107-5.345-2.339-.6-2,.094-4.9.909-8.272a37.139,37.139,0,0,0,1.47-10.5c-.454-7.283-6.361-22.022-13.229-23.038C268.371,147.454,265.444,153.387,265.123,154.069Z" transform="translate(-222.027 -146.278)" fill="#263238"/><path d="M253.264,151.906a11.225,11.225,0,0,0-7.229,4.383c-2.405,3.728,2.419,13.577,4.824,15.341s9.354,5.906,13.8,5.906,12.922-.655,13.363-5.906-3.942-14.9-9.635-19.51S258.088,143.368,253.264,151.906Z" transform="translate(-226.59 -146.28)" fill="#263238"/><path d="M264.831,178.374c-4.45,0-11.479-4.009-14.191-6.04s-7.657-12.12-5-16.236a11.6,11.6,0,0,1,7.376-4.624c1.7-2.926,3.514-4.543,5.532-4.931,3.234-.615,6.294,1.884,9.848,4.771l.575.468c6.107,4.918,10.33,14.833,9.889,20.044C278.448,177.532,269.869,178.374,264.831,178.374ZM259.486,147.8a3.3,3.3,0,0,0-.722,0c-1.67.307-3.234,1.8-4.784,4.543l-.16.281h-.334a10.69,10.69,0,0,0-6.762,4.076c-2.151,3.341,2.459,12.842,4.664,14.432,2.486,1.817,9.354,5.786,13.363,5.786,3.688,0,12.307-.508,12.695-5.345s-3.7-14.325-9.354-18.922l-.575-.454c-2.953-2.272-5.572-4.4-7.991-4.4Z" transform="translate(-226.759 -146.45)" fill="#263238"/><path d="M250.087,165.19s-1.751-2.673-2.419-1.336a6.294,6.294,0,0,0,.227,5.906,7.777,7.777,0,0,0,2.846,2.419Z" transform="translate(-226.032 -140.723)" fill="#fff"/><path d="M251.685,173.434l-1.042-.441a8.619,8.619,0,0,1-3.114-2.673,6.922,6.922,0,0,1-.281-6.615,1.189,1.189,0,0,1,1.016-.735c1.056-.08,2.138,1.336,2.539,1.978l.094.147Zm-3.194-9.087a5.639,5.639,0,0,0,.174,5.171,8.021,8.021,0,0,0,1.523,1.55l-.521-5.506a4.249,4.249,0,0,0-1.176-1.216Z" transform="translate(-226.2 -140.895)" fill="#263238"/><path d="M249.988,299.812s-8.86,10.623-6.681,12.027,8.86-3.9,11.345-6.374,3.541-1.416,3.18-4.958S249.988,299.812,249.988,299.812Z" transform="translate(-227.404 -95.24)" fill="#fff"/><path d="M244.3,312.9a2.178,2.178,0,0,1-1.229-.334,1.336,1.336,0,0,1-.615-1.016c-.4-2.673,5.92-10.49,7.2-12.027l.107-.134h.16c.548-.214,5.345-1.964,7.577-.6a2.4,2.4,0,0,1,1.122,1.871c.254,2.579-.187,3.127-1.537,4.009a10.327,10.327,0,0,0-1.844,1.47C253.719,307.622,247.666,312.9,244.3,312.9Zm6.267-12.374c-4.129,4.984-7.35,10.169-6.762,10.917,1.443.962,7.363-3.154,10.49-6.294a12.48,12.48,0,0,1,2.044-1.63c.962-.641,1.163-.775.962-2.779a1.056,1.056,0,0,0-.508-.869c-1.216-.748-4.4-.013-6.227.708Z" transform="translate(-227.58 -95.393)" fill="#263238"/><path d="M241.293,231.616s-2.82,19.51-1.764,28.062,6.374,19.831,6.681,23.732-.708,13.109.708,18.775,4.249,23.038,4.249,23.038a5.024,5.024,0,0,0,3.541,1.764,11.037,11.037,0,0,0,4.249-1.056s1.416-57.754,1.416-63.42,0-14.525,3.555-17.719,13.109-9.354,13.456-15.327-21.26-6.681-27.634-5.933S241.293,231.616,241.293,231.616Z" transform="translate(-228.637 -120.61)" fill="#7300cc"/><path d="M254.923,327.783a5.679,5.679,0,0,1-4.009-2.018l-.107-.134v-.174c0-.174-2.846-17.372-4.249-22.984-.935-3.768-.815-9.047-.708-13.3,0-2.285.107-4.249,0-5.586a47.959,47.959,0,0,0-2.365-8.018,84.708,84.708,0,0,1-4.423-15.688c-1.056-8.5,1.657-27.394,1.777-28.2V231.6c.094-.321,2.339-7.844,9.073-8.606,4.8-.521,22.717-.321,27.234,4.009a3.247,3.247,0,0,1,1.149,2.673c-.294,5.038-6.454,9.942-10.944,13.537-1.1.869-2.031,1.617-2.673,2.245-3.327,2.993-3.327,11.893-3.327,17.225,0,5.612-1.4,62.806-1.416,63.434v.4l-.347.174a11.492,11.492,0,0,1-4.664,1.1Zm-2.913-2.739a4.249,4.249,0,0,0,2.913,1.4,9.955,9.955,0,0,0,3.595-.829c.134-5.252,1.4-57.647,1.4-62.979,0-5.906,0-14.833,3.768-18.214.735-.668,1.684-1.43,2.793-2.312,4.009-3.234,10.2-8.125,10.463-12.561a2,2,0,0,0-.748-1.577c-3.849-3.648-20.044-4.33-26.165-3.648-5.612.628-7.737,7.029-7.924,7.6-.16,1.1-2.766,19.67-1.751,27.781a82.4,82.4,0,0,0,4.3,15.5,46.223,46.223,0,0,1,2.419,8.258c.12,1.4.067,3.421,0,5.746-.094,4.156-.227,9.354.668,12.935C249.11,307.458,251.7,323.133,252.01,325.044Z" transform="translate(-228.797 -120.778)" fill="#263238"/><path d="M249.5,314.949a5.024,5.024,0,0,0,3.541,1.764,11.038,11.038,0,0,0,4.249-1.056s1.256-51.273,1.336-61.937l-14.1,23.265c-.08,4.49-.4,10.69.655,14.926C246.665,297.577,249.5,314.949,249.5,314.949Z" transform="translate(-226.914 -110.376)" fill="#263238"/><path d="M253.171,318a5.679,5.679,0,0,1-4.009-2.018l-.107-.134v-.174c0-.174-2.846-17.372-4.249-22.984-.935-3.768-.815-9.047-.708-13.3v-1.978l15.461-25.523v2.459c-.134,10.543-1.336,61.469-1.336,61.937v.4l-.347.174a11.491,11.491,0,0,1-4.7,1.136Zm-2.913-2.739a4.249,4.249,0,0,0,2.913,1.4,9.876,9.876,0,0,0,3.595-.829c.107-4.6,1.109-45.434,1.336-59.037l-12.721,20.993v1.644c-.094,4.156-.227,9.354.668,12.935C247.359,297.671,249.951,313.346,250.258,315.257Z" transform="translate(-227.046 -110.991)" fill="#263238"/><path d="M259.833,231.887a38.38,38.38,0,0,0-4.61,14.525c-1.056,8.846,0,39.674.708,47.826s3.154,42.133,3.154,42.133l6.027-2.486s6.013-35.064,5.666-42.868-3.194-10.276-.361-21.26,6.748-26.392,1.777-40.476S259.833,231.887,259.833,231.887Z" transform="translate(-223.431 -120.494)" fill="#7300cc"/><path d="M258.692,337.537l-.067-.922c0-.347-2.486-34.1-3.18-42.16-.668-7.657-1.817-38.752-.708-47.959a38.859,38.859,0,0,1,4.677-14.766c.481-1.069,4.076-8.793,8.312-8.579,2.125.094,3.915,2.138,5.345,6.107,5.065,14.378.962,30.32-1.764,40.864a27.808,27.808,0,0,0-.481,14.592,43.34,43.34,0,0,1,.855,6.468c.347,7.777-5.439,41.572-5.679,43.015v.361Zm8.886-113.05c-2.833,0-5.987,5.639-6.962,7.831v.08a38.272,38.272,0,0,0-4.5,14.245c-1.016,8.526,0,39.22.708,47.705.641,7.3,2.673,35.746,3.127,41.238l4.824-1.978c.641-3.755,5.933-35.158,5.6-42.374a39.842,39.842,0,0,0-.842-6.267,29.505,29.505,0,0,1,.508-15.18c2.673-10.383,6.681-26.084,1.791-40.089-1.176-3.354-2.592-5.145-4.1-5.212Z" transform="translate(-223.6 -120.657)" fill="#263238"/><path d="M263.88,177.426s-20.165,6.147-22.8,8.111-8.98,34.4-8.98,37.683a4.009,4.009,0,0,0,7.229,2.673c3.287-3.5,6.575-22.57,6.575-22.57s-1.336,8.766-.214,12.708,2.191,6.788,2.191,6.788l-4.169,24.32a31.577,31.577,0,0,0,16.209,3.274c9.207-.655,19.937-5.479,19.937-5.479l-3.06-21.9s3.728-7.9,3.728-10.517v-4.009s3.06,16.423,5.693,23.652,12.267,24.761,12.267,24.761l3.728-.882s-5.038-23.652-7.016-28.262-4.824-14.7-4.824-17.372-1.1-21.474-1.964-24.053-13.363-7.016-17.3-8.325A15.448,15.448,0,0,0,263.88,177.426Z" transform="translate(-231.059 -136.094)" fill="#fff"/><path d="M298.331,257.863l-.254-.441c-.388-.722-9.688-17.652-12.307-24.855a161.823,161.823,0,0,1-4.65-18.307,60.841,60.841,0,0,1-3.461,8.98l3.114,22.209-.454.214c-.441.2-10.944,4.877-20.165,5.532a31.9,31.9,0,0,1-16.583-3.314l-.414-.227,4.209-24.614c-.254-.681-1.2-3.287-2.138-6.681a14.511,14.511,0,0,1-.441-3.207C243.45,218.5,241.779,224.6,240,226.514a4.73,4.73,0,0,1-5.345,1.523,5.051,5.051,0,0,1-3.087-4.61c0-3.207,6.281-35.986,9.247-38.218,2.673-2.018,22.169-8.018,23-8.2h.067a16.142,16.142,0,0,1,7.563.682c6.267,2.045,16.824,5.88,17.773,8.726s2,21.728,2,24.307,2.766,12.374,4.771,17.051,6.842,27.421,7.056,28.383l.134.641ZM281.36,208.554c0,.174,3.087,16.463,5.666,23.559,2.352,6.468,10.463,21.447,12.027,24.227l2.592-.615c-.828-3.808-5.091-23.425-6.842-27.5-1.924-4.49-4.877-14.7-4.877-17.572s-1.109-21.381-1.938-23.879c-.508-1.537-7.3-4.717-16.877-7.911a15.087,15.087,0,0,0-6.855-.641c-5.612,1.71-20.472,6.441-22.557,8.018s-8.713,32.913-8.713,37.149a3.688,3.688,0,0,0,2.232,3.367,3.448,3.448,0,0,0,3.849-1.189c2.579-2.766,5.492-16.984,6.4-22.222l1.336.214c0,.08-1.336,8.659-.241,12.427s2.165,6.681,2.165,6.681v.174l-4.1,24.053a31.683,31.683,0,0,0,15.421,2.98c7.911-.561,17.118-4.3,19.256-5.225l-3.06-21.608.094-.187C277.351,220.7,280,214.661,280,212.63v-4.009Z" transform="translate(-231.235 -136.234)" fill="#263238"/><path d="M256.438,176.288a5.345,5.345,0,0,0-3.728,1.964c-1.1,1.751-3.06,13.59-3.06,13.59s9.848-3.287,10.517-3.728,10.944,5.038,10.944,5.038-.655-8.98-3.06-13.149S259.472,175.847,256.438,176.288Z" transform="translate(-225.155 -136.48)" fill="#7300cc"/><path d="M272.084,194.482l-1.069-.575a83.73,83.73,0,0,0-10.45-4.971c-1.336.641-8.3,2.967-10.5,3.7l-1.042.347.174-1.082c.214-1.229,2.031-12.027,3.167-13.831a5.933,5.933,0,0,1,4.209-2.285c1.563-.227,9.354-1.029,12.267,4.009,2.459,4.249,3.127,13.069,3.154,13.363ZM260.405,187.6c.722,0,2.793.682,10.142,4.557-.281-2.579-1.082-8.552-2.86-11.652-2.526-4.356-9.568-3.595-10.944-3.394h0a4.717,4.717,0,0,0-3.22,1.657c-.695,1.109-1.978,7.55-2.779,12.24,3.7-1.243,8.793-2.993,9.354-3.3a.6.6,0,0,1,.307-.107Zm.334,1.243Z" transform="translate(-225.366 -136.647)" fill="#263238"/><path d="M253.788,175.91s-.428,8.766,0,10.517,2.673,7.443,4.383,7.443,4.383-8.1,4.61-8.98.869-8.98.869-8.98Z" transform="translate(-223.827 -136.543)" fill="#fff"/><path d="M258.315,194.7c-2.673,0-5.011-7.871-5.024-7.951-.454-1.791,0-9.808,0-10.69v-.628H264.5v.722c-.067.828-.668,8.191-.9,9.087C263.567,185.305,260.868,194.7,258.315,194.7Zm-3.742-17.96a71.914,71.914,0,0,0,0,9.688c.628,2.485,2.673,6.935,3.728,6.935,1.056-.2,3.461-6.494,4.009-8.472.147-.561.548-5.024.8-8.151Z" transform="translate(-223.998 -136.704)" fill="#263238"/><path d="M254.041,158s-4.37,4.156-4.37,6.347-.668,10.3,1.751,14.245,5.906,7.443,9.635,6.788,6.575-4.811,7.016-7.67.869-6.347.869-6.347S260.829,169.011,254.041,158Z" transform="translate(-225.176 -142.566)" fill="#fff"/><path d="M260.291,186.431c-4.209,0-7.577-4.41-9.274-7.189-2.178-3.568-1.978-10.183-1.884-13.363v-1.216c0-2.405,4.116-6.387,4.583-6.828l.6-.575.428.695c6.561,10.583,14.445,13.056,14.525,13.082l.534.16-.067.561s-.441,3.555-.882,6.374-3.394,7.5-7.55,8.218a5.734,5.734,0,0,1-1.016.08Zm-6.2-27.073c-1.577,1.617-3.581,4.009-3.581,5.345v1.256c-.094,3.06-.281,9.421,1.684,12.641,1.336,2.191,4.9,7.189,8.953,6.481,3.421-.6,6.08-4.543,6.468-7.109.334-2.151.668-4.717.815-5.8C266.465,171.385,259.9,168.365,254.091,159.358Z" transform="translate(-225.346 -142.814)" fill="#263238"/><path d="M260.868,305.892s.695-.334,1.777-.8c3.942-1.724,13.109-5.345,13.109-2.031,0,4.249-13.109,13.456-15.595,13.817s-2.125-6.681-2.125-6.681A32.391,32.391,0,0,1,260.868,305.892Z" transform="translate(-222.341 -94.237)" fill="#fff"/><path d="M260.155,317.727a1.817,1.817,0,0,1-1.216-.481c-1.63-1.5-1.43-6.414-1.4-6.975l.067-.254a33.326,33.326,0,0,1,2.9-4.356l.107-.134.147-.067s.695-.334,1.791-.815c7.082-3.1,11.532-4.1,13.216-3.007a1.8,1.8,0,0,1,.828,1.59c0,4.664-13.283,14.058-16.169,14.472Zm-1.336-7.243c0,1.884.12,4.984.989,5.773a.428.428,0,0,0,.387.12c2.486-.347,15.02-9.554,15.02-13.149a.454.454,0,0,0-.227-.468c-.935-.615-4.557-.12-11.946,3.114-.775.334-1.336.6-1.6.722a38.747,38.747,0,0,0-2.579,3.889Z" transform="translate(-222.51 -94.406)" fill="#263238"/><path d="M282.658,237.119a5.452,5.452,0,0,1-1.336,3.942c-1.684,2.058-2.993,8.419-1.5,8.793s1.336-.561,1.871-2.245a9.489,9.489,0,0,1,1.5-2.806,13.536,13.536,0,0,1-.187,5.425c-.748,1.871-1.871,4.49-.748,5.051s2.445-.187,3.568-2.993a31.99,31.99,0,0,0,1.684-9.354,50.39,50.39,0,0,0-1.056-6.681Z" transform="translate(-215.227 -116.251)" fill="#fff"/><path d="M283.12,256.326a2.258,2.258,0,0,1-1-.241c-1.617-.8-.588-3.354.307-5.612l.12-.281a8.5,8.5,0,0,0,.334-3.127,6.281,6.281,0,0,0-.388.962c-.12.347-.2.655-.267.922-.281,1.042-.588,2.218-2.405,1.764a1.4,1.4,0,0,1-.976-1.029c-.641-1.911.575-6.949,2.125-8.846a4.837,4.837,0,0,0,1.256-3.421l-.094-.6,4.984-1.176.147.668a50.294,50.294,0,0,1,1.069,6.828,32.805,32.805,0,0,1-1.737,9.608,5.665,5.665,0,0,1-2.673,3.434A1.951,1.951,0,0,1,283.12,256.326Zm.668-12.882.227,1.457a14.071,14.071,0,0,1-.227,5.786l-.12.281c-.976,2.432-1.336,3.755-.949,3.929a.828.828,0,0,0,.708,0c.374-.147,1.122-.682,1.924-2.673A31.176,31.176,0,0,0,287,243.11a40.667,40.667,0,0,0-.909-5.88l-2.526.588A6.535,6.535,0,0,1,282,241.653c-1.55,1.9-2.459,7.136-1.8,7.75a.9.9,0,0,0,.441,0,2.914,2.914,0,0,0,.294-.855c.08-.294.174-.641.294-1.016a10.477,10.477,0,0,1,1.617-3.02Z" transform="translate(-215.396 -116.456)" fill="#263238"/><rect width="9.915" height="20.779" transform="translate(27.101 63.781)" fill="#263238"/><path d="M262.352,215.8H251.1V193.68h11.252Zm-9.915-1.336h8.579V195.016h-8.579Z" transform="translate(-224.667 -130.567)" fill="#263238"/><path d="M249.076,207.13s3.381-7.31,4.69-7.871,7.857.561,7.857.561,1.5,1.336,1.122,1.871-1.684.748-1.684.748h-1.684l-3.367.374-.748,1.5a21.712,21.712,0,0,1,3.742,0c1.336.187,3.742,1.684,3.742,2.432a1.751,1.751,0,0,1-.935,1.871c-.935.561-6.548,1.684-7.109,2.058a24.121,24.121,0,0,1-2.993,2.806c-1.884,1.336-4.69,0-4.69,0l-.748-1.871Z" transform="translate(-226.291 -128.743)" fill="#fff"/><path d="M249.839,214.9a7.6,7.6,0,0,1-2.913-.641l-.241-.107-.975-2.432,2.967-4.744c1.056-2.285,3.621-7.563,5.011-8.165s7.109.334,8.232.521h.187l.147.134c.722.628,1.844,1.831,1.243,2.673a3.461,3.461,0,0,1-2.151,1.042h-1.777l-2.94.334v.147a18.347,18.347,0,0,1,2.673,0c1.336.2,4.316,1.791,4.316,3.1a2.4,2.4,0,0,1-1.256,2.445,25.315,25.315,0,0,1-4.289,1.336c-1.082.267-2.566.641-2.82.775a5.605,5.605,0,0,0-.521.548,12.025,12.025,0,0,1-2.445,2.245A4.2,4.2,0,0,1,249.839,214.9Zm-2.111-1.751a4.423,4.423,0,0,0,3.782,0,11.412,11.412,0,0,0,2.2-2.031,4.409,4.409,0,0,1,.8-.788,15.579,15.579,0,0,1,3.22-.949,29.753,29.753,0,0,0,3.915-1.123c.615-.374.615-.6.615-1.336a6.681,6.681,0,0,0-3.167-1.777,23.24,23.24,0,0,0-3.595,0l-1.176.094,1.43-2.873,3.728-.414h1.764a2.886,2.886,0,0,0,1.042-.361,4.289,4.289,0,0,0-.788-.962c-3.073-.521-6.6-.869-7.3-.575s-2.779,4.183-4.33,7.537v.067l-2.673,4.209Z" transform="translate(-226.48 -128.909)" fill="#263238"/><path d="M251.112,208.47l-16.035.187c-1.136,0-2.5.454-2.846,4.009s-1.1,6.227,1.71,7.35,21.381-8.98,21.381-8.98S251.86,211.089,251.112,208.47Z" transform="translate(-231.133 -125.593)" fill="#fff"/><path d="M234.554,220.965a1.87,1.87,0,0,1-.722-.107c-2.913-1.163-2.673-3.715-2.285-6.681,0-.441.107-.9.147-1.336.307-3.14,1.457-4.664,3.514-4.664l16.035-.187h.508l.134.494c.615,2.111,3.448,2.138,3.474,2.138h2.673l-2.312,1.256C252.808,213.442,238.777,220.965,234.554,220.965ZM250.83,209.34l-15.621.187c-.6,0-1.844,0-2.178,3.461a9.5,9.5,0,0,1-.147,1.336c-.347,3.033-.441,4.53,1.443,5.278,1.483.588,10.57-3.5,19.109-8.018a4.183,4.183,0,0,1-2.606-2.245Z" transform="translate(-231.319 -125.755)" fill="#263238"/></g><g transform="translate(418.528 190.48)"><path d="M355.024,364.039s-10.276,4.837-12.2,8.018.2,3.3,3.514,3.114,8.619-2.031,11.586-2.806,5.733,0,6.147-3.087a10.116,10.116,0,0,0-.281-4.8A6.574,6.574,0,0,0,355.024,364.039Z" transform="translate(-324.383 -102.445)" fill="#fff"/><path d="M344.92,376.009c-1.443,0-2.592-.214-3.1-1.056s.067-2.258.6-3.127c1.951-3.167,11.492-7.75,12.414-8.191a7.283,7.283,0,0,1,9.595.494l.134.214a10.691,10.691,0,0,1,.334,5.145c-.374,2.739-2.432,3.007-4.423,3.26a16.727,16.727,0,0,0-2.218.374c-.748.2-1.657.468-2.673.762a48.511,48.511,0,0,1-9.087,2.071C345.962,375.982,345.427,376.009,344.92,376.009Zm14.472-12.695a6.387,6.387,0,0,0-3.822,1.336l-.107.067c-2.806,1.336-10.41,5.345-11.906,7.71-.788,1.336-.628,1.684-.588,1.751.321.535,2.673.4,3.488.347a48.334,48.334,0,0,0,8.779-2.018c1-.294,1.924-.561,2.673-.762a17.28,17.28,0,0,1,2.379-.428c2.1-.267,3.047-.454,3.274-2.1a10.53,10.53,0,0,0-.2-4.356,6.16,6.16,0,0,0-3.969-1.55Z" transform="translate(-324.541 -102.616)" fill="#263238"/><path d="M376.28,366.66s-7.791,11.011-10.009,14.165,2.138,5.6,5.746,5.345,10.877-4.864,12.2-8.018.588-10.289.588-10.289S379.621,367.114,376.28,366.66Z" transform="translate(-316.455 -101.071)" fill="#fff"/><path d="M371.716,387.07c-2.673,0-5.212-1.189-6.16-2.886a3.26,3.26,0,0,1,.334-3.568l10.249-14.485h.388c3.327.4,8.512,1.336,8.566,1.336l.494.08v.508c0,.307.735,7.4-.641,10.624s-8.806,8.125-12.775,8.365Zm5.051-19.523-9.782,13.844a1.9,1.9,0,0,0-.254,2.151c.748,1.336,3.18,2.312,5.412,2.178,3.461-.2,10.41-4.73,11.626-7.563,1.042-2.432.722-7.777.588-9.448C383.035,368.482,379.413,367.881,376.767,367.546Z" transform="translate(-316.621 -101.249)" fill="#263238"/><path d="M348.829,266.277s.521,24.053-.067,34.383,1.991,63.821,2.579,73.736,1.47,24.641,1.47,24.641,2.886,2.846,8.766.388c0,0,.615-25.069,1.056-32.94s6.187-53.144,6.361-55.269,1.5-21.194,1.5-21.194,5.88,48.2,6.441,57.46,4.249,56.806,4.249,56.806,1.537.508,3.675.989,5.679-.949,5.679-.949,1.7-16.984,2.1-25.456.735-43.469.107-53.986a208.391,208.391,0,0,1-.388-21.7c.214-1.51,2.833-38.472,1.336-43.2s-22.41,3.448-30,2.673S348.641,258.139,348.829,266.277Z" transform="translate(-322.17 -137.443)" fill="#263238"/><path d="M385.985,406.208a5.078,5.078,0,0,1-1.122-.12,37.56,37.56,0,0,1-3.755-1l-.414-.134v-.441c0-.481-3.728-47.545-4.276-56.766-.428-7.029-4.009-36.681-5.586-50.431-.388,5.679-.882,12.868-.976,14.125,0,.628-.535,4.583-1.269,10.57C366.8,336.628,363.8,361.1,363.5,366.694c-.428,7.764-1.042,32.659-1.056,32.913v.428l-.4.174c-6.214,2.592-9.354-.4-9.488-.521l-.187-.187-1.483-24.9c-.588-9.862-3.167-63.567-2.579-73.817s.067-34.089.067-34.329c0-2.272.454-3.835,1.577-4.771,1.951-1.657,5.238-1.029,9.047-.307,1.617.307,3.287.628,4.971.8,2.993.294,8.379-.909,13.577-2.058,8.552-1.911,15.929-3.555,17-.174,1.51,4.824-1.1,41.839-1.336,43.5a210.091,210.091,0,0,0,.388,21.568c.628,10.45.307,45.273-.107,54.053-.388,8.392-2.085,25.323-2.1,25.5v.4l-.374.16A16.235,16.235,0,0,1,385.985,406.208Zm-4.009-2.258c.6.187,1.764.521,3.194.842a10.837,10.837,0,0,0,4.9-.775c.267-2.673,1.7-17.372,2.058-25,.414-8.766.735-43.5.107-53.919a204.971,204.971,0,0,1-.374-21.822c.227-1.67,2.793-38.392,1.336-42.922-.695-2.218-8.86-.388-15.421,1.069-5.345,1.189-10.784,2.405-14,2.085-1.737-.174-3.434-.494-5.091-.8-3.474-.668-6.468-1.243-7.938,0a4.557,4.557,0,0,0-1.1,3.728h0c0,.241.521,24.24-.067,34.436s1.991,63.808,2.579,73.656l1.443,24.361c.668.494,3.087,1.938,7.47.254.08-3.394.641-25.309,1.042-32.525.307-5.639,3.314-30.133,5.1-44.766.695-5.759,1.2-9.929,1.256-10.517.174-2.1,1.443-20.993,1.457-21.194h1.336c.067.481,5.893,48.334,6.454,57.554.494,8.7,3.849,51.394,4.223,56.258Z" transform="translate(-322.324 -137.613)" fill="#263238"/><path d="M332.622,248.55s11.626,12.882,15.113,15.688,9.127,1.269,10.784-1.243,1.537-24.828,1.537-24.828L355.727,211l-6.147,38.659-13.189-3.728S332.074,244.407,332.622,248.55Z" transform="translate(-327.584 -153.418)" fill="#7300cc"/><path d="M352.443,266.614a7.8,7.8,0,0,1-4.944-1.657c-3.488-2.806-14.7-15.234-15.194-15.755a.628.628,0,0,1-.16-.361,3.207,3.207,0,0,1,.882-3.1,4.316,4.316,0,0,1,3.768-.254L349.223,249l6.013-37.924a.668.668,0,0,1,1.336,0l4.33,27.18c0,2.405.094,22.717-1.63,25.3a7.857,7.857,0,0,1-5.345,2.94A10,10,0,0,1,352.443,266.614Zm-19-18.16c1.336,1.483,11.693,12.882,14.886,15.461a6.962,6.962,0,0,0,5.425,1.256,6.507,6.507,0,0,0,4.383-2.352c1.136-1.7,1.483-15.9,1.43-24.441L355.9,215.434l-5.479,34.516a.668.668,0,0,1-.842.548l-13.2-3.742c-.468-.174-1.871-.494-2.512,0A1.844,1.844,0,0,0,333.441,248.454Z" transform="translate(-327.762 -153.616)" fill="#263238"/><path d="M370.756,204.67s-17.372,6.454-19.47,7.189-2.967,11.038-2.82,18.561-1.042,53.452.922,56.044,5.933,3.261,13.75,2.793,22.316-4.944,26.726-7.309a23.184,23.184,0,0,0,5.519-3.648s3.782-42.761,5.011-52.476-1.791-14.98-5.6-18.067S370.756,204.67,370.756,204.67Z" transform="translate(-322.315 -155.546)" fill="#7300cc"/><path d="M359.241,290.23c-5.612,0-8.526-.962-10.209-3.207-1.336-1.777-1.443-17.064-1.136-44.632,0-5.532.107-9.9.067-11.8,0-.174-.241-17.973,3.261-19.2,2.045-.722,19.3-7.122,19.47-7.189h.227c.842,0,20.5,0,24.441,3.234,4.931,4.009,6.9,10.289,5.84,18.708-1.216,9.608-4.984,52.022-5.011,52.449v.227l-.147.16a23.361,23.361,0,0,1-5.693,3.795c-4.53,2.445-19.015,6.922-26.98,7.39C361.833,290.177,360.47,290.23,359.241,290.23Zm11.8-84.734c-1.5.548-17.372,6.454-19.363,7.149-1.229.428-2.552,8.526-2.379,17.92,0,1.924,0,6.307-.067,11.84-.147,13.59-.468,41.866.855,43.817,1.737,2.285,5.425,2.993,13.176,2.539s22-4.851,26.418-7.243a28.058,28.058,0,0,0,5.2-3.367c.307-3.514,3.822-43.015,5-52.249,1-8.018-.748-13.71-5.345-17.465-2.967-2.392-17.839-2.94-23.492-2.94Z" transform="translate(-322.48 -155.704)" fill="#263238"/><path d="M367.279,204.67l-5.866,2.178a66.134,66.134,0,0,0-2.833,16.81c0,10.49,3.274,9.835,9.18,3.929,4.757-4.757,11.238-14.7,14.926-22.089C375.7,204.67,367.279,204.67,367.279,204.67Z" transform="translate(-318.839 -155.546)" fill="#fff"/><path d="M361.635,232.673a2.419,2.419,0,0,1-.989-.2c-1.777-.735-2.566-3.394-2.566-8.646a67.8,67.8,0,0,1,2.86-17l.094-.334,6.414-2.325a154.7,154.7,0,0,1,15.488.828l.949.12-.428.842c-3.461,6.949-9.9,17.118-15.06,22.276C365.363,231.27,363.318,232.673,361.635,232.673Zm.508-25.149a64.847,64.847,0,0,0-2.673,16.3c0,5.532.949,7.082,1.737,7.416,1.1.454,3.22-.882,6.294-4.009,4.677-4.677,10.837-14.165,14.378-21.06-6.214-.668-13.256-.722-14.258-.722Z" transform="translate(-319.007 -155.714)" fill="#263238"/><path d="M361.65,206.881s1.978,7.724,1.336,12.294-1.657,7.63.454,7.51,9.354-9.9,10.022-13.871.414-18.414.414-18.414Z" transform="translate(-317.806 -159)" fill="#fff"/><path d="M363.519,227.76a1.657,1.657,0,0,1-1.336-.521c-.815-.9-.521-2.673-.08-5.265.12-.762.267-1.6.388-2.486.6-4.383-1.336-12.027-1.336-12.027l-.094-.374,13.6-13.9v1.6c0,.588.254,14.566-.414,18.534S366.3,227.6,363.559,227.76Zm-.922-20.271c.388,1.617,1.831,8.018,1.256,12.187-.134.9-.267,1.737-.4,2.512-.307,1.844-.615,3.742-.241,4.156,0,.067.187.094.388.08,1.51-.094,8.739-9.354,9.354-13.363.521-3.087.468-12.828.428-16.7Z" transform="translate(-318.005 -159.407)" fill="#263238"/><path d="M352,183.227s2.045,14.058,3.234,18.815,4.41,13.363,6.828,13.47,11.693-6.134,13.643-8.967,1.737-11.252,2.058-16.035-1.537-10.463-4.624-11.786S353.617,179.779,352,183.227Z" transform="translate(-321.051 -164.397)" fill="#fff"/><path d="M362.307,216.315H362.2c-3.341-.214-6.681-11.064-7.443-13.964-1.189-4.73-3.167-18.294-3.247-18.868v-.2l.08-.187c1.857-3.942,19.029-6.187,22.009-4.9,3.514,1.5,5.345,7.63,5.038,12.441-.067,1.042-.12,2.258-.16,3.541-.187,4.931-.388,10.53-2.018,12.909C374.387,210.035,365.194,216.315,362.307,216.315ZM352.873,183.5c.254,1.8,2.1,14.178,3.18,18.521,1.443,5.746,4.6,12.855,6.227,12.962,2.045.107,11.185-5.946,13.042-8.673,1.416-2.058,1.63-7.684,1.791-12.2,0-1.336.094-2.512.16-3.568.321-4.918-1.617-10.022-4.223-11.131S354.757,180.556,352.873,183.5Z" transform="translate(-321.216 -164.572)" fill="#263238"/><path d="M371.823,186.064a99.617,99.617,0,0,1-15.862,2.151c-9.354.548-10.49-3.9-8.018-8.566S358.968,167.222,372,168.558s14.352,13.015,13.684,16.984-2.405,10.4-2.405,10.4-2.312-3.488-3.742-2.191-1.336,7.016-1.336,7.016l-3.261,1.109a17.173,17.173,0,0,0-1.43-3.835c-.655-.869-4.984-2.673-5.078-4.223S371.823,186.064,371.823,186.064Z" transform="translate(-322.795 -167.741)" fill="#263238"/><path d="M374.573,202.894l-.174-.695a16.1,16.1,0,0,0-1.336-3.595,9.246,9.246,0,0,0-1.59-1.1c-2.071-1.336-3.555-2.285-3.621-3.488s1.724-4.8,2.833-6.828a105.19,105.19,0,0,1-14.525,1.857c-4.677.281-7.75-.655-9.113-2.766-1.109-1.71-.962-4.116.428-6.775,2.673-5.131,11.773-12.762,24.735-11.452a15.381,15.381,0,0,1,11.185,5.773,16.891,16.891,0,0,1,3.087,12.027c-.668,3.942-2.392,10.4-2.405,10.463l-.388,1.416-.815-1.216c-.575-.855-1.7-2.085-2.405-2.178a.414.414,0,0,0-.347.107c-.828.748-1.189,4.263-1.163,6.521v.468Zm-1.243-17.679-.762,1.336c-1.7,2.98-3.421,6.561-3.367,7.376s2.031,1.831,2.98,2.432a8.017,8.017,0,0,1,1.964,1.416,13.535,13.535,0,0,1,1.336,3.381l2.138-.722c0-1.617.214-5.773,1.6-7.029a1.71,1.71,0,0,1,1.4-.441,4.53,4.53,0,0,1,2.485,1.657c.548-2.085,1.577-6.227,2.045-9.033a15.354,15.354,0,0,0-2.833-10.958,14.031,14.031,0,0,0-10.236-5.265c-12.321-1.336-20.9,5.906-23.412,10.69-1.163,2.218-1.336,4.156-.494,5.439,1.069,1.657,3.8,2.392,7.911,2.151a97.715,97.715,0,0,0,15.741-2.138Z" transform="translate(-322.965 -167.909)" fill="#263238"/><path d="M369.62,195.847s.922-10.009,4.6-9.02,2.405,4.984.494,8.419a10.4,10.4,0,0,1-4.249,4.477" transform="translate(-315.126 -161.57)" fill="#fff"/><path d="M370.9,200.5l-.6-1.229a9.835,9.835,0,0,0,4.009-4.183c1.55-2.806,2.1-4.944,1.577-6.187a2.312,2.312,0,0,0-1.67-1.256,1.122,1.122,0,0,0-1,.174c-1.75,1.229-2.579,6.374-2.753,8.258l-1.336-.12c.067-.762.748-7.443,3.314-9.234a2.486,2.486,0,0,1,2.111-.374,3.568,3.568,0,0,1,2.552,2.031c.695,1.657.147,4.129-1.644,7.35A11.091,11.091,0,0,1,370.9,200.5Z" transform="translate(-315.294 -161.737)" fill="#263238"/><path d="M381.431,214.72s-2.232,8.018-2.018,11.586,15.848,43.389,16.276,45.434,6.214,2.94,9.087.668,4.209-5.345,2.218-13.363c-1.229-4.971-14.1-39.273-15.007-44.351s-4.423-8.485-7.7-7.684" transform="translate(-311.837 -154.799)" fill="#7300cc"/><path d="M400.425,274.623a8.777,8.777,0,0,1-3.02-.494,3.113,3.113,0,0,1-2.232-2.058c-.147-.695-2.459-6.842-4.9-13.363-6.147-16.316-11.252-30-11.385-32.231-.214-3.675,1.951-11.479,2.045-11.8l1.336.361c0,.08-2.2,7.9-1.991,11.358.134,2.2,6.855,20.044,11.292,31.844,3.073,8.125,4.811,12.775,4.971,13.537.08.388.588.788,1.336,1.069a7.537,7.537,0,0,0,6.681-.8c2.673-2.1,3.9-4.958,1.991-12.708-.535-2.138-3.327-10-6.281-18.307-4.009-11.385-8.218-23.171-8.739-26.084a9.808,9.808,0,0,0-3.8-6.414,3.889,3.889,0,0,0-3.1-.641l-.321-1.336a5.225,5.225,0,0,1,4.143.815,11.131,11.131,0,0,1,4.37,7.39c.508,2.82,4.851,15.073,8.7,25.884,3.087,8.7,5.759,16.223,6.307,18.427,2.085,8.419.521,11.719-2.459,14.084A8.018,8.018,0,0,1,400.425,274.623Z" transform="translate(-312.016 -154.956)" fill="#263238"/><path d="M373.248,262.94s-.294,0-2.579,2.258a8.98,8.98,0,0,0-2.379,5.572l5.679,4.183,2.592-7.082Z" transform="translate(-315.573 -135.951)" fill="#fff"/><path d="M374.411,276.19l-6.681-4.918v-.347a9.581,9.581,0,0,1,2.579-6.027c2.459-2.432,2.793-2.445,3.007-2.459h.388l3.7,5.532Zm-5.345-5.572,4.664,3.448,2.165-5.947-2.739-4.076c-.347.281-.935.815-1.938,1.8a8.192,8.192,0,0,0-2.111,4.771Z" transform="translate(-315.762 -136.119)" fill="#263238"/><path d="M401.014,245.39s-11.572,8.232-15.554,12.387c-2.673,2.793-13.51,11.064-13.51,11.064l3.314,4.931s6.334-3.1,12.027-5.546c7.35-3.154,21.554-2.793,23.278-14.352" transform="translate(-314.343 -141.853)" fill="#7300cc"/><path d="M375.259,274.766l-4.009-5.933.508-.388c.107-.08,10.837-8.272,13.43-10.984,4.009-4.156,15.18-12.134,15.648-12.481l.775,1.1c-.12.08-11.572,8.245-15.448,12.307-2.379,2.472-10.9,9.06-13.1,10.69L375.74,273c1.644-.8,6.828-3.287,11.546-5.345a45.912,45.912,0,0,1,6.8-2.031c6.962-1.724,14.86-3.661,16.035-11.813l1.336.2c-1.336,9.033-10.062,11.185-17.064,12.909a44.989,44.989,0,0,0-6.6,1.964c-5.612,2.405-11.946,5.492-12.027,5.532Z" transform="translate(-314.578 -141.99)" fill="#263238"/><path d="M329.59,226.271l9.434,21.755,9.969.307L340.12,225.95Z" transform="translate(-328.588 -148.39)" fill="#263238"/><path d="M350.247,249.213l-11.412-.361-10-23.051,12.027-.361Zm-10.5-1.644,8.539.267-8.325-21.006-9.087.281Z" transform="translate(-328.84 -148.562)" fill="#263238"/><path d="M337.237,232.771s-6.428-1.43-7.229.12,2.94,8.873,4.543,10.583,5.479.882,7.537-.147.254-5.746-.975-6.267a61.47,61.47,0,0,0-7.323-1.336s5.479.882,6.307-.374S339.669,233.279,337.237,232.771Z" transform="translate(-328.485 -146.298)" fill="#fff"/><path d="M337.652,245.284a4.517,4.517,0,0,1-3.434-1.149c-1.483-1.577-5.746-9.287-4.664-11.358.949-1.817,5.88-.935,8.018-.468s3.154.975,3.528,1.844a1.751,1.751,0,0,1-.241,1.71,1.336,1.336,0,0,1-.454.428,7.511,7.511,0,0,1,1.163.347c1.216.521,2.272,3.06,2.312,4.811a2.673,2.673,0,0,1-1.336,2.673A11.732,11.732,0,0,1,337.652,245.284Zm-5.1-12.28c-.976,0-1.644.12-1.777.361-.508.989,2.606,7.871,4.45,9.822,1.336,1.336,4.744.722,6.681-.281.494-.254.588-.922.575-1.443a5.425,5.425,0,0,0-1.51-3.621,45.651,45.651,0,0,0-6.2-1.189l-.962-.147.2-1.336.815.107c2.365.294,4.57.227,4.851-.2s.134-.414.12-.454-.388-.655-2.552-1.056h0a23.814,23.814,0,0,0-4.69-.561Z" transform="translate(-328.658 -146.464)" fill="#263238"/></g></g><g transform="translate(-0.36 39.53)"><path d="M88.8,33.746A8.774,8.774,0,1,1,80.024,25,8.638,8.638,0,0,1,88.8,33.746Zm-3.841,0a4.946,4.946,0,1,0-9.866,0,4.946,4.946,0,1,0,9.866,0Z" transform="translate(-42.937 -14.857)" fill="#ea4335"/><path d="M136.8,33.746A8.774,8.774,0,1,1,128.024,25,8.638,8.638,0,0,1,136.8,33.746Zm-3.841,0a4.946,4.946,0,1,0-9.866,0,4.946,4.946,0,1,0,9.866,0Z" transform="translate(-72.009 -14.857)" fill="#fbbc05"/><path d="M184,25.528v15.7c0,6.459-3.809,9.1-8.312,9.1a8.329,8.329,0,0,1-7.752-5.154l3.344-1.392a4.831,4.831,0,0,0,4.4,3.1c2.882,0,4.669-1.778,4.669-5.126V40.5h-.134a5.955,5.955,0,0,1-4.606,1.987,8.752,8.752,0,0,1,0-17.488,6.061,6.061,0,0,1,4.606,1.956h.134V25.532H184Zm-3.375,8.249c0-3.08-2.054-5.331-4.669-5.331a5.057,5.057,0,0,0-4.87,5.331,5.02,5.02,0,0,0,4.87,5.268C178.567,39.046,180.621,36.826,180.621,33.778Z" transform="translate(-101.07 -14.857)" fill="#8f00fc"/><path d="M219.246,3V28.631H215.5V3Z" transform="translate(-130.306 -1.532)" fill="#34a853"/><path d="M242.075,36.619l2.981,1.987a8.705,8.705,0,0,1-7.287,3.876,8.557,8.557,0,0,1-8.679-8.746c0-5.2,3.742-8.746,8.249-8.746,4.539,0,6.759,3.612,7.484,5.564l.4.994L233.53,36.39a4.451,4.451,0,0,0,4.239,2.65A4.992,4.992,0,0,0,242.075,36.619ZM232.9,33.472l7.815-3.245a3.386,3.386,0,0,0-3.245-1.853A4.8,4.8,0,0,0,232.9,33.472Z" transform="translate(-138.537 -14.851)" fill="#ea4335"/><path d="M14.134,16.614V12.9h12.5a12.3,12.3,0,0,1,.185,2.24,12.254,12.254,0,0,1-3.214,8.679,12.418,12.418,0,0,1-9.472,3.809A13.771,13.771,0,0,1,.36,14.05,13.771,13.771,0,0,1,14.138.47a12.94,12.94,0,0,1,9.306,3.742L20.825,6.83a9.458,9.458,0,0,0-6.692-2.65,9.742,9.742,0,0,0-9.74,9.87,9.742,9.742,0,0,0,9.74,9.87A9.085,9.085,0,0,0,20.991,21.2,7.691,7.691,0,0,0,23,16.61Z" transform="translate(0 0)" fill="#8f00fc"/></g></svg>