<svg xmlns="http://www.w3.org/2000/svg" xmlns:xlink="http://www.w3.org/1999/xlink" width="358.992" height="341.865" viewBox="0 0 358.992 341.865"><defs><clipPath id="a"><path d="M326.7,171.006A72.117,72.117,0,0,0,252.843,98.9c-39,.9-70.483,33.234-70.393,72.279a71.857,71.857,0,0,0,19.859,49.509A59.938,59.938,0,0,1,217.453,248.2l.476,2.03h73.3l.278-1.195a63.288,63.288,0,0,1,15.674-28.743A71.776,71.776,0,0,0,326.7,171.006Z" transform="translate(-182.45 -98.877)" fill="#fff" stroke="#263238" stroke-miterlimit="10" stroke-width="1"/></clipPath><clipPath id="b"><path d="M334.347,288.921l-3.216,6.8a360.439,360.439,0,0,0-21.413,58.869c-.2.746-4.4,15.629-1.033,52.7l-1.922,6.5,2.1,10.779s-3.162,4.563-3.045,6.063c0,0,7.8,1.455,10.4,2.847,2.021,1.087,8.084,7.1,8.084,7.1,1.725-.359,1.868-7.329,1.868-7.329s3.593-61.869,4.644-64.546,7.365-14.156,17.237-40.464c0,0,.225,36.746,2.865,46.042,2.344,8.273-.431,31.437-.431,31.437l1.581,25.761s-5.551,5.767-1.051,7.32c0,0,3.009-5.793,11.587-7.1,4.356-.674,9.79,7.069,9.79,7.069,1.9-.611-.808-10.338-.808-10.338,6.072-45.854,1.59-37.554,2.8-59.974.781-14.371,4.859-75.935.072-80.929Z" transform="translate(-305.816 -287.52)" fill="#757575" stroke="#263238" stroke-linecap="round" stroke-linejoin="round" stroke-width="1"/></clipPath><clipPath id="c"><path d="M291.71,322.261s3.907-6.018,8.084-5.623l1.572,3.593s2.578.135,4.132,3.8,10.168,13.85,10.168,13.85l-12.476,12.943s-10.419-21.9-9.88-25.455Z" transform="translate(-291.71 -316.619)" fill="#bfbfbf" stroke="#263238" stroke-linecap="round" stroke-linejoin="round" stroke-width="1"/></clipPath><clipPath id="d"><path d="M324.282,288.59s-15.782,2.326-12.97,20.551,1.051,20.785,1.213,28.294,5.1,10.545,5.1,10.545l3.853-13.015s-1.922,2.47-1.284-7.123.8-21.9.8-21.9" transform="translate(-310.977 -288.59)" fill="#8f00fc" stroke="#263238" stroke-linecap="round" stroke-linejoin="round" stroke-width="1"/></clipPath><clipPath id="e"><path d="M349.437,379.1s4.491,6.961,2.892,8.542c0,0-18.054-6.44-36.539,8.362-.341.269-.674.548-1.015.835l-1.338-4.743L316.7,389.4s-.593-2.353-1.06-5.317-.853-6.79-.314-9.27a31.653,31.653,0,0,0-1.509-3.27h0a28.929,28.929,0,0,1-2.12-7.6,39.675,39.675,0,0,1,.961-15.009,60.007,60.007,0,0,1,2.695-8.371c2.623-6.575,15.889-9.665,31.33-5.65a8.2,8.2,0,0,1,4.617,3.135C359.084,348.525,349.437,379.1,349.437,379.1Z" transform="translate(-311.376 -333.123)" fill="#bfbfbf" stroke="#263238" stroke-linecap="round" stroke-linejoin="round" stroke-width="1"/></clipPath><clipPath id="f"><path d="M316.09,294.725c4.446-8.632,12.575-5.623,12.575-5.623,15.826-3.009,16.312,15.422,17.749,25.15s6.674,11.955,8.156,20.111a21.666,21.666,0,0,1-.108,5.9,3.593,3.593,0,0,0-1.437-2.138c.305,10.545-5.937,15.773-6.332,16.078,4.419-6.072,3.88-10.006,3.88-10.006-1.707,6.18-8.317,12.261-8.317,12.261s-5.641-1.275-8.291-9.494c-2.344-7.311-5.461-9.88-5.65-10a53.686,53.686,0,0,1,4.707,13.267A124.617,124.617,0,0,1,324.659,336c-11-20.991-9.665-29.731-9.665-29.731" transform="translate(-314.943 -288.595)" fill="#8f00fc" stroke="#263238" stroke-linecap="round" stroke-linejoin="round" stroke-width="1"/></clipPath><clipPath id="g"><path d="M89.469,284.47c-2.4,1.374-8.614,14.623-4.985,40.9s14.47,77.516,16.294,85.33,8.192,26.722,8.192,26.722,2.434-8.192,14.138-3.808a.6.6,0,0,0,.79-.683l-2.569-13.374s-.18-9.782-1.024-12.234c-3.171-9.234-4.752-44.911-5.8-49.9s1.015-19.3,1.015-19.3,14.65,35.03,15.126,38.5,9.4,17.767,9.4,17.767l1.545,13.159S153.476,427.914,155.569,434l14.165-3.063-.4-10.069-3.817-1.311-6.665-22.9A202.286,202.286,0,0,0,151.1,373.3c-3.153-7.967-12.09-38.8-12.09-38.8-2.775-3.018-5.389-19.707-5.389-19.707l-4.293-21.045Z" transform="translate(-83.373 -284.47)" fill="#8f00fc" stroke="#263238" stroke-linecap="round" stroke-linejoin="round" stroke-width="1"/></clipPath></defs><g transform="translate(-49.146 -81.418)"><g transform="translate(49.647 422.17)"><line x2="357.991" fill="none" stroke="#263238" stroke-linecap="round" stroke-linejoin="round" stroke-width="1"/></g><g transform="translate(69.91 81.918)"><rect width="22.41" height="9" transform="translate(37.689 52.932) rotate(180)" fill="none" stroke="#fff" stroke-linecap="round" stroke-linejoin="round" stroke-width="1"/><rect width="22.41" height="9" transform="translate(55.635 63.225) rotate(180)" fill="none" stroke="#fff" stroke-linecap="round" stroke-linejoin="round" stroke-width="1"/><rect width="22.41" height="9" transform="translate(107.076 121.591) rotate(180)" fill="none" stroke="#fff" stroke-linecap="round" stroke-linejoin="round" stroke-width="1"/><rect width="22.41" height="9" transform="translate(95.875 133.474) rotate(180)" fill="none" stroke="#fff" stroke-linecap="round" stroke-linejoin="round" stroke-width="1"/><rect width="22.41" height="9" transform="translate(26.479 206.131) rotate(180)" fill="none" stroke="#fff" stroke-linecap="round" stroke-linejoin="round" stroke-width="1"/><rect width="22.41" height="9" transform="translate(38.758 217.331) rotate(180)" fill="none" stroke="#fff" stroke-linecap="round" stroke-linejoin="round" stroke-width="1"/><rect width="22.41" height="9" transform="translate(169.295 228.029) rotate(180)" fill="none" stroke="#fff" stroke-linecap="round" stroke-linejoin="round" stroke-width="1"/><rect width="22.41" height="9" transform="translate(157.448 240.011) rotate(180)" fill="none" stroke="#fff" stroke-linecap="round" stroke-linejoin="round" stroke-width="1"/><rect width="22.41" height="9" transform="translate(33.566 287.051) rotate(180)" fill="none" stroke="#fff" stroke-linecap="round" stroke-linejoin="round" stroke-width="1"/><rect width="22.41" height="9" transform="translate(51.593 206.131) rotate(180)" fill="none" stroke="#fff" stroke-linecap="round" stroke-linejoin="round" stroke-width="1"/><path d="M217.9,274.84c-21.791.243-44.246.243-65.354,0" transform="translate(-82.193 -103.865)" fill="none" stroke="#fff" stroke-linecap="round" stroke-linejoin="round" stroke-width="1"/><path d="M234.679,274.84H229.2" transform="translate(-89.995 -103.865)" fill="none" stroke="#fff" stroke-linecap="round" stroke-linejoin="round" stroke-width="1"/><path d="M425.994,416.51c-21.791.242-44.246.242-65.354,0" transform="translate(-103.374 -118.286)" fill="none" stroke="#fff" stroke-linecap="round" stroke-linejoin="round" stroke-width="1"/><path d="M442.769,416.51H437.29" transform="translate(-111.176 -118.286)" fill="none" stroke="#fff" stroke-linecap="round" stroke-linejoin="round" stroke-width="1"/><path d="M322.334,111.3c-21.791.243-44.246.243-65.354,0" transform="translate(-92.823 -87.219)" fill="none" stroke="#fff" stroke-linecap="round" stroke-linejoin="round" stroke-width="1"/><path d="M339.109,111.3H333.63" transform="translate(-100.625 -87.219)" fill="none" stroke="#fff" stroke-linecap="round" stroke-linejoin="round" stroke-width="1"/><path d="M111.01,184.88q-14.371.243-28.68.1" transform="translate(-75.046 -94.708)" fill="none" stroke="#fff" stroke-linecap="round" stroke-linejoin="round" stroke-width="1"/><path d="M316.521,396.41q-14.371.243-28.671.1" transform="translate(-95.965 -116.24)" fill="none" stroke="#fff" stroke-linecap="round" stroke-linejoin="round" stroke-width="1"/><path d="M110.47,378.28h3.09" transform="translate(-77.91 -114.394)" fill="none" stroke="#fff" stroke-linecap="round" stroke-linejoin="round" stroke-width="1"/><path d="M74.22,378.28h29.048" transform="translate(-74.22 -114.394)" fill="none" stroke="#fff" stroke-linecap="round" stroke-linejoin="round" stroke-width="1"/><path d="M196.26,84.49h3.09" transform="translate(-86.642 -84.49)" fill="none" stroke="#fff" stroke-linecap="round" stroke-linejoin="round" stroke-width="1"/><path d="M160,84.49h29.048" transform="translate(-82.951 -84.49)" fill="none" stroke="#fff" stroke-linecap="round" stroke-linejoin="round" stroke-width="1"/><rect width="22.41" height="9" transform="translate(284.293 253.79)" fill="none" stroke="#fff" stroke-linecap="round" stroke-linejoin="round" stroke-width="1"/><rect width="22.41" height="9" transform="translate(266.347 243.496)" fill="none" stroke="#fff" stroke-linecap="round" stroke-linejoin="round" stroke-width="1"/><rect width="22.41" height="9" transform="translate(214.906 185.131)" fill="none" stroke="#fff" stroke-linecap="round" stroke-linejoin="round" stroke-width="1"/><rect width="22.41" height="9" transform="translate(226.107 173.247)" fill="none" stroke="#fff" stroke-linecap="round" stroke-linejoin="round" stroke-width="1"/><rect width="22.41" height="9" transform="translate(295.503 100.591)" fill="none" stroke="#fff" stroke-linecap="round" stroke-linejoin="round" stroke-width="1"/><rect width="22.41" height="9" transform="translate(283.224 89.39)" fill="none" stroke="#fff" stroke-linecap="round" stroke-linejoin="round" stroke-width="1"/><rect width="22.41" height="9" transform="translate(152.696 78.692)" fill="none" stroke="#fff" stroke-linecap="round" stroke-linejoin="round" stroke-width="1"/><rect width="22.41" height="9" transform="translate(164.535 66.71)" fill="none" stroke="#fff" stroke-linecap="round" stroke-linejoin="round" stroke-width="1"/><rect width="22.41" height="9" transform="translate(236.122 0.359)" fill="none" stroke="#fff" stroke-linecap="round" stroke-linejoin="round" stroke-width="1"/><rect width="22.41" height="9" transform="translate(270.389 100.591)" fill="none" stroke="#fff" stroke-linecap="round" stroke-linejoin="round" stroke-width="1"/><path d="M281.61,235.6c21.782-.243,44.237-.243,65.354,0" transform="translate(-95.33 -99.853)" fill="none" stroke="#fff" stroke-linecap="round" stroke-linejoin="round" stroke-width="1"/><path d="M271.62,235.62h5.47" transform="translate(-94.313 -99.873)" fill="none" stroke="#fff" stroke-linecap="round" stroke-linejoin="round" stroke-width="1"/><path d="M392.65,325.562q14.371-.243,28.68-.108" transform="translate(-106.632 -109.012)" fill="none" stroke="#fff" stroke-linecap="round" stroke-linejoin="round" stroke-width="1"/><path d="M396.09,132.18H393" transform="translate(-106.668 -89.344)" fill="none" stroke="#fff" stroke-linecap="round" stroke-linejoin="round" stroke-width="1"/><path d="M429.407,132.18H400.35" transform="translate(-107.416 -89.344)" fill="none" stroke="#fff" stroke-linecap="round" stroke-linejoin="round" stroke-width="1"/></g><g transform="translate(167.124 94.841)"><path d="M349.224,200.666l-15.018-11.407s-18.18-34.4-19.213-35.659l-5.443,7.033s10.258,29.955,11.776,34.132,7.761,8.892,10.779,12.1S347.1,218.5,347.1,218.5Z" transform="translate(-195.387 -104.447)" fill="#fff" stroke="#263238" stroke-linecap="round" stroke-linejoin="round" stroke-width="1"/><path d="M266.96,315.039H253.118a16.32,16.32,0,0,1-16.294-15.395l-.755-13.294H284l-.754,13.294A16.312,16.312,0,0,1,266.96,315.039Z" transform="translate(-187.908 -117.959)" fill="#263238"/><path d="M326.7,171.006A72.117,72.117,0,0,0,252.843,98.9c-39,.9-70.483,33.234-70.393,72.279a71.857,71.857,0,0,0,19.859,49.509A59.938,59.938,0,0,1,217.453,248.2l.476,2.03h73.3l.278-1.195a63.288,63.288,0,0,1,15.674-28.743A71.776,71.776,0,0,0,326.7,171.006Z" transform="translate(-182.45 -98.877)" fill="#fff"/><g transform="translate(0 0)" clip-path="url(#a)"><path d="M252.843,98.9c-39,.9-70.483,33.234-70.393,72.279a71.857,71.857,0,0,0,19.859,49.509A59.938,59.938,0,0,1,217.453,248.2l.476,2.03h73.3l.278-1.195a63.225,63.225,0,0,1,15.683-28.743A72.117,72.117,0,0,0,252.843,98.9Zm1.5,130.331a64.393,64.393,0,1,1,64.4-64.4,64.391,64.391,0,0,1-64.4,64.4Z" transform="translate(-182.45 -98.877)" fill="#8f00fc" opacity="0.4"/></g><path d="M326.7,171.006A72.117,72.117,0,0,0,252.843,98.9c-39,.9-70.483,33.234-70.393,72.279a71.857,71.857,0,0,0,19.859,49.509A59.938,59.938,0,0,1,217.453,248.2l.476,2.03h73.3l.278-1.195a63.288,63.288,0,0,1,15.674-28.743A71.776,71.776,0,0,0,326.7,171.006Z" transform="translate(-182.45 -98.877)" fill="none" stroke="#263238" stroke-miterlimit="10" stroke-width="1"/><path d="M233.63,302.906h49.231a27.081,27.081,0,0,0,13.931-22.177l1.249-22.069H218.45l1.24,22.069a27.108,27.108,0,0,0,13.94,22.177Z" transform="translate(-186.114 -115.141)" fill="#8f00fc" stroke="#263238" stroke-linecap="round" stroke-linejoin="round" stroke-width="1"/><path d="M297.519,266.909l-77.381,6.243a2.955,2.955,0,0,1-3.189-2.695h0a2.964,2.964,0,0,1,2.695-3.189l77.4-6.27a2.955,2.955,0,0,1,3.189,2.695h0a2.964,2.964,0,0,1-2.713,3.216Z" transform="translate(-185.96 -115.378)" fill="#8f00fc" stroke="#263238" stroke-linecap="round" stroke-linejoin="round" stroke-width="1"/><path d="M297.592,279.945l-76.555,6.18a2.973,2.973,0,0,1-3.189-2.695h0a2.964,2.964,0,0,1,2.695-3.189L297.116,274a2.964,2.964,0,0,1,3.189,2.695h0a2.955,2.955,0,0,1-2.713,3.252Z" transform="translate(-186.052 -116.701)" fill="#8f00fc" stroke="#263238" stroke-linecap="round" stroke-linejoin="round" stroke-width="1"/><path d="M295.643,293.271,225.1,298.966a2.973,2.973,0,0,1-3.189-2.695h0a2.964,2.964,0,0,1,2.695-3.2l70.546-5.695a2.973,2.973,0,0,1,3.189,2.695h0A2.973,2.973,0,0,1,295.643,293.271Z" transform="translate(-186.465 -118.063)" fill="#8f00fc" stroke="#263238" stroke-linecap="round" stroke-linejoin="round" stroke-width="1"/><path d="M321.376,446.368s1.635,9.988,0,14.65H288.34s-1.392-3.494,0-5.7,11.865-3.458,15.126-6.44a56.4,56.4,0,0,0,6.746-8.084Z" transform="translate(-193.165 -133.679)" fill="#263238" stroke="#263238" stroke-miterlimit="10" stroke-width="1"/><path d="M287.72,461.34h34.1l.287,1.76H287.72Z" transform="translate(-193.165 -135.771)" fill="#fff" stroke="#263238" stroke-linecap="round" stroke-linejoin="round" stroke-width="1"/><path d="M314.595,445.64s-3.108.746-3.458.9-3.368,4.77-6.4,5.587-6.054.656-5.587,2.129" transform="translate(-194.324 -134.173)" fill="none" stroke="#fff" stroke-linecap="round" stroke-linejoin="round" stroke-width="1"/><line x2="3.539" y2="2.605" transform="translate(113.39 311.467)" fill="none" stroke="#fff" stroke-linecap="round" stroke-linejoin="round" stroke-width="1"/><line x2="3.413" y2="2.506" transform="translate(111.747 313.749)" fill="none" stroke="#fff" stroke-linecap="round" stroke-linejoin="round" stroke-width="1"/><line x2="2.964" y2="2.865" transform="translate(109.564 315.752)" fill="none" stroke="#fff" stroke-linecap="round" stroke-linejoin="round" stroke-width="1"/><line x2="1.284" y2="2.829" transform="translate(106.573 317.216)" fill="none" stroke="#fff" stroke-linecap="round" stroke-linejoin="round" stroke-width="1"/><path d="M323.615,451.989a27.844,27.844,0,0,0-11.353,1.41c-5.937,2.084-7.985,3.9-7.832,4.446s.853,2.165.853,2.165h2.973s-1.078-1.9-.9-2.165,10.356-4.231,16.222-3.53Z" transform="translate(-194.865 -134.809)" fill="#fff"/><path d="M376.359,461.219s1.275-4.859-.216-6.665c-2.695-3.234.323-5.946-2.362-7.069l-1.123,1.3c-.216-1.32.413-5.344-4.563-5.874-6.018-.629-6.135,3.746-6.458,5.192l.1-2.021c-2.569,0-1.24,2.56-5.129,6.755a11.048,11.048,0,0,0-2.8,8.38Z" transform="translate(-199.887 -133.889)" fill="#263238" stroke="#263238" stroke-miterlimit="10" stroke-width="1"/><path d="M353.78,461.34h23.084l-.5,1.76H353.807Z" transform="translate(-199.889 -135.771)" fill="#fff" stroke="#263238" stroke-linecap="round" stroke-linejoin="round" stroke-width="1"/><path d="M362,453.633s7.581-2.506,11.237.629" transform="translate(-200.726 -134.89)" fill="none" stroke="#fff" stroke-linecap="round" stroke-linejoin="round" stroke-width="1"/><path d="M362,451.814s6.665-2.111,11.237.71" transform="translate(-200.726 -134.724)" fill="none" stroke="#fff" stroke-linecap="round" stroke-linejoin="round" stroke-width="1"/><path d="M362.47,449.986s6.287-2.362,10.841.9" transform="translate(-200.774 -134.531)" fill="none" stroke="#fff" stroke-linecap="round" stroke-linejoin="round" stroke-width="1"/><path d="M356.724,454l.754.737a.62.62,0,0,1,.081.781,9.27,9.27,0,0,0-1.545,5.1h-1.1a16.115,16.115,0,0,1,1.6-5.084l-.566-.575Z" transform="translate(-200.004 -135.024)" fill="#fff"/><path d="M330.315,394.71s-4.9,8.335-13.195,6.557" transform="translate(-196.158 -128.989)" fill="none" stroke="#263238" stroke-linecap="round" stroke-linejoin="round" stroke-width="1"/><path d="M334.347,288.921l-3.216,6.8a360.439,360.439,0,0,0-21.413,58.869c-.2.746-4.4,15.629-1.033,52.7l-1.922,6.5,2.1,10.779s-3.162,4.563-3.045,6.063c0,0,7.8,1.455,10.4,2.847,2.021,1.087,8.084,7.1,8.084,7.1,1.725-.359,1.868-7.329,1.868-7.329s3.593-61.869,4.644-64.546,7.365-14.156,17.237-40.464c0,0,.225,36.746,2.865,46.042,2.344,8.273-.431,31.437-.431,31.437l1.581,25.761s-5.551,5.767-1.051,7.32c0,0,3.009-5.793,11.587-7.1,4.356-.674,9.79,7.069,9.79,7.069,1.9-.611-.808-10.338-.808-10.338,6.072-45.854,1.59-37.554,2.8-59.974.781-14.371,4.859-75.935.072-80.929Z" transform="translate(-195.007 -118.078)" fill="#757575"/><g transform="translate(110.809 169.442)" clip-path="url(#b)"><path d="M379.367,310.106c-21.467,1.689-40.06-5.335-48.117-8.982,1.527-3.44,2.47-5.389,2.47-5.389l3.216-6.8,40.132-1.455C378.8,289.267,379.367,298.438,379.367,310.106Z" transform="translate(-308.405 -287.516)" opacity="0.2"/><path d="M350.073,332.241c-9.773,25.976-16.042,37.348-17.066,40-.593,1.536-2.03,22.545-3.144,40.186-1.293-16.042-2.614-32.973-2.695-36.3-.243-6.611,4.536-15.683,5.255-18.027s-.9-4.877-.9-4.877l8.6-10.832c-.287-3.683,4.258-19.761,4.258-19.761C347.046,325.226,349.472,330.669,350.073,332.241Z" transform="translate(-307.989 -291.094)" opacity="0.2"/></g><path d="M334.347,288.921l-3.216,6.8a360.439,360.439,0,0,0-21.413,58.869c-.2.746-4.4,15.629-1.033,52.7l-1.922,6.5,2.1,10.779s-3.162,4.563-3.045,6.063c0,0,7.8,1.455,10.4,2.847,2.021,1.087,8.084,7.1,8.084,7.1,1.725-.359,1.868-7.329,1.868-7.329s3.593-61.869,4.644-64.546,7.365-14.156,17.237-40.464c0,0,.225,36.746,2.865,46.042,2.344,8.273-.431,31.437-.431,31.437l1.581,25.761s-5.551,5.767-1.051,7.32c0,0,3.009-5.793,11.587-7.1,4.356-.674,9.79,7.069,9.79,7.069,1.9-.611-.808-10.338-.808-10.338,6.072-45.854,1.59-37.554,2.8-59.974.781-14.371,4.859-75.935.072-80.929Z" transform="translate(-195.007 -118.078)" fill="none" stroke="#263238" stroke-linecap="round" stroke-linejoin="round" stroke-width="1"/><path d="M351.83,331.438s-4.9-9.467-9.09-12.108" transform="translate(-198.765 -121.316)" fill="none" stroke="#263238" stroke-linecap="round" stroke-linejoin="round" stroke-width="1"/><path d="M340.7,315.92s14.9,4.491,20.066,5.389" transform="translate(-198.558 -120.969)" fill="none" stroke="#263238" stroke-linecap="round" stroke-linejoin="round" stroke-width="1"/><path d="M348.894,299c-.647,12.413-5.021,14.524-.79,17.228,0,0-.117,5.8,1.985,9.485" transform="translate(-199.126 -119.247)" fill="none" stroke="#263238" stroke-linecap="round" stroke-linejoin="round" stroke-width="1"/><path d="M378.231,293.71s-1.8,19.069,4.1,22.653" transform="translate(-202.352 -118.708)" fill="none" stroke="#263238" stroke-linecap="round" stroke-linejoin="round" stroke-width="1"/><path d="M382.459,300.55s.44,12.692,0,22.922c0,0-1.464,43.231-2.928,48.665s2.255,13.617,1.931,37.1" transform="translate(-202.475 -119.404)" fill="none" stroke="#263238" stroke-linecap="round" stroke-linejoin="round" stroke-width="1"/><path d="M367.15,441.984a6.153,6.153,0,0,1,4.114.548" transform="translate(-201.25 -133.787)" fill="none" stroke="#263238" stroke-linecap="round" stroke-linejoin="round" stroke-width="1"/><path d="M357.33,447.239a22.7,22.7,0,0,1,6.288-4.329" transform="translate(-200.25 -133.895)" fill="none" stroke="#263238" stroke-linecap="round" stroke-linejoin="round" stroke-width="1"/><path d="M360.06,336.15c3.3,3.683,8.506,10.644,13.85,11.237" transform="translate(-200.528 -123.028)" fill="none" stroke="#263238" stroke-linecap="round" stroke-linejoin="round" stroke-width="1"/><path d="M354.42,329.45c1.006,1.284,2.057,2.533,3.117,3.772" transform="translate(-199.954 -122.346)" fill="none" stroke="#263238" stroke-linecap="round" stroke-linejoin="round" stroke-width="1"/><path d="M359.64,377.56s7.482,10.186,11.587,10.779" transform="translate(-200.486 -127.243)" fill="none" stroke="#263238" stroke-linecap="round" stroke-linejoin="round" stroke-width="1"/><path d="M347.462,330.76s-13.32,37.114-17.964,40.779c0,0-.53,27.288-.674,36.827a174,174,0,0,1-2.344,22.2" transform="translate(-197.11 -122.479)" fill="none" stroke="#263238" stroke-linecap="round" stroke-linejoin="round" stroke-width="1"/><path d="M310.65,441.57s5.129,1.8,7.626,2.9a6.88,6.88,0,0,1,3.377,3.593" transform="translate(-195.499 -133.759)" fill="none" stroke="#263238" stroke-linecap="round" stroke-linejoin="round" stroke-width="1"/><path d="M325.1,359.219c7.186-4.491,16.59-10.1,20.389-18.009" transform="translate(-196.97 -123.543)" fill="none" stroke="#263238" stroke-linecap="round" stroke-linejoin="round" stroke-width="1"/><path d="M318.16,365.116c1.356-.746,2.695-1.527,4.006-2.326" transform="translate(-196.263 -125.74)" fill="none" stroke="#263238" stroke-linecap="round" stroke-linejoin="round" stroke-width="1"/><path d="M343.26,304.265c3.844-.054,8.084-.566,11.344-2.695" transform="translate(-198.818 -119.508)" fill="none" stroke="#263238" stroke-linecap="round" stroke-linejoin="round" stroke-width="1"/><path d="M336.45,304.17c1.1.153,2.21.251,3.323.305" transform="translate(-198.125 -119.773)" fill="none" stroke="#263238" stroke-linecap="round" stroke-linejoin="round" stroke-width="1"/><path d="M356.1,214.284s22.617-6.422,35.623.539c3.234,1.725,10.626,7.338,10.365,14.066s-21.665,38.048-21.4,42.216,0,14.946-1.581,15.683-35.928,1.734-44.408-.449c-3.386-.9,3.27-16.9,3.27-16.9S344.446,234.727,356.1,214.284Z" transform="translate(-197.848 -110.349)" fill="#8f00fc" stroke="#263238" stroke-linecap="round" stroke-linejoin="round" stroke-width="1"/><path d="M392.328,210.048s-14.3,5.722-18.988-.26a4.725,4.725,0,0,0,4.114-1.967A7.186,7.186,0,0,0,378.613,204c.072-1.06-2.03-14.659-1.159-15.88,13.177-18.413,16.087,8.623,16.087,8.623S388.879,208.35,392.328,210.048Z" transform="translate(-201.88 -107.307)" fill="#fff" stroke="#263238" stroke-linecap="round" stroke-linejoin="round" stroke-width="1"/><path d="M382.779,205.05s-.9,4.249-4.859,5.147a7.185,7.185,0,0,0,1.159-3.817,21.721,21.721,0,0,0,3.7-1.329Z" transform="translate(-202.346 -109.684)" fill="#263238"/><path d="M395.183,207.92,380.4,211.845v7.68S376.1,230.259,376.24,232s4.159,71.713,4.159,71.713,12.009-.9,16.347-8.353c0,0-1.743-27.126,0-31.59a37.726,37.726,0,0,0,1.958-10.338s11.308-21.135,8.793-27.584-10.365-12.728-10.365-12.728Z" transform="translate(-202.175 -109.976)" fill="#263238"/><path d="M382.77,213.51s2.434,7.958,2.74,7.8,8.758-3.593,11.039-6.988" transform="translate(-202.84 -110.545)" fill="none" stroke="#fff" stroke-linecap="round" stroke-linejoin="round" stroke-width="1"/><path d="M373,210.644c-.216-.305-9.413-5.946-9.413-5.946l-4.734,1.257-6.988-4.365s-7.078,21.557-6.871,26.542-7.338,32.587-8.443,43.482c0,0,8.982-17.713,10.267-20.8s5.452-23.892,8.9-28.743,11.515-10.877,11.515-10.877Z" transform="translate(-198.135 -109.332)" fill="#263238"/><path d="M393.382,193.951a12.971,12.971,0,0,0,.79-5.65c-.97-13.626-4.186-16.8-9.494-15.907-19.824,3.305-13.949,13.365-14.7,16.707s-3.593,3.593-3.189,5.111c.153.6,2.488.665,2.488.665l.144,3.144.9.216s.719,7.186,2.542,7.985c2.308,1.051,9.207-3.117,9.189-5.7" transform="translate(-201.209 -106.346)" fill="#fff" stroke="#263238" stroke-linecap="round" stroke-linejoin="round" stroke-width="1"/><path d="M372.06,185.553s2.784-.566,4.177,1.662" transform="translate(-201.75 -107.693)" fill="none" stroke="#263238" stroke-linecap="round" stroke-linejoin="round" stroke-width="1"/><path d="M373.347,190c.1.665.467,1.15.808,1.1s.539-.629.44-1.284-.467-1.15-.808-1.1S373.248,189.348,373.347,190Z" transform="translate(-201.878 -108.021)" fill="#263238"/><path d="M370.71,201.109a14.955,14.955,0,0,0,4.32-.629" transform="translate(-201.612 -109.219)" fill="none" stroke="#263238" stroke-linecap="round" stroke-linejoin="round" stroke-width="1"/><path d="M374.478,200.7s-1.15,1.6-2.183,1.6-1.1-.8-1.1-.8" transform="translate(-201.662 -109.241)" fill="none" stroke="#263238" stroke-linecap="round" stroke-linejoin="round" stroke-width="1"/><path d="M394.567,174.244s.988-4.231-8.874-4.8c-7.7-.44-14.731.234-17.327,5.219s-2.326,9.467,1.383,10.042a13.985,13.985,0,0,1,5.937-9.18s-2.156,5.569,1.087,8.317a8.218,8.218,0,0,0,2.4,1.437,5.8,5.8,0,0,0,.9,1.311c1.563,1.8,1.626,5.515,1.626,5.515l1.509-.9s-2.192-5.8,4.177-4.437c3.27.7,2.695,4.653,3.171,7.114s1.8,3.135,1.8,3.135a18.306,18.306,0,0,0,3.431-5.677h0s3.252-2.317,3.252-5.722S398.115,176.687,394.567,174.244Z" transform="translate(-201.199 -106.048)" fill="#263238"/><path d="M385.82,188.491s2.066-3.18,3.9-3.252,3.063,6.287,1.383,8.758-3.332,3.3-4.1,2.56a2.138,2.138,0,0,1-.539-1.8" transform="translate(-203.15 -107.667)" fill="#fff" stroke="#263238" stroke-linecap="round" stroke-linejoin="round" stroke-width="1"/><path d="M359,215.878a56.4,56.4,0,0,0,6.009-7.958" transform="translate(-200.42 -109.976)" fill="none" stroke="#fff" stroke-linecap="round" stroke-linejoin="round" stroke-width="1"/><path d="M359,207.92a5.865,5.865,0,0,1,3,2.569" transform="translate(-200.42 -109.976)" fill="none" stroke="#fff" stroke-linecap="round" stroke-linejoin="round" stroke-width="1"/><path d="M351.856,200.805l-7.4-3.108-2.506-3.817a35.731,35.731,0,0,0-5.389,21.557l4.114,2.623,5.614,12.755Z" transform="translate(-198.127 -108.547)" fill="#263238"/><path d="M374.878,234.981s7.437,10.491,3.781,14.928c-1.716,2.093-16.868,7.123-16.868,7.123l-45.45-2.695-15.126,2.695-1.689.135a1.734,1.734,0,0,1,.413-2.542s-.817-1.976-.476-2.416c1.033-1.32,5.74-3.485,5.74-3.485s-5.434,1.356-3.2-1.563c1.527-1.985,7.329-2.4,10.006-4.15,2.2-1.446.278-9.467,5.057-8.03a15.269,15.269,0,0,0-.9,6.817c.072.584.2,3.458.2,3.458,2.425,2.775,28.428-.817,30.665-.9s13.132-1.725,13.132-1.725Z" transform="translate(-194.328 -112.713)" fill="#fff" stroke="#263238" stroke-linecap="round" stroke-linejoin="round" stroke-width="1"/><path d="M309.924,246.71a4.294,4.294,0,0,1,.413,1.8c-.117.593-1.716,1.716-1.716,1.716a5.32,5.32,0,0,0,0,1.716c.18.413-1.716,1.886-1.716,2.416a5.03,5.03,0,0,1-.826,1.716" transform="translate(-195.034 -113.924)" fill="none" stroke="#263238" stroke-linecap="round" stroke-linejoin="round" stroke-width="1"/><path d="M300,256.606c.71.539,3.737-2.452,5.434-2.6" transform="translate(-194.415 -114.667)" fill="none" stroke="#263238" stroke-linecap="round" stroke-linejoin="round" stroke-width="1"/><path d="M303.991,257.36a19.287,19.287,0,0,1-3.961,1.9" transform="translate(-194.418 -115.008)" fill="none" stroke="#263238" stroke-linecap="round" stroke-linejoin="round" stroke-width="1"/><path d="M382,234l1.159-1.976s3.054,1.3,3.88,0,10.069-5.56,11.847-5.443" transform="translate(-202.762 -111.875)" fill="none" stroke="#fff" stroke-linecap="round" stroke-linejoin="round" stroke-width="1"/><path d="M386.2,253.677s2.246,2.308,2.838,1.329,8.623-1.4,11.973-4.177" transform="translate(-203.189 -114.344)" fill="none" stroke="#fff" stroke-linecap="round" stroke-linejoin="round" stroke-width="1"/><path d="M383.82,264.42c0,.359,5.928,18.952,8.291,21.557" transform="translate(-202.947 -115.727)" fill="none" stroke="#fff" stroke-linecap="round" stroke-linejoin="round" stroke-width="1"/><path d="M368.073,266.53c-.71.476-14.488,11.964-20.273,12.081" transform="translate(-199.28 -115.942)" fill="none" stroke="#263238" stroke-linecap="round" stroke-linejoin="round" stroke-width="1"/><path d="M359,230.71c0,.674,4.078,6.243,6.009,7.779" transform="translate(-200.42 -112.296)" fill="none" stroke="#263238" stroke-linecap="round" stroke-linejoin="round" stroke-width="1"/></g><g transform="translate(232.65 265.243)"><path d="M297.281,298.55c2.4,0-1.275,3.88-1.275,3.88a25.472,25.472,0,0,1-1.635,8.272l7.437,11.5-6.4,5.084L288.918,314.1s-5.668-2.03-4.3-5.389c.844-2.12,3.593-2.353,3.593-2.353A50.371,50.371,0,0,1,297.281,298.55Z" transform="translate(-258.354 -289.604)" fill="#fff" stroke="#263238" stroke-linecap="round" stroke-linejoin="round" stroke-width="1"/><path d="M291.71,322.261s3.907-6.018,8.084-5.623l1.572,3.593s2.578.135,4.132,3.8,10.168,13.85,10.168,13.85l-12.476,12.943s-10.419-21.9-9.88-25.455Z" transform="translate(-259.097 -291.443)" fill="#bfbfbf"/><g transform="translate(32.613 25.176)" clip-path="url(#c)"><path d="M291.71,322.261s3.907-6.018,8.084-5.623l1.572,3.593s2.578.135,4.132,3.8,10.168,13.85,10.168,13.85l-12.476,12.943s-10.419-21.9-9.88-25.455Z" transform="translate(-291.71 -316.619)" opacity="0.2"/></g><path d="M291.71,322.261s3.907-6.018,8.084-5.623l1.572,3.593s2.578.135,4.132,3.8,10.168,13.85,10.168,13.85l-12.476,12.943s-10.419-21.9-9.88-25.455Z" transform="translate(-259.097 -291.443)" fill="none" stroke="#263238" stroke-linecap="round" stroke-linejoin="round" stroke-width="1"/><path d="M324.282,288.59s-15.782,2.326-12.97,20.551,1.051,20.785,1.213,28.294,5.1,10.545,5.1,10.545l3.853-13.015s-1.922,2.47-1.284-7.123.8-21.9.8-21.9" transform="translate(-261.058 -288.59)" fill="#8f00fc"/><g transform="translate(49.918)" clip-path="url(#d)"><path d="M324.282,288.59s-15.782,2.326-12.97,20.551,1.051,20.785,1.213,28.294,5.1,10.545,5.1,10.545l3.853-13.015s-1.922,2.47-1.284-7.123.8-21.9.8-21.9" transform="translate(-310.977 -288.59)" opacity="0.2"/></g><path d="M324.282,288.59s-15.782,2.326-12.97,20.551,1.051,20.785,1.213,28.294,5.1,10.545,5.1,10.545l3.853-13.015s-1.922,2.47-1.284-7.123.8-21.9.8-21.9" transform="translate(-261.058 -288.59)" fill="none" stroke="#263238" stroke-linecap="round" stroke-linejoin="round" stroke-width="1"/><path d="M315,319.78s1.8,9.88.485,16.725" transform="translate(-261.468 -291.765)" fill="none" stroke="#263238" stroke-linecap="round" stroke-linejoin="round" stroke-width="1"/><path d="M274.128,331.8a21.026,21.026,0,0,1-2.775-7.033c1-1.3.431-7.356.467-7.967s-3.225-3.665-4.491-7.931a4.374,4.374,0,0,0-1.4,2.937c.081,1.8.952,3.153.629,3.458-1.716,1.617-6.216-.287-7.581-.772-3.018-1.06-4.491.512-2.964,2.192.539.593,1.7.162,1.6,1.617s-.332.2.44,2.542.494,3.09,2.255,4.267l4.554,3.054,3.656,7.77Z" transform="translate(-255.402 -290.654)" fill="#fff" stroke="#263238" stroke-linecap="round" stroke-linejoin="round" stroke-width="1"/><path d="M315.853,398.035s6.288-9.3,21.943-9.817,14.883,8.829,14.883,8.829,8.138,11.937,7.186,21.27-13.186,17.65-13.186,17.65,24.988,5.847,27.845,4.635,8.659,11.2,6.422,13.985-72.89-1.976-72.89-1.976-7.033-8.273-7.347-14.057,15.566-27.97,15.135-29.03S315.853,398.035,315.853,398.035Z" transform="translate(-260.013 -298.729)" fill="#263238"/><path d="M339.511,408.582S341.6,425.9,332.7,428.909L303.376,440.7s40.806,3.53,47.021,2.272,14.937,11.353,14.937,11.353H290.872c-12.692,0-19.94-10.051-17.38-18.144s37.3-31.931,37.3-31.931-1.8-8.74,17.255-15.171C345.241,383.28,339.511,408.582,339.511,408.582Z" transform="translate(-257.191 -298.731)" fill="#263238"/><path d="M349.437,379.1s4.491,6.961,2.892,8.542c0,0-18.054-6.44-36.539,8.362-.341.269-.674.548-1.015.835l-1.338-4.743L316.7,389.4s-.593-2.353-1.06-5.317-.853-6.79-.314-9.27a31.653,31.653,0,0,0-1.509-3.27h0a28.929,28.929,0,0,1-2.12-7.6,39.675,39.675,0,0,1,.961-15.009,60.007,60.007,0,0,1,2.695-8.371c2.623-6.575,15.889-9.665,31.33-5.65a8.2,8.2,0,0,1,4.617,3.135C359.084,348.525,349.437,379.1,349.437,379.1Z" transform="translate(-261.099 -293.123)" fill="#bfbfbf"/><g transform="translate(50.277 40)" clip-path="url(#e)"><path d="M311.684,365.641a39.675,39.675,0,0,1,.961-15.009l3.27-1.042S318.043,355.7,311.684,365.641Z" transform="translate(-311.375 -334.799)" opacity="0.2"/><path d="M315.913,388.459c-.494-3.072-.853-6.79-.314-9.27a31.653,31.653,0,0,0-1.509-3.27s7.536,5.91,10.509,5.389C326.4,380.986,320.71,385.127,315.913,388.459Z" transform="translate(-311.652 -337.479)" opacity="0.2"/><path d="M349.937,379.259s4.491,6.961,2.892,8.542c0,0-18.054-6.44-36.539,8.362,3.539-4.491,8.982-9.683,15.665-11.228,12.359-2.847,17.183-2.443,17.183-2.443l-4.006-5.192s-13.473,0-20.309-10.231a38.46,38.46,0,0,0,10.967,1.922c5.03.108,10.967-4.1,12.773-5.488-1.536,1.006-6.287,2.838-14.192-5.048-9.773-9.773-10.258-27.979,10.761-22.886a25.852,25.852,0,0,1,6.656,2.695C359.584,348.684,349.937,379.259,349.937,379.259Z" transform="translate(-311.876 -333.282)" opacity="0.2"/></g><path d="M349.437,379.1s4.491,6.961,2.892,8.542c0,0-18.054-6.44-36.539,8.362-.341.269-.674.548-1.015.835l-1.338-4.743L316.7,389.4s-.593-2.353-1.06-5.317-.853-6.79-.314-9.27a31.653,31.653,0,0,0-1.509-3.27h0a28.929,28.929,0,0,1-2.12-7.6,39.675,39.675,0,0,1,.961-15.009,60.007,60.007,0,0,1,2.695-8.371c2.623-6.575,15.889-9.665,31.33-5.65a8.2,8.2,0,0,1,4.617,3.135C359.084,348.525,349.437,379.1,349.437,379.1Z" transform="translate(-261.099 -293.123)" fill="none" stroke="#263238" stroke-linecap="round" stroke-linejoin="round" stroke-width="1"/><path d="M351.129,418.78c.162,6.234-8.883,12.629-14.03,12.144,0,0-8.6,6.287-18.539,8.65" transform="translate(-261.83 -301.842)" fill="none" stroke="#fff" stroke-linecap="round" stroke-linejoin="round" stroke-width="1"/><path d="M294.91,443.117s11.955-1.275,16.365.853,26.354,5.308,29.982,4.68" transform="translate(-259.423 -304.28)" fill="none" stroke="#fff" stroke-linecap="round" stroke-linejoin="round" stroke-width="1"/><path d="M337.418,404s5.856-1.231,10.231,0c0,0,.638,6.557,0,10.186l-4.976,2.551a53,53,0,0,1-5.255-1.913c-.323-.323-.287-7.033-.728-8.309" transform="translate(-263.676 -300.281)" fill="none" stroke="#fff" stroke-linecap="round" stroke-linejoin="round" stroke-width="1"/><path d="M364.486,416.013l-1.266.844-3.108-2.767c.108-2.982-2.452-9.377-2.452-9.377a6.072,6.072,0,0,1,3.413.53" transform="translate(-265.81 -300.404)" fill="none" stroke="#fff" stroke-linecap="round" stroke-linejoin="round" stroke-width="1"/><path d="M352.34,430.35a9.683,9.683,0,0,0,7.446,1.168" transform="translate(-265.269 -303.019)" fill="none" stroke="#fff" stroke-linecap="round" stroke-linejoin="round" stroke-width="1"/><path d="M349.454,441.93s-4.859,3.341-12.764,1.527" transform="translate(-263.676 -304.198)" fill="none" stroke="#fff" stroke-linecap="round" stroke-linejoin="round" stroke-width="1"/><path d="M335.661,430.867s-7.374-2.425-9.081-5.847" transform="translate(-262.647 -302.477)" fill="none" stroke="#fff" stroke-linecap="round" stroke-linejoin="round" stroke-width="1"/><path d="M321.24,429.63c.539.431,4.8,1.707,9.332,1.707" transform="translate(-262.103 -302.946)" fill="none" stroke="#fff" stroke-linecap="round" stroke-linejoin="round" stroke-width="1"/><path d="M292.9,438.89s3.719.9,4.68,2.237" transform="translate(-259.218 -303.889)" fill="none" stroke="#fff" stroke-linecap="round" stroke-linejoin="round" stroke-width="1"/><path d="M343.861,451.34s-3.593,2.344-3.521,5.434" transform="translate(-264.047 -305.156)" fill="none" stroke="#fff" stroke-linecap="round" stroke-linejoin="round" stroke-width="1"/><path d="M376.068,450.675c.2-5.147,4.949-3.009,4.949-3.009s3.476-5.111,6.844-3.916,4.24,2.964,9.593,4.85,12.629.4,14.6,5.5-.548,7.949-12.629,7.015-15.27-1.32-15.27-1.32S375.664,461.022,376.068,450.675Z" transform="translate(-267.683 -304.365)" fill="#8f00fc" stroke="#263238" stroke-linecap="round" stroke-linejoin="round" stroke-width="1"/><path d="M381.3,450.27a6.71,6.71,0,0,0,2.425,5.794" transform="translate(-268.213 -305.047)" fill="none" stroke="#263238" stroke-linecap="round" stroke-linejoin="round" stroke-width="1"/><path d="M386.582,443.7c-2.569,1.024-2.892,6.925,3.054,10.689s7.132.548,10.886,3.7,9.647,3.593,13.042,1.15.62-7.186-5.713-9.7-8.362,0-11.847-1.922S392.052,441.518,386.582,443.7Z" transform="translate(-268.576 -304.316)" fill="#bfbfbf" stroke="#263238" stroke-linecap="round" stroke-linejoin="round" stroke-width="1"/><path d="M389.06,445c-.2.647,0,6.593,0,6.593" transform="translate(-268.997 -304.511)" fill="none" stroke="#263238" stroke-linecap="round" stroke-linejoin="round" stroke-width="1"/><line y2="8.928" transform="translate(123.054 140.804)" fill="none" stroke="#263238" stroke-linecap="round" stroke-linejoin="round" stroke-width="1"/><line y2="7.563" transform="translate(126.206 143.301)" fill="none" stroke="#263238" stroke-linecap="round" stroke-linejoin="round" stroke-width="1"/><line x1="0.404" y2="5.793" transform="translate(129.269 145.223)" fill="none" stroke="#263238" stroke-linecap="round" stroke-linejoin="round" stroke-width="1"/><line y2="8.075" transform="translate(133.527 145.268)" fill="none" stroke="#263238" stroke-linecap="round" stroke-linejoin="round" stroke-width="1"/><line y2="8.838" transform="translate(137.299 146.085)" fill="none" stroke="#263238" stroke-linecap="round" stroke-linejoin="round" stroke-width="1"/><line x2="0.395" y2="6.692" transform="translate(141.548 147.639)" fill="none" stroke="#263238" stroke-linecap="round" stroke-linejoin="round" stroke-width="1"/><path d="M361.551,446.3a27.431,27.431,0,0,0-9.4,3.737s-1.9-2.793-3.674-.072-.485,12.279,3.674,10.365c0,0,5.937,1.958,17.919.763s.593-7.788.593-7.788Z" transform="translate(-264.797 -304.643)" fill="#8f00fc" stroke="#263238" stroke-linecap="round" stroke-linejoin="round" stroke-width="1"/><path d="M363.674,446.361c-4.662-.952-7.284,7-5.084,10.779s4.06,3.808,12.359,3.808,16.581.3,16.069-7.662-11.856-5.937-14.56-4.931S366.162,446.873,363.674,446.361Z" transform="translate(-265.825 -304.641)" fill="#bfbfbf" stroke="#263238" stroke-linecap="round" stroke-linejoin="round" stroke-width="1"/><line x2="0.467" y2="10.698" transform="translate(96.368 143.48)" fill="none" stroke="#263238" stroke-linecap="round" stroke-linejoin="round" stroke-width="1"/><line x2="0.593" y2="9.701" transform="translate(99.835 144.477)" fill="none" stroke="#263238" stroke-linecap="round" stroke-linejoin="round" stroke-width="1"/><line x2="0.593" y2="9.701" transform="translate(102.808 144.971)" fill="none" stroke="#263238" stroke-linecap="round" stroke-linejoin="round" stroke-width="1"/><line x2="0.907" y2="9.108" transform="translate(106.356 145.564)" fill="none" stroke="#263238" stroke-linecap="round" stroke-linejoin="round" stroke-width="1"/><line x2="0.835" y2="10.195" transform="translate(109.931 144.477)" fill="none" stroke="#263238" stroke-linecap="round" stroke-linejoin="round" stroke-width="1"/><line x2="1.186" y2="9.701" transform="translate(113.596 144.477)" fill="none" stroke="#263238" stroke-linecap="round" stroke-linejoin="round" stroke-width="1"/><line x2="0.988" y2="7.617" transform="translate(117.161 144.971)" fill="none" stroke="#263238" stroke-linecap="round" stroke-linejoin="round" stroke-width="1"/><path d="M351.858,452.19s-.9,4.231.494,6.638" transform="translate(-265.191 -305.242)" fill="none" stroke="#263238" stroke-linecap="round" stroke-linejoin="round" stroke-width="1"/><path d="M318.66,331.927c-.9.171-7.087.377-9.692,1.249-6.62,2.192-23.452,16.4-23.452,16.4l-11.569-20.425s-5.039-.9-7.527,3.593l1.32,3.8a39.812,39.812,0,0,0-.952,4.994c-.305,4.1,8.542,25.419,12.844,26.677,6.737,1.967,25.267-12.045,25.267-12.045s7.77-5.183,8.56-10.015" transform="translate(-256.523 -292.711)" fill="#bfbfbf" stroke="#263238" stroke-linecap="round" stroke-linejoin="round" stroke-width="1"/><path d="M316.09,294.725c4.446-8.632,12.575-5.623,12.575-5.623,15.826-3.009,16.312,15.422,17.749,25.15s6.674,11.955,8.156,20.111a21.666,21.666,0,0,1-.108,5.9,3.593,3.593,0,0,0-1.437-2.138c.305,10.545-5.937,15.773-6.332,16.078,4.419-6.072,3.88-10.006,3.88-10.006-1.707,6.18-8.317,12.261-8.317,12.261s-5.641-1.275-8.291-9.494c-2.344-7.311-5.461-9.88-5.65-10a53.686,53.686,0,0,1,4.707,13.267A124.617,124.617,0,0,1,324.659,336c-11-20.991-9.665-29.731-9.665-29.731" transform="translate(-261.462 -288.591)" fill="#8f00fc"/><g transform="translate(53.481 0.004)" clip-path="url(#f)"><path d="M316.09,294.725c4.446-8.632,12.575-5.623,12.575-5.623,15.826-3.009,16.312,15.422,17.749,25.15s6.674,11.955,8.156,20.111a21.666,21.666,0,0,1-.108,5.9,3.593,3.593,0,0,0-1.437-2.138c.305,10.545-5.937,15.773-6.332,16.078,4.419-6.072,3.88-10.006,3.88-10.006-1.707,6.18-8.317,12.261-8.317,12.261s-5.641-1.275-8.291-9.494c-2.344-7.311-5.461-9.88-5.65-10a53.686,53.686,0,0,1,4.707,13.267A124.617,124.617,0,0,1,324.659,336c-11-20.991-9.665-29.731-9.665-29.731" transform="translate(-314.943 -288.595)" opacity="0.2"/></g><path d="M316.09,294.725c4.446-8.632,12.575-5.623,12.575-5.623,15.826-3.009,16.312,15.422,17.749,25.15s6.674,11.955,8.156,20.111a21.666,21.666,0,0,1-.108,5.9,3.593,3.593,0,0,0-1.437-2.138c.305,10.545-5.937,15.773-6.332,16.078,4.419-6.072,3.88-10.006,3.88-10.006-1.707,6.18-8.317,12.261-8.317,12.261s-5.641-1.275-8.291-9.494c-2.344-7.311-5.461-9.88-5.65-10a53.686,53.686,0,0,1,4.707,13.267A124.617,124.617,0,0,1,324.659,336c-11-20.991-9.665-29.731-9.665-29.731" transform="translate(-261.462 -288.591)" fill="none" stroke="#263238" stroke-linecap="round" stroke-linejoin="round" stroke-width="1"/><path d="M331.5,290.975s8.084-5.228,11.084,10.383,5.434,17.21,6.925,24.88-.1,13.859-2.344,16.168" transform="translate(-263.147 -288.747)" fill="none" stroke="#263238" stroke-linecap="round" stroke-linejoin="round" stroke-width="1"/><path d="M332.69,293.91c2.775,5.228,4.9,12.261,5.758,25.258s.566,26.416,5.749,30.369" transform="translate(-263.269 -289.132)" fill="none" stroke="#263238" stroke-linecap="round" stroke-linejoin="round" stroke-width="1"/><path d="M322.572,292.25s-7.033,3.521-1.913,14.066,10.653,18.97,10.653,25.042,1.653,9.261,4.8,10.338" transform="translate(-261.854 -288.963)" fill="none" stroke="#263238" stroke-linecap="round" stroke-linejoin="round" stroke-width="1"/><path d="M297.079,302.87s-2.012,3.2-2.129,4.141" transform="translate(-259.427 -290.044)" fill="none" stroke="#263238" stroke-linecap="round" stroke-linejoin="round" stroke-width="1"/><path d="M287.143,351.9s-5.335,2.156-4.68,6.746" transform="translate(-258.15 -295.034)" fill="none" stroke="#263238" stroke-linecap="round" stroke-linejoin="round" stroke-width="1"/><path d="M281,350.838s1.976-2.021,3.593-1.258" transform="translate(-258.007 -294.781)" fill="none" stroke="#263238" stroke-linecap="round" stroke-linejoin="round" stroke-width="1"/><path d="M270.55,334.245s3.314-2.479,5.12-2.237" transform="translate(-256.943 -293.008)" fill="none" stroke="#263238" stroke-linecap="round" stroke-linejoin="round" stroke-width="1"/><path d="M301.816,320.65a13.527,13.527,0,0,0-5.686,2.928" transform="translate(-259.547 -291.853)" fill="none" stroke="#263238" stroke-linecap="round" stroke-linejoin="round" stroke-width="1"/><path d="M319.584,353.44c-.171,0-4.284,3.171-7.114,3.009" transform="translate(-261.21 -295.191)" fill="none" stroke="#263238" stroke-linecap="round" stroke-linejoin="round" stroke-width="1"/><path d="M324.39,368.6c0,1.132,10.779,13.868,22.617,11.955" transform="translate(-262.424 -296.734)" fill="none" stroke="#263238" stroke-linecap="round" stroke-linejoin="round" stroke-width="1"/></g><g transform="translate(78.131 192.767)"><path d="M152.982,238s9.341,5,11.407,9.44,9.584,27.324,9.584,27.324,5.7,9.386,7.033,11.291.755,9.88-5.829,9.826-14.192-6.332-14.479-9.171-3.674-4.491-3.934-6.943-8.174-18.638-8.174-18.638Z" transform="translate(-90.011 -210.964)" fill="#263238"/><path d="M165.139,448.191s-1.41,8.659,0,12.7h28.635s1.213-3.036,0-4.94-10.285-3-13.1-5.587a48.8,48.8,0,0,1-5.847-7.015Z" transform="translate(-91.632 -231.866)" fill="#fff" stroke="#263238" stroke-linecap="round" stroke-linejoin="round" stroke-width="1"/><path d="M194.313,461.18H164.77l-.26,1.527h29.8Z" transform="translate(-91.632 -233.681)" fill="#fff" stroke="#263238" stroke-linecap="round" stroke-linejoin="round" stroke-width="1"/><path d="M172.88,447.57s2.695.647,2.991.754,2.928,4.132,5.551,4.832,5.237.575,4.832,1.85" transform="translate(-92.484 -232.295)" fill="none" stroke="#263238" stroke-linecap="round" stroke-linejoin="round" stroke-width="1"/><line x1="3.072" y2="2.263" transform="translate(83.289 215.275)" fill="none" stroke="#263238" stroke-linecap="round" stroke-linejoin="round" stroke-width="1"/><line x1="2.955" y2="2.165" transform="translate(84.825 217.26)" fill="none" stroke="#263238" stroke-linecap="round" stroke-linejoin="round" stroke-width="1"/><line x1="2.56" y2="2.479" transform="translate(87.106 218.993)" fill="none" stroke="#263238" stroke-linecap="round" stroke-linejoin="round" stroke-width="1"/><line x1="1.114" y2="2.461" transform="translate(91.148 220.251)" fill="none" stroke="#263238" stroke-linecap="round" stroke-linejoin="round" stroke-width="1"/><path d="M111.14,461.076s-1.1-4.213.189-5.776c2.317-2.8-.287-5.156,2.039-6.126l.979,1.132c.189-1.15-.359-4.644,3.961-5.093,5.21-.548,5.308,3.242,5.587,4.491l-.081-1.742c2.219,0,1.069,2.219,4.437,5.847a9.575,9.575,0,0,1,2.434,7.266Z" transform="translate(-86.154 -232.05)" fill="#fff" stroke="#263238" stroke-linecap="round" stroke-linejoin="round" stroke-width="1"/><path d="M89.469,284.47c-2.4,1.374-8.614,14.623-4.985,40.9s14.47,77.516,16.294,85.33,8.192,26.722,8.192,26.722,2.434-8.192,14.138-3.808a.6.6,0,0,0,.79-.683l-2.569-13.374s-.18-9.782-1.024-12.234c-3.171-9.234-4.752-44.911-5.8-49.9s1.015-19.3,1.015-19.3,14.65,35.03,15.126,38.5,9.4,17.767,9.4,17.767l1.545,13.159S153.476,427.914,155.569,434l14.165-3.063-.4-10.069-3.817-1.311-6.665-22.9A202.286,202.286,0,0,0,151.1,373.3c-3.153-7.967-12.09-38.8-12.09-38.8-2.775-3.018-5.389-19.707-5.389-19.707l-4.293-21.045Z" transform="translate(-83.373 -215.694)" fill="#8f00fc"/><g transform="translate(0 68.776)" clip-path="url(#g)"><path d="M131.523,303.871c-7.186,3.835-22.868,11.21-29.982,6.611-5.973-3.862-12.728-10.069-16.85-14.075,1.383-7.284,3.665-11.21,4.913-11.937l39.863,9.305Z" transform="translate(-83.507 -284.47)" opacity="0.2"/><path d="M173.3,435.039l-14.165,3.081c-2.093-6.081-13.976-26.452-13.976-26.452l-1.545-13.159s-8.928-14.344-9.4-17.785-15.126-38.5-15.126-38.5-.35,2.452-.7,5.695c.108-1.68.9-12.97.44-16.446l.359-2.1s9.647-6.97,10.94-4.311-5.057,5.389-5.057,5.389,5.865,1.8,8.713,1.886-.647,7.069-1.985,7.859-6.512,0-6.512,0,11.1,27.422,21.4,36.961a27.018,27.018,0,0,0,10.141,5.9c3.781,10.356,5.6,17.7,5.6,17.7l6.665,22.9,3.817,1.311Z" transform="translate(-86.936 -288.54)" opacity="0.2"/></g><path d="M89.469,284.47c-2.4,1.374-8.614,14.623-4.985,40.9s14.47,77.516,16.294,85.33,8.192,26.722,8.192,26.722,2.434-8.192,14.138-3.808a.6.6,0,0,0,.79-.683l-2.569-13.374s-.18-9.782-1.024-12.234c-3.171-9.234-4.752-44.911-5.8-49.9s1.015-19.3,1.015-19.3,14.65,35.03,15.126,38.5,9.4,17.767,9.4,17.767l1.545,13.159S153.476,427.914,155.569,434l14.165-3.063-.4-10.069-3.817-1.311-6.665-22.9A202.286,202.286,0,0,0,151.1,373.3c-3.153-7.967-12.09-38.8-12.09-38.8-2.775-3.018-5.389-19.707-5.389-19.707l-4.293-21.045Z" transform="translate(-83.373 -215.694)" fill="none" stroke="#263238" stroke-linecap="round" stroke-linejoin="round" stroke-width="1"/><path d="M147.845,260.959c-4.9,9.7-12.575,21.827-12.575,21.827L131.884,296.3s-12.719,7.85-27.306,4.563C87.512,297,84.71,288.292,84.71,288.292l4.6-15.225c2.219-10.168,7.042-29.578,17.066-35.03s27.207-5.955,34.132-3.737c6.171,1.985,9.584,3.485,11.273,5.317,0,0,2.5,8.569,1.949,11.416S147.845,260.959,147.845,260.959Z" transform="translate(-83.509 -210.461)" fill="#263238"/><path d="M130.7,461.18h-20l.44,1.527h19.545Z" transform="translate(-86.154 -233.681)" fill="#fff" stroke="#263238" stroke-linecap="round" stroke-linejoin="round" stroke-width="1"/><path d="M124.718,454.5s-6.557-2.165-9.728.548" transform="translate(-86.591 -232.917)" fill="none" stroke="#263238" stroke-linecap="round" stroke-linejoin="round" stroke-width="1"/><path d="M124.718,452.927s-5.767-1.8-9.728.611" transform="translate(-86.591 -232.775)" fill="none" stroke="#263238" stroke-linecap="round" stroke-linejoin="round" stroke-width="1"/><path d="M124.385,451.338s-5.389-2.048-9.4.755" transform="translate(-86.591 -232.605)" fill="none" stroke="#263238" stroke-linecap="round" stroke-linejoin="round" stroke-width="1"/><g transform="translate(1.932 82.321)" opacity="0.96"><path d="M122.352,327.92c-.781.18-15.88,5.686-18.862,11.192" transform="translate(-87.352 -302.438)" fill="none" stroke="#263238" stroke-linecap="round" stroke-linejoin="round" stroke-width="1"/><path d="M120.41,336.82c.754,1.069,7.186,21.144,9.88,26.65s11.991,30.207,14.12,31.626c0,0,2.847,14.371,4.617,16.7s10.967,20.713,10.967,20.713" transform="translate(-89.074 -303.344)" fill="none" stroke="#263238" stroke-linecap="round" stroke-linejoin="round" stroke-width="1"/><line x1="11.147" y2="2.389" transform="translate(70.112 129.163)" fill="none" stroke="#263238" stroke-linecap="round" stroke-linejoin="round" stroke-width="1"/><path d="M124.1,444.671s-8.928-.8-11.946,2.6" transform="translate(-88.234 -314.313)" fill="none" stroke="#263238" stroke-linecap="round" stroke-linejoin="round" stroke-width="1"/><path d="M112.345,339.39c-.746,4.267-11.937,27.9-14.6,25.231" transform="translate(-86.767 -303.605)" fill="none" stroke="#263238" stroke-linecap="round" stroke-linejoin="round" stroke-width="1"/><path d="M118.8,340.782s1.311-5.865.063-8.533c-.467-1.015,9.6,2.488,12.97,1.689" transform="translate(-88.91 -302.859)" fill="none" stroke="#263238" stroke-linecap="round" stroke-linejoin="round" stroke-width="1"/><path d="M120.158,309.44s-1.8,5.048-2.192,6.647,3.207,7.823,2.192,9.063" transform="translate(-88.822 -300.557)" fill="none" stroke="#263238" stroke-linecap="round" stroke-linejoin="round" stroke-width="1"/><path d="M92.5,304.18s-2.488,3.808-2.488,6.62-3.377,4.042-3.377,4.042" transform="translate(-85.636 -300.021)" fill="none" stroke="#263238" stroke-linecap="round" stroke-linejoin="round" stroke-width="1"/><path d="M87.083,299.55a65.013,65.013,0,0,0-.566,25.482c2.488,14.039,6.575,42.638,8.174,49.923s5.335,23.632,5.335,25.94,3.746,15.458,3.746,15.458" transform="translate(-85.523 -299.55)" fill="none" stroke="#263238" stroke-linecap="round" stroke-linejoin="round" stroke-width="1"/><path d="M104.83,407.44c.53,0,10.482,9.593,12.97,9.773" transform="translate(-87.488 -310.532)" fill="none" stroke="#263238" stroke-linecap="round" stroke-linejoin="round" stroke-width="1"/><path d="M153.29,400.91c.539.18,8.883,4.267,9.243,3.018" transform="translate(-92.421 -309.867)" fill="none" stroke="#263238" stroke-linecap="round" stroke-linejoin="round" stroke-width="1"/></g><path d="M140.657,232.557s-10.15,1.015-10.509,6.656,4.383,12.027,12.323,12.386,8.91-7.428,9.189-11.677S146.181,232.225,140.657,232.557Z" transform="translate(-88.132 -210.407)" fill="#bfbfbf" stroke="#263238" stroke-linecap="round" stroke-linejoin="round" stroke-width="1"/><path d="M138.076,233.672a24.907,24.907,0,0,1-.737-14.291c1.41-5.919,8.461-14.057,19.15-6.656,5.515,3.817,5.847,12.09,4.132,19.671-.4,1.8-.1,3.593-.7,5.237-2.111,5.838-5.982,10.329-8.084,10.428-3.53.171-10.581-4.1-10.294-7.814" transform="translate(-88.793 -208.09)" fill="#bfbfbf" stroke="#263238" stroke-linecap="round" stroke-linejoin="round" stroke-width="1"/><path d="M153.467,232.149a7.1,7.1,0,0,0-5.587.719" transform="translate(-89.939 -210.34)" fill="none" stroke="#263238" stroke-linecap="round" stroke-linejoin="round" stroke-width="1"/><path d="M160.09,231.9a7.282,7.282,0,0,1,3.593-.8" transform="translate(-91.182 -210.257)" fill="none" stroke="#263238" stroke-linecap="round" stroke-linejoin="round" stroke-width="1"/><ellipse cx="0.593" cy="0.952" rx="0.593" ry="0.952" transform="translate(59.504 25.114)" fill="#263238"/><ellipse cx="0.593" cy="0.952" rx="0.593" ry="0.952" transform="translate(68.315 24.584)" fill="#263238"/><path d="M145.349,223.387l-.287,4.365s-3.09,1.59-3.862,3.225a6.458,6.458,0,0,0-.494,3.386s-1.877-3.278-2.883-3.009c-.368.09-.368,1.464-.368,1.464s-4.2-9.431-.4-14.416S145.349,223.387,145.349,223.387Z" transform="translate(-88.675 -208.827)" fill="#263238"/><path d="M139.252,234.809s-.844-3.162-3.692-4.006-.9,6.746,1.527,7.752,3.036,1.689,3.18.79" transform="translate(-88.541 -210.224)" fill="#bfbfbf" stroke="#263238" stroke-linecap="round" stroke-linejoin="round" stroke-width="1"/><path d="M157.651,236.92a4.761,4.761,0,0,0,.656,3.045,1.563,1.563,0,0,1-1.8,2.371" transform="translate(-90.817 -210.854)" fill="none" stroke="#263238" stroke-linecap="round" stroke-linejoin="round" stroke-width="1"/><path d="M155.966,245.91a9.638,9.638,0,0,1-4.976,0" transform="translate(-90.255 -211.769)" fill="none" stroke="#263238" stroke-linecap="round" stroke-linejoin="round" stroke-width="1"/><path d="M145.262,222.46s7.258,1.752,11.677,1.168,7.186-2.614,6.512-7.258-5.919-6.79-14.533-8.264c-8.47-1.446-17.344,4.9-13.312,12.638S145.262,222.46,145.262,222.46Z" transform="translate(-88.587 -207.9)" fill="#263238"/><path d="M156.547,300.8a3.512,3.512,0,0,1,.377,1.554c.09,1.114-3.907,2.443-4.617,2s-2.389-2.695-.44-4S156.547,300.8,156.547,300.8Z" transform="translate(-90.252 -217.261)" fill="#bfbfbf" stroke="#263238" stroke-linecap="round" stroke-linejoin="round" stroke-width="1"/><path d="M168.88,299.511A13.635,13.635,0,0,0,169.9,303.1c.62,1.024,4.491,0,5.551.548s1.15-1.329,0-2.272S172.832,298.343,168.88,299.511Z" transform="translate(-92.076 -217.189)" fill="#bfbfbf" stroke="#263238" stroke-linecap="round" stroke-linejoin="round" stroke-width="1"/><rect width="4.563" height="72.082" transform="translate(69.815 81.764)" fill="#bfbfbf" stroke="#263238" stroke-linecap="round" stroke-linejoin="round" stroke-width="1"/><path d="M159.244,357h7.563a1.653,1.653,0,0,1,1.653,1.653v93.414H157.6V358.653A1.653,1.653,0,0,1,159.244,357Z" transform="translate(-90.928 -223.076)" fill="#757575" stroke="#263238" stroke-linecap="round" stroke-linejoin="round" stroke-width="1"/><path d="M175.121,293.4H148.7a2.066,2.066,0,0,0-2.066,2.066v1.392a2.066,2.066,0,0,0,2.066,2.066h9.755v4.159h6.925v-4.159h9.746a2.066,2.066,0,0,0,2.066-2.066v-1.392a2.066,2.066,0,0,0-2.066-2.066Z" transform="translate(-89.812 -216.603)" fill="#8f00fc" stroke="#263238" stroke-linecap="round" stroke-linejoin="round" stroke-width="1"/><path d="M136.253,290.638s14-1.9,15.386-2.129,5.686,7.1,5.686,7.1l-3.2,4.922s-12.216,1.707-12.943,1a4.878,4.878,0,0,1-1.006-1.9s-6.287,2.371-6.871-1.9S132.274,292.848,136.253,290.638Z" transform="translate(-88.417 -216.104)" fill="#bfbfbf" stroke="#263238" stroke-linecap="round" stroke-linejoin="round" stroke-width="1"/><path d="M168.35,292.969s2.138-3.8,4.267-3.8,10.3,1.419,11.255,2.6,3.2,3.081,2.838,4.617-2.6,4.752-4.734,4.213-7.581.063-7.581.063-2.964-.548-3.2-2.174l2.488-.683s.35-3.431-.126-3.907S168.35,292.969,168.35,292.969Z" transform="translate(-92.022 -216.172)" fill="#bfbfbf" stroke="#263238" stroke-linecap="round" stroke-linejoin="round" stroke-width="1"/><path d="M176.85,300.832s2.6-2.829,2.4-3.9-.584-4.383-1.222-4.734" transform="translate(-92.888 -216.48)" fill="none" stroke="#263238" stroke-linecap="round" stroke-linejoin="round" stroke-width="1"/><path d="M180.85,300.876a3.11,3.11,0,0,0,1.922-2.569,27.539,27.539,0,0,0-.485-4.258" transform="translate(-93.295 -216.669)" fill="none" stroke="#263238" stroke-linecap="round" stroke-linejoin="round" stroke-width="1"/><path d="M184.68,301.269a4.913,4.913,0,0,0,.853-5.389" transform="translate(-93.685 -216.855)" fill="none" stroke="#263238" stroke-linecap="round" stroke-linejoin="round" stroke-width="1"/><path d="M154,301s2.228-2.991,1.868-4.491A26.326,26.326,0,0,0,154,292.2" transform="translate(-90.562 -216.48)" fill="none" stroke="#263238" stroke-linecap="round" stroke-linejoin="round" stroke-width="1"/><path d="M150.609,301.628a24.324,24.324,0,0,0,1.15-4.293c-.09-.7-1.8-4.186-1.868-4.545" transform="translate(-90.143 -216.541)" fill="none" stroke="#263238" stroke-linecap="round" stroke-linejoin="round" stroke-width="1"/><path d="M146.529,302.085c.8-1.3,2.695-1.8,1.24-4.662s-2.129-3.413-2.129-3.413" transform="translate(-89.711 -216.665)" fill="none" stroke="#263238" stroke-linecap="round" stroke-linejoin="round" stroke-width="1"/><path d="M141,300.66c.647-.62,1.9-2.12,1.9-2.12s.26,1.231.8,1.59" transform="translate(-89.239 -217.126)" fill="none" stroke="#263238" stroke-linecap="round" stroke-linejoin="round" stroke-width="1"/><path d="M147.674,460.75H176.6a1.464,1.464,0,0,1,1.464,1.464v.817h-31.5v-1.159a1.114,1.114,0,0,1,1.114-1.123Z" transform="translate(-89.805 -233.637)" fill="#263238"/><path d="M98.2,254.67c-3.593,8.9-7.77,19.312-8.371,28.994-.225,3.593,3.234,4.859,6.153,6.18a81.789,81.789,0,0,0,17.91,5.668c2.165.422,4.491.4,6.557.9,2.344.584,5.641,2.641,8.084,1.311" transform="translate(-84.029 -212.66)" fill="none" stroke="#fff" stroke-linecap="round" stroke-linejoin="round" stroke-width="1"/><path d="M117.056,260l-4.7,10.1-3.018,6.063a7.581,7.581,0,0,0,4.159,2.147,5.138,5.138,0,0,1,3.593,2.263s11.829,5.111,13.428,5.057,2.892-1.59,4.2.6" transform="translate(-86.016 -213.203)" fill="none" stroke="#fff" stroke-linecap="round" stroke-linejoin="round" stroke-width="1"/><path d="M108.354,277.892s-6.4-2.138-8.7,0" transform="translate(-85.03 -214.927)" fill="none" stroke="#fff" stroke-linecap="round" stroke-linejoin="round" stroke-width="1"/><path d="M110.53,243c.53-.422,7.033,6.683,7.428,12.018" transform="translate(-86.137 -211.47)" fill="none" stroke="#fff" stroke-linecap="round" stroke-linejoin="round" stroke-width="1"/><path d="M120.089,260s-1.743,3.593-4.6,4.716" transform="translate(-86.642 -213.203)" fill="none" stroke="#fff" stroke-linecap="round" stroke-linejoin="round" stroke-width="1"/><path d="M159.931,260.75s-3.593,6.162-7.311,7.186" transform="translate(-90.421 -213.279)" fill="none" stroke="#fff" stroke-linecap="round" stroke-linejoin="round" stroke-width="1"/><path d="M161.71,284.05s5.021-3.862,8.389-3.7" transform="translate(-91.347 -215.274)" fill="none" stroke="#fff" stroke-linecap="round" stroke-linejoin="round" stroke-width="1"/><path d="M159.474,267s-3.117,2.551-5.434,1.6" transform="translate(-90.566 -213.915)" fill="none" stroke="#fff" stroke-linecap="round" stroke-linejoin="round" stroke-width="1"/><path d="M166.26,441.357c25.231,0,21.153,6.287,46.878,6.287s41.318.377,41.318-134.355" transform="translate(-91.81 -218.627)" fill="none" stroke="#263238" stroke-linecap="round" stroke-linejoin="round" stroke-width="3"/></g></g></svg>