<svg xmlns="http://www.w3.org/2000/svg" width="600" height="351.563" viewBox="0 0 600 351.563"><g transform="translate(0.733)"><path d="M576.051,118.66l.867,3.061-2.757,19.491-5.141,1.431,2.722-18.624-6.8,1.873.928,3.329-4.179,1.179-2-7.188Z" transform="translate(-99.286 -59.13)" fill="#e0e0e0"/><path d="M600.022,127.257c1.006,3.624-.772,7.517-6.607,9.138a14.661,14.661,0,0,1-8.41,0l.867-4.144a10.257,10.257,0,0,0,6.329.225c2.358-.659,3.546-2.055,3.087-3.72s-1.795-2.367-5.506-1.335l-5.2,1.457-2.15-11.8L594.9,113.61l1.032,3.806-8.532,2.367.763,3.98,1.665-.468C595.869,121.587,599.016,123.642,600.022,127.257Z" transform="translate(-102.31 -58.458)" fill="#e0e0e0"/><path d="M602.234,117.144c-.919-3.329.329-6.069,3.078-6.832s5.2.867,6.156,4.266-.355,6.069-3.078,6.832S603.162,120.473,602.234,117.144Zm7.8-2.159c-.737-2.653-2.428-3.884-4.335-3.355s-2.714,2.48-1.977,5.115,2.4,3.893,4.335,3.355,2.679-2.454,1.942-5.115Zm7.725-7.968,1.734-.477-8.271,24.32-1.734.477Zm-.286,16.283c-.919-3.329.355-6.069,3.069-6.832s5.2.936,6.165,4.266-.329,6.069-3.078,6.832-5.263-.936-6.191-4.266Zm7.8-2.159c-.728-2.6-2.4-3.893-4.335-3.355s-2.722,2.454-1.977,5.107,2.428,3.884,4.335,3.355,2.636-2.48,1.908-5.107Z" transform="translate(-104.904 -57.518)" fill="#e0e0e0"/><rect width="61.047" height="77.061" transform="translate(582.344 344.62) rotate(-179.55)" fill="#ebebeb"/><path d="M671.835,361.219l-1.084,74.608-9.641-.069,2.063-74.608Z" transform="translate(-112.773 -91.374)" fill="#fafafa"/><path d="M590.1,360.58l35.019.277,61.047.477-61.108,8.037-.52,66.094-35.01-.269Z" transform="translate(-103.254 -91.299)" fill="#e0e0e0"/><path d="M610.373,360.738l-1.4,74.608-10.387-.078,1.7-74.608Z" transform="translate(-104.459 -91.309)" fill="#fafafa"/><path d="M640.035,331.192c0,.156-1.032.347-2.913.529a76.1,76.1,0,0,1-8,.355,44.816,44.816,0,0,1-11.948-1.569,8.567,8.567,0,0,1-1.734-.78,4.689,4.689,0,0,1-1.6-1.509,4.215,4.215,0,0,1-.642-2.228,8.359,8.359,0,0,1,.26-2.046,45.381,45.381,0,0,1,2.263-7.335,18.7,18.7,0,0,1,1.977-3.52,11.028,11.028,0,0,1,2.9-2.87,5.911,5.911,0,0,1,2.011-.867,5.2,5.2,0,0,1,2.219,0,8.791,8.791,0,0,1,3.373,1.838,35.027,35.027,0,0,1,7.942,9.112,29.208,29.208,0,0,1,3.217,7.43c.477,1.855.529,2.913.4,2.948-.381.113-1.24-4.058-4.959-9.537a36.8,36.8,0,0,0-7.9-8.3,7.067,7.067,0,0,0-2.6-1.379,3.3,3.3,0,0,0-2.558.555,9.079,9.079,0,0,0-2.272,2.324,17.345,17.345,0,0,0-1.734,3.1,47.694,47.694,0,0,0-2.176,6.936,3.468,3.468,0,0,0,.061,2.6,4.153,4.153,0,0,0,2.194,1.474,28.371,28.371,0,0,0,3.009.8c1,.225,1.985.4,2.948.546,1.916.3,3.719.477,5.384.59,3.321.225,6.069.269,7.916.364S640.026,331.036,640.035,331.192Z" transform="translate(-106.402 -84.471)" fill="#e0e0e0"/><path d="M642.69,331.289c0-.156,1.11-.486,3.165-.954s5.055-1.084,8.67-1.96a82.694,82.694,0,0,0,12.468-3.936,13.95,13.95,0,0,0,3.13-1.665,3.468,3.468,0,0,0,1.006-1.11,1.933,1.933,0,0,0,.173-1.266,6.993,6.993,0,0,0-.6-1.647c-.286-.616-.581-1.24-.867-1.864a30.1,30.1,0,0,0-1.994-3.59,15.539,15.539,0,0,0-2.6-3.026,9.928,9.928,0,0,0-3.1-2,4.959,4.959,0,0,0-3.217-.139,8.393,8.393,0,0,0-2.887,1.734,43.766,43.766,0,0,0-8.349,9.841,37.953,37.953,0,0,0-3.711,7.925c-.65,1.986-.91,3.121-1.084,3.1s-.165-1.205.234-3.312A30.406,30.406,0,0,1,646.3,318.9a41.73,41.73,0,0,1,8.367-10.6,10.136,10.136,0,0,1,3.6-2.246,7.092,7.092,0,0,1,4.621.113,9.774,9.774,0,0,1,2.064,1.032,16.176,16.176,0,0,1,1.795,1.379,17.21,17.21,0,0,1,2.939,3.468,32.824,32.824,0,0,1,2.142,3.858l.867,1.916a8.548,8.548,0,0,1,.746,2.22,4.067,4.067,0,0,1-.425,2.653,5.566,5.566,0,0,1-1.63,1.795,15.606,15.606,0,0,1-3.642,1.873,71.582,71.582,0,0,1-12.927,3.572c-3.737.694-6.78,1.049-8.878,1.266S642.716,331.437,642.69,331.289Z" transform="translate(-110.323 -84.005)" fill="#fafafa"/><rect width="89.737" height="25.508" transform="translate(565.469 269.877) rotate(-179.55)" fill="#e0e0e0"/><rect width="81.11" height="25.508" transform="translate(589.853 270.06) rotate(-179.55)" fill="#ebebeb"/><path d="M678.963,331.858l-.564,25.621-9.459-.2.659-25.5Z" transform="translate(-113.814 -87.469)" fill="#fafafa"/><path d="M601.255,331.378l-.919,25.4-10.4-.087.555-25.517Z" transform="translate(-103.309 -87.388)" fill="#fafafa"/><rect width="27.884" height="35.201" transform="translate(595.746 345.263) rotate(-179.55)" fill="#ebebeb"/><path d="M702.767,408.835l-.494,34.074-4.413-.026.945-34.083Z" transform="translate(-117.659 -97.711)" fill="#fafafa"/><path d="M665.43,408.54l16,.121,27.884.225-27.91,3.668-.243,30.19-15.988-.121Z" transform="translate(-113.312 -97.676)" fill="#e0e0e0"/><path d="M674.684,408.615l-.633,34.083-4.751-.043.78-34.074Z" transform="translate(-113.862 -97.681)" fill="#fafafa"/><path d="M688.148,395.032c0,.286-1.864.72-5,.867a19.457,19.457,0,0,1-5.627-.616,3.286,3.286,0,0,1-1.838-1.266,2.5,2.5,0,0,1-.39-1.327,4.909,4.909,0,0,1,.121-1.084,20.688,20.688,0,0,1,1.058-3.468,9.087,9.087,0,0,1,.971-1.734,5.5,5.5,0,0,1,1.5-1.483,3.069,3.069,0,0,1,2.384-.425,4.543,4.543,0,0,1,1.734.971,15.666,15.666,0,0,1,3.65,4.335c1.569,2.87,1.552,4.942,1.283,4.977s-.867-1.734-2.6-4.11a17.271,17.271,0,0,0-3.59-3.572,2.549,2.549,0,0,0-.962-.512.919.919,0,0,0-.711.191,3.664,3.664,0,0,0-.867.91,7.276,7.276,0,0,0-.72,1.309,20.963,20.963,0,0,0-.971,3.061c-.13.486-.1.7-.061.754a1.327,1.327,0,0,0,.685.442,18.115,18.115,0,0,0,2.6.65c.867.156,1.665.26,2.41.338C686.206,394.555,688.139,394.694,688.148,395.032Z" transform="translate(-114.658 -94.468)" fill="#e0e0e0"/><path d="M689.436,395.122c-.052-.329,2.038-.867,5.324-1.734a42.978,42.978,0,0,0,5.575-1.9,6.129,6.129,0,0,0,1.292-.7,1.039,1.039,0,0,0,.286-.321v-.2a9.627,9.627,0,0,0-.624-1.439,15.035,15.035,0,0,0-.867-1.569,6.938,6.938,0,0,0-1.066-1.266,4.112,4.112,0,0,0-1.214-.8,1.656,1.656,0,0,0-1.092-.069,3.191,3.191,0,0,0-1.118.659,20.863,20.863,0,0,0-3.815,4.292c-1.829,2.757-2.211,4.873-2.6,4.821-.139,0-.234-.581-.121-1.578a12.407,12.407,0,0,1,1.309-4.04,18.451,18.451,0,0,1,3.824-5.055,5.064,5.064,0,0,1,1.838-1.153,3.763,3.763,0,0,1,2.488.043,4.6,4.6,0,0,1,1.075.529,7.551,7.551,0,0,1,.867.676,8.669,8.669,0,0,1,1.448,1.734,15.463,15.463,0,0,1,1.014,1.829c.139.3.269.6.407.867a4.631,4.631,0,0,1,.382,1.171,2.514,2.514,0,0,1-.26,1.587,3.173,3.173,0,0,1-.919,1.006,7.191,7.191,0,0,1-1.8.867,30.439,30.439,0,0,1-6.026,1.535C691.647,395.391,689.488,395.365,689.436,395.122Z" transform="translate(-116.527 -94.264)" fill="#fafafa"/><rect width="40.984" height="11.653" transform="translate(588.041 311.118) rotate(-179.55)" fill="#e0e0e0"/><rect width="37.048" height="11.653" transform="translate(599.175 311.208) rotate(-179.55)" fill="#ebebeb"/><path d="M706.018,395.425l-.26,11.7-4.318-.087.3-11.644Z" transform="translate(-118.135 -95.927)" fill="#fafafa"/><path d="M670.518,395.2l-.416,11.6-4.751-.035.26-11.661Z" transform="translate(-113.336 -95.889)" fill="#fafafa"/><rect width="50.01" height="63.128" transform="translate(87.328 345.316) rotate(-179.55)" fill="#ebebeb"/><path d="M106.042,377.592l-.884,61.125-7.907-.061,1.7-61.117Z" transform="translate(-37.795 -93.554)" fill="#fafafa"/><path d="M39.088,377.07l28.69.225,50.01.39-50.062,6.589L67.3,438.421,38.62,438.2Z" transform="translate(-29.998 -93.491)" fill="#e0e0e0"/><path d="M55.69,377.2l-1.136,61.117-8.514-.061,1.387-61.117Z" transform="translate(-30.985 -93.501)" fill="#fafafa"/><path d="M79.792,352.806c0,.312-.867.633-2.367.945a42.72,42.72,0,0,1-11.271.607c-.867-.078-1.734-.173-2.6-.329a22.357,22.357,0,0,1-2.861-.624A8.151,8.151,0,0,1,59,352.668a5.132,5.132,0,0,1-1.734-1.621,4.8,4.8,0,0,1-.737-2.488,8.116,8.116,0,0,1,.234-1.994,36.97,36.97,0,0,1,1.9-6.243A16.872,16.872,0,0,1,60.4,337.2a14.985,14.985,0,0,1,1.188-1.4,7.935,7.935,0,0,1,1.569-1.275,6.251,6.251,0,0,1,2.09-.867,5.436,5.436,0,0,1,2.367.052,8.28,8.28,0,0,1,3.234,1.786,28.014,28.014,0,0,1,6.555,7.881,20.67,20.67,0,0,1,2.332,6.433c.251,1.6.121,2.514-.165,2.6-.668.165-1.734-3.113-4.855-7.283a31.664,31.664,0,0,0-6.433-6.329,4.379,4.379,0,0,0-1.639-.867,1.439,1.439,0,0,0-1.11.312,4.736,4.736,0,0,0-.737.642c-.243.269-.512.607-.754.936a13.2,13.2,0,0,0-1.266,2.3,40.033,40.033,0,0,0-1.734,5.454,3.875,3.875,0,0,0-.165.919c0,.2,0,.217,0,.26a2.185,2.185,0,0,0,1.118.711,22.7,22.7,0,0,0,2.3.676c.789.2,1.569.355,2.324.5,1.517.277,2.965.477,4.335.633,2.67.3,4.89.486,6.425.72S79.784,352.494,79.792,352.806Z" transform="translate(-32.38 -87.704)" fill="#e0e0e0"/><path d="M82.147,352.867c-.113-.642,3.633-1.682,9.537-3.3a76.107,76.107,0,0,0,9.945-3.468,9.986,9.986,0,0,0,2.254-1.24,1.483,1.483,0,0,0,.46-.5v-.217a5.148,5.148,0,0,0-.4-1.006l-.72-1.5a25.762,25.762,0,0,0-1.552-2.783,11.68,11.68,0,0,0-1.873-2.228,8.885,8.885,0,0,0-1.075-.867,4.717,4.717,0,0,0-1.023-.546,2.766,2.766,0,0,0-1.812-.13,5.515,5.515,0,0,0-1.933,1.144,37.743,37.743,0,0,0-6.841,7.6c-3.3,4.89-4.049,8.67-4.734,8.566-.295,0-.5-1.049-.312-2.853a22.1,22.1,0,0,1,2.289-7.309,32.946,32.946,0,0,1,6.85-9.138,9.468,9.468,0,0,1,3.373-2.124,7.084,7.084,0,0,1,4.621.078,9.041,9.041,0,0,1,1.968.971,13.243,13.243,0,0,1,1.63,1.24,15.3,15.3,0,0,1,2.6,3.078,28.354,28.354,0,0,1,1.838,3.321l.728,1.6a8.392,8.392,0,0,1,.7,2.159,4.639,4.639,0,0,1-.5,2.991,5.775,5.775,0,0,1-1.734,1.881,13.614,13.614,0,0,1-3.295,1.656,53.192,53.192,0,0,1-10.847,2.705,55.644,55.644,0,0,1-7.4.633C83.187,353.327,82.19,353.18,82.147,352.867Z" transform="translate(-35.766 -87.314)" fill="#fafafa"/><rect width="73.507" height="20.895" transform="translate(73.504 284.086) rotate(-179.55)" fill="#e0e0e0"/><rect width="66.449" height="20.895" transform="translate(93.466 284.238) rotate(-179.55)" fill="#ebebeb"/><path d="M111.881,353.541l-.46,20.991-7.751-.165.538-20.887Z" transform="translate(-38.648 -90.355)" fill="#fafafa"/><path d="M48.219,353.145l-.746,20.809-8.523-.069.46-20.9Z" transform="translate(-30.042 -90.288)" fill="#fafafa"/><path d="M135.206,74.689l.867,3.3-13.222,3.4-.676-2.6,5.115-8.107c1.17-1.873,1.214-2.844,1-3.694-.355-1.379-1.509-1.933-3.355-1.457a4.4,4.4,0,0,0-3.173,2.679l-3.468-1.144a8.457,8.457,0,0,1,6.069-5.037c3.9-1,7.014.338,7.8,3.468.442,1.734.364,3.373-1.509,6.277L127.611,76.6Z" transform="translate(-40.592 -51.556)" fill="#e0e0e0"/><path d="M137.992,68.2c-1.483-5.783.867-9.875,5.2-10.977s8.341,1.344,9.823,7.118-.867,9.867-5.2,10.977S139.474,73.972,137.992,68.2Zm10.925-2.809c-1.023-3.98-2.844-5.263-4.873-4.743s-2.974,2.523-1.951,6.494,2.844,5.263,4.847,4.751S149.939,69.359,148.916,65.388Z" transform="translate(-43.153 -50.926)" fill="#e0e0e0"/><path d="M156.476,58.766c-.737-2.853.382-5.2,2.731-5.766s4.431.867,5.2,3.737-.408,5.2-2.731,5.766S157.2,61.609,156.476,58.766Zm6.65-1.734c-.59-2.28-2.012-3.355-3.633-2.931s-2.35,2.064-1.734,4.335,1.977,3.355,3.633,2.931,2.315-2.038,1.734-4.309Zm6.711-6.659L171.31,50l-7.474,20.592-1.474.381Zm-.52,13.872c-.728-2.853.408-5.2,2.731-5.766s4.439.867,5.2,3.737-.382,5.2-2.731,5.757-4.465-.867-5.2-3.711Zm6.65-1.734c-.581-2.254-1.977-3.355-3.633-2.931s-2.35,2.038-1.734,4.335,2.012,3.347,3.633,2.931,2.315-2.046,1.743-4.292Z" transform="translate(-45.64 -50)" fill="#e0e0e0"/><path d="M324.654,137.649c.069,3.581-2.6,6.936-8.67,7.006a14.532,14.532,0,0,1-8.124-2.133l1.838-3.789a10.4,10.4,0,0,0,6.069,1.8c2.454-.043,3.954-1.066,3.928-2.8,0-1.6-1.231-2.6-4.014-2.532h-2.246l-.052-3.243,4.274-5.011-9.034.156-.061-3.945,14.844-.251.061,3.182-4.673,5.566C322.625,132.2,324.6,134.528,324.654,137.649Z" transform="translate(-65.8 -59.695)" fill="#e0e0e0"/><path d="M329.77,133.412c-.121-7.04,3.668-11.037,8.87-11.133s9.156,3.815,9.277,10.812-3.659,11.046-8.9,11.133S329.891,140.409,329.77,133.412Zm13.248-.234c-.087-4.812-1.821-6.789-4.274-6.745s-4.084,2.072-4,6.936,1.812,6.789,4.231,6.745S343.1,138,343.018,133.178Z" transform="translate(-68.713 -59.611)" fill="#e0e0e0"/><path d="M353.51,128.033c-.061-3.468,1.838-5.792,4.691-5.844s4.829,2.194,4.89,5.679-1.873,5.792-4.691,5.835S353.57,131.484,353.51,128.033Zm8.063-.139c-.052-2.757-1.379-4.335-3.347-4.335s-3.251,1.734-3.2,4.457,1.344,4.335,3.347,4.335S361.616,130.686,361.573,127.894Zm9.477-5.774h1.786l-14.115,21.459h-1.786ZM366.715,137.8c-.052-3.468,1.873-5.792,4.691-5.835s4.829,2.22,4.89,5.67-1.838,5.792-4.691,5.844-4.864-2.22-4.925-5.679Zm8.063-.139c-.043-2.722-1.344-4.335-3.347-4.335s-3.243,1.691-3.2,4.448,1.379,4.335,3.347,4.335,3.217-1.717,3.165-4.448Z" transform="translate(-71.87 -59.59)" fill="#e0e0e0"/><path d="M443.629,62.48c-.416,2.705-2.766,4.76-7.136,4.092a10.69,10.69,0,0,1-5.584-2.523l1.812-2.5a7.439,7.439,0,0,0,4.136,2.038c1.777.269,2.983-.3,3.173-1.552s-.486-2.107-3.26-2.532l-3.91-.6,2.1-8.488,9.329,1.422-.434,2.844-6.381-.971-.685,2.861,1.249.191C442.563,57.46,444.045,59.767,443.629,62.48Z" transform="translate(-82.162 -50.056)" fill="#f5f5f5"/><path d="M447.718,60.234c.772-5.055,4.006-7.491,7.8-6.936s6.121,3.858,5.35,8.913-3.988,7.482-7.8,6.936S446.955,65.28,447.718,60.234Zm9.537,1.457c.529-3.468-.477-5.107-2.246-5.376s-3.191.988-3.72,4.465.468,5.1,2.22,5.367,3.234-.98,3.763-4.448Z" transform="translate(-84.378 -50.428)" fill="#f5f5f5"/><path d="M465.559,59.208c.382-2.488,2.038-3.936,4.092-3.624s3.2,2.168,2.818,4.682-2.055,3.936-4.092,3.624S465.177,61.7,465.559,59.208Zm13.378-2.1,1.292.2-12.823,13.7-1.292-.2ZM471.42,60.1c.3-1.994-.46-3.312-1.881-3.529s-2.54.867-2.844,2.809.434,3.3,1.881,3.529,2.5-.824,2.8-2.809Zm2.454,7.751c.382-2.488,2.055-3.936,4.092-3.624s3.2,2.194,2.818,4.682-2.038,3.936-4.092,3.624-3.243-2.185-2.861-4.682Zm5.818.867c.295-1.968-.434-3.312-1.881-3.529s-2.54.815-2.844,2.8.46,3.321,1.881,3.537,2.5-.85,2.8-2.783Z" transform="translate(-86.76 -50.737)" fill="#f5f5f5"/><path d="M43.26,148.983l-3.173,13.552-3.1-.711,2.6-11.037-2.714-.633.59-2.523Z" transform="translate(-29.766 -62.982)" fill="#f5f5f5"/><path d="M45.1,156.757c1.04-4.474,4.118-6.433,7.448-5.653s5.2,3.9,4.162,8.367-4.092,6.433-7.448,5.653S44.046,161.231,45.1,156.757Zm8.462,1.977c.72-3.078-.069-4.613-1.639-4.977s-2.931.659-3.65,3.737.061,4.613,1.613,4.977S52.829,161.812,53.557,158.734Z" transform="translate(-30.82 -63.422)" fill="#f5f5f5"/><path d="M73.285,156.117l1.144.269L62,167.77,60.86,167.5Zm-12.138.945c.52-2.211,2.107-3.39,3.928-2.965s2.714,2.168,2.194,4.4-2.116,3.381-3.919,2.965-2.688-2.194-2.176-4.4Zm5.15,1.205c.416-1.734-.173-3-1.431-3.295s-2.341.572-2.748,2.315.156,3,1.439,3.295,2.358-.512,2.766-2.315Zm1.665,7.127c.512-2.211,2.116-3.381,3.919-2.965s2.714,2.194,2.2,4.4-2.107,3.39-3.928,2.965-2.688-2.194-2.168-4.4ZM73.12,166.6c.408-1.734-.156-3-1.431-3.295s-2.341.555-2.748,2.315.173,3,1.431,3.295S72.73,168.342,73.12,166.6Z" transform="translate(-32.956 -63.831)" fill="#f5f5f5"/></g><g transform="translate(16.447 104.511)"><path d="M129.759,308.059a62.485,62.485,0,0,0-59.6-16.352,108.6,108.6,0,0,0,60.3,18.841" transform="translate(-49.906 -186.389)" fill="#7300cc"/><path d="M112.9,220.628c2.488-17.566-4.335-37.282-17.488-50.088-.434,17.41,6.936,37,17.488,50.088" transform="translate(-53.261 -170.54)" fill="#7300cc"/><path d="M121.1,260.258A93.778,93.778,0,0,0,78,219.1a59.192,59.192,0,0,0,43.23,41.349" transform="translate(-50.949 -176.997)" fill="#7300cc"/><path d="M121.251,271.109c-10.6.295-21.346-.078-31.6-2.792s-20.08-7.933-26.878-16.057a105.638,105.638,0,0,1,58.29,17.783" transform="translate(-48.924 -181.406)" fill="#7300cc"/><path d="M124,242.67c5.384-20.184,14.271-34.144,30.129-45.45A41.964,41.964,0,0,1,124,242.67" transform="translate(-57.065 -174.088)" fill="#7300cc"/><path d="M167.407,285.537A29.86,29.86,0,0,0,149.26,257.87c.867,10.4,9.069,22.473,18.147,27.667" transform="translate(-60.424 -182.152)" fill="#7300cc"/><path d="M176,264.327a44.507,44.507,0,0,1,29.158-37.967c-3.633,16.864-13.378,30.9-29.158,37.967" transform="translate(-63.98 -177.963)" fill="#7300cc"/><path d="M167.23,303.118c3.737-5.35,9.841-8.67,16.161-10.335s12.919-1.795,19.447-1.933a45.458,45.458,0,0,1-35.115,14.627" transform="translate(-62.814 -186.538)" fill="#7300cc"/><path d="M158.48,354.249A49.819,49.819,0,0,1,219.3,383.06c-22.092-4.179-43.9-14-60.822-28.811" transform="translate(-61.65 -194.673)" fill="#7300cc"/><path d="M129.48,337.35c3.668,10.847,2.965,23.965-5.2,33.311a39.779,39.779,0,0,1,5.2-33.311" transform="translate(-56.892 -192.721)" fill="#7300cc"/><path d="M110.083,330.4A40.837,40.837,0,0,1,87.54,363.52a2.532,2.532,0,0,1-1.994.321c-1-.4-1.084-1.734-.962-2.826,1.6-13.872,11.9-27.337,25.5-30.615" transform="translate(-51.819 -191.797)" fill="#7300cc"/><path d="M95.692,328.535a33.476,33.476,0,0,1-48.892.251c15.537-1.734,33.476-2.835,48.892-.251" transform="translate(-46.8 -191.345)" fill="#7300cc"/><path d="M100.51,185.47a2.833,2.833,0,0,0,.139.46c.121.321.277.754.477,1.309.442,1.179,1.066,2.87,1.873,5.037s1.8,4.855,2.922,7.977l1.795,4.985c.616,1.734,1.266,3.659,1.942,5.627,2.757,7.873,5.809,17.341,9.112,27.832s6.65,22.17,10,34.438,6.234,24.051,8.722,34.794S142,328.391,143.5,336.593q.581,3.069,1.1,5.844c.321,1.847.616,3.6.867,5.2.564,3.26,1.04,6.069,1.37,8.384s.624,4.066.815,5.306c.1.581.173,1.04.225,1.379a2.912,2.912,0,0,0,.1.468,2.811,2.811,0,0,0,0-.477c-.043-.338-.1-.8-.173-1.387-.165-1.249-.4-3.035-.7-5.324s-.737-5.133-1.266-8.4c-.269-1.639-.546-3.39-.867-5.246s-.685-3.8-1.058-5.852c-1.457-8.219-3.468-17.939-5.887-28.707s-5.384-22.543-8.67-34.828-6.771-23.913-10.049-34.447-6.425-19.942-9.234-27.806q-1.04-2.948-1.985-5.61l-1.838-4.977c-1.153-3.113-2.15-5.783-3.017-7.951s-1.517-3.824-1.977-4.994l-.529-1.292a3.4,3.4,0,0,0-.208-.408Z" transform="translate(-53.942 -172.525)" fill="#263238"/><path d="M192.472,236.75a1.665,1.665,0,0,0-.269.251l-.746.78c-.65.694-1.587,1.734-2.757,3.087a108.5,108.5,0,0,0-9.156,12.208,81.6,81.6,0,0,0-9.537,20.471c-2.6,8.141-4.162,17.41-5.74,27.086-3.165,19.378-7.04,36.736-9.849,49.291-1.413,6.251-2.6,11.315-3.364,14.87-.381,1.734-.685,3.078-.867,4.04-.1.442-.165.789-.225,1.058a1.874,1.874,0,0,0-.052.364,1.734,1.734,0,0,0,.113-.355c.069-.26.165-.607.277-1.04.243-.954.572-2.3,1.006-4.014.867-3.537,2.055-8.592,3.546-14.826,2.913-12.529,6.858-29.886,10.023-49.29,1.587-9.676,3.156-18.91,5.679-27.025a82.879,82.879,0,0,1,9.4-20.4,116.079,116.079,0,0,1,8.974-12.277c1.144-1.387,2.055-2.445,2.679-3.165.286-.338.52-.607.694-.824a1.977,1.977,0,0,0,.173-.286Z" transform="translate(-60.511 -179.344)" fill="#263238"/><path d="M97.84,328a1.871,1.871,0,0,0,.555.1l1.613.173,1.162.121,1.37.2c.988.147,2.116.295,3.338.564l1.933.39,2.064.52c1.439.321,2.922.867,4.509,1.327a66.164,66.164,0,0,1,9.841,4.335,55.2,55.2,0,0,1,8.826,6.138,43.647,43.647,0,0,1,3.381,3.251,34.128,34.128,0,0,1,2.679,3.1,31.122,31.122,0,0,1,1.986,2.731,21.779,21.779,0,0,1,1.361,2.194l.824,1.4a2.177,2.177,0,0,0,.321.468,1.916,1.916,0,0,0-.217-.529l-.728-1.448a17.385,17.385,0,0,0-1.283-2.228,29.891,29.891,0,0,0-1.925-2.809,35.237,35.237,0,0,0-2.653-3.173,42.689,42.689,0,0,0-3.39-3.321,52.988,52.988,0,0,0-8.9-6.234,63.384,63.384,0,0,0-9.953-4.335c-1.6-.468-3.1-.98-4.561-1.283l-2.09-.494-1.951-.347c-1.24-.251-2.376-.364-3.373-.486l-1.387-.156-1.17-.061L98.4,328a2.153,2.153,0,0,0-.564,0Z" transform="translate(-53.587 -191.475)" fill="#263238"/><path d="M92.73,237.17a7.579,7.579,0,0,0,1.1,1.084l3.2,2.774c2.722,2.324,6.5,5.5,10.7,8.982s8.029,6.615,10.812,8.852l3.321,2.6a7.137,7.137,0,0,0,1.266.867,7.579,7.579,0,0,0-1.118-1.084l-3.2-2.775c-2.722-2.324-6.5-5.5-10.7-8.982s-8.02-6.607-10.8-8.844l-3.321-2.6a8.583,8.583,0,0,0-1.257-.876Z" transform="translate(-52.907 -179.4)" fill="#263238"/><path d="M88.32,260.889c0,.156,8.115,2.705,18.208,5.7s18.355,5.28,18.4,5.124-8.115-2.714-18.208-5.7S88.372,260.733,88.32,260.889Z" transform="translate(-52.321 -182.553)" fill="#263238"/><path d="M123.08,246.994a7.327,7.327,0,0,0,.867-1.17l2.15-3.277c1.821-2.766,4.413-6.529,7.482-10.543s6.017-7.5,8.193-9.988c1.023-1.179,1.89-2.168,2.6-2.948a7.474,7.474,0,0,0,.867-1.127,5.713,5.713,0,0,0-1.075.962c-.659.65-1.6,1.613-2.731,2.827-2.254,2.428-5.272,5.9-8.349,9.919s-5.618,7.847-7.361,10.664c-.867,1.413-1.552,2.6-1.994,3.39a6.138,6.138,0,0,0-.65,1.292Z" transform="translate(-56.943 -176.843)" fill="#263238"/><path d="M155.76,264.61a28.2,28.2,0,0,0,1.916,3.147c1.222,1.916,2.879,4.578,4.587,7.586s3.156,5.8,4.188,7.8a27.745,27.745,0,0,0,1.734,3.251,19.275,19.275,0,0,0-1.353-3.468c-.928-2.081-2.324-4.907-4.04-7.942s-3.468-5.662-4.751-7.526a19.072,19.072,0,0,0-2.28-2.853Z" transform="translate(-61.289 -183.049)" fill="#263238"/><path d="M167,304.067c.043.078,1.6-.685,4.144-1.829s6.069-2.6,10.127-4.058,7.743-2.454,10.448-3.139a37.808,37.808,0,0,0,4.335-1.162,4.67,4.67,0,0,0-1.214.13c-.78.113-1.89.321-3.26.616a89.31,89.31,0,0,0-10.552,3,90.732,90.732,0,0,0-10.11,4.231c-1.257.624-2.254,1.153-2.939,1.552a4.985,4.985,0,0,0-.98.659Z" transform="translate(-62.783 -186.941)" fill="#263238"/><path d="M158.14,354.67a1.984,1.984,0,0,0,.5.165l1.474.373,5.428,1.257a178.5,178.5,0,0,1,17.722,4.682,78.467,78.467,0,0,1,16.543,7.8c1.977,1.257,3.52,2.367,4.561,3.173a16.941,16.941,0,0,0,1.639,1.214,3.974,3.974,0,0,0-.364-.39c-.251-.243-.624-.59-1.136-1.006a47.757,47.757,0,0,0-4.474-3.347,72.5,72.5,0,0,0-16.569-7.977,146.524,146.524,0,0,0-17.835-4.526l-5.471-1.136A13.7,13.7,0,0,0,158.14,354.67Z" transform="translate(-61.605 -195.024)" fill="#263238"/><path d="M126.306,362.815c.156,0,1.127-5.7,2.168-12.78s1.734-12.849,1.578-12.875-1.127,5.705-2.168,12.789S126.142,362.8,126.306,362.815Z" transform="translate(-57.369 -192.696)" fill="#263238"/><path d="M93.16,351.5a30.718,30.718,0,0,0,2.6-3.078c1.552-1.933,3.7-4.6,6.139-7.491s4.682-5.48,6.321-7.344a28.766,28.766,0,0,0,2.6-3.078,4.134,4.134,0,0,0-.867.7c-.5.486-1.205,1.2-2.072,2.1-1.734,1.795-4.023,4.335-6.468,7.24s-4.543,5.61-6.017,7.612c-.737,1.006-1.318,1.829-1.734,2.4a3.71,3.71,0,0,0-.5.936Z" transform="translate(-52.965 -191.812)" fill="#263238"/><path d="M171.505,385.46v14.2h-3.555L155.335,439.5h-28l-12.225-39.45-4.734-.39v-14.2Z" transform="translate(-55.254 -199.118)" fill="#455a64"/><path d="M113.11,402.245c0,.165,12.355.3,27.6.3s27.606-.139,27.606-.3-12.355-.295-27.606-.295S113.11,402.08,113.11,402.245Z" transform="translate(-55.617 -201.311)" fill="#263238"/><path d="M89.89,296.94a11.145,11.145,0,0,0,1.795.486l4.907,1.188c4.144,1.023,9.832,2.6,16,4.647s11.644,4.274,15.606,5.965l4.63,2.02a11.848,11.848,0,0,0,1.734.7,10.486,10.486,0,0,0-1.621-.91c-1.058-.555-2.6-1.309-4.561-2.2A161.348,161.348,0,0,0,96.748,298.2c-2.081-.459-3.78-.8-4.959-1A11.575,11.575,0,0,0,89.89,296.94Z" transform="translate(-52.53 -187.348)" fill="#263238"/><path d="M123.83,427.765c0,.165,8.67.295,19.361.295s19.369-.13,19.369-.295-8.67-.295-19.369-.295S123.83,427.6,123.83,427.765Z" transform="translate(-57.043 -204.705)" fill="#fafafa"/><path d="M122.57,423.955c0,.165,9.19.295,20.523.295s20.531-.13,20.531-.295-9.19-.295-20.531-.295S122.57,423.8,122.57,423.955Z" transform="translate(-56.875 -204.198)" fill="#fafafa"/></g><g transform="translate(236.568 48.345)"><path d="M591.542,310.341l-57.8-64.94a24.485,24.485,0,0,0-18.1-8.2l-190.3-1.379a24.468,24.468,0,0,0-24.65,24.528L301,395.1a24.467,24.467,0,0,0,24.572,24.415l189.645-.8a24.459,24.459,0,0,0,18.45-8.471l58.152-67.628a24.485,24.485,0,0,0-.277-32.279Zm-32.167,23.41a36.972,36.972,0,1,1,0-.035Z" transform="translate(-300.68 -123.054)" fill="#7300cc"/><g transform="translate(0 112.765)" opacity="0.4"><path d="M591.542,310.341l-57.8-64.94a24.485,24.485,0,0,0-18.1-8.2l-190.3-1.379a24.468,24.468,0,0,0-24.65,24.528L301,395.1a24.467,24.467,0,0,0,24.572,24.415l189.645-.8a24.459,24.459,0,0,0,18.45-8.471l58.152-67.628a24.485,24.485,0,0,0-.277-32.279Zm-32.167,23.41a36.972,36.972,0,1,1,0-.035Z" transform="translate(-300.68 -235.819)"/></g><path d="M603.088,310.341,545.257,245.4a24.5,24.5,0,0,0-18.1-8.2l-190.3-1.379a24.459,24.459,0,0,0-24.65,24.528l.312,134.753a24.476,24.476,0,0,0,24.658,24.415l189.636-.8a24.476,24.476,0,0,0,18.45-8.471L603.4,342.62a24.476,24.476,0,0,0-.312-32.279Zm-32.158,23.41a36.817,36.817,0,1,1,0-.035Z" transform="translate(-302.212 -123.054)" fill="#7300cc"/><path d="M385.24,312.5c.147-16.335,10.214-26.626,24.329-26.488s23.852,10.465,23.7,26.93-10.092,26.626-24.2,26.5S385.084,328.832,385.24,312.5Zm34.187.321c.1-10.4-3.867-15.407-9.962-15.459-5.948-.061-10.153,5.02-10.248,15.268s4.014,15.4,9.962,15.459c6.1.052,10.153-4.89,10.248-15.268Zm47.851-25.144,16.474.156-67.065,96.24-16.474-.156ZM450.7,358.831c.156-16.335,10.214-26.626,24.2-26.5,14.115.139,23.982,10.612,23.835,26.939S488.52,385.857,474.4,385.709C460.463,385.6,450.553,375.123,450.7,358.831Zm34.048.312c.1-10.24-3.867-15.4-9.962-15.45-5.948-.061-10.144,4.881-10.24,15.268s4.006,15.4,9.953,15.459c6.1.017,10.153-5.072,10.24-15.32Z" transform="translate(-311.924 -129.728)" fill="#fff"/><path d="M633.011,365.061a8.836,8.836,0,0,1,1.9,1.361c1.188.945,2.922,2.367,5.115,4.248s4.864,4.205,7.864,7.006,6.364,6.069,9.841,9.945a100.788,100.788,0,0,1,10.344,13.5l1.231,1.968,1.162,2.055a45.062,45.062,0,0,1,2.2,4.335,27.129,27.129,0,0,1,2.48,10.005,15.8,15.8,0,0,1-.8,5.454,14.054,14.054,0,0,1-2.861,4.916,18.45,18.45,0,0,1-9.919,5.67,26.982,26.982,0,0,1-11.714-.277,51.242,51.242,0,0,1-11.124-4.1,69.519,69.519,0,0,1-18.65-13.872,89.7,89.7,0,0,1-7.205-8.375q-3.26-4.274-6.208-8.506c-7.8-11.271-13.872-22.109-17.687-31.8-.954-2.419-1.777-4.743-2.488-6.98-.347-1.118-.676-2.211-.945-3.295a20.472,20.472,0,0,1-.633-3.2,7.933,7.933,0,0,1,1.431-5.818,8.462,8.462,0,0,1,4.11-2.861,11.517,11.517,0,0,1,2.064-.477,11.274,11.274,0,0,1,1.855-.043,8.722,8.722,0,0,1,2.827.616,5.74,5.74,0,0,1,1.509.928c.295.269.425.416.4.451s-.208-.061-.538-.26a6.676,6.676,0,0,0-1.526-.685,8.929,8.929,0,0,0-2.688-.382,12.464,12.464,0,0,0-1.734.139,11.272,11.272,0,0,0-1.881.538,7.639,7.639,0,0,0-3.537,2.67,6.789,6.789,0,0,0-1.04,5.029,18.974,18.974,0,0,0,.676,3.009c.286,1.04.642,2.1,1.006,3.191q1.136,3.277,2.6,6.832c3.928,9.451,10.066,20.124,17.9,31.213q2.948,4.162,6.217,8.384a88.558,88.558,0,0,0,7.084,8.15,68.226,68.226,0,0,0,18.069,13.422,49.644,49.644,0,0,0,10.664,3.936,24.944,24.944,0,0,0,10.751.3,16.413,16.413,0,0,0,8.774-4.942,12.746,12.746,0,0,0,3.191-8.9,25.256,25.256,0,0,0-2.289-9.286,43.863,43.863,0,0,0-2.072-4.2l-1.084-2-1.179-1.959a102.136,102.136,0,0,0-9.962-13.43c-3.347-3.884-6.6-7.214-9.537-10.092s-5.48-5.289-7.586-7.257l-4.786-4.543a9.534,9.534,0,0,1-1.6-1.734Z" transform="translate(-338.464 -137.692)" fill="#263238"/><path d="M534.633,201.156c-.121,0-2.549-16.95-5.428-37.9s-5.107-37.941-4.977-37.958,2.549,16.95,5.428,37.9S534.764,201.139,534.633,201.156Z" transform="translate(-330.405 -108.358)" fill="#263238"/><path d="M613.086,105.76a1.1,1.1,0,0,1-.078.26l-.277.754-1.1,2.887-4.127,10.6c-3.468,8.948-8.219,21.329-13.266,35.089s-9.425,26.271-12.546,35.349c-1.552,4.517-2.809,8.185-3.685,10.76-.433,1.24-.772,2.22-1.014,2.922-.113.312-.208.555-.277.754a1.279,1.279,0,0,1-.1.251.91.91,0,0,1,.061-.269l.234-.772c.217-.7.529-1.734.928-2.948.815-2.558,2.029-6.251,3.555-10.8,3.052-9.1,7.387-21.676,12.433-35.4s9.823-26.132,13.378-35.054c1.734-4.457,3.243-8.063,4.274-10.543l1.188-2.853c.13-.3.243-.546.321-.737Z" transform="translate(-337.371 -105.76)" fill="#263238"/><path d="M669.211,182.72c.078.1-12.329,9.815-27.745,21.676s-27.918,21.45-28,21.346,12.338-9.815,27.745-21.676S669.142,182.616,669.211,182.72Z" transform="translate(-342.272 -115.993)" fill="#263238"/><path d="M498.281,212.207c-.1.078-4.9-6.069-10.716-13.664s-10.465-13.872-10.4-13.933,4.9,6.069,10.716,13.664S498.376,212.129,498.281,212.207Z" transform="translate(-324.147 -116.245)" fill="#263238"/><path d="M665.81,270.046c0,.121-7.638-1.994-16.985-4.717s-16.89-5.029-16.855-5.15,7.638,1.994,16.985,4.717S665.853,269.925,665.81,270.046Z" transform="translate(-344.732 -126.293)" fill="#263238"/><path d="M544.99,269.857l5.636-3.243,2.991-5.774,3.251,5.636,5.774,3-5.636,3.243-3,5.774-3.243-5.636Z" transform="translate(-333.166 -126.381)" fill="#fff"/><path d="M509.85,260.436l1.977-1.136,1.049-2.02,1.136,1.968,2.02,1.049-1.977,1.136-1.049,2.02-1.136-1.968Z" transform="translate(-328.494 -125.908)" fill="#fff"/><path d="M532.29,305.914l3.815-2.194,2.029-3.91,2.194,3.815,3.91,2.029-3.815,2.194-2.029,3.91-2.194-3.815Z" transform="translate(-331.478 -131.563)" fill="#fff"/></g><g transform="translate(0 344.669)"><path d="M625.195,447.755c0,.121-133.739.225-298.674.225s-298.691-.1-298.691-.225,133.7-.225,298.691-.225S625.195,447.625,625.195,447.755Z" transform="translate(-27.83 -447.53)" fill="#263238"/></g><g transform="translate(96.902 110.002)"><path d="M222.725,430.06s-36.164,10.023-37.664,10.534c-2.176.763-1.812,8.757,1.587,8.67,1.6-.061,27.806.971,31.118.763s12.225-3.72,12.225-3.72Z" transform="translate(-145.459 -210.539)" fill="#455a64"/><path d="M210.672,444.892a31.664,31.664,0,0,0-1.6-3.884c-1.17-1.994-2.67-3.191-2.558-3.329s1.864.867,3.087,3.026S210.828,444.892,210.672,444.892Z" transform="translate(-148.493 -211.551)" fill="#263238"/><path d="M215.134,442.939c-.182,0-.546-1.682-1.509-3.572s-2.107-3.217-1.977-3.338,1.517,1.066,2.514,3.069A7.031,7.031,0,0,1,215.134,442.939Z" transform="translate(-149.174 -211.332)" fill="#263238"/><path d="M219.312,441.822c-.182,0-.043-1.821-.867-3.832s-2.107-3.251-1.977-3.381,1.734.98,2.54,3.165S219.46,441.883,219.312,441.822Z" transform="translate(-149.815 -211.143)" fill="#263238"/><path d="M218.938,436.24a6.538,6.538,0,0,1-.39-2.688,13.005,13.005,0,0,1,.39-2.974,11.413,11.413,0,0,1,.538-1.682,1.986,1.986,0,0,1,.581-.867.962.962,0,0,1,1.24.061,1.63,1.63,0,0,1,.486,1.023,7.151,7.151,0,0,1,0,.954,7.8,7.8,0,0,1-.225,1.734,10.864,10.864,0,0,1-1.11,2.766,7.344,7.344,0,0,1-1.63,2.176c-.078-.052.529-.867,1.249-2.376a11.688,11.688,0,0,0,.945-2.688,7.942,7.942,0,0,0,.182-1.656c0-.555,0-1.249-.338-1.517a.347.347,0,0,0-.477-.043,1.5,1.5,0,0,0-.4.633,12.416,12.416,0,0,0-.546,1.6,14.142,14.142,0,0,0-.477,2.826C218.877,435.2,219.042,436.232,218.938,436.24Z" transform="translate(-150.091 -210.243)" fill="#263238"/><path d="M219.06,437.049a5.107,5.107,0,0,1,2.341-.382,10.452,10.452,0,0,1,2.6.321,5.358,5.358,0,0,1,1.483.546,1.517,1.517,0,0,1,.815,1.647,1.812,1.812,0,0,1-1.309,1.292,3.3,3.3,0,0,1-1.621,0,7.725,7.725,0,0,1-4.032-2.818,16.325,16.325,0,0,1,1.925,1.309,6.442,6.442,0,0,0,2.22.962,2.818,2.818,0,0,0,1.344,0,1.24,1.24,0,0,0,.867-.867.928.928,0,0,0-.538-1.006,5.27,5.27,0,0,0-1.318-.512,11.818,11.818,0,0,0-2.436-.425C219.962,437,219.077,437.145,219.06,437.049Z" transform="translate(-150.161 -211.416)" fill="#263238"/><path d="M204.522,445.5c-.182,0,0-1.569-.72-3.26s-1.881-2.7-1.734-2.835,1.569.711,2.332,2.6S204.669,445.572,204.522,445.5Z" transform="translate(-147.9 -211.78)" fill="#263238"/><path d="M228.04,448.368a8.582,8.582,0,0,1-1.4.659,31.81,31.81,0,0,1-4.032,1.249,57.093,57.093,0,0,1-13.82,1.309c-5.428-.061-10.318-.3-13.872-.451l-4.2-.217a7.706,7.706,0,0,1-1.535-.165,7.024,7.024,0,0,1,1.578-.1h4.205l13.872.269a64.566,64.566,0,0,0,13.725-1.118C226.011,449.149,228.04,448.256,228.04,448.368Z" transform="translate(-146.188 -212.972)" fill="#263238"/><path d="M232.575,448.852a29.194,29.194,0,0,1-2.714-1.231,12.693,12.693,0,0,0-6.85-1.136,10.859,10.859,0,0,0-5.922,3.52,20.275,20.275,0,0,1-2.09,2.133,11.348,11.348,0,0,1,1.777-2.419,14.22,14.22,0,0,1,2.4-2.246,8.6,8.6,0,0,1,3.737-1.587,11.982,11.982,0,0,1,7.127,1.353,9.588,9.588,0,0,1,2.532,1.613Z" transform="translate(-149.621 -212.632)" fill="#263238"/><path d="M193.126,449.756a13,13,0,0,1,.529-1.37,6.667,6.667,0,0,0-1.2-6.485c-.572-.694-1.032-1.023-.988-1.092s.572.191,1.24.867a6.173,6.173,0,0,1,1.266,6.85C193.585,449.375,193.169,449.791,193.126,449.756Z" transform="translate(-146.492 -211.967)" fill="#263238"/><path d="M271.3,431.3s37.143,5.644,38.643,5.982c2.263.5,2.844,8.48-.538,8.757-1.6.13-27.5,4.274-30.814,4.465s-13.7-2.532-13.7-2.532Z" transform="translate(-156.255 -210.704)" fill="#455a64"/><path d="M291.428,443.873c.182,0,.2-1.925,1.118-4.049s2.28-3.468,2.15-3.616-1.734,1.1-2.705,3.381A6.541,6.541,0,0,0,291.428,443.873Z" transform="translate(-159.764 -211.355)" fill="#263238"/><path d="M286.873,442.494c.182,0,.338-1.734,1.075-3.728s1.734-3.468,1.561-3.546-1.379,1.231-2.133,3.338A6.988,6.988,0,0,0,286.873,442.494Z" transform="translate(-159.164 -211.225)" fill="#263238"/><path d="M282.643,441.848a24.331,24.331,0,0,1,.382-3.9c.555-2.09,1.734-3.468,1.561-3.6s-1.569,1.179-2.142,3.468S282.5,441.926,282.643,441.848Z" transform="translate(-158.558 -211.108)" fill="#263238"/><path d="M282.24,436.309a6.259,6.259,0,0,0,.069-2.714,12.506,12.506,0,0,0-.72-2.887,12,12,0,0,0-.737-1.613,2,2,0,0,0-.676-.806.971.971,0,0,0-1.231.208,1.621,1.621,0,0,0-.355,1.075,6.86,6.86,0,0,0,.069.954,7.8,7.8,0,0,0,.434,1.734,10.881,10.881,0,0,0,1.431,2.6,7.5,7.5,0,0,0,1.873,1.977,24.146,24.146,0,0,0-1.517-2.211,11.99,11.99,0,0,1-1.266-2.6,7.9,7.9,0,0,1-.364-1.621c-.052-.555-.139-1.24.147-1.543a.347.347,0,0,1,.468-.1,1.509,1.509,0,0,1,.477.581,12.134,12.134,0,0,1,.728,1.517,14.637,14.637,0,0,1,.815,2.748C282.179,435.278,282.145,436.309,282.24,436.309Z" transform="translate(-158.077 -210.286)" fill="#263238"/><path d="M281.635,437.118a5.072,5.072,0,0,0-2.341-.13,10.76,10.76,0,0,0-2.514.616,5.687,5.687,0,0,0-1.4.72,1.526,1.526,0,0,0-.616,1.734,1.838,1.838,0,0,0,1.457,1.136,3.39,3.39,0,0,0,1.613-.2,7.8,7.8,0,0,0,3.668-3.277,16.359,16.359,0,0,0-1.734,1.526,6.4,6.4,0,0,1-2.09,1.223,2.913,2.913,0,0,1-1.335.139,1.257,1.257,0,0,1-.98-.746.954.954,0,0,1,.416-1.075,5.654,5.654,0,0,1,1.24-.659,11.558,11.558,0,0,1,2.376-.711C280.733,437.178,281.635,437.213,281.635,437.118Z" transform="translate(-157.558 -211.45)" fill="#263238"/><path d="M297.8,443.755c.182-.043-.182-1.552.321-3.329a22.792,22.792,0,0,1,1.431-3.017c-.13-.121-1.483.867-2.012,2.861S297.669,443.842,297.8,443.755Z" transform="translate(-160.57 -211.515)" fill="#263238"/><path d="M269.17,449.764a7.6,7.6,0,0,0,1.474.486,30.8,30.8,0,0,0,4.144.763,57.173,57.173,0,0,0,13.872-.338c5.384-.711,10.2-1.535,13.708-2.1l4.144-.72a7.128,7.128,0,0,0,1.5-.347,7.249,7.249,0,0,0-1.535.113l-4.17.529-13.725,1.916a64.629,64.629,0,0,1-13.76.52C271.312,450.293,269.2,449.668,269.17,449.764Z" transform="translate(-156.824 -212.859)" fill="#263238"/><path d="M268.06,450.572c.061.078.971-.616,2.549-1.543a12.554,12.554,0,0,1,6.667-1.942,10.851,10.851,0,0,1,6.295,2.792,22.443,22.443,0,0,0,2.324,1.873,10.89,10.89,0,0,0-2.046-2.194,14.229,14.229,0,0,0-2.653-1.951,8.67,8.67,0,0,0-3.9-1.127,11.99,11.99,0,0,0-6.936,2.185,9.589,9.589,0,0,0-2.3,1.907Z" transform="translate(-156.677 -212.723)" fill="#263238"/><path d="M392.532,252.446a2.28,2.28,0,0,0-1.084-1.066l.867-1.734a5.071,5.071,0,0,0-.512-1.786c-.434-.746-1.951-.685-1.951-.685l.234-.494a2.237,2.237,0,0,0-.191-2.185c-.069-.1-.139-.191-.225-.295a3.615,3.615,0,0,0-1.916-.971s.867-1.665.477-2.367a3.607,3.607,0,0,0-3.694-1.457,52.381,52.381,0,0,0-6.719,3.208,1.587,1.587,0,0,1-2.254-.867,22.8,22.8,0,0,0-3.286-6.173c-1.63-1.96-3.156-1.8-4.049-1.457a.737.737,0,0,0-.364,1.066,39.554,39.554,0,0,1,2.358,4.335c.425,1.136.867,9.685.867,9.685l-2.341,4.457L345.14,290.951s-35.678-24.043-35.548-24.641l-1.682,27.571,26.878,17.861a18.936,18.936,0,0,0,27.823-8.185l18.095-39.276,2.194-3.208,8.523-5.462S392.835,253.166,392.532,252.446Z" transform="translate(-161.976 -184.456)" fill="#ffbe9d"/><path d="M399.389,244.27a1.58,1.58,0,0,1-.165.156l-.512.416c-.477.364-1.127.867-1.907,1.483l-2.853,2.168a17.9,17.9,0,0,1-1.734,1.249,2.506,2.506,0,0,1-2.263.3,1.734,1.734,0,0,1-.867-.867,2.489,2.489,0,0,1-.2-1.136,3.278,3.278,0,0,1,.867-1.942,12.144,12.144,0,0,1,1.422-1.3l1.283-1.066,1.873-1.535.512-.408c.121-.087.182-.139.191-.13l-.165.165-.486.442-1.821,1.578-1.266,1.084a12.063,12.063,0,0,0-1.387,1.3,3.043,3.043,0,0,0-.867,1.821,1.8,1.8,0,0,0,.91,1.795,1.864,1.864,0,0,0,1.066.1,3.035,3.035,0,0,0,1.006-.39c.607-.373,1.162-.867,1.734-1.223l2.87-2.142,1.951-1.422.538-.382Z" transform="translate(-172.743 -185.487)" fill="#eb996e"/><path d="M401.722,249.3a2.274,2.274,0,0,1-.4.329c-.26.2-.65.486-1.136.824-.962.668-2.324,1.569-3.876,2.48-.39.225-.763.46-1.162.642a2.515,2.515,0,0,1-1.24.234,1.942,1.942,0,0,1-1.6-1.292,1.907,1.907,0,0,1,.1-1.4,1.8,1.8,0,0,1,.217-.321c.061-.069.1-.1.1-.1a3.847,3.847,0,0,0-.243.451,1.9,1.9,0,0,0,0,1.318,1.734,1.734,0,0,0,1.474,1.145,2.35,2.35,0,0,0,1.136-.234,12.487,12.487,0,0,0,1.136-.624c1.552-.91,2.922-1.786,3.91-2.428l1.162-.763a3.022,3.022,0,0,1,.416-.26Z" transform="translate(-173.186 -186.503)" fill="#eb996e"/><path d="M403.112,253.82a2.214,2.214,0,0,1-.408.234l-1.153.581c-.98.486-2.341,1.136-3.841,1.847a10.519,10.519,0,0,1-1.127.486,2.177,2.177,0,0,1-1.171.1,1.257,1.257,0,0,1-.867-.624,1.465,1.465,0,0,1-.139-.919,1.986,1.986,0,0,1,.685-1.118c.234-.2.39-.277.4-.26a4.471,4.471,0,0,1-.347.321,2.029,2.029,0,0,0-.581,1.084,1.283,1.283,0,0,0,.139.806,1.1,1.1,0,0,0,.754.52,1.959,1.959,0,0,0,1.058-.1,9.939,9.939,0,0,0,1.1-.486c1.509-.7,2.87-1.335,3.867-1.786l1.188-.512A1.6,1.6,0,0,1,403.112,253.82Z" transform="translate(-173.474 -187.104)" fill="#eb996e"/><path d="M403.99,257.895a9.047,9.047,0,0,1-1.353.355c-.867.191-2.012.442-3.3.7l-.945.191a3.623,3.623,0,0,1-.91.1,1.283,1.283,0,0,1-.806-.286.867.867,0,0,1-.312-.685,1.24,1.24,0,0,1,.52-.91.65.65,0,0,1,.347-.156,1.918,1.918,0,0,0-.295.225,1.179,1.179,0,0,0-.416.867.694.694,0,0,0,.269.546,1.11,1.11,0,0,0,.694.225,3.9,3.9,0,0,0,.867-.113l.945-.2c1.292-.26,2.462-.486,3.312-.642a9.964,9.964,0,0,1,1.387-.225Z" transform="translate(-173.737 -187.555)" fill="#eb996e"/><path d="M393.752,255.927a12.478,12.478,0,0,0-2.428-.243,11.671,11.671,0,0,0-2.384.477,4.448,4.448,0,0,1,2.376-.694A4.561,4.561,0,0,1,393.752,255.927Z" transform="translate(-172.75 -187.321)" fill="#eb996e"/><path d="M246.081,237.311s-12-10.118-9.225-17.089,10.482-10.4,14.271-23.106c3.026-10.127,21.051-29.67,42.415-14.93,0,0,7.231-1.136,11.341,2.159s5.107,9.867,6.85,17.453c2.688,11.7,4.162,20.687-1.04,26.41s-7.11,7.257-6.832,13.76c.364,8.488,4.11,7.352.867,13.543l-17.913-5.844-.191-4.933-1.812,4.639-10.4-3.746Z" transform="translate(-152.472 -176.872)" fill="#263238"/><path d="M311.755,197.36c-1.162,2.67-.208,5.757.867,8.462s2.384,5.558,1.829,8.419c-.988,5.072-7.292,7.9-7.985,13.005-.373,2.74,1,5.532.468,8.254s-2.714,4.613-5.046,5.93-4.907,2.2-7.1,3.746c0,0-4.821,3.954-13.127-2.558" transform="translate(-158.485 -179.597)" fill="#263238"/><path d="M273.627,189.692a4.422,4.422,0,0,0-5.2,2.939h0l-17.21,57.137c-2.228,6.685,6.182,13.82,13.352,16.144h0c7.248,2.35,8.714-1.092,11.011-7.387,3.85-10.508,5.2-14.479,5.2-14.419s9.607,1.647,15.607-9.537c2.983-5.575,6.069-15.346,8.3-23.41,2.029-7.266.347-17.635-7-19.343Z" transform="translate(-154.388 -178.562)" fill="#ffbe9d"/><path d="M305.456,221.045a1.6,1.6,0,0,1-2,1.023,1.543,1.543,0,0,1-1.092-1.916,1.613,1.613,0,0,1,2-1.023,1.543,1.543,0,0,1,1.092,1.916Z" transform="translate(-161.23 -182.482)" fill="#263238"/><path d="M307.763,218.558c-.251.13-1.11-1.118-2.748-1.682s-3.121-.165-3.225-.425c-.061-.121.26-.416.867-.616a4.448,4.448,0,0,1,2.67.1,4.283,4.283,0,0,1,2.107,1.6C307.841,218.046,307.893,218.471,307.763,218.558Z" transform="translate(-161.161 -182.032)" fill="#263238"/><path d="M286.738,215.066a1.613,1.613,0,0,1-1.994,1.032,1.543,1.543,0,0,1-1.092-1.916,1.613,1.613,0,0,1,1.994-1.032,1.543,1.543,0,0,1,1.092,1.916Z" transform="translate(-158.742 -181.687)" fill="#263238"/><path d="M288.941,212.869c-.26.139-1.118-1.118-2.757-1.682s-3.121-.165-3.225-.425c-.061-.121.26-.408.91-.607a4.378,4.378,0,0,1,2.67.1,4.222,4.222,0,0,1,2.107,1.587C289.011,212.392,289.063,212.817,288.941,212.869Z" transform="translate(-158.657 -181.276)" fill="#263238"/><path d="M291.84,227.558a11.273,11.273,0,0,1,2.827.442c.434.1.867.156,1.023-.1a2.28,2.28,0,0,0,.147-1.335c0-1.144-.078-2.35-.121-3.607-.147-5.133-.1-9.286.113-9.295s.494,4.153.633,9.277c0,1.257.043,2.462.069,3.615a2.532,2.532,0,0,1-.355,1.734,1.084,1.084,0,0,1-.867.373,2.766,2.766,0,0,1-.737-.147,11.324,11.324,0,0,1-2.731-.954Z" transform="translate(-159.839 -181.764)" fill="#263238"/><path d="M283.171,250.974a31.846,31.846,0,0,1-14.4-9.754s1.17,9.537,13.422,12.563Z" transform="translate(-156.771 -185.429)" fill="#eb996e"/><path d="M288.645,233.678a3.1,3.1,0,0,0-2.263-2.012,2.844,2.844,0,0,0-2.2.347,1.786,1.786,0,0,0-.806,1.907,2.081,2.081,0,0,0,1.951,1.283,6.417,6.417,0,0,0,2.523-.52,1.943,1.943,0,0,0,.642-.321.59.59,0,0,0,.208-.607" transform="translate(-158.707 -184.147)" fill="#eb996e"/><path d="M290.047,207.6c-.251.434-1.907-.113-3.954-.251s-3.754.1-3.945-.364c-.078-.225.286-.607,1.023-.928a6.494,6.494,0,0,1,3.061-.46,6.572,6.572,0,0,1,2.957.928C289.865,206.957,290.168,207.391,290.047,207.6Z" transform="translate(-158.549 -180.688)" fill="#263238"/><path d="M310.367,212.25c-.451.277-1.734-.5-3.373-.988s-3.13-.607-3.347-1.092c-.087-.234.243-.555.954-.737a5.974,5.974,0,0,1,5.419,1.673C310.5,211.644,310.575,212.1,310.367,212.25Z" transform="translate(-161.407 -181.187)" fill="#263238"/><path d="M254,226.873q4.838-16.2,9.685-32.427c.659-2.22,1.422-4.587,3.269-5.982s4.084-1.474,6.269-1.517a118.655,118.655,0,0,1,28.092,2.774c.434,2.194-1.465,4.283-3.6,5s-4.439.46-6.676.486-4.691.425-6.208,2.081-1.777,4.474-3.3,6.312c-2.6,3.156-8.124,2.488-10.734,5.662-1.968,2.4-1.439,5.913-2.09,8.948-.737,3.468-.737,3.468-3.468,8.514-1.656,3.1,2.506,9.034-1.639,16.725l-8.046-2.289,3.529-11.878-4.786,11.141Z" transform="translate(-154.807 -178.208)" fill="#263238"/><path d="M286.068,229.457c.165.1.078.529.069,1.153a4.188,4.188,0,0,0,2.038,3.884c.512.347.919.52.867.711s-.494.355-1.266.173a3.806,3.806,0,0,1-2.6-4.977C285.5,229.657,285.921,229.362,286.068,229.457Z" transform="translate(-158.922 -183.862)" fill="#263238"/><path d="M281.412,199.4a1.734,1.734,0,0,1-.451.251,13.2,13.2,0,0,0-1.275.711,15.416,15.416,0,0,0-7.1,10.708,17.48,17.48,0,0,0,0,4.656,27.943,27.943,0,0,1,.3,5.1,9.217,9.217,0,0,1-.546,2.6,16.282,16.282,0,0,1-1.153,2.263,11.271,11.271,0,0,0-1.821,4.24,14.357,14.357,0,0,0,.113,4.2c.182,1.327.416,2.6.5,3.7a9.788,9.788,0,0,1-.789,5.341,5.6,5.6,0,0,1-.867,1.205c-.251.234-.39.347-.4.329a7.8,7.8,0,0,0,1.1-1.613,10.04,10.04,0,0,0,.633-5.2c-.113-1.127-.364-2.35-.564-3.676a14.532,14.532,0,0,1-.147-4.335c.338-3.191,3.416-5.532,3.468-9.034a28.264,28.264,0,0,0-.286-5.02,17.566,17.566,0,0,1,0-4.769,15.278,15.278,0,0,1,3.286-7.3,14.471,14.471,0,0,1,4.136-3.468,9.327,9.327,0,0,1,1.327-.633A1.848,1.848,0,0,1,281.412,199.4Z" transform="translate(-156.659 -179.868)" fill="#263238"/><path d="M326.4,246.9l-.147.121c-.1.069-.251.191-.46.312a7.266,7.266,0,0,1-1.968.8,8.185,8.185,0,0,1-3.373.121,7.43,7.43,0,0,1-3.988-1.985,8.115,8.115,0,0,1-2.384-4.829,7.438,7.438,0,0,1,.2-3.043,9.38,9.38,0,0,1,1.422-2.9,38.567,38.567,0,0,1,4.795-4.89,18.207,18.207,0,0,0,2.358-2.662,13.162,13.162,0,0,0,1.621-3.26,21.173,21.173,0,0,0,.91-7.153,51.706,51.706,0,0,0-.7-6.754,63.133,63.133,0,0,0-2.878-11.124,67.151,67.151,0,0,0-3.035-7.153c-.408-.824-.737-1.457-.962-1.881a3.981,3.981,0,0,1-.338-.624,4.428,4.428,0,0,1,.4.624c.251.408.607,1.032,1.04,1.847a58.436,58.436,0,0,1,3.182,7.118,61.3,61.3,0,0,1,3,11.167,50.781,50.781,0,0,1,.737,6.815,21.3,21.3,0,0,1-.928,7.3,13.179,13.179,0,0,1-1.673,3.373,18.884,18.884,0,0,1-2.428,2.731,38.823,38.823,0,0,0-4.76,4.812,8.948,8.948,0,0,0-1.379,2.757,7.336,7.336,0,0,0-.217,2.9,7.89,7.89,0,0,0,2.246,4.647,7.318,7.318,0,0,0,3.806,1.968,8.063,8.063,0,0,0,3.286-.052,9.312,9.312,0,0,0,2.618-1.1Z" transform="translate(-162.786 -178.618)" fill="#263238"/><path d="M243.23,234.722a7.491,7.491,0,0,0,2.783-1.387,11.089,11.089,0,0,0,3.694-7.448,43.424,43.424,0,0,0,.156-5.922,26.151,26.151,0,0,1,.529-6.85,12.763,12.763,0,0,1,1.4-3.468,8.237,8.237,0,0,1,2.74-2.809c2.35-1.439,5.2-1.37,7.8-2.263a8.246,8.246,0,0,0,3.321-2.176,20.725,20.725,0,0,0,2.341-3.165c1.387-2.185,2.723-4.483,4.838-5.844a8.28,8.28,0,0,1,3.355-1.223,18.211,18.211,0,0,1,3.338-.139,34.239,34.239,0,0,0,5.922-.052,17.609,17.609,0,0,0,7.873-3.139,21.826,21.826,0,0,0,1.8-1.474l.442-.416.165-.139a12.138,12.138,0,0,1-2.306,2.168,17.5,17.5,0,0,1-7.933,3.321,34.681,34.681,0,0,1-5.974.1c-2.1,0-4.483,0-6.459,1.344s-3.3,3.52-4.691,5.722a20.957,20.957,0,0,1-2.393,3.243A8.67,8.67,0,0,1,262.5,205c-2.67.919-5.514.867-7.708,2.22a9.442,9.442,0,0,0-3.962,6,25.9,25.9,0,0,0-.564,6.737,41.279,41.279,0,0,1-.208,5.974,11.159,11.159,0,0,1-3.9,7.543,6.243,6.243,0,0,1-2.09,1.084,5.742,5.742,0,0,1-.6.139A.641.641,0,0,1,243.23,234.722Z" transform="translate(-153.375 -178.194)" fill="#455a64"/><path d="M253.25,198.5a11.394,11.394,0,0,0,1.734.46,8.445,8.445,0,0,0,4.682-.772,19.585,19.585,0,0,0,5.6-4.413c.954-.971,1.951-2.012,3.078-2.991a14.028,14.028,0,0,1,3.91-2.5,12.667,12.667,0,0,1,4.569-.867,37.692,37.692,0,0,1,4.292.234c1.353.13,2.6.269,3.832.277a17.176,17.176,0,0,0,3.321-.269,9.147,9.147,0,0,0,4.335-1.925,16.7,16.7,0,0,0,1.223-1.275,2.081,2.081,0,0,1-.234.4,3.561,3.561,0,0,1-.338.451,4.515,4.515,0,0,1-.538.555,9.017,9.017,0,0,1-4.413,2.107,16.941,16.941,0,0,1-3.381.329c-1.223,0-2.514-.121-3.876-.234a37.232,37.232,0,0,0-4.24-.208,12.269,12.269,0,0,0-4.413.815c-2.87,1.188-4.933,3.468-6.858,5.367a19.119,19.119,0,0,1-5.766,4.4,8.315,8.315,0,0,1-4.838.659,5.6,5.6,0,0,1-1.283-.407A2.262,2.262,0,0,1,253.25,198.5Z" transform="translate(-154.707 -177.881)" fill="#455a64"/><path d="M323.092,223.105a6.548,6.548,0,0,0,.425-1.656,7.11,7.11,0,0,0-1.231-4.378c-1.006-1.734-2.87-3.191-4.76-5.037A12.771,12.771,0,0,1,315,208.7a11.7,11.7,0,0,1-1.075-4.335c-.2-3.078.329-5.956.26-8.566a10.4,10.4,0,0,0-1.907-6.468,6.442,6.442,0,0,0-3.806-2.436,7.377,7.377,0,0,0-1.734-.043,1.491,1.491,0,0,1,.442-.121,4.751,4.751,0,0,1,1.292,0,6.451,6.451,0,0,1,4.032,2.41,10.542,10.542,0,0,1,2.072,6.659c.035,2.644-.425,5.54-.225,8.54a11.359,11.359,0,0,0,1.023,4.2,12.287,12.287,0,0,0,2.419,3.234c1.838,1.838,3.737,3.381,4.734,5.2a7.083,7.083,0,0,1,1.136,4.569,4.11,4.11,0,0,1-.364,1.24A1.563,1.563,0,0,1,323.092,223.105Z" transform="translate(-161.82 -178.178)" fill="#455a64"/><path d="M236.536,227.634a5.153,5.153,0,0,1-.555-.3,6.45,6.45,0,0,1-1.344-1.214,7.855,7.855,0,0,1-1.665-6.329,7.655,7.655,0,0,1,.737-2.124,8.444,8.444,0,0,1,1.526-1.89A19.447,19.447,0,0,1,239.744,213a17.61,17.61,0,0,0,4.821-3.069,11.367,11.367,0,0,0,2.731-5.393c.52-2.055.867-4.136,1.552-6.069a26.3,26.3,0,0,1,2.523-5.28,27.528,27.528,0,0,1,6.589-7.326,25.663,25.663,0,0,1,5.74-3.364,16.051,16.051,0,0,1,1.691-.633,2.764,2.764,0,0,1,.607-.173c0,.052-.815.312-2.228.971a26.6,26.6,0,0,0-5.61,3.468,27.675,27.675,0,0,0-6.433,7.292,25.9,25.9,0,0,0-2.454,5.2c-.659,1.89-1.006,3.945-1.543,6.069a11.687,11.687,0,0,1-2.853,5.592,17.87,17.87,0,0,1-4.942,3.13,19.482,19.482,0,0,0-4.448,2.679,8.324,8.324,0,0,0-1.474,1.786,7.213,7.213,0,0,0-.728,2.012,8.09,8.09,0,0,0,.2,3.668,7.413,7.413,0,0,0,1.283,2.488,9.268,9.268,0,0,0,1.769,1.587Z" transform="translate(-151.995 -177.513)" fill="#263238"/><path d="M326.947,224.173c-.043,0,.364-.416.919-1.24a10.491,10.491,0,0,0,1.543-3.841,14.558,14.558,0,0,0-.217-6.121,24.65,24.65,0,0,0-3.1-6.893c-1.431-2.3-2.974-4.378-4.274-6.347a35.792,35.792,0,0,1-3.061-5.48A18.069,18.069,0,0,1,317.5,190.2a10.413,10.413,0,0,1-.139-1.144,1.4,1.4,0,0,1,0-.4s.1.546.321,1.509a20.385,20.385,0,0,0,1.361,3.988,39.021,39.021,0,0,0,3.121,5.376c1.309,1.951,2.87,4.023,4.335,6.347a24.457,24.457,0,0,1,3.13,7.032,14.609,14.609,0,0,1,.121,6.286,10.048,10.048,0,0,1-1.734,3.876,6.756,6.756,0,0,1-.763.867,1.456,1.456,0,0,1-.3.234Z" transform="translate(-163.23 -178.44)" fill="#263238"/><path d="M213.253,368.916l-7.118,12.39s-35.383-12.945-56.1-9.173c-7.881,1.431-16.309,19.3-4.829,30.779,11.193,11.193,31.213,27.025,68.781,32.149.936.121,16.326,3.425,15.372,3.312s21.572,3.468,21.572,3.468l5.289-19.994,41.955,6.581c24.728-1.682,36.831-28.126,21.936-36.641-13.872-7.933-40-8.575-40-8.575l-9.468-14.844Z" transform="translate(-139.594 -202.336)" fill="#263238"/><path d="M257.132,444.488c.1-.676.408-2.5,1.014-6.234.338-1.994.746-4.422,1.275-7.214.269-1.4.564-2.887.919-4.457.182-.789.373-1.587.607-2.41.113-.408.234-.815.381-1.231a3.652,3.652,0,0,1,.642-1.231l.061.3c-8.93-3.173-20.1-7.361-31.993-12.381-7.318-3.113-14.219-6.251-20.3-9.537a65.889,65.889,0,0,1-8.323-5.159c-2.462-1.821-4.665-3.641-6.728-5.2a36.522,36.522,0,0,0-10.552-6.191A17.921,17.921,0,0,0,182.29,383a11.172,11.172,0,0,0-1.379-.295l-.867-.156-.295-.069a1.333,1.333,0,0,1,.3,0l.867.113a10.148,10.148,0,0,1,1.4.251,16,16,0,0,1,1.873.512,25.334,25.334,0,0,1,4.855,2.159,50.288,50.288,0,0,1,5.835,3.945c2.081,1.569,4.283,3.373,6.754,5.2a65.7,65.7,0,0,0,8.3,5.1c6.069,3.243,12.962,6.373,20.271,9.477,11.887,5.011,23.037,9.234,31.941,12.451l.251.1-.191.208a3.581,3.581,0,0,0-.546,1.092c-.147.4-.269.806-.39,1.205-.234.806-.434,1.613-.616,2.384-.364,1.561-.676,3.043-.954,4.439-.555,2.792-.988,5.2-1.353,7.2s-.659,3.511-.867,4.6c-.1.529-.182.936-.251,1.205a2.938,2.938,0,0,1-.1.382Z" transform="translate(-144.934 -204.211)" fill="#455a64"/><path d="M325.363,398h-.234l-.65-.1c-.572-.078-1.4-.286-2.506-.4a48.784,48.784,0,0,0-9.3-.329,69.459,69.459,0,0,0-13.63,2.254c-2.514.668-5.133,1.465-7.8,2.393s-5.41,1.994-8.211,3.113a75.467,75.467,0,0,1-8.367,2.766c-2.749.754-5.428,1.344-7.994,1.838-5.133,1.006-9.806,1.621-13.725,2.1s-7.1.8-9.295,1.023l-2.532.251-.659.052a.747.747,0,0,1-.225,0h.217l.659-.1,2.514-.338,9.277-1.162c3.919-.52,8.575-1.17,13.682-2.194,2.558-.5,5.2-1.1,7.959-1.864a77.772,77.772,0,0,0,8.323-2.748c2.792-1.118,5.54-2.194,8.237-3.113s5.315-1.734,7.847-2.384a67.55,67.55,0,0,1,13.716-2.159,45.891,45.891,0,0,1,9.347.468c1.1.139,1.925.382,2.5.486l.65.147A.779.779,0,0,1,325.363,398Z" transform="translate(-152.976 -206.122)" fill="#455a64"/><path d="M258.632,389.3c0,.295-1.873.772-5.02,1.066a65.633,65.633,0,0,1-24.381-2.6c-3.009-.954-4.769-1.829-4.682-2.116.2-.624,7.63,1.353,16.994,2.324S258.572,388.643,258.632,389.3Z" transform="translate(-150.891 -204.618)" fill="#263238"/><path d="M297.309,385.83a9.535,9.535,0,0,1-1.387.373,16.089,16.089,0,0,0-1.621.416c-.624.182-1.344.373-2.116.65a52.688,52.688,0,0,0-5.358,2.124c-1.96.936-4.075,2.046-6.234,3.329a98.422,98.422,0,0,0-10.5,7.387c-1.283,1.023-2.315,1.873-3.017,2.462a8.22,8.22,0,0,1-1.136.867,9.618,9.618,0,0,1,1.014-1.014c.676-.633,1.673-1.517,2.939-2.6a83.46,83.46,0,0,1,10.474-7.534,66.551,66.551,0,0,1,6.286-3.312,45.742,45.742,0,0,1,5.436-2.055c.78-.26,1.509-.434,2.15-.59a14.206,14.206,0,0,1,1.647-.347,8.324,8.324,0,0,1,1.422-.156Z" transform="translate(-156.395 -204.658)" fill="#455a64"/><path d="M254.309,405.027a10.023,10.023,0,0,1-2.488-.711,53.445,53.445,0,0,1-5.679-2.558l-5.488-2.887a19.488,19.488,0,0,1-2.263-1.231,12.632,12.632,0,0,1,2.41.945c1.448.659,3.407,1.665,5.566,2.766s4.127,2.055,5.592,2.67A21.068,21.068,0,0,1,254.309,405.027Z" transform="translate(-152.731 -206.228)" fill="#455a64"/><path d="M261.032,370.72c.069,0-.052,1.3-.182,3.39s-.251,4.977-.191,8.167.295,6.069.5,8.167a33.744,33.744,0,0,1,.321,3.381,3.311,3.311,0,0,1-.225-.867c-.121-.572-.26-1.413-.408-2.454a69.259,69.259,0,0,1-.642-8.193,71.24,71.24,0,0,1,.321-8.2c.113-1.049.217-1.89.312-2.471A3.857,3.857,0,0,1,261.032,370.72Z" transform="translate(-155.631 -202.649)" fill="#455a64"/><path d="M265.506,372.143a4.048,4.048,0,0,0-.373.4,2.462,2.462,0,0,0-.555,1.275,2.4,2.4,0,0,0,.546,1.9,2.237,2.237,0,0,0,3.7-1.37,2.419,2.419,0,0,0-.867-1.795,2.454,2.454,0,0,0-1.249-.607c-.338-.052-.529,0-.538-.061s.182-.113.555-.113a2.384,2.384,0,0,1,1.439.538,2.508,2.508,0,1,1-3.39,3.685,2.653,2.653,0,0,1-.546-2.228,2.393,2.393,0,0,1,.746-1.353C265.289,372.177,265.5,372.125,265.506,372.143Z" transform="translate(-156.16 -202.788)" fill="#455a64"/><path d="M274.362,355.73a4.944,4.944,0,0,1-.676.867,26.338,26.338,0,0,1-2.081,2.2,32.473,32.473,0,0,1-3.468,2.87,37.637,37.637,0,0,1-4.725,2.852,36.844,36.844,0,0,1-5.115,2.055,32.939,32.939,0,0,1-4.387,1.04,24.809,24.809,0,0,1-3.009.338,5.736,5.736,0,0,1-1.11,0c0-.087,1.569-.173,4.066-.659a38.237,38.237,0,0,0,4.335-1.127,37.057,37.057,0,0,0,13.2-7.6C273.278,356.883,274.292,355.678,274.362,355.73Z" transform="translate(-154.247 -200.655)" fill="#263238"/><path d="M295.353,366.814c0,.13-1.561.13-3.4.6s-3.225,1.162-3.295,1.049A9.008,9.008,0,0,1,295.353,366.814Z" transform="translate(-159.416 -202.116)" fill="#263238"/><g transform="translate(98.239 155.699)" opacity="0.3"><path d="M254.209,367.617a33.207,33.207,0,0,0,19.326-11.167,7.8,7.8,0,0,1-1.9,7.959c2.2,1.04,4.786.347,7.2,0s5.358,0,6.511,2.142a254.911,254.911,0,0,1-32.444.928" transform="translate(-252.9 -356.45)"/></g><path d="M225.867,349.171a12.182,12.182,0,0,0-3.737-2.419,12.017,12.017,0,0,0-4.743-.806,13.006,13.006,0,0,0-5.662,1.526c-3.78,1.959-6.069,5.306-7.734,7.448a23.164,23.164,0,0,0-1.734,2.826,7,7,0,0,1-.6,1.058,6.069,6.069,0,0,1,.442-1.136,19.075,19.075,0,0,1,1.6-2.931c.806-1.162,1.847-2.462,3.043-3.884a16.89,16.89,0,0,1,4.751-3.789,13.144,13.144,0,0,1,5.87-1.535,12,12,0,0,1,4.873.928,9.287,9.287,0,0,1,2.809,1.795,4.933,4.933,0,0,1,.624.659C225.815,349.076,225.885,349.162,225.867,349.171Z" transform="translate(-147.847 -199.299)" fill="#263238"/><path d="M253.9,253.81l-12.1,2.575,6.052,22.655,21.433,4.6,14.7-10.43,2.02-12.494L273.4,255.952Z" transform="translate(-153.185 -187.103)" fill="#ffbe9d"/><path d="M240.574,255.71s8.193,23.791,23.332,21.589,13.872-17.618,13.872-17.618,15.8,4.821,20.679,9.945,2,16.265,2,16.265l-4.092,20.132-8.913,38.565s3.407,10.526-5.306,13.127l-2.749-4.335-52.256,1.474s-11.176,12.884-14.661,8.445-6.832-13.109-6.832-13.109l24.008-91.627Z" transform="translate(-148.378 -187.355)" fill="#455a64"/><path d="M306.61,268.25c.425.243,37.1,26.878,37.1,26.878s-2.879,21.918,14.739,18.433c0,0-7.11,18.329-16.734,14.479-2.74-1.092-36.545-22.482-36.545-22.482L298,290.29Z" transform="translate(-160.658 -189.023)" fill="#455a64"/><path d="M239.582,257.06a21.673,21.673,0,0,0-2.228.156c-7.179.694-33.675,6.182-36.129,24.884-1.283,9.78-1.647,38.383-3.035,50.374,0,0,2.211,16.664,3.035,19.751,1.465,5.5,28.014-3.312,28.014-3.312l.052-52.889,9.485-38.938" transform="translate(-147.386 -187.535)" fill="#455a64"/><path d="M226.569,312.48a1.275,1.275,0,0,1,0,.425,11.419,11.419,0,0,0,.087,1.231,17.757,17.757,0,0,0,1.118,4.335c.676,1.786,1.734,3.815,2.74,6.139a27.748,27.748,0,0,1,1.387,3.763,23.029,23.029,0,0,1,.72,4.24,50.377,50.377,0,0,1-.217,8.271c-.217,2.532-.425,4.812-.737,6.711a29.88,29.88,0,0,1-1.049,4.431c-.173.512-.321.867-.434,1.162a1.491,1.491,0,0,1-.191.39s.165-.572.46-1.6a33.65,33.65,0,0,0,.867-4.43c.277-1.89.451-4.162.65-6.685a54.153,54.153,0,0,0,.173-8.211,22.794,22.794,0,0,0-.694-4.162,28.306,28.306,0,0,0-1.344-3.711c-1.006-2.315-2.012-4.378-2.662-6.191a16.127,16.127,0,0,1-.988-4.457,7.231,7.231,0,0,1,0-1.24A2.386,2.386,0,0,1,226.569,312.48Z" transform="translate(-151.141 -194.904)" fill="#263238"/><path d="M227.994,304.78c.078,0,.139,1.344.442,3.468a46.481,46.481,0,0,0,1.933,8.228c.269.789.546,1.543.867,2.272a4.836,4.836,0,0,0,.217.494l.312.477a11.215,11.215,0,0,1,.555.98,8.211,8.211,0,0,1,.98,3.746,6.684,6.684,0,0,1-.512,2.6,3.728,3.728,0,0,1-.477.867,9.008,9.008,0,0,0,.668-3.381,8.159,8.159,0,0,0-1.023-3.563c-.165-.312-.355-.624-.555-.936l-.312-.477a3.156,3.156,0,0,1-.26-.564c-.3-.728-.581-1.5-.867-2.289a39.015,39.015,0,0,1-1.821-8.341c-.121-1.084-.156-1.977-.165-2.6a4.214,4.214,0,0,1,.017-.98Z" transform="translate(-151.344 -193.88)" fill="#263238"/><path d="M227.386,293.044c-.069,0-.468-1.084-1.249-2.792a39.25,39.25,0,0,0-3.668-6.364,39.883,39.883,0,0,0-4.812-5.54c-1.361-1.3-2.28-2.038-2.228-2.1a3.1,3.1,0,0,1,.694.451,21.571,21.571,0,0,1,1.734,1.413,32.834,32.834,0,0,1,8.558,12.008,22.045,22.045,0,0,1,.763,2.116,3.346,3.346,0,0,1,.208.806Z" transform="translate(-149.678 -190.087)" fill="#263238"/><path d="M315.647,277.7a9.778,9.778,0,0,1-.173,2.1c-.156,1.292-.382,3.069-.581,5.037s-.364,3.754-.477,5.055a10.048,10.048,0,0,1-.26,2.09,9.425,9.425,0,0,1-.061-2.107c0-1.309.139-3.1.347-5.081s.477-3.763.711-5.037A9.414,9.414,0,0,1,315.647,277.7Z" transform="translate(-162.794 -190.28)" fill="#263238"/><path d="M322.49,303.379c0,.078-1.145.191-2.922.694a13.812,13.812,0,0,0-6.113,3.581,16.883,16.883,0,0,0-2.332,3.173,24.282,24.282,0,0,0-1.335,2.948l-.425,1.179c-.1.321-.191.624-.277.867a3.139,3.139,0,0,1-.286.763,2.437,2.437,0,0,1,.121-.806l.2-.928.364-1.214a21.006,21.006,0,0,1,1.275-3.043,16,16,0,0,1,2.376-3.208,13.127,13.127,0,0,1,6.347-3.572,9.092,9.092,0,0,1,1.249-.251,7.8,7.8,0,0,1,.945-.121A2.6,2.6,0,0,1,322.49,303.379Z" transform="translate(-162.094 -193.693)" fill="#263238"/><path d="M351.952,326.93a5.2,5.2,0,0,1-.581-.971c-.182-.312-.39-.711-.607-1.188s-.477-1-.7-1.613a31.584,31.584,0,0,1-1.4-4.378,35.876,35.876,0,0,1-.867-5.575,35.288,35.288,0,0,1,.1-5.627,32.421,32.421,0,0,1,.8-4.526c.139-.642.338-1.205.486-1.734a10.908,10.908,0,0,1,.434-1.257,5.412,5.412,0,0,1,.451-1.04c.087,0-.494,1.535-1.058,4.066a36.858,36.858,0,0,0-.694,4.491,39.241,39.241,0,0,0-.069,5.566,38.8,38.8,0,0,0,.815,5.506,36.338,36.338,0,0,0,1.283,4.335C351.259,325.473,352.03,326.895,351.952,326.93Z" transform="translate(-167.27 -193.115)" fill="#263238"/><path d="M341.45,320.435a3.66,3.66,0,0,1-.347-.928,18.291,18.291,0,0,1-.538-2.6,20.514,20.514,0,0,1,.815-8.809,19.942,19.942,0,0,1,4.431-7.664,3.8,3.8,0,0,1,2.384-1.283,1.682,1.682,0,0,1,.737.147c.147.078.225.13.217.147a2.6,2.6,0,0,0-.945-.121,3.858,3.858,0,0,0-2.159,1.327,21.1,21.1,0,0,0-4.231,7.578,22.127,22.127,0,0,0-.936,8.67C341.1,319.065,341.528,320.409,341.45,320.435Z" transform="translate(-166.297 -193.132)" fill="#263238"/><path d="M270.109,318.72a4.085,4.085,0,0,1-.217,1.032,10.226,10.226,0,0,1-.347,1.179,16.071,16.071,0,0,1-.581,1.526,24.194,24.194,0,0,1-1.977,3.763,25.664,25.664,0,0,1-7.257,7.422,24.465,24.465,0,0,1-3.72,2.072,14.509,14.509,0,0,1-1.517.607,7.85,7.85,0,0,1-1.171.382,5.2,5.2,0,0,1-1.023.243c0-.087,1.422-.477,3.572-1.517A27.249,27.249,0,0,0,259.5,333.3a30.83,30.83,0,0,0,3.919-3.312,30.084,30.084,0,0,0,3.217-4,26.6,26.6,0,0,0,2.038-3.668C269.667,320.151,270.022,318.694,270.109,318.72Z" transform="translate(-154.581 -195.734)" fill="#263238"/><g transform="translate(77.079 111.263)" opacity="0.3"><path d="M236.918,325.506,231.924,307.3c-.243-.867-.65-1.933-1.561-2.1a1.734,1.734,0,0,0-1.777,1.491,9.772,9.772,0,0,0,0,2.662c.39,3.962.7,6.65,2.549,9.719,3.6,5.982,1.231,8.887,1.231,8.887.286,7.283-.329,17.219-2.6,24.7l2.142,9.026c2.029-6.711,6.667-12.3,7.448-19.274C239.953,336.7,238.47,331.037,236.918,325.506Z" transform="translate(-228.495 -305.199)"/></g><g transform="translate(148.007 116.464)" opacity="0.3"><path d="M310.3,313.523c5.939,3.087,11.219,7.352,17,10.656-2.263-4.725-6.069-9.4-10.647-11.9a6.737,6.737,0,0,0-4.023-1.066c-1.4.2-2.41.988-2.194,2.384" transform="translate(-310.3 -311.198)"/></g><g transform="translate(174.02 105.377)" opacity="0.3"><path d="M348.32,298.757c-2.029-.052-3.555,1.795-4.552,3.563a27.406,27.406,0,0,0-3.277,16.543c.121,1.023.5,2.254,1.517,2.454a1.734,1.734,0,0,0,1.795-1.066,4.924,4.924,0,0,0,.338-2.194,71.767,71.767,0,0,1,.26-10.4c.5-3.425,1.795-6.893,4.335-9.242" transform="translate(-340.303 -298.41)"/></g><path d="M243.78,306.027h.208l.6-.043,2.35-.121,8.878-.408,31.447-1.335h.208v.2c.26,10.578.564,22.751.867,35.635v1.517h-.147a307.823,307.823,0,0,0-38.721,2.9H249.3l-.043-.165a138.446,138.446,0,0,1-4.621-27.884c-.208-3.416-.243-6.069-.243-7.925v-2.8a.739.739,0,0,1,0,.182v2.618c0,1.829.113,4.509.347,7.907a142.322,142.322,0,0,0,4.769,27.806l-.217-.147a301.3,301.3,0,0,1,38.895-2.974l-.225.234v-1.292c-.3-12.884-.581-25.057-.867-35.635l.208.2-31.456,1.17-8.887.295-2.35.069h-.806Z" transform="translate(-153.448 -193.793)" fill="#fff"/><path d="M256.324,332.6c-.121,0-1.205-5.835-2.419-13.083s-2.1-13.135-1.977-13.161,1.205,5.835,2.419,13.092S256.411,332.588,256.324,332.6Z" transform="translate(-154.53 -194.09)" fill="#fff"/><path d="M258.233,348.069a26.08,26.08,0,0,1-.962-4.725,26.459,26.459,0,0,1-.52-4.8,26.078,26.078,0,0,1,.962,4.734,24.615,24.615,0,0,1,.52,4.795Z" transform="translate(-155.173 -198.37)" fill="#fff"/><path d="M266.739,326.69a2.66,2.66,0,0,1-.243-.806c-.13-.52-.295-1.292-.477-2.237-.364-1.9-.772-4.535-1.066-7.465s-.408-5.6-.434-7.526v-2.289a3.718,3.718,0,0,1,.078-.867,23.907,23.907,0,0,1,.217,3.113c.1,1.925.269,4.578.564,7.5s.65,5.549.928,7.456a26.364,26.364,0,0,1,.433,3.121Z" transform="translate(-156.206 -193.976)" fill="#fff"/><path d="M265.707,346.3a43.006,43.006,0,0,1-.98-6.13,41.04,41.04,0,0,1-.538-6.182,43.289,43.289,0,0,1,.98,6.13,41.033,41.033,0,0,1,.538,6.182Z" transform="translate(-156.162 -197.765)" fill="#fff"/><path d="M276.6,341.815a10.356,10.356,0,0,1-.173-1.431l-.338-3.9c-.286-3.286-.711-7.8-1.283-12.841s-1.2-9.537-1.665-12.806c-.225-1.578-.416-2.887-.555-3.876a9.419,9.419,0,0,1-.156-1.431,8.036,8.036,0,0,1,.329,1.4c.182.867.416,2.22.694,3.85.555,3.269,1.223,7.8,1.8,12.806s.945,9.537,1.153,12.875c.1,1.647.165,2.983.191,3.91a7.645,7.645,0,0,1,0,1.439Z" transform="translate(-157.258 -193.98)" fill="#fff"/><path d="M286.6,342.251a8.938,8.938,0,0,1-.069-1.457v-3.971c0-3.347-.121-7.977-.355-13.075s-.6-9.719-.867-13.057c-.139-1.6-.251-2.939-.338-3.945a10.116,10.116,0,0,1-.078-1.457,7.915,7.915,0,0,1,.251,1.431c.139.928.3,2.28.486,3.945.364,3.329.763,7.951,1.014,13.057s.277,9.745.225,13.1c0,1.673-.061,3.035-.1,3.971a9.977,9.977,0,0,1-.165,1.457Z" transform="translate(-158.914 -193.948)" fill="#fff"/><g transform="translate(98.109 124.418)" opacity="0.3"><path d="M253.045,337.225a7.274,7.274,0,0,0,4.569,1.11,14.515,14.515,0,0,0,4.613-1.205,13.933,13.933,0,0,0,5.246-3.468,12.2,12.2,0,0,0,2.6-6.139,36.043,36.043,0,0,0,.225-6.771.442.442,0,0,0-.069-.277.338.338,0,0,0-.486,0,1.084,1.084,0,0,0-.269.477,25.144,25.144,0,0,1-16.725,15.815" transform="translate(-252.75 -320.371)"/></g><path d="M241.2,413.275l-5.3-9.936L223.991,347.58s-10.959-6.295-19.942,7.5c-.355.555,12.346,40.49,15.893,51.6l.494,10.63s-.624,12.581,0,13.682a5.115,5.115,0,0,0,2.2,1.734s-.468,3.147,3.147,3.468c0,0,.312,3.468,2.983,2.991a5.141,5.141,0,0,0,3.624-2.2s0,4.4,2.358,3.928,2.74-2.358,3.173-2.983.936-7.084.936-7.084l-.043-10.647,6.139,4.977c1.734.867,4.378,1.977,5.852.65Z" transform="translate(-148.164 -199.381)" fill="#ffbe9d"/><path d="M244.128,430.92a19.161,19.161,0,0,1,.347,5.74c-.069,1.474-.13,2.818-.191,4.049a6.615,6.615,0,0,1-.156,1.673,26.582,26.582,0,0,1-.1-5.74C244.18,433.486,243.989,430.937,244.128,430.92Z" transform="translate(-153.466 -210.654)" fill="#eb996e"/><path d="M236.335,439.48a61.647,61.647,0,0,1,.139,10.534,61.644,61.644,0,0,1-.139-10.534Z" transform="translate(-152.437 -211.792)" fill="#eb996e"/><path d="M229.708,441.71a14.34,14.34,0,0,1-.7,7.283c-.121,0,.191-1.639.373-3.641A33.3,33.3,0,0,1,229.708,441.71Z" transform="translate(-151.48 -212.088)" fill="#eb996e"/><path d="M225.521,440.29a12.649,12.649,0,0,1-.468,4.743,6.312,6.312,0,0,1,0-2.393A6.6,6.6,0,0,1,225.521,440.29Z" transform="translate(-150.943 -211.9)" fill="#eb996e"/></g><g transform="translate(105.581 49.618)"><path d="M227.422,178.767,219.445,164.7a37.664,37.664,0,1,0-9.026,10.04h0Z" transform="translate(-149.618 -107.236)" fill="#fff"/><path d="M227.408,178.759l-17.037-3.9a.1.1,0,0,1-.087-.13s0,0,0-.043h0l.156.156a38.227,38.227,0,0,1-7.734,4.665,37.7,37.7,0,0,1-10.274,2.957,33.519,33.519,0,0,1-5.948.295c-1.032-.052-2.072-.078-3.121-.165l-3.182-.486a37.941,37.941,0,0,1-23.505-15.086,37.533,37.533,0,0,1-6.355-14.531,38.348,38.348,0,0,1,.442-16.734,37.143,37.143,0,0,1,8.063-15.468l1.535-1.734c.512-.572,1.11-1.04,1.656-1.561a13.592,13.592,0,0,1,1.734-1.483l1.8-1.353a15.912,15.912,0,0,1,1.873-1.24l1.907-1.153,1.994-.971a17.507,17.507,0,0,1,2.02-.867,38.323,38.323,0,0,1,16.855-2.6,37.031,37.031,0,0,1,15.476,4.569A38.149,38.149,0,0,1,223.5,133.908a40.5,40.5,0,0,1,1.639,12.234A37.561,37.561,0,0,1,223.3,156.7a38.235,38.235,0,0,1-3.78,8.1v-.113L227.4,178.8l-8.089-14.055a.113.113,0,0,1,0-.1,38.306,38.306,0,0,0,3.7-8.063A37.152,37.152,0,0,0,224.8,146.09a40.576,40.576,0,0,0-1.656-12.138,37.863,37.863,0,0,0-17.7-21.719,36.684,36.684,0,0,0-15.3-4.5,37.95,37.95,0,0,0-16.664,2.6,17.751,17.751,0,0,0-1.994.867l-1.968.954-1.89,1.144a16.208,16.208,0,0,0-1.847,1.223l-1.786,1.335c-.607.434-1.118.988-1.682,1.474a16.028,16.028,0,0,0-1.63,1.535l-1.517,1.673a36.7,36.7,0,0,0-7.977,15.286,37.976,37.976,0,0,0-.451,16.534A37.213,37.213,0,0,0,157,166.734a37.638,37.638,0,0,0,23.236,14.982l3.147.486c1.04.087,2.072.113,3.087.173a33.152,33.152,0,0,0,5.913-.277,37.386,37.386,0,0,0,10.24-2.879,38.149,38.149,0,0,0,7.708-4.587.113.113,0,0,1,.165,0,.13.13,0,0,1,0,.139h0l-.061-.182Z" transform="translate(-149.604 -107.228)" fill="#263238"/><path d="M179.372,142.455a5.2,5.2,0,0,0-1.873-.486,5.6,5.6,0,0,0-5.159,1.907c4.066,2.358,9.607,5.488,13.569,7.751l5-2.861C187.3,146.781,182.779,144.284,179.372,142.455Z" transform="translate(-152.627 -111.838)" fill="#7300cc"/><g transform="translate(19.713 30.06)" opacity="0.3"><path d="M179.372,142.455a5.2,5.2,0,0,0-1.873-.486,5.6,5.6,0,0,0-5.159,1.907c4.066,2.358,9.607,5.488,13.569,7.751l5-2.861C187.3,146.781,182.779,144.284,179.372,142.455Z" transform="translate(-172.34 -141.898)"/></g><path d="M194.651,156.124l-.182-.156c-1.249-.72-2.6-2.09-3.832-2.064-.477,0-1,.425-2.237,1.118-2.064,1.171-5.54,3.208-7.621,4.335-1.734.98-3.936,1.734-5.956,1.075a8.532,8.532,0,0,1-2.792-1.691l22.612-13.109c-.113-.338-.234-.659-.347-.988a6.477,6.477,0,1,1,5.419,4.335,2.956,2.956,0,0,0-1.509.3c-.867.416-1.665.945-2.7,1.535,1.734.78,2.922,2.029,4.959,1.838a6.113,6.113,0,0,1,6.156,4.491A6.476,6.476,0,1,1,194.3,157C194.4,156.748,194.547,156.453,194.651,156.124Zm5.774-10.4a3.1,3.1,0,0,0,3.13-3.156,3.139,3.139,0,0,0-3.1-3.087,3.191,3.191,0,0,0-3.156,3.173,3.147,3.147,0,0,0,3.13,3.052Zm0,16.543a3.139,3.139,0,0,0,3.165-3.026,3.087,3.087,0,0,0-3.069-3.217,3.156,3.156,0,0,0-3.191,3.009,3.191,3.191,0,0,0,3.061,3.217Z" transform="translate(-152.586 -111.062)" fill="#7300cc"/><path d="M194.588,152.745a2.016,2.016,0,0,0-.685-1.04,1.318,1.318,0,0,0-1.223-.147,1.283,1.283,0,0,0,0,2.384,1.318,1.318,0,0,0,1.223-.147c.642-.46.607-1.066.685-1.049s.069.139,0,.382a1.448,1.448,0,0,1-.52.919,1.621,1.621,0,0,1-1.561.286,1.673,1.673,0,0,1,0-3.165,1.621,1.621,0,0,1,1.561.286,1.431,1.431,0,0,1,.52.91C194.657,152.606,194.614,152.745,194.588,152.745Z" transform="translate(-155.158 -113.059)" fill="#263238"/><path d="M199.593,151.73a4.457,4.457,0,0,1-.46.3l-1.292.78-4.274,2.514-4.335,2.462-1.318.728a3.217,3.217,0,0,1-.494.251,3.659,3.659,0,0,1,.46-.312l1.292-.78,4.274-2.506,4.335-2.462,1.318-.737a3.59,3.59,0,0,1,.494-.243Z" transform="translate(-154.632 -113.145)" fill="#263238"/><path d="M193.78,147.73a1.731,1.731,0,0,1-.208.147l-.624.39-2.306,1.431c-1.942,1.179-4.639,2.792-7.665,4.5l-7.725,4.387-2.384,1.266-.642.347-.225.113s.069-.052.208-.139l.624-.382,2.324-1.361L182.864,154c3.017-1.734,5.722-3.3,7.691-4.448l2.332-1.344.642-.364Z" transform="translate(-152.582 -112.613)" fill="#263238"/></g><g transform="translate(285.356 67.567)"><path d="M361.606,202.18l1.647,3.009,3.009,1.647-3.009,1.647-1.647,3.009-1.647-3.009-3.009-1.647,3.009-1.647Z" transform="translate(-356.95 -137.803)" fill="#7300cc"/><path d="M375,154.486l1.708-.113,1.379-1.023.113,1.717,1.023,1.379-1.717.113-1.379,1.014-.113-1.708Z" transform="translate(-359.35 -131.31)" fill="#7300cc"/><path d="M694.86,312.286l1.708-.113,1.379-1.023.113,1.717,1.023,1.379-1.717.113-1.379,1.014-.113-1.708Z" transform="translate(-401.883 -152.293)" fill="#7300cc"/><path d="M469.55,213.557l1.708-.113,1.387-1.014.113,1.708,1.014,1.379-1.708.113-1.387,1.014-.1-1.708Z" transform="translate(-371.923 -139.166)" fill="#7300cc"/><path d="M481.57,129.057l1.708-.113,1.379-1.014.113,1.708,1.014,1.379-1.708.113-1.379,1.023-.113-1.717Z" transform="translate(-373.521 -127.93)" fill="#7300cc"/><path d="M421.02,181.032l2.6-1.5L425,176.87l1.5,2.6,2.67,1.387-2.6,1.491-1.387,2.67-1.5-2.6Z" transform="translate(-365.47 -134.438)" fill="#7300cc"/><path d="M673.07,351.542l2.6-1.5,1.379-2.662,1.5,2.6,2.662,1.379-2.6,1.5-1.379,2.662-1.5-2.6Z" transform="translate(-398.985 -157.111)" fill="#7300cc"/><path d="M658,296.692l2.6-1.5,1.387-2.662,1.5,2.6,2.662,1.379-2.6,1.5-1.387,2.67-1.491-2.61Z" transform="translate(-396.981 -149.817)" fill="#7300cc"/></g></svg>