<svg xmlns="http://www.w3.org/2000/svg" xmlns:xlink="http://www.w3.org/1999/xlink" width="600.001" height="467.313" viewBox="0 0 600.001 467.313"><defs><clipPath id="a"><path d="M-133.722,987.632a7.4,7.4,0,0,0,.545,5.139c-.239.108-.059,1.089.372,1.3.508.245,4.182.185,4.928-.4a.794.794,0,0,0-.025-.659s.92.349,3.533-.145a13.283,13.283,0,0,0,5.031-1.894c.308-.2.094-.892-.252-.78,0,0-.224-1.814-1.742-1.716a11.412,11.412,0,0,1-6.929-2.026,5.712,5.712,0,0,0-2.067-.9A3.523,3.523,0,0,0-133.722,987.632Z" transform="translate(133.947 -985.549)" fill="#ed0c37"/></clipPath><clipPath id="b"><path d="M-605.83,944.385a7.4,7.4,0,0,0-4.011,3.259c-.221-.142-.945.545-.885,1.02.071.56,2.125,3.607,3.02,3.915a.794.794,0,0,0,.539-.38s.209.961,2.047,2.883a13.281,13.281,0,0,0,4.33,3.185c.331.152.8-.407.516-.636,0,0,1.4-1.177.489-2.4a11.412,11.412,0,0,1-2.079-6.913,5.71,5.71,0,0,0-.374-2.223A3.523,3.523,0,0,0-605.83,944.385Z" transform="translate(610.729 -944.318)" fill="#ed0c37"/></clipPath><clipPath id="c"><path d="M1046.462,962.507a28.263,28.263,0,0,1,2.4,2.311c.341.5,1.665,4.247,1.665,4.247a3.186,3.186,0,0,1-2.069,1.43l-1.668-2.146s-.853,3.752-1.715,4.97c-1.041,1.472-7.01,3.17-7.9,2.724,0,0-1.1-2.187.773-3.386,3.454-2.214,3.538-6.86,3.538-6.86A3.252,3.252,0,0,1,1046.462,962.507Z" transform="translate(-1036.855 -961.987)" fill="#fd6141"/></clipPath><clipPath id="d"><path d="M1114.264,974.887a28.306,28.306,0,0,1,1.423,3.014c.139.591.047,4.561.047,4.561a3.187,3.187,0,0,1-2.442.6l-.8-2.6a10.836,10.836,0,0,1-2.466,3.37c-1.5,1.006-6.826,2.24-7.722,1.8,0,0-1.23-2.378.748-3.392,4.951-2.54,5.389-6.049,5.389-6.049A3.252,3.252,0,0,1,1114.264,974.887Z" transform="translate(-1101.93 -973.557)" fill="#fd6141"/></clipPath><clipPath id="e"><rect width="5.787" height="25.542" transform="translate(0 5.628) rotate(-76.512)" fill="none"/></clipPath></defs><path d="M317.315-24.9c41.931,20.32,75.153,66.444,89.667,119.987s10,114.5-17.74,161.917c-27.416,47.414-78.378,80.959-136.436,107.407s-123.212,45.8-172.239,26.126c-49.349-20-82.894-79.023-110.955-136.759S-81.35,139.925-77.157,83.157C-73.286,26.389-42.322-30.7,3.8-50.376s107.407-1.935,163.853,4.193C223.777-40.055,275.062-45.215,317.315-24.9Z" transform="translate(77.655 59.397)" fill="#00c853"/><g transform="translate(1403.778 956.571)"><g transform="translate(-1348.438 -659.74)"><path d="M-608.5,463.682c-1.858-9.573-19.652-11.167-19.652-11.167s10.4-17.339,3.023-25.19-24.316,10.589-24.316,10.589-5.594-11.653-13.915,0c0,0-13.865-10.588-25.856-5.146-8.564,3.887-7.3,14.155-5.881,19.708H-930.572a5.8,5.8,0,0,0-.758-1.187c-7.953-9.6-31.023-4.658-31.023-4.658s9.635-23.793-6.252-31-34.258,6.818-34.258,6.818c-11.025-15.44-18.437,0-18.437,0s-22.449-24.434-32.219-14.03,4.005,33.377,4.005,33.377-23.577,2.112-26.038,14.8,40.79,25.853,40.79,25.853l395.481.754S-606.638,473.255-608.5,463.682Z" transform="translate(1075.654 -405.836)" fill="#3463aa"/><g transform="translate(25.807 17.595)"><path d="M-860.507,565.436a176.836,176.836,0,0,0-31.71-55.277" transform="translate(897.347 -510.159)" fill="none" stroke="#fff" stroke-linecap="round" stroke-linejoin="round" stroke-width="0.997"/><path d="M-704.251,608.382a344.016,344.016,0,0,1,4.95-47.434" transform="translate(741.083 -552.382)" fill="none" stroke="#fff" stroke-linecap="round" stroke-linejoin="round" stroke-width="0.997"/><path d="M-890.074,724.9a116.186,116.186,0,0,0-32.563-10.517" transform="translate(922.637 -679.943)" fill="none" stroke="#fff" stroke-linecap="round" stroke-linejoin="round" stroke-width="0.997"/><path d="M-791.643,574.44a58.209,58.209,0,0,0,4.192-15.081" transform="translate(813.736 -551.061)" fill="none" stroke="#fff" stroke-linecap="round" stroke-linejoin="round" stroke-width="0.997"/></g><g transform="translate(414.546 30.382)"><path d="M1405.746,630.237a141.579,141.579,0,0,1,25.388-44.255" transform="translate(-1401.79 -585.981)" fill="none" stroke="#fff" stroke-linecap="round" stroke-linejoin="round" stroke-width="0.798"/><path d="M1386.255,664.62a275.434,275.434,0,0,0-3.963-37.976" transform="translate(-1382.292 -619.786)" fill="none" stroke="#fff" stroke-linecap="round" stroke-linejoin="round" stroke-width="0.798"/><path d="M1426.054,757.909a93.022,93.022,0,0,1,26.07-8.42" transform="translate(-1418.673 -721.913)" fill="none" stroke="#fff" stroke-linecap="round" stroke-linejoin="round" stroke-width="0.798"/><path d="M1459.212,637.446a46.609,46.609,0,0,1-3.356-12.074" transform="translate(-1443.449 -618.728)" fill="none" stroke="#fff" stroke-linecap="round" stroke-linejoin="round" stroke-width="0.798"/></g><g transform="translate(20.235 1.641)"><g transform="translate(21.749 6.547)"><path d="M-826.2,454.4a1.351,1.351,0,0,1,.5.251,1.284,1.284,0,0,1,.357.426.442.442,0,0,1-.219.576.428.428,0,0,1-.272.032,1.387,1.387,0,0,1-.49-.25,1.328,1.328,0,0,1-.354-.42.445.445,0,0,1,.208-.579A.423.423,0,0,1-826.2,454.4Z" transform="translate(826.718 -454.387)" fill="#fff"/><g transform="translate(1.598 1.295)"><path d="M-816.706,462.076a1.353,1.353,0,0,1,.488.266,1.342,1.342,0,0,1,.346.435.442.442,0,0,1-.234.57.432.432,0,0,1-.273.025,1.322,1.322,0,0,1-.484-.263,1.33,1.33,0,0,1-.341-.432.44.44,0,0,1,.222-.571A.43.43,0,0,1-816.706,462.076Z" transform="translate(817.241 -462.065)" fill="#fff"/></g><g transform="translate(3.162 2.632)"><path d="M-807.425,470.008a1.307,1.307,0,0,1,.482.276,1.347,1.347,0,0,1,.334.444.44.44,0,0,1-.246.563.433.433,0,0,1-.275.02,1.319,1.319,0,0,1-.477-.275,1.379,1.379,0,0,1-.332-.439.442.442,0,0,1,.237-.566A.431.431,0,0,1-807.425,470.008Z" transform="translate(807.97 -469.995)" fill="#fff"/></g><g transform="translate(5.863 5.092)"><path d="M-791.394,484.6a1.354,1.354,0,0,1,.472.293,1.343,1.343,0,0,1,.316.457.44.44,0,0,1-.267.554.43.43,0,0,1-.275.009,1.319,1.319,0,0,1-.465-.294,1.331,1.331,0,0,1-.316-.45.443.443,0,0,1,.259-.557A.428.428,0,0,1-791.394,484.6Z" transform="translate(791.955 -484.582)" fill="#fff"/></g><g transform="translate(7.748 6.922)"><path d="M-780.226,495.431a.552.552,0,0,1,.311.153.542.542,0,0,1,.154.311.514.514,0,0,1-.456.55.516.516,0,0,1-.1,0,.544.544,0,0,1-.308-.153.545.545,0,0,1-.153-.308.515.515,0,0,1,.45-.553A.529.529,0,0,1-780.226,495.431Z" transform="translate(780.779 -495.429)" fill="#fff"/></g><g transform="translate(9.269 8.51)"><path d="M-771.192,504.847a.552.552,0,0,1,.307.162.548.548,0,0,1,.146.316.514.514,0,0,1-.473.536.523.523,0,0,1-.1,0,.539.539,0,0,1-.3-.16.543.543,0,0,1-.144-.311.515.515,0,0,1,.464-.542A.523.523,0,0,1-771.192,504.847Z" transform="translate(771.758 -504.845)" fill="#fff"/></g></g><g transform="translate(4.094)"><path d="M-931.214,416.757a8.536,8.536,0,0,1,4.548-1.191,13.166,13.166,0,0,1,4.569,1.046,29.009,29.009,0,0,1,4.086,2.151,41.924,41.924,0,0,1,3.734,2.664.387.387,0,0,1,.053.545.385.385,0,0,1-.523.08c-1.229-.871-2.48-1.706-3.762-2.478a28.032,28.032,0,0,0-3.968-2.034,12.222,12.222,0,0,0-4.207-1.023,8.2,8.2,0,0,0-4.127.909.42.42,0,0,1-.527-.161A.358.358,0,0,1-931.214,416.757Z" transform="translate(931.396 -415.566)" fill="#fff"/></g><g transform="translate(2.612 1.762)"><path d="M-938.975,426.615c-.047.166-.168.24-.248.363a.861.861,0,0,1-.368.244.478.478,0,0,1-.573-.29.431.431,0,0,1-.011-.229,1.1,1.1,0,0,1,.249-.44.847.847,0,0,1,.443-.242.448.448,0,0,1,.521.373A.458.458,0,0,1-938.975,426.615Z" transform="translate(940.186 -426.013)" fill="#fff"/></g><g transform="translate(1.576 3.09)"><path d="M-945.18,434.378a.89.89,0,0,1-.15.419,1.308,1.308,0,0,1-.309.323.465.465,0,0,1-.619-.151.455.455,0,0,1-.068-.221.815.815,0,0,1,.142-.476,1.087,1.087,0,0,1,.364-.343.44.44,0,0,1,.594.227A.485.485,0,0,1-945.18,434.378Z" transform="translate(946.328 -433.886)" fill="#fff"/></g><g transform="translate(0.253 4.542)"><path d="M-952.508,442.987c-.063.3-.15.581-.238.864l-.219.867c-.145.58-.267,1.165-.428,1.756a.407.407,0,0,1-.486.269.377.377,0,0,1-.289-.366,8.226,8.226,0,0,1,.23-1.9l.289-.922a8.69,8.69,0,0,1,.423-.875.386.386,0,0,1,.547-.118A.405.405,0,0,1-952.508,442.987Z" transform="translate(954.17 -442.495)" fill="#fff"/></g><g transform="translate(0 9.878)"><path d="M-954.772,474.313a.408.408,0,0,1,.1.276.407.407,0,0,1-.12.268.556.556,0,0,1-.771-.006l-.011-.011a.423.423,0,0,1-.1-.285.427.427,0,0,1,.121-.277.553.553,0,0,1,.768.023Z" transform="translate(955.673 -474.133)" fill="#fff"/></g><g transform="translate(0.025 11.736)"><path d="M-954.643,485.305a.41.41,0,0,1,.12.268.407.407,0,0,1-.1.276.556.556,0,0,1-.769.046l-.012-.01a.42.42,0,0,1-.12-.276.423.423,0,0,1,.1-.284.554.554,0,0,1,.768-.033Z" transform="translate(955.525 -485.155)" fill="#fff"/></g></g><g transform="translate(428.458 21.594)"><g transform="translate(16.247 11.24)"><g transform="translate(4.242)"><path d="M1587.3,600.857a1.55,1.55,0,0,1-.017.6,1.444,1.444,0,0,1-.243.544.426.426,0,0,1-.616.062.446.446,0,0,1-.143-.245,1.579,1.579,0,0,1,.026-.584,1.494,1.494,0,0,1,.23-.537.432.432,0,0,1,.615-.081A.436.436,0,0,1,1587.3,600.857Z" transform="translate(-1586.264 -600.518)" fill="#fff"/></g><g transform="translate(3.69 2.14)"><path d="M1584.066,613.566a1.547,1.547,0,0,1-.044.594,1.472,1.472,0,0,1-.266.532.427.427,0,0,1-.618.036.446.446,0,0,1-.133-.251,1.547,1.547,0,0,1,.051-.583,1.505,1.505,0,0,1,.255-.527.431.431,0,0,1,.618-.052A.439.439,0,0,1,1584.066,613.566Z" transform="translate(-1582.992 -613.208)" fill="#fff"/></g><g transform="translate(3.057 4.257)"><path d="M1580.341,626.132a1.542,1.542,0,0,1-.065.591,1.5,1.5,0,0,1-.283.522.427.427,0,0,1-.619.016.447.447,0,0,1-.125-.255,1.615,1.615,0,0,1,.344-1.1.431.431,0,0,1,.619-.029A.443.443,0,0,1,1580.341,626.132Z" transform="translate(-1579.24 -625.758)" fill="#fff"/></g><g transform="translate(1.779 7.964)"><path d="M1572.8,648.136a1.534,1.534,0,0,1-.1.585,1.477,1.477,0,0,1-.307.508.427.427,0,0,1-.619-.014.446.446,0,0,1-.113-.261,1.552,1.552,0,0,1,.1-.579,1.51,1.51,0,0,1,.3-.5.43.43,0,0,1,.62,0A.439.439,0,0,1,1572.8,648.136Z" transform="translate(-1571.662 -647.741)" fill="#fff"/></g><g transform="translate(0.925 10.616)"><path d="M1567.6,663.82a.618.618,0,0,1-.027.368.606.606,0,0,1-.234.285.492.492,0,0,1-.687-.2.538.538,0,0,1-.038-.094.61.61,0,0,1,.259-.647.492.492,0,0,1,.688.191A.528.528,0,0,1,1567.6,663.82Z" transform="translate(-1566.597 -663.463)" fill="#fff"/></g><g transform="translate(0 12.782)"><path d="M1562.123,676.674a.62.62,0,0,1-.038.367.613.613,0,0,1-.243.279.491.491,0,0,1-.68-.222.545.545,0,0,1-.035-.095.608.608,0,0,1,.277-.638.492.492,0,0,1,.682.21A.554.554,0,0,1,1562.123,676.674Z" transform="translate(-1561.112 -676.303)" fill="#fff"/></g></g><g transform="translate(10.158)"><path d="M1525.212,536.258a17.937,17.937,0,0,1,4.517-2.051,6.51,6.51,0,0,1,5.068.375,4.189,4.189,0,0,1,1.682,2.076,8.943,8.943,0,0,1,.521,2.509,20.012,20.012,0,0,1-.444,4.936.391.391,0,1,1-.77-.136,22.088,22.088,0,0,0,.265-4.733c-.124-1.516-.568-3.111-1.777-3.8a5.567,5.567,0,0,0-4.3-.31,19.349,19.349,0,0,0-4.368,1.808.4.4,0,0,1-.541-.146A.4.4,0,0,1,1525.212,536.258Z" transform="translate(-1525.014 -533.872)" fill="#fff"/></g><g transform="translate(8.443 2.898)"><path d="M1516.141,551.718a1.091,1.091,0,0,1-.35.351,1.154,1.154,0,0,1-.465.173.445.445,0,0,1-.483-.423.468.468,0,0,1,.052-.229,1.06,1.06,0,0,1,.354-.364,1.138,1.138,0,0,1,.479-.172.438.438,0,0,1,.47.435A.478.478,0,0,1,1516.141,551.718Z" transform="translate(-1514.842 -551.054)" fill="#fff"/></g><g transform="translate(6.911 3.931)"><path d="M1507.051,557.823a1.093,1.093,0,0,1-.334.369,1.147,1.147,0,0,1-.458.194.444.444,0,0,1-.5-.4.47.47,0,0,1,.041-.231,1.065,1.065,0,0,1,.337-.379,1.131,1.131,0,0,1,.469-.193.439.439,0,0,1,.491.412A.472.472,0,0,1,1507.051,557.823Z" transform="translate(-1505.757 -557.178)" fill="#fff"/></g><g transform="translate(3.032 4.978)"><path d="M1486.436,564.068c-.469.468-.982.875-1.482,1.3-.519.4-1.023.822-1.582,1.18a.4.4,0,0,1-.555-.109.4.4,0,0,1,.044-.482,13.415,13.415,0,0,1,1.462-1.367,12.945,12.945,0,0,1,1.643-1.146.394.394,0,0,1,.547.147A.409.409,0,0,1,1486.436,564.068Z" transform="translate(-1482.756 -563.389)" fill="#fff"/></g><g transform="translate(1.43 8.67)"><path d="M1474.228,585.854a.46.46,0,0,1-.142.28.466.466,0,0,1-.291.118.53.53,0,0,1-.532-.557v-.016a.457.457,0,0,1,.144-.283.468.468,0,0,1,.294-.119.528.528,0,0,1,.527.559Z" transform="translate(-1473.262 -585.276)" fill="#fff"/></g><g transform="translate(0 10.053)"><path d="M1465.752,594.039a.447.447,0,0,1-.417.411.53.53,0,0,1-.553-.537V593.9a.455.455,0,0,1,.426-.418.528.528,0,0,1,.545.542Z" transform="translate(-1464.782 -593.478)" fill="#fff"/></g></g></g><g transform="translate(-1268.558 -797.781)"><rect width="322.289" height="177.965" rx="3.855" transform="translate(11.272 13.434)" fill="#3463aa"/><rect width="322.289" height="177.965" rx="3.855" transform="translate(5.636 6.717)" fill="#2cc3ff"/><g transform="translate(0 0)"><rect width="322.289" height="177.965" rx="2.124" fill="#fff" stroke="#0074ff" stroke-miterlimit="10" stroke-width="0.974"/><path d="M-519.417-331.174H-498.8v-1.212h-20.612Zm-4.85.606h2.425v-2.425h-2.425Zm4.85,6.062H-498.8v-1.213h-20.612Zm-4.85.606h2.425v-2.425h-2.425Zm4.85,6.063H-498.8v-1.212h-20.612Zm-4.85.606h2.425v-2.425h-2.425Z" transform="translate(537.381 346.427)" fill="#0074ff" fill-rule="evenodd"/><rect width="91.533" height="88.734" rx="15.112" transform="translate(13.114 39.926)" fill="#fff" stroke="#0074ff" stroke-miterlimit="10" stroke-width="0.974"/><rect width="91.534" height="88.734" rx="15.112" transform="translate(115.931 39.926)" fill="#fff" stroke="#0074ff" stroke-miterlimit="10" stroke-width="0.974"/><rect width="91.533" height="88.734" rx="15.112" transform="translate(218.747 39.926)" fill="#fff" stroke="#0074ff" stroke-miterlimit="10" stroke-width="0.974"/><g transform="translate(283.021 10.479)"><g transform="translate(0)"><path d="M1080.935-338.484l-1.538-10.25a.572.572,0,0,0-.566-.49l-2.756-.017.008-1.272,2.757.018a1.839,1.839,0,0,1,1.815,1.574l.171,1.14,17.386.11-1.786,8.084Zm.082-8.025,1,6.673,13.37-.954,1.241-5.62Z" transform="translate(-1076.075 350.514)" fill="#0074ff"/><g transform="translate(4.465 11.252)"><path d="M1118.67-280.611l-15.025-.087a1.1,1.1,0,0,1-.836-.39,1.1,1.1,0,0,1-.246-.889l.3-1.823,1.255.2-.264,1.628,14.828.086Z" transform="translate(-1102.548 283.801)" fill="#0074ff"/></g><path d="M1114.878-258.487a1.715,1.715,0,0,1-1.726,1.7,1.715,1.715,0,0,1-1.7-1.726,1.715,1.715,0,0,1,1.726-1.7A1.715,1.715,0,0,1,1114.878-258.487Z" transform="translate(-1105.482 275.443)" fill="none" stroke="#0074ff" stroke-miterlimit="10" stroke-width="1.265"/><path d="M1168.245-258.151a1.715,1.715,0,0,1-1.726,1.7,1.715,1.715,0,0,1-1.7-1.726,1.715,1.715,0,0,1,1.726-1.7A1.715,1.715,0,0,1,1168.245-258.151Z" transform="translate(-1149.848 275.164)" fill="none" stroke="#0074ff" stroke-miterlimit="10" stroke-width="1.265"/></g></g><line x2="91.974" transform="translate(115.49 134.799)" fill="#fff" stroke="#764582" stroke-linecap="round" stroke-linejoin="round" stroke-width="1.024"/></g><g transform="translate(130.17 66.386)"><path d="M236.879,146.683c0,1.255-15.02,2.273-33.548,2.273s-33.548-1.018-33.548-2.273,15.02-2.273,33.548-2.273S236.879,145.428,236.879,146.683Z" transform="translate(-169.784 -116.846)" fill="#a1abad" opacity="0.7" style="mix-blend-mode:multiply;isolation:isolate"/><g transform="translate(0.775 0)"><path d="M210.357,14.253s.671-1.7,6.545.532c3.186,1.209,7.338,4.129,15.418.606,0,0,2.461,8.17-7.836,7.455A17.136,17.136,0,0,1,210.357,14.253Z" transform="translate(-204.29 -8.127)" fill="#0074ff"/><path d="M237.721,90.883l2.384.628c1.354.719,1.283,4.324.166,5.438,0,0-9.632,5.631-37.834,6.108-16.223-.313-27.065-3.086-27.566-4.188a14.537,14.537,0,0,1-.447-5.308L177.482,90Z" transform="translate(-174.381 -71.61)" fill="#e2e2e2"/><path d="M188.467-12.9s-3.178,3.05-3.555,5.562c-.542,3.61-1.152,5.4-.762,9.046,0,0,9.147,3.566,24.386,3.743a157.13,157.13,0,0,0,26.208-1.775c6.719-1.2,13.379-2.8,13.379-2.8-1.94-6.793-7.81-4.271-16.175-6.919-5.69-1.8-19.238-12.983-19.238-12.983s-3.14,2.33-3.31,3.528c-.107.756,1.387,2.722,1.387,2.722S210.411-6.355,204-5.929C197.763-5.514,188.467-12.9,188.467-12.9Z" transform="translate(-182.399 19.026)" fill="#3463aa"/><path d="M240.317,98.976a36.732,36.732,0,0,1-12.443,4.858c-7.547,1.463-19.876,1.951-27.558,1.659-8.492-.323-25.68-4.468-25.68-4.468" transform="translate(-174.593 -79.074)" fill="none"/><path d="M342.7,18.031a21.34,21.34,0,0,1,4.4.413c2.707.947,10.542,7.2,16.412,7.941" transform="translate(-314.31 -11.781)" fill="none" stroke="#efe9da" stroke-linecap="round" stroke-miterlimit="10" stroke-width="1.157"/><path d="M379.311,9l-2.617,4.227c-.359.5-1.926-.628-1.568-1.127l2.424-4.461C378.074,6.967,379.834,8.328,379.311,9Z" transform="translate(-341.226 -2.993)" fill="#e2e2e2"/><path d="M400.335,22.331l-2.751,4.483c-.335.753-2.094-.029-1.759-.782l2.75-5.061C399.1,20.294,400.858,21.655,400.335,22.331Z" transform="translate(-358.442 -14.072)" fill="#e2e2e2"/><path d="M422.952,35.658l-2.784,4.5c-.3.636-2.022-.168-1.726-.8l2.75-5.061C421.715,33.621,423.475,34.981,422.952,35.658Z" transform="translate(-377.252 -25.151)" fill="#e2e2e2"/><path d="M353.048,26.1a1,1,0,0,1,2,.082l-.792,7.509c0,1.084-1.138,1.084-1.139,0Z" transform="translate(-322.915 -17.749)" fill="#e2e2e2"/><path d="M311.883,77.5a8.271,8.271,0,0,1,4.13-4.865c3.6-1.7,12.159,1.511,16.893-1.117a50.045,50.045,0,0,0,4.983-3.958" transform="translate(-288.693 -52.96)" fill="none" stroke="#efe9da" stroke-linecap="round" stroke-miterlimit="10" stroke-width="1.157"/><path d="M194.214,38.538s5.076,2.275,7.437,5.274c1.064,1.351,2.546,8.615,2.546,8.615" transform="translate(-190.869 -28.83)" fill="none" stroke="#efe9da" stroke-linecap="round" stroke-miterlimit="10" stroke-width="1.157"/></g></g><g transform="translate(24.76 66.386)"><path d="M-388.124,146.683c0,1.255-15.02,2.273-33.548,2.273s-33.548-1.018-33.548-2.273,15.02-2.273,33.548-2.273S-388.124,145.428-388.124,146.683Z" transform="translate(455.219 -116.846)" fill="#a1abad" opacity="0.7" style="mix-blend-mode:multiply;isolation:isolate"/><g transform="translate(0.775 0)"><path d="M-414.646,14.253s.671-1.7,6.545.532c3.186,1.209,7.338,4.129,15.418.606,0,0,2.461,8.17-7.836,7.455A17.136,17.136,0,0,1-414.646,14.253Z" transform="translate(420.714 -8.127)" fill="#9f33dd"/><path d="M-387.283,90.883l2.384.628c1.354.719,1.283,4.324.166,5.438,0,0-9.632,5.631-37.834,6.108-16.223-.313-27.065-3.086-27.566-4.188a14.533,14.533,0,0,1-.447-5.308L-447.521,90Z" transform="translate(450.622 -71.61)" fill="#e2e2e2"/><path d="M-436.536-12.9s-3.179,3.05-3.555,5.562c-.542,3.61-1.152,5.4-.762,9.046,0,0,9.147,3.566,24.386,3.743a157.131,157.131,0,0,0,26.208-1.775c6.719-1.2,13.379-2.8,13.379-2.8-1.94-6.793-7.81-4.271-16.175-6.919-5.69-1.8-19.238-12.983-19.238-12.983s-3.14,2.33-3.31,3.528c-.107.756,1.387,2.722,1.387,2.722s-.376,6.421-6.784,6.847C-427.24-5.514-436.536-12.9-436.536-12.9Z" transform="translate(442.604 19.026)" fill="#5813ba"/><path d="M-384.686,98.976a36.73,36.73,0,0,1-12.443,4.858c-7.547,1.463-19.875,1.951-27.558,1.659-8.492-.323-25.68-4.468-25.68-4.468" transform="translate(450.41 -79.074)" fill="none"/><path d="M-282.3,18.031a21.34,21.34,0,0,1,4.4.413c2.707.947,10.542,7.2,16.411,7.941" transform="translate(310.693 -11.781)" fill="none" stroke="#efe9da" stroke-miterlimit="10" stroke-width="1.157"/><path d="M-245.692,9l-2.617,4.227c-.359.5-1.926-.628-1.567-1.127l2.424-4.461C-246.929,6.967-245.169,8.328-245.692,9Z" transform="translate(283.777 -2.993)" fill="#e2e2e2"/><path d="M-224.668,22.331l-2.751,4.483c-.335.753-2.094-.029-1.759-.782l2.75-5.061C-225.906,20.294-224.146,21.655-224.668,22.331Z" transform="translate(266.561 -14.072)" fill="#e2e2e2"/><path d="M-202.051,35.658l-2.784,4.5c-.3.636-2.023-.168-1.726-.8l2.75-5.061C-203.288,33.621-201.528,34.981-202.051,35.658Z" transform="translate(247.752 -25.151)" fill="#e2e2e2"/><path d="M-271.955,26.1a1,1,0,0,1,2,.082l-.792,7.509c0,1.084-1.138,1.084-1.138,0Z" transform="translate(302.088 -17.749)" fill="#e2e2e2"/><path d="M-313.12,77.5a8.271,8.271,0,0,1,4.13-4.865c3.6-1.7,12.159,1.511,16.893-1.117a50.022,50.022,0,0,0,4.983-3.958" transform="translate(336.31 -52.96)" fill="none" stroke="#efe9da" stroke-miterlimit="10" stroke-width="1.157"/><path d="M-430.789,38.538s5.076,2.275,7.437,5.274c1.064,1.351,2.546,8.615,2.546,8.615" transform="translate(434.134 -28.83)" fill="none" stroke="#efe9da" stroke-miterlimit="10" stroke-width="1.157"/></g></g><g transform="translate(230.759 66.386)"><path d="M833.3,146.683c0,1.255-15.02,2.273-33.547,2.273s-33.548-1.018-33.548-2.273,15.02-2.273,33.548-2.273S833.3,145.428,833.3,146.683Z" transform="translate(-766.204 -116.846)" fill="#a1abad" opacity="0.7" style="mix-blend-mode:multiply;isolation:isolate"/><g transform="translate(0.775 0)"><path d="M806.778,14.253s.671-1.7,6.545.532c3.186,1.209,7.338,4.129,15.418.606,0,0,2.462,8.17-7.835,7.455A17.135,17.135,0,0,1,806.778,14.253Z" transform="translate(-800.71 -8.127)" fill="#2cc3ff"/><path d="M834.141,90.883l2.384.628c1.354.719,1.283,4.324.166,5.438,0,0-9.631,5.631-37.834,6.108-16.223-.313-27.065-3.086-27.566-4.188a14.535,14.535,0,0,1-.447-5.308L773.9,90Z" transform="translate(-770.802 -71.61)" fill="#e2e2e2"/><path d="M784.888-12.9s-3.179,3.05-3.555,5.562c-.542,3.61-1.151,5.4-.762,9.046,0,0,9.147,3.566,24.386,3.743a157.133,157.133,0,0,0,26.208-1.775c6.719-1.2,13.379-2.8,13.379-2.8-1.94-6.793-7.81-4.271-16.175-6.919-5.69-1.8-19.238-12.983-19.238-12.983s-3.14,2.33-3.31,3.528c-.108.756,1.387,2.722,1.387,2.722s-.376,6.421-6.784,6.847C794.183-5.514,784.888-12.9,784.888-12.9Z" transform="translate(-778.82 19.026)" fill="#0074ff"/><path d="M836.738,98.976a36.73,36.73,0,0,1-12.443,4.858c-7.547,1.463-19.876,1.951-27.558,1.659-8.492-.323-25.68-4.468-25.68-4.468" transform="translate(-771.014 -79.074)" fill="none"/><path d="M939.118,18.031a21.341,21.341,0,0,1,4.4.413c2.707.947,10.542,7.2,16.412,7.941" transform="translate(-910.73 -11.781)" fill="none" stroke="#efe9da" stroke-miterlimit="10" stroke-width="1.157"/><path d="M975.731,9l-2.617,4.227c-.359.5-1.926-.628-1.568-1.127l2.424-4.461C974.494,6.967,976.254,8.328,975.731,9Z" transform="translate(-937.646 -2.993)" fill="#e2e2e2"/><path d="M996.755,22.331,994,26.814c-.335.753-2.094-.029-1.759-.782l2.75-5.061C995.518,20.294,997.278,21.655,996.755,22.331Z" transform="translate(-954.862 -14.072)" fill="#e2e2e2"/><path d="M1019.373,35.658l-2.785,4.5c-.3.636-2.022-.168-1.726-.8l2.75-5.061C1018.135,33.621,1019.9,34.981,1019.373,35.658Z" transform="translate(-973.672 -25.151)" fill="#e2e2e2"/><path d="M949.469,26.1a1,1,0,0,1,2,.082l-.792,7.509c0,1.084-1.138,1.084-1.139,0Z" transform="translate(-919.336 -17.749)" fill="#e2e2e2"/><path d="M908.3,77.5a8.271,8.271,0,0,1,4.13-4.865c3.6-1.7,12.159,1.511,16.893-1.117a50.042,50.042,0,0,0,4.983-3.958" transform="translate(-885.113 -52.96)" fill="none" stroke="#efe9da" stroke-miterlimit="10" stroke-width="1.157"/><path d="M790.634,38.538s5.076,2.275,7.437,5.274c1.063,1.351,2.546,8.615,2.546,8.615" transform="translate(-787.289 -28.83)" fill="none" stroke="#efe9da" stroke-miterlimit="10" stroke-width="1.157"/></g></g><g transform="translate(122.069 49.723)"><path d="M125.521-82.755v.1c0,.521-.129.744-.428.744h-2.911c-.3,0-.428-.223-.428-.744v-.1c0-.521.129-.744.428-.744h2.911C125.393-83.5,125.521-83.276,125.521-82.755Z" transform="translate(-121.754 89.289)" fill="#0074ff"/><path d="M163.031-115.327c0,2.069-1.142,2.5-2.141,2.5s-2.141-.432-2.141-2.5,1.142-2.5,2.141-2.5S163.031-117.4,163.031-115.327Zm-2.826,0c0,.581.128,1.28.685,1.28s.671-.7.671-1.28-.115-1.221-.671-1.221S160.205-115.907,160.205-115.327Zm6.807-2.2a.607.607,0,0,1-.071.208l-5.095,9.644a.669.669,0,0,1-.628.416h-.627c-.2,0-.3-.089-.3-.193a.573.573,0,0,1,.071-.223l5.095-9.644a.669.669,0,0,1,.628-.417h.628C166.913-117.738,167.012-117.648,167.012-117.529Zm1.542,7.858c0,2.069-1.142,2.5-2.141,2.5s-2.141-.432-2.141-2.5,1.142-2.5,2.141-2.5S168.554-111.74,168.554-109.671Zm-2.826,0c0,.58.128,1.28.685,1.28s.671-.7.671-1.28-.115-1.22-.671-1.22S165.728-110.252,165.728-109.671Z" transform="translate(-152.51 117.827)" fill="#0074ff"/></g><g transform="translate(132.626 104.504)"><g transform="translate(48.405)"><path d="M477.193,207.377v.982c1.4.024,3.877.589,3.877,1.4,0,.368-.54,1.3-.785,1.3a8.273,8.273,0,0,0-3.092-.932v5.717c2.184.785,4.687,1.669,4.687,5.055,0,2.8-1.816,4.564-4.687,4.81v1.227c0,.27-.147.393-.491.393s-.491-.123-.491-.393v-1.2c-2.773-.074-4.859-1.129-4.859-1.791,0-.393.589-1.325.859-1.325a8.835,8.835,0,0,0,4,1.35v-6.331c-2.16-.835-4.54-1.693-4.54-4.859,0-2.4,1.767-4.073,4.54-4.368v-1.031c0-.27.147-.392.491-.392S477.193,207.108,477.193,207.377Zm-3.288,5.5c0,1.4,1.006,2.061,2.307,2.6V210.2A2.536,2.536,0,0,0,473.9,212.874Zm3.288,11.018a2.915,2.915,0,0,0,2.454-2.994c0-1.546-1.1-2.282-2.454-2.871Z" transform="translate(-471.353 -206.985)" fill="#0074ff"/></g><rect width="47.151" height="8.498" rx="3.934" transform="translate(0 11.042)" fill="#0074ff"/></g></g><g transform="translate(-1403.778 -593.847)"><path d="M-806.127,1033.36h-595.3a2.345,2.345,0,0,1-1.463-4.177l89.155-71.217a11.023,11.023,0,0,1,6.869-2.368h406.18a11.023,11.023,0,0,1,6.87,2.368l89.155,71.217A2.345,2.345,0,0,1-806.127,1033.36Z" transform="translate(1403.778 -928.771)" fill="#764582" opacity="0.2"/><g transform="translate(4.63)"><path d="M-785.584,872h-590.74l91.6-73.171a10.7,10.7,0,0,1,6.667-2.3h394.2a10.7,10.7,0,0,1,6.667,2.3Z" transform="translate(1376.324 -796.533)" fill="#2cc3ff"/><path d="M-555.492,897.713h-473.623l66.681-62.382h340.261Z" transform="translate(1087.673 -828.788)" fill="#3463aa"/><path d="M-532.669,910.912H-994.675l65.046-59.7h331.915Z" transform="translate(1059.042 -841.987)" fill="#fff"/><path d="M0,0H590.74a0,0,0,0,1,0,0V5.314a14.316,14.316,0,0,1-14.316,14.316H14.316A14.316,14.316,0,0,1,0,5.314V0A0,0,0,0,1,0,0Z" transform="translate(0 75.469)" fill="#3463aa"/><line x2="590.74" transform="translate(0 83.103)" fill="none" stroke="#fff" stroke-miterlimit="10" stroke-width="0.973"/><rect width="90.415" height="10.32" rx="4.777" transform="translate(112.901 78.522)" fill="#0074ff"/><rect width="90.415" height="9.161" rx="4.24" transform="translate(112.901 79.682)" fill="#2cc3ff"/><g transform="translate(488.478 15.641)"><path d="M1519.984,891.637l33.572,29.684h17.975v-2.363l-51.547-29.684Z" transform="translate(-1519.984 -889.274)" fill="#9d68aa"/><path d="M1519.984,889.274l33.572,29.684h17.975l-37.312-29.684Z" transform="translate(-1519.984 -889.274)" fill="#fdeeff"/></g><ellipse cx="14.124" cy="6.148" rx="14.124" ry="6.148" transform="translate(64.367 23.663)" fill="#fff"/><path d="M-949.795,951.612c0,2.126-4.428,3.849-9.891,3.849s-9.891-1.723-9.891-3.849,4.428-3.849,9.891-3.849S-949.795,949.487-949.795,951.612Z" transform="translate(1038.177 -922.257)" fill="#3463aa"/><path d="M-937.594,958.883c0,.733-1.527,1.327-3.41,1.327s-3.41-.594-3.41-1.327,1.527-1.327,3.41-1.327S-937.594,958.15-937.594,958.883Z" transform="translate(1017.257 -930.399)" fill="#fff"/></g></g><g transform="translate(-1331.635 -847.249)"><g transform="translate(0)"><g transform="translate(0 5.001)"><rect width="352.323" height="28.909" rx="13.382" transform="translate(67.39 0)" fill="#2cc3ff"/><circle cx="14.455" cy="14.455" r="14.455" transform="translate(0 0)" fill="#2cc3ff"/><circle cx="14.455" cy="14.455" r="14.455" transform="translate(33.695)" fill="#2cc3ff"/></g><rect width="352.323" height="28.909" rx="13.382" transform="translate(67.39 0)" fill="#fff" stroke="#3463aa" stroke-miterlimit="10" stroke-width="0.974"/><circle cx="14.455" cy="14.455" r="14.455" transform="translate(0 0)" fill="#fff" stroke="#3463aa" stroke-miterlimit="10" stroke-width="0.974"/><circle cx="14.455" cy="14.455" r="14.455" transform="translate(33.695)" fill="#fff" stroke="#3463aa" stroke-miterlimit="10" stroke-width="0.974"/></g><path d="M-924.8-672.476l-9.148,9.06,9.148,9.235,1.742-1.742-7.405-7.492,7.405-7.318Z" transform="translate(941.048 678.121)" fill="#3463aa"/><path d="M-706.889-654.181l9.148-9.06-9.148-9.235-1.742,1.742,7.405,7.492-7.405,7.318Z" transform="translate(753.729 678.121)" fill="#3463aa"/><path d="M-497.809-656.97l-5.829-5.761a7.423,7.423,0,0,0,1.249-4.135,7.644,7.644,0,0,0-7.621-7.541,7.7,7.7,0,0,0-5.368,2.184,7.449,7.449,0,0,0-2.207,5.309,7.645,7.645,0,0,0,7.622,7.541h.031a7.631,7.631,0,0,0,4.177-1.255l5.826,5.759Zm-6.849-9.9a5.209,5.209,0,0,1-1.543,3.71,5.354,5.354,0,0,1-3.741,1.531h-.022a5.364,5.364,0,0,1-5.352-5.287,5.209,5.209,0,0,1,1.543-3.71,5.325,5.325,0,0,1,3.762-1.531A5.364,5.364,0,0,1-504.658-666.867Z" transform="translate(594.903 679.727)" fill="#3463aa"/><path d="M1351.182-670.751l-3.278,3.3a1,1,0,0,0,0,1.413.99.99,0,0,0,1.4,0l3.278-3.3,3.278,3.3a.99.99,0,0,0,1.4,0,1,1,0,0,0,0-1.413l-3.278-3.3,3.278-3.3a1,1,0,0,0,0-1.412.989.989,0,0,0-1.4,0l-3.278,3.3-3.278-3.3a.989.989,0,0,0-1.4,0,1,1,0,0,0,0,1.412Zm1.4,10.653a10.625,10.625,0,0,1-10.6-10.653,10.625,10.625,0,0,1,10.6-10.653,10.624,10.624,0,0,1,10.6,10.653A10.624,10.624,0,0,1,1352.587-660.1Z" transform="translate(-951.045 685.544)" fill="#3463aa" fill-rule="evenodd"/></g><g transform="translate(-1324.119 -773.708)"><path d="M-922.818-252.63a8.641,8.641,0,0,1-8.641-8.641,8.641,8.641,0,0,1,8.641-8.641,8.641,8.641,0,0,1,8.641,8.641A8.641,8.641,0,0,1-922.818-252.63Z" transform="translate(931.459 269.911)" fill="#fff"/></g><path d="M721.181,290.466" transform="translate(-1766.573 -969.664)" fill="#ffb072"/><g transform="translate(-1273.09 -740.906)"><g transform="translate(80.758 79.626)"><g transform="translate(0 0)"><path d="M8.71,957.329.774,971.072c-1.611,2.79.587,6.155,4.021,6.155H82.817c3.1,0,5.3-2.795,4.322-5.505l-4.944-13.744a4.536,4.536,0,0,0-4.322-2.873H12.731A4.621,4.621,0,0,0,8.71,957.329Z" transform="translate(25.114 -860.929)" fill="#764582" opacity="0.2"/><g transform="translate(0 0.131)"><g transform="translate(35.938 84.866)"><path d="M76.881,911.48a6.93,6.93,0,1,1-6.93-6.93A6.93,6.93,0,0,1,76.881,911.48Z" transform="translate(-63.02 -903.897)" fill="#3463aa"/><circle cx="4.167" cy="4.167" r="4.167" transform="translate(2.763 3.417)" fill="#001028"/><path d="M87.114,907.5l2.376-6.268a.865.865,0,0,1,.808-.558h8.265a.864.864,0,0,1,.634,1.452l-7.442,8.032a2.335,2.335,0,0,1-2.439.633l-.744-.243A2.335,2.335,0,0,1,87.114,907.5Z" transform="translate(-82.924 -900.676)" fill="#ffdcae"/><circle cx="1.596" cy="1.596" r="1.596" transform="translate(5.334 5.988)" fill="#0074ff"/></g><g transform="translate(87.296 84.866)"><path d="M383.221,911.48a6.93,6.93,0,1,0,6.93-6.93A6.93,6.93,0,0,0,383.221,911.48Z" transform="translate(-380.576 -903.897)" fill="#3463aa"/><path d="M399.6,925.1a4.167,4.167,0,1,0,4.167-4.167A4.167,4.167,0,0,0,399.6,925.1Z" transform="translate(-394.196 -917.517)" fill="#001028"/><path d="M379.852,907.5l-2.376-6.268a.865.865,0,0,0-.808-.558H368.4a.864.864,0,0,0-.634,1.452l7.442,8.032a2.335,2.335,0,0,0,2.439.633l.744-.243A2.336,2.336,0,0,0,379.852,907.5Z" transform="translate(-367.536 -900.676)" fill="#ffdcae"/><circle cx="1.596" cy="1.596" r="1.596" transform="translate(7.98 5.988)" fill="#0074ff"/></g><path d="M-125.321,425.547a1.026,1.026,0,0,1-.944-.62c-2.349-5.437-6.262-14.3-6.964-15.408-1.05-.763-8.959-3.581-16.124-5.9a1.027,1.027,0,0,1-.71-.977,1.027,1.027,0,0,1,.71-.977l12.73-4.125a1.046,1.046,0,0,1,.588-.014c1.217.332,11.963,3.308,14.274,5.457,1.836,1.706,7.251,13,8.318,15.245a1.026,1.026,0,0,1-.487,1.368,1.026,1.026,0,0,1-1.368-.487c-2.4-5.063-6.665-13.51-7.861-14.621-1.43-1.33-8.678-3.67-13.123-4.9l-9.441,3.059c6.575,2.182,13.374,4.62,14.1,5.592.853,1.136,6.181,13.426,7.241,15.877a1.027,1.027,0,0,1-.535,1.35A1.021,1.021,0,0,1-125.321,425.547Z" transform="translate(150.063 -397.486)" fill="#ffb84d"/><path d="M-19.866,497.566l11.589-7.2,89.367,4.373,2.05,5.6Z" transform="translate(41.824 -474.704)" fill="#fff" stroke="#ffb84d" stroke-linecap="round" stroke-linejoin="round" stroke-width="1.854"/><path d="M-24.882,534.121l13.524,44.6A3.09,3.09,0,0,0-8.3,580.918L66.5,578.6a3.091,3.091,0,0,0,2.908-2.363l9.558-39.525Z" transform="translate(45.994 -511.077)" fill="#ffb84d"/><path d="M84.71,555.242c4.833,10.058,15.526,12.085,25.707,11.58,21.855-1.083,40.952-9.617,53.751-27.748L84.59,537.085c-1.175-.016-1.754,7.618-1.812,8.608A19.486,19.486,0,0,0,84.71,555.242Z" transform="translate(-43.482 -513.541)" fill="#ffe0b2"/><path d="M97.323,822.25a29.1,29.1,0,0,0-4.157-9.159c-.707-.959-1.866-2.061-4.582-2.061H26.638c-.976,0-2.722-.161-3.462-1.244-.694-1.017-.3-2.621.158-3.788a70.634,70.634,0,0,1,3.472-7.671l-2.42.2a55.951,55.951,0,0,0-2.965,6.722c-.923,2.368-.9,4.283.059,5.693s2.74,2.14,5.158,2.14h3.318v1.39a1.561,1.561,0,0,0,1.561,1.561H32.7a1.561,1.561,0,0,0,1.561-1.561v-1.39H75.224v1.39a1.561,1.561,0,0,0,1.561,1.561h1.186a1.561,1.561,0,0,0,1.561-1.561v-1.39h9.052c1.869,0,2.491.632,2.927,1.224a27.235,27.235,0,0,1,3.82,8.439,1.909,1.909,0,0,1-.148,1.646,3.439,3.439,0,0,1-2.4.832c-14.354.322-45.311.145-61.942.05-4.944-.029-8.689-.05-10.473-.05-2.522,0-4.4-.722-5.285-2.033-.853-1.263-.829-3.115.07-5.358,1.98-4.933,7.8-19.628,7.8-19.628l-1.909-.756s-5.818,14.689-7.8,19.621c-1.472,3.669-.74,5.98.134,7.272,1.281,1.893,3.761,2.936,6.986,2.936,1.17,0,3.2.009,5.84.023v1.344a1.561,1.561,0,0,0,1.561,1.561h1.186a1.561,1.561,0,0,0,1.561-1.561v-1.008l.306-.311c9.478.055,23.6.135,36.671.135,3.547,0,7.012-.006,10.288-.02v1.2a1.561,1.561,0,0,0,1.561,1.561h1.186a1.561,1.561,0,0,0,1.561-1.561v-1.227c4.1-.029,7.776-.074,10.739-.14a5.174,5.174,0,0,0,3.986-1.641A3.822,3.822,0,0,0,97.323,822.25Z" transform="translate(14.993 -729.995)" fill="#ffb84d"/><g transform="translate(23.072 20.533)"><path d="M85.633,531.987l-9.271,38.236a2.421,2.421,0,0,1-2.273,1.846l-34.932,1.08q4.064-4.389,8.064-8.839c.2-.219.259-.491.137-.617s-.405-.058-.622.166q-4.313,4.454-8.554,8.976l-.005.006a1.175,1.175,0,0,0-.22.347l-30.838.954q4.316-4.657,8.564-9.378c.206-.229.277-.51.155-.636s-.413-.05-.64.185q-4.513,4.669-8.954,9.4l-.006.006a1.237,1.237,0,0,0-.271.455l-2.788.086a2.424,2.424,0,0,1-2.386-1.714l-6.156-20.3q2.386-2.588,4.7-5.239a.33.33,0,0,0-.019-.449.329.329,0,0,0-.465,0q-2.3,2.307-4.528,4.676l-6.612-21.8-.983.3L-.189,572.847A3.448,3.448,0,0,0,3.1,575.29h.107L74.12,573.1a3.452,3.452,0,0,0,3.24-2.631l9.271-38.235Z" transform="translate(13.265 -527.714)" fill="#fff"/><path d="M63.469,619.067a4.4,4.4,0,0,0,1.29-1.383.378.378,0,0,0-.532-.5,4.407,4.407,0,0,0-1.29,1.383.378.378,0,0,0,.532.5Z" transform="translate(-50.05 -600.621)" fill="#fff"/><path d="M74.98,612.182a.374.374,0,0,0,.351-.376v-.01a.515.515,0,0,0-.531-.486.374.374,0,0,0-.351.377s0,.009,0,.013A.513.513,0,0,0,74.98,612.182Z" transform="translate(-59.655 -595.78)" fill="#fff"/><path d="M125.5,526.448q3.129-3.183,6.185-6.435l0,0a.466.466,0,0,0-.684-.633q-3.03,3.276-5.987,6.619a.332.332,0,0,0,.485.452Z" transform="translate(-101.628 -519.231)" fill="#fff"/><path d="M119.287,564.839a.374.374,0,0,0,.351-.376s0-.009,0-.013a.513.513,0,0,0-.531-.483.374.374,0,0,0-.351.376s0,.008,0,.01A.515.515,0,0,0,119.287,564.839Z" transform="translate(-96.489 -556.422)" fill="#fff"/><path d="M112.556,572.057a.385.385,0,0,0,.251-.118.39.39,0,0,0,.1-.258v-.013a.514.514,0,0,0-.531-.483.374.374,0,0,0-.351.377s0,.007,0,.01A.515.515,0,0,0,112.556,572.057Z" transform="translate(-90.893 -562.422)" fill="#fff"/><path d="M105.824,579.276a.374.374,0,0,0,.351-.377v-.013a.513.513,0,0,0-.531-.483.374.374,0,0,0-.351.377v.01A.515.515,0,0,0,105.824,579.276Z" transform="translate(-85.297 -568.424)" fill="#fff"/><path d="M82.391,590.456a21.257,21.257,0,0,0,2.845-3.051.367.367,0,0,0-.532-.5,21.237,21.237,0,0,0-2.845,3.051.367.367,0,0,0,.532.5Z" transform="translate(-65.76 -575.426)" fill="#fff"/><path d="M163.025,714.068c.082.206.378.191.661-.034a14.321,14.321,0,0,0,2.336-2.5.619.619,0,0,0,.129-.529c-.082-.207-.377-.192-.661.033a14.337,14.337,0,0,0-2.336,2.5A.618.618,0,0,0,163.025,714.068Z" transform="translate(-133.275 -678.535)" fill="#fff"/><path d="M184.772,701.777a1.11,1.11,0,0,0,.636-.682l0-.014c.092-.393-.147-.609-.535-.481a1.109,1.109,0,0,0-.636.682l0,.018C184.145,701.691,184.385,701.9,184.772,701.777Z" transform="translate(-150.91 -669.98)" fill="#fff"/><path d="M275.866,546.429q5.6-5.829,11.118-11.726l0,0c.312-.336.412-.75.222-.924s-.6-.043-.908.293q-5.5,5.921-10.921,11.91c-.209.231-.28.514-.156.641S275.641,546.664,275.866,546.429Z" transform="translate(-226.52 -531.257)" fill="#fff"/><path d="M264.927,615.988a1.11,1.11,0,0,0,.636-.682l0-.018c.091-.392-.149-.606-.536-.478a1.083,1.083,0,0,0-.393.271,1.07,1.07,0,0,0-.243.411l0,.014C264.3,615.9,264.539,616.116,264.927,615.988Z" transform="translate(-217.547 -598.66)" fill="#fff"/><path d="M252.739,629.059a1.108,1.108,0,0,0,.636-.682l0-.018c.091-.392-.149-.606-.536-.478a1.111,1.111,0,0,0-.636.682l0,.014C252.111,628.971,252.351,629.187,252.739,629.059Z" transform="translate(-207.414 -609.526)" fill="#fff"/><path d="M240.551,642.13a1.107,1.107,0,0,0,.636-.682l0-.018c.091-.392-.149-.606-.536-.478a1.108,1.108,0,0,0-.636.682l0,.014C239.924,642.042,240.164,642.258,240.551,642.13Z" transform="translate(-197.283 -620.393)" fill="#fff"/><path d="M197.856,662.146c.921-.862,1.783-1.78,2.65-2.692.85-.929,1.7-1.854,2.5-2.832.184-.227.255-.491.155-.635-.118-.168-.425-.106-.686.139-.921.863-1.783,1.78-2.65,2.692-.85.929-1.7,1.853-2.5,2.832-.184.227-.254.491-.155.634C197.287,662.453,197.595,662.391,197.856,662.146Z" transform="translate(-161.641 -632.844)" fill="#fff"/><path d="M350.353,712.4a12.356,12.356,0,0,0,1.19-1.126,12.226,12.226,0,0,0,1.04-1.266.587.587,0,0,0,.114-.513c-.085-.2-.374-.2-.646.018a13.076,13.076,0,0,0-2.23,2.392.586.586,0,0,0-.115.514C349.791,712.617,350.081,712.608,350.353,712.4Z" transform="translate(-288.47 -677.279)" fill="#fff"/><path d="M370.475,700.683a1.016,1.016,0,0,0,.607-.651l0-.014c.082-.382-.158-.6-.535-.482a.982.982,0,0,0-.379.255,1,1,0,0,0-.229.4l0,.018C369.859,700.585,370.1,700.8,370.475,700.683Z" transform="translate(-305.297 -669.101)" fill="#fff"/><path d="M457.473,552.358q5.347-5.562,10.62-11.192l0,0c.3-.321.386-.723.2-.9s-.585-.055-.883.266q-5.248,5.654-10.423,11.376c-.2.221-.262.5-.138.621S457.257,552.582,457.473,552.358Z" transform="translate(-377.51 -536.65)" fill="#fff"/><path d="M447.013,618.773a1.016,1.016,0,0,0,.607-.651l0-.018c.08-.38-.16-.595-.536-.478a1,1,0,0,0-.379.256.983.983,0,0,0-.228.4l0,.014C446.4,618.673,446.636,618.888,447.013,618.773Z" transform="translate(-368.927 -601.005)" fill="#fff"/><path d="M435.376,631.253a.983.983,0,0,0,.379-.256.994.994,0,0,0,.228-.4l0-.018c.08-.38-.159-.595-.535-.478a1,1,0,0,0-.379.256.983.983,0,0,0-.228.4l0,.014C434.76,631.153,435,631.369,435.376,631.253Z" transform="translate(-359.253 -611.38)" fill="#fff"/><path d="M423.738,643.734a1.015,1.015,0,0,0,.607-.651l0-.017c.08-.38-.16-.595-.536-.478a1.016,1.016,0,0,0-.607.651l0,.014C423.122,643.633,423.361,643.849,423.738,643.734Z" transform="translate(-349.578 -621.756)" fill="#fff"/><path d="M382.984,662.856c.882-.821,1.706-1.7,2.534-2.567.811-.887,1.627-1.77,2.384-2.707a.559.559,0,0,0,.137-.616c-.119-.167-.418-.113-.669.12-.882.821-1.706,1.7-2.534,2.567-.811.887-1.627,1.77-2.384,2.707a.56.56,0,0,0-.137.615C382.434,663.143,382.734,663.089,382.984,662.856Z" transform="translate(-315.559 -633.655)" fill="#fff"/></g><path d="M136.186,898.966l3.643-12.892h38.623l2.105,12.892Z" transform="translate(-87.908 -803.671)" fill="#ffe0b2"/><g transform="translate(30.094 99.114)"><circle cx="8.143" cy="8.143" r="8.143" transform="translate(0 0.768)" fill="#3463aa"/><path d="M57.415,1013.855a4.9,4.9,0,1,1-4.9-4.9A4.9,4.9,0,0,1,57.415,1013.855Z" transform="translate(-44.376 -1004.945)" fill="#001028"/><path d="M56.683,993.178l2.792-7.364a1.015,1.015,0,0,1,.95-.656h9.71a1.016,1.016,0,0,1,.745,1.706L62.136,996.3a2.744,2.744,0,0,1-2.866.743l-.874-.286A2.744,2.744,0,0,1,56.683,993.178Z" transform="translate(-51.759 -985.158)" fill="#ffdcae"/><path d="M69.285,1028.746a1.875,1.875,0,1,1-1.875-1.875A1.875,1.875,0,0,1,69.285,1028.746Z" transform="translate(-59.267 -1019.836)" fill="#0074ff"/></g><g transform="translate(89.194 99.114)"><circle cx="8.143" cy="8.143" r="8.143" transform="translate(3.108 0.768)" fill="#3463aa"/><path d="M416.47,1013.855a4.9,4.9,0,1,0,4.9-4.9A4.9,4.9,0,0,0,416.47,1013.855Z" transform="translate(-410.116 -1004.945)" fill="#001028"/><path d="M393.263,993.178l-2.792-7.364a1.015,1.015,0,0,0-.949-.656h-9.711a1.016,1.016,0,0,0-.745,1.706l8.744,9.437a2.744,2.744,0,0,0,2.865.743l.874-.286A2.744,2.744,0,0,0,393.263,993.178Z" transform="translate(-378.793 -985.158)" fill="#ffdcae"/><path d="M434.383,1028.746a1.875,1.875,0,1,0,1.875-1.875A1.875,1.875,0,0,0,434.383,1028.746Z" transform="translate(-425.008 -1019.836)" fill="#0074ff"/></g></g><g transform="translate(99.71)"><circle cx="18.425" cy="18.425" r="18.425" transform="matrix(0.228, -0.974, 0.974, 0.228, 0, 35.879)" fill="#3463aa"/><g transform="translate(16.438 11.633)"><path d="M547.728,466.375v16.253h3.089c.606,0,.867.433.867,1.443v.491c0,1.01-.261,1.443-.867,1.443h-11.2c-.606,0-.866-.433-.866-1.443v-.491c0-1.011.26-1.443.866-1.443h3.839V469.666l-3.926.577c-.751,0-.924-1.616-.924-2.425a.791.791,0,0,1,.75-.809l7.188-1.328C547.007,465.682,547.728,466.028,547.728,466.375Z" transform="translate(-538.606 -465.682)" fill="#fff"/></g></g></g><g transform="translate(47.035 4.051)"><path d="M134.752,438.408v14.514l34.274.893V436.922Z" transform="translate(-133.752 -434.191)" fill="#0074ff"/><path d="M337.973,436.922v16.893l16.335.523V439.875Z" transform="translate(-302.698 -434.191)" fill="#3463aa"/><path d="M128.82,422.2l36.072-1.471v4.717l-36.072,1.5Z" transform="translate(-128.82 -420.727)" fill="#ffe0b2"/><path d="M342.7,425.444l16.725,2.865v-4.473L342.7,420.727Z" transform="translate(-306.626 -420.727)" fill="#ffb84d"/></g></g><g transform="translate(0 184.793)"><ellipse cx="49.569" cy="2.852" rx="49.569" ry="2.852" fill="#764582" opacity="0.2"/></g><g transform="translate(3.064 0)"><g transform="translate(43.848 84.534)"><g transform="translate(26.556 62.645)"><path d="M-193.252,804.992c.8,7.968,7.5,19.625,10.1,26.128.766,1.915,4.391.845,3.981-1.177-1.4-6.886-2.354-20.832-2.992-27.945C-182.917,793.624-194.014,797.409-193.252,804.992Z" transform="translate(193.289 -797.25)" fill="#ffb072"/><g transform="translate(10.008 31.758)"><path d="M-133.722,987.632a7.4,7.4,0,0,0,.545,5.139c-.239.108-.059,1.089.372,1.3.508.245,4.182.185,4.928-.4a.794.794,0,0,0-.025-.659s.92.349,3.533-.145a13.283,13.283,0,0,0,5.031-1.894c.308-.2.094-.892-.252-.78,0,0-.224-1.814-1.742-1.716a11.412,11.412,0,0,1-6.929-2.026,5.712,5.712,0,0,0-2.067-.9A3.523,3.523,0,0,0-133.722,987.632Z" transform="translate(133.947 -985.549)" fill="#ed0c37"/><g clip-path="url(#a)"><path d="M-134.381,1010.618a29.272,29.272,0,0,0,5.286-.083s5.956-.1,8.3-2.495a2.79,2.79,0,0,1,4.373.156l-9.748,7.762-6.367-.5-2.844-2.4S-135.614,1010.477-134.381,1010.618Z" transform="translate(135.152 -1003.396)" fill="#ffaec1"/><path d="M-137.217,983.653a2.465,2.465,0,0,0,2.607,1.117c1.753-.372,1.931-1.449,1.534-3.323S-139.059,980.811-137.217,983.653Z" transform="translate(136.975 -981.397)" fill="#ffb072"/></g></g></g><path d="M-350.218,439.18s11.453,20.6,15.236,29.023,8.571,29.214,8.571,29.214,9.417,1.981,14.352-2.437c0,0-1.581-21.94-4.268-31.794s-12.9-34.04-12.9-34.04C-333.328,420.463-354.319,430.5-350.218,439.18Z" transform="translate(350.746 -425.811)" fill="#2b5da5"/><path d="M-292.056,532.926a38.887,38.887,0,0,1,3.235-7.817c2.019-3.533,6.894-6.306,7.429-5.876.92.74-6.354,6.141-7.762,10.042,0,0,8.1-5.89,8.659-5.113C-279.968,524.887-288.871,529.746-292.056,532.926Z" transform="translate(301.954 -503.44)" fill="#0042a3"/></g><g transform="translate(52.279 35.519)"><path d="M-300.5,146.787c1.89,8.709,4.823,20.313,11.286,25.977s20.5,8.809,21.164,8.809c1.563.36,3.237-7.888,2-8.842s-12.277-5.41-14.237-7.3c-3.5-3.379-2.01-23.952-5.976-28.441S-302.7,136.637-300.5,146.787Z" transform="translate(300.756 -135.189)" fill="#dd4026"/><path d="M-119.613,362.78s4.92,4.088,5.212,5.2a5.354,5.354,0,0,1-.228,3.414c-.4.466-3.408,1.971-4.556,1.182a20.109,20.109,0,0,1-2.73-2.586l.542-2.011s-.37,1.378-3.35-.491S-122.444,359.955-119.613,362.78Z" transform="translate(155.149 -323.751)" fill="#f29353"/></g><g transform="translate(0 84.724)"><g transform="translate(0 62.455)"><path d="M-571.734,799.078c-5.934,5.378-11.334,17.69-15.021,23.643-1.086,1.754,1.929,4.034,3.311,2.5,4.71-5.213,15.36-14.269,20.7-19.007C-556.45,800.639-566.087,793.96-571.734,799.078Z" transform="translate(590.99 -797.25)" fill="#ffb072"/><g transform="translate(0 24.804)"><path d="M-605.83,944.385a7.4,7.4,0,0,0-4.011,3.259c-.221-.142-.945.545-.885,1.02.071.56,2.125,3.607,3.02,3.915a.794.794,0,0,0,.539-.38s.209.961,2.047,2.883a13.281,13.281,0,0,0,4.33,3.185c.331.152.8-.407.516-.636,0,0,1.4-1.177.489-2.4a11.412,11.412,0,0,1-2.079-6.913,5.71,5.71,0,0,0-.374-2.223A3.523,3.523,0,0,0-605.83,944.385Z" transform="translate(610.729 -944.318)" fill="#ed0c37"/><g clip-path="url(#b)"><path d="M-620.513,962.112a29.272,29.272,0,0,0,2.951,4.387s3.334,4.936,6.617,5.6a2.79,2.79,0,0,1,2.253,3.751l-11.821-3.941-3.054-5.609.461-3.692S-621.067,961-620.513,962.112Z" transform="translate(621.402 -958.786)" fill="#ffaec1"/><path d="M-585.233,937.307a2.464,2.464,0,0,0,.484,2.795c1.267,1.267,2.267.829,3.622-.526S-583.855,934.214-585.233,937.307Z" transform="translate(589.732 -937.538)" fill="#ffb072"/></g></g></g><g transform="translate(18.241)"><path d="M-488.569,432.386s1.587,30.21-1.8,38.122-12.2,20.791-12.2,20.791a13.56,13.56,0,0,0,11.351,8.572s13.472-9.488,18.757-23.859,9.717-30.187,7.576-41.905C-466.093,427.525-486.868,422.76-488.569,432.386Z" transform="translate(502.575 -426.936)" fill="#3463aa"/><path d="M-478.2,457.6s.192,25.156-.982,34.89c-1.14,9.446-15.657,26.83-15.657,26.83" transform="translate(496.146 -452.425)" fill="none" stroke="#fff" stroke-miterlimit="10" stroke-width="0.499"/></g></g><g transform="translate(29.051)"><g transform="translate(1.533)"><path d="M-393.906,102.559c2.327,4.63-1.825,22.207-1.825,29.885a125.133,125.133,0,0,0,1.95,20.625,2.449,2.449,0,0,1-1.152,2.675,30.22,30.22,0,0,1-11.325,3.507c-11.371,1.094-16.864-.9-19.449-1.878a3.155,3.155,0,0,1-2.01-3.422c.574-3.84,2.194-13.232.807-21.873-1.815-11.307-4.776-26.686.528-31.433s15.238-7.7,15.238-7.7S-396.781,96.84-393.906,102.559Z" transform="translate(429.387 -64.549)" fill="#fff"/><g transform="translate(12.243)"><path d="M-348.391-48.013s-2.551-.425-6.049-4.772c-2.293-2.849-5.482-15.741,4.629-17.691s13.089,4.884,13.551,9.352-4.554,8.152-6.824,9.765S-348.391-48.013-348.391-48.013Z" transform="translate(356.794 71.593)" fill="#3e2344"/><path d="M-348.661,33.611a29.754,29.754,0,0,1-1.46,6.951,11.154,11.154,0,0,1-3.844,5.277c-1.455,1.294,5.809,9.01,12.277,10.968,0,0,4.691-5.714,2.54-8.9s-3.855-3.466-3.084-7.718c.671-3.707,1.072-5.763,1.072-5.763Z" transform="translate(354.598 -15.223)" fill="#ffb072"/><g transform="translate(2.202)"><g transform="translate(0 4.93)"><path d="M-340-32.726s-.326,2.887.837,4.124,3.246,4.225,7.994,3.878c6.341-.463,3.879-10.528,3.879-10.528a22.318,22.318,0,0,0,0-7.052c-.663-3.18-6.942-4.846-12.055-3.289,0,0-1.468,1.4-.9,7.647a1.91,1.91,0,0,0-2.427-.327c-1.126.613-1.244,2.066-.862,3.435C-343.083-33.2-341.37-31.781-340-32.726Z" transform="translate(343.738 46.183)" fill="#ffb072" fill-rule="evenodd"/><path d="M-335.849,11l-.558-1.486.952-.395s-.618-2.777-2.166-1.753C-338.893,8.21-337.438,11.567-335.849,11Z" transform="translate(339.056 1.851)" fill="#e57e55"/></g><path d="M-323.387,16.912a39.627,39.627,0,0,0-.53,5.646c.094,1.742,1.812,7.164,9.754,6.68,7.888-.48,5.063-9.028,3.726-9.615a2.353,2.353,0,0,1-.787,1.886,2.1,2.1,0,0,0-2.544-1.1c-1.129-.639-2.425-.242-3.787.57l-.981.688a5.015,5.015,0,0,1-4.036-4.654Z" transform="translate(327.269 -1.341)" fill="#3e2344"/><path d="M-280.231,46.017s4.17,0,4.269.283-.5.85-2.134.85A2.234,2.234,0,0,1-280.231,46.017Z" transform="translate(290.942 -25.537)" fill="#fff" stroke="#e57e55" stroke-miterlimit="10" stroke-width="0.276"/><g transform="translate(7.522 12.272)"><path d="M-287.07,11.886c-.029.352-.492.377-1.055.33s-1.015-.149-.986-.5.51-.6,1.074-.552S-287.04,11.534-287.07,11.886Z" transform="translate(290.803 -8.829)" fill="#3e2344"/><path d="M-299.138-1.274a19.567,19.567,0,0,1,2.119-.5,12.8,12.8,0,0,0,2.618.127,2.768,2.768,0,0,0,.291-.84,21.08,21.08,0,0,0-3.188-.12A3.647,3.647,0,0,0-299.138-1.274Z" transform="translate(299.138 2.65)" fill="#3e2344"/></g><g transform="translate(13.901 12.546)"><path d="M-256.436,14.449c-.029.352-.492.377-1.055.33s-1.015-.149-.986-.5.51-.6,1.074-.552S-256.407,14.1-256.436,14.449Z" transform="translate(258.958 -11.233)" fill="#3e2344"/><path d="M-258.076.879c0,.054-.7-.838-1.046-.9s-2.032.077-2.116-.132a3.809,3.809,0,0,1-.079-.871,14.242,14.242,0,0,1,2.6.383A2.438,2.438,0,0,1-258.076.879Z" transform="translate(261.317 1.028)" fill="#3e2344"/></g><g transform="translate(12.246 13.351)"><path d="M-269.852,31.072s-1.3-.044-1.273-.4,2.758-.749,2.908-.492S-269.267,30.908-269.852,31.072Z" transform="translate(271.126 -25.652)" fill="#e57e55" opacity="0.5"/><path d="M-263.432,3.744a6.582,6.582,0,0,0-.186,2.221c.2.588,1.392,1.913,1.418,2.193s-1.355.965-1.457,1.005,1.967-.276,1.907-.919-1.6-2.254-1.654-2.569S-263.432,3.744-263.432,3.744Z" transform="translate(264.93 -3.744)" fill="#e57e55"/></g><path d="M-336.665-59.364c.405-.274,1.07-2.631.363-4.9a2.826,2.826,0,0,1,2.1-3.658c1.293-.141,5.487,1.049,7.146.845,3.635-.446,6.452-1.519,6.446-2.19s-2.667.025-2.667.025,4.053-1.034,3.686-4.424a16.607,16.607,0,0,1-5.768-.709c-2.721-.932-9.237-2.015-12.7.559-2.268,1.684-3.878,7.173-.874,9.964C-337.568-62.579-337.44-58.84-336.665-59.364Z" transform="translate(341.113 75.415)" fill="#3e2344"/></g></g><path d="M-268.246,150.409s-1.732,34.4-1.351,37.64-.248,15.67,7.6,18.061c0,0-3.51-17.946-3.013-28.728S-268.246,150.409-268.246,150.409Z" transform="translate(296.591 -112.323)" fill="#a1abad" fill-rule="evenodd" opacity="0.7" style="mix-blend-mode:multiply;isolation:isolate"/></g><path d="M-276.191,104.24A87.74,87.74,0,0,1-273,129.056c-.188,14.043-.758,42.85,9.635,42.181,0,0-4.38-17.7-4.113-24.125s3.748-30.056,2.469-34.1C-266.861,107.142-276.191,104.24-276.191,104.24Z" transform="translate(303.561 -73.94)" fill="#fd6141"/><g transform="translate(0 29.793)"><path d="M-423.035,101.235s7.008,10.964,9.253,29.548c1.07,8.859-.13,22.9-1.467,31.862-1.54,10.32-21.741,10.3-23.036,7.6s4.49-19.847,2.686-29.587-2.868-25.642-.715-30.873S-423.035,101.235-423.035,101.235Z" transform="translate(438.478 -101.235)" fill="#fd6141"/><path d="M-408.171,211.648s3.438,16.582,3,25.358-3.236,26.51-3.236,26.51" transform="translate(413.479 -193.026)" fill="none" stroke="#fff" stroke-linecap="round" stroke-linejoin="round" stroke-width="0.499"/><path d="M-425.861,144.351a16.487,16.487,0,0,0-.914,4.337c1.894,14.462,10.028,30.67,22.521,36.489.412-4.7.661-9.657.593-14.107-8.37-8.337-14.771-19.174-19.671-29.857A8.475,8.475,0,0,0-425.861,144.351Z" transform="translate(428.749 -134.47)" fill="#dd4026"/></g></g><g transform="translate(30.611 34.208)"><path d="M-151.659,383.141s6.228,1.457,6.987,2.322,2.033,3.825,1.882,4.422-3.445,1.9-4.824,1.7a10.635,10.635,0,0,1-2.881-.969c.206-.735.15-1.394-.614-1.632-.808-.251-1.667.186-3.076.819C-157.393,391.251-155.455,381.879-151.659,383.141Z" transform="translate(201.918 -339.914)" fill="#ffb072"/><path d="M-428.908,140.5c1.675,9.28,13.543,23.124,18.622,27.482,4.452,3.82,26.437,10.3,27.407,10.354,2.252.479,5.119-7.629,3.369-8.676s-21.345-10.064-23.468-12.423-9.9-23.317-15.431-28.1S-430.8,130.024-428.908,140.5Z" transform="translate(429.228 -127.415)" fill="#ff8976"/></g></g></g><g transform="translate(-1044.197 -747.452)"><ellipse cx="49.569" cy="2.852" rx="49.569" ry="2.852" transform="translate(2.955 190.343)" fill="#764582" opacity="0.2"/><g transform="translate(0 0)"><g transform="translate(38.494 63.387)"><g transform="translate(0.695 6.436)"><g transform="translate(12.856 111.687)"><path d="M1046.462,962.507a28.263,28.263,0,0,1,2.4,2.311c.341.5,1.665,4.247,1.665,4.247a3.186,3.186,0,0,1-2.069,1.43l-1.668-2.146s-.853,3.752-1.715,4.97c-1.041,1.472-7.01,3.17-7.9,2.724,0,0-1.1-2.187.773-3.386,3.454-2.214,3.538-6.86,3.538-6.86A3.252,3.252,0,0,1,1046.462,962.507Z" transform="translate(-1036.855 -961.987)" fill="#fd6141"/><g clip-path="url(#c)"><path d="M1034.583,989.667c.106-.055,7.638-1.069,8.528-3.291.7-1.739,1.159-4.671,1.563-5.015s2.3-2.588,2.3-2.588l3.014,5.248-11.341,9.543Z" transform="translate(-1034.966 -975.942)" fill="#dd4026"/></g><path d="M1054.631,1003.528l1.029.219a3.492,3.492,0,0,0,.663-1.9l-1-.351a.353.353,0,0,0-.448.212l-.5,1.358A.353.353,0,0,0,1054.631,1003.528Z" transform="translate(-1051.401 -994.812)" fill="#f7b614"/></g><path d="M969.854,308.066c-.025-.36-9.561,42.1-9.219,53.521.213,7.113,13.51,39.847,17.479,53.678.761,2.653,4.889-.46,4.565-3.214-1.556-13.241-1.458-20.207-7.3-48.981-.91-4.481,15.171-44.647,13.9-54.058S974.878,294.48,969.854,308.066Z" transform="translate(-960.627 -299.769)" fill="#ffb072"/><path d="M989.411,309.012c-1.273-9.41-14.4-14.532-19.421-.945-.023-.342-8.655,38.071-9.2,51.64,4.289-3.255,9.99-1.54,14.921,1.051C977.608,350.961,990.559,317.495,989.411,309.012Z" transform="translate(-960.763 -299.769)" fill="#ffbe57" opacity="0.5" style="mix-blend-mode:multiply;isolation:isolate"/></g><g transform="translate(19.332 6.284)"><g transform="translate(5.194 113.79)"><path d="M1114.264,974.887a28.306,28.306,0,0,1,1.423,3.014c.139.591.047,4.561.047,4.561a3.187,3.187,0,0,1-2.442.6l-.8-2.6a10.836,10.836,0,0,1-2.466,3.37c-1.5,1.006-6.826,2.24-7.722,1.8,0,0-1.23-2.378.748-3.392,4.951-2.54,5.389-6.049,5.389-6.049A3.252,3.252,0,0,1,1114.264,974.887Z" transform="translate(-1101.93 -973.557)" fill="#fd6141"/><g clip-path="url(#d)"><path d="M1100.561,1006.81c.118-.013,6.209-.594,7.674-1.763s2.744-3.954,3.243-4.132,3.07-1.6,3.07-1.6l.952,5.976-13.992,4.889Z" transform="translate(-1100.792 -994.97)" fill="#dd4026"/></g><path d="M1123.094,1007l.884.571a3.5,3.5,0,0,0,1.3-1.544l-.814-.686a.353.353,0,0,0-.494.039l-.948,1.092A.353.353,0,0,0,1123.094,1007Z" transform="translate(-1119.39 -999.914)" fill="#f7b614"/></g><path d="M1071.141,310.053c-.075,3.7.493,43.12,3.908,53.912,2.127,6.723,6.593,39,8.106,50.029.552,4.024,4.918,4.024,5.235.18,1.178-14.282,5.8-34.145.554-51.6-1.309-4.36,4.76-49.369,1-57.941S1071.417,296.386,1071.141,310.053Z" transform="translate(-1071.135 -298.865)" fill="#ffb072"/><path d="M1088.758,359.657c.121-11.134,4.521-47.415,1.185-55.02-3.761-8.572-18.526-8.25-18.8,5.417-.069,3.4.409,37.065,3.149,50.813C1078.554,358.458,1083.944,358.258,1088.758,359.657Z" transform="translate(-1071.135 -298.865)" fill="#ffbe57" opacity="0.5" style="mix-blend-mode:multiply;isolation:isolate"/></g><path d="M966.853,271.721l-.423,3.875s-6.934,17.579-9.922,46.113c7.4-2.053,21.363,4.782,42.079,1.873,0,0,8.195-36.54-6.061-52.8S967.6,263.118,966.853,271.721Z" transform="translate(-956.508 -261.608)" fill="#fd6141"/><path d="M1017.968,333.434s-.552,5.471,8.916,6.436,18.857-5.873,18.621-7.885S1017.968,333.434,1017.968,333.434Z" transform="translate(-1007.598 -319.594)" fill="#dd4026"/><path d="M1156.56,327.6s10.841,18.036,4.171,50.221" transform="translate(-1122.82 -316.47)" fill="none" stroke="#fff" stroke-linecap="round" stroke-miterlimit="10" stroke-width="0.499"/></g><g transform="translate(0 33.649)"><path d="M738.573,259.767a36.055,36.055,0,0,0-4.681-.055,23.563,23.563,0,0,0-2.7,1.185c-1.085.545-.027,1.324.795,1.252a14.025,14.025,0,0,1,2.078-.237,3.845,3.845,0,0,1,.706.18,16.6,16.6,0,0,1-3.586,2.148c-.771.3-1.468.5-2.584.859-.5.16-.416.816.151.922a6.837,6.837,0,0,0,2.988-.378c.48-.182.964-.382,1.408-.588a10.413,10.413,0,0,1-1.532.879c-.732.334-1.469.469-2.537.862-.49.18-.358.752.214.833a5.825,5.825,0,0,0,.812.043c-.2.26-.059.668.395.727a5.447,5.447,0,0,0,1.211-.1.475.475,0,0,0,.431.277c4,.012,6.381-2.169,8.57-2.679C744.193,262.378,741.178,260.265,738.573,259.767Z" transform="translate(-728.267 -230.234)" fill="#ffb072"/><path d="M840.939,86.337c-2.716-1.541-7.352-2.048-11.006,3.157s-5.264,17.45-9.138,21.594c-2.31,2.471-23.284,3.185-24.777,3.934-.971.487-.392,5.154-.073,6.021.667,1.813,23.373,2.782,29.55.347S846.77,89.645,840.939,86.337Z" transform="translate(-784.144 -85.283)" fill="#2b5da5"/></g><path d="M1005.823-102.708c.167-1.9.157-5.056,2.421-7.8s11.088-5.484,15.712-2.282c5.685,3.937,3.828,7.622,10.916,10.481s4.944,6.031,2.919,9.27-1.313,3.775,1.964,7.17,7.623,11.853,0,16.677-24.131,1.668-30.744-4.705,1.191-10.57-.644-14.368-3.991-2.961-3.991-7C1004.376-98.352,1005.566-99.779,1005.823-102.708Z" transform="translate(-957.809 114.228)" fill="#3e2344"/><path d="M1021.1,64.045s-15.036,2.507-15.538,7.1c-.21,1.923,2.41,5.8,1.734,7.77-.989,2.879-2.564,4.55.342,11.386,2.349,5.526-1.683,16.962-1.561,18.324.458,5.09,8.528,6.021,11.839,5.942,4.719-.113,18.292-3.15,18.292-6.124,0-2.578-6.286-8.117-6.9-12.535s10.89-22.126,8.607-25.982C1033.5,62.457,1021.1,64.045,1021.1,64.045Z" transform="translate(-958.787 -33.861)" fill="#3463aa"/><g transform="translate(68.667 31.885)"><path d="M1143.487,345.589a36.111,36.111,0,0,0-4.474,1.379,23.558,23.558,0,0,0-2.212,1.955c-.866.851.379,1.269,1.14.949a14,14,0,0,1,1.906-.861,3.835,3.835,0,0,1,.727-.044,16.585,16.585,0,0,1-2.758,3.142c-.643.518-1.244.927-2.2,1.608-.425.3-.147.9.426.831a6.833,6.833,0,0,0,2.729-1.274c.4-.32.8-.659,1.16-.99a10.4,10.4,0,0,1-1.189,1.306c-.595.541-1.255.9-2.152,1.6-.412.322-.11.826.459.728a5.818,5.818,0,0,0,.786-.208c-.112.309.148.654.6.571a5.448,5.448,0,0,0,1.123-.464.509.509,0,0,0,.494.132c2.369-.544,6.423-3.945,7.341-5.171C1149.637,346.357,1146.12,345.267,1143.487,345.589Z" transform="translate(-1135.413 -299.88)" fill="#ffb072"/><path d="M1149.375,75.307c-2.43,1.962-4.6,6.089-1.1,11.4s13.478,10.827,15.912,15.951c1.451,3.055-12.025,16.16-12.05,17.83s2.536,5.739,3.516,6.214c1.738.843,20.669-17.532,20.669-24.172S1154.591,71.095,1149.375,75.307Z" transform="translate(-1144.583 -74.828)" fill="#3463aa"/></g><path d="M1061.674-4.023a29.754,29.754,0,0,0,1.46,6.951,11.155,11.155,0,0,0,3.844,5.277c1.455,1.294-5.809,9.01-12.277,10.968,0,0-4.691-5.714-2.54-8.9s3.855-3.466,3.084-7.718c-.671-3.707-1.072-5.763-1.072-5.763Z" transform="translate(-997.066 22.61)" fill="#ffb072"/><g transform="translate(50.752 5.129)"><g transform="translate(0.267 12.311)"><path d="M1034.369-7.7c0,1.826-.75,3.312-1.672,3.312s-1.673-1.486-1.673-3.312a4.484,4.484,0,0,1,.856-2.873c.157-.2-.043-.358-.2-.155a4.714,4.714,0,0,0-.907,3.028c0,2,.845,3.563,1.923,3.563S1034.62-5.7,1034.62-7.7a4.839,4.839,0,0,0-.538-2.491c-.041.048-.145.131-.19.181A5.114,5.114,0,0,1,1034.369-7.7Z" transform="translate(-1030.773 10.819)" fill="#fff"/></g><g transform="translate(0.654)"><path d="M1046.265-70.36s-1.048,7.942-8.51,7.38c-3.747-.282-5.663-7.973-4.2-9.905a22.317,22.317,0,0,1,0-7.052c.663-3.18,6.942-4.846,12.055-3.289,0,0,1.468,1.4.9,7.647a1.909,1.909,0,0,1,2.427-.326c1.126.613,1.244,2.066.862,3.435C1049.346-70.83,1047.634-69.415,1046.265-70.36Z" transform="translate(-1033.063 83.817)" fill="#ffb072" fill-rule="evenodd"/><path d="M1112.536-26.631l.558-1.486-.952-.395s.618-2.777,2.166-1.753C1115.58-29.424,1114.126-26.067,1112.536-26.631Z" transform="translate(-1098.805 39.485)" fill="#e57e55"/><g transform="translate(12.514 12.311)"><path d="M1110.855-7.7c0,1.826-.75,3.312-1.672,3.312S1107.51-5.87,1107.51-7.7a4.485,4.485,0,0,1,.856-2.873c.157-.2-.043-.358-.2-.155a4.715,4.715,0,0,0-.907,3.028c0,2,.845,3.563,1.923,3.563s1.923-1.565,1.923-3.563a4.84,4.84,0,0,0-.537-2.491c-.041.048-.145.131-.19.181A5.117,5.117,0,0,1,1110.855-7.7Z" transform="translate(-1107.259 10.819)" fill="#fff"/></g></g><g transform="translate(0 7.069)"><g transform="translate(3.378 7.898)"><path d="M1049.217,5.839s.507-1.239,4.425-.834C1053.2,7.078,1049.53,8.1,1049.217,5.839Z" transform="translate(-1049.217 -4.923)" fill="#fd6141"/><path d="M1049.217,6.241a13.186,13.186,0,0,0,4.425-.834" transform="translate(-1049.217 -5.325)" fill="#e57e55" stroke="#e57e55" stroke-miterlimit="10" stroke-width="0.249" style="mix-blend-mode:multiply;isolation:isolate"/></g><g transform="translate(0 0.675)"><path d="M1036.118-23.185c.029.352.492.377,1.055.33s1.015-.149.986-.5-.51-.6-1.074-.552S1036.089-23.537,1036.118-23.185Z" transform="translate(-1034.948 26.272)" fill="#3e2344"/><path d="M1029.187-36.281c-.017.051,1.308-1.13,1.663-1.111s1.678.512,1.809.328a2.784,2.784,0,0,0,.26-.584,10.4,10.4,0,0,0-2.252-.227A4.065,4.065,0,0,0,1029.187-36.281Z" transform="translate(-1029.187 37.901)" fill="#3e2344"/></g><g transform="translate(5.03)"><path d="M1066.751-25.748c.029.352.492.377,1.055.33s1.015-.149.986-.5-.51-.6-1.074-.552S1066.722-26.1,1066.751-25.748Z" transform="translate(-1065.445 29.079)" fill="#3e2344"/><path d="M1063.666-40.818a9.233,9.233,0,0,0-2.2-.571c-.443.113-1.867.833-2.056.684a2.3,2.3,0,0,1-.4-.515,15.769,15.769,0,0,1,2.587-.685A4.028,4.028,0,0,1,1063.666-40.818Z" transform="translate(-1059.012 41.905)" fill="#3e2344"/></g><g transform="translate(2.164 1.352)"><path d="M1045.21-6.562s1.3-.044,1.274-.4-2.758-.749-2.908-.492S1044.624-6.726,1045.21-6.562Z" transform="translate(-1043.302 11.982)" fill="#e57e55" opacity="0.5"/><path d="M1043.7-33.89a6.579,6.579,0,0,1,.186,2.221c-.2.588-1.392,1.913-1.417,2.193s1.355.965,1.456,1.005-1.967-.276-1.907-.919,1.6-2.254,1.654-2.569S1043.7-33.89,1043.7-33.89Z" transform="translate(-1042.016 33.89)" fill="#e57e55"/></g></g></g><path d="M1028.383-100.259c-6.218.658-8.977,6.512-13.532,6.516-2.819-4.9,5.8-17.331,15.959-7.679,4.66,4.425.457,7.817.457,7.817l-1.038,3.578s.09-2.686-.865-3.715A5.851,5.851,0,0,1,1028.383-100.259Z" transform="translate(-966.067 106.552)" fill="#3e2344"/></g></g><g transform="translate(-1113.804 -795.58)"><path d="M418.486-360.564l-63.9-15.727h0L346.5-378.28a5.866,5.866,0,0,0-7.1,4.294l-6.348,25.792h0l-.361,1.469-2.9,11.8a5.866,5.866,0,0,0,4.294,7.1L404.925-310.4a5.866,5.866,0,0,0,7.1-4.294l.848-3.444h0l2.417-9.82h0l3.524-14.318h0l3.106-12.619A4.687,4.687,0,0,0,418.486-360.564Z" transform="translate(-327.249 382.017)" fill="#764582" opacity="0.3"/><g transform="translate(0 0)"><rect width="84.683" height="51.954" rx="5.833" transform="translate(12.416 0) rotate(13.826)" fill="#3463aa"/><path d="M403.539-367.4c-2.41,6.428-1.607,15.266,4.821,18.48,23.021,13.715,47.535,12.5,69.72,3.454l3.106-12.619a4.687,4.687,0,0,0-3.431-5.671l-63.9-15.727C409.067-376.77,405.623-372.094,403.539-367.4Z" transform="translate(-387.66 382.878)" fill="#0074ff"/><rect width="84.683" height="10.113" transform="matrix(0.971, 0.239, -0.239, 0.971, 4.666, 31.488)" fill="#ffe0b2"/><rect width="30.297" height="5.056" rx="2.341" transform="translate(14.397 6.339) rotate(13.826)" fill="#ffe0b2"/><path d="M437.927-302.329l-48.986-12.056a1.177,1.177,0,0,1-.862-1.424l.042-.169a1.177,1.177,0,0,1,1.424-.862l48.986,12.056a1.177,1.177,0,0,1,.862,1.424l-.042.17A1.177,1.177,0,0,1,437.927-302.329Z" transform="translate(-375.819 330.825)" fill="#ffe0b2"/><g transform="translate(48.865 33.572)"><rect width="4.954" height="3.555" rx="1.646" transform="translate(0.85 0) rotate(13.825)" fill="#fff"/><rect width="4.954" height="3.555" rx="1.646" transform="translate(6.972 1.507) rotate(13.825)" fill="#fff"/><rect width="4.954" height="3.555" rx="1.646" transform="translate(13.095 3.014) rotate(13.826)" fill="#fff"/></g></g></g><text transform="translate(-1219.427 -829.335)" fill="#2cc3ff" font-size="11" font-family="Gotham-Black, Gotham" font-weight="800" letter-spacing="0.02em"><tspan x="0" y="0">sualoja</tspan><tspan y="0" fill="#3463aa">.sigeloja.com.br</tspan></text><g transform="translate(-1050.352 -777.821)"><g transform="translate(0 0)"><g transform="translate(0)" clip-path="url(#e)"><g clip-path="url(#e)"><path d="M694.9-279.325a2.41,2.41,0,0,1-.739-.311,1.916,1.916,0,0,1-.553-.532l.314-.233a.4.4,0,0,1,.5.026,1.509,1.509,0,0,0,.672.36.513.513,0,0,0,.269.008.174.174,0,0,0,.125-.131l0-.009a.165.165,0,0,0,0-.089.226.226,0,0,0-.062-.09.847.847,0,0,0-.139-.1,2.642,2.642,0,0,0-.236-.127q-.228-.114-.418-.231a1.406,1.406,0,0,1-.318-.259.8.8,0,0,1-.178-.32.8.8,0,0,1,.005-.41l0-.009a.956.956,0,0,1,.173-.368.882.882,0,0,1,.306-.249,1.125,1.125,0,0,1,.417-.111,1.6,1.6,0,0,1,.5.046,2.232,2.232,0,0,1,.667.269,1.793,1.793,0,0,1,.477.434l-.288.252a.4.4,0,0,1-.511.01,1.6,1.6,0,0,0-.133-.1,1.32,1.32,0,0,0-.4-.177.389.389,0,0,0-.24,0,.172.172,0,0,0-.109.119l0,.009a.175.175,0,0,0,0,.1.221.221,0,0,0,.065.091.937.937,0,0,0,.144.1q.093.057.24.129a3.8,3.8,0,0,1,.436.244,1.444,1.444,0,0,1,.311.268.753.753,0,0,1,.161.314.815.815,0,0,1-.01.382l0,.009a.953.953,0,0,1-.188.391.913.913,0,0,1-.322.248,1.157,1.157,0,0,1-.43.1,1.8,1.8,0,0,1-.516-.054" transform="translate(-693.301 284.505)" fill="#fff"/><path d="M711.175-279.557l.349.083a.5.5,0,0,1,.374.608l-.6,2.526-.349-.083a.5.5,0,0,1-.374-.608Z" transform="translate(-707.392 282.043)" fill="#fff"/><path d="M719.486-273.219a1.871,1.871,0,0,1-.626-.27,1.6,1.6,0,0,1-.443-.445,1.527,1.527,0,0,1-.227-.576,1.607,1.607,0,0,1,.025-.661l0-.009a1.593,1.593,0,0,1,.268-.585,1.6,1.6,0,0,1,.456-.42,1.573,1.573,0,0,1,.593-.212,1.768,1.768,0,0,1,.677.034,1.914,1.914,0,0,1,.664.281,1.95,1.95,0,0,1,.455.45l-.328.246a.426.426,0,0,1-.531-.018l-.057-.045a1.018,1.018,0,0,0-.377-.167.736.736,0,0,0-.319-.008.781.781,0,0,0-.286.119.871.871,0,0,0-.226.224.884.884,0,0,0-.137.309l0,.009a.944.944,0,0,0-.019.351.776.776,0,0,0,.108.306.826.826,0,0,0,.219.234.871.871,0,0,0,.316.141.89.89,0,0,0,.514-.01l.087-.367-.182-.043a.424.424,0,0,1-.315-.511l.048-.2,1.388.33-.323,1.358a2.255,2.255,0,0,1-.648.2,2.007,2.007,0,0,1-.773-.043" transform="translate(-713.715 279.43)" fill="#fff"/><path d="M738.37-268.857a1.835,1.835,0,0,1-.623-.268,1.572,1.572,0,0,1-.433-.437,1.446,1.446,0,0,1-.216-.571,1.7,1.7,0,0,1,.032-.667l0-.011a1.727,1.727,0,0,1,.257-.587,1.557,1.557,0,0,1,.433-.425,1.511,1.511,0,0,1,.56-.222,1.543,1.543,0,0,1,.64.023,1.627,1.627,0,0,1,.643.294,1.373,1.373,0,0,1,.387.471,1.558,1.558,0,0,1,.153.588,3.144,3.144,0,0,1-.116.867l-2.01-.478a.636.636,0,0,0,.142.427.716.716,0,0,0,.39.222.846.846,0,0,0,.364.01c.027-.005.055-.012.083-.021a.487.487,0,0,1,.528.177l.232.308a1.668,1.668,0,0,1-.641.317,1.689,1.689,0,0,1-.809-.017m.867-1.718a.687.687,0,0,0-.072-.437.48.48,0,0,0-.32-.232.455.455,0,0,0-.379.065.8.8,0,0,0-.272.355Z" transform="translate(-729.438 275.817)" fill="#fff"/><path d="M757.458-268.262l.859.206-.563,2.348,1.5.36-.181.753-2.361-.566Z" transform="translate(-745.762 272.653)" fill="#2cc3ff"/><path d="M773.506-256.8a1.445,1.445,0,0,1-.506-.224,1.332,1.332,0,0,1-.354-.368,1.245,1.245,0,0,1-.179-.462,1.237,1.237,0,0,1,.018-.506l0-.009a1.235,1.235,0,0,1,.216-.461,1.266,1.266,0,0,1,.372-.332,1.357,1.357,0,0,1,.486-.169,1.429,1.429,0,0,1,.555.028,1.413,1.413,0,0,1,.505.227,1.39,1.39,0,0,1,.354.368,1.218,1.218,0,0,1,.18.46,1.238,1.238,0,0,1-.018.506l0,.009a1.232,1.232,0,0,1-.216.461,1.267,1.267,0,0,1-.373.332,1.357,1.357,0,0,1-.485.169,1.429,1.429,0,0,1-.555-.028m.181-.715a.517.517,0,0,0,.218.008.468.468,0,0,0,.184-.077.537.537,0,0,0,.14-.145.6.6,0,0,0,.084-.194l0-.009a.581.581,0,0,0,.012-.215.528.528,0,0,0-.066-.195.554.554,0,0,0-.134-.155.488.488,0,0,0-.193-.093.52.52,0,0,0-.218-.008.474.474,0,0,0-.185.077.541.541,0,0,0-.14.145.592.592,0,0,0-.084.194l0,.009a.582.582,0,0,0-.012.216.534.534,0,0,0,.066.195.553.553,0,0,0,.134.155.484.484,0,0,0,.193.093" transform="translate(-758.842 265.242)" fill="#2cc3ff"/><path d="M785.063-257.654a1.5,1.5,0,0,1-.183-.056l-.155-.058.134-.558a.331.331,0,0,0,.054.018l.055.013a.26.26,0,0,0,.2-.017.312.312,0,0,0,.114-.2l.541-2.254.846.2-.549,2.29a1.165,1.165,0,0,1-.15.371.641.641,0,0,1-.229.217.682.682,0,0,1-.3.077,1.411,1.411,0,0,1-.376-.043m.944-3.956.881.211-.149.62-.882-.211Z" transform="translate(-769.049 267.123)" fill="#2cc3ff"/><path d="M795.377-251.7a1.033,1.033,0,0,1-.307-.125.775.775,0,0,1-.221-.2.671.671,0,0,1-.115-.271.788.788,0,0,1,.015-.334l0-.009a.765.765,0,0,1,.147-.311.661.661,0,0,1,.247-.189.89.89,0,0,1,.329-.071,1.468,1.468,0,0,1,.4.044,1.784,1.784,0,0,1,.314.106,1.871,1.871,0,0,1,.239.125l.009-.04a.371.371,0,0,0-.048-.316.556.556,0,0,0-.337-.189,1.592,1.592,0,0,0-.354-.047,2.338,2.338,0,0,0-.338.022l-.03-.635a2.7,2.7,0,0,1,.464-.032,2.565,2.565,0,0,1,.55.078,1.777,1.777,0,0,1,.529.206.952.952,0,0,1,.314.3.782.782,0,0,1,.12.369,1.5,1.5,0,0,1-.046.455l-.33,1.377-.833-.2.06-.248a.968.968,0,0,1-.347.149.966.966,0,0,1-.429-.016m.428-.455a.438.438,0,0,0,.327-.034.383.383,0,0,0,.184-.26l.027-.111a.793.793,0,0,0-.138-.08.919.919,0,0,0-.175-.061.451.451,0,0,0-.305.013.272.272,0,0,0-.151.191l0,.009a.241.241,0,0,0,.038.213.334.334,0,0,0,.2.12" transform="translate(-777.36 260.939)" fill="#2cc3ff"/><path d="M803.38-262.561l2.013.483a.242.242,0,0,0,.292-.179.242.242,0,0,0-.179-.292l-2.013-.483a.243.243,0,0,0-.292.179.243.243,0,0,0,.179.292" transform="translate(-784.403 268.311)" fill="#fff"/><path d="M812.461-264.213l-.3-.672h0l-.37-1.577a.242.242,0,0,0-.18-.18l-1.006-.241.056-.236a.243.243,0,0,0-.179-.292l-3.922-.941a.25.25,0,0,0-.3.17.243.243,0,0,0,.177.3l3.7.886-.4,1.651a.243.243,0,0,0,.179.292l1.834.44.237.525-.292,1.217-.445-.107a.972.972,0,0,0-.744-.935.972.972,0,0,0-1.087.5l-1.758-.422a.243.243,0,0,0-.293.179.243.243,0,0,0,.179.292l1.762.422a.972.972,0,0,0,.744.918.972.972,0,0,0,1.079-.481l.685.164a.242.242,0,0,0,.292-.179l.368-1.533a.244.244,0,0,0-.015-.157m-2.2-1.256.226-.943.861.206.248,1.057Zm-.1,2.97a.485.485,0,0,1-.359-.585.486.486,0,0,1,.585-.359.486.486,0,0,1,.359.585.485.485,0,0,1-.585.359" transform="translate(-786.941 272.734)" fill="#fff"/></g></g></g></g></g></svg>