<svg version="1.1" id="Layer_1" xmlns="http://www.w3.org/2000/svg" xmlns:xlink="http://www.w3.org/1999/xlink" x="0px" y="0px" viewBox="0 0 158.3 124.23" style="enable-background:new 0 0 158.3 124.23;" xml:space="preserve">
<style type="text/css">
    .st15 {
        fill: #004ab9;
    }

    .st1 {
        fill: #04AADC;
    }

    .st2 {
        fill: url(#SVGID_1_);
    }

    .st3 {
        fill: url(#SVGID_2_);
    }

    .st4 {
        fill: url(#SVGID_3_);
    }

    .st5 {
        fill: url(#SVGID_4_);
    }

    .st6 {
        fill: url(#SVGID_5_);
    }

    .st7 {
        fill: url(#SVGID_6_);
    }

    .st8 {
        fill: url(#SVGID_7_);
    }

    .st9 {
        fill: url(#SVGID_8_);
    }
</style>
<g>
                    <g>
                    <path class="st15" d="M9.95,110.59l-4.6-18.3v19.83c0,1.1-0.24,1.92-0.73,2.47c-0.49,0.55-1.14,0.82-1.95,0.82
            c-0.78,0-1.42-0.27-1.92-0.81S0,113.23,0,112.12V89.39c0-1.25,0.33-2.1,0.98-2.54s1.53-0.66,2.64-0.66h1.8
            c1.08,0,1.87,0.1,2.36,0.29c0.49,0.2,0.85,0.55,1.09,1.06c0.24,0.51,0.5,1.34,0.8,2.49l4.17,15.73l4.17-15.73
            c0.3-1.15,0.57-1.98,0.8-2.49c0.24-0.51,0.6-0.86,1.09-1.06c0.49-0.2,1.28-0.29,2.36-0.29h1.8c1.11,0,1.99,0.22,2.64,0.66
            c0.65,0.44,0.98,1.28,0.98,2.54v22.72c0,1.1-0.25,1.92-0.74,2.47c-0.49,0.55-1.15,0.82-1.97,0.82c-0.77,0-1.4-0.27-1.9-0.82
            c-0.5-0.55-0.74-1.37-0.74-2.47V92.29l-4.6,18.3c-0.3,1.19-0.55,2.06-0.73,2.62c-0.19,0.55-0.54,1.06-1.05,1.52
            c-0.51,0.46-1.21,0.69-2.12,0.69c-0.68,0-1.25-0.15-1.72-0.44c-0.47-0.29-0.84-0.67-1.1-1.13c-0.26-0.46-0.47-0.96-0.62-1.52
            C10.26,111.77,10.11,111.19,9.95,110.59z"></path>

                    <path class="st15" d="M45.83,105.85H35.36c0.01,1.21,0.26,2.29,0.74,3.21c0.48,0.93,1.11,1.63,1.9,2.1
            c0.79,0.47,1.66,0.71,2.62,0.71c0.64,0,1.22-0.08,1.75-0.23s1.04-0.38,1.54-0.71c0.5-0.32,0.95-0.66,1.37-1.03
            c0.42-0.37,0.96-0.86,1.63-1.49c0.27-0.24,0.67-0.35,1.18-0.35c0.55,0,0.99,0.15,1.33,0.45c0.34,0.3,0.51,0.72,0.51,1.27
            c0,0.48-0.19,1.05-0.57,1.69c-0.38,0.65-0.95,1.27-1.71,1.86c-0.76,0.59-1.72,1.09-2.88,1.48c-1.16,0.39-2.48,0.59-3.99,0.59
            c-3.43,0-6.11-0.98-8.01-2.94c-1.91-1.96-2.86-4.62-2.86-7.97c0-1.58,0.24-3.05,0.71-4.4c0.47-1.35,1.16-2.51,2.06-3.48
            c0.9-0.97,2.01-1.71,3.33-2.22c1.32-0.52,2.78-0.77,4.39-0.77c2.09,0,3.88,0.44,5.38,1.32c1.5,0.88,2.62,2.02,3.36,3.42
            s1.12,2.82,1.12,4.27c0,1.35-0.38,2.22-1.16,2.62S47.22,105.85,45.83,105.85z M35.36,102.81h9.7c-0.13-1.83-0.62-3.2-1.48-4.1
            c-0.86-0.91-1.98-1.36-3.38-1.36c-1.33,0-2.43,0.46-3.28,1.38S35.55,101.01,35.36,102.81z"></path>

                    <path class="st15" d="M66.22,112.39v-0.69c-0.64,0.81-1.31,1.49-2.02,2.04c-0.71,0.55-1.48,0.96-2.31,1.22s-1.79,0.4-2.86,0.4
            c-1.29,0-2.45-0.27-3.48-0.8c-1.03-0.54-1.82-1.27-2.38-2.21c-0.67-1.14-1-2.77-1-4.9v-10.6c0-1.07,0.24-1.87,0.72-2.4
            c0.48-0.53,1.12-0.79,1.92-0.79c0.81,0,1.46,0.27,1.96,0.8c0.5,0.54,0.75,1.33,0.75,2.39v8.56c0,1.24,0.1,2.28,0.31,3.12
            c0.21,0.84,0.58,1.5,1.13,1.98c0.54,0.48,1.28,0.72,2.2,0.72c0.9,0,1.75-0.27,2.55-0.8c0.8-0.54,1.38-1.23,1.74-2.1
            c0.3-0.76,0.45-2.42,0.45-4.98v-6.5c0-1.06,0.25-1.85,0.74-2.39c0.5-0.54,1.14-0.8,1.94-0.8s1.44,0.26,1.92,0.79
            c0.48,0.53,0.72,1.33,0.72,2.4v15.5c0,1.02-0.23,1.78-0.7,2.29c-0.46,0.51-1.06,0.76-1.79,0.76s-1.33-0.26-1.81-0.79
            C66.46,114.09,66.22,113.35,66.22,112.39z"></path>

    </g>
                    <g>
                    <path class="st1" d="M76.12,110.61c-0.12-1,0.29-2.02,1.13-2.59c1.09-0.74,2.24-0.3,3.26,1.32c1.6,2.54,3.67,3.45,6.63,2.88
            c1.48-0.28,2.58-1.21,2.68-2.28c0.11-1.16-0.64-2.11-2.18-2.72c-2.17-0.85-4.52-1.15-6.68-2.03c-1.34-0.54-2.63-1.16-3.57-2.28
            c-2.06-2.47-1.22-6.25,1.78-8.18c3.36-2.16,9.93-1.89,13.09,0.55c0.66,0.51,1.26,1.08,1.55,1.88c0.38,1.02,0.52,2.07-0.46,2.84
            c-0.95,0.75-2.01,0.71-3.04,0.13c-0.66-0.37-1.04-1.03-1.52-1.59c-1.54-1.83-4.06-2.31-6.12-1.24c-0.75,0.39-1.28,0.94-1.28,1.8
            c0,0.82,0.53,1.34,1.21,1.71c1.5,0.82,3.18,1.08,4.8,1.5c1.72,0.45,3.42,0.92,4.95,1.85c3.55,2.17,3.8,7.2,0.48,9.75
            c-1.34,1.03-2.88,1.58-4.53,1.78c-2.68,0.33-5.35,0.4-7.93-0.63c-1.78-0.71-3.26-1.74-4.02-3.53c-0.11-0.25-0.18-0.51-0.21-0.78
            L76.12,110.61z"></path>

                    <path class="st1" d="M105.5,104.65c0,2.73,0.01,5.46,0,8.19c-0.01,1.91-0.97,2.99-2.62,3.03c-1.67,0.04-2.82-0.99-2.84-2.84
            c-0.06-5.63-0.06-11.27-0.01-16.9c0.02-1.79,1.32-3,2.84-2.9c1.58,0.1,2.61,1.3,2.62,3.1C105.51,99.11,105.5,101.88,105.5,104.65z
            "></path>

                    <path class="st1" d="M105.5,87.85c0.01,1.72-1,2.73-2.71,2.73c-1.62,0-2.75-1.05-2.78-2.59c-0.03-1.58,1.13-2.72,2.79-2.72
            C104.55,85.27,105.49,86.17,105.5,87.85z"></path>

                    <path class="st1" d="M128.56,93.42c-1.58,0.52-1.7,1.86-1.8,3.21c-0.53-0.01-0.71-0.41-0.95-0.68c-3.54-4.02-12.12-3.8-14.7,2.94
            c-1.49,3.9-1.32,7.82,0.43,11.6c2.77,5.98,10.76,6.27,14.05,2.3c0.2-0.24,0.35-0.63,0.95-0.51c-0.03,1.61-0.04,3.22-0.39,4.82
            c-0.38,1.71-1.49,2.74-3.16,3.05c-2.75,0.52-5.37,0.44-7.21-2.18c-0.15-0.21-0.34-0.39-0.52-0.58c-1.13-1.14-2.39-1.31-3.48-0.47
            c-1.03,0.79-1.17,2.15-0.35,3.5c0.83,1.36,2.1,2.14,3.54,2.71c3.42,1.36,6.93,1.33,10.46,0.59c3.4-0.71,5.48-2.79,6.18-6.19
            c0.2-0.97,0.38-1.97,0.38-2.95c0.04-5.77,0.03-11.54,0.04-17.3c0-0.74-0.08-1.47-0.28-2.18
            C131.34,93.54,130.11,92.91,128.56,93.42z M125.09,109.4c-1.3,1.53-2.96,2.17-4.99,1.81c-2.07-0.37-3.3-1.7-3.9-3.58
            c-0.72-2.28-0.7-4.62,0.17-6.88c0.78-2.04,2.27-3.26,4.49-3.36c2.22-0.1,3.82,0.97,4.84,2.89c0.7,1.33,0.94,2.78,0.88,4.27
            C126.67,106.35,126.26,108.01,125.09,109.4z"></path>

                    <path class="st1" d="M157.24,108.64c-0.81-0.66-2-0.47-2.93,0.38c-0.89,0.82-1.78,1.65-2.82,2.29c-3.7,2.25-7.97,0.32-8.74-3.93
            c-0.18-0.97-0.08-1.53,1.17-1.45c1.73,0.11,3.47,0.03,5.2,0.03c0-0.01,0-0.02,0-0.03c1.91,0,3.82,0.06,5.72-0.02
            c2.41-0.1,3.57-1.25,3.45-3.44c-0.13-2.3-0.86-4.4-2.5-6.11c-2.88-3.01-6.44-3.65-10.37-2.97c-4.1,0.71-6.75,3.06-7.99,7.04
            c-0.66,2.11-0.71,4.24-0.45,6.41c0.5,4.15,3.25,7.44,7.26,8.59c2.2,0.63,4.45,0.76,6.68,0.31c2.78-0.57,5.29-1.69,6.65-4.43
            C158.05,110.38,158.18,109.41,157.24,108.64z M142.73,102.13c0.34-1.84,0.91-3.56,2.72-4.48c1.76-0.89,3.53-0.78,5.16,0.36
            c1.42,1,1.89,2.51,2.07,4.16c0.08,0.73-0.42,0.62-0.83,0.62c-1.43,0.01-2.86,0-4.3,0c-1.35,0-2.69-0.01-4.04,0
            C143.03,102.81,142.61,102.8,142.73,102.13z"></path>

    </g>
                    <g>
                    <g>
                    <linearGradient id="SVGID_1_" gradientUnits="userSpaceOnUse" x1="104.1279" y1="11.1956" x2="68.7551" y2="75.6246">
                    <stop offset="0" style="stop-color:#0445DC"></stop>

                    <stop offset="0.9985" style="stop-color:#04AADC"></stop>

            </linearGradient>
                    <path class="st2" d="M77.62,44.59c0-0.7-0.57-1.27-1.27-1.27s-1.27,0.57-1.27,1.27c0,7.42,6.03,13.45,13.45,13.45
                c0.7,0,1.27-0.57,1.27-1.27s-0.57-1.27-1.27-1.27C82.52,55.51,77.62,50.61,77.62,44.59z"></path>

                    <linearGradient id="SVGID_2_" gradientUnits="userSpaceOnUse" x1="96.291" y1="6.893" x2="60.9182" y2="71.3221">
                    <stop offset="0" style="stop-color:#0445DC"></stop>

                    <stop offset="0.9985" style="stop-color:#04AADC"></stop>

            </linearGradient>
                    <path class="st3" d="M76.36,35.02c5.27,0,9.56,4.29,9.56,9.56c0,0.7,0.57,1.27,1.27,1.27s1.27-0.57,1.27-1.27
                c0-6.67-5.43-12.1-12.1-12.1c-6.67,0-12.1,5.43-12.1,12.1c0,7.17,3.15,13.93,8.65,18.57c0.24,0.2,0.53,0.3,0.82,0.3
                c0.36,0,0.72-0.15,0.97-0.45c0.45-0.53,0.38-1.33-0.15-1.78c-4.92-4.15-7.75-10.21-7.75-16.63
                C66.79,39.31,71.08,35.02,76.36,35.02z"></path>

                    <linearGradient id="SVGID_3_" gradientUnits="userSpaceOnUse" x1="98.1506" y1="7.9139" x2="62.7778" y2="72.343">
                    <stop offset="0" style="stop-color:#0445DC"></stop>

                    <stop offset="0.9985" style="stop-color:#04AADC"></stop>

            </linearGradient>
                    <path class="st4" d="M93.87,44.59c0-9.66-7.86-17.51-17.51-17.51s-17.51,7.86-17.51,17.51c0,3.91,0.75,7.71,2.24,11.31
                c0.27,0.65,1.01,0.95,1.65,0.69c0.65-0.27,0.95-1.01,0.69-1.65c-1.36-3.29-2.05-6.77-2.05-10.35c0-8.26,6.72-14.98,14.98-14.98
                s14.98,6.72,14.98,14.98c0,2.29-1.86,4.15-4.15,4.15s-4.15-1.86-4.15-4.15c0-3.68-3-6.68-6.68-6.68s-6.68,3-6.68,6.68
                c0,10.4,8.46,18.87,18.87,18.87c0.7,0,1.27-0.57,1.27-1.27s-0.57-1.27-1.27-1.27c-9.01,0-16.33-7.33-16.33-16.33
                c0-2.29,1.86-4.15,4.15-4.15c2.29,0,4.15,1.86,4.15,4.15c0,3.68,3,6.68,6.68,6.68S93.87,48.27,93.87,44.59z"></path>

                    <linearGradient id="SVGID_4_" gradientUnits="userSpaceOnUse" x1="95.7059" y1="6.5718" x2="60.3331" y2="71.0008">
                    <stop offset="0" style="stop-color:#0445DC"></stop>

                    <stop offset="0.9985" style="stop-color:#04AADC"></stop>

            </linearGradient>
                    <path class="st5" d="M98.02,45.85c0.7,0,1.27-0.57,1.27-1.27c0-12.64-10.29-22.93-22.93-22.93S53.43,31.94,53.43,44.59
                c0,0.7,0.57,1.27,1.27,1.27c0.7,0,1.27-0.57,1.27-1.27c0-11.25,9.15-20.4,20.4-20.4s20.4,9.15,20.4,20.4
                C96.75,45.29,97.32,45.85,98.02,45.85z"></path>

                    <linearGradient id="SVGID_5_" gradientUnits="userSpaceOnUse" x1="88.5038" y1="2.6177" x2="53.131" y2="67.0467">
                    <stop offset="0" style="stop-color:#0445DC"></stop>

                    <stop offset="0.9985" style="stop-color:#04AADC"></stop>

            </linearGradient>
                    <path class="st6" d="M55.1,25.86c-0.46,0.52-0.41,1.33,0.11,1.79c0.24,0.21,0.54,0.32,0.84,0.32c0.35,0,0.7-0.14,0.95-0.43
                c4.91-5.57,11.97-8.76,19.36-8.76c6.79,0,13.2,2.63,18.06,7.39c0.5,0.49,1.3,0.48,1.79-0.02c0.49-0.5,0.48-1.3-0.02-1.79
                c-5.34-5.23-12.38-8.12-19.84-8.12C68.24,16.24,60.49,19.75,55.1,25.86z"></path>

                    <linearGradient id="SVGID_6_" gradientUnits="userSpaceOnUse" x1="85.9179" y1="1.198" x2="50.5451" y2="65.627">
                    <stop offset="0" style="stop-color:#0445DC"></stop>

                    <stop offset="0.9985" style="stop-color:#04AADC"></stop>

            </linearGradient>
                    <path class="st7" d="M63.9,15.96c3.96-1.73,8.15-2.6,12.46-2.6c5.5,0,10.9,1.45,15.61,4.18c0.2,0.12,0.42,0.17,0.63,0.17
                c0.44,0,0.86-0.23,1.1-0.63c0.35-0.61,0.15-1.38-0.46-1.73c-5.1-2.96-10.94-4.52-16.88-4.52c-4.66,0-9.19,0.95-13.47,2.81
                c-0.64,0.28-0.93,1.03-0.65,1.67C62.51,15.95,63.26,16.24,63.9,15.96z"></path>

                    <linearGradient id="SVGID_7_" gradientUnits="userSpaceOnUse" x1="82.3606" y1="-0.7551" x2="46.9878" y2="63.674">
                    <stop offset="0" style="stop-color:#0445DC"></stop>

                    <stop offset="0.9985" style="stop-color:#04AADC"></stop>

            </linearGradient>
                    <path class="st8" d="M42.45,36.59c0.31-8.96,3.97-17.38,10.31-23.73s14.77-10,23.73-10.31c8.91-0.3,17.53,2.73,24.26,8.54
                c0.53,0.46,1.33,0.4,1.79-0.13c0.46-0.53,0.4-1.33-0.13-1.79c-7.21-6.23-16.45-9.48-26-9.15c-9.6,0.33-18.63,4.25-25.43,11.05
                c-6.8,6.8-10.72,15.83-11.05,25.43c-0.33,9.55,2.92,18.79,9.15,26c0.25,0.29,0.6,0.44,0.96,0.44c0.29,0,0.59-0.1,0.83-0.31
                c0.53-0.46,0.59-1.26,0.13-1.79C45.17,54.12,42.14,45.5,42.45,36.59z"></path>

                    <linearGradient id="SVGID_8_" gradientUnits="userSpaceOnUse" x1="107.7605" y1="13.19" x2="72.3877" y2="77.619">
                    <stop offset="0" style="stop-color:#0445DC"></stop>

                    <stop offset="0.9985" style="stop-color:#04AADC"></stop>

            </linearGradient>
                    <path class="st9" d="M106.36,13.13c-0.46-0.53-1.26-0.59-1.79-0.13c-0.53,0.46-0.59,1.26-0.13,1.79
                c5.81,6.73,8.84,15.34,8.54,24.26c-0.31,8.96-3.97,17.38-10.31,23.73c-6.34,6.34-14.77,10-23.73,10.31
                c-8.91,0.3-17.53-2.73-24.26-8.54c-0.53-0.46-1.33-0.4-1.79,0.13c-0.46,0.53-0.4,1.33,0.13,1.79c6.88,5.94,15.6,9.17,24.69,9.17
                c0.44,0,0.87-0.01,1.31-0.02c9.6-0.33,18.63-4.25,25.43-11.05c6.8-6.8,10.72-15.83,11.05-25.43
                C115.83,29.58,112.58,20.35,106.36,13.13z"></path>

        </g>
    </g>
</g>
</svg>