<svg xmlns="http://www.w3.org/2000/svg" xmlns:xlink="http://www.w3.org/1999/xlink" width="609" height="410" xmlns:v="https://vecta.io/nano"><style><![CDATA[.S{stroke-linejoin:round}.T{fill:#7400cc8c}.U{fill:none}.V{stroke:#263238}.W{fill:#fff}.X{stroke-width:.97}.Y{stroke-linecap:round}.Z{stroke-miterlimit:10}.a{stroke-width:1.167}.b{fill:#263238}.c{opacity:.2}.d{opacity:.7}.e{stroke-width:1.161}.f{stroke-width:1.063}.g{stroke:#fff}.h{flood-opacity:.16}.i{stroke-width:.485}.j{stroke-width:.877}]]></style><defs><clipPath id="A"><path d="M354.75,0,473,205,354.75,410H118.25L0,205,118.25,0Z" transform="translate(360 2241)" fill="#666"/></clipPath><clipPath id="B"><path d="M356.73 249.37h-18.2a3.15 3.15 0 0 0-3.148 3.148v4.188a3.15 3.15 0 0 0 3.148 3.148h6.747l2.36 4.078 2.35-4.078h6.747a3.15 3.15 0 0 0 3.148-3.148v-4.188a3.15 3.15 0 0 0-3.148-3.148z" transform="translate(-335.38 -249.37)" class="S T V a"/></clipPath><clipPath id="C"><path d="M315.78 271.12h-18.2a3.15 3.15 0 0 0-3.148 3.138v4.2a3.15 3.15 0 0 0 3.148 3.138h6.737l2.36 4.078 2.36-4.078h6.737a3.15 3.15 0 0 0 3.148-3.138v-4.2a3.15 3.15 0 0 0-3.149-3.138z" transform="translate(-294.44 -271.12)" class="S T V a"/></clipPath><clipPath id="D"><path d="M396.64 231.9h-18.2a3.15 3.15 0 0 0-3.148 3.148v4.188a3.14 3.14 0 0 0 3.148 3.138h6.747l2.35 4.078 2.36-4.078h6.747a3.14 3.14 0 0 0 3.148-3.138v-4.188a3.15 3.15 0 0 0-3.148-3.148z" transform="translate(-375.29 -231.9)" class="S T V a"/></clipPath><clipPath id="E"><path d="M435 249.1h-18.2a3.15 3.15 0 0 0-3.148 3.148v4.188a3.14 3.14 0 0 0 3.148 3.138h6.737l2.36 4.078 2.36-4.078h6.737a3.15 3.15 0 0 0 3.158-3.138v-4.188a3.16 3.16 0 0 0-3.158-3.148z" transform="translate(-413.65 -249.1)" class="S T V a"/></clipPath><clipPath id="F"><path d="M224.67,288.6s.66,12.634,1.329,15.942a249.684,249.684,0,0,1,4.348,25.557,85.376,85.376,0,0,0,3,15.992s8.086,31.4,8.566-8.046c.17-13.913-1.329-35.782-1.329-35.782l.66-6.627" transform="translate(-224.67 -288.6)" class="S V W X Y"/></clipPath><clipPath id="G"><path d="M224.824 294.83s-6.8 1.43-9.125 6.737-2.65 17.56-2.32 20.87a57.78 57.78 0 0 1 0 8l9.3-3" transform="translate(-213.271 -294.83)" class="S V W X Y"/></clipPath><clipPath id="H"><path d="M213.028 312.18s-21.9 12.254-22.9 14.243-21.57 63.968-21.9 68.256 16.262 20.54 16.262 20.54" transform="translate(-168.215 -312.18)" class="S U V X Y"/></clipPath><clipPath id="I"><path d="M220.674 234.94s-9.625 5.627-10.285 13.913a51.18 51.18 0 0 0 1.66 16.232s-3-2.65-3.318 3.318S213.378 279 215.367 279h2s4.428 9.1 9.745 13.4 10.5 4.5 14.153 3.168 10.625-7.286 11.294-15.242 0-21.2-.67-29.485-2.32-14.253-11.284-17.23-15.283-1-19.93 1.33z" transform="translate(-208.715 -232.105)" class="S V W X"/></clipPath><filter id="J" x="265" y="139" width="344" height="85" filterUnits="userSpaceOnUse"><feOffset dy="3"/><feGaussianBlur stdDeviation="3" result="A"/><feFlood class="h"/><feComposite operator="in" in2="A"/><feComposite in="SourceGraphic"/></filter><filter id="K" x="213" y="44" width="187" height="93" filterUnits="userSpaceOnUse"><feOffset dy="3"/><feGaussianBlur stdDeviation="3" result="A"/><feFlood class="h"/><feComposite operator="in" in2="A"/><feComposite in="SourceGraphic"/></filter><filter id="L" x="402" y="44" width="187" height="93" filterUnits="userSpaceOnUse"><feOffset dy="3"/><feGaussianBlur stdDeviation="3" result="A"/><feFlood class="h"/><feComposite operator="in" in2="A"/><feComposite in="SourceGraphic"/></filter><path id="M" d="M749.767 2270.7s-24.2-44.778-76.052-47.387-70.305 50.485-108.086 70.965c-19.78 10.735-59.78-7.236-80.88-1.1-67.457 19.68-91.535 109.756-62.5 157.322 25.118 41.24 68.446 60.16 133.934 59.9s111.485 2 169.376-45.318 52.563-135.232 24.217-194.393z"/><path id="N" d="M500.13 2352l-14.683-22.3-24.68 9.98-28.8-27.566-44.95 18.147v40.5h122.52v-25.228z"/><path id="O" d="M456.632 2280.377h-9.865a2.67 2.67 0 0 0-1.209 5.058l-3.448 3.668 6.287-3.368h8.236a2.68 2.68 0 0 0 2.627-2.678 2.68 2.68 0 0 0-2.627-2.678z"/><path id="P" d="M499.84 2304.225h-9.865a2.67 2.67 0 0 0-1.209 5.058l-3.45 3.702 6.287-3.378h8.236a2.68 2.68 0 0 0 2.627-2.678 2.68 2.68 0 0 0-2.627-2.678z"/><path id="Q" d="M703.63 2290.422c-14.535.022-26.302 11.82-26.287 26.354s11.806 26.308 26.34 26.3 26.314-11.792 26.314-26.327a26.33 26.33 0 0 0-26.367-26.327zm0 44.918c-10.264-.04-18.557-8.386-18.53-18.65s8.365-18.566 18.63-18.55 18.575 8.344 18.57 18.6a18.6 18.6 0 0 1-18.671 18.591z"/><path id="R" d="M768.657 2290.422c-14.535.022-26.302 11.82-26.287 26.354s11.806 26.308 26.34 26.3 26.314-11.792 26.314-26.327a26.33 26.33 0 0 0-26.367-26.327zm0 44.918c-10.272-.006-18.595-8.338-18.6-18.6s8.337-18.595 18.6-18.6 18.595 8.337 18.6 18.6a18.6 18.6 0 0 1-18.611 18.591z"/><path id="S" d="M689.057 2428.294h-18.2a3.15 3.15 0 0 0-3.148 3.148v4.188a3.15 3.15 0 0 0 3.148 3.148h6.747l2.36 4.078 2.35-4.078h6.747a3.15 3.15 0 0 0 3.148-3.148v-4.188a3.15 3.15 0 0 0-3.148-3.148z"/><path id="T" d="M648.127 2450.033h-18.2a3.15 3.15 0 0 0-3.148 3.138v4.2a3.15 3.15 0 0 0 3.148 3.138h6.737l2.36 4.078 2.36-4.078h6.737a3.15 3.15 0 0 0 3.148-3.138v-4.2a3.15 3.15 0 0 0-3.149-3.138z"/><path id="U" d="M728.947 2410.832h-18.2a3.15 3.15 0 0 0-3.148 3.148v4.188a3.14 3.14 0 0 0 3.148 3.138h6.747l2.35 4.078 2.36-4.078h6.747a3.14 3.14 0 0 0 3.148-3.138v-4.188a3.15 3.15 0 0 0-3.148-3.148z"/><path id="V" d="M767.278 2428.024h-18.2a3.15 3.15 0 0 0-3.148 3.148v4.188a3.14 3.14 0 0 0 3.148 3.138h6.737l2.36 4.078 2.36-4.078h6.737a3.15 3.15 0 0 0 3.158-3.138v-4.188a3.16 3.16 0 0 0-3.158-3.148z"/><path id="W" d="M403.14 2475.53l-1.7 2.16c-7.436 10-3.558 30.985-8.076 38.73s-15.832 5.527-18.1 17.7-1 24.888-2.9 30.985-9.365 10-10.665 17.15S360 2594.6 360 2594.6l43.14-1.42z"/><path id="X" d="M504.958 2466.204c-2.38-6-4.368-10.995-5.407-14.283.1 4.028-1.44 7.925-4.288 10.775-6.9 6.737-8.846 4.4-8.536 13.753s4 13.6 1.7 21.58-12.354 15.852-11.994 29.665a19.27 19.27 0 0 0 2.459 8.626l-41.6 55.522 59.5-1.75v-79.43z"/><path id="Y" d="M557.052 2467.504s.66 12.634 1.33 15.942a249.97 249.97 0 0 1 4.348 25.557 85.46 85.46 0 0 0 3 15.992s8.086 31.4 8.566-8.046c.17-13.913-1.33-35.782-1.33-35.782l.66-6.627"/><path id="Z" d="M557.212 2473.73s-6.8 1.43-9.125 6.737-2.65 17.56-2.32 20.87a57.78 57.78 0 0 1 0 8l9.3-3"/><path id="a" d="M553.064 2413.87s-9.625 5.627-10.285 13.913a51.18 51.18 0 0 0 1.66 16.232s-3-2.65-3.318 3.318 4.648 10.598 6.637 10.598h2s4.428 9.1 9.745 13.4 10.5 4.5 14.153 3.168 10.625-7.286 11.294-15.242 0-21.2-.67-29.485-2.32-14.253-11.284-17.23-15.283-1-19.93 1.33z"/><path id="b" d="M587.457 2443.096a5.94 5.94 0 1 0-1.76 4.219c1.125-1.116 1.76-2.634 1.76-4.22z"/><path id="c" d="M421.5 2592.482l94.4 9.455s-3.618-2.9-2.2-3.188c2.68-.52 6.647-.88 6.647-.88l-8.326-8.776-90.512 3.4"/><path id="d" d="M456.342 2643.197a.3.3 0 0 1 0-.6l42.5-5.467c.166-.022.318.094.34.26s-.094.318-.26.34l-42.5 5.467z"/><path id="e" d="M453.984 2640.358a.3.3 0 0 1-.3-.27.31.31 0 0 1 .26-.34l42.47-5.467a.33.33 0 0 1 .34.27.3.3 0 0 1-.27.33l-42.5 5.477z"/><path id="f" d="M451.615 2637.5a.3.3 0 0 1 0-.6l42.5-5.467a.31.31 0 0 1 .34.26.3.3 0 0 1-.26.34l-42.5 5.467z"/><path id="g" d="M449.256 2634.67a.3.3 0 1 1-.04-.6l42.5-5.467a.31.31 0 0 1 .34.26.3.3 0 0 1-.27.34l-42.5 5.467z"/><path id="h" d="M446.887 2631.825a.3.3 0 0 1-.3-.27.32.32 0 0 1 .26-.34l42.5-5.467a.31.31 0 0 1 .34.27.3.3 0 0 1-.26.33l-42.5 5.477z"/><path id="i" d="M444.528 2628.984a.3.3 0 1 1-.04-.6l42.5-5.467a.32.32 0 0 1 .34.26.3.3 0 0 1-.27.34l-42.5 5.467z"/><path id="j" d="M439.8 2623.307a.3.3 0 0 1-.3-.27.31.31 0 0 1 .26-.34l42.5-5.467a.32.32 0 0 1 .34.27.3.3 0 0 1-.27.33l-42.5 5.477z"/><path id="k" d="M437.442 2620.458a.3.3 0 0 1 0-.6l42.5-5.467a.31.31 0 0 1 .34.26.3.3 0 0 1-.26.34z"/><path id="l" d="M538.082 2370.272v-19.62h9.595v19.62zm13.863 0v-12.884h9.595v12.884zm13.853-.01v-7.416h9.595v7.416z"/><path id="m" d="M624.45 2466.835h29.166v42.4H624.45z"/><path id="n" d="M664.95 2445.635h29.166v46.927H664.95z"/><path id="o" d="M705.45 2428.234h29.166v31.035H705.45z"/><path id="p" d="M743.56 2445.635h29.166v46.927H743.56z"/><path id="q" d="M477.727 2383.386a5 5 0 1 0-10 0 5 5 0 1 0 10 0z"/><path id="r" d="M548.257 2520.437l-2.1 4.518 13.873 13.543z"/><path id="s" d="M41.294 3.478v18.66l11.764-3.008 3.918-4.518-12.064 2.407.8-16.822z"/><path id="t" d="M602.83 2534.1l-2.34-20.16 10.335 22.77-7.526.34z"/><path id="u" d="M483.698 2601.397l-51.984 6.347 33.493 35.173L521.24 2636z"/></defs><path d="M354.75,0,473,205,354.75,410H118.25L0,205,118.25,0Z" class="T"/><g transform="translate(-360 -2241)" clip-path="url(#A)"><use xlink:href="#M" class="T"/><use xlink:href="#M" opacity=".8" class="W"/><g class="T"><path d="M587.218 2278.488h28.296v6.517h-28.296zm0 9.415h18.6v6.517h-18.6zm0 9.415h10.705v6.517h-10.705z"/></g><g class="c"><path d="M587.218 2278.488h28.296v6.517h-28.296zm0 9.415h18.6v6.517h-18.6zm0 9.417h10.705v6.517h-10.705z"/></g><g class="T"><use xlink:href="#l"/></g><g class="c"><use xlink:href="#l"/></g><g class="U V Z f"><path d="M535.933 2384.585h116.193c3.073.005 6.022-1.212 8.197-3.383s3.397-5.118 3.397-8.19v-95.753c0-3.073-1.222-6.02-3.397-8.19s-5.124-3.388-8.197-3.383H535.933c-3.072-.003-6.02 1.215-8.194 3.386s-3.397 5.116-3.4 8.188v95.753c.003 3.072 1.226 6.018 3.4 8.188s5.122 3.388 8.194 3.386z"/><path d="M609.197 2351.7h41.43m-41.43 4.43h41.43m-41.43 4.427h41.43m-41.43 4.438h41.43"/><path d="M609.197 2369.433h41.43m-113.814-89.976h41.43m-41.43 4.428h41.43m-41.43 4.428h41.43m-41.43 4.427h41.43m-41.43 4.438h41.43"/></g><g class="b"><path d="M645.44 2314.28l7.9 4.148-.9-22.27-18.87 11.9 7.9 4.138-5.937 11.3a4.76 4.76 0 0 0-2.9 1l-10.455-4.858a4.82 4.82 0 0 0-4.818-4.749 4.82 4.82 0 0 0-4.817 4.749 4.75 4.75 0 0 0 .44 2l-13.7 14.853a4.6 4.6 0 0 0-1.349-.22 5.2 5.2 0 0 0-.69.07l-19.7-24.9a4.75 4.75 0 0 0 .42-2 4.82 4.82 0 0 0-4.817-4.749 4.82 4.82 0 0 0-4.817 4.749 5 5 0 0 0 .25 1.459l-22.5 22.9a4.93 4.93 0 0 0-1.649-.3 4.81 4.81 0 0 0-4.798 4.815 4.81 4.81 0 0 0 4.811 4.801 4.81 4.81 0 0 0 4.805-4.808 4.6 4.6 0 0 0-.16-1.179l22.7-23.17a4.79 4.79 0 0 0 1.369.22 5 5 0 0 0 .88-.08l19.6 24.848a4.82 4.82 0 1 0 8.876.62l14.053-15.222a5.29 5.29 0 0 0 .81.08 4.77 4.77 0 0 0 2.679-.82l10.695 5a4.81 4.81 0 1 0 8.756-3z"/><g class="V S e"><path d="M497.782 2336.16l-13.515-21.12-22.327 16.422-20.6-40.75-54.333 34.543v27.906h122.52v-23.458z"/></g></g><use xlink:href="#N" class="T V Z j"/><use xlink:href="#N" class="c"/><use xlink:href="#N" class="U V Z j"/><use xlink:href="#O" class="T"/><use xlink:href="#O" class="c"/><use xlink:href="#P" class="T"/><use xlink:href="#P" class="c"/><g class="V Z f"><g class="U"><path d="M391.964 2384.585h116.193c3.073.005 6.022-1.212 8.197-3.383s3.397-5.118 3.397-8.19v-95.753c0-3.073-1.222-6.02-3.397-8.19s-5.124-3.388-8.197-3.383H391.964c-3.073-.005-6.022 1.212-8.197 3.383s-3.397 5.118-3.397 8.19v95.753c0 3.073 1.222 6.02 3.397 8.19s5.124 3.388 8.197 3.383z"/><path d="M389.196 2278.608h8.006m-8.006 8.715h8.006m-8.006 8.717h8.006m-8.006 8.715h8.006m-8.006 8.715h8.006"/></g><use xlink:href="#Q" class="T"/></g><g class="c"><use xlink:href="#Q"/></g><g class="V f"><use xlink:href="#Q" class="U Z"/><path d="M703.63 2290.422c-7.19-.03-14.077 2.902-19.04 8.106l5.587 5.347c5.855-6.13 15.113-7.53 22.52-3.405s11.087 12.736 8.954 20.94-9.542 13.93-18.02 13.928v7.726c14.54 0 26.325-11.786 26.325-26.324s-11.786-26.325-26.325-26.325z" class="S b"/><use xlink:href="#R" class="T Z"/></g><g class="c"><use xlink:href="#R"/></g><g class="V"><g class="f"><use xlink:href="#R" class="U Z"/><path d="M778.922 2292.5l-3 7.116a18.6 18.6 0 0 1-7.256 35.732v7.726a26.32 26.32 0 0 0 10.266-50.574z" class="S b"/><g class="U Z"><path d="M791.586 2265.684H682.94a14.4 14.4 0 0 0-14.413 14.393v90.127c.01 7.95 6.462 14.4 14.413 14.383h108.646c3.82.005 7.484-1.507 10.187-4.205s4.224-6.36 4.226-10.178v-90.127a14.4 14.4 0 0 0-14.413-14.393z"/><path d="M680.2 2351.7h41.42m-41.42 4.43h41.42m-41.42 4.427h41.42m-41.42 4.438h41.42"/><path d="M680.2 2369.433h41.42m26.987-17.723h41.43m-41.43 4.43h41.43m-41.43 4.427h41.43m-41.43 4.438h41.43m-41.43 4.428h41.43m-74.873-91.545h41.42m-41.42 4.438h41.42m-88.497 268.877h122.62c8.436.006 15.28-6.825 15.292-15.26v-129.148a15.28 15.28 0 0 0-15.292-15.272h-181.1a15.28 15.28 0 0 0-15.292 15.272v85.1"/></g></g><use xlink:href="#m" class="T Z e"/></g><use xlink:href="#m" class="c"/><g class="V Z e"><use xlink:href="#m" class="U"/><use xlink:href="#n" class="T"/></g><use xlink:href="#n" class="c"/><g class="V Z e"><use xlink:href="#n" class="U"/><use xlink:href="#o" class="T"/></g><use xlink:href="#o" class="c"/><g class="V e"><use xlink:href="#o" class="U Z"/><g class="b S"><path d="M624.45 2509.214h29.166v17.4H624.45zm40.5-16.652h29.166v34.063H664.95z"/></g><use xlink:href="#p" class="T Z"/></g><use xlink:href="#p" class="c"/><g class="V e"><use xlink:href="#p" class="U Z"/><g class="b S"><path d="M743.56 2492.562h29.166v34.063H743.56zm-38.1-33.304h29.166v67.367H705.45z"/></g></g><use xlink:href="#S" class="T"/><g transform="translate(667.708 2428.294)" clip-path="url(#B)" class="W"><path d="M21.35 0H3.15A3.15 3.15 0 0 0 .001 3.148v4.188a3.15 3.15 0 0 0 3.148 3.148h6.747l2.36 4.078 2.35-4.078h6.747a3.15 3.15 0 0 0 3.148-3.148V3.148A3.15 3.15 0 0 0 21.351 0z" opacity=".5"/></g><use xlink:href="#S" class="S U V a"/><use xlink:href="#T" class="T"/><g transform="translate(626.788 2450.033)" clip-path="url(#C)" class="W"><path d="M21.34 0H3.148A3.15 3.15 0 0 0 0 3.138v4.2a3.15 3.15 0 0 0 3.148 3.138h6.737l2.36 4.078 2.36-4.078h6.737a3.15 3.15 0 0 0 3.148-3.138v-4.2A3.15 3.15 0 0 0 21.339 0z" opacity=".5"/></g><use xlink:href="#T" class="S U V a"/><use xlink:href="#U" class="T"/><g transform="translate(707.598 2410.832)" clip-path="url(#D)" class="W"><path d="M21.35 0H3.15A3.15 3.15 0 0 0 .001 3.148v4.188a3.14 3.14 0 0 0 3.148 3.138h6.747l2.35 4.078 2.36-4.078h6.747a3.14 3.14 0 0 0 3.148-3.138V3.148A3.15 3.15 0 0 0 21.351 0z" opacity=".5"/></g><use xlink:href="#U" class="S U V a"/><use xlink:href="#V" class="T"/><g transform="translate(745.939 2428.024)" clip-path="url(#E)" class="W"><path d="M21.34 0H3.15A3.15 3.15 0 0 0 .002 3.148v4.188a3.14 3.14 0 0 0 3.148 3.138h6.737l2.36 4.078 2.36-4.078h6.737A3.15 3.15 0 0 0 24.5 7.336V3.148A3.16 3.16 0 0 0 21.342 0z" opacity=".5"/></g><g class="U V"><use xlink:href="#V" class="S a"/><path d="M625.44 2404.875h41.43m-41.43 4.428h41.43m-41.43 4.437h41.43m-41.43 4.43h41.43m-41.43 4.427h41.43" class="Z f"/></g><use xlink:href="#W" class="T"/><use xlink:href="#W" class="W d"/><path d="M556.543 2593.63l-44.3 5.117 13.6 12.594 30.545-2.65" class="S V X Y b"/><g class="S U Y g i"><path d="M526.687 2600.757l28.376-3.098m-26.157 6.197l25.717-2.2m-23.058 4.87l23.498-2.22"/><path d="M529.516 2598.94l8.086 8.816m-2.1-9.106l8.036 8.306m-1.82-9.196l8.026 8.306m-1.38-8.746l6.697 6.977"/></g><path d="M511.245 2488.74c-1.46-.62-8.216-26.917-8.216-26.917l-3.478-9.915s-5.227-17.84-7.226-21.16-10-6-10-6l-3-1.65-12.994-7v.07l-1.87-3.908-22.363-17.98a209.98 209.98 0 0 0 1 8.616c-.06 0-4.658 3-6.3 5.627-.3.5-.58 1.54-1.82 4.288-5 2.58-23.818 12.444-30.045 17.25-7.306 5.627-8.636 9.605-8.306 12.924l.34 5.3s3.118 19 6.367 28.356l-.4-.2-.1 116.562 93.584-3.548.15-86.587c3.2-1.05 6.527-2.28 8.536-3.168l.5.45 4.218 3.088c1.375 1.034 3.154 1.363 4.808.9 1.8-.5.67-2.63-.63-3.328a24.87 24.87 0 0 1-2.8-2.2l-3.9-4.858 7.646 1.3c2.32.33 5.307 1 5.637-2s-7-3.304-9.33-4.304z" class="W"/><g class="S U V X Y"><path d="M442.2 2394.32s1.27 14.093 2.1 16.632c.75 2.3 4.538 14.843 7.856 20.47s7.366 5 8-1.32a164.28 164.28 0 0 0 .31-16.562m-17.506-10.314s-4.408 2.7-6.067 5.337-8.636 27.167-8.636 27.167l13.273.67-11.284 5"/><path d="M430.595 2444.345s11.284 18.56 12.944 20.56a23.08 23.08 0 0 1 2.649 4m-2.32-59.972l9 35.452c3.363 12.252 6.567 27.516 6.567 27.516m.995-55.7l1.33 37.44v16.892m3.348-56.992l8.966 18.23-7.306 2.32 11.284 6.287-10.285 32.144m-1.33-56.32l12.944 6.957m10.295 20.2l1.66 31.145m-56.433-61.63s-22.57 11.594-29.865 17.23-8.636 9.606-8.306 12.93m6.308 33.46v115.963m58.42-87.468v83.17m-50.315-146.778s7.616 2.67 10.995 9.135m-6.048-9.515s6.857 2.67 9.905 9.135m-14.473 97.302h25.267v4.958h-24.367"/></g><use xlink:href="#X" class="T"/><use xlink:href="#X" class="W d"/><path d="M496.822 2552.142v34.513" class="S U V X Y"/><path d="M477.42 2366.814c2-.33 11.944-6.627 10.285-12.924s-15.622-13.924-26.576-10.264a52.36 52.36 0 0 0-17.93 10.265s-7.3 0-10 3-.66 7.616 1 10.935c1.44 2.87 1.38 10.475 1.34 12.444a.48.48 0 0 0-.26.06 4.52 4.52 0 0 0-2.219 2.939c-.45 2 .38 4.668 2.4 7.686 1.365 2.303 3.802 3.758 6.477 3.868h0a12.72 12.72 0 0 1 2.09 3.338c.84 2 9.205 14.833 13.993 15.2.7.06 1.35.08 2 .08 4.128 0 7.126-1.1 8.736-3.248 2.13-2.83 7.406-14.233 8.066-19.78.1-1 .17-2.25.2-3.748a5.3 5.3 0 0 0 0-6.567c-.1-5.867-.42-11.944-.5-13.343a2 2 0 0 0 .9.06z" class="W"/><g class="V"><g class="S U X Y"><path d="M476.063 2366.484s1 18.22.33 23.858-6 16.892-8 19.55-6 3.308-10.285 3-12.614-12.594-13.613-14.913c-.554-1.34-1.34-2.57-2.32-3.638 0 0-3.648.33-6.307-3.648s-3.648-8-.33-9.945"/><path d="M461.8 2384.375s2.33-4 4.648-1.66l1.66 10.6-5 1.33.66 5.3"/></g><ellipse cx="456.813" cy="2384.375" rx="4.978" ry="4.968" class="S T X"/><ellipse cx="456.813" cy="2384.375" rx="4.978" ry="4.968" opacity=".4" class="W a"/><use xlink:href="#q" class="S T X"/><use xlink:href="#q" opacity=".4" class="W Z a"/><g class="U S X Y"><path d="M451.834 2384.375l-9.955.66m10.035-7.567s2.67-2.66 7.626-1.14m9.146-.378s5-2.66 6.477.76"/></g></g><path d="M445.857 2367.144l3.318 7.3c.66 1-3.318 5.627-3.318 5.627v4.638l-4 .33-4-3.638-2.32-.67s.33-9.605-1.33-12.914-3.648-8-1-10.935 10-3 10-3c5.237-4.58 11.334-8.07 17.935-10.266 10.995-3.648 24.888 4 26.547 10.265s-8.266 12.6-10.265 12.934-5-3.638-8-3.638h-4.648c-3.318 0-3.648-.34-7.306-.34s-11.615 4.307-11.615 4.307z" class="b"/><g class="U g S Y i"><path d="M450.015 2361.706s5.667-3.138 8.506-8.486-6.617-2.83-9.135.63 3.468 2.2 3.468 2.2m-6.997 11.093s-3.4 3.678-7.806 4m9.445.627s-6 2.83-9.135 2.83m-.001 2.5s4.728 1 7.246 0m9.447-14.775s2.52-.3 10.7-3.138 10.995-6 5.667-10.065"/></g><path d="M619.57 2540.027s-13.044-34.693-16.392-38.03-20.13-13.563-20.13-13.563l-1.35-2.3-.82-2.8s-1-4.228-3.878-6.317l-.23-.5-19.8-8.476.35 5.777c-2.34.85-7.526 3.128-9.305 7.186-1.16 2.63-1.82 7-2.15 11.1l-.8.6.3-1.1s-21.9 12.284-22.9 14.283c-1.28 1.68-4.588 12.444-4.588 12.444l-6.927 21.77c-5.117 15.712-10.065 31.414-10.385 33.923v.12c-.33 4.308 16.122 20.2 16.122 20.2h.22l2 2v-.83c1.4 2.83 3.658 7 5.457 6.117 1.48-.73 1-3.3-.2-6.647 1.5 2.27 3.2 3.918 4.558 3.258 2.35-1.16 1.18-5.167-1.18-10.9a3.61 3.61 0 0 0-2.259-2.069l2.32-.26c.8 3.668 2.56 6.847 4.548 6.427s2.3-3 1.9-7.386c.2 0 .47-.6.67-.62.88 3.088 2.23 5.837 3.928 5.477 1.87-.4 2.38-2.26 2.16-6 0-1.4-.1-1.84-.15-2.72l4.718 2.92c1.33 1 11.444-1.16 11.444-1.16 14.773-4.778 38.4-5 53.643-15.212 10.186-6.862 9.116-26.693 9.116-26.693zm-93.114 28.376l4-26.307 1.6 23.988-.47 5.917z" class="W"/><path d="M522.53 2505.315l23.8-13.993s1.5-12.754 4.528-14.053c0 0 4.178-3.648 8.926-2.93 2.72.4 4.728-3 6.267-8.916l-.28-35.982c-1-4.608-2.08-8.346-2.44-9.805l-11.217-4.702s-2.4-8.1-14.733-9.905-25.56 11.405-27.066 20.415 7.216 18.6 3.908 23.718-17.142 12.6-20.75 21.3-2.7 14.713-2.7 14.713 9.925 14.1 7.216 18.9-18.64 9.305-18.34 23.418c.28 13.074 13.223 22.28 27.566 23.988z" class="b"/><g class="U g S Y i"><path d="M548.566 2417.338s-8.5-9.735-19.2-6.6-14.8 14.463-12.594 20.12 7.236 10.365 3.458 18.85-13.223 9.745-18 19.5-3.458 12.894-3.458 12.894m44.114-56.587s-7.866.94-7.866 6 4.408 7.536 5 13.823-1.26 8.806-6 16.662-5 11.944-1.57 17.3 5.667 14.143 1.26 17.28m11.068-77.34s-9.445-5-16.992-.3 2.52 14.143 3.778 22.94-5 15.093-13.533 24.518a26.41 26.41 0 0 0-6.3 21.06m-.636 11s2.2 4.708-3.788 10.995-18.9 7.866-22 17.3 3.1 14.464 3.1 14.464"/></g><use xlink:href="#Y" class="W"/><g transform="translate(557.052 2467.504)" clip-path="url(#F)" class="T"><path d="M13.524 8.076L1.33 15.942.55 2.66s8.146 4.818 12.974 5.417zm2.408 5.547s-.4 22.55-1.5 32.084a45.14 45.14 0 0 0 1.839 17.991s1.53-34.883-.34-50.075z" opacity=".3"/></g><use xlink:href="#Y" class="S U V X Y"/><use xlink:href="#r" class="T"/><use xlink:href="#r" class="W d"/><path d="M532.096 2530.423s4.638-10.715 6.1-8.276-7.806 12.9-4.148 14.363 9-3.9 7.316.48-4.628 9.5-4.628 11.694 1 23.858 1 23.858l.25 1.46-2.93 2s-3.168-3.168-3.168-5.847-.5-13.393-.5-15.822-1.14-10.995-1.14-10.995z" class="T"/><g class="W"><path d="M532.096 2530.423s4.638-10.715 6.1-8.276-7.806 12.9-4.148 14.363 9-3.9 7.316.48-4.628 9.5-4.628 11.694 1 23.858 1 23.858l.25 1.46-2.93 2s-3.168-3.168-3.168-5.847-.5-13.393-.5-15.822-1-11.594-1-11.594z" class="d"/><use xlink:href="#Z"/></g><g transform="translate(545.659 2473.731)" clip-path="url(#G)" class="T"><path d="M12.83 8.416a12.3 12.3 0 0 0-7.636 2.889C1.265 14.393.855 19.96.855 19.96s-1.24-6.6 1.24-12.364 9.455-7.6 9.455-7.6z" opacity=".3"/></g><g class="S U V X Y"><use xlink:href="#Z"/><path d="M557.382 2506.974l-10.285 11.594s7.636 11.924 11.284 15.9m25.23-1.656l5.307-20.2-9.3-7 7.306-2.32-6-20.54s-1.1-5.157-5-6.817m-13.543 21.095s3.318 4 7 3.318 3.648-2.65 3.648-2.65"/></g><g transform="translate(500.626 2491.072)" clip-path="url(#H)"><path d="M29.285 10.135s-5.367 5.847-5.127 7.306 6.587 4.138 5.127 5.837-5.127-2.43-5.857-1.7-14.143 46.5-12.924 47.207 4.148-1.95 4.878-.24-12.194 6.567-9.515 8 9.265-1.7 8-1.22-4.878 5.107-3.9 7.056S21.385 94.2 21.385 94.2a2.57 2.57 0 0 0-1.429 3.268c.278 1.256.985 2.376 2 3.168 0 0-2.8-2.3-3.228.2a25.8 25.8 0 0 0-.43 3.948L11.45 98C5.874 92.323 1.336 87.005-.003 82.438c0 0-.24.67 1.23-4.688S17.32 26.625 17.32 26.625s3.308-10.775 4.578-12.444 7.4-4.046 7.4-4.046z" class="T"/><path d="M29.285 10.135s-5.367 5.847-5.127 7.306 6.587 4.138 5.127 5.837-5.127-2.43-5.857-1.7-14.143 46.5-12.924 47.207 4.148-1.95 4.878-.24-12.194 6.567-9.515 8 9.265-1.7 8-1.22-4.878 5.107-3.9 7.056S21.385 94.2 21.385 94.2a2.57 2.57 0 0 0-1.429 3.268c.278 1.256.985 2.376 2 3.168 0 0-2.8-2.3-3.228.2l-.65 4.138-6.627-7C4.534 91.06.257 85.613-.003 82.405c0 0-.8 1.52 1.23-4.688L17.32 26.592s3.308-10.775 4.578-12.444 7.4-4.013 7.4-4.013z" class="W d"/><use xlink:href="#s" class="T"/><use xlink:href="#s" class="W d"/></g><g class="V S X"><g class="U Y"><path d="M545.438 2491.072s-21.9 12.254-22.9 14.243-21.57 63.968-21.9 68.256 16.262 20.54 16.262 20.54m16.265-71.894l-6.637 45.717"/><path d="M533.814 2519.558l1-4.638m-27.217 55.672s4.318-6 10.625-5.637 15.592 9.275 15.592 9.275"/><path d="M509.586 2563.626c2.866-2.576 7.124-2.85 10.295-.66"/></g><g class="W"><path d="M540.394 2577.43a3.54 3.54 0 0 0-5-2.749 2.64 2.64 0 0 0-1.45 2.171c-.37 3.648 1.87 12.614 4.868 11.994 2.488-.56 2.408-5.28 1.582-11.416z"/><path d="M533.714 2580.078a3.54 3.54 0 0 0-5-2.739 2.61 2.61 0 0 0-1.449 2.159c-.37 3.648 1.87 12.614 4.868 11.994 2.53-.56 2.45-5.268 1.58-11.414zm-6.097 6.677a3.55 3.55 0 0 0-5.557-1.419 2.61 2.61 0 0 0-.87 2.459c.54 3.618 4.938 11.8 7.666 10.415 2.35-1.2 1.05-6.038-1.24-11.455z"/><path d="M523.32 2593.15a2.64 2.64 0 0 0-4.148-1.059 2 2 0 0 0-.66 1.839c.4 2.7 3.688 8.786 5.737 7.776 1.76-.865.83-4.258-.93-8.556z"/></g><g class="U Y"><path d="M540.9 2579.848s2.6 2.8 4.528 3.408c1.6.5 9.855-1 9.855-1m-2.55 6.228l-9 2c-3.693.68-7.636 1-7.636 1s-2.66 3.318-4.648 3.318m51.67-106.908s16.782 10.235 20.13 13.573 15.1 34.643 15.1 34.643m-19.278-25.877l3.758 27.137"/></g></g><use xlink:href="#t" class="T"/><use xlink:href="#t" class="W d"/><g class="U V S X Y"><path d="M538.922 2524.166l-6.5 10.665 5.507-4.358m-7.314 12.913l1.35 22.5c0 2.7-.38 6.257-.38 6.257"/></g><path d="M544.44 2444.015z" class="b"/><use xlink:href="#a" class="W"/><g transform="translate(541.106 2411.037)" clip-path="url(#I)" class="T"><path d="M3.333 32.98s-3-2.65-3.318 3.318S4.663 46.9 6.652 46.9h2s4.428 9.086 9.745 13.4l2.28 1.57a17.24 17.24 0 0 0 2.429 1.219c-1.8-2.2-5.677-7.266-7.506-11.824-2.42-6-3-18.66-2.42-26.787s4.828-11.444 4.828-11.444l-6-.3c-.9 0-5.537 6.917-10.255 10.885z" opacity=".3"/></g><g class="V"><g class="S U X"><use xlink:href="#a"/><path d="M568.437 2444.286s2.78-4.748 5.547-2l2 9.425-4 .82.38 5.887" class="Y"/></g><ellipse cx="562.5" cy="2444.285" rx="5.937" ry="5.927" class="S T X"/><ellipse cx="562.5" cy="2444.285" rx="5.937" ry="5.927" opacity=".4" class="W a"/><use xlink:href="#b" class="S T X"/><use xlink:href="#b" opacity=".4" class="W Z a"/><g class="U S X Y"><path d="M556.563 2444.285l-11.884.8m12.983-8.725a6 6 0 0 1 5.867-2.089m12.594-.42a5 5 0 0 1 6.087 1"/></g></g><path d="M584.268 2429.773c-.66-8.286-2.32-14.253-11.284-17.23s-15.272-1-19.92 1.33c0 0-9.625 5.627-10.285 13.913a51.18 51.18 0 0 0 1.66 16.232s2.66 2.65 3.318-1-1.33-9.615 8-16.572 22.57-3.638 27.217 3c.543.435 1.012.955 1.4 1.54.006-.12-.084-1.06-.094-1.2z" class="b"/><g class="V S X"><g class="U Y"><path d="M439.22 2466.544s-8-1.32-13.993 2.66c-3.487 2.32-5.302 6.458-4.648 10.595m1.38-12.585s-4 4.638-4 8.616m-20.897-27.507s4 24.188 7.636 31.474 13.993 14.253 21.9 17.56 45.138 8.616 46.467 8.286-6.307-7.286-4.648-15.9c.83-4.278 6.637-8.616 6.637-8.616l-22.57-9.605c-6.307-2.605-13.273-5-13.273-5l-13.273-11.924a136.31 136.31 0 0 0-12.286-8.615"/></g><g class="W"><path d="M506.818 2493.2l4.338 5.4c.877.805 1.813 1.543 2.8 2.2 1.3.7 2.42 2.82.63 3.328a5.46 5.46 0 0 1-4.808-.9l-4.218-3.088-3.528-3.188 2.56-4.6z"/><path d="M475.063 2481.127l13.613 3c3.318.68 20.25 3.648 22.57 4.638s9.625 1.33 9.3 4.308-3.318 2.32-5.637 2-9.635-1.65-9.635-1.65 2.33 4.308 1.67 5.3-15.6 6.3-18.6 6.3-5-5.307-6.307-7l-4-5-8-3.638" class="Y"/></g><g class="U Y"><path d="M505.268 2493.4l-2.32-3.318m-29.874 15.573a15.43 15.43 0 0 0 5-12.594m12.6 4.3l2.66 6.297m3.977-8.957l2.66 6.957"/></g><path d="M561.04 2543.086v77.86L664.93 2615v-77.2z" class="b"/><path d="M664.93 2537.8l-5.317-3-102.9 4.978v75.872l4.318 5.3v-77.864z" class="W"/><path d="M556.723 2539.778l4.308 3.308" class="U Y"/><path d="M602.53 2588.484v52.684l28.546-2v-53.014z" class="b"/></g><g class="S X Y"><path d="M601.64 2618.3v-29.825l29.435-2.32.08 30.295" class="U g"/><path d="M602.53 2641.168l-14.943-13.253 14.943-.67" class="V W"/></g><use xlink:href="#c" class="T d"/><use xlink:href="#c" class="W d"/><g class="U V S X Y"><path d="M512.085 2589.134l-147.327 5.247m299.462-8.416l99.3 61.3"/></g><use xlink:href="#u" class="T"/><g class="W"><use xlink:href="#u" class="d"/><path d="M430.555 2615.24l46.207-5.767 33.5 34.013-53.144 7.5z"/></g><g class="T"><path d="M458.7 2646.035a.3.3 0 1 1 0-.6l42.5-5.467a.32.32 0 0 1 .34.26.3.3 0 0 1-.27.34l-42.5 5.467z"/><use xlink:href="#d"/><use xlink:href="#e"/><use xlink:href="#f"/><use xlink:href="#g"/><use xlink:href="#h"/><use xlink:href="#i"/><path d="M442.16 2626.145a.3.3 0 0 1 0-.6l42.5-5.467c.166-.022.318.094.34.26s-.094.318-.26.34l-42.5 5.467z"/><use xlink:href="#j"/><use xlink:href="#k"/></g><g class="W d"><path d="M458.7 2646.035a.3.3 0 0 1 0-.6l42.5-5.467a.32.32 0 0 1 .34.26.3.3 0 0 1-.27.34l-42.5 5.467zm-2.367-2.838a.3.3 0 0 1 0-.6l42.5-5.467c.166-.022.318.094.34.26s-.094.318-.26.34l-42.5 5.467z"/><use xlink:href="#e"/><path d="M451.615 2637.5a.3.3 0 0 1 0-.6l42.5-5.467a.31.31 0 0 1 .34.26.3.3 0 0 1-.26.34l-42.5 5.467z"/><use xlink:href="#g"/><use xlink:href="#h"/><use xlink:href="#i"/><path d="M442.16 2626.145a.3.3 0 0 1 0-.6l42.5-5.467c.166-.022.318.094.34.26s-.094.318-.26.34l-42.5 5.467zm-2.36-2.84a.3.3 0 0 1-.3-.27.31.31 0 0 1 .26-.34l42.5-5.467a.32.32 0 0 1 .34.27.3.3 0 0 1-.27.33l-42.5 5.477z"/><use xlink:href="#k"/></g><path d="M482.42 2424.795s8 2.66 10 6 7.136 21.12 7.136 21.12" class="S U V X Y"/></g><g filter="url(#J)" class="W"><rect width="326" height="67" rx="5" transform="translate(274 145)"/></g><g filter="url(#K)"><g transform="translate(222 50)" fill="#ebd0ffee" stroke="#7300cc"><rect width="169" height="75" rx="5" stroke="none"/><rect x=".5" y=".5" width="168" height="74" rx="4.5" class="U"/></g></g><g filter="url(#L)"><g transform="translate(411 50)" fill="#ffede5" stroke="#f26522"><rect width="169" height="75" rx="5" stroke="none"/><rect x=".5" y=".5" width="168" height="74" rx="4.5" class="U"/></g></g><path d="M276.72 75q-.185-.578-.4-1.187l-.42-1.213h-4.334l-.42 1.216q-.2.6-.393 1.184h-2.592q.626-1.792 1.188-3.312.562-1.52 1.1-2.864.536-1.344 1.058-2.552.522-1.208 1.083-2.36h2.367q.544 1.152 1.077 2.36.533 1.208 1.067 2.552.54 1.344 1.1 2.864.56 1.52 1.192 3.312zm-3-8.576q-.084.242-.244.657-.16.415-.366.96-.206.545-.46 1.2-.253.655-.516 1.374h3.166q-.255-.72-.493-1.378-.238-.657-.453-1.2-.215-.545-.377-.96-.162-.415-.257-.654zm14.18-2.64a6.87 6.87 0 0 1 3.824.888 3.09 3.09 0 0 1 1.328 2.76 3.12 3.12 0 0 1-.536 1.9 3.53 3.53 0 0 1-1.544 1.144q.336.416.7.952.364.536.728 1.12.36.584.7 1.216.34.632.628 1.236h-2.8l-.618-1.1q-.313-.56-.642-1.088-.33-.528-.65-1-.32-.472-.642-.856h-1.234V75h-2.5V64.072a14.15 14.15 0 0 1 1.688-.224q.876-.064 1.56-.064zm.144 2.128q-.272 0-.488.016l-.408.032v3.008h.7a4.25 4.25 0 0 0 2.016-.352 1.27 1.27 0 0 0 .608-1.2 1.22 1.22 0 0 0-.616-1.16 3.81 3.81 0 0 0-1.808-.344zm6.32 4.944c-.014-.67.103-1.335.344-1.96a4.2 4.2 0 0 1 .9-1.4 3.76 3.76 0 0 1 1.292-.848c.477-.2.986-.288 1.5-.288a3.72 3.72 0 0 1 2.832 1.1c.752.9 1.125 2.055 1.04 3.224q0 .208-.016.456-.016.248-.032.44h-5.408c.043.47.294.897.684 1.164.486.3 1.056.462 1.632.432a6.89 6.89 0 0 0 1.288-.12 4.86 4.86 0 0 0 1.032-.3l.324 1.944a3.29 3.29 0 0 1-.512.192 6.7 6.7 0 0 1-.712.168q-.392.072-.84.12a8.4 8.4 0 0 1-.9.048 5.3 5.3 0 0 1-1.972-.34 3.85 3.85 0 0 1-1.392-.92 3.65 3.65 0 0 1-.816-1.384 5.48 5.48 0 0 1-.264-1.728zm5.6-.912a2.46 2.46 0 0 0-.1-.592 1.48 1.48 0 0 0-.272-.512 1.45 1.45 0 0 0-.464-.368 1.51 1.51 0 0 0-.7-.144 1.6 1.6 0 0 0-.688.136 1.42 1.42 0 0 0-.48.36 1.61 1.61 0 0 0-.3.52 3.41 3.41 0 0 0-.152.6zm3.744.848a4.96 4.96 0 0 1 .3-1.72 4.11 4.11 0 0 1 .856-1.408c.383-.407.846-.73 1.36-.952.577-.243 1.198-.363 1.824-.352.414-.003.827.037 1.232.12a6 6 0 0 1 1.088.344l-.5 1.9a6.01 6.01 0 0 0-.736-.224c-.295-.07-.597-.102-.9-.1a1.89 1.89 0 0 0-1.576.656 2.7 2.7 0 0 0-.52 1.728 2.8 2.8 0 0 0 .488 1.76 2.05 2.05 0 0 0 1.7.624c.3-.002.62-.03.928-.08s.62-.134.912-.256l.336 1.952a5.6 5.6 0 0 1-1.04.3 6.86 6.86 0 0 1-1.36.14 5.18 5.18 0 0 1-1.988-.344 3.74 3.74 0 0 1-1.368-.936 3.65 3.65 0 0 1-.784-1.4 5.94 5.94 0 0 1-.248-1.752zm7.6.064c-.014-.67.103-1.335.344-1.96a4.2 4.2 0 0 1 .9-1.4 3.76 3.76 0 0 1 1.288-.848c.477-.2.986-.288 1.5-.288a3.72 3.72 0 0 1 2.832 1.1c.752.9 1.125 2.055 1.04 3.224q0 .208-.016.456-.016.248-.032.44h-5.404c.043.473.295.9.688 1.168.486.3 1.056.462 1.632.432a6.89 6.89 0 0 0 1.288-.12 4.86 4.86 0 0 0 1.032-.3l.32 1.94a3.29 3.29 0 0 1-.512.192 6.7 6.7 0 0 1-.708.164q-.392.072-.84.12a8.4 8.4 0 0 1-.9.048 5.3 5.3 0 0 1-1.976-.336 3.85 3.85 0 0 1-1.392-.92 3.65 3.65 0 0 1-.816-1.384 5.48 5.48 0 0 1-.264-1.728zm5.6-.912a2.46 2.46 0 0 0-.1-.592 1.48 1.48 0 0 0-.272-.512 1.45 1.45 0 0 0-.464-.368 1.51 1.51 0 0 0-.7-.144 1.6 1.6 0 0 0-.688.136 1.42 1.42 0 0 0-.48.36 1.61 1.61 0 0 0-.3.52 3.28 3.28 0 0 0-.152.6zm9.536.784q0-2.3-1.7-2.3c-.246.001-.5.035-.728.1a2.07 2.07 0 0 0-.584.24V73.1q.176.032.448.056.272.024.592.024c.576.037 1.133-.218 1.48-.68a2.92 2.92 0 0 0 .496-1.772zm2.432.064a5.32 5.32 0 0 1-.3 1.824 3.85 3.85 0 0 1-.856 1.392 3.76 3.76 0 0 1-1.368.892 5.17 5.17 0 0 1-1.852.308q-.432 0-.9-.04-.468-.04-.928-.1-.464-.068-.88-.156-.416-.088-.736-.184v-11.76l2.384-.384v4.192c.268-.118.546-.2.832-.272.305-.067.616-.1.928-.1a3.8 3.8 0 0 1 1.584.312 3.1 3.1 0 0 1 1.152.888 3.99 3.99 0 0 1 .7 1.384 6.31 6.31 0 0 1 .244 1.804zm1.44.064c-.014-.67.103-1.335.344-1.96a4.2 4.2 0 0 1 .9-1.4 3.76 3.76 0 0 1 1.288-.848c.477-.2.986-.288 1.5-.288a3.72 3.72 0 0 1 2.832 1.1c.752.9 1.125 2.055 1.04 3.224q0 .208-.016.456-.016.248-.032.44h-5.404c.043.473.295.9.688 1.168.486.3 1.056.462 1.632.432a6.89 6.89 0 0 0 1.288-.12 4.86 4.86 0 0 0 1.032-.3l.32 1.94a3.29 3.29 0 0 1-.512.192 6.7 6.7 0 0 1-.716.164q-.392.072-.84.12a8.4 8.4 0 0 1-.9.048 5.3 5.3 0 0 1-1.976-.336 3.85 3.85 0 0 1-1.392-.92 3.65 3.65 0 0 1-.816-1.384 5.48 5.48 0 0 1-.256-1.728zm5.6-.912a2.46 2.46 0 0 0-.1-.592 1.48 1.48 0 0 0-.272-.512 1.45 1.45 0 0 0-.464-.368 1.51 1.51 0 0 0-.7-.144 1.6 1.6 0 0 0-.688.136 1.42 1.42 0 0 0-.48.36 1.61 1.61 0 0 0-.3.52 3.28 3.28 0 0 0-.152.6zm9.22-1.244q-.32-.08-.752-.168c-.306-.06-.616-.1-.928-.088-.18.002-.358.016-.536.04a3.14 3.14 0 0 0-.472.088V75h-2.384v-7.968a14.32 14.32 0 0 1 1.512-.424 8.71 8.71 0 0 1 1.944-.2q.192 0 .464.024.272.024.544.064.272.04.544.1a2.56 2.56 0 0 1 .464.136zM474.72 75q-.185-.578-.4-1.187l-.42-1.213h-4.334l-.42 1.216q-.2.6-.393 1.184h-2.592q.626-1.792 1.188-3.312.562-1.52 1.1-2.864.536-1.344 1.058-2.552.522-1.208 1.083-2.36h2.367q.544 1.152 1.077 2.36.533 1.208 1.067 2.552.54 1.344 1.1 2.864.56 1.52 1.192 3.312zm-3-8.576q-.084.242-.244.657-.16.415-.366.96-.206.545-.46 1.2-.253.655-.516 1.374h3.166q-.255-.72-.493-1.378-.238-.657-.453-1.2-.215-.545-.377-.96-.162-.415-.257-.654zm14.264-2.64a6.94 6.94 0 0 1 3.808.872 3.16 3.16 0 0 1 1.329 2.856 3.2 3.2 0 0 1-1.344 2.888 6.96 6.96 0 0 1-3.84.888h-.784V75h-2.5V64.072a14.12 14.12 0 0 1 1.728-.224q.92-.064 1.604-.064zm.16 2.128q-.272 0-.536.016-.264.016-.456.032v3.2h.784a4.25 4.25 0 0 0 1.952-.352c.456-.27.713-.78.657-1.308.01-.266-.048-.53-.168-.768-.113-.203-.28-.372-.48-.488a2.16 2.16 0 0 0-.76-.256 6.22 6.22 0 0 0-.992-.076zm9.557 7.424q.352 0 .672-.016a4.92 4.92 0 0 0 .512-.048v-1.808q-.144-.032-.432-.064a4.81 4.81 0 0 0-.528-.032 4.79 4.79 0 0 0-.632.04 1.65 1.65 0 0 0-.52.152.89.89 0 0 0-.352.3c-.1.144-.134.3-.128.48a.82.82 0 0 0 .376.776 2.08 2.08 0 0 0 1.032.22zm-.2-6.976a5.52 5.52 0 0 1 1.76.24c.427.134.814.37 1.128.688a2.53 2.53 0 0 1 .6 1.088c.123.464.184.943.18 1.424v4.96q-.512.112-1.424.264c-.73.1-1.47.16-2.208.152a7 7 0 0 1-1.48-.144 3.21 3.21 0 0 1-1.144-.472 2.16 2.16 0 0 1-.736-.856 2.95 2.95 0 0 1-.256-1.3 2.45 2.45 0 0 1 .3-1.248 2.28 2.28 0 0 1 .792-.816 3.58 3.58 0 0 1 1.136-.44c.437-.092.882-.137 1.328-.136a7.54 7.54 0 0 1 .824.04 3.67 3.67 0 0 1 .584.1v-.224a1.32 1.32 0 0 0-.368-.976 1.78 1.78 0 0 0-1.28-.368 8.15 8.15 0 0 0-1.2.088 5.15 5.15 0 0 0-1.024.248l-.3-1.92q.208-.064.52-.136.312-.072.668-.116.368-.056.776-.1.408-.044.824-.04zm7.86 4.16q0 2 1.616 2a2.39 2.39 0 0 0 .688-.1 2.64 2.64 0 0 0 .544-.224v-3.804q-.176-.032-.416-.056-.24-.024-.56-.024a1.64 1.64 0 0 0-1.408.624 2.58 2.58 0 0 0-.464 1.584zm5.232 3.424a4.05 4.05 0 0 1-1.048 3.064 4.55 4.55 0 0 1-3.24 1 8.78 8.78 0 0 1-1.536-.136 9.57 9.57 0 0 1-1.424-.36l.416-2a6.86 6.86 0 0 0 1.176.352 6.92 6.92 0 0 0 1.4.128c.523.054 1.046-.108 1.448-.448a1.61 1.61 0 0 0 .424-1.152v-.3a3.84 3.84 0 0 1-.792.264 4.21 4.21 0 0 1-.888.088 3.41 3.41 0 0 1-2.672-1.032 4.17 4.17 0 0 1-.928-2.888 4.73 4.73 0 0 1 .288-1.688 3.59 3.59 0 0 1 .84-1.3 3.75 3.75 0 0 1 1.352-.84c.58-.207 1.192-.308 1.808-.3q.432 0 .888.04.456.04.9.1.448.064.856.152.408.088.728.184zm5.456-.608q.352 0 .672-.016a4.92 4.92 0 0 0 .512-.048v-1.808q-.144-.032-.432-.064a4.81 4.81 0 0 0-.528-.032 4.79 4.79 0 0 0-.632.04 1.65 1.65 0 0 0-.52.152.89.89 0 0 0-.352.3c-.1.144-.134.3-.128.48a.82.82 0 0 0 .376.776 2.08 2.08 0 0 0 1.032.22zm-.192-6.976a5.52 5.52 0 0 1 1.76.24c.427.134.814.37 1.128.688a2.53 2.53 0 0 1 .6 1.088 5.43 5.43 0 0 1 .176 1.424v4.96q-.512.112-1.424.264c-.73.1-1.47.16-2.208.152a7 7 0 0 1-1.48-.144 3.21 3.21 0 0 1-1.144-.472 2.16 2.16 0 0 1-.736-.856 2.95 2.95 0 0 1-.256-1.3 2.45 2.45 0 0 1 .3-1.248 2.28 2.28 0 0 1 .792-.816 3.58 3.58 0 0 1 1.136-.44c.437-.092.882-.137 1.328-.136a7.54 7.54 0 0 1 .824.04 3.67 3.67 0 0 1 .584.1v-.224a1.32 1.32 0 0 0-.368-.976 1.78 1.78 0 0 0-1.28-.368 8.15 8.15 0 0 0-1.2.088 5.15 5.15 0 0 0-1.024.248l-.3-1.92q.208-.064.52-.136.312-.072.68-.128.368-.056.776-.1.408-.044.816-.028zm10.896 2.34q-.32-.08-.752-.168c-.306-.06-.616-.1-.928-.088-.18.002-.358.016-.536.04a3.14 3.14 0 0 0-.472.088V75h-2.384v-7.968a14.32 14.32 0 0 1 1.512-.424 8.71 8.71 0 0 1 1.944-.2q.192 0 .464.024.272.024.544.064.272.04.544.1a2.56 2.56 0 0 1 .464.136z" fill="#666"/><path d="M248.792 93.176a10.31 10.31 0 0 1 5.736 1.332 4.63 4.63 0 0 1 1.992 4.14 4.68 4.68 0 0 1-.8 2.844 5.3 5.3 0 0 1-2.32 1.716q.5.624 1.056 1.428.556.804 1.092 1.68.54.876 1.044 1.824.504.948.936 1.86h-4.185l-.928-1.656q-.47-.84-.964-1.632-.494-.792-.976-1.5-.48-.712-.963-1.284h-1.848V110h-3.744V93.608a21.14 21.14 0 0 1 2.532-.336q1.308-.096 2.34-.096zm.216 3.192q-.408 0-.732.024l-.612.048v4.512h1.056a6.37 6.37 0 0 0 3.024-.528 1.91 1.91 0 0 0 .912-1.8 1.83 1.83 0 0 0-.924-1.74c-.852-.393-1.787-.57-2.724-.516zm14.304 13.392a11.23 11.23 0 0 1-2.844-.54l-1.62-.66 1.032-2.76a12.65 12.65 0 0 0 2 .744 8.83 8.83 0 0 0 2.46.336 3.6 3.6 0 0 0 2-.4 1.3 1.3 0 0 0 .54-1.116 1.37 1.37 0 0 0-.216-.78 2.11 2.11 0 0 0-.616-.584 6.14 6.14 0 0 0-1.032-.516q-.624-.252-1.44-.54-.792-.288-1.548-.636a6.25 6.25 0 0 1-1.368-.852c-.4-.34-.746-.76-.984-1.236a3.84 3.84 0 0 1-.372-1.764 5.1 5.1 0 0 1 .228-1.524c.15-.485.4-.936.708-1.332a4.06 4.06 0 0 1 1.248-1.02c.57-.3 1.187-.507 1.824-.612v-2.592h3.024v2.5c.725.062 1.443.182 2.148.36a9.46 9.46 0 0 1 1.428.48l-.744 2.88a11.07 11.07 0 0 0-1.836-.576 9.75 9.75 0 0 0-2.2-.24 2.76 2.76 0 0 0-1.656.384 1.21 1.21 0 0 0-.5 1.008 1.32 1.32 0 0 0 .156.66 1.44 1.44 0 0 0 .492.492 5.32 5.32 0 0 0 .828.42q.492.2 1.188.445a17.72 17.72 0 0 1 1.956.842 7.3 7.3 0 0 1 1.56 1.045 4.25 4.25 0 0 1 1.032 1.379 4.3 4.3 0 0 1 .372 1.845 4.86 4.86 0 0 1-.216 1.427 3.7 3.7 0 0 1-.72 1.307 4.4 4.4 0 0 1-1.308 1.03 6.34 6.34 0 0 1-1.98.624v2.928h-3.024zm19.56.6c-.46-.001-.917-.03-1.372-.084q-.72-.084-1.392-.228-.672-.144-1.22-.312a7.05 7.05 0 0 1-.864-.312l.7-2.976q.624.264 1.6.564a8.29 8.29 0 0 0 2.412.3 3.82 3.82 0 0 0 2.424-.624 2.05 2.05 0 0 0 .768-1.68 2.03 2.03 0 0 0-.276-1.092 2.11 2.11 0 0 0-.756-.72 3.36 3.36 0 0 0-1.14-.384 8.7 8.7 0 0 0-1.4-.108h-1.404v-2.88h1.584c.342 0 .684-.034 1.02-.1a2.72 2.72 0 0 0 .876-.324 1.7 1.7 0 0 0 .612-.624c.163-.307.24-.652.228-1a1.57 1.57 0 0 0-.192-.792 1.85 1.85 0 0 0-.492-.552c-.212-.15-.45-.26-.7-.324-.26-.07-.53-.108-.8-.108a5.65 5.65 0 0 0-1.908.312 7.98 7.98 0 0 0-1.6.768l-1.272-2.616q.384-.24.9-.5a8.88 8.88 0 0 1 1.14-.48 10.42 10.42 0 0 1 1.332-.36 7.55 7.55 0 0 1 1.5-.144 8.22 8.22 0 0 1 2.532.347 4.76 4.76 0 0 1 1.764.983 3.96 3.96 0 0 1 1.036 1.49 5.01 5.01 0 0 1 .336 1.857c-.005.674-.196 1.333-.552 1.905a3.64 3.64 0 0 1-1.488 1.4c.8.312 1.507.86 2 1.574a4.37 4.37 0 0 1 .708 2.511c.008.727-.123 1.45-.384 2.127a4.29 4.29 0 0 1-1.2 1.682c-.607.508-1.313.884-2.072 1.107a10 10 0 0 1-2.988.397zm13.344-2.26a2.01 2.01 0 0 1-.684 1.644 2.37 2.37 0 0 1-1.548.564 2.37 2.37 0 0 1-1.548-.564 2.01 2.01 0 0 1-.684-1.644 2.01 2.01 0 0 1 .684-1.644 2.37 2.37 0 0 1 1.548-.556 2.37 2.37 0 0 1 1.548.564 2.01 2.01 0 0 1 .684 1.636zm13.44-2.742a5.15 5.15 0 0 1-.372 1.982 4.34 4.34 0 0 1-1.116 1.574 5.16 5.16 0 0 1-1.86 1.045c-.834.262-1.706.388-2.58.373-.955.03-1.907-.13-2.8-.47-.672-.265-1.284-.66-1.8-1.166a4.09 4.09 0 0 1-.972-1.526 4.68 4.68 0 0 1-.288-1.526 4.32 4.32 0 0 1 .192-1.322 4.2 4.2 0 0 1 .528-1.094 5.75 5.75 0 0 1 .756-.9c.282-.274.584-.532.9-.77a6.64 6.64 0 0 1-1.524-1.654 4.01 4.01 0 0 1-.492-2.085 4.48 4.48 0 0 1 .4-1.845 4.64 4.64 0 0 1 1.116-1.546c.5-.457 1.1-.815 1.74-1.055a6.23 6.23 0 0 1 2.268-.4c.855-.02 1.706.12 2.508.42.635.24 1.218.603 1.716 1.066a3.9 3.9 0 0 1 .972 1.45c.195.5.297 1.05.3 1.594a4.02 4.02 0 0 1-.612 2.145 4.78 4.78 0 0 1-1.524 1.57 6.13 6.13 0 0 1 1.956 1.87c.403.688.606 1.475.588 2.272zm-8.3.146a1.82 1.82 0 0 0 .132.638 1.8 1.8 0 0 0 .42.638 2.3 2.3 0 0 0 .744.481 2.83 2.83 0 0 0 1.1.193c.665.06 1.324-.158 1.824-.6a1.9 1.9 0 0 0 .576-1.347c.006-.346-.08-.687-.252-.987a2.55 2.55 0 0 0-.684-.758 4.93 4.93 0 0 0-1.02-.577q-.588-.253-1.26-.47c-.44.327-.82.726-1.128 1.18a2.81 2.81 0 0 0-.456 1.612zm4.44-7.9a1.66 1.66 0 0 0-.108-.562 1.6 1.6 0 0 0-.36-.562 2.1 2.1 0 0 0-.636-.443 2.2 2.2 0 0 0-.936-.179 2.27 2.27 0 0 0-.912.168 1.84 1.84 0 0 0-.636.443 1.86 1.86 0 0 0-.372.586 1.66 1.66 0 0 0-.12.6 2.19 2.19 0 0 0 .564 1.436 4.39 4.39 0 0 0 1.932 1.149c.467-.277.87-.652 1.176-1.1a2.74 2.74 0 0 0 .404-1.53zm17.588 4.044a11.03 11.03 0 0 1-1.6 6.444 5.11 5.11 0 0 1-4.4 2.244 5.11 5.11 0 0 1-4.4-2.244 11.03 11.03 0 0 1-1.6-6.444 14.63 14.63 0 0 1 .42-3.7 8.14 8.14 0 0 1 1.212-2.712 5.4 5.4 0 0 1 1.9-1.68c.765-.4 1.613-.6 2.472-.576a5.11 5.11 0 0 1 4.4 2.244 10.98 10.98 0 0 1 1.596 6.424zm-3.648 0c.004-.758-.036-1.515-.12-2.268a8.16 8.16 0 0 0-.384-1.764 2.74 2.74 0 0 0-.72-1.152 1.63 1.63 0 0 0-1.128-.408 1.59 1.59 0 0 0-1.116.408 2.9 2.9 0 0 0-.72 1.152 7.68 7.68 0 0 0-.4 1.764 19.41 19.41 0 0 0-.12 2.268 19.84 19.84 0 0 0 .12 2.28 7.72 7.72 0 0 0 .4 1.776 2.9 2.9 0 0 0 .72 1.152c.305.275.705.422 1.116.408a1.63 1.63 0 0 0 1.128-.408 2.74 2.74 0 0 0 .72-1.152 8.18 8.18 0 0 0 .384-1.776 19.84 19.84 0 0 0 .12-2.28zm17.28 0a11.03 11.03 0 0 1-1.6 6.444 5.11 5.11 0 0 1-4.4 2.244 5.11 5.11 0 0 1-4.4-2.244 11.03 11.03 0 0 1-1.6-6.444 14.63 14.63 0 0 1 .42-3.7 8.14 8.14 0 0 1 1.212-2.712 5.4 5.4 0 0 1 1.9-1.68c.765-.4 1.613-.6 2.472-.576a5.11 5.11 0 0 1 4.4 2.244 10.98 10.98 0 0 1 1.596 6.424zm-3.648 0a19.53 19.53 0 0 0-.12-2.268 8.16 8.16 0 0 0-.384-1.764 2.74 2.74 0 0 0-.72-1.152 1.63 1.63 0 0 0-1.128-.408 1.59 1.59 0 0 0-1.116.408 2.9 2.9 0 0 0-.72 1.152 7.68 7.68 0 0 0-.4 1.764 19.41 19.41 0 0 0-.12 2.268 19.84 19.84 0 0 0 .12 2.28 7.72 7.72 0 0 0 .4 1.776 2.9 2.9 0 0 0 .72 1.152c.305.275.705.422 1.116.408a1.63 1.63 0 0 0 1.128-.408 2.74 2.74 0 0 0 .72-1.152 8.18 8.18 0 0 0 .384-1.776 19.73 19.73 0 0 0 .12-2.28zm9.528 4.7q.048.576.06.816.012.24.012.408a9.42 9.42 0 0 1-.132 1.528 13.48 13.48 0 0 1-.372 1.62 13.51 13.51 0 0 1-.6 1.632 13.1 13.1 0 0 1-.816 1.56l-2.808-.7a17.03 17.03 0 0 0 .768-2.972c.13-.76.2-1.53.216-2.3q0-.144-.012-.372-.012-.228-.024-.468-.012-.24-.024-.456-.012-.216-.012-.288zm13.656-4.7a11.03 11.03 0 0 1-1.6 6.444 5.11 5.11 0 0 1-4.4 2.244 5.11 5.11 0 0 1-4.4-2.244 11.03 11.03 0 0 1-1.6-6.444 14.63 14.63 0 0 1 .42-3.7 8.14 8.14 0 0 1 1.212-2.712 5.4 5.4 0 0 1 1.9-1.68c.765-.4 1.613-.6 2.472-.576a5.11 5.11 0 0 1 4.4 2.244 10.98 10.98 0 0 1 1.596 6.424zm-3.648 0c.004-.758-.036-1.515-.12-2.268a8.16 8.16 0 0 0-.384-1.764 2.74 2.74 0 0 0-.72-1.152 1.63 1.63 0 0 0-1.128-.408 1.59 1.59 0 0 0-1.116.408 2.9 2.9 0 0 0-.72 1.152 7.68 7.68 0 0 0-.4 1.764 19.41 19.41 0 0 0-.12 2.268 19.84 19.84 0 0 0 .12 2.28 7.72 7.72 0 0 0 .4 1.776 2.9 2.9 0 0 0 .72 1.152c.305.275.705.422 1.116.408a1.63 1.63 0 0 0 1.128-.408 2.74 2.74 0 0 0 .72-1.156 8.18 8.18 0 0 0 .384-1.776 19.84 19.84 0 0 0 .116-2.276zm17.28 0a11.03 11.03 0 0 1-1.6 6.444 5.11 5.11 0 0 1-4.4 2.244 5.11 5.11 0 0 1-4.4-2.244 11.03 11.03 0 0 1-1.6-6.444 14.63 14.63 0 0 1 .42-3.7 8.14 8.14 0 0 1 1.212-2.712 5.4 5.4 0 0 1 1.9-1.68c.765-.4 1.613-.6 2.472-.576a5.11 5.11 0 0 1 4.4 2.244 10.98 10.98 0 0 1 1.596 6.424zm-3.648 0a19.53 19.53 0 0 0-.12-2.268 8.16 8.16 0 0 0-.384-1.764 2.74 2.74 0 0 0-.72-1.152 1.63 1.63 0 0 0-1.128-.408 1.59 1.59 0 0 0-1.116.408 2.9 2.9 0 0 0-.72 1.152 7.68 7.68 0 0 0-.4 1.764 19.41 19.41 0 0 0-.12 2.268 19.84 19.84 0 0 0 .12 2.28 7.72 7.72 0 0 0 .4 1.776 2.9 2.9 0 0 0 .72 1.152c.305.275.705.422 1.116.408a1.63 1.63 0 0 0 1.128-.408 2.74 2.74 0 0 0 .72-1.152 8.18 8.18 0 0 0 .384-1.776 19.73 19.73 0 0 0 .12-2.28z" fill="#7300cc"/><path d="M437.792 93.176a10.31 10.31 0 0 1 5.736 1.332 4.63 4.63 0 0 1 1.992 4.14 4.68 4.68 0 0 1-.8 2.844 5.3 5.3 0 0 1-2.32 1.716q.5.624 1.056 1.428.556.804 1.092 1.68.54.876 1.044 1.824.504.948.936 1.86h-4.185l-.928-1.656q-.47-.84-.964-1.632-.494-.792-.976-1.5-.48-.712-.963-1.284h-1.848V110h-3.744V93.608a21.14 21.14 0 0 1 2.532-.336q1.308-.096 2.34-.096zm.216 3.192q-.408 0-.732.024l-.612.048v4.512h1.056a6.37 6.37 0 0 0 3.024-.528 1.91 1.91 0 0 0 .912-1.8 1.83 1.83 0 0 0-.924-1.74c-.852-.393-1.787-.57-2.724-.516zm14.304 13.392a11.23 11.23 0 0 1-2.844-.54l-1.62-.66 1.032-2.76a12.65 12.65 0 0 0 2 .744 8.83 8.83 0 0 0 2.46.336 3.6 3.6 0 0 0 2-.4 1.3 1.3 0 0 0 .54-1.116 1.37 1.37 0 0 0-.216-.78 2.11 2.11 0 0 0-.616-.584 6.14 6.14 0 0 0-1.032-.516q-.624-.252-1.44-.54-.792-.288-1.548-.636a6.25 6.25 0 0 1-1.368-.852c-.4-.34-.746-.76-.984-1.236a3.84 3.84 0 0 1-.372-1.764 5.1 5.1 0 0 1 .228-1.524c.15-.485.4-.936.708-1.332a4.06 4.06 0 0 1 1.248-1.02c.57-.3 1.187-.507 1.824-.612v-2.592h3.024v2.5c.725.062 1.443.182 2.148.36a9.46 9.46 0 0 1 1.428.48l-.744 2.88a11.07 11.07 0 0 0-1.836-.576 9.75 9.75 0 0 0-2.2-.24 2.76 2.76 0 0 0-1.656.384 1.21 1.21 0 0 0-.5 1.008 1.32 1.32 0 0 0 .156.66 1.44 1.44 0 0 0 .492.492 5.32 5.32 0 0 0 .828.42q.492.2 1.188.445a17.72 17.72 0 0 1 1.956.842 7.3 7.3 0 0 1 1.56 1.045 4.25 4.25 0 0 1 1.032 1.379 4.3 4.3 0 0 1 .372 1.845 4.86 4.86 0 0 1-.216 1.427 3.7 3.7 0 0 1-.72 1.307 4.4 4.4 0 0 1-1.308 1.03 6.34 6.34 0 0 1-1.98.624v2.928h-3.024zm15.768-12.936q.7-.288 1.452-.66.752-.372 1.476-.816.72-.444 1.38-.936c.424-.314.822-.663 1.188-1.044h2.5V110H472.5V98.024a10.31 10.31 0 0 1-1.608.876q-.888.4-1.728.684zm17.136 11.276a2.01 2.01 0 0 1-.684 1.644 2.37 2.37 0 0 1-1.548.564 2.37 2.37 0 0 1-1.548-.564 2.01 2.01 0 0 1-.684-1.644 2.01 2.01 0 0 1 .684-1.644 2.37 2.37 0 0 1 1.548-.556 2.37 2.37 0 0 1 1.548.564 2.01 2.01 0 0 1 .684 1.636zm8.376-10.368q-.936 1.228-1.992 2.668a18.26 18.26 0 0 0-1.776 2.952h3.768zm3.5-4.368v9.984h1.776v2.932H497.1V110h-3.5v-3.72h-7.184v-2.616q.528-1.056 1.32-2.388.792-1.332 1.764-2.736.972-1.4 2.052-2.748a30 30 0 0 1 2.16-2.424zm11.116 11.736c.01-.43-.098-.856-.308-1.232a2.34 2.34 0 0 0-1.08-.9 7.59 7.59 0 0 0-2.064-.552 22.92 22.92 0 0 0-3.264-.192q.264-2.232.432-4.536.168-2.304.264-4.32h9v3h-6q-.048.864-.108 1.668-.06.804-.132 1.4a8.91 8.91 0 0 1 5.172 1.644 4.82 4.82 0 0 1 1.668 3.9 5.52 5.52 0 0 1-.408 2.136 4.6 4.6 0 0 1-1.224 1.7 5.81 5.81 0 0 1-2.056 1.136 9.24 9.24 0 0 1-2.892.408 11.52 11.52 0 0 1-1.356-.084q-.708-.084-1.368-.216-.66-.132-1.184-.276c-.282-.07-.556-.164-.82-.284l.648-2.952a10.5 10.5 0 0 0 1.584.516 9.58 9.58 0 0 0 2.352.252 3.57 3.57 0 0 0 2.4-.66 2.01 2.01 0 0 0 .744-1.556zm17.808-3.452a11.03 11.03 0 0 1-1.6 6.444 5.11 5.11 0 0 1-4.4 2.244 5.11 5.11 0 0 1-4.4-2.244 11.03 11.03 0 0 1-1.6-6.444 14.63 14.63 0 0 1 .42-3.7 8.14 8.14 0 0 1 1.212-2.712 5.4 5.4 0 0 1 1.9-1.68c.765-.4 1.613-.6 2.472-.576a5.11 5.11 0 0 1 4.4 2.244 10.98 10.98 0 0 1 1.596 6.424zm-3.648 0a19.53 19.53 0 0 0-.12-2.268 8.16 8.16 0 0 0-.384-1.764 2.74 2.74 0 0 0-.72-1.152 1.63 1.63 0 0 0-1.128-.408 1.59 1.59 0 0 0-1.116.408 2.9 2.9 0 0 0-.72 1.152 7.68 7.68 0 0 0-.4 1.764 19.41 19.41 0 0 0-.12 2.268 19.84 19.84 0 0 0 .12 2.28 7.72 7.72 0 0 0 .4 1.776 2.9 2.9 0 0 0 .72 1.152c.305.275.705.422 1.116.408a1.63 1.63 0 0 0 1.128-.408 2.74 2.74 0 0 0 .72-1.152 8.18 8.18 0 0 0 .384-1.776 19.73 19.73 0 0 0 .12-2.28zm9.528 4.7q.048.576.06.816.012.24.012.408a9.42 9.42 0 0 1-.132 1.528 13.48 13.48 0 0 1-.372 1.62 13.51 13.51 0 0 1-.6 1.632 13.1 13.1 0 0 1-.816 1.56l-2.808-.7a17.03 17.03 0 0 0 .768-2.972c.13-.76.2-1.53.216-2.3q0-.144-.012-.372-.012-.228-.024-.468-.012-.24-.024-.456-.012-.216-.012-.288zm13.656-4.7a11.03 11.03 0 0 1-1.6 6.444 5.11 5.11 0 0 1-4.4 2.244 5.11 5.11 0 0 1-4.4-2.244 11.03 11.03 0 0 1-1.6-6.444 14.63 14.63 0 0 1 .42-3.7 8.14 8.14 0 0 1 1.212-2.712 5.4 5.4 0 0 1 1.9-1.68c.765-.4 1.613-.6 2.472-.576a5.11 5.11 0 0 1 4.4 2.244 10.98 10.98 0 0 1 1.596 6.424zm-3.648 0c.004-.758-.036-1.515-.12-2.268a8.16 8.16 0 0 0-.384-1.764 2.74 2.74 0 0 0-.72-1.152 1.63 1.63 0 0 0-1.128-.408 1.59 1.59 0 0 0-1.116.408 2.9 2.9 0 0 0-.72 1.152 7.68 7.68 0 0 0-.4 1.764 19.41 19.41 0 0 0-.12 2.268 19.84 19.84 0 0 0 .12 2.28 7.72 7.72 0 0 0 .4 1.776 2.9 2.9 0 0 0 .72 1.152c.305.275.705.422 1.116.408a1.63 1.63 0 0 0 1.128-.408 2.74 2.74 0 0 0 .72-1.156 8.18 8.18 0 0 0 .384-1.776 19.84 19.84 0 0 0 .116-2.276zm17.28 0a11.03 11.03 0 0 1-1.6 6.444 5.11 5.11 0 0 1-4.4 2.244 5.11 5.11 0 0 1-4.4-2.244 11.03 11.03 0 0 1-1.6-6.444 14.63 14.63 0 0 1 .42-3.7 8.14 8.14 0 0 1 1.212-2.712 5.4 5.4 0 0 1 1.9-1.68c.765-.4 1.613-.6 2.472-.576a5.11 5.11 0 0 1 4.4 2.244 10.98 10.98 0 0 1 1.596 6.424zm-3.648 0a19.53 19.53 0 0 0-.12-2.268 8.16 8.16 0 0 0-.384-1.764 2.74 2.74 0 0 0-.72-1.152 1.63 1.63 0 0 0-1.128-.408 1.59 1.59 0 0 0-1.116.408 2.9 2.9 0 0 0-.72 1.152 7.68 7.68 0 0 0-.4 1.764 19.41 19.41 0 0 0-.12 2.268 19.84 19.84 0 0 0 .12 2.28 7.72 7.72 0 0 0 .4 1.776 2.9 2.9 0 0 0 .72 1.152c.305.275.705.422 1.116.408a1.63 1.63 0 0 0 1.128-.408 2.74 2.74 0 0 0 .72-1.152 8.18 8.18 0 0 0 .384-1.776 19.73 19.73 0 0 0 .12-2.28z" fill="#f26522"/><g fill="#0074ff"><path d="M298.3 183.1a3.6 3.6 0 0 0 .872-.088 1.61 1.61 0 0 0 .552-.24.8.8 0 0 0 .288-.36 1.29 1.29 0 0 0 .08-.464 1.07 1.07 0 0 0-.512-.9 7.32 7.32 0 0 0-1.76-.776q-.544-.192-1.088-.44a4.01 4.01 0 0 1-.972-.632c-.3-.256-.528-.566-.7-.912-.192-.406-.285-.85-.272-1.3a3.23 3.23 0 0 1 .284-1.388c.2-.407.468-.765.816-1.048a3.74 3.74 0 0 1 1.28-.664 5.75 5.75 0 0 1 1.7-.232c.652-.01 1.303.072 1.932.244a6.92 6.92 0 0 1 1.344.528l-.72 1.968a6.82 6.82 0 0 0-1.032-.424 4.47 4.47 0 0 0-1.368-.184 2.51 2.51 0 0 0-1.288.248c-.26.162-.4.454-.392.76a.88.88 0 0 0 .144.512 1.4 1.4 0 0 0 .412.372 3.59 3.59 0 0 0 .608.3q.344.136.76.28.864.32 1.5.632c.392.184.75.43 1.064.728a2.64 2.64 0 0 1 .632.976 3.92 3.92 0 0 1 .208 1.36 2.89 2.89 0 0 1-1.088 2.412 5.25 5.25 0 0 1-3.284.856 9.09 9.09 0 0 1-1.324-.088 8.57 8.57 0 0 1-1.048-.216 6.01 6.01 0 0 1-.784-.272 5.54 5.54 0 0 1-.552-.272l.7-1.984c.4.205.803.37 1.228.488a6.35 6.35 0 0 0 1.78.22zm9.536.24q.352 0 .672-.016a4.92 4.92 0 0 0 .512-.048v-1.812q-.144-.032-.432-.064a4.81 4.81 0 0 0-.528-.032 4.79 4.79 0 0 0-.632.04 1.65 1.65 0 0 0-.52.152.89.89 0 0 0-.352.3c-.1.144-.134.3-.128.48a.82.82 0 0 0 .376.776 2.08 2.08 0 0 0 1.036.22zm-.188-6.98a5.52 5.52 0 0 1 1.76.24c.427.134.814.37 1.128.688a2.53 2.53 0 0 1 .6 1.088 5.43 5.43 0 0 1 .176 1.424v4.96q-.512.112-1.424.264c-.73.1-1.47.16-2.208.152a7 7 0 0 1-1.48-.144 3.21 3.21 0 0 1-1.144-.472 2.16 2.16 0 0 1-.736-.86 2.95 2.95 0 0 1-.256-1.3 2.45 2.45 0 0 1 .3-1.248 2.28 2.28 0 0 1 .792-.816 3.58 3.58 0 0 1 1.136-.44c.437-.092.882-.137 1.328-.136a7.54 7.54 0 0 1 .824.04 3.67 3.67 0 0 1 .584.1v-.224a1.32 1.32 0 0 0-.368-.976 1.78 1.78 0 0 0-1.28-.368 8.15 8.15 0 0 0-1.2.088 5.15 5.15 0 0 0-1.024.248l-.3-1.92q.208-.064.52-.136.312-.072.68-.128.368-.056.776-.1.408-.044.816-.024zm9.184 8.8a5.98 5.98 0 0 1-1.688-.224 2.5 2.5 0 0 1-1.024-.584 1.94 1.94 0 0 1-.512-.912 4.92 4.92 0 0 1-.136-1.208v-9.264l2.384-.384v9.168a3.14 3.14 0 0 0 .048.576c.026.157.1.305.184.432.104.128.24.227.392.288a2.15 2.15 0 0 0 .688.144zm3.728-4.432a2.92 2.92 0 0 0 .5 1.776c.347.456.9.708 1.472.672q.32 0 .592-.024.272-.024.448-.056v-4.336a2.07 2.07 0 0 0-.584-.24c-.237-.065-.482-.1-.728-.1q-1.7.004-1.7 2.308zm5.392 4q-.32.1-.736.184-.416.084-.872.152-.456.064-.928.1-.472.036-.9.04a5.29 5.29 0 0 1-1.856-.3 3.73 3.73 0 0 1-1.38-.872c-.38-.4-.673-.86-.856-1.376a5.25 5.25 0 0 1-.3-1.816c-.008-.625.078-1.248.256-1.848a4.02 4.02 0 0 1 .736-1.4 3.15 3.15 0 0 1 1.176-.88 3.95 3.95 0 0 1 1.592-.3 3.68 3.68 0 0 1 .888.1 4.78 4.78 0 0 1 .792.272v-3.808l2.384-.384zm10.112-3.952c.007.617-.1 1.23-.288 1.816-.176.522-.46 1.002-.832 1.408-.364.4-.808.696-1.3.9a4.35 4.35 0 0 1-1.7.32 4.31 4.31 0 0 1-1.696-.32c-.492-.204-.936-.5-1.3-.9a4.14 4.14 0 0 1-.848-1.408 5.21 5.21 0 0 1-.3-1.816 5.24 5.24 0 0 1 .3-1.808 4.1 4.1 0 0 1 .864-1.392 3.88 3.88 0 0 1 1.312-.9 4.22 4.22 0 0 1 1.656-.32 4.26 4.26 0 0 1 1.672.32 3.8 3.8 0 0 1 1.3.9 4.07 4.07 0 0 1 .848 1.392 5.14 5.14 0 0 1 .312 1.808zm-2.432 0a3 3 0 0 0-.44-1.736 1.44 1.44 0 0 0-1.256-.632 1.46 1.46 0 0 0-1.264.632 2.96 2.96 0 0 0-.448 1.736c-.032.616.124 1.227.448 1.752a1.45 1.45 0 0 0 1.264.648 1.43 1.43 0 0 0 1.256-.648c.32-.527.472-1.137.44-1.752zm11.328 2.56q.352 0 .672-.016a4.92 4.92 0 0 0 .512-.048v-1.808q-.144-.032-.432-.064a4.81 4.81 0 0 0-.528-.032 4.79 4.79 0 0 0-.632.04 1.65 1.65 0 0 0-.52.152.89.89 0 0 0-.352.3c-.1.144-.134.3-.128.48a.82.82 0 0 0 .376.776 2.08 2.08 0 0 0 1.032.22zm-.192-6.976a5.52 5.52 0 0 1 1.76.24c.427.134.814.37 1.128.688a2.53 2.53 0 0 1 .6 1.088 5.43 5.43 0 0 1 .176 1.424v4.96q-.512.112-1.424.264c-.73.1-1.47.16-2.208.152a7 7 0 0 1-1.48-.144 3.21 3.21 0 0 1-1.144-.472 2.16 2.16 0 0 1-.736-.86 2.95 2.95 0 0 1-.256-1.3 2.45 2.45 0 0 1 .3-1.248 2.28 2.28 0 0 1 .792-.816 3.58 3.58 0 0 1 1.136-.44c.437-.092.882-.137 1.328-.136a7.54 7.54 0 0 1 .824.04 3.67 3.67 0 0 1 .584.1v-.224a1.32 1.32 0 0 0-.368-.976 1.78 1.78 0 0 0-1.28-.368 8.15 8.15 0 0 0-1.2.088 5.15 5.15 0 0 0-1.024.248l-.3-1.92q.208-.064.52-.136.312-.072.68-.128.368-.056.776-.1.408-.044.816-.024zm5.744-1.872l2.388-.388v2.48h2.86v1.984h-2.86v2.96a2.34 2.34 0 0 0 .264 1.2c.246.332.654.504 1.064.448.266-.001.53-.025.792-.072a4.08 4.08 0 0 0 .744-.2l.336 1.86c-.312.124-.633.224-.96.3-.427.093-.863.136-1.3.128a4.26 4.26 0 0 1-1.616-.264c-.397-.154-.75-.406-1.024-.732a2.74 2.74 0 0 1-.536-1.144c-.106-.5-.157-.988-.152-1.488zm14.368 10.224a13.29 13.29 0 0 1-1.568.328c-.666.103-1.338.154-2.012.152-.6.017-1.216-.082-1.788-.292a2.71 2.71 0 0 1-1.128-.8 3.16 3.16 0 0 1-.592-1.24 6.67 6.67 0 0 1-.176-1.584v-4.692H360v4.4a3.41 3.41 0 0 0 .3 1.664 1.21 1.21 0 0 0 1.136.512q.256 0 .544-.024.288-.024.52-.056v-6.5h2.38zm5.456-1.376q.352 0 .672-.016a4.92 4.92 0 0 0 .512-.048v-1.808q-.144-.032-.432-.064a4.81 4.81 0 0 0-.528-.032 4.79 4.79 0 0 0-.632.04 1.65 1.65 0 0 0-.52.152.89.89 0 0 0-.352.3c-.1.144-.134.3-.128.48a.82.82 0 0 0 .376.776 2.08 2.08 0 0 0 1.032.22zm-.192-6.976a5.52 5.52 0 0 1 1.76.24c.427.134.814.37 1.128.688a2.53 2.53 0 0 1 .6 1.088 5.43 5.43 0 0 1 .176 1.424v4.96q-.512.112-1.424.264c-.73.1-1.47.16-2.208.152a7 7 0 0 1-1.476-.144 3.21 3.21 0 0 1-1.148-.472 2.16 2.16 0 0 1-.736-.856 2.95 2.95 0 0 1-.256-1.3 2.45 2.45 0 0 1 .3-1.248 2.28 2.28 0 0 1 .792-.816 3.58 3.58 0 0 1 1.136-.44c.437-.092.882-.137 1.328-.136a7.54 7.54 0 0 1 .824.04 3.67 3.67 0 0 1 .584.1v-.224a1.32 1.32 0 0 0-.368-.976 1.78 1.78 0 0 0-1.28-.368 8.15 8.15 0 0 0-1.2.088 5.15 5.15 0 0 0-1.024.248l-.3-1.92q.208-.064.52-.136.312-.072.68-.128.368-.056.776-.1.408-.044.816-.028zm9.184 8.8a5.98 5.98 0 0 1-1.688-.224 2.5 2.5 0 0 1-1.024-.584 1.94 1.94 0 0 1-.516-.912 4.92 4.92 0 0 1-.136-1.208v-9.264l2.384-.384v9.168a3.14 3.14 0 0 0 .048.576c.026.157.1.305.184.432.104.128.24.227.392.288a2.15 2.15 0 0 0 .688.144zm4.08-.16h-2.384v-8.416h2.384zm.224-10.848a1.31 1.31 0 0 1-.424 1.032 1.46 1.46 0 0 1-1 .376 1.46 1.46 0 0 1-1-.376 1.31 1.31 0 0 1-.424-1.032 1.31 1.31 0 0 1 .424-1.032 1.46 1.46 0 0 1 1-.376 1.46 1.46 0 0 1 1 .376 1.31 1.31 0 0 1 .424 1.032zm8.336 4.032l-.778.864q-.5.544-1.05 1.2-.56.656-1.13 1.376-.57.72-1.034 1.392h4.072V185h-6.96v-1.408q.336-.576.808-1.24.472-.664.992-1.336.52-.672 1.032-1.3.512-.628.944-1.144h-3.584v-1.988h6.688zm4.656 5.152q.352 0 .672-.016a4.92 4.92 0 0 0 .512-.048v-1.808q-.144-.032-.432-.064a4.81 4.81 0 0 0-.528-.032 4.79 4.79 0 0 0-.632.04 1.65 1.65 0 0 0-.52.152.89.89 0 0 0-.352.3c-.1.144-.134.3-.128.48a.82.82 0 0 0 .376.776 2.08 2.08 0 0 0 1.032.22zm-.192-6.976a5.52 5.52 0 0 1 1.76.24c.427.134.814.37 1.128.688a2.53 2.53 0 0 1 .6 1.088c.123.464.184.943.18 1.424v4.96q-.512.112-1.424.264c-.73.1-1.47.16-2.208.152a7 7 0 0 1-1.48-.144 3.21 3.21 0 0 1-1.148-.472 2.16 2.16 0 0 1-.74-.86 2.95 2.95 0 0 1-.256-1.3 2.45 2.45 0 0 1 .3-1.248 2.28 2.28 0 0 1 .792-.816 3.58 3.58 0 0 1 1.136-.44c.437-.092.882-.137 1.328-.136a7.54 7.54 0 0 1 .824.04 3.67 3.67 0 0 1 .584.1v-.224a1.32 1.32 0 0 0-.368-.976 1.78 1.78 0 0 0-1.28-.368 8.15 8.15 0 0 0-1.2.088 5.15 5.15 0 0 0-1.024.248l-.3-1.92q.208-.064.52-.136.312-.072.68-.128.368-.056.776-.1.408-.044.82-.024zm7.856 4.368a2.92 2.92 0 0 0 .5 1.776c.347.456.9.708 1.472.672q.32 0 .592-.024.272-.024.448-.052v-4.34a2.07 2.07 0 0 0-.584-.24c-.237-.065-.482-.1-.728-.1q-1.7.004-1.7 2.308zm5.392 4q-.32.1-.736.184-.416.084-.872.152-.456.064-.928.1-.472.036-.9.04a5.29 5.29 0 0 1-1.856-.3 3.73 3.73 0 0 1-1.376-.872c-.38-.4-.673-.86-.856-1.376a5.25 5.25 0 0 1-.3-1.816c-.008-.625.078-1.248.256-1.848a4.02 4.02 0 0 1 .736-1.4 3.15 3.15 0 0 1 1.176-.88 3.95 3.95 0 0 1 1.592-.3 3.68 3.68 0 0 1 .888.1 4.78 4.78 0 0 1 .792.272v-3.808l2.384-.384zm10.112-3.952c.007.617-.1 1.23-.288 1.816-.176.522-.46 1.002-.832 1.408-.364.4-.808.696-1.3.9a4.35 4.35 0 0 1-1.7.32 4.31 4.31 0 0 1-1.688-.32c-.492-.204-.936-.5-1.3-.9a4.14 4.14 0 0 1-.848-1.408 5.21 5.21 0 0 1-.3-1.816 5.02 5.02 0 0 1 .312-1.808 4.1 4.1 0 0 1 .864-1.392 3.88 3.88 0 0 1 1.312-.9 4.22 4.22 0 0 1 1.656-.32 4.26 4.26 0 0 1 1.672.32 3.8 3.8 0 0 1 1.3.9 4.07 4.07 0 0 1 .848 1.392 5.13 5.13 0 0 1 .292 1.808zm-2.432 0a3 3 0 0 0-.44-1.736 1.44 1.44 0 0 0-1.256-.632 1.46 1.46 0 0 0-1.264.632 2.96 2.96 0 0 0-.448 1.736c-.032.616.124 1.227.448 1.752a1.45 1.45 0 0 0 1.264.648 1.43 1.43 0 0 0 1.256-.648c.32-.527.472-1.137.44-1.752z"/><path d="M457.792 170.176a10.31 10.31 0 0 1 5.736 1.332 4.63 4.63 0 0 1 1.992 4.14 4.68 4.68 0 0 1-.8 2.844 5.3 5.3 0 0 1-2.32 1.716q.5.624 1.056 1.428.556.804 1.092 1.68.54.876 1.044 1.824.504.948.936 1.86h-4.185l-.928-1.656q-.47-.84-.964-1.632-.494-.792-.976-1.5-.48-.712-.963-1.284h-1.848V187h-3.744v-16.392a21.14 21.14 0 0 1 2.532-.336q1.308-.096 2.34-.096zm.216 3.192q-.408 0-.732.024l-.612.048v4.512h1.056a6.37 6.37 0 0 0 3.024-.528 1.91 1.91 0 0 0 .912-1.8 1.83 1.83 0 0 0-.924-1.74c-.852-.393-1.787-.57-2.724-.516zm14.304 13.392a11.23 11.23 0 0 1-2.844-.54l-1.62-.66 1.032-2.76a12.65 12.65 0 0 0 2 .744 8.83 8.83 0 0 0 2.46.336 3.6 3.6 0 0 0 2-.4 1.3 1.3 0 0 0 .54-1.116 1.37 1.37 0 0 0-.216-.78 2.11 2.11 0 0 0-.616-.584 6.14 6.14 0 0 0-1.032-.516q-.624-.252-1.44-.54-.792-.288-1.548-.636a6.25 6.25 0 0 1-1.368-.852c-.4-.34-.746-.76-.984-1.236a3.84 3.84 0 0 1-.372-1.764 5.1 5.1 0 0 1 .228-1.524c.15-.485.4-.936.708-1.332a4.06 4.06 0 0 1 1.248-1.02c.57-.3 1.187-.507 1.824-.612v-2.592h3.024v2.5c.725.062 1.443.182 2.148.36a9.46 9.46 0 0 1 1.428.48l-.744 2.88a11.07 11.07 0 0 0-1.836-.576 9.75 9.75 0 0 0-2.2-.24 2.76 2.76 0 0 0-1.656.384 1.21 1.21 0 0 0-.5 1.008 1.32 1.32 0 0 0 .156.66 1.44 1.44 0 0 0 .492.492 5.32 5.32 0 0 0 .828.42q.492.2 1.188.445a17.72 17.72 0 0 1 1.956.842 7.3 7.3 0 0 1 1.56 1.045 4.25 4.25 0 0 1 1.032 1.379 4.3 4.3 0 0 1 .372 1.845 4.86 4.86 0 0 1-.216 1.427 3.7 3.7 0 0 1-.72 1.307 4.4 4.4 0 0 1-1.308 1.03 6.34 6.34 0 0 1-1.98.624v2.928h-3.024zm25.988-12.024a4.4 4.4 0 0 1-.36 1.752 8.09 8.09 0 0 1-.936 1.62 13.25 13.25 0 0 1-1.3 1.5q-.72.72-1.416 1.368-.36.336-.78.756-.42.42-.8.852-.384.432-.684.8a2 2 0 0 0-.368.616h7.152v3H487.72a3.87 3.87 0 0 1-.048-.672v-.576a5.8 5.8 0 0 1 .372-2.112 7.9 7.9 0 0 1 .972-1.788c.404-.558.857-1.077 1.356-1.552q.756-.72 1.5-1.44.576-.552 1.08-1.044a11.9 11.9 0 0 0 .888-.96 4.38 4.38 0 0 0 .6-.936 2.24 2.24 0 0 0 .216-.948 1.71 1.71 0 0 0-.6-1.488 2.48 2.48 0 0 0-1.488-.432 3.52 3.52 0 0 0-1.212.2c-.358.128-.704.288-1.032.48a6.35 6.35 0 0 0-.8.552q-.336.276-.5.444l-1.776-2.5c.726-.67 1.557-1.218 2.46-1.62a7.22 7.22 0 0 1 3.012-.636 8.36 8.36 0 0 1 2.52.336 4.71 4.71 0 0 1 1.74.948c.454.405.8.916 1.008 1.488a5.68 5.68 0 0 1 .312 1.992zm6.916 10.364a2.01 2.01 0 0 1-.684 1.644 2.37 2.37 0 0 1-1.548.564 2.37 2.37 0 0 1-1.548-.564 2.01 2.01 0 0 1-.684-1.644 2.01 2.01 0 0 1 .684-1.644 2.37 2.37 0 0 1 1.548-.556 2.37 2.37 0 0 1 1.548.564 2.01 2.01 0 0 1 .684 1.636zm6.192 2.26a12.03 12.03 0 0 1-1.368-.084q-.72-.084-1.392-.228-.672-.144-1.224-.312a7.05 7.05 0 0 1-.864-.312l.7-2.976q.624.264 1.6.564a8.29 8.29 0 0 0 2.412.3 3.82 3.82 0 0 0 2.424-.624 2.05 2.05 0 0 0 .768-1.68 2.03 2.03 0 0 0-.276-1.092 2.11 2.11 0 0 0-.756-.72 3.36 3.36 0 0 0-1.14-.384 8.7 8.7 0 0 0-1.4-.108h-1.404v-2.88h1.584c.342 0 .684-.034 1.02-.1a2.72 2.72 0 0 0 .876-.324 1.7 1.7 0 0 0 .612-.624c.163-.307.24-.652.228-1a1.57 1.57 0 0 0-.192-.792 1.85 1.85 0 0 0-.492-.552c-.212-.15-.45-.26-.7-.324-.26-.07-.53-.108-.8-.108a5.65 5.65 0 0 0-1.908.312 7.98 7.98 0 0 0-1.6.768l-1.272-2.616q.384-.24.9-.5a8.88 8.88 0 0 1 1.14-.48 10.42 10.42 0 0 1 1.332-.36 7.55 7.55 0 0 1 1.5-.144 8.22 8.22 0 0 1 2.532.347 4.76 4.76 0 0 1 1.764.983 3.96 3.96 0 0 1 1.036 1.49 5.01 5.01 0 0 1 .336 1.857c-.005.674-.196 1.333-.552 1.905a3.64 3.64 0 0 1-1.488 1.4c.8.312 1.507.86 2 1.574a4.37 4.37 0 0 1 .708 2.511c.008.727-.123 1.45-.384 2.127a4.29 4.29 0 0 1-1.2 1.682c-.606.507-1.3.884-2.068 1.107a10 10 0 0 1-2.992.397zm16.8-5.26c.01-.43-.098-.856-.308-1.232a2.34 2.34 0 0 0-1.08-.9 7.59 7.59 0 0 0-2.064-.552 22.92 22.92 0 0 0-3.264-.192q.264-2.232.432-4.536.168-2.304.264-4.32h9v3h-6q-.048.864-.108 1.668-.06.804-.132 1.4a8.91 8.91 0 0 1 5.172 1.644 4.82 4.82 0 0 1 1.668 3.9 5.52 5.52 0 0 1-.408 2.136 4.6 4.6 0 0 1-1.224 1.7 5.81 5.81 0 0 1-2.056 1.136 9.24 9.24 0 0 1-2.892.408 11.52 11.52 0 0 1-1.356-.084q-.708-.084-1.368-.216-.66-.132-1.184-.276c-.282-.07-.556-.164-.82-.284l.648-2.952a10.5 10.5 0 0 0 1.584.516 9.58 9.58 0 0 0 2.352.252 3.57 3.57 0 0 0 2.4-.66 2.01 2.01 0 0 0 .744-1.556zm17.808-3.452a11.03 11.03 0 0 1-1.6 6.444 5.11 5.11 0 0 1-4.4 2.244 5.11 5.11 0 0 1-4.4-2.244 11.03 11.03 0 0 1-1.6-6.444 14.63 14.63 0 0 1 .42-3.7 8.14 8.14 0 0 1 1.212-2.712 5.4 5.4 0 0 1 1.9-1.68c.765-.4 1.613-.6 2.472-.576a5.11 5.11 0 0 1 4.4 2.244 10.98 10.98 0 0 1 1.596 6.424zm-3.648 0a19.53 19.53 0 0 0-.12-2.268 8.16 8.16 0 0 0-.384-1.764 2.74 2.74 0 0 0-.72-1.152 1.63 1.63 0 0 0-1.128-.408 1.59 1.59 0 0 0-1.116.408 2.9 2.9 0 0 0-.72 1.152 7.68 7.68 0 0 0-.4 1.764 19.41 19.41 0 0 0-.12 2.268 19.84 19.84 0 0 0 .12 2.28 7.72 7.72 0 0 0 .4 1.776 2.9 2.9 0 0 0 .72 1.152c.305.275.705.422 1.116.408a1.63 1.63 0 0 0 1.128-.408 2.74 2.74 0 0 0 .72-1.152 8.18 8.18 0 0 0 .384-1.776 19.73 19.73 0 0 0 .12-2.28zm9.528 4.7q.048.576.06.816.012.24.012.408a9.42 9.42 0 0 1-.132 1.528 13.48 13.48 0 0 1-.372 1.62 13.51 13.51 0 0 1-.6 1.632 13.1 13.1 0 0 1-.816 1.56l-2.808-.7a17.03 17.03 0 0 0 .768-2.972c.13-.76.2-1.53.216-2.3q0-.144-.012-.372-.012-.228-.024-.468-.012-.24-.024-.456-.012-.216-.012-.288zm13.656-4.7a11.03 11.03 0 0 1-1.6 6.444 5.11 5.11 0 0 1-4.4 2.244 5.11 5.11 0 0 1-4.4-2.244 11.03 11.03 0 0 1-1.6-6.444 14.63 14.63 0 0 1 .42-3.7 8.14 8.14 0 0 1 1.212-2.712 5.4 5.4 0 0 1 1.9-1.68c.765-.4 1.613-.6 2.472-.576a5.11 5.11 0 0 1 4.4 2.244 10.98 10.98 0 0 1 1.596 6.424zm-3.648 0c.004-.758-.036-1.515-.12-2.268a8.16 8.16 0 0 0-.384-1.764 2.74 2.74 0 0 0-.72-1.152 1.63 1.63 0 0 0-1.128-.408 1.59 1.59 0 0 0-1.116.408 2.9 2.9 0 0 0-.72 1.152 7.68 7.68 0 0 0-.4 1.764 19.41 19.41 0 0 0-.12 2.268 19.84 19.84 0 0 0 .12 2.28 7.72 7.72 0 0 0 .4 1.776 2.9 2.9 0 0 0 .72 1.152c.305.275.705.422 1.116.408a1.63 1.63 0 0 0 1.128-.408 2.74 2.74 0 0 0 .72-1.156 8.18 8.18 0 0 0 .384-1.776 19.84 19.84 0 0 0 .116-2.276zm17.28 0a11.03 11.03 0 0 1-1.6 6.444 5.11 5.11 0 0 1-4.4 2.244 5.11 5.11 0 0 1-4.4-2.244 11.03 11.03 0 0 1-1.6-6.444 14.63 14.63 0 0 1 .42-3.7 8.14 8.14 0 0 1 1.212-2.712 5.4 5.4 0 0 1 1.9-1.68c.765-.4 1.613-.6 2.472-.576a5.11 5.11 0 0 1 4.4 2.244 10.98 10.98 0 0 1 1.596 6.424zm-3.648 0a19.53 19.53 0 0 0-.12-2.268 8.16 8.16 0 0 0-.384-1.764 2.74 2.74 0 0 0-.72-1.152 1.63 1.63 0 0 0-1.128-.408 1.59 1.59 0 0 0-1.116.408 2.9 2.9 0 0 0-.72 1.152 7.68 7.68 0 0 0-.4 1.764 19.41 19.41 0 0 0-.12 2.268 19.84 19.84 0 0 0 .12 2.28 7.72 7.72 0 0 0 .4 1.776 2.9 2.9 0 0 0 .72 1.152c.305.275.705.422 1.116.408a1.63 1.63 0 0 0 1.128-.408 2.74 2.74 0 0 0 .72-1.152 8.18 8.18 0 0 0 .384-1.776 19.73 19.73 0 0 0 .12-2.28z"/></g></svg>