<svg xmlns="http://www.w3.org/2000/svg" xmlns:xlink="http://www.w3.org/1999/xlink" width="603.5" height="397" viewBox="0 0 603.5 397"><defs><filter id="a" x="0" y="0" width="346" height="397" filterUnits="userSpaceOnUse"><feOffset dx="1" dy="1" input="SourceAlpha"/><feGaussianBlur stdDeviation="1.5" result="b"/><feFlood flood-opacity="0.4"/><feComposite operator="in" in2="b"/><feComposite in="SourceGraphic"/></filter><filter id="c" x="16.5" y="333.5" width="313" height="48" filterUnits="userSpaceOnUse"><feOffset dy="3" input="SourceAlpha"/><feGaussianBlur stdDeviation="3" result="d"/><feFlood flood-opacity="0.161"/><feComposite operator="in" in2="d"/><feComposite in="SourceGraphic"/></filter></defs><g transform="translate(-3098.5 2749.5)"><g transform="translate(3379.787 -2699.984)"><g transform="translate(32.659 67.233)"><rect width="6.423" height="0.185" transform="translate(199.622 241.377)" fill="#ebebeb"/><rect width="121.553" height="107.857" transform="translate(168.001 0)" fill="#e6e6e6"/><rect width="115.307" height="102.003" transform="translate(171.039 2.957)" fill="#f0f0f0"/><path d="M310.928,78.65,283.86,180.431V132.608L298.148,78.65Z" transform="translate(-112.821 -75.693)" fill="#fff"/><path d="M322.27,78.65l-27.3,102H290.62l27.3-102Z" transform="translate(-114.584 -75.693)" fill="#fff"/><path d="M436.375,165.73v16.3l-5.521,21.339H426.5Z" transform="translate(-150.028 -98.408)" fill="#fff"/><rect width="1.944" height="106.112" transform="translate(209.32 1.124)" fill="#e6e6e6"/><rect width="1.944" height="106.112" transform="translate(246.957 1.124)" fill="#e6e6e6"/><rect width="67.019" height="60.1" transform="translate(0 167.343)" fill="#f5f5f5"/><rect width="23.328" height="60.1" transform="translate(0 167.343)" fill="#ebebeb"/><rect width="67.019" height="60.1" transform="translate(13.334 108.478)" fill="#ebebeb"/><rect width="23.328" height="60.1" transform="translate(13.334 108.478)" fill="#e0e0e0"/><rect width="67.019" height="60.1" transform="translate(0 48.555)" fill="#f5f5f5"/><rect width="23.328" height="60.1" transform="translate(0 48.555)" fill="#ebebeb"/><rect width="67.019" height="60.1" transform="translate(72.932 167.395)" fill="#ebebeb"/><rect width="23.328" height="60.1" transform="translate(72.932 167.395)" fill="#e0e0e0"/><rect width="67.019" height="37.645" transform="translate(80.353 130.992)" fill="#f5f5f5"/><rect width="23.328" height="37.645" transform="translate(80.353 130.992)" fill="#e6e6e6"/><rect width="43.299" height="60.1" transform="translate(75.149 71.52)" fill="#ebebeb"/><rect width="15.071" height="60.1" transform="translate(75.149 71.52)" fill="#e0e0e0"/><rect width="67.019" height="60.1" transform="translate(284.366 227.555) rotate(180)" fill="#f5f5f5"/><rect width="23.328" height="60.1" transform="translate(284.366 227.555) rotate(180)" fill="#e6e6e6"/><rect width="67.019" height="48.924" transform="translate(271.024 168.689) rotate(180)" fill="#ebebeb"/><rect width="23.328" height="48.924" transform="translate(271.031 168.689) rotate(180)" fill="#e0e0e0"/><rect width="64.631" height="23.948" transform="translate(284.366 119.764) rotate(180)" fill="#f5f5f5"/><rect width="22.492" height="23.948" transform="translate(284.373 119.764) rotate(180)" fill="#e6e6e6"/></g><g transform="translate(234.476 93.325)"><rect width="27.267" height="25.353" rx="4.53" fill="#7300cc"/><path d="M340.34,139.89s1.722,8.33,13.46,12.95c0,0-7.177-4.59-6.734-12.95Z" transform="translate(-329.371 -117.76)" fill="#7300cc"/><path d="M335.96,124.729l3.9,5.411,7.909-9.38" transform="translate(-328.228 -112.77)" fill="none" stroke="#fff" stroke-linecap="round" stroke-linejoin="round" stroke-width="3"/></g><g transform="translate(208.088 118.949)"><path d="M384.549,148.167c3.614,2.594,6.881,7.029,4.435,19.447s-3.067,15.374-3.067,15.374l-23.653-2.661A88.759,88.759,0,0,1,363,159C365.5,145.639,373.964,140.561,384.549,148.167Z" transform="translate(-308.616 -144.618)" fill="#263238"/><path d="M351.9,242.25s-8.012,42.686-10.149,60.226C338.96,325.345,327.54,358.8,327.54,358.8l4.568,1.183s16.1-28.435,19.218-54.01c12.787-26.144,13.822-58.341,13.822-58.341Z" transform="translate(-299.644 -170.085)" fill="#eec1bb"/><path d="M315.857,410.873a6.6,6.6,0,0,1,2.343-.591h0s2.809-1.656,5.588-8.072h3.134a2.587,2.587,0,0,1,2.4,1.722,1.476,1.476,0,0,1,.089.436,17.815,17.815,0,0,1-.244,2.217,62.75,62.75,0,0,1-1.826,7.391l-.532-.14.961-4.664c.325-1.589-1.345-.059-2.114,1.545s-1.929,3.164-5.366,2.424C316.241,412.181,314.623,411.6,315.857,410.873Z" transform="translate(-296.491 -211.811)" fill="#263238"/><path d="M332.051,402.8c.591-1.515,1.345-4.228,1.345-4.228l-6.7-.931a12.973,12.973,0,0,1-1.242,5.455C328.954,403.08,332.051,402.8,332.051,402.8Z" transform="translate(-299.099 -210.619)" fill="#263238"/><path d="M371.75,241.33s1,43.425,2.528,61.017c2,22.958-2.254,58.053-2.254,58.053l4.716.207s9.868-31.148,7.65-56.826c7.1-28.221,1.478-59.93,1.478-59.93Z" transform="translate(-311.177 -169.845)" fill="#eec1bb"/><path d="M362.071,412.4a6.652,6.652,0,0,1,2.269-.85h0s2.609-1.944,4.686-8.626l3.1-.355a2.579,2.579,0,0,1,2.58,1.478,1.4,1.4,0,0,1,.133.421,17.9,17.9,0,0,1,0,2.269,62.5,62.5,0,0,1-1.027,7.51l-.54-.074.451-4.745c.148-1.611-1.338.089-1.937,1.767s-1.6,3.4-5.122,2.957C362.573,413.653,360.9,413.232,362.071,412.4Z" transform="translate(-308.556 -211.9)" fill="#263238"/><path d="M377.127,403.016c.421-1.567.88-4.346.88-4.346l-6.763-.2a13.026,13.026,0,0,1-.643,5.558C374.074,403.622,377.127,403.016,377.127,403.016Z" transform="translate(-310.877 -210.835)" fill="#263238"/><path d="M355.088,232.61,346.3,293.383s28.62,4.435,40.077,1.84c0,0,2.816-35.087-9.143-60.61Z" transform="translate(-304.538 -167.57)" fill="#263238"/><path d="M316.637,199.217l-7.65-7.554s-.259-2.025-1.005-2.587-5.98-2.469-6.652-2.047-1.537,4.664-.636,5.44,5.669,1.767,6.157,1.685l8.3,9.838Z" transform="translate(-292.54 -155.665)" fill="#eec1bb"/><path d="M347.5,184.91c-3.3,1.752-15,18.117-16.727,18.922s-14.9-9.875-14.9-9.875l-2.217,3.792s10.806,15.315,16.919,14.576,17.813-13.674,17.813-13.674Z" transform="translate(-296.021 -155.128)" fill="#7300cc"/><path d="M347.5,184.91c-3.3,1.752-15,18.117-16.727,18.922s-14.9-9.875-14.9-9.875l-2.217,3.792s10.806,15.315,16.919,14.576,17.813-13.674,17.813-13.674Z" transform="translate(-296.021 -155.128)" fill="#fff" opacity="0.1"/><path d="M316.459,197.395l-.917-.865-2.4,4.065.865,1.663Z" transform="translate(-295.888 -158.159)" fill="#7300cc"/><path d="M354.217,205.963c2.735-2.609,4.7-4.775,4.7-4.775l-.207-3.252-1.005-3.156A12.972,12.972,0,0,0,354.217,205.963Z" transform="translate(-306.557 -157.702)" opacity="0.2"/><path d="M356.3,219.382c-.924-16.261-.51-25.22-.089-29.692.466-4.768,1.2-4.945,1.2-4.945s5.174-.5,9.661-.466a72.883,72.883,0,0,1,10.348,1.094,68.852,68.852,0,0,1,9.609,2.314c-.525,1.478-1,2.957-1.441,4.258-.584,1.767-1.109,3.4-1.589,4.93-.887,2.853-1.582,5.322-2.129,7.532a82.045,82.045,0,0,0-2.461,17s5.684,14.857,6.793,25.759L367.347,249.2l-2.587-10.9-2.587,11.272-10.533-3.7Z" transform="translate(-305.931 -154.963)" fill="#7300cc"/><path d="M356.3,219.382c-.924-16.261-.51-25.22-.089-29.692.466-4.768,1.2-4.945,1.2-4.945s5.174-.5,9.661-.466a72.883,72.883,0,0,1,10.348,1.094,68.852,68.852,0,0,1,9.609,2.314c-.525,1.478-1,2.957-1.441,4.258-.584,1.767-1.109,3.4-1.589,4.93-.887,2.853-1.582,5.322-2.129,7.532a82.045,82.045,0,0,0-2.461,17s5.684,14.857,6.793,25.759L367.347,249.2l-2.587-10.9-2.587,11.272-10.533-3.7Z" transform="translate(-305.931 -154.963)" fill="#fff" opacity="0.1"/><path d="M391.211,214.035c.251-1.242.547-2.565.909-3.984.229-.9.48-1.848.739-2.853-.739-2.521-1.478-.547-1.478-.547A22.759,22.759,0,0,0,391.211,214.035Z" transform="translate(-316.195 -160.607)" opacity="0.2"/><path d="M372.213,182.659a6.259,6.259,0,0,1,.7-.3c.532-.421,1.183-1.434,1.153-3.9a21.205,21.205,0,0,0-.273-2.912l6.852-1.279s-2.336,4.612-.392,8.042c.673.3,1.072.739,1,1.279-.51,3.954-9.025,7.783-9.025,7.783S368.081,184.929,372.213,182.659Z" transform="translate(-310.819 -152.352)" fill="#eec1bb"/><path d="M375,175.549a21.213,21.213,0,0,1,.266,2.89,7.631,7.631,0,0,0,6.586-4.169Z" transform="translate(-312.024 -152.352)" opacity="0.2"/><path d="M376.923,150.1c-5.957-.325-8.049,2.757-8.818,8.87-.968,7.643.436,13.186,7.975,11.959C386.317,169.238,386.82,150.641,376.923,150.1Z" transform="translate(-310.155 -146.042)" fill="#eec1bb"/><path d="M372.77,162a12.561,12.561,0,0,1-1.87,2.373,1.634,1.634,0,0,0,1.537.739Z" transform="translate(-310.955 -149.152)" fill="#d4827d"/><path d="M378.4,161.265c0,.488.192.909.517.931s.621-.347.665-.835-.2-.909-.525-.931S378.437,160.777,378.4,161.265Z" transform="translate(-312.911 -148.742)" fill="#263238"/><path d="M379.107,160.3l-1.027-.5S378.538,160.731,379.107,160.3Z" transform="translate(-312.828 -148.578)" fill="#263238"/><path d="M370.189,160.482c-.037.488.192.9.517.931s.628-.347.665-.843-.2-.9-.525-.931S370.226,159.994,370.189,160.482Z" transform="translate(-310.768 -148.536)" fill="#263238"/><path d="M370.9,159.513l-1.027-.5S370.328,159.949,370.9,159.513Z" transform="translate(-310.686 -148.372)" fill="#263238"/><path d="M378.79,156a3.09,3.09,0,0,1,2.528,1.042" transform="translate(-313.013 -147.584)" fill="none" stroke="#263238" stroke-linecap="round" stroke-linejoin="round" stroke-width="0.686"/><path d="M372.152,155.295a2.779,2.779,0,0,0-2.4.355" transform="translate(-310.655 -147.369)" fill="none" stroke="#263238" stroke-linecap="round" stroke-linejoin="round" stroke-width="0.686"/><path d="M383.02,159.7s-2.521-5.048-1.892-8.8c0,0-11.538-5.47-12.78,6.475,0,0-.569-10.7,9.683-10.348s9.387,15.308,3.858,19.484C381.889,166.481,384.572,162.86,383.02,159.7Z" transform="translate(-310.288 -145.244)" fill="#263238"/><path d="M386.771,165.018a2.617,2.617,0,0,1,2.957-2.217c1.833.3,2.506,4.147-2.136,4.8C386.927,167.679,386.579,167.014,386.771,165.018Z" transform="translate(-315.081 -149.354)" fill="#eec1bb"/><path d="M378.062,168.07a4.8,4.8,0,0,1-3.422,1.382" transform="translate(-311.931 -150.735)" fill="none" stroke="#263238" stroke-linecap="round" stroke-linejoin="round" stroke-width="0.686"/><path d="M380.715,152.12s-12.876-3.348-13.955,8.722" transform="translate(-309.875 -146.463)" fill="none" stroke="#263238" stroke-linecap="round" stroke-linejoin="round" stroke-width="0.686"/><path d="M370,189.59a77.781,77.781,0,0,0,.628,18.693s3.8-13.763,9.136-18.442l-6.135.88Z" transform="translate(-310.641 -156.349)" fill="#7300cc"/><path d="M370,189.59a77.781,77.781,0,0,0,.628,18.693s3.8-13.763,9.136-18.442l-6.135.88Z" transform="translate(-310.641 -156.349)" fill="#fff" opacity="0.5"/><path d="M379.574,183.6l-6.231,4.6V183.31a7.429,7.429,0,0,0-4.679,7.392l4.132-1.9v1.9l.968-1.833,3.267,3.733s4-4.664,4.435-6.068S379.574,183.6,379.574,183.6Z" transform="translate(-310.367 -154.71)" fill="#7300cc"/><path d="M379.574,183.6l-6.231,4.6V183.31a7.429,7.429,0,0,0-4.679,7.392l4.132-1.9v1.9l.968-1.833,3.267,3.733s4-4.664,4.435-6.068S379.574,183.6,379.574,183.6Z" transform="translate(-310.367 -154.71)" fill="#fff" opacity="0.7"/><path d="M383.249,232.129l-5.721-27.3a1.271,1.271,0,0,0-1.242-1.013h-17.6a.887.887,0,0,0-.872,1.042l4.768,26.728a1.264,1.264,0,0,0,1.212,1.05l18.6.554a.887.887,0,0,0,.85-1.064Z" transform="translate(-307.538 -160.061)" fill="#263238"/><path d="M383.249,232.129l-5.721-27.3a1.271,1.271,0,0,0-1.242-1.013h-17.6a.887.887,0,0,0-.872,1.042l4.768,26.728a1.264,1.264,0,0,0,1.212,1.05l18.6.554a.887.887,0,0,0,.85-1.064Z" transform="translate(-307.538 -160.061)" fill="#fff" opacity="0.1"/><path d="M396.207,227.05l-9.1-5.736s-.695-1.914-1.537-2.306-6.371-1.124-6.911-.569-.5,4.878.554,5.448,5.913.5,6.371.318l10.193,7.805Z" transform="translate(-312.89 -163.822)" fill="#eec1bb"/><path d="M397.689,188.89s-5.913,8.633-5.078,16.025l7.887,13.053-5.3-2.705-2.4,4.524s6.1,9.395,13.859,7.177S397.689,188.89,397.689,188.89Z" transform="translate(-316.597 -156.166)" fill="#7300cc"/><path d="M397.689,188.89s-5.913,8.633-5.078,16.025l7.887,13.053-5.3-2.705-2.4,4.524s6.1,9.395,13.859,7.177S397.689,188.89,397.689,188.89Z" transform="translate(-316.597 -156.166)" fill="#fff" opacity="0.1"/><path d="M395.586,224.034l-3.016,5.61-.68-1.6,2.4-4.561Z" transform="translate(-316.43 -165.189)" fill="#7300cc"/><path d="M375.866,203.815c-.695,0-.695,18.183-.695,18.183l-15.892-.458s-1.789-15.374,0-17.74Z" transform="translate(-307.716 -160.055)" fill="#fff"/><path d="M375.866,203.815c-.695,0-.695,18.183-.695,18.183l-15.892-.458s-1.789-15.374,0-17.74Z" transform="translate(-307.716 -160.055)" opacity="0.1"/><path d="M292.313,184.244l15.027,6.32a.673.673,0,0,1,.347.887h0a.658.658,0,0,1-.865.34L291.7,185.382l-.14-.074L289.8,184l2.314.2A.652.652,0,0,1,292.313,184.244Z" transform="translate(-289.8 -154.89)" fill="#263238"/></g><g transform="translate(68.574 90.435)"><g transform="translate(0 0)"><path d="M207.183,213.06l-14.6,1.3-5.854-3.3s-18.774-10.459-23.653-13.763c-1.478-1.013-2.861-3.215-4.051-5.8a58.442,58.442,0,0,1-2.572-6.822c-.333-1.042-.628-2.04-.88-2.957-.562-1.974-.909-3.452-1.005-3.851h0a.363.363,0,0,0,0-.1h.037l4.627-1.478,3.866-1.227s.177.917.48,2.314l.266,1.234c.081.355.163.739.251,1.124.976,4.3,2.476,10.171,3.563,11.132,1.752,1.545,23.778,16.557,24.562,16.949s7.8,0,7.8,0Z" transform="translate(-115.01 -124.044)" fill="#e4897b"/><path d="M153.82,150.68c6.726-.1,11.006,20.741,11.006,20.741l-8.87,4.435A28.4,28.4,0,0,1,152.15,161.5C152.357,153.5,153.82,150.68,153.82,150.68Z" transform="translate(-114.379 -117.685)" fill="#7300cc"/><path d="M153.82,150.68c6.726-.1,11.006,20.741,11.006,20.741l-8.87,4.435A28.4,28.4,0,0,1,152.15,161.5C152.357,153.5,153.82,150.68,153.82,150.68Z" transform="translate(-114.379 -117.685)" fill="#fff" opacity="0.5"/><path d="M166.467,178.635l-2.395,1.552-3.127,2.025-4.494,2.9-.806.525-.976-2.964.9-.488.591-.325,4.11-2.24,3.282-1.8,1.641-.894.288-.155Z" transform="translate(-115.036 -124.493)" fill="#7300cc"/><path d="M161.308,183.284a9.55,9.55,0,0,1-2.321,6.3,58.427,58.427,0,0,1-2.572-6.822l-.806.525-.976-2.957.9-.488c-.562-1.974-.909-3.452-1.005-3.851h0v-.118l1.064-8.131a39.6,39.6,0,0,1,3.563,6.652c.384.909.739,1.877,1.064,2.883q.17.517.31,1.064c.14.5.259,1.013.362,1.523A19.217,19.217,0,0,1,161.308,183.284Z" transform="translate(-115 -122.135)" opacity="0.2"/><path d="M153.05,404.652l6.187.658,1.16-13.342-6.187-.658Z" transform="translate(-114.614 -180.453)" fill="#e4897b"/><path d="M111.3,403.851h5.987l.5-13.881h-5.994Z" transform="translate(-103.723 -180.104)" fill="#e4897b"/><path d="M117.356,407.81h-7.281a.532.532,0,0,0-.51.414l-1.183,5.337a.88.88,0,0,0,.68,1.05.579.579,0,0,0,.192,0c2.358,0,4.073-.177,7.029-.177,1.826,0,7.325.185,9.838.185s2.846-2.484,1.811-2.713c-4.62-1.005-8.131-2.4-9.609-3.7A1.478,1.478,0,0,0,117.356,407.81Z" transform="translate(-102.957 -184.757)" fill="#263238"/><path d="M121.05,408.479a.148.148,0,0,1-.111-.126.133.133,0,0,1,.067-.133c.214-.14,2.151-1.33,2.816-.983a.407.407,0,0,1,.244.392.85.85,0,0,1-.3.739,1.782,1.782,0,0,1-1.153.31,6.967,6.967,0,0,1-1.567-.2Zm.407-.2a2.89,2.89,0,0,0,2.136-.111.6.6,0,0,0,.192-.51c0-.111-.052-.163-.1-.163a.3.3,0,0,0-.177-.037,5.772,5.772,0,0,0-2.055.82Z" transform="translate(-106.238 -184.591)" fill="#7300cc"/><path d="M120.976,408.051a.155.155,0,0,1-.067-.133c0-.081.155-1.8.85-2.365a.739.739,0,0,1,.6-.185.466.466,0,0,1,.458.37c.118.636-1.079,1.951-1.693,2.291h-.067a.148.148,0,0,1-.081.022Zm.961-2.336a3.415,3.415,0,0,0-.739,1.877c.621-.466,1.382-1.478,1.308-1.855,0-.037,0-.14-.207-.14h-.067a.517.517,0,0,0-.273.1Z" transform="translate(-106.23 -184.118)" fill="#7300cc"/><path d="M159.126,407.56h-7.281a.525.525,0,0,0-.51.407l-1.183,5.337a.887.887,0,0,0,.68,1.05h.2c2.351-.044,4.065-.185,7.029-.185,1.818,0,7.318.192,9.831.192s2.846-2.491,1.818-2.72c-4.62-1.005-8.131-2.395-9.609-3.7A1.479,1.479,0,0,0,159.126,407.56Z" transform="translate(-113.853 -184.692)" fill="#263238"/><path d="M162.82,408.219a.148.148,0,0,1-.111-.126.126.126,0,0,1,.074-.133c.214-.14,2.151-1.33,2.809-.983a.421.421,0,0,1,.244.392.842.842,0,0,1-.3.739,1.825,1.825,0,0,1-1.138.347A7.026,7.026,0,0,1,162.82,408.219Zm.407-.2a2.957,2.957,0,0,0,2.136-.1.591.591,0,0,0,.192-.51c0-.118-.052-.17-.089-.17a.318.318,0,0,0-.185-.037A5.915,5.915,0,0,0,163.227,408.02Z" transform="translate(-117.133 -184.524)" fill="#7300cc"/><path d="M162.784,407.771a.155.155,0,0,1-.074-.126c0-.089.155-1.811.85-2.373a.739.739,0,0,1,.6-.185.466.466,0,0,1,.458.377c.126.628-1.072,1.951-1.693,2.284h-.067A.14.14,0,0,1,162.784,407.771Zm.961-2.336a3.356,3.356,0,0,0-.739,1.877c.613-.466,1.375-1.478,1.3-1.848,0-.044,0-.148-.207-.148h-.067a.5.5,0,0,0-.288.118Z" transform="translate(-117.134 -184.045)" fill="#7300cc"/><path d="M154.406,391.31l6.187.658-.606,6.882-6.187-.658Z" transform="translate(-114.809 -180.453)" opacity="0.2"/><path d="M111.869,389.98h5.994l-.259,7.162H111.61Z" transform="translate(-103.804 -180.106)" opacity="0.2"/><path d="M113.558,225.22h31.783c3.023,16.52,12.492,74.965,5.7,127.038L140.27,350.92s1-69.133-8.508-94.685c-1.094,13.674-2.395,28.228-3.518,35.974-2.742,19.055-8.663,60.721-8.663,60.721H108.62s2.217-39.87,3.274-58.607C113.025,273.982,113.521,229.4,113.558,225.22Z" transform="translate(-103.024 -137.128)" fill="#7300cc"/><path d="M140,263.186a85.1,85.1,0,0,1,3.555,13.763c.887-12.174-2.668-25.079-2.668-25.079Z" transform="translate(-111.21 -144.08)" opacity="0.2"/><path d="M163.017,398.479,149.69,396.5l.407-3.688,13.859,1.818Z" transform="translate(-113.737 -180.844)" fill="#7300cc"/><path d="M163.017,398.479,149.69,396.5l.407-3.688,13.859,1.818Z" transform="translate(-113.737 -180.844)" fill="#fff" opacity="0.6"/><path d="M120.668,396.657H107.74v-3.866l13.416-.251Z" transform="translate(-102.795 -180.774)" fill="#7300cc"/><path d="M120.668,396.657H107.74v-3.866l13.416-.251Z" transform="translate(-102.795 -180.774)" fill="#fff" opacity="0.6"/><path d="M115.21,230.368l-.03-4.6,32.419-2,.229,4.464Z" transform="translate(-104.735 -136.748)" fill="#263238"/><rect width="1.464" height="6.748" transform="translate(17.215 87.848)" fill="#7300cc"/><rect width="1.464" height="6.748" transform="translate(39.623 85.712) rotate(-4.17)" fill="#7300cc"/><path d="M145.342,204.648l-32.39,2.395c0-2.838-.074-6-.288-9.343-.4-6.172-1.16-12.928-2.01-19.262-1.8-13.46-4.014-25.013-4.014-25.013,15.079-3.807,35.309-2.816,35.309-2.816C147.2,170.3,145.342,204.648,145.342,204.648Z" transform="translate(-102.508 -117.636)" fill="#7300cc"/><path d="M145.342,204.648l-32.39,2.395c0-2.838-.074-6-.288-9.343-.4-6.172-1.16-12.928-2.01-19.262-1.8-13.46-4.014-25.013-4.014-25.013,15.079-3.807,35.309-2.816,35.309-2.816C147.2,170.3,145.342,204.648,145.342,204.648Z" transform="translate(-102.508 -117.636)" fill="#fff" opacity="0.6"/><path d="M122.21,146.294c2.957,2.654,10.075,1.678,10.075,1.678s4.435-1.227,3.526-2.624c-2.631-.429-3.9-1.656-4.435-3.23a7.451,7.451,0,0,1-.266-3,14.28,14.28,0,0,1,.222-1.678l-8.87-6.549C123.651,135.214,125.071,143.16,122.21,146.294Z" transform="translate(-106.569 -112.522)" fill="#e4897b"/><path d="M125.36,136.52c.347,5.307,4.708,6.771,6.845,7.066a7.451,7.451,0,0,1-.266-3Z" transform="translate(-107.391 -113.991)" opacity="0.2"/><path d="M143.35,113.522c2.151,2.04,1.257,8.256-3.127,11.435s-4.383-12.2-4.383-12.2S141.982,112.221,143.35,113.522Z" transform="translate(-110.125 -107.765)" fill="#263238"/><path d="M123.936,131.053a7.5,7.5,0,0,0,8.611,2.9,8.338,8.338,0,0,0,4.76-3.881,8.793,8.793,0,0,0,.4-.791c2.158-5.019,2.824-13.889-2.491-17.185a8.131,8.131,0,0,0-11.2,2.557,8.227,8.227,0,0,0-1.22,3.577C122.147,124.12,121.482,127.565,123.936,131.053Z" transform="translate(-106.565 -107.298)" fill="#e4897b"/><path d="M134.64,124.827c-.111.466.1.9.421.953s.628-.3.739-.739-.111-.9-.414-.953S134.728,124.347,134.64,124.827Z" transform="translate(-109.804 -110.747)" fill="#263238"/><path d="M141.93,126.067c-.111.466.111.909.414.961s.636-.3.739-.739-.111-.909-.421-.961S142.011,125.616,141.93,126.067Z" transform="translate(-111.706 -111.07)" fill="#263238"/><path d="M139.294,126.25a17.1,17.1,0,0,0,1.582,4.435,2.787,2.787,0,0,1-2.365.037Z" transform="translate(-110.821 -111.312)" fill="#de5753"/><path d="M132.728,121.885a.325.325,0,0,0,.3-.059,2.269,2.269,0,0,1,1.951-.636.281.281,0,0,0,.34-.207.288.288,0,0,0-.207-.34h0a2.838,2.838,0,0,0-2.476.739.288.288,0,0,0,0,.4h0a.362.362,0,0,0,.1.1Z" transform="translate(-109.267 -109.837)" fill="#263238"/><path d="M135.638,134.741h0a4.324,4.324,0,0,1-3.526-1.922.15.15,0,0,1,.251-.163h0a4.161,4.161,0,0,0,3.282,1.767.148.148,0,0,1,.148.14h0a.148.148,0,0,1-.14.14Z" transform="translate(-109.146 -112.966)" fill="#263238"/><path d="M144.885,123.563a.318.318,0,0,0,.163.044.3.3,0,0,0,.2-.347h0a2.794,2.794,0,0,0-1.744-1.914.281.281,0,0,0-.347.185h0a.288.288,0,0,0,.185.355h0a2.284,2.284,0,0,1,1.36,1.537.281.281,0,0,0,.185.14Z" transform="translate(-112.03 -110.03)" fill="#263238"/><path d="M127.693,111.932v2.631a1.951,1.951,0,0,0-1.271,2.321c.569,2.291-1.079,5.529-2.92,6.652,0,0,.059-.953-.739-.828s-1.2,5.085.067,7.621c0,0-2.1-2.41-2.794-7.746-.65-4.938-.31-8.944.894-10.673Z" transform="translate(-105.917 -107.572)" fill="#263238"/><path d="M118.408,125.52a5.662,5.662,0,0,0,2.705,3.363c1.744.939,3.053-.525,2.957-2.395-.118-1.67-1.153-4.213-3.09-4.361A2.53,2.53,0,0,0,118.408,125.52Z" transform="translate(-105.547 -110.234)" fill="#e4897b"/><path d="M119.629,114.88s-1.826-4.383,2.957-7.6,16.128.532,16.927,3.141S131.729,117.77,119.629,114.88Z" transform="translate(-105.807 -106.04)" fill="#263238"/><path d="M122.562,147.529l7.236,3.962.99-5.411,5.071,3.3v6.911l-5.366-3.2-3.77,5.647-7.443-8.175Z" transform="translate(-105.805 -116.485)" fill="#7300cc"/><rect width="7.421" height="5.573" rx="1.16" transform="matrix(0.998, -0.055, 0.055, 0.998, 26.639, 87.563)" fill="#fff"/><path d="M122.562,147.529l7.236,3.962.99-5.411,5.071,3.3v6.911l-5.366-3.2-3.77,5.647-7.443-8.175Z" transform="translate(-105.805 -116.485)" fill="#fff" opacity="0.5"/><path d="M125.7,206.166c-2.151,3.237-9.032,3.215-11.619,1.427-.4-6.172-1.16-12.928-2.01-19.262Z" transform="translate(-103.924 -127.506)" opacity="0.2"/><path d="M112.18,178.74s1.53,9.964,3.031,11.908,32.523,18.907,32.523,18.907l10.725-.776,4.93,5.654s-14.288,2.217-15.847,1.789a15.041,15.041,0,0,1-2.757-1.064s-32.523-12.809-35.257-15.736-5.847-17.954-5.847-17.954Z" transform="translate(-101.736 -125.004)" fill="#e4897b"/><path d="M105.182,154.475c5.677-1.183,8.611,22.374,8.611,22.374l-11.612,2.957S98.2,155.938,105.182,154.475Z" transform="translate(-101.049 -118.663)" fill="#7300cc"/><path d="M105.182,154.475c5.677-1.183,8.611,22.374,8.611,22.374l-11.612,2.957S98.2,155.938,105.182,154.475Z" transform="translate(-101.049 -118.663)" fill="#fff" opacity="0.5"/><path d="M101.66,186.9l13.024-3.119v2.24l-12.44,3.607Z" transform="translate(-101.209 -126.319)" fill="#7300cc"/></g></g><g transform="translate(106.234 152.405)"><path d="M159.392,345.126V243.8a21.439,21.439,0,0,0-3.853-12.266L152,226.47h62.9l3.541,5.071a21.435,21.435,0,0,1,3.851,12.263V344.165" transform="translate(-152 -199.424)" fill="none" stroke="#263238" stroke-linecap="round" stroke-linejoin="round" stroke-width="6"/><circle cx="6.512" cy="6.512" r="6.512" transform="translate(134.555 154.889)" fill="#263238"/><path d="M344.959,407.087a3.252,3.252,0,1,0-.955,2.3A3.26,3.26,0,0,0,344.959,407.087Z" transform="translate(-200.633 -245.686)" fill="#fff" opacity="0.4"/><path d="M339.614,405.917h0a2.484,2.484,0,0,1-2.328-1.626L333.45,393.78h8.641v9.661a2.476,2.476,0,0,1-2.476,2.476Z" transform="translate(-199.331 -243.067)" fill="#263238"/><path d="M339.614,405.917h0a2.484,2.484,0,0,1-2.328-1.626L333.45,393.78h8.641v9.661a2.476,2.476,0,0,1-2.476,2.476Z" transform="translate(-199.331 -243.067)" fill="#fff" opacity="0.2"/><circle cx="6.512" cy="6.512" r="6.512" transform="translate(62.118 154.889)" fill="#263238"/><path d="M246.959,407.087a3.252,3.252,0,1,0-.955,2.3A3.26,3.26,0,0,0,246.959,407.087Z" transform="translate(-175.07 -245.686)" fill="#fff" opacity="0.4"/><path d="M241.615,405.917h0a2.484,2.484,0,0,1-2.328-1.626L235.45,393.78h8.641v9.661A2.476,2.476,0,0,1,241.615,405.917Z" transform="translate(-173.768 -243.067)" fill="#263238"/><path d="M241.615,405.917h0a2.484,2.484,0,0,1-2.328-1.626L235.45,393.78h8.641v9.661A2.476,2.476,0,0,1,241.615,405.917Z" transform="translate(-173.768 -243.067)" fill="#fff" opacity="0.2"/><path d="M305.165,383.53v6.15a2.077,2.077,0,0,1-2.077,2.077H157.527a2.077,2.077,0,0,1-2.077-2.077v-6.15Z" transform="translate(-152.9 -240.394)" fill="#263238"/><path d="M305.165,383.53v6.15a2.077,2.077,0,0,1-2.077,2.077H157.527a2.077,2.077,0,0,1-2.077-2.077v-6.15Z" transform="translate(-152.9 -240.394)" fill="#fff" opacity="0.4"/><path d="M253.424,383.53v6.15a2.077,2.077,0,0,1-2.077,2.077h-93.82a2.077,2.077,0,0,1-2.077-2.077v-6.15Z" transform="translate(-152.9 -240.394)" fill="#fff" opacity="0.2"/><circle cx="6.512" cy="6.512" r="6.512" transform="translate(82.075 154.889)" fill="#263238"/><path d="M273.959,407.087a3.252,3.252,0,1,0-.955,2.3A3.26,3.26,0,0,0,273.959,407.087Z" transform="translate(-182.113 -245.686)" fill="#fff" opacity="0.6"/><path d="M268.615,405.917h0a2.483,2.483,0,0,1-2.328-1.626L262.45,393.78h8.641v9.661A2.476,2.476,0,0,1,268.615,405.917Z" transform="translate(-180.811 -243.067)" fill="#263238"/><path d="M268.615,405.917h0a2.483,2.483,0,0,1-2.328-1.626L262.45,393.78h8.641v9.661A2.476,2.476,0,0,1,268.615,405.917Z" transform="translate(-180.811 -243.067)" fill="#fff" opacity="0.4"/><circle cx="6.512" cy="6.512" r="6.512" transform="translate(9.639 154.889)" fill="#263238"/><path d="M175.959,407.087a3.252,3.252,0,1,0-.955,2.3,3.26,3.26,0,0,0,.955-2.3Z" transform="translate(-156.549 -245.686)" fill="#fff" opacity="0.6"/><path d="M170.614,405.917h0a2.484,2.484,0,0,1-2.328-1.626L164.45,393.78h8.641v9.661A2.476,2.476,0,0,1,170.614,405.917Z" transform="translate(-155.248 -243.067)" fill="#263238"/><path d="M170.614,405.917h0a2.484,2.484,0,0,1-2.328-1.626L164.45,393.78h8.641v9.661A2.476,2.476,0,0,1,170.614,405.917Z" transform="translate(-155.248 -243.067)" fill="#fff" opacity="0.4"/><rect width="68.926" height="47.712" transform="translate(20.578 95.424)" fill="#7300cc"/><rect width="68.926" height="47.712" transform="translate(20.578 95.424)" fill="#fff" opacity="0.4"/><rect width="31.983" height="47.712" transform="translate(20.578 95.424)" fill="#fff" opacity="0.2"/><rect width="5.359" height="6.822" rx="0.92" transform="translate(44.859 133.047)" opacity="0.2"/><rect width="5.359" height="6.822" rx="0.92" transform="translate(37.645 133.047)" opacity="0.2"/><rect width="3.895" height="4.974" transform="translate(70.788 95.424)" opacity="0.4"/><rect width="26.831" height="6.238" transform="translate(58.504 115.795)" opacity="0.2"/><rect width="9.173" height="9.173" transform="translate(22.662 97.908)" opacity="0.2"/><rect width="68.926" height="47.712" transform="translate(27.615 47.712)" fill="#7300cc"/><rect width="68.926" height="47.712" transform="translate(27.615 47.712)" opacity="0.4"/><rect width="31.983" height="47.712" transform="translate(27.615 47.712)" fill="#fff" opacity="0.2"/><rect width="5.359" height="6.822" rx="0.92" transform="translate(51.903 85.335)" opacity="0.2"/><rect width="5.359" height="6.822" rx="0.92" transform="translate(44.689 85.335)" opacity="0.2"/><rect width="3.895" height="4.974" transform="translate(77.825 47.712)" opacity="0.4"/><rect width="26.831" height="6.238" transform="translate(65.54 68.083)" opacity="0.2"/><rect width="9.173" height="9.173" transform="translate(29.706 50.196)" opacity="0.2"/><rect width="68.926" height="47.712" transform="translate(69.805 47.712)" fill="#7300cc"/><rect width="68.926" height="47.712" transform="translate(69.805 47.712)" fill="#fff" opacity="0.4"/><rect width="31.983" height="47.712" transform="translate(69.805 47.712)" fill="#fff" opacity="0.2"/><rect width="5.359" height="6.822" rx="0.92" transform="translate(94.094 85.335)" opacity="0.2"/><rect width="5.359" height="6.822" rx="0.92" transform="translate(86.88 85.335)" opacity="0.2"/><rect width="3.895" height="4.974" transform="translate(120.016 47.712)" opacity="0.4"/><rect width="26.831" height="6.238" transform="translate(107.731 68.083)" opacity="0.2"/><rect width="9.173" height="9.173" transform="translate(71.897 50.196)" opacity="0.2"/><rect width="68.926" height="47.712" transform="translate(45.968)" fill="#7300cc"/><rect width="31.983" height="47.712" transform="translate(45.968)" fill="#fff" opacity="0.2"/><rect width="5.359" height="6.822" rx="0.92" transform="translate(70.249 37.623)" opacity="0.2"/><rect width="5.359" height="6.822" rx="0.92" transform="translate(63.042 37.623)" opacity="0.2"/><rect width="3.895" height="4.974" transform="translate(96.178)" opacity="0.4"/><rect width="26.831" height="6.238" transform="translate(83.893 20.371)" opacity="0.2"/><rect width="9.173" height="9.173" transform="translate(48.052 2.484)" opacity="0.2"/><rect width="68.926" height="47.712" transform="translate(64.439 95.424)" fill="#263238"/><rect width="68.926" height="47.712" transform="translate(64.439 95.424)" fill="#fff" opacity="0.2"/><rect width="31.983" height="47.712" transform="translate(64.439 95.424)" fill="#fff" opacity="0.2"/><rect width="5.359" height="6.822" rx="0.92" transform="translate(88.72 133.047)" opacity="0.2"/><rect width="5.359" height="6.822" rx="0.92" transform="translate(81.506 133.047)" opacity="0.2"/><rect width="3.895" height="4.974" transform="translate(114.649 95.424)" opacity="0.4"/><rect width="26.831" height="6.238" transform="translate(102.365 115.795)" opacity="0.2"/><rect width="9.173" height="9.173" transform="translate(66.523 97.908)" opacity="0.2"/></g></g><g transform="translate(-13073 -3783.704)"><g transform="matrix(1, 0, 0, 1, 16171.5, 1034.2)" filter="url(#a)"><g transform="translate(3.5 3.5)" fill="#fff" stroke="#00c853" stroke-width="2"><rect width="337" height="388" rx="10" stroke="none"/><rect x="1" y="1" width="335" height="386" rx="9" fill="none"/></g></g><text transform="translate(16197 1070.704)" fill="#7300cc" font-size="14" font-family="Ubuntu-Bold, Ubuntu" font-weight="700"><tspan x="0" y="0">Leilão de fornecedores</tspan></text><g transform="matrix(1, 0, 0, 1, 16171.5, 1034.2)" filter="url(#c)"><rect width="295" height="30" rx="15" transform="translate(25.5 339.5)" fill="#00c853"/></g><text transform="translate(16266 1394.704)" fill="#fff" font-size="16" font-family="Ubuntu-Bold, Ubuntu" font-weight="700"><tspan x="0" y="0">Movimentar Estoque</tspan></text><g transform="translate(0 40)"><g transform="translate(16197 1133.704)" fill="#fff" stroke="#f1f1f1" stroke-width="1"><rect width="295" height="65" rx="5" stroke="none"/><rect x="0.5" y="0.5" width="294" height="64" rx="4.5" fill="none"/></g><g transform="translate(16197 1133.704)" fill="#7300cc" stroke="#f1f1f1" stroke-width="1"><path d="M5,0H290a5,5,0,0,1,5,5V22a0,0,0,0,1,0,0H0a0,0,0,0,1,0,0V5A5,5,0,0,1,5,0Z" stroke="none"/><path d="M5,.5H290A4.5,4.5,0,0,1,294.5,5V21a.5.5,0,0,1-.5.5H1A.5.5,0,0,1,.5,21V5A4.5,4.5,0,0,1,5,.5Z" fill="none"/></g><line x2="295" transform="translate(16197.5 1177.204)" fill="none" stroke="#f1f1f1" stroke-width="1"/><text transform="translate(16210 1148.704)" fill="#fff" font-size="10" font-family="Ubuntu-Light, Ubuntu" font-weight="300"><tspan x="0" y="0">Produtos</tspan></text><text transform="translate(16409 1148.704)" fill="#fff" font-size="10" font-family="Ubuntu-Light, Ubuntu" font-weight="300"><tspan x="0" y="0">Quantidade</tspan></text><text transform="translate(16210 1169.704)" fill="#666" font-size="10" font-family="Ubuntu-Light, Ubuntu" font-weight="300"><tspan x="0" y="0">Produto Exemplo 1</tspan></text><text transform="translate(16409 1169.704)" fill="#666" font-size="10" font-family="Ubuntu-Light, Ubuntu" font-weight="300"><tspan x="0" y="0">10 unidades</tspan></text><text transform="translate(16210 1190.704)" fill="#666" font-size="10" font-family="Ubuntu-Light, Ubuntu" font-weight="300"><tspan x="0" y="0">Produto Exemplo 1</tspan></text><text transform="translate(16409 1190.704)" fill="#666" font-size="10" font-family="Ubuntu-Light, Ubuntu" font-weight="300"><tspan x="0" y="0">5 unidades</tspan></text></g><g transform="translate(0 40)"><g transform="translate(16197 1248.704)" fill="#fff" stroke="#f1f1f1" stroke-width="1"><rect width="295" height="65" rx="5" stroke="none"/><rect x="0.5" y="0.5" width="294" height="64" rx="4.5" fill="none"/></g><g transform="translate(16197 1248.704)" fill="#7300cc" stroke="#f1f1f1" stroke-width="1"><path d="M5,0H290a5,5,0,0,1,5,5V22a0,0,0,0,1,0,0H0a0,0,0,0,1,0,0V5A5,5,0,0,1,5,0Z" stroke="none"/><path d="M5,.5H290A4.5,4.5,0,0,1,294.5,5V21a.5.5,0,0,1-.5.5H1A.5.5,0,0,1,.5,21V5A4.5,4.5,0,0,1,5,.5Z" fill="none"/></g><line x2="295" transform="translate(16197.5 1292.204)" fill="none" stroke="#f1f1f1" stroke-width="1"/><text transform="translate(16210 1263.704)" fill="#fff" font-size="10" font-family="Ubuntu-Light, Ubuntu" font-weight="300"><tspan x="0" y="0">Fornecedores</tspan></text><text transform="translate(16361 1263.704)" fill="#fff" font-size="10" font-family="Ubuntu-Light, Ubuntu" font-weight="300"><tspan x="0" y="0">Email</tspan></text><text transform="translate(16210 1284.704)" fill="#666" font-size="10" font-family="Ubuntu-Light, Ubuntu" font-weight="300"><tspan x="0" y="0">Fornecedor Exemplo 1</tspan></text><text transform="translate(16361 1284.704)" fill="#666" font-size="10" font-family="Ubuntu-Light, Ubuntu" font-weight="300"><tspan x="0" y="0">exemplo@empresa.com</tspan></text><text transform="translate(16210 1305.704)" fill="#666" font-size="10" font-family="Ubuntu-Light, Ubuntu" font-weight="300"><tspan x="0" y="0">Fornecedor Exemplo 2</tspan></text><text transform="translate(16361 1305.704)" fill="#666" font-size="10" font-family="Ubuntu-Light, Ubuntu" font-weight="300"><tspan x="0" y="0">exemplo2@empresa.com</tspan></text></g><g transform="translate(0 40)"><g transform="translate(16196 1093.704)" fill="#fff" stroke="#f1f1f1" stroke-width="1"><rect width="163" height="30" rx="10" stroke="none"/><rect x="0.5" y="0.5" width="162" height="29" rx="9.5" fill="none"/></g><text transform="translate(16206 1113.704)" fill="#7300cc" font-size="14" font-family="Ubuntu-Bold, Ubuntu" font-weight="700"><tspan x="0" y="0">Localizar produtos</tspan></text><path d="M9.862,8.646,7.915,6.7a.468.468,0,0,0-.332-.137H7.265a4.06,4.06,0,1,0-.7.7v.318a.468.468,0,0,0,.137.332L8.646,9.862a.467.467,0,0,0,.662,0L9.86,9.31A.471.471,0,0,0,9.862,8.646Zm-5.8-2.084a2.5,2.5,0,1,1,2.5-2.5A2.5,2.5,0,0,1,4.062,6.562Z" transform="translate(16339 1104.704)" fill="#7300cc"/><g transform="translate(16369 1093.704)" fill="#fff" stroke="#f1f1f1" stroke-width="1"><rect width="56" height="30" rx="10" stroke="none"/><rect x="0.5" y="0.5" width="55" height="29" rx="9.5" fill="none"/></g><text transform="translate(16379 1113.704)" fill="#7300cc" font-size="14" font-family="Ubuntu-Bold, Ubuntu" font-weight="700"><tspan x="0" y="0">Qtd</tspan></text><rect width="57" height="30" rx="15" transform="translate(16435 1093.704)" fill="#00c853"/><text transform="translate(16450 1113.704)" fill="#fff" font-size="14" font-family="Ubuntu-Bold, Ubuntu" font-weight="700"><tspan x="0" y="0">Add</tspan></text></g><g transform="translate(0 40)"><g transform="translate(16197 1208.704)" fill="#fff" stroke="#f1f1f1" stroke-width="1"><rect width="228" height="30" rx="10" stroke="none"/><rect x="0.5" y="0.5" width="227" height="29" rx="9.5" fill="none"/></g><text transform="translate(16206 1228.704)" fill="#7300cc" font-size="14" font-family="Ubuntu-Bold, Ubuntu" font-weight="700"><tspan x="0" y="0">Fornecedores</tspan></text><path d="M9.862,8.646,7.915,6.7a.468.468,0,0,0-.332-.137H7.265a4.06,4.06,0,1,0-.7.7v.318a.468.468,0,0,0,.137.332L8.646,9.862a.467.467,0,0,0,.662,0L9.86,9.31A.471.471,0,0,0,9.862,8.646Zm-5.8-2.084a2.5,2.5,0,1,1,2.5-2.5A2.5,2.5,0,0,1,4.062,6.562Z" transform="translate(16405 1219.704)" fill="#7300cc"/><rect width="57" height="30" rx="15" transform="translate(16435 1208.704)" fill="#00c853"/><text transform="translate(16450 1228.704)" fill="#fff" font-size="14" font-family="Ubuntu-Bold, Ubuntu" font-weight="700"><tspan x="0" y="0">Add</tspan></text></g><g transform="translate(16197 1094)" fill="#fff" stroke="#f1f1f1" stroke-width="1"><rect width="140" height="30" rx="10" stroke="none"/><rect x="0.5" y="0.5" width="139" height="29" rx="9.5" fill="none"/></g><g transform="translate(16352 1094)" fill="#fff" stroke="#f1f1f1" stroke-width="1"><rect width="140" height="30" rx="10" stroke="none"/><rect x="0.5" y="0.5" width="139" height="29" rx="9.5" fill="none"/></g><text transform="translate(16206 1113.704)" fill="#7300cc" font-size="14" font-family="Ubuntu-Bold, Ubuntu" font-weight="700"><tspan x="0" y="0">Data limite</tspan></text><text transform="translate(16361 1113.704)" fill="#7300cc" font-size="14" font-family="Ubuntu-Bold, Ubuntu" font-weight="700"><tspan x="0" y="0">Pagamento</tspan></text><path d="M0,10.59a1.1,1.1,0,0,0,1.1,1.1H9.13a1.1,1.1,0,0,0,1.1-1.1V4.382H0ZM7.3,6.117a.275.275,0,0,1,.274-.274H8.49a.275.275,0,0,1,.274.274V7.03A.275.275,0,0,1,8.49,7.3H7.577A.275.275,0,0,1,7.3,7.03Zm0,2.921a.275.275,0,0,1,.274-.274H8.49a.275.275,0,0,1,.274.274v.913a.275.275,0,0,1-.274.274H7.577A.275.275,0,0,1,7.3,9.951ZM4.382,6.117a.275.275,0,0,1,.274-.274h.913a.275.275,0,0,1,.274.274V7.03a.275.275,0,0,1-.274.274H4.656a.275.275,0,0,1-.274-.274Zm0,2.921a.275.275,0,0,1,.274-.274h.913a.275.275,0,0,1,.274.274v.913a.275.275,0,0,1-.274.274H4.656a.275.275,0,0,1-.274-.274ZM1.461,6.117a.275.275,0,0,1,.274-.274h.913a.275.275,0,0,1,.274.274V7.03a.275.275,0,0,1-.274.274H1.735a.275.275,0,0,1-.274-.274Zm0,2.921a.275.275,0,0,1,.274-.274h.913a.275.275,0,0,1,.274.274v.913a.275.275,0,0,1-.274.274H1.735a.275.275,0,0,1-.274-.274ZM9.13,1.461h-1.1V.365A.366.366,0,0,0,7.669,0h-.73a.366.366,0,0,0-.365.365v1.1H3.652V.365A.366.366,0,0,0,3.287,0h-.73a.366.366,0,0,0-.365.365v1.1H1.1A1.1,1.1,0,0,0,0,2.556v1.1H10.225v-1.1A1.1,1.1,0,0,0,9.13,1.461Z" transform="translate(16317 1102)" fill="#7300cc"/></g></g></svg>