<svg xmlns="http://www.w3.org/2000/svg" xmlns:xlink="http://www.w3.org/1999/xlink" width="606.207" height="327.258" viewBox="0 0 606.207 327.258"><defs><filter id="a" x="260.207" y="0" width="346" height="327.258" filterUnits="userSpaceOnUse"><feOffset dx="1" dy="1" input="SourceAlpha"/><feGaussianBlur stdDeviation="1.5" result="b"/><feFlood flood-opacity="0.4"/><feComposite operator="in" in2="b"/><feComposite in="SourceGraphic"/></filter><filter id="c" x="276.707" y="263.5" width="313" height="48" filterUnits="userSpaceOnUse"><feOffset dy="3" input="SourceAlpha"/><feGaussianBlur stdDeviation="3" result="d"/><feFlood flood-opacity="0.161"/><feComposite operator="in" in2="d"/><feComposite in="SourceGraphic"/></filter></defs><g transform="translate(0.707 3.5)"><g transform="translate(0 29)"><rect width="34.092" height="21.444" rx="1.66" transform="translate(88.153 31.641)" fill="none" stroke="#8f00fc" stroke-miterlimit="10" stroke-width="1"/><rect width="34.092" height="4.95" transform="translate(88.153 44.289)" fill="none" stroke="#8f00fc" stroke-miterlimit="10" stroke-width="1"/><circle cx="2.339" cy="2.339" r="2.339" transform="translate(114.546 33.428)" fill="none" stroke="#8f00fc" stroke-miterlimit="10" stroke-width="1"/><circle cx="2.339" cy="2.339" r="2.339" transform="translate(110.974 33.428)" fill="none" stroke="#8f00fc" stroke-miterlimit="10" stroke-width="1"/><line x2="9.348" transform="translate(91.18 35.078)" fill="none" stroke="#8f00fc" stroke-miterlimit="10" stroke-width="1"/><rect width="34.092" height="21.444" rx="1.66" transform="translate(15.807 127.285)" fill="none" stroke="#8f00fc" stroke-miterlimit="10" stroke-width="1"/><rect width="34.092" height="4.95" transform="translate(15.807 139.933)" fill="none" stroke="#8f00fc" stroke-miterlimit="10" stroke-width="1"/><path d="M103.917,259.219a2.339,2.339,0,1,1-2.339-2.339A2.339,2.339,0,0,1,103.917,259.219Z" transform="translate(-57.046 -127.808)" fill="none" stroke="#8f00fc" stroke-miterlimit="10" stroke-width="1"/><circle cx="2.339" cy="2.339" r="2.339" transform="translate(38.621 129.072)" fill="none" stroke="#8f00fc" stroke-miterlimit="10" stroke-width="1"/><line x2="9.348" transform="translate(18.828 130.722)" fill="none" stroke="#8f00fc" stroke-miterlimit="10" stroke-width="1"/><rect width="21.183" height="21.183" transform="translate(208.014 11.016)" fill="none" stroke="#8f00fc" stroke-miterlimit="10" stroke-width="1"/><path d="M386.178,77.707h-5.4v-5.4h-2.289v5.4h-5.4V80h5.4v5.4h2.289V80h5.4Z" transform="translate(-161.026 -57.727)" fill="none" stroke="#8f00fc" stroke-miterlimit="10" stroke-width="1"/><rect width="21.183" height="21.183" transform="translate(229.154 11.016)" fill="none" stroke="#8f00fc" stroke-miterlimit="10" stroke-width="1"/><rect width="11.283" height="1.96" transform="translate(234.097 19.979)" fill="none" stroke="#8f00fc" stroke-miterlimit="10" stroke-width="1"/><rect width="21.183" height="21.183" transform="translate(208.014 32.162)" fill="none" stroke="#8f00fc" stroke-miterlimit="10" stroke-width="1"/><path d="M384.129,108.18l-3.815,3.815L376.5,108.18,374.88,109.8l3.815,3.815-3.815,3.815,1.619,1.619,3.815-3.815,3.815,3.815,1.619-1.619-3.815-3.815,3.815-3.815Z" transform="translate(-161.705 -71.347)" fill="none" stroke="#8f00fc" stroke-miterlimit="10" stroke-width="1"/><rect width="21.183" height="21.183" transform="translate(229.154 32.162)" fill="none" stroke="#8f00fc" stroke-miterlimit="10" stroke-width="1"/><rect width="11.283" height="1.96" transform="translate(234.097 41.119)" fill="none" stroke="#8f00fc" stroke-miterlimit="10" stroke-width="1"/><path d="M416.84,110.461a1.42,1.42,0,1,0-1.421-1.42A1.42,1.42,0,0,0,416.84,110.461Z" transform="translate(-177.098 -71.134)" fill="none" stroke="#8f00fc" stroke-miterlimit="10" stroke-width="1"/><circle cx="1.42" cy="1.42" r="1.42" transform="translate(238.322 45.102)" fill="none" stroke="#8f00fc" stroke-miterlimit="10" stroke-width="1"/><rect width="13.38" height="13.38" transform="translate(3.016 196.759)" fill="none" stroke="#8f00fc" stroke-miterlimit="10" stroke-width="1"/><path d="M48.462,373.042H45.057V369.63H43.612v3.412H40.2v1.445h3.412v3.405h1.445v-3.405h3.405Z" transform="translate(-34.628 -170.619)" fill="none" stroke="#8f00fc" stroke-miterlimit="10" stroke-width="1"/><rect width="13.38" height="13.38" transform="translate(16.365 196.759)" fill="none" stroke="#8f00fc" stroke-miterlimit="10" stroke-width="1"/><rect width="7.127" height="1.241" transform="translate(19.491 202.423)" fill="none" stroke="#8f00fc" stroke-miterlimit="10" stroke-width="1"/><rect width="13.38" height="13.38" transform="translate(3.016 210.114)" fill="none" stroke="#8f00fc" stroke-miterlimit="10" stroke-width="1"/><path d="M47.173,392.28l-2.413,2.413-2.407-2.413L41.33,393.3l2.413,2.413-2.413,2.407,1.023,1.023,2.407-2.413,2.413,2.413,1.023-1.023-2.413-2.407L48.2,393.3Z" transform="translate(-35.057 -179.219)" fill="none" stroke="#8f00fc" stroke-miterlimit="10" stroke-width="1"/><rect width="13.38" height="13.38" transform="translate(16.365 210.114)" fill="none" stroke="#8f00fc" stroke-miterlimit="10" stroke-width="1"/><rect width="7.127" height="1.241" transform="translate(19.491 215.772)" fill="none" stroke="#8f00fc" stroke-miterlimit="10" stroke-width="1"/><circle cx="0.893" cy="0.893" r="0.893" transform="translate(22.159 212.85)" fill="none" stroke="#8f00fc" stroke-miterlimit="10" stroke-width="1"/><path d="M67.829,400.7a.9.9,0,1,0,.9.9A.9.9,0,0,0,67.829,400.7Z" transform="translate(-44.778 -182.416)" fill="none" stroke="#8f00fc" stroke-miterlimit="10" stroke-width="1"/><path d="M293.922,99.348a.149.149,0,0,0-.124.143v.918a.3.3,0,0,1-.347.347h-1.21a.3.3,0,0,1-.347-.347l.043-.937a.161.161,0,0,0-.124-.149c-2.332-.285-3.678-1.693-3.678-3.66v-.875a.31.31,0,0,1,.347-.347H290.6c.229,0,.354.1.354.261v.292a1.861,1.861,0,0,0,2.059,1.942,1.633,1.633,0,0,0,1.861-1.619c0-1.451-2.655-1.675-4.621-2.94a3.995,3.995,0,0,1,1.538-7.524.155.155,0,0,0,.118-.143l-.037-1.1a.3.3,0,0,1,.347-.347h1.166a.31.31,0,0,1,.347.347v1.079a.143.143,0,0,0,.118.143c2.481.267,3.846,1.762,3.846,3.864v.676a.316.316,0,0,1-.347.347h-2.146c-.223,0-.347-.081-.347-.2V89.3a1.917,1.917,0,0,0-2.047-2.066c-1.141,0-1.861.62-1.861,1.514,0,1.327,1.861,1.532,3.778,2.376,2.109.937,3.027,2.245,3.027,4.044A3.979,3.979,0,0,1,293.922,99.348Z" transform="translate(-128.759 -61.883)" fill="none" stroke="#8f00fc" stroke-miterlimit="10" stroke-width="1"/><circle cx="11.624" cy="11.624" r="11.624" transform="translate(152.41 18.608)" fill="none" stroke="#8f00fc" stroke-miterlimit="10" stroke-width="1"/><path d="M144.945,67.742a.105.105,0,0,0-.087.1v.62a.2.2,0,0,1-.236.23h-.806a.2.2,0,0,1-.236-.23l.031-.62a.105.105,0,0,0-.081-.093,2.491,2.491,0,0,1-2.481-2.481v-.589a.217.217,0,0,1,.236-.236h1.42c.155,0,.236.068.236.18v.192a1.241,1.241,0,0,0,1.383,1.3,1.092,1.092,0,0,0,1.241-1.086c0-.968-1.78-1.123-3.1-1.973a2.58,2.58,0,0,1-1.4-2.357,2.611,2.611,0,0,1,2.481-2.686.105.105,0,0,0,.087-.093l-.031-.738a.2.2,0,0,1,.236-.236h.782a.211.211,0,0,1,.23.236v.726a.1.1,0,0,0,.081.093,2.561,2.561,0,0,1,2.574,2.587v.453a.211.211,0,0,1-.285.279h-1.433c-.155,0-.236-.05-.236-.136v-.136a1.278,1.278,0,0,0-1.365-1.383c-.769,0-1.241.4-1.241,1.017,0,.887,1.241,1.023,2.531,1.588a2.842,2.842,0,0,1,2.028,2.711A2.652,2.652,0,0,1,144.945,67.742Z" transform="translate(-72.92 -51.893)" fill="none" stroke="#8f00fc" stroke-miterlimit="10" stroke-width="1"/><circle cx="7.785" cy="7.785" r="7.785" transform="translate(60.257 11.009) rotate(-45)" fill="none" stroke="#8f00fc" stroke-miterlimit="10" stroke-width="1"/><path d="M47.783,193.461a.093.093,0,0,0-.081.093v.62c0,.167-.081.236-.23.236h-.8c-.149,0-.23-.068-.23-.236v-.62a.105.105,0,0,0-.081-.1,2.481,2.481,0,0,1-2.481-2.45v-.62a.2.2,0,0,1,.23-.229h1.427c.149,0,.23.068.23.18v.192a1.241,1.241,0,0,0,1.383,1.3,1.092,1.092,0,0,0,1.241-1.079c0-.974-1.78-1.123-3.1-1.973a2.673,2.673,0,0,1,1.03-5.037.1.1,0,0,0,.081-.1V182.9a.2.2,0,0,1,.23-.23h.782a.211.211,0,0,1,.236.23v.726a.112.112,0,0,0,.087.1,2.557,2.557,0,0,1,2.574,2.587v.453a.211.211,0,0,1-.236.23H48.645c-.149,0-.23-.056-.23-.136v-.136a1.284,1.284,0,0,0-1.371-1.365c-.769,0-1.241.4-1.241,1.011,0,.893,1.241,1.03,2.537,1.588a2.843,2.843,0,0,1,2.022,2.711A2.685,2.685,0,0,1,47.783,193.461Z" transform="translate(-36.014 -99.629)" fill="none" stroke="#8f00fc" stroke-miterlimit="10" stroke-width="1"/><circle cx="7.785" cy="7.785" r="7.785" transform="translate(0 88.989) rotate(-45)" fill="none" stroke="#8f00fc" stroke-miterlimit="10" stroke-width="1"/><path d="M460.805,365.22a.093.093,0,0,0-.081.093v.62c0,.167-.081.236-.229.236h-.813c-.149,0-.23-.068-.23-.236v-.62a.105.105,0,0,0-.081-.1,2.485,2.485,0,0,1-2.481-2.45v-.589a.2.2,0,0,1,.229-.229h1.427c.149,0,.23.068.23.18v.186a1.241,1.241,0,0,0,1.383,1.3,1.092,1.092,0,0,0,1.241-1.079c0-.974-1.78-1.123-3.1-1.973a2.673,2.673,0,0,1,1.03-5.037.106.106,0,0,0,.081-.1v-.738a.2.2,0,0,1,.229-.229h.782a.211.211,0,0,1,.236.229v.726a.1.1,0,0,0,.087.093,2.566,2.566,0,0,1,2.574,2.593v.416a.211.211,0,0,1-.236.236h-1.439c-.149,0-.229-.056-.229-.136v-.1a1.278,1.278,0,0,0-1.371-1.383c-.769,0-1.241.4-1.241,1.011,0,.893,1.241,1.03,2.537,1.588a2.843,2.843,0,0,1,2.022,2.711A2.647,2.647,0,0,1,460.805,365.22Z" transform="translate(-192.833 -164.857)" fill="none" stroke="#8f00fc" stroke-miterlimit="10" stroke-width="1"/><circle cx="7.785" cy="7.785" r="7.785" transform="translate(259.431 187.734)" fill="none" stroke="#8f00fc" stroke-miterlimit="10" stroke-width="1"/></g><g transform="translate(30.167 89.41)"><path d="M291.993,446.232c0,2.072-47.5,3.753-106.072,3.753S79.85,448.3,79.85,446.232s47.5-3.722,106.1-3.722S291.993,444.166,291.993,446.232Z" transform="translate(-79.85 -258.702)" fill="#fff"/><path d="M219.344,394.21s5.161,22.182,2.915,25.823c-2.94,4.77-34.21,7.642-34.21,7.642H257s8.641-2.425,6.042-9.373c-2.01-5.372-11.656-24.093-11.656-24.093Z" transform="translate(-120.933 -240.363)" fill="#fff" stroke="#263238" stroke-linecap="round" stroke-linejoin="round" stroke-width="1"/><path d="M217.831,394.21s5.508,22.368,2.915,25.823-32.7,6.1-32.7,6.1h69.275s5.825-2.351,4.206-7.834-11.649-24.093-11.649-24.093Z" transform="translate(-120.933 -240.363)" fill="#fff" stroke="#263238" stroke-linecap="round" stroke-linejoin="round" stroke-width="1"/><path d="M268.111,394.21H236.06s3.263,13.25,3.579,20.929h38.924C275.412,407.757,268.111,394.21,268.111,394.21Z" transform="translate(-139.163 -240.363)" fill="#263238" stroke="#263238" stroke-linecap="round" stroke-linejoin="round" stroke-width="1"/><rect width="68.947" height="1.427" transform="translate(67.117 185.886)" fill="#fff" stroke="#263238" stroke-linecap="round" stroke-linejoin="round" stroke-width="1"/><rect width="208.037" height="156.025" rx="8.48" transform="translate(11.252)" fill="#fff" stroke="#263238" stroke-linecap="round" stroke-linejoin="round" stroke-width="1"/><rect width="208.037" height="156.025" rx="8.48" transform="translate(6.352)" fill="#263238" stroke="#263238" stroke-linecap="round" stroke-linejoin="round" stroke-width="1"/><path d="M90.09,358.63H298.127v18.987a5.26,5.26,0,0,1-5.26,5.26H95.35a5.26,5.26,0,0,1-5.26-5.26Z" transform="translate(-83.738 -226.853)" fill="#fff" stroke="#263238" stroke-linecap="round" stroke-linejoin="round" stroke-width="1"/><rect width="187.108" height="110.234" transform="translate(16.816 9.708)" fill="#fff" stroke="#263238" stroke-linecap="round" stroke-linejoin="round" stroke-width="1"/><rect width="158.835" height="6.972" transform="translate(26.195 73.171)" fill="#8f00fc"/><rect width="158.835" height="6.972" transform="translate(26.195 86.346)" fill="#8f00fc"/><line x2="27.945" transform="translate(26.183 31.586)" fill="none" stroke="#263238" stroke-miterlimit="10" stroke-width="1"/><line x2="27.945" transform="translate(26.183 35.692)" fill="none" stroke="#263238" stroke-miterlimit="10" stroke-width="1"/><line x2="27.945" transform="translate(116.791 35.692)" fill="none" stroke="#263238" stroke-miterlimit="10" stroke-width="1"/><line x2="27.945" transform="translate(116.791 39.78)" fill="none" stroke="#263238" stroke-miterlimit="10" stroke-width="1"/><line x2="27.945" transform="translate(116.791 43.868)" fill="none" stroke="#263238" stroke-miterlimit="10" stroke-width="1"/><line x2="27.945" transform="translate(26.183 39.805)" fill="none" stroke="#263238" stroke-miterlimit="10" stroke-width="1"/><line x2="27.945" transform="translate(26.183 108.776)" fill="none" stroke="#263238" stroke-miterlimit="10" stroke-width="1"/><line x2="27.945" transform="translate(26.183 112.585)" fill="none" stroke="#263238" stroke-miterlimit="10" stroke-width="1"/><line x2="27.945" transform="translate(26.183 43.911)" fill="none" stroke="#263238" stroke-miterlimit="10" stroke-width="1"/><rect width="66.98" height="7.394" transform="translate(26.183 48.024)" fill="#8f00fc"/><rect width="35.339" height="3.697" transform="translate(149.456 40.624)" fill="#8f00fc"/><rect width="35.339" height="13.15" transform="translate(149.456 31.176)" fill="none" stroke="#263238" stroke-miterlimit="10" stroke-width="1"/><rect width="35.339" height="5.75" transform="translate(149.456 34.873)" fill="none" stroke="#263238" stroke-miterlimit="10" stroke-width="1"/><line y2="12.877" transform="translate(154.834 31.288)" fill="none" stroke="#263238" stroke-miterlimit="10" stroke-width="1"/><rect width="158.835" height="44.55" transform="translate(26.195 60.386)" fill="none" stroke="#263238" stroke-miterlimit="10" stroke-width="1"/><rect width="158.835" height="6.972" transform="translate(26.195 60.386)" fill="#8f00fc" stroke="#263238" stroke-miterlimit="10" stroke-width="1"/><line y2="44.308" transform="translate(138.327 60.554)" fill="none" stroke="#263238" stroke-miterlimit="10" stroke-width="1"/><line y2="44.308" transform="translate(155.59 60.554)" fill="none" stroke="#263238" stroke-miterlimit="10" stroke-width="1"/><rect width="187.108" height="5.093" transform="translate(16.816 9.708)" fill="#8f00fc" stroke="#263238" stroke-linecap="round" stroke-linejoin="round" stroke-width="1"/><path d="M259.3,375.826a3.84,3.84,0,1,0-3.833,3.833,3.84,3.84,0,0,0,3.833-3.833Z" transform="translate(-145.071 -231.922)" fill="#263238" stroke="#263238" stroke-linecap="round" stroke-linejoin="round" stroke-width="1"/></g><g transform="translate(0.733 262.642)"><line x2="255.614" transform="translate(10.868)" fill="none" stroke="#263238" stroke-miterlimit="10" stroke-width="1"/><line x2="4.001" fill="none" stroke="#263238" stroke-miterlimit="10" stroke-width="1"/></g><g transform="translate(-97 -2081)"><g transform="matrix(1, 0, 0, 1, 96.29, 2077.5)" filter="url(#a)"><g transform="translate(263.71 3.5)" fill="#fff"><path d="M 327 317.2583312988281 L 169.8894653320313 317.2583312988281 L 10 317.2583312988281 C 5.037374973297119 317.2583312988281 1 312.0638122558594 1 305.678955078125 L 1 12.57940006256104 C 1 6.194525241851807 5.037374973297119 1.000025391578674 10 1.000025391578674 L 327 1.000025391578674 C 331.9626159667969 1.000025391578674 336 6.194525241851807 336 12.57940006256104 L 336 305.678955078125 C 336 312.0638122558594 331.9626159667969 317.2583312988281 327 317.2583312988281 Z" stroke="none"/><path d="M 10 2 C 7.95123291015625 2 5.996002197265625 3.040191650390625 4.4945068359375 4.928955078125 C 2.885894775390625 6.9525146484375 2 9.669464111328125 2 12.57937622070313 L 2 305.6789245605469 C 2 308.5888366699219 2.885894775390625 311.3057861328125 4.4945068359375 313.3292846679688 C 5.996002197265625 315.2181091308594 7.95123291015625 316.25830078125 10 316.25830078125 L 169.8894500732422 316.25830078125 L 327 316.25830078125 C 329.0487670898438 316.25830078125 331.0039978027344 315.2181091308594 332.5054931640625 313.3292846679688 C 334.1141052246094 311.3057861328125 335 308.5888366699219 335 305.6789245605469 L 335 12.57937622070313 C 335 9.669464111328125 334.1141052246094 6.9525146484375 332.5054931640625 4.928955078125 C 331.0039978027344 3.040191650390625 329.0487670898438 2 327 2 L 10 2 M 10 0 L 327 0 C 332.5228576660156 0 337 5.6319580078125 337 12.57937622070313 L 337 305.6789245605469 C 337 312.6262817382813 332.5228576660156 318.25830078125 327 318.25830078125 L 169.8894500732422 318.25830078125 L 10 318.25830078125 C 4.477142333984375 318.25830078125 0 312.6262817382813 0 305.6789245605469 L 0 12.57937622070313 C 0 5.6319580078125 4.477142333984375 0 10 0 Z" stroke="none" fill="#00c853"/></g></g><rect width="333" height="50" transform="translate(362 2207)" fill="#7300cc"/><text transform="translate(381 2114)" fill="#7300cc" font-size="14" font-family="Ubuntu-Bold, Ubuntu" font-weight="700"><tspan x="0" y="0">Gerador de SPED Fiscal</tspan></text><g transform="matrix(1, 0, 0, 1, 96.29, 2077.5)" filter="url(#c)"><rect width="295" height="30" rx="15" transform="translate(285.71 269.5)" fill="#00c853"/></g><text transform="translate(462 2368)" fill="#fff" font-size="16" font-family="Ubuntu-Bold, Ubuntu" font-weight="700"><tspan x="0" y="0">Gerar SPED Fiscal</tspan></text><g transform="translate(382 2167)" fill="#fff" stroke="#f1f1f1" stroke-width="1"><rect width="142.5" height="30" rx="2" stroke="none"/><rect x="0.5" y="0.5" width="141.5" height="29" rx="1.5" fill="none"/></g><g transform="translate(382 2267)" fill="#fff" stroke="#f1f1f1" stroke-width="1"><rect width="142.5" height="30" rx="2" stroke="none"/><rect x="0.5" y="0.5" width="141.5" height="29" rx="1.5" fill="none"/></g><g transform="translate(535 2267)" fill="#fff" stroke="#f1f1f1" stroke-width="1"><rect width="142.5" height="30" rx="2" stroke="none"/><rect x="0.5" y="0.5" width="141.5" height="29" rx="1.5" fill="none"/></g><g transform="translate(382 2217)" fill="#fff" stroke="#f1f1f1" stroke-width="1"><rect width="142.5" height="30" rx="2" stroke="none"/><rect x="0.5" y="0.5" width="141.5" height="29" rx="1.5" fill="none"/></g><g transform="translate(535 2217)" fill="#fff" stroke="#f1f1f1" stroke-width="1"><rect width="142.5" height="30" rx="2" stroke="none"/><rect x="0.5" y="0.5" width="141.5" height="29" rx="1.5" fill="none"/></g><g transform="translate(382 2127)" fill="#fff" stroke="#f1f1f1" stroke-width="1"><rect width="295" height="30" rx="2" stroke="none"/><rect x="0.5" y="0.5" width="294" height="29" rx="1.5" fill="none"/></g><text transform="translate(392 2187)" fill="#7300cc" font-size="14" font-family="Ubuntu-Bold, Ubuntu" font-weight="700"><tspan x="0" y="0">Perfil</tspan></text><text transform="translate(392 2287)" fill="#7300cc" font-size="14" font-family="Ubuntu-Bold, Ubuntu" font-weight="700"><tspan x="0" y="0">Venc. Guia ICMS </tspan></text><text transform="translate(545 2287)" fill="#7300cc" font-size="14" font-family="Ubuntu-Bold, Ubuntu" font-weight="700"><tspan x="0" y="0">Cód. Receita ICMS</tspan></text><text transform="translate(392 2237)" fill="#7300cc" font-size="14" font-family="Ubuntu-Bold, Ubuntu" font-weight="700"><tspan x="0" y="0">Data Inicial</tspan></text><text transform="translate(392 2147)" fill="#7300cc" font-size="14" font-family="Ubuntu-Bold, Ubuntu" font-weight="700"><tspan x="0" y="0">Empresa</tspan></text><text transform="translate(545 2237)" fill="#7300cc" font-size="14" font-family="Ubuntu-Bold, Ubuntu" font-weight="700"><tspan x="0" y="0">Data Final</tspan></text><path d="M9.862,8.646,7.915,6.7a.468.468,0,0,0-.332-.137H7.265a4.06,4.06,0,1,0-.7.7v.318a.468.468,0,0,0,.137.332L8.646,9.862a.467.467,0,0,0,.662,0L9.86,9.31A.471.471,0,0,0,9.862,8.646Zm-5.8-2.084a2.5,2.5,0,1,1,2.5-2.5A2.5,2.5,0,0,1,4.062,6.562Z" transform="translate(657 2137)" fill="#7300cc"/><path d="M10.937,15.039l3.59-3.593a.676.676,0,0,1,.958,0,.684.684,0,0,1,0,.961l-4.068,4.071a.677.677,0,0,1-.936.02l-4.1-4.088a.679.679,0,1,1,.958-.961Z" transform="translate(498.813 2167.754)" fill="#7300cc"/><path d="M0,10.59a1.1,1.1,0,0,0,1.1,1.1H9.13a1.1,1.1,0,0,0,1.1-1.1V4.382H0ZM7.3,6.117a.275.275,0,0,1,.274-.274H8.49a.275.275,0,0,1,.274.274V7.03A.275.275,0,0,1,8.49,7.3H7.577A.275.275,0,0,1,7.3,7.03Zm0,2.921a.275.275,0,0,1,.274-.274H8.49a.275.275,0,0,1,.274.274v.913a.275.275,0,0,1-.274.274H7.577A.275.275,0,0,1,7.3,9.951ZM4.382,6.117a.275.275,0,0,1,.274-.274h.913a.275.275,0,0,1,.274.274V7.03a.275.275,0,0,1-.274.274H4.656a.275.275,0,0,1-.274-.274Zm0,2.921a.275.275,0,0,1,.274-.274h.913a.275.275,0,0,1,.274.274v.913a.275.275,0,0,1-.274.274H4.656a.275.275,0,0,1-.274-.274ZM1.461,6.117a.275.275,0,0,1,.274-.274h.913a.275.275,0,0,1,.274.274V7.03a.275.275,0,0,1-.274.274H1.735a.275.275,0,0,1-.274-.274Zm0,2.921a.275.275,0,0,1,.274-.274h.913a.275.275,0,0,1,.274.274v.913a.275.275,0,0,1-.274.274H1.735a.275.275,0,0,1-.274-.274ZM9.13,1.461h-1.1V.365A.366.366,0,0,0,7.669,0h-.73a.366.366,0,0,0-.365.365v1.1H3.652V.365A.366.366,0,0,0,3.287,0h-.73a.366.366,0,0,0-.365.365v1.1H1.1A1.1,1.1,0,0,0,0,2.556v1.1H10.225v-1.1A1.1,1.1,0,0,0,9.13,1.461Z" transform="translate(657 2226)" fill="#7300cc"/><g transform="translate(535 2177)" fill="#fff" stroke="#f1f1f1" stroke-width="1"><rect width="10" height="10" rx="2" stroke="none"/><rect x="0.5" y="0.5" width="9" height="9" rx="1.5" fill="none"/></g><path d="M2.826,10.661l-2.7-2.7a.416.416,0,0,1,0-.588L.71,6.779a.416.416,0,0,1,.588,0L3.12,8.6l3.9-3.9a.416.416,0,0,1,.588,0l.588.588a.416.416,0,0,1,0,.588L3.415,10.661A.416.416,0,0,1,2.826,10.661Z" transform="translate(537.05 2174.3)" fill="#00c853"/><text transform="translate(555 2186)" fill="#7300cc" font-size="10" font-family="Ubuntu-Bold, Ubuntu" font-weight="700"><tspan x="0" y="0">Retificação?</tspan></text><path d="M0,10.59a1.1,1.1,0,0,0,1.1,1.1H9.13a1.1,1.1,0,0,0,1.1-1.1V4.382H0ZM7.3,6.117a.275.275,0,0,1,.274-.274H8.49a.275.275,0,0,1,.274.274V7.03A.275.275,0,0,1,8.49,7.3H7.577A.275.275,0,0,1,7.3,7.03Zm0,2.921a.275.275,0,0,1,.274-.274H8.49a.275.275,0,0,1,.274.274v.913a.275.275,0,0,1-.274.274H7.577A.275.275,0,0,1,7.3,9.951ZM4.382,6.117a.275.275,0,0,1,.274-.274h.913a.275.275,0,0,1,.274.274V7.03a.275.275,0,0,1-.274.274H4.656a.275.275,0,0,1-.274-.274Zm0,2.921a.275.275,0,0,1,.274-.274h.913a.275.275,0,0,1,.274.274v.913a.275.275,0,0,1-.274.274H4.656a.275.275,0,0,1-.274-.274ZM1.461,6.117a.275.275,0,0,1,.274-.274h.913a.275.275,0,0,1,.274.274V7.03a.275.275,0,0,1-.274.274H1.735a.275.275,0,0,1-.274-.274Zm0,2.921a.275.275,0,0,1,.274-.274h.913a.275.275,0,0,1,.274.274v.913a.275.275,0,0,1-.274.274H1.735a.275.275,0,0,1-.274-.274ZM9.13,1.461h-1.1V.365A.366.366,0,0,0,7.669,0h-.73a.366.366,0,0,0-.365.365v1.1H3.652V.365A.366.366,0,0,0,3.287,0h-.73a.366.366,0,0,0-.365.365v1.1H1.1A1.1,1.1,0,0,0,0,2.556v1.1H10.225v-1.1A1.1,1.1,0,0,0,9.13,1.461Z" transform="translate(504 2226)" fill="#7300cc"/><g transform="translate(382 2317)" fill="#fff" stroke="#f1f1f1" stroke-width="1"><rect width="10" height="10" rx="2" stroke="none"/><rect x="0.5" y="0.5" width="9" height="9" rx="1.5" fill="none"/></g><g transform="translate(535 2317)" fill="#fff" stroke="#f1f1f1" stroke-width="1"><rect width="10" height="10" rx="2" stroke="none"/><rect x="0.5" y="0.5" width="9" height="9" rx="1.5" fill="none"/></g><path d="M2.826,10.661l-2.7-2.7a.416.416,0,0,1,0-.588L.71,6.779a.416.416,0,0,1,.588,0L3.12,8.6l3.9-3.9a.416.416,0,0,1,.588,0l.588.588a.416.416,0,0,1,0,.588L3.415,10.661A.416.416,0,0,1,2.826,10.661Z" transform="translate(384.05 2314.3)" fill="#00c853"/><path d="M2.826,10.661l-2.7-2.7a.416.416,0,0,1,0-.588L.71,6.779a.416.416,0,0,1,.588,0L3.12,8.6l3.9-3.9a.416.416,0,0,1,.588,0l.588.588a.416.416,0,0,1,0,.588L3.415,10.661A.416.416,0,0,1,2.826,10.661Z" transform="translate(537.05 2314.3)" fill="#00c853"/><text transform="translate(402 2326)" fill="#7300cc" font-size="10" font-family="Ubuntu-Bold, Ubuntu" font-weight="700"><tspan x="0" y="0">Gerar Bloco K?</tspan></text><text transform="translate(555 2326)" fill="#7300cc" font-size="10" font-family="Ubuntu-Bold, Ubuntu" font-weight="700"><tspan x="0" y="0">Gerar Inventário?</tspan></text></g><g transform="translate(193.512 169)"><path d="M404.3,460.08c0,2.481-11.029,4.46-24.638,4.46s-24.657-2-24.657-4.46,11.035-4.46,24.638-4.46S404.3,457.617,404.3,460.08Z" transform="translate(-347.669 -315.608)" fill="#fff"/><path d="M362.382,278.489a6.359,6.359,0,0,0-3.48,4.727c-.825,3.734-2.574,15.011-3.486,20.321s-5.806,22.554-5.806,22.554l2.574,1.743s6.3-9.205,8.064-13.516,3.48-7.3,3.722-10.62-.161-21.562-.161-22.951S363.133,278.322,362.382,278.489Z" transform="translate(-345.622 -248.345)" fill="#8f00fc" stroke="#263238" stroke-linecap="round" stroke-linejoin="round" stroke-width="1"/><path d="M369.492,452.641s-6.55,4.23-7.3,5.719.664,1.911,4.342,1.414,6.2-2.407,7.958-3.405,2.574-1.073,1.991-3.312S369.492,452.641,369.492,452.641Z" transform="translate(-350.326 -314.211)" fill="#fff" stroke="#263238" stroke-linecap="round" stroke-linejoin="round" stroke-width="1"/><path d="M411.19,453.089s7.22,4.888,6.823,5.967-2.574,1.576-6.389.335a13.885,13.885,0,0,1-6.2-3.567c-1.557-1.328-.992-2.984-.992-4.15S411.19,453.089,411.19,453.089Z" transform="translate(-366.399 -313.995)" fill="#fff" stroke="#263238" stroke-linecap="round" stroke-linejoin="round" stroke-width="1"/><path d="M367.58,332s-1.495,13.1-1.662,23.571,4.646,50.313,4.646,50.728v1.241a11.465,11.465,0,0,0,3.9.992,32.841,32.841,0,0,0,4.224-.167s0-7.382.167-13.1,1.079-31.821,1.079-31.821l.248-11.277,1.656,1.079,7.8,55.288,6.966-.744s.831-36.8.664-46.914-2.146-27.976-2.146-27.976Z" transform="translate(-351.813 -268.67)" fill="#263238" stroke="#263238" stroke-linecap="round" stroke-linejoin="round" stroke-width="1"/><path d="M381.214,272.155s-11.029,3.4-12.028,3.9-1.656,3.151-1.656,6.47,1.241,19.738,1.079,21.711-1.16,4.479-.335,5.887,11.786,2.32,17.666,2.072,9.205.335,10.036-1.327,1.327-22.139,2.152-26.871,1.414-7.214-.248-8.542-10.446-2.9-12.6-3.4Z" transform="translate(-352.427 -245.907)" fill="#8f00fc" stroke="#263238" stroke-linecap="round" stroke-linejoin="round" stroke-width="1"/><path d="M386.338,268.669a4.536,4.536,0,0,0-2.438,1.991c-.608,1.371-2.432,8.194-1.768,8.523s5.812-2.159,6.588-1.991,3.927,4.261,4.869,3.722,3.157-6.364,2.326-9.354S387.163,267.893,386.338,268.669Z" transform="translate(-357.917 -244.511)" fill="#fff" stroke="#263238" stroke-linecap="round" stroke-linejoin="round" stroke-width="1"/><path d="M387.346,265.786s-.056,3.039-.056,4.59,1.334,7.084,2.481,6.867,5.98-5.645,6.755-7.09a13.925,13.925,0,0,0,.937-4.423s-3.43,2.432-6.029,1.656a22.653,22.653,0,0,1-4.088-1.6Z" transform="translate(-359.929 -243.507)" fill="#ccc" stroke="#263238" stroke-linecap="round" stroke-linejoin="round" stroke-width="1"/><path d="M391.467,267.394a22.653,22.653,0,0,1-4.1-1.6s0,1.2-.037,2.481c.378.813.738,1.495.992,1.979a3.213,3.213,0,0,0,4.106,1.718,13.287,13.287,0,0,0,4.689-3.467,18.87,18.87,0,0,0,.378-2.754S394.06,268.169,391.467,267.394Z" transform="translate(-359.945 -243.515)" fill="#263238" stroke="#263238" stroke-linecap="round" stroke-linejoin="round" stroke-width="1"/><path d="M383.988,250.527s-.31-2.208-1.352-1.309-.856,3.157-.36,4.243,1.036.949,1.172.9S383.988,250.527,383.988,250.527Z" transform="translate(-357.874 -237.156)" fill="#ccc" stroke="#263238" stroke-linecap="round" stroke-linejoin="round" stroke-width="1"/><path d="M399.212,245.4a41.167,41.167,0,0,0,1.9-8.846c.093-3.027-4.286-5.862-7.4-6.451s-7.717.18-8.684,1.942-1.086,8.684-1.086,9.838.906,1.352,1.129,1.079.906-7.084,1.309-7.58,7.624-.267,8.752.043,1.762,1.495,1.538,3.207a3.042,3.042,0,0,0,.5,2.618,5.023,5.023,0,0,1,.447,2.7C397.611,245.3,398.244,246.929,399.212,245.4Z" transform="translate(-358.658 -229.905)" fill="#263238" stroke="#263238" stroke-linecap="round" stroke-linejoin="round" stroke-width="1"/><path d="M385.885,237.518a75.478,75.478,0,0,0-1.625,10.061c-.229,4.013,1.985,8.163,2.884,9.881a3.2,3.2,0,0,0,4.106,1.712,13.87,13.87,0,0,0,5.459-4.342c1.669-2.165,2.531-7.357,2.531-7.357s-.682.36-.726-.223.409-2.618-.043-3.927-1.445-1.625-.856-2.891a8.441,8.441,0,0,0,.813-2.252c0-.23-2.258-1.582-6.364-1.942S386.108,236.389,385.885,237.518Z" transform="translate(-358.773 -232.267)" fill="#ccc" stroke="#263238" stroke-linecap="round" stroke-linejoin="round" stroke-width="1"/><path d="M387.61,244.072a2.3,2.3,0,0,1,2.891.161" transform="translate(-360.051 -235.124)" fill="none" stroke="#263238" stroke-linecap="round" stroke-linejoin="round" stroke-width="1"/><path d="M397.45,244.9s2.891-1.16,4.051.893" transform="translate(-363.787 -235.474)" fill="none" stroke="#263238" stroke-linecap="round" stroke-linejoin="round" stroke-width="1"/><path d="M407.136,254.16s.9-2.028,2.208-2.121,1.129,2.481-.087,4.156-2.977,2.345-3.027,1.123" transform="translate(-367.121 -238.308)" fill="#ccc" stroke="#263238" stroke-linecap="round" stroke-linejoin="round" stroke-width="1"/><path d="M392.685,249.57s-1.489,4.286-1.172,4.876a2.32,2.32,0,0,0,3.021.54" transform="translate(-361.516 -237.372)" fill="none" stroke="#263238" stroke-linecap="round" stroke-linejoin="round" stroke-width="1"/><path d="M394.38,261.156a4.082,4.082,0,0,0,3.877-.676" transform="translate(-362.622 -241.514)" fill="none" stroke="#263238" stroke-linecap="round" stroke-linejoin="round" stroke-width="1"/><path d="M390.529,249.285c0,.49-.174.881-.385.881s-.385-.391-.385-.881.174-.875.385-.875S390.529,248.776,390.529,249.285Z" transform="translate(-360.867 -236.931)" fill="#263238"/><ellipse cx="0.385" cy="0.881" rx="0.385" ry="0.881" transform="translate(34.556 12.062)" fill="#263238"/><path d="M390.326,247.8a2.593,2.593,0,1,1-2.593-2.593A2.593,2.593,0,0,1,390.326,247.8Z" transform="translate(-359.113 -235.716)" fill="none" stroke="#263238" stroke-linecap="round" stroke-linejoin="round" stroke-width="1"/><path d="M401.009,248.616a2.729,2.729,0,1,1-.8-1.934A2.729,2.729,0,0,1,401.009,248.616Z" transform="translate(-363.066 -235.97)" fill="none" stroke="#263238" stroke-linecap="round" stroke-linejoin="round" stroke-width="1"/><path d="M393.5,248.551a1.036,1.036,0,0,1,1.241.229" transform="translate(-362.287 -236.942)" fill="none" stroke="#263238" stroke-linecap="round" stroke-linejoin="round" stroke-width="1"/><line x2="3.25" y2="1.358" transform="translate(37.893 12.918)" fill="none" stroke="#263238" stroke-linecap="round" stroke-linejoin="round" stroke-width="1"/><line x2="3.486" y2="1.408" transform="translate(4.651 75.842)" fill="#fff" stroke="#263238" stroke-linecap="round" stroke-linejoin="round" stroke-width="1"/><path d="M345.495,366.591s.49,2.866.825,3.021.453-1.4.341-2.376l-.112-.98s.527,2.562,1.055,2.791.229-.906.074-1.476l-.149-.564s1.321,1.4,1.433,1.055-.794-2.035-.831-2.146a13.947,13.947,0,0,1-.465-1.985c-.037-.527-.788-2.643-1.545-1.321A9.407,9.407,0,0,0,345.495,366.591Z" transform="translate(-344.057 -280.13)" fill="#ccc" stroke="#263238" stroke-linecap="round" stroke-linejoin="round" stroke-width="1"/><path d="M347.169,355.24s-2.481,3.982-3.151,5.31-1.16,6.3-.577,6.637.738-.881.875-1.718a13.068,13.068,0,0,1,1.055-2.872s-.354,3.176.143,3.1.912-2.984,1.241-3.722,2.326-1.824,2.99-4.962Z" transform="translate(-343.182 -277.494)" fill="#ccc" stroke="#263238" stroke-linecap="round" stroke-linejoin="round" stroke-width="1"/><path d="M346.71,365.877a13.873,13.873,0,0,1,.3-2" transform="translate(-344.521 -280.775)" fill="#fff" stroke="#263238" stroke-linecap="round" stroke-linejoin="round" stroke-width="1"/><path d="M414.662,277.3a12.406,12.406,0,0,1,4.144,5.552c1.576,3.9,6.966,20.9,7.134,21.233a4.763,4.763,0,0,1-2.655,4.727c-2.655,1.079-3.9-1.241-5.471-3.9s-5.223-14.434-5.223-14.434" transform="translate(-369.536 -247.901)" fill="#8f00fc" stroke="#263238" stroke-linecap="round" stroke-linejoin="round" stroke-width="1"/><path d="M425.622,308.857,438.5,302.53l2.239,2.574s-9.466,11.544-11.55,12.871-4.646,1-5.639-1.241" transform="translate(-373.697 -257.48)" fill="#8f00fc" stroke="#263238" stroke-linecap="round" stroke-linejoin="round" stroke-width="1"/><line x2="2.401" y2="2.903" transform="translate(63.394 45.962)" fill="#fff" stroke="#263238" stroke-linecap="round" stroke-linejoin="round" stroke-width="1"/><path d="M447.65,298.136s2.822-4.392,3.647-4.727,3.151-.825,4.479-1.824,2.072-.744,1.327.335a4.322,4.322,0,0,1-2.32,1.576,5.877,5.877,0,0,0-1.079.577s2.072.087,3.4.167a9.4,9.4,0,0,0,2.407-.167s3.4-1.489,2.568.335-.744,2.984-4.063,3.976a23.988,23.988,0,0,1-6.631.918l-1.495,1.408Z" transform="translate(-382.848 -253.087)" fill="#ccc" stroke="#263238" stroke-linecap="round" stroke-linejoin="round" stroke-width="1"/><path d="M468.532,298.515a3.654,3.654,0,0,0,2.239-2.32c.583-1.83.248-1.911-.5-1.241a8.864,8.864,0,0,0-1.743,2.574C468.135,298.347,468.532,298.515,468.532,298.515Z" transform="translate(-390.71 -254.458)" fill="#ccc" stroke="#263238" stroke-linecap="round" stroke-linejoin="round" stroke-width="1"/><path d="M466.731,298.242s.992.664,1.743-1.327.658-3.567,0-3.232-.831.416-1.662,2.159-1.576,2.481-1.079,2.649a1.178,1.178,0,0,0,1-.248Z" transform="translate(-389.653 -254.104)" fill="#ccc" stroke="#263238" stroke-linecap="round" stroke-linejoin="round" stroke-width="1"/><path d="M452.06,299.289s1.241-2.078,2.655-2.078a47.724,47.724,0,0,1,5.142.664s2.736-3.976,3.319-3.4-.912,3.319-1.576,4.063-.751.831-1.327,1" transform="translate(-384.522 -254.4)" fill="#ccc" stroke="#263238" stroke-linecap="round" stroke-linejoin="round" stroke-width="1"/><line x1="3.815" y1="1.824" transform="translate(24.557 81.648)" fill="none" stroke="#7d7d7d" stroke-linecap="round" stroke-linejoin="round" stroke-width="1"/></g></g></svg>