<svg xmlns="http://www.w3.org/2000/svg" width="599.624" height="355.547" viewBox="0 0 599.624 355.547"><g transform="translate(0.484)"><g transform="translate(176.092)"><rect width="351.735" height="209.275" rx="8.95" transform="translate(0 38.244)" fill="#fff"/><path d="M428.915,82.09v5.444H77.18V82.09A13.84,13.84,0,0,1,90.943,68.25h324.27a13.748,13.748,0,0,1,13.7,13.84Z" transform="translate(-77.18 -30.083)" fill="#7400cc8c"/><rect width="351.735" height="209.275" rx="8.95" transform="translate(0 38.244)" fill="none" stroke="#263238" stroke-linecap="round" stroke-linejoin="round" stroke-width="1"/><path d="M428.915,82.09v5.444H77.18V82.09A13.84,13.84,0,0,1,90.943,68.25h324.27a13.748,13.748,0,0,1,13.7,13.84Z" transform="translate(-77.18 -30.083)" fill="none" stroke="#263238" stroke-linecap="round" stroke-linejoin="round" stroke-width="1"/><path d="M105.333,75.766a3.521,3.521,0,1,1-3.521-3.506,3.521,3.521,0,0,1,3.521,3.506Z" transform="translate(-65.828 -27.926)" fill="#263238"/><path d="M117.283,75.766a3.522,3.522,0,1,1-3.521-3.506,3.522,3.522,0,0,1,3.521,3.506Z" transform="translate(-59.401 -27.926)" fill="#263238"/><ellipse cx="3.521" cy="3.521" rx="3.521" ry="3.521" transform="translate(69.215 44.319)" fill="#263238"/><rect width="110.797" height="59.189" rx="3.69" transform="translate(20.852 72.69)" fill="none" stroke="#263238" stroke-linecap="round" stroke-linejoin="round" stroke-width="1"/><line x2="96.065" transform="translate(27.372 124.436)" fill="none" stroke="#263238" stroke-linecap="round" stroke-linejoin="round" stroke-width="1"/><rect width="11.149" height="11.149" transform="translate(34.508 113.134)" fill="#7400cc8c" stroke="#263238" stroke-miterlimit="10" stroke-width="1"/><rect width="11.149" height="25.958" transform="translate(50.823 98.479)" fill="#7400cc8c" stroke="#263238" stroke-miterlimit="10" stroke-width="1"/><rect width="11.149" height="21.759" transform="translate(69.2 102.938)" fill="#7400cc8c" stroke="#263238" stroke-miterlimit="10" stroke-width="1"/><rect width="11.149" height="42.673" transform="translate(88.514 81.271)" fill="#7400cc8c" stroke="#263238" stroke-miterlimit="10" stroke-width="1"/><rect width="11.149" height="42.673" transform="translate(107.813 81.609)" fill="#7400cc8c" stroke="#263238" stroke-miterlimit="10" stroke-width="1"/><ellipse cx="31.171" cy="31.171" rx="31.171" ry="31.171" transform="translate(237.847 72.598)" fill="#7400cc8c" stroke="#263238" stroke-miterlimit="10" stroke-width="1"/><path d="M258.15,138.263v3.2h-5.228v-3.2a9.5,9.5,0,0,1-7.258-9.688V127.13l5.92-.646v1.538c0,2.968,1.538,4.767,3.952,4.767a3.644,3.644,0,0,0,3.937-3.891c0-2.845-2.66-5.29-5.8-7.889-3.721-3.076-7.427-6.735-7.427-11.9s2.43-8.658,6.674-9.7V96.19h5.228v3.183c4.29,1,6.782,4.613,6.782,9.765v1.046l-5.92.63v-1.076c0-3.076-1.215-4.767-3.368-4.767s-3.368,1.338-3.368,3.891c0,2.845,2.737,5.228,5.813,7.889,3.66,3.076,7.427,6.735,7.427,11.9a9.457,9.457,0,0,1-7.366,9.611Z" transform="translate(13.42 -15.057)" fill="#263238"/><line x2="9.104" transform="translate(18.269 162.112)" fill="none" stroke="#263238" stroke-linecap="round" stroke-linejoin="round" stroke-width="1"/><line x2="9.104" transform="translate(18.269 179.704)" fill="none" stroke="#263238" stroke-linecap="round" stroke-linejoin="round" stroke-width="1"/><line x2="9.104" transform="translate(18.269 197.311)" fill="none" stroke="#263238" stroke-linecap="round" stroke-linejoin="round" stroke-width="1"/><line x2="9.104" transform="translate(18.269 214.903)" fill="none" stroke="#263238" stroke-linecap="round" stroke-linejoin="round" stroke-width="1"/><line y1="7.074" transform="translate(47.44 221.116)" fill="none" stroke="#263238" stroke-linecap="round" stroke-linejoin="round" stroke-width="1"/><line y1="7.074" transform="translate(61.865 221.116)" fill="none" stroke="#263238" stroke-linecap="round" stroke-linejoin="round" stroke-width="1"/><line y1="7.074" transform="translate(76.289 221.116)" fill="none" stroke="#263238" stroke-linecap="round" stroke-linejoin="round" stroke-width="1"/><line y1="7.074" transform="translate(90.729 221.116)" fill="none" stroke="#263238" stroke-linecap="round" stroke-linejoin="round" stroke-width="1"/><line y1="7.074" transform="translate(105.153 221.116)" fill="none" stroke="#263238" stroke-linecap="round" stroke-linejoin="round" stroke-width="1"/><line y1="7.074" transform="translate(119.577 221.116)" fill="none" stroke="#263238" stroke-linecap="round" stroke-linejoin="round" stroke-width="1"/><line y1="7.074" transform="translate(134.001 221.116)" fill="none" stroke="#263238" stroke-linecap="round" stroke-linejoin="round" stroke-width="1"/><line y1="7.074" transform="translate(148.441 221.116)" fill="none" stroke="#263238" stroke-linecap="round" stroke-linejoin="round" stroke-width="1"/><line y1="7.074" transform="translate(162.865 221.116)" fill="none" stroke="#263238" stroke-linecap="round" stroke-linejoin="round" stroke-width="1"/><line y1="7.074" transform="translate(177.29 221.116)" fill="none" stroke="#263238" stroke-linecap="round" stroke-linejoin="round" stroke-width="1"/><line y1="7.074" transform="translate(191.714 221.116)" fill="none" stroke="#263238" stroke-linecap="round" stroke-linejoin="round" stroke-width="1"/><line y1="7.074" transform="translate(206.154 221.116)" fill="none" stroke="#263238" stroke-linecap="round" stroke-linejoin="round" stroke-width="1"/><line y1="7.074" transform="translate(220.578 221.116)" fill="none" stroke="#263238" stroke-linecap="round" stroke-linejoin="round" stroke-width="1"/><line y1="7.074" transform="translate(235.002 221.116)" fill="none" stroke="#263238" stroke-linecap="round" stroke-linejoin="round" stroke-width="1"/><line y1="7.074" transform="translate(249.427 221.116)" fill="none" stroke="#263238" stroke-linecap="round" stroke-linejoin="round" stroke-width="1"/><line y1="7.074" transform="translate(263.313 221.116)" fill="none" stroke="#263238" stroke-linecap="round" stroke-linejoin="round" stroke-width="1"/><line y1="7.074" transform="translate(277.199 221.116)" fill="none" stroke="#263238" stroke-linecap="round" stroke-linejoin="round" stroke-width="1"/><line y1="7.074" transform="translate(291.07 221.116)" fill="none" stroke="#263238" stroke-linecap="round" stroke-linejoin="round" stroke-width="1"/><path d="M398.615,144.813v68.369c0,4.69-4.767,8.473-10.641,8.473H99.764a11.41,11.41,0,0,1-9.227-4.167A7.273,7.273,0,0,1,89,213.182V144.813c0-4.613,4.767-8.473,10.641-8.473H387.974C393.848,136.34,398.615,140.123,398.615,144.813Z" transform="translate(-70.824 6.534)" fill="none" stroke="#7400cc8c" stroke-linecap="round" stroke-linejoin="round" stroke-width="1"/><path d="M310.465,57.542l-92,123.944L183.276,228.88,144.831,204.4l-47.04,62.4h-.677a8.473,8.473,0,0,1-7.3-4.167L142.663,192.5l38.444,24.435,26.311-35.369L303.36,52.39Z" transform="translate(-70.388 -38.612)" fill="#263238"/><path d="M218.12,63.928l33.816-20.5-9.35,35.461-5.967-16.408Z" transform="translate(-1.386 -43.43)" fill="#263238"/></g><g transform="translate(176.092)"><rect width="351.735" height="209.275" rx="8.95" transform="translate(0 38.244)" fill="#fff"/><path d="M428.915,82.09v5.444H77.18V82.09A13.84,13.84,0,0,1,90.943,68.25h324.27a13.748,13.748,0,0,1,13.7,13.84Z" transform="translate(-77.18 -30.083)" fill="#7400cc8c"/><rect width="351.735" height="209.275" rx="8.95" transform="translate(0 38.244)" fill="none" stroke="#263238" stroke-linecap="round" stroke-linejoin="round" stroke-width="1"/><path d="M428.915,82.09v5.444H77.18V82.09A13.84,13.84,0,0,1,90.943,68.25h324.27a13.748,13.748,0,0,1,13.7,13.84Z" transform="translate(-77.18 -30.083)" fill="none" stroke="#263238" stroke-linecap="round" stroke-linejoin="round" stroke-width="1"/><path d="M105.333,75.766a3.521,3.521,0,1,1-3.521-3.506,3.521,3.521,0,0,1,3.521,3.506Z" transform="translate(-65.828 -27.926)" fill="#263238"/><path d="M117.283,75.766a3.522,3.522,0,1,1-3.521-3.506,3.522,3.522,0,0,1,3.521,3.506Z" transform="translate(-59.401 -27.926)" fill="#263238"/><ellipse cx="3.521" cy="3.521" rx="3.521" ry="3.521" transform="translate(69.215 44.319)" fill="#263238"/><rect width="110.797" height="59.189" rx="3.69" transform="translate(20.852 72.69)" fill="none" stroke="#263238" stroke-linecap="round" stroke-linejoin="round" stroke-width="1"/><line x2="96.065" transform="translate(27.372 124.436)" fill="none" stroke="#263238" stroke-linecap="round" stroke-linejoin="round" stroke-width="1"/><rect width="11.149" height="11.149" transform="translate(34.508 113.134)" fill="#7400cc8c" stroke="#263238" stroke-miterlimit="10" stroke-width="1"/><rect width="11.149" height="25.958" transform="translate(50.823 98.479)" fill="#7400cc8c" stroke="#263238" stroke-miterlimit="10" stroke-width="1"/><rect width="11.149" height="21.759" transform="translate(69.2 102.938)" fill="#7400cc8c" stroke="#263238" stroke-miterlimit="10" stroke-width="1"/><rect width="11.149" height="42.673" transform="translate(88.514 81.271)" fill="#7400cc8c" stroke="#263238" stroke-miterlimit="10" stroke-width="1"/><rect width="11.149" height="42.673" transform="translate(107.813 81.609)" fill="#7400cc8c" stroke="#263238" stroke-miterlimit="10" stroke-width="1"/><ellipse cx="31.171" cy="31.171" rx="31.171" ry="31.171" transform="translate(237.847 72.598)" fill="#7400cc8c" stroke="#263238" stroke-miterlimit="10" stroke-width="1"/><path d="M258.15,138.263v3.2h-5.228v-3.2a9.5,9.5,0,0,1-7.258-9.688V127.13l5.92-.646v1.538c0,2.968,1.538,4.767,3.952,4.767a3.644,3.644,0,0,0,3.937-3.891c0-2.845-2.66-5.29-5.8-7.889-3.721-3.076-7.427-6.735-7.427-11.9s2.43-8.658,6.674-9.7V96.19h5.228v3.183c4.29,1,6.782,4.613,6.782,9.765v1.046l-5.92.63v-1.076c0-3.076-1.215-4.767-3.368-4.767s-3.368,1.338-3.368,3.891c0,2.845,2.737,5.228,5.813,7.889,3.66,3.076,7.427,6.735,7.427,11.9a9.457,9.457,0,0,1-7.366,9.611Z" transform="translate(13.42 -15.057)" fill="#263238"/><line x2="9.104" transform="translate(18.269 162.112)" fill="none" stroke="#263238" stroke-linecap="round" stroke-linejoin="round" stroke-width="1"/><line x2="9.104" transform="translate(18.269 179.704)" fill="none" stroke="#263238" stroke-linecap="round" stroke-linejoin="round" stroke-width="1"/><line x2="9.104" transform="translate(18.269 197.311)" fill="none" stroke="#263238" stroke-linecap="round" stroke-linejoin="round" stroke-width="1"/><line x2="9.104" transform="translate(18.269 214.903)" fill="none" stroke="#263238" stroke-linecap="round" stroke-linejoin="round" stroke-width="1"/><line y1="7.074" transform="translate(47.44 221.116)" fill="none" stroke="#263238" stroke-linecap="round" stroke-linejoin="round" stroke-width="1"/><line y1="7.074" transform="translate(61.865 221.116)" fill="none" stroke="#263238" stroke-linecap="round" stroke-linejoin="round" stroke-width="1"/><line y1="7.074" transform="translate(76.289 221.116)" fill="none" stroke="#263238" stroke-linecap="round" stroke-linejoin="round" stroke-width="1"/><line y1="7.074" transform="translate(90.729 221.116)" fill="none" stroke="#263238" stroke-linecap="round" stroke-linejoin="round" stroke-width="1"/><line y1="7.074" transform="translate(105.153 221.116)" fill="none" stroke="#263238" stroke-linecap="round" stroke-linejoin="round" stroke-width="1"/><line y1="7.074" transform="translate(119.577 221.116)" fill="none" stroke="#263238" stroke-linecap="round" stroke-linejoin="round" stroke-width="1"/><line y1="7.074" transform="translate(134.001 221.116)" fill="none" stroke="#263238" stroke-linecap="round" stroke-linejoin="round" stroke-width="1"/><line y1="7.074" transform="translate(148.441 221.116)" fill="none" stroke="#263238" stroke-linecap="round" stroke-linejoin="round" stroke-width="1"/><line y1="7.074" transform="translate(162.865 221.116)" fill="none" stroke="#263238" stroke-linecap="round" stroke-linejoin="round" stroke-width="1"/><line y1="7.074" transform="translate(177.29 221.116)" fill="none" stroke="#263238" stroke-linecap="round" stroke-linejoin="round" stroke-width="1"/><line y1="7.074" transform="translate(191.714 221.116)" fill="none" stroke="#263238" stroke-linecap="round" stroke-linejoin="round" stroke-width="1"/><line y1="7.074" transform="translate(206.154 221.116)" fill="none" stroke="#263238" stroke-linecap="round" stroke-linejoin="round" stroke-width="1"/><line y1="7.074" transform="translate(220.578 221.116)" fill="none" stroke="#263238" stroke-linecap="round" stroke-linejoin="round" stroke-width="1"/><line y1="7.074" transform="translate(235.002 221.116)" fill="none" stroke="#263238" stroke-linecap="round" stroke-linejoin="round" stroke-width="1"/><line y1="7.074" transform="translate(249.427 221.116)" fill="none" stroke="#263238" stroke-linecap="round" stroke-linejoin="round" stroke-width="1"/><line y1="7.074" transform="translate(263.313 221.116)" fill="none" stroke="#263238" stroke-linecap="round" stroke-linejoin="round" stroke-width="1"/><line y1="7.074" transform="translate(277.199 221.116)" fill="none" stroke="#263238" stroke-linecap="round" stroke-linejoin="round" stroke-width="1"/><line y1="7.074" transform="translate(291.07 221.116)" fill="none" stroke="#263238" stroke-linecap="round" stroke-linejoin="round" stroke-width="1"/><path d="M398.615,144.813v68.369c0,4.69-4.767,8.473-10.641,8.473H99.764a11.41,11.41,0,0,1-9.227-4.167A7.273,7.273,0,0,1,89,213.182V144.813c0-4.613,4.767-8.473,10.641-8.473H387.974C393.848,136.34,398.615,140.123,398.615,144.813Z" transform="translate(-70.824 6.534)" fill="none" stroke="#7400cc8c" stroke-linecap="round" stroke-linejoin="round" stroke-width="1"/><path d="M310.465,57.542l-92,123.944L183.276,228.88,144.831,204.4l-47.04,62.4h-.677a8.473,8.473,0,0,1-7.3-4.167L142.663,192.5l38.444,24.435,26.311-35.369L303.36,52.39Z" transform="translate(-70.388 -38.612)" fill="#263238"/><path d="M218.12,63.928l33.816-20.5-9.35,35.461-5.967-16.408Z" transform="translate(-1.386 -43.43)" fill="#263238"/></g><g transform="translate(448.007 62.269)"><path d="M366.713,194.841a55.833,55.833,0,0,1-43.248,54.389l-.179,0c-1.461.323-2.922.615-4.429.83a57.023,57.023,0,0,1-7.981.569,55.83,55.83,0,1,1-2.061-111.64c.508.014,1.046.014,1.538.014a2.645,2.645,0,0,1,.492,0,3.535,3.535,0,0,1,.569,0,54.976,54.976,0,0,1,21.867,4.69,55.836,55.836,0,0,1,33.431,51.146Z" transform="translate(-254 -54.309)" fill="#7400cc8c"/><path d="M329.28,143.689c-64.479-3.352-64.786,68.231-64.786,68.231s-9.842-23.359,6.228-49.209c8.981-14.47,24.6-20.852,36.691-23.682a54.975,54.975,0,0,1,21.867,4.659Z" transform="translate(-249.967 -54.288)" fill="#fff" opacity="0.4"/><path d="M366.717,194.836a55.836,55.836,0,0,1-43.424,54.436,54.908,54.908,0,0,1-12.413,1.4A55.846,55.846,0,1,1,308.82,139h2.061a55.852,55.852,0,0,1,55.837,55.836Z" transform="translate(-254.004 -54.304)" fill="none" stroke="#263238" stroke-linecap="round" stroke-linejoin="round" stroke-width="1"/><path d="M362.689,194.836a55.835,55.835,0,0,1-43.424,54.436H317.2A55.852,55.852,0,0,1,304.792,139h2.061a55.852,55.852,0,0,1,55.837,55.836Z" transform="translate(-249.976 -54.304)" fill="none" stroke="#263238" stroke-linecap="round" stroke-linejoin="round" stroke-width="1"/><path d="M316.082,225.184l1.446,5.905-9.657,2.353-1.445-5.89c-8.642,0-15.578-5.613-17.792-14.624l-.661-2.676,10.657-3.86.677,2.783c1.338,5.474,4.952,8.1,9.457,7a6.92,6.92,0,0,0,5.521-8.965c-1.292-5.259-7.32-8.55-14.3-11.949-8.258-4-16.777-9.073-19.115-18.622-2.276-9.319.584-17.085,7.95-20.929l-1.445-5.905,9.642-2.353,1.445,5.89c8.381-.123,14.624,5.4,16.916,14.932l.477,1.938-10.642,3.86-.538-2.138c-1.415-5.8-4.4-8.242-8.365-7.274s-5.613,4-4.459,8.7c1.292,5.259,7.4,8.427,14.3,11.964,8.166,4.137,16.777,9.073,19.115,18.607C327.615,213.113,323.863,221.294,316.082,225.184Z" transform="translate(-239.968 -49.76)" fill="none" stroke="#263238" stroke-miterlimit="10" stroke-width="1"/><path d="M316.082,225.184l1.446,5.905-9.657,2.353-1.445-5.89c-8.642,0-15.578-5.613-17.792-14.624l-.661-2.676,10.657-3.86.677,2.783c1.338,5.474,4.952,8.1,9.457,7a6.92,6.92,0,0,0,5.521-8.965c-1.292-5.259-7.32-8.55-14.3-11.949-8.258-4-16.777-9.073-19.115-18.622-2.276-9.319.584-17.085,7.95-20.929l-1.445-5.905,9.642-2.353,1.445,5.89c8.381-.123,14.624,5.4,16.916,14.932l.477,1.938-10.642,3.86-.538-2.138c-1.415-5.8-4.4-8.242-8.365-7.274s-5.613,4-4.459,8.7c1.292,5.259,7.4,8.427,14.3,11.964,8.166,4.137,16.777,9.073,19.115,18.607C327.615,213.113,323.863,221.294,316.082,225.184Z" transform="translate(-239.968 -49.76)" opacity="0.3"/><line y1="0.538" x2="11.795" transform="translate(28.335 188.003)" fill="none" stroke="#263238" stroke-linecap="round" stroke-linejoin="round" stroke-width="1"/><line y1="0.877" x2="10.288" transform="translate(22.661 183.744)" fill="none" stroke="#263238" stroke-linecap="round" stroke-linejoin="round" stroke-width="1"/><line y1="0.877" x2="10.288" transform="translate(18.048 179.607)" fill="none" stroke="#263238" stroke-linecap="round" stroke-linejoin="round" stroke-width="1"/><line x2="8.811" transform="translate(16.633 101.811)" fill="none" stroke="#263238" stroke-linecap="round" stroke-linejoin="round" stroke-width="1"/><line y1="0.4" x2="8.781" transform="translate(20.985 97.352)" fill="none" stroke="#263238" stroke-linecap="round" stroke-linejoin="round" stroke-width="1"/><line y1="0.877" x2="9.257" transform="translate(26.49 92.8)" fill="none" stroke="#263238" stroke-linecap="round" stroke-linejoin="round" stroke-width="1"/><path d="M323.456,249.232h-.169a54.914,54.914,0,0,1-12.41,1.4,55.83,55.83,0,1,1-2.061-111.64c.508.014,1.046.014,1.538.014-13.609,4.29-36.445,15.255-42.55,38.121C259.177,209.619,278.6,246.51,323.456,249.232Z" transform="translate(-254 -54.309)" opacity="0.3"/><path d="M344.035,193.207A55.834,55.834,0,0,1,300.788,247.6l-.179,0c-1.461.323-2.922.615-4.429.83l14.455-106.4a55.836,55.836,0,0,1,33.4,51.177Z" transform="translate(-231.322 -52.675)" opacity="0.1"/><path d="M368.985,136.556A33.831,33.831,0,0,1,328.527,148.3l-.2-.092q-1.575-.692-3.075-1.538a30.172,30.172,0,0,1-3.26-2.03,33.831,33.831,0,0,1,37.2-56.329l.754.477c.354.2.692.446,1.046.692s1.03.754,1.538,1.153A33.831,33.831,0,0,1,368.985,136.556Z" transform="translate(-224.594 -83.923)" fill="#7400cc8c"/><path d="M316.255,136.006s-5.521-16.254,1.815-28.218c9.227-14.993,23.359-21.836,42.6-18.146,0,0-10.426-7.043-27.88-2.045S305.967,116.614,316.255,136.006Z" transform="translate(-222.826 -82.911)" fill="#fff" opacity="0.4"/><path d="M368.992,136.551a33.831,33.831,0,0,1-40.459,11.718,33.139,33.139,0,0,1-6.612-3.629,33.831,33.831,0,0,1,38-55.852c.338.2.692.431,1.03.677a33.831,33.831,0,0,1,8.043,47.087Z" transform="translate(-224.601 -83.902)" fill="none" stroke="#263238" stroke-linecap="round" stroke-linejoin="round" stroke-width="1"/><path d="M367.3,135.711a33.831,33.831,0,0,1-40.459,11.718l-1.03-.677a33.831,33.831,0,0,1,32.416-58.8c.338.2.692.431,1.03.677a33.831,33.831,0,0,1,8.043,47.087Z" transform="translate(-222.906 -83.062)" fill="none" stroke="#263238" stroke-linecap="round" stroke-linejoin="round" stroke-width="1"/><path d="M331.792,137.6l-1.338,3.414-5.6-2.2,1.338-3.429a10.949,10.949,0,0,1-3.691-13.425l.615-1.538,6.612,1.8-.63,1.63c-1.246,3.168-.4,5.72,2.214,6.751a4.183,4.183,0,0,0,5.859-2.507c1.2-3.076-.63-6.782-2.891-10.887-2.676-4.859-5.105-10.334-2.937-15.87s6.259-8.242,11.226-7.566l1.353-3.414,5.582,2.2-1.338,3.4c4.183,2.86,5.336,7.689,3.168,13.3l-.446,1.107-6.612-1.8.492-1.246c1.322-3.352.707-5.613-1.538-6.52s-4.167,0-5.244,2.753c-1.2,3.076.723,6.735,2.891,10.887,2.6,4.906,5.121,10.349,2.953,15.87a10.9,10.9,0,0,1-12.041,7.289Z" transform="translate(-217.68 -80.461)" fill="none" stroke="#263238" stroke-miterlimit="10" stroke-width="1"/><path d="M331.792,137.6l-1.338,3.414-5.6-2.2,1.338-3.429a10.949,10.949,0,0,1-3.691-13.425l.615-1.538,6.612,1.8-.63,1.63c-1.246,3.168-.4,5.72,2.214,6.751a4.183,4.183,0,0,0,5.859-2.507c1.2-3.076-.63-6.782-2.891-10.887-2.676-4.859-5.105-10.334-2.937-15.87s6.259-8.242,11.226-7.566l1.353-3.414,5.582,2.2-1.338,3.4c4.183,2.86,5.336,7.689,3.168,13.3l-.446,1.107-6.612-1.8.492-1.246c1.322-3.352.707-5.613-1.538-6.52s-4.167,0-5.244,2.753c-1.2,3.076.723,6.735,2.891,10.887,2.6,4.906,5.121,10.349,2.953,15.87a10.9,10.9,0,0,1-12.041,7.289Z" transform="translate(-217.68 -80.461)" opacity="0.3"/><path d="M359.14,88.31c-9.227-1.645-20.914-2.553-27.219,1.538-11.579,7.427-18.792,16.792-18.684,31.97s14.286,25.819,14.286,25.819l.83.6a33.3,33.3,0,0,1-6.412-3.552,33.831,33.831,0,0,1,37.2-56.329Z" transform="translate(-224.621 -83.901)" opacity="0.3"/><path d="M363.194,134.2a33.831,33.831,0,0,1-40.459,11.749l-.2-.092q-1.575-.692-3.075-1.538L356.643,88.3a33.831,33.831,0,0,1,6.551,45.9Z" transform="translate(-218.803 -81.569)" opacity="0.1"/></g><g transform="translate(448.007 62.269)"><path d="M366.713,194.841a55.833,55.833,0,0,1-43.248,54.389l-.179,0c-1.461.323-2.922.615-4.429.83a57.023,57.023,0,0,1-7.981.569,55.83,55.83,0,1,1-2.061-111.64c.508.014,1.046.014,1.538.014a2.645,2.645,0,0,1,.492,0,3.535,3.535,0,0,1,.569,0,54.976,54.976,0,0,1,21.867,4.69,55.836,55.836,0,0,1,33.431,51.146Z" transform="translate(-254 -54.309)" fill="#7400cc8c"/><path d="M329.28,143.689c-64.479-3.352-64.786,68.231-64.786,68.231s-9.842-23.359,6.228-49.209c8.981-14.47,24.6-20.852,36.691-23.682a54.975,54.975,0,0,1,21.867,4.659Z" transform="translate(-249.967 -54.288)" fill="#fff" opacity="0.4"/><path d="M366.717,194.836a55.836,55.836,0,0,1-43.424,54.436,54.908,54.908,0,0,1-12.413,1.4A55.846,55.846,0,1,1,308.82,139h2.061a55.852,55.852,0,0,1,55.837,55.836Z" transform="translate(-254.004 -54.304)" fill="none" stroke="#263238" stroke-linecap="round" stroke-linejoin="round" stroke-width="1"/><path d="M362.689,194.836a55.835,55.835,0,0,1-43.424,54.436H317.2A55.852,55.852,0,0,1,304.792,139h2.061a55.852,55.852,0,0,1,55.837,55.836Z" transform="translate(-249.976 -54.304)" fill="none" stroke="#263238" stroke-linecap="round" stroke-linejoin="round" stroke-width="1"/><path d="M316.082,225.184l1.446,5.905-9.657,2.353-1.445-5.89c-8.642,0-15.578-5.613-17.792-14.624l-.661-2.676,10.657-3.86.677,2.783c1.338,5.474,4.952,8.1,9.457,7a6.92,6.92,0,0,0,5.521-8.965c-1.292-5.259-7.32-8.55-14.3-11.949-8.258-4-16.777-9.073-19.115-18.622-2.276-9.319.584-17.085,7.95-20.929l-1.445-5.905,9.642-2.353,1.445,5.89c8.381-.123,14.624,5.4,16.916,14.932l.477,1.938-10.642,3.86-.538-2.138c-1.415-5.8-4.4-8.242-8.365-7.274s-5.613,4-4.459,8.7c1.292,5.259,7.4,8.427,14.3,11.964,8.166,4.137,16.777,9.073,19.115,18.607C327.615,213.113,323.863,221.294,316.082,225.184Z" transform="translate(-239.968 -49.76)" fill="none" stroke="#263238" stroke-miterlimit="10" stroke-width="1"/><path d="M316.082,225.184l1.446,5.905-9.657,2.353-1.445-5.89c-8.642,0-15.578-5.613-17.792-14.624l-.661-2.676,10.657-3.86.677,2.783c1.338,5.474,4.952,8.1,9.457,7a6.92,6.92,0,0,0,5.521-8.965c-1.292-5.259-7.32-8.55-14.3-11.949-8.258-4-16.777-9.073-19.115-18.622-2.276-9.319.584-17.085,7.95-20.929l-1.445-5.905,9.642-2.353,1.445,5.89c8.381-.123,14.624,5.4,16.916,14.932l.477,1.938-10.642,3.86-.538-2.138c-1.415-5.8-4.4-8.242-8.365-7.274s-5.613,4-4.459,8.7c1.292,5.259,7.4,8.427,14.3,11.964,8.166,4.137,16.777,9.073,19.115,18.607C327.615,213.113,323.863,221.294,316.082,225.184Z" transform="translate(-239.968 -49.76)" opacity="0.3"/><line y1="0.538" x2="11.795" transform="translate(28.335 188.003)" fill="none" stroke="#263238" stroke-linecap="round" stroke-linejoin="round" stroke-width="1"/><line y1="0.877" x2="10.288" transform="translate(22.661 183.744)" fill="none" stroke="#263238" stroke-linecap="round" stroke-linejoin="round" stroke-width="1"/><line y1="0.877" x2="10.288" transform="translate(18.048 179.607)" fill="none" stroke="#263238" stroke-linecap="round" stroke-linejoin="round" stroke-width="1"/><line x2="8.811" transform="translate(16.633 101.811)" fill="none" stroke="#263238" stroke-linecap="round" stroke-linejoin="round" stroke-width="1"/><line y1="0.4" x2="8.781" transform="translate(20.985 97.352)" fill="none" stroke="#263238" stroke-linecap="round" stroke-linejoin="round" stroke-width="1"/><line y1="0.877" x2="9.257" transform="translate(26.49 92.8)" fill="none" stroke="#263238" stroke-linecap="round" stroke-linejoin="round" stroke-width="1"/><path d="M323.456,249.232h-.169a54.914,54.914,0,0,1-12.41,1.4,55.83,55.83,0,1,1-2.061-111.64c.508.014,1.046.014,1.538.014-13.609,4.29-36.445,15.255-42.55,38.121C259.177,209.619,278.6,246.51,323.456,249.232Z" transform="translate(-254 -54.309)" opacity="0.3"/><path d="M344.035,193.207A55.834,55.834,0,0,1,300.788,247.6l-.179,0c-1.461.323-2.922.615-4.429.83l14.455-106.4a55.836,55.836,0,0,1,33.4,51.177Z" transform="translate(-231.322 -52.675)" opacity="0.1"/><path d="M368.985,136.556A33.831,33.831,0,0,1,328.527,148.3l-.2-.092q-1.575-.692-3.075-1.538a30.172,30.172,0,0,1-3.26-2.03,33.831,33.831,0,0,1,37.2-56.329l.754.477c.354.2.692.446,1.046.692s1.03.754,1.538,1.153A33.831,33.831,0,0,1,368.985,136.556Z" transform="translate(-224.594 -83.923)" fill="#7400cc8c"/><path d="M316.255,136.006s-5.521-16.254,1.815-28.218c9.227-14.993,23.359-21.836,42.6-18.146,0,0-10.426-7.043-27.88-2.045S305.967,116.614,316.255,136.006Z" transform="translate(-222.826 -82.911)" fill="#fff" opacity="0.4"/><path d="M368.992,136.551a33.831,33.831,0,0,1-40.459,11.718,33.139,33.139,0,0,1-6.612-3.629,33.831,33.831,0,0,1,38-55.852c.338.2.692.431,1.03.677a33.831,33.831,0,0,1,8.043,47.087Z" transform="translate(-224.601 -83.902)" fill="none" stroke="#263238" stroke-linecap="round" stroke-linejoin="round" stroke-width="1"/><path d="M367.3,135.711a33.831,33.831,0,0,1-40.459,11.718l-1.03-.677a33.831,33.831,0,0,1,32.416-58.8c.338.2.692.431,1.03.677a33.831,33.831,0,0,1,8.043,47.087Z" transform="translate(-222.906 -83.062)" fill="none" stroke="#263238" stroke-linecap="round" stroke-linejoin="round" stroke-width="1"/><path d="M331.792,137.6l-1.338,3.414-5.6-2.2,1.338-3.429a10.949,10.949,0,0,1-3.691-13.425l.615-1.538,6.612,1.8-.63,1.63c-1.246,3.168-.4,5.72,2.214,6.751a4.183,4.183,0,0,0,5.859-2.507c1.2-3.076-.63-6.782-2.891-10.887-2.676-4.859-5.105-10.334-2.937-15.87s6.259-8.242,11.226-7.566l1.353-3.414,5.582,2.2-1.338,3.4c4.183,2.86,5.336,7.689,3.168,13.3l-.446,1.107-6.612-1.8.492-1.246c1.322-3.352.707-5.613-1.538-6.52s-4.167,0-5.244,2.753c-1.2,3.076.723,6.735,2.891,10.887,2.6,4.906,5.121,10.349,2.953,15.87a10.9,10.9,0,0,1-12.041,7.289Z" transform="translate(-217.68 -80.461)" fill="none" stroke="#263238" stroke-miterlimit="10" stroke-width="1"/><path d="M331.792,137.6l-1.338,3.414-5.6-2.2,1.338-3.429a10.949,10.949,0,0,1-3.691-13.425l.615-1.538,6.612,1.8-.63,1.63c-1.246,3.168-.4,5.72,2.214,6.751a4.183,4.183,0,0,0,5.859-2.507c1.2-3.076-.63-6.782-2.891-10.887-2.676-4.859-5.105-10.334-2.937-15.87s6.259-8.242,11.226-7.566l1.353-3.414,5.582,2.2-1.338,3.4c4.183,2.86,5.336,7.689,3.168,13.3l-.446,1.107-6.612-1.8.492-1.246c1.322-3.352.707-5.613-1.538-6.52s-4.167,0-5.244,2.753c-1.2,3.076.723,6.735,2.891,10.887,2.6,4.906,5.121,10.349,2.953,15.87a10.9,10.9,0,0,1-12.041,7.289Z" transform="translate(-217.68 -80.461)" opacity="0.3"/><path d="M359.14,88.31c-9.227-1.645-20.914-2.553-27.219,1.538-11.579,7.427-18.792,16.792-18.684,31.97s14.286,25.819,14.286,25.819l.83.6a33.3,33.3,0,0,1-6.412-3.552,33.831,33.831,0,0,1,37.2-56.329Z" transform="translate(-224.621 -83.901)" opacity="0.3"/><path d="M363.194,134.2a33.831,33.831,0,0,1-40.459,11.749l-.2-.092q-1.575-.692-3.075-1.538L356.643,88.3a33.831,33.831,0,0,1,6.551,45.9Z" transform="translate(-218.803 -81.569)" opacity="0.1"/></g><g transform="translate(-1606.896 -176.077)"><g transform="translate(1606.896 271.295)"><path d="M299.04,369.772a111.275,111.275,0,0,1-27.684,23.9,97.845,97.845,0,0,1-10.116,5.277c-23.949,10.765-51.245,11.465-76.771,5.277C130.8,391.217,102.319,343.841,98.7,291.247c-.969-14.213-3.144-29.564,2.613-43.085s17.4-21.918,30.567-27.751c9.56-4.257,19.886-7.115,29.269-9.45a75.287,75.287,0,0,1,50.655,5.227c11.035,5.235,18.891,14.331,28.173,21.994q1.475,1.214,2.967,2.419a278.108,278.108,0,0,0,29.5,20.746c15.6,9.517,31.578,18.5,41.551,34.478C329.91,321.3,316.49,349.034,299.04,369.772Z" transform="translate(-97.435 -151.684)" fill="#7400cc8c"/><path d="M299.04,369.772a111.275,111.275,0,0,1-27.684,23.9,97.845,97.845,0,0,1-10.116,5.277c-23.949,10.765-51.245,11.465-76.771,5.277C130.8,391.217,102.319,343.841,98.7,291.247c-.969-14.213-3.144-29.564,2.613-43.085s17.4-21.918,30.567-27.751c9.56-4.257,19.886-7.115,29.269-9.45a75.287,75.287,0,0,1,50.655,5.227c11.035,5.235,18.891,14.331,28.173,21.994q1.475,1.214,2.967,2.419a278.108,278.108,0,0,0,29.5,20.746c15.6,9.517,31.578,18.5,41.551,34.478C329.91,321.3,316.49,349.034,299.04,369.772Z" transform="translate(-97.435 -151.684)" fill="#fff" opacity="0.4"/><path d="M242.9,240.6q-1.492-1.2-2.967-2.428c-9.273-7.68-17.146-16.75-28.173-21.985a75.338,75.338,0,0,0-50.655-5.227c-22.314,5.538-49.989,14.07-59.852,37.21-5.758,13.488-3.583,28.864-2.6,43.077,3.659,52.594,32.135,99.97,85.808,112.978,29.2,7.081,60.7,5.142,86.887-10.554a111.275,111.275,0,0,0,27.684-23.9c17.45-20.738,30.87-48.472,14.98-73.947-9.964-16.017-25.939-24.961-41.551-34.478A278.106,278.106,0,0,1,242.9,240.6Z" transform="translate(-97.426 -151.685)" fill="none" stroke="#263238" stroke-miterlimit="10" stroke-width="1"/><path d="M171.137,357.78a77.194,77.194,0,0,0-12.957,5.243" transform="translate(-106.965 -175.082)" fill="none" stroke="#263238" stroke-linecap="round" stroke-linejoin="round" stroke-width="1"/><path d="M202.389,351.6A138.242,138.242,0,0,0,183,354.677" transform="translate(-110.862 -174.111)" fill="none" stroke="#263238" stroke-linecap="round" stroke-linejoin="round" stroke-width="1"/><path d="M188.9,348.609s-25.189-14.651-55.587-2.908" transform="translate(-103.06 -172.469)" fill="none" stroke="#263238" stroke-linecap="round" stroke-linejoin="round" stroke-width="1"/><path d="M301.463,369.772a111.274,111.274,0,0,1-27.684,23.9,97.841,97.841,0,0,1-10.116,5.277,79,79,0,0,1-8.067-2.959c-15.73-6.744-28.931-18.15-41.829-29.4-7.781-6.744-15.688-13.656-25-18.1a57.509,57.509,0,0,0-40.329-3.321A45.294,45.294,0,0,1,175.108,330.5c-6.66-6.061-15.924-8.607-24.927-8.767s-13.96.944-22.761,2.917c2.942-5.412,10.748-10.31,16.91-10.166a153.149,153.149,0,0,1-17.517-1.239c-7.949-1.281-11.507-10.639-12.7-18.6-3.288-21.918.042-45.26,12-63.89a65.038,65.038,0,0,1,8.177-10.344c9.559-4.257,19.886-7.115,29.269-9.45a75.288,75.288,0,0,1,50.655,5.227c11.035,5.235,18.891,14.331,28.173,21.994q1.475,1.214,2.967,2.419a278.105,278.105,0,0,0,29.5,20.746c15.6,9.517,31.578,18.5,41.551,34.478C332.334,321.3,318.913,349.034,301.463,369.772Z" transform="translate(-99.859 -151.685)" opacity="0.1"/><path d="M344.59,399A163,163,0,0,0,359.4,409.959c10.023.674,5.53,12.788,5.53,12.788l-8.582,5.522s-14.693-11.675-22.719-15.46S344.59,399,344.59,399Z" transform="translate(-134.202 -181.553)" fill="#fff"/><path d="M242.214,241.168s-1.374-13.6-3.566-17.416l-33.281-6.778v-2.58s.767-4.485-6.651-7.292-22.879.843-26.866,3.861-2.529,8.211-2.529,8.211-13.4,6.769-19.423,9.349a153.8,153.8,0,0,0-14.39,7.587s-2.731,31.258-2.192,38.516-.438,14.086.185,18.107,1.113,6.306,5.328,9.728,8.051,8.43,19.1,3.465l-1.543-1.222L229.14,280.2Z" transform="translate(-103.05 -151.266)" opacity="0.3"/><path d="M242.214,241.168s-1.374-13.6-3.566-17.416l-33.281-6.778v-2.58s.767-4.485-6.651-7.292-22.879.843-26.866,3.861-2.529,8.211-2.529,8.211-13.4,6.769-19.423,9.349a153.8,153.8,0,0,0-14.39,7.587s-2.731,31.258-2.192,38.516-.438,14.086.185,18.107,1.113,6.306,5.328,9.728,8.051,8.43,19.1,3.465l-1.543-1.222L229.14,280.2Z" transform="translate(-103.05 -151.266)" fill="#7400cc8c"/><path d="M242.214,241.168s-1.374-13.6-3.566-17.416l-33.281-6.778v-2.58s.767-4.485-6.651-7.292-22.879.843-26.866,3.861-2.529,8.211-2.529,8.211-13.4,6.769-19.423,9.349a153.8,153.8,0,0,0-14.39,7.587s-2.731,31.258-2.192,38.516-.438,14.086.185,18.107,1.113,6.306,5.328,9.728,8.051,8.43,19.1,3.465l-1.543-1.222L229.14,280.2Z" transform="translate(-103.05 -151.266)" opacity="0.05"/><path d="M239.76,229H225.833a5.538,5.538,0,0,0-5.454,4.628l-6.862,41.307s-9.45.784-16.143,5.665-23.157-29.943-49.172-29.96c0,0,7.486,17.113,9.146,30.769,0,0-16.261-1.77-18.959,4.594s1.222,18.293,8.1,13.673,13.353-12.324,17.947-7.452,25.121,7.494,25.121,7.494l31.587-15.924,12.249-5.758Z" transform="translate(-103.723 -154.862)" opacity="0.1"/><path d="M201.5,204.71s7.907,2.192,9.189,4.847,1.146,9.374,1.146,9.374a32.455,32.455,0,0,1-8.506,11.7l-5.9-11.7.531,13.269s-11.195-1.863-15.949-5.437l-4.746-3.583s-2.048-6.744-1.753-9.028,8.835-6.921,8.835-6.921Z" transform="translate(-109.682 -151.048)" fill="#fff" opacity="0.4"/><path d="M355.1,441.206c-.219-.481,3.246-6.6.531-12.83s-7.039-3.827-7.039-3.827-12.316-7.84-17.492-10.318a88.257,88.257,0,0,1-10.748-6.39l-5.471,7.368,5.058,15.646Z" transform="translate(-131.568 -182.941)" fill="#7400cc8c"/><path d="M354.34,421.375l15.815,9.661s11.119-7.132,16.422-12.055,17.214-15.41,17.214-15.41l7.587-10.209s-5.26-6.508-14.027-1.281c-11.33,6.744-25.146,16.539-34.36,16.447,0,0,1.812,11.321-8.59,12.847" transform="translate(-137.764 -180.148)" fill="#7400cc8c"/><path d="M198.06,156.23s7.174,10.858,8.48,14.373,2.36,8.717,2.1,11.22-2.891,15.916-4.215,16.3l-1.273,1.442.843,5.682s-5.614,9.7-22.12,2.588c0,0-.641-11.33-2.647-14.887s-5.007.674-8.017-9.6,6.575-21.075,6.575-21.075Z" transform="translate(-108.919 -143.436)" fill="#fff"/><path d="M407.083,390.22s-8.135,1.416-10.773,6.23-7.7,13.758-9.433,18.082S370.86,429.3,370.86,429.3l1.9,1.762s11.633-7.191,18.655-14.027S413.92,393,413.92,393,412.807,391.9,407.083,390.22Z" transform="translate(-140.357 -180.175)" fill="#fff" opacity="0.5"/><path d="M316.895,413.37l-2.015,2.706,6.188,12.83L355.1,441.138l1.576-4.982s.523-5.058-11.423-8.9-19.229-6.381-22.626-9.02S316.895,413.37,316.895,413.37Z" transform="translate(-131.568 -183.81)" fill="#fff" opacity="0.5"/><path d="M180.337,298.27s-10.419-1.568-15.283,6.955-4.367,12.215-4.367,12.215,6.887,6.255,16.354,5.9,23.25-11.195,27.743-14.727,15.823-13.64,23.553-11.549l.843-7.309s-.759-3.279-7.368-2.394-9.205,4.653-11.338,4.653-4.148-2.048-8.43,5.269C202.036,297.284,187.005,299.948,180.337,298.27Z" transform="translate(-107.356 -164.001)" fill="#fff"/><path d="M200.06,174.75a30.176,30.176,0,0,0,.944,4.038,4.7,4.7,0,0,0,.843,1.779,5.45,5.45,0,0,0,3.246,1.239.885.885,0,0,1,.523.219.843.843,0,0,1,.126.506,6.744,6.744,0,0,1-1.146,3.726" transform="translate(-113.54 -146.344)" fill="none" stroke="#263238" stroke-linecap="round" stroke-linejoin="round" stroke-width="1"/><path d="M324.258,403l-6.988,8.708s7.671,7.09,15.612,9.72,21.842,7.587,24.169,11.406l-.894-4.544s-21.741-13.336-26.731-16.523A11.515,11.515,0,0,1,324.258,403Z" transform="translate(-131.943 -182.181)" opacity="0.1"/><path d="M354.34,421.4l13.918,7.9s6.87-4.7,10.242-8.169,7.528-7.309,10.116-15.073c3.532-10.731,13.648-15.84,13.648-15.84s-14.07,6.626-21.4,11.8-14.466,7.368-18.613,7.014C362.214,409.061,365.543,419.6,354.34,421.4Z" transform="translate(-137.764 -180.175)" opacity="0.1"/><path d="M194.24,190.67s5.471,4.291,11.153,2.681C205.393,193.351,200.031,203.972,194.24,190.67Z" transform="translate(-112.626 -148.844)" fill="#fff" stroke="#263238" stroke-linecap="round" stroke-linejoin="round" stroke-width="1"/><path d="M193.591,179.3c.16,1.18-.2,2.2-.792,2.284s-1.205-.843-1.366-2,.194-2.2.792-2.285S193.464,178.117,193.591,179.3Z" transform="translate(-112.18 -146.743)" fill="#263238"/><path d="M207.721,176.749c.152,1.189-.2,2.209-.792,2.285s-1.214-.843-1.366-1.989.194-2.209.792-2.285S207.561,175.568,207.721,176.749Z" transform="translate(-114.399 -146.345)" fill="#263238"/><path d="M191.984,173.659s-3.187-1.644-5.454,1.88" transform="translate(-111.416 -146.113)" fill="none" stroke="#263238" stroke-linecap="round" stroke-linejoin="round" stroke-width="1"/><path d="M202.69,170.891s3.372-2.891,5.319,0" transform="translate(-113.953 -145.536)" fill="none" stroke="#263238" stroke-linecap="round" stroke-linejoin="round" stroke-width="1"/><path d="M178.9,186.053s-2.048-3.026-4.215-2.934-3.026,3.128-2.251,6.061,4,7.031,6.449,6.643a5.429,5.429,0,0,0,3.515-1.956" transform="translate(-109.159 -147.658)" fill="none" stroke="#263238" stroke-linecap="round" stroke-linejoin="round" stroke-width="1"/><path d="M201.436,159.13c2.3,1.914,4.738,4,5.9,6.811,1.028,2.394,1.256,5.058,2.2,7.477,1,2.588,2.1,5.294,2.183,8.118a34.387,34.387,0,0,1-1.02,7.747,42.7,42.7,0,0,1-1.56,6.483,11.471,11.471,0,0,1-6.053,6.322c-2.048,1.045-5.463,2.529-7.68,1.13-1.29-.843-3.229-3.254-4.839-5.471" transform="translate(-112.05 -143.892)" fill="none" stroke="#263238" stroke-linecap="round" stroke-linejoin="round" stroke-width="1"/><path d="M180.16,198.19s3.625,8.885,2.748,15.132" transform="translate(-110.416 -150.024)" fill="none" stroke="#263238" stroke-linecap="round" stroke-linejoin="round" stroke-width="1"/><path d="M176.186,177.957a3.49,3.49,0,0,0,1.4-3.127c-.135-1.366-1.079-2.63-.894-4a7.359,7.359,0,0,1,.725-1.871,7.848,7.848,0,0,0-.438-7.1s11.515.54,16.91-2.891,9.509-12.206,6.247-16.4-9.619,1.526-14.331,2.158-21.471,3.3-24.143,9.762,1.4,8.776,1.526,14.938.126,17.838,9.34,16.767c0,0-3.448-4.459-1.054-9.054C173.1,175.217,176.186,177.957,176.186,177.957Z" transform="translate(-107.369 -141.053)" fill="#263238"/><path d="M204.8,151.5a14.449,14.449,0,0,1,5.513,10.116c.514,4.62,8.708,13.6,2.8,18.714,0,0-1.374-5.437-2.183-8.118s-1.846-7.587-3.2-9.273-8.556-7.587-8.556-7.587Z" transform="translate(-113.4 -142.694)" fill="#263238"/><path d="M180.474,214.9s5.682,3.743,16.236,3.895l1.239,14.154s-11.869-.9-20.7-9.02c0,0-2.386-6.314-1.753-9.028s6.306-5.4,6.306-5.4" transform="translate(-109.667 -151.8)" fill="none" stroke="#263238" stroke-linecap="round" stroke-linejoin="round" stroke-width="1"/><path d="M208.317,208.21l.337,5.058a20.923,20.923,0,0,1-7.975,5.184l6.609,12.586s7.882-6.137,8.666-12.586c0,0,.067-6.6-1.307-8.489s-6.381-2.773-6.381-2.773" transform="translate(-113.638 -151.437)" fill="none" stroke="#263238" stroke-linecap="round" stroke-linejoin="round" stroke-width="1"/><path d="M171.8,159.433c.843-2.116,3.153-3.372,5.4-3.709a55.988,55.988,0,0,1,6.837-.16,17.551,17.551,0,0,0,8.936-2.529,11.945,11.945,0,0,0,5.4-7.385" transform="translate(-109.103 -141.775)" fill="none" stroke="#fff" stroke-linecap="round" stroke-linejoin="round" stroke-width="1" opacity="0.8"/><path d="M165.35,159.519c1.425-4.325,6.044-7,10.588-7.376,2.251-.194,4.527.067,6.744-.194s4.577-1.189,5.749-3.119" transform="translate(-108.09 -142.274)" fill="none" stroke="#fff" stroke-linecap="round" stroke-linejoin="round" stroke-width="1" opacity="0.8"/><path d="M157.923,308.357c-10.959,5.682-14.853-.169-20.957-5.007s-2.1-13.488-3.372-27.355,1.9-37.454,1.9-37.454,2.731-.624,10.31-5.26,23.528-11.7,23.528-11.7" transform="translate(-103.057 -153.697)" fill="none" stroke="#263238" stroke-linecap="round" stroke-linejoin="round" stroke-width="1"/><path d="M170.771,298.567s-1.737-5.5-6.643-5.648-12.645,2.065-18.158,12.493" transform="translate(-105.048 -164.897)" fill="none" stroke="#263238" stroke-linecap="round" stroke-linejoin="round" stroke-width="1"/><path d="M163.669,292.256a2.714,2.714,0,0,1-.885-.211,21.336,21.336,0,0,0-12.594-.573" transform="translate(-105.71 -164.563)" fill="none" stroke="#263238" stroke-linecap="round" stroke-linejoin="round" stroke-width="1"/><path d="M146.84,250.63c8.927,9.863,13.277,22.912,17.4,35.557" transform="translate(-105.184 -158.258)" fill="none" stroke="#263238" stroke-linecap="round" stroke-linejoin="round" stroke-width="1"/><path d="M218.8,219s16.185,3.861,24.093,4.78,9.189,2.023,9.189,2.023l1.475,5.513" transform="translate(-116.483 -153.292)" fill="none" stroke="#263238" stroke-linecap="round" stroke-linejoin="round" stroke-width="1"/><path d="M297.165,230.38,242.042,232.5l-4.5,56.691h9.442l47.865-10.714,6.019-46.735Z" transform="translate(-119.425 -155.079)" fill="#fff"/><path d="M240.94,291.367l60.291-57.787-5.85,45.4Z" transform="translate(-119.959 -155.581)" fill="#7400cc8c"/><path d="M240.94,291.367l60.291-57.787-5.85,45.4Z" transform="translate(-119.959 -155.581)" fill="#fff" opacity="0.7"/><path d="M240.94,289.6l4.822-54.685L301.4,231.99l-6.019,46.735Z" transform="translate(-119.959 -155.331)" fill="none" stroke="#263238" stroke-linecap="round" stroke-linejoin="round" stroke-width="1"/><path d="M283.6,262.225c-.371,3.33-2.15,5.859-3.97,5.656s-2.984-3.077-2.613-6.407,2.158-5.859,3.979-5.656S283.98,258.895,283.6,262.225Z" transform="translate(-125.612 -159.071)" fill="#263238"/><path d="M297,287.424s25.475-.725,33.441,4.535,12.645,31.637,11.541,45.648-10.714,46.162-10.714,46.162L312.856,362.93s-9.071-32.978-4.122-45.892c0,0-24.447,1.374-34.074-1.644,0,0-8.624-14.12-23.41-18.79Z" transform="translate(-121.578 -164.03)" fill="#263238"/><path d="M324.594,385.763a126.291,126.291,0,0,1-17.517-20.232,166.693,166.693,0,0,0-33.9-37.285c-10.209-8.278-12.518-21.766-25.113-28.535-20.864-11.186-38.9,11.043-45.648,15.545s-18.419,9.6-18.419,9.6,4.266,16.017,16.792,17.914,25.2-6.744,31.191-2.571,10.428,22.8,30.221,33.72c16.177,8.919,38.221,17.618,49.593,23.486,2.529,1.315,4.417,2.7,5.85,3.482,3.928,2.141,8.126,4.662,12.088,7.157l13.648,8.312s13.7-8.1,18.959-15.57c.7-1,2.158-3.675,3.524-6.255,2.976-5.64,6.744-10.7,11.962-13.488,3.608-1.947,6.82-2.529,6.744-2.731-.346-.641-6.887-3.987-11.33-2.158-9.408,3.886-28.215,18.816-37.092,17.7A66.45,66.45,0,0,1,324.594,385.763Z" transform="translate(-111.019 -165.475)" fill="none" stroke="#263238" stroke-miterlimit="10" stroke-width="1"/><path d="M324.594,385.769c-8.2,3.313-11.507,8.43-12.771,11.65-11.372-5.9-33.416-14.567-49.593-23.486-19.793-10.959-24.194-29.555-30.221-33.72s-18.706,4.5-31.191,2.571S184,324.854,184,324.854s11.684-5.058,18.428-9.56,22.3-26.74,45.64-15.545c12.889,6.179,14.9,20.232,25.113,28.535a166.566,166.566,0,0,1,33.9,37.285,123.918,123.918,0,0,0,17.517,20.2Z" transform="translate(-111.019 -165.481)" fill="#263238"/><path d="M274.6,314.737s-6.314-12.83-16.438-15.317" transform="translate(-122.662 -165.918)" fill="none" stroke="#fff" stroke-linecap="round" stroke-linejoin="round" stroke-width="1"/><path d="M226.2,287.253c-6.963-1.517-14.609,6.179-17.829,4.738-2.394-1.071-6.331,5.269-6.331,5.269a105.468,105.468,0,0,1-19.574.986c-9.383-.6-13.825,1.231-17.146,6.247l-4.636,12.282s12.232,10.959,25.29,4.577,30.407-25.635,42.36-25.568" transform="translate(-107.357 -163.977)" fill="none" stroke="#263238" stroke-linecap="round" stroke-linejoin="round" stroke-width="1"/><path d="M353.71,424.451s11.431.936,8.75-12.721" transform="translate(-137.665 -183.552)" fill="none" stroke="#263238" stroke-miterlimit="10" stroke-width="1"/><path d="M413.82,400.432c-.843,1.686-11.321,10.6-20.35,18.4,0-.118,2.529-4.881,3.574-6.913,2.4-4.485,8.607-16.784,20.417-18.4C419.139,394.532,413.82,400.432,413.82,400.432Z" transform="translate(-143.907 -180.693)" fill="#263238"/><path d="M405.777,390.33c-11.945,2.377-14.66,17.7-18.9,24.219s-16.017,15.376-16.017,15.376" transform="translate(-140.357 -180.192)" fill="none" stroke="#263238" stroke-miterlimit="10" stroke-width="1"/><path d="M355.63,428.488c1.947,3.557,1.028,7.688,0,10.276a21.453,21.453,0,0,1-1.871,3.684c-16.91-2.782-33.821-11.869-33.821-11.869l-4.358-13.488-.7-2.158,6.567-8.843" transform="translate(-131.568 -182.667)" fill="none" stroke="#263238" stroke-miterlimit="10" stroke-width="1"/><path d="M355.76,440.813a21.453,21.453,0,0,1-1.871,3.684c-16.91-2.782-33.821-11.869-33.821-11.869L315.71,419.14a24.11,24.11,0,0,0,12.3,8.733C336.245,430.208,351.444,432.94,355.76,440.813Z" transform="translate(-131.698 -184.716)" fill="#263238"/><path d="M237.54,287.214l4.5-54.718,55.123-2.116,3.7,1.357" transform="translate(-119.425 -155.079)" fill="none" stroke="#263238" stroke-linecap="round" stroke-linejoin="round" stroke-width="1"/><path d="M364,415.563s7.536,1.349,13.328-3.372,15.123-15.4,15.123-15.4" transform="translate(-139.28 -181.206)" fill="none" stroke="#263238" stroke-miterlimit="10" stroke-width="1"/><path d="M372.949,411s-1.821,2.74,0,8.236" transform="translate(-140.558 -183.438)" fill="none" stroke="#263238" stroke-linecap="round" stroke-linejoin="round" stroke-width="1"/><path d="M379.35,407.89a11.22,11.22,0,0,0,.683,8.236" transform="translate(-141.615 -182.949)" fill="none" stroke="#263238" stroke-linecap="round" stroke-linejoin="round" stroke-width="1"/><path d="M386.874,403.51s-1.526,4.577,0,8.615" transform="translate(-142.765 -182.262)" fill="none" stroke="#263238" stroke-linecap="round" stroke-linejoin="round" stroke-width="1"/><path d="M323.314,404.74l-6.044,7.275a38.251,38.251,0,0,0,14.677,9.416c8.59,2.765,23.932,7.46,25.205,12.459" transform="translate(-131.943 -182.455)" fill="none" stroke="#263238" stroke-miterlimit="10" stroke-width="1"/></g></g><g transform="translate(-1606.896 -176.077)"><g transform="translate(1606.896 271.295)"><path d="M299.04,369.772a111.275,111.275,0,0,1-27.684,23.9,97.845,97.845,0,0,1-10.116,5.277c-23.949,10.765-51.245,11.465-76.771,5.277C130.8,391.217,102.319,343.841,98.7,291.247c-.969-14.213-3.144-29.564,2.613-43.085s17.4-21.918,30.567-27.751c9.56-4.257,19.886-7.115,29.269-9.45a75.287,75.287,0,0,1,50.655,5.227c11.035,5.235,18.891,14.331,28.173,21.994q1.475,1.214,2.967,2.419a278.108,278.108,0,0,0,29.5,20.746c15.6,9.517,31.578,18.5,41.551,34.478C329.91,321.3,316.49,349.034,299.04,369.772Z" transform="translate(-97.435 -151.684)" fill="#7400cc8c"/><path d="M299.04,369.772a111.275,111.275,0,0,1-27.684,23.9,97.845,97.845,0,0,1-10.116,5.277c-23.949,10.765-51.245,11.465-76.771,5.277C130.8,391.217,102.319,343.841,98.7,291.247c-.969-14.213-3.144-29.564,2.613-43.085s17.4-21.918,30.567-27.751c9.56-4.257,19.886-7.115,29.269-9.45a75.287,75.287,0,0,1,50.655,5.227c11.035,5.235,18.891,14.331,28.173,21.994q1.475,1.214,2.967,2.419a278.108,278.108,0,0,0,29.5,20.746c15.6,9.517,31.578,18.5,41.551,34.478C329.91,321.3,316.49,349.034,299.04,369.772Z" transform="translate(-97.435 -151.684)" fill="#fff" opacity="0.4"/><path d="M242.9,240.6q-1.492-1.2-2.967-2.428c-9.273-7.68-17.146-16.75-28.173-21.985a75.338,75.338,0,0,0-50.655-5.227c-22.314,5.538-49.989,14.07-59.852,37.21-5.758,13.488-3.583,28.864-2.6,43.077,3.659,52.594,32.135,99.97,85.808,112.978,29.2,7.081,60.7,5.142,86.887-10.554a111.275,111.275,0,0,0,27.684-23.9c17.45-20.738,30.87-48.472,14.98-73.947-9.964-16.017-25.939-24.961-41.551-34.478A278.106,278.106,0,0,1,242.9,240.6Z" transform="translate(-97.426 -151.685)" fill="none" stroke="#263238" stroke-miterlimit="10" stroke-width="1"/><path d="M171.137,357.78a77.194,77.194,0,0,0-12.957,5.243" transform="translate(-106.965 -175.082)" fill="none" stroke="#263238" stroke-linecap="round" stroke-linejoin="round" stroke-width="1"/><path d="M202.389,351.6A138.242,138.242,0,0,0,183,354.677" transform="translate(-110.862 -174.111)" fill="none" stroke="#263238" stroke-linecap="round" stroke-linejoin="round" stroke-width="1"/><path d="M188.9,348.609s-25.189-14.651-55.587-2.908" transform="translate(-103.06 -172.469)" fill="none" stroke="#263238" stroke-linecap="round" stroke-linejoin="round" stroke-width="1"/><path d="M301.463,369.772a111.274,111.274,0,0,1-27.684,23.9,97.841,97.841,0,0,1-10.116,5.277,79,79,0,0,1-8.067-2.959c-15.73-6.744-28.931-18.15-41.829-29.4-7.781-6.744-15.688-13.656-25-18.1a57.509,57.509,0,0,0-40.329-3.321A45.294,45.294,0,0,1,175.108,330.5c-6.66-6.061-15.924-8.607-24.927-8.767s-13.96.944-22.761,2.917c2.942-5.412,10.748-10.31,16.91-10.166a153.149,153.149,0,0,1-17.517-1.239c-7.949-1.281-11.507-10.639-12.7-18.6-3.288-21.918.042-45.26,12-63.89a65.038,65.038,0,0,1,8.177-10.344c9.559-4.257,19.886-7.115,29.269-9.45a75.288,75.288,0,0,1,50.655,5.227c11.035,5.235,18.891,14.331,28.173,21.994q1.475,1.214,2.967,2.419a278.105,278.105,0,0,0,29.5,20.746c15.6,9.517,31.578,18.5,41.551,34.478C332.334,321.3,318.913,349.034,301.463,369.772Z" transform="translate(-99.859 -151.685)" opacity="0.1"/><path d="M344.59,399A163,163,0,0,0,359.4,409.959c10.023.674,5.53,12.788,5.53,12.788l-8.582,5.522s-14.693-11.675-22.719-15.46S344.59,399,344.59,399Z" transform="translate(-134.202 -181.553)" fill="#fff"/><path d="M242.214,241.168s-1.374-13.6-3.566-17.416l-33.281-6.778v-2.58s.767-4.485-6.651-7.292-22.879.843-26.866,3.861-2.529,8.211-2.529,8.211-13.4,6.769-19.423,9.349a153.8,153.8,0,0,0-14.39,7.587s-2.731,31.258-2.192,38.516-.438,14.086.185,18.107,1.113,6.306,5.328,9.728,8.051,8.43,19.1,3.465l-1.543-1.222L229.14,280.2Z" transform="translate(-103.05 -151.266)" opacity="0.3"/><path d="M242.214,241.168s-1.374-13.6-3.566-17.416l-33.281-6.778v-2.58s.767-4.485-6.651-7.292-22.879.843-26.866,3.861-2.529,8.211-2.529,8.211-13.4,6.769-19.423,9.349a153.8,153.8,0,0,0-14.39,7.587s-2.731,31.258-2.192,38.516-.438,14.086.185,18.107,1.113,6.306,5.328,9.728,8.051,8.43,19.1,3.465l-1.543-1.222L229.14,280.2Z" transform="translate(-103.05 -151.266)" fill="#7400cc8c"/><path d="M242.214,241.168s-1.374-13.6-3.566-17.416l-33.281-6.778v-2.58s.767-4.485-6.651-7.292-22.879.843-26.866,3.861-2.529,8.211-2.529,8.211-13.4,6.769-19.423,9.349a153.8,153.8,0,0,0-14.39,7.587s-2.731,31.258-2.192,38.516-.438,14.086.185,18.107,1.113,6.306,5.328,9.728,8.051,8.43,19.1,3.465l-1.543-1.222L229.14,280.2Z" transform="translate(-103.05 -151.266)" opacity="0.05"/><path d="M239.76,229H225.833a5.538,5.538,0,0,0-5.454,4.628l-6.862,41.307s-9.45.784-16.143,5.665-23.157-29.943-49.172-29.96c0,0,7.486,17.113,9.146,30.769,0,0-16.261-1.77-18.959,4.594s1.222,18.293,8.1,13.673,13.353-12.324,17.947-7.452,25.121,7.494,25.121,7.494l31.587-15.924,12.249-5.758Z" transform="translate(-103.723 -154.862)" opacity="0.1"/><path d="M201.5,204.71s7.907,2.192,9.189,4.847,1.146,9.374,1.146,9.374a32.455,32.455,0,0,1-8.506,11.7l-5.9-11.7.531,13.269s-11.195-1.863-15.949-5.437l-4.746-3.583s-2.048-6.744-1.753-9.028,8.835-6.921,8.835-6.921Z" transform="translate(-109.682 -151.048)" fill="#fff" opacity="0.4"/><path d="M355.1,441.206c-.219-.481,3.246-6.6.531-12.83s-7.039-3.827-7.039-3.827-12.316-7.84-17.492-10.318a88.257,88.257,0,0,1-10.748-6.39l-5.471,7.368,5.058,15.646Z" transform="translate(-131.568 -182.941)" fill="#7400cc8c"/><path d="M354.34,421.375l15.815,9.661s11.119-7.132,16.422-12.055,17.214-15.41,17.214-15.41l7.587-10.209s-5.26-6.508-14.027-1.281c-11.33,6.744-25.146,16.539-34.36,16.447,0,0,1.812,11.321-8.59,12.847" transform="translate(-137.764 -180.148)" fill="#7400cc8c"/><path d="M198.06,156.23s7.174,10.858,8.48,14.373,2.36,8.717,2.1,11.22-2.891,15.916-4.215,16.3l-1.273,1.442.843,5.682s-5.614,9.7-22.12,2.588c0,0-.641-11.33-2.647-14.887s-5.007.674-8.017-9.6,6.575-21.075,6.575-21.075Z" transform="translate(-108.919 -143.436)" fill="#fff"/><path d="M407.083,390.22s-8.135,1.416-10.773,6.23-7.7,13.758-9.433,18.082S370.86,429.3,370.86,429.3l1.9,1.762s11.633-7.191,18.655-14.027S413.92,393,413.92,393,412.807,391.9,407.083,390.22Z" transform="translate(-140.357 -180.175)" fill="#fff" opacity="0.5"/><path d="M316.895,413.37l-2.015,2.706,6.188,12.83L355.1,441.138l1.576-4.982s.523-5.058-11.423-8.9-19.229-6.381-22.626-9.02S316.895,413.37,316.895,413.37Z" transform="translate(-131.568 -183.81)" fill="#fff" opacity="0.5"/><path d="M180.337,298.27s-10.419-1.568-15.283,6.955-4.367,12.215-4.367,12.215,6.887,6.255,16.354,5.9,23.25-11.195,27.743-14.727,15.823-13.64,23.553-11.549l.843-7.309s-.759-3.279-7.368-2.394-9.205,4.653-11.338,4.653-4.148-2.048-8.43,5.269C202.036,297.284,187.005,299.948,180.337,298.27Z" transform="translate(-107.356 -164.001)" fill="#fff"/><path d="M200.06,174.75a30.176,30.176,0,0,0,.944,4.038,4.7,4.7,0,0,0,.843,1.779,5.45,5.45,0,0,0,3.246,1.239.885.885,0,0,1,.523.219.843.843,0,0,1,.126.506,6.744,6.744,0,0,1-1.146,3.726" transform="translate(-113.54 -146.344)" fill="none" stroke="#263238" stroke-linecap="round" stroke-linejoin="round" stroke-width="1"/><path d="M324.258,403l-6.988,8.708s7.671,7.09,15.612,9.72,21.842,7.587,24.169,11.406l-.894-4.544s-21.741-13.336-26.731-16.523A11.515,11.515,0,0,1,324.258,403Z" transform="translate(-131.943 -182.181)" opacity="0.1"/><path d="M354.34,421.4l13.918,7.9s6.87-4.7,10.242-8.169,7.528-7.309,10.116-15.073c3.532-10.731,13.648-15.84,13.648-15.84s-14.07,6.626-21.4,11.8-14.466,7.368-18.613,7.014C362.214,409.061,365.543,419.6,354.34,421.4Z" transform="translate(-137.764 -180.175)" opacity="0.1"/><path d="M194.24,190.67s5.471,4.291,11.153,2.681C205.393,193.351,200.031,203.972,194.24,190.67Z" transform="translate(-112.626 -148.844)" fill="#fff" stroke="#263238" stroke-linecap="round" stroke-linejoin="round" stroke-width="1"/><path d="M193.591,179.3c.16,1.18-.2,2.2-.792,2.284s-1.205-.843-1.366-2,.194-2.2.792-2.285S193.464,178.117,193.591,179.3Z" transform="translate(-112.18 -146.743)" fill="#263238"/><path d="M207.721,176.749c.152,1.189-.2,2.209-.792,2.285s-1.214-.843-1.366-1.989.194-2.209.792-2.285S207.561,175.568,207.721,176.749Z" transform="translate(-114.399 -146.345)" fill="#263238"/><path d="M191.984,173.659s-3.187-1.644-5.454,1.88" transform="translate(-111.416 -146.113)" fill="none" stroke="#263238" stroke-linecap="round" stroke-linejoin="round" stroke-width="1"/><path d="M202.69,170.891s3.372-2.891,5.319,0" transform="translate(-113.953 -145.536)" fill="none" stroke="#263238" stroke-linecap="round" stroke-linejoin="round" stroke-width="1"/><path d="M178.9,186.053s-2.048-3.026-4.215-2.934-3.026,3.128-2.251,6.061,4,7.031,6.449,6.643a5.429,5.429,0,0,0,3.515-1.956" transform="translate(-109.159 -147.658)" fill="none" stroke="#263238" stroke-linecap="round" stroke-linejoin="round" stroke-width="1"/><path d="M201.436,159.13c2.3,1.914,4.738,4,5.9,6.811,1.028,2.394,1.256,5.058,2.2,7.477,1,2.588,2.1,5.294,2.183,8.118a34.387,34.387,0,0,1-1.02,7.747,42.7,42.7,0,0,1-1.56,6.483,11.471,11.471,0,0,1-6.053,6.322c-2.048,1.045-5.463,2.529-7.68,1.13-1.29-.843-3.229-3.254-4.839-5.471" transform="translate(-112.05 -143.892)" fill="none" stroke="#263238" stroke-linecap="round" stroke-linejoin="round" stroke-width="1"/><path d="M180.16,198.19s3.625,8.885,2.748,15.132" transform="translate(-110.416 -150.024)" fill="none" stroke="#263238" stroke-linecap="round" stroke-linejoin="round" stroke-width="1"/><path d="M176.186,177.957a3.49,3.49,0,0,0,1.4-3.127c-.135-1.366-1.079-2.63-.894-4a7.359,7.359,0,0,1,.725-1.871,7.848,7.848,0,0,0-.438-7.1s11.515.54,16.91-2.891,9.509-12.206,6.247-16.4-9.619,1.526-14.331,2.158-21.471,3.3-24.143,9.762,1.4,8.776,1.526,14.938.126,17.838,9.34,16.767c0,0-3.448-4.459-1.054-9.054C173.1,175.217,176.186,177.957,176.186,177.957Z" transform="translate(-107.369 -141.053)" fill="#263238"/><path d="M204.8,151.5a14.449,14.449,0,0,1,5.513,10.116c.514,4.62,8.708,13.6,2.8,18.714,0,0-1.374-5.437-2.183-8.118s-1.846-7.587-3.2-9.273-8.556-7.587-8.556-7.587Z" transform="translate(-113.4 -142.694)" fill="#263238"/><path d="M180.474,214.9s5.682,3.743,16.236,3.895l1.239,14.154s-11.869-.9-20.7-9.02c0,0-2.386-6.314-1.753-9.028s6.306-5.4,6.306-5.4" transform="translate(-109.667 -151.8)" fill="none" stroke="#263238" stroke-linecap="round" stroke-linejoin="round" stroke-width="1"/><path d="M208.317,208.21l.337,5.058a20.923,20.923,0,0,1-7.975,5.184l6.609,12.586s7.882-6.137,8.666-12.586c0,0,.067-6.6-1.307-8.489s-6.381-2.773-6.381-2.773" transform="translate(-113.638 -151.437)" fill="none" stroke="#263238" stroke-linecap="round" stroke-linejoin="round" stroke-width="1"/><path d="M171.8,159.433c.843-2.116,3.153-3.372,5.4-3.709a55.988,55.988,0,0,1,6.837-.16,17.551,17.551,0,0,0,8.936-2.529,11.945,11.945,0,0,0,5.4-7.385" transform="translate(-109.103 -141.775)" fill="none" stroke="#fff" stroke-linecap="round" stroke-linejoin="round" stroke-width="1" opacity="0.8"/><path d="M165.35,159.519c1.425-4.325,6.044-7,10.588-7.376,2.251-.194,4.527.067,6.744-.194s4.577-1.189,5.749-3.119" transform="translate(-108.09 -142.274)" fill="none" stroke="#fff" stroke-linecap="round" stroke-linejoin="round" stroke-width="1" opacity="0.8"/><path d="M157.923,308.357c-10.959,5.682-14.853-.169-20.957-5.007s-2.1-13.488-3.372-27.355,1.9-37.454,1.9-37.454,2.731-.624,10.31-5.26,23.528-11.7,23.528-11.7" transform="translate(-103.057 -153.697)" fill="none" stroke="#263238" stroke-linecap="round" stroke-linejoin="round" stroke-width="1"/><path d="M170.771,298.567s-1.737-5.5-6.643-5.648-12.645,2.065-18.158,12.493" transform="translate(-105.048 -164.897)" fill="none" stroke="#263238" stroke-linecap="round" stroke-linejoin="round" stroke-width="1"/><path d="M163.669,292.256a2.714,2.714,0,0,1-.885-.211,21.336,21.336,0,0,0-12.594-.573" transform="translate(-105.71 -164.563)" fill="none" stroke="#263238" stroke-linecap="round" stroke-linejoin="round" stroke-width="1"/><path d="M146.84,250.63c8.927,9.863,13.277,22.912,17.4,35.557" transform="translate(-105.184 -158.258)" fill="none" stroke="#263238" stroke-linecap="round" stroke-linejoin="round" stroke-width="1"/><path d="M218.8,219s16.185,3.861,24.093,4.78,9.189,2.023,9.189,2.023l1.475,5.513" transform="translate(-116.483 -153.292)" fill="none" stroke="#263238" stroke-linecap="round" stroke-linejoin="round" stroke-width="1"/><path d="M297.165,230.38,242.042,232.5l-4.5,56.691h9.442l47.865-10.714,6.019-46.735Z" transform="translate(-119.425 -155.079)" fill="#fff"/><path d="M240.94,291.367l60.291-57.787-5.85,45.4Z" transform="translate(-119.959 -155.581)" fill="#7400cc8c"/><path d="M240.94,291.367l60.291-57.787-5.85,45.4Z" transform="translate(-119.959 -155.581)" fill="#fff" opacity="0.7"/><path d="M240.94,289.6l4.822-54.685L301.4,231.99l-6.019,46.735Z" transform="translate(-119.959 -155.331)" fill="none" stroke="#263238" stroke-linecap="round" stroke-linejoin="round" stroke-width="1"/><path d="M283.6,262.225c-.371,3.33-2.15,5.859-3.97,5.656s-2.984-3.077-2.613-6.407,2.158-5.859,3.979-5.656S283.98,258.895,283.6,262.225Z" transform="translate(-125.612 -159.071)" fill="#263238"/><path d="M297,287.424s25.475-.725,33.441,4.535,12.645,31.637,11.541,45.648-10.714,46.162-10.714,46.162L312.856,362.93s-9.071-32.978-4.122-45.892c0,0-24.447,1.374-34.074-1.644,0,0-8.624-14.12-23.41-18.79Z" transform="translate(-121.578 -164.03)" fill="#263238"/><path d="M324.594,385.763a126.291,126.291,0,0,1-17.517-20.232,166.693,166.693,0,0,0-33.9-37.285c-10.209-8.278-12.518-21.766-25.113-28.535-20.864-11.186-38.9,11.043-45.648,15.545s-18.419,9.6-18.419,9.6,4.266,16.017,16.792,17.914,25.2-6.744,31.191-2.571,10.428,22.8,30.221,33.72c16.177,8.919,38.221,17.618,49.593,23.486,2.529,1.315,4.417,2.7,5.85,3.482,3.928,2.141,8.126,4.662,12.088,7.157l13.648,8.312s13.7-8.1,18.959-15.57c.7-1,2.158-3.675,3.524-6.255,2.976-5.64,6.744-10.7,11.962-13.488,3.608-1.947,6.82-2.529,6.744-2.731-.346-.641-6.887-3.987-11.33-2.158-9.408,3.886-28.215,18.816-37.092,17.7A66.45,66.45,0,0,1,324.594,385.763Z" transform="translate(-111.019 -165.475)" fill="none" stroke="#263238" stroke-miterlimit="10" stroke-width="1"/><path d="M324.594,385.769c-8.2,3.313-11.507,8.43-12.771,11.65-11.372-5.9-33.416-14.567-49.593-23.486-19.793-10.959-24.194-29.555-30.221-33.72s-18.706,4.5-31.191,2.571S184,324.854,184,324.854s11.684-5.058,18.428-9.56,22.3-26.74,45.64-15.545c12.889,6.179,14.9,20.232,25.113,28.535a166.566,166.566,0,0,1,33.9,37.285,123.918,123.918,0,0,0,17.517,20.2Z" transform="translate(-111.019 -165.481)" fill="#263238"/><path d="M274.6,314.737s-6.314-12.83-16.438-15.317" transform="translate(-122.662 -165.918)" fill="none" stroke="#fff" stroke-linecap="round" stroke-linejoin="round" stroke-width="1"/><path d="M226.2,287.253c-6.963-1.517-14.609,6.179-17.829,4.738-2.394-1.071-6.331,5.269-6.331,5.269a105.468,105.468,0,0,1-19.574.986c-9.383-.6-13.825,1.231-17.146,6.247l-4.636,12.282s12.232,10.959,25.29,4.577,30.407-25.635,42.36-25.568" transform="translate(-107.357 -163.977)" fill="none" stroke="#263238" stroke-linecap="round" stroke-linejoin="round" stroke-width="1"/><path d="M353.71,424.451s11.431.936,8.75-12.721" transform="translate(-137.665 -183.552)" fill="none" stroke="#263238" stroke-miterlimit="10" stroke-width="1"/><path d="M413.82,400.432c-.843,1.686-11.321,10.6-20.35,18.4,0-.118,2.529-4.881,3.574-6.913,2.4-4.485,8.607-16.784,20.417-18.4C419.139,394.532,413.82,400.432,413.82,400.432Z" transform="translate(-143.907 -180.693)" fill="#263238"/><path d="M405.777,390.33c-11.945,2.377-14.66,17.7-18.9,24.219s-16.017,15.376-16.017,15.376" transform="translate(-140.357 -180.192)" fill="none" stroke="#263238" stroke-miterlimit="10" stroke-width="1"/><path d="M355.63,428.488c1.947,3.557,1.028,7.688,0,10.276a21.453,21.453,0,0,1-1.871,3.684c-16.91-2.782-33.821-11.869-33.821-11.869l-4.358-13.488-.7-2.158,6.567-8.843" transform="translate(-131.568 -182.667)" fill="none" stroke="#263238" stroke-miterlimit="10" stroke-width="1"/><path d="M355.76,440.813a21.453,21.453,0,0,1-1.871,3.684c-16.91-2.782-33.821-11.869-33.821-11.869L315.71,419.14a24.11,24.11,0,0,0,12.3,8.733C336.245,430.208,351.444,432.94,355.76,440.813Z" transform="translate(-131.698 -184.716)" fill="#263238"/><path d="M237.54,287.214l4.5-54.718,55.123-2.116,3.7,1.357" transform="translate(-119.425 -155.079)" fill="none" stroke="#263238" stroke-linecap="round" stroke-linejoin="round" stroke-width="1"/><path d="M364,415.563s7.536,1.349,13.328-3.372,15.123-15.4,15.123-15.4" transform="translate(-139.28 -181.206)" fill="none" stroke="#263238" stroke-miterlimit="10" stroke-width="1"/><path d="M372.949,411s-1.821,2.74,0,8.236" transform="translate(-140.558 -183.438)" fill="none" stroke="#263238" stroke-linecap="round" stroke-linejoin="round" stroke-width="1"/><path d="M379.35,407.89a11.22,11.22,0,0,0,.683,8.236" transform="translate(-141.615 -182.949)" fill="none" stroke="#263238" stroke-linecap="round" stroke-linejoin="round" stroke-width="1"/><path d="M386.874,403.51s-1.526,4.577,0,8.615" transform="translate(-142.765 -182.262)" fill="none" stroke="#263238" stroke-linecap="round" stroke-linejoin="round" stroke-width="1"/><path d="M323.314,404.74l-6.044,7.275a38.251,38.251,0,0,0,14.677,9.416c8.59,2.765,23.932,7.46,25.205,12.459" transform="translate(-131.943 -182.455)" fill="none" stroke="#263238" stroke-miterlimit="10" stroke-width="1"/></g></g></g></svg>