<svg xmlns="http://www.w3.org/2000/svg" width="191.483" height="54.64" viewBox="0 0 191.483 54.64">   <g id="Grupo_6950" data-name="Grupo 6950" transform="translate(-404.924 -493.86)">     <path id="Caminho_37662" data-name="Caminho 37662" d="M-78.036,0H-89.172a.906.906,0,0,1-.66-.2.906.906,0,0,1-.2-.66V-16.416a.906.906,0,0,1,.2-.66.906.906,0,0,1,.66-.2h11.136a.906.906,0,0,1,.66.2.906.906,0,0,1,.2.66v2.808a.906.906,0,0,1-.2.66.906.906,0,0,1-.66.2H-84.66V-10.9h4.68a.906.906,0,0,1,.66.2.906.906,0,0,1,.2.66v2.568a.906.906,0,0,1-.2.66.906.906,0,0,1-.66.2h-4.68v2.064h6.624a.906.906,0,0,1,.66.2.906.906,0,0,1,.2.66V-.864a.906.906,0,0,1-.2.66A.906.906,0,0,1-78.036,0Zm8.856-.864a.906.906,0,0,1-.2.66.906.906,0,0,1-.66.2h-3.648a.906.906,0,0,1-.66-.2.906.906,0,0,1-.2-.66V-3.432a5.362,5.362,0,0,1,.192-1.656,5.439,5.439,0,0,1,.72-1.3L-71.7-9l-1.944-2.616a4.79,4.79,0,0,1-.732-1.3,5.7,5.7,0,0,1-.18-1.656v-1.848a.906.906,0,0,1,.2-.66.906.906,0,0,1,.66-.2H-70a.906.906,0,0,1,.66.2.906.906,0,0,1,.2.66v1.656q0,.24.024.5a1.033,1.033,0,0,0,.192.5l1.056,1.512a1.216,1.216,0,0,0,.252.3.5.5,0,0,0,.324.108H-67a.449.449,0,0,0,.312-.108,2.115,2.115,0,0,0,.264-.3l1.08-1.512a1.033,1.033,0,0,0,.192-.5q.024-.264.024-.5v-1.656a.906.906,0,0,1,.2-.66.906.906,0,0,1,.66-.2h3.648a.906.906,0,0,1,.66.2.906.906,0,0,1,.2.66v1.848a5.362,5.362,0,0,1-.192,1.656,5.44,5.44,0,0,1-.72,1.3L-62.6-8.976l1.944,2.592a4.79,4.79,0,0,1,.732,1.3,5.7,5.7,0,0,1,.18,1.656V-.864a.906.906,0,0,1-.2.66.906.906,0,0,1-.66.2H-64.26a.906.906,0,0,1-.66-.2.906.906,0,0,1-.2-.66V-3.24q0-.24-.024-.5a1.033,1.033,0,0,0-.192-.5L-66.4-5.76a1.394,1.394,0,0,0-.264-.312.484.484,0,0,0-.312-.1h-.336a.484.484,0,0,0-.312.1,1.394,1.394,0,0,0-.264.312l-1.08,1.512a1.033,1.033,0,0,0-.192.5q-.024.264-.024.5ZM-52.068,0h-3.72a.906.906,0,0,1-.66-.2.906.906,0,0,1-.2-.66V-16.416a.906.906,0,0,1,.2-.66.906.906,0,0,1,.66-.2h7.344q3.264,0,4.464,1.3a4.783,4.783,0,0,1,1.2,3.384v3.072a4.783,4.783,0,0,1-1.2,3.384q-1.2,1.3-4.464,1.3H-51.2V-.864a.906.906,0,0,1-.2.66A.906.906,0,0,1-52.068,0Zm.816-12.792v3.624h2.16a.983.983,0,0,0,.912-.36,1.555,1.555,0,0,0,.216-.816v-1.272a1.555,1.555,0,0,0-.216-.816.983.983,0,0,0-.912-.36ZM-28.284,0H-39.42a.906.906,0,0,1-.66-.2.906.906,0,0,1-.2-.66V-16.416a.906.906,0,0,1,.2-.66.906.906,0,0,1,.66-.2h11.136a.906.906,0,0,1,.66.2.906.906,0,0,1,.2.66v2.808a.906.906,0,0,1-.2.66.906.906,0,0,1-.66.2h-6.624V-10.9h4.68a.906.906,0,0,1,.66.2.906.906,0,0,1,.2.66v2.568a.906.906,0,0,1-.2.66.906.906,0,0,1-.66.2h-4.68v2.064h6.624a.906.906,0,0,1,.66.2.906.906,0,0,1,.2.66V-.864a.906.906,0,0,1-.2.66A.906.906,0,0,1-28.284,0Zm9.12-12.96v3.072h1.8a.941.941,0,0,0,.84-.324,1.418,1.418,0,0,0,.216-.8v-.816a1.418,1.418,0,0,0-.216-.8.941.941,0,0,0-.84-.324ZM-20.028,0h-3.7a.906.906,0,0,1-.66-.2.906.906,0,0,1-.2-.66V-16.416a.906.906,0,0,1,.2-.66.906.906,0,0,1,.66-.2h7.992q2.688,0,3.708,1.116A4.12,4.12,0,0,1-11-13.272v1.1a4.393,4.393,0,0,1-.3,1.716,1.868,1.868,0,0,1-1.044,1.02,3.158,3.158,0,0,1,2.1,1.056,3.532,3.532,0,0,1,.8,2.424V-.864a.906.906,0,0,1-.2.66.906.906,0,0,1-.66.2h-3.72a.906.906,0,0,1-.66-.2.906.906,0,0,1-.2-.66V-4.536a1.229,1.229,0,0,0-.2-.78.865.865,0,0,0-.708-.252h-3.36v4.7a.906.906,0,0,1-.2.66A.906.906,0,0,1-20.028,0ZM-6.276,0a.906.906,0,0,1-.66-.2.906.906,0,0,1-.2-.66V-3.72a.906.906,0,0,1,.2-.66.906.906,0,0,1,.66-.2H-3.9v-8.064H-6.276a.906.906,0,0,1-.66-.2.906.906,0,0,1-.2-.66v-2.9a.906.906,0,0,1,.2-.66.906.906,0,0,1,.66-.2H3.948a.906.906,0,0,1,.66.2.906.906,0,0,1,.2.66v2.9a.906.906,0,0,1-.2.66.906.906,0,0,1-.66.2H1.62v8.064H3.948a.906.906,0,0,1,.66.2.906.906,0,0,1,.2.66V-.864a.906.906,0,0,1-.2.66.906.906,0,0,1-.66.2ZM12.2,0H8.628a.906.906,0,0,1-.66-.2.906.906,0,0,1-.2-.66V-16.416a.906.906,0,0,1,.2-.66.906.906,0,0,1,.66-.2h3.864a1.123,1.123,0,0,1,.636.168,1.573,1.573,0,0,1,.468.552l2.16,3.912a1.909,1.909,0,0,0,.2.312.287.287,0,0,0,.228.1H16.4a.287.287,0,0,0,.228-.1,1.909,1.909,0,0,0,.2-.312l2.136-3.912a1.573,1.573,0,0,1,.468-.552,1.123,1.123,0,0,1,.636-.168h3.888a.906.906,0,0,1,.66.2.906.906,0,0,1,.2.66V-.864a.906.906,0,0,1-.2.66.906.906,0,0,1-.66.2h-3.7a.906.906,0,0,1-.66-.2.906.906,0,0,1-.2-.66V-9.312L17.988-6.7a1.452,1.452,0,0,1-.516.588,1.449,1.449,0,0,1-.756.18h-.96A1.449,1.449,0,0,1,15-6.108a1.452,1.452,0,0,1-.516-.588L13.068-9.312V-.864a.906.906,0,0,1-.2.66A.906.906,0,0,1,12.2,0ZM40.14,0H29a.906.906,0,0,1-.66-.2.906.906,0,0,1-.2-.66V-16.416a.906.906,0,0,1,.2-.66.906.906,0,0,1,.66-.2H40.14a.906.906,0,0,1,.66.2.906.906,0,0,1,.2.66v2.808a.906.906,0,0,1-.2.66.906.906,0,0,1-.66.2H33.516V-10.9H38.2a.906.906,0,0,1,.66.2.906.906,0,0,1,.2.66v2.568a.906.906,0,0,1-.2.66.906.906,0,0,1-.66.2h-4.68v2.064H40.14a.906.906,0,0,1,.66.2.906.906,0,0,1,.2.66V-.864a.906.906,0,0,1-.2.66A.906.906,0,0,1,40.14,0ZM48.3,0H44.7a.906.906,0,0,1-.66-.2.906.906,0,0,1-.2-.66V-16.416a.906.906,0,0,1,.2-.66.906.906,0,0,1,.66-.2h2.5a1.913,1.913,0,0,1,.78.144,1.874,1.874,0,0,1,.636.5L53.268-11.3v-5.112a.906.906,0,0,1,.2-.66.906.906,0,0,1,.66-.2h3.6a.906.906,0,0,1,.66.2.906.906,0,0,1,.2.66V-.864a.906.906,0,0,1-.2.66.906.906,0,0,1-.66.2h-3.6a.906.906,0,0,1-.66-.2.906.906,0,0,1-.2-.66V-3.816l-4.1-4.968v7.92a.906.906,0,0,1-.2.66A.906.906,0,0,1,48.3,0ZM70.068,0H66.18a.906.906,0,0,1-.66-.2.906.906,0,0,1-.2-.66V-12.648H61.788a.906.906,0,0,1-.66-.2.906.906,0,0,1-.2-.66v-2.9a.906.906,0,0,1,.2-.66.906.906,0,0,1,.66-.2H74.46a.906.906,0,0,1,.66.2.906.906,0,0,1,.2.66v2.9a.906.906,0,0,1-.2.66.906.906,0,0,1-.66.2H70.932V-.864a.906.906,0,0,1-.2.66A.906.906,0,0,1,70.068,0ZM89.652,0H78.516a.906.906,0,0,1-.66-.2.906.906,0,0,1-.2-.66V-16.416a.906.906,0,0,1,.2-.66.906.906,0,0,1,.66-.2H89.652a.906.906,0,0,1,.66.2.906.906,0,0,1,.2.66v2.808a.906.906,0,0,1-.2.66.906.906,0,0,1-.66.2H83.028V-10.9h4.68a.906.906,0,0,1,.66.2.906.906,0,0,1,.2.66v2.568a.906.906,0,0,1-.2.66.906.906,0,0,1-.66.2h-4.68v2.064h6.624a.906.906,0,0,1,.66.2.906.906,0,0,1,.2.66V-.864a.906.906,0,0,1-.2.66A.906.906,0,0,1,89.652,0Zm-178.1,22.76-1.128,3.648h3.768L-86.94,22.76a.913.913,0,0,0-.2-.312.367.367,0,0,0-.252-.1H-88a.367.367,0,0,0-.252.1A.913.913,0,0,0-88.452,22.76ZM-89.82,34.136a.906.906,0,0,1-.2.66.906.906,0,0,1-.66.2h-3.528a.906.906,0,0,1-.66-.2.906.906,0,0,1-.2-.66V27.8a7.1,7.1,0,0,1,.228-1.656,18.262,18.262,0,0,1,.708-2.184l2.088-5.448a1.126,1.126,0,0,1,.444-.6,1.426,1.426,0,0,1,.78-.192h6.456a1.377,1.377,0,0,1,.756.192,1.126,1.126,0,0,1,.444.6l2.088,5.448a18.262,18.262,0,0,1,.708,2.184,7.1,7.1,0,0,1,.228,1.656v6.336a.906.906,0,0,1-.2.66.906.906,0,0,1-.66.2h-3.624a1.039,1.039,0,0,1-.708-.2.846.846,0,0,1-.228-.66v-3.36H-89.82ZM-64,35h-7.56a6.9,6.9,0,0,1-4.452-1.2,4.519,4.519,0,0,1-1.452-3.7V22.616a4.519,4.519,0,0,1,1.452-3.7,6.9,6.9,0,0,1,4.452-1.2h6a.906.906,0,0,1,.66.2.906.906,0,0,1,.2.66v2.9a.906.906,0,0,1-.2.66.906.906,0,0,1-.66.2h-4.992a1.7,1.7,0,0,0-1.1.3,1.1,1.1,0,0,0-.36.9v5.736a1.243,1.243,0,0,0,.276.888,1.1,1.1,0,0,0,.828.288h2.328V26.72a.906.906,0,0,1,.2-.66.906.906,0,0,1,.66-.2H-64a.906.906,0,0,1,.66.2.906.906,0,0,1,.2.66v7.416a.906.906,0,0,1-.2.66A.906.906,0,0,1-64,35Zm18.432-4.536a5.883,5.883,0,0,1-.324,2A3.35,3.35,0,0,1-47.04,34a6.168,6.168,0,0,1-2.28,1A15.677,15.677,0,0,1-53,35.36,15.834,15.834,0,0,1-56.7,35a6.173,6.173,0,0,1-2.292-1,3.35,3.35,0,0,1-1.152-1.536,5.883,5.883,0,0,1-.324-2V22.28a5.883,5.883,0,0,1,.324-2,3.423,3.423,0,0,1,1.152-1.548A6.046,6.046,0,0,1-56.7,17.72a15.834,15.834,0,0,1,3.7-.36,15.677,15.677,0,0,1,3.684.36,6.041,6.041,0,0,1,2.28,1.008,3.423,3.423,0,0,1,1.152,1.548,5.883,5.883,0,0,1,.324,2ZM-55.02,29.6a1.038,1.038,0,0,0,.36.8A2.747,2.747,0,0,0-53,30.728a2.747,2.747,0,0,0,1.656-.324,1.038,1.038,0,0,0,.36-.8V23.144a1.013,1.013,0,0,0-.36-.78A2.747,2.747,0,0,0-53,22.04a2.747,2.747,0,0,0-1.656.324,1.013,1.013,0,0,0-.36.78Zm17.928-7.56v3.072h1.8a.941.941,0,0,0,.84-.324,1.418,1.418,0,0,0,.216-.8v-.816a1.418,1.418,0,0,0-.216-.8.941.941,0,0,0-.84-.324ZM-37.956,35h-3.7a.906.906,0,0,1-.66-.2.906.906,0,0,1-.2-.66V18.584a.906.906,0,0,1,.2-.66.906.906,0,0,1,.66-.2h7.992q2.688,0,3.708,1.116a4.12,4.12,0,0,1,1.02,2.892v1.1a4.393,4.393,0,0,1-.3,1.716,1.868,1.868,0,0,1-1.044,1.02,3.158,3.158,0,0,1,2.1,1.056,3.532,3.532,0,0,1,.8,2.424v5.088a.906.906,0,0,1-.2.66.906.906,0,0,1-.66.2h-3.72a.906.906,0,0,1-.66-.2.906.906,0,0,1-.2-.66V30.464a1.229,1.229,0,0,0-.2-.78.865.865,0,0,0-.708-.252h-3.36v4.7a.906.906,0,0,1-.2.66A.906.906,0,0,1-37.956,35ZM-18.42,22.76l-1.128,3.648h3.768l-1.128-3.648a.913.913,0,0,0-.2-.312.367.367,0,0,0-.252-.1h-.6a.367.367,0,0,0-.252.1A.913.913,0,0,0-18.42,22.76Zm-1.368,11.376a.906.906,0,0,1-.2.66.906.906,0,0,1-.66.2H-24.18a.906.906,0,0,1-.66-.2.906.906,0,0,1-.2-.66V27.8a7.1,7.1,0,0,1,.228-1.656,18.262,18.262,0,0,1,.708-2.184l2.088-5.448a1.126,1.126,0,0,1,.444-.6,1.426,1.426,0,0,1,.78-.192h6.456a1.377,1.377,0,0,1,.756.192,1.126,1.126,0,0,1,.444.6l2.088,5.448a18.262,18.262,0,0,1,.708,2.184,7.1,7.1,0,0,1,.228,1.656v6.336a.906.906,0,0,1-.2.66.906.906,0,0,1-.66.2H-14.6a1.039,1.039,0,0,1-.708-.2.846.846,0,0,1-.228-.66v-3.36h-4.248ZM2.556,35H-1.02a.906.906,0,0,1-.66-.2.906.906,0,0,1-.2-.66V18.584a.906.906,0,0,1,.2-.66.906.906,0,0,1,.66-.2H2.844a1.123,1.123,0,0,1,.636.168,1.573,1.573,0,0,1,.468.552l2.16,3.912a1.909,1.909,0,0,0,.2.312.287.287,0,0,0,.228.1h.216a.287.287,0,0,0,.228-.1,1.909,1.909,0,0,0,.2-.312L9.324,18.44a1.573,1.573,0,0,1,.468-.552,1.123,1.123,0,0,1,.636-.168h3.888a.74.74,0,0,1,.864.864V34.136a.74.74,0,0,1-.864.864h-3.7a.906.906,0,0,1-.66-.2.906.906,0,0,1-.2-.66V25.688L8.34,28.3a1.452,1.452,0,0,1-.516.588,1.449,1.449,0,0,1-.756.18h-.96a1.449,1.449,0,0,1-.756-.18,1.452,1.452,0,0,1-.516-.588L3.42,25.688v8.448a.906.906,0,0,1-.2.66A.906.906,0,0,1,2.556,35Zm27.936,0H19.356a.74.74,0,0,1-.864-.864V18.584a.74.74,0,0,1,.864-.864H30.492a.74.74,0,0,1,.864.864v2.808a.74.74,0,0,1-.864.864H23.868V24.1h4.68a.74.74,0,0,1,.864.864v2.568a.74.74,0,0,1-.864.864h-4.68v2.064h6.624a.74.74,0,0,1,.864.864v2.808a.74.74,0,0,1-.864.864ZM42.2,35H34.62a.74.74,0,0,1-.864-.864V31.328a.74.74,0,0,1,.864-.864h6.456a.552.552,0,0,0,.468-.2.786.786,0,0,0,.156-.492.945.945,0,0,0-.156-.6.634.634,0,0,0-.468-.216l-3.6-.5a5.225,5.225,0,0,1-2.7-1.1,3.589,3.589,0,0,1-1.02-2.88v-2.52a3.834,3.834,0,0,1,1.32-3.132,5.559,5.559,0,0,1,3.648-1.092h6.72a.74.74,0,0,1,.864.864V21.44a.74.74,0,0,1-.864.864H39.852a.586.586,0,0,0-.48.2.785.785,0,0,0-.168.516.834.834,0,0,0,.168.528.638.638,0,0,0,.48.24l3.576.48a5.3,5.3,0,0,1,2.712,1.1,3.566,3.566,0,0,1,1.032,2.88v2.52a3.818,3.818,0,0,1-1.332,3.132A5.569,5.569,0,0,1,42.2,35Zm12.024,0H50.652a.74.74,0,0,1-.864-.864V18.584a.74.74,0,0,1,.864-.864h3.864a1.123,1.123,0,0,1,.636.168,1.573,1.573,0,0,1,.468.552l2.16,3.912a1.909,1.909,0,0,0,.2.312.287.287,0,0,0,.228.1h.216a.287.287,0,0,0,.228-.1,1.909,1.909,0,0,0,.2-.312L61,18.44a1.573,1.573,0,0,1,.468-.552,1.123,1.123,0,0,1,.636-.168h3.888a.74.74,0,0,1,.864.864V34.136a.74.74,0,0,1-.864.864h-3.7a.74.74,0,0,1-.864-.864V25.688L60.012,28.3a1.284,1.284,0,0,1-1.272.768h-.96a1.284,1.284,0,0,1-1.272-.768l-1.416-2.616v8.448a.74.74,0,0,1-.864.864ZM84.8,30.464a5.883,5.883,0,0,1-.324,2A3.35,3.35,0,0,1,83.328,34a6.168,6.168,0,0,1-2.28,1,15.677,15.677,0,0,1-3.684.36,15.834,15.834,0,0,1-3.7-.36,6.173,6.173,0,0,1-2.292-1,3.35,3.35,0,0,1-1.152-1.536,5.883,5.883,0,0,1-.324-2V22.28a5.883,5.883,0,0,1,.324-2,3.423,3.423,0,0,1,1.152-1.548,6.046,6.046,0,0,1,2.292-1.008,15.834,15.834,0,0,1,3.7-.36,15.677,15.677,0,0,1,3.684.36,6.041,6.041,0,0,1,2.28,1.008,3.423,3.423,0,0,1,1.152,1.548,5.883,5.883,0,0,1,.324,2ZM75.348,29.6a1.038,1.038,0,0,0,.36.8,4.394,4.394,0,0,0,3.312,0,1.038,1.038,0,0,0,.36-.8V23.144a1.013,1.013,0,0,0-.36-.78,4.394,4.394,0,0,0-3.312,0,1.013,1.013,0,0,0-.36.78Zm17.808-.888h-3.72a.906.906,0,0,1-.66-.2.982.982,0,0,1-.228-.66l-.36-9.264a.873.873,0,0,1,.168-.66.862.862,0,0,1,.648-.2h4.584a.862.862,0,0,1,.648.2.873.873,0,0,1,.168.66l-.336,9.264a.785.785,0,0,1-.912.864ZM93.516,35H89.1a.74.74,0,0,1-.864-.864V30.992a.74.74,0,0,1,.864-.864h4.416a.74.74,0,0,1,.864.864v3.144a.74.74,0,0,1-.864.864Z" transform="translate(502 513.14)" fill="#5800cc"></path>     <path id="Caminho_37661" data-name="Caminho 37661" d="M-78.036,0H-89.172a.906.906,0,0,1-.66-.2.906.906,0,0,1-.2-.66V-16.416a.906.906,0,0,1,.2-.66.906.906,0,0,1,.66-.2h11.136a.906.906,0,0,1,.66.2.906.906,0,0,1,.2.66v2.808a.906.906,0,0,1-.2.66.906.906,0,0,1-.66.2H-84.66V-10.9h4.68a.906.906,0,0,1,.66.2.906.906,0,0,1,.2.66v2.568a.906.906,0,0,1-.2.66.906.906,0,0,1-.66.2h-4.68v2.064h6.624a.906.906,0,0,1,.66.2.906.906,0,0,1,.2.66V-.864a.906.906,0,0,1-.2.66A.906.906,0,0,1-78.036,0Zm8.856-.864a.906.906,0,0,1-.2.66.906.906,0,0,1-.66.2h-3.648a.906.906,0,0,1-.66-.2.906.906,0,0,1-.2-.66V-3.432a5.362,5.362,0,0,1,.192-1.656,5.439,5.439,0,0,1,.72-1.3L-71.7-9l-1.944-2.616a4.79,4.79,0,0,1-.732-1.3,5.7,5.7,0,0,1-.18-1.656v-1.848a.906.906,0,0,1,.2-.66.906.906,0,0,1,.66-.2H-70a.906.906,0,0,1,.66.2.906.906,0,0,1,.2.66v1.656q0,.24.024.5a1.033,1.033,0,0,0,.192.5l1.056,1.512a1.216,1.216,0,0,0,.252.3.5.5,0,0,0,.324.108H-67a.449.449,0,0,0,.312-.108,2.115,2.115,0,0,0,.264-.3l1.08-1.512a1.033,1.033,0,0,0,.192-.5q.024-.264.024-.5v-1.656a.906.906,0,0,1,.2-.66.906.906,0,0,1,.66-.2h3.648a.906.906,0,0,1,.66.2.906.906,0,0,1,.2.66v1.848a5.362,5.362,0,0,1-.192,1.656,5.44,5.44,0,0,1-.72,1.3L-62.6-8.976l1.944,2.592a4.79,4.79,0,0,1,.732,1.3,5.7,5.7,0,0,1,.18,1.656V-.864a.906.906,0,0,1-.2.66.906.906,0,0,1-.66.2H-64.26a.906.906,0,0,1-.66-.2.906.906,0,0,1-.2-.66V-3.24q0-.24-.024-.5a1.033,1.033,0,0,0-.192-.5L-66.4-5.76a1.394,1.394,0,0,0-.264-.312.484.484,0,0,0-.312-.1h-.336a.484.484,0,0,0-.312.1,1.394,1.394,0,0,0-.264.312l-1.08,1.512a1.033,1.033,0,0,0-.192.5q-.024.264-.024.5ZM-52.068,0h-3.72a.906.906,0,0,1-.66-.2.906.906,0,0,1-.2-.66V-16.416a.906.906,0,0,1,.2-.66.906.906,0,0,1,.66-.2h7.344q3.264,0,4.464,1.3a4.783,4.783,0,0,1,1.2,3.384v3.072a4.783,4.783,0,0,1-1.2,3.384q-1.2,1.3-4.464,1.3H-51.2V-.864a.906.906,0,0,1-.2.66A.906.906,0,0,1-52.068,0Zm.816-12.792v3.624h2.16a.983.983,0,0,0,.912-.36,1.555,1.555,0,0,0,.216-.816v-1.272a1.555,1.555,0,0,0-.216-.816.983.983,0,0,0-.912-.36ZM-28.284,0H-39.42a.906.906,0,0,1-.66-.2.906.906,0,0,1-.2-.66V-16.416a.906.906,0,0,1,.2-.66.906.906,0,0,1,.66-.2h11.136a.906.906,0,0,1,.66.2.906.906,0,0,1,.2.66v2.808a.906.906,0,0,1-.2.66.906.906,0,0,1-.66.2h-6.624V-10.9h4.68a.906.906,0,0,1,.66.2.906.906,0,0,1,.2.66v2.568a.906.906,0,0,1-.2.66.906.906,0,0,1-.66.2h-4.68v2.064h6.624a.906.906,0,0,1,.66.2.906.906,0,0,1,.2.66V-.864a.906.906,0,0,1-.2.66A.906.906,0,0,1-28.284,0Zm9.12-12.96v3.072h1.8a.941.941,0,0,0,.84-.324,1.418,1.418,0,0,0,.216-.8v-.816a1.418,1.418,0,0,0-.216-.8.941.941,0,0,0-.84-.324ZM-20.028,0h-3.7a.906.906,0,0,1-.66-.2.906.906,0,0,1-.2-.66V-16.416a.906.906,0,0,1,.2-.66.906.906,0,0,1,.66-.2h7.992q2.688,0,3.708,1.116A4.12,4.12,0,0,1-11-13.272v1.1a4.393,4.393,0,0,1-.3,1.716,1.868,1.868,0,0,1-1.044,1.02,3.158,3.158,0,0,1,2.1,1.056,3.532,3.532,0,0,1,.8,2.424V-.864a.906.906,0,0,1-.2.66.906.906,0,0,1-.66.2h-3.72a.906.906,0,0,1-.66-.2.906.906,0,0,1-.2-.66V-4.536a1.229,1.229,0,0,0-.2-.78.865.865,0,0,0-.708-.252h-3.36v4.7a.906.906,0,0,1-.2.66A.906.906,0,0,1-20.028,0ZM-6.276,0a.906.906,0,0,1-.66-.2.906.906,0,0,1-.2-.66V-3.72a.906.906,0,0,1,.2-.66.906.906,0,0,1,.66-.2H-3.9v-8.064H-6.276a.906.906,0,0,1-.66-.2.906.906,0,0,1-.2-.66v-2.9a.906.906,0,0,1,.2-.66.906.906,0,0,1,.66-.2H3.948a.906.906,0,0,1,.66.2.906.906,0,0,1,.2.66v2.9a.906.906,0,0,1-.2.66.906.906,0,0,1-.66.2H1.62v8.064H3.948a.906.906,0,0,1,.66.2.906.906,0,0,1,.2.66V-.864a.906.906,0,0,1-.2.66.906.906,0,0,1-.66.2ZM12.2,0H8.628a.906.906,0,0,1-.66-.2.906.906,0,0,1-.2-.66V-16.416a.906.906,0,0,1,.2-.66.906.906,0,0,1,.66-.2h3.864a1.123,1.123,0,0,1,.636.168,1.573,1.573,0,0,1,.468.552l2.16,3.912a1.909,1.909,0,0,0,.2.312.287.287,0,0,0,.228.1H16.4a.287.287,0,0,0,.228-.1,1.909,1.909,0,0,0,.2-.312l2.136-3.912a1.573,1.573,0,0,1,.468-.552,1.123,1.123,0,0,1,.636-.168h3.888a.906.906,0,0,1,.66.2.906.906,0,0,1,.2.66V-.864a.906.906,0,0,1-.2.66.906.906,0,0,1-.66.2h-3.7a.906.906,0,0,1-.66-.2.906.906,0,0,1-.2-.66V-9.312L17.988-6.7a1.452,1.452,0,0,1-.516.588,1.449,1.449,0,0,1-.756.18h-.96A1.449,1.449,0,0,1,15-6.108a1.452,1.452,0,0,1-.516-.588L13.068-9.312V-.864a.906.906,0,0,1-.2.66A.906.906,0,0,1,12.2,0ZM40.14,0H29a.906.906,0,0,1-.66-.2.906.906,0,0,1-.2-.66V-16.416a.906.906,0,0,1,.2-.66.906.906,0,0,1,.66-.2H40.14a.906.906,0,0,1,.66.2.906.906,0,0,1,.2.66v2.808a.906.906,0,0,1-.2.66.906.906,0,0,1-.66.2H33.516V-10.9H38.2a.906.906,0,0,1,.66.2.906.906,0,0,1,.2.66v2.568a.906.906,0,0,1-.2.66.906.906,0,0,1-.66.2h-4.68v2.064H40.14a.906.906,0,0,1,.66.2.906.906,0,0,1,.2.66V-.864a.906.906,0,0,1-.2.66A.906.906,0,0,1,40.14,0ZM48.3,0H44.7a.906.906,0,0,1-.66-.2.906.906,0,0,1-.2-.66V-16.416a.906.906,0,0,1,.2-.66.906.906,0,0,1,.66-.2h2.5a1.913,1.913,0,0,1,.78.144,1.874,1.874,0,0,1,.636.5L53.268-11.3v-5.112a.906.906,0,0,1,.2-.66.906.906,0,0,1,.66-.2h3.6a.906.906,0,0,1,.66.2.906.906,0,0,1,.2.66V-.864a.906.906,0,0,1-.2.66.906.906,0,0,1-.66.2h-3.6a.906.906,0,0,1-.66-.2.906.906,0,0,1-.2-.66V-3.816l-4.1-4.968v7.92a.906.906,0,0,1-.2.66A.906.906,0,0,1,48.3,0ZM70.068,0H66.18a.906.906,0,0,1-.66-.2.906.906,0,0,1-.2-.66V-12.648H61.788a.906.906,0,0,1-.66-.2.906.906,0,0,1-.2-.66v-2.9a.906.906,0,0,1,.2-.66.906.906,0,0,1,.66-.2H74.46a.906.906,0,0,1,.66.2.906.906,0,0,1,.2.66v2.9a.906.906,0,0,1-.2.66.906.906,0,0,1-.66.2H70.932V-.864a.906.906,0,0,1-.2.66A.906.906,0,0,1,70.068,0ZM89.652,0H78.516a.906.906,0,0,1-.66-.2.906.906,0,0,1-.2-.66V-16.416a.906.906,0,0,1,.2-.66.906.906,0,0,1,.66-.2H89.652a.906.906,0,0,1,.66.2.906.906,0,0,1,.2.66v2.808a.906.906,0,0,1-.2.66.906.906,0,0,1-.66.2H83.028V-10.9h4.68a.906.906,0,0,1,.66.2.906.906,0,0,1,.2.66v2.568a.906.906,0,0,1-.2.66.906.906,0,0,1-.66.2h-4.68v2.064h6.624a.906.906,0,0,1,.66.2.906.906,0,0,1,.2.66V-.864a.906.906,0,0,1-.2.66A.906.906,0,0,1,89.652,0Zm-178.1,22.76-1.128,3.648h3.768L-86.94,22.76a.913.913,0,0,0-.2-.312.367.367,0,0,0-.252-.1H-88a.367.367,0,0,0-.252.1A.913.913,0,0,0-88.452,22.76ZM-89.82,34.136a.906.906,0,0,1-.2.66.906.906,0,0,1-.66.2h-3.528a.906.906,0,0,1-.66-.2.906.906,0,0,1-.2-.66V27.8a7.1,7.1,0,0,1,.228-1.656,18.262,18.262,0,0,1,.708-2.184l2.088-5.448a1.126,1.126,0,0,1,.444-.6,1.426,1.426,0,0,1,.78-.192h6.456a1.377,1.377,0,0,1,.756.192,1.126,1.126,0,0,1,.444.6l2.088,5.448a18.262,18.262,0,0,1,.708,2.184,7.1,7.1,0,0,1,.228,1.656v6.336a.906.906,0,0,1-.2.66.906.906,0,0,1-.66.2h-3.624a1.039,1.039,0,0,1-.708-.2.846.846,0,0,1-.228-.66v-3.36H-89.82ZM-64,35h-7.56a6.9,6.9,0,0,1-4.452-1.2,4.519,4.519,0,0,1-1.452-3.7V22.616a4.519,4.519,0,0,1,1.452-3.7,6.9,6.9,0,0,1,4.452-1.2h6a.906.906,0,0,1,.66.2.906.906,0,0,1,.2.66v2.9a.906.906,0,0,1-.2.66.906.906,0,0,1-.66.2h-4.992a1.7,1.7,0,0,0-1.1.3,1.1,1.1,0,0,0-.36.9v5.736a1.243,1.243,0,0,0,.276.888,1.1,1.1,0,0,0,.828.288h2.328V26.72a.906.906,0,0,1,.2-.66.906.906,0,0,1,.66-.2H-64a.906.906,0,0,1,.66.2.906.906,0,0,1,.2.66v7.416a.906.906,0,0,1-.2.66A.906.906,0,0,1-64,35Zm18.432-4.536a5.883,5.883,0,0,1-.324,2A3.35,3.35,0,0,1-47.04,34a6.168,6.168,0,0,1-2.28,1A15.677,15.677,0,0,1-53,35.36,15.834,15.834,0,0,1-56.7,35a6.173,6.173,0,0,1-2.292-1,3.35,3.35,0,0,1-1.152-1.536,5.883,5.883,0,0,1-.324-2V22.28a5.883,5.883,0,0,1,.324-2,3.423,3.423,0,0,1,1.152-1.548A6.046,6.046,0,0,1-56.7,17.72a15.834,15.834,0,0,1,3.7-.36,15.677,15.677,0,0,1,3.684.36,6.041,6.041,0,0,1,2.28,1.008,3.423,3.423,0,0,1,1.152,1.548,5.883,5.883,0,0,1,.324,2ZM-55.02,29.6a1.038,1.038,0,0,0,.36.8A2.747,2.747,0,0,0-53,30.728a2.747,2.747,0,0,0,1.656-.324,1.038,1.038,0,0,0,.36-.8V23.144a1.013,1.013,0,0,0-.36-.78A2.747,2.747,0,0,0-53,22.04a2.747,2.747,0,0,0-1.656.324,1.013,1.013,0,0,0-.36.78Zm17.928-7.56v3.072h1.8a.941.941,0,0,0,.84-.324,1.418,1.418,0,0,0,.216-.8v-.816a1.418,1.418,0,0,0-.216-.8.941.941,0,0,0-.84-.324ZM-37.956,35h-3.7a.906.906,0,0,1-.66-.2.906.906,0,0,1-.2-.66V18.584a.906.906,0,0,1,.2-.66.906.906,0,0,1,.66-.2h7.992q2.688,0,3.708,1.116a4.12,4.12,0,0,1,1.02,2.892v1.1a4.393,4.393,0,0,1-.3,1.716,1.868,1.868,0,0,1-1.044,1.02,3.158,3.158,0,0,1,2.1,1.056,3.532,3.532,0,0,1,.8,2.424v5.088a.906.906,0,0,1-.2.66.906.906,0,0,1-.66.2h-3.72a.906.906,0,0,1-.66-.2.906.906,0,0,1-.2-.66V30.464a1.229,1.229,0,0,0-.2-.78.865.865,0,0,0-.708-.252h-3.36v4.7a.906.906,0,0,1-.2.66A.906.906,0,0,1-37.956,35ZM-18.42,22.76l-1.128,3.648h3.768l-1.128-3.648a.913.913,0,0,0-.2-.312.367.367,0,0,0-.252-.1h-.6a.367.367,0,0,0-.252.1A.913.913,0,0,0-18.42,22.76Zm-1.368,11.376a.906.906,0,0,1-.2.66.906.906,0,0,1-.66.2H-24.18a.906.906,0,0,1-.66-.2.906.906,0,0,1-.2-.66V27.8a7.1,7.1,0,0,1,.228-1.656,18.262,18.262,0,0,1,.708-2.184l2.088-5.448a1.126,1.126,0,0,1,.444-.6,1.426,1.426,0,0,1,.78-.192h6.456a1.377,1.377,0,0,1,.756.192,1.126,1.126,0,0,1,.444.6l2.088,5.448a18.262,18.262,0,0,1,.708,2.184,7.1,7.1,0,0,1,.228,1.656v6.336a.906.906,0,0,1-.2.66.906.906,0,0,1-.66.2H-14.6a1.039,1.039,0,0,1-.708-.2.846.846,0,0,1-.228-.66v-3.36h-4.248ZM2.556,35H-1.02a.906.906,0,0,1-.66-.2.906.906,0,0,1-.2-.66V18.584a.906.906,0,0,1,.2-.66.906.906,0,0,1,.66-.2H2.844a1.123,1.123,0,0,1,.636.168,1.573,1.573,0,0,1,.468.552l2.16,3.912a1.909,1.909,0,0,0,.2.312.287.287,0,0,0,.228.1h.216a.287.287,0,0,0,.228-.1,1.909,1.909,0,0,0,.2-.312L9.324,18.44a1.573,1.573,0,0,1,.468-.552,1.123,1.123,0,0,1,.636-.168h3.888a.74.74,0,0,1,.864.864V34.136a.74.74,0,0,1-.864.864h-3.7a.906.906,0,0,1-.66-.2.906.906,0,0,1-.2-.66V25.688L8.34,28.3a1.452,1.452,0,0,1-.516.588,1.449,1.449,0,0,1-.756.18h-.96a1.449,1.449,0,0,1-.756-.18,1.452,1.452,0,0,1-.516-.588L3.42,25.688v8.448a.906.906,0,0,1-.2.66A.906.906,0,0,1,2.556,35Zm27.936,0H19.356a.74.74,0,0,1-.864-.864V18.584a.74.74,0,0,1,.864-.864H30.492a.74.74,0,0,1,.864.864v2.808a.74.74,0,0,1-.864.864H23.868V24.1h4.68a.74.74,0,0,1,.864.864v2.568a.74.74,0,0,1-.864.864h-4.68v2.064h6.624a.74.74,0,0,1,.864.864v2.808a.74.74,0,0,1-.864.864ZM42.2,35H34.62a.74.74,0,0,1-.864-.864V31.328a.74.74,0,0,1,.864-.864h6.456a.552.552,0,0,0,.468-.2.786.786,0,0,0,.156-.492.945.945,0,0,0-.156-.6.634.634,0,0,0-.468-.216l-3.6-.5a5.225,5.225,0,0,1-2.7-1.1,3.589,3.589,0,0,1-1.02-2.88v-2.52a3.834,3.834,0,0,1,1.32-3.132,5.559,5.559,0,0,1,3.648-1.092h6.72a.74.74,0,0,1,.864.864V21.44a.74.74,0,0,1-.864.864H39.852a.586.586,0,0,0-.48.2.785.785,0,0,0-.168.516.834.834,0,0,0,.168.528.638.638,0,0,0,.48.24l3.576.48a5.3,5.3,0,0,1,2.712,1.1,3.566,3.566,0,0,1,1.032,2.88v2.52a3.818,3.818,0,0,1-1.332,3.132A5.569,5.569,0,0,1,42.2,35Zm12.024,0H50.652a.74.74,0,0,1-.864-.864V18.584a.74.74,0,0,1,.864-.864h3.864a1.123,1.123,0,0,1,.636.168,1.573,1.573,0,0,1,.468.552l2.16,3.912a1.909,1.909,0,0,0,.2.312.287.287,0,0,0,.228.1h.216a.287.287,0,0,0,.228-.1,1.909,1.909,0,0,0,.2-.312L61,18.44a1.573,1.573,0,0,1,.468-.552,1.123,1.123,0,0,1,.636-.168h3.888a.74.74,0,0,1,.864.864V34.136a.74.74,0,0,1-.864.864h-3.7a.74.74,0,0,1-.864-.864V25.688L60.012,28.3a1.284,1.284,0,0,1-1.272.768h-.96a1.284,1.284,0,0,1-1.272-.768l-1.416-2.616v8.448a.74.74,0,0,1-.864.864ZM84.8,30.464a5.883,5.883,0,0,1-.324,2A3.35,3.35,0,0,1,83.328,34a6.168,6.168,0,0,1-2.28,1,15.677,15.677,0,0,1-3.684.36,15.834,15.834,0,0,1-3.7-.36,6.173,6.173,0,0,1-2.292-1,3.35,3.35,0,0,1-1.152-1.536,5.883,5.883,0,0,1-.324-2V22.28a5.883,5.883,0,0,1,.324-2,3.423,3.423,0,0,1,1.152-1.548,6.046,6.046,0,0,1,2.292-1.008,15.834,15.834,0,0,1,3.7-.36,15.677,15.677,0,0,1,3.684.36,6.041,6.041,0,0,1,2.28,1.008,3.423,3.423,0,0,1,1.152,1.548,5.883,5.883,0,0,1,.324,2ZM75.348,29.6a1.038,1.038,0,0,0,.36.8,4.394,4.394,0,0,0,3.312,0,1.038,1.038,0,0,0,.36-.8V23.144a1.013,1.013,0,0,0-.36-.78,4.394,4.394,0,0,0-3.312,0,1.013,1.013,0,0,0-.36.78Zm17.808-.888h-3.72a.906.906,0,0,1-.66-.2.982.982,0,0,1-.228-.66l-.36-9.264a.873.873,0,0,1,.168-.66.862.862,0,0,1,.648-.2h4.584a.862.862,0,0,1,.648.2.873.873,0,0,1,.168.66l-.336,9.264a.785.785,0,0,1-.912.864ZM93.516,35H89.1a.74.74,0,0,1-.864-.864V30.992a.74.74,0,0,1,.864-.864h4.416a.74.74,0,0,1,.864.864v3.144a.74.74,0,0,1-.864.864Z" transform="translate(500 511.14)" fill="#FFF"></path>   </g> </svg>