<svg xmlns="http://www.w3.org/2000/svg" width="112.058" height="100" viewBox="0 0 112.058 100"><path d="M757.721-924.067a29.379,29.379,0,0,1-6.395-13.287,20.418,20.418,0,0,0-5.463-10.564c-12.863-12.863-42.079-4.5-65.256,18.674s-31.538,52.393-18.674,65.256c6.114,6.114,15.924,7.431,27.023,4.642a29.785,29.785,0,0,1,19.323,1.758,42.3,42.3,0,0,0,16.573,3.626,42.556,42.556,0,0,0,43.081-41.189A42.31,42.31,0,0,0,757.721-924.067Z" transform="translate(-655.894 953.957)" fill="#fdfdff"/><g transform="translate(4.257 2.943)"><g transform="translate(0)"><g transform="translate(10.688 6.348)" opacity="0.1"><path d="M803.257-846.7l-37.812-26.893a2.189,2.189,0,0,0-2.537,0L725.1-846.7a2.188,2.188,0,0,0-.92,1.784v47.191a2.189,2.189,0,0,0,2.189,2.189h75.625a2.189,2.189,0,0,0,2.189-2.189v-47.191a2.189,2.189,0,0,0-.92-1.784Z" transform="translate(-724.175 882.204)" fill="#004798"/><path d="M1011.08-911.5h-14.2v15.858h21.105a1.38,1.38,0,0,0,1.38-1.38v-6.2A8.28,8.28,0,0,0,1011.08-911.5Z" transform="translate(-937.191 911.504)" fill="#004798"/></g><g transform="translate(9.593)"><path d="M801.989-819.532H726.364a2.189,2.189,0,0,1-2.189-2.189v-47.191a2.189,2.189,0,0,1,.92-1.784l37.812-26.893a2.188,2.188,0,0,1,2.537,0L803.257-870.7a2.189,2.189,0,0,1,.92,1.784v47.191a2.189,2.189,0,0,1-2.189,2.189Z" transform="translate(-723.08 907.299)" fill="#fff"/><path d="M804.176-868.911l-40,27.8-40-27.8a2.186,2.186,0,0,1,.921-1.784l37.811-26.894a2.19,2.19,0,0,1,2.539,0l37.811,26.894A2.186,2.186,0,0,1,804.176-868.911Z" transform="translate(-723.079 907.299)" fill="#8f00fc"/><g transform="translate(16.257 1.094)"><g transform="translate(44.522 0.001)"><path d="M1019.36-921.027v-6.2a8.281,8.281,0,0,0-8.281-8.281h-14.2v15.858h21.105A1.38,1.38,0,0,0,1019.36-921.027Z" transform="translate(-996.875 935.505)" fill="#fff"/></g><path d="M852.485-935.511a8.281,8.281,0,0,0-8.282,8.282v38.807l-25.911,18.01-24.839-17.264v-39.553a8.281,8.281,0,0,1,8.282-8.282Z" transform="translate(-793.453 935.511)" fill="#fff"/><path d="M868.763-854.789H825.988a1.094,1.094,0,0,1-1.094-1.094V-872.9a1.094,1.094,0,0,1,1.094-1.094h42.774v19.2Z" transform="translate(-818.013 887.458)" fill="#8f00fc"/></g><path d="M734.175-666.17l36.3-34.881a2.189,2.189,0,0,1,3.033,0l36.3,34.881Z" transform="translate(-730.892 753.937)" fill="#fff"/><path d="M794.585-940.5a1.078,1.078,0,0,0-.122-.012h-50.75a9.387,9.387,0,0,0-9.376,9.376V-914.6l-13.782,9.8a3.288,3.288,0,0,0-1.378,2.635c0,.012,0,.023,0,.034v47.2a3.287,3.287,0,0,0,3.283,3.283h75.625a3.286,3.286,0,0,0,3.283-3.283v-47.2c0-.011,0-.023,0-.034a3.287,3.287,0,0,0-1.378-2.635l-12.71-9.039v-17.3a7.2,7.2,0,0,1,7.005-7.183,7.194,7.194,0,0,1,7.063,7.184v6.2a.286.286,0,0,1-.286.286h-7.435a1.094,1.094,0,0,0-1.094,1.094,1.094,1.094,0,0,0,1.094,1.094h7.436a2.477,2.477,0,0,0,2.474-2.475v-6.2a9.386,9.386,0,0,0-8.947-9.364Zm-73.223,40.47,28.271,19.65-27.545,26.472a1.093,1.093,0,0,1-.725-1.026Zm3.812,46.191,34.336-33a1.092,1.092,0,0,1,1.517,0l34.336,33Zm73.276-.069-27.545-26.472,28.271-19.65v45.1a1.093,1.093,0,0,1-.725,1.026Zm.265-49.108a1.094,1.094,0,0,1,.343.4l-11.785,8.191v-16.731Zm-13.63-28.12V-892.9L769.3-881.925l-6.752-6.489a3.275,3.275,0,0,0-4.55,0l-6.752,6.489-29.763-20.688a1.093,1.093,0,0,1,.343-.4l12.514-8.9v12.892a1.094,1.094,0,0,0,1.094,1.094,1.094,1.094,0,0,0,1.094-1.094v-32.111a7.2,7.2,0,0,1,7.187-7.188h44.735a9.36,9.36,0,0,0-3.362,7.188Z" transform="translate(-719.174 940.51)" fill="#004798"/></g><g transform="translate(14.785 9.154)"><path d="M748.366-894.309a1.091,1.091,0,0,1-.774-.321l-1.415-1.415-1.415,1.415a1.094,1.094,0,0,1-1.548,0,1.094,1.094,0,0,1,0-1.547l2.189-2.189a1.094,1.094,0,0,1,1.548,0l2.189,2.189a1.094,1.094,0,0,1,0,1.547A1.091,1.091,0,0,1,748.366-894.309Z" transform="translate(-742.894 898.686)" fill="#8f00fc"/></g><g transform="translate(0 37.567)"><g transform="translate(96.979)"><path d="M1123.919-764.485a1.09,1.09,0,0,1-.774-.321l-1.415-1.415-1.415,1.415a1.094,1.094,0,0,1-1.547,0,1.094,1.094,0,0,1,0-1.547l2.189-2.189a1.094,1.094,0,0,1,1.547,0l2.189,2.189a1.094,1.094,0,0,1,0,1.547A1.091,1.091,0,0,1,1123.919-764.485Z" transform="translate(-1118.447 768.862)" fill="#8f00fc"/></g><g transform="translate(0 26.592)"><path d="M680.814-642.986a1.091,1.091,0,0,1-.774-.321l-1.415-1.415-1.415,1.415a1.094,1.094,0,0,1-1.548,0,1.094,1.094,0,0,1,0-1.547l2.189-2.189a1.094,1.094,0,0,1,1.548,0l2.189,2.189a1.094,1.094,0,0,1,0,1.547A1.091,1.091,0,0,1,680.814-642.986Z" transform="translate(-675.342 647.363)" fill="#8f00fc"/></g></g><g transform="translate(10.687 20.588)"><path d="M1095.708-816.6a1.09,1.09,0,0,1-.774-.321,1.094,1.094,0,0,1,0-1.547l2.189-2.189a1.094,1.094,0,0,1,1.547,0,1.094,1.094,0,0,1,0,1.547l-2.188,2.189A1.091,1.091,0,0,1,1095.708-816.6Z" transform="translate(-1013.538 826.551)" fill="#8f00fc"/><path d="M725.268-842.065a1.091,1.091,0,0,1-.774-.321,1.094,1.094,0,0,1,0-1.547l2.189-2.189a1.094,1.094,0,0,1,1.548,0,1.094,1.094,0,0,1,0,1.547l-2.189,2.189A1.091,1.091,0,0,1,725.268-842.065Z" transform="translate(-724.173 846.442)" fill="#8f00fc"/></g><g transform="translate(32.731 19.083)"><g transform="translate(14.511)"><g transform="translate(17.728 3.77)"><path d="M973.289-833.9h2.736A1.094,1.094,0,0,0,977.12-835a1.094,1.094,0,0,0-1.094-1.094h-2.736A1.094,1.094,0,0,0,972.2-835,1.094,1.094,0,0,0,973.289-833.9Z" transform="translate(-972.195 836.091)" fill="#004798"/></g><g transform="translate(0 3.77)"><path d="M892.288-833.9H905.53A1.094,1.094,0,0,0,906.624-835a1.094,1.094,0,0,0-1.094-1.094H892.288A1.094,1.094,0,0,0,891.194-835a1.094,1.094,0,0,0,1.094,1.094Z" transform="translate(-891.194 836.091)" fill="#004798"/></g><g transform="translate(11.162)"><path d="M943.289-851.129h9.3a1.094,1.094,0,0,0,1.094-1.094,1.094,1.094,0,0,0-1.094-1.094h-9.3a1.094,1.094,0,0,0-1.094,1.094A1.094,1.094,0,0,0,943.289-851.129Z" transform="translate(-942.195 853.318)" fill="#004798"/></g></g><g transform="translate(0 7.51)"><path d="M880.289-819h23.09a1.094,1.094,0,0,1,1.094,1.094,1.094,1.094,0,0,1-1.094,1.094h-23.09a1.094,1.094,0,0,1-1.094-1.094A1.094,1.094,0,0,1,880.289-819Z" transform="translate(-867.31 819.004)" fill="#004798"/><path d="M825.988-770.111h34.974a1.094,1.094,0,0,1,1.094,1.094,1.094,1.094,0,0,1-1.094,1.094H825.988a1.094,1.094,0,0,1-1.094-1.094,1.094,1.094,0,0,1,1.094-1.094Z" transform="translate(-824.894 780.812)" fill="#004798"/><path d="M825.988-751.257h34.974a1.094,1.094,0,0,1,1.094,1.094,1.094,1.094,0,0,1-1.094,1.094H825.988a1.094,1.094,0,0,1-1.094-1.094,1.094,1.094,0,0,1,1.094-1.094Z" transform="translate(-824.894 766.084)" fill="#004798"/><path d="M825.988-732.4h34.974a1.094,1.094,0,0,1,1.094,1.094,1.094,1.094,0,0,1-1.094,1.094H825.988a1.094,1.094,0,0,1-1.094-1.094,1.094,1.094,0,0,1,1.094-1.094Z" transform="translate(-824.894 751.358)" fill="#004798"/></g></g><g transform="translate(36.35 7.051)"><path d="M847.879-888.811h-4.161a1.094,1.094,0,0,1-1.094-1.094A1.1,1.1,0,0,1,843.717-891h4.161a1.244,1.244,0,0,0,1.242-1.242,1.244,1.244,0,0,0-1.242-1.242h-3.018a3.435,3.435,0,0,1-3.431-3.431,3.435,3.435,0,0,1,3.431-3.431h4.161a1.094,1.094,0,0,1,1.094,1.094,1.094,1.094,0,0,1-1.094,1.094h-4.161a1.244,1.244,0,0,0-1.242,1.242,1.244,1.244,0,0,0,1.242,1.242h3.018a3.435,3.435,0,0,1,3.431,3.431A3.435,3.435,0,0,1,847.879-888.811Z" transform="translate(-841.43 902.086)" fill="#004798"/><path d="M860.094-893.28A1.094,1.094,0,0,1,859-894.375V-907.2a1.094,1.094,0,0,1,1.094-1.094,1.094,1.094,0,0,1,1.094,1.094v12.826A1.094,1.094,0,0,1,860.094-893.28Z" transform="translate(-855.155 908.295)" fill="#004798"/></g></g><g transform="translate(31.102 76.984)"><path d="M822.375-570.444a1.094,1.094,0,0,1-1.094,1.094h-2.736a1.094,1.094,0,0,1-1.094-1.094,1.094,1.094,0,0,1,1.094-1.094h2.736a1.094,1.094,0,0,1,1.094,1.094" transform="translate(-817.451 575.308)" fill="#004798"/><path d="M821.281-586.576h-2.736a1.094,1.094,0,0,1-1.094-1.094,1.094,1.094,0,0,1,1.094-1.094h2.736a1.094,1.094,0,0,1,1.094,1.094A1.094,1.094,0,0,1,821.281-586.576Z" transform="translate(-817.451 588.765)" fill="#004798"/></g></g></svg>