<svg xmlns="http://www.w3.org/2000/svg" xmlns:xlink="http://www.w3.org/1999/xlink" width="204.555" height="192.155"  xmlns:v="https://vecta.io/nano"><defs><linearGradient id="A" x1=".737" y1="1.008" x2=".343" y2="-.411"><stop offset="0" stop-color="#0074ff"/><stop offset="1" stop-color="#2cc3ff"/></linearGradient><linearGradient id="B" x1="0" y1=".5" x2="1" y2=".5"  xlink:href="#A"/><linearGradient id="C" x1=".059" y1=".774" x2="1.109" y2=".184"><stop offset="0" stop-color="#4d84f7"/><stop offset="1" stop-color="#0074ff"/></linearGradient><linearGradient id="D" x1="0" y1=".5" x2="1" y2=".5"  xlink:href="#C"/><linearGradient id="E" y1=".5" x2="1" y2=".5"><stop offset="0" stop-color="#9f33dd"/><stop offset="1" stop-color="#4d84f7"/></linearGradient><linearGradient id="F" y1=".5" x2="1" y2=".5"><stop offset="0" stop-color="#ff00d3"/><stop offset="1" stop-color="#fcbff1"/></linearGradient><linearGradient id="G" y1=".5" x2="1" y2=".5"><stop offset="0" stop-color="#5813ba"/><stop offset="1" stop-color="#9f33dd"/></linearGradient><linearGradient id="H" x1=".5" y1="0" x2=".5" y2="1"  xlink:href="#G"/><linearGradient id="I" x1=".948" y1=".653" x2=".401" y2=".422"  xlink:href="#F"/><radialGradient id="J" cx=".5" cy=".5" r=".491" gradientTransform="translate(-0.019) scale(1.038 1)"><stop offset="0" stop-color="#0074ff"/><stop offset="1" stop-color="#004798"/></radialGradient></defs><path d="M139.778 47.577L66.664.266l98.31 14.735z" fill="url(#A)"/><path d="M141.234 48.52l24.848-32.619 37.134 91.986z" fill="url(#B)"/><path d="M141.118 192.154l-14.961-39.384 77.5-40.269z" fill="url(#C)"/><path d="M126.21 149.656l13.5-100.2 64.847 62.155z" fill="url(#D)"/><path d="M124.055 153.599l17.063 38.556-100.973-15.134z" fill="url(#E)"/><path d="M42.929 86.956L63.655 0l75.574 48.905z" fill="url(#F)"/><path d="M121.784 151.322L42.758 88.368l-3.71 88.49z" fill="url(#G)"/><path d="M0 80.677l37.25 92.916 3.772-85.465z" fill="url(#H)"/><path d="M41.259 86.421L61.22 2.641.155 80.42z" fill="url(#I)"/><path d="M123.64 149.543L42.778 87.88l96.09-38.041z" fill="url(#J)"/></svg>