<svg id="Outline" xmlns="http://www.w3.org/2000/svg" width="39.344" height="40" viewBox="0 0 39.344 40">
  <rect id="Retângulo_287" data-name="Retângulo 287" width="1" height="1" transform="translate(9.344 36)" fill="rgba(115,0,204,1) "/>
  <path id="Caminho_3172" data-name="Caminho 3172" d="M32.262,234.492H21.115v-9.836a.656.656,0,0,0-.656-.656H8.656a.656.656,0,0,0-.656.656v20.984a.656.656,0,0,0,.656.656H32.262a.656.656,0,0,0,.656-.656V235.148A.656.656,0,0,0,32.262,234.492ZM25.049,235.8h2.623v2.623H25.049Zm-11.8-10.492h2.623v2.623H13.246Zm-3.934,0h2.623v3.279a.656.656,0,0,0,.656.656h3.934a.656.656,0,0,0,.656-.656v-3.279H19.8v9.18H9.311ZM13.246,235.8h2.623v2.623H13.246Zm-3.934,0h2.623v3.279a.656.656,0,0,0,.656.656h3.934a.656.656,0,0,0,.656-.656V235.8H19.8v9.18H9.311Zm22.3,9.18H21.115V235.8h2.623v3.279a.656.656,0,0,0,.656.656h3.934a.656.656,0,0,0,.656-.656V235.8h2.623Z" transform="translate(-8 -206.295)" fill="rgba(115,0,204,1) "/>
  <rect id="Retângulo_288" data-name="Retângulo 288" width="1" height="1" transform="translate(21.344 36)" fill="rgba(115,0,204,1) "/>
  <rect id="Retângulo_289" data-name="Retângulo 289" width="1" height="1" transform="translate(9.344 26)" fill="rgba(115,0,204,1) "/>
  <path id="Caminho_3173" data-name="Caminho 3173" d="M46.534,16.506a.651.651,0,0,0,.154.018.658.658,0,0,0,.568-.327.675.675,0,0,0,.088-.344V13.246a.656.656,0,0,0-.5-.637L27.825,8.018a.653.653,0,0,0-.308,0L8.5,12.608a.656.656,0,0,0-.5.637v2.6a.682.682,0,0,0,.113.387.657.657,0,0,0,.7.269l1.158-.279v8.167h1.311V15.91l16.393-3.957L44.065,15.91V46.688H40.13V21.115a.656.656,0,0,0-.656-.656H15.868a.656.656,0,0,0-.656.656v2.623a.656.656,0,0,0,.656.656H38.819V25.7H22.425v1.311H38.819v1.311H22.425v1.311H38.819v1.311H22.425v1.311H38.819V46.688h-4.59V48H47.343V46.688H45.376V16.227Zm-30.01,6.576V21.77h22.3v1.311ZM27.671,10.623a.651.651,0,0,0-.154.018L9.31,15.036V13.762L27.671,9.33l18.361,4.432v1.274L27.825,10.641A.651.651,0,0,0,27.671,10.623Z" transform="translate(-7.999 -8)" fill="rgba(115,0,204,1) "/>
  <path id="Caminho_3174" data-name="Caminho 3174" d="M212.59,91.934a1.967,1.967,0,0,0,0-3.934h-2.623a1.967,1.967,0,0,0,0,3.934Zm-3.279-1.967a.656.656,0,0,1,.656-.656h2.623a.656.656,0,1,1,0,1.311h-2.623A.656.656,0,0,1,209.311,89.967Z" transform="translate(-191.606 -81.443)" fill="rgba(115,0,204,1) "/>
</svg>
