<svg xmlns="http://www.w3.org/2000/svg" width="34.676" height="40" viewBox="0 0 34.676 40">
  <path id="invoice" d="M49.121,26.834a8.75,8.75,0,1,0,13.333-7.45V8.417a.665.665,0,0,0-.266-.532C53.906-.4,54.442.07,54.158.014c-.1-.02.947-.013-19.547-.013a2.67,2.67,0,0,0-2.667,2.667V37.333A2.67,2.67,0,0,0,34.612,40H59.778a2.67,2.67,0,0,0,2.667-2.667.667.667,0,0,0-1.333,0,1.335,1.335,0,0,1-1.333,1.333H34.612a1.335,1.335,0,0,1-1.333-1.333V2.668a1.335,1.335,0,0,1,1.333-1.333h18.75V6.418a2.67,2.67,0,0,0,2.667,2.667h5.093V18.71a8.706,8.706,0,0,0-3.5-.622V13.334a2,2,0,0,0-2-2H38.788a2,2,0,0,0-2,2v8.5a2,2,0,0,0,2,2h8.75a.667.667,0,0,0,0-1.333h-3v-4.25h6a.667.667,0,0,0,.667-.667V12.667h4.417a.667.667,0,0,1,.667.667v4.894A8.764,8.764,0,0,0,49.121,26.834ZM56.028,7.751a1.335,1.335,0,0,1-1.333-1.333V2.277l5.474,5.474h-4.14ZM38.788,12.667H43.2v4.25H38.122V13.334A.667.667,0,0,1,38.788,12.667ZM43.2,22.5H38.788a.667.667,0,0,1-.667-.667V18.251H43.2Zm6.666-5.583H44.538v-4.25h5.333Zm15.416,9.916a7.416,7.416,0,1,1-7.416-7.416A7.425,7.425,0,0,1,65.288,26.834ZM58.538,28.5v-.27a.664.664,0,0,0-.468-.636l-.8-.248a1.991,1.991,0,0,1-1.4-1.909v-.27A2,2,0,0,1,57.2,23.282V23a.667.667,0,0,1,1.333,0v.281a2,2,0,0,1,1.333,1.885.667.667,0,1,1-1.333,0,.667.667,0,0,0-1.333,0v.27a.664.664,0,0,0,.468.636l.8.248a1.991,1.991,0,0,1,1.4,1.909v.27a2,2,0,0,1-1.583,1.956v.211a.667.667,0,1,1-1.333,0v-.39A2,2,0,0,1,55.871,28.5a.667.667,0,1,1,1.333,0,.667.667,0,0,0,1.333,0Zm-21.749-1a.667.667,0,0,1,.667-.667h6.5a.667.667,0,1,1,0,1.333h-6.5A.667.667,0,0,1,36.788,27.5Zm0,5a.667.667,0,0,1,.667-.667h8.166a.667.667,0,0,1,0,1.333H37.455A.667.667,0,0,1,36.788,32.5Z" transform="translate(-31.945)" fill="rgba(115,0,204,1) "/>
</svg>
