<svg xmlns="http://www.w3.org/2000/svg" width="39.994" height="40" viewBox="0 0 39.994 40">
  <g id="Analysis-report-document-develop-infromation" transform="translate(-2.009 -2)">
    <path id="Caminho_3197" data-name="Caminho 3197" d="M41.81,9.527,34.476,2.193A.689.689,0,0,0,34,2H17.336a2.006,2.006,0,0,0-2,2V8.033a13.982,13.982,0,0,0,0,27.933V40a2.006,2.006,0,0,0,2,2H40a2.006,2.006,0,0,0,2-2V10A.689.689,0,0,0,41.81,9.527ZM34.67,4.273l5.06,5.06H35.336a.667.667,0,0,1-.667-.667ZM3.336,22a12.682,12.682,0,0,1,12-12.647V21.727L6.6,30.46A12.586,12.586,0,0,1,3.336,22Zm4.207,9.4,8.733-8.733H28.65A12.642,12.642,0,0,1,7.543,31.4ZM40.67,40a.667.667,0,0,1-.667.667H17.336A.667.667,0,0,1,16.67,40V35.967A14.009,14.009,0,0,0,30,22a.667.667,0,0,0-.667-.667H16.67V4a.667.667,0,0,1,.667-.667h16V8.667a2.006,2.006,0,0,0,2,2H40.67Z" fill="#7300cc"/>
    <path id="Caminho_3198" data-name="Caminho 3198" d="M26.667,7A.667.667,0,0,0,26,7.667V21a.667.667,0,0,0,.667.667H40A.667.667,0,0,0,40.667,21a14.015,14.015,0,0,0-14-14Zm.667,13.333V8.353a12.678,12.678,0,0,1,11.98,11.98Z" transform="translate(-7.997 -1.667)" fill="#7300cc"/>
    <path id="Caminho_3199" data-name="Caminho 3199" d="M46,40a6,6,0,1,0,6,6,6,6,0,0,0-6-6Zm0,10.667A4.667,4.667,0,1,1,50.667,46,4.667,4.667,0,0,1,46,50.667Z" transform="translate(-12.664 -12.667)" fill="#7300cc"/>
    <path id="Caminho_3200" data-name="Caminho 3200" d="M45.764,48.822l-1.529-1.529-.943.943,2,2a.667.667,0,0,0,.943,0l4-4-.943-.943Z" transform="translate(-13.761 -14.431)" fill="#7300cc"/>
    <path id="Caminho_3201" data-name="Caminho 3201" d="M50,19h5.333v1.333H50Z" transform="translate(-15.997 -5.667)" fill="#7300cc"/>
    <path id="Caminho_3202" data-name="Caminho 3202" d="M50,25h5.333v1.333H50Z" transform="translate(-15.997 -7.667)" fill="#7300cc"/>
    <path id="Caminho_3203" data-name="Caminho 3203" d="M50,31h5.333v1.333H50Z" transform="translate(-15.997 -9.667)" fill="#7300cc"/>
  </g>
</svg>
