<svg xmlns="http://www.w3.org/2000/svg" width="40.011" height="40.013" viewBox="0 0 40.011 40.013">
  <g id="customer-support" transform="translate(-0.274)">
    <path id="Caminho_3192" data-name="Caminho 3192" d="M.4,3.741,3.066,8.407a.666.666,0,0,0,.417.316l2.488.622L14.5,17.877l.943-.942L6.779,8.269a.665.665,0,0,0-.309-.175l-2.39-.6L1.809,3.519,3.756,1.573,7.732,3.845l.6,2.39a.665.665,0,0,0,.175.31l8.666,8.666.942-.943L9.584,5.736,8.962,3.25a.668.668,0,0,0-.316-.417L3.98.166a.667.667,0,0,0-.8.107L.514,2.94a.667.667,0,0,0-.114.8Zm0,0" transform="translate(-0.038 -0.074)" fill="#7300cc"/>
    <path id="Caminho_3193" data-name="Caminho 3193" d="M189.589,174.662l-14.665,14.665-.943-.943,14.665-14.665Zm0,0" transform="translate(-161.514 -161.525)" fill="#7300cc"/>
    <path id="Caminho_3194" data-name="Caminho 3194" d="M54.99,399.159a.666.666,0,0,0-.571-.323h-4a.666.666,0,0,0-.571.323l-2,3.333a.667.667,0,0,0,0,.687l2,3.333a.667.667,0,0,0,.571.323h4a.667.667,0,0,0,.571-.323l2-3.333a.667.667,0,0,0,0-.687Zm-.949,6.342H50.8l-1.6-2.666,1.6-2.666h3.245l1.6,2.666Zm0,0" transform="translate(-44.147 -370.838)" fill="#7300cc"/>
    <path id="Caminho_3195" data-name="Caminho 3195" d="M32.269,16a7.971,7.971,0,0,0,7.754-9.932.666.666,0,0,0-1.118-.311L34.756,9.9l-3.292-1.1-1.1-3.291,4.149-4.15A.667.667,0,0,0,34.2.246,7.974,7.974,0,0,0,24.27,8a7.824,7.824,0,0,0,.162,1.562l-14.6,14.6A7.864,7.864,0,0,0,8.273,24a8,8,0,1,0,8,8,7.844,7.844,0,0,0-.162-1.562L19.6,26.94l1.528,1.528a.667.667,0,0,0,.943,0l.333-.333a.748.748,0,0,1,1.058,1.056h0l-.333.333a.666.666,0,0,0,0,.942l7.952,7.952a5.38,5.38,0,1,0,7.643-7.574l-.034-.035L30.741,22.86a.666.666,0,0,0-.942,0l-.333.333a.748.748,0,0,1-1.059-1.056h0l.333-.333a.666.666,0,0,0,0-.942l-1.528-1.528,3.495-3.495A7.843,7.843,0,0,0,32.269,16Zm2.619,22.664A4.051,4.051,0,0,1,33.47,38.4L38.676,33.2a4.042,4.042,0,0,1-3.788,5.465ZM27.337,21.338a2.08,2.08,0,0,0,2.933,2.929l7.481,7.487c.081.081.157.167.231.254l-5.7,5.7c-.087-.073-.173-.149-.255-.231L24.54,29.99a2.08,2.08,0,0,0-2.933-2.929l-1.066-1.066,5.729-5.721Zm2.692-6.7L14.907,29.752a.668.668,0,0,0-.176.633,6.71,6.71,0,1,1-4.847-4.848.672.672,0,0,0,.633-.176L25.635,10.244a.666.666,0,0,0,.175-.633,6.633,6.633,0,0,1,6.838-8.266L29.132,4.863a.666.666,0,0,0-.161.682l1.333,4a.667.667,0,0,0,.422.421l4,1.333a.667.667,0,0,0,.682-.161l3.516-3.516c.008.127.012.253.012.378a6.631,6.631,0,0,1-8.277,6.458.667.667,0,0,0-.633.175h0Zm0,0" transform="translate(0 0)" fill="#7300cc"/>
    <path id="Caminho_3196" data-name="Caminho 3196" d="M390.5,389.29l-.943.943-6.666-6.666.942-.943Zm0,0" transform="translate(-355.758 -355.765)" fill="#7300cc"/>
  </g>
</svg>
