<svg xmlns="http://www.w3.org/2000/svg" width="35.807" height="40" viewBox="0 0 35.807 40">
  <g id="money" transform="translate(-26.832)">
    <path id="Caminho_3175" data-name="Caminho 3175" d="M210.406,223.51h.006a.775.775,0,0,1,.768.781l1.172.01A1.95,1.95,0,0,0,211,222.432v-1.266h-1.172v1.258a1.947,1.947,0,0,0,.559,3.807.775.775,0,0,1-.006,1.55h-.007a.775.775,0,0,1-.768-.781l-1.172-.01a1.948,1.948,0,0,0,1.394,1.883v1.251H211v-1.273a1.947,1.947,0,0,0-.6-3.793.775.775,0,0,1,.006-1.55Z" transform="translate(-167.417 -203.887)" fill="#7300cc"/>
    <path id="Caminho_3176" data-name="Caminho 3176" d="M177.062,271h1.172v1.172h-1.172Z" transform="translate(-138.493 -249.828)" fill="#7300cc"/>
    <path id="Caminho_3177" data-name="Caminho 3177" d="M274.937,271h1.172v1.172h-1.172Z" transform="translate(-228.722 -249.828)" fill="#7300cc"/>
    <path id="Caminho_3178" data-name="Caminho 3178" d="M62.64,108.5h-27.6v1.172H61.468v17.188H59.124V112.016H31.52v-2.344h2.344V108.5H30.348v3.516H26.832v19.531h27.6v-1.172H28V113.188H57.952v17.188H55.608v1.172h3.516v-3.516H62.64Z" transform="translate(0 -100.023)" fill="#7300cc"/>
    <path id="Caminho_3179" data-name="Caminho 3179" d="M84.436,186.187,81.749,183.5H59.519l-2.687,2.687v9.47l2.687,2.687h22.23l2.687-2.687ZM60,197.172l-2-2v-8.5l2-2h21.26l2,2v8.5l-2,2Z" transform="translate(-27.656 -169.164)" fill="#7300cc"/>
    <path id="Caminho_3180" data-name="Caminho 3180" d="M290.094,36.392l.428-1.091a10.971,10.971,0,0,0-1.124-.372l-.307,1.131A9.813,9.813,0,0,1,290.094,36.392Z" transform="translate(-241.769 -32.2)" fill="#7300cc"/>
    <path id="Caminho_3181" data-name="Caminho 3181" d="M165.535,30.92a10.959,10.959,0,0,0-2.882,1.844l.778.877a9.794,9.794,0,0,1,6.515-2.47,9.919,9.919,0,0,1,1.5.115l.178-1.158A11.093,11.093,0,0,0,169.946,30,10.935,10.935,0,0,0,165.535,30.92Z" transform="translate(-125.21 -27.656)" fill="#7300cc"/>
    <path id="Caminho_3182" data-name="Caminho 3182" d="M151.336,1.172a12.081,12.081,0,0,1,8.824,3.789h-2.242V6.133h4.1v-4.1h-1.172V3.984a13.343,13.343,0,0,0-18.381-.608l.779.875A12.15,12.15,0,0,1,151.336,1.172Z" transform="translate(-106.6 0)" fill="#7300cc"/>
    <path id="Caminho_3183" data-name="Caminho 3183" d="M122.49,54.965l-.856-.8c-.286.305-.56.627-.815.957l.927.717C121.98,55.537,122.23,55.243,122.49,54.965Z" transform="translate(-86.645 -49.932)" fill="#7300cc"/>
    <path id="Caminho_3184" data-name="Caminho 3184" d="M240.566,438.111a10.961,10.961,0,0,0,2.882-1.844l-.778-.877a9.794,9.794,0,0,1-6.515,2.47,9.911,9.911,0,0,1-1.5-.115l-.178,1.158a11.107,11.107,0,0,0,1.682.128A10.935,10.935,0,0,0,240.566,438.111Z" transform="translate(-191.42 -401.375)" fill="#7300cc"/>
    <path id="Caminho_3185" data-name="Caminho 3185" d="M205.014,458.346l-.428,1.091a10.962,10.962,0,0,0,1.124.372l.307-1.131A9.833,9.833,0,0,1,205.014,458.346Z" transform="translate(-163.867 -422.538)" fill="#7300cc"/>
    <path id="Caminho_3186" data-name="Caminho 3186" d="M129.936,438.461a12.081,12.081,0,0,1-8.824-3.789h2.242V433.5h-4.1v4.1h1.172v-1.953a13.342,13.342,0,0,0,18.381.608l-.779-.875A12.15,12.15,0,0,1,129.936,438.461Z" transform="translate(-85.201 -399.633)" fill="#7300cc"/>
    <path id="Caminho_3187" data-name="Caminho 3187" d="M369.8,437.285l.856.8c.286-.305.56-.627.815-.957l-.927-.717C370.312,436.713,370.062,437.007,369.8,437.285Z" transform="translate(-316.175 -402.317)" fill="#7300cc"/>
  </g>
</svg>
