<svg id="car-parts_3_" data-name="car-parts (3)" xmlns="http://www.w3.org/2000/svg" width="50" height="50" viewBox="0 0 50 50">
  <g id="Grupo_9195" data-name="Grupo 9195">
    <g id="Grupo_9194" data-name="Grupo 9194">
      <path id="Caminho_42882" data-name="Caminho 42882" d="M47.581,0H17.291A2.418,2.418,0,0,0,15,1.654l-.254.765H12.1A2.422,2.422,0,0,0,9.677,4.839V5.883a5.634,5.634,0,0,0-2.112,9.638,8.909,8.909,0,0,0-3.4,5.652A5.641,5.641,0,0,0,5.645,32.258V37.1H9.278a12.738,12.738,0,0,0,1.382,3.325L8.089,42.994l4.562,4.562,2.573-2.572a12.738,12.738,0,0,0,3.325,1.382V50H25V46.367a12.738,12.738,0,0,0,3.325-1.382L30.9,47.556l4.562-4.562-2.572-2.573A12.738,12.738,0,0,0,34.27,37.1H37.9V30.645H34.27a12.738,12.738,0,0,0-1.382-3.325L35.207,25h9.954V12.9h2.419A2.422,2.422,0,0,0,50,10.484V2.419A2.422,2.422,0,0,0,47.581,0ZM36.29,1.613a2.419,2.419,0,1,1-2.419,2.419A2.422,2.422,0,0,1,36.29,1.613Zm-5.645,0h2.44a3.991,3.991,0,0,0-.827,2.419A4.037,4.037,0,0,0,36.29,8.065a3.991,3.991,0,0,0,2.419-.827V12.9H30.645Zm-6.6,0a2.405,2.405,0,0,1-4.542,0ZM7.258,11.29a4.04,4.04,0,1,1,1.8,3.352L9.032,14.6l-.023.013A4.031,4.031,0,0,1,7.258,11.29Zm1.763,5.165a5.7,5.7,0,0,0,.656.243v5.973a5.657,5.657,0,0,0-3.851-1.69A7.313,7.313,0,0,1,9.021,16.456ZM5.645,30.645a4.032,4.032,0,1,1,3.121-6.576l-.678.678L10.66,27.32a12.738,12.738,0,0,0-1.382,3.325H5.645Zm27.419-5.783L30.827,27.1l.364.549a11.162,11.162,0,0,1,1.647,3.964l.131.646H36.29v3.226H32.969l-.131.646a11.162,11.162,0,0,1-1.647,3.964l-.364.549L33.18,43,30.9,45.277l-2.352-2.352L28,43.288a11.162,11.162,0,0,1-3.964,1.647l-.646.131v3.321H20.161V45.066l-.646-.131a11.162,11.162,0,0,1-3.964-1.647L15,42.924,12.65,45.277,10.369,43l2.352-2.352-.364-.549A11.162,11.162,0,0,1,10.71,36.13l-.131-.646H7.258V32.258h3.321l.131-.646a11.162,11.162,0,0,1,1.647-3.964l.364-.549-2.352-2.352,2.281-2.281L15,24.818l.549-.364a11.162,11.162,0,0,1,3.964-1.647l.646-.131V19.355h3.226v3.321l.646.131A11.162,11.162,0,0,1,28,24.454l.549.364L30.9,22.465l2.166,2.167Zm10.484-1.475H34.1l-3.2-3.2-2.573,2.572A12.738,12.738,0,0,0,25,21.374V17.742H18.548v3.633a12.738,12.738,0,0,0-3.325,1.382l-2.573-2.572-1.36,1.36v-4.61a5.645,5.645,0,0,0,0-11.29V4.839a.807.807,0,0,1,.806-.806H15.9l.622-1.868a.806.806,0,0,1,.765-.552h.532a4.032,4.032,0,0,0,7.9,0h3.307V10.5a3.991,3.991,0,0,0-2.419-.827,4.032,4.032,0,1,0,3.951,4.839H43.548ZM29.032,13.71a2.419,2.419,0,1,1-2.419-2.419A2.422,2.422,0,0,1,29.032,13.71Zm19.355-3.226a.807.807,0,0,1-.806.806H45.161V9.677H43.548V12.9H40.323V4.032A3.991,3.991,0,0,0,39.5,1.613h4.053V8.065h1.613V1.613h2.419a.807.807,0,0,1,.806.806Z" fill="#7300cc"/>
      <path id="Caminho_42883" data-name="Caminho 42883" d="M34.419,240a2.419,2.419,0,1,0,2.419,2.419A2.422,2.422,0,0,0,34.419,240Zm0,3.226a.806.806,0,1,1,.806-.806A.807.807,0,0,1,34.419,243.226Z" transform="translate(-28.774 -215.806)" fill="#7300cc"/>
      <path id="Caminho_42884" data-name="Caminho 42884" d="M90.419,92.839A2.419,2.419,0,1,0,88,90.419,2.422,2.422,0,0,0,90.419,92.839Zm0-3.226a.806.806,0,1,1-.806.806A.807.807,0,0,1,90.419,89.613Z" transform="translate(-79.129 -79.129)" fill="#7300cc"/>
      <path id="Caminho_42885" data-name="Caminho 42885" d="M144.065,256a8.065,8.065,0,1,0,4.307,14.883l-.863-1.362a6.458,6.458,0,1,1,1.134-.91l1.145,1.135A8.064,8.064,0,0,0,144.065,256Z" transform="translate(-122.29 -230.194)" fill="#7300cc"/>
      <path id="Caminho_42886" data-name="Caminho 42886" d="M172.839,288a4.839,4.839,0,1,0,4.839,4.839A4.844,4.844,0,0,0,172.839,288Zm0,8.064a3.226,3.226,0,1,1,3.226-3.226A3.229,3.229,0,0,1,172.839,296.064Z" transform="translate(-151.065 -258.968)" fill="#7300cc"/>
    </g>
  </g>
</svg>
