<svg xmlns="http://www.w3.org/2000/svg" width="43.333" height="50" viewBox="0 0 43.333 50">
  <path id="fashion_2_" data-name="fashion (2)" d="M89.666,28.476V25.163a.833.833,0,0,0-.833-.833H85.752l-3.373-2.249a3.333,3.333,0,1,0-5.213-2.751.833.833,0,0,0,1.667,0A1.667,1.667,0,1,1,80.5,21h0a.832.832,0,0,0-.462.14l-4.79,3.193H72.166l-.03,0-.072,0H68.252l-3.373-2.249a3.333,3.333,0,1,0-5.212-2.751.833.833,0,1,0,1.667,0A1.667,1.667,0,1,1,63,21h0a.833.833,0,0,0-.462.14l-4.79,3.193H53.936a4.16,4.16,0,0,0-4.042,3.156.79.79,0,0,0-.016.079L48.01,40.039a.834.834,0,0,0-.01.123V56.829a.833.833,0,0,0,.833.833h5a.833.833,0,0,0,.833-.833V56h5a.833.833,0,0,0,.833-.833v-.833h5v.833a.833.833,0,0,0,.833.833h3.749l-.415,9.129A.833.833,0,0,0,70.5,66h20a.833.833,0,0,0,.832-.871Zm-1.52,3.262A2.233,2.233,0,0,1,86.7,30.306a4.948,4.948,0,0,1-.28-.976h1.612ZM88,27.663H76.137l-.015-.1a.8.8,0,0,0-.016-.079A4.163,4.163,0,0,0,75.4,26H88Zm-7.5-4.832,2.248,1.5h-4.5ZM70.362,26,69.976,28.5a1.541,1.541,0,0,1-2.758.685A5.82,5.82,0,0,0,68.774,26ZM58.917,26h8.166a4.167,4.167,0,0,1-8.166,0ZM63,22.831l2.248,1.5h-4.5ZM57.226,26a5.82,5.82,0,0,0,1.556,3.191,1.541,1.541,0,0,1-2.758-.685L55.638,26Zm1.607,28.333H54.667V38.5A.833.833,0,0,0,53,38.5V56H49.667V40.225L51.52,27.854A2.5,2.5,0,0,1,53.936,26h.016l.425,2.76a3.155,3.155,0,0,0,2.672,2.68,3.212,3.212,0,0,0,1.785-.219ZM60.5,52.663V30.432a5.818,5.818,0,0,0,5,0V52.663Zm6.667-21.446a3.213,3.213,0,0,0,1.785.219,3.155,3.155,0,0,0,2.672-2.679L72.048,26h.016a2.5,2.5,0,0,1,2.416,1.858l1.853,12.371V56H73V38.5a.833.833,0,0,0-1.667,0V54.329H67.166Zm12.5,33.112H71.372l.31-6.823a.828.828,0,0,0,.484.156h5A.833.833,0,0,0,78,56.829V40.163a.834.834,0,0,0-.009-.124l-1.6-10.71h3.28Zm1.667,0v-35h3.4a6.883,6.883,0,0,0,.406,1.559,3.835,3.835,0,0,0,3.082,2.565l1.4,30.875Z" transform="translate(-48 -15.996)" fill="#7300cc"/>
</svg>
