<svg xmlns="http://www.w3.org/2000/svg" width="50.168" height="50" viewBox="0 0 50.168 50">
  <g id="Grupo_9196" data-name="Grupo 9196" transform="translate(-399.899 -2489)">
    <path id="Caminho_42864" data-name="Caminho 42864" d="M56.349,42.431a9.446,9.446,0,0,1-8.4,1.2.836.836,0,0,0-.765.106l-3.762,2.667.968,1.363L47.8,45.347a11.173,11.173,0,0,0,9.483-1.532,11.861,11.861,0,0,0,1.4-1.105l-1.133-1.229a10.074,10.074,0,0,1-1.2.95Z" transform="translate(391.121 2480.521)" fill="#7300cc"/>
    <path id="Caminho_42865" data-name="Caminho 42865" d="M41.131,27.416a7.6,7.6,0,0,0-3.461,7.249l-10.6,6.792-10.6-6.788a7.567,7.567,0,0,0-3.465-7.247,7.992,7.992,0,0,0-5.45-1.359,6.186,6.186,0,0,0-5.331,7.9,7.986,7.986,0,0,0,3.3,4.541,7.565,7.565,0,0,0,8.025.5l8.226,5.84-7.828,5.02A3.28,3.28,0,1,0,17.617,55.3l9.456-6.706,9.456,6.711A3.285,3.285,0,1,0,40.2,49.86l-7.837-5.015L40.591,39a7.565,7.565,0,0,0,8.025-.494c3.436-2.319,4.557-6.694,2.5-9.753s-6.54-3.658-9.983-1.339ZM16.649,53.94a1.65,1.65,0,0,1-2.267-.414,1.606,1.606,0,0,1,.469-2.257l8.4-5.387,2.373,1.683ZM40,52.3a1.613,1.613,0,0,1-2.513,1.643L14.054,37.308a.836.836,0,0,0-.976.007,5.793,5.793,0,0,1-6.612-.195,6.321,6.321,0,0,1-2.621-3.586,4.514,4.514,0,0,1,3.929-5.817A6.322,6.322,0,0,1,12.08,28.8a5.793,5.793,0,0,1,2.653,6.058.836.836,0,0,0,.359.909l24.2,15.5A1.6,1.6,0,0,1,40,52.3Zm7.674-15.182a5.794,5.794,0,0,1-6.613.193.836.836,0,0,0-.976-.007l-9.247,6.565-2.217-1.421,10.427-6.687a.836.836,0,0,0,.359-.907A5.822,5.822,0,0,1,42.067,28.8c2.675-1.8,6.114-1.405,7.659.884s.625,5.634-2.049,7.437Z" transform="translate(397.922 2483.061)" fill="#7300cc"/>
    <path id="Caminho_42866" data-name="Caminho 42866" d="M11.79,3.56l-.925-1.393A10.867,10.867,0,0,0,6.621,14.845L8.2,14.287A9.2,9.2,0,0,1,11.791,3.56Z" transform="translate(397.262 2486.973)" fill="#7300cc"/>
    <path id="Caminho_42867" data-name="Caminho 42867" d="M10.257,19.978A9.3,9.3,0,0,1,9.192,18.5l-1.447.836A10.962,10.962,0,0,0,9,21.083Z" transform="translate(396.975 2484.292)" fill="#7300cc"/>
    <path id="Caminho_42868" data-name="Caminho 42868" d="M37.568,30.588l2.38-11.9a7.523,7.523,0,0,0-.691-15.018A7.429,7.429,0,0,0,34.6,5.289a7.511,7.511,0,0,0-12.425,0,7.429,7.429,0,0,0-4.654-1.617,7.523,7.523,0,0,0-.691,15.014l2.38,11.9,1.638-.328-.468-2.347H36.4l-.468,2.34Zm-4.035-4.347.7-4.9-1.655-.237-.733,5.134H29.225V17.046H27.554v9.195H24.935L24.2,21.107l-1.655.237.7,4.9h-3.2l-1.705-8.526a.836.836,0,0,0-.819-.669,5.851,5.851,0,1,1,4.249-9.864.836.836,0,0,0,1.359-.209,5.84,5.84,0,0,1,10.517,0,.836.836,0,0,0,1.359.209,5.848,5.848,0,1,1,4.249,9.864.836.836,0,0,0-.819.669l-1.705,8.526Z" transform="translate(396.605 2487)" fill="#7300cc"/>
  </g>
</svg>
