<svg xmlns="http://www.w3.org/2000/svg" width="48.68" height="50" viewBox="0 0 48.68 50">
  <g id="Grupo_9197" data-name="Grupo 9197" transform="translate(-703 -2489)">
    <path id="Caminho_42869" data-name="Caminho 42869" d="M48.379,42.742l-5.1-8.5.457-3.9h.649a2.089,2.089,0,0,0,2.087-2.087V25.862a2.089,2.089,0,0,0-2.087-2.087H41.522V21.038c0-.007,0-.015,0-.023a.729.729,0,0,0-.159-.455h0L38.834,17.38v-2.67a1.6,1.6,0,0,0-1.6-1.6H34.293c-.019-.038-.038-.074-.057-.11a9.078,9.078,0,0,0-2.972-2.6,1.164,1.164,0,0,1-.533-.983V7.483a.952.952,0,0,0,.53-.853V2.555A2.558,2.558,0,0,0,28.706,0H25.924a2.558,2.558,0,0,0-2.555,2.555V6.63a.952.952,0,0,0,.53.853V9.424a1.165,1.165,0,0,1-.533.983c-.266.172-.564.371-.867.587,0-.057,0-.114,0-.171a3.906,3.906,0,1,0-7.724.823c.088.416.17.8.246,1.163a2.8,2.8,0,0,0-3.107,4.4,2.761,2.761,0,0,0,.422.419l2.18,1.757a6.153,6.153,0,0,0-2.086,4.393h-3.5l-.153-.287.068-.036c2.342-1.246,4.3-3.292,3.5-4.792s-3.586-1.024-5.928.222l-.068.037L5.37,17.068l.069-.036a9.736,9.736,0,0,0,2.836-2.185c1.091-1.3.882-2.19.661-2.607s-.845-1.089-2.531-.91a9.744,9.744,0,0,0-3.4,1.131L2.94,12.5,2.2,11.111a5.226,5.226,0,0,1-.62-2.479,5.292,5.292,0,0,1,9.965-2.491l1.262,2.373A.733.733,0,0,0,14.1,7.826L12.839,5.453A6.757,6.757,0,1,0,.908,11.8L7.279,23.776H4.3a2.089,2.089,0,0,0-2.087,2.087v2.391A2.089,2.089,0,0,0,4.3,30.34h.649l.457,3.9-5.1,8.5a2.113,2.113,0,0,0,1.515,3.179,2.111,2.111,0,0,0,2.108-1l2.28-3.8.164,1.411a.733.733,0,0,0,.727.647.724.724,0,0,0,.086,0,.733.733,0,0,0,.642-.813l-.385-3.3,5.232-8.718H36.01l5.232,8.718-.919,7.858A1.831,1.831,0,0,1,38.5,48.535H10.177a1.831,1.831,0,0,1-1.818-1.619l-.193-1.651a.732.732,0,1,0-1.455.171L6.9,47.086A3.3,3.3,0,0,0,10.178,50H38.5a3.3,3.3,0,0,0,3.273-2.914l.7-5.971,2.281,3.8a2.112,2.112,0,1,0,3.622-2.174ZM7.111,20.176c2.359-1.255,3.838-1.03,3.947-.827s-.533,1.556-2.892,2.811L8.1,22.2,7.043,20.212l.068-.036ZM3.7,13.755a8.384,8.384,0,0,1,2.864-.967c.728-.077,1.049.076,1.083.141s-.018.416-.489.977a8.382,8.382,0,0,1-2.4,1.834l-.068.036L3.628,13.791l.068-.037Zm38.35,18.433L40.937,30.34h1.325ZM27.2,23.775V21.27l2.309-2.9h8.244l1.523,1.915H35.953a.732.732,0,1,0,0,1.465h4.1v2.028ZM37.37,14.711V16.9H29.884V14.711a.132.132,0,0,1,.132-.132h7.222a.132.132,0,0,1,.132.132ZM25.924,1.465h2.782a1.091,1.091,0,0,1,1.09,1.09V6.116H24.834V2.555a1.091,1.091,0,0,1,1.09-1.09ZM24.16,11.638a2.623,2.623,0,0,0,1.2-2.214V7.581h3.9V9.424a2.623,2.623,0,0,0,1.2,2.214,14.186,14.186,0,0,1,1.976,1.477h-2.43a1.6,1.6,0,0,0-1.6,1.6v2.67L25.89,20.559a.731.731,0,0,0-.159.456v2.761h-.973a6.155,6.155,0,0,0-2.085-4.393l.884-.712,1.3-1.043a2.81,2.81,0,0,0,.421-.417,2.8,2.8,0,0,0-2.448-4.549l-.129.016c.4-.319.9-.672,1.464-1.039ZM21.615,15.43c.2-.285.385-1.213,1.357-1.312a1.331,1.331,0,0,1,.962,2.367l-1.3,1.045-1.228.99q-.2-.1-.407-.191ZM18.6,8.382a2.444,2.444,0,0,1,2.386,2.961L20.7,12.688c0,.007,0,.014,0,.022l-1.1,5.209a6.227,6.227,0,0,0-1.991,0l-.009-.043c-.254-1.205-.527-2.5-1.381-6.537A2.44,2.44,0,0,1,18.6,8.382Zm-5.541,7.9a1.331,1.331,0,1,1,2.218-1.442l.305.593c.275,1.3.431,2.039.579,2.745l.032.149q-.207.088-.407.191a32.737,32.737,0,0,1-2.728-2.235ZM18.6,19.3a4.707,4.707,0,0,1,4.7,4.472H13.9A4.707,4.707,0,0,1,18.6,19.3ZM6.42,30.34H7.745L6.636,32.188ZM2.669,44.162a.646.646,0,0,1-.646.308h0a.648.648,0,0,1-.464-.975l5.224-8.706,0,0,2.869-4.78c.01-.016.02-.032.029-.048l1.6-2.662a.648.648,0,1,1,1.11.666l-.749,1.248-.024.039ZM13.551,28.875l.095-.158a2.112,2.112,0,1,0-3.622-2.174l-1.4,2.332H4.3a.623.623,0,0,1-.622-.622V25.862A.623.623,0,0,1,4.3,25.24h40.09a.623.623,0,0,1,.622.622v2.391a.623.623,0,0,1-.622.622H40.058l-1.4-2.332a2.112,2.112,0,1,0-3.622,2.174l.095.158ZM46.659,44.47a.682.682,0,0,1-.646-.308l-9.721-16.2A.648.648,0,1,1,37.4,27.3L41.9,34.784l0,.006L47.123,43.5a.648.648,0,0,1-.464.974Zm0,0" transform="translate(702.999 2489)" fill="#7300cc"/>
    <path id="Caminho_42870" data-name="Caminho 42870" d="M135.634,335.7v-2.424a1.956,1.956,0,1,0-3.912,0V335.7a1.956,1.956,0,1,0,3.912,0Zm-2.447,0v-2.424a.491.491,0,0,1,.983,0V335.7a.491.491,0,0,1-.983,0Zm0,0" transform="translate(584.141 2190.035)" fill="#7300cc"/>
    <path id="Caminho_42871" data-name="Caminho 42871" d="M184.38,416.777v-2.423a1.956,1.956,0,1,0-3.912,0v2.423a1.956,1.956,0,1,0,3.912,0Zm-2.447,0v-2.423a.491.491,0,1,1,.982,0v2.423a.491.491,0,1,1-.982,0Zm0,0" transform="translate(540.155 2116.875)" fill="#7300cc"/>
    <path id="Caminho_42872" data-name="Caminho 42872" d="M233.126,335.7v-2.424a1.956,1.956,0,1,0-3.912,0V335.7a1.956,1.956,0,1,0,3.912,0Zm-2.447,0v-2.424a.491.491,0,1,1,.982,0V335.7a.491.491,0,1,1-.982,0Zm0,0" transform="translate(496.17 2190.035)" fill="#7300cc"/>
    <path id="Caminho_42873" data-name="Caminho 42873" d="M281.87,416.777v-2.423a1.956,1.956,0,0,0-3.912,0v2.423a1.956,1.956,0,0,0,3.912,0Zm-2.447,0v-2.423a.491.491,0,1,1,.982,0v2.423a.491.491,0,1,1-.982,0Zm0,0" transform="translate(452.186 2116.875)" fill="#7300cc"/>
    <path id="Caminho_42874" data-name="Caminho 42874" d="M330.616,335.7v-2.424a1.956,1.956,0,1,0-3.912,0V335.7a1.956,1.956,0,0,0,3.912,0Zm-2.448,0v-2.424a.491.491,0,0,1,.983,0V335.7a.491.491,0,0,1-.983,0Zm0,0" transform="translate(408.201 2190.035)" fill="#7300cc"/>
  </g>
</svg>
