<svg xmlns="http://www.w3.org/2000/svg" width="45" height="50" viewBox="0 0 45 50">
  <g id="Outline" transform="translate(-5 -2)">
    <g id="Grupo_9191" data-name="Grupo 9191" transform="translate(5 2)">
      <path id="Caminho_42875" data-name="Caminho 42875" d="M46.667,53.333a3.333,3.333,0,1,0-3.333,3.333A3.333,3.333,0,0,0,46.667,53.333Zm-5,0A1.667,1.667,0,1,1,43.333,55,1.667,1.667,0,0,1,41.667,53.333Z" transform="translate(-10.833 -10)" fill="#7300cc"/>
      <path id="Caminho_42876" data-name="Caminho 42876" d="M53.1,52.816a.833.833,0,0,0-.938.712L51.439,58.8H38.833a.833.833,0,1,0,0,1.667H52.167a.833.833,0,0,0,.826-.721l.817-5.992a.833.833,0,0,0-.714-.938Z" transform="translate(-10.5 -10.468)" fill="#7300cc"/>
      <path id="Caminho_42877" data-name="Caminho 42877" d="M49.794,32.285A.833.833,0,0,0,49.166,32H45.25l1.4-7.344a.817.817,0,0,0,0-.295l.384-1.788,1.244,2.074-1,4.7a.833.833,0,0,0,.64.989.851.851,0,0,0,.176.018A.833.833,0,0,0,48.9,29.7l1.077-5.026a.828.828,0,0,0-.1-.6l-2.5-4.167a.833.833,0,0,0-1.529.25l-.685,3.179-3.194-1.277a.833.833,0,0,0-1.136.667l-.692,5.532-.556-.139-.423-5.348a.833.833,0,0,0-.217-.487l.167-2.146.792-.237,2.2,1.172a.833.833,0,1,0,.785-1.47l-2.5-1.333a.833.833,0,0,0-.632-.063l-1.667.5a.833.833,0,0,0-.592.732l-.1,1.288-.977-.977a.833.833,0,0,0-1.254.089l-1,1.333v-.833a2.5,2.5,0,0,0-2.5-2.5H30V17a2.5,2.5,0,0,0-2.5-2.5H23.333V10.558L29.72,6.3a.833.833,0,0,0,.231-1.156L28.1,2.371a.833.833,0,0,0-1.156-.231l-7.5,5a2.494,2.494,0,0,0-1.113,2.08V14.5H14.167a2.5,2.5,0,0,0-2.5,2.5v.833H10a2.5,2.5,0,0,0-2.5,2.5V22c0,.017.5,4.39.5,4.39a.833.833,0,0,0,.827.739.726.726,0,0,0,.1-.006.833.833,0,0,0,.733-.922l-.388-3.368h6.567a.833.833,0,0,0,0-1.667H9.167v-.833A.833.833,0,0,1,10,19.5H31.667a.833.833,0,0,1,.833.833v.833H19.167a.833.833,0,0,0,0,1.667h13.75l-.25.333a.833.833,0,0,0-.167.569l.25,3-.3-.852a.833.833,0,0,0-.514-.51l-2.469-.848a.833.833,0,0,0-1.058.517l-.451,1.311-.516-1.327a.833.833,0,0,0-.773-.532H23.333a.833.833,0,0,0-.782,1.122l.519,1.407c-.19-.012-.377-.029-.57-.029H14.167a9.124,9.124,0,0,0-5.054,1.522.834.834,0,1,0,.922,1.389,7.464,7.464,0,0,1,4.132-1.244H22.5a7.51,7.51,0,0,1,7.453,6.667H6.713a7.454,7.454,0,0,1,1.2-3.3.833.833,0,0,0-1.39-.917A9.13,9.13,0,0,0,5,36.166.833.833,0,0,0,5.833,37h.1a3.49,3.49,0,0,0,.851,1.573,4.013,4.013,0,0,0-.122.927,4.147,4.147,0,0,0,1.175,2.888A2.449,2.449,0,0,0,6.82,45.333H5.833A.833.833,0,0,0,5,46.166v1.667A4.172,4.172,0,0,0,9.167,52h2.5a.833.833,0,0,0,0-1.667h-2.5a2.5,2.5,0,0,1-2.5-2.5V47h13.1l.417.52a.833.833,0,0,0,1.3,0l3.083-3.853H27.5a.833.833,0,0,1,0,1.667H25.667a.833.833,0,0,0,0,1.667H30v.833a2.5,2.5,0,0,1-2.5,2.5H15A.833.833,0,0,0,15,52H27.5a4.172,4.172,0,0,0,4.167-4.167V46.166a.833.833,0,0,0-.833-.833h-.987a2.449,2.449,0,0,0-1.022-2.945A4.147,4.147,0,0,0,30,39.5a4.047,4.047,0,0,0-.1-.877A2.54,2.54,0,0,0,30.789,37h.044a.794.794,0,0,0,.153-.031A9.167,9.167,0,0,0,37.5,39.5c4.242,0,7.754-2.549,8.268-5.833h2.443l-1.1,8.09a.833.833,0,0,0,.714.937.739.739,0,0,0,.112.008.833.833,0,0,0,.826-.721l1.232-9.036A.833.833,0,0,0,49.794,32.285ZM20,9.22a.833.833,0,0,1,.371-.693l6.807-4.537L28.1,5.376,22.037,9.417a.833.833,0,0,0-.371.693V14.5H20Zm-6.667,8.613V17a.833.833,0,0,1,.833-.833H27.5a.833.833,0,0,1,.833.833v.833ZM39.11,29.72l1.684.417-.423,7.2a8.245,8.245,0,0,1-1.708.417ZM35.923,21.6l1.6,1.6.381,4.759a.73.73,0,0,0-.069.031.833.833,0,0,0-.333.624l-.511,9.186a8.456,8.456,0,0,1-1.667-.265L34.19,23.917ZM24.529,26.167H26.1l.75,1.933a9.1,9.1,0,0,0-1.886-.754Zm3.778,13.075a2.24,2.24,0,0,1,.026.258,2.5,2.5,0,0,1-2.5,2.5h-15a2.5,2.5,0,0,1-2.489-2.4l.077.039a3.548,3.548,0,0,0,3.157,0l1.341-.667a.923.923,0,0,1,.828,0l1.759.879a2.6,2.6,0,0,0,2.32,0l1.757-.883a.923.923,0,0,1,.828,0l1.759.879a2.6,2.6,0,0,0,2.32,0l1.759-.879a.923.923,0,0,1,.828,0,2.591,2.591,0,0,0,1.229.269ZM9.167,45.333a.833.833,0,1,1,0-1.667H17.1l1.333,1.667Zm11.667.333-1.6-2h3.2Zm7.894-8.225a.886.886,0,0,1-.095.044h-.019c-.011,0-.017.013-.028.017a.9.9,0,0,1-.759-.024,2.6,2.6,0,0,0-2.32,0l-1.757.882a.923.923,0,0,1-.828,0l-1.759-.879a2.6,2.6,0,0,0-2.32,0l-1.759.879a.923.923,0,0,1-.828,0L14.5,37.481a2.605,2.605,0,0,0-2.32,0l-1.34.667a1.872,1.872,0,0,1-1.667,0l-.639-.315A1.845,1.845,0,0,1,7.712,37H29.093a.909.909,0,0,1-.366.441ZM31.6,35.126a9.1,9.1,0,0,0-1.276-3.709l-1.117-3.574.5-1.469,1.3.447L33.3,33.264l.3,3.588A5.8,5.8,0,0,1,31.6,35.125Zm10.489,1.323.407-6.9a.833.833,0,0,0-.63-.858l-.093-.025.583-4.66,2.526,1.011L42.828,35.826a5.9,5.9,0,0,1-.736.623Z" transform="translate(-5 -2)" fill="#7300cc"/>
      <circle id="Elipse_378" data-name="Elipse 378" cx="1.5" cy="1.5" r="1.5" transform="translate(14 28)" fill="#7300cc"/>
      <ellipse id="Elipse_379" data-name="Elipse 379" cy="1" ry="1" transform="translate(12 28)" fill="#7300cc"/>
      <circle id="Elipse_380" data-name="Elipse 380" cx="0.5" cy="0.5" r="0.5" transform="translate(9 30)" fill="#7300cc"/>
      <ellipse id="Elipse_381" data-name="Elipse 381" cy="0.5" ry="0.5" transform="translate(22 30)" fill="#7300cc"/>
      <ellipse id="Elipse_382" data-name="Elipse 382" cx="1" cy="1.5" rx="1" ry="1.5" transform="translate(5 28)" fill="#7300cc"/>
      <circle id="Elipse_383" data-name="Elipse 383" cx="1" cy="1" r="1" transform="translate(17 28)" fill="#7300cc"/>
    </g>
  </g>
</svg>
