<svg xmlns="http://www.w3.org/2000/svg" width="55.652" height="50" viewBox="0 0 55.652 50">
  <g id="pizzaria" transform="translate(0 -26)">
    <g id="Grupo_9193" data-name="Grupo 9193" transform="translate(0 26)">
      <g id="Grupo_9192" data-name="Grupo 9192" transform="translate(0 0)">
        <path id="Caminho_42878" data-name="Caminho 42878" d="M55.651,40.119c0-.024,0-.047,0-.071s0-.025,0-.037-.006-.043-.01-.065,0-.029-.007-.043-.009-.035-.013-.052-.009-.036-.015-.054-.01-.026-.014-.039-.016-.042-.024-.063-.01-.022-.016-.032-.021-.044-.033-.065l0-.009-4.855-8.444V27.087A1.087,1.087,0,0,0,49.565,26H6.087A1.087,1.087,0,0,0,5,27.087v4.057L.145,39.588l0,.007c-.014.024-.026.05-.038.075l-.011.022c-.011.025-.02.05-.029.075,0,.009-.007.018-.01.027s-.013.045-.019.067-.007.025-.01.038-.007.038-.01.057-.006.034-.008.051,0,.033,0,.05,0,.039,0,.059c0,0,0,.009,0,.014v4.348a1.087,1.087,0,0,0,1.087,1.087H5V73.826H4.236a1.087,1.087,0,1,0,0,2.174H51.416a1.087,1.087,0,1,0,0-2.174h-.764V45.565h3.913a1.087,1.087,0,0,0,1.087-1.087V40.13S55.651,40.123,55.651,40.119Zm-2.965-1.076H28.913V32.522H48.936ZM7.174,28.174h41.3v2.174H7.174V28.174Zm-.458,4.348H26.739v6.522H2.966ZM2.174,43.391V41.217H26.739v2.174ZM37.609,73.826H7.174V45.565H9.658v1.087a1.087,1.087,0,1,0,2.174,0V45.565h2.484v1.087a1.087,1.087,0,1,0,2.174,0V45.565h2.484v1.087a1.087,1.087,0,1,0,2.174,0V45.565h2.485v1.087a1.087,1.087,0,1,0,2.174,0V45.565h2.484v1.087a1.087,1.087,0,1,0,2.174,0V45.565H32.95v1.087a1.087,1.087,0,1,0,2.174,0V45.565h2.485Zm10.87,0h-8.7v-8.7H40.87a1.087,1.087,0,1,0,0-2.174H39.783v-8.7h8.7V73.826Zm0-21.739h-8.7V45.565h8.7v6.522Zm5-8.7H28.913V41.217H53.478Z" transform="translate(0 -26)" fill="#7300cc"/>
        <path id="Caminho_42879" data-name="Caminho 42879" d="M1.114,466H1.088a1.087,1.087,0,0,0,0,2.174h.026a1.087,1.087,0,0,0,0-2.174Z" transform="translate(-0.001 -418.171)" fill="#7300cc"/>
        <path id="Caminho_42880" data-name="Caminho 42880" d="M492.878,466h-.026a1.087,1.087,0,0,0,0,2.174h.026a1.087,1.087,0,0,0,0-2.174Z" transform="translate(-438.312 -418.175)" fill="#7300cc"/>
        <path id="Caminho_42881" data-name="Caminho 42881" d="M136.347,255.466v0l-.843-3.146a1.087,1.087,0,0,0-1.331-.768,17.9,17.9,0,0,0-12.622,12.622,1.087,1.087,0,0,0,.768,1.331l3.15.844h.007l13.037,3.494a1.086,1.086,0,0,0,.281.037h.012a1.088,1.088,0,0,0,1.019-1.437Zm-11.326,8.509-1.054-.283a15.736,15.736,0,0,1,9.727-9.727l.283,1.054A14.642,14.642,0,0,0,125.021,263.975Zm7.245,1.941-.078-2.963a1.087,1.087,0,1,0-2.173.057l.061,2.319-2.949-.79a12.464,12.464,0,0,1,7.415-7.414l1.074,4.01-1.443,1.288a1.087,1.087,0,1,0,1.448,1.621l.625-.558,1.009,3.766Z" transform="translate(-108.304 -226.999)" fill="#7300cc"/>
      </g>
    </g>
  </g>
</svg>
