<svg xmlns="http://www.w3.org/2000/svg" width="50" height="50" viewBox="0 0 50 50">
  <g id="shoe-fashion-store-shop-shopping-commerce" transform="translate(-2 -2)">
    <rect id="Retângulo_4774" data-name="Retângulo 4774" width="1" height="3" transform="translate(9 40)" fill="#7300cc"/>
    <path id="Caminho_42897" data-name="Caminho 42897" d="M52,12.833V6.167a.833.833,0,0,0-.833-.833V3.667A1.672,1.672,0,0,0,49.5,2H4.5A1.672,1.672,0,0,0,2.833,3.667V5.333A.833.833,0,0,0,2,6.167v6.667a.833.833,0,0,0,.833.833V50.333H2V52H52V50.333h-.833V13.667A.833.833,0,0,0,52,12.833ZM4.5,3.667h45V5.333H4.5ZM16.167,50.333H7.833V33.667h8.333Zm0-18.333H7.833v-.833h8.333Zm0-2.5H7.833v-.833h8.333ZM49.5,50.333H17.833v-22.5A.833.833,0,0,0,17,27H7a.833.833,0,0,0-.833.833v22.5H4.5V21.142A4.1,4.1,0,0,0,7,22a4.162,4.162,0,0,0,3.333-1.692,4.13,4.13,0,0,0,6.667,0,4.13,4.13,0,0,0,6.667,0,4.13,4.13,0,0,0,6.667,0,4.13,4.13,0,0,0,6.667,0,4.13,4.13,0,0,0,6.667,0A4.162,4.162,0,0,0,47,22a4.1,4.1,0,0,0,2.5-.858Zm-45-32.5V13.667h5v4.167a2.5,2.5,0,0,1-5,0Zm6.667,0V13.667h5v4.167a2.5,2.5,0,0,1-5,0Zm6.667,0V13.667h5v4.167a2.5,2.5,0,0,1-5,0Zm6.667,0V13.667h5v4.167a2.5,2.5,0,0,1-5,0Zm6.667,0V13.667h5v4.167a2.5,2.5,0,0,1-5,0Zm6.667,0V13.667h5v4.167a2.5,2.5,0,0,1-5,0Zm11.667,0a2.5,2.5,0,0,1-5,0V13.667h5ZM50.333,12H3.667V7H50.333Z" transform="translate(0 0)" fill="#7300cc"/>
    <path id="Caminho_42898" data-name="Caminho 42898" d="M50.5,28H23.833a.833.833,0,0,0-.833.833V52.167a.833.833,0,0,0,.833.833H50.5a.833.833,0,0,0,.833-.833V28.833A.833.833,0,0,0,50.5,28Zm-.833,23.333h-25V29.667h25Z" transform="translate(-3.5 -4.333)" fill="#7300cc"/>
    <path id="Caminho_42899" data-name="Caminho 42899" d="M48.5,31H37.667a.833.833,0,0,0-.833.833V33.5H36a.833.833,0,0,0-.833.833v5a.833.833,0,0,0,.833.833h.833V41h-5A5.84,5.84,0,0,0,26,46.833v3.333a.833.833,0,0,0,.833.833H48.5a.833.833,0,0,0,.833-.833V31.833A.833.833,0,0,0,48.5,31ZM36.833,35.167h5.833V38.5H36.833ZM47.667,49.333h-20V48.5h20Zm0-2.5h-20a4.167,4.167,0,0,1,4.167-4.167v1.667H33.5V42.667h.833v1.667H36V42.667h1.667a.833.833,0,0,0,.833-.833V40.167h5a.833.833,0,0,0,.833-.833v-5A.833.833,0,0,0,43.5,33.5h-5v-.833h9.167Z" transform="translate(-4 -4.833)" fill="#7300cc"/>
    <circle id="Elipse_384" data-name="Elipse 384" cx="1" cy="1" r="1" transform="translate(36 31)" fill="#7300cc"/>
  </g>
</svg>
