<svg id="support_2_" data-name="support (2)" xmlns="http://www.w3.org/2000/svg" width="50" height="50" viewBox="0 0 50 50">
  <path id="Caminho_42887" data-name="Caminho 42887" d="M64,240h1.613v1.613H64Zm0,0" transform="translate(-57.548 -215.806)" fill="#7300cc"/>
  <path id="Caminho_42888" data-name="Caminho 42888" d="M96,240h1.613v1.613H96Zm0,0" transform="translate(-86.323 -215.806)" fill="#7300cc"/>
  <path id="Caminho_42889" data-name="Caminho 42889" d="M128,240h1.613v1.613H128Zm0,0" transform="translate(-115.097 -215.806)" fill="#7300cc"/>
  <path id="Caminho_42890" data-name="Caminho 42890" d="M47.652,36.963l1.09-1.907-.6-.6A25,25,0,1,0,3.226,37.278v9.5h9.5a24.979,24.979,0,0,0,21.734,1.367l.6.6,1.907-1.09c.183.084.367.161.552.231L38.094,50h4.458l.579-2.117c.185-.069.369-.147.552-.231l1.907,1.09,3.152-3.151-1.09-1.907c.084-.183.161-.367.231-.552L50,42.552V38.094l-2.117-.579c-.069-.185-.147-.369-.231-.552ZM1.613,25A23.387,23.387,0,1,1,46.9,33.217L45.591,31.9l-1.907,1.09c-.183-.084-.367-.161-.552-.231l-.579-2.118H40.323V20.968H35.484V12.9H33.871V5.214L30.89,3.226H29.032V12.9H27.419v8.065H24.194V15.732a2.52,2.52,0,0,1,.951-1.919,6.243,6.243,0,0,0,2.275-4.807A6.338,6.338,0,0,0,23.727,3.3l-1.146-.532V8.439L20.968,9.514,19.355,8.439V2.769L18.209,3.3a6.338,6.338,0,0,0-3.693,5.705,6.243,6.243,0,0,0,2.275,4.807,2.52,2.52,0,0,1,.951,1.919v5.236H3.226v12.55A23.437,23.437,0,0,1,1.613,25ZM17.824,12.573a4.6,4.6,0,0,1-.082-7.064V9.3l3.226,2.151L24.194,9.3V5.509a4.6,4.6,0,0,1-.082,7.064,4.125,4.125,0,0,0-1.531,3.159v5.236H19.355V15.732A4.125,4.125,0,0,0,17.824,12.573ZM38.71,22.581v4.839H4.839V22.581ZM32.258,12.9H30.645V5l1.613,1.075Zm1.613,1.613v1.613H29.032V14.516Zm-4.839,3.226h4.839v3.226H29.032ZM4.839,29.032H38.71v1.613h-.616l-.579,2.117c-.185.069-.369.147-.552.231L35.055,31.9l-2.8,2.8V30.645H25.807V37.1h6.452V35.676l.735,1.287c-.084.183-.161.367-.231.552l-2.117.578v4.458l2.117.579c.069.185.147.369.231.552l-.845,1.479H4.839Zm25.806,3.226v3.226H27.419V32.258ZM25,48.387a23.427,23.427,0,0,1-8.518-1.613H33.088l.129.129A23.256,23.256,0,0,1,25,48.387Zm23.387-7.068-1.768.485-.13.423a6.416,6.416,0,0,1-.461,1.1l-.208.391.911,1.6-1.409,1.41-1.6-.911-.391.208a6.326,6.326,0,0,1-1.1.462l-.423.13-.486,1.77H39.325l-.485-1.768-.423-.13a6.416,6.416,0,0,1-1.1-.461l-.391-.208-1.6.911-1.41-1.409.911-1.6-.208-.391a6.354,6.354,0,0,1-.461-1.1l-.13-.423-1.769-.486V39.325l1.768-.485.13-.423a6.417,6.417,0,0,1,.461-1.1l.208-.391-.911-1.6,1.409-1.41,1.6.911.391-.208a6.355,6.355,0,0,1,1.1-.461l.423-.13.486-1.769H41.32l.485,1.768.423.13a6.416,6.416,0,0,1,1.1.461l.391.208,1.6-.911,1.41,1.409-.911,1.6.208.391a6.355,6.355,0,0,1,.461,1.1l.13.423,1.769.486Zm0,0" transform="translate(0 0)" fill="#7300cc"/>
  <path id="Caminho_42891" data-name="Caminho 42891" d="M356.839,352a4.839,4.839,0,1,0,4.839,4.839A4.843,4.843,0,0,0,356.839,352Zm0,8.065a3.226,3.226,0,1,1,3.226-3.226A3.229,3.229,0,0,1,356.839,360.065Zm0,0" transform="translate(-316.516 -316.516)" fill="#7300cc"/>
  <path id="Caminho_42892" data-name="Caminho 42892" d="M64,313.677h9.677V304H64Zm1.613-8.065h6.452v6.452H65.613Zm0,0" transform="translate(-57.548 -273.355)" fill="#7300cc"/>
  <path id="Caminho_42893" data-name="Caminho 42893" d="M64,416h9.677v1.613H64Zm0,0" transform="translate(-57.548 -374.064)" fill="#7300cc"/>
  <path id="Caminho_42894" data-name="Caminho 42894" d="M182.452,304H176v6.452h6.452Zm-1.613,4.839h-3.226v-3.226h3.226Zm0,0" transform="translate(-158.258 -273.355)" fill="#7300cc"/>
  <path id="Caminho_42895" data-name="Caminho 42895" d="M176,384h11.29v1.613H176Zm0,0" transform="translate(-158.258 -345.29)" fill="#7300cc"/>
  <path id="Caminho_42896" data-name="Caminho 42896" d="M176,416h11.29v1.613H176Zm0,0" transform="translate(-158.258 -374.064)" fill="#7300cc"/>
</svg>
