<svg xmlns="http://www.w3.org/2000/svg" xmlns:xlink="http://www.w3.org/1999/xlink" width="102.04" height="83.365" xmlns:v="https://vecta.io/nano"><g fill="#8f00fc"><path d="M81.996 83.26h-57.9a.92.92 0 0 1-.92-.91v-32.9a.92.92 0 0 1 .92-.91h58a.92.92 0 0 1 .92.91v32.9a.92.92 0 0 1-1.02.91zm-57-1.83h56.1V50.36h-56.14z"/><path d="M81.996 50a.92.92 0 0 1-.91-.92V21.53h-56.13v27.25a.92.92 0 0 1-1.83 0V20.62a.92.92 0 0 1 .92-.92h58a.92.92 0 0 1 .92.92v28.5a.92.92 0 0 1-.97.89zm-38.13 21.92h-12.5a.92.92 0 0 1-.92-.91V60.8a.92.92 0 0 1 .92-.92h12.5a.92.92 0 0 1 .92.92V71a.92.92 0 0 1-.92.91zm-11.6-1.83h10.68v-8.4h-10.68z"/><use xlink:href="#B"/><use xlink:href="#B" x="27.3"/><path d="M70.976 83.2h-12.5a.92.92 0 0 1-.92-.92V60.8a.92.92 0 0 1 .92-.92h12.5a.92.92 0 0 1 .92.92v21.5a.92.92 0 0 1-.92.92zm-11.6-1.83h10.7V61.7h-10.7zM32.356 56.9h-8.35a.92.92 0 1 1 0-1.83h8.35a.92.92 0 0 1 0 1.83zm19.9 19h-4.7a.92.92 0 0 1 0-1.83h4.7a.92.92 0 1 1 0 1.83zm29.5-21.17h-4.46a.92.92 0 0 1 0-1.83h4.46a.92.92 0 1 1 0 1.83z"/><path d="M88.406 83.36h-69.86a.92.92 0 0 1 0-1.83h69.86a.92.92 0 0 1 0 1.83zm-75.3 0h-6.82a.92.92 0 1 1 0-1.83h6.82a.92.92 0 1 1 0 1.83zm84.8 0h-6.8a.92.92 0 1 1 0-1.83h6.8a.92.92 0 1 1 0 1.83zm-15.9-61.86h-57.9a.91.91 0 0 1-.84-.55.92.92 0 0 1 .16-1l10.68-11.7a.93.93 0 0 1 .68-.3h36.45a.89.89 0 0 1 .67.3L82.666 20a.92.92 0 0 1-.67 1.54zm-55.9-1.84h53.82l-9.1-9.9h-35.6z"/><path d="M58.966 15.4h-29a.92.92 0 0 1 0-1.83h29a.92.92 0 1 1 0 1.83zm19.13 2.9h-11.5a.92.92 0 1 1 0-1.83h11.5a.92.92 0 1 1 0 1.83zm-14.55-8.68h-6.26a.92.92 0 0 1-.91-.92V4a.92.92 0 0 1 .91-.92h6.26a.92.92 0 0 1 .91.92v4.7a.92.92 0 0 1-.91.92zm-5.34-1.83h4.42V4.9h-4.42zm-50.06 75.5a.92.92 0 0 1-.92-.91v-15.1a.92.92 0 1 1 1.83 0v15.1a.91.91 0 0 1-.91.91z"/><path d="M8.146 76.57c-3.6 0-6.4-4.12-6.4-9.38s2.8-9.38 6.4-9.38 6.4 4.12 6.4 9.38-2.8 9.38-6.4 9.38zm0-16.93c-2.48 0-4.58 3.46-4.58 7.55s2.1 7.55 4.58 7.55 4.57-3.45 4.57-7.55-2.1-7.55-4.57-7.55zM93.096 83h0a.92.92 0 0 1-.89-1v-.35a10.11 10.11 0 0 0-9.85-10.06.92.92 0 0 1-.9-.93.9.9 0 0 1 .93-.9c6.48.156 11.663 5.43 11.7 11.9v.42a.91.91 0 0 1-1 .91zm-1-71.4a5.8 5.8 0 0 1-4.152-9.89 5.8 5.8 0 0 1 9.912 4.1 5.8 5.8 0 0 1-5.76 5.79zm0-9.76a4 4 0 1 0 0 8 4 4 0 1 0 0-8zm-75.68 11.6h-15.4a.92.92 0 0 1-.876-1.402.92.92 0 0 1 .876-.428h15.4a.92.92 0 0 1 0 1.83zm1.22 19.52h-8.54a.92.92 0 1 1 0-1.83h8.54a.92.92 0 0 1 0 1.83zm83.58-12.8h-8.54a.92.92 0 1 1 0-1.83h8.54a.92.92 0 0 1 0 1.83z"/></g><defs ><path id="B" d="M43.866 41.27h-12.5a.92.92 0 0 1-.92-.92V30.13a.92.92 0 0 1 .92-.91h12.5a.92.92 0 0 1 .92.91v10.22a.92.92 0 0 1-.92.92zm-11.6-1.83h10.68V31h-10.68z"/></defs></svg>