<svg xmlns="http://www.w3.org/2000/svg" width="105.85" height="107.855" fill="#8f00fc" xmlns:v="https://vecta.io/nano"><path d="M80.26 107.75H22.3a.92.92 0 0 1-.92-.91v-32.9a.92.92 0 0 1 .92-.91h58a.92.92 0 0 1 .92.91v32.9a.92.92 0 0 1-.97.91zm-57-1.83h56.1V74.85H23.22z"/><path d="M80.26 74.52a.91.91 0 0 1-.91-.91V46H23.22v27.27a.92.92 0 0 1-1.83 0V45.1a.92.92 0 0 1 .92-.92h58a.92.92 0 0 1 .92.92v28.5a.92.92 0 0 1-.97.91z"/><path d="M80.26 54.85a.92.92 0 0 1-.91-.92V26.35H23.22V53.6a.92.92 0 1 1-1.83 0V25.43a.92.92 0 0 1 .92-.91h58a.92.92 0 0 1 .92.91v28.5a.92.92 0 0 1-.97.92zM42.13 96.4h-12.5a.92.92 0 0 1-.92-.92v-10.2a.92.92 0 0 1 .92-.92h12.5a.92.92 0 0 1 .92.92v10.2a.92.92 0 0 1-.92.92zm-11.6-1.83H41.2v-8.4H30.54z"/><path d="M42.13 65.75h-12.5a.92.92 0 0 1-.92-.91V54.62a.91.91 0 0 1 .92-.91h12.5a.91.91 0 0 1 .92.91v10.22a.92.92 0 0 1-.92.91zm-11.6-1.83H41.2v-8.38H30.54zm11.6-23.56h-12.5a.92.92 0 0 1-.92-.92V31.5a.92.92 0 0 1 .92-.91h12.5a.92.92 0 0 1 .92.91v7.93a.92.92 0 0 1-.92.92zm-11.6-1.83H41.2v-6.1H30.54zm41.34 1.83h-12.5a.92.92 0 0 1-.92-.92V31.5a.92.92 0 0 1 .92-.91h12.5a.92.92 0 0 1 .92.91v7.93a.92.92 0 0 1-.92.92zm-11.6-1.83H71v-6.1H60.28zm11.6 27.22h-12.5a.92.92 0 0 1-.92-.91V54.62a.91.91 0 0 1 .92-.91h12.5a.91.91 0 0 1 .92.91v10.22a.92.92 0 0 1-.92.91zm-11.6-1.83H71v-8.38H60.28zm8.97 43.78h-12.5a.92.92 0 0 1-.92-.92v-21.5a.92.92 0 0 1 .92-.92h12.5a.92.92 0 0 1 .92.92v21.5a.92.92 0 0 1-.92.92zm-11.6-1.83h10.68V86.2H57.65zM30.62 81.4h-8.35a.92.92 0 1 1 0-1.83h8.35a.92.92 0 0 1 0 1.83zm19.9 18.97h-4.7a.92.92 0 0 1 0-1.83h4.7a.92.92 0 1 1 0 1.83zM80 79.2h-4.43a.92.92 0 0 1 0-1.83H80a.92.92 0 1 1 0 1.83z"/><path d="M80 30.18h-4.43a.92.92 0 0 1 0-1.83H80a.92.92 0 1 1 0 1.83zm6.67 77.67H16.8a.92.92 0 0 1 0-1.83h69.86a.92.92 0 0 1 0 1.83zm-73.6 0H4.54a.92.92 0 1 1 0-1.83h8.54a.92.92 0 0 1 0 1.83zm89.75 0h-13.5a.92.92 0 1 1 0-1.83h13.5a.92.92 0 1 1 0 1.83zm-22.57-81.7H22.3a.91.91 0 0 1-.84-.55.92.92 0 0 1 .16-1L32.4 12.9a.93.93 0 0 1 .68-.3h36.4a.89.89 0 0 1 .67.3l10.78 11.72a.92.92 0 0 1-.68 1.54zM24.4 24.33h53.8l-9.1-9.9H33.5z"/><path d="M57.23 20.07h-29a.92.92 0 1 1 0-1.83h29a.92.92 0 1 1 0 1.83zm4.57-5.8h-6.26a.92.92 0 0 1-.91-.92V8.64a.92.92 0 0 1 .91-.92h6.26a.92.92 0 0 1 .91.92v4.72a.92.92 0 0 1-.91.92zm-5.34-1.83h4.42v-2.9h-4.42zM6.4 107.77a.92.92 0 0 1-.92-.91v-15.1a.92.92 0 1 1 1.83 0v15.1a.91.91 0 0 1-.91.91z"/><path d="M6.4 101.06c-3.6 0-6.4-4.12-6.4-9.38s2.8-9.38 6.4-9.38 6.4 4.12 6.4 9.38-2.8 9.38-6.4 9.38zm0-16.93c-2.48 0-4.58 3.46-4.58 7.55s2.1 7.55 4.58 7.55 4.6-3.46 4.6-7.55-2.1-7.55-4.6-7.55zm93.04 23.64a.91.91 0 0 1-.91-.91v-15.1a.92.92 0 1 1 1.83 0v15.1a.92.92 0 0 1-.92.91z"/><path d="M99.44 101.06c-3.6 0-6.4-4.12-6.4-9.38s2.82-9.38 6.4-9.38 6.4 4.12 6.4 9.38-2.85 9.38-6.4 9.38zm0-16.93c-2.48 0-4.58 3.46-4.58 7.55s2.1 7.55 4.58 7.55 4.56-3.46 4.56-7.55-2.08-7.55-4.56-7.55zm-8.04 23.34h0a.92.92 0 0 1-.89-1v-.35a10.11 10.11 0 0 0-9.85-10.06.92.92 0 0 1-.9-.94.93.93 0 0 1 .93-.89 12 12 0 0 1 11.65 11.89v.42a.91.91 0 0 1-.94.93zm-80.4 0a.92.92 0 0 1-.92-.89v-.4a12 12 0 0 1 11.67-11.89.92.92 0 1 1 0 1.83 10.11 10.11 0 0 0-9.85 10.06v.35a.92.92 0 0 1-.88 1zm15.6-39.92h-3.8a.92.92 0 0 1 0-1.83h3.8a.92.92 0 1 1 0 1.83zm-.83-25.28h-3a.92.92 0 0 1 0-1.83h3a.92.92 0 1 1 0 1.83zM38.36 14a.92.92 0 0 1-.92-.91V2a.92.92 0 0 1 1.83 0v11.1a.91.91 0 0 1-.91.9z"/><path d="M38.36 7.38H32.7a.92.92 0 0 1-.92-.92V.92A.92.92 0 0 1 32.7 0h5.66a.92.92 0 0 1 .91.92v5.54a.92.92 0 0 1-.91.92zM33.6 5.55h3.83V1.83H33.6zm12.88 60.22h-9.2a.92.92 0 0 1 0-1.83h9.2a.92.92 0 0 1 0 1.83zM90.63 12.9a5.8 5.8 0 1 1 5.8-5.8 5.8 5.8 0 0 1-5.8 5.8zm0-9.76a4 4 0 1 0 4 4 4 4 0 0 0-4-4zM100.7 27.1H85.3a.92.92 0 0 1 0-1.83h15.4a.92.92 0 0 1 0 1.83zM14.68 23H6.14a.92.92 0 1 1 0-1.83h8.54a.92.92 0 0 1 0 1.83zm3.66-20.77H9.8A.92.92 0 1 1 9.8.4h8.54a.915.915 0 0 1 0 1.83z"/></svg>