<svg xmlns="http://www.w3.org/2000/svg" width="97.176" height="71.92" fill="#8f00fc" xmlns:v="https://vecta.io/nano"><path d="M80.26 71.825H22.3a.92.92 0 0 1-.92-.92v-32.9a.92.92 0 0 1 .92-.92h58a.92.92 0 0 1 .92.92v32.9a.92.92 0 0 1-.97.92zm-57.04-1.82h56.13v-31.1H23.22z"/><path d="M80.26 38.875H22.3a.9.9 0 0 1-.84-.55.91.91 0 0 1 .16-1l10.77-11.7a.92.92 0 0 1 .68-.29h36.4a.88.88 0 0 1 .67.29l10.78 11.73a.92.92 0 0 1-.68 1.53zm-55.87-1.87h53.8l-9.1-9.9H33.5zm17.74 23.47h-12.5a.92.92 0 0 1-.92-.91v-10.22a.92.92 0 0 1 .92-.92h12.5a.92.92 0 0 1 .92.92v10.22a.92.92 0 0 1-.92.91zm-11.6-1.83H41.2v-8.4H30.54zm38.7 13.12h-12.5a.92.92 0 0 1-.92-.92v-21.5a.92.92 0 0 1 .92-.92h12.5a.92.92 0 0 1 .92.92v21.5a.92.92 0 0 1-.92.92zm-11.6-1.83h10.68v-19.68H57.65zm-27.02-24.48h-8.35a.92.92 0 1 1 0-1.83h8.35a.92.92 0 0 1 0 1.83z"/><path d="M57.23 32.795h-29a.92.92 0 1 1 0-1.83h29a.92.92 0 1 1 0 1.83zm19.14 2.9h-11.5a.92.92 0 1 1 0-1.83h11.5a.92.92 0 1 1 0 1.83zm-25.85 28.75h-4.7a.92.92 0 0 1 0-1.83h4.7a.92.92 0 1 1 0 1.83zM80 43.285h-4.43a.92.92 0 0 1 0-1.83H80a.92.92 0 1 1 0 1.83zm6.67 28.63H16.8a.92.92 0 0 1 0-1.83h69.86a.92.92 0 0 1 0 1.83zm-75.3 0H4.54a.92.92 0 1 1 0-1.83h6.82a.92.92 0 1 1 0 1.83zm84.8 0h-6.82a.92.92 0 1 1 0-1.83h6.82a.92.92 0 1 1 0 1.83zm-34.36-44.9h-6.26a.92.92 0 0 1-.91-.92v-4.73a.91.91 0 0 1 .91-.91h6.26a.91.91 0 0 1 .91.91v4.73a.92.92 0 0 1-.91.92zm-5.34-1.83h4.42v-2.9h-4.42z"/><path d="M6.4 65.125c-3.6 0-6.4-4.12-6.4-9.38s2.8-9.38 6.4-9.38 6.4 4.12 6.4 9.38-2.8 9.38-6.4 9.38zm0-16.93c-2.48 0-4.58 3.46-4.58 7.55s2.1 7.55 4.58 7.55 4.6-3.45 4.6-7.55-2.1-7.55-4.6-7.55zm85 23.34h0a.92.92 0 0 1-.89-.94q0-.18 0-.36a10.12 10.12 0 0 0-9.85-10.06.92.92 0 1 1 0-1.83c6.452.183 11.603 5.436 11.66 11.9q0 .2 0 .42a.91.91 0 0 1-.92.88zm-11.75-59.48a5.8 5.8 0 1 1 0-11.6 5.8 5.8 0 1 1 0 11.6zm0-9.76a4 4 0 1 0 2.828 1.172 4 4 0 0 0-2.828-1.172zm-36.3-.46H28a.92.92 0 0 1-.876-1.402A.92.92 0 0 1 28 .005h15.4a.92.92 0 0 1 .876 1.402.92.92 0 0 1-.876.428zM15.3 14.185H6.75a.92.92 0 1 1 0-1.83h8.54a.92.92 0 0 1 0 1.83zm78.08 12.82h-8.54a.92.92 0 1 1 0-1.83h8.54a.92.92 0 0 1 0 1.83z"/></svg>