<svg xmlns="http://www.w3.org/2000/svg" width="99.742" height="100.146" viewBox="0 0 99.742 100.146">   <g id="Componente_32_1" data-name="Componente 32 – 1" transform="translate(0.5 0.5)">     <g id="g38">       <g id="g44">         <path id="path46" d="M682.806,723.465a28.471,28.471,0,1,1-28.471-28.47,28.471,28.471,0,0,1,28.471,28.47" transform="translate(-625.865 -694.995)" fill="none" stroke="#7300cc" stroke-width="1"></path>       </g>       <g id="g48" transform="translate(5.843 15.925)">         <path id="path50" d="M924.753,1500.483h-4.289v5.475h4.289a2.745,2.745,0,1,0,0-5.475m-.253-7.594h-4.036v5.147H924.5c1.741,0,2.927-.909,2.927-2.574s-1.187-2.573-2.927-2.573m.505,15.517h-7.267v-17.964h6.989c3.33,0,5.425,1.893,5.425,4.92a4.068,4.068,0,0,1-2.422,3.81,4.271,4.271,0,0,1,2.7,4.163c0,3.305-2.246,5.071-5.425,5.071" transform="translate(-917.739 -1490.441)" fill="none" stroke="#7300cc" stroke-width="1"></path>       </g>       <g id="g52" transform="translate(19.838 15.303)">         <path id="path54" d="M1616.779,1477.967v-2.355l7.092-8.62a3.566,3.566,0,0,0,.984-2.459,2.707,2.707,0,1,0-5.41.052h-2.64a5.029,5.029,0,0,1,5.358-5.2c3.158,0,5.332,1.993,5.332,5.177,0,1.631-.6,2.589-1.734,3.987l-5.772,7.067h7.506v2.355Z" transform="translate(-1616.779 -1459.381)" fill="none" stroke="#7300cc" stroke-width="1"></path>       </g>       <g id="g56" transform="translate(30.728 15.925)">         <path id="path58" d="M2177.48,1508.407h-2.372l-3.658-12.59-3.634,12.59h-2.371l-4.694-17.964h2.877l3.128,12.843,3.608-12.843h2.2l3.608,12.843,3.129-12.843h2.877Z" transform="translate(-2160.752 -1490.443)" fill="none" stroke="#7300cc" stroke-width="1"></path>       </g>       <g id="g60" transform="translate(15.595 38.454)">         <path id="path62" d="M1405.972,2616.779V2620h.445a1.7,1.7,0,0,0,1.135-.377,1.57,1.57,0,0,0,.445-1.259,1.872,1.872,0,0,0-.214-.908,1.1,1.1,0,0,0-.621-.536,2.379,2.379,0,0,0-.777-.141Zm-1.132-.985h1.78a2.434,2.434,0,0,1,1.835.719,2.613,2.613,0,0,1,.695,1.894,2.542,2.542,0,0,1-.717,1.891,2.591,2.591,0,0,1-1.909.711h-1.684Z" transform="translate(-1404.84 -2615.794)" fill="none" stroke="#7300cc" stroke-width="0.5"></path>       </g>       <path id="path64" d="M1661.14,2615.821h1.124v5.215h-1.124Z" transform="translate(-1640.414 -2577.367)" fill="none" stroke="#7300cc" stroke-width="0.5"></path>       <g id="g66" transform="translate(22.609 38.383)">         <path id="path68" d="M1759.909,2613.446l-.747.7a1.609,1.609,0,0,0-.58-.605,1.417,1.417,0,0,0-.723-.2,1.433,1.433,0,0,0-1.062.465,1.522,1.522,0,0,0-.45,1.1,1.575,1.575,0,0,0,.45,1.137,1.455,1.455,0,0,0,1.086.467,1.372,1.372,0,0,0,.665-.175,1.235,1.235,0,0,0,.515-.655h-1.236v-1.017h2.407v.675a2.205,2.205,0,0,1-.357,1.118,2.168,2.168,0,0,1-.941.874,2.743,2.743,0,0,1-1.18.276,2.416,2.416,0,0,1-1.823-.783,2.7,2.7,0,0,1-.742-1.934,2.56,2.56,0,0,1,.765-1.867,2.5,2.5,0,0,1,1.841-.774,2.342,2.342,0,0,1,2.113,1.2" transform="translate(-1755.191 -2612.243)" fill="none" stroke="#7300cc" stroke-width="0.5"></path>       </g>       <path id="path70" d="M2046.189,2615.821h1.124v5.215h-1.124Z" transform="translate(-2017.754 -2577.367)" fill="none" stroke="#7300cc" stroke-width="0.5"></path>       <g id="g72" transform="translate(30.246 38.454)">         <path id="path74" d="M2136.68,2615.81h3.507v1.108h-1.2v4.107h-1.124v-4.107h-1.187Z" transform="translate(-2136.68 -2615.81)" fill="none" stroke="#7300cc" stroke-width="0.5"></path>       </g>       <g id="g76" transform="translate(33.654 38.454)">         <path id="path78" d="M2309.423,2617.51l-.613,1.537h1.239Zm-.436-1.708h.871l2.125,5.215h-1.131l-.417-1.025h-2l-.409,1.025H2306.9Z" transform="translate(-2306.899 -2615.802)" fill="none" stroke="#7300cc" stroke-width="0.5"></path>       </g>       <g id="g80" transform="translate(39.551 38.454)">         <path id="path82" d="M2601.486,2615.81h1.116v4.09h1.537v1.124h-2.652Z" transform="translate(-2601.486 -2615.81)" fill="none" stroke="#7300cc" stroke-width="0.5"></path>       </g>     </g>     <g id="Grupo_4321" data-name="Grupo 4321" transform="translate(29.183 42.706)">       <path id="Caminho_17008" data-name="Caminho 17008" d="M-347.93,372h0a1.983,1.983,0,0,0-2,1.957v.1h4.046A2.1,2.1,0,0,0-347.93,372m-.457-1.833h.913a4.032,4.032,0,0,1,3.351,1.765c.834,1.23.584,2.3.707,3.7h-6.51v.052a1.983,1.983,0,0,0,2,1.958h0a2.009,2.009,0,0,0,1.5-.665h2.773a4.042,4.042,0,0,1-3.812,2.673h-.913a4.005,4.005,0,0,1-4.031-3.956v-1.572A4.006,4.006,0,0,1-348.387,370.17Zm26.923,15.533h0a1.984,1.984,0,0,0-2,1.958v.1h4.046A2.1,2.1,0,0,0-321.464,385.7Zm-.456-1.832h.913a4.031,4.031,0,0,1,3.351,1.764c.834,1.231.584,2.3.707,3.7h-6.51v.053a1.983,1.983,0,0,0,2,1.958h0a2.008,2.008,0,0,0,1.5-.665h2.773a4.041,4.041,0,0,1-3.812,2.673h-.913a4.006,4.006,0,0,1-4.031-3.955v-1.572A4.006,4.006,0,0,1-321.92,383.87Zm-4.743,2.395H-327.8a2.026,2.026,0,0,0-1.423.582,1.952,1.952,0,0,0-.593,1.4v4.931h-2.239v-4.931a4.125,4.125,0,0,1,1.249-2.95,4.285,4.285,0,0,1,3.006-1.225h1.136Zm-11.86,6.91-3.087-9.121h2.446l1.864,6.122,1.625-5.338a1.159,1.159,0,0,1,1.167-.785h1.518l-3.087,9.121Zm-7.205-9.971v-2.384h2.446V383.2Zm0,9.971v-9.133h2.446v9.133Zm-4.788,0V382.212c0-.751,1.3-1.393,2.446-1.393v12.355Zm30.243-18.015c-.855,0-3.3.44-3.3,1.759a1.273,1.273,0,0,0,1.321,1.212h0a1.91,1.91,0,0,0,1.982-1.818Zm-2.618-4.885h2.415a2.706,2.706,0,0,1,2.724,2.673v3.245a2.9,2.9,0,0,1-.7,2.1,3.656,3.656,0,0,1-2.931,1.465h-1.724a2.822,2.822,0,0,1-2.84-2.786v-.219c0-2.228,2.168-2.786,4.1-2.786a2.559,2.559,0,0,0,1.577-.582V372.36a1.933,1.933,0,0,0-1.515-.47,1.347,1.347,0,0,0-1.529,1.383h-2.3v-.324A2.707,2.707,0,0,1-322.892,370.275Zm21.231,2.007a1.983,1.983,0,0,0-1.984,1.959v1.55a1.983,1.983,0,0,0,1.984,1.958,1.983,1.983,0,0,0,1.985-1.958v-1.55A1.983,1.983,0,0,0-301.661,372.282Zm-.445-2.007h.913a4.026,4.026,0,0,1,3.968,3.26h-.022a3.921,3.921,0,0,1,.063.7V375.8a3.823,3.823,0,0,1-.023.417h.023a4.018,4.018,0,0,1-4.009,3.538h-.936a4.019,4.019,0,0,1-4.009-3.538h.023a3.949,3.949,0,0,1-.023-.417V374.23a3.9,3.9,0,0,1,.063-.7h-.022a4.026,4.026,0,0,1,3.968-3.26Zm-7.956,3.431-.087-.171a2,2,0,0,0-1.861-1.253h0a1.983,1.983,0,0,0-2,1.959v1.55a1.983,1.983,0,0,0,2,1.958h0a2,2,0,0,0,1.947-1.531Zm-2.4-3.431a3.787,3.787,0,0,1,2.4,1.089v-2.573a1.78,1.78,0,0,1,1.792-1.758h.712v9.185h.014a4.018,4.018,0,0,1-4.009,3.538h-.913A4.006,4.006,0,0,1-316.5,375.8V374.23A4.005,4.005,0,0,1-312.465,370.275Zm-19.329,0h.912a4.025,4.025,0,0,1,3.968,3.26h-2.564a2.172,2.172,0,0,0-1.861-1.428h0a1.983,1.983,0,0,0-2,1.958v1.727a1.983,1.983,0,0,0,2,1.958h0a2,2,0,0,0,1.947-1.531h2.518a4.019,4.019,0,0,1-4.009,3.538h-.912a4.006,4.006,0,0,1-4.032-3.956V374.23A4.005,4.005,0,0,1-331.794,370.275Zm-4.714,2.14h-1.136a2.029,2.029,0,0,0-1.423.582,1.955,1.955,0,0,0-.593,1.4v4.931h-2.24v-4.931a4.128,4.128,0,0,1,1.249-2.95,4.285,4.285,0,0,1,3.006-1.226h1.136Zm-19.415,6.909v-5.372a1.518,1.518,0,0,0-.461-1.085,1.58,1.58,0,0,0-1.106-.453h-.285a1.58,1.58,0,0,0-1.106.453,1.519,1.519,0,0,0-.461,1.085v5.372h-2.24v-5.372a1.518,1.518,0,0,0-.461-1.085,1.58,1.58,0,0,0-1.106-.453h-.285a1.581,1.581,0,0,0-1.106.453,1.519,1.519,0,0,0-.461,1.085v5.372h-2.239v-5.372a3.688,3.688,0,0,1,1.117-2.638,3.834,3.834,0,0,1,2.69-1.1h.285a3.833,3.833,0,0,1,2.687,1.094,3.834,3.834,0,0,1,2.688-1.094h.285a3.833,3.833,0,0,1,2.69,1.1,3.687,3.687,0,0,1,1.118,2.638v5.372Z" transform="translate(367.243 -336.412)" fill="#7300cc"></path>       <path id="Caminho_17009" data-name="Caminho 17009" d="M-279.838,269.573c0,7.758-9.057,14.048-20.229,14.048s-20.229-6.289-20.229-14.048,9.057-14.048,20.229-14.048S-279.838,261.815-279.838,269.573Z" transform="translate(333.188 -255.525)" fill="#7300cc"></path>       <path id="Caminho_17010" data-name="Caminho 17010" d="M-278.518,269.981c0,6.914-8.65,12.519-19.321,12.519s-19.32-5.605-19.32-12.519,8.65-12.518,19.32-12.518S-278.518,263.068-278.518,269.981Z" transform="translate(330.913 -256.931)" fill="#fff"></path>       <path id="Caminho_17011" data-name="Caminho 17011" d="M-252.308,286.235" transform="translate(283.871 -277.802)" fill="#fff" stroke="#0b2464" stroke-miterlimit="10" stroke-width="1"></path>       <path id="Caminho_17012" data-name="Caminho 17012" d="M-263.43,280.213" transform="translate(291.938 -273.433)" fill="#fff" stroke="#0b2464" stroke-miterlimit="10" stroke-width="1"></path>       <path id="Caminho_17013" data-name="Caminho 17013" d="M-279.228,279.105l-.034-.287a10.84,10.84,0,0,0-4.244-7.023l-.177-.144-.2.11a11.767,11.767,0,0,1-10.992.241c-5.266-2.361-7.876.372-7.978.483l-.609.623a29.093,29.093,0,0,0-4.394.3,16.043,16.043,0,0,1-5.739-1.853l-.191-.1-.168.131a10.854,10.854,0,0,0-4.518,7.447l.336.031-.049.333a22.95,22.95,0,0,1,8.03,2.793l.065.037a1.956,1.956,0,0,0-.117.645,1.98,1.98,0,0,0,1.978,1.978,1.7,1.7,0,0,0,.206-.013,2,2,0,0,0,1.158,1.4,1.915,1.915,0,0,0,1.421-.013,2.109,2.109,0,0,0,1.184,1.313,2.087,2.087,0,0,0,1.517,0,2.191,2.191,0,0,0,2.087,1.522,2.194,2.194,0,0,0,1.53-.624,4.59,4.59,0,0,0,1.942.52,1.99,1.99,0,0,0,1.518-.615c.9.023,2.4-.278,2.764-1.534a2.772,2.772,0,0,0,2.676-2.061,3.02,3.02,0,0,0,1.9-.712,1.8,1.8,0,0,0,.329-2.108c.553-.3,2.392-1.057,8.488-2.754Z" transform="translate(331.864 -266.783)" fill="#7300cc"></path>       <path id="Caminho_17014" data-name="Caminho 17014" d="M-278.555,314.844l-.055-.52-.451.265a1.509,1.509,0,0,1-1.332.152,1.554,1.554,0,0,1-.884-1.233l-.086-.488-.422.26a1.347,1.347,0,0,1-1.212.161,1.423,1.423,0,0,1-.808-1.219l-.045-.4-.388.118a1.285,1.285,0,0,1-.376.063,1.305,1.305,0,0,1-1.3-1.3,1.294,1.294,0,0,1,.1-.505l.066-.119a1.319,1.319,0,0,1,.471-.491l.023-.013a1.3,1.3,0,0,1,.262-.113c.021-.006.041-.014.062-.019a1.266,1.266,0,0,1,.317-.044,1.3,1.3,0,0,1,1.128.664l.2.353.31-.262a1.443,1.443,0,0,1,1.449-.328,1.331,1.331,0,0,1,.755.949l.124.478.4-.289a1.564,1.564,0,0,1,1.5-.262,1.824,1.824,0,0,1,.873,2.135l-.105.537.527-.148a1.513,1.513,0,0,1,.412-.065,1.531,1.531,0,0,1,1.529,1.529,1.547,1.547,0,0,1-.028.276c-.009.048-.023.094-.037.141s-.02.071-.033.105a1.5,1.5,0,0,1-.086.191l-.014.026a1.651,1.651,0,0,1-.139.206l-.024.031a1.518,1.518,0,0,1-1.168.554A1.521,1.521,0,0,1-278.555,314.844Z" transform="translate(308.252 -294.6)" fill="#fff"></path>       <path id="Caminho_17015" data-name="Caminho 17015" d="M-287.685,286.42a2.375,2.375,0,0,1-1.445.5l-3.343-3.062c-.135-.128-.3-.222-.429-.088s.01.358.144.487l3.033,3.026a2.118,2.118,0,0,1-2.152,1.7l-2.093-2.175c-.124-.138-.3-.274-.443-.149s.01.32.134.458l1.869,2.281c-.229.953-1.437,1.1-1.984,1.115l-2.026-2.1c-.124-.138-.292-.26-.43-.135s-.015.329.109.468l1.669,2.021c-.741.719-2.09.172-2.517-.03.012-.022.021-.046.032-.068.026-.052.052-.1.074-.158a2.128,2.128,0,0,0,.1-.32c.007-.032.013-.064.018-.1a2.148,2.148,0,0,0,.039-.388,2.2,2.2,0,0,0-2.316-2.2,2.37,2.37,0,0,0-1.34-2.413,2.12,2.12,0,0,0-1.774.111,2.144,2.144,0,0,0-.166-.289c-.007-.011-.012-.023-.02-.034-.02-.029-.045-.052-.066-.079a1.828,1.828,0,0,0-.751-.585,2.009,2.009,0,0,0-1.843.221,2,2,0,0,0-.289-.274c-.007-.005-.013-.013-.02-.019a2.021,2.021,0,0,0-.177-.108,1.947,1.947,0,0,0-1.012-.3,1.956,1.956,0,0,0-.357.036l-.063.011a2,2,0,0,0-.293.091c-.035.014-.07.028-.1.044a1.939,1.939,0,0,0-.238.129c-.043.027-.082.057-.122.087s-.08.064-.119.1a1.93,1.93,0,0,0-.2.2c-.013.015-.028.029-.041.046l-.055-.032a23.732,23.732,0,0,0-7.552-2.759c-.134-.024-.547-.045-.673-.066a10.478,10.478,0,0,1,4.035-6.667c.1.046.495.226.589.271a15.856,15.856,0,0,0,5.553,1.693l.033,0,.033,0a37.243,37.243,0,0,1,3.781-.324l-2.632,2.7.132.222a2.068,2.068,0,0,0,1.9.987,5.341,5.341,0,0,0,2.022-.473l.048-.028s1.032-.715,2.435-1.669l.391-.267a1.9,1.9,0,0,1,2.359-.071c.058.045,5.8,4.557,7.882,6.3l.784.627A1.119,1.119,0,0,1-287.685,286.42Z" transform="translate(330.738 -269.624)" fill="#fff"></path>       <path id="Caminho_17016" data-name="Caminho 17016" d="M-254.953,283.228l-.609-.486c-2.085-1.742-7.834-6.259-7.878-6.293a2.585,2.585,0,0,0-3.17.034l-.389.265.189.279-.189-.278c-1.279.87-2.25,1.541-2.415,1.655-.227.1-2.056.872-2.885-.054l2.729-2.874.7-.715c.023-.025,2.385-2.5,7.214-.332a12.65,12.65,0,0,0,10.6.231c.267-.119.9-.434,1.167-.573a10.419,10.419,0,0,1,3.809,6.228C-252.325,282.057-254.419,282.9-254.953,283.228Z" transform="translate(298.372 -268.592)" fill="#fff"></path>     </g>   </g> </svg>