<svg id="Componente_33_1" data-name="Componente 33 – 1" xmlns="http://www.w3.org/2000/svg" width="109.259" height="99.646" viewBox="0 0 109.259 99.646">   <path id="Caminho_17386" data-name="Caminho 17386" d="M380.156,115.26a.657.657,0,1,0,.657.657A.657.657,0,0,0,380.156,115.26Z" transform="translate(-298.515 -95.47)" fill="#7300cc"></path>   <path id="Caminho_17387" data-name="Caminho 17387" d="M369.854,125.563a.657.657,0,1,0,.657.657A.657.657,0,0,0,369.854,125.563Z" transform="translate(-290.411 -103.575)" fill="#7300cc"></path>   <path id="Caminho_17388" data-name="Caminho 17388" d="M380.156,135.119a.657.657,0,1,0,.657.657A.657.657,0,0,0,380.156,135.119Z" transform="translate(-298.515 -111.092)" fill="#7300cc"></path>   <path id="Caminho_17389" data-name="Caminho 17389" d="M369.854,145.421a.657.657,0,1,0,.657.657A.657.657,0,0,0,369.854,145.421Z" transform="translate(-290.411 -119.195)" fill="#7300cc"></path>   <path id="Caminho_17390" data-name="Caminho 17390" d="M380.156,154.977a.657.657,0,1,0,.657.657A.657.657,0,0,0,380.156,154.977Z" transform="translate(-298.515 -126.712)" fill="#7300cc"></path>   <path id="Caminho_17391" data-name="Caminho 17391" d="M369.854,165.28a.657.657,0,1,0,.657.657A.657.657,0,0,0,369.854,165.28Z" transform="translate(-290.411 -134.816)" fill="#7300cc"></path>   <path id="Caminho_17392" data-name="Caminho 17392" d="M360.3,115.26a.657.657,0,1,0,.657.657A.657.657,0,0,0,360.3,115.26Z" transform="translate(-282.895 -95.47)" fill="#7300cc"></path>   <circle id="Elipse_200" data-name="Elipse 200" cx="0.657" cy="0.657" r="0.657" transform="translate(74.548 21.988)" fill="#7300cc"></circle>   <path id="Caminho_17393" data-name="Caminho 17393" d="M360.3,135.119a.657.657,0,1,0,.657.657A.657.657,0,0,0,360.3,135.119Z" transform="translate(-282.895 -111.092)" fill="#7300cc"></path>   <path id="Caminho_17394" data-name="Caminho 17394" d="M350,145.421a.657.657,0,1,0,.657.657A.657.657,0,0,0,350,145.421Z" transform="translate(-274.79 -119.195)" fill="#7300cc"></path>   <path id="Caminho_17395" data-name="Caminho 17395" d="M360.3,154.977a.657.657,0,1,0,.657.657A.657.657,0,0,0,360.3,154.977Z" transform="translate(-282.895 -126.712)" fill="#7300cc"></path>   <circle id="Elipse_201" data-name="Elipse 201" cx="0.657" cy="0.657" r="0.657" transform="translate(74.548 30.464)" fill="#7300cc"></circle>   <path id="Caminho_17396" data-name="Caminho 17396" d="M360.3,174.835a.657.657,0,1,0,.657.657A.657.657,0,0,0,360.3,174.835Z" transform="translate(-282.895 -142.332)" fill="#7300cc"></path>   <path id="Caminho_17397" data-name="Caminho 17397" d="M340.44,115.26a.657.657,0,1,0,.657.657A.657.657,0,0,0,340.44,115.26Z" transform="translate(-267.274 -95.47)" fill="#7300cc"></path>   <path id="Caminho_17398" data-name="Caminho 17398" d="M330.137,125.563a.657.657,0,1,0,.657.657A.657.657,0,0,0,330.137,125.563Z" transform="translate(-259.17 -103.575)" fill="#7300cc"></path>   <path id="Caminho_17399" data-name="Caminho 17399" d="M340.44,135.119a.657.657,0,1,0,.657.657A.657.657,0,0,0,340.44,135.119Z" transform="translate(-267.274 -111.092)" fill="#7300cc"></path>   <path id="Caminho_17400" data-name="Caminho 17400" d="M330.137,145.421a.657.657,0,1,0,.657.657A.657.657,0,0,0,330.137,145.421Z" transform="translate(-259.17 -119.195)" fill="#7300cc"></path>   <path id="Caminho_17401" data-name="Caminho 17401" d="M340.44,154.977a.657.657,0,1,0,.657.657A.657.657,0,0,0,340.44,154.977Z" transform="translate(-267.274 -126.712)" fill="#7300cc"></path>   <path id="Caminho_17402" data-name="Caminho 17402" d="M330.137,165.28a.657.657,0,1,0,.657.657A.657.657,0,0,0,330.137,165.28Z" transform="translate(-259.17 -134.816)" fill="#7300cc"></path>   <path id="Caminho_17403" data-name="Caminho 17403" d="M340.44,174.835a.657.657,0,1,0,.657.657A.657.657,0,0,0,340.44,174.835Z" transform="translate(-267.274 -142.332)" fill="#7300cc"></path>   <path id="Caminho_17404" data-name="Caminho 17404" d="M320.58,115.26a.657.657,0,1,0,.657.657A.658.658,0,0,0,320.58,115.26Z" transform="translate(-251.652 -95.47)" fill="#7300cc"></path>   <path id="Caminho_17405" data-name="Caminho 17405" d="M310.278,125.563a.657.657,0,1,0,.657.657A.657.657,0,0,0,310.278,125.563Z" transform="translate(-243.549 -103.575)" fill="#7300cc"></path>   <path id="Caminho_17406" data-name="Caminho 17406" d="M320.58,135.119a.657.657,0,1,0,.657.657A.658.658,0,0,0,320.58,135.119Z" transform="translate(-251.652 -111.092)" fill="#7300cc"></path>   <path id="Caminho_17407" data-name="Caminho 17407" d="M310.278,145.421a.657.657,0,1,0,.657.657A.657.657,0,0,0,310.278,145.421Z" transform="translate(-243.549 -119.195)" fill="#7300cc"></path>   <path id="Caminho_17408" data-name="Caminho 17408" d="M320.58,154.977a.657.657,0,1,0,.657.657A.657.657,0,0,0,320.58,154.977Z" transform="translate(-251.652 -126.712)" fill="#7300cc"></path>   <circle id="Elipse_202" data-name="Elipse 202" cx="0.657" cy="0.657" r="0.657" transform="translate(40.646 21.988)" fill="#7300cc"></circle>   <path id="Caminho_17409" data-name="Caminho 17409" d="M191.127,145.421a.657.657,0,1,0,.657.657A.657.657,0,0,0,191.127,145.421Z" transform="translate(-149.824 -119.195)" fill="#7300cc"></path>   <path id="Caminho_17410" data-name="Caminho 17410" d="M181.572,115.26a.657.657,0,1,0,.657.657A.657.657,0,0,0,181.572,115.26Z" transform="translate(-142.309 -95.47)" fill="#7300cc"></path>   <path id="Caminho_17411" data-name="Caminho 17411" d="M171.269,125.563a.657.657,0,1,0,.657.657A.657.657,0,0,0,171.269,125.563Z" transform="translate(-134.204 -103.575)" fill="#7300cc"></path>   <path id="Caminho_17412" data-name="Caminho 17412" d="M181.572,135.119a.657.657,0,1,0,.657.657A.657.657,0,0,0,181.572,135.119Z" transform="translate(-142.309 -111.092)" fill="#7300cc"></path>   <path id="Caminho_17413" data-name="Caminho 17413" d="M171.269,145.421a.657.657,0,1,0,.657.657A.657.657,0,0,0,171.269,145.421Z" transform="translate(-134.204 -119.195)" fill="#7300cc"></path>   <path id="Caminho_17414" data-name="Caminho 17414" d="M181.572,154.977a.657.657,0,1,0,.657.657A.657.657,0,0,0,181.572,154.977Z" transform="translate(-142.309 -126.712)" fill="#7300cc"></path>   <path id="Caminho_17415" data-name="Caminho 17415" d="M171.269,165.28a.657.657,0,1,0,.657.657A.657.657,0,0,0,171.269,165.28Z" transform="translate(-134.204 -134.816)" fill="#7300cc"></path>   <circle id="Elipse_203" data-name="Elipse 203" cx="0.657" cy="0.657" r="0.657" transform="translate(34.369 19.79)" fill="#7300cc"></circle>   <circle id="Elipse_204" data-name="Elipse 204" cx="0.657" cy="0.657" r="0.657" transform="translate(32.17 21.988)" fill="#7300cc"></circle>   <path id="Caminho_17416" data-name="Caminho 17416" d="M161.713,135.119a.657.657,0,1,0,.657.657A.657.657,0,0,0,161.713,135.119Z" transform="translate(-126.688 -111.092)" fill="#7300cc"></path>   <path id="Caminho_17417" data-name="Caminho 17417" d="M151.41,145.421a.657.657,0,1,0,.657.657A.657.657,0,0,0,151.41,145.421Z" transform="translate(-118.583 -119.195)" fill="#7300cc"></path>   <path id="Caminho_17418" data-name="Caminho 17418" d="M161.713,154.977a.657.657,0,1,0,.657.657A.657.657,0,0,0,161.713,154.977Z" transform="translate(-126.688 -126.712)" fill="#7300cc"></path>   <circle id="Elipse_205" data-name="Elipse 205" cx="0.657" cy="0.657" r="0.657" transform="translate(32.17 30.464)" fill="#7300cc"></circle>   <path id="Caminho_17419" data-name="Caminho 17419" d="M161.713,174.835a.657.657,0,1,0,.657.657A.657.657,0,0,0,161.713,174.835Z" transform="translate(-126.688 -142.332)" fill="#7300cc"></path>   <path id="Caminho_17420" data-name="Caminho 17420" d="M141.855,115.26a.657.657,0,1,0,.657.657A.657.657,0,0,0,141.855,115.26Z" transform="translate(-111.066 -95.47)" fill="#7300cc"></path>   <path id="Caminho_17421" data-name="Caminho 17421" d="M131.552,125.563a.657.657,0,1,0,.657.657A.657.657,0,0,0,131.552,125.563Z" transform="translate(-102.963 -103.575)" fill="#7300cc"></path>   <path id="Caminho_17422" data-name="Caminho 17422" d="M141.855,135.119a.657.657,0,1,0,.657.657A.657.657,0,0,0,141.855,135.119Z" transform="translate(-111.066 -111.092)" fill="#7300cc"></path>   <path id="Caminho_17423" data-name="Caminho 17423" d="M131.552,145.421a.657.657,0,1,0,.657.657A.657.657,0,0,0,131.552,145.421Z" transform="translate(-102.963 -119.195)" fill="#7300cc"></path>   <path id="Caminho_17424" data-name="Caminho 17424" d="M141.855,154.977a.657.657,0,1,0,.657.657A.657.657,0,0,0,141.855,154.977Z" transform="translate(-111.066 -126.712)" fill="#7300cc"></path>   <path id="Caminho_17425" data-name="Caminho 17425" d="M131.552,165.28a.657.657,0,1,0,.657.657A.657.657,0,0,0,131.552,165.28Z" transform="translate(-102.963 -134.816)" fill="#7300cc"></path>   <path id="Caminho_17426" data-name="Caminho 17426" d="M141.855,174.835a.657.657,0,1,0,.657.657A.657.657,0,0,0,141.855,174.835Z" transform="translate(-111.066 -142.332)" fill="#7300cc"></path>   <path id="Caminho_17427" data-name="Caminho 17427" d="M122,115.26a.657.657,0,1,0,.657.657A.657.657,0,0,0,122,115.26Z" transform="translate(-95.445 -95.47)" fill="#7300cc"></path>   <path id="Caminho_17428" data-name="Caminho 17428" d="M122,135.119a.657.657,0,1,0,.657.657A.657.657,0,0,0,122,135.119Z" transform="translate(-95.445 -111.092)" fill="#7300cc"></path>   <path id="Caminho_17429" data-name="Caminho 17429" d="M122,154.977a.657.657,0,1,0,.657.657A.657.657,0,0,0,122,154.977Z" transform="translate(-95.445 -126.712)" fill="#7300cc"></path>   <path id="Caminho_17430" data-name="Caminho 17430" d="M100.518,123.368a.721.721,0,1,0-.721-.721A.721.721,0,0,0,100.518,123.368Z" transform="translate(-78.501 -100.714)" fill="#7300cc"></path>   <path id="Caminho_17431" data-name="Caminho 17431" d="M100.518,145.146a.721.721,0,1,0-.721-.721A.721.721,0,0,0,100.518,145.146Z" transform="translate(-78.501 -117.845)" fill="#7300cc"></path>   <path id="Caminho_17432" data-name="Caminho 17432" d="M90.039,112.069a.721.721,0,1,0-.721-.721A.721.721,0,0,0,90.039,112.069Z" transform="translate(-70.258 -91.826)" fill="#7300cc"></path>   <path id="Caminho_17433" data-name="Caminho 17433" d="M78.74,123.368a.721.721,0,1,0-.721-.721A.721.721,0,0,0,78.74,123.368Z" transform="translate(-61.37 -100.714)" fill="#7300cc"></path>   <path id="Caminho_17434" data-name="Caminho 17434" d="M90.039,133.847a.721.721,0,1,0-.721-.721A.721.721,0,0,0,90.039,133.847Z" transform="translate(-70.258 -108.957)" fill="#7300cc"></path>   <path id="Caminho_17435" data-name="Caminho 17435" d="M78.74,145.146a.721.721,0,1,0-.721-.721A.721.721,0,0,0,78.74,145.146Z" transform="translate(-61.37 -117.845)" fill="#7300cc"></path>   <path id="Caminho_17436" data-name="Caminho 17436" d="M90.039,155.625a.721.721,0,1,0-.721-.721A.721.721,0,0,0,90.039,155.625Z" transform="translate(-70.258 -126.088)" fill="#7300cc"></path>   <path id="Caminho_17437" data-name="Caminho 17437" d="M78.74,166.924a.721.721,0,1,0-.721-.721A.721.721,0,0,0,78.74,166.924Z" transform="translate(-61.37 -134.975)" fill="#7300cc"></path>   <path id="Caminho_17438" data-name="Caminho 17438" d="M68.261,112.069a.721.721,0,1,0-.721-.721A.721.721,0,0,0,68.261,112.069Z" transform="translate(-53.127 -91.826)" fill="#7300cc"></path>   <path id="Caminho_17439" data-name="Caminho 17439" d="M56.962,123.368a.721.721,0,1,0-.721-.721A.721.721,0,0,0,56.962,123.368Z" transform="translate(-44.239 -100.714)" fill="#7300cc"></path>   <path id="Caminho_17440" data-name="Caminho 17440" d="M68.261,133.847a.721.721,0,1,0-.721-.721A.721.721,0,0,0,68.261,133.847Z" transform="translate(-53.127 -108.957)" fill="#7300cc"></path>   <path id="Caminho_17441" data-name="Caminho 17441" d="M56.962,145.146a.721.721,0,1,0-.721-.721A.721.721,0,0,0,56.962,145.146Z" transform="translate(-44.239 -117.845)" fill="#7300cc"></path>   <path id="Caminho_17442" data-name="Caminho 17442" d="M68.261,155.625a.721.721,0,1,0-.721-.721A.721.721,0,0,0,68.261,155.625Z" transform="translate(-53.127 -126.088)" fill="#7300cc"></path>   <path id="Caminho_17443" data-name="Caminho 17443" d="M56.962,166.924a.721.721,0,1,0-.721-.721A.721.721,0,0,0,56.962,166.924Z" transform="translate(-44.239 -134.975)" fill="#7300cc"></path>   <path id="Caminho_17444" data-name="Caminho 17444" d="M68.261,177.4a.721.721,0,1,0-.721-.721A.721.721,0,0,0,68.261,177.4Z" transform="translate(-53.127 -143.217)" fill="#7300cc"></path>   <path id="Caminho_17445" data-name="Caminho 17445" d="M46.483,112.069a.721.721,0,1,0-.721-.721A.721.721,0,0,0,46.483,112.069Z" transform="translate(-35.997 -91.826)" fill="#7300cc"></path>   <path id="Caminho_17446" data-name="Caminho 17446" d="M35.184,123.368a.721.721,0,1,0-.721-.721A.721.721,0,0,0,35.184,123.368Z" transform="translate(-27.109 -100.714)" fill="#7300cc"></path>   <path id="Caminho_17447" data-name="Caminho 17447" d="M46.483,133.847a.721.721,0,1,0-.721-.721A.721.721,0,0,0,46.483,133.847Z" transform="translate(-35.997 -108.957)" fill="#7300cc"></path>   <path id="Caminho_17448" data-name="Caminho 17448" d="M35.184,145.146a.721.721,0,1,0-.721-.721A.721.721,0,0,0,35.184,145.146Z" transform="translate(-27.109 -117.845)" fill="#7300cc"></path>   <path id="Caminho_17449" data-name="Caminho 17449" d="M46.483,155.625a.721.721,0,1,0-.721-.721A.721.721,0,0,0,46.483,155.625Z" transform="translate(-35.997 -126.088)" fill="#7300cc"></path>   <path id="Caminho_17450" data-name="Caminho 17450" d="M35.184,166.924a.721.721,0,1,0-.721-.721A.721.721,0,0,0,35.184,166.924Z" transform="translate(-27.109 -134.975)" fill="#7300cc"></path>   <path id="Caminho_17451" data-name="Caminho 17451" d="M24.7,110.627a.721.721,0,1,0,.721.721A.721.721,0,0,0,24.7,110.627Z" transform="translate(-18.866 -91.826)" fill="#7300cc"></path>   <path id="Caminho_17452" data-name="Caminho 17452" d="M24.7,132.4a.721.721,0,1,0,.721.721A.721.721,0,0,0,24.7,132.4Z" transform="translate(-18.866 -108.957)" fill="#7300cc"></path>   <path id="Caminho_17453" data-name="Caminho 17453" d="M286.04,112.069a.721.721,0,1,0-.721-.721A.721.721,0,0,0,286.04,112.069Z" transform="translate(-224.433 -91.826)" fill="#7300cc"></path>   <path id="Caminho_17454" data-name="Caminho 17454" d="M274.741,123.368a.721.721,0,1,0-.721-.721A.721.721,0,0,0,274.741,123.368Z" transform="translate(-215.545 -100.714)" fill="#7300cc"></path>   <path id="Caminho_17455" data-name="Caminho 17455" d="M286.04,133.847a.721.721,0,1,0-.721-.721A.721.721,0,0,0,286.04,133.847Z" transform="translate(-224.433 -108.957)" fill="#7300cc"></path>   <path id="Caminho_17456" data-name="Caminho 17456" d="M274.741,145.146a.721.721,0,1,0-.721-.721A.721.721,0,0,0,274.741,145.146Z" transform="translate(-215.545 -117.845)" fill="#7300cc"></path>   <path id="Caminho_17457" data-name="Caminho 17457" d="M286.04,155.625a.721.721,0,1,0-.721-.721A.721.721,0,0,0,286.04,155.625Z" transform="translate(-224.433 -126.088)" fill="#7300cc"></path>   <path id="Caminho_17458" data-name="Caminho 17458" d="M274.741,166.924a.721.721,0,1,0-.721-.721A.721.721,0,0,0,274.741,166.924Z" transform="translate(-215.545 -134.975)" fill="#7300cc"></path>   <path id="Caminho_17459" data-name="Caminho 17459" d="M264.262,112.069a.721.721,0,1,0-.721-.721A.721.721,0,0,0,264.262,112.069Z" transform="translate(-207.302 -91.826)" fill="#7300cc"></path>   <path id="Caminho_17460" data-name="Caminho 17460" d="M252.963,123.368a.721.721,0,1,0-.721-.721A.721.721,0,0,0,252.963,123.368Z" transform="translate(-198.414 -100.714)" fill="#7300cc"></path>   <path id="Caminho_17461" data-name="Caminho 17461" d="M264.262,133.847a.721.721,0,1,0-.721-.721A.721.721,0,0,0,264.262,133.847Z" transform="translate(-207.302 -108.957)" fill="#7300cc"></path>   <path id="Caminho_17462" data-name="Caminho 17462" d="M252.963,145.146a.721.721,0,1,0-.721-.721A.721.721,0,0,0,252.963,145.146Z" transform="translate(-198.414 -117.845)" fill="#7300cc"></path>   <path id="Caminho_17463" data-name="Caminho 17463" d="M264.262,155.625a.721.721,0,1,0-.721-.721A.721.721,0,0,0,264.262,155.625Z" transform="translate(-207.302 -126.088)" fill="#7300cc"></path>   <path id="Caminho_17464" data-name="Caminho 17464" d="M252.963,166.924a.721.721,0,1,0-.721-.721A.721.721,0,0,0,252.963,166.924Z" transform="translate(-198.414 -134.975)" fill="#7300cc"></path>   <path id="Caminho_17465" data-name="Caminho 17465" d="M264.262,177.4a.721.721,0,1,0-.721-.721A.721.721,0,0,0,264.262,177.4Z" transform="translate(-207.302 -143.217)" fill="#7300cc"></path>   <path id="Caminho_17466" data-name="Caminho 17466" d="M242.484,112.069a.721.721,0,1,0-.721-.721A.721.721,0,0,0,242.484,112.069Z" transform="translate(-190.172 -91.826)" fill="#7300cc"></path>   <path id="Caminho_17467" data-name="Caminho 17467" d="M231.185,123.368a.721.721,0,1,0-.721-.721A.721.721,0,0,0,231.185,123.368Z" transform="translate(-181.284 -100.714)" fill="#7300cc"></path>   <path id="Caminho_17468" data-name="Caminho 17468" d="M242.484,133.847a.721.721,0,1,0-.721-.721A.721.721,0,0,0,242.484,133.847Z" transform="translate(-190.172 -108.957)" fill="#7300cc"></path>   <path id="Caminho_17469" data-name="Caminho 17469" d="M231.185,145.146a.721.721,0,1,0-.721-.721A.721.721,0,0,0,231.185,145.146Z" transform="translate(-181.284 -117.845)" fill="#7300cc"></path>   <path id="Caminho_17470" data-name="Caminho 17470" d="M242.484,155.625a.721.721,0,1,0-.721-.721A.721.721,0,0,0,242.484,155.625Z" transform="translate(-190.172 -126.088)" fill="#7300cc"></path>   <path id="Caminho_17471" data-name="Caminho 17471" d="M231.185,166.924a.721.721,0,1,0-.721-.721A.721.721,0,0,0,231.185,166.924Z" transform="translate(-181.284 -134.975)" fill="#7300cc"></path>   <path id="Caminho_17472" data-name="Caminho 17472" d="M242.484,177.4a.721.721,0,1,0-.721-.721A.721.721,0,0,0,242.484,177.4Z" transform="translate(-190.172 -143.217)" fill="#7300cc"></path>   <path id="Caminho_17473" data-name="Caminho 17473" d="M220.706,112.069a.721.721,0,1,0-.721-.721A.721.721,0,0,0,220.706,112.069Z" transform="translate(-173.041 -91.826)" fill="#7300cc"></path>   <path id="Caminho_17474" data-name="Caminho 17474" d="M220.706,133.847a.721.721,0,1,0-.721-.721A.721.721,0,0,0,220.706,133.847Z" transform="translate(-173.041 -108.957)" fill="#7300cc"></path>   <path id="Caminho_17475" data-name="Caminho 17475" d="M220.706,155.625a.721.721,0,1,0-.721-.721A.721.721,0,0,0,220.706,155.625Z" transform="translate(-173.041 -126.088)" fill="#7300cc"></path>   <path id="Caminho_17476" data-name="Caminho 17476" d="M482.041,112.069a.721.721,0,1,0-.721-.721A.721.721,0,0,0,482.041,112.069Z" transform="translate(-378.607 -91.826)" fill="#7300cc"></path>   <path id="Caminho_17477" data-name="Caminho 17477" d="M470.742,123.368a.721.721,0,1,0-.721-.721A.721.721,0,0,0,470.742,123.368Z" transform="translate(-369.72 -100.714)" fill="#7300cc"></path>   <path id="Caminho_17478" data-name="Caminho 17478" d="M482.041,133.847a.721.721,0,1,0-.721-.721A.721.721,0,0,0,482.041,133.847Z" transform="translate(-378.607 -108.957)" fill="#7300cc"></path>   <path id="Caminho_17479" data-name="Caminho 17479" d="M470.742,145.146a.721.721,0,1,0-.721-.721A.721.721,0,0,0,470.742,145.146Z" transform="translate(-369.72 -117.845)" fill="#7300cc"></path>   <path id="Caminho_17480" data-name="Caminho 17480" d="M470.742,166.924a.721.721,0,1,0-.721-.721A.721.721,0,0,0,470.742,166.924Z" transform="translate(-369.72 -134.975)" fill="#7300cc"></path>   <path id="Caminho_17481" data-name="Caminho 17481" d="M460.263,112.069a.721.721,0,1,0-.721-.721A.721.721,0,0,0,460.263,112.069Z" transform="translate(-361.478 -91.826)" fill="#7300cc"></path>   <path id="Caminho_17482" data-name="Caminho 17482" d="M448.964,123.368a.721.721,0,1,0-.721-.721A.721.721,0,0,0,448.964,123.368Z" transform="translate(-352.589 -100.714)" fill="#7300cc"></path>   <path id="Caminho_17483" data-name="Caminho 17483" d="M460.263,133.847a.721.721,0,1,0-.721-.721A.721.721,0,0,0,460.263,133.847Z" transform="translate(-361.478 -108.957)" fill="#7300cc"></path>   <path id="Caminho_17484" data-name="Caminho 17484" d="M448.964,145.146a.721.721,0,1,0-.721-.721A.721.721,0,0,0,448.964,145.146Z" transform="translate(-352.589 -117.845)" fill="#7300cc"></path>   <path id="Caminho_17485" data-name="Caminho 17485" d="M460.263,155.625a.721.721,0,1,0-.721-.721A.721.721,0,0,0,460.263,155.625Z" transform="translate(-361.478 -126.088)" fill="#7300cc"></path>   <path id="Caminho_17486" data-name="Caminho 17486" d="M448.964,166.924a.721.721,0,1,0-.721-.721A.721.721,0,0,0,448.964,166.924Z" transform="translate(-352.589 -134.975)" fill="#7300cc"></path>   <path id="Caminho_17487" data-name="Caminho 17487" d="M438.485,112.069a.721.721,0,1,0-.721-.721A.721.721,0,0,0,438.485,112.069Z" transform="translate(-344.347 -91.826)" fill="#7300cc"></path>   <path id="Caminho_17488" data-name="Caminho 17488" d="M427.186,123.368a.721.721,0,1,0-.721-.721A.721.721,0,0,0,427.186,123.368Z" transform="translate(-335.459 -100.714)" fill="#7300cc"></path>   <path id="Caminho_17489" data-name="Caminho 17489" d="M438.485,133.847a.721.721,0,1,0-.721-.721A.721.721,0,0,0,438.485,133.847Z" transform="translate(-344.347 -108.957)" fill="#7300cc"></path>   <path id="Caminho_17490" data-name="Caminho 17490" d="M427.186,145.146a.721.721,0,1,0-.721-.721A.721.721,0,0,0,427.186,145.146Z" transform="translate(-335.459 -117.845)" fill="#7300cc"></path>   <path id="Caminho_17491" data-name="Caminho 17491" d="M438.485,155.625a.721.721,0,1,0-.721-.721A.721.721,0,0,0,438.485,155.625Z" transform="translate(-344.347 -126.088)" fill="#7300cc"></path>   <path id="Caminho_17492" data-name="Caminho 17492" d="M427.186,166.924a.721.721,0,1,0-.721-.721A.721.721,0,0,0,427.186,166.924Z" transform="translate(-335.459 -134.975)" fill="#7300cc"></path>   <path id="Caminho_17493" data-name="Caminho 17493" d="M438.485,177.4a.721.721,0,1,0-.721-.721A.721.721,0,0,0,438.485,177.4Z" transform="translate(-344.347 -143.217)" fill="#7300cc"></path>   <path id="Caminho_17494" data-name="Caminho 17494" d="M416.707,112.069a.721.721,0,1,0-.721-.721A.721.721,0,0,0,416.707,112.069Z" transform="translate(-327.216 -91.826)" fill="#7300cc"></path>   <path id="Caminho_17495" data-name="Caminho 17495" d="M405.408,123.368a.721.721,0,1,0-.721-.721A.721.721,0,0,0,405.408,123.368Z" transform="translate(-318.328 -100.714)" fill="#7300cc"></path>   <path id="Caminho_17496" data-name="Caminho 17496" d="M416.707,133.847a.721.721,0,1,0-.721-.721A.721.721,0,0,0,416.707,133.847Z" transform="translate(-327.216 -108.957)" fill="#7300cc"></path>   <path id="Caminho_17497" data-name="Caminho 17497" d="M405.408,145.146a.721.721,0,1,0-.721-.721A.721.721,0,0,0,405.408,145.146Z" transform="translate(-318.328 -117.845)" fill="#7300cc"></path>   <path id="Caminho_17498" data-name="Caminho 17498" d="M416.707,155.625a.721.721,0,1,0-.721-.721A.721.721,0,0,0,416.707,155.625Z" transform="translate(-327.216 -126.088)" fill="#7300cc"></path>   <path id="Caminho_17499" data-name="Caminho 17499" d="M462.432,202.765a.657.657,0,1,0,.657.657A.657.657,0,0,0,462.432,202.765Z" transform="translate(-363.233 -164.302)" fill="#7300cc"></path>   <path id="Caminho_17500" data-name="Caminho 17500" d="M462.432,222.623a.657.657,0,1,0,.657.657A.657.657,0,0,0,462.432,222.623Z" transform="translate(-363.233 -179.922)" fill="#7300cc"></path>   <path id="Caminho_17501" data-name="Caminho 17501" d="M462.432,242.482a.657.657,0,1,0,.657.657A.657.657,0,0,0,462.432,242.482Z" transform="translate(-363.233 -195.544)" fill="#7300cc"></path>   <path id="Caminho_17502" data-name="Caminho 17502" d="M462.432,262.34a.657.657,0,1,0,.657.657A.657.657,0,0,0,462.432,262.34Z" transform="translate(-363.233 -211.164)" fill="#7300cc"></path>   <path id="Caminho_17503" data-name="Caminho 17503" d="M462.432,282.2a.657.657,0,1,0,.657.657A.657.657,0,0,0,462.432,282.2Z" transform="translate(-363.233 -226.785)" fill="#7300cc"></path>   <path id="Caminho_17504" data-name="Caminho 17504" d="M462.432,302.058a.657.657,0,1,0,.657.657A.657.657,0,0,0,462.432,302.058Z" transform="translate(-363.233 -242.406)" fill="#7300cc"></path>   <path id="Caminho_17505" data-name="Caminho 17505" d="M462.432,321.916a.657.657,0,1,0,.657.657A.657.657,0,0,0,462.432,321.916Z" transform="translate(-363.233 -258.027)" fill="#7300cc"></path>   <path id="Caminho_17506" data-name="Caminho 17506" d="M462.432,341.774a.657.657,0,1,0,.657.657A.657.657,0,0,0,462.432,341.774Z" transform="translate(-363.233 -273.647)" fill="#7300cc"></path>   <path id="Caminho_17507" data-name="Caminho 17507" d="M462.432,361.633a.657.657,0,1,0,.657.657A.657.657,0,0,0,462.432,361.633Z" transform="translate(-363.233 -289.268)" fill="#7300cc"></path>   <path id="Caminho_17508" data-name="Caminho 17508" d="M462.432,381.491a.657.657,0,1,0,.657.657A.657.657,0,0,0,462.432,381.491Z" transform="translate(-363.233 -304.888)" fill="#7300cc"></path>   <path id="Caminho_17509" data-name="Caminho 17509" d="M462.432,401.35a.657.657,0,1,0,.657.657A.657.657,0,0,0,462.432,401.35Z" transform="translate(-363.233 -320.51)" fill="#7300cc"></path>   <path id="Caminho_17510" data-name="Caminho 17510" d="M452.876,212.32a.657.657,0,1,0,.657.657A.657.657,0,0,0,452.876,212.32Z" transform="translate(-355.717 -171.818)" fill="#7300cc"></path>   <path id="Caminho_17511" data-name="Caminho 17511" d="M452.876,232.179a.657.657,0,1,0,.657.657A.657.657,0,0,0,452.876,232.179Z" transform="translate(-355.717 -187.439)" fill="#7300cc"></path>   <path id="Caminho_17512" data-name="Caminho 17512" d="M452.876,252.037a.657.657,0,1,0,.657.657A.658.658,0,0,0,452.876,252.037Z" transform="translate(-355.717 -203.06)" fill="#7300cc"></path>   <path id="Caminho_17513" data-name="Caminho 17513" d="M452.876,271.9a.657.657,0,1,0,.657.657A.657.657,0,0,0,452.876,271.9Z" transform="translate(-355.717 -218.681)" fill="#7300cc"></path>   <path id="Caminho_17514" data-name="Caminho 17514" d="M452.876,291.754a.657.657,0,1,0,.657.657A.657.657,0,0,0,452.876,291.754Z" transform="translate(-355.717 -234.301)" fill="#7300cc"></path>   <path id="Caminho_17515" data-name="Caminho 17515" d="M452.876,311.613a.657.657,0,1,0,.657.657A.658.658,0,0,0,452.876,311.613Z" transform="translate(-355.717 -249.922)" fill="#7300cc"></path>   <path id="Caminho_17516" data-name="Caminho 17516" d="M452.876,331.471a.657.657,0,1,0,.657.657A.657.657,0,0,0,452.876,331.471Z" transform="translate(-355.717 -265.543)" fill="#7300cc"></path>   <path id="Caminho_17517" data-name="Caminho 17517" d="M452.876,351.33a.657.657,0,1,0,.657.657A.657.657,0,0,0,452.876,351.33Z" transform="translate(-355.717 -281.164)" fill="#7300cc"></path>   <path id="Caminho_17518" data-name="Caminho 17518" d="M452.876,371.188a.657.657,0,1,0,.657.657A.657.657,0,0,0,452.876,371.188Z" transform="translate(-355.717 -296.784)" fill="#7300cc"></path>   <path id="Caminho_17519" data-name="Caminho 17519" d="M452.876,391.047a.657.657,0,1,0,.657.657A.657.657,0,0,0,452.876,391.047Z" transform="translate(-355.717 -312.405)" fill="#7300cc"></path>   <path id="Caminho_17520" data-name="Caminho 17520" d="M442.573,401.35a.657.657,0,1,0,.657.657A.657.657,0,0,0,442.573,401.35Z" transform="translate(-347.612 -320.51)" fill="#7300cc"></path>   <path id="Caminho_17521" data-name="Caminho 17521" d="M433.018,391.047a.657.657,0,1,0,.657.657A.657.657,0,0,0,433.018,391.047Z" transform="translate(-340.097 -312.405)" fill="#7300cc"></path>   <path id="Caminho_17522" data-name="Caminho 17522" d="M422.715,401.35a.657.657,0,1,0,.657.657A.657.657,0,0,0,422.715,401.35Z" transform="translate(-331.992 -320.51)" fill="#7300cc"></path>   <path id="Caminho_17523" data-name="Caminho 17523" d="M413.159,391.047a.657.657,0,1,0,.657.657A.657.657,0,0,0,413.159,391.047Z" transform="translate(-324.476 -312.405)" fill="#7300cc"></path>   <path id="Caminho_17524" data-name="Caminho 17524" d="M402.856,401.35a.657.657,0,1,0,.657.657A.657.657,0,0,0,402.856,401.35Z" transform="translate(-316.371 -320.51)" fill="#7300cc"></path>   <path id="Caminho_17525" data-name="Caminho 17525" d="M393.3,391.047a.657.657,0,1,0,.657.657A.657.657,0,0,0,393.3,391.047Z" transform="translate(-308.854 -312.405)" fill="#7300cc"></path>   <path id="Caminho_17526" data-name="Caminho 17526" d="M383,401.35a.657.657,0,1,0,.657.657A.657.657,0,0,0,383,401.35Z" transform="translate(-300.751 -320.51)" fill="#7300cc"></path>   <path id="Caminho_17527" data-name="Caminho 17527" d="M373.442,391.047a.657.657,0,1,0,.657.657A.657.657,0,0,0,373.442,391.047Z" transform="translate(-293.233 -312.405)" fill="#7300cc"></path>   <path id="Caminho_17528" data-name="Caminho 17528" d="M363.139,401.35a.657.657,0,1,0,.657.657A.657.657,0,0,0,363.139,401.35Z" transform="translate(-285.13 -320.51)" fill="#7300cc"></path>   <path id="Caminho_17529" data-name="Caminho 17529" d="M353.583,391.047a.657.657,0,1,0,.657.657A.657.657,0,0,0,353.583,391.047Z" transform="translate(-277.612 -312.405)" fill="#7300cc"></path>   <path id="Caminho_17530" data-name="Caminho 17530" d="M343.281,401.35a.657.657,0,1,0,.657.657A.657.657,0,0,0,343.281,401.35Z" transform="translate(-269.509 -320.51)" fill="#7300cc"></path>   <path id="Caminho_17531" data-name="Caminho 17531" d="M333.725,391.047a.657.657,0,1,0,.657.657A.657.657,0,0,0,333.725,391.047Z" transform="translate(-261.992 -312.405)" fill="#7300cc"></path>   <path id="Caminho_17532" data-name="Caminho 17532" d="M323.422,401.35a.657.657,0,1,0,.657.657A.657.657,0,0,0,323.422,401.35Z" transform="translate(-253.888 -320.51)" fill="#7300cc"></path>   <path id="Caminho_17533" data-name="Caminho 17533" d="M313.867,391.047a.657.657,0,1,0,.657.657A.657.657,0,0,0,313.867,391.047Z" transform="translate(-246.372 -312.405)" fill="#7300cc"></path>   <path id="Caminho_17534" data-name="Caminho 17534" d="M303.564,401.35a.657.657,0,1,0,.657.657A.657.657,0,0,0,303.564,401.35Z" transform="translate(-238.268 -320.51)" fill="#7300cc"></path>   <path id="Caminho_17535" data-name="Caminho 17535" d="M294.008,391.047a.657.657,0,1,0,.657.657A.657.657,0,0,0,294.008,391.047Z" transform="translate(-230.751 -312.405)" fill="#7300cc"></path>   <path id="Caminho_17536" data-name="Caminho 17536" d="M283.705,401.35a.657.657,0,1,0,.657.657A.657.657,0,0,0,283.705,401.35Z" transform="translate(-222.646 -320.51)" fill="#7300cc"></path>   <path id="Caminho_17537" data-name="Caminho 17537" d="M274.15,391.047a.657.657,0,1,0,.657.657A.657.657,0,0,0,274.15,391.047Z" transform="translate(-215.131 -312.405)" fill="#7300cc"></path>   <path id="Caminho_17538" data-name="Caminho 17538" d="M263.847,401.35a.657.657,0,1,0,.657.657A.657.657,0,0,0,263.847,401.35Z" transform="translate(-207.026 -320.51)" fill="#7300cc"></path>   <path id="Caminho_17539" data-name="Caminho 17539" d="M254.291,391.047a.657.657,0,1,0,.657.657A.657.657,0,0,0,254.291,391.047Z" transform="translate(-199.51 -312.405)" fill="#7300cc"></path>   <path id="Caminho_17540" data-name="Caminho 17540" d="M243.988,401.35a.657.657,0,1,0,.657.657A.657.657,0,0,0,243.988,401.35Z" transform="translate(-191.405 -320.51)" fill="#7300cc"></path>   <path id="Caminho_17541" data-name="Caminho 17541" d="M234.433,391.047a.657.657,0,1,0,.657.657A.657.657,0,0,0,234.433,391.047Z" transform="translate(-183.889 -312.405)" fill="#7300cc"></path>   <path id="Caminho_17542" data-name="Caminho 17542" d="M224.13,401.35a.657.657,0,1,0,.657.657A.657.657,0,0,0,224.13,401.35Z" transform="translate(-175.784 -320.51)" fill="#7300cc"></path>   <path id="Caminho_17543" data-name="Caminho 17543" d="M214.574,391.047a.657.657,0,1,0,.657.657A.657.657,0,0,0,214.574,391.047Z" transform="translate(-168.268 -312.405)" fill="#7300cc"></path>   <path id="Caminho_17544" data-name="Caminho 17544" d="M204.271,401.35a.657.657,0,1,0,.657.657A.657.657,0,0,0,204.271,401.35Z" transform="translate(-160.163 -320.51)" fill="#7300cc"></path>   <path id="Caminho_17545" data-name="Caminho 17545" d="M194.716,391.047a.657.657,0,1,0,.657.657A.657.657,0,0,0,194.716,391.047Z" transform="translate(-152.647 -312.405)" fill="#7300cc"></path>   <path id="Caminho_17546" data-name="Caminho 17546" d="M184.413,401.35a.657.657,0,1,0,.657.657A.657.657,0,0,0,184.413,401.35Z" transform="translate(-144.543 -320.51)" fill="#7300cc"></path>   <path id="Caminho_17547" data-name="Caminho 17547" d="M174.857,391.047a.657.657,0,1,0,.657.657A.657.657,0,0,0,174.857,391.047Z" transform="translate(-137.026 -312.405)" fill="#7300cc"></path>   <path id="Caminho_17548" data-name="Caminho 17548" d="M164.554,401.35a.657.657,0,1,0,.657.657A.657.657,0,0,0,164.554,401.35Z" transform="translate(-128.922 -320.51)" fill="#7300cc"></path>   <path id="Caminho_17549" data-name="Caminho 17549" d="M155,391.047a.657.657,0,1,0,.657.657A.657.657,0,0,0,155,391.047Z" transform="translate(-121.406 -312.405)" fill="#7300cc"></path>   <path id="Caminho_17550" data-name="Caminho 17550" d="M144.7,401.35a.657.657,0,1,0,.657.657A.657.657,0,0,0,144.7,401.35Z" transform="translate(-113.302 -320.51)" fill="#7300cc"></path>   <path id="Caminho_17551" data-name="Caminho 17551" d="M135.14,391.047a.657.657,0,1,0,.657.657A.657.657,0,0,0,135.14,391.047Z" transform="translate(-105.785 -312.405)" fill="#7300cc"></path>   <path id="Caminho_17552" data-name="Caminho 17552" d="M124.837,401.35a.657.657,0,1,0,.657.657A.657.657,0,0,0,124.837,401.35Z" transform="translate(-97.681 -320.51)" fill="#7300cc"></path>   <path id="Caminho_17553" data-name="Caminho 17553" d="M115.282,391.047a.657.657,0,1,0,.657.657A.657.657,0,0,0,115.282,391.047Z" transform="translate(-90.164 -312.405)" fill="#7300cc"></path>   <path id="Caminho_17554" data-name="Caminho 17554" d="M104.979,401.35a.657.657,0,1,0,.657.657A.657.657,0,0,0,104.979,401.35Z" transform="translate(-82.061 -320.51)" fill="#7300cc"></path>   <path id="Caminho_17555" data-name="Caminho 17555" d="M95.423,391.047a.657.657,0,1,0,.657.657A.657.657,0,0,0,95.423,391.047Z" transform="translate(-74.543 -312.405)" fill="#7300cc"></path>   <path id="Caminho_17556" data-name="Caminho 17556" d="M85.12,401.35a.657.657,0,1,0,.657.657A.657.657,0,0,0,85.12,401.35Z" transform="translate(-66.439 -320.51)" fill="#7300cc"></path>   <path id="Caminho_17557" data-name="Caminho 17557" d="M75.565,391.047a.657.657,0,1,0,.657.657A.657.657,0,0,0,75.565,391.047Z" transform="translate(-58.923 -312.405)" fill="#7300cc"></path>   <path id="Caminho_17558" data-name="Caminho 17558" d="M65.262,401.35a.657.657,0,1,0,.657.657A.657.657,0,0,0,65.262,401.35Z" transform="translate(-50.818 -320.51)" fill="#7300cc"></path>   <path id="Caminho_17559" data-name="Caminho 17559" d="M55.706,391.047a.657.657,0,1,0,.657.657.657.657,0,0,0-.657-.657Z" transform="translate(-43.302 -312.405)" fill="#7300cc"></path>   <path id="Caminho_17560" data-name="Caminho 17560" d="M45.4,401.35a.657.657,0,1,0,.657.657A.657.657,0,0,0,45.4,401.35Z" transform="translate(-35.197 -320.51)" fill="#7300cc"></path>   <path id="Caminho_17561" data-name="Caminho 17561" d="M104.7,105.95h-2.417v-49.4a11,11,0,0,0,3.984-8.472c0-.077.027-8.048.027-8.048a2.866,2.866,0,0,0-.078-.474l-4.349-12.7a5.8,5.8,0,0,0-5.614-4.336h-.007l-83.62.107a5.78,5.78,0,0,0-5.633,4.442L3.017,39.6a.815.815,0,0,0-.036.286c-.007.046-.016,8.19-.016,8.19a11,11,0,0,0,4.011,8.5V105.95H4.559A4.564,4.564,0,0,0,0,110.509a11.676,11.676,0,0,0,11.662,11.663H97.6a11.676,11.676,0,0,0,11.662-11.663A4.563,4.563,0,0,0,104.7,105.95Zm-.154-57.871a9.257,9.257,0,0,1-.476,2.932.725.725,0,1,0-.4,1.009,9.357,9.357,0,0,1-4.3,4.392.721.721,0,1,0-.649.291,9.292,9.292,0,0,1-12.747-8.018c.01-.2-.039-7.8-.039-7.8h18.64c-.007,2.074-.025,7.166-.025,7.19ZM97.8,105.928a.657.657,0,0,0-1.287,0H93.565a.657.657,0,0,0-1.287,0H89.328a.657.657,0,0,0-1.287,0H85.09a.657.657,0,0,0-1.287,0H80.852a.657.657,0,0,0-1.287,0H76.614a.657.657,0,0,0-1.287,0H72.377a.657.657,0,0,0-1.287,0H68.139a.657.657,0,0,0-1.287,0H63.9a.657.657,0,0,0-1.287,0H59.663a.657.657,0,0,0-1.287,0h-2.95a.657.657,0,0,0-1.287,0H51.188a.657.657,0,0,0-1.287,0H46.95a.657.657,0,0,0-1.287,0H42.712a.657.657,0,0,0-1.287,0H38.474a.657.657,0,0,0-1.287,0H34.236a.657.657,0,0,0-1.287,0H30a.657.657,0,0,0-1.287,0H25.761a.657.657,0,0,0-1.287,0H21.523a.657.657,0,0,0-1.287,0h-2.95a.657.657,0,0,0-1.287,0H13.048a.657.657,0,0,0-1.287,0H8.7V57.743A10.951,10.951,0,0,0,13.984,59.1h.077V99.654a.86.86,0,0,0,.86.86H94.339a.849.849,0,0,0,.412-.11.655.655,0,0,0,.448-1.231V96.158a.655.655,0,0,0,0-1.223V91.921a.655.655,0,0,0,0-1.223V87.683a.655.655,0,0,0,0-1.222V83.445a.655.655,0,0,0,0-1.222V79.207a.655.655,0,0,0,0-1.222V74.97a.655.655,0,0,0,0-1.223V70.732a.655.655,0,0,0,0-1.223V66.494a.655.655,0,0,0,0-1.223V62.256a.655.655,0,0,0,0-1.222V59.1h.05A11.049,11.049,0,0,0,96.676,59a.657.657,0,1,0,.792-.136,10.956,10.956,0,0,0,3.1-1.142v48.2ZM96.248,24.245h.005a4.078,4.078,0,0,1,3.955,3.075q.009.034.02.067l3.97,11.589-18.348,0L83.61,24.262ZM84.273,44.889a.658.658,0,1,0-.005.571c-.014,1.652-.026,3.138-.021,3.226-.007.115-.019.229-.03.343a.659.659,0,1,0-.134.9,9.291,9.291,0,0,1-14.5,5.748.657.657,0,0,0-.656-.645.669.669,0,0,0-.137.015,9.278,9.278,0,0,1-3.128-6.948c0-.129-.083-7.2-.083-7.2h.5c0,.015,0,.029,0,.044a.657.657,0,0,0,1.315,0c0-.015,0-.029,0-.044h2.932c0,.015,0,.029,0,.044a.657.657,0,1,0,1.315,0c0-.015,0-.029,0-.044h2.932c0,.015,0,.029,0,.044a.657.657,0,1,0,1.315,0c0-.015,0-.029,0-.044H78.79c0,.015,0,.029,0,.044a.657.657,0,0,0,1.315,0c0-.015,0-.029,0-.044h2.932c0,.015,0,.029,0,.044a.656.656,0,0,0,1.284.187c-.005.581-.02,2.184-.035,3.769ZM65.4,24.285l16.581-.021,2.238,14.718-18.82,0v-14.7ZM63.942,43.747a.711.711,0,0,0-.1-.01.721.721,0,1,0,.089,1.433c-.01,1.519-.019,2.868-.019,2.909,0,.1,0,.208-.008.312-.021,0-.041-.006-.063-.006a.719.719,0,0,0-.095,1.432,9.294,9.294,0,0,1-18.268-.031.717.717,0,0,0-.153-1.394c0-.11-.008-.219-.008-.33l-.027-2.887a.718.718,0,0,0-.013-1.435l-.026-2.85H63.961s-.009,1.337-.019,2.858ZM45.206,24.311l18.569-.024v14.7l-18.569,0ZM54.616,59.1a11.036,11.036,0,0,0,10.17-6.777,11.022,11.022,0,0,0,20.326.077,11.053,11.053,0,0,0,8.367,6.557v39.84h-77.7V58.949a11.054,11.054,0,0,0,8.36-6.6,11.019,11.019,0,0,0,20.316,0A11.036,11.036,0,0,0,54.616,59.1ZM43.625,42.327a.649.649,0,0,0-.123-.012.658.658,0,1,0,.117,1.3L43.6,46.563a.658.658,0,1,0-.006,1.295v.222a9.244,9.244,0,0,1-1.684,5.327.656.656,0,1,0-.705.888A9.363,9.363,0,0,1,39.892,55.5a.655.655,0,1,0-1.049.685A9.291,9.291,0,0,1,25,48.062L25,45.293a.62.62,0,0,0,0-.249l-.008-3.955a.657.657,0,0,0,.02-.156c0-.015,0-.029,0-.044h2.932c0,.015,0,.029,0,.044a.657.657,0,0,0,1.315,0c0-.015,0-.029,0-.044h2.932c0,.015,0,.029,0,.044a.657.657,0,1,0,1.315,0c0-.015,0-.029,0-.044h2.932c0,.015,0,.029,0,.044a.657.657,0,1,0,1.315,0c0-.015,0-.029,0-.044H40.65c0,.015,0,.029,0,.044a.657.657,0,1,0,1.315,0c0-.015,0-.029,0-.044h1.675Zm-.039-18.014V38.992l-18.36,0,2.232-14.663ZM8.642,27.565c.007-.021.013-.042.017-.063a4.067,4.067,0,0,1,3.968-3.148l13.2-.017L23.586,39,5.013,39ZM5.558,52.005a.721.721,0,1,0-.381-.949,9.256,9.256,0,0,1-.492-2.977l0-7.19H23.3l-.015,7.19a9.292,9.292,0,0,1-12.759,8.627.724.724,0,1,0-.588-.258,9.356,9.356,0,0,1-4.376-4.442ZM97.6,120.45H11.662a9.953,9.953,0,0,1-9.942-9.942,2.841,2.841,0,0,1,2.838-2.838H36.891v3.524a3.5,3.5,0,0,0,3.5,3.5H68.871a3.5,3.5,0,0,0,3.5-3.5v-3.524H104.7a2.841,2.841,0,0,1,2.838,2.838A9.954,9.954,0,0,1,97.6,120.45Z" transform="translate(0 -22.525)" fill="#7300cc"></path>   <g id="Grupo_4324" data-name="Grupo 4324" transform="translate(-606.764 -2863)">     <path id="Caminho_17568" data-name="Caminho 17568" d="M87.585,316.885l-2.22-1.8a1.257,1.257,0,0,0-1.682,1.864,9.257,9.257,0,0,1-8.241-5.5,1.257,1.257,0,1,0-2.3,1.012,11.733,11.733,0,0,0,10.033,6.976c.239.015.483.02.726.021a1.257,1.257,0,0,0,1.016,1.875l.076,0a1.261,1.261,0,0,0,.978-.465l1.8-2.22a1.259,1.259,0,0,0-.185-1.768Zm-.179,1.474-1.8,2.22a.793.793,0,0,1-.662.291.79.79,0,0,1-.564-1.285l.179-.22a.234.234,0,0,0-.182-.381h-.01a11.267,11.267,0,0,1-10.8-6.707.789.789,0,0,1,1.445-.635,9.659,9.659,0,0,0,9.318,5.767.234.234,0,0,0,.136-.415l-.392-.318a.789.789,0,0,1,.994-1.226l2.22,1.8A.79.79,0,0,1,87.407,318.359Z" transform="translate(577.729 2606.354)" fill="#7300cc"></path>     <path id="Caminho_17569" data-name="Caminho 17569" d="M234.877,21.064a1.553,1.553,0,0,0,2.647-1.578,10.67,10.67,0,0,1,6.843,6.487,1.553,1.553,0,1,0,2.92-1.057,13.663,13.663,0,0,0-9.571-8.6,1.553,1.553,0,0,0-1.935-2.428l-2.815,2.185a1.553,1.553,0,0,0-.275,2.178Zm-1.964-3.9a1.006,1.006,0,0,1,.384-.673l2.815-2.185a1.013,1.013,0,1,1,1.241,1.6l-.421.327a.27.27,0,0,0,.112.478A13.12,13.12,0,0,1,246.78,25.1a1.013,1.013,0,1,1-1.9.689,11.067,11.067,0,0,0-3.1-4.527,11.2,11.2,0,0,0-4.828-2.491.274.274,0,0,0-.061-.007.27.27,0,0,0-.213.436l.226.292a1.014,1.014,0,0,1-.179,1.421,1.012,1.012,0,0,1-1.421-.179l-2.186-2.817a1.006,1.006,0,0,1-.2-.748Z" transform="translate(424.734 2892.799)" fill="#7300cc"></path>   </g> </svg>