<svg id="bill_3_" data-name="bill (3)" xmlns="http://www.w3.org/2000/svg" width="73.348" height="99.646" viewBox="0 0 73.348 99.646">   <circle id="Elipse_167" data-name="Elipse 167" cx="0.658" cy="0.658" r="0.658" transform="translate(58.242 2.682)" fill="#7300cc"></circle>   <path id="Caminho_17188" data-name="Caminho 17188" d="M356.161,26.412a.658.658,0,1,0-.659-.658A.659.659,0,0,0,356.161,26.412Z" transform="translate(-299.463 -20.211)" fill="#7300cc"></path>   <path id="Caminho_17189" data-name="Caminho 17189" d="M367.478,36.907a.658.658,0,1,0-.658-.659A.659.659,0,0,0,367.478,36.907Z" transform="translate(-308.579 -28.663)" fill="#7300cc"></path>   <path id="Caminho_17190" data-name="Caminho 17190" d="M356.161,48.223a.658.658,0,1,0-.659-.658A.659.659,0,0,0,356.161,48.223Z" transform="translate(-299.463 -37.777)" fill="#7300cc"></path>   <circle id="Elipse_168" data-name="Elipse 168" cx="0.658" cy="0.658" r="0.658" transform="translate(58.242 11.172)" fill="#7300cc"></circle>   <path id="Caminho_17191" data-name="Caminho 17191" d="M356.161,70.036a.658.658,0,1,0-.659-.658A.659.659,0,0,0,356.161,70.036Z" transform="translate(-299.463 -55.345)" fill="#7300cc"></path>   <path id="Caminho_17192" data-name="Caminho 17192" d="M367.478,80.531a.658.658,0,1,0-.658-.658A.658.658,0,0,0,367.478,80.531Z" transform="translate(-308.579 -63.797)" fill="#7300cc"></path>   <path id="Caminho_17193" data-name="Caminho 17193" d="M356.161,91.847a.659.659,0,1,0-.659-.659A.659.659,0,0,0,356.161,91.847Z" transform="translate(-299.463 -72.911)" fill="#7300cc"></path>   <path id="Caminho_17194" data-name="Caminho 17194" d="M367.478,102.342a.658.658,0,1,0-.658-.658A.658.658,0,0,0,367.478,102.342Z" transform="translate(-308.579 -81.364)" fill="#7300cc"></path>   <path id="Caminho_17195" data-name="Caminho 17195" d="M356.161,113.659A.658.658,0,1,0,355.5,113,.659.659,0,0,0,356.161,113.659Z" transform="translate(-299.463 -90.478)" fill="#7300cc"></path>   <path id="Caminho_17196" data-name="Caminho 17196" d="M367.478,124.155a.658.658,0,1,0-.658-.658A.658.658,0,0,0,367.478,124.155Z" transform="translate(-308.579 -98.931)" fill="#7300cc"></path>   <path id="Caminho_17197" data-name="Caminho 17197" d="M356.161,135.47a.659.659,0,1,0-.659-.659A.659.659,0,0,0,356.161,135.47Z" transform="translate(-299.463 -108.044)" fill="#7300cc"></path>   <circle id="Elipse_169" data-name="Elipse 169" cx="0.658" cy="0.658" r="0.658" transform="translate(58.242 28.152)" fill="#7300cc"></circle>   <path id="Caminho_17198" data-name="Caminho 17198" d="M356.161,157.283a.658.658,0,1,0-.659-.658A.659.659,0,0,0,356.161,157.283Z" transform="translate(-299.463 -125.612)" fill="#7300cc"></path>   <circle id="Elipse_170" data-name="Elipse 170" cx="0.658" cy="0.658" r="0.658" transform="translate(58.242 32.397)" fill="#7300cc"></circle>   <path id="Caminho_17199" data-name="Caminho 17199" d="M356.161,179.095a.658.658,0,1,0-.659-.658A.659.659,0,0,0,356.161,179.095Z" transform="translate(-299.463 -143.179)" fill="#7300cc"></path>   <path id="Caminho_17200" data-name="Caminho 17200" d="M367.478,189.589a.659.659,0,1,0-.658-.658A.658.658,0,0,0,367.478,189.589Z" transform="translate(-308.579 -151.63)" fill="#7300cc"></path>   <path id="Caminho_17201" data-name="Caminho 17201" d="M356.161,200.906a.658.658,0,1,0-.659-.658A.659.659,0,0,0,356.161,200.906Z" transform="translate(-299.463 -160.745)" fill="#7300cc"></path>   <circle id="Elipse_171" data-name="Elipse 171" cx="0.658" cy="0.658" r="0.658" transform="translate(58.242 40.887)" fill="#7300cc"></circle>   <path id="Caminho_17202" data-name="Caminho 17202" d="M345.666,15.1a.658.658,0,1,0-.658-.658A.659.659,0,0,0,345.666,15.1Z" transform="translate(-291.011 -11.097)" fill="#7300cc"></path>   <path id="Caminho_17203" data-name="Caminho 17203" d="M345.666,36.907a.658.658,0,1,0-.658-.659A.659.659,0,0,0,345.666,36.907Z" transform="translate(-291.011 -28.663)" fill="#7300cc"></path>   <path id="Caminho_17204" data-name="Caminho 17204" d="M345.666,58.72a.658.658,0,1,0-.658-.658A.659.659,0,0,0,345.666,58.72Z" transform="translate(-291.011 -46.231)" fill="#7300cc"></path>   <path id="Caminho_17205" data-name="Caminho 17205" d="M345.666,80.531a.658.658,0,1,0-.658-.658A.659.659,0,0,0,345.666,80.531Z" transform="translate(-291.011 -63.797)" fill="#7300cc"></path>   <path id="Caminho_17206" data-name="Caminho 17206" d="M345.666,102.342a.658.658,0,1,0-.658-.658A.658.658,0,0,0,345.666,102.342Z" transform="translate(-291.011 -81.364)" fill="#7300cc"></path>   <path id="Caminho_17207" data-name="Caminho 17207" d="M345.666,124.155a.658.658,0,1,0-.658-.658A.659.659,0,0,0,345.666,124.155Z" transform="translate(-291.011 -98.931)" fill="#7300cc"></path>   <path id="Caminho_17208" data-name="Caminho 17208" d="M345.666,145.966a.658.658,0,1,0-.658-.658A.659.659,0,0,0,345.666,145.966Z" transform="translate(-291.011 -116.497)" fill="#7300cc"></path>   <path id="Caminho_17209" data-name="Caminho 17209" d="M345.666,167.778a.658.658,0,1,0-.658-.658A.659.659,0,0,0,345.666,167.778Z" transform="translate(-291.011 -134.064)" fill="#7300cc"></path>   <path id="Caminho_17210" data-name="Caminho 17210" d="M345.666,189.589a.659.659,0,1,0-.658-.658A.658.658,0,0,0,345.666,189.589Z" transform="translate(-291.011 -151.63)" fill="#7300cc"></path>   <path id="Caminho_17211" data-name="Caminho 17211" d="M345.666,211.4a.658.658,0,1,0-.658-.658A.659.659,0,0,0,345.666,211.4Z" transform="translate(-291.011 -169.198)" fill="#7300cc"></path>   <path id="Caminho_17212" data-name="Caminho 17212" d="M125.289,55.654a15.547,15.547,0,0,0-5.219.9V45.9h9.218a.786.786,0,0,0,.786-.786V6.205A6.028,6.028,0,0,0,124.257,0c-.145,0-.288.008-.431.019H76.014A8.461,8.461,0,0,0,67.563,8.47v90.25a.786.786,0,0,0,.509.736l.372.14a.786.786,0,0,0,.705-.077l5.843-3.8,5.843,3.8a.786.786,0,0,0,.858,0l5.838-3.8,5.84,3.8a.786.786,0,0,0,.858,0l5.838-3.8,5.836,3.8a.785.785,0,0,0,.858,0l5.836-3.8,5.838,3.8a.785.785,0,0,0,.705.077l.372-.14a.786.786,0,0,0,.51-.736V85.982a15.621,15.621,0,1,0,5.266-30.328Zm-1.6-54.039a.653.653,0,0,0,1.147,0,4.391,4.391,0,0,1,3.5,3.295.657.657,0,0,0,.17,1.29s0,0,0,0V9.129a.658.658,0,0,0,0,1.316v2.929a.658.658,0,0,0,0,1.316v2.929a.658.658,0,0,0,0,1.316v2.929a.658.658,0,0,0,0,1.316v2.929a.658.658,0,0,0,0,1.316v2.929a.658.658,0,0,0,0,1.316V34.6a.658.658,0,0,0,0,1.316v2.929a.658.658,0,0,0,0,1.316v2.929a.656.656,0,0,0-.292,1.243h-3.654a.659.659,0,1,0-.591,0h-3.654a.655.655,0,0,0-.239-1.238l0-2.939a.655.655,0,0,0,0-1.307l0-2.938a.655.655,0,0,0,0-1.308l0-2.936a.656.656,0,0,0,0-1.31l0-2.935a.656.656,0,0,0,0-1.311l0-2.933a.656.656,0,0,0,0-1.312l0-2.932a.657.657,0,0,0,0-1.314l0-2.931a.658.658,0,0,0,0-1.315l0-2.929a.658.658,0,0,0,0-1.317l0-2.924v0h0a.657.657,0,0,0,.166-1.293,4.391,4.391,0,0,1,3.505-3.292Zm-5.236,96.037-5.424-3.533a.787.787,0,0,0-.858,0l-5.836,3.8-5.836-3.8a.786.786,0,0,0-.858,0l-5.838,3.8-5.84-3.8a.786.786,0,0,0-.858,0l-5.838,3.8-5.843-3.8a.786.786,0,0,0-.858,0l-5.428,3.534V8.47a6.887,6.887,0,0,1,6.88-6.879h44.358a6.381,6.381,0,0,0-1.933,4.616l.059,51a15.618,15.618,0,0,0-.048,28.109V97.652Zm6.838-12.327a14.05,14.05,0,1,1,14.05-14.05A14.066,14.066,0,0,1,125.289,85.326Z" transform="translate(-67.563)" fill="#7300cc"></path>   <path id="Caminho_17213" data-name="Caminho 17213" d="M317.118,307.807a11.37,11.37,0,1,0,11.37,11.37A11.383,11.383,0,0,0,317.118,307.807Zm0,21.168a9.8,9.8,0,1,1,9.8-9.8A9.809,9.809,0,0,1,317.118,328.975Z" transform="translate(-259.392 -247.901)" fill="#7300cc"></path>   <path id="Caminho_17214" data-name="Caminho 17214" d="M349.679,332.075c-.257-.091-.5-.178-.718-.263V328a2.479,2.479,0,0,1,1.009.479.786.786,0,0,0,1.06-1.16,4.126,4.126,0,0,0-2.069-.918v-.787a.786.786,0,1,0-1.572,0v.848c-.122.027-.247.058-.374.1a3.248,3.248,0,0,0-2.225,2.548,2.858,2.858,0,0,0,.935,2.816,7.739,7.739,0,0,0,1.663.951V337.7a3.3,3.3,0,0,1-1.774-.66.786.786,0,1,0-.86,1.315,4.8,4.8,0,0,0,2.634.919v.881a.786.786,0,1,0,1.572,0v-.944A3.909,3.909,0,0,0,352.042,336,3.432,3.432,0,0,0,349.679,332.075Zm-2.29-.954a4.812,4.812,0,0,1-.693-.442,1.307,1.307,0,0,1-.36-1.288,1.707,1.707,0,0,1,1.054-1.3Zm3.1,4.619a2.37,2.37,0,0,1-1.531,1.84v-4.093l.195.069A1.884,1.884,0,0,1,350.492,335.741Z" transform="translate(-290.521 -261.606)" fill="#7300cc"></path>   <path id="Caminho_17215" data-name="Caminho 17215" d="M117.687,67.3a4.047,4.047,0,0,0,2.088.765v.585a.786.786,0,1,0,1.572,0v-.661a3.385,3.385,0,0,0,2.515-2.708,2.942,2.942,0,0,0-2.024-3.368c-.162-.057-.326-.117-.491-.179V58.9a1.828,1.828,0,0,1,.586.309.786.786,0,0,0,1.059-1.161,3.531,3.531,0,0,0-1.645-.763v-.524a.786.786,0,1,0-1.572,0v.582c-.068.017-.134.03-.2.051a2.8,2.8,0,0,0-1.917,2.193,2.477,2.477,0,0,0,.816,2.441,6.272,6.272,0,0,0,1.3.757v3.7a2.594,2.594,0,0,1-1.227-.5.786.786,0,0,0-.86,1.316Zm3.659-3.891a1.4,1.4,0,0,1,.965,1.611,1.809,1.809,0,0,1-.965,1.312Zm-1.906-2.613a.941.941,0,0,1-.242-.913,1.3,1.3,0,0,1,.576-.864v2A3.319,3.319,0,0,1,119.44,60.793Z" transform="translate(-107.645 -45.083)" fill="#7300cc"></path>   <path id="Caminho_17216" data-name="Caminho 17216" d="M175.851,88.96h19.982a.786.786,0,0,0,0-1.572H175.851a.786.786,0,1,0,0,1.572Z" transform="translate(-154.143 -70.38)" fill="#7300cc"></path>   <path id="Caminho_17217" data-name="Caminho 17217" d="M117.483,188.03h31.531a.786.786,0,1,0,0-1.572H117.483a.786.786,0,0,0,0,1.572Z" transform="translate(-107.134 -150.169)" fill="#7300cc"></path>   <path id="Caminho_17218" data-name="Caminho 17218" d="M117.483,227.822h31.531a.786.786,0,1,0,0-1.572H117.483a.786.786,0,0,0,0,1.572Z" transform="translate(-107.134 -182.217)" fill="#7300cc"></path>   <path id="Caminho_17219" data-name="Caminho 17219" d="M149.8,266.828a.786.786,0,0,0-.786-.786H117.483a.786.786,0,1,0,0,1.572h31.531A.786.786,0,0,0,149.8,266.828Z" transform="translate(-107.134 -214.265)" fill="#7300cc"></path>   <path id="Caminho_17220" data-name="Caminho 17220" d="M125.528,342.984h-8.045a.786.786,0,1,0,0,1.572h8.045a.786.786,0,1,0,0-1.572Z" transform="translate(-107.134 -276.232)" fill="#7300cc"></path>   <path id="Caminho_17221" data-name="Caminho 17221" d="M125.528,372.512h-8.045a.786.786,0,1,0,0,1.572h8.045a.786.786,0,1,0,0-1.572Z" transform="translate(-107.134 -300.013)" fill="#7300cc"></path>   <path id="Caminho_17222" data-name="Caminho 17222" d="M125.528,402.039h-8.045a.786.786,0,0,0,0,1.572h8.045a.786.786,0,0,0,0-1.572Z" transform="translate(-107.134 -323.794)" fill="#7300cc"></path> </svg>