<svg id="coins" xmlns="http://www.w3.org/2000/svg" width="100" height="65.697" viewBox="0 0 100 65.697">   <circle id="Elipse_152" data-name="Elipse 152" cx="0.659" cy="0.659" r="0.659" transform="translate(96.327 28.074)" fill="#7300cc"></circle>   <path id="Caminho_17017" data-name="Caminho 17017" d="M479.725,241.392a.658.658,0,1,0,.658.659A.659.659,0,0,0,479.725,241.392Z" transform="translate(-384.943 -211.115)" fill="#7300cc"></path>   <path id="Caminho_17018" data-name="Caminho 17018" d="M490.935,251.789a.658.658,0,1,0,.658.658A.658.658,0,0,0,490.935,251.789Z" transform="translate(-393.95 -219.47)" fill="#7300cc"></path>   <path id="Caminho_17019" data-name="Caminho 17019" d="M479.725,263a.659.659,0,1,0,.658.659A.658.658,0,0,0,479.725,263Z" transform="translate(-384.943 -228.476)" fill="#7300cc"></path>   <path id="Caminho_17020" data-name="Caminho 17020" d="M490.935,273.395a.658.658,0,1,0,.658.659A.658.658,0,0,0,490.935,273.395Z" transform="translate(-393.95 -236.831)" fill="#7300cc"></path>   <path id="Caminho_17021" data-name="Caminho 17021" d="M479.725,284.605a.658.658,0,1,0,.658.658A.658.658,0,0,0,479.725,284.605Z" transform="translate(-384.943 -245.838)" fill="#7300cc"></path>   <path id="Caminho_17022" data-name="Caminho 17022" d="M490.935,295a.658.658,0,1,0,.658.658A.658.658,0,0,0,490.935,295Z" transform="translate(-393.95 -254.191)" fill="#7300cc"></path>   <path id="Caminho_17023" data-name="Caminho 17023" d="M479.725,306.211a.659.659,0,1,0,.658.659A.658.658,0,0,0,479.725,306.211Z" transform="translate(-384.943 -263.199)" fill="#7300cc"></path>   <circle id="Elipse_153" data-name="Elipse 153" cx="0.659" cy="0.659" r="0.659" transform="translate(96.327 45.054)" fill="#7300cc"></circle>   <path id="Caminho_17024" data-name="Caminho 17024" d="M479.725,327.817a.658.658,0,1,0,.658.659A.658.658,0,0,0,479.725,327.817Z" transform="translate(-384.943 -280.56)" fill="#7300cc"></path>   <path id="Caminho_17025" data-name="Caminho 17025" d="M490.935,338.214a.659.659,0,1,0,.658.658A.658.658,0,0,0,490.935,338.214Z" transform="translate(-393.95 -288.914)" fill="#7300cc"></path>   <path id="Caminho_17026" data-name="Caminho 17026" d="M479.725,349.423a.659.659,0,1,0,.658.659A.658.658,0,0,0,479.725,349.423Z" transform="translate(-384.943 -297.921)" fill="#7300cc"></path>   <path id="Caminho_17027" data-name="Caminho 17027" d="M490.935,359.82a.659.659,0,1,0,.658.659A.658.658,0,0,0,490.935,359.82Z" transform="translate(-393.95 -306.275)" fill="#7300cc"></path>   <path id="Caminho_17028" data-name="Caminho 17028" d="M479.725,371.03a.658.658,0,1,0,.658.658A.658.658,0,0,0,479.725,371.03Z" transform="translate(-384.943 -315.283)" fill="#7300cc"></path>   <circle id="Elipse_154" data-name="Elipse 154" cx="0.659" cy="0.659" r="0.659" transform="translate(92.082 28.074)" fill="#7300cc"></circle>   <path id="Caminho_17029" data-name="Caminho 17029" d="M458.119,241.392a.658.658,0,1,0,.658.659A.658.658,0,0,0,458.119,241.392Z" transform="translate(-367.581 -211.115)" fill="#7300cc"></path>   <path id="Caminho_17030" data-name="Caminho 17030" d="M469.329,251.789a.658.658,0,1,0,.658.658A.658.658,0,0,0,469.329,251.789Z" transform="translate(-376.589 -219.47)" fill="#7300cc"></path>   <path id="Caminho_17031" data-name="Caminho 17031" d="M458.119,263a.659.659,0,1,0,.658.659A.658.658,0,0,0,458.119,263Z" transform="translate(-367.581 -228.476)" fill="#7300cc"></path>   <path id="Caminho_17032" data-name="Caminho 17032" d="M469.329,273.395a.658.658,0,1,0,.658.659A.658.658,0,0,0,469.329,273.395Z" transform="translate(-376.589 -236.831)" fill="#7300cc"></path>   <path id="Caminho_17033" data-name="Caminho 17033" d="M458.119,284.605a.658.658,0,1,0,.658.658A.658.658,0,0,0,458.119,284.605Z" transform="translate(-367.581 -245.838)" fill="#7300cc"></path>   <path id="Caminho_17034" data-name="Caminho 17034" d="M469.329,295a.658.658,0,1,0,.658.658A.658.658,0,0,0,469.329,295Z" transform="translate(-376.589 -254.191)" fill="#7300cc"></path>   <path id="Caminho_17035" data-name="Caminho 17035" d="M458.119,306.211a.659.659,0,1,0,.658.659A.658.658,0,0,0,458.119,306.211Z" transform="translate(-367.581 -263.199)" fill="#7300cc"></path>   <circle id="Elipse_155" data-name="Elipse 155" cx="0.659" cy="0.659" r="0.659" transform="translate(92.082 45.054)" fill="#7300cc"></circle>   <path id="Caminho_17036" data-name="Caminho 17036" d="M458.119,327.817a.658.658,0,1,0,.658.659A.658.658,0,0,0,458.119,327.817Z" transform="translate(-367.581 -280.56)" fill="#7300cc"></path>   <path id="Caminho_17037" data-name="Caminho 17037" d="M469.329,338.214a.659.659,0,1,0,.658.658A.658.658,0,0,0,469.329,338.214Z" transform="translate(-376.589 -288.914)" fill="#7300cc"></path>   <path id="Caminho_17038" data-name="Caminho 17038" d="M458.119,349.423a.659.659,0,1,0,.658.659A.658.658,0,0,0,458.119,349.423Z" transform="translate(-367.581 -297.921)" fill="#7300cc"></path>   <path id="Caminho_17039" data-name="Caminho 17039" d="M469.329,359.82a.659.659,0,1,0,.658.659A.658.658,0,0,0,469.329,359.82Z" transform="translate(-376.589 -306.275)" fill="#7300cc"></path>   <circle id="Elipse_156" data-name="Elipse 156" cx="0.659" cy="0.659" r="0.659" transform="translate(87.837 28.074)" fill="#7300cc"></circle>   <path id="Caminho_17040" data-name="Caminho 17040" d="M447.723,251.789a.658.658,0,1,0,.658.658A.658.658,0,0,0,447.723,251.789Z" transform="translate(-359.228 -219.47)" fill="#7300cc"></path>   <path id="Caminho_17041" data-name="Caminho 17041" d="M447.723,273.395a.658.658,0,1,0,.658.659A.658.658,0,0,0,447.723,273.395Z" transform="translate(-359.228 -236.831)" fill="#7300cc"></path>   <path id="Caminho_17042" data-name="Caminho 17042" d="M447.723,295a.658.658,0,1,0,.658.658A.658.658,0,0,0,447.723,295Z" transform="translate(-359.228 -254.191)" fill="#7300cc"></path>   <circle id="Elipse_157" data-name="Elipse 157" cx="0.659" cy="0.659" r="0.659" transform="translate(87.837 45.054)" fill="#7300cc"></circle>   <path id="Caminho_17043" data-name="Caminho 17043" d="M436.513,327.817a.658.658,0,1,0,.658.659A.658.658,0,0,0,436.513,327.817Z" transform="translate(-350.221 -280.56)" fill="#7300cc"></path>   <path id="Caminho_17044" data-name="Caminho 17044" d="M447.723,338.214a.659.659,0,1,0,.658.658A.658.658,0,0,0,447.723,338.214Z" transform="translate(-359.228 -288.914)" fill="#7300cc"></path>   <path id="Caminho_17045" data-name="Caminho 17045" d="M436.513,349.423a.659.659,0,1,0,.658.659A.658.658,0,0,0,436.513,349.423Z" transform="translate(-350.221 -297.921)" fill="#7300cc"></path>   <path id="Caminho_17046" data-name="Caminho 17046" d="M447.723,359.82a.659.659,0,1,0,.658.659A.658.658,0,0,0,447.723,359.82Z" transform="translate(-359.228 -306.275)" fill="#7300cc"></path>   <path id="Caminho_17047" data-name="Caminho 17047" d="M414.907,327.817a.658.658,0,1,0,.658.659A.658.658,0,0,0,414.907,327.817Z" transform="translate(-332.86 -280.56)" fill="#7300cc"></path>   <path id="Caminho_17048" data-name="Caminho 17048" d="M426.116,338.214a.659.659,0,1,0,.658.658A.658.658,0,0,0,426.116,338.214Z" transform="translate(-341.866 -288.914)" fill="#7300cc"></path>   <path id="Caminho_17049" data-name="Caminho 17049" d="M414.907,349.423a.659.659,0,1,0,.658.659A.658.658,0,0,0,414.907,349.423Z" transform="translate(-332.86 -297.921)" fill="#7300cc"></path>   <path id="Caminho_17050" data-name="Caminho 17050" d="M426.116,359.82a.659.659,0,1,0,.658.659A.658.658,0,0,0,426.116,359.82Z" transform="translate(-341.866 -306.275)" fill="#7300cc"></path>   <path id="Caminho_17051" data-name="Caminho 17051" d="M393.3,327.817a.658.658,0,1,0,.658.659A.658.658,0,0,0,393.3,327.817Z" transform="translate(-315.498 -280.56)" fill="#7300cc"></path>   <path id="Caminho_17052" data-name="Caminho 17052" d="M404.51,338.214a.659.659,0,1,0,.658.658A.658.658,0,0,0,404.51,338.214Z" transform="translate(-324.505 -288.914)" fill="#7300cc"></path>   <path id="Caminho_17053" data-name="Caminho 17053" d="M393.3,349.423a.659.659,0,1,0,.658.659A.658.658,0,0,0,393.3,349.423Z" transform="translate(-315.498 -297.921)" fill="#7300cc"></path>   <path id="Caminho_17054" data-name="Caminho 17054" d="M404.51,359.82a.659.659,0,1,0,.658.659A.658.658,0,0,0,404.51,359.82Z" transform="translate(-324.505 -306.275)" fill="#7300cc"></path>   <path id="Caminho_17055" data-name="Caminho 17055" d="M393.3,371.03a.658.658,0,1,0,.658.658A.658.658,0,0,0,393.3,371.03Z" transform="translate(-315.498 -315.283)" fill="#7300cc"></path>   <path id="Caminho_17056" data-name="Caminho 17056" d="M382.9,338.214a.659.659,0,1,0,.658.658A.658.658,0,0,0,382.9,338.214Z" transform="translate(-307.145 -288.914)" fill="#7300cc"></path>   <path id="Caminho_17057" data-name="Caminho 17057" d="M371.694,349.423a.659.659,0,1,0,.658.659A.658.658,0,0,0,371.694,349.423Z" transform="translate(-298.137 -297.921)" fill="#7300cc"></path>   <path id="Caminho_17058" data-name="Caminho 17058" d="M382.9,359.82a.659.659,0,1,0,.658.659A.658.658,0,0,0,382.9,359.82Z" transform="translate(-307.145 -306.275)" fill="#7300cc"></path>   <path id="Caminho_17059" data-name="Caminho 17059" d="M371.694,371.03a.658.658,0,1,0,.658.658A.658.658,0,0,0,371.694,371.03Z" transform="translate(-298.137 -315.283)" fill="#7300cc"></path>   <path id="Caminho_17060" data-name="Caminho 17060" d="M382.9,381.426a.658.658,0,1,0,.658.658A.658.658,0,0,0,382.9,381.426Z" transform="translate(-307.145 -323.636)" fill="#7300cc"></path>   <path id="Caminho_17061" data-name="Caminho 17061" d="M371.694,392.636a.659.659,0,1,0,.658.659A.658.658,0,0,0,371.694,392.636Z" transform="translate(-298.137 -332.644)" fill="#7300cc"></path>   <path id="Caminho_17062" data-name="Caminho 17062" d="M361.3,338.214a.659.659,0,1,0,.658.658A.658.658,0,0,0,361.3,338.214Z" transform="translate(-289.783 -288.914)" fill="#7300cc"></path>   <path id="Caminho_17063" data-name="Caminho 17063" d="M350.088,349.423a.659.659,0,1,0,.658.659A.658.658,0,0,0,350.088,349.423Z" transform="translate(-280.776 -297.921)" fill="#7300cc"></path>   <path id="Caminho_17064" data-name="Caminho 17064" d="M361.3,359.82a.659.659,0,1,0,.658.659A.658.658,0,0,0,361.3,359.82Z" transform="translate(-289.783 -306.275)" fill="#7300cc"></path>   <path id="Caminho_17065" data-name="Caminho 17065" d="M350.088,371.03a.658.658,0,1,0,.658.658A.658.658,0,0,0,350.088,371.03Z" transform="translate(-280.776 -315.283)" fill="#7300cc"></path>   <path id="Caminho_17066" data-name="Caminho 17066" d="M361.3,381.426a.658.658,0,1,0,.658.658A.658.658,0,0,0,361.3,381.426Z" transform="translate(-289.783 -323.636)" fill="#7300cc"></path>   <path id="Caminho_17067" data-name="Caminho 17067" d="M350.088,392.636a.659.659,0,1,0,.658.659A.658.658,0,0,0,350.088,392.636Z" transform="translate(-280.776 -332.644)" fill="#7300cc"></path>   <circle id="Elipse_158" data-name="Elipse 158" cx="0.659" cy="0.659" r="0.659" transform="translate(70.856 62.035)" fill="#7300cc"></circle>   <path id="Caminho_17068" data-name="Caminho 17068" d="M328.482,349.423a.659.659,0,1,0,.658.659A.658.658,0,0,0,328.482,349.423Z" transform="translate(-263.415 -297.921)" fill="#7300cc"></path>   <path id="Caminho_17069" data-name="Caminho 17069" d="M339.692,359.82a.659.659,0,1,0,.658.659A.658.658,0,0,0,339.692,359.82Z" transform="translate(-272.423 -306.275)" fill="#7300cc"></path>   <path id="Caminho_17070" data-name="Caminho 17070" d="M328.482,371.03a.658.658,0,1,0,.658.658A.658.658,0,0,0,328.482,371.03Z" transform="translate(-263.415 -315.283)" fill="#7300cc"></path>   <path id="Caminho_17071" data-name="Caminho 17071" d="M339.692,381.426a.658.658,0,1,0,.658.658A.658.658,0,0,0,339.692,381.426Z" transform="translate(-272.423 -323.636)" fill="#7300cc"></path>   <path id="Caminho_17072" data-name="Caminho 17072" d="M328.482,392.636a.659.659,0,1,0,.658.659A.658.658,0,0,0,328.482,392.636Z" transform="translate(-263.415 -332.644)" fill="#7300cc"></path>   <circle id="Elipse_159" data-name="Elipse 159" cx="0.659" cy="0.659" r="0.659" transform="translate(66.611 62.035)" fill="#7300cc"></circle>   <path id="Caminho_17073" data-name="Caminho 17073" d="M318.085,359.82a.659.659,0,1,0,.659.659A.658.658,0,0,0,318.085,359.82Z" transform="translate(-255.061 -306.275)" fill="#7300cc"></path>   <path id="Caminho_17074" data-name="Caminho 17074" d="M306.876,371.03a.658.658,0,1,0,.658.658A.658.658,0,0,0,306.876,371.03Z" transform="translate(-246.054 -315.283)" fill="#7300cc"></path>   <path id="Caminho_17075" data-name="Caminho 17075" d="M318.085,381.426a.658.658,0,1,0,.659.658A.658.658,0,0,0,318.085,381.426Z" transform="translate(-255.061 -323.636)" fill="#7300cc"></path>   <path id="Caminho_17076" data-name="Caminho 17076" d="M306.876,392.636a.659.659,0,1,0,.658.659A.658.658,0,0,0,306.876,392.636Z" transform="translate(-246.054 -332.644)" fill="#7300cc"></path>   <path id="Caminho_17077" data-name="Caminho 17077" d="M318.085,403.032a.659.659,0,1,0,.659.659A.658.658,0,0,0,318.085,403.032Z" transform="translate(-255.061 -340.997)" fill="#7300cc"></path>   <path id="Caminho_17078" data-name="Caminho 17078" d="M285.269,371.03a.658.658,0,1,0,.658.658A.658.658,0,0,0,285.269,371.03Z" transform="translate(-228.693 -315.283)" fill="#7300cc"></path>   <path id="Caminho_17079" data-name="Caminho 17079" d="M296.479,381.426a.658.658,0,1,0,.658.658A.658.658,0,0,0,296.479,381.426Z" transform="translate(-237.7 -323.636)" fill="#7300cc"></path>   <path id="Caminho_17080" data-name="Caminho 17080" d="M285.269,392.636a.659.659,0,1,0,.658.659A.658.658,0,0,0,285.269,392.636Z" transform="translate(-228.693 -332.644)" fill="#7300cc"></path>   <path id="Caminho_17081" data-name="Caminho 17081" d="M296.479,403.032a.659.659,0,1,0,.658.659A.658.658,0,0,0,296.479,403.032Z" transform="translate(-237.7 -340.997)" fill="#7300cc"></path>   <path id="Caminho_17082" data-name="Caminho 17082" d="M263.663,371.03a.658.658,0,1,0,.658.658A.658.658,0,0,0,263.663,371.03Z" transform="translate(-211.331 -315.283)" fill="#7300cc"></path>   <path id="Caminho_17083" data-name="Caminho 17083" d="M274.873,381.426a.658.658,0,1,0,.659.658A.658.658,0,0,0,274.873,381.426Z" transform="translate(-220.338 -323.636)" fill="#7300cc"></path>   <path id="Caminho_17084" data-name="Caminho 17084" d="M263.663,392.636a.659.659,0,1,0,.658.659A.658.658,0,0,0,263.663,392.636Z" transform="translate(-211.331 -332.644)" fill="#7300cc"></path>   <circle id="Elipse_160" data-name="Elipse 160" cx="0.659" cy="0.659" r="0.659" transform="translate(53.876 62.035)" fill="#7300cc"></circle>   <path id="Caminho_17085" data-name="Caminho 17085" d="M253.267,359.82a.659.659,0,1,0,.659.659A.659.659,0,0,0,253.267,359.82Z" transform="translate(-202.978 -306.275)" fill="#7300cc"></path>   <path id="Caminho_17086" data-name="Caminho 17086" d="M242.057,371.03a.658.658,0,1,0,.659.658A.658.658,0,0,0,242.057,371.03Z" transform="translate(-193.971 -315.283)" fill="#7300cc"></path>   <path id="Caminho_17087" data-name="Caminho 17087" d="M253.267,381.426a.658.658,0,1,0,.659.658A.658.658,0,0,0,253.267,381.426Z" transform="translate(-202.978 -323.636)" fill="#7300cc"></path>   <path id="Caminho_17088" data-name="Caminho 17088" d="M242.057,392.636a.659.659,0,1,0,.659.659A.658.658,0,0,0,242.057,392.636Z" transform="translate(-193.971 -332.644)" fill="#7300cc"></path>   <path id="Caminho_17089" data-name="Caminho 17089" d="M231.661,359.82a.659.659,0,1,0,.659.659A.658.658,0,0,0,231.661,359.82Z" transform="translate(-185.617 -306.275)" fill="#7300cc"></path>   <path id="Caminho_17090" data-name="Caminho 17090" d="M220.451,371.03a.658.658,0,1,0,.659.658A.658.658,0,0,0,220.451,371.03Z" transform="translate(-176.61 -315.283)" fill="#7300cc"></path>   <path id="Caminho_17091" data-name="Caminho 17091" d="M231.661,381.426a.658.658,0,1,0,.659.658A.658.658,0,0,0,231.661,381.426Z" transform="translate(-185.617 -323.636)" fill="#7300cc"></path>   <path id="Caminho_17092" data-name="Caminho 17092" d="M220.451,392.636a.659.659,0,1,0,.659.659A.658.658,0,0,0,220.451,392.636Z" transform="translate(-176.61 -332.644)" fill="#7300cc"></path>   <path id="Caminho_17093" data-name="Caminho 17093" d="M198.845,371.03a.658.658,0,1,0,.659.658A.658.658,0,0,0,198.845,371.03Z" transform="translate(-159.248 -315.283)" fill="#7300cc"></path>   <path id="Caminho_17094" data-name="Caminho 17094" d="M210.054,381.426a.658.658,0,1,0,.659.658A.658.658,0,0,0,210.054,381.426Z" transform="translate(-168.255 -323.636)" fill="#7300cc"></path>   <path id="Caminho_17095" data-name="Caminho 17095" d="M198.845,392.636a.659.659,0,1,0,.659.659A.658.658,0,0,0,198.845,392.636Z" transform="translate(-159.248 -332.644)" fill="#7300cc"></path>   <path id="Caminho_17096" data-name="Caminho 17096" d="M187.79,382.084a.658.658,0,1,0,.659-.658A.659.659,0,0,0,187.79,382.084Z" transform="translate(-150.895 -323.636)" fill="#7300cc"></path>   <path id="Caminho_17097" data-name="Caminho 17097" d="M176.58,393.294a.658.658,0,1,0,.658-.659A.659.659,0,0,0,176.58,393.294Z" transform="translate(-141.887 -332.643)" fill="#7300cc"></path>   <path id="Caminho_17098" data-name="Caminho 17098" d="M154.974,393.294a.658.658,0,1,0,.658-.659A.659.659,0,0,0,154.974,393.294Z" transform="translate(-124.526 -332.643)" fill="#7300cc"></path>   <path id="Caminho_17099" data-name="Caminho 17099" d="M133.368,393.294a.658.658,0,1,0,.658-.659A.659.659,0,0,0,133.368,393.294Z" transform="translate(-107.165 -332.643)" fill="#7300cc"></path>   <path id="Caminho_17100" data-name="Caminho 17100" d="M111.761,393.294a.658.658,0,1,0,.658-.659A.659.659,0,0,0,111.761,393.294Z" transform="translate(-89.803 -332.643)" fill="#7300cc"></path>   <path id="Caminho_17101" data-name="Caminho 17101" d="M90.814,371.03a.658.658,0,1,0,.659.658A.658.658,0,0,0,90.814,371.03Z" transform="translate(-72.444 -315.283)" fill="#7300cc"></path>   <path id="Caminho_17102" data-name="Caminho 17102" d="M101.365,382.084a.658.658,0,1,0,.658-.658A.659.659,0,0,0,101.365,382.084Z" transform="translate(-81.45 -323.636)" fill="#7300cc"></path>   <path id="Caminho_17103" data-name="Caminho 17103" d="M90.814,392.636a.659.659,0,1,0,.659.659A.658.658,0,0,0,90.814,392.636Z" transform="translate(-72.444 -332.644)" fill="#7300cc"></path>   <path id="Caminho_17104" data-name="Caminho 17104" d="M80.417,381.426a.658.658,0,1,0,.659.658A.658.658,0,0,0,80.417,381.426Z" transform="translate(-64.089 -323.636)" fill="#7300cc"></path>   <path id="Caminho_17105" data-name="Caminho 17105" d="M371.667,329.1a.658.658,0,1,0-.658-.658A.659.659,0,0,0,371.667,329.1Z" transform="translate(-298.115 -280.53)" fill="#7300cc"></path>   <path id="Caminho_17106" data-name="Caminho 17106" d="M339.693,338.24a.658.658,0,1,0,.658.659A.658.658,0,0,0,339.693,338.24Z" transform="translate(-272.423 -288.935)" fill="#7300cc"></path>   <path id="Caminho_17107" data-name="Caminho 17107" d="M296.514,359.829a.658.658,0,1,0,.659.659A.658.658,0,0,0,296.514,359.829Z" transform="translate(-237.728 -306.282)" fill="#7300cc"></path>   <path id="Caminho_17108" data-name="Caminho 17108" d="M274.849,361.146a.658.658,0,1,0-.658-.658A.658.658,0,0,0,274.849,361.146Z" transform="translate(-220.32 -306.282)" fill="#7300cc"></path>   <path id="Caminho_17109" data-name="Caminho 17109" d="M99.188,145.025l-8.2-.842a.658.658,0,1,0-.977-.1l-3.06-.314a.665.665,0,0,0,.007-.069.657.657,0,0,0-1.31-.065l-4.8-.493a.787.787,0,0,0-.806.48,12.625,12.625,0,0,1-12.8,7.748l-.034,0-16.809-.732a.657.657,0,1,0-.255-.011l-3.639-.158a.659.659,0,1,0-.937-.041l-3.174-.138a.65.65,0,0,0,.076-.3.658.658,0,1,0-1.268.248l-2.989-.13a.651.651,0,0,0,.012-.118.658.658,0,1,0-1.317,0c0,.021,0,.041.006.062l-2.941-.128a.656.656,0,0,0-1.3-.056l-2.989-.122a.656.656,0,0,0-1.2-.048L18.7,149.3a4.9,4.9,0,0,1-4.7-4.959.657.657,0,1,0,.192-1.3,4.862,4.862,0,0,1,1.38-2.226,4.912,4.912,0,0,1,.644-.5q.232.322.482.63a.659.659,0,1,0,.24.288A14.34,14.34,0,0,0,24.17,145.8a.654.654,0,0,0,1.22.266,14.294,14.294,0,0,0,7.359-.665.658.658,0,1,0,.739-.3,14.4,14.4,0,0,0,5.267-3.913l2.4.2a.646.646,0,0,0-.01.1.658.658,0,0,0,1.317,0c0-.006,0-.012,0-.017a.784.784,0,0,0-.08-1.552l-2.52-.22a14.222,14.222,0,0,0,2.065-5.263A14.29,14.29,0,0,0,61.3,119.48,8,8,0,0,0,62.225,117a13.486,13.486,0,0,0,2.116,1.693,13.32,13.32,0,0,0,7.255,2.153,13.533,13.533,0,0,0,2.843-.3.786.786,0,1,0-.33-1.537,11.855,11.855,0,0,1-11.657-4.083l.613-7.01a.786.786,0,1,0-1.566-.137l-.721,8.246a6.491,6.491,0,0,1-7.032,5.9l-1.141-.1a6.5,6.5,0,0,1-5.9-7.032l1.288-14.725c.279-3.188,2.862-6.43,6.567-6.106,3.5.232,10.834,3.114,16.724,5.429.752.3,1.485.584,2.186.857,5.693,2.266,9.525,7.149,9.762,12.439a.786.786,0,0,0,.717.748l5.938.519c0,.012,0,.023,0,.035a.657.657,0,0,0,1.309.079l7.956.7a.786.786,0,1,0,.137-1.566l-14.532-1.271c-.548-5.636-4.68-10.742-10.707-13.141-.7-.275-1.436-.562-2.187-.857-6.3-2.478-13.449-5.287-17.179-5.534-4.155-.362-7.858,3.017-8.254,7.536l-.252,2.878a30.648,30.648,0,0,0-3.6-.681q.009-.256.009-.513a14.313,14.313,0,0,0-28.112-3.8A7.248,7.248,0,0,0,11.345,111.9l-3.495-.306a7.218,7.218,0,0,0-1.258,14.381l2.027.177a7.032,7.032,0,0,0-.583.44A6.95,6.95,0,0,0,11.9,138.839l3.276.286a6.562,6.562,0,0,0-.669.541,6.464,6.464,0,0,0,4.127,11.208l48.482,2.062q.627.054,1.247.054a14.181,14.181,0,0,0,12.89-8.227l17.775,1.824a.786.786,0,1,0,.16-1.563Zm-39.694-23.4q.166-.139.323-.286a12.724,12.724,0,0,1-17.7,11.481c.017-.285.028-.57.028-.859a14.391,14.391,0,0,0-.109-1.736,10.428,10.428,0,0,0,15.32-7.306,8.089,8.089,0,0,0,2.14-1.294Zm-11.693.119.085.03a1.652,1.652,0,0,1,1.173,1.914,2.1,2.1,0,0,1-1.258,1.591Zm-1.572-.619v4.286a2.926,2.926,0,0,1-1.511-.585.786.786,0,1,0-.86,1.315,4.434,4.434,0,0,0,2.371.845v.738a.786.786,0,0,0,1.572,0v-.8a3.636,3.636,0,0,0,2.808-2.971,3.507,3.507,0,0,0,.031-.947,12.234,12.234,0,0,0,5,.4,8.852,8.852,0,0,1-14.042,4.644,14.307,14.307,0,0,0-3.306-5.844,8.778,8.778,0,0,1-.073-1.111,8.876,8.876,0,0,1,7.12-8.688l-.2,2.241a8.056,8.056,0,0,0-.023,1.01,3.1,3.1,0,0,0-1.255,1.977,2.675,2.675,0,0,0,.878,2.635,7.056,7.056,0,0,0,1.49.858Zm-9.577-.423a14.361,14.361,0,0,0-2.18-1.414,12.76,12.76,0,0,1,11.209-10.856l-.206,2.35A10.451,10.451,0,0,0,36.652,120.707Zm9.056-1.672a1.139,1.139,0,0,1-.3-1.107,1.608,1.608,0,0,1,.057-.215,8.05,8.05,0,0,0,.7,1.625A3.97,3.97,0,0,1,45.708,119.035Zm-3.256-15.341a29.335,29.335,0,0,1,3.584.695l-.215,2.457a14.207,14.207,0,0,0-3.376.715,13.934,13.934,0,0,0,.007-3.866ZM28.269,88.866a12.764,12.764,0,0,1,12.3,9.434,14.357,14.357,0,0,0-9.36-6.7,10.444,10.444,0,0,0-5.889,0,14.358,14.358,0,0,0-9.359,6.7A12.762,12.762,0,0,1,28.269,88.866Zm0,3.995a12.734,12.734,0,0,1,12.456,15.419,14.368,14.368,0,0,0-3.234,2.2,10.462,10.462,0,1,0-2.664,3.232,14.238,14.238,0,0,0-1.55,3.6,12.659,12.659,0,0,1-2.191.714,14.253,14.253,0,0,0-6.058-.1,12.743,12.743,0,0,1,3.241-25.067ZM37.135,105.6a8.866,8.866,0,1,1-8.866-8.866A8.876,8.876,0,0,1,37.135,105.6Zm-28.1,2.831a5.676,5.676,0,0,1,5.1-9.088,14.213,14.213,0,0,0-.038,4.262,14.219,14.219,0,0,0,.876,7.287l-2.184-.279A5.637,5.637,0,0,1,9.032,108.435Zm-2.3,15.974a5.646,5.646,0,0,1,.984-11.249l8.931.781a14.405,14.405,0,0,0,5.84,4.748,14.4,14.4,0,0,0-7.244,6.464Zm5.306,12.865a5.378,5.378,0,1,1,.937-10.715l1.551.136a14.283,14.283,0,0,0,.1,10.806Zm3.05-5.308a12.743,12.743,0,1,1,12.743,12.743A12.757,12.757,0,0,1,15.085,131.965Z" transform="translate(-0.003 -87.294)" fill="#7300cc"></path>   <path id="Caminho_17110" data-name="Caminho 17110" d="M130.563,149.349c-.2-.071-.4-.145-.609-.222v-3.344a2.159,2.159,0,0,1,.8.4.786.786,0,0,0,1.06-1.161,3.829,3.829,0,0,0-1.865-.845v-.659a.786.786,0,0,0-1.572,0v.718c-.1.022-.193.047-.292.076a3.031,3.031,0,0,0-2.077,2.377,2.674,2.674,0,0,0,.878,2.635,7.041,7.041,0,0,0,1.49.858v4.286a2.922,2.922,0,0,1-1.511-.586.786.786,0,0,0-.861,1.315,4.436,4.436,0,0,0,2.371.845v.738a.786.786,0,0,0,1.572,0v-.8a3.636,3.636,0,0,0,2.808-2.971A3.2,3.2,0,0,0,130.563,149.349Zm-2.181-.923a4.132,4.132,0,0,1-.52-.339,1.139,1.139,0,0,1-.3-1.107,1.507,1.507,0,0,1,.823-1.1Zm2.83,4.319a2.1,2.1,0,0,1-1.258,1.591V150.8l.085.03A1.652,1.652,0,0,1,131.212,152.745Z" transform="translate(-100.968 -131.84)" fill="#7300cc"></path>   <path id="Caminho_17111" data-name="Caminho 17111" d="M98.935,282.409A10.437,10.437,0,1,0,88.5,271.971,10.449,10.449,0,0,0,98.935,282.409Zm0-19.3a8.866,8.866,0,1,1-8.866,8.866A8.876,8.876,0,0,1,98.935,263.106Z" transform="translate(-71.112 -227.3)" fill="#7300cc"></path>   <path id="Caminho_17112" data-name="Caminho 17112" d="M123.765,289.369a4.436,4.436,0,0,0,2.371.845v.738a.786.786,0,0,0,1.572,0v-.8a3.636,3.636,0,0,0,2.808-2.971,3.2,3.2,0,0,0-2.2-3.657c-.2-.071-.4-.145-.609-.222v-3.344a2.156,2.156,0,0,1,.8.4.786.786,0,0,0,1.06-1.161,3.83,3.83,0,0,0-1.865-.845v-.659a.786.786,0,1,0-1.572,0v.718c-.1.022-.193.047-.292.076a3.031,3.031,0,0,0-2.077,2.377,2.675,2.675,0,0,0,.878,2.635,7.04,7.04,0,0,0,1.49.858v4.286a2.92,2.92,0,0,1-1.511-.585.786.786,0,1,0-.86,1.315Zm3.943-4.4.085.03a1.652,1.652,0,0,1,1.173,1.914,2.1,2.1,0,0,1-1.258,1.591Zm-2.092-2.713a1.139,1.139,0,0,1-.3-1.107,1.508,1.508,0,0,1,.823-1.1V282.6A4.156,4.156,0,0,1,125.616,282.259Z" transform="translate(-99.163 -239.649)" fill="#7300cc"></path> </svg>