<svg id="computer" xmlns="http://www.w3.org/2000/svg" width="91.408" height="99.646" viewBox="0 0 91.408 99.646">   <g id="Grupo_4323" data-name="Grupo 4323">     <path id="Caminho_17223" data-name="Caminho 17223" d="M357.657,339.332a.611.611,0,1,0-.611-.61A.611.611,0,0,0,357.657,339.332Z" transform="translate(-291.507 -272.147)" fill="#7300cc"></path>     <path id="Caminho_17224" data-name="Caminho 17224" d="M347.188,349.8a.611.611,0,1,0-.611-.611A.611.611,0,0,0,347.188,349.8Z" transform="translate(-283.08 -280.572)" fill="#7300cc"></path>     <path id="Caminho_17225" data-name="Caminho 17225" d="M337.48,339.332a.611.611,0,1,0-.611-.61A.611.611,0,0,0,337.48,339.332Z" transform="translate(-275.266 -272.147)" fill="#7300cc"></path>     <path id="Caminho_17226" data-name="Caminho 17226" d="M327.011,349.8a.611.611,0,1,0-.611-.611A.611.611,0,0,0,327.011,349.8Z" transform="translate(-266.84 -280.572)" fill="#7300cc"></path>     <path id="Caminho_17227" data-name="Caminho 17227" d="M317.3,339.332a.611.611,0,1,0-.611-.61A.611.611,0,0,0,317.3,339.332Z" transform="translate(-259.025 -272.147)" fill="#7300cc"></path>     <path id="Caminho_17228" data-name="Caminho 17228" d="M306.833,349.8a.611.611,0,1,0-.611-.611A.611.611,0,0,0,306.833,349.8Z" transform="translate(-250.598 -280.572)" fill="#7300cc"></path>     <path id="Caminho_17229" data-name="Caminho 17229" d="M297.124,339.332a.611.611,0,1,0-.611-.61A.611.611,0,0,0,297.124,339.332Z" transform="translate(-242.784 -272.147)" fill="#7300cc"></path>     <path id="Caminho_17230" data-name="Caminho 17230" d="M286.656,349.8a.611.611,0,1,0-.611-.611A.611.611,0,0,0,286.656,349.8Z" transform="translate(-234.358 -280.572)" fill="#7300cc"></path>     <path id="Caminho_17231" data-name="Caminho 17231" d="M276.947,339.332a.611.611,0,1,0-.611-.61A.611.611,0,0,0,276.947,339.332Z" transform="translate(-226.543 -272.147)" fill="#7300cc"></path>     <path id="Caminho_17232" data-name="Caminho 17232" d="M266.478,349.8a.611.611,0,1,0-.611-.611A.611.611,0,0,0,266.478,349.8Z" transform="translate(-218.116 -280.572)" fill="#7300cc"></path>     <path id="Caminho_17233" data-name="Caminho 17233" d="M256.769,339.332a.611.611,0,1,0-.611-.61A.611.611,0,0,0,256.769,339.332Z" transform="translate(-210.302 -272.147)" fill="#7300cc"></path>     <path id="Caminho_17234" data-name="Caminho 17234" d="M246.3,349.8a.611.611,0,1,0-.611-.611A.611.611,0,0,0,246.3,349.8Z" transform="translate(-201.875 -280.572)" fill="#7300cc"></path>     <path id="Caminho_17235" data-name="Caminho 17235" d="M236.591,339.332a.611.611,0,1,0-.611-.61A.611.611,0,0,0,236.591,339.332Z" transform="translate(-194.06 -272.147)" fill="#7300cc"></path>     <path id="Caminho_17236" data-name="Caminho 17236" d="M226.123,349.8a.611.611,0,1,0-.611-.611A.611.611,0,0,0,226.123,349.8Z" transform="translate(-185.635 -280.572)" fill="#7300cc"></path>     <path id="Caminho_17237" data-name="Caminho 17237" d="M216.414,339.332a.611.611,0,1,0-.611-.61A.611.611,0,0,0,216.414,339.332Z" transform="translate(-177.82 -272.147)" fill="#7300cc"></path>     <path id="Caminho_17238" data-name="Caminho 17238" d="M205.945,349.8a.611.611,0,1,0-.611-.611A.611.611,0,0,0,205.945,349.8Z" transform="translate(-169.393 -280.572)" fill="#7300cc"></path>     <path id="Caminho_17239" data-name="Caminho 17239" d="M196.236,339.332a.611.611,0,1,0-.611-.61A.611.611,0,0,0,196.236,339.332Z" transform="translate(-161.578 -272.147)" fill="#7300cc"></path>     <path id="Caminho_17240" data-name="Caminho 17240" d="M185.767,349.8a.611.611,0,1,0-.611-.611A.611.611,0,0,0,185.767,349.8Z" transform="translate(-153.152 -280.572)" fill="#7300cc"></path>     <path id="Caminho_17241" data-name="Caminho 17241" d="M176.058,339.332a.611.611,0,1,0-.611-.61A.611.611,0,0,0,176.058,339.332Z" transform="translate(-145.337 -272.147)" fill="#7300cc"></path>     <path id="Caminho_17242" data-name="Caminho 17242" d="M165.59,349.8a.611.611,0,1,0-.611-.611A.611.611,0,0,0,165.59,349.8Z" transform="translate(-136.911 -280.572)" fill="#7300cc"></path>     <path id="Caminho_17243" data-name="Caminho 17243" d="M155.881,339.332a.611.611,0,1,0-.611-.61A.611.611,0,0,0,155.881,339.332Z" transform="translate(-129.097 -272.147)" fill="#7300cc"></path>     <circle id="Elipse_172" data-name="Elipse 172" cx="0.611" cy="0.611" r="0.611" transform="translate(86.663 75.575)" fill="#7300cc"></circle>     <path id="Caminho_17244" data-name="Caminho 17244" d="M465.931,407.552a.611.611,0,1,0,.611.61A.611.611,0,0,0,465.931,407.552Z" transform="translate(-378.657 -328.04)" fill="#7300cc"></path>     <path id="Caminho_17245" data-name="Caminho 17245" d="M465.931,427.729a.611.611,0,1,0,.611.61A.611.611,0,0,0,465.931,427.729Z" transform="translate(-378.657 -344.28)" fill="#7300cc"></path>     <path id="Caminho_17246" data-name="Caminho 17246" d="M465.931,447.907a.611.611,0,1,0,.611.61A.611.611,0,0,0,465.931,447.907Z" transform="translate(-378.657 -360.522)" fill="#7300cc"></path>     <circle id="Elipse_173" data-name="Elipse 173" cx="0.611" cy="0.611" r="0.611" transform="translate(86.663 91.322)" fill="#7300cc"></circle>     <path id="Caminho_17247" data-name="Caminho 17247" d="M465.931,488.262a.611.611,0,1,0,.611.611A.611.611,0,0,0,465.931,488.262Z" transform="translate(-378.657 -393.004)" fill="#7300cc"></path>     <path id="Caminho_17248" data-name="Caminho 17248" d="M445.753,367.2a.611.611,0,1,0,.611.611A.611.611,0,0,0,445.753,367.2Z" transform="translate(-362.415 -295.557)" fill="#7300cc"></path>     <circle id="Elipse_174" data-name="Elipse 174" cx="0.611" cy="0.611" r="0.611" transform="translate(84.769 73.533)" fill="#7300cc"></circle>     <path id="Caminho_17249" data-name="Caminho 17249" d="M445.753,387.374a.611.611,0,1,0,.611.611A.611.611,0,0,0,445.753,387.374Z" transform="translate(-362.415 -311.799)" fill="#7300cc"></path>     <path id="Caminho_17250" data-name="Caminho 17250" d="M456.222,397.083a.611.611,0,1,0,.611.611A.611.611,0,0,0,456.222,397.083Z" transform="translate(-370.842 -319.613)" fill="#7300cc"></path>     <path id="Caminho_17251" data-name="Caminho 17251" d="M445.753,407.552a.611.611,0,1,0,.611.61A.611.611,0,0,0,445.753,407.552Z" transform="translate(-362.415 -328.04)" fill="#7300cc"></path>     <path id="Caminho_17252" data-name="Caminho 17252" d="M456.222,417.261a.611.611,0,1,0,.611.61A.611.611,0,0,0,456.222,417.261Z" transform="translate(-370.842 -335.855)" fill="#7300cc"></path>     <path id="Caminho_17253" data-name="Caminho 17253" d="M303.667,411.488a.608.608,0,0,0-.342.1v-.4a2.784,2.784,0,0,0-2.781-2.781h-.258a.611.611,0,1,0-1.112,0H296.35a.611.611,0,1,0-1.112,0h-2.825a.611.611,0,1,0-1.112,0h-2.825a.611.611,0,1,0-1.112,0H271.4a2.784,2.784,0,0,0-2.781,2.781v2.736a2.784,2.784,0,0,0,2.781,2.781h29.147a2.784,2.784,0,0,0,2.781-2.781v-1.324a.611.611,0,1,0,.342-1.117Zm-3.122,3.647H271.4a1.207,1.207,0,0,1-1.206-1.206v-2.736a1.207,1.207,0,0,1,1.206-1.206h17.962a.622.622,0,0,0-.007.069.611.611,0,1,0,1.221,0,.575.575,0,0,0-.007-.069H293.3a.609.609,0,1,0,1.214.069.581.581,0,0,0-.007-.069h2.729a.575.575,0,0,0-.007.069.611.611,0,1,0,1.221,0,.575.575,0,0,0-.007-.069h2.1a1.2,1.2,0,0,1,.629.179.609.609,0,0,0,.444.479,1.2,1.2,0,0,1,.133.548v2.192a.608.608,0,0,0-.183,1.181A1.207,1.207,0,0,1,300.545,415.136Z" transform="translate(-220.33 -328.04)" fill="#7300cc"></path>     <path id="Caminho_17254" data-name="Caminho 17254" d="M456.222,437.438a.611.611,0,1,0,.611.61A.611.611,0,0,0,456.222,437.438Z" transform="translate(-370.842 -352.095)" fill="#7300cc"></path>     <path id="Caminho_17255" data-name="Caminho 17255" d="M445.753,447.907a.611.611,0,1,0,.611.61A.611.611,0,0,0,445.753,447.907Z" transform="translate(-362.415 -360.522)" fill="#7300cc"></path>     <path id="Caminho_17256" data-name="Caminho 17256" d="M456.222,457.616a.611.611,0,1,0,.611.61A.611.611,0,0,0,456.222,457.616Z" transform="translate(-370.842 -368.337)" fill="#7300cc"></path>     <path id="Caminho_17257" data-name="Caminho 17257" d="M445.753,468.084a.611.611,0,1,0,.611.611A.611.611,0,0,0,445.753,468.084Z" transform="translate(-362.415 -376.762)" fill="#7300cc"></path>     <circle id="Elipse_175" data-name="Elipse 175" cx="0.611" cy="0.611" r="0.611" transform="translate(84.769 93.216)" fill="#7300cc"></circle>     <path id="Caminho_17258" data-name="Caminho 17258" d="M445.753,488.262a.611.611,0,1,0,.611.611A.611.611,0,0,0,445.753,488.262Z" transform="translate(-362.415 -393.004)" fill="#7300cc"></path>     <path id="Caminho_17259" data-name="Caminho 17259" d="M425.575,368.417a.611.611,0,1,0-.611-.611A.611.611,0,0,0,425.575,368.417Z" transform="translate(-346.174 -295.557)" fill="#7300cc"></path>     <path id="Caminho_17260" data-name="Caminho 17260" d="M436.044,378.126a.611.611,0,1,0-.611-.611A.611.611,0,0,0,436.044,378.126Z" transform="translate(-354.601 -303.372)" fill="#7300cc"></path>     <path id="Caminho_17261" data-name="Caminho 17261" d="M425.575,388.6a.611.611,0,1,0-.611-.611A.611.611,0,0,0,425.575,388.6Z" transform="translate(-346.174 -311.799)" fill="#7300cc"></path>     <path id="Caminho_17262" data-name="Caminho 17262" d="M436.044,398.3a.611.611,0,1,0-.611-.611A.611.611,0,0,0,436.044,398.3Z" transform="translate(-354.601 -319.613)" fill="#7300cc"></path>     <path id="Caminho_17263" data-name="Caminho 17263" d="M425.575,427.729a.611.611,0,1,0,.611.61A.611.611,0,0,0,425.575,427.729Z" transform="translate(-346.174 -344.28)" fill="#7300cc"></path>     <path id="Caminho_17264" data-name="Caminho 17264" d="M436.044,457.616a.611.611,0,1,0,.611.61A.611.611,0,0,0,436.044,457.616Z" transform="translate(-354.601 -368.337)" fill="#7300cc"></path>     <path id="Caminho_17265" data-name="Caminho 17265" d="M425.575,468.084a.611.611,0,1,0,.611.611A.611.611,0,0,0,425.575,468.084Z" transform="translate(-346.174 -376.762)" fill="#7300cc"></path>     <path id="Caminho_17266" data-name="Caminho 17266" d="M436.044,477.793a.611.611,0,1,0,.611.611A.611.611,0,0,0,436.044,477.793Z" transform="translate(-354.601 -384.577)" fill="#7300cc"></path>     <path id="Caminho_17267" data-name="Caminho 17267" d="M425.575,488.262a.611.611,0,1,0,.611.611A.611.611,0,0,0,425.575,488.262Z" transform="translate(-346.174 -393.004)" fill="#7300cc"></path>     <path id="Caminho_17268" data-name="Caminho 17268" d="M405.4,368.417a.611.611,0,1,0-.611-.611A.611.611,0,0,0,405.4,368.417Z" transform="translate(-329.934 -295.557)" fill="#7300cc"></path>     <path id="Caminho_17269" data-name="Caminho 17269" d="M415.866,378.126a.611.611,0,1,0-.611-.611A.611.611,0,0,0,415.866,378.126Z" transform="translate(-338.359 -303.372)" fill="#7300cc"></path>     <circle id="Elipse_176" data-name="Elipse 176" cx="0.611" cy="0.611" r="0.611" transform="translate(74.853 75.575)" fill="#7300cc"></circle>     <path id="Caminho_17270" data-name="Caminho 17270" d="M415.866,398.3a.611.611,0,1,0-.611-.611A.611.611,0,0,0,415.866,398.3Z" transform="translate(-338.359 -319.613)" fill="#7300cc"></path>     <path id="Caminho_17271" data-name="Caminho 17271" d="M405.4,427.729a.611.611,0,1,0,.611.61A.611.611,0,0,0,405.4,427.729Z" transform="translate(-329.934 -344.28)" fill="#7300cc"></path>     <path id="Caminho_17272" data-name="Caminho 17272" d="M415.866,437.438a.611.611,0,1,0,.611.61A.611.611,0,0,0,415.866,437.438Z" transform="translate(-338.359 -352.095)" fill="#7300cc"></path>     <path id="Caminho_17273" data-name="Caminho 17273" d="M415.866,457.616a.611.611,0,1,0,.611.61A.611.611,0,0,0,415.866,457.616Z" transform="translate(-338.359 -368.337)" fill="#7300cc"></path>     <circle id="Elipse_177" data-name="Elipse 177" cx="0.611" cy="0.611" r="0.611" transform="translate(74.853 91.322)" fill="#7300cc"></circle>     <path id="Caminho_17274" data-name="Caminho 17274" d="M415.866,477.793a.611.611,0,1,0,.611.611A.611.611,0,0,0,415.866,477.793Z" transform="translate(-338.359 -384.577)" fill="#7300cc"></path>     <path id="Caminho_17275" data-name="Caminho 17275" d="M405.4,488.262a.611.611,0,1,0,.611.611A.611.611,0,0,0,405.4,488.262Z" transform="translate(-329.934 -393.004)" fill="#7300cc"></path>     <path id="Caminho_17276" data-name="Caminho 17276" d="M385.22,368.417a.611.611,0,1,0-.611-.611A.611.611,0,0,0,385.22,368.417Z" transform="translate(-313.692 -295.557)" fill="#7300cc"></path>     <circle id="Elipse_178" data-name="Elipse 178" cx="0.611" cy="0.611" r="0.611" transform="translate(72.959 73.533)" fill="#7300cc"></circle>     <path id="Caminho_17277" data-name="Caminho 17277" d="M385.22,388.6a.611.611,0,1,0-.611-.611A.611.611,0,0,0,385.22,388.6Z" transform="translate(-313.692 -311.799)" fill="#7300cc"></path>     <path id="Caminho_17278" data-name="Caminho 17278" d="M395.689,398.3a.611.611,0,1,0-.611-.611A.611.611,0,0,0,395.689,398.3Z" transform="translate(-322.119 -319.613)" fill="#7300cc"></path>     <path id="Caminho_17279" data-name="Caminho 17279" d="M385.22,427.729a.611.611,0,1,0,.611.61A.611.611,0,0,0,385.22,427.729Z" transform="translate(-313.692 -344.28)" fill="#7300cc"></path>     <path id="Caminho_17280" data-name="Caminho 17280" d="M395.689,437.438a.611.611,0,1,0,.611.61A.611.611,0,0,0,395.689,437.438Z" transform="translate(-322.119 -352.095)" fill="#7300cc"></path>     <path id="Caminho_17281" data-name="Caminho 17281" d="M395.689,457.616a.611.611,0,1,0,.611.61A.611.611,0,0,0,395.689,457.616Z" transform="translate(-322.119 -368.337)" fill="#7300cc"></path>     <path id="Caminho_17282" data-name="Caminho 17282" d="M385.22,468.084a.611.611,0,1,0,.611.611A.611.611,0,0,0,385.22,468.084Z" transform="translate(-313.692 -376.762)" fill="#7300cc"></path>     <circle id="Elipse_179" data-name="Elipse 179" cx="0.611" cy="0.611" r="0.611" transform="translate(72.959 93.216)" fill="#7300cc"></circle>     <path id="Caminho_17283" data-name="Caminho 17283" d="M385.22,488.262a.611.611,0,1,0,.611.611A.611.611,0,0,0,385.22,488.262Z" transform="translate(-313.692 -393.004)" fill="#7300cc"></path>     <path id="Caminho_17284" data-name="Caminho 17284" d="M365.042,368.417a.611.611,0,1,0-.611-.611A.611.611,0,0,0,365.042,368.417Z" transform="translate(-297.451 -295.557)" fill="#7300cc"></path>     <path id="Caminho_17285" data-name="Caminho 17285" d="M375.511,378.126a.611.611,0,1,0-.611-.611A.611.611,0,0,0,375.511,378.126Z" transform="translate(-305.878 -303.372)" fill="#7300cc"></path>     <circle id="Elipse_180" data-name="Elipse 180" cx="0.611" cy="0.611" r="0.611" transform="translate(66.98 75.575)" fill="#7300cc"></circle>     <path id="Caminho_17286" data-name="Caminho 17286" d="M375.511,398.3a.611.611,0,1,0-.611-.611A.611.611,0,0,0,375.511,398.3Z" transform="translate(-305.878 -319.613)" fill="#7300cc"></path>     <path id="Caminho_17287" data-name="Caminho 17287" d="M365.042,427.729a.611.611,0,1,0,.611.61A.611.611,0,0,0,365.042,427.729Z" transform="translate(-297.451 -344.28)" fill="#7300cc"></path>     <path id="Caminho_17288" data-name="Caminho 17288" d="M375.511,437.438a.611.611,0,1,0,.611.61A.611.611,0,0,0,375.511,437.438Z" transform="translate(-305.878 -352.095)" fill="#7300cc"></path>     <path id="Caminho_17289" data-name="Caminho 17289" d="M375.511,457.616a.611.611,0,1,0,.611.61A.611.611,0,0,0,375.511,457.616Z" transform="translate(-305.878 -368.337)" fill="#7300cc"></path>     <circle id="Elipse_181" data-name="Elipse 181" cx="0.611" cy="0.611" r="0.611" transform="translate(66.98 91.322)" fill="#7300cc"></circle>     <path id="Caminho_17290" data-name="Caminho 17290" d="M375.511,477.793a.611.611,0,1,0,.611.611A.611.611,0,0,0,375.511,477.793Z" transform="translate(-305.878 -384.577)" fill="#7300cc"></path>     <path id="Caminho_17291" data-name="Caminho 17291" d="M365.042,488.262a.611.611,0,1,0,.611.611A.611.611,0,0,0,365.042,488.262Z" transform="translate(-297.451 -393.004)" fill="#7300cc"></path>     <path id="Caminho_17292" data-name="Caminho 17292" d="M63.192,411.964h-4.01a2.244,2.244,0,0,0-2.241,2.241v3.815a2.244,2.244,0,0,0,2.241,2.241h4.01a2.244,2.244,0,0,0,2.241-2.241v-3.815A2.244,2.244,0,0,0,63.192,411.964Z" transform="translate(-49.95 -331.591)" fill="#7300cc"></path>     <path id="Caminho_17293" data-name="Caminho 17293" d="M128.638,411.964h-4.01a2.244,2.244,0,0,0-2.241,2.241v3.815a2.244,2.244,0,0,0,2.241,2.241h4.01a2.244,2.244,0,0,0,2.241-2.241v-3.815A2.244,2.244,0,0,0,128.638,411.964Zm.667,6.056a.668.668,0,0,1-.667.667h-4.01a.668.668,0,0,1-.667-.667v-3.815a.668.668,0,0,1,.667-.667h4.01a.668.668,0,0,1,.667.667Z" transform="translate(-102.628 -331.591)" fill="#7300cc"></path>     <path id="Caminho_17294" data-name="Caminho 17294" d="M445.356,45.575a.611.611,0,1,0-.611-.611A.611.611,0,0,0,445.356,45.575Z" transform="translate(-362.096 -35.701)" fill="#7300cc"></path>     <circle id="Elipse_182" data-name="Elipse 182" cx="0.611" cy="0.611" r="0.611" transform="translate(82.649 12.59)" fill="#7300cc"></circle>     <circle id="Elipse_183" data-name="Elipse 183" cx="0.611" cy="0.611" r="0.611" transform="translate(82.649 16.526)" fill="#7300cc"></circle>     <path id="Caminho_17295" data-name="Caminho 17295" d="M445.356,106.108a.611.611,0,1,0-.611-.61A.611.611,0,0,0,445.356,106.108Z" transform="translate(-362.096 -84.424)" fill="#7300cc"></path>     <path id="Caminho_17296" data-name="Caminho 17296" d="M445.356,126.286a.611.611,0,1,0-.611-.61A.611.611,0,0,0,445.356,126.286Z" transform="translate(-362.096 -100.665)" fill="#7300cc"></path>     <path id="Caminho_17297" data-name="Caminho 17297" d="M445.356,146.464a.611.611,0,1,0-.611-.61A.611.611,0,0,0,445.356,146.464Z" transform="translate(-362.096 -116.907)" fill="#7300cc"></path>     <path id="Caminho_17298" data-name="Caminho 17298" d="M445.356,166.642a.611.611,0,1,0-.611-.61A.611.611,0,0,0,445.356,166.642Z" transform="translate(-362.096 -133.148)" fill="#7300cc"></path>     <circle id="Elipse_184" data-name="Elipse 184" cx="0.611" cy="0.611" r="0.611" transform="translate(82.649 36.209)" fill="#7300cc"></circle>     <path id="Caminho_17299" data-name="Caminho 17299" d="M445.356,207a.611.611,0,1,0-.611-.61A.611.611,0,0,0,445.356,207Z" transform="translate(-362.096 -165.63)" fill="#7300cc"></path>     <path id="Caminho_17300" data-name="Caminho 17300" d="M445.356,227.174a.611.611,0,1,0-.611-.61A.611.611,0,0,0,445.356,227.174Z" transform="translate(-362.096 -181.87)" fill="#7300cc"></path>     <path id="Caminho_17301" data-name="Caminho 17301" d="M445.356,247.352a.611.611,0,1,0-.611-.61A.611.611,0,0,0,445.356,247.352Z" transform="translate(-362.096 -198.112)" fill="#7300cc"></path>     <path id="Caminho_17302" data-name="Caminho 17302" d="M445.356,267.529a.611.611,0,1,0-.611-.611A.611.611,0,0,0,445.356,267.529Z" transform="translate(-362.096 -214.352)" fill="#7300cc"></path>     <circle id="Elipse_185" data-name="Elipse 185" cx="0.611" cy="0.611" r="0.611" transform="translate(82.649 55.892)" fill="#7300cc"></circle>     <path id="Caminho_17303" data-name="Caminho 17303" d="M435.646,14.929a.611.611,0,1,0-.611-.61A.611.611,0,0,0,435.646,14.929Z" transform="translate(-354.28 -11.034)" fill="#7300cc"></path>     <path id="Caminho_17304" data-name="Caminho 17304" d="M425.178,25.4a.611.611,0,1,0-.611-.611A.611.611,0,0,0,425.178,25.4Z" transform="translate(-345.855 -19.459)" fill="#7300cc"></path>     <path id="Caminho_17305" data-name="Caminho 17305" d="M435.646,35.107a.611.611,0,1,0-.611-.61A.611.611,0,0,0,435.646,35.107Z" transform="translate(-354.28 -27.275)" fill="#7300cc"></path>     <path id="Caminho_17306" data-name="Caminho 17306" d="M425.178,45.575a.611.611,0,1,0-.611-.611A.611.611,0,0,0,425.178,45.575Z" transform="translate(-345.855 -35.701)" fill="#7300cc"></path>     <path id="Caminho_17307" data-name="Caminho 17307" d="M435.646,55.284a.611.611,0,1,0-.611-.611A.611.611,0,0,0,435.646,55.284Z" transform="translate(-354.28 -43.515)" fill="#7300cc"></path>     <path id="Caminho_17308" data-name="Caminho 17308" d="M425.178,65.752a.611.611,0,1,0-.611-.611A.611.611,0,0,0,425.178,65.752Z" transform="translate(-345.855 -51.941)" fill="#7300cc"></path>     <circle id="Elipse_186" data-name="Elipse 186" cx="0.611" cy="0.611" r="0.611" transform="translate(80.755 14.484)" fill="#7300cc"></circle>     <path id="Caminho_17309" data-name="Caminho 17309" d="M425.178,85.93a.611.611,0,1,0-.611-.611A.611.611,0,0,0,425.178,85.93Z" transform="translate(-345.855 -68.183)" fill="#7300cc"></path>     <circle id="Elipse_187" data-name="Elipse 187" cx="0.611" cy="0.611" r="0.611" transform="translate(80.755 18.421)" fill="#7300cc"></circle>     <path id="Caminho_17310" data-name="Caminho 17310" d="M425.178,106.108a.611.611,0,1,0-.611-.61A.611.611,0,0,0,425.178,106.108Z" transform="translate(-345.855 -84.424)" fill="#7300cc"></path>     <path id="Caminho_17311" data-name="Caminho 17311" d="M435.646,115.817a.611.611,0,1,0-.611-.611A.611.611,0,0,0,435.646,115.817Z" transform="translate(-354.28 -92.239)" fill="#7300cc"></path>     <path id="Caminho_17312" data-name="Caminho 17312" d="M425.178,126.286a.611.611,0,1,0-.611-.61A.611.611,0,0,0,425.178,126.286Z" transform="translate(-345.855 -100.665)" fill="#7300cc"></path>     <path id="Caminho_17313" data-name="Caminho 17313" d="M435.646,136a.611.611,0,1,0-.611-.61A.611.611,0,0,0,435.646,136Z" transform="translate(-354.28 -108.48)" fill="#7300cc"></path>     <path id="Caminho_17314" data-name="Caminho 17314" d="M425.178,146.464a.611.611,0,1,0-.611-.61A.611.611,0,0,0,425.178,146.464Z" transform="translate(-345.855 -116.907)" fill="#7300cc"></path>     <path id="Caminho_17315" data-name="Caminho 17315" d="M435.646,156.173a.611.611,0,1,0-.611-.61A.611.611,0,0,0,435.646,156.173Z" transform="translate(-354.28 -124.721)" fill="#7300cc"></path>     <path id="Caminho_17316" data-name="Caminho 17316" d="M425.178,166.642a.611.611,0,1,0-.611-.61A.611.611,0,0,0,425.178,166.642Z" transform="translate(-345.855 -133.148)" fill="#7300cc"></path>     <path id="Caminho_17317" data-name="Caminho 17317" d="M435.646,176.351a.611.611,0,1,0-.611-.61A.611.611,0,0,0,435.646,176.351Z" transform="translate(-354.28 -140.963)" fill="#7300cc"></path>     <path id="Caminho_17318" data-name="Caminho 17318" d="M425.178,186.818a.611.611,0,1,0-.611-.611A.611.611,0,0,0,425.178,186.818Z" transform="translate(-345.855 -149.388)" fill="#7300cc"></path>     <circle id="Elipse_188" data-name="Elipse 188" cx="0.611" cy="0.611" r="0.611" transform="translate(80.755 38.104)" fill="#7300cc"></circle>     <path id="Caminho_17319" data-name="Caminho 17319" d="M425.178,207a.611.611,0,1,0-.611-.61A.611.611,0,0,0,425.178,207Z" transform="translate(-345.855 -165.63)" fill="#7300cc"></path>     <path id="Caminho_17320" data-name="Caminho 17320" d="M435.646,216.706a.611.611,0,1,0-.611-.61A.611.611,0,0,0,435.646,216.706Z" transform="translate(-354.28 -173.445)" fill="#7300cc"></path>     <path id="Caminho_17321" data-name="Caminho 17321" d="M425.178,227.174a.611.611,0,1,0-.611-.61A.611.611,0,0,0,425.178,227.174Z" transform="translate(-345.855 -181.87)" fill="#7300cc"></path>     <path id="Caminho_17322" data-name="Caminho 17322" d="M435.646,236.883a.611.611,0,1,0-.611-.61A.611.611,0,0,0,435.646,236.883Z" transform="translate(-354.28 -189.685)" fill="#7300cc"></path>     <path id="Caminho_17323" data-name="Caminho 17323" d="M425.178,247.352a.611.611,0,1,0-.611-.61A.611.611,0,0,0,425.178,247.352Z" transform="translate(-345.855 -198.112)" fill="#7300cc"></path>     <path id="Caminho_17324" data-name="Caminho 17324" d="M435.646,257.061a.611.611,0,1,0-.611-.61A.611.611,0,0,0,435.646,257.061Z" transform="translate(-354.28 -205.926)" fill="#7300cc"></path>     <path id="Caminho_17325" data-name="Caminho 17325" d="M425.178,267.529a.611.611,0,1,0-.611-.611A.611.611,0,0,0,425.178,267.529Z" transform="translate(-345.855 -214.352)" fill="#7300cc"></path>     <path id="Caminho_17326" data-name="Caminho 17326" d="M435.646,277.239a.611.611,0,1,0-.611-.61A.611.611,0,0,0,435.646,277.239Z" transform="translate(-354.28 -222.168)" fill="#7300cc"></path>     <path id="Caminho_17327" data-name="Caminho 17327" d="M425.178,287.707a.611.611,0,1,0-.611-.611A.611.611,0,0,0,425.178,287.707Z" transform="translate(-345.855 -230.593)" fill="#7300cc"></path>     <circle id="Elipse_189" data-name="Elipse 189" cx="0.611" cy="0.611" r="0.611" transform="translate(80.755 57.787)" fill="#7300cc"></circle>     <path id="Caminho_17328" data-name="Caminho 17328" d="M425.178,307.884a.611.611,0,1,0-.611-.611A.611.611,0,0,0,425.178,307.884Z" transform="translate(-345.855 -246.834)" fill="#7300cc"></path>     <circle id="Elipse_190" data-name="Elipse 190" cx="0.611" cy="0.611" r="0.611" transform="translate(80.755 61.723)" fill="#7300cc"></circle>     <path id="Caminho_17329" data-name="Caminho 17329" d="M415.469,14.929a.611.611,0,1,0-.611-.61A.611.611,0,0,0,415.469,14.929Z" transform="translate(-338.04 -11.034)" fill="#7300cc"></path>     <path id="Caminho_17330" data-name="Caminho 17330" d="M405,25.4a.611.611,0,1,0-.611-.611A.611.611,0,0,0,405,25.4Z" transform="translate(-329.613 -19.459)" fill="#7300cc"></path>     <path id="Caminho_17331" data-name="Caminho 17331" d="M415.469,35.107a.611.611,0,1,0-.611-.61A.611.611,0,0,0,415.469,35.107Z" transform="translate(-338.04 -27.275)" fill="#7300cc"></path>     <path id="Caminho_17332" data-name="Caminho 17332" d="M415.469,296.2a.611.611,0,1,0,.611.611A.611.611,0,0,0,415.469,296.2Z" transform="translate(-338.04 -238.408)" fill="#7300cc"></path>     <path id="Caminho_17333" data-name="Caminho 17333" d="M405,306.664a.611.611,0,1,0,.611.611A.611.611,0,0,0,405,306.664Z" transform="translate(-329.613 -246.835)" fill="#7300cc"></path>     <path id="Caminho_17334" data-name="Caminho 17334" d="M415.469,316.372a.611.611,0,1,0,.611.611A.611.611,0,0,0,415.469,316.372Z" transform="translate(-338.04 -254.649)" fill="#7300cc"></path>     <path id="Caminho_17335" data-name="Caminho 17335" d="M395.291,14.929a.611.611,0,1,0-.611-.61A.611.611,0,0,0,395.291,14.929Z" transform="translate(-321.798 -11.034)" fill="#7300cc"></path>     <circle id="Elipse_191" data-name="Elipse 191" cx="0.611" cy="0.611" r="0.611" transform="translate(70.839 4.717)" fill="#7300cc"></circle>     <path id="Caminho_17336" data-name="Caminho 17336" d="M395.291,35.107a.611.611,0,1,0-.611-.61A.611.611,0,0,0,395.291,35.107Z" transform="translate(-321.798 -27.275)" fill="#7300cc"></path>     <path id="Caminho_17337" data-name="Caminho 17337" d="M395.291,55.284a.611.611,0,1,0-.611-.611A.611.611,0,0,0,395.291,55.284Z" transform="translate(-321.798 -43.515)" fill="#7300cc"></path>     <circle id="Elipse_192" data-name="Elipse 192" cx="0.611" cy="0.611" r="0.611" transform="translate(70.839 12.59)" fill="#7300cc"></circle>     <path id="Caminho_17338" data-name="Caminho 17338" d="M395.291,75.462a.611.611,0,1,0-.611-.611A.611.611,0,0,0,395.291,75.462Z" transform="translate(-321.798 -59.757)" fill="#7300cc"></path>     <circle id="Elipse_193" data-name="Elipse 193" cx="0.611" cy="0.611" r="0.611" transform="translate(70.839 16.526)" fill="#7300cc"></circle>     <path id="Caminho_17339" data-name="Caminho 17339" d="M395.291,95.639a.611.611,0,1,0-.611-.611A.611.611,0,0,0,395.291,95.639Z" transform="translate(-321.798 -75.997)" fill="#7300cc"></path>     <path id="Caminho_17340" data-name="Caminho 17340" d="M384.822,106.108a.611.611,0,1,0-.611-.61A.611.611,0,0,0,384.822,106.108Z" transform="translate(-313.372 -84.424)" fill="#7300cc"></path>     <path id="Caminho_17341" data-name="Caminho 17341" d="M395.291,115.817a.611.611,0,1,0-.611-.611A.611.611,0,0,0,395.291,115.817Z" transform="translate(-321.798 -92.239)" fill="#7300cc"></path>     <path id="Caminho_17342" data-name="Caminho 17342" d="M384.822,126.286a.611.611,0,1,0-.611-.61A.611.611,0,0,0,384.822,126.286Z" transform="translate(-313.372 -100.665)" fill="#7300cc"></path>     <path id="Caminho_17343" data-name="Caminho 17343" d="M395.291,136a.611.611,0,1,0-.611-.61A.611.611,0,0,0,395.291,136Z" transform="translate(-321.798 -108.48)" fill="#7300cc"></path>     <path id="Caminho_17344" data-name="Caminho 17344" d="M384.822,146.464a.611.611,0,1,0-.611-.61A.611.611,0,0,0,384.822,146.464Z" transform="translate(-313.372 -116.907)" fill="#7300cc"></path>     <path id="Caminho_17345" data-name="Caminho 17345" d="M395.291,156.173a.611.611,0,1,0-.611-.61A.611.611,0,0,0,395.291,156.173Z" transform="translate(-321.798 -124.721)" fill="#7300cc"></path>     <path id="Caminho_17346" data-name="Caminho 17346" d="M384.822,166.642a.611.611,0,1,0-.611-.61A.611.611,0,0,0,384.822,166.642Z" transform="translate(-313.372 -133.148)" fill="#7300cc"></path>     <path id="Caminho_17347" data-name="Caminho 17347" d="M395.291,176.351a.611.611,0,1,0-.611-.61A.611.611,0,0,0,395.291,176.351Z" transform="translate(-321.798 -140.963)" fill="#7300cc"></path>     <circle id="Elipse_194" data-name="Elipse 194" cx="0.611" cy="0.611" r="0.611" transform="translate(70.839 36.209)" fill="#7300cc"></circle>     <path id="Caminho_17348" data-name="Caminho 17348" d="M395.291,196.527a.611.611,0,1,0-.611-.611A.611.611,0,0,0,395.291,196.527Z" transform="translate(-321.798 -157.202)" fill="#7300cc"></path>     <path id="Caminho_17349" data-name="Caminho 17349" d="M384.822,207a.611.611,0,1,0-.611-.61A.611.611,0,0,0,384.822,207Z" transform="translate(-313.372 -165.63)" fill="#7300cc"></path>     <path id="Caminho_17350" data-name="Caminho 17350" d="M395.291,216.706a.611.611,0,1,0-.611-.61A.611.611,0,0,0,395.291,216.706Z" transform="translate(-321.798 -173.445)" fill="#7300cc"></path>     <path id="Caminho_17351" data-name="Caminho 17351" d="M384.822,227.174a.611.611,0,1,0-.611-.61A.611.611,0,0,0,384.822,227.174Z" transform="translate(-313.372 -181.87)" fill="#7300cc"></path>     <path id="Caminho_17352" data-name="Caminho 17352" d="M395.291,236.883a.611.611,0,1,0-.611-.61A.611.611,0,0,0,395.291,236.883Z" transform="translate(-321.798 -189.685)" fill="#7300cc"></path>     <path id="Caminho_17353" data-name="Caminho 17353" d="M384.822,247.352a.611.611,0,1,0-.611-.61A.611.611,0,0,0,384.822,247.352Z" transform="translate(-313.372 -198.112)" fill="#7300cc"></path>     <path id="Caminho_17354" data-name="Caminho 17354" d="M395.291,257.061a.611.611,0,1,0-.611-.61A.611.611,0,0,0,395.291,257.061Z" transform="translate(-321.798 -205.926)" fill="#7300cc"></path>     <path id="Caminho_17355" data-name="Caminho 17355" d="M384.822,267.529a.611.611,0,1,0-.611-.611A.611.611,0,0,0,384.822,267.529Z" transform="translate(-313.372 -214.352)" fill="#7300cc"></path>     <path id="Caminho_17356" data-name="Caminho 17356" d="M395.291,277.239a.611.611,0,1,0-.611-.61A.611.611,0,0,0,395.291,277.239Z" transform="translate(-321.798 -222.168)" fill="#7300cc"></path>     <circle id="Elipse_195" data-name="Elipse 195" cx="0.611" cy="0.611" r="0.611" transform="translate(70.839 59.829)" fill="#7300cc"></circle>     <path id="Caminho_17357" data-name="Caminho 17357" d="M395.291,316.372a.611.611,0,1,0,.611.611A.611.611,0,0,0,395.291,316.372Z" transform="translate(-321.798 -254.649)" fill="#7300cc"></path>     <path id="Caminho_17358" data-name="Caminho 17358" d="M375.114,14.929a.611.611,0,1,0-.611-.61A.611.611,0,0,0,375.114,14.929Z" transform="translate(-305.558 -11.034)" fill="#7300cc"></path>     <path id="Caminho_17359" data-name="Caminho 17359" d="M364.645,25.4a.611.611,0,1,0-.611-.611A.611.611,0,0,0,364.645,25.4Z" transform="translate(-297.131 -19.459)" fill="#7300cc"></path>     <path id="Caminho_17360" data-name="Caminho 17360" d="M354.895,14.925a.611.611,0,1,0-.611-.611A.611.611,0,0,0,354.895,14.925Z" transform="translate(-289.284 -11.03)" fill="#7300cc"></path>     <path id="Caminho_17361" data-name="Caminho 17361" d="M375.114,55.284a.611.611,0,1,0-.611-.611A.611.611,0,0,0,375.114,55.284Z" transform="translate(-305.558 -43.515)" fill="#7300cc"></path>     <path id="Caminho_17362" data-name="Caminho 17362" d="M364.645,65.752a.611.611,0,1,0-.611-.611A.611.611,0,0,0,364.645,65.752Z" transform="translate(-297.131 -51.941)" fill="#7300cc"></path>     <circle id="Elipse_196" data-name="Elipse 196" cx="0.611" cy="0.611" r="0.611" transform="translate(68.945 14.484)" fill="#7300cc"></circle>     <path id="Caminho_17363" data-name="Caminho 17363" d="M364.645,85.93a.611.611,0,1,0-.611-.611A.611.611,0,0,0,364.645,85.93Z" transform="translate(-297.131 -68.183)" fill="#7300cc"></path>     <circle id="Elipse_197" data-name="Elipse 197" cx="0.611" cy="0.611" r="0.611" transform="translate(68.945 18.421)" fill="#7300cc"></circle>     <path id="Caminho_17364" data-name="Caminho 17364" d="M364.645,106.108a.611.611,0,1,0-.611-.61A.611.611,0,0,0,364.645,106.108Z" transform="translate(-297.131 -84.424)" fill="#7300cc"></path>     <path id="Caminho_17365" data-name="Caminho 17365" d="M375.114,115.817a.611.611,0,1,0-.611-.611A.611.611,0,0,0,375.114,115.817Z" transform="translate(-305.558 -92.239)" fill="#7300cc"></path>     <path id="Caminho_17366" data-name="Caminho 17366" d="M364.645,126.286a.611.611,0,1,0-.611-.61A.611.611,0,0,0,364.645,126.286Z" transform="translate(-297.131 -100.665)" fill="#7300cc"></path>     <path id="Caminho_17367" data-name="Caminho 17367" d="M375.114,136a.611.611,0,1,0-.611-.61A.611.611,0,0,0,375.114,136Z" transform="translate(-305.558 -108.48)" fill="#7300cc"></path>     <path id="Caminho_17368" data-name="Caminho 17368" d="M364.645,146.464a.611.611,0,1,0-.611-.61A.611.611,0,0,0,364.645,146.464Z" transform="translate(-297.131 -116.907)" fill="#7300cc"></path>     <path id="Caminho_17369" data-name="Caminho 17369" d="M375.114,156.173a.611.611,0,1,0-.611-.61A.611.611,0,0,0,375.114,156.173Z" transform="translate(-305.558 -124.721)" fill="#7300cc"></path>     <path id="Caminho_17370" data-name="Caminho 17370" d="M364.645,166.642a.611.611,0,1,0-.611-.61A.611.611,0,0,0,364.645,166.642Z" transform="translate(-297.131 -133.148)" fill="#7300cc"></path>     <path id="Caminho_17371" data-name="Caminho 17371" d="M375.114,176.351a.611.611,0,1,0-.611-.61A.611.611,0,0,0,375.114,176.351Z" transform="translate(-305.558 -140.963)" fill="#7300cc"></path>     <path id="Caminho_17372" data-name="Caminho 17372" d="M364.645,186.818a.611.611,0,1,0-.611-.611A.611.611,0,0,0,364.645,186.818Z" transform="translate(-297.131 -149.388)" fill="#7300cc"></path>     <circle id="Elipse_198" data-name="Elipse 198" cx="0.611" cy="0.611" r="0.611" transform="translate(68.945 38.104)" fill="#7300cc"></circle>     <path id="Caminho_17373" data-name="Caminho 17373" d="M364.645,207a.611.611,0,1,0-.611-.61A.611.611,0,0,0,364.645,207Z" transform="translate(-297.131 -165.63)" fill="#7300cc"></path>     <path id="Caminho_17374" data-name="Caminho 17374" d="M375.114,216.706a.611.611,0,1,0-.611-.61A.611.611,0,0,0,375.114,216.706Z" transform="translate(-305.558 -173.445)" fill="#7300cc"></path>     <path id="Caminho_17375" data-name="Caminho 17375" d="M364.645,227.174a.611.611,0,1,0-.611-.61A.611.611,0,0,0,364.645,227.174Z" transform="translate(-297.131 -181.87)" fill="#7300cc"></path>     <path id="Caminho_17376" data-name="Caminho 17376" d="M375.114,236.883a.611.611,0,1,0-.611-.61A.611.611,0,0,0,375.114,236.883Z" transform="translate(-305.558 -189.685)" fill="#7300cc"></path>     <path id="Caminho_17377" data-name="Caminho 17377" d="M364.645,247.352a.611.611,0,1,0-.611-.61A.611.611,0,0,0,364.645,247.352Z" transform="translate(-297.131 -198.112)" fill="#7300cc"></path>     <path id="Caminho_17378" data-name="Caminho 17378" d="M375.114,257.061a.611.611,0,1,0-.611-.61A.611.611,0,0,0,375.114,257.061Z" transform="translate(-305.558 -205.926)" fill="#7300cc"></path>     <path id="Caminho_17379" data-name="Caminho 17379" d="M364.645,267.529a.611.611,0,1,0-.611-.611A.611.611,0,0,0,364.645,267.529Z" transform="translate(-297.131 -214.352)" fill="#7300cc"></path>     <path id="Caminho_17380" data-name="Caminho 17380" d="M375.114,277.239a.611.611,0,1,0-.611-.61A.611.611,0,0,0,375.114,277.239Z" transform="translate(-305.558 -222.168)" fill="#7300cc"></path>     <path id="Caminho_17381" data-name="Caminho 17381" d="M147.339,85.672a.611.611,0,1,0,1.2-.142h.928a6.42,6.42,0,0,0,2.032-.33.608.608,0,1,0,.384-.139h-.007a6.449,6.449,0,0,0,1.482-.842.608.608,0,0,0,.895-.821,6.476,6.476,0,0,0,.993-1.461.612.612,0,1,0,.315-.754,6.415,6.415,0,0,0,.353-2.1V78.4a.608.608,0,0,0,0-1.2V74.463a.608.608,0,0,0,0-1.2V70.526a.608.608,0,0,0,0-1.2V66.59a.608.608,0,0,0,0-1.2V62.653a.608.608,0,0,0,0-1.2V58.716a.608.608,0,0,0,0-1.2V54.779a.608.608,0,0,0,0-1.2V50.843a.608.608,0,0,0,0-1.2V46.906a.608.608,0,0,0,0-1.2V42.97a.608.608,0,0,0,0-1.2V41.2a6.416,6.416,0,0,0-.405-2.248.609.609,0,1,0-.287-.652,6.464,6.464,0,0,0-.958-1.4.608.608,0,0,0-.889-.821,6.413,6.413,0,0,0-3.908-1.325H148.5a.607.607,0,0,0-.55-.872.611.611,0,0,0-.611.611.6.6,0,0,0,.061.261H98.725A6.455,6.455,0,0,0,92.278,41.2V79.083a6.455,6.455,0,0,0,6.447,6.447h48.632a.62.62,0,0,0-.018.142ZM93.853,79.083V41.2a4.878,4.878,0,0,1,4.873-4.873h46.609a.6.6,0,0,0-.038.206.611.611,0,0,0,1.221,0,.6.6,0,0,0-.038-.206h2.792a.611.611,0,1,0,1.172.1,4.888,4.888,0,0,1,3.757,3.6.611.611,0,1,0,.122.719c.014.149.022.3.022.452v2.971a.611.611,0,1,0,0,.473v3.463a.611.611,0,1,0,0,.473v3.463a.61.61,0,1,0,0,.473v3.463a.611.611,0,1,0,0,.473V59.92a.61.61,0,1,0,0,.473v3.463a.611.611,0,1,0,0,.473v3.463a.611.611,0,1,0,0,.473v3.463a.611.611,0,1,0,0,.473v3.463a.611.611,0,1,0,0,.473v2.942c0,.161-.008.32-.024.477a.61.61,0,1,0-.128.729,4.889,4.889,0,0,1-3.746,3.568.6.6,0,0,0,.008-.08.611.611,0,1,0-1.192.178h-2.774a.6.6,0,0,0,.029-.178.611.611,0,1,0-1.192.178h-46.6a4.876,4.876,0,0,1-4.872-4.871Z" transform="translate(-78.394 -27.274)" fill="#7300cc"></path>     <path id="Caminho_17382" data-name="Caminho 17382" d="M364.645,306.664a.611.611,0,1,0,.611.611A.611.611,0,0,0,364.645,306.664Z" transform="translate(-297.131 -246.835)" fill="#7300cc"></path>     <path id="Caminho_17383" data-name="Caminho 17383" d="M354.921,316.387a.611.611,0,1,0,.611.611A.611.611,0,0,0,354.921,316.387Z" transform="translate(-289.305 -254.661)" fill="#7300cc"></path>     <circle id="Elipse_199" data-name="Elipse 199" cx="0.611" cy="0.611" r="0.611" transform="translate(68.945 61.723)" fill="#7300cc"></circle>     <path id="Caminho_17384" data-name="Caminho 17384" d="M105.948,69.4H89.64V65.739h10.61a6.455,6.455,0,0,0,6.447-6.447V6.447A6.455,6.455,0,0,0,100.25,0H33.386a6.454,6.454,0,0,0-6.447,6.447V59.291a6.454,6.454,0,0,0,6.447,6.447H45.5V69.4H27.688a6.581,6.581,0,0,0-6.574,6.574v17.1a6.581,6.581,0,0,0,6.574,6.574h78.26a6.581,6.581,0,0,0,6.574-6.574v-17.1a6.581,6.581,0,0,0-6.574-6.574ZM33.386,64.164a4.878,4.878,0,0,1-4.873-4.873V6.447a4.878,4.878,0,0,1,4.873-4.873H88.048a.607.607,0,0,0,1.159,0h2.778a.607.607,0,0,0,1.159,0h2.778a.607.607,0,0,0,1.159,0h2.778a.608.608,0,0,0,1.14.057,4.887,4.887,0,0,1,3.923,3.429.607.607,0,1,0,.064.267c0-.019,0-.036-.005-.054a4.862,4.862,0,0,1,.144,1.174V59.291a4.864,4.864,0,0,1-.139,1.152s0,0,0,0a.618.618,0,1,0-.081.3,4.887,4.887,0,0,1-3.92,3.371.607.607,0,0,0-1.117.055h-2.8a.608.608,0,0,0-1.141,0h-2.8a.608.608,0,0,0-1.141,0H89.2a.608.608,0,0,0-1.141,0Zm54.679,1.575V69.4H47.075V65.739Zm19.009,32.2a.6.6,0,0,0,.03-.179.611.611,0,1,0-1.135.308h-2.888a.6.6,0,0,0,.086-.308.611.611,0,1,0-1.221,0,.6.6,0,0,0,.086.308H99.145a.6.6,0,0,0,.086-.308.611.611,0,1,0-1.221,0,.6.6,0,0,0,.086.308H95.208a.6.6,0,0,0,.086-.308.611.611,0,1,0-1.135.308H91.271a.6.6,0,0,0,.086-.308.611.611,0,1,0-1.221,0,.6.6,0,0,0,.086.308H87.335a.6.6,0,0,0,.086-.308.611.611,0,1,0-1.135.308h-58.6a5.005,5.005,0,0,1-5-5v-17.1a5.005,5.005,0,0,1,5-5h78.26a4.967,4.967,0,0,1,2.5.673.581.581,0,0,0-.062-.006.611.611,0,1,0,.611.611.6.6,0,0,0-.08-.3,5.034,5.034,0,0,1,1.4,1.592.61.61,0,1,0,.452,1.107,4.991,4.991,0,0,1,.178,1.319v1.788a.611.611,0,1,0,0,.643v3.293a.611.611,0,1,0,0,.643v3.293a.611.611,0,1,0,0,.643v3.293a.611.611,0,1,0,0,.644v2.861c0,.136-.007.271-.018.4a.612.612,0,1,0-.139.841,5.015,5.015,0,0,1-3.716,3.625Z" transform="translate(-21.114 0)" fill="#7300cc"></path>     <path id="Caminho_17385" data-name="Caminho 17385" d="M177.816,121.984H151.654a1.9,1.9,0,0,0-1.894,1.894v5.76H144a1.9,1.9,0,0,0-1.894,1.894V147.8A1.9,1.9,0,0,0,144,149.693h26.162a1.9,1.9,0,0,0,1.894-1.894v-5.76h5.76a1.9,1.9,0,0,0,1.894-1.894V123.878A1.9,1.9,0,0,0,177.816,121.984Zm-26.48,1.894a.319.319,0,0,1,.319-.319H173.46v3.279H151.335ZM170.481,147.8a.319.319,0,0,1-.319.319H144a.319.319,0,0,1-.319-.319V131.531a.319.319,0,0,1,.319-.319h5.76v8.933a1.9,1.9,0,0,0,1.894,1.894h18.827Zm7.654-7.654a.319.319,0,0,1-.319.319H151.654a.319.319,0,0,1-.319-.319V128.412h26.8v11.733Zm0-13.308h-3.1v-3.279h2.781a.319.319,0,0,1,.319.319v2.96Z" transform="translate(-118.502 -98.185)" fill="#7300cc"></path>   </g> </svg>